<?xml version="1.0" encoding="UTF-8" standalone="no"?>
<svg xmlns:ffdec="https://www.free-decompiler.com/flash" xmlns:xlink="http://www.w3.org/1999/xlink" ffdec:objectType="shape" height="39.95px" width="113.8px" xmlns="http://www.w3.org/2000/svg">
  <g transform="matrix(1.0, 0.0, 0.0, 1.0, 57.3, 29.25)">
    <path d="M-20.05 7.7 L-54.3 -4.3 -54.3 -13.5 -20.05 -2.2 -20.05 7.7 M-20.05 -2.2 L-0.55 -26.25 19.75 -2.2 -20.05 -2.2" fill="#402c00" fill-rule="evenodd" stroke="none"/>
    <path d="M19.75 7.7 L-20.05 7.7 -20.05 -2.2 19.75 -2.2 -0.55 -26.25 -0.4 -26.2 -0.25 -26.25 53.5 -15.0 19.75 -2.2 19.75 7.7" fill="#2d1e00" fill-rule="evenodd" stroke="none"/>
    <path d="M-54.3 -13.5 L-0.55 -26.25 -20.05 -2.2 -54.3 -13.5" fill="#4f380b" fill-rule="evenodd" stroke="none"/>
    <path d="M53.5 -15.0 L53.5 -4.05 19.75 7.7 19.75 -2.2 53.5 -15.0" fill="#1c1300" fill-rule="evenodd" stroke="none"/>
    <path d="M53.5 -15.0 L53.5 -4.05 19.75 7.7 -20.05 7.7 -54.3 -4.3 -54.3 -13.5 -0.55 -26.25 -0.4 -26.2 -0.25 -26.25 53.5 -15.0 Z" fill="none" stroke="#624f28" stroke-linecap="round" stroke-linejoin="round" stroke-width="6.0"/>
  </g>
</svg>
