<?xml version="1.0" encoding="UTF-8" standalone="no"?>
<svg xmlns:ffdec="https://www.free-decompiler.com/flash" xmlns:xlink="http://www.w3.org/1999/xlink" ffdec:objectType="shape" height="94.35px" width="72.05px" xmlns="http://www.w3.org/2000/svg">
  <g transform="matrix(1.0, 0.0, 0.0, 1.0, 47.55, 62.4)">
    <path d="M-24.0 -41.5 L-23.4 -59.1 6.45 -58.95 13.8 -52.7 1.55 -35.0 -14.85 -39.1 -23.95 -41.5 -24.0 -41.5 M10.9 -31.95 L10.45 -16.9 0.9 -17.05 -2.3 15.5 5.9 15.3 5.9 18.05 5.9 23.15 -5.85 28.65 -13.9 26.5 -18.4 11.05 -20.2 17.7 -26.4 16.05 -28.75 -0.35 -31.1 8.4 -37.7 6.65 -32.5 -12.65 -12.5 -38.45 10.1 -32.2 10.9 -31.95 M-2.8 20.1 L-2.3 15.5 -2.8 20.1" fill="#000000" fill-rule="evenodd" stroke="none"/>
    <path d="M-24.0 -41.5 L-23.95 -41.5 -14.85 -39.1 -12.5 -38.45 -32.5 -12.65 -37.7 6.65 -44.25 4.9 -38.0 -18.55 -24.0 -41.5 M1.55 -35.0 L13.8 -52.7 21.15 -46.4 10.9 -31.95 10.1 -32.2 1.55 -35.0 M-13.9 26.5 L-21.95 24.3 -20.2 17.7 -18.4 11.05 -13.9 26.5 M-26.4 16.05 L-32.7 14.35 -31.1 8.4 -28.75 -0.35 -26.4 16.05" fill="#1d1d1d" fill-rule="evenodd" stroke="none"/>
    <path d="M13.8 -52.7 L6.45 -58.95 -23.4 -59.1 -24.0 -41.5 -23.95 -41.5 -14.85 -39.1 -12.5 -38.45 10.1 -32.2 M13.8 -52.7 L21.15 -46.4 10.9 -31.95 10.45 -16.9 0.9 -17.05 -2.3 15.5 -2.8 20.1 M5.9 18.05 L5.9 23.15 -5.85 28.65 -13.9 26.5 -21.95 24.3 -20.2 17.7 -26.4 16.05 -32.7 14.35 -31.1 8.4 -37.7 6.65 -44.25 4.9 -38.0 -18.55 -24.0 -41.5 M-20.2 17.7 L-18.4 11.05 M-31.1 8.4 L-28.75 -0.35" fill="none" stroke="#666666" stroke-linecap="square" stroke-linejoin="miter-clip" stroke-miterlimit="3.0" stroke-width="5.0"/>
  </g>
</svg>
