<?xml version="1.0" encoding="UTF-8" standalone="no"?>
<svg xmlns:ffdec="https://www.free-decompiler.com/flash" xmlns:xlink="http://www.w3.org/1999/xlink" ffdec:objectType="shape" height="57.3px" width="108.7px" xmlns="http://www.w3.org/2000/svg">
  <g transform="matrix(1.0, 0.0, 0.0, 1.0, 86.8, 11.6)">
    <path d="M-60.05 -1.8 L-60.25 4.85 -60.35 8.8 -80.6 1.55 -76.45 -7.15 -60.05 -1.8 M19.9 8.75 L19.9 17.1 13.05 17.1 6.15 17.1 19.9 8.75 M13.05 23.55 L13.05 30.05 6.9 30.05 -2.15 30.05 13.05 23.55 M6.9 36.85 L6.9 43.7 -17.35 43.7 -33.15 36.1 -61.25 36.1 -61.05 32.55 -60.8 24.2 -33.15 24.2 -13.1 36.85 6.9 36.85 M-33.15 36.1 L-33.15 24.2 -33.15 36.1" fill="#1d1d1d" fill-rule="evenodd" stroke="none"/>
    <path d="M-58.85 -6.4 Q-57.25 -2.95 -54.35 0.0 -51.05 3.25 -47.1 4.85 L-60.25 4.85 -60.05 -1.8 -59.75 -6.4 -58.85 -6.4 M-33.15 12.3 L-33.15 24.2 -60.8 24.2 -60.45 12.3 -33.15 12.3" fill="#333333" fill-rule="evenodd" stroke="none"/>
    <path d="M-33.15 5.7 Q-28.1 4.35 -24.05 0.6 L-23.85 0.4 -23.85 0.45 -23.4 0.0 -10.95 -0.1 -12.5 3.3 6.1 3.3 15.05 -3.4 19.9 0.4 19.9 8.75 6.15 17.1 13.05 17.1 13.05 23.55 -2.15 30.05 6.9 30.05 6.9 36.85 -13.1 36.85 -33.15 24.2 -33.15 12.3 -33.15 5.7 M-61.05 32.55 L-77.2 39.15 -84.8 10.3 -80.6 1.55 -60.35 8.8 -60.45 12.3 -60.8 24.2 -61.05 32.55 M-24.05 0.6 L-23.85 0.45 -24.05 0.6" fill="#000000" fill-rule="evenodd" stroke="none"/>
    <path d="M-60.25 4.85 L-47.1 4.85 -33.15 4.85 -33.15 5.7 -38.85 6.4 -40.1 6.35 Q-43.85 6.15 -47.1 4.85 -43.85 6.15 -40.1 6.35 L-38.85 6.4 -33.15 5.7 -33.15 12.3 -60.45 12.3 -60.35 8.8 -60.25 4.85" fill="#585858" fill-rule="evenodd" stroke="none"/>
    <path d="M15.05 -3.4 L19.9 0.4 19.9 8.75 19.9 17.1 13.05 17.1 13.05 23.55 13.05 30.05 6.9 30.05 6.9 36.85 6.9 43.7 -17.35 43.7 -33.15 36.1 -61.25 36.1 -61.05 32.55 -77.2 39.15 -84.8 10.3 -80.6 1.55 -76.45 -7.15 -60.05 -1.8 M-33.15 5.7 L-33.15 12.3 -33.15 24.2 -33.15 36.1 M-60.45 12.3 L-60.35 8.8 -60.25 4.85 M-60.8 24.2 L-61.05 32.55 M-60.8 24.2 L-60.45 12.3 M13.05 17.1 L6.15 17.1 M6.9 30.05 L-2.15 30.05" fill="none" stroke="#666666" stroke-linecap="square" stroke-linejoin="miter-clip" stroke-miterlimit="3.0" stroke-width="3.0"/>
    <path d="M-33.15 5.7 Q-28.1 4.35 -24.05 0.6 L-23.85 0.45 -23.4 0.0 -10.95 -0.1 -12.5 3.3 6.1 3.3 15.05 -3.4 M-33.15 5.7 L-38.85 6.4 -40.1 6.35 Q-43.85 6.15 -47.1 4.85" fill="none" stroke="#999999" stroke-linecap="square" stroke-linejoin="miter-clip" stroke-miterlimit="3.0" stroke-width="4.0"/>
    <path d="M-47.1 4.85 Q-51.05 3.25 -54.35 0.0 -57.25 -2.95 -58.85 -6.4" fill="none" stroke="#999999" stroke-linecap="square" stroke-linejoin="miter-clip" stroke-miterlimit="3.0" stroke-width="4.0"/>
    <path d="M-58.85 -6.4 L-59.75 -6.4 -60.05 -1.8 -60.25 4.85" fill="none" stroke="#666666" stroke-linecap="round" stroke-linejoin="miter-clip" stroke-miterlimit="3.0" stroke-width="3.0"/>
    <path d="M-58.85 -6.4 L-59.8 -8.95" fill="none" stroke="#999999" stroke-linecap="round" stroke-linejoin="miter-clip" stroke-miterlimit="3.0" stroke-width="4.0"/>
  </g>
</svg>
