<?xml version="1.0" encoding="UTF-8" standalone="no"?>
<svg xmlns:ffdec="https://www.free-decompiler.com/flash" xmlns:xlink="http://www.w3.org/1999/xlink" ffdec:objectType="shape" height="108.0px" width="104.3px" xmlns="http://www.w3.org/2000/svg">
  <g transform="matrix(1.0, 0.0, 0.0, 1.0, 52.8, 44.0)">
    <path d="M-27.0 -14.05 L-27.0 -27.0 27.0 -27.0 27.0 -10.2 -27.0 -14.05" fill="#c6cc4a" fill-rule="evenodd" stroke="none"/>
    <path d="M27.0 -10.2 L27.0 27.0 -27.0 27.0 -27.0 -14.05 27.0 -10.2" fill="#e1e49e" fill-rule="evenodd" stroke="none"/>
    <path d="M27.0 -10.2 L27.0 -27.0 -27.0 -27.0 -27.0 -14.05 -27.0 27.0 27.0 27.0 27.0 -10.2 M33.0 -33.0 L33.0 33.0 -33.0 33.0 -33.0 -33.0 33.0 -33.0" fill="#818525" fill-rule="evenodd" stroke="none"/>
    <path d="M40.0 30.0 L47.5 55.55 40.0 60.0 0.0 54.95 0.0 48.6 -6.65 56.8 -40.0 60.0 -48.8 55.9 -40.0 30.0 40.0 30.0 M-43.5 18.9 L-40.0 -40.0 40.0 -40.0 44.5 12.7 0.0 22.1 -43.5 18.9" fill="#000000" fill-rule="evenodd" stroke="none"/>
    <path d="M-40.0 30.0 L-43.5 18.9 0.0 22.1 44.5 12.7 40.0 30.0 -40.0 30.0" fill="#333333" fill-rule="evenodd" stroke="none"/>
    <path d="M40.0 30.0 L47.5 55.55 40.0 60.0 0.0 54.95 0.0 48.6 -6.65 56.8 -40.0 60.0 -48.8 55.9 -40.0 30.0 -43.5 18.9 -40.0 -40.0 40.0 -40.0 44.5 12.7 40.0 30.0 Z" fill="none" stroke="#666666" stroke-linecap="square" stroke-linejoin="miter-clip" stroke-miterlimit="10.0" stroke-width="6.0"/>
  </g>
</svg>
