<?xml version="1.0" encoding="UTF-8" standalone="no"?>
<svg xmlns:ffdec="https://www.free-decompiler.com/flash" xmlns:xlink="http://www.w3.org/1999/xlink" ffdec:objectType="shape" height="43.7px" width="30.8px" xmlns="http://www.w3.org/2000/svg">
  <g transform="matrix(1.0, 0.0, 0.0, 1.0, 15.9, 4.0)">
    <path d="M-13.9 32.25 L-9.8 20.15 9.25 21.55 12.9 32.25 Q7.0 27.25 -0.5 27.25 -7.95 27.25 -13.9 32.25" fill="#444444" fill-rule="evenodd" stroke="none"/>
    <path d="M12.9 32.25 L10.75 37.7 -9.8 37.7 -13.9 32.25 Q-7.95 27.25 -0.5 27.25 7.0 27.25 12.9 32.25" fill="#333333" fill-rule="evenodd" stroke="none"/>
    <path d="M-9.8 20.15 L-11.25 4.15 Q-6.55 -2.2 -0.05 -2.0 6.5 -1.85 11.85 4.85 L9.25 21.55 -9.8 20.15" fill="#000000" fill-rule="evenodd" stroke="none"/>
    <path d="M12.9 32.25 L10.75 37.7 -9.8 37.7 -13.9 32.25 -9.8 20.15 -11.25 4.15 Q-6.55 -2.2 -0.05 -2.0 6.5 -1.85 11.85 4.85 L9.25 21.55 12.9 32.25 Z" fill="none" stroke="#666666" stroke-linecap="square" stroke-linejoin="miter-clip" stroke-miterlimit="3.0" stroke-width="3.0"/>
  </g>
</svg>
