<?xml version="1.0" encoding="UTF-8" standalone="no"?>
<svg xmlns:ffdec="https://www.free-decompiler.com/flash" xmlns:xlink="http://www.w3.org/1999/xlink" ffdec:objectType="shape" height="53.0px" width="51.3px" xmlns="http://www.w3.org/2000/svg">
  <g transform="matrix(1.0, 0.0, 0.0, 1.0, 25.75, 26.5)">
    <path d="M18.2 9.0 L21.55 20.5 18.2 22.5 0.2 20.25 0.2 17.35 -2.8 21.05 -17.8 22.5 -21.75 20.65 -17.8 9.0 18.2 9.0 M-19.35 4.0 L-17.8 -22.5 18.2 -22.5 20.2 1.2 0.2 5.45 -19.35 4.0" fill="#000000" fill-rule="evenodd" stroke="none"/>
    <path d="M-17.8 9.0 L-19.35 4.0 0.2 5.45 20.2 1.2 18.2 9.0 -17.8 9.0" fill="#333333" fill-rule="evenodd" stroke="none"/>
    <path d="M18.2 9.0 L21.55 20.5 18.2 22.5 0.2 20.25 0.2 17.35 -2.8 21.05 -17.8 22.5 -21.75 20.65 -17.8 9.0 -19.35 4.0 -17.8 -22.5 18.2 -22.5 20.2 1.2 18.2 9.0 Z" fill="none" stroke="#666666" stroke-linecap="square" stroke-linejoin="miter-clip" stroke-miterlimit="10.0" stroke-width="6.0"/>
  </g>
</svg>
