<?xml version="1.0" encoding="UTF-8" standalone="no"?>
<svg xmlns:ffdec="https://www.free-decompiler.com/flash" xmlns:xlink="http://www.w3.org/1999/xlink" ffdec:objectType="shape" height="120.0px" width="240.0px" xmlns="http://www.w3.org/2000/svg">
  <g transform="matrix(1.0, 0.0, 0.0, 1.0, 120.0, 60.0)">
    <path d="M80.0 -20.0 Q71.7 -20.0 65.85 -14.15 60.0 -8.3 60.0 0.0 60.0 8.3 65.85 14.15 71.7 20.0 80.0 20.0 L100.0 20.0 100.0 40.0 -100.0 40.0 -100.0 20.0 -80.0 20.0 Q-71.7 20.0 -65.85 14.15 -60.0 8.3 -60.0 0.0 -60.0 -8.3 -65.85 -14.15 -71.7 -20.0 -80.0 -20.0 L-100.0 -20.0 -100.0 -40.0 100.0 -40.0 100.0 -20.0 80.0 -20.0" fill="#000000" fill-rule="evenodd" stroke="none"/>
    <path d="M80.0 -10.0 Q75.85 -10.0 72.9 -7.1 70.0 -4.15 70.0 0.0 70.0 4.15 72.9 7.05 75.85 10.0 80.0 10.0 84.15 10.0 87.05 7.05 90.0 4.15 90.0 0.0 90.0 -4.15 87.05 -7.1 84.15 -10.0 80.0 -10.0 M80.0 -20.0 L100.0 -20.0 100.0 -40.0 -100.0 -40.0 -100.0 -20.0 -80.0 -20.0 Q-71.7 -20.0 -65.85 -14.15 -60.0 -8.3 -60.0 0.0 -60.0 8.3 -65.85 14.15 -71.7 20.0 -80.0 20.0 L-100.0 20.0 -100.0 40.0 100.0 40.0 100.0 20.0 80.0 20.0 Q71.7 20.0 65.85 14.15 60.0 8.3 60.0 0.0 60.0 -8.3 65.85 -14.15 71.7 -20.0 80.0 -20.0 M112.45 -52.45 Q118.0 -46.9 118.0 -39.0 L118.0 39.0 Q118.0 46.9 112.45 52.45 106.9 58.0 99.0 58.0 L-99.0 58.0 Q-106.9 58.0 -112.45 52.45 -118.0 46.9 -118.0 39.0 L-118.0 -39.0 Q-118.0 -46.9 -112.45 -52.45 -106.9 -58.0 -99.0 -58.0 L99.0 -58.0 Q106.9 -58.0 112.45 -52.45 M-72.95 -7.1 Q-75.85 -10.0 -80.0 -10.0 -84.15 -10.0 -87.1 -7.1 -90.0 -4.15 -90.0 0.0 -90.0 4.15 -87.1 7.05 -84.15 10.0 -80.0 10.0 -75.85 10.0 -72.95 7.05 -70.0 4.15 -70.0 0.0 -70.0 -4.15 -72.95 -7.1" fill="url(#gradient0)" fill-rule="evenodd" stroke="none"/>
    <path d="M80.0 -10.0 Q84.15 -10.0 87.05 -7.1 90.0 -4.15 90.0 0.0 90.0 4.15 87.05 7.05 84.15 10.0 80.0 10.0 75.85 10.0 72.9 7.05 70.0 4.15 70.0 0.0 70.0 -4.15 72.9 -7.1 75.85 -10.0 80.0 -10.0 M80.0 -5.0 Q77.95 -5.0 76.45 -3.55 75.0 -2.05 75.0 0.0 75.0 2.1 76.45 3.55 77.95 5.0 80.0 5.0 82.1 5.0 83.55 3.55 85.0 2.1 85.0 0.0 85.0 -2.05 83.55 -3.55 82.1 -5.0 80.0 -5.0 M-72.95 -7.1 Q-70.0 -4.15 -70.0 0.0 -70.0 4.15 -72.95 7.05 -75.85 10.0 -80.0 10.0 -84.15 10.0 -87.1 7.05 -90.0 4.15 -90.0 0.0 -90.0 -4.15 -87.1 -7.1 -84.15 -10.0 -80.0 -10.0 -75.85 -10.0 -72.95 -7.1 M-76.45 -3.55 Q-77.9 -5.0 -80.0 -5.0 -82.05 -5.0 -83.55 -3.55 -85.0 -2.05 -85.0 0.0 -85.0 2.1 -83.55 3.55 -82.05 5.0 -80.0 5.0 -77.9 5.0 -76.45 3.55 -75.0 2.1 -75.0 0.0 -75.0 -2.05 -76.45 -3.55" fill="#666666" fill-rule="evenodd" stroke="none"/>
    <path d="M80.0 -5.0 Q82.1 -5.0 83.55 -3.55 85.0 -2.05 85.0 0.0 85.0 2.1 83.55 3.55 82.1 5.0 80.0 5.0 77.95 5.0 76.45 3.55 75.0 2.1 75.0 0.0 75.0 -2.05 76.45 -3.55 77.95 -5.0 80.0 -5.0 M-76.45 -3.55 Q-75.0 -2.05 -75.0 0.0 -75.0 2.1 -76.45 3.55 -77.9 5.0 -80.0 5.0 -82.05 5.0 -83.55 3.55 -85.0 2.1 -85.0 0.0 -85.0 -2.05 -83.55 -3.55 -82.05 -5.0 -80.0 -5.0 -77.9 -5.0 -76.45 -3.55" fill="#cccccc" fill-rule="evenodd" stroke="none"/>
    <path d="M112.45 -52.45 Q106.9 -58.0 99.0 -58.0 L-99.0 -58.0 Q-106.9 -58.0 -112.45 -52.45 -118.0 -46.9 -118.0 -39.0 L-118.0 39.0 Q-118.0 46.9 -112.45 52.45 -106.9 58.0 -99.0 58.0 L99.0 58.0 Q106.9 58.0 112.45 52.45 118.0 46.9 118.0 39.0 L118.0 -39.0 Q118.0 -46.9 112.45 -52.45 M99.0 -60.0 Q107.7 -60.0 113.85 -53.85 120.0 -47.7 120.0 -39.0 L120.0 39.0 Q120.0 47.7 113.85 53.85 107.7 60.0 99.0 60.0 L-99.0 60.0 Q-107.7 60.0 -113.85 53.85 -120.0 47.7 -120.0 39.0 L-120.0 -39.0 Q-120.0 -47.7 -113.85 -53.85 -107.7 -60.0 -99.0 -60.0 L99.0 -60.0" fill="#dddddd" fill-rule="evenodd" stroke="none"/>
    <path d="M80.0 -10.0 Q84.15 -10.0 87.05 -7.1 90.0 -4.15 90.0 0.0 90.0 4.15 87.05 7.05 84.15 10.0 80.0 10.0 75.85 10.0 72.9 7.05 70.0 4.15 70.0 0.0 70.0 -4.15 72.9 -7.1 75.85 -10.0 80.0 -10.0 M80.0 -20.0 L100.0 -20.0 100.0 -40.0 -100.0 -40.0 -100.0 -20.0 -80.0 -20.0 Q-71.7 -20.0 -65.85 -14.15 -60.0 -8.3 -60.0 0.0 -60.0 8.3 -65.85 14.15 -71.7 20.0 -80.0 20.0 L-100.0 20.0 -100.0 40.0 100.0 40.0 100.0 20.0 80.0 20.0 Q71.7 20.0 65.85 14.15 60.0 8.3 60.0 0.0 60.0 -8.3 65.85 -14.15 71.7 -20.0 80.0 -20.0 M-72.95 -7.1 Q-70.0 -4.15 -70.0 0.0 -70.0 4.15 -72.95 7.05 -75.85 10.0 -80.0 10.0 -84.15 10.0 -87.1 7.05 -90.0 4.15 -90.0 0.0 -90.0 -4.15 -87.1 -7.1 -84.15 -10.0 -80.0 -10.0 -75.85 -10.0 -72.95 -7.1 Z" fill="none" stroke="#666666" stroke-linecap="round" stroke-linejoin="round" stroke-opacity="0.3019608" stroke-width="6.0"/>
  </g>
  <defs>
    <linearGradient gradientTransform="matrix(0.0452, 0.1113, -0.1354, 0.055, -7.1, 2.9)" gradientUnits="userSpaceOnUse" id="gradient0" spreadMethod="pad" x1="-819.2" x2="819.2">
      <stop offset="0.00784313725490196" stop-color="#eaeaea"/>
      <stop offset="0.34901960784313724" stop-color="#808080"/>
      <stop offset="0.7058823529411765" stop-color="#a6a6a6"/>
      <stop offset="1.0" stop-color="#b7b7b7"/>
    </linearGradient>
  </defs>
</svg>
