<?xml version="1.0" encoding="UTF-8" standalone="no"?>
<svg xmlns:ffdec="https://www.free-decompiler.com/flash" xmlns:xlink="http://www.w3.org/1999/xlink" ffdec:objectType="shape" height="191.5px" width="183.0px" xmlns="http://www.w3.org/2000/svg">
  <g transform="matrix(1.0, 0.0, 0.0, 1.0, 91.5, 187.5)">
    <path d="M17.45 -80.55 Q17.45 -77.65 15.1 -75.6 12.85 -73.5 9.7 -73.5 6.5 -73.5 4.2 -75.6 1.95 -77.65 2.0 -80.55 1.95 -83.45 4.2 -85.55 6.0 -87.15 8.35 -87.5 L9.7 -87.6 11.0 -87.5 Q13.35 -87.15 15.1 -85.55 17.45 -83.45 17.45 -80.55 M-4.2 -85.55 Q-1.9 -83.45 -1.9 -80.55 -1.9 -77.65 -4.2 -75.6 -6.45 -73.5 -9.65 -73.5 -12.85 -73.5 -15.15 -75.6 -17.4 -77.65 -17.35 -80.55 -17.4 -83.45 -15.15 -85.55 -13.35 -87.15 -11.0 -87.5 L-9.65 -87.6 -8.3 -87.5 Q-6.0 -87.15 -4.2 -85.55" fill="#000000" fill-rule="evenodd" stroke="none"/>
    <path d="M29.1 -87.5 L75.0 -87.5 87.5 -50.0 -87.5 -50.0 -71.95 -87.5 -29.15 -87.5 Q-36.25 -79.85 -37.5 -70.0 L37.5 -70.0 Q36.2 -79.85 29.1 -87.5" fill="#7d77a8" fill-rule="evenodd" stroke="none"/>
    <path d="M29.1 -87.5 L26.65 -89.9 Q15.6 -99.95 0.0 -100.0 -15.65 -99.95 -26.75 -89.9 L-29.15 -87.5 -26.75 -89.9 Q-15.65 -99.95 0.0 -100.0 15.6 -99.95 26.65 -89.9 L29.1 -87.5 Q36.2 -79.85 37.5 -70.0 L-37.5 -70.0 Q-36.25 -79.85 -29.15 -87.5 L-71.95 -87.5 -75.0 -152.65 75.0 -162.45 75.0 -87.5 29.1 -87.5 M17.45 -80.55 Q17.45 -83.45 15.1 -85.55 13.35 -87.15 11.0 -87.5 L9.7 -87.6 8.35 -87.5 Q6.0 -87.15 4.2 -85.55 1.95 -83.45 2.0 -80.55 1.95 -77.65 4.2 -75.6 6.5 -73.5 9.7 -73.5 12.85 -73.5 15.1 -75.6 17.45 -77.65 17.45 -80.55 M-4.2 -85.55 Q-6.0 -87.15 -8.3 -87.5 L-9.65 -87.6 -11.0 -87.5 Q-13.35 -87.15 -15.15 -85.55 -17.4 -83.45 -17.35 -80.55 -17.4 -77.65 -15.15 -75.6 -12.85 -73.5 -9.65 -73.5 -6.45 -73.5 -4.2 -75.6 -1.9 -77.65 -1.9 -80.55 -1.9 -83.45 -4.2 -85.55" fill="#574f86" fill-rule="evenodd" stroke="none"/>
    <path d="M-87.5 -50.0 L87.5 -50.0 75.0 0.0 -75.0 0.0 -87.5 -50.0" fill="#373164" fill-rule="evenodd" stroke="none"/>
    <path d="M-29.15 -87.5 L-26.75 -89.9 Q-15.65 -99.95 0.0 -100.0 15.6 -99.95 26.65 -89.9 L29.1 -87.5 75.0 -87.5 M-71.95 -87.5 L-29.15 -87.5 M-87.5 -50.0 L87.5 -50.0" fill="none" stroke="#000000" stroke-linecap="square" stroke-linejoin="miter-clip" stroke-miterlimit="3.0" stroke-width="4.0"/>
    <path d="M75.0 -87.5 L75.0 -162.45 -75.0 -152.65 -71.95 -87.5 -87.5 -50.0 -75.0 0.0 75.0 0.0 87.5 -50.0 75.0 -87.5 Z" fill="none" stroke="#000000" stroke-linecap="square" stroke-linejoin="miter-clip" stroke-miterlimit="3.0" stroke-width="6.0"/>
    <path d="M37.5 -175.0 L25.0 -162.5 75.0 -162.5 -75.0 -150.0 -50.0 -162.5 -62.5 -187.5 -37.5 -175.0 -25.0 -187.5 0.0 -175.0 37.5 -175.0" fill="#000000" fill-rule="evenodd" stroke="none"/>
    <path d="M-6.25 -12.5 Q-8.8 -12.5 -10.65 -14.35 -12.5 -16.2 -12.5 -18.75 -12.5 -21.3 -10.65 -23.15 -8.8 -25.0 -6.25 -25.0 -3.7 -25.0 -1.85 -23.15 0.0 -21.3 0.0 -18.75 0.0 -16.2 -1.85 -14.35 -3.7 -12.5 -6.25 -12.5" fill="#000000" fill-rule="evenodd" stroke="none"/>
    <path d="M-6.25 -12.5 Q-8.8 -12.5 -10.65 -14.35 -12.5 -16.2 -12.5 -18.75 -12.5 -21.3 -10.65 -23.15 -8.8 -25.0 -6.25 -25.0 -3.7 -25.0 -1.85 -23.15 0.0 -21.3 0.0 -18.75 0.0 -16.2 -1.85 -14.35 -3.7 -12.5 -6.25 -12.5 Z" fill="none" stroke="#34314d" stroke-linecap="square" stroke-linejoin="miter-clip" stroke-miterlimit="3.0" stroke-width="4.0"/>
    <path d="M-58.1 -131.85 Q-52.4 -137.55 -44.35 -137.5 -36.3 -137.55 -30.6 -131.85 -24.9 -126.15 -24.9 -118.1 -24.9 -110.05 -30.6 -104.35 -36.3 -98.65 -44.35 -98.65 -52.4 -98.65 -58.1 -104.35 -63.8 -110.05 -63.75 -118.1 -63.8 -126.15 -58.1 -131.85" fill="#000000" fill-rule="evenodd" stroke="none"/>
    <path d="M-56.9 -108.65 Q-61.45 -113.2 -61.4 -119.65 -61.45 -126.1 -56.9 -130.65 -52.3 -135.2 -45.85 -135.2 -39.45 -135.2 -34.9 -130.65 -30.35 -126.1 -30.35 -119.65 -30.35 -113.2 -34.9 -108.65 -39.45 -104.1 -45.85 -104.1 -52.3 -104.1 -56.9 -108.65" fill="#eeeeee" fill-rule="evenodd" stroke="none"/>
    <path d="M-52.6 -123.65 Q-52.55 -125.05 -51.55 -126.05 -50.55 -127.05 -49.05 -127.05 L-48.4 -127.0 Q-47.35 -126.85 -46.55 -126.05 -45.5 -125.0 -45.5 -123.5 -45.5 -122.05 -46.55 -121.0 -47.55 -119.95 -49.05 -119.95 -50.55 -119.95 -51.55 -121.0 -52.6 -122.05 -52.6 -123.5 L-52.6 -123.65" fill="#eeeeee" fill-rule="evenodd" stroke="none"/>
    <path d="M-48.4 -127.0 L-45.9 -127.4 Q-42.7 -127.4 -40.4 -125.15 -38.1 -122.85 -38.1 -119.6 -38.1 -116.4 -40.4 -114.1 -42.7 -111.85 -45.9 -111.85 -49.1 -111.85 -51.4 -114.1 -53.65 -116.4 -53.65 -119.6 -53.7 -121.85 -52.6 -123.65 L-52.6 -123.5 Q-52.6 -122.05 -51.55 -121.0 -50.55 -119.95 -49.05 -119.95 -47.55 -119.95 -46.55 -121.0 -45.5 -122.05 -45.5 -123.5 -45.5 -125.0 -46.55 -126.05 -47.35 -126.85 -48.4 -127.0" fill="#000000" fill-rule="evenodd" stroke="none"/>
    <path d="M23.75 -118.1 Q23.75 -126.15 29.45 -131.85 35.15 -137.55 43.2 -137.55 51.2 -137.55 56.9 -131.85 62.6 -126.15 62.65 -118.1 62.6 -110.05 56.9 -104.35 51.2 -98.65 43.2 -98.65 35.15 -98.65 29.45 -104.35 23.75 -110.05 23.75 -118.1" fill="#000000" fill-rule="evenodd" stroke="none"/>
    <path d="M30.6 -130.65 Q35.15 -135.2 41.6 -135.2 48.05 -135.2 52.6 -130.65 57.15 -126.05 57.15 -119.6 57.15 -113.2 52.6 -108.65 48.05 -104.1 41.6 -104.05 35.15 -104.1 30.6 -108.65 26.05 -113.2 26.05 -119.6 26.05 -126.05 30.6 -130.65" fill="#eeeeee" fill-rule="evenodd" stroke="none"/>
    <path d="M39.1 -127.0 Q40.15 -126.85 40.95 -126.05 42.0 -125.0 42.0 -123.5 42.0 -122.05 40.95 -121.0 39.95 -119.95 38.45 -119.95 36.95 -119.95 35.95 -121.0 34.9 -122.05 34.9 -123.5 L34.9 -123.65 Q34.95 -125.05 35.95 -126.05 36.95 -127.05 38.45 -127.05 L39.1 -127.0" fill="#eeeeee" fill-rule="evenodd" stroke="none"/>
    <path d="M39.1 -127.0 L41.6 -127.4 Q44.8 -127.4 47.1 -125.15 49.4 -122.85 49.4 -119.6 49.4 -116.4 47.1 -114.1 44.8 -111.85 41.6 -111.85 38.4 -111.85 36.1 -114.1 33.85 -116.4 33.85 -119.6 33.8 -121.85 34.9 -123.65 L34.9 -123.5 Q34.9 -122.05 35.95 -121.0 36.95 -119.95 38.45 -119.95 39.95 -119.95 40.95 -121.0 42.0 -122.05 42.0 -123.5 42.0 -125.0 40.95 -126.05 40.15 -126.85 39.1 -127.0" fill="#000000" fill-rule="evenodd" stroke="none"/>
    <path d="M-22.9 -122.9 L-72.9 -139.0 -68.15 -160.25 -18.15 -144.15 -22.9 -122.9" fill="#000000" fill-rule="evenodd" stroke="none"/>
    <path d="M19.3 -122.9 L14.55 -144.15 64.55 -160.25 69.3 -139.0 19.3 -122.9" fill="#000000" fill-rule="evenodd" stroke="none"/>
  </g>
</svg>
