<?xml version="1.0" encoding="UTF-8" standalone="no"?>
<svg xmlns:ffdec="https://www.free-decompiler.com/flash" xmlns:xlink="http://www.w3.org/1999/xlink" ffdec:objectType="shape" height="76.15px" width="83.8px" xmlns="http://www.w3.org/2000/svg">
  <g transform="matrix(1.0, 0.0, 0.0, 1.0, 5.0, 41.1)">
    <path d="M27.4 2.0 L30.75 2.95 33.35 3.4 Q36.1 3.75 38.55 3.45 42.6 3.0 45.95 0.85 46.55 0.4 47.35 0.3 L49.3 -0.1 52.15 -0.05 Q57.35 0.55 61.2 5.0 65.0 9.45 65.25 15.05 L65.05 18.4 40.05 31.05 34.45 30.65 28.55 29.55 27.0 29.15 27.0 29.1 26.0 28.85 26.8 27.95 Q6.05 13.6 27.4 2.0" fill="#6cce8c" fill-rule="evenodd" stroke="none"/>
    <path d="M28.55 29.55 L25.75 29.15 26.0 28.85 27.0 29.1 27.0 29.15 28.55 29.55" fill="#afb57d" fill-rule="evenodd" stroke="none"/>
    <path d="M27.4 2.0 L30.75 2.95 33.35 3.4 Q36.1 3.75 38.55 3.45 42.6 3.0 45.95 0.85 46.55 0.4 47.35 0.3 L49.3 -0.1 52.15 -0.05 Q57.35 0.55 61.2 5.0 65.0 9.45 65.25 15.05 L65.05 18.4 40.05 31.05 34.45 30.65 28.55 29.55 27.0 29.15 27.0 29.1 26.0 28.85 M27.4 2.0 L27.15 1.95 26.6 1.7" fill="none" stroke="#1a4d2b" stroke-linecap="square" stroke-linejoin="miter-clip" stroke-miterlimit="1.0" stroke-width="6.0"/>
    <path d="M-0.7 -13.9 L-0.75 -14.15 Q-1.65 -19.9 0.95 -25.45 4.45 -33.0 12.25 -35.8 20.0 -38.65 27.55 -35.15 L28.85 -34.45 30.7 -35.2 Q38.05 -37.9 45.2 -34.55 L45.9 -34.2 46.9 -34.6 Q53.9 -37.15 60.65 -34.0 L62.2 -33.2 65.45 -30.75 Q67.45 -28.9 70.1 -23.4 75.3 -13.25 74.75 -2.35 L74.4 0.55 Q73.25 4.4 69.75 6.4 66.25 8.35 62.35 7.25 59.95 6.55 58.3 4.95 57.0 6.85 54.85 8.05 51.1 10.1 47.05 8.95 44.0 8.05 42.1 5.85 L41.85 5.5 Q40.4 8.15 37.65 9.7 33.75 11.9 29.45 10.65 26.25 9.75 24.25 7.4 L22.95 5.55 Q22.3 4.65 22.5 0.05 22.75 -4.95 20.5 -9.4 18.2 -13.9 13.8 -13.8 L12.25 -13.7 11.5 -11.1 0.0 -11.1 -0.75 -13.9 -0.7 -13.9 M41.85 5.5 L42.75 3.25 43.2 0.0 Q43.8 -12.05 38.05 -23.4 35.05 -29.45 32.9 -31.55 31.25 -33.1 29.2 -34.25 L28.85 -34.45 29.2 -34.25 Q31.25 -33.1 32.9 -31.55 35.05 -29.45 38.05 -23.4 43.8 -12.05 43.2 0.0 L42.75 3.25 41.85 5.5 M58.3 4.95 Q59.2 3.6 59.7 1.9 L60.1 -1.2 Q60.65 -12.65 55.2 -23.4 52.35 -29.2 50.3 -31.15 48.7 -32.65 46.8 -33.75 L45.9 -34.2 46.8 -33.75 Q48.7 -32.65 50.3 -31.15 52.35 -29.2 55.2 -23.4 60.65 -12.65 60.1 -1.2 L59.7 1.9 Q59.2 3.6 58.3 4.95" fill="#6cce8c" fill-rule="evenodd" stroke="none"/>
    <path d="M45.9 -34.2 L46.8 -33.75 Q48.7 -32.65 50.3 -31.15 52.35 -29.2 55.2 -23.4 60.65 -12.65 60.1 -1.2 L59.7 1.9 Q59.2 3.6 58.3 4.95" fill="none" stroke="#1a4d2b" stroke-linecap="square" stroke-linejoin="miter-clip" stroke-miterlimit="1.0" stroke-width="6.0"/>
    <path d="M-0.7 -13.9 L-0.75 -14.15 Q-1.65 -19.9 0.95 -25.45 4.45 -33.0 12.25 -35.8 20.0 -38.65 27.55 -35.15 L28.85 -34.45" fill="none" stroke="#1a4d2b" stroke-linecap="square" stroke-linejoin="miter-clip" stroke-miterlimit="1.0" stroke-width="6.0"/>
    <path d="M28.85 -34.45 L30.7 -35.2 Q38.05 -37.9 45.2 -34.55 L45.9 -34.2 46.9 -34.6 Q53.9 -37.15 60.65 -34.0 L62.2 -33.2 65.45 -30.75 Q67.45 -28.9 70.1 -23.4 75.3 -13.25 74.75 -2.35 L74.4 0.55 Q73.25 4.4 69.75 6.4 66.25 8.35 62.35 7.25 59.95 6.55 58.3 4.95 57.0 6.85 54.85 8.05 51.1 10.1 47.05 8.95 44.0 8.05 42.1 5.85 L41.85 5.5 Q40.4 8.15 37.65 9.7 33.75 11.9 29.45 10.65 26.25 9.75 24.25 7.4 L22.95 5.55 Q22.3 4.65 22.5 0.05 22.75 -4.95 20.5 -9.4 18.2 -13.9 13.8 -13.8 M28.85 -34.45 L29.2 -34.25 Q31.25 -33.1 32.9 -31.55 35.05 -29.45 38.05 -23.4 43.8 -12.05 43.2 0.0 L42.75 3.25 41.85 5.5" fill="none" stroke="#1a4d2b" stroke-linecap="round" stroke-linejoin="miter-clip" stroke-miterlimit="1.0" stroke-width="6.0"/>
  </g>
</svg>
