<?xml version="1.0" encoding="UTF-8" standalone="no"?>
<svg xmlns:ffdec="https://www.free-decompiler.com/flash" xmlns:xlink="http://www.w3.org/1999/xlink" ffdec:objectType="shape" height="161.3px" width="159.2px" xmlns="http://www.w3.org/2000/svg">
  <g transform="matrix(1.0, 0.0, 0.0, 1.0, 83.65, 140.65)">
    <path d="M54.9 -113.9 L64.9 -7.2 -20.5 10.0 -65.5 0.0 -65.5 -120.0 9.5 -130.0 54.9 -113.9 Z" fill="none" stroke="#6f8b25" stroke-linecap="square" stroke-linejoin="miter-clip" stroke-miterlimit="3.0" stroke-width="16.0"/>
    <path d="M-65.5 -60.0 Q-68.6 -60.0 -70.8 -62.95 -73.0 -65.85 -73.0 -70.0 -73.0 -74.15 -70.8 -77.1 -68.6 -80.0 -65.5 -80.0 L-65.5 -60.0 M-65.5 -14.0 Q-68.0 -14.0 -69.75 -16.35 -71.5 -18.7 -71.5 -22.0 -71.5 -25.3 -69.75 -27.65 -68.0 -30.0 -65.5 -30.0 L-65.5 -14.0" fill="#32341f" fill-rule="evenodd" stroke="none"/>
    <path d="M-65.5 -60.0 Q-68.6 -60.0 -70.8 -62.95 -73.0 -65.85 -73.0 -70.0 -73.0 -74.15 -70.8 -77.1 -68.6 -80.0 -65.5 -80.0 L-65.5 -60.0 M-65.5 -14.0 Q-68.0 -14.0 -69.75 -16.35 -71.5 -18.7 -71.5 -22.0 -71.5 -25.3 -69.75 -27.65 -68.0 -30.0 -65.5 -30.0 L-65.5 -14.0 Z" fill="none" stroke="#6f8b25" stroke-linecap="square" stroke-linejoin="miter-clip" stroke-miterlimit="3.0" stroke-width="16.0"/>
    <path d="M11.75 -129.9 L18.5 -100.0 -50.0 -110.0 -50.0 -121.35 11.75 -129.9" fill="#660000" fill-rule="evenodd" stroke="none"/>
    <path d="M18.5 -100.0 L11.75 -129.9 54.9 -113.9 64.9 -7.2 20.2 0.1 18.5 -100.0" fill="#32341f" fill-rule="evenodd" stroke="none"/>
    <path d="M11.75 -129.9 L18.5 -100.0 20.2 0.1 64.9 -7.2 54.9 -113.9 11.75 -129.9 -50.0 -121.35 -50.0 -110.0 18.5 -100.0" fill="none" stroke="#32341f" stroke-linecap="round" stroke-linejoin="miter-clip" stroke-miterlimit="3.0" stroke-width="6.0"/>
  </g>
</svg>
