<?xml version="1.0" encoding="UTF-8" standalone="no"?>
<svg xmlns:ffdec="https://www.free-decompiler.com/flash" xmlns:xlink="http://www.w3.org/1999/xlink" ffdec:objectType="shape" height="148.0px" width="134.8px" xmlns="http://www.w3.org/2000/svg">
  <g transform="matrix(1.0, 0.0, 0.0, 1.0, 67.55, 132.0)">
    <path d="M33.0 -86.0 L-21.55 -86.0 -0.35 -96.85 5.45 -113.5 10.75 -96.85 33.0 -86.0 M27.1 -54.0 L-3.4 -54.0 -14.6 -58.45 -14.85 -58.55 -15.05 -58.65 -28.4 -64.0 42.1 -64.0 27.1 -54.0" fill="#cc6633" fill-rule="evenodd" stroke="none"/>
    <path d="M55.25 -57.15 L48.5 -52.65 44.3 -58.25 51.3 -62.9 55.15 -57.8 55.25 -57.15 M-50.8 -57.7 L-43.45 -63.55 -21.9 -54.9 -28.65 -49.5 -28.8 -48.9 -50.8 -57.7" fill="#c9bc8f" fill-rule="evenodd" stroke="none"/>
    <path d="M55.25 -57.15 L60.75 -20.45 56.45 -17.55 56.4 -17.55 54.3 -16.1 48.85 -52.2 48.5 -52.65 55.25 -57.15 M49.0 -70.0 L-41.0 -70.0 -41.0 -73.55 -32.9 -80.0 44.5 -80.0 49.0 -74.0 49.0 -70.0 M-28.8 -48.9 L-38.05 -11.85 -52.55 -17.65 -53.15 -17.9 -60.45 -20.8 -51.35 -57.25 -50.8 -57.7 -28.8 -48.9" fill="#bbab73" fill-rule="evenodd" stroke="none"/>
    <path d="M5.6 -132.0 L5.9 -132.0 15.65 -101.15 47.2 -85.75 47.35 -85.7 48.15 -85.1 48.55 -84.6 55.0 -76.0 55.0 -68.0 60.85 -60.2 67.25 -17.55 61.0 -13.35 61.0 -1.4 43.65 10.2 42.25 -0.85 30.1 7.25 23.5 16.0 4.95 16.0 -5.55 7.6 -21.45 1.25 -23.8 12.3 -57.0 -0.95 -57.0 -12.95 -67.55 -17.15 -56.65 -60.7 -47.0 -68.45 -47.0 -76.45 -36.05 -85.2 -35.45 -85.65 -35.35 -85.65 -35.3 -85.7 -35.2 -85.75 -5.2 -101.1 5.6 -132.0 M48.5 -52.65 L48.85 -52.2 54.3 -16.1 56.4 -17.55 56.45 -17.55 60.75 -20.45 55.25 -57.15 55.15 -57.8 51.3 -62.9 44.3 -58.25 48.5 -52.65 M43.15 -49.8 L43.0 -50.0 43.0 -43.15 47.65 -6.5 47.65 -6.45 47.65 -6.0 48.4 -0.2 55.0 -4.6 55.0 -9.35 49.75 -5.85 43.15 -49.8 M49.0 -70.0 L49.0 -74.0 44.5 -80.0 -32.9 -80.0 -41.0 -73.55 -41.0 -70.0 49.0 -70.0 M33.0 -86.0 L10.75 -96.85 5.45 -113.5 -0.35 -96.85 -21.55 -86.0 33.0 -86.0 M39.2 -25.4 L37.0 -42.8 37.0 -53.4 28.9 -48.0 -4.55 -48.0 -13.0 -51.35 -13.0 -39.5 -16.4 -22.9 -20.2 -4.65 -7.0 0.6 -7.0 -19.95 -7.0 -22.0 31.0 -22.0 31.0 -20.7 31.0 -0.6 41.45 -7.55 39.2 -25.4 M28.55 -45.4 L28.55 -35.8 20.65 -35.8 17.05 -45.4 28.55 -45.4 M6.95 -45.4 L3.35 -35.8 -4.55 -35.8 -4.55 -45.4 6.95 -45.4 M3.0 -8.0 L25.0 -8.0 25.0 -14.0 3.0 -14.0 3.0 -8.0 M27.1 -54.0 L42.1 -64.0 -28.4 -64.0 -15.05 -58.65 -14.85 -58.55 -14.6 -58.45 -3.4 -54.0 27.1 -54.0 M-28.8 -48.9 L-28.65 -49.5 -21.9 -54.9 -43.45 -63.55 -50.8 -57.7 -51.35 -57.25 -60.45 -20.8 -53.15 -17.9 -52.55 -17.65 -38.05 -11.85 -28.8 -48.9 M-51.0 -5.0 L-28.2 4.1 -26.6 -3.4 -26.6 -3.45 -26.55 -3.5 -19.0 -40.15 -19.0 -49.55 -23.35 -46.05 -33.9 -3.75 -51.0 -10.55 -51.0 -5.0" fill="#000000" fill-rule="evenodd" stroke="none"/>
    <path d="M28.55 -45.4 L17.05 -45.4 20.65 -35.8 28.55 -35.8 28.55 -45.4 M-16.4 -22.9 L-13.0 -39.5 -13.0 -51.35 -4.55 -48.0 28.9 -48.0 37.0 -53.4 37.0 -42.8 39.2 -25.4 31.0 -20.7 31.0 -22.0 -7.0 -22.0 -7.0 -19.95 -16.4 -22.9 M6.95 -45.4 L-4.55 -45.4 -4.55 -35.8 3.35 -35.8 6.95 -45.4" fill="#d39b50" fill-rule="evenodd" stroke="none"/>
    <path d="M43.15 -49.8 L49.75 -5.85 55.0 -9.35 55.0 -4.6 48.4 -0.2 47.65 -6.0 47.65 -6.45 47.65 -6.5 43.0 -43.15 43.0 -50.0 43.15 -49.8 M-51.0 -5.0 L-51.0 -10.55 -33.9 -3.75 -23.35 -46.05 -19.0 -49.55 -19.0 -40.15 -26.55 -3.5 -26.6 -3.45 -26.6 -3.4 -28.2 4.1 -51.0 -5.0" fill="#003366" fill-rule="evenodd" stroke="none"/>
    <path d="M39.2 -25.4 L41.45 -7.55 31.0 -0.6 31.0 -20.7 39.2 -25.4 M-7.0 -19.95 L-7.0 0.6 -20.2 -4.65 -16.4 -22.9 -7.0 -19.95" fill="#ac8653" fill-rule="evenodd" stroke="none"/>
    <path d="M3.0 -8.0 L3.0 -14.0 25.0 -14.0 25.0 -8.0 3.0 -8.0" fill="#999999" fill-rule="evenodd" stroke="none"/>
  </g>
</svg>
