<?xml version="1.0" encoding="UTF-8" standalone="no"?>
<svg xmlns:ffdec="https://www.free-decompiler.com/flash" xmlns:xlink="http://www.w3.org/1999/xlink" ffdec:objectType="shape" height="75.6px" width="75.6px" xmlns="http://www.w3.org/2000/svg">
  <g transform="matrix(1.0, 0.0, 0.0, 1.0, 37.8, 37.8)">
    <path d="M24.5 -24.5 Q34.65 -14.35 34.65 0.0 34.65 14.35 24.5 24.5 14.35 34.65 0.0 34.65 -14.35 34.65 -24.5 24.5 -34.65 14.35 -34.65 0.0 -34.65 -14.35 -24.5 -24.5 -14.35 -34.65 0.0 -34.65 14.35 -34.65 24.5 -24.5 M28.3 -10.25 Q26.1 -16.3 21.2 -21.2 14.6 -27.8 6.0 -29.45 L0.0 -30.0 -6.0 -29.45 Q-14.6 -27.8 -21.2 -21.2 -26.1 -16.3 -28.25 -10.25 -30.0 -5.5 -30.0 0.0 -30.0 5.5 -28.25 10.3 -26.1 16.3 -21.2 21.2 -14.6 27.8 -6.0 29.45 L0.0 30.0 6.0 29.45 Q14.6 27.8 21.2 21.2 26.1 16.3 28.3 10.3 30.0 5.5 30.0 0.0 30.0 -5.5 28.3 -10.25 M4.25 -4.25 Q6.0 -2.5 6.0 0.0 6.0 2.5 4.25 4.25 2.5 6.0 0.0 6.0 -2.5 6.0 -4.25 4.25 -6.0 2.5 -6.0 0.0 -6.0 -2.5 -4.25 -4.25 -2.5 -6.0 0.0 -6.0 2.5 -6.0 4.25 -4.25" fill="#ff00ff" fill-rule="evenodd" stroke="none"/>
    <path d="M24.5 -24.5 Q14.35 -34.65 0.0 -34.65 -14.35 -34.65 -24.5 -24.5 -34.65 -14.35 -34.65 0.0 -34.65 14.35 -24.5 24.5 -14.35 34.65 0.0 34.65 14.35 34.65 24.5 24.5 34.65 14.35 34.65 0.0 34.65 -14.35 24.5 -24.5 M26.75 -26.75 Q37.8 -15.65 37.8 0.0 37.8 15.65 26.75 26.75 15.65 37.8 0.0 37.8 -15.65 37.8 -26.75 26.75 -37.8 15.65 -37.8 0.0 -37.8 -15.65 -26.75 -26.75 -15.65 -37.8 0.0 -37.8 15.65 -37.8 26.75 -26.75" fill="#ff00ff" fill-opacity="0.3019608" fill-rule="evenodd" stroke="none"/>
    <path d="M4.25 -4.25 Q2.5 -6.0 0.0 -6.0 -2.5 -6.0 -4.25 -4.25 -6.0 -2.5 -6.0 0.0 -6.0 2.5 -4.25 4.25 -2.5 6.0 0.0 6.0 2.5 6.0 4.25 4.25 6.0 2.5 6.0 0.0 6.0 -2.5 4.25 -4.25 M8.5 -8.5 Q12.0 -5.0 12.0 0.0 12.0 5.0 8.5 8.5 5.0 12.0 0.0 12.0 -5.0 12.0 -8.5 8.5 -12.0 5.0 -12.0 0.0 -12.0 -5.0 -8.5 -8.5 -5.0 -12.0 0.0 -12.0 5.0 -12.0 8.5 -8.5" fill="#990099" fill-rule="evenodd" stroke="none"/>
    <path d="M8.5 -8.5 Q12.0 -5.0 12.0 0.0 12.0 5.0 8.5 8.5 5.0 12.0 0.0 12.0 -5.0 12.0 -8.5 8.5 -12.0 5.0 -12.0 0.0 -12.0 -5.0 -8.5 -8.5 -5.0 -12.0 0.0 -12.0 5.0 -12.0 8.5 -8.5 Z" fill="none" stroke="#333333" stroke-linecap="square" stroke-linejoin="miter-clip" stroke-miterlimit="10.0" stroke-width="6.0"/>
  </g>
</svg>
