<?xml version="1.0" encoding="UTF-8" standalone="no"?>
<svg xmlns:ffdec="https://www.free-decompiler.com/flash" xmlns:xlink="http://www.w3.org/1999/xlink" ffdec:objectType="shape" height="48.0px" width="48.0px" xmlns="http://www.w3.org/2000/svg">
  <g transform="matrix(1.0, 0.0, 0.0, 1.0, 24.0, 24.0)">
    <path d="M14.15 -14.15 Q20.0 -8.3 20.0 0.0 20.0 8.3 14.15 14.15 8.3 20.0 0.0 20.0 -8.3 20.0 -14.15 14.15 -20.0 8.3 -20.0 0.0 -20.0 -8.3 -14.15 -14.15 -8.3 -20.0 0.0 -20.0 8.3 -20.0 14.15 -14.15 M7.05 -7.1 Q4.15 -10.0 0.0 -10.0 -4.15 -10.0 -7.1 -7.1 -10.0 -4.15 -10.0 0.0 -10.0 4.15 -7.1 7.05 -4.15 10.0 0.0 10.0 4.15 10.0 7.05 7.05 10.0 4.15 10.0 0.0 10.0 -4.15 7.05 -7.1" fill="#990099" fill-rule="evenodd" stroke="none"/>
    <path d="M7.05 -7.1 Q10.0 -4.15 10.0 0.0 10.0 4.15 7.05 7.05 4.15 10.0 0.0 10.0 -4.15 10.0 -7.1 7.05 -10.0 4.15 -10.0 0.0 -10.0 -4.15 -7.1 -7.1 -4.15 -10.0 0.0 -10.0 4.15 -10.0 7.05 -7.1" fill="#ff00ff" fill-rule="evenodd" stroke="none"/>
    <path d="M14.15 -14.15 Q20.0 -8.3 20.0 0.0 20.0 8.3 14.15 14.15 8.3 20.0 0.0 20.0 -8.3 20.0 -14.15 14.15 -20.0 8.3 -20.0 0.0 -20.0 -8.3 -14.15 -14.15 -8.3 -20.0 0.0 -20.0 8.3 -20.0 14.15 -14.15 Z" fill="none" stroke="#333333" stroke-linecap="square" stroke-linejoin="miter-clip" stroke-miterlimit="10.0" stroke-width="6.0"/>
    <path d="M2.1 -2.15 Q3.0 -1.25 3.0 0.0 3.0 1.2 2.1 2.1 1.25 3.0 0.0 3.0 -1.2 3.0 -2.1 2.1 -3.0 1.2 -3.0 0.0 -3.0 -1.25 -2.1 -2.15 -1.2 -3.0 0.0 -3.0 1.25 -3.0 2.1 -2.15" fill="#333333" fill-rule="evenodd" stroke="none"/>
  </g>
</svg>
