<?xml version="1.0" encoding="UTF-8" standalone="no"?>
<svg xmlns:ffdec="https://www.free-decompiler.com/flash" xmlns:xlink="http://www.w3.org/1999/xlink" ffdec:objectType="shape" height="300.1px" width="300.0px" xmlns="http://www.w3.org/2000/svg">
  <g transform="matrix(1.0, 0.0, 0.0, 1.0, 150.0, 150.05)">
    <path d="M0.0 150.05 L-100.0 150.05 -110.0 120.0 -150.0 100.0 -150.0 -1.0 0.0 -1.0 0.0 150.05" fill="url(#gradient0)" fill-rule="evenodd" stroke="none"/>
    <path d="M0.0 -1.0 L150.0 -1.0 150.0 100.0 110.0 120.0 100.0 150.05 0.0 150.05 0.0 -1.0" fill="url(#gradient1)" fill-rule="evenodd" stroke="none"/>
    <path d="M0.0 -150.05 L0.0 -1.0 -150.0 -1.0 -150.0 -100.0 -110.0 -120.0 -100.0 -150.05 0.0 -150.05" fill="url(#gradient2)" fill-rule="evenodd" stroke="none"/>
    <path d="M0.0 -150.05 L100.0 -150.05 110.0 -120.0 150.0 -100.0 150.0 -1.0 0.0 -1.0 0.0 -150.05" fill="url(#gradient3)" fill-rule="evenodd" stroke="none"/>
  </g>
  <defs>
    <radialGradient cx="0" cy="0" gradientTransform="matrix(0.0, 0.3554, 0.3554, 0.0, -150.0, 150.05)" gradientUnits="userSpaceOnUse" id="gradient0" r="819.2" spreadMethod="pad">
      <stop offset="0.19607843137254902" stop-color="#00006e"/>
      <stop offset="0.3686274509803922" stop-color="#0000e6"/>
      <stop offset="1.0" stop-color="#0000e6"/>
    </radialGradient>
    <radialGradient cx="0" cy="0" gradientTransform="matrix(0.0, 0.3554, -0.3554, 0.0, 150.0, 150.05)" gradientUnits="userSpaceOnUse" id="gradient1" r="819.2" spreadMethod="pad">
      <stop offset="0.19607843137254902" stop-color="#00006e"/>
      <stop offset="0.3686274509803922" stop-color="#0000e6"/>
      <stop offset="1.0" stop-color="#0000e6"/>
    </radialGradient>
    <radialGradient cx="0" cy="0" gradientTransform="matrix(0.0, -0.3554, 0.3554, 0.0, -150.0, -150.05)" gradientUnits="userSpaceOnUse" id="gradient2" r="819.2" spreadMethod="pad">
      <stop offset="0.19607843137254902" stop-color="#00006e"/>
      <stop offset="0.3686274509803922" stop-color="#0000e6"/>
      <stop offset="1.0" stop-color="#0000e6"/>
    </radialGradient>
    <radialGradient cx="0" cy="0" gradientTransform="matrix(0.0, -0.3554, -0.3554, 0.0, 150.0, -150.05)" gradientUnits="userSpaceOnUse" id="gradient3" r="819.2" spreadMethod="pad">
      <stop offset="0.19607843137254902" stop-color="#00006e"/>
      <stop offset="0.3686274509803922" stop-color="#0000e6"/>
      <stop offset="1.0" stop-color="#0000e6"/>
    </radialGradient>
  </defs>
</svg>
