<?xml version="1.0" encoding="UTF-8" standalone="no"?>
<svg xmlns:ffdec="https://www.free-decompiler.com/flash" xmlns:xlink="http://www.w3.org/1999/xlink" ffdec:objectType="shape" height="250.05px" width="300.0px" xmlns="http://www.w3.org/2000/svg">
  <g transform="matrix(1.0, 0.0, 0.0, 1.0, 150.0, 100.0)">
    <path d="M150.0 10.0 L149.95 10.0 149.95 0.0 150.0 0.0 150.0 10.0" fill="url(#gradient0)" fill-rule="evenodd" stroke="none"/>
    <path d="M-150.0 10.0 L-150.0 0.0 -149.9 0.0 -149.9 10.0 -150.0 10.0" fill="url(#gradient1)" fill-rule="evenodd" stroke="none"/>
    <path d="M0.0 10.0 L0.0 150.05 -100.0 150.05 -110.0 120.0 -150.0 100.0 -150.0 10.0 -149.9 10.0 0.0 10.0" fill="url(#gradient2)" fill-rule="evenodd" stroke="none"/>
    <path d="M149.95 10.0 L150.0 10.0 150.0 100.0 110.0 120.0 100.0 150.05 0.0 150.05 0.0 10.0 149.95 10.0" fill="url(#gradient3)" fill-rule="evenodd" stroke="none"/>
    <path d="M1.6 -100.0 L1.6 -99.95 63.35 -90.0 149.95 -99.95 149.95 10.0 -149.9 10.0 -149.9 -99.95 -92.85 -90.0 1.6 -100.0" fill="url(#gradient4)" fill-rule="evenodd" stroke="none"/>
  </g>
  <defs>
    <radialGradient cx="0" cy="0" gradientTransform="matrix(0.0, 0.3554, -0.3554, 0.0, 150.0, 150.05)" gradientUnits="userSpaceOnUse" id="gradient0" r="819.2" spreadMethod="pad">
      <stop offset="0.12941176470588237" stop-color="#6d4d01"/>
      <stop offset="0.32941176470588235" stop-color="#cc9900"/>
      <stop offset="0.7058823529411765" stop-color="#cc9900"/>
      <stop offset="0.8941176470588236" stop-color="#6d4d01"/>
    </radialGradient>
    <radialGradient cx="0" cy="0" gradientTransform="matrix(0.0, 0.3554, 0.3554, 0.0, -150.0, 150.05)" gradientUnits="userSpaceOnUse" id="gradient1" r="819.2" spreadMethod="pad">
      <stop offset="0.12941176470588237" stop-color="#6d4d01"/>
      <stop offset="0.32941176470588235" stop-color="#cc9900"/>
      <stop offset="0.7058823529411765" stop-color="#cc9900"/>
      <stop offset="0.8941176470588236" stop-color="#6d4d01"/>
    </radialGradient>
    <radialGradient cx="0" cy="0" gradientTransform="matrix(0.0, 0.3554, 0.3554, 0.0, -150.0, 150.05)" gradientUnits="userSpaceOnUse" id="gradient2" r="819.2" spreadMethod="pad">
      <stop offset="0.19607843137254902" stop-color="#00006e"/>
      <stop offset="0.3686274509803922" stop-color="#0000e6"/>
      <stop offset="1.0" stop-color="#0000e6"/>
    </radialGradient>
    <radialGradient cx="0" cy="0" gradientTransform="matrix(0.0, 0.3554, -0.3554, 0.0, 150.0, 150.05)" gradientUnits="userSpaceOnUse" id="gradient3" r="819.2" spreadMethod="pad">
      <stop offset="0.19607843137254902" stop-color="#00006e"/>
      <stop offset="0.3686274509803922" stop-color="#0000e6"/>
      <stop offset="1.0" stop-color="#0000e6"/>
    </radialGradient>
    <linearGradient gradientTransform="matrix(0.0, -0.1343, 0.183, 0.0, 0.0, 0.0)" gradientUnits="userSpaceOnUse" id="gradient4" spreadMethod="pad" x1="-819.2" x2="819.2">
      <stop offset="0.11764705882352941" stop-color="#01016e"/>
      <stop offset="0.2980392156862745" stop-color="#0000e6"/>
      <stop offset="0.7058823529411765" stop-color="#0000e6"/>
      <stop offset="0.8941176470588236" stop-color="#01016e"/>
    </linearGradient>
  </defs>
</svg>
