<?xml version="1.0" encoding="UTF-8" standalone="no"?>
<svg xmlns:ffdec="https://www.free-decompiler.com/flash" xmlns:xlink="http://www.w3.org/1999/xlink" ffdec:objectType="shape" height="300.05px" width="300.0px" xmlns="http://www.w3.org/2000/svg">
  <g transform="matrix(1.0, 0.0, 0.0, 1.0, 150.0, 150.0)">
    <path d="M148.95 -99.85 L149.95 -99.95 149.95 0.0 149.95 10.0 0.0 10.0 -149.9 10.0 -149.9 0.0 -149.9 -99.95 -149.0 -99.8 -92.85 -90.0 1.6 -100.0 1.6 -99.95 63.35 -90.0 148.95 -99.85" fill="url(#gradient0)" fill-rule="evenodd" stroke="none"/>
    <path d="M150.0 100.0 L150.0 150.05 100.0 150.05 110.0 120.0 150.0 100.0 M-100.0 150.05 L-150.0 150.05 -150.0 100.0 -110.0 120.0 -100.0 150.05 M-149.0 -99.8 L-149.95 -100.0 -149.95 -150.0 150.0 -150.0 150.0 -100.0 148.95 -99.85 63.35 -90.0 1.6 -99.95 1.6 -100.0 -92.85 -90.0 -149.0 -99.8" fill="#000000" fill-rule="evenodd" stroke="none"/>
    <path d="M0.0 150.05 L-100.0 150.05 -110.0 120.0 -150.0 100.0 -150.0 0.0 -149.9 0.0 -149.9 10.0 0.0 10.0 0.0 150.05" fill="url(#gradient1)" fill-rule="evenodd" stroke="none"/>
    <path d="M149.95 0.0 L150.0 0.0 150.0 100.0 110.0 120.0 100.0 150.05 0.0 150.05 0.0 10.0 149.95 10.0 149.95 0.0" fill="url(#gradient2)" fill-rule="evenodd" stroke="none"/>
    <path d="M-121.4 60.35 L-128.0 55.95 -132.0 44.0 -121.1 38.6 -112.65 49.85 -121.4 60.35" fill="#7f5b00" fill-opacity="0.2" fill-rule="evenodd" stroke="none"/>
    <path d="M-16.6 -15.05 L-26.65 -5.0 -33.35 -15.05 -26.65 -21.75 -16.6 -15.05" fill="#7f5b00" fill-opacity="0.2" fill-rule="evenodd" stroke="none"/>
    <path d="M78.1 27.6 L73.55 41.3 66.15 36.35 61.9 23.55 69.2 18.65 78.1 27.6" fill="#7f5b00" fill-opacity="0.2" fill-rule="evenodd" stroke="none"/>
    <path d="M37.7 -82.0 L34.8 -73.25 25.5 -73.25 22.3 -82.9 28.15 -86.8 37.7 -82.0" fill="#7f5b00" fill-opacity="0.2" fill-rule="evenodd" stroke="none"/>
    <path d="M-104.35 -54.25 L-115.6 -45.8 -126.1 -54.55 -121.7 -61.15 -109.75 -65.15 -104.35 -54.25" fill="#7f5b00" fill-opacity="0.2" fill-rule="evenodd" stroke="none"/>
    <path d="M131.7 -21.65 L121.65 -31.7 131.7 -38.4 138.4 -31.7 131.7 -21.65" fill="#7f5b00" fill-opacity="0.2" fill-rule="evenodd" stroke="none"/>
    <path d="M101.35 -70.8 L92.4 -61.9 78.7 -66.45 83.65 -73.85 96.45 -78.1 101.35 -70.8" fill="#7f5b00" fill-opacity="0.2" fill-rule="evenodd" stroke="none"/>
    <path d="M-8.0 77.7 L-16.75 74.8 -16.75 65.5 -7.1 62.3 -3.2 68.15 -8.0 77.7" fill="#7f5b00" fill-opacity="0.2" fill-rule="evenodd" stroke="none"/>
    <path d="M-76.85 -109.85 L-80.8 -107.55 -84.55 -110.85 -83.0 -114.0 -77.75 -114.3 -76.85 -109.85 M-59.0 -128.85 L-52.25 -127.05 -54.85 -121.75 -59.35 -122.95 -59.0 -128.85" fill="#191919" fill-rule="evenodd" stroke="none"/>
  </g>
  <defs>
    <linearGradient gradientTransform="matrix(0.0, -0.1343, 0.183, 0.0, 0.0, 0.0)" gradientUnits="userSpaceOnUse" id="gradient0" spreadMethod="pad" x1="-819.2" x2="819.2">
      <stop offset="0.0" stop-color="#6d4d01"/>
      <stop offset="0.25882352941176473" stop-color="#cc9900"/>
      <stop offset="0.7529411764705882" stop-color="#cc9900"/>
      <stop offset="1.0" stop-color="#6d4d01"/>
    </linearGradient>
    <radialGradient cx="0" cy="0" gradientTransform="matrix(0.0, 0.3554, 0.3554, 0.0, -150.0, 150.05)" gradientUnits="userSpaceOnUse" id="gradient1" r="819.2" spreadMethod="pad">
      <stop offset="0.12941176470588237" stop-color="#6d4d01"/>
      <stop offset="0.32941176470588235" stop-color="#cc9900"/>
      <stop offset="0.7058823529411765" stop-color="#cc9900"/>
      <stop offset="0.8941176470588236" stop-color="#6d4d01"/>
    </radialGradient>
    <radialGradient cx="0" cy="0" gradientTransform="matrix(0.0, 0.3554, -0.3554, 0.0, 150.0, 150.05)" gradientUnits="userSpaceOnUse" id="gradient2" r="819.2" spreadMethod="pad">
      <stop offset="0.12941176470588237" stop-color="#6d4d01"/>
      <stop offset="0.32941176470588235" stop-color="#cc9900"/>
      <stop offset="0.7058823529411765" stop-color="#cc9900"/>
      <stop offset="0.8941176470588236" stop-color="#6d4d01"/>
    </radialGradient>
  </defs>
</svg>
