<?xml version="1.0" encoding="UTF-8" standalone="no"?>
<svg xmlns:ffdec="https://www.free-decompiler.com/flash" xmlns:xlink="http://www.w3.org/1999/xlink" ffdec:objectType="shape" height="300.0px" width="300.05px" xmlns="http://www.w3.org/2000/svg">
  <g transform="matrix(1.0, 0.0, 0.0, 1.0, 150.05, 150.0)">
    <path d="M99.95 -150.0 L150.0 -150.0 150.0 -100.0 109.95 -110.0 99.95 -150.0 M149.95 100.0 L149.95 150.0 -150.05 150.0 -150.05 -150.0 -100.05 -150.0 -92.05 -76.0 -70.05 0.0 -29.15 30.9 -0.05 72.0 65.95 93.0 149.95 100.0" fill="#000000" fill-rule="evenodd" stroke="none"/>
    <path d="M99.95 -150.0 L109.95 -110.0 150.0 -100.0 149.95 100.0 65.95 93.0 -0.05 72.0 -29.15 30.9 -70.05 0.0 -92.05 -76.0 -100.05 -150.0 99.95 -150.0" fill="url(#gradient0)" fill-rule="evenodd" stroke="none"/>
    <path d="M-93.35 -80.6 L-87.7 -91.85 -76.15 -88.0 -78.2 -74.05 -91.8 -72.75 -93.35 -80.6" fill="#7f5b00" fill-opacity="0.2" fill-rule="evenodd" stroke="none"/>
    <path d="M34.7 -55.9 L37.05 -44.05 22.85 -44.05 25.2 -55.9 34.7 -55.9" fill="#7f5b00" fill-opacity="0.2" fill-rule="evenodd" stroke="none"/>
    <path d="M-42.75 -106.05 L-55.65 -99.55 -57.4 -108.3 -51.3 -120.4 -42.7 -118.7 -42.75 -106.05" fill="#7f5b00" fill-opacity="0.2" fill-rule="evenodd" stroke="none"/>
    <path d="M121.4 -60.95 L113.15 -56.8 106.55 -63.4 111.1 -72.45 118.0 -71.15 121.4 -60.95" fill="#7f5b00" fill-opacity="0.2" fill-rule="evenodd" stroke="none"/>
    <path d="M59.45 -112.95 L55.6 -101.4 41.65 -103.4 40.45 -117.0 48.2 -118.6 59.45 -112.95" fill="#7f5b00" fill-opacity="0.2" fill-rule="evenodd" stroke="none"/>
    <path d="M104.05 83.05 L104.05 68.85 115.9 71.2 115.9 80.65 104.05 83.05" fill="#7f5b00" fill-opacity="0.2" fill-rule="evenodd" stroke="none"/>
    <path d="M87.55 7.85 L85.8 16.45 73.15 16.45 66.75 3.55 75.45 1.8 87.55 7.85" fill="#7f5b00" fill-opacity="0.2" fill-rule="evenodd" stroke="none"/>
    <path d="M-23.85 19.7 L-27.95 11.4 -21.4 4.8 -12.3 9.4 -13.65 16.25 -23.85 19.7" fill="#7f5b00" fill-opacity="0.2" fill-rule="evenodd" stroke="none"/>
    <path d="M-53.3 84.85 L-49.05 84.0 -43.1 86.95 -43.95 91.2 -50.15 91.2 -53.3 84.85 M-76.1 53.65 L-76.75 57.05 -81.75 58.7 -83.75 54.65 -80.55 51.4 -76.1 53.65 M-96.1 77.65 L-103.1 77.65 -101.95 71.8 -97.25 71.8 -96.1 77.65" fill="#191919" fill-rule="evenodd" stroke="none"/>
  </g>
  <defs>
    <radialGradient cx="0" cy="0" gradientTransform="matrix(0.3554, 0.0, 0.0, 0.3554, 150.0, -150.0)" gradientUnits="userSpaceOnUse" id="gradient0" r="819.2" spreadMethod="pad">
      <stop offset="0.12941176470588237" stop-color="#6d4d01"/>
      <stop offset="0.32941176470588235" stop-color="#cc9900"/>
      <stop offset="0.7058823529411765" stop-color="#cc9900"/>
      <stop offset="0.8941176470588236" stop-color="#6d4d01"/>
    </radialGradient>
  </defs>
</svg>
