<?xml version="1.0" encoding="UTF-8" standalone="no"?>
<svg xmlns:ffdec="https://www.free-decompiler.com/flash" xmlns:xlink="http://www.w3.org/1999/xlink" ffdec:objectType="shape" height="300.05px" width="300.0px" xmlns="http://www.w3.org/2000/svg">
  <g transform="matrix(1.0, 0.0, 0.0, 1.0, 150.0, 150.0)">
    <path d="M150.0 -100.0 L63.35 -90.0 1.6 -99.95 1.6 -100.0 -92.85 -90.0 -149.95 -100.0 -149.95 -150.0 150.0 -150.0 150.0 -100.0 M100.0 150.05 L110.0 120.0 150.0 100.0 150.0 150.05 100.0 150.05 M-100.0 150.05 L-150.0 150.05 -150.0 100.0 -110.0 120.0 -100.0 150.05" fill="#000000" fill-rule="evenodd" stroke="none"/>
    <path d="M-76.85 -109.85 L-80.8 -107.55 -84.55 -110.85 -83.0 -114.0 -77.75 -114.3 -76.85 -109.85 M-59.0 -128.85 L-52.25 -127.05 -54.85 -121.75 -59.35 -122.95 -59.0 -128.85" fill="#191919" fill-rule="evenodd" stroke="none"/>
  </g>
</svg>
