<?xml version="1.0" encoding="UTF-8" standalone="no"?>
<svg xmlns:ffdec="https://www.free-decompiler.com/flash" xmlns:xlink="http://www.w3.org/1999/xlink" ffdec:objectType="shape" height="300.0px" width="300.05px" xmlns="http://www.w3.org/2000/svg">
  <g transform="matrix(1.0, 0.0, 0.0, 1.0, 150.05, 150.0)">
    <path d="M150.0 -150.0 L150.0 -100.0 109.95 -110.0 99.95 -150.0 150.0 -150.0 M149.95 150.0 L-150.05 150.0 -150.05 -150.0 -100.05 -150.0 -92.05 -76.0 -70.05 0.0 -29.15 30.9 -0.05 72.0 65.95 93.0 149.95 100.0 149.95 150.0" fill="#000000" fill-rule="evenodd" stroke="none"/>
    <path d="M-53.3 84.85 L-49.05 84.0 -43.1 86.95 -43.95 91.2 -50.15 91.2 -53.3 84.85 M-76.1 53.65 L-76.75 57.05 -81.75 58.7 -83.75 54.65 -80.55 51.4 -76.1 53.65 M-96.1 77.65 L-103.1 77.65 -101.95 71.8 -97.25 71.8 -96.1 77.65" fill="#191919" fill-rule="evenodd" stroke="none"/>
  </g>
</svg>
