<?xml version="1.0" encoding="UTF-8" standalone="no"?>
<svg xmlns:ffdec="https://www.free-decompiler.com/flash" xmlns:xlink="http://www.w3.org/1999/xlink" ffdec:objectType="shape" height="185.3px" width="155.3px" xmlns="http://www.w3.org/2000/svg">
  <g transform="matrix(1.0, 0.0, 0.0, 1.0, 72.65, 92.65)">
    <path d="M-13.25 -15.0 L20.0 -10.0 20.0 -5.0 80.0 -5.0 80.0 5.0 20.0 5.0 20.0 10.0 -13.25 15.0 -70.0 10.0 -70.0 -10.0 -13.25 -15.0 -13.25 15.0 -13.25 -15.0 M20.0 -5.0 L20.0 5.0 20.0 -5.0" fill="#794d20" fill-rule="evenodd" stroke="none"/>
    <path d="M80.0 5.0 L20.0 5.0 M-70.0 -10.0 L-13.25 -15.0" fill="none" stroke="#000000" stroke-linecap="square" stroke-linejoin="miter-clip" stroke-miterlimit="3.0" stroke-width="4.0"/>
    <path d="M-13.25 -15.0 L-13.25 15.0 M20.0 5.0 L20.0 -5.0" fill="none" stroke="#000000" stroke-linecap="round" stroke-linejoin="miter-clip" stroke-miterlimit="3.0" stroke-width="4.0"/>
    <path d="M20.0 -10.0 L20.0 -5.0 M80.0 -5.0 L80.0 5.0 M20.0 10.0 L-13.25 15.0 M-70.0 10.0 L-70.0 -10.0" fill="none" stroke="#000000" stroke-linecap="square" stroke-linejoin="miter-clip" stroke-miterlimit="3.0" stroke-width="4.0"/>
    <path d="M-13.25 -15.0 L20.0 -10.0 M20.0 -5.0 L80.0 -5.0 M20.0 5.0 L20.0 10.0 M-13.25 15.0 L-70.0 10.0" fill="none" stroke="#000000" stroke-linecap="round" stroke-linejoin="miter-clip" stroke-miterlimit="3.0" stroke-width="4.0"/>
    <path d="M12.75 73.4 L-0.25 0.0 12.75 -76.6" fill="none" stroke="#999999" stroke-linecap="square" stroke-linejoin="miter-clip" stroke-miterlimit="3.0" stroke-width="4.0"/>
    <path d="M11.3 -73.55 L9.7 -75.1 9.7 -90.0 18.75 -90.0 18.75 -77.85 23.3 -73.55 Q53.8 -43.1 53.8 0.0 53.8 43.1 23.3 73.55 L18.75 77.9 18.75 90.0 9.7 90.0 9.7 75.15 11.3 73.55 Q15.3 69.55 18.75 65.4 41.8 37.45 41.8 0.0 41.8 -37.45 18.75 -65.35 15.3 -69.55 11.3 -73.55" fill="#000000" fill-rule="evenodd" stroke="none"/>
    <path d="M11.3 -73.55 Q15.3 -69.55 18.75 -65.35 41.8 -37.45 41.8 0.0 41.8 37.45 18.75 65.4 15.3 69.55 11.3 73.55 L9.7 75.15 9.7 90.0 18.75 90.0 18.75 77.9 23.3 73.55 Q53.8 43.1 53.8 0.0 53.8 -43.1 23.3 -73.55 L18.75 -77.85 18.75 -90.0 9.7 -90.0 9.7 -75.1 11.3 -73.55 Z" fill="none" stroke="#333333" stroke-linecap="square" stroke-linejoin="miter-clip" stroke-miterlimit="3.0" stroke-width="4.0"/>
    <path d="M35.3 -18.6 L57.3 -18.6 Q58.8 -9.6 58.8 0.0 58.8 11.25 56.8 21.4 L34.8 21.4 Q36.8 11.25 36.8 0.0 36.8 -9.6 35.3 -18.6" fill="#000000" fill-rule="evenodd" stroke="none"/>
    <path d="M35.3 -18.6 Q36.8 -9.6 36.8 0.0 36.8 11.25 34.8 21.4 L56.8 21.4 Q58.8 11.25 58.8 0.0 58.8 -9.6 57.3 -18.6 L35.3 -18.6 Z" fill="none" stroke="#333333" stroke-linecap="square" stroke-linejoin="miter-clip" stroke-miterlimit="3.0" stroke-width="4.0"/>
  </g>
</svg>
