<?xml version="1.0" encoding="UTF-8" standalone="no"?>
<svg xmlns:ffdec="https://www.free-decompiler.com/flash" xmlns:xlink="http://www.w3.org/1999/xlink" ffdec:objectType="shape" height="60.0px" width="60.0px" xmlns="http://www.w3.org/2000/svg">
  <g transform="matrix(1.0, 0.0, 0.0, 1.0, 30.0, 30.0)">
    <path d="M5.15 30.0 L5.2 29.7 5.2 29.65 5.2 29.7 5.15 30.0" fill="url(#gradient0)" fill-rule="evenodd" stroke="none"/>
    <path d="M5.2 30.0 L5.15 30.0 5.2 29.7 5.2 30.0" fill="url(#gradient1)" fill-rule="evenodd" stroke="none"/>
    <path d="M27.0 -27.0 L-27.0 -27.0 -27.0 27.0 27.0 27.0 27.0 -27.0 M5.15 30.0 L-30.0 30.0 -30.0 -30.0 30.0 -30.0 30.0 30.0 5.2 30.0 5.2 29.7 5.2 29.65 5.2 29.7 5.15 30.0" fill="url(#gradient2)" fill-rule="evenodd" stroke="none"/>
    <path d="M27.0 -27.0 L27.0 27.0 -27.0 27.0 -27.0 -27.0 27.0 -27.0" fill="url(#gradient3)" fill-rule="evenodd" stroke="none"/>
  </g>
  <defs>
    <linearGradient gradientTransform="matrix(-0.0239, 0.0, 0.0, -0.02, -10.4, 13.65)" gradientUnits="userSpaceOnUse" id="gradient0" spreadMethod="pad" x1="-819.2" x2="819.2">
      <stop offset="0.0" stop-color="#a2a2bb"/>
      <stop offset="1.0" stop-color="#6a6b78"/>
    </linearGradient>
    <linearGradient gradientTransform="matrix(0.0014, -0.0196, 0.0132, 9.0E-4, 88.95, -15.5)" gradientUnits="userSpaceOnUse" id="gradient1" spreadMethod="pad" x1="-819.2" x2="819.2">
      <stop offset="0.0" stop-color="#a2a2bb"/>
      <stop offset="1.0" stop-color="#6a6b78"/>
    </linearGradient>
    <linearGradient gradientTransform="matrix(0.0, 0.0359, -0.0366, 0.0, 0.0, -0.2)" gradientUnits="userSpaceOnUse" id="gradient2" spreadMethod="pad" x1="-819.2" x2="819.2">
      <stop offset="0.0" stop-color="#a2a2bb"/>
      <stop offset="1.0" stop-color="#6a6b78"/>
    </linearGradient>
    <linearGradient gradientTransform="matrix(0.0, 0.0347, -0.0366, 0.0, -106.5, -14.1)" gradientUnits="userSpaceOnUse" id="gradient3" spreadMethod="pad" x1="-819.2" x2="819.2">
      <stop offset="0.0" stop-color="#c5c5d3"/>
      <stop offset="1.0" stop-color="#8d8e9a"/>
    </linearGradient>
  </defs>
</svg>
