<?xml version="1.0" encoding="UTF-8" standalone="no"?>
<svg xmlns:ffdec="https://www.free-decompiler.com/flash" xmlns:xlink="http://www.w3.org/1999/xlink" ffdec:objectType="shape" height="157.0px" width="122.0px" xmlns="http://www.w3.org/2000/svg">
  <g transform="matrix(1.0, 0.0, 0.0, 1.0, 61.0, 61.0)">
    <path d="M-12.0 27.6 Q-6.55 30.0 0.0 30.0 6.5 30.0 12.0 27.6 L12.0 95.0 -12.0 95.0 -12.0 27.6" fill="#ee0000" fill-rule="evenodd" stroke="none"/>
    <path d="M22.5 19.85 Q30.0 11.5 30.0 0.0 30.0 -12.45 21.2 -21.25 12.45 -30.0 0.0 -30.0 -12.45 -30.0 -21.25 -21.25 -30.0 -12.45 -30.0 0.0 -30.0 11.5 -22.5 19.85 L-22.5 39.1 -22.5 19.85 -21.25 21.2 Q-17.05 25.4 -12.0 27.6 L-12.0 95.0 -22.5 95.0 -22.5 39.1 Q-27.5 36.15 -31.9 31.8 -37.7 25.95 -40.95 19.05 -45.0 10.35 -45.0 0.0 -45.0 -10.35 -41.0 -18.95 -37.8 -26.0 -31.9 -31.9 -26.0 -37.8 -18.95 -41.0 -10.35 -45.0 0.0 -45.0 10.35 -45.0 19.05 -40.95 25.95 -37.7 31.8 -31.9 37.65 -26.05 40.9 -19.1 45.0 -10.4 45.0 0.0 45.0 10.45 40.85 19.2 37.55 26.0 31.8 31.8 27.45 36.15 22.5 39.1 L22.5 19.85 22.5 39.1 22.5 95.0 12.0 95.0 12.0 27.6 Q17.0 25.4 21.2 21.2 L22.5 19.85" fill="#dd0000" fill-rule="evenodd" stroke="none"/>
    <path d="M-22.5 19.85 Q-30.0 11.5 -30.0 0.0 -30.0 -12.45 -21.25 -21.25 -12.45 -30.0 0.0 -30.0 12.45 -30.0 21.2 -21.25 30.0 -12.45 30.0 0.0 30.0 11.5 22.5 19.85 L21.2 21.2 Q17.0 25.4 12.0 27.6 6.5 30.0 0.0 30.0 -6.55 30.0 -12.0 27.6 -17.05 25.4 -21.25 21.2 L-22.5 19.85 M8.6 15.6 L17.15 0.75 8.6 -14.2 -8.65 -14.2 -17.2 0.75 -8.65 15.6 8.6 15.6" fill="url(#gradient0)" fill-rule="evenodd" stroke="none"/>
    <path d="M8.6 15.6 L-8.65 15.6 -17.2 0.75 -8.65 -14.2 8.6 -14.2 17.15 0.75 8.6 15.6" fill="url(#gradient1)" fill-rule="evenodd" stroke="none"/>
    <path d="M40.85 19.2 Q45.0 10.45 45.0 0.0 45.0 -10.4 40.9 -19.1 L60.0 0.0 40.85 19.2" fill="url(#gradient2)" fill-rule="evenodd" stroke="none"/>
    <path d="M19.05 -40.95 Q10.35 -45.0 0.0 -45.0 -10.35 -45.0 -18.95 -41.0 L0.0 -60.0 19.05 -40.95" fill="url(#gradient3)" fill-rule="evenodd" stroke="none"/>
    <path d="M-41.0 -18.95 Q-45.0 -10.35 -45.0 0.0 -45.0 10.35 -40.95 19.05 L-60.0 0.0 -41.0 -18.95" fill="url(#gradient4)" fill-rule="evenodd" stroke="none"/>
    <path d="M22.5 19.85 L22.5 39.1 M-22.5 39.1 L-22.5 19.85 M12.0 27.6 L12.0 95.0 M-12.0 27.6 L-12.0 95.0" fill="none" stroke="#ff6600" stroke-linecap="round" stroke-linejoin="round" stroke-opacity="0.3019608" stroke-width="2.0"/>
    <path d="M-22.5 19.85 Q-30.0 11.5 -30.0 0.0 -30.0 -12.45 -21.25 -21.25 -12.45 -30.0 0.0 -30.0 12.45 -30.0 21.2 -21.25 30.0 -12.45 30.0 0.0 30.0 11.5 22.5 19.85 L21.2 21.2 Q17.0 25.4 12.0 27.6 6.5 30.0 0.0 30.0 -6.55 30.0 -12.0 27.6 -17.05 25.4 -21.25 21.2 L-22.5 19.85 M8.6 15.6 L-8.65 15.6 -17.2 0.75 -8.65 -14.2 8.6 -14.2 17.15 0.75 8.6 15.6" fill="none" stroke="#ffffff" stroke-linecap="round" stroke-linejoin="round" stroke-opacity="0.2" stroke-width="2.0"/>
    <path d="M22.5 39.1 Q27.45 36.15 31.8 31.8 37.55 26.0 40.85 19.2 M40.9 -19.1 Q37.65 -26.05 31.8 -31.9 25.95 -37.7 19.05 -40.95 M-18.95 -41.0 Q-26.0 -37.8 -31.9 -31.9 -37.8 -26.0 -41.0 -18.95 M-40.95 19.05 Q-37.7 25.95 -31.9 31.8 -27.5 36.15 -22.5 39.1 L-22.5 95.0 -12.0 95.0 12.0 95.0 22.5 95.0 22.5 39.1" fill="none" stroke="#ff9900" stroke-linecap="round" stroke-linejoin="round" stroke-width="2.0"/>
    <path d="M19.05 -40.95 L0.0 -60.0 -18.95 -41.0 M40.85 19.2 L60.0 0.0 40.9 -19.1 M-41.0 -18.95 L-60.0 0.0 -40.95 19.05" fill="none" stroke="#cccccc" stroke-linecap="round" stroke-linejoin="round" stroke-width="2.0"/>
    <path d="M22.5 95.0 L22.5 39.1 Q27.45 36.15 31.8 31.8 37.55 26.0 40.85 19.2 45.0 10.45 45.0 0.0 45.0 -10.4 40.9 -19.1 37.65 -26.05 31.8 -31.9 25.95 -37.7 19.05 -40.95 10.35 -45.0 0.0 -45.0 -10.35 -45.0 -18.95 -41.0 -26.0 -37.8 -31.9 -31.9 -37.8 -26.0 -41.0 -18.95 -45.0 -10.35 -45.0 0.0 -45.0 10.35 -40.95 19.05 -37.7 25.95 -31.9 31.8 -27.5 36.15 -22.5 39.1 L-22.5 95.0" fill="none" stroke="#ff6600" stroke-linecap="round" stroke-linejoin="round" stroke-opacity="0.6117647" stroke-width="2.0"/>
  </g>
  <defs>
    <linearGradient gradientTransform="matrix(0.0157, 0.0272, -0.0318, 0.0184, -0.5, -0.8)" gradientUnits="userSpaceOnUse" id="gradient0" spreadMethod="pad" x1="-819.2" x2="819.2">
      <stop offset="0.14901960784313725" stop-color="#373737"/>
      <stop offset="1.0" stop-color="#1a1a1a"/>
    </linearGradient>
    <linearGradient gradientTransform="matrix(0.0, 0.0124, -0.021, 0.0, 0.0, 2.0)" gradientUnits="userSpaceOnUse" id="gradient1" spreadMethod="pad" x1="-819.2" x2="819.2">
      <stop offset="0.14901960784313725" stop-color="#666666"/>
      <stop offset="1.0" stop-color="#515151"/>
    </linearGradient>
    <linearGradient gradientTransform="matrix(0.0, 0.0139, -0.0117, 0.0, 50.45, 1.1)" gradientUnits="userSpaceOnUse" id="gradient2" spreadMethod="pad" x1="-819.2" x2="819.2">
      <stop offset="0.0" stop-color="#484848"/>
      <stop offset="0.1607843137254902" stop-color="#777777"/>
      <stop offset="0.21176470588235294" stop-color="#404040"/>
      <stop offset="0.8313725490196079" stop-color="#111111"/>
    </linearGradient>
    <linearGradient gradientTransform="matrix(0.0162, 0.0, 0.0, 0.0116, 3.9, -50.5)" gradientUnits="userSpaceOnUse" id="gradient3" spreadMethod="pad" x1="-819.2" x2="819.2">
      <stop offset="0.0" stop-color="#484848"/>
      <stop offset="0.1607843137254902" stop-color="#777777"/>
      <stop offset="0.21176470588235294" stop-color="#404040"/>
      <stop offset="0.8313725490196079" stop-color="#111111"/>
    </linearGradient>
    <linearGradient gradientTransform="matrix(0.0, 0.0153, -0.0116, 0.0, -50.45, 0.05)" gradientUnits="userSpaceOnUse" id="gradient4" spreadMethod="pad" x1="-819.2" x2="819.2">
      <stop offset="0.0" stop-color="#484848"/>
      <stop offset="0.1607843137254902" stop-color="#777777"/>
      <stop offset="0.21176470588235294" stop-color="#404040"/>
      <stop offset="0.8313725490196079" stop-color="#111111"/>
    </linearGradient>
  </defs>
</svg>
