<?xml version="1.0" encoding="UTF-8" standalone="no"?>
<svg xmlns:ffdec="https://www.free-decompiler.com/flash" xmlns:xlink="http://www.w3.org/1999/xlink" ffdec:objectType="shape" height="189.5px" width="130.0px" xmlns="http://www.w3.org/2000/svg">
  <g transform="matrix(1.0, 0.0, 0.0, 1.0, 82.0, 46.25)">
    <path d="M12.25 100.0 L17.0 104.75 -27.95 104.75 -5.45 82.3 12.25 100.0" fill="#1e1e1e" fill-rule="evenodd" stroke="none"/>
    <path d="M17.0 104.75 L27.0 104.75 40.0 120.0 -81.0 120.0 -68.0 104.75 -43.0 104.75 -27.95 104.75 17.0 104.75" fill="#dd0000" fill-rule="evenodd" stroke="none"/>
    <path d="M17.0 -0.25 Q17.0 6.0 12.6 10.35 8.25 14.75 2.0 14.75 -4.2 14.75 -8.65 10.35 -13.0 6.0 -13.0 -0.25 -13.0 -6.45 -8.65 -10.9 -4.2 -15.25 2.0 -15.25 8.25 -15.25 12.6 -10.9 17.0 -6.45 17.0 -0.25" fill="url(#gradient0)" fill-rule="evenodd" stroke="none"/>
    <path d="M28.25 -0.2 Q28.25 10.65 20.5 18.3 12.9 26.0 2.0 26.05 -8.9 26.0 -16.6 18.3 -24.25 10.65 -24.25 -0.2 -24.25 -11.1 -16.6 -18.85 -8.9 -26.5 2.0 -26.45 12.9 -26.5 20.5 -18.85 28.25 -11.1 28.25 -0.2 M17.0 -0.25 Q17.0 -6.45 12.6 -10.9 8.25 -15.25 2.0 -15.25 -4.2 -15.25 -8.65 -10.9 -13.0 -6.45 -13.0 -0.25 -13.0 6.0 -8.65 10.35 -4.2 14.75 2.0 14.75 8.25 14.75 12.6 10.35 17.0 6.0 17.0 -0.25" fill="url(#gradient1)" fill-rule="evenodd" stroke="none"/>
    <path d="M28.25 -0.2 Q28.25 -11.1 20.5 -18.85 12.9 -26.5 2.0 -26.45 -8.9 -26.5 -16.6 -18.85 -24.25 -11.1 -24.25 -0.2 -24.25 10.65 -16.6 18.3 -8.9 26.0 2.0 26.05 12.9 26.0 20.5 18.3 28.25 10.65 28.25 -0.2 M-38.95 -19.3 Q-35.7 -26.25 -29.85 -32.1 -24.0 -37.95 -17.05 -41.2 -8.35 -45.25 2.0 -45.25 20.7 -45.25 33.8 -32.1 47.0 -18.9 47.0 -0.25 47.0 18.45 33.8 31.55 20.7 44.75 2.0 44.75 -6.0 44.75 -13.0 42.35 -19.4 40.1 -25.0 35.85 L-29.85 31.55 Q-41.45 20.0 -42.8 4.1 L-43.0 -0.25 Q-43.0 -10.6 -38.95 -19.3" fill="url(#gradient2)" fill-rule="evenodd" stroke="none"/>
    <path d="M-13.0 42.35 L-13.0 74.75 -25.0 62.75 -25.0 35.85 Q-19.4 40.1 -13.0 42.35 M40.0 120.0 L9.5 142.25 2.0 134.75 -5.5 142.25 -13.0 134.75 -20.5 142.25 -28.0 134.75 -35.5 142.25 -43.0 134.75 -50.5 142.25 -81.0 120.0 40.0 120.0 M-43.0 104.75 L-73.0 74.75 -73.0 14.75 -38.95 -19.3 Q-43.0 -10.6 -43.0 -0.25 L-42.8 4.1 -61.0 22.25 -61.0 66.5 -32.85 94.65 -43.0 104.75" fill="#990000" fill-rule="evenodd" stroke="none"/>
    <path d="M-42.8 4.1 Q-41.45 20.0 -29.85 31.55 L-25.0 35.85 -25.0 62.75 -13.0 74.75 -32.85 94.65 -61.0 66.5 -61.0 22.25 -42.8 4.1" fill="url(#gradient3)" fill-rule="evenodd" stroke="none"/>
    <path d="M-13.0 74.75 L-5.45 82.3 -27.95 104.75 -43.0 104.75 -32.85 94.65 -13.0 74.75" fill="#666666" fill-rule="evenodd" stroke="none"/>
    <path d="M-5.45 82.3 L16.75 76.85 12.25 100.0 -5.45 82.3" fill="url(#gradient4)" fill-rule="evenodd" stroke="none"/>
    <path d="M28.25 -0.2 Q28.25 10.65 20.5 18.3 12.9 26.0 2.0 26.05 -8.9 26.0 -16.6 18.3 -24.25 10.65 -24.25 -0.2 -24.25 -11.1 -16.6 -18.85 -8.9 -26.5 2.0 -26.45 12.9 -26.5 20.5 -18.85 28.25 -11.1 28.25 -0.2 M17.0 -0.25 Q17.0 6.0 12.6 10.35 8.25 14.75 2.0 14.75 -4.2 14.75 -8.65 10.35 -13.0 6.0 -13.0 -0.25 -13.0 -6.45 -8.65 -10.9 -4.2 -15.25 2.0 -15.25 8.25 -15.25 12.6 -10.9 17.0 -6.45 17.0 -0.25" fill="none" stroke="#ffffff" stroke-linecap="round" stroke-linejoin="round" stroke-opacity="0.3019608" stroke-width="2.0"/>
    <path d="M-38.95 -19.3 Q-43.0 -10.6 -43.0 -0.25 L-42.8 4.1 Q-41.45 20.0 -29.85 31.55 L-25.0 35.85 Q-19.4 40.1 -13.0 42.35 M-42.8 4.1 L-61.0 22.25 -61.0 66.5 -32.85 94.65 -13.0 74.75 -25.0 62.75 -25.0 35.85 M-43.0 104.75 L-27.95 104.75 17.0 104.75 M-32.85 94.65 L-43.0 104.75 M40.0 120.0 L-81.0 120.0" fill="none" stroke="#ff6600" stroke-linecap="round" stroke-linejoin="round" stroke-opacity="0.3019608" stroke-width="2.0"/>
    <path d="M-38.95 -19.3 Q-35.7 -26.25 -29.85 -32.1 -24.0 -37.95 -17.05 -41.2 -8.35 -45.25 2.0 -45.25 20.7 -45.25 33.8 -32.1 47.0 -18.9 47.0 -0.25 47.0 18.45 33.8 31.55 20.7 44.75 2.0 44.75 -6.0 44.75 -13.0 42.35 L-13.0 74.75 M17.0 104.75 L27.0 104.75 40.0 120.0 9.5 142.25 2.0 134.75 -5.5 142.25 -13.0 134.75 -20.5 142.25 -28.0 134.75 -35.5 142.25 -43.0 134.75 -50.5 142.25 -81.0 120.0 -68.0 104.75 -43.0 104.75 -73.0 74.75 -73.0 14.75 -38.95 -19.3" fill="none" stroke="#ff9900" stroke-linecap="round" stroke-linejoin="round" stroke-width="2.0"/>
    <path d="M-27.95 104.75 L-5.45 82.3 12.25 100.0" fill="none" stroke="#ffffff" stroke-linecap="round" stroke-linejoin="round" stroke-opacity="0.2" stroke-width="2.0"/>
    <path d="M-13.0 74.75 L-5.45 82.3 16.75 76.85 12.25 100.0 17.0 104.75" fill="none" stroke="#cccccc" stroke-linecap="round" stroke-linejoin="round" stroke-width="2.0"/>
  </g>
  <defs>
    <linearGradient gradientTransform="matrix(0.0, 0.0145, -0.0183, 0.0, 2.0, 0.45)" gradientUnits="userSpaceOnUse" id="gradient0" spreadMethod="pad" x1="-819.2" x2="819.2">
      <stop offset="0.14901960784313725" stop-color="#666666"/>
      <stop offset="1.0" stop-color="#515151"/>
    </linearGradient>
    <linearGradient gradientTransform="matrix(0.0, 0.047, -0.0549, 0.0, 2.0, -0.85)" gradientUnits="userSpaceOnUse" id="gradient1" spreadMethod="pad" x1="-819.2" x2="819.2">
      <stop offset="0.14901960784313725" stop-color="#373737"/>
      <stop offset="1.0" stop-color="#1a1a1a"/>
    </linearGradient>
    <linearGradient gradientTransform="matrix(0.0251, 0.0437, -0.0478, 0.0274, 2.2, 0.2)" gradientUnits="userSpaceOnUse" id="gradient2" spreadMethod="pad" x1="-819.2" x2="819.2">
      <stop offset="0.14901960784313725" stop-color="#dd0000"/>
      <stop offset="1.0" stop-color="#950000"/>
    </linearGradient>
    <linearGradient gradientTransform="matrix(0.0254, 0.0442, -0.0248, 0.0142, -42.35, 51.95)" gradientUnits="userSpaceOnUse" id="gradient3" spreadMethod="pad" x1="-819.2" x2="819.2">
      <stop offset="0.14901960784313725" stop-color="#dd0000"/>
      <stop offset="1.0" stop-color="#950000"/>
    </linearGradient>
    <linearGradient gradientTransform="matrix(0.0087, 0.0087, -0.0084, 0.0084, 11.45, 85.35)" gradientUnits="userSpaceOnUse" id="gradient4" spreadMethod="pad" x1="-819.2" x2="819.2">
      <stop offset="0.0" stop-color="#484848"/>
      <stop offset="0.1607843137254902" stop-color="#777777"/>
      <stop offset="0.21176470588235294" stop-color="#404040"/>
      <stop offset="0.8313725490196079" stop-color="#111111"/>
    </linearGradient>
  </defs>
</svg>
