<?xml version="1.0" encoding="UTF-8" standalone="no"?>
<svg xmlns:ffdec="https://www.free-decompiler.com/flash" xmlns:xlink="http://www.w3.org/1999/xlink" ffdec:objectType="shape" height="44.3px" width="41.95px" xmlns="http://www.w3.org/2000/svg">
  <g transform="matrix(1.0, 0.0, 0.0, 1.0, 22.05, 0.0)">
    <path d="M12.0 0.0 L19.9 0.0 19.8 0.45 Q15.45 11.25 10.95 20.5 L10.95 21.5 10.95 22.5 10.4 22.35 Q9.95 21.0 9.95 19.5 L10.95 19.5 Q14.7 14.55 14.0 7.75 14.75 7.3 15.8 7.0 L15.95 6.45 16.45 6.45 Q16.9 -3.0 12.45 1.4 L12.1 0.45 12.0 0.0" fill="#101936" fill-opacity="0.25882354" fill-rule="evenodd" stroke="none"/>
    <path d="M12.0 0.0 L12.1 0.45 12.45 1.4 11.05 3.0 10.95 0.0 12.0 0.0 M14.0 7.75 Q14.7 14.55 10.95 19.5 L10.95 18.5 Q13.95 17.0 12.5 11.65 12.45 11.5 11.95 11.5 L11.9 10.85 12.75 9.35 12.95 8.45 Q13.4 8.05 14.0 7.75" fill="#2a396a" fill-opacity="0.49803922" fill-rule="evenodd" stroke="none"/>
    <path d="M9.95 0.0 L10.95 0.0 11.05 3.0 9.95 4.45 9.95 4.8 Q9.8 2.55 9.95 0.0 M11.95 11.5 L11.5 11.5 11.9 10.85 11.95 11.5" fill="#586ba7" fill-opacity="0.7490196" fill-rule="evenodd" stroke="none"/>
    <path d="M-12.7 0.0 L8.95 0.0 Q8.7 3.7 9.3 6.75 8.75 9.4 6.95 10.45 8.55 15.0 11.05 12.1 L11.15 12.4 Q13.05 16.5 8.95 17.5 L8.95 18.5 Q8.45 18.5 8.25 18.75 7.15 20.2 3.95 19.5 L3.7 18.75 Q1.85 16.85 0.3 15.85 -0.8 13.85 -3.1 14.6 -7.1 14.5 -8.05 23.5 -8.05 23.0 -8.3 22.65 L-14.05 14.5 Q-9.05 10.65 -12.7 0.0" fill="#f5f7fc" fill-opacity="0.99607843" fill-rule="evenodd" stroke="none"/>
    <path d="M8.95 0.0 L9.95 0.0 Q9.8 2.55 9.95 4.8 L9.95 5.45 9.45 5.5 9.3 6.75 Q8.7 3.7 8.95 0.0" fill="#91a0d3" fill-opacity="0.90588236" fill-rule="evenodd" stroke="none"/>
    <path d="M10.95 19.5 L9.95 19.5 8.95 19.5 8.95 18.5 8.95 17.5 Q13.05 16.5 11.15 12.4 L11.05 12.1 11.5 11.5 11.95 11.5 Q12.45 11.5 12.5 11.65 13.95 17.0 10.95 18.5 L10.95 19.5" fill="#7586be" fill-opacity="0.83137256" fill-rule="evenodd" stroke="none"/>
    <path d="M8.95 18.5 L8.95 19.5 Q8.15 26.3 14.95 26.0 L14.95 26.5 14.85 27.45 Q13.1 33.9 8.95 29.5 L8.9 29.0 Q4.8 28.65 3.95 25.5 L3.9 24.5 Q3.75 21.7 2.95 19.5 L3.95 19.5 Q7.15 20.2 8.25 18.75 8.45 18.5 8.95 18.5" fill="#7485bc" fill-opacity="0.827451" fill-rule="evenodd" stroke="none"/>
    <path d="M9.95 19.5 Q9.95 21.0 10.4 22.35 L10.95 22.5 Q20.1 25.05 14.65 32.25 L13.95 32.5 13.95 31.5 Q16.7 30.75 15.5 26.65 L14.95 26.5 14.95 26.0 Q8.15 26.3 8.95 19.5 L9.95 19.5" fill="#1e2b54" fill-opacity="0.39607844" fill-rule="evenodd" stroke="none"/>
    <path d="M13.95 32.5 L12.95 32.5 8.95 32.5 8.95 31.5 8.95 29.5 Q13.1 33.9 14.85 27.45 L14.95 26.5 15.5 26.65 Q16.7 30.75 13.95 31.5 L13.95 32.5" fill="#40518a" fill-opacity="0.6313726" fill-rule="evenodd" stroke="none"/>
    <path d="M8.95 32.5 Q8.45 32.5 8.35 32.3 4.7 25.2 -0.05 28.5 L-0.1 27.5 -1.05 21.5 0.05 20.7 0.95 20.5 Q3.15 21.75 3.45 25.45 L3.95 25.5 Q4.8 28.65 8.9 29.0 L8.95 29.5 8.95 31.5 8.95 32.5" fill="#172245" fill-opacity="0.3254902" fill-rule="evenodd" stroke="none"/>
    <path d="M9.95 5.45 Q9.35 7.75 10.5 8.35 L11.55 8.55 11.95 8.5 12.95 8.45 12.75 9.35 11.9 10.85 11.5 11.5 11.05 12.1 Q8.55 15.0 6.95 10.45 8.75 9.4 9.3 6.75 L9.45 5.5 9.95 5.45" fill="#141e3e" fill-opacity="0.29803923" fill-rule="evenodd" stroke="none"/>
    <path d="M12.45 1.4 Q16.9 -3.0 16.45 6.45 L15.95 6.45 15.9 5.45 Q15.5 0.05 12.75 2.25 L11.1 3.95 10.0 5.4 9.95 5.45 9.95 4.8 9.95 4.45 11.05 3.0 12.45 1.4" fill="#131d3d" fill-opacity="0.2901961" fill-rule="evenodd" stroke="none"/>
    <path d="M15.95 6.45 L15.8 7.0 Q14.75 7.3 14.0 7.75 13.4 8.05 12.95 8.45 L11.95 8.5 11.55 8.55 10.5 8.35 Q9.35 7.75 9.95 5.45 L10.0 5.4 11.1 3.95 12.75 2.25 Q15.5 0.05 15.9 5.45 L15.95 6.45" fill="#2c3c6e" fill-opacity="0.50980395" fill-rule="evenodd" stroke="none"/>
    <path d="M-14.35 0.0 L-12.7 0.0 Q-9.05 10.65 -14.05 14.5 L-15.05 14.5 -15.05 13.5 -15.05 12.5 Q-11.05 11.05 -13.8 7.3 L-14.05 6.5 -14.0 5.5 Q-13.65 2.2 -14.35 0.0" fill="#7384bc" fill-opacity="0.827451" fill-rule="evenodd" stroke="none"/>
    <path d="M-15.05 14.5 L-14.05 14.5 -8.3 22.65 Q-8.05 23.0 -8.05 23.5 L-9.05 23.5 -10.05 23.5 -10.1 22.5 Q-10.35 20.3 -13.05 20.5 L-13.25 19.9 Q-15.8 18.75 -15.05 14.5" fill="#7c8dc3" fill-opacity="0.8509804" fill-rule="evenodd" stroke="none"/>
    <path d="M-7.05 37.5 L-7.95 37.7 -9.05 38.5 -10.05 38.5 -10.15 37.5 Q-10.85 33.85 -14.05 36.5 L-13.9 35.55 Q-13.15 33.45 -12.75 31.55 L-7.3 35.8 Q-7.05 36.0 -7.05 36.5 L-7.05 37.5 M-12.55 29.9 Q-12.0 24.45 -15.05 20.5 L-14.05 20.5 -13.05 20.5 Q-10.35 20.3 -10.1 22.5 L-10.05 23.5 -9.9 24.45 Q-8.75 28.05 -12.55 29.9" fill="#1a254b" fill-opacity="0.35686275" fill-rule="evenodd" stroke="none"/>
    <path d="M-15.05 20.5 Q-15.05 20.0 -15.25 19.9 -17.95 18.4 -17.05 13.5 L-15.95 12.7 -15.05 12.5 -15.05 13.5 -15.05 14.5 Q-15.8 18.75 -13.25 19.9 L-13.05 20.5 -14.05 20.5 -15.05 20.5" fill="#344479" fill-opacity="0.56078434" fill-rule="evenodd" stroke="none"/>
    <path d="M0.95 18.5 L0.4 18.4 Q0.1 16.9 -2.05 17.5 L-2.05 19.5 -2.05 20.5 -2.05 24.5 -2.05 25.5 -2.55 25.5 Q-2.15 18.6 -5.05 15.5 L-3.1 14.6 Q-0.8 13.85 0.3 15.85 L0.85 17.5 0.95 18.5" fill="#4a5d98" fill-opacity="0.69411767" fill-rule="evenodd" stroke="none"/>
    <path d="M2.95 19.5 L2.05 19.3 0.95 18.5 0.85 17.5 0.3 15.85 Q1.85 16.85 3.7 18.75 L3.95 19.5 2.95 19.5 M-3.1 14.6 L-5.05 15.5 Q-2.15 18.6 -2.55 25.5 L-2.05 25.5 -1.95 26.45 Q-1.4 28.65 -3.05 28.5 L-4.05 28.5 -3.8 27.65 Q-2.8 26.25 -8.05 27.5 L-8.05 26.5 -8.05 23.5 Q-7.1 14.5 -3.1 14.6" fill="#8696cb" fill-opacity="0.88235295" fill-rule="evenodd" stroke="none"/>
    <path d="M-2.05 20.5 L-2.05 19.5 -2.05 17.5 Q0.1 16.9 0.4 18.4 L0.95 18.5 2.05 19.3 2.95 19.5 Q3.75 21.7 3.9 24.5 L3.95 25.5 3.45 25.45 Q3.15 21.75 0.95 20.5 L0.85 19.95 Q-1.0 19.55 -2.05 20.5" fill="#3b4c85" fill-opacity="0.6117647" fill-rule="evenodd" stroke="none"/>
    <path d="M-0.05 28.5 Q-0.05 29.0 -0.3 29.25 L-1.05 29.5 -2.05 29.5 -3.05 29.5 -3.05 28.5 Q-1.4 28.65 -1.95 26.45 L-2.05 25.5 -2.05 24.5 -2.05 20.5 Q-1.0 19.55 0.85 19.95 L0.95 20.5 0.05 20.7 -1.05 21.5 -0.1 27.5 -0.05 28.5" fill="#293869" fill-opacity="0.49019608" fill-rule="evenodd" stroke="none"/>
    <path d="M-16.05 5.5 Q-16.05 5.0 -16.2 4.55 -17.35 1.5 -20.05 0.0 L-14.35 0.0 Q-13.65 2.2 -14.0 5.5 L-14.05 6.5 -14.95 6.3 -16.05 5.5" fill="#273667" fill-opacity="0.48235294" fill-rule="evenodd" stroke="none"/>
    <path d="M-17.05 13.5 L-17.05 12.5 -17.05 11.5 Q-13.6 9.9 -15.8 6.35 L-16.05 5.5 -14.95 6.3 -14.05 6.5 -13.8 7.3 Q-11.05 11.05 -15.05 12.5 L-15.95 12.7 -17.05 13.5" fill="#1f2b53" fill-opacity="0.3882353" fill-rule="evenodd" stroke="none"/>
    <path d="M-22.05 0.0 Q-13.6 5.35 -21.85 0.6 L-22.05 0.0" fill="#273562" fill-opacity="0.45490196" fill-rule="evenodd" stroke="none"/>
    <path d="M-9.05 38.5 L-9.25 39.4 Q-15.5 50.5 -15.05 36.5 L-14.05 36.5 Q-14.05 42.15 -10.3 39.2 -10.05 39.0 -10.05 38.5 L-9.05 38.5" fill="#151f41" fill-opacity="0.30980393" fill-rule="evenodd" stroke="none"/>
    <path d="M-1.05 29.5 L-1.15 30.5 Q-2.35 35.7 -7.05 37.5 L-7.05 36.5 Q-3.2 35.25 -3.95 31.5 L-4.05 30.5 -3.3 30.25 Q-3.05 30.0 -3.05 29.5 L-2.05 29.5 -1.05 29.5" fill="#111b39" fill-opacity="0.27058825" fill-rule="evenodd" stroke="none"/>
    <path d="M-3.05 28.5 L-3.05 29.5 Q-3.05 30.0 -3.3 30.25 L-4.05 30.5 Q-4.55 30.5 -4.75 30.75 -7.75 34.4 -10.05 29.5 -8.4 29.65 -8.55 27.5 L-8.05 27.5 Q-8.3 32.1 -4.3 29.15 -4.05 29.0 -4.05 28.5 L-3.05 28.5" fill="#5d6fab" fill-opacity="0.7647059" fill-rule="evenodd" stroke="none"/>
    <path d="M-4.05 28.5 Q-4.05 29.0 -4.3 29.15 -8.3 32.1 -8.05 27.5 -2.8 26.25 -3.8 27.65 L-4.05 28.5" fill="#acb9e1" fill-opacity="0.94509804" fill-rule="evenodd" stroke="none"/>
    <path d="M-12.75 31.55 L-14.05 30.5 -12.55 29.9 Q-8.75 28.05 -9.9 24.45 L-10.05 23.5 -9.05 23.5 -8.05 23.5 -8.05 26.5 -8.05 27.5 -8.55 27.5 Q-8.4 29.65 -10.05 29.5 -7.75 34.4 -4.75 30.75 -4.55 30.5 -4.05 30.5 L-3.95 31.5 Q-3.2 35.25 -7.05 36.5 -7.05 36.0 -7.3 35.8 L-12.75 31.55" fill="#314176" fill-opacity="0.54509807" fill-rule="evenodd" stroke="none"/>
    <path d="M-10.05 38.5 Q-10.05 39.0 -10.3 39.2 -14.05 42.15 -14.05 36.5 -10.85 33.85 -10.15 37.5 L-10.05 38.5" fill="#3f5089" fill-opacity="0.627451" fill-rule="evenodd" stroke="none"/>
  </g>
</svg>
