<?xml version="1.0" encoding="UTF-8" standalone="no"?>
<svg xmlns:ffdec="https://www.free-decompiler.com/flash" xmlns:xlink="http://www.w3.org/1999/xlink" ffdec:objectType="shape" height="46.55px" width="41.6px" xmlns="http://www.w3.org/2000/svg">
  <g transform="matrix(1.0, 0.0, 0.0, 1.0, 20.65, 0.0)">
    <path d="M11.95 0.0 L11.95 0.5 Q11.45 0.5 11.35 0.3 L11.25 0.0 11.95 0.0" fill="#2d3d71" fill-opacity="0.5254902" fill-rule="evenodd" stroke="none"/>
    <path d="M11.95 0.0 L20.95 0.0 20.85 0.45 Q18.05 12.55 14.05 21.6 L13.95 21.5 13.9 20.5 11.95 0.5 11.95 0.0 M10.4 28.75 L9.95 29.5 Q10.0 32.95 11.7 34.75 L11.95 35.5 10.95 35.5 Q10.95 35.0 10.7 34.85 8.2 33.25 7.95 29.5 L10.4 28.75" fill="#121b3a" fill-opacity="0.27450982" fill-rule="evenodd" stroke="none"/>
    <path d="M9.3 0.0 L11.25 0.0 11.35 0.3 Q11.45 0.5 11.95 0.5 L12.0 1.5 Q12.7 6.25 10.95 8.5 L9.95 8.5 9.95 7.5 Q10.0 3.4 9.3 0.0" fill="#8594c8" fill-opacity="0.8666667" fill-rule="evenodd" stroke="none"/>
    <path d="M11.95 0.5 L13.9 20.5 13.95 21.5 13.4 21.35 Q11.7 15.25 10.95 8.5 12.7 6.25 12.0 1.5 L11.95 0.5" fill="#334379" fill-opacity="0.56078434" fill-rule="evenodd" stroke="none"/>
    <path d="M-11.05 0.0 L9.3 0.0 Q10.0 3.4 9.95 7.5 L9.95 8.5 9.95 9.5 9.95 10.5 9.35 10.7 Q7.1 15.6 -3.05 12.5 L-3.05 13.5 Q-3.55 13.5 -3.75 13.75 -6.9 17.75 -12.05 16.5 -12.05 16.0 -12.3 15.75 -14.85 13.3 -14.05 7.5 -11.15 5.15 -11.05 0.0" fill="#fbfbfd" fill-opacity="0.99607843" fill-rule="evenodd" stroke="none"/>
    <path d="M13.95 21.5 L14.05 21.6 Q15.3 23.25 14.5 26.4 L13.95 26.5 13.75 25.6 12.9 24.05 Q10.05 19.9 4.95 24.5 4.05 27.9 6.95 27.55 L7.95 27.5 7.85 28.05 3.95 28.5 3.35 28.3 Q2.95 27.5 2.95 26.5 L3.45 26.45 Q3.95 20.05 -6.05 20.5 L-6.05 21.5 Q-6.05 22.0 -6.3 22.3 -8.9 25.15 -13.05 26.5 L-13.05 27.5 -14.05 27.55 Q-18.75 28.2 -18.05 23.5 -12.35 23.7 -12.55 18.5 L-13.05 18.5 -13.6 18.35 Q-14.5 15.95 -16.05 14.5 L-16.05 13.5 -16.05 7.5 -14.95 6.7 -14.05 6.5 -14.05 7.5 Q-14.85 13.3 -12.3 15.75 -12.05 16.0 -12.05 16.5 -6.0 23.2 -3.2 14.45 L-3.05 13.5 Q8.55 20.25 9.9 11.5 L9.95 10.5 9.95 9.5 9.95 8.5 10.95 8.5 Q11.7 15.25 13.4 21.35 L13.95 21.5" fill="#6173ad" fill-opacity="0.76862746" fill-rule="evenodd" stroke="none"/>
    <path d="M9.95 10.5 L9.9 11.5 Q8.55 20.25 -3.05 13.5 L-3.05 12.5 Q7.1 15.6 9.35 10.7 L9.95 10.5" fill="#9fadda" fill-opacity="0.92941177" fill-rule="evenodd" stroke="none"/>
    <path d="M13.95 26.5 L13.75 27.15 10.4 28.75 7.95 29.5 Q8.2 33.25 10.7 34.85 10.95 35.0 10.95 35.5 L10.1 35.25 Q7.5 33.5 5.95 34.5 L6.0 33.5 Q6.45 29.5 3.95 28.5 L7.85 28.05 7.95 27.5 7.95 26.5 11.65 26.5 12.95 26.5 13.95 26.5" fill="#3d4f87" fill-opacity="0.6156863" fill-rule="evenodd" stroke="none"/>
    <path d="M7.95 27.5 L6.95 27.55 Q4.05 27.9 4.95 24.5 10.05 19.9 12.9 24.05 L13.75 25.6 13.95 26.5 12.95 26.5 11.65 26.5 7.95 26.5 7.95 27.5" fill="#b1bce1" fill-opacity="0.94509804" fill-rule="evenodd" stroke="none"/>
    <path d="M5.95 34.5 Q7.5 33.5 10.1 35.25 L10.95 35.5 Q10.35 37.65 11.85 37.95 L11.95 38.5 10.95 38.45 Q6.95 38.0 5.95 34.5" fill="#485b96" fill-opacity="0.68235296" fill-rule="evenodd" stroke="none"/>
    <path d="M11.95 35.5 Q20.9 33.7 16.55 42.3 16.45 42.5 15.95 42.5 L16.1 41.55 Q19.25 33.95 12.95 40.5 L12.95 42.5 12.95 43.5 Q12.45 43.5 12.3 43.3 10.95 40.95 8.95 39.5 L11.8 39.05 11.95 38.5 11.85 37.95 Q10.35 37.65 10.95 35.5 L11.95 35.5" fill="#141e3e" fill-opacity="0.29411766" fill-rule="evenodd" stroke="none"/>
    <path d="M8.95 39.5 Q8.45 39.5 8.35 39.3 -0.5 21.8 -4.2 36.35 -5.55 36.6 -8.05 37.5 L-8.05 38.5 -9.05 38.5 -10.05 38.5 -10.05 41.5 -10.05 42.5 -10.6 42.35 Q-11.05 41.0 -11.05 39.5 -11.05 39.0 -10.85 38.85 -4.95 35.3 -18.05 28.5 L-13.15 28.0 -13.05 27.5 -13.05 26.5 Q-8.9 25.15 -6.3 22.3 -6.05 22.0 -6.05 21.5 0.2 23.4 2.7 25.75 L2.95 26.5 Q2.95 27.5 3.35 28.3 L3.95 28.5 Q6.45 29.5 6.0 33.5 L5.95 34.5 Q6.95 38.0 10.95 38.45 L11.95 38.5 11.8 39.05 8.95 39.5 M-12.05 30.5 L-12.05 31.0 Q1.35 30.65 -12.05 30.5" fill="#19254a" fill-opacity="0.34901962" fill-rule="evenodd" stroke="none"/>
    <path d="M15.95 42.5 L15.8 43.05 12.95 43.5 12.95 42.5 12.95 40.5 Q19.25 33.95 16.1 41.55 L15.95 42.5" fill="#2d3d70" fill-opacity="0.52156866" fill-rule="evenodd" stroke="none"/>
    <path d="M-12.3 0.0 L-11.05 0.0 Q-11.15 5.15 -14.05 7.5 L-14.05 6.5 -14.05 5.5 -14.05 4.5 -13.25 3.4 -13.05 2.5 -12.5 2.4 Q-12.15 1.0 -12.3 0.0" fill="#7688bf" fill-opacity="0.8392157" fill-rule="evenodd" stroke="none"/>
    <path d="M-16.05 14.5 L-16.55 14.5 Q-16.55 5.6 -20.65 0.0 L-14.75 0.0 Q-13.8 0.6 -13.25 1.6 L-13.05 2.5 -13.25 3.4 -14.05 4.5 -14.05 5.5 -14.05 6.5 -14.95 6.7 -16.05 7.5 -16.05 13.5 -16.05 14.5" fill="#121b39" fill-opacity="0.27058825" fill-rule="evenodd" stroke="none"/>
    <path d="M-14.75 0.0 L-12.3 0.0 Q-12.15 1.0 -12.5 2.4 L-13.05 2.5 -13.25 1.6 Q-13.8 0.6 -14.75 0.0" fill="#2c3c6f" fill-opacity="0.5176471" fill-rule="evenodd" stroke="none"/>
    <path d="M-18.05 28.5 Q-18.05 28.0 -18.3 27.75 -19.75 26.2 -19.05 22.5 -15.1 21.95 -13.3 19.35 L-13.05 18.5 -12.55 18.5 Q-12.35 23.7 -18.05 23.5 -18.75 28.2 -14.05 27.55 L-13.05 27.5 -13.15 28.0 -18.05 28.5" fill="#2e3e71" fill-opacity="0.52156866" fill-rule="evenodd" stroke="none"/>
    <path d="M-3.05 13.5 L-3.2 14.45 Q-6.0 23.2 -12.05 16.5 -6.9 17.75 -3.75 13.75 -3.55 13.5 -3.05 13.5" fill="#9dacda" fill-opacity="0.92941177" fill-rule="evenodd" stroke="none"/>
    <path d="M2.95 26.5 L2.7 25.75 Q0.2 23.4 -6.05 21.5 L-6.05 20.5 Q3.95 20.05 3.45 26.45 L2.95 26.5" fill="#394a82" fill-opacity="0.6" fill-rule="evenodd" stroke="none"/>
    <path d="M-12.05 30.5 Q1.35 30.65 -12.05 31.0 L-12.05 30.5" fill="#7485ba" fill-opacity="0.8156863" fill-rule="evenodd" stroke="none"/>
    <path d="M-4.2 36.35 Q-0.75 35.75 -4.8 39.75 L-4.95 40.0 -5.05 40.5 -5.95 40.7 -7.05 41.5 -6.8 40.7 Q-4.9 38.3 -8.05 38.5 L-8.05 37.5 Q-5.55 36.6 -4.2 36.35" fill="#384981" fill-opacity="0.5921569" fill-rule="evenodd" stroke="none"/>
    <path d="M-7.05 41.5 L-7.05 42.5 Q-7.55 42.5 -7.7 42.75 -9.05 44.85 -10.05 42.5 L-10.05 41.5 -10.05 38.5 -9.05 38.5 -8.05 38.5 Q-4.9 38.3 -6.8 40.7 L-7.05 41.5" fill="#465892" fill-opacity="0.6666667" fill-rule="evenodd" stroke="none"/>
    <path d="M-7.05 42.5 L-7.0 43.5 Q-6.65 51.2 -12.05 39.5 L-11.05 39.5 Q-11.05 41.0 -10.6 42.35 L-10.05 42.5 Q-9.05 44.85 -7.7 42.75 -7.55 42.5 -7.05 42.5" fill="#0f1733" fill-opacity="0.24313726" fill-rule="evenodd" stroke="none"/>
  </g>
</svg>
