<?xml version="1.0" encoding="UTF-8" standalone="no"?>
<svg xmlns:ffdec="https://www.free-decompiler.com/flash" xmlns:xlink="http://www.w3.org/1999/xlink" ffdec:objectType="shape" height="158.0px" width="168.0px" xmlns="http://www.w3.org/2000/svg">
  <g transform="matrix(1.0, 0.0, 0.0, 1.0, 84.0, 129.0)">
    <path d="M-20.0 -115.0 L-20.0 -125.0 20.0 -125.0 20.0 -115.0 20.0 -95.0 -20.0 -95.0 -20.0 -115.0 M60.0 -85.0 L80.0 -75.0 80.0 -45.0 60.0 -35.0 60.0 -75.0 60.0 -85.0 M20.0 18.35 L10.0 25.0 -10.0 25.0 -20.0 18.35 -40.0 5.0 -20.0 -45.0 -20.0 -75.0 20.0 -75.0 20.0 -45.0 40.0 5.0 20.0 18.35 M-60.0 -35.0 L-80.0 -45.0 -80.0 -75.0 -60.0 -85.0 -60.0 -75.0 -60.0 -35.0 M10.0 -55.0 L10.0 -65.0 -10.0 -65.0 -10.0 -55.0 -10.0 -25.0 10.0 -25.0 10.0 -55.0 M-20.0 -15.0 L20.0 -15.0 -20.0 -15.0 M-20.0 5.0 L20.0 5.0 -20.0 5.0 M-20.0 -5.0 L20.0 -5.0 -20.0 -5.0" fill="#d1df24" fill-rule="evenodd" stroke="none"/>
    <path d="M20.0 -115.0 L60.0 -95.0 60.0 -85.0 60.0 -75.0 20.0 -95.0 20.0 -115.0 M-60.0 -85.0 L-60.0 -95.0 -20.0 -115.0 -20.0 -95.0 -60.0 -75.0 -60.0 -85.0" fill="#808899" fill-rule="evenodd" stroke="none"/>
    <path d="M-10.0 -55.0 L-10.0 -65.0 10.0 -65.0 10.0 -55.0 -10.0 -55.0" fill="#ec5f00" fill-rule="evenodd" stroke="none"/>
    <path d="M60.0 -35.0 L60.0 5.0 44.2 15.55 40.0 5.0 20.0 -45.0 20.0 -75.0 -20.0 -75.0 -20.0 -45.0 -40.0 5.0 -44.2 15.55 -60.0 5.0 -60.0 -35.0 -60.0 -75.0 -20.0 -95.0 20.0 -95.0 60.0 -75.0 60.0 -35.0" fill="#687182" fill-rule="evenodd" stroke="none"/>
    <path d="M-10.0 -55.0 L10.0 -55.0 10.0 -25.0 -10.0 -25.0 -10.0 -55.0" fill="#ff6600" fill-rule="evenodd" stroke="none"/>
    <path d="M44.2 15.55 L30.0 25.0 20.0 18.35 40.0 5.0 44.2 15.55 M-20.0 18.35 L-30.0 25.0 -44.2 15.55 -40.0 5.0 -20.0 18.35" fill="#454b56" fill-rule="evenodd" stroke="none"/>
    <path d="M20.0 -5.0 L-20.0 -5.0 M20.0 5.0 L-20.0 5.0 M20.0 -15.0 L-20.0 -15.0" fill="none" stroke="#000000" stroke-linecap="square" stroke-linejoin="miter-clip" stroke-miterlimit="3.0" stroke-width="6.0"/>
    <path d="M-20.0 -115.0 L-20.0 -95.0 20.0 -95.0 20.0 -115.0 M10.0 -55.0 L10.0 -65.0 -10.0 -65.0 -10.0 -55.0 -10.0 -25.0 10.0 -25.0 10.0 -55.0 M40.0 5.0 L20.0 -45.0 20.0 -75.0 -20.0 -75.0 -20.0 -45.0 -40.0 5.0 -20.0 18.35 M-60.0 -85.0 L-60.0 -75.0 -60.0 -35.0 M40.0 5.0 L20.0 18.35" fill="none" stroke="#000000" stroke-linecap="square" stroke-linejoin="miter-clip" stroke-miterlimit="3.0" stroke-width="4.0"/>
    <path d="M-20.0 -115.0 L-20.0 -125.0 20.0 -125.0 20.0 -115.0 60.0 -95.0 60.0 -85.0" fill="none" stroke="#000000" stroke-linecap="square" stroke-linejoin="miter-clip" stroke-miterlimit="3.0" stroke-width="6.0"/>
    <path d="M60.0 -85.0 L80.0 -75.0 80.0 -45.0 60.0 -35.0 60.0 5.0 44.2 15.55 30.0 25.0 20.0 18.35 10.0 25.0 -10.0 25.0 -20.0 18.35 -30.0 25.0 -44.2 15.55 -60.0 5.0 -60.0 -35.0 -80.0 -45.0 -80.0 -75.0 -60.0 -85.0 -60.0 -95.0 -20.0 -115.0" fill="none" stroke="#000000" stroke-linecap="round" stroke-linejoin="miter-clip" stroke-miterlimit="3.0" stroke-width="6.0"/>
    <path d="M60.0 -85.0 L60.0 -75.0 60.0 -35.0" fill="none" stroke="#000000" stroke-linecap="round" stroke-linejoin="miter-clip" stroke-miterlimit="3.0" stroke-width="4.0"/>
  </g>
</svg>
