<?xml version="1.0" encoding="UTF-8" standalone="no"?>
<svg xmlns:ffdec="https://www.free-decompiler.com/flash" xmlns:xlink="http://www.w3.org/1999/xlink" ffdec:objectType="shape" height="158.0px" width="164.45px" xmlns="http://www.w3.org/2000/svg">
  <g transform="matrix(1.0, 0.0, 0.0, 1.0, 76.4, 129.0)">
    <path d="M4.85 25.0 L-10.15 25.0 -2.65 18.35 4.85 25.0 M-25.15 25.0 L-40.15 25.0 -32.65 18.35 -25.15 25.0" fill="#000000" fill-rule="evenodd" stroke="none"/>
    <path d="M-2.65 -115.0 L34.85 -115.0 64.45 -100.25 29.45 -100.25 -2.65 -115.0" fill="#d1d6d8" fill-rule="evenodd" stroke="none"/>
    <path d="M64.45 -100.25 L64.45 -80.25 29.45 -80.25 29.45 -100.25 64.45 -100.25" fill="#afb7be" fill-rule="evenodd" stroke="none"/>
    <path d="M64.45 -80.25 L64.45 12.0 51.45 25.0 29.45 3.0 29.45 -80.25 64.45 -80.25" fill="#949ca7" fill-rule="evenodd" stroke="none"/>
    <path d="M-56.9 -82.75 L-56.9 -95.0 -32.65 -115.0 -32.65 -95.0 -56.9 -75.0 -56.9 -82.75 M29.45 -100.25 L29.45 -80.25 -2.65 -95.0 -2.65 -115.0 29.45 -100.25" fill="#808899" fill-rule="evenodd" stroke="none"/>
    <path d="M-2.65 -125.0 L-2.65 -115.0 -2.65 -95.0 -32.65 -95.0 -32.65 -115.0 -32.65 -125.0 -2.65 -125.0 M-10.15 25.0 L-25.15 25.0 -32.65 18.35 -47.65 5.0 -32.65 -45.0 -32.65 -75.0 -2.65 -75.0 -2.65 -45.0 12.35 5.0 -2.65 18.35 -10.15 25.0 M-57.4 -37.5 L-72.4 -45.0 -72.4 -75.0 -56.9 -82.75 -56.9 -75.0 -56.9 -37.5 -57.4 -37.5 M-10.15 -55.0 L-10.15 -65.0 -25.15 -65.0 -25.15 -55.0 -25.15 -25.0 -10.15 -25.0 -10.15 -55.0 M-2.65 -15.0 L-32.65 -15.0 -2.65 -15.0 M-2.65 -5.0 L-32.65 -5.0 -2.65 -5.0 M-2.65 5.0 L-32.65 5.0 -2.65 5.0" fill="#d1df24" fill-rule="evenodd" stroke="none"/>
    <path d="M-2.65 -125.0 L14.85 -125.0 34.85 -115.0 -2.65 -115.0 -2.65 -125.0" fill="#b0af1c" fill-rule="evenodd" stroke="none"/>
    <path d="M-25.15 -55.0 L-25.15 -65.0 -10.15 -65.0 -10.15 -55.0 -25.15 -55.0" fill="#ec5f00" fill-rule="evenodd" stroke="none"/>
    <path d="M-50.8 15.55 L-56.9 5.5 -56.9 -37.25 -56.9 -37.5 -56.9 -75.0 -32.65 -95.0 -2.65 -95.0 29.45 -80.25 29.45 3.0 15.5 15.55 12.35 5.0 -2.65 -45.0 -2.65 -75.0 -32.65 -75.0 -32.65 -45.0 -47.65 5.0 -50.8 15.55" fill="#687182" fill-rule="evenodd" stroke="none"/>
    <path d="M-25.15 -55.0 L-10.15 -55.0 -10.15 -25.0 -25.15 -25.0 -25.15 -55.0" fill="#ff6600" fill-rule="evenodd" stroke="none"/>
    <path d="M51.45 25.0 L4.85 25.0 15.5 15.55 4.85 25.0 -2.65 18.35 12.35 5.0 15.5 15.55 29.45 3.0 51.45 25.0 M-40.15 25.0 L-50.8 15.55 -47.65 5.0 -32.65 18.35 -40.15 25.0" fill="#454b56" fill-rule="evenodd" stroke="none"/>
    <path d="M34.85 -115.0 L14.85 -125.0 -2.65 -125.0 -32.65 -125.0 -32.65 -115.0 -56.9 -95.0 -56.9 -82.75 -72.4 -75.0 -72.4 -45.0 -57.4 -37.5 -56.9 -37.25 -56.9 5.5 -50.8 15.55 -40.15 25.0 -25.15 25.0 -10.15 25.0 4.85 25.0 51.45 25.0 64.45 12.0 64.45 -80.25 64.45 -100.25 34.85 -115.0 M-32.65 -5.0 L-2.65 -5.0 M-32.65 -15.0 L-2.65 -15.0 M-32.65 5.0 L-2.65 5.0" fill="none" stroke="#000000" stroke-linecap="square" stroke-linejoin="miter-clip" stroke-miterlimit="3.0" stroke-width="6.0"/>
    <path d="M-2.65 -125.0 L-2.65 -115.0 34.85 -115.0 M29.45 -100.25 L64.45 -100.25 M29.45 -80.25 L29.45 3.0 51.45 25.0 M29.45 -100.25 L29.45 -80.25 M-2.65 -95.0 L-32.65 -95.0 -32.65 -115.0 M-56.9 -75.0 L-56.9 -37.5 -56.9 -37.25 M15.5 15.55 L4.85 25.0 -2.65 18.35 -10.15 25.0 M12.35 5.0 L-2.65 18.35 M29.45 3.0 L15.5 15.55 M-10.15 -55.0 L-10.15 -65.0 -25.15 -65.0 -25.15 -55.0 -25.15 -25.0 -10.15 -25.0 -10.15 -55.0 M-47.65 5.0 L-32.65 -45.0 -32.65 -75.0 -2.65 -75.0 -2.65 -45.0 12.35 5.0 M-56.9 -82.75 L-56.9 -75.0 M-2.65 -95.0 L-2.65 -115.0 29.45 -100.25 M-40.15 25.0 L-32.65 18.35 -47.65 5.0 M-25.15 25.0 L-32.65 18.35" fill="none" stroke="#000000" stroke-linecap="square" stroke-linejoin="miter-clip" stroke-miterlimit="3.0" stroke-width="4.0"/>
    <path d="M70.65 -40.65 L55.95 -50.4 55.95 -69.65 70.65 -79.3 85.4 -69.65 85.4 -50.4 70.65 -40.65" fill="#b0af1c" fill-rule="evenodd" stroke="none"/>
    <path d="M70.65 -79.3 L55.95 -69.65 55.95 -50.4 70.65 -40.65 58.05 -32.4 37.05 -46.25 37.05 -73.8 58.1 -87.6 70.65 -79.3" fill="#d1df24" fill-rule="evenodd" stroke="none"/>
    <path d="M70.65 -79.3 L55.95 -69.65 55.95 -50.4 70.65 -40.65 85.4 -50.4 85.4 -69.65 70.65 -79.3 58.1 -87.6 37.05 -73.8 37.05 -46.25 58.05 -32.4 70.65 -40.65" fill="none" stroke="#000000" stroke-linecap="round" stroke-linejoin="miter-clip" stroke-miterlimit="3.0" stroke-width="4.0"/>
  </g>
</svg>
