<?xml version="1.0" encoding="UTF-8" standalone="no"?>
<svg xmlns:ffdec="https://www.free-decompiler.com/flash" xmlns:xlink="http://www.w3.org/1999/xlink" ffdec:objectType="shape" height="60.0px" width="60.0px" xmlns="http://www.w3.org/2000/svg">
  <g transform="matrix(1.0, 0.0, 0.0, 1.0, 30.0, 30.0)">
    <path d="M4.45 -30.0 L24.0 -30.0 30.0 -24.0 30.0 0.35 29.45 0.45 10.85 6.8 -9.5 0.5 4.45 -30.0" fill="url(#gradient0)" fill-rule="evenodd" stroke="none"/>
    <path d="M-30.0 -5.8 L-30.0 -24.0 -24.0 -30.0 1.15 -30.0 -12.4 -0.4 -30.0 -5.8" fill="url(#gradient1)" fill-rule="evenodd" stroke="none"/>
    <path d="M30.0 3.5 L30.0 24.0 24.0 30.0 8.2 30.0 13.0 9.55 30.0 3.5" fill="url(#gradient2)" fill-rule="evenodd" stroke="none"/>
    <path d="M5.15 30.0 L-24.0 30.0 -30.0 24.0 -30.0 -2.7 9.2 9.4 5.2 29.7 5.2 29.65 5.15 30.0" fill="url(#gradient3)" fill-rule="evenodd" stroke="none"/>
    <path d="M1.15 -30.0 L4.45 -30.0 -9.5 0.5 10.85 6.8 29.45 0.45 30.0 0.35 30.0 3.5 13.0 9.55 8.2 30.0 5.15 30.0 5.2 29.65 5.2 29.7 9.2 9.4 -30.0 -2.7 -30.0 -5.8 -12.4 -0.4 1.15 -30.0" fill="#181f32" fill-rule="evenodd" stroke="none"/>
    <path d="M27.0 -1.9 L10.85 3.65 -5.35 -1.35 6.4 -27.0 27.0 -27.0 27.0 -1.9 M2.65 27.0 L-27.0 27.0 -27.0 1.4 5.7 11.45 2.65 27.0 M12.0 27.0 L15.55 11.85 27.0 7.75 27.0 27.0 12.0 27.0 M-27.0 -27.0 L-3.55 -27.0 -14.05 -4.05 -27.0 -8.05 -27.0 -27.0" fill="#ffffff" fill-opacity="0.2" fill-rule="evenodd" stroke="none"/>
  </g>
  <defs>
    <linearGradient gradientTransform="matrix(0.0, 0.0175, -0.0145, 0.0, 70.7, -6.0)" gradientUnits="userSpaceOnUse" id="gradient0" spreadMethod="pad" x1="-819.2" x2="819.2">
      <stop offset="0.0" stop-color="#88889e"/>
      <stop offset="1.0" stop-color="#414247"/>
    </linearGradient>
    <linearGradient gradientTransform="matrix(0.0014, -0.0196, 0.0132, 9.0E-4, 88.95, -15.5)" gradientUnits="userSpaceOnUse" id="gradient1" spreadMethod="pad" x1="-819.2" x2="819.2">
      <stop offset="0.0" stop-color="#a2a2bb"/>
      <stop offset="1.0" stop-color="#6a6b78"/>
    </linearGradient>
    <linearGradient gradientTransform="matrix(-0.0128, -0.0034, 0.0049, -0.0184, 22.1, 17.5)" gradientUnits="userSpaceOnUse" id="gradient2" spreadMethod="pad" x1="-819.2" x2="819.2">
      <stop offset="0.0" stop-color="#a2a2bb"/>
      <stop offset="1.0" stop-color="#4d4e55"/>
    </linearGradient>
    <linearGradient gradientTransform="matrix(-0.0239, 0.0, 0.0, -0.02, -10.4, 13.65)" gradientUnits="userSpaceOnUse" id="gradient3" spreadMethod="pad" x1="-819.2" x2="819.2">
      <stop offset="0.0" stop-color="#a2a2bb"/>
      <stop offset="1.0" stop-color="#6a6b78"/>
    </linearGradient>
  </defs>
</svg>
