<?xml version="1.0" encoding="UTF-8" standalone="no"?>
<svg xmlns:ffdec="https://www.free-decompiler.com/flash" xmlns:xlink="http://www.w3.org/1999/xlink" ffdec:objectType="shape" height="61.6px" width="60.2px" xmlns="http://www.w3.org/2000/svg">
  <g transform="matrix(1.0, 0.0, 0.0, 1.0, 30.2, 30.05)">
    <path d="M4.8 31.55 L-24.65 30.55 -30.15 25.05 -29.2 -2.35 9.55 11.1 4.85 31.25 4.85 31.2 4.8 31.55" fill="url(#gradient0)" fill-rule="evenodd" stroke="none"/>
    <path d="M-30.2 -6.0 L-29.85 -23.8 -23.6 -30.05 1.35 -29.6 -12.7 -0.25 -30.2 -6.0" fill="url(#gradient1)" fill-rule="evenodd" stroke="none"/>
    <path d="M3.95 -29.7 L23.95 -30.05 29.6 -24.4 30.0 0.2 29.45 0.3 11.0 6.95 -9.5 1.05 3.95 -29.7" fill="url(#gradient2)" fill-rule="evenodd" stroke="none"/>
    <path d="M30.0 3.5 L30.0 24.0 24.0 30.0 8.2 30.0 13.0 9.55 30.0 3.5" fill="url(#gradient3)" fill-rule="evenodd" stroke="none"/>
    <path d="M1.35 -29.6 L3.95 -29.7 -9.5 1.05 11.0 6.95 29.45 0.3 30.0 0.2 30.0 3.5 13.0 9.55 8.2 30.0 4.8 31.55 4.85 31.2 4.85 31.25 9.55 11.1 -29.2 -2.35 -30.2 -6.0 -12.7 -0.25 1.35 -29.6" fill="#181f32" fill-rule="evenodd" stroke="none"/>
    <path d="M26.95 -2.0 L10.9 3.8 -5.4 -0.9 5.9 -26.75 26.55 -27.1 26.95 -2.0 M2.4 28.5 L-27.25 27.45 -26.35 1.8 6.0 13.05 2.4 28.5 M27.0 7.75 L27.0 27.0 12.0 27.0 15.55 11.85 27.0 7.75 M-3.35 -26.7 L-14.3 -3.95 -27.15 -8.15 -26.8 -27.1 -3.35 -26.7" fill="#ffffff" fill-opacity="0.2" fill-rule="evenodd" stroke="none"/>
  </g>
  <defs>
    <linearGradient gradientTransform="matrix(-0.0244, 0.0, 0.0, -0.0207, -10.4, 14.6)" gradientUnits="userSpaceOnUse" id="gradient0" spreadMethod="pad" x1="-819.2" x2="819.2">
      <stop offset="0.0" stop-color="#a2a2bb"/>
      <stop offset="1.0" stop-color="#6a6b78"/>
    </linearGradient>
    <linearGradient gradientTransform="matrix(0.0013, -0.0184, 0.0189, 0.0013, -15.2, -15.6)" gradientUnits="userSpaceOnUse" id="gradient1" spreadMethod="pad" x1="-819.2" x2="819.2">
      <stop offset="0.0" stop-color="#a2a2bb"/>
      <stop offset="1.0" stop-color="#6a6b78"/>
    </linearGradient>
    <linearGradient gradientTransform="matrix(0.0, 0.0226, -0.0241, 0.0, 10.25, -11.6)" gradientUnits="userSpaceOnUse" id="gradient2" spreadMethod="pad" x1="-819.2" x2="819.2">
      <stop offset="0.0" stop-color="#88889e"/>
      <stop offset="1.0" stop-color="#414247"/>
    </linearGradient>
    <linearGradient gradientTransform="matrix(-0.0128, -0.0034, 0.0049, -0.0184, 22.1, 17.55)" gradientUnits="userSpaceOnUse" id="gradient3" spreadMethod="pad" x1="-819.2" x2="819.2">
      <stop offset="0.0" stop-color="#a2a2bb"/>
      <stop offset="1.0" stop-color="#4d4e55"/>
    </linearGradient>
  </defs>
</svg>
