<?xml version="1.0" encoding="UTF-8" standalone="no"?>
<svg xmlns:ffdec="https://www.free-decompiler.com/flash" xmlns:xlink="http://www.w3.org/1999/xlink" ffdec:objectType="shape" height="59.95px" width="55.5px" xmlns="http://www.w3.org/2000/svg">
  <g transform="matrix(1.0, 0.0, 0.0, 1.0, 28.85, 20.1)">
    <path d="M-26.85 -14.2 L-20.95 -19.25 -1.4 -16.85 -15.05 5.35 -28.5 -0.7 -26.85 -14.2" fill="url(#gradient0)" fill-rule="evenodd" stroke="none"/>
    <path d="M20.05 -17.05 L26.65 1.1 26.25 1.35 14.05 11.2 14.0 11.2 -3.0 12.05 -0.85 -14.7 13.9 -20.1 Q16.95 -18.6 20.05 -17.05" fill="url(#gradient1)" fill-rule="evenodd" stroke="none"/>
    <path d="M-25.5 33.95 L-28.85 26.4 -23.75 7.3 4.0 24.75 -3.3 39.65 -3.25 39.6 -3.4 39.85 -25.5 33.95" fill="url(#gradient2)" fill-rule="evenodd" stroke="none"/>
    <path d="M2.95 35.55 L9.05 19.9 23.2 16.95 20.95 32.95 14.45 37.15 2.95 35.55" fill="url(#gradient3)" fill-rule="evenodd" stroke="none"/>
    <path d="M16.55 -17.85 L23.1 0.05 12.95 8.25 0.25 8.85 2.0 -12.55 16.55 -17.85 M11.25 22.5 L19.6 20.75 17.7 34.55 7.1 33.1 11.25 22.5 M-23.55 -16.55 L-6.4 -14.45 -16.25 1.55 -25.25 -2.5 -23.55 -16.55 M-21.9 12.05 L0.1 25.85 -5.0 36.3 -26.85 30.45 -21.9 12.05" fill="#ffffff" fill-opacity="0.2" fill-rule="evenodd" stroke="none"/>
  </g>
  <defs>
    <linearGradient gradientTransform="matrix(0.0, -0.0149, 0.0195, 0.0, -13.45, -8.7)" gradientUnits="userSpaceOnUse" id="gradient0" spreadMethod="pad" x1="-819.2" x2="819.2">
      <stop offset="0.0" stop-color="#a2a2bb"/>
      <stop offset="1.0" stop-color="#6a6b78"/>
    </linearGradient>
    <linearGradient gradientTransform="matrix(0.0031, 0.0198, -0.0238, 0.0037, 9.55, -1.8)" gradientUnits="userSpaceOnUse" id="gradient1" spreadMethod="pad" x1="-819.2" x2="819.2">
      <stop offset="0.0" stop-color="#88889e"/>
      <stop offset="1.0" stop-color="#414247"/>
    </linearGradient>
    <linearGradient gradientTransform="matrix(-0.0206, -0.0079, 0.007, -0.0183, -12.6, 30.7)" gradientUnits="userSpaceOnUse" id="gradient2" spreadMethod="pad" x1="-819.2" x2="819.2">
      <stop offset="0.0" stop-color="#a2a2bb"/>
      <stop offset="1.0" stop-color="#6a6b78"/>
    </linearGradient>
    <linearGradient gradientTransform="matrix(0.0103, 0.0, 0.0, 0.0162, 21.05, 28.3)" gradientUnits="userSpaceOnUse" id="gradient3" spreadMethod="pad" x1="-819.2" x2="819.2">
      <stop offset="0.0" stop-color="#a2a2bb"/>
      <stop offset="1.0" stop-color="#4d4e55"/>
    </linearGradient>
  </defs>
</svg>
