<?xml version="1.0" encoding="UTF-8" standalone="no"?>
<svg xmlns:ffdec="https://www.free-decompiler.com/flash" xmlns:xlink="http://www.w3.org/1999/xlink" ffdec:objectType="shape" height="29.35px" width="23.1px" xmlns="http://www.w3.org/2000/svg">
  <g transform="matrix(1.0, 0.0, 0.0, 1.0, 4.25, 15.2)">
    <path d="M7.15 -6.85 L3.5 -5.9 7.45 -5.8 7.6 -5.15 4.3 -3.15 7.9 -4.1 8.05 -3.45 3.7 -2.3 3.45 -3.25 6.75 -5.3 2.85 -5.45 2.6 -6.4 6.95 -7.55 7.15 -6.85 M6.2 -1.8 Q5.5 -1.6 5.15 -1.15 4.7 -0.65 4.9 0.0 5.05 0.65 5.7 0.9 L6.95 0.95 Q7.6 0.75 7.95 0.3 8.35 -0.25 8.2 -0.9 8.0 -1.5 7.4 -1.75 L6.2 -1.8 M8.8 -1.05 Q9.05 -0.1 8.55 0.65 L7.1 1.6 5.35 1.5 Q4.5 1.1 4.25 0.15 4.0 -0.75 4.5 -1.55 5.0 -2.25 5.95 -2.45 L7.7 -2.4 Q8.55 -2.0 8.8 -1.05 M10.5 5.6 L6.15 6.75 5.9 5.85 9.15 3.8 5.3 3.6 5.05 2.65 9.4 1.5 9.55 2.2 5.95 3.15 9.85 3.3 10.0 3.9 6.7 5.95 10.3 4.95 10.5 5.6" fill="#660033" fill-rule="evenodd" stroke="none"/>
    <path d="M7.0 10.35 L8.8 9.35 7.0 10.35 Q10.25 7.35 9.95 7.95 L8.8 9.35 Q8.0 10.0 6.95 10.35 L7.0 10.35" fill="#a95618" fill-rule="evenodd" stroke="none"/>
    <path d="M0.1 -9.45 L1.15 -9.85 1.7 -9.95 1.9 -10.0 5.35 -9.85 Q11.9 -8.35 17.55 -3.15 16.1 2.35 11.5 6.95 L11.5 7.0 8.8 9.35 7.0 10.35 6.95 10.35 6.6 10.5 Q4.35 11.05 2.4 9.95 0.4 8.8 -0.15 6.6 -0.75 4.35 0.4 2.4 0.9 1.55 1.6 0.95 L-0.2 0.3 Q-2.15 -0.9 -2.75 -3.1 -3.35 -5.3 -2.2 -7.25 -1.35 -8.75 0.1 -9.45" fill="none" stroke="#660033" stroke-linecap="square" stroke-linejoin="miter-clip" stroke-miterlimit="3.0" stroke-width="2.0"/>
    <path d="M11.5 6.95 L12.7 8.55 16.95 8.55 M12.7 8.55 L12.7 8.6 13.4 9.55 13.9 10.15 17.15 10.15 M11.5 7.0 L12.7 8.55 M13.4 9.55 L13.85 10.15 13.9 10.15 M0.1 -9.45 L-2.75 -13.75 -2.75 -10.5 M13.85 13.5 L13.85 10.15 M12.65 13.2 L12.7 8.6 M0.0 -13.75 L-2.75 -13.75" fill="none" stroke="#660033" stroke-linecap="square" stroke-linejoin="miter-clip" stroke-miterlimit="3.0" stroke-width="1.0"/>
  </g>
</svg>
