<?xml version="1.0" encoding="UTF-8" standalone="no"?>
<svg xmlns:ffdec="https://www.free-decompiler.com/flash" xmlns:xlink="http://www.w3.org/1999/xlink" ffdec:objectType="shape" height="206.7px" width="218.9px" xmlns="http://www.w3.org/2000/svg">
  <g transform="matrix(1.0, 0.0, 0.0, 1.0, 109.5, 103.35)">
    <path d="M98.75 -0.3 L89.95 2.25 89.95 2.7 Q89.95 39.95 63.55 66.3 37.2 92.7 -0.05 92.7 -37.3 92.7 -63.7 66.3 -90.05 39.95 -90.05 2.7 L-90.05 2.3 -98.85 -0.25 Q-96.7 -37.05 -70.05 -63.7 -41.05 -92.7 -0.05 -92.7 40.95 -92.7 69.9 -63.7 96.6 -37.05 98.75 -0.3 Z" fill="none" stroke="#dfe47c" stroke-linecap="square" stroke-linejoin="miter-clip" stroke-miterlimit="1.0" stroke-width="16.0"/>
    <path d="M3.35 92.65 L-0.05 92.7 Q-37.3 92.7 -63.7 66.3 -90.05 39.95 -90.05 2.7 L-90.05 2.3 -98.85 -0.25 Q-96.7 -37.05 -70.05 -63.7 -41.05 -92.7 -0.05 -92.7 40.95 -92.7 69.9 -63.7 96.6 -37.05 98.75 -0.3 L89.95 2.25 89.95 2.7 Q89.95 33.75 71.65 57.2 L64.45 58.05 Q39.1 58.05 29.75 63.45 25.8 65.7 21.9 70.3 L13.95 79.95 Q6.5 88.55 3.35 92.65 M-42.05 16.0 L-90.05 2.3 -42.05 16.0 M41.95 15.95 L89.95 2.25 41.95 15.95" fill="#afb57d" fill-rule="evenodd" stroke="none"/>
    <path d="M71.65 57.2 L71.25 57.7 67.0 62.75 63.55 66.3 Q40.9 89.0 10.25 92.2 L3.35 92.65 Q6.5 88.55 13.95 79.95 L21.9 70.3 Q25.8 65.7 29.75 63.45 39.1 58.05 64.45 58.05 L71.65 57.2 M18.9 80.7 L19.0 82.0 20.55 82.55 Q21.6 82.55 29.75 75.15 33.05 72.1 38.45 69.8 41.85 68.35 41.85 66.0 42.35 63.95 39.8 63.95 29.9 63.95 18.9 80.7" fill="#eae193" fill-rule="evenodd" stroke="none"/>
    <path d="M18.9 80.7 Q29.9 63.95 39.8 63.95 42.35 63.95 41.85 66.0 41.85 68.35 38.45 69.8 33.05 72.1 29.75 75.15 21.6 82.55 20.55 82.55 L19.0 82.0 18.9 80.7" fill="#ffffff" fill-rule="evenodd" stroke="none"/>
    <path d="M3.35 92.65 L-0.05 92.7 Q-37.3 92.7 -63.7 66.3 -90.05 39.95 -90.05 2.7 L-90.05 2.3 -98.85 -0.25 Q-96.7 -37.05 -70.05 -63.7 -41.05 -92.7 -0.05 -92.7 40.95 -92.7 69.9 -63.7 96.6 -37.05 98.75 -0.3 L89.95 2.25 89.95 2.7 Q89.95 33.75 71.65 57.2 L71.25 57.7 67.0 62.75 63.55 66.3 Q40.9 89.0 10.25 92.2 L3.35 92.65 M89.95 2.25 L41.95 15.95 M-90.05 2.3 L-42.05 16.0" fill="none" stroke="#525632" stroke-linecap="square" stroke-linejoin="miter-clip" stroke-miterlimit="1.0" stroke-width="6.0"/>
    <path d="M-52.05 -39.7 Q-52.65 -41.3 -54.25 -41.4 -56.65 -41.7 -59.05 -35.2 -60.0 -31.8 -56.75 -31.45 -55.95 -31.4 -53.8 -34.7 L-51.85 -38.05 Q-51.75 -38.8 -52.05 -39.7 M-48.55 -38.6 Q-51.95 -20.65 -52.65 -13.45 -53.4 -6.6 -58.75 -7.1 -61.3 -7.4 -62.5 -9.4 -64.35 -12.55 -63.35 -19.6 -60.45 -45.3 -53.35 -44.5 -49.0 -44.1 -48.55 -40.45 -48.4 -39.6 -48.55 -38.6 M-46.6 31.55 Q-43.95 40.15 -43.95 42.2 -43.95 43.9 -45.25 45.55 -46.8 47.6 -49.3 47.6 -52.15 47.6 -54.05 44.4 -55.55 42.0 -56.5 37.85 L-57.85 27.8 Q-57.85 21.35 -52.55 21.35 -50.7 21.35 -48.6 26.1 -47.65 28.3 -46.6 31.55 M-50.8 26.4 Q-51.55 25.15 -53.1 25.15 -55.65 25.15 -55.65 27.8 -55.9 30.5 -53.1 30.5 -50.4 30.5 -50.4 27.8 -50.4 27.1 -50.8 26.4 M-43.45 63.8 Q-43.45 58.25 -38.1 58.25 -35.05 58.25 -32.5 63.6 L-32.2 64.25 Q-31.2 66.6 -30.6 69.0 -30.6 70.75 -31.95 72.35 -33.55 74.3 -35.95 74.3 -39.0 74.3 -40.9 71.2 -42.6 68.6 -43.45 63.8 M-39.1 65.75 Q-36.45 65.75 -36.45 63.05 -36.45 62.4 -36.9 61.7 -37.55 60.4 -39.1 60.4 -41.8 60.4 -41.8 63.05 -42.0 65.75 -39.1 65.75" fill="#eae193" fill-rule="evenodd" stroke="none"/>
    <path d="M-52.05 -39.7 Q-51.75 -38.8 -51.85 -38.05 L-53.8 -34.7 Q-55.95 -31.4 -56.75 -31.45 -60.0 -31.8 -59.05 -35.2 -56.65 -41.7 -54.25 -41.4 -52.65 -41.3 -52.05 -39.7 M-50.8 26.4 Q-50.4 27.1 -50.4 27.8 -50.4 30.5 -53.1 30.5 -55.9 30.5 -55.65 27.8 -55.65 25.15 -53.1 25.15 -51.55 25.15 -50.8 26.4 M-39.1 65.75 Q-42.0 65.75 -41.8 63.05 -41.8 60.4 -39.1 60.4 -37.55 60.4 -36.9 61.7 -36.45 62.4 -36.45 63.05 -36.45 65.75 -39.1 65.75" fill="#ffffff" fill-rule="evenodd" stroke="none"/>
    <path d="M39.65 -16.0 Q39.25 -17.1 37.6 -17.6 L34.0 -17.7 Q32.0 -17.3 30.95 -16.3 29.85 -15.3 30.25 -14.2 30.65 -13.1 32.3 -12.6 L35.95 -12.45 Q37.9 -12.85 38.95 -13.9 40.05 -14.9 39.65 -16.0 M26.6 -15.2 Q27.75 -19.7 34.1 -21.4 L42.75 -21.65 Q46.8 -20.3 51.2 -17.25 54.4 -15.05 55.75 -13.55 56.55 -12.7 56.65 -11.7 L56.65 -10.8 Q56.65 -9.35 50.65 -5.1 45.5 -1.5 43.35 -1.0 L42.55 0.65 Q41.05 4.05 35.4 5.3 26.95 6.35 24.5 1.85 23.9 0.8 24.0 -0.55 24.2 -5.6 26.6 -15.2 M17.0 37.05 L17.45 36.3 Q18.5 31.85 24.7 29.2 26.1 28.55 27.9 28.3 35.6 27.65 36.6 32.1 37.35 35.95 35.1 40.05 32.7 44.25 25.45 45.0 22.25 45.1 20.0 44.15 14.65 41.8 16.65 37.55 L17.0 37.05 M33.85 31.85 Q33.4 30.75 31.8 30.3 L28.15 30.2 Q26.2 30.55 25.15 31.6 24.05 32.6 24.45 33.7 24.85 34.8 26.5 35.3 L30.1 35.4 Q32.05 35.0 33.15 34.0 34.2 32.95 33.85 31.85" fill="#eae193" fill-rule="evenodd" stroke="none"/>
    <path d="M39.65 -16.0 Q40.05 -14.9 38.95 -13.9 37.9 -12.85 35.95 -12.45 L32.3 -12.6 Q30.65 -13.1 30.25 -14.2 29.85 -15.3 30.95 -16.3 32.0 -17.3 34.0 -17.7 L37.6 -17.6 Q39.25 -17.1 39.65 -16.0 M33.85 31.85 Q34.2 32.95 33.15 34.0 32.05 35.0 30.1 35.4 L26.5 35.3 Q24.85 34.8 24.45 33.7 24.05 32.6 25.15 31.6 26.2 30.55 28.15 30.2 L31.8 30.3 Q33.4 30.75 33.85 31.85" fill="#ffffff" fill-rule="evenodd" stroke="none"/>
  </g>
</svg>
