<?xml version="1.0" encoding="UTF-8" standalone="no"?>
<svg xmlns:ffdec="https://www.free-decompiler.com/flash" xmlns:xlink="http://www.w3.org/1999/xlink" ffdec:objectType="shape" height="80.0px" width="180.0px" xmlns="http://www.w3.org/2000/svg">
  <g transform="matrix(1.0, 0.0, 0.0, 1.0, 85.0, 40.0)">
    <path d="M-65.0 0.0 L-85.0 20.0 -85.0 -20.0 -65.0 0.0 M-85.0 -40.0 L-65.0 -40.0 -25.0 0.0 -65.0 40.0 -85.0 40.0 -45.0 0.0 -85.0 -40.0 M-45.0 -40.0 L-25.0 -40.0 15.0 0.0 -25.0 40.0 -45.0 40.0 -5.0 0.0 -45.0 -40.0 M55.0 0.0 L15.0 40.0 -5.0 40.0 35.0 0.0 -5.0 -40.0 15.0 -40.0 55.0 0.0 M35.0 -40.0 L55.0 -40.0 95.0 0.0 55.0 40.0 35.0 40.0 75.0 0.0 35.0 -40.0" fill="#0066ff" fill-rule="evenodd" stroke="none"/>
  </g>
</svg>
