<?xml version="1.0" encoding="UTF-8" standalone="no"?>
<svg xmlns:ffdec="https://www.free-decompiler.com/flash" xmlns:xlink="http://www.w3.org/1999/xlink" ffdec:objectType="shape" height="88.05px" width="177.9px" xmlns="http://www.w3.org/2000/svg">
  <g transform="matrix(1.0, 0.0, 0.0, 1.0, 82.9, 44.95)">
    <path d="M5.1 -36.95 L5.1 -28.95 21.1 -28.95 21.1 -4.95 -2.9 -4.95 -2.9 -12.95 13.1 -12.95 13.1 -20.95 -2.9 -20.95 -2.9 -44.95 21.1 -44.95 21.1 -36.95 5.1 -36.95 M13.1 19.1 L13.1 3.1 21.1 3.1 21.1 27.1 13.1 27.1 13.1 43.1 5.1 43.1 5.1 27.1 -2.9 27.1 -2.9 3.1 5.1 3.1 5.1 19.1 13.1 19.1 M-82.9 -44.95 L-58.9 -44.95 -58.9 -36.95 -66.9 -36.95 -66.9 -4.95 -74.9 -4.95 -74.9 -36.95 -82.9 -36.95 -82.9 -44.95 M-42.9 -28.95 L-34.9 -28.95 -34.9 -44.95 -26.9 -44.95 -26.9 -4.95 -34.9 -4.95 -34.9 -20.95 -42.9 -20.95 -42.9 -4.95 -50.9 -4.95 -50.9 -44.95 -42.9 -44.95 -42.9 -28.95 M-10.9 -44.95 L-10.9 -4.95 -18.9 -4.95 -18.9 -44.95 -10.9 -44.95 M-18.9 11.1 L-26.9 11.1 -26.9 19.1 -18.9 19.1 -18.9 11.1 M-26.9 43.1 L-34.9 43.1 -34.9 3.1 -10.9 3.1 -10.9 43.1 -18.9 43.1 -18.9 27.1 -26.9 27.1 -26.9 43.1 M-42.9 3.1 L-42.9 43.1 -82.9 43.1 -82.9 3.1 -74.9 3.1 -74.9 35.1 -66.9 35.1 -66.9 3.1 -58.9 3.1 -58.9 35.1 -50.9 35.1 -50.9 3.1 -42.9 3.1" fill="#0066ff" fill-rule="evenodd" stroke="none"/>
    <path d="M55.0 0.0 L35.0 20.0 35.0 -20.0 55.0 0.0 M35.0 -40.0 L55.0 -40.0 95.0 0.0 55.0 40.0 35.0 40.0 75.0 0.0 35.0 -40.0" fill="#0066ff" fill-rule="evenodd" stroke="none"/>
  </g>
</svg>
