<?xml version="1.0" encoding="UTF-8" standalone="no"?>
<svg xmlns:ffdec="https://www.free-decompiler.com/flash" xmlns:xlink="http://www.w3.org/1999/xlink" ffdec:objectType="shape" height="82.2px" width="193.35px" xmlns="http://www.w3.org/2000/svg">
  <g transform="matrix(1.0, 0.0, 0.0, 1.0, 96.85, 41.55)">
    <path d="M16.65 -29.0 L4.5 -25.05 -0.25 -23.6 -4.8 -22.3 -8.5 -21.45 -10.95 -21.1 Q-12.6 -21.1 -13.8 -21.75 -15.05 -22.35 -15.75 -23.4 -16.45 -24.5 -16.6 -25.95 -16.75 -27.4 -16.2 -29.0 -15.6 -30.65 -14.5 -32.1 L-11.95 -34.65 Q-10.5 -35.7 -8.85 -36.3 L-5.55 -36.95 -3.35 -36.6 -0.25 -35.7 3.4 -34.4 7.2 -32.95 16.65 -29.0 M35.95 -0.4 Q35.7 1.7 34.2 6.05 L32.8 10.1 Q31.35 14.6 29.7 16.65 28.05 18.7 25.25 19.75 22.4 20.85 18.45 20.85 L15.2 20.85 8.8 39.65 -3.35 39.65 12.5 -7.0 24.75 -7.0 Q29.7 -7.0 32.1 -6.2 34.5 -5.45 35.35 -3.95 36.15 -2.5 35.95 -0.4 M73.85 -31.35 Q79.2 -29.65 83.2 -25.65 87.15 -21.65 88.9 -16.3 L84.7 -12.1 Q83.85 -18.15 79.75 -22.2 75.7 -26.3 69.65 -27.15 L73.85 -31.35 M56.3 -35.15 Q51.15 -33.0 47.3 -29.15 43.4 -25.25 41.3 -20.15 L37.65 -23.7 Q40.05 -28.8 43.8 -32.65 47.55 -36.45 52.45 -38.95 L56.3 -35.15 M60.1 -31.25 L64.25 -27.15 Q58.3 -26.3 54.15 -22.2 50.05 -18.05 49.2 -12.1 L45.1 -16.3 Q46.8 -21.65 50.75 -25.65 54.7 -29.65 60.1 -31.25 M48.75 -6.65 Q52.2 -7.95 56.15 -7.95 59.9 -7.95 62.45 -6.75 65.0 -5.5 66.0 -3.05 67.0 -0.6 66.35 2.25 65.7 5.15 63.25 12.35 L60.55 20.3 56.85 30.3 Q55.5 33.2 52.95 35.6 50.4 38.05 47.0 39.35 43.55 40.65 39.6 40.65 35.85 40.65 33.3 39.4 30.75 38.2 29.75 35.75 28.8 33.3 29.4 30.4 30.05 27.5 32.5 20.3 L35.2 12.35 Q37.6 5.3 38.9 2.4 40.25 -0.55 42.8 -2.95 45.35 -5.4 48.75 -6.65 M86.65 -29.15 Q82.8 -33.0 77.7 -35.25 L81.45 -38.95 Q91.45 -33.9 96.5 -23.9 L92.8 -20.15 Q90.45 -25.25 86.65 -29.15 M88.8 -2.6 Q87.15 2.9 83.2 6.8 79.2 10.75 73.85 12.45 L69.65 8.35 Q75.6 7.5 79.7 3.35 83.85 -0.75 84.7 -6.7 L88.8 -2.6 M90.15 13.75 Q86.35 17.5 81.25 19.85 L77.6 16.25 Q82.7 14.0 86.6 10.25 90.45 6.45 92.7 1.25 L96.5 5.1 Q94.0 10.0 90.15 13.75 M54.7 0.85 Q54.65 -0.1 53.5 -0.1 52.55 -0.1 51.8 0.65 51.05 1.4 49.85 5.0 L42.45 26.75 Q41.05 30.85 41.05 31.8 41.1 32.75 42.3 32.75 43.55 32.75 44.2 31.65 44.95 30.55 46.35 26.45 L53.65 5.0 Q54.75 1.75 54.7 0.85 M24.5 4.8 Q25.3 2.45 24.8 1.7 24.3 1.0 21.95 1.0 L17.9 12.85 18.8 12.9 Q20.45 12.9 21.4 12.1 22.3 11.25 23.2 8.65 L24.5 4.8 M-84.6 -41.55 L-78.9 -41.15 Q-77.5 -40.75 -77.05 -39.85 -76.55 -38.9 -76.7 -37.8 -76.9 -36.7 -78.0 -33.45 L-80.75 -25.4 Q-81.8 -22.3 -82.45 -21.3 -83.1 -20.25 -84.0 -19.65 -84.9 -19.05 -86.05 -18.85 L-89.35 -18.6 -96.85 -18.6 -89.05 -41.55 -84.6 -41.55 M-84.45 -37.6 L-89.55 -22.5 Q-88.3 -22.5 -87.8 -23.05 -87.35 -23.55 -86.55 -25.85 L-83.5 -34.75 -82.95 -36.75 Q-82.9 -37.2 -83.2 -37.4 L-84.45 -37.6 M-44.1 -41.55 L-44.25 -31.2 -40.75 -41.55 -35.75 -41.55 -43.55 -18.6 -48.8 -18.6 -48.35 -29.0 -51.9 -18.6 -56.85 -18.6 -49.05 -41.55 -44.1 -41.55 M-51.45 -41.55 L-59.25 -18.6 -65.2 -18.6 -57.4 -41.55 -51.45 -41.55 M-61.35 -39.55 Q-60.85 -38.2 -61.85 -35.25 -62.75 -32.6 -63.7 -31.65 -64.7 -30.75 -66.7 -30.55 -65.1 -30.15 -64.75 -29.4 -64.4 -28.65 -64.45 -28.05 -64.5 -27.4 -65.45 -24.65 L-67.5 -18.6 -73.05 -18.6 -70.45 -26.2 Q-69.8 -28.05 -69.95 -28.5 -70.1 -28.95 -71.35 -28.95 L-74.85 -18.6 -80.8 -18.6 -73.0 -41.55 -68.8 -41.55 -63.2 -41.2 Q-61.8 -40.85 -61.35 -39.55 M-68.4 -37.6 L-70.1 -32.5 -68.6 -32.75 Q-68.1 -33.05 -67.6 -34.55 L-67.15 -35.85 Q-66.8 -36.9 -67.1 -37.25 -67.35 -37.6 -68.4 -37.6 M-54.5 -7.0 L-57.65 2.35 -76.2 30.3 -67.2 30.3 -70.35 39.65 -92.7 39.65 -90.4 32.9 -70.7 2.35 -82.95 2.35 -79.75 -7.0 -54.5 -7.0 M-24.75 -41.55 L-19.15 -41.55 -26.1 -31.15 -26.6 -18.6 -32.8 -18.6 -31.85 -28.45 -35.2 -18.6 -41.15 -18.6 -33.35 -41.55 -27.4 -41.55 -30.45 -32.6 -24.75 -41.55 M-9.3 -7.0 L-9.65 14.0 -2.5 -7.0 7.65 -7.0 -8.2 39.65 -18.85 39.65 -17.95 18.45 -25.15 39.65 -35.3 39.65 -19.45 -7.0 -9.3 -7.0 M-29.4 -7.0 L-38.3 39.65 -50.75 39.65 -48.5 31.25 -52.85 31.25 -56.45 39.65 -68.95 39.65 -46.95 -7.0 -29.4 -7.0 M-46.05 23.0 L-41.2 3.4 Q-47.6 16.8 -50.2 23.0 L-46.05 23.0" fill="#9900ff" fill-rule="evenodd" stroke="none"/>
  </g>
</svg>
