<?xml version="1.0" encoding="UTF-8" standalone="no"?>
<svg xmlns:ffdec="https://www.free-decompiler.com/flash" xmlns:xlink="http://www.w3.org/1999/xlink" ffdec:objectType="shape" height="120.0px" width="240.0px" xmlns="http://www.w3.org/2000/svg">
  <g transform="matrix(1.0, 0.0, 0.0, 1.0, 120.0, 60.0)">
    <path d="M120.0 -60.0 L120.0 60.0 -120.0 60.0 -120.0 -60.0 120.0 -60.0" fill="#000000" fill-rule="evenodd" stroke="none"/>
    <path d="M116.05 -56.0 L-115.95 -56.0 -115.95 56.0 116.05 56.0 116.05 -56.0 M118.0 -57.95 L118.0 58.05 -118.0 58.05 -118.0 -57.95 118.0 -57.95" fill="#333333" fill-rule="evenodd" stroke="none"/>
    <path d="M110.0 50.0 L-110.0 50.0 -110.0 -50.0 110.0 -50.0 110.0 50.0" fill="#333333" fill-rule="evenodd" stroke="none"/>
    <path d="M19.0 -4.95 L19.0 -20.95 27.0 -20.95 27.0 3.05 3.0 3.05 3.0 -36.95 27.0 -36.95 27.0 -28.95 11.0 -28.95 11.0 -4.95 19.0 -4.95 M43.0 -28.95 L43.0 -20.95 51.0 -20.95 51.0 -12.95 43.0 -12.95 43.0 -4.95 59.0 -4.95 59.0 3.05 35.0 3.05 35.0 -36.95 59.0 -36.95 59.0 -28.95 43.0 -28.95 M75.0 -20.95 L82.65 -20.95 82.65 -28.95 75.0 -28.95 75.0 -20.95 M83.0 -12.95 L91.0 -12.95 91.0 3.05 83.0 3.05 83.0 -12.95 75.0 -12.95 75.0 3.05 67.0 3.05 67.0 -36.95 91.0 -36.95 91.0 -20.95 83.0 -20.95 83.0 -12.95 M82.95 22.0 L80.95 22.0 80.95 24.0 84.95 24.0 84.95 26.0 78.95 26.0 78.95 16.0 84.95 16.0 84.95 18.0 80.95 18.0 80.95 20.0 82.95 20.0 82.95 22.0 M88.95 24.0 L92.95 24.0 92.95 26.0 86.95 26.0 86.95 16.0 88.95 16.0 88.95 24.0 M94.95 30.0 L94.95 38.0 92.95 38.0 92.95 30.0 90.95 30.0 90.95 28.0 96.95 28.0 96.95 30.0 94.95 30.0 M88.95 28.0 L88.95 38.0 86.95 38.0 86.95 28.0 88.95 28.0 M82.95 38.0 L82.95 30.0 80.95 30.0 80.95 38.0 78.95 38.0 78.95 30.0 76.95 30.0 76.95 38.0 74.95 38.0 74.95 28.0 84.95 28.0 84.95 38.0 82.95 38.0 M68.95 18.0 L64.95 18.0 64.95 20.0 66.95 20.0 66.95 22.0 64.95 22.0 64.95 24.0 68.95 24.0 68.95 26.0 62.95 26.0 62.95 16.0 68.95 16.0 68.95 18.0 M72.95 16.0 L72.95 24.0 74.95 24.0 74.95 16.0 76.95 16.0 76.95 24.0 74.95 24.0 74.95 26.0 72.95 26.0 72.95 24.0 70.95 24.0 70.95 16.0 72.95 16.0 M48.95 18.0 L48.95 24.0 46.95 24.0 46.95 26.0 42.95 26.0 42.95 16.0 46.95 16.0 46.95 18.0 48.95 18.0 M44.95 18.0 L44.95 24.0 46.9 24.0 46.9 18.0 44.95 18.0 M56.95 24.0 L60.95 24.0 60.95 26.0 54.95 26.0 54.95 16.0 56.95 16.0 56.95 24.0 M52.95 30.0 L52.95 32.0 54.9 32.0 54.9 30.0 52.95 30.0 M54.95 34.0 L56.95 34.0 56.95 38.0 54.95 38.0 54.95 34.0 52.95 34.0 52.95 38.0 50.95 38.0 50.95 28.0 56.95 28.0 56.95 32.0 54.95 32.0 54.95 34.0 M48.95 30.0 L44.95 30.0 44.95 32.0 46.95 32.0 46.95 34.0 44.95 34.0 44.95 36.0 48.95 36.0 48.95 38.0 42.95 38.0 42.95 28.0 48.95 28.0 48.95 30.0 M40.95 36.0 L38.95 36.0 38.95 38.0 36.95 38.0 36.95 36.0 34.95 36.0 34.95 28.0 36.95 28.0 36.95 36.0 38.95 36.0 38.95 28.0 40.95 28.0 40.95 36.0 M72.95 28.0 L72.95 38.0 70.95 38.0 70.95 28.0 72.95 28.0 M68.95 36.0 L68.95 38.0 62.95 38.0 62.95 28.0 64.95 28.0 64.95 36.0 68.95 36.0 M40.95 26.0 L38.95 26.0 38.95 22.0 36.95 22.0 36.95 26.0 34.95 26.0 34.95 16.0 40.95 16.0 40.95 26.0 M28.95 20.0 L30.9 20.0 30.9 18.0 28.95 18.0 28.95 20.0 M36.95 18.0 L36.95 20.0 38.95 20.0 38.95 18.0 36.95 18.0 M32.95 22.0 L32.95 26.0 30.95 26.0 30.95 22.0 28.95 22.0 28.95 26.0 26.95 26.0 26.95 16.0 32.95 16.0 32.95 20.0 30.95 20.0 30.95 22.0 32.95 22.0 M6.95 17.05 L6.95 33.05 14.95 33.05 14.95 37.05 2.95 37.05 2.95 17.05 6.95 17.05 M30.95 30.0 L28.95 30.0 28.95 36.0 30.95 36.0 30.95 30.0 M32.95 38.0 L26.95 38.0 26.95 28.0 32.95 28.0 32.95 38.0 M-85.0 -4.95 L-77.35 -4.95 -77.35 -28.95 -85.0 -28.95 -85.0 -4.95 M-53.0 -28.95 L-53.0 -20.95 -45.0 -20.95 -45.0 -28.95 -53.0 -28.95 M-69.0 -28.95 L-69.0 -4.95 -77.0 -4.95 -77.0 3.05 -93.0 3.05 -93.0 -36.95 -77.0 -36.95 -77.0 -28.95 -69.0 -28.95 M-53.0 -12.95 L-53.0 3.05 -61.0 3.05 -61.0 -36.95 -37.0 -36.95 -37.0 3.05 -45.0 3.05 -45.0 -12.95 -53.0 -12.95 M-21.0 -28.95 L-21.0 3.05 -29.0 3.05 -29.0 -36.95 -5.0 -36.95 -5.0 3.05 -13.0 3.05 -13.0 -28.95 -21.0 -28.95 M-17.05 21.05 L-25.05 21.05 -25.05 33.05 -17.05 33.05 -17.05 37.05 -29.05 37.05 -29.05 17.05 -17.05 17.05 -17.05 21.05 M-9.05 21.05 L-9.05 25.05 -5.05 25.05 -5.05 21.05 -9.05 21.05 M-1.05 17.05 L-1.05 37.05 -5.05 37.05 -5.05 29.05 -9.05 29.05 -9.05 37.05 -13.05 37.05 -13.05 17.05 -1.05 17.05 M-33.05 17.05 L-33.05 37.05 -37.05 37.05 -37.05 17.05 -33.05 17.05 M-45.05 21.05 L-45.05 37.05 -49.05 37.05 -49.05 21.05 -53.05 21.05 -53.05 17.05 -41.05 17.05 -41.05 21.05 -45.05 21.05 M-73.05 21.05 L-73.05 25.05 -69.2 25.05 -69.2 21.05 -73.05 21.05 M-65.05 17.05 L-65.05 25.05 -69.05 25.05 -69.05 29.05 -65.05 29.05 -65.05 37.05 -69.05 37.05 -69.05 29.05 -73.05 29.05 -73.05 37.05 -77.05 37.05 -77.05 17.05 -65.05 17.05 M-61.05 17.05 L-57.05 17.05 -57.05 37.05 -61.05 37.05 -61.05 17.05 M-81.05 21.05 L-89.05 21.05 -89.05 33.05 -81.05 33.05 -81.05 37.05 -93.05 37.05 -93.05 17.05 -81.05 17.05 -81.05 21.05" fill="#ff9900" fill-rule="evenodd" stroke="none"/>
  </g>
</svg>
