<?xml version="1.0" encoding="UTF-8" standalone="no"?>
<svg xmlns:ffdec="https://www.free-decompiler.com/flash" xmlns:xlink="http://www.w3.org/1999/xlink" ffdec:objectType="shape" height="53.45px" width="71.7px" xmlns="http://www.w3.org/2000/svg">
  <g transform="matrix(1.0, 0.0, 0.0, 1.0, 10.15, 23.9)">
    <path d="M12.8 -15.2 L26.7 -21.9 48.1 -21.9 48.1 -15.9 30.45 -15.9 13.1 -4.9 12.8 -15.2 M48.1 -9.85 L53.5 -9.9 53.5 -4.15 40.1 -9.85 48.1 -9.85 M53.5 1.55 L59.55 1.55 59.55 8.9 47.45 1.55 53.5 1.55 M13.4 15.25 L-0.8 19.8 -4.45 12.15 13.4 5.75 13.4 15.25" fill="#1d1d1d" fill-rule="evenodd" stroke="none"/>
    <path d="M12.8 -15.2 L13.1 -4.9 30.45 -15.9 48.1 -15.9 48.1 -9.85 40.1 -9.85 53.5 -4.15 53.5 1.55 47.45 1.55 59.55 8.9 59.55 16.25 55.25 19.6 47.55 19.6 43.6 15.1 30.0 15.1 24.7 27.55 13.4 15.25 13.4 5.75 -4.45 12.15 -8.15 4.45 -1.45 -21.0 12.8 -15.2 M47.15 15.1 L43.6 15.1 47.15 15.1" fill="#000000" fill-rule="evenodd" stroke="none"/>
    <path d="M12.85 22.05 L12.8 22.25 12.8 22.05 12.85 22.05" fill="#585858" fill-rule="evenodd" stroke="none"/>
    <path d="M48.1 -15.9 L48.1 -21.9 26.7 -21.9 12.8 -15.2 -1.45 -21.0 -8.15 4.45 -4.45 12.15 -0.8 19.8 13.4 15.25 24.7 27.55 M48.1 -15.9 L48.1 -9.85 53.5 -9.9 53.5 -4.15 53.5 1.55 59.55 1.55 59.55 8.9 59.55 16.25 55.25 19.6 47.55 19.6 43.6 15.1 30.0 15.1 M48.1 -9.85 L40.1 -9.85 M43.6 15.1 L47.15 15.1 M47.45 1.55 L53.5 1.55" fill="none" stroke="#333333" stroke-linecap="square" stroke-linejoin="miter-clip" stroke-miterlimit="3.0" stroke-width="3.0"/>
    <path d="M30.0 15.1 L24.7 27.55" fill="none" stroke="#cccccc" stroke-linecap="square" stroke-linejoin="miter-clip" stroke-miterlimit="3.0" stroke-width="2.0"/>
  </g>
</svg>
