<?xml version="1.0" encoding="UTF-8" standalone="no"?>
<svg xmlns:ffdec="https://www.free-decompiler.com/flash" xmlns:xlink="http://www.w3.org/1999/xlink" ffdec:objectType="shape" height="46.3px" width="183.9px" xmlns="http://www.w3.org/2000/svg">
  <g transform="matrix(1.0, 0.0, 0.0, 1.0, 11.3, 29.9)">
    <path d="M169.95 -17.35 L166.05 -9.85 138.25 2.45 138.25 -4.35 169.95 -17.35" fill="#cccccc" fill-rule="evenodd" stroke="none"/>
    <path d="M138.25 2.45 L24.3 1.75 24.3 -5.05 138.25 -4.35 138.25 2.45" fill="#999999" fill-rule="evenodd" stroke="none"/>
    <path d="M24.3 -15.25 L169.95 -17.35 138.25 -4.35 24.3 -5.05 24.3 -15.25" fill="#ffffff" fill-rule="evenodd" stroke="none"/>
    <path d="M24.3 1.75 L24.3 13.75 12.3 13.75 12.3 1.75 -4.55 1.75 Q-8.65 -4.25 -8.65 -6.75 -8.65 -9.25 -4.55 -15.25 L12.3 -15.25 12.3 -27.25 24.3 -27.25 24.3 -15.25 24.3 -5.05 24.3 1.75 M12.3 1.75 L12.3 -15.25 12.3 1.75" fill="#000000" fill-rule="evenodd" stroke="none"/>
    <path d="M12.3 -15.25 L12.3 1.75" fill="none" stroke="#000000" stroke-linecap="square" stroke-linejoin="miter-clip" stroke-miterlimit="10.0" stroke-width="4.0"/>
    <path d="M24.3 1.75 L24.3 13.75 12.3 13.75 12.3 1.75 -4.55 1.75 Q-8.65 -4.25 -8.65 -6.75 -8.65 -9.25 -4.55 -15.25 L12.3 -15.25 12.3 -27.25 24.3 -27.25 24.3 -15.25" fill="none" stroke="#000000" stroke-linecap="square" stroke-linejoin="miter-clip" stroke-miterlimit="10.0" stroke-width="4.0"/>
    <path d="M24.3 -15.25 L169.95 -17.35 166.05 -9.85 138.25 2.45 24.3 1.75 24.3 -5.05 24.3 -15.25" fill="none" stroke="#000000" stroke-linecap="round" stroke-linejoin="miter-clip" stroke-miterlimit="10.0" stroke-width="4.0"/>
    <path d="M24.3 -5.05 L138.25 -4.35 169.95 -17.35" fill="none" stroke="#393d40" stroke-linecap="square" stroke-linejoin="miter-clip" stroke-miterlimit="10.0" stroke-width="3.0"/>
  </g>
</svg>
