<?xml version="1.0" encoding="UTF-8" standalone="no"?>
<svg xmlns:ffdec="https://www.free-decompiler.com/flash" xmlns:xlink="http://www.w3.org/1999/xlink" ffdec:objectType="shape" height="97.45px" width="104.5px" xmlns="http://www.w3.org/2000/svg">
  <g transform="matrix(1.0, 0.0, 0.0, 1.0, 51.25, 44.0)">
    <path d="M-27.0 -14.05 L-27.0 -27.0 27.0 -27.0 27.0 -10.2 -27.0 -14.05" fill="#c6cc4a" fill-rule="evenodd" stroke="none"/>
    <path d="M27.0 -10.2 L27.0 27.0 -27.0 27.0 -27.0 -14.05 27.0 -10.2" fill="#e1e49e" fill-rule="evenodd" stroke="none"/>
    <path d="M27.0 -10.2 L27.0 -27.0 -27.0 -27.0 -27.0 -14.05 -27.0 27.0 27.0 27.0 27.0 -10.2 M33.0 -33.0 L33.0 33.0 -33.0 33.0 -33.0 -33.0 33.0 -33.0" fill="#818525" fill-rule="evenodd" stroke="none"/>
    <path d="M-15.2 -40.0 L0.5 -22.6 1.0 -23.15 1.5 -22.6 17.25 -40.0 29.9 -40.0 5.65 13.4 -3.6 13.4 -27.85 -40.0 -15.2 -40.0" fill="#222222" fill-rule="evenodd" stroke="none"/>
    <path d="M-15.2 -40.0 L1.0 -40.0 17.25 -40.0 1.5 -22.6 1.0 -23.15 0.5 -22.6 -15.2 -40.0 M29.9 -40.0 L44.3 -40.0 36.1 9.25 27.2 13.4 36.1 13.4 36.1 14.65 48.7 29.45 16.45 49.45 1.0 31.9 -14.4 49.45 -46.7 29.45 -34.1 14.65 -34.1 13.4 -25.15 13.4 Q-29.8 11.45 -34.1 9.25 L-42.3 -40.0 -27.85 -40.0 -3.6 13.4 5.65 13.4 27.2 13.4 5.65 13.4 29.9 -40.0 M-25.15 13.4 L-3.6 13.4 -25.15 13.4" fill="#000000" fill-rule="evenodd" stroke="none"/>
    <path d="M36.1 9.25 L36.1 13.4 27.2 13.4 36.1 9.25 M-34.1 13.4 L-34.1 9.25 Q-29.8 11.45 -25.15 13.4 L-34.1 13.4" fill="#333333" fill-rule="evenodd" stroke="none"/>
    <path d="M17.25 -40.0 L1.0 -40.0 -15.2 -40.0 -27.85 -40.0 -42.3 -40.0 -34.1 9.25 -34.1 13.4 -34.1 14.65 -46.7 29.45 -14.4 49.45 1.0 31.9 16.45 49.45 48.7 29.45 36.1 14.65 36.1 13.4 36.1 9.25 44.3 -40.0 29.9 -40.0 17.25 -40.0" fill="none" stroke="#333333" stroke-linecap="square" stroke-linejoin="miter-clip" stroke-miterlimit="10.0" stroke-width="6.0"/>
    <path d="M5.65 13.4 L27.2 13.4 36.1 13.4 M5.65 13.4 L-3.6 13.4 -25.15 13.4 -34.1 13.4" fill="none" stroke="#333333" stroke-linecap="square" stroke-linejoin="miter-clip" stroke-miterlimit="3.0" stroke-width="6.0"/>
  </g>
</svg>
