<?xml version="1.0" encoding="UTF-8" standalone="no"?>
<svg xmlns:ffdec="https://www.free-decompiler.com/flash" xmlns:xlink="http://www.w3.org/1999/xlink" ffdec:objectType="shape" height="154.0px" width="72.0px" xmlns="http://www.w3.org/2000/svg">
  <g transform="matrix(1.0, 0.0, 0.0, 1.0, 72.0, 57.0)">
    <path d="M-20.0 45.0 L-50.0 45.0 -50.0 75.0 -20.0 75.0 -20.0 45.0 -20.0 75.0 -50.0 75.0 -50.0 45.0 -20.0 45.0 M-20.0 35.0 L-20.0 5.0 -50.0 5.0 -50.0 35.0 -20.0 35.0 -50.0 35.0 -50.0 5.0 -20.0 5.0 -20.0 35.0 M-10.0 -45.0 L-60.0 -45.0 -60.0 85.0 -10.0 85.0 -10.0 -45.0 -10.0 85.0 -60.0 85.0 -60.0 -45.0 -10.0 -45.0 M-50.0 -35.0 L-50.0 -5.0 -20.0 -5.0 -20.0 -35.0 -50.0 -35.0 -20.0 -35.0 -20.0 -5.0 -50.0 -5.0 -50.0 -35.0 M-70.0 -55.0 L0.0 -55.0 0.0 95.0 -70.0 95.0 -70.0 -55.0" fill="url(#gradient0)" fill-rule="evenodd" stroke="none"/>
    <path d="M-50.0 -35.0 L-20.0 -35.0 -20.0 -5.0 -50.0 -5.0 -50.0 -35.0 M-10.0 -45.0 L-10.0 85.0 -60.0 85.0 -60.0 -45.0 -10.0 -45.0 M-20.0 35.0 L-50.0 35.0 -50.0 5.0 -20.0 5.0 -20.0 35.0 M-20.0 45.0 L-20.0 75.0 -50.0 75.0 -50.0 45.0 -20.0 45.0" fill="none" stroke="#666666" stroke-linecap="round" stroke-linejoin="round" stroke-width="1.0"/>
    <path d="M-70.0 95.0 L-70.0 -55.0" fill="none" stroke="#000000" stroke-linecap="round" stroke-linejoin="round" stroke-width="4.0"/>
    <path d="M-53.3 21.95 Q-52.3 22.3 -51.45 23.15 -50.0 24.6 -50.0 26.65 -50.0 28.75 -51.45 30.2 L-53.3 31.4 -53.3 31.95 Q-52.3 32.3 -51.45 33.15 -50.0 34.6 -50.0 36.7 -50.0 42.9 -51.45 47.3 -52.95 51.7 -55.0 51.7 -57.05 51.7 -58.5 47.3 -60.0 42.9 -60.0 36.7 -60.0 34.6 -58.5 33.15 -57.7 32.3 -56.65 31.95 L-56.65 31.4 Q-57.7 31.05 -58.5 30.2 -60.0 28.75 -60.0 26.65 -60.0 24.6 -58.5 23.15 -57.7 22.3 -56.65 21.95 L-56.65 18.35 -60.0 18.35 -60.0 15.0 -50.0 15.0 -50.0 18.35 -53.3 18.35 -53.3 21.95" fill="#666666" fill-rule="evenodd" stroke="none"/>
    <path d="M-53.3 21.95 Q-52.3 22.3 -51.45 23.15 -50.0 24.6 -50.0 26.65 -50.0 28.75 -51.45 30.2 L-53.3 31.4 -53.3 31.95 Q-52.3 32.3 -51.45 33.15 -50.0 34.6 -50.0 36.7 -50.0 42.9 -51.45 47.3 -52.95 51.7 -55.0 51.7 -57.05 51.7 -58.5 47.3 -60.0 42.9 -60.0 36.7 -60.0 34.6 -58.5 33.15 -57.7 32.3 -56.65 31.95 L-56.65 31.4 Q-57.7 31.05 -58.5 30.2 -60.0 28.75 -60.0 26.65 -60.0 24.6 -58.5 23.15 -57.7 22.3 -56.65 21.95 L-56.65 18.35 -60.0 18.35 -60.0 15.0 -50.0 15.0 -50.0 18.35 -53.3 18.35 -53.3 21.95 Z" fill="none" stroke="#999999" stroke-linecap="round" stroke-linejoin="round" stroke-width="1.0"/>
  </g>
  <defs>
    <linearGradient gradientTransform="matrix(0.0, 0.0815, -0.0854, 0.0, -70.0, 24.25)" gradientUnits="userSpaceOnUse" id="gradient0" spreadMethod="pad" x1="-819.2" x2="819.2">
      <stop offset="0.0" stop-color="#333333"/>
      <stop offset="1.0" stop-color="#000000"/>
    </linearGradient>
  </defs>
</svg>
