<?xml version="1.0" encoding="UTF-8" standalone="no"?>
<svg xmlns:ffdec="https://www.free-decompiler.com/flash" xmlns:xlink="http://www.w3.org/1999/xlink" ffdec:objectType="shape" height="194.0px" width="72.0px" xmlns="http://www.w3.org/2000/svg">
  <g transform="matrix(1.0, 0.0, 0.0, 1.0, 0.0, 97.0)">
    <path d="M50.0 -95.0 L70.0 -95.0 70.0 95.0 50.0 95.0 50.0 24.95 50.0 95.0 30.0 95.0 10.0 95.0 10.0 -95.0 10.0 95.0 0.0 95.0 0.0 -95.0 10.0 -95.0 30.0 -95.0 30.0 -65.0 30.0 -95.0 50.0 -95.0 50.0 -15.05 50.0 -95.0 M55.0 -3.7 L55.0 -15.05 50.0 -15.05 45.0 -15.05 45.0 -3.7 Q43.9 -3.05 42.9 -2.1 40.0 0.85 40.0 5.0 40.0 9.15 42.9 12.05 43.9 13.05 45.0 13.7 L45.0 24.95 50.0 24.95 55.0 24.95 55.0 13.7 57.05 12.05 Q60.0 9.15 60.0 5.0 60.0 0.85 57.05 -2.1 L55.0 -3.7 M55.05 -50.0 L54.9 -50.7 54.75 -50.5 Q53.3 -50.65 53.3 -42.9 53.3 -38.9 54.0 -37.5 L54.5 -37.75 55.05 -50.0 M30.0 65.0 L30.0 95.0 30.0 65.0 40.0 65.0 40.0 55.0 30.0 55.0 30.0 65.0 M30.0 -55.0 L30.0 55.0 30.0 -55.0 40.0 -55.0 40.0 -65.0 30.0 -65.0 30.0 -55.0 M20.05 12.5 L21.0 12.3 Q21.55 7.65 21.55 4.4 21.55 1.5 20.75 0.0 20.0 0.0 19.8 0.5 L19.8 12.05 20.05 12.5 M62.55 63.75 Q63.0 55.0 61.25 55.0 60.55 55.0 60.3 55.3 61.35 58.0 61.3 63.15 61.2 68.55 62.0 71.0 L62.5 70.75 62.55 63.75" fill="url(#gradient0)" fill-rule="evenodd" stroke="none"/>
    <path d="M55.05 -50.0 L54.5 -37.75 54.0 -37.5 Q53.3 -38.9 53.3 -42.9 53.3 -50.65 54.75 -50.5 L54.9 -50.7 55.05 -50.0 M20.05 12.5 L19.8 12.05 19.8 0.5 Q20.0 0.0 20.75 0.0 21.55 1.5 21.55 4.4 21.55 7.65 21.0 12.3 L20.05 12.5 M62.55 63.75 L62.5 70.75 62.0 71.0 Q61.2 68.55 61.3 63.15 61.35 58.0 60.3 55.3 60.55 55.0 61.25 55.0 63.0 55.0 62.55 63.75" fill="#473110" fill-rule="evenodd" stroke="none"/>
    <path d="M30.0 -55.0 L30.0 -65.0 40.0 -65.0 40.0 -55.0 30.0 -55.0" fill="#666666" fill-rule="evenodd" stroke="none"/>
    <path d="M50.0 -15.05 L55.0 -15.05 55.0 -3.7 Q52.8 -5.0 50.0 -5.0 47.25 -5.0 45.0 -3.7 L45.0 -15.05 50.0 -15.05 M55.0 13.7 L55.0 24.95 50.0 24.95 45.0 24.95 45.0 13.7 Q47.25 15.0 50.0 15.0 52.8 15.0 55.0 13.7 M30.0 65.0 L30.0 55.0 40.0 55.0 40.0 65.0 30.0 65.0" fill="#333333" fill-rule="evenodd" stroke="none"/>
    <path d="M55.0 -3.7 L57.05 -2.1 Q60.0 0.85 60.0 5.0 60.0 9.15 57.05 12.05 L55.0 13.7 Q52.8 15.0 50.0 15.0 47.25 15.0 45.0 13.7 43.9 13.05 42.9 12.05 40.0 9.15 40.0 5.0 40.0 0.85 42.9 -2.1 43.9 -3.05 45.0 -3.7 47.25 -5.0 50.0 -5.0 52.8 -5.0 55.0 -3.7" fill="url(#gradient1)" fill-rule="evenodd" stroke="none"/>
    <path d="M30.0 -55.0 L30.0 -65.0 40.0 -65.0 40.0 -55.0 30.0 -55.0" fill="none" stroke="#888888" stroke-linecap="round" stroke-linejoin="miter-clip" stroke-miterlimit="3.0" stroke-width="2.0"/>
    <path d="M50.0 -95.0 L50.0 -15.05 M50.0 24.95 L50.0 95.0 M10.0 -95.0 L10.0 95.0 M30.0 95.0 L30.0 65.0 M30.0 55.0 L30.0 -55.0 M30.0 -65.0 L30.0 -95.0" fill="none" stroke="#3d2a0e" stroke-linecap="butt" stroke-linejoin="round" stroke-width="2.0"/>
    <path d="M50.0 -15.05 L55.0 -15.05 55.0 -3.7 57.05 -2.1 Q60.0 0.85 60.0 5.0 60.0 9.15 57.05 12.05 L55.0 13.7 55.0 24.95 50.0 24.95 45.0 24.95 45.0 13.7 Q47.25 15.0 50.0 15.0 52.8 15.0 55.0 13.7 M30.0 65.0 L30.0 55.0 40.0 55.0 40.0 65.0 30.0 65.0 M45.0 -3.7 L45.0 -15.05 50.0 -15.05 M55.0 -3.7 Q52.8 -5.0 50.0 -5.0 47.25 -5.0 45.0 -3.7 43.9 -3.05 42.9 -2.1 40.0 0.85 40.0 5.0 40.0 9.15 42.9 12.05 43.9 13.05 45.0 13.7" fill="none" stroke="#666666" stroke-linecap="round" stroke-linejoin="miter-clip" stroke-miterlimit="3.0" stroke-width="2.0"/>
    <path d="M70.0 95.0 L70.0 -95.0" fill="none" stroke="#000000" stroke-linecap="butt" stroke-linejoin="round" stroke-width="4.0"/>
  </g>
  <defs>
    <linearGradient gradientTransform="matrix(0.0685, 0.103, -0.0831, 0.0553, 45.7, 16.05)" gradientUnits="userSpaceOnUse" id="gradient0" spreadMethod="pad" x1="-819.2" x2="819.2">
      <stop offset="0.0" stop-color="#704e1b"/>
      <stop offset="1.0" stop-color="#453010"/>
    </linearGradient>
    <radialGradient cx="0" cy="0" gradientTransform="matrix(0.0193, 0.0, 0.0, 0.0193, 46.0, 1.0)" gradientUnits="userSpaceOnUse" id="gradient1" r="819.2" spreadMethod="pad">
      <stop offset="0.0" stop-color="#999999"/>
      <stop offset="1.0" stop-color="#333333"/>
    </radialGradient>
  </defs>
</svg>
