<?xml version="1.0" encoding="UTF-8" standalone="no"?>
<svg xmlns:ffdec="https://www.free-decompiler.com/flash" xmlns:xlink="http://www.w3.org/1999/xlink" ffdec:objectType="shape" height="222.0px" width="208.7px" xmlns="http://www.w3.org/2000/svg">
  <g transform="matrix(1.0, 0.0, 0.0, 1.0, 104.35, 123.05)">
    <path d="M-79.6 -85.0 L-76.35 -88.4 Q-44.7 -120.05 0.0 -120.05 44.7 -120.05 76.35 -88.4 L79.75 -84.9 37.8 -1.25 -37.8 -1.25 -79.6 -85.0" fill="url(#gradient0)" fill-rule="evenodd" stroke="none"/>
    <path d="M79.75 -84.9 L86.5 -76.85 43.2 9.55 0.0 20.35 -43.2 9.55 -86.4 -77.0 -79.6 -85.0 -37.8 -1.25 37.8 -1.25 79.75 -84.9" fill="url(#gradient1)" fill-rule="evenodd" stroke="none"/>
    <path d="M86.5 -76.85 Q96.05 -64.45 101.35 -50.25 L71.6 68.85 Q41.4 95.95 0.0 95.95 -41.35 95.95 -71.55 68.9 L-71.55 68.85 -101.35 -50.25 Q-96.0 -64.5 -86.4 -77.0 L-43.2 9.55 0.0 20.35 43.2 9.55 86.5 -76.85 M15.3 37.5 Q8.95 31.15 0.0 31.15 -8.95 31.15 -15.25 37.5 -21.6 43.8 -21.6 52.75 -21.6 61.7 -15.25 68.05 -8.95 74.35 0.0 74.35 8.95 74.35 15.3 68.05 21.6 61.7 21.6 52.75 21.6 43.8 15.3 37.5" fill="url(#gradient2)" fill-rule="evenodd" stroke="none"/>
    <path d="M15.3 37.5 Q21.6 43.8 21.6 52.75 21.6 61.7 15.3 68.05 8.95 74.35 0.0 74.35 -8.95 74.35 -15.25 68.05 -21.6 61.7 -21.6 52.75 -21.6 43.8 -15.25 37.5 -8.95 31.15 0.0 31.15 8.95 31.15 15.3 37.5" fill="url(#gradient3)" fill-rule="evenodd" stroke="none"/>
    <path d="M-79.6 -85.0 L-76.35 -88.4 Q-44.7 -120.05 0.0 -120.05 44.7 -120.05 76.35 -88.4 L79.75 -84.9 86.5 -76.85 Q96.05 -64.45 101.35 -50.25 L71.6 68.85 Q41.4 95.95 0.0 95.95 -41.35 95.95 -71.55 68.9 L-71.55 68.85 -101.35 -50.25 Q-96.0 -64.5 -86.4 -77.0 L-79.6 -85.0" fill="none" stroke="#000000" stroke-linecap="round" stroke-linejoin="round" stroke-width="6.0"/>
    <path d="M-79.6 -85.0 L-37.8 -1.25 37.8 -1.25 79.75 -84.9" fill="none" stroke="#000000" stroke-linecap="round" stroke-linejoin="round" stroke-width="3.0"/>
    <path d="M-36.05 39.6 L-55.95 27.85 -55.95 20.25 -36.05 32.0 -36.05 39.6 M-55.95 35.45 L-36.05 47.2 -36.05 54.8 -55.95 43.05 -55.95 35.45 M-55.95 50.65 L-36.05 62.4 -36.05 70.0 -55.95 58.25 -55.95 50.65" fill="#006699" fill-rule="evenodd" stroke="none"/>
    <path d="M35.15 70.0 L35.15 62.4 55.05 50.65 55.05 58.25 35.15 70.0 M55.05 20.25 L55.05 27.85 35.15 39.6 35.15 32.0 55.05 20.25 M55.05 35.45 L55.05 43.05 35.15 54.8 35.15 47.2 55.05 35.45" fill="#006699" fill-rule="evenodd" stroke="none"/>
  </g>
  <defs>
    <radialGradient cx="0" cy="0" gradientTransform="matrix(0.1235, 0.0, 0.0, 0.1235, -20.55, -72.55)" gradientUnits="userSpaceOnUse" id="gradient0" r="819.2" spreadMethod="pad">
      <stop offset="0.0" stop-color="#23c8fc" stop-opacity="0.6"/>
      <stop offset="0.5019607843137255" stop-color="#0092cc" stop-opacity="0.5019608"/>
      <stop offset="1.0" stop-color="#006299" stop-opacity="0.7019608"/>
    </radialGradient>
    <radialGradient cx="0" cy="0" gradientTransform="matrix(0.1667, 0.0, 0.0, 0.1667, -0.05, 27.9)" gradientUnits="userSpaceOnUse" id="gradient1" r="819.2" spreadMethod="pad">
      <stop offset="0.0" stop-color="#8c8c8c"/>
      <stop offset="0.7529411764705882" stop-color="#555555"/>
      <stop offset="1.0" stop-color="#aeaeae"/>
    </radialGradient>
    <radialGradient cx="0" cy="0" gradientTransform="matrix(0.1667, 0.0, 0.0, 0.1667, -0.05, 27.9)" gradientUnits="userSpaceOnUse" id="gradient2" r="819.2" spreadMethod="pad">
      <stop offset="0.0" stop-color="#f3f3f3"/>
      <stop offset="0.7529411764705882" stop-color="#a6a6a6"/>
      <stop offset="1.0" stop-color="#d1d1d1"/>
    </radialGradient>
    <radialGradient cx="0" cy="0" gradientTransform="matrix(0.0283, 0.0, 0.0, 0.0283, -1.15, 51.65)" gradientUnits="userSpaceOnUse" id="gradient3" r="819.2" spreadMethod="pad">
      <stop offset="0.0" stop-color="#c4c4c4"/>
      <stop offset="1.0" stop-color="#888888"/>
    </radialGradient>
  </defs>
</svg>
