<?xml version="1.0" encoding="UTF-8" standalone="no"?>
<svg xmlns:ffdec="https://www.free-decompiler.com/flash" xmlns:xlink="http://www.w3.org/1999/xlink" ffdec:objectType="frame" height="170.35px" width="152.7px" xmlns="http://www.w3.org/2000/svg">
  <g transform="matrix(1.0, 0.0, 0.0, 1.0, 86.4, 75.7)">
    <use ffdec:characterId="1407" height="47.5" transform="matrix(1.0, 0.0, 0.0, 1.0, 18.8, 47.15)" width="47.5" xlink:href="#sprite0"/>
    <use ffdec:characterId="1407" height="47.5" transform="matrix(1.0, 0.0, 0.0, 1.0, -86.4, 32.65)" width="47.5" xlink:href="#sprite0"/>
    <use ffdec:characterId="1408" height="78.0" transform="matrix(1.0, 0.0, 0.0, 1.0, -71.2, 0.2)" width="123.3" xlink:href="#shape1"/>
    <use ffdec:characterId="1410" height="130.7" id="body" transform="matrix(1.0, 0.0, 0.0, 1.0, -63.75, -75.7)" width="127.5" xlink:href="#sprite1"/>
  </g>
  <defs>
    <g id="sprite0" transform="matrix(1.0, 0.0, 0.0, 1.0, 23.75, 23.75)">
      <use ffdec:characterId="1406" height="47.5" transform="matrix(1.0, 0.0, 0.0, 1.0, -23.75, -23.75)" width="47.5" xlink:href="#shape0"/>
    </g>
    <g id="shape0" transform="matrix(1.0, 0.0, 0.0, 1.0, 23.75, 23.75)">
      <path d="M16.8 -16.8 L23.75 0.0 16.8 16.8 0.0 23.75 -16.8 16.8 -23.75 0.0 -16.8 -16.8 0.0 -23.75 16.8 -16.8" fill="#ffffff" fill-opacity="0.2" fill-rule="evenodd" stroke="none"/>
      <path d="M12.75 -12.7 L18.0 0.0 12.75 12.75 0.0 18.0 -12.7 12.75 -18.0 0.0 -12.7 -12.7 0.0 -18.0 12.75 -12.7" fill="url(#gradient0)" fill-rule="evenodd" stroke="none"/>
      <path d="M12.75 -12.7 L18.0 0.0 12.75 12.75 0.0 18.0 -12.7 12.75 -18.0 0.0 -12.7 -12.7 0.0 -18.0 12.75 -12.7 Z" fill="none" stroke="#d98304" stroke-linecap="round" stroke-linejoin="round" stroke-width="4.0"/>
      <path d="M6.35 -6.35 L9.0 0.05 6.35 6.4 0.0 9.0 -6.4 6.4 -9.0 0.05 -6.4 -6.35 0.0 -9.0 6.35 -6.35" fill="#333333" fill-rule="evenodd" stroke="none"/>
    </g>
    <radialGradient cx="0" cy="0" gradientTransform="matrix(0.022, 0.0, 0.0, 0.022, 0.0, 0.0)" gradientUnits="userSpaceOnUse" id="gradient0" r="819.2" spreadMethod="pad">
      <stop offset="0.0" stop-color="#fff5ab"/>
      <stop offset="0.8627450980392157" stop-color="#ccb400"/>
      <stop offset="1.0" stop-color="#d3c123"/>
    </radialGradient>
    <g id="shape1" transform="matrix(1.0, 0.0, 0.0, 1.0, 71.2, -0.2)">
      <path d="M42.55 69.2 Q47.85 19.8 2.55 9.2 M-62.2 53.05 Q-49.45 5.1 -3.4 11.45" fill="none" stroke="#ffffff" stroke-linecap="round" stroke-linejoin="round" stroke-opacity="0.2" stroke-width="18.0"/>
      <path d="M42.55 69.2 Q47.85 19.8 2.55 9.2 M-62.2 53.05 Q-49.45 5.1 -3.4 11.45" fill="none" stroke="#333333" stroke-linecap="round" stroke-linejoin="round" stroke-width="12.0"/>
    </g>
    <g id="sprite1" transform="matrix(1.0, 0.0, 0.0, 1.0, 63.75, 75.7)">
      <use ffdec:characterId="1409" height="130.7" transform="matrix(1.0, 0.0, 0.0, 1.0, -63.75, -75.7)" width="127.5" xlink:href="#shape2"/>
    </g>
    <g id="shape2" transform="matrix(1.0, 0.0, 0.0, 1.0, 63.75, 75.7)">
      <path d="M33.95 -65.7 Q34.65 -64.3 34.4 -62.75 L34.4 -62.7 Q34.1 -61.15 33.05 -60.05 L32.5 -59.5 32.4 -59.3 Q31.85 -58.35 30.9 -57.9 L30.85 -57.9 30.35 -57.35 30.4 -57.4 29.95 -56.65 29.95 -56.6 Q28.8 -54.2 28.85 -50.8 28.8 -48.0 29.6 -45.9 L34.15 -52.2 Q35.4 -53.9 37.45 -54.2 39.5 -54.5 41.2 -53.25 44.55 -50.75 47.65 -47.65 57.4 -37.9 61.2 -25.75 63.75 -17.75 63.75 -8.75 63.75 0.3 61.2 8.25 L61.25 8.25 Q60.6 10.2 58.8 11.2 L58.75 11.2 Q56.9 12.15 54.9 11.5 L52.05 10.6 51.65 12.4 52.15 13.2 Q53.1 15.05 52.45 17.05 L52.45 17.0 Q48.65 29.15 38.9 38.9 35.8 42.0 32.45 44.5 18.35 54.95 0.0 55.0 -18.35 54.95 -32.35 44.55 L-32.4 44.5 Q-35.8 42.0 -38.9 38.9 -48.65 29.15 -52.4 17.0 -53.05 15.05 -52.1 13.25 L-52.1 13.2 -51.6 12.45 -52.0 10.6 -54.85 11.5 Q-56.8 12.15 -58.65 11.2 -60.5 10.25 -61.15 8.3 -63.75 0.3 -63.75 -8.75 -63.75 -17.75 -61.2 -25.75 -57.4 -37.9 -47.65 -47.65 -44.5 -50.75 -41.1 -53.25 -39.45 -54.5 -37.4 -54.2 -35.35 -53.9 -34.1 -52.2 L-34.1 -52.15 -29.55 -45.9 Q-28.8 -48.0 -28.8 -50.8 -28.8 -54.2 -29.95 -56.65 L-30.4 -57.4 -30.45 -57.5 -30.8 -57.9 -30.85 -57.9 Q-31.9 -58.25 -32.5 -59.2 L-32.85 -59.95 -32.95 -60.05 Q-34.05 -61.2 -34.3 -62.7 L-34.35 -62.75 Q-34.6 -64.3 -33.9 -65.7 L-33.9 -65.75 Q-33.2 -67.15 -31.85 -67.9 -18.1 -75.7 0.0 -75.7 18.1 -75.7 31.9 -67.9 33.25 -67.15 33.95 -65.7" fill="#ffffff" fill-opacity="0.2" fill-rule="evenodd" stroke="none"/>
      <path d="M-47.65 15.5 Q-50.0 8.25 -50.0 0.0 -50.0 -8.2 -47.7 -15.5 -44.2 -26.5 -35.35 -35.35 L-29.4 -40.5 Q-16.7 -50.0 0.0 -50.0 16.7 -50.0 29.45 -40.5 32.5 -38.2 35.35 -35.35 44.2 -26.5 47.7 -15.5 50.0 -8.2 50.0 0.0 50.0 8.25 47.7 15.5 L23.05 7.5 14.25 -19.6 -14.25 -19.6 -23.05 7.5 -47.65 15.5" fill="#000000" fill-rule="evenodd" stroke="none"/>
      <path d="M47.7 15.5 Q44.2 26.5 35.35 35.35 32.5 38.2 29.45 40.5 16.65 50.0 0.0 50.0 -16.65 50.0 -29.4 40.5 L-35.35 35.35 Q-44.2 26.5 -47.65 15.5 L-23.05 7.5 -14.25 -19.6 14.25 -19.6 23.05 7.5 47.7 15.5 M-23.05 7.5 L0.0 24.25 23.05 7.5 0.0 24.25 0.0 50.0 0.0 24.25 -23.05 7.5" fill="url(#gradient1)" fill-rule="evenodd" stroke="none"/>
      <path d="M47.7 15.5 Q44.2 26.5 35.35 35.35 32.5 38.2 29.45 40.5 16.65 50.0 0.0 50.0 -16.65 50.0 -29.4 40.5 L-35.35 35.35 Q-44.2 26.5 -47.65 15.5 L-23.05 7.5 -14.25 -19.6 14.25 -19.6 23.05 7.5 47.7 15.5" fill="none" stroke="#d98304" stroke-linecap="round" stroke-linejoin="round" stroke-width="4.0"/>
      <path d="M23.05 7.5 L0.0 24.25 0.0 50.0 M0.0 24.25 L-23.05 7.5" fill="none" stroke="#d98304" stroke-linecap="round" stroke-linejoin="round" stroke-width="2.0"/>
      <path d="M27.25 -58.0 Q25.8 -55.0 25.85 -50.8 25.8 -46.6 27.25 -43.7 28.45 -41.3 30.0 -40.8 L-30.0 -40.8 Q-28.45 -41.3 -27.25 -43.7 -25.8 -46.6 -25.8 -50.8 -25.8 -55.0 -27.25 -58.0 -28.45 -60.35 -30.0 -60.8 L-11.75 -60.7 -11.9 -60.8 2.0 -60.75 1.85 -60.8 29.75 -60.7 Q28.35 -60.15 27.25 -58.0" fill="#000000" fill-rule="evenodd" stroke="none"/>
      <path d="M0.0 -70.7 Q16.7 -70.7 29.45 -63.55 L14.25 -47.9 -14.25 -47.9 -29.4 -63.55 Q-16.7 -70.7 0.0 -70.7" fill="url(#gradient2)" fill-rule="evenodd" stroke="none"/>
      <path d="M0.0 -70.7 Q-16.7 -70.7 -29.4 -63.55 L-14.25 -47.9 14.25 -47.9 29.45 -63.55 Q16.7 -70.7 0.0 -70.7 Z" fill="none" stroke="#d98304" stroke-linecap="round" stroke-linejoin="round" stroke-width="4.0"/>
      <path d="M-56.45 -24.25 Q-52.95 -35.25 -44.1 -44.1 -41.25 -46.95 -38.15 -49.25 L-23.0 -28.35 -31.8 -1.25 -56.4 6.75 Q-58.75 -0.5 -58.75 -8.75 -58.75 -16.95 -56.45 -24.25" fill="url(#gradient3)" fill-rule="evenodd" stroke="none"/>
      <path d="M-56.45 -24.25 Q-52.95 -35.25 -44.1 -44.1 -41.25 -46.95 -38.15 -49.25 L-23.0 -28.35 -31.8 -1.25 -56.4 6.75 Q-58.75 -0.5 -58.75 -8.75 -58.75 -16.95 -56.45 -24.25 Z" fill="none" stroke="#d98304" stroke-linecap="round" stroke-linejoin="round" stroke-width="4.0"/>
      <path d="M38.2 -49.25 Q41.25 -46.95 44.1 -44.1 52.95 -35.25 56.45 -24.25 58.75 -16.95 58.75 -8.75 58.75 -0.5 56.45 6.75 L31.8 -1.25 23.0 -28.35 38.2 -49.25" fill="url(#gradient4)" fill-rule="evenodd" stroke="none"/>
      <path d="M38.2 -49.25 Q41.25 -46.95 44.1 -44.1 52.95 -35.25 56.45 -24.25 58.75 -16.95 58.75 -8.75 58.75 -0.5 56.45 6.75 L31.8 -1.25 23.0 -28.35 38.2 -49.25 Z" fill="none" stroke="#d98304" stroke-linecap="round" stroke-linejoin="round" stroke-width="4.0"/>
      <path d="M20.5 -35.35 Q20.5 -31.2 17.55 -28.3 14.65 -25.35 10.5 -25.35 6.35 -25.35 3.4 -28.3 0.55 -31.15 0.5 -35.25 L14.75 -44.45 Q16.25 -43.75 17.55 -42.45 20.5 -39.5 20.5 -35.35" fill="#ffffff" fill-rule="evenodd" stroke="none"/>
      <path d="M10.45 -30.7 Q8.5 -30.7 7.1 -32.1 5.75 -33.45 5.75 -35.4 5.75 -37.35 7.1 -38.75 8.5 -40.1 10.45 -40.1 12.4 -40.1 13.75 -38.75 15.15 -37.35 15.15 -35.4 15.15 -33.45 13.75 -32.1 12.4 -30.7 10.45 -30.7" fill="#000000" fill-rule="evenodd" stroke="none"/>
      <path d="M-20.5 -35.35 Q-20.5 -39.5 -17.55 -42.45 -16.25 -43.75 -14.75 -44.45 L-0.5 -35.25 Q-0.55 -31.15 -3.4 -28.3 -6.35 -25.35 -10.5 -25.35 -14.65 -25.35 -17.55 -28.3 -20.5 -31.2 -20.5 -35.35" fill="#ffffff" fill-rule="evenodd" stroke="none"/>
      <path d="M-10.45 -30.7 Q-12.4 -30.7 -13.75 -32.1 -15.15 -33.45 -15.15 -35.4 -15.15 -37.35 -13.75 -38.75 -12.4 -40.1 -10.45 -40.1 -8.5 -40.1 -7.1 -38.75 -5.75 -37.35 -5.75 -35.4 -5.75 -33.45 -7.1 -32.1 -8.5 -30.7 -10.45 -30.7" fill="#000000" fill-rule="evenodd" stroke="none"/>
    </g>
    <radialGradient cx="0" cy="0" gradientTransform="matrix(0.0772, 0.0, 0.0, 0.0772, -10.0, -10.0)" gradientUnits="userSpaceOnUse" id="gradient1" r="819.2" spreadMethod="pad">
      <stop offset="0.0" stop-color="#fff5ab"/>
      <stop offset="0.8627450980392157" stop-color="#ccb400"/>
      <stop offset="1.0" stop-color="#d3c123"/>
    </radialGradient>
    <radialGradient cx="0" cy="0" gradientTransform="matrix(0.0474, 0.0, 0.0, 0.0474, -9.25, -60.0)" gradientUnits="userSpaceOnUse" id="gradient2" r="819.2" spreadMethod="pad">
      <stop offset="0.0" stop-color="#fff5ab"/>
      <stop offset="0.8627450980392157" stop-color="#ccb400"/>
      <stop offset="1.0" stop-color="#d3c123"/>
    </radialGradient>
    <radialGradient cx="0" cy="0" gradientTransform="matrix(0.0772, 0.0, 0.0, 0.0772, -18.75, -18.75)" gradientUnits="userSpaceOnUse" id="gradient3" r="819.2" spreadMethod="pad">
      <stop offset="0.0" stop-color="#fff5ab"/>
      <stop offset="0.8627450980392157" stop-color="#ccb400"/>
      <stop offset="1.0" stop-color="#d3c123"/>
    </radialGradient>
    <radialGradient cx="0" cy="0" gradientTransform="matrix(0.0772, 0.0, 0.0, 0.0772, -1.25, -18.75)" gradientUnits="userSpaceOnUse" id="gradient4" r="819.2" spreadMethod="pad">
      <stop offset="0.0" stop-color="#fff5ab"/>
      <stop offset="0.8627450980392157" stop-color="#ccb400"/>
      <stop offset="1.0" stop-color="#d3c123"/>
    </radialGradient>
  </defs>
</svg>
