<?xml version="1.0" encoding="UTF-8" standalone="no"?>
<svg xmlns:ffdec="https://www.free-decompiler.com/flash" xmlns:xlink="http://www.w3.org/1999/xlink" ffdec:objectType="shape" height="47.5px" width="47.5px" xmlns="http://www.w3.org/2000/svg">
  <g transform="matrix(1.0, 0.0, 0.0, 1.0, 23.75, 23.75)">
    <path d="M16.8 -16.8 L23.75 0.0 16.8 16.8 0.0 23.75 -16.8 16.8 -23.75 0.0 -16.8 -16.8 0.0 -23.75 16.8 -16.8" fill="#ffffff" fill-opacity="0.2" fill-rule="evenodd" stroke="none"/>
    <path d="M12.75 -12.7 L18.0 0.0 12.75 12.75 0.0 18.0 -12.7 12.75 -18.0 0.0 -12.7 -12.7 0.0 -18.0 12.75 -12.7" fill="url(#gradient0)" fill-rule="evenodd" stroke="none"/>
    <path d="M12.75 -12.7 L18.0 0.0 12.75 12.75 0.0 18.0 -12.7 12.75 -18.0 0.0 -12.7 -12.7 0.0 -18.0 12.75 -12.7 Z" fill="none" stroke="#d98304" stroke-linecap="round" stroke-linejoin="round" stroke-width="4.0"/>
    <path d="M6.35 -6.35 L9.0 0.05 6.35 6.4 0.0 9.0 -6.4 6.4 -9.0 0.05 -6.4 -6.35 0.0 -9.0 6.35 -6.35" fill="#333333" fill-rule="evenodd" stroke="none"/>
  </g>
  <defs>
    <radialGradient cx="0" cy="0" gradientTransform="matrix(0.022, 0.0, 0.0, 0.022, 0.0, 0.0)" gradientUnits="userSpaceOnUse" id="gradient0" r="819.2" spreadMethod="pad">
      <stop offset="0.0" stop-color="#fff5ab"/>
      <stop offset="0.8627450980392157" stop-color="#ccb400"/>
      <stop offset="1.0" stop-color="#d3c123"/>
    </radialGradient>
  </defs>
</svg>
