<?xml version="1.0" encoding="UTF-8" standalone="no"?>
<svg xmlns:ffdec="https://www.free-decompiler.com/flash" xmlns:xlink="http://www.w3.org/1999/xlink" ffdec:objectType="shape" height="311.4px" width="209.85px" xmlns="http://www.w3.org/2000/svg">
  <g transform="matrix(1.0, 0.0, 0.0, 1.0, 94.9, 143.7)">
    <path d="M-71.8 86.0 L-58.75 63.4 Q-57.75 61.6 -58.0 59.6 -58.25 57.6 -59.7 56.15 -72.85 42.9 -78.9 26.7 L-58.75 26.7 Q-56.3 26.7 -54.5 24.95 -52.75 23.2 -52.75 20.7 L-52.75 -26.65 Q-52.75 -29.1 -54.5 -30.85 -56.25 -32.65 -58.75 -32.65 L-78.9 -32.65 Q-72.85 -48.95 -59.65 -62.2 -58.25 -63.65 -57.95 -65.65 -57.7 -67.7 -58.7 -69.45 L-86.65 -117.8 -56.05 -135.5 -28.2 -87.25 Q-27.2 -85.55 -25.3 -84.75 -23.45 -83.95 -21.5 -84.45 -11.3 -87.05 0.0 -87.0 11.3 -87.05 21.55 -84.45 23.5 -83.95 25.35 -84.75 27.2 -85.55 28.25 -87.25 L36.75 -102.0 77.55 -102.0 58.75 -69.45 Q57.7 -67.7 58.0 -65.65 58.25 -63.65 59.7 -62.2 72.85 -48.95 78.9 -32.65 L58.8 -32.65 Q56.3 -32.65 54.55 -30.85 52.8 -29.1 52.8 -26.65 L52.8 20.7 Q52.8 23.2 54.6 24.95 56.35 26.7 58.8 26.7 L78.9 26.7 Q72.85 42.9 59.7 56.15 58.25 57.65 58.0 59.7 57.75 61.7 58.85 63.5 L106.65 141.9 76.05 159.6 28.2 81.1 Q27.15 79.4 25.3 78.65 L21.6 78.4 Q11.35 81.0 0.0 81.0 -11.35 81.0 -21.55 78.4 -23.5 77.9 -25.35 78.7 -27.25 79.45 -28.25 81.2 L-35.8 94.3 -35.8 86.0 -71.8 86.0" fill="#000000" fill-rule="evenodd" stroke="none"/>
    <path d="M-71.8 86.0 L-78.75 86.0 -63.95 60.4 Q-81.25 42.95 -87.05 20.7 L-58.75 20.7 -58.75 -26.65 -87.05 -26.65 Q-81.3 -49.0 -63.9 -66.45 L-94.85 -120.0 -53.85 -143.7 -23.0 -90.25 Q-12.1 -93.05 0.0 -93.0 12.1 -93.05 23.05 -90.25 L35.2 -111.35 35.2 -102.0 36.75 -102.0 28.25 -87.25 Q27.2 -85.55 25.35 -84.75 23.5 -83.95 21.55 -84.45 11.3 -87.05 0.0 -87.0 -11.3 -87.05 -21.5 -84.45 -23.45 -83.95 -25.3 -84.75 -27.2 -85.55 -28.2 -87.25 L-56.05 -135.5 -86.65 -117.8 -58.7 -69.45 Q-57.7 -67.7 -57.95 -65.65 -58.25 -63.65 -59.65 -62.2 -72.85 -48.95 -78.9 -32.65 L-58.75 -32.65 Q-56.25 -32.65 -54.5 -30.85 -52.75 -29.1 -52.75 -26.65 L-52.75 20.7 Q-52.75 23.2 -54.5 24.95 -56.3 26.7 -58.75 26.7 L-78.9 26.7 Q-72.85 42.9 -59.7 56.15 -58.25 57.6 -58.0 59.6 -57.75 61.6 -58.75 63.4 L-71.8 86.0 M77.55 -102.0 L84.45 -102.0 63.95 -66.45 Q81.3 -48.95 87.1 -26.65 L58.8 -26.65 58.8 20.7 87.1 20.7 Q81.25 42.9 63.95 60.4 L114.95 144.0 73.95 167.7 23.05 84.2 Q12.1 87.0 0.0 87.0 -12.1 87.0 -23.05 84.2 L-35.8 106.3 -35.8 94.3 -28.25 81.2 Q-27.25 79.45 -25.35 78.7 -23.5 77.9 -21.55 78.4 -11.35 81.0 0.0 81.0 11.35 81.0 21.6 78.4 L25.3 78.65 Q27.15 79.4 28.2 81.1 L76.05 159.6 106.65 141.9 58.85 63.5 Q57.75 61.7 58.0 59.7 58.25 57.65 59.7 56.15 72.85 42.9 78.9 26.7 L58.8 26.7 Q56.35 26.7 54.6 24.95 52.8 23.2 52.8 20.7 L52.8 -26.65 Q52.8 -29.1 54.55 -30.85 56.3 -32.65 58.8 -32.65 L78.9 -32.65 Q72.85 -48.95 59.7 -62.2 58.25 -63.65 58.0 -65.65 57.7 -67.7 58.75 -69.45 L77.55 -102.0" fill="#666666" fill-rule="evenodd" stroke="none"/>
    <path d="M36.75 -102.0 L35.2 -102.0 35.2 -111.35 53.85 -143.65 94.85 -120.0 84.45 -102.0 77.55 -102.0 86.65 -117.8 56.05 -135.45 36.75 -102.0 M-35.8 94.3 L-35.8 106.3 -53.9 137.7 -94.9 114.05 -78.75 86.0 -71.8 86.0 -86.7 111.85 -56.1 129.5 -35.8 94.3" fill="#666666" fill-rule="evenodd" stroke="none"/>
    <path d="M77.55 -102.0 L36.75 -102.0 56.05 -135.45 86.65 -117.8 77.55 -102.0 M-71.8 86.0 L-35.8 86.0 -35.8 94.3 -56.1 129.5 -86.7 111.85 -71.8 86.0" fill="#000000" fill-rule="evenodd" stroke="none"/>
    <path d="M22.5 -2.0 Q22.5 7.3 15.9 13.9 9.3 20.5 0.0 20.5 -9.3 20.5 -15.9 13.9 -22.5 7.3 -22.5 -2.0 -22.5 -11.3 -15.9 -17.9 -9.3 -24.5 0.0 -24.5 9.3 -24.5 15.9 -17.9 22.5 -11.3 22.5 -2.0 M8.9 -10.8 Q5.2 -14.5 0.05 -14.45 -5.15 -14.5 -8.8 -10.8 -12.45 -7.15 -12.45 -1.95 -12.45 3.2 -8.8 6.85 -5.15 10.5 0.05 10.55 5.2 10.5 8.9 6.85 12.55 3.2 12.55 -1.95 12.55 -7.15 8.9 -10.8" fill="#666666" fill-rule="evenodd" stroke="none"/>
    <path d="M8.9 -10.8 Q12.55 -7.15 12.55 -1.95 12.55 3.2 8.9 6.85 5.2 10.5 0.05 10.55 -5.15 10.5 -8.8 6.85 -12.45 3.2 -12.45 -1.95 -12.45 -7.15 -8.8 -10.8 -5.15 -14.5 0.05 -14.45 5.2 -14.5 8.9 -10.8" fill="#333333" fill-rule="evenodd" stroke="none"/>
  </g>
</svg>
