<?xml version="1.0" encoding="UTF-8" standalone="no"?>
<svg xmlns:ffdec="https://www.free-decompiler.com/flash" xmlns:xlink="http://www.w3.org/1999/xlink" ffdec:objectType="shape" height="76.7px" width="43.75px" xmlns="http://www.w3.org/2000/svg">
  <g transform="matrix(1.0, 0.0, 0.0, 1.0, 54.75, 43.0)">
    <path d="M-31.65 -8.55 Q-31.15 -11.0 -29.8 -13.1 L-27.7 -15.7 -27.3 -16.05 Q-25.1 -18.15 -22.4 -19.15 L-21.0 -15.7 Q-23.25 -14.9 -25.05 -13.05 -28.3 -9.85 -28.3 -5.25 -28.3 -0.7 -25.05 2.55 L-23.0 4.15 Q-20.5 5.75 -17.25 5.75 L-14.05 5.3 -13.0 8.8 -17.3 9.4 Q-20.8 9.4 -23.7 8.0 L-24.95 7.3 -27.7 5.1 -28.75 3.95 Q-30.55 1.75 -31.35 -0.85 -31.95 -2.8 -32.0 -5.0 L-32.0 -5.3 -31.65 -8.55" fill="#000000" fill-rule="evenodd" stroke="none"/>
    <path d="M-37.95 -37.15 L-30.3 -41.0 -20.0 -40.0 -16.55 -19.75 Q-20.05 -20.0 -22.4 -19.15 -25.1 -18.15 -27.3 -16.05 L-37.95 -37.15 M-30.3 -41.0 L-22.4 -19.15 -30.3 -41.0" fill="#146b58" fill-rule="evenodd" stroke="none"/>
    <path d="M-51.55 -23.0 L-45.2 -31.15 -29.8 -13.1 -45.2 -31.15 -37.95 -37.15 -27.3 -16.05 -27.7 -15.7 -29.8 -13.1 Q-31.15 -11.0 -31.65 -8.55 L-51.55 -23.0 M-15.8 12.45 L-30.7 22.35 -47.1 21.2 -26.1 12.1 -25.0 12.15 -26.1 12.1 -25.0 12.15 -15.8 12.45 M-52.5 -5.25 L-52.15 -13.35 -32.1 -5.05 -32.0 -5.0 Q-31.95 -2.8 -31.35 -0.85 L-52.5 -5.25" fill="#105646" fill-rule="evenodd" stroke="none"/>
    <path d="M-51.55 -23.0 L-31.65 -8.55 -32.0 -5.3 -32.1 -5.05 -52.15 -13.35 -51.55 -23.0 M-13.0 8.8 L-15.8 12.45 -25.0 12.15 -26.1 12.1 -48.45 11.35 -52.6 11.2 -52.75 6.7 -52.5 0.0 -52.5 -5.25 -31.35 -0.85 Q-30.55 1.75 -28.75 3.95 L-27.7 5.1 -24.95 7.3 -25.1 7.95 -23.7 8.0 Q-20.8 9.4 -17.3 9.4 L-13.0 8.8 M-30.7 22.35 L-45.7 31.05 -47.1 21.2 -48.45 11.35 -26.1 12.1 -25.1 7.95 -52.75 6.7 -25.1 7.95 -26.1 12.1 -47.1 21.2 -30.7 22.35 M-28.75 3.95 L-52.5 0.0 -28.75 3.95" fill="#0c3f33" fill-rule="evenodd" stroke="none"/>
    <path d="M-32.0 -5.3 L-32.0 -5.0 -32.1 -5.05 -32.0 -5.3 M-24.95 7.3 L-23.7 8.0 -25.1 7.95 -24.95 7.3" fill="url(#gradient0)" fill-rule="evenodd" stroke="none"/>
    <path d="M-51.55 -23.0 L-31.65 -8.55 M-29.8 -13.1 L-45.2 -31.15 M-13.0 8.8 L-15.8 12.45 M-22.4 -19.15 L-30.3 -41.0 M-27.3 -16.05 L-37.95 -37.15 M-32.1 -5.05 L-32.0 -5.0 M-31.35 -0.85 L-52.5 -5.25 M-52.15 -13.35 L-32.1 -5.05 M-26.1 12.1 L-25.0 12.15 -26.1 12.1 -25.1 7.95 -52.75 6.7 M-24.95 7.3 L-25.1 7.95 -23.7 8.0 M-52.5 0.0 L-28.75 3.95" fill="none" stroke="#000000" stroke-linecap="square" stroke-linejoin="miter-clip" stroke-miterlimit="3.0" stroke-width="1.5"/>
    <path d="M-45.2 -31.15 L-51.55 -23.0 -52.15 -13.35 -52.5 -5.25 -52.5 0.0 -52.75 6.7 -52.6 11.2 -48.45 11.35 -47.1 21.2 -26.1 12.1 -48.45 11.35 M-31.65 -8.55 Q-31.15 -11.0 -29.8 -13.1 L-27.7 -15.7 -27.3 -16.05 Q-25.1 -18.15 -22.4 -19.15 L-21.0 -15.7 Q-23.25 -14.9 -25.05 -13.05 -28.3 -9.85 -28.3 -5.25 -28.3 -0.7 -25.05 2.55 L-23.0 4.15 Q-20.5 5.75 -17.25 5.75 L-14.05 5.3 -13.0 8.8 -17.3 9.4 Q-20.8 9.4 -23.7 8.0 L-24.95 7.3 -27.7 5.1 -28.75 3.95 Q-30.55 1.75 -31.35 -0.85 -31.95 -2.8 -32.0 -5.0 L-32.0 -5.3 -31.65 -8.55 M-45.2 -31.15 L-37.95 -37.15 -30.3 -41.0 -20.0 -40.0 -16.55 -19.75 Q-20.05 -20.0 -22.4 -19.15 M-15.8 12.45 L-30.7 22.35 -45.7 31.05 -47.1 21.2 -30.7 22.35 M-15.8 12.45 L-25.0 12.15" fill="none" stroke="#000000" stroke-linecap="square" stroke-linejoin="miter-clip" stroke-miterlimit="3.0" stroke-width="3.0"/>
  </g>
  <defs>
    <radialGradient cx="0" cy="0" fx="-236.8" fy="0" gradientTransform="matrix(0.0347, 0.0, 0.0, 0.0507, -44.5, -23.0)" gradientUnits="userSpaceOnUse" id="gradient0" r="819.2" spreadMethod="pad">
      <stop offset="0.0" stop-color="#a08001"/>
      <stop offset="0.6039215686274509" stop-color="#8c7201"/>
      <stop offset="0.7686274509803922" stop-color="#6c5b01"/>
      <stop offset="1.0" stop-color="#5c4901"/>
    </radialGradient>
  </defs>
</svg>
