<?xml version="1.0" encoding="UTF-8" standalone="no"?>
<svg xmlns:ffdec="https://www.free-decompiler.com/flash" xmlns:xlink="http://www.w3.org/1999/xlink" ffdec:objectType="shape" height="138.0px" width="128.0px" xmlns="http://www.w3.org/2000/svg">
  <g transform="matrix(1.0, 0.0, 0.0, 1.0, 63.5, 68.55)">
    <path d="M40.5 -54.55 L60.5 -54.55 60.5 -34.5 40.5 -34.5 40.5 -54.55 M60.5 35.5 L60.5 55.5 40.5 55.5 40.5 35.5 60.5 35.5 M10.5 65.45 L-9.5 65.45 -9.5 35.5 10.5 35.5 10.5 65.45 M-39.5 55.5 L-59.5 55.5 -59.5 35.5 -39.5 35.5 -39.5 55.5 M-59.5 -34.5 L-59.5 -54.55 -39.5 -54.55 -39.5 -34.5 -59.5 -34.5 M-9.5 -64.55 L10.5 -64.55 10.5 -34.5 0.5 -34.5 -9.5 -34.5 -9.5 -64.55" fill="#999999" fill-rule="evenodd" stroke="none"/>
    <path d="M60.5 -34.5 L60.5 -14.5 60.5 35.5 40.5 35.5 40.5 55.5 10.5 65.45 10.5 35.5 20.5 35.5 20.5 15.5 0.5 15.5 20.5 15.5 20.5 35.5 10.5 35.5 -9.5 35.5 -19.5 35.5 -19.5 15.5 0.5 15.5 -19.5 15.5 -19.5 35.5 -9.5 35.5 -9.5 65.45 -39.5 55.5 -39.5 35.5 -59.5 35.5 -59.5 -14.5 -59.5 -34.5 -39.5 -34.5 -39.5 -54.55 -9.5 -64.55 -9.5 -34.5 0.5 -34.5 10.5 -34.5 10.5 -64.55 40.5 -54.55 40.5 -34.5 60.5 -34.5 M0.5 -24.5 L0.5 -34.5 0.5 -24.5 -39.5 -24.5 -39.5 -14.5 -39.5 -4.5 0.5 -4.5 40.5 -4.5 40.5 -14.5 40.5 -24.5 0.5 -24.5 M60.5 -14.5 L40.5 -14.5 60.5 -14.5 M0.5 -4.5 L0.5 15.5 0.5 -4.5 M-59.5 -14.5 L-39.5 -14.5 -59.5 -14.5" fill="#cccccc" fill-rule="evenodd" stroke="none"/>
    <path d="M0.5 -24.5 L40.5 -24.5 40.5 -14.5 40.5 -4.5 0.5 -4.5 -39.5 -4.5 -39.5 -14.5 -39.5 -24.5 0.5 -24.5" fill="#000000" fill-rule="evenodd" stroke="none"/>
    <path d="M40.5 -54.55 L60.5 -54.55 60.5 -34.5 60.5 -14.5 60.5 35.5 60.5 55.5 40.5 55.5 10.5 65.45 -9.5 65.45 -39.5 55.5 -59.5 55.5 -59.5 35.5 -59.5 -14.5 -59.5 -34.5 -59.5 -54.55 -39.5 -54.55 -9.5 -64.55 10.5 -64.55 40.5 -54.55" fill="none" stroke="#333333" stroke-linecap="round" stroke-linejoin="miter-clip" stroke-miterlimit="10.0" stroke-width="6.0"/>
    <path d="M40.5 -54.55 L40.5 -34.5 60.5 -34.5 M-9.5 -64.55 L-9.5 -34.5 0.5 -34.5 10.5 -34.5 10.5 -64.55 M0.5 -34.5 L0.5 -24.5 40.5 -24.5 40.5 -14.5 60.5 -14.5 M0.5 -24.5 L-39.5 -24.5 -39.5 -14.5 -39.5 -4.5 0.5 -4.5 40.5 -4.5 40.5 -14.5 M60.5 35.5 L40.5 35.5 40.5 55.5 M10.5 35.5 L20.5 35.5 20.5 15.5 0.5 15.5 -19.5 15.5 -19.5 35.5 -9.5 35.5 10.5 35.5 10.5 65.45 M0.5 15.5 L0.5 -4.5 M-59.5 -34.5 L-39.5 -34.5 -39.5 -54.55 M-39.5 -14.5 L-59.5 -14.5 M-39.5 55.5 L-39.5 35.5 -59.5 35.5 M-9.5 35.5 L-9.5 65.45" fill="none" stroke="#333333" stroke-linecap="round" stroke-linejoin="miter-clip" stroke-miterlimit="10.0" stroke-width="4.0"/>
    <path d="M28.5 -17.55 L22.5 -17.55 22.5 -11.55 28.5 -11.55 28.5 -17.55 M32.5 -21.55 L32.5 -7.55 18.5 -7.55 18.5 -21.55 32.5 -21.55" fill="#990099" fill-rule="evenodd" stroke="none"/>
    <path d="M28.5 -17.55 L28.5 -11.55 22.5 -11.55 22.5 -17.55 28.5 -17.55" fill="#ff00ff" fill-rule="evenodd" stroke="none"/>
  </g>
</svg>
