<?xml version="1.0" encoding="UTF-8" standalone="no"?>
<svg xmlns:ffdec="https://www.free-decompiler.com/flash" xmlns:xlink="http://www.w3.org/1999/xlink" ffdec:objectType="shape" height="183.7px" width="62.8px" xmlns="http://www.w3.org/2000/svg">
  <g transform="matrix(1.0, 0.0, 0.0, 1.0, 31.4, 92.4)">
    <path d="M15.0 -90.0 L15.0 -85.0 5.0 -75.0 5.0 -70.0 -5.0 -70.0 5.0 -70.0 30.0 -70.0 30.0 -65.0 25.0 -65.0 20.0 -65.0 15.0 -60.0 10.0 -65.0 -10.0 -65.0 -15.0 -60.0 -20.0 -65.0 -25.0 -65.0 -30.0 -65.0 -30.0 -70.0 -5.0 -70.0 -5.0 -75.0 -15.0 -85.0 -15.0 -90.0 -5.0 -80.0 5.0 -80.0 15.0 -90.0 M25.0 -60.0 L20.0 -55.0 20.0 -52.5 11.25 -43.75 5.0 -40.0 -5.0 -40.0 -11.25 -43.75 -10.0 -45.0 -11.25 -43.75 -20.0 -52.5 -20.0 -55.0 -25.0 -60.0 -20.0 -60.0 -15.0 -55.0 -10.0 -60.0 10.0 -60.0 15.0 -55.0 20.0 -60.0 25.0 -60.0 M20.0 -45.0 L30.0 -35.0 30.0 -23.5 25.0 -18.5 25.0 -30.0 17.5 -37.5 20.0 -45.0 M15.0 35.0 L20.0 40.0 0.0 40.0 -20.0 40.0 -15.0 35.0 -10.0 35.0 -5.0 35.0 0.0 35.0 5.0 35.0 10.0 35.0 15.0 35.0 M-30.0 -23.5 L-30.0 -35.0 -20.0 -45.0 -17.5 -37.5 -25.0 -30.0 -25.0 -18.5 -30.0 -23.5 M5.0 -45.0 L5.0 -50.0 0.0 -55.0 -5.0 -50.0 -5.0 -45.0 5.0 -45.0 M5.0 -50.0 L5.0 -55.0 10.0 -60.0 5.0 -55.0 5.0 -50.0 M10.0 -45.0 L11.25 -43.75 10.0 -45.0 M0.0 -10.0 L5.0 -5.0 0.0 0.0 -5.0 -5.0 0.0 -10.0 M0.0 35.0 L0.0 40.0 0.0 35.0 M-10.0 -60.0 L-5.0 -55.0 -5.0 -50.0 -5.0 -55.0 -10.0 -60.0" fill="#b49c16" fill-rule="evenodd" stroke="none"/>
    <path d="M15.0 -90.0 L5.0 -80.0 -5.0 -80.0 -15.0 -90.0 15.0 -90.0 M-15.0 -85.0 L-5.0 -75.0 -5.0 -70.0 -30.0 -70.0 -15.0 -85.0 M5.0 -70.0 L5.0 -75.0 15.0 -85.0 30.0 -70.0 5.0 -70.0 M-5.0 -45.0 L-5.0 -50.0 0.0 -55.0 5.0 -50.0 5.0 -45.0 -5.0 -45.0" fill="#dbbe1a" fill-rule="evenodd" stroke="none"/>
    <path d="M25.0 -65.0 L25.0 -60.0 20.0 -60.0 15.0 -55.0 10.0 -60.0 -10.0 -60.0 -15.0 -55.0 -20.0 -60.0 -25.0 -60.0 -25.0 -65.0 -20.0 -65.0 -15.0 -60.0 -10.0 -65.0 10.0 -65.0 15.0 -60.0 20.0 -65.0 25.0 -65.0 M17.5 -37.5 L25.0 -30.0 25.0 -18.5 20.0 -13.5 0.0 -13.5 -20.0 -13.5 -25.0 -18.5 -25.0 -30.0 -17.5 -37.5 -10.0 -30.0 0.0 -30.0 0.0 -25.0 5.0 -25.0 5.0 -20.0 15.0 -20.0 20.0 -25.0 15.0 -20.0 5.0 -20.0 5.0 -25.0 0.0 -25.0 0.0 -30.0 10.0 -30.0 17.5 -37.5 M-20.0 -25.0 L-15.0 -20.0 -5.0 -20.0 -5.0 -25.0 0.0 -25.0 0.0 -13.5 0.0 -25.0 -5.0 -25.0 -5.0 -20.0 -15.0 -20.0 -20.0 -25.0" fill="#9f8a13" fill-rule="evenodd" stroke="none"/>
    <path d="M20.0 -52.5 L20.0 -45.0 15.0 -40.0 10.0 -35.0 5.0 -35.0 0.0 -35.0 -5.0 -35.0 -10.0 -35.0 -15.0 -40.0 -20.0 -45.0 -20.0 -52.5 -11.25 -43.75 -15.0 -40.0 -11.25 -43.75 -5.0 -40.0 5.0 -40.0 11.25 -43.75 20.0 -52.5 M15.0 -40.0 L11.25 -43.75 15.0 -40.0" fill="#a58f14" fill-rule="evenodd" stroke="none"/>
    <path d="M30.0 -23.5 L30.0 -20.0 20.0 -10.0 0.0 -10.0 0.0 -13.5 0.0 -10.0 -20.0 -10.0 -30.0 -20.0 -30.0 -23.5 -25.0 -18.5 -20.0 -13.5 0.0 -13.5 20.0 -13.5 25.0 -18.5 30.0 -23.5 M20.0 10.0 L15.0 15.0 15.0 35.0 10.0 35.0 10.0 10.0 15.0 5.0 20.0 10.0 M-15.0 35.0 L-15.0 15.0 -20.0 10.0 -15.0 5.0 -10.0 10.0 -10.0 35.0 -15.0 35.0 M15.0 -40.0 L20.0 -45.0 17.5 -37.5 10.0 -30.0 0.0 -30.0 0.0 -35.0 0.0 -30.0 5.0 -35.0 10.0 -35.0 15.0 -40.0 M-15.0 -40.0 L-10.0 -35.0 -5.0 -35.0 0.0 -35.0 5.0 -35.0 0.0 -30.0 -10.0 -30.0 -17.5 -37.5 -20.0 -45.0 -15.0 -40.0 M0.0 10.0 L5.0 5.0 5.0 35.0 0.0 35.0 -5.0 35.0 -5.0 5.0 0.0 10.0 0.0 35.0 0.0 10.0 M-5.0 -35.0 L0.0 -30.0 -5.0 -35.0" fill="#73640d" fill-rule="evenodd" stroke="none"/>
    <path d="M5.0 -5.0 L0.0 -10.0 20.0 -10.0 15.0 -5.0 5.0 -5.0 M-5.0 -5.0 L-15.0 -5.0 -20.0 -10.0 0.0 -10.0 -5.0 -5.0" fill="#393206" fill-rule="evenodd" stroke="none"/>
    <path d="M20.0 -10.0 L30.0 0.0 20.0 10.0 15.0 5.0 5.0 -5.0 15.0 -5.0 20.0 -10.0 M20.0 40.0 L20.0 45.0 0.0 45.0 -20.0 45.0 -20.0 40.0 0.0 40.0 20.0 40.0 M-20.0 10.0 L-30.0 0.0 -20.0 -10.0 -15.0 -5.0 -5.0 -5.0 -15.0 5.0 -20.0 10.0 M0.0 40.0 L0.0 45.0 0.0 40.0" fill="#514809" fill-rule="evenodd" stroke="none"/>
    <path d="M5.0 5.0 L0.0 10.0 -5.0 5.0 -5.0 35.0 -10.0 35.0 -10.0 10.0 -15.0 5.0 -5.0 -5.0 0.0 0.0 5.0 -5.0 15.0 5.0 10.0 10.0 10.0 35.0 5.0 35.0 5.0 5.0" fill="#978311" fill-rule="evenodd" stroke="none"/>
    <path d="M15.0 -85.0 L15.0 -90.0 5.0 -80.0 -5.0 -80.0 -15.0 -90.0 -15.0 -85.0 -5.0 -75.0 -5.0 -70.0 5.0 -70.0 5.0 -75.0 15.0 -85.0 30.0 -70.0 30.0 -65.0 25.0 -65.0 25.0 -60.0 20.0 -55.0 20.0 -52.5 20.0 -45.0 30.0 -35.0 30.0 -23.5 30.0 -20.0 20.0 -10.0 30.0 0.0 20.0 10.0 15.0 15.0 15.0 35.0 20.0 40.0 20.0 45.0 0.0 45.0 -20.0 45.0 -20.0 40.0 -15.0 35.0 -15.0 15.0 -20.0 10.0 -30.0 0.0 -20.0 -10.0 -30.0 -20.0 -30.0 -23.5 -30.0 -35.0 -20.0 -45.0 -20.0 -52.5 -20.0 -55.0 -25.0 -60.0 -25.0 -65.0 -30.0 -65.0 -30.0 -70.0 -15.0 -85.0 M25.0 -65.0 L20.0 -65.0 15.0 -60.0 10.0 -65.0 -10.0 -65.0 -15.0 -60.0 -20.0 -65.0 -25.0 -65.0 M-5.0 -45.0 L5.0 -45.0 M10.0 -60.0 L5.0 -55.0 5.0 -50.0 M30.0 -70.0 L5.0 -70.0 M11.25 -43.75 L15.0 -40.0 20.0 -45.0 M0.0 -30.0 L0.0 -25.0 5.0 -25.0 5.0 -20.0 15.0 -20.0 20.0 -25.0 M-15.0 -40.0 L-10.0 -35.0 -5.0 -35.0 0.0 -35.0 5.0 -35.0 10.0 -35.0 15.0 -40.0 M0.0 -35.0 L0.0 -30.0 5.0 -35.0 M11.25 -43.75 L10.0 -45.0 M0.0 -10.0 L5.0 -5.0 15.0 -5.0 20.0 -10.0 0.0 -10.0 0.0 -13.5 0.0 -25.0 -5.0 -25.0 -5.0 -20.0 -15.0 -20.0 -20.0 -25.0 M5.0 5.0 L0.0 10.0 0.0 35.0 5.0 35.0 10.0 35.0 15.0 35.0 M15.0 5.0 L20.0 10.0 M0.0 45.0 L0.0 40.0 -20.0 40.0 M0.0 40.0 L0.0 35.0 -5.0 35.0 -10.0 35.0 -15.0 35.0 M20.0 40.0 L0.0 40.0 M5.0 -5.0 L0.0 0.0 -5.0 -5.0 -15.0 5.0 -20.0 10.0 M5.0 -5.0 L15.0 5.0 M-5.0 -50.0 L-5.0 -55.0 -10.0 -60.0 M-5.0 -70.0 L-30.0 -70.0 M-15.0 -40.0 L-20.0 -45.0 M0.0 -30.0 L-5.0 -35.0 M-11.25 -43.75 L-15.0 -40.0 M-5.0 -40.0 L5.0 -40.0 M-11.25 -43.75 L-10.0 -45.0 M-5.0 -5.0 L-15.0 -5.0 -20.0 -10.0 0.0 -10.0 -5.0 -5.0 M15.0 -90.0 L-15.0 -90.0 M0.0 10.0 L-5.0 5.0" fill="none" stroke="#393206" stroke-linecap="square" stroke-linejoin="miter-clip" stroke-miterlimit="3.0" stroke-width="2.0"/>
    <path d="M30.0 55.0 L30.0 90.0 -30.0 90.0 -30.0 55.0 -25.0 55.0 -25.0 45.0 25.0 45.0 25.0 55.0 30.0 55.0 M25.0 55.0 L-25.0 55.0 25.0 55.0 M-20.0 75.0 L20.0 75.0 -20.0 75.0 M-20.0 70.0 L20.0 70.0 -20.0 70.0 M-20.0 65.0 L20.0 65.0 -20.0 65.0" fill="#86740f" fill-rule="evenodd" stroke="none"/>
    <path d="M20.0 65.0 L-20.0 65.0 M20.0 70.0 L-20.0 70.0 M20.0 75.0 L-20.0 75.0" fill="none" stroke="#665a0b" stroke-linecap="square" stroke-linejoin="miter-clip" stroke-miterlimit="3.0" stroke-width="2.0"/>
    <path d="M30.0 55.0 L30.0 90.0 -30.0 90.0 -30.0 55.0 -25.0 55.0" fill="none" stroke="#393206" stroke-linecap="square" stroke-linejoin="miter-clip" stroke-miterlimit="3.0" stroke-width="2.0"/>
    <path d="M-25.0 55.0 L-25.0 45.0 25.0 45.0 25.0 55.0 -25.0 55.0" fill="none" stroke="#393206" stroke-linecap="round" stroke-linejoin="miter-clip" stroke-miterlimit="3.0" stroke-width="2.0"/>
    <path d="M25.0 55.0 L30.0 55.0" fill="none" stroke="#393206" stroke-linecap="round" stroke-linejoin="miter-clip" stroke-miterlimit="3.0" stroke-width="2.0"/>
  </g>
</svg>
