<?xml version="1.0" encoding="UTF-8" standalone="no"?>
<svg xmlns:ffdec="https://www.free-decompiler.com/flash" xmlns:xlink="http://www.w3.org/1999/xlink" ffdec:objectType="shape" height="240.0px" width="80.0px" xmlns="http://www.w3.org/2000/svg">
  <g transform="matrix(1.0, 0.0, 0.0, 1.0, 40.0, 120.0)">
    <path d="M0.0 -110.0 L40.0 -70.0 20.0 -70.0 20.0 70.0 40.0 70.0 0.0 110.0 40.0 110.0 40.0 120.0 -40.0 120.0 -40.0 110.0 0.0 110.0 -40.0 70.0 -20.0 70.0 -20.0 -70.0 -40.0 -70.0 0.0 -110.0 -40.0 -110.0 -40.0 -120.0 40.0 -120.0 40.0 -110.0 0.0 -110.0 M38.0 118.0 L38.0 112.0 -38.0 112.0 -38.0 118.0 38.0 118.0 M18.6 -71.4 Q19.15 -72.0 20.0 -72.0 L35.15 -72.0 0.0 -107.15 -35.15 -72.0 -20.0 -72.0 Q-19.15 -72.0 -18.55 -71.4 -18.0 -70.85 -18.0 -70.0 L-18.0 70.0 Q-18.0 70.85 -18.55 71.45 -19.15 72.0 -20.0 72.0 L-35.15 72.0 0.0 107.15 35.15 72.0 20.0 72.0 Q19.15 72.0 18.6 71.45 18.0 70.85 18.0 70.0 L18.0 -70.0 Q18.0 -70.85 18.6 -71.4 M38.0 -112.0 L38.0 -118.0 -38.0 -118.0 -38.0 -112.0 38.0 -112.0" fill="#ffff00" fill-rule="evenodd" stroke="none"/>
    <path d="M38.0 -112.0 L-38.0 -112.0 -38.0 -118.0 38.0 -118.0 38.0 -112.0 M18.6 -71.4 Q18.0 -70.85 18.0 -70.0 L18.0 70.0 Q18.0 70.85 18.6 71.45 19.15 72.0 20.0 72.0 L35.15 72.0 0.0 107.15 -35.15 72.0 -20.0 72.0 Q-19.15 72.0 -18.55 71.45 -18.0 70.85 -18.0 70.0 L-18.0 -70.0 Q-18.0 -70.85 -18.55 -71.4 -19.15 -72.0 -20.0 -72.0 L-35.15 -72.0 0.0 -107.15 35.15 -72.0 20.0 -72.0 Q19.15 -72.0 18.6 -71.4 M38.0 118.0 L-38.0 118.0 -38.0 112.0 38.0 112.0 38.0 118.0" fill="#ffec00" fill-rule="evenodd" stroke="none"/>
  </g>
</svg>
