<?xml version="1.0" encoding="UTF-8" standalone="no"?>
<svg xmlns:ffdec="https://www.free-decompiler.com/flash" xmlns:xlink="http://www.w3.org/1999/xlink" ffdec:objectType="shape" height="38.0px" width="38.0px" xmlns="http://www.w3.org/2000/svg">
  <g transform="matrix(1.0, 0.0, 0.0, 1.0, 19.0, 19.0)">
    <path d="M19.0 0.0 Q18.95 7.85 13.4 13.45 7.85 19.0 0.0 19.0 -7.9 19.0 -13.45 13.45 -19.0 7.85 -19.0 0.0 -19.0 -7.9 -13.45 -13.45 -7.9 -19.0 0.0 -19.0 7.85 -19.0 13.4 -13.45 18.95 -7.9 19.0 0.0" fill="url(#gradient0)" fill-rule="evenodd" stroke="none"/>
    <path d="M4.05 -7.65 L15.3 -11.25 8.4 -1.7 18.25 4.8 6.45 5.4 7.5 17.15 -0.35 8.35 -8.9 16.5 -6.85 4.85 -18.55 3.25 -8.2 -2.4 -14.25 -12.5 -3.35 -7.95 0.8 -19.0 4.05 -7.65" fill="#ff3366" fill-rule="evenodd" stroke="none"/>
  </g>
  <defs>
    <linearGradient gradientTransform="matrix(0.0, 0.0201, -0.0232, 0.0, 0.0, -0.5)" gradientUnits="userSpaceOnUse" id="gradient0" spreadMethod="pad" x1="-819.2" x2="819.2">
      <stop offset="0.0" stop-color="#ff0066"/>
      <stop offset="1.0" stop-color="#cc0033"/>
    </linearGradient>
  </defs>
</svg>
