<?xml version="1.0" encoding="UTF-8" standalone="no"?>
<svg xmlns:ffdec="https://www.free-decompiler.com/flash" xmlns:xlink="http://www.w3.org/1999/xlink" ffdec:objectType="shape" height="22.0px" width="114.1px" xmlns="http://www.w3.org/2000/svg">
  <g transform="matrix(1.0, 0.0, 0.0, 1.0, 0.0, 0.0)">
    <path d="M101.1 22.0 L112.1 11.0 101.1 0.0 103.1 0.0 114.1 11.0 103.1 22.0 101.1 22.0" fill="#cd6701" fill-rule="evenodd" stroke="none"/>
    <path d="M101.1 0.0 L112.1 11.0 0.0 11.0 0.05 10.05 Q0.55 0.0 11.8 0.0 L101.1 0.0" fill="url(#gradient0)" fill-rule="evenodd" stroke="none"/>
    <path d="M112.1 11.0 L101.1 22.0 11.8 22.0 Q0.0 22.0 0.0 11.0 L112.1 11.0" fill="url(#gradient1)" fill-rule="evenodd" stroke="none"/>
    <path d="M0.0 11.0 L0.0 10.05 0.05 10.05 0.0 11.0" fill="#666666" fill-rule="evenodd" stroke="none"/>
  </g>
  <defs>
    <linearGradient gradientTransform="matrix(0.0, 0.011, -0.0684, 0.0, 56.05, 12.0)" gradientUnits="userSpaceOnUse" id="gradient0" spreadMethod="pad" x1="-819.2" x2="819.2">
      <stop offset="0.0" stop-color="#fdca02"/>
      <stop offset="1.0" stop-color="#ffec00"/>
    </linearGradient>
    <linearGradient gradientTransform="matrix(0.0, 0.011, -0.0684, 0.0, 56.05, 12.0)" gradientUnits="userSpaceOnUse" id="gradient1" spreadMethod="pad" x1="-819.2" x2="819.2">
      <stop offset="0.0" stop-color="#fdca02"/>
      <stop offset="1.0" stop-color="#eca013"/>
    </linearGradient>
  </defs>
</svg>
