<?xml version="1.0" encoding="UTF-8" standalone="no"?>
<svg xmlns:ffdec="https://www.free-decompiler.com/flash" xmlns:xlink="http://www.w3.org/1999/xlink" ffdec:objectType="shape" height="72.0px" width="306.95px" xmlns="http://www.w3.org/2000/svg">
  <g transform="matrix(1.0, 0.0, 0.0, 1.0, 1.0, 1.0)">
    <path d="M304.95 35.0 Q304.9 49.5 294.7 59.75 284.45 69.95 269.95 70.0 L12.0 70.0 Q0.0 70.0 0.0 58.0 L0.0 12.0 Q0.0 0.0 12.0 0.0 L269.95 0.0 Q284.45 0.0 294.7 10.25 304.9 20.45 304.95 35.0 Z" fill="none" stroke="#393939" stroke-linecap="round" stroke-linejoin="round" stroke-width="2.0"/>
    <path d="M304.95 35.0 Q304.9 49.5 294.7 59.75 284.45 69.95 269.95 70.0 L12.0 70.0 Q0.0 70.0 0.0 58.0 L0.0 12.0 Q0.0 0.0 12.0 0.0 L269.95 0.0 Q284.45 0.0 294.7 10.25 304.9 20.45 304.95 35.0" fill="#000000" fill-opacity="0.8" fill-rule="evenodd" stroke="none"/>
    <path d="M300.95 23.5 L299.25 21.65 Q289.6 12.0 275.95 12.0 L12.0 12.0 Q2.3 12.0 2.0 21.4 L2.0 12.0 Q2.0 2.0 12.0 2.0 L269.95 2.0 Q283.6 2.0 293.25 11.65 298.55 16.95 300.95 23.5" fill="#ffffff" fill-opacity="0.18039216" fill-rule="evenodd" stroke="none"/>
  </g>
</svg>
