<?xml version="1.0" encoding="UTF-8" standalone="no"?>
<svg xmlns:ffdec="https://www.free-decompiler.com/flash" xmlns:xlink="http://www.w3.org/1999/xlink" ffdec:objectType="shape" height="21.5px" width="298.95px" xmlns="http://www.w3.org/2000/svg">
  <g transform="matrix(1.0, 0.0, 0.0, 1.0, -2.0, -2.0)">
    <path d="M299.25 21.65 Q289.6 12.0 275.95 12.0 L274.6 12.0 274.5 12.0 271.3 12.0 269.95 12.0 268.6 12.0 268.5 12.0 267.3 12.0 265.95 12.0 264.6 12.0 264.5 12.0 261.35 12.0 261.3 12.0 259.95 12.0 258.6 12.0 258.5 12.0 12.0 12.0 Q2.3 12.0 2.0 21.4 L2.0 12.0 Q2.0 2.0 12.0 2.0 L258.5 2.0 258.6 2.0 259.95 2.0 261.3 2.0 261.35 2.0 268.5 2.0 268.6 2.0 269.95 2.0 Q283.6 2.0 293.25 11.65 298.55 16.95 300.95 23.5 L299.25 21.65" fill="#ffffff" fill-opacity="0.18039216" fill-rule="evenodd" stroke="none"/>
  </g>
</svg>
