<?xml version="1.0" encoding="UTF-8" standalone="no"?>
<svg xmlns:ffdec="https://www.free-decompiler.com/flash" xmlns:xlink="http://www.w3.org/1999/xlink" ffdec:objectType="shape" height="92.0px" width="306.95px" xmlns="http://www.w3.org/2000/svg">
  <g transform="matrix(1.0, 0.0, 0.0, 1.0, 1.0, 1.0)">
    <path d="M304.95 35.0 Q304.9 49.5 294.7 59.75 284.45 69.95 269.95 70.0 L177.95 70.0 177.95 78.0 Q177.95 90.0 165.95 90.0 L12.0 90.0 Q0.0 90.0 0.0 78.0 L0.0 12.0 Q0.0 0.0 12.0 0.0 L258.5 0.0 259.95 0.0 261.35 0.0 268.5 0.0 269.95 0.0 Q284.45 0.0 294.7 10.25 304.9 20.45 304.95 35.0 Z" fill="none" stroke="#393939" stroke-linecap="round" stroke-linejoin="round" stroke-width="2.0"/>
    <path d="M304.95 35.0 Q304.9 49.5 294.7 59.75 284.45 69.95 269.95 70.0 L177.95 70.0 177.95 78.0 Q177.95 90.0 165.95 90.0 L12.0 90.0 Q0.0 90.0 0.0 78.0 L0.0 12.0 Q0.0 0.0 12.0 0.0 L258.5 0.0 259.95 0.0 261.35 0.0 268.5 0.0 269.95 0.0 Q284.45 0.0 294.7 10.25 304.9 20.45 304.95 35.0" fill="#000000" fill-opacity="0.8" fill-rule="evenodd" stroke="none"/>
    <path d="M166.0 88.0 L11.95 88.0 11.95 86.0 166.0 86.0 166.0 88.0" fill="url(#gradient0)" fill-rule="evenodd" stroke="none"/>
  </g>
  <defs>
    <linearGradient gradientTransform="matrix(0.094, 0.0, 0.0, 0.0012, 89.0, 87.0)" gradientUnits="userSpaceOnUse" id="gradient0" spreadMethod="pad" x1="-819.2" x2="819.2">
      <stop offset="0.0" stop-color="#ffffff" stop-opacity="0.0"/>
      <stop offset="0.20784313725490197" stop-color="#ffffff" stop-opacity="0.2"/>
      <stop offset="0.8235294117647058" stop-color="#ffffff" stop-opacity="0.2"/>
      <stop offset="1.0" stop-color="#ffffff" stop-opacity="0.0"/>
    </linearGradient>
  </defs>
</svg>
