<?xml version="1.0" encoding="UTF-8" standalone="no"?>
<svg xmlns:ffdec="https://www.free-decompiler.com/flash" xmlns:xlink="http://www.w3.org/1999/xlink" ffdec:objectType="shape" height="50.0px" width="50.0px" xmlns="http://www.w3.org/2000/svg">
  <g transform="matrix(1.0, 0.0, 0.0, 1.0, 0.0, 0.0)">
    <path d="M50.0 25.0 Q49.95 35.3 42.65 42.65 35.3 50.0 25.0 50.0 14.65 50.0 7.3 42.65 -0.05 35.3 0.0 25.0 -0.05 14.65 7.3 7.3 14.65 -0.05 25.0 0.0 35.3 -0.05 42.65 7.3 49.95 14.65 50.0 25.0 M25.05 38.0 Q30.4 37.95 34.2 34.15 38.0 30.35 38.05 25.0 38.0 19.6 34.2 15.75 30.4 11.95 25.05 12.0 19.65 11.95 15.8 15.75 12.0 19.6 12.05 25.0 12.0 30.35 15.8 34.15 19.65 37.95 25.05 38.0" fill="url(#gradient0)" fill-rule="evenodd" stroke="none"/>
    <path d="M25.05 38.0 Q19.65 37.95 15.8 34.15 12.0 30.35 12.05 25.0 12.0 19.6 15.8 15.75 19.65 11.95 25.05 12.0 30.4 11.95 34.2 15.75 38.0 19.6 38.05 25.0 38.0 30.35 34.2 34.15 30.4 37.95 25.05 38.0" fill="#000000" fill-rule="evenodd" stroke="none"/>
  </g>
  <defs>
    <linearGradient gradientTransform="matrix(0.0, 0.0183, -0.0305, 0.0, 27.85, 17.0)" gradientUnits="userSpaceOnUse" id="gradient0" spreadMethod="pad" x1="-819.2" x2="819.2">
      <stop offset="0.0" stop-color="#5a6979"/>
      <stop offset="1.0" stop-color="#a4bedb"/>
    </linearGradient>
  </defs>
</svg>
