<?xml version="1.0" encoding="UTF-8" standalone="no"?>
<svg xmlns:ffdec="https://www.free-decompiler.com/flash" xmlns:xlink="http://www.w3.org/1999/xlink" ffdec:objectType="shape" height="350.0px" width="590.0px" xmlns="http://www.w3.org/2000/svg">
  <g transform="matrix(1.0, 0.0, 0.0, 1.0, 0.0, -0.05)">
    <path d="M590.0 350.05 L0.0 350.05 0.0 0.05 590.0 0.05 590.0 350.05" fill="url(#gradient0)" fill-rule="evenodd" stroke="none"/>
    <path d="M189.0 90.0 L249.0 90.0 Q261.0 90.0 261.0 102.0 L261.0 120.0 478.0 120.0 Q489.75 120.0 490.0 131.5 L490.0 228.0 Q490.0 240.0 478.0 240.0 L112.0 240.0 Q100.0 240.0 100.0 228.0 L100.0 102.0 Q100.0 90.0 112.0 90.0 L188.0 90.0" fill="none" stroke="#f709c8" stroke-linecap="round" stroke-linejoin="round" stroke-opacity="0.7019608" stroke-width="4.0"/>
    <path d="M490.0 132.0 L490.0 228.0 Q490.0 240.0 478.0 240.0 L112.0 240.0 Q100.0 240.0 100.0 228.0 L100.0 102.0 Q100.0 90.0 112.0 90.0 L249.0 90.0 Q261.0 90.0 261.0 102.0 L261.0 120.0 478.0 120.0 Q490.0 120.0 490.0 132.0" fill="#000000" fill-opacity="0.8" fill-rule="evenodd" stroke="none"/>
    <path d="M488.0 132.0 L488.0 138.4 Q487.6 129.0 478.0 129.0 L261.0 129.0 261.0 122.0 478.0 122.0 Q487.95 122.0 488.0 132.0 M259.0 102.0 L259.0 108.4 Q258.7 99.0 249.0 99.0 L112.05 99.0 Q102.4 99.0 102.0 108.4 L102.0 102.0 Q102.0 92.0 112.05 92.0 L249.0 92.0 Q259.0 92.0 259.0 102.0" fill="#ffffff" fill-opacity="0.12156863" fill-rule="evenodd" stroke="none"/>
    <path d="M477.0 238.0 L117.0 238.0 117.0 236.0 477.0 236.0 477.0 238.0" fill="url(#gradient1)" fill-rule="evenodd" stroke="none"/>
  </g>
  <defs>
    <radialGradient cx="0" cy="0" gradientTransform="matrix(0.0, 0.2014, -0.3582, 0.0, 295.0, 175.0)" gradientUnits="userSpaceOnUse" id="gradient0" r="819.2" spreadMethod="pad">
      <stop offset="0.0" stop-color="#628bc2" stop-opacity="0.5019608"/>
      <stop offset="1.0" stop-color="#628fc1" stop-opacity="0.0"/>
    </radialGradient>
    <linearGradient gradientTransform="matrix(0.2197, 0.0, 0.0, 0.0012, 297.0, 237.0)" gradientUnits="userSpaceOnUse" id="gradient1" spreadMethod="pad" x1="-819.2" x2="819.2">
      <stop offset="0.0" stop-color="#ffffff" stop-opacity="0.0"/>
      <stop offset="0.20784313725490197" stop-color="#ffffff" stop-opacity="0.14117648"/>
      <stop offset="0.8196078431372549" stop-color="#ffffff" stop-opacity="0.14117648"/>
      <stop offset="1.0" stop-color="#ffffff" stop-opacity="0.0"/>
    </linearGradient>
  </defs>
</svg>
