<?xml version="1.0" encoding="UTF-8" standalone="no"?>
<svg xmlns:ffdec="https://www.free-decompiler.com/flash" xmlns:xlink="http://www.w3.org/1999/xlink" ffdec:objectType="shape" height="19.2px" width="15.3px" xmlns="http://www.w3.org/2000/svg">
  <g transform="matrix(1.0, 0.0, 0.0, 1.0, -9.35, -6.55)">
    <path d="M18.6 10.3 Q17.95 9.65 17.0 9.65 16.0 9.65 15.35 10.3 14.7 11.0 14.7 11.95 L14.7 14.25 19.3 14.25 19.3 11.95 Q19.3 11.0 18.6 10.3 M22.35 11.95 L22.35 14.25 23.5 14.25 Q24.65 14.25 24.65 15.4 L24.65 24.6 Q24.65 25.75 23.5 25.75 L10.5 25.75 Q9.35 25.75 9.35 24.6 L9.35 15.4 Q9.35 14.25 10.5 14.25 L11.6 14.25 11.6 11.95 Q11.6 9.7 13.2 8.15 14.75 6.55 17.0 6.55 19.2 6.55 20.75 8.15 22.35 9.7 22.35 11.95" fill="#000000" fill-rule="evenodd" stroke="none"/>
  </g>
</svg>
