<?xml version="1.0" encoding="UTF-8" standalone="no"?>
<svg xmlns:ffdec="https://www.free-decompiler.com/flash" xmlns:xlink="http://www.w3.org/1999/xlink" ffdec:objectType="shape" height="22.0px" width="100.0px" xmlns="http://www.w3.org/2000/svg">
  <g transform="matrix(1.0, 0.0, 0.0, 1.0, 106.0, 51.0)">
    <path d="M-86.0 -51.0 L-86.0 -49.0 -84.0 -49.0 -84.0 -31.0 -86.0 -31.0 -86.0 -29.0 -104.0 -29.0 -104.0 -31.0 -106.0 -31.0 -106.0 -49.0 -104.0 -49.0 -104.0 -51.0 -86.0 -51.0 M-86.0 -49.0 L-104.0 -49.0 -104.0 -31.0 -86.0 -31.0 -86.0 -49.0 M-7.9 -51.0 L-7.9 -49.0 -25.9 -49.0 -25.9 -51.0 -7.9 -51.0 M-59.9 -51.0 L-59.9 -49.0 -58.0 -49.0 -58.0 -31.0 -59.9 -31.0 -59.9 -29.0 -77.9 -29.0 -77.9 -31.0 -60.0 -31.0 -60.0 -49.0 -77.9 -49.0 -77.9 -51.0 -59.9 -51.0 M-51.9 -29.0 L-51.9 -31.0 -34.0 -31.0 -34.0 -48.9 -32.0 -48.9 -32.0 -30.9 -33.9 -30.9 -33.9 -29.0 -51.9 -29.0 M-54.0 -48.9 L-52.0 -48.9 -52.0 -30.9 -54.0 -30.9 -54.0 -48.9 M-78.0 -49.0 L-78.0 -31.0 -80.0 -31.0 -80.0 -49.0 -78.0 -49.0 M-6.0 -48.9 L-6.0 -30.9 -7.9 -30.9 -7.9 -29.0 -25.9 -29.0 -25.9 -31.0 -8.0 -31.0 -8.0 -48.9 -6.0 -48.9 M-26.0 -48.9 L-26.0 -30.9 -28.0 -30.9 -28.0 -48.9 -26.0 -48.9 M-51.9 -51.0 L-33.9 -51.0 -33.9 -49.0 -51.9 -49.0 -51.9 -51.0" fill="#999999" fill-rule="evenodd" stroke="none"/>
    <path d="M-88.0 -39.0 L-98.0 -39.0 -98.0 -37.0 -96.0 -37.0 -96.0 -35.0 -98.0 -35.0 -98.0 -37.0 -100.0 -37.0 -100.0 -39.0 -102.0 -39.0 -102.0 -41.0 -100.0 -41.0 -100.0 -43.0 -98.0 -43.0 -98.0 -45.0 -96.0 -45.0 -96.0 -43.0 -98.0 -43.0 -98.0 -41.0 -88.0 -41.0 -88.0 -39.0 M-44.0 -47.0 L-42.0 -47.0 -42.0 -37.0 -40.0 -37.0 -40.0 -35.0 -42.0 -35.0 -42.0 -33.0 -44.0 -33.0 -44.0 -35.0 -46.0 -35.0 -46.0 -37.0 -44.0 -37.0 -44.0 -47.0 M-48.0 -39.0 L-46.0 -39.0 -46.0 -37.0 -48.0 -37.0 -48.0 -39.0 M-66.0 -45.0 L-66.0 -43.0 -64.0 -43.0 -64.0 -41.0 -66.0 -41.0 -66.0 -43.0 -68.0 -43.0 -68.0 -33.0 -70.0 -33.0 -70.0 -43.0 -72.0 -43.0 -72.0 -41.0 -74.0 -41.0 -74.0 -43.0 -72.0 -43.0 -72.0 -45.0 -70.0 -45.0 -70.0 -47.0 -68.0 -47.0 -68.0 -45.0 -66.0 -45.0 M-10.0 -39.0 L-12.0 -39.0 -12.0 -37.0 -14.0 -37.0 -14.0 -35.0 -16.0 -35.0 -16.0 -37.0 -14.0 -37.0 -14.0 -39.0 -24.0 -39.0 -24.0 -41.0 -14.0 -41.0 -14.0 -43.0 -16.0 -43.0 -16.0 -45.0 -14.0 -45.0 -14.0 -43.0 -12.0 -43.0 -12.0 -41.0 -10.0 -41.0 -10.0 -39.0 M-40.0 -39.0 L-38.0 -39.0 -38.0 -37.0 -40.0 -37.0 -40.0 -39.0" fill="#ffffff" fill-rule="evenodd" stroke="none"/>
  </g>
</svg>
