<?xml version="1.0" encoding="UTF-8" standalone="no"?>
<svg xmlns:ffdec="https://www.free-decompiler.com/flash" xmlns:xlink="http://www.w3.org/1999/xlink" ffdec:objectType="shape" height="210.0px" width="320.0px" xmlns="http://www.w3.org/2000/svg">
  <g transform="matrix(1.0, 0.0, 0.0, 1.0, 0.0, 0.0)">
    <path d="M318.0 12.0 Q318.0 2.0 308.0 2.0 L12.0 2.0 Q2.0 2.0 2.0 12.0 L2.0 198.0 Q2.0 208.0 12.0 208.0 L308.0 208.0 Q318.0 208.0 318.0 198.0 L318.0 12.0 M308.0 0.0 Q320.0 0.0 320.0 12.0 L320.0 198.0 Q320.0 210.0 308.0 210.0 L12.0 210.0 Q0.0 210.0 0.0 198.0 L0.0 12.0 Q0.0 0.0 12.0 0.0 L308.0 0.0" fill="#ff00ff" fill-opacity="0.0" fill-rule="evenodd" stroke="none"/>
  </g>
</svg>
