<?xml version="1.0" encoding="UTF-8" standalone="no"?>
<svg xmlns:ffdec="https://www.free-decompiler.com/flash" xmlns:xlink="http://www.w3.org/1999/xlink" ffdec:objectType="shape" height="242.0px" width="322.0px" xmlns="http://www.w3.org/2000/svg">
  <g transform="matrix(1.0, 0.0, 0.0, 1.0, 1.0, 1.0)">
    <path d="M308.0 0.0 L12.0 0.0 Q0.0 0.0 0.0 12.0 L0.0 198.0 Q0.0 210.0 12.0 210.0 L134.05 210.0 134.05 228.0 Q134.05 240.0 146.05 240.0 L308.0 240.0 Q320.0 240.0 320.0 228.0 L320.0 12.0 Q320.0 0.0 308.0 0.0 Z" fill="none" stroke="#393939" stroke-linecap="round" stroke-linejoin="round" stroke-width="2.0"/>
    <path d="M308.0 0.0 Q320.0 0.0 320.0 12.0 L320.0 228.0 Q320.0 240.0 308.0 240.0 L146.05 240.0 Q134.05 240.0 134.05 228.0 L134.05 210.0 12.0 210.0 Q0.0 210.0 0.0 198.0 L0.0 12.0 Q0.0 0.0 12.0 0.0 L308.0 0.0" fill="#000000" fill-opacity="0.8" fill-rule="evenodd" stroke="none"/>
    <path d="M149.9 236.0 L303.95 236.0 303.95 238.0 149.9 238.0 149.9 236.0" fill="url(#gradient0)" fill-rule="evenodd" stroke="none"/>
  </g>
  <defs>
    <linearGradient gradientTransform="matrix(0.094, 0.0, 0.0, 0.0012, 226.95, 237.0)" gradientUnits="userSpaceOnUse" id="gradient0" spreadMethod="pad" x1="-819.2" x2="819.2">
      <stop offset="0.0" stop-color="#ffffff" stop-opacity="0.0"/>
      <stop offset="0.20784313725490197" stop-color="#ffffff" stop-opacity="0.2"/>
      <stop offset="0.8235294117647058" stop-color="#ffffff" stop-opacity="0.2"/>
      <stop offset="1.0" stop-color="#ffffff" stop-opacity="0.0"/>
    </linearGradient>
  </defs>
</svg>
