<?xml version="1.0" encoding="UTF-8" standalone="no"?>
<svg xmlns:ffdec="https://www.free-decompiler.com/flash" xmlns:xlink="http://www.w3.org/1999/xlink" ffdec:objectType="shape" height="20.0px" width="88.0px" xmlns="http://www.w3.org/2000/svg">
  <g transform="matrix(1.0, 0.0, 0.0, 1.0, 44.0, 10.0)">
    <path d="M2.3 -8.45 L3.95 -4.8 7.8 -4.3 8.55 -4.1 9.15 -4.25 9.2 -4.25 13.05 -4.75 14.75 -8.45 Q15.15 -9.35 16.05 -9.75 17.0 -10.2 18.0 -9.75 18.85 -9.35 19.3 -8.45 L20.95 -4.8 24.8 -4.3 25.55 -4.1 26.15 -4.25 26.2 -4.25 30.05 -4.75 31.75 -8.45 Q32.15 -9.35 33.05 -9.75 34.0 -10.2 35.0 -9.75 35.85 -9.35 36.3 -8.45 L37.95 -4.8 41.8 -4.3 Q42.75 -4.2 43.4 -3.45 44.05 -2.75 44.0 -1.75 L44.0 -1.7 Q43.95 -0.75 43.25 -0.05 L40.35 2.8 41.15 7.05 Q41.3 8.0 40.75 8.85 L40.75 8.9 Q40.2 9.7 39.2 9.95 L39.25 9.95 37.45 9.7 37.4 9.65 34.0 7.65 30.45 9.55 30.1 9.7 30.05 9.75 28.3 9.7 28.2 9.7 Q27.4 9.35 27.0 8.6 26.5 7.75 26.75 6.85 L27.65 2.8 25.5 0.65 23.35 2.8 24.15 7.05 Q24.3 8.0 23.75 8.85 L23.75 8.9 Q23.2 9.7 22.2 9.95 L22.25 9.95 20.45 9.7 20.4 9.65 17.0 7.65 13.45 9.55 13.1 9.7 13.05 9.75 11.3 9.7 11.2 9.7 Q10.4 9.35 10.0 8.6 9.5 7.75 9.75 6.85 L10.65 2.8 8.5 0.65 6.35 2.8 7.15 7.05 Q7.3 8.0 6.75 8.85 L6.75 8.9 Q6.2 9.7 5.2 9.95 L5.25 9.95 3.45 9.7 3.4 9.65 0.0 7.65 -3.55 9.55 -3.9 9.7 -3.95 9.75 -5.7 9.7 -5.8 9.7 Q-6.6 9.35 -7.0 8.6 -7.5 7.75 -7.25 6.85 L-6.35 2.8 -8.5 0.65 -10.65 2.8 -9.85 7.05 Q-9.7 8.0 -10.25 8.85 L-10.25 8.9 Q-10.8 9.7 -11.8 9.95 L-11.75 9.95 -13.55 9.7 -13.6 9.65 -17.0 7.65 -20.55 9.55 -20.9 9.7 -20.95 9.75 -22.7 9.7 -22.8 9.7 Q-23.6 9.35 -24.0 8.6 -24.5 7.75 -24.25 6.85 L-23.35 2.8 -25.5 0.65 -27.65 2.8 -26.85 7.05 Q-26.7 8.0 -27.25 8.85 L-27.25 8.9 Q-27.8 9.7 -28.8 9.95 L-28.75 9.95 -30.55 9.7 -30.6 9.65 -34.0 7.65 -37.55 9.55 -37.9 9.7 -37.95 9.75 -39.7 9.7 -39.8 9.7 Q-40.6 9.35 -41.0 8.6 -41.5 7.75 -41.25 6.85 L-40.35 2.8 -43.25 0.0 Q-43.95 -0.7 -44.0 -1.65 L-44.0 -1.7 Q-44.05 -2.65 -43.45 -3.35 -42.85 -4.15 -41.85 -4.25 L-41.8 -4.25 -37.95 -4.75 -36.25 -8.45 Q-35.85 -9.35 -34.95 -9.75 -34.0 -10.2 -33.0 -9.75 -32.15 -9.35 -31.7 -8.45 L-30.05 -4.8 -26.2 -4.3 -25.45 -4.1 -24.85 -4.25 -24.8 -4.25 -20.95 -4.75 -19.25 -8.45 Q-18.85 -9.35 -17.95 -9.75 -17.0 -10.2 -16.0 -9.75 -15.15 -9.35 -14.7 -8.45 L-13.05 -4.8 -9.2 -4.3 -8.45 -4.1 -7.85 -4.25 -7.8 -4.25 -3.95 -4.75 -2.25 -8.45 Q-1.85 -9.35 -0.95 -9.75 0.0 -10.2 1.0 -9.75 1.85 -9.35 2.3 -8.45 M1.4 -8.05 L0.6 -8.85 Q0.0 -9.1 -0.55 -8.85 L-1.35 -8.05 -3.2 -3.85 -7.7 -3.3 -7.95 -3.25 -8.95 -3.25 -9.3 -3.35 -13.75 -3.85 -15.6 -8.05 -16.4 -8.85 Q-17.0 -9.1 -17.55 -8.85 L-18.35 -8.05 -20.2 -3.85 -24.7 -3.3 -24.95 -3.25 -25.95 -3.25 -26.3 -3.35 -30.75 -3.85 -32.6 -8.05 -33.4 -8.85 Q-34.0 -9.1 -34.55 -8.85 L-35.35 -8.05 -37.2 -3.85 -41.7 -3.3 Q-42.3 -3.25 -42.65 -2.75 L-43.0 -1.75 -43.0 -1.7 Q-42.95 -1.15 -42.55 -0.7 L-42.55 -0.75 -39.3 2.45 -40.3 7.05 -40.15 8.1 -39.4 8.8 -39.35 8.8 Q-38.85 9.0 -38.3 8.8 L-38.2 8.75 -38.0 8.7 -33.95 6.5 -30.1 8.8 -28.95 8.95 -29.0 8.95 -28.1 8.35 -28.05 8.35 Q-27.75 7.8 -27.85 7.25 L-28.75 2.45 -25.5 -0.7 -22.3 2.45 -23.3 7.05 -23.15 8.1 Q-22.9 8.55 -22.4 8.8 L-22.35 8.8 Q-21.85 9.0 -21.3 8.8 L-21.2 8.75 -21.0 8.7 -16.95 6.5 -13.1 8.8 -11.95 8.95 -12.0 8.95 -11.1 8.35 -11.05 8.35 Q-10.75 7.8 -10.85 7.25 L-11.75 2.45 -8.5 -0.7 -5.3 2.45 -6.3 7.05 -6.15 8.1 -5.4 8.8 -5.35 8.8 Q-4.85 9.0 -4.3 8.8 L-4.2 8.75 -4.0 8.7 0.05 6.5 3.9 8.8 5.05 8.95 5.0 8.95 5.9 8.35 5.95 8.35 Q6.25 7.8 6.15 7.25 L5.25 2.45 8.5 -0.7 11.7 2.45 10.7 7.05 Q10.55 7.6 10.85 8.1 L11.6 8.8 11.65 8.8 Q12.15 9.0 12.7 8.8 L12.8 8.75 13.0 8.7 17.05 6.5 20.9 8.8 22.05 8.95 22.0 8.95 22.9 8.35 22.95 8.35 Q23.25 7.8 23.15 7.25 L22.25 2.45 25.5 -0.7 28.7 2.45 27.7 7.05 Q27.55 7.6 27.85 8.1 L28.6 8.8 28.65 8.8 Q29.15 9.0 29.7 8.8 L29.8 8.75 30.0 8.7 34.05 6.5 37.9 8.8 39.05 8.95 39.0 8.95 39.9 8.35 39.95 8.35 Q40.25 7.8 40.15 7.25 L39.25 2.45 42.55 -0.8 42.55 -0.75 Q43.0 -1.2 43.0 -1.75 L43.0 -1.8 Q43.0 -2.4 42.65 -2.8 42.25 -3.25 41.7 -3.35 L37.25 -3.85 35.4 -8.05 34.6 -8.85 Q34.0 -9.1 33.45 -8.85 32.9 -8.6 32.65 -8.05 L30.8 -3.85 26.3 -3.3 26.05 -3.25 25.05 -3.25 24.7 -3.35 20.25 -3.85 18.4 -8.05 17.6 -8.85 Q17.0 -9.1 16.45 -8.85 15.9 -8.6 15.65 -8.05 L13.8 -3.85 9.3 -3.3 9.05 -3.25 8.05 -3.25 7.7 -3.35 3.25 -3.85 1.4 -8.05" fill="#ffcc00" fill-rule="evenodd" stroke="none"/>
  </g>
</svg>
