<?xml version="1.0" encoding="UTF-8" standalone="no"?>
<svg xmlns:ffdec="https://www.free-decompiler.com/flash" xmlns:xlink="http://www.w3.org/1999/xlink" ffdec:objectType="shape" height="86.0px" width="86.0px" xmlns="http://www.w3.org/2000/svg">
  <g transform="matrix(1.0, 0.0, 0.0, 1.0, 43.0, 43.0)">
    <path d="M4.0 -29.75 L0.0 -30.0 -4.0 -29.75 Q-13.85 -28.55 -21.2 -21.2 L-23.75 -18.3 Q-26.3 -15.1 -27.8 -11.45 -30.0 -6.15 -30.0 0.0 -30.0 6.15 -27.8 11.45 -26.3 15.1 -23.75 18.35 L-21.2 21.2 Q-13.85 28.55 -4.0 29.75 L0.0 30.0 4.0 29.75 Q13.9 28.55 21.25 21.2 L23.8 18.35 Q26.35 15.1 27.85 11.45 30.0 6.2 30.0 0.0 30.0 -6.15 27.85 -11.45 26.35 -15.1 23.8 -18.35 L21.25 -21.2 Q13.9 -28.55 4.0 -29.75 M5.35 -39.65 Q18.5 -38.05 28.3 -28.3 L31.7 -24.45 Q35.1 -20.15 37.15 -15.25 40.0 -8.25 40.0 0.0 40.0 8.25 37.15 15.3 35.1 20.15 31.7 24.5 L28.3 28.3 Q18.5 38.05 5.35 39.7 L0.0 40.0 -5.3 39.7 Q-18.5 38.05 -28.25 28.3 L-31.65 24.45 Q-35.1 20.15 -37.1 15.25 -40.0 8.2 -40.0 0.0 -40.0 -8.25 -37.1 -15.25 -35.1 -20.15 -31.7 -24.45 L-28.25 -28.3 Q-18.5 -38.05 -5.3 -39.65 L0.0 -40.0 5.35 -39.65" fill="#000000" fill-rule="evenodd" stroke="none"/>
    <path d="M4.0 -29.75 Q13.9 -28.55 21.25 -21.2 L23.8 -18.35 Q26.35 -15.1 27.85 -11.45 30.0 -6.15 30.0 0.0 30.0 6.2 27.85 11.45 26.35 15.1 23.8 18.35 L21.25 21.2 Q13.9 28.55 4.0 29.75 L0.0 30.0 -4.0 29.75 Q-13.85 28.55 -21.2 21.2 L-23.75 18.35 Q-26.3 15.1 -27.8 11.45 -30.0 6.15 -30.0 0.0 -30.0 -6.15 -27.8 -11.45 -26.3 -15.1 -23.75 -18.3 L-21.2 -21.2 Q-13.85 -28.55 -4.0 -29.75 L0.0 -30.0 4.0 -29.75" fill="#333366" fill-rule="evenodd" stroke="none"/>
    <path d="M34.1 -26.3 Q37.75 -21.7 39.9 -16.4 43.0 -8.85 43.0 0.0 43.0 8.85 39.9 16.45 37.75 21.7 34.1 26.3 L30.45 30.4 Q19.9 40.9 5.75 42.65 L0.0 43.0 -5.7 42.65 Q-19.9 40.9 -30.4 30.4 L-34.05 26.3 Q-37.7 21.65 -39.85 16.4 -43.0 8.85 -43.0 0.0 -43.0 -8.85 -39.85 -16.4 -37.7 -21.65 -34.05 -26.25 L-30.4 -30.4 Q-19.9 -40.95 -5.7 -42.65 L0.0 -43.0 5.75 -42.65 Q19.9 -40.95 30.45 -30.4 L34.1 -26.3 M5.35 -39.65 L0.0 -40.0 -5.3 -39.65 Q-18.5 -38.05 -28.25 -28.3 L-31.7 -24.45 Q-35.1 -20.15 -37.1 -15.25 -40.0 -8.25 -40.0 0.0 -40.0 8.2 -37.1 15.25 -35.1 20.15 -31.65 24.45 L-28.25 28.3 Q-18.5 38.05 -5.3 39.7 L0.0 40.0 5.35 39.7 Q18.5 38.05 28.3 28.3 L31.7 24.5 Q35.1 20.15 37.15 15.3 40.0 8.25 40.0 0.0 40.0 -8.25 37.15 -15.25 35.1 -20.15 31.7 -24.45 L28.3 -28.3 Q18.5 -38.05 5.35 -39.65" fill="#6600ff" fill-rule="evenodd" stroke="none"/>
    <path d="M0.0 -12.2 Q-1.65 -12.2 -2.8 -13.35 -4.0 -14.55 -4.0 -16.2 -4.0 -17.85 -2.8 -19.0 -1.65 -20.2 0.0 -20.2 1.65 -20.2 2.85 -19.0 4.0 -17.85 4.0 -16.2 4.0 -14.55 2.85 -13.35 1.65 -12.2 0.0 -12.2 M4.85 -4.8 Q6.85 -2.85 6.85 0.0 6.85 2.85 4.85 4.85 2.85 6.85 0.0 6.85 -2.85 6.85 -4.8 4.85 -6.8 2.85 -6.8 0.0 -6.8 -2.85 -4.8 -4.8 -2.85 -6.8 0.0 -6.8 2.85 -6.8 4.85 -4.8 M11.0 6.85 Q11.8 5.4 13.4 5.0 15.0 4.55 16.45 5.4 17.85 6.2 18.3 7.8 18.75 9.4 17.9 10.85 17.05 12.25 15.5 12.7 13.85 13.15 12.45 12.3 11.0 11.45 10.6 9.9 10.15 8.25 11.0 6.85 M-10.95 6.85 Q-10.15 8.25 -10.55 9.9 -11.0 11.45 -12.4 12.3 -13.85 13.15 -15.45 12.7 -17.05 12.25 -17.9 10.85 -18.75 9.4 -18.3 7.8 -17.85 6.2 -16.4 5.4 -15.0 4.55 -13.4 5.0 -11.8 5.4 -10.95 6.85" fill="#000000" fill-rule="evenodd" stroke="none"/>
  </g>
</svg>
