<?xml version="1.0" encoding="UTF-8" standalone="no"?>
<svg xmlns:ffdec="https://www.free-decompiler.com/flash" xmlns:xlink="http://www.w3.org/1999/xlink" ffdec:objectType="shape" height="15.0px" width="40.0px" xmlns="http://www.w3.org/2000/svg">
  <g transform="matrix(1.0, 0.0, 0.0, 1.0, 20.0, 7.5)">
    <path d="M6.35 5.0 L14.35 0.0 6.35 -4.95 -6.35 -4.95 -14.35 0.0 -6.35 5.0 6.35 5.0 M20.0 0.0 L8.0 7.5 -8.0 7.5 -20.0 0.0 -8.0 -7.5 8.0 -7.5 20.0 0.0" fill="#0099ff" fill-opacity="0.32941177" fill-rule="evenodd" stroke="none"/>
    <path d="M4.7 2.55 L8.7 0.0 4.7 -2.5 -4.65 -2.5 -8.65 0.0 -4.65 2.55 4.7 2.55 M6.35 5.0 L-6.35 5.0 -14.35 0.0 -6.35 -4.95 6.35 -4.95 14.35 0.0 6.35 5.0" fill="#0099ff" fill-rule="evenodd" stroke="none"/>
    <path d="M4.7 2.55 L-4.65 2.55 -8.65 0.0 -4.65 -2.5 4.7 -2.5 8.7 0.0 4.7 2.55" fill="#ffffff" fill-rule="evenodd" stroke="none"/>
  </g>
</svg>
