<?xml version="1.0" encoding="UTF-8" standalone="no"?>
<svg xmlns:ffdec="https://www.free-decompiler.com/flash" xmlns:xlink="http://www.w3.org/1999/xlink" ffdec:objectType="shape" height="33.75px" width="75.95px" xmlns="http://www.w3.org/2000/svg">
  <g transform="matrix(1.0, 0.0, 0.0, 1.0, 53.3, 16.85)">
    <path d="M-4.35 16.9 L-53.3 16.9 -53.3 -16.85 -4.35 -16.85 -22.35 0.0 -4.35 16.9" fill="url(#gradient0)" fill-rule="evenodd" stroke="none"/>
    <path d="M-4.35 16.9 L-22.35 0.0 -4.35 -16.85 4.65 -16.85 22.65 0.0 4.65 16.9 -4.35 16.9 M-13.85 0.0 L-1.85 11.25 2.2 11.25 14.2 0.0 2.2 -11.15 -1.85 -11.15 -13.85 0.0" fill="#0099ff" fill-opacity="0.6" fill-rule="evenodd" stroke="none"/>
    <path d="M-13.85 0.0 L-1.85 -11.15 2.2 -11.15 14.2 0.0 2.2 11.25 -1.85 11.25 -13.85 0.0 M0.2 5.25 L5.7 0.0 0.2 -5.15 -5.3 0.0 0.2 5.25" fill="#0099ff" fill-rule="evenodd" stroke="none"/>
    <path d="M0.2 5.25 L-5.3 0.0 0.2 -5.15 5.7 0.0 0.2 5.25" fill="#ffffff" fill-rule="evenodd" stroke="none"/>
  </g>
  <defs>
    <linearGradient gradientTransform="matrix(0.0299, 0.0, 0.0, 0.0206, -28.85, 0.0)" gradientUnits="userSpaceOnUse" id="gradient0" spreadMethod="pad" x1="-819.2" x2="819.2">
      <stop offset="0.0" stop-color="#0092ff" stop-opacity="0.0"/>
      <stop offset="1.0" stop-color="#0092ff" stop-opacity="0.6"/>
    </linearGradient>
  </defs>
</svg>
