<?xml version="1.0" encoding="UTF-8" standalone="no"?>
<svg xmlns:ffdec="https://www.free-decompiler.com/flash" xmlns:xlink="http://www.w3.org/1999/xlink" ffdec:objectType="shape" height="80.0px" width="80.0px" xmlns="http://www.w3.org/2000/svg">
  <g transform="matrix(1.0, 0.0, 0.0, 1.0, 40.0, 40.0)">
    <path d="M28.25 -28.3 Q40.0 -16.55 40.0 0.0 40.0 16.55 28.25 28.25 16.55 40.0 0.0 40.0 -16.55 40.0 -28.3 28.25 -40.0 16.55 -40.0 0.0 -40.0 -16.55 -28.3 -28.3 -16.55 -40.0 0.0 -40.0 16.55 -40.0 28.25 -28.3" fill="url(#gradient0)" fill-rule="evenodd" stroke="none"/>
    <path d="M0.05 3.5 L-3.65 0.0 0.05 -3.45 3.7 0.0 0.05 3.5" fill="#ffffff" fill-rule="evenodd" stroke="none"/>
    <path d="M-9.35 0.0 L-1.35 -7.45 1.35 -7.45 9.35 0.0 1.35 7.5 -1.35 7.5 -9.35 0.0 M0.05 3.5 L3.7 0.0 0.05 -3.45 -3.65 0.0 0.05 3.5" fill="#4fff00" fill-rule="evenodd" stroke="none"/>
    <path d="M-9.35 0.0 L-1.35 7.5 1.35 7.5 9.35 0.0 1.35 -7.45 -1.35 -7.45 -9.35 0.0 M-15.0 0.0 L-3.0 -11.25 3.0 -11.25 15.0 0.0 3.0 11.25 -3.0 11.25 -15.0 0.0" fill="#4fff00" fill-opacity="0.6" fill-rule="evenodd" stroke="none"/>
  </g>
  <defs>
    <radialGradient cx="0" cy="0" gradientTransform="matrix(0.0499, 0.0, 0.0, 0.0499, 0.0, 0.0)" gradientUnits="userSpaceOnUse" id="gradient0" r="819.2" spreadMethod="pad">
      <stop offset="0.2980392156862745" stop-color="#4fff00" stop-opacity="0.6"/>
      <stop offset="1.0" stop-color="#4fff00" stop-opacity="0.0"/>
    </radialGradient>
  </defs>
</svg>
