<?xml version="1.0" encoding="UTF-8" standalone="no"?>
<svg xmlns:ffdec="https://www.free-decompiler.com/flash" xmlns:xlink="http://www.w3.org/1999/xlink" ffdec:objectType="shape" height="9.0px" width="29.0px" xmlns="http://www.w3.org/2000/svg">
  <g transform="matrix(1.0, 0.0, 0.0, 1.0, -23.0, -4.0)">
    <path d="M31.0 7.0 L32.0 7.0 32.0 11.0 31.0 11.0 31.0 12.0 30.0 12.0 30.0 13.0 26.0 13.0 26.0 12.0 29.0 12.0 29.0 11.0 30.0 11.0 30.0 10.0 31.0 10.0 31.0 7.0" fill="#000000" fill-opacity="0.4" fill-rule="evenodd" stroke="none"/>
    <path d="M26.0 12.0 L25.0 12.0 25.0 11.0 24.0 11.0 24.0 10.0 23.0 10.0 23.0 6.0 24.0 6.0 24.0 5.0 25.0 5.0 25.0 4.0 29.0 4.0 29.0 5.0 30.0 5.0 30.0 6.0 31.0 6.0 31.0 7.0 31.0 10.0 30.0 10.0 30.0 11.0 29.0 11.0 29.0 12.0 26.0 12.0" fill="#cc00ff" fill-rule="evenodd" stroke="none"/>
    <path d="M31.0 10.0 L30.0 10.0 30.0 11.0 29.0 11.0 29.0 12.0 25.0 12.0 25.0 11.0 24.0 11.0 24.0 10.0 23.0 10.0 23.0 6.0 24.0 6.0 24.0 5.0 25.0 5.0 25.0 4.0 29.0 4.0 29.0 5.0 30.0 5.0 30.0 6.0 31.0 6.0 31.0 10.0 M28.0 5.0 L26.0 5.0 26.0 6.0 25.0 6.0 25.0 7.0 24.0 7.0 24.0 9.0 25.0 9.0 25.0 10.0 26.0 10.0 26.0 11.0 28.0 11.0 28.0 10.0 29.0 10.0 29.0 9.0 30.0 9.0 30.0 7.0 29.0 7.0 29.0 6.0 28.0 6.0 28.0 5.0" fill="#ffffff" fill-opacity="0.4" fill-rule="evenodd" stroke="none"/>
    <path d="M51.0 7.0 L52.0 7.0 52.0 11.0 51.0 11.0 51.0 12.0 50.0 12.0 50.0 13.0 46.0 13.0 46.0 12.0 49.0 12.0 49.0 11.0 50.0 11.0 50.0 10.0 51.0 10.0 51.0 7.0" fill="#000000" fill-opacity="0.4" fill-rule="evenodd" stroke="none"/>
    <path d="M46.0 12.0 L45.0 12.0 45.0 11.0 44.0 11.0 44.0 10.0 43.0 10.0 43.0 6.0 44.0 6.0 44.0 5.0 45.0 5.0 45.0 4.0 49.0 4.0 49.0 5.0 50.0 5.0 50.0 6.0 51.0 6.0 51.0 7.0 51.0 10.0 50.0 10.0 50.0 11.0 49.0 11.0 49.0 12.0 46.0 12.0" fill="#333333" fill-rule="evenodd" stroke="none"/>
    <path d="M51.0 10.0 L50.0 10.0 50.0 11.0 49.0 11.0 49.0 12.0 45.0 12.0 45.0 11.0 44.0 11.0 44.0 10.0 43.0 10.0 43.0 6.0 44.0 6.0 44.0 5.0 45.0 5.0 45.0 4.0 49.0 4.0 49.0 5.0 50.0 5.0 50.0 6.0 51.0 6.0 51.0 10.0 M48.0 5.0 L46.0 5.0 46.0 6.0 45.0 6.0 45.0 7.0 44.0 7.0 44.0 9.0 45.0 9.0 45.0 10.0 46.0 10.0 46.0 11.0 48.0 11.0 48.0 10.0 49.0 10.0 49.0 9.0 50.0 9.0 50.0 7.0 49.0 7.0 49.0 6.0 48.0 6.0 48.0 5.0" fill="#6600ff" fill-rule="evenodd" stroke="none"/>
    <path d="M48.0 9.0 L46.0 9.0 46.0 7.0 48.0 7.0 48.0 9.0" fill="#6600ff" fill-rule="evenodd" stroke="none"/>
  </g>
</svg>
