<?xml version="1.0" encoding="UTF-8" standalone="no"?>
<svg xmlns:ffdec="https://www.free-decompiler.com/flash" xmlns:xlink="http://www.w3.org/1999/xlink" ffdec:objectType="shape" height="193.0px" width="168.0px" xmlns="http://www.w3.org/2000/svg">
  <g transform="matrix(1.0, 0.0, 0.0, 1.0, 88.5, 45.45)">
    <path d="M13.0 91.05 L50.0 95.0 55.0 85.0 M73.0 146.05 L58.3 105.6 58.0 106.05 M58.3 105.6 L50.0 95.0 M68.0 91.05 L58.3 105.6" fill="none" stroke="#666666" stroke-linecap="round" stroke-linejoin="round" stroke-width="3.0"/>
    <path d="M78.0 -43.95 L43.0 -8.95 43.0 6.05 43.0 21.05 M43.0 6.05 L23.0 21.05 M-29.1 25.0 L-29.1 38.15 -10.0 45.0 M-87.0 51.05 L-52.0 36.05 -42.05 47.6 -29.1 38.15 M-25.0 60.0 L-31.85 55.05 -36.85 70.0 M-31.85 55.05 L-42.05 47.6" fill="none" stroke="#666666" stroke-linecap="round" stroke-linejoin="round" stroke-width="3.0"/>
  </g>
</svg>
