<?xml version="1.0" encoding="UTF-8" standalone="no"?>
<svg xmlns:ffdec="https://www.free-decompiler.com/flash" xmlns:xlink="http://www.w3.org/1999/xlink" ffdec:objectType="shape" height="106.7px" width="154.6px" xmlns="http://www.w3.org/2000/svg">
  <g transform="matrix(1.0, 0.0, 0.0, 1.0, 62.0, 36.75)">
    <path d="M43.0 -8.95 L43.0 5.3 Q0.5 18.35 -29.1 38.1 -35.95 42.65 -42.05 47.6 L-52.0 36.05 -62.0 40.35 -59.25 -19.25 Q-58.35 -37.55 -40.05 -36.7 L65.8 -31.75 43.0 -8.95 M48.0 -6.95 L69.55 -28.45 75.1 -28.2 Q84.3 -27.8 88.75 -23.1 92.95 -18.25 92.55 -9.05 L92.3 -4.15 Q68.7 0.25 48.0 6.25 L48.0 -6.95 M-60.4 50.5 L-50.0 46.05 -44.1 52.9 Q-53.6 60.95 -61.3 69.95 L-60.4 50.5" fill="#ffffff" fill-opacity="0.078431375" fill-rule="evenodd" stroke="none"/>
  </g>
</svg>
