<?xml version="1.0" encoding="UTF-8" standalone="no"?>
<svg xmlns:ffdec="https://www.free-decompiler.com/flash" xmlns:xlink="http://www.w3.org/1999/xlink" ffdec:objectType="shape" height="11.0px" width="11.0px" xmlns="http://www.w3.org/2000/svg">
  <g transform="matrix(1.0, 0.0, 0.0, 1.0, -3.0, -2.0)">
    <path d="M11.0 6.0 L11.0 5.0 12.0 5.0 12.0 6.0 11.0 6.0 M11.0 4.0 L11.0 5.0 10.0 5.0 10.0 4.0 11.0 4.0 M4.0 10.0 L5.0 10.0 5.0 11.0 6.0 11.0 6.0 12.0 5.0 12.0 5.0 11.0 4.0 11.0 4.0 12.0 3.0 12.0 3.0 11.0 4.0 11.0 4.0 10.0 M11.0 7.0 L14.0 7.0 14.0 8.0 12.0 8.0 12.0 10.0 13.0 10.0 13.0 11.0 12.0 11.0 12.0 10.0 10.0 10.0 10.0 12.0 9.0 12.0 9.0 9.0 10.0 9.0 10.0 8.0 11.0 8.0 11.0 7.0 M7.0 7.0 L4.0 7.0 4.0 6.0 6.0 6.0 6.0 4.0 5.0 4.0 5.0 3.0 6.0 3.0 6.0 4.0 8.0 4.0 8.0 2.0 9.0 2.0 9.0 5.0 8.0 5.0 8.0 6.0 7.0 6.0 7.0 7.0 M4.0 13.0 L4.0 12.0 5.0 12.0 5.0 13.0 4.0 13.0" fill="#ffffff" fill-opacity="0.49803922" fill-rule="evenodd" stroke="none"/>
    <path d="M12.0 5.0 L11.0 5.0 11.0 6.0 11.0 7.0 10.0 7.0 10.0 8.0 9.0 8.0 9.0 9.0 8.0 9.0 8.0 10.0 7.0 10.0 7.0 11.0 8.0 11.0 8.0 12.0 7.0 12.0 7.0 13.0 6.0 13.0 6.0 12.0 6.0 11.0 5.0 11.0 5.0 10.0 4.0 10.0 3.0 10.0 3.0 9.0 4.0 9.0 4.0 8.0 5.0 8.0 5.0 9.0 6.0 9.0 6.0 8.0 7.0 8.0 7.0 7.0 8.0 7.0 8.0 6.0 9.0 6.0 9.0 5.0 10.0 5.0 11.0 5.0 11.0 4.0 12.0 4.0 12.0 5.0 M3.0 12.0 L4.0 12.0 4.0 11.0 5.0 11.0 5.0 12.0 4.0 12.0 4.0 13.0 3.0 13.0 3.0 12.0" fill="#ffffff" fill-rule="evenodd" stroke="none"/>
  </g>
</svg>
