<?xml version="1.0" encoding="UTF-8" standalone="no"?>
<svg xmlns:ffdec="https://www.free-decompiler.com/flash" xmlns:xlink="http://www.w3.org/1999/xlink" ffdec:objectType="shape" height="12.0px" width="7.0px" xmlns="http://www.w3.org/2000/svg">
  <g transform="matrix(1.0, 0.0, 0.0, 1.0, -5.0, -2.0)">
    <path d="M11.0 5.0 L12.0 5.0 12.0 6.0 10.0 6.0 10.0 9.0 9.0 9.0 9.0 10.0 10.0 10.0 10.0 12.0 9.0 12.0 9.0 10.0 8.0 10.0 8.0 14.0 5.0 14.0 5.0 10.0 6.0 10.0 6.0 9.0 9.0 9.0 9.0 8.0 7.0 8.0 7.0 6.0 5.0 6.0 5.0 5.0 6.0 5.0 6.0 4.0 7.0 4.0 7.0 3.0 8.0 3.0 8.0 2.0 9.0 2.0 9.0 3.0 10.0 3.0 10.0 4.0 11.0 4.0 11.0 5.0" fill="#ffffff" fill-rule="evenodd" stroke="none"/>
  </g>
</svg>
