<?xml version="1.0" encoding="UTF-8" standalone="no"?>
<svg xmlns:ffdec="https://www.free-decompiler.com/flash" xmlns:xlink="http://www.w3.org/1999/xlink" ffdec:objectType="shape" height="12.0px" width="60.0px" xmlns="http://www.w3.org/2000/svg">
  <g transform="matrix(1.0, 0.0, 0.0, 1.0, -1.0, -1.0)">
    <path d="M11.0 2.0 L12.0 2.0 12.0 3.0 13.0 3.0 13.0 8.0 12.0 8.0 12.0 9.0 11.0 9.0 11.0 10.0 10.0 10.0 10.0 11.0 9.0 11.0 9.0 12.0 8.0 12.0 8.0 13.0 6.0 13.0 6.0 12.0 5.0 12.0 5.0 11.0 4.0 11.0 4.0 10.0 3.0 10.0 3.0 9.0 2.0 9.0 2.0 8.0 1.0 8.0 1.0 3.0 2.0 3.0 2.0 2.0 3.0 2.0 3.0 1.0 6.0 1.0 6.0 2.0 8.0 2.0 8.0 1.0 11.0 1.0 11.0 2.0" fill="#000000" fill-rule="evenodd" stroke="none"/>
    <path d="M29.0 3.0 L29.0 8.0 28.0 8.0 28.0 9.0 27.0 9.0 27.0 10.0 26.0 10.0 26.0 11.0 25.0 11.0 25.0 12.0 24.0 12.0 24.0 13.0 22.0 13.0 22.0 12.0 21.0 12.0 21.0 11.0 20.0 11.0 20.0 10.0 19.0 10.0 19.0 9.0 18.0 9.0 18.0 8.0 17.0 8.0 17.0 3.0 18.0 3.0 18.0 2.0 19.0 2.0 19.0 1.0 22.0 1.0 22.0 2.0 24.0 2.0 24.0 1.0 27.0 1.0 27.0 2.0 28.0 2.0 28.0 3.0 29.0 3.0" fill="#000000" fill-rule="evenodd" stroke="none"/>
    <path d="M45.0 3.0 L45.0 8.0 44.0 8.0 44.0 9.0 43.0 9.0 43.0 10.0 42.0 10.0 42.0 11.0 41.0 11.0 41.0 12.0 40.0 12.0 40.0 13.0 38.0 13.0 38.0 12.0 37.0 12.0 37.0 11.0 36.0 11.0 36.0 10.0 35.0 10.0 35.0 9.0 34.0 9.0 34.0 8.0 33.0 8.0 33.0 3.0 34.0 3.0 34.0 2.0 35.0 2.0 35.0 1.0 38.0 1.0 38.0 2.0 40.0 2.0 40.0 1.0 43.0 1.0 43.0 2.0 44.0 2.0 44.0 3.0 45.0 3.0" fill="#000000" fill-rule="evenodd" stroke="none"/>
    <path d="M61.0 8.0 L60.0 8.0 60.0 9.0 59.0 9.0 59.0 10.0 58.0 10.0 58.0 11.0 57.0 11.0 57.0 12.0 56.0 12.0 56.0 13.0 54.0 13.0 54.0 12.0 53.0 12.0 53.0 11.0 52.0 11.0 52.0 10.0 51.0 10.0 51.0 9.0 50.0 9.0 50.0 8.0 49.0 8.0 49.0 3.0 50.0 3.0 50.0 2.0 51.0 2.0 51.0 1.0 54.0 1.0 54.0 2.0 56.0 2.0 56.0 1.0 59.0 1.0 59.0 2.0 60.0 2.0 60.0 3.0 61.0 3.0 61.0 8.0" fill="#000000" fill-rule="evenodd" stroke="none"/>
  </g>
</svg>
