<?xml version="1.0" encoding="UTF-8" standalone="no"?>
<svg xmlns:ffdec="https://www.free-decompiler.com/flash" xmlns:xlink="http://www.w3.org/1999/xlink" ffdec:objectType="shape" height="9.0px" width="10.0px" xmlns="http://www.w3.org/2000/svg">
  <g transform="matrix(1.0, 0.0, 0.0, 1.0, -2.0, -2.0)">
    <path d="M11.0 11.0 L10.0 11.0 10.0 10.0 9.0 10.0 9.0 9.0 8.0 9.0 8.0 8.0 9.0 8.0 9.0 9.0 10.0 9.0 10.0 10.0 11.0 10.0 11.0 11.0 M12.0 7.0 L9.0 7.0 9.0 6.0 12.0 6.0 12.0 7.0 M11.0 3.0 L10.0 3.0 10.0 4.0 9.0 4.0 9.0 5.0 8.0 5.0 8.0 4.0 9.0 4.0 9.0 3.0 10.0 3.0 10.0 2.0 11.0 2.0 11.0 3.0 M6.0 5.0 L5.0 5.0 5.0 4.0 4.0 4.0 4.0 3.0 3.0 3.0 3.0 2.0 4.0 2.0 4.0 3.0 5.0 3.0 5.0 4.0 6.0 4.0 6.0 5.0 M5.0 6.0 L5.0 7.0 2.0 7.0 2.0 6.0 5.0 6.0 M5.0 8.0 L6.0 8.0 6.0 9.0 5.0 9.0 5.0 10.0 4.0 10.0 4.0 11.0 3.0 11.0 3.0 10.0 4.0 10.0 4.0 9.0 5.0 9.0 5.0 8.0" fill="#ffffff" fill-rule="evenodd" stroke="none"/>
  </g>
</svg>
