<?xml version="1.0" encoding="UTF-8" standalone="no"?>
<svg xmlns:ffdec="https://www.free-decompiler.com/flash" xmlns:xlink="http://www.w3.org/1999/xlink" ffdec:objectType="shape" height="11.0px" width="12.0px" xmlns="http://www.w3.org/2000/svg">
  <g transform="matrix(1.0, 0.0, 0.0, 1.0, -1.05, -1.0)">
    <path d="M13.05 6.0 L13.05 7.0 11.05 7.0 11.05 6.0 13.05 6.0 M11.0 3.0 L10.0 3.0 10.0 2.0 11.0 2.0 11.0 1.0 12.0 1.0 12.0 2.0 11.0 2.0 11.0 3.0 M11.0 11.0 L10.0 11.0 10.0 10.0 11.0 10.0 11.0 11.0 12.0 11.0 12.0 12.0 11.0 12.0 11.0 11.0 M3.0 2.0 L2.0 2.0 2.0 1.0 3.0 1.0 3.0 2.0 4.0 2.0 4.0 3.0 3.0 3.0 3.0 2.0 M3.05 6.0 L3.05 7.0 1.05 7.0 1.05 6.0 3.05 6.0 M2.0 11.0 L3.0 11.0 3.0 10.0 4.0 10.0 4.0 11.0 3.0 11.0 3.0 12.0 2.0 12.0 2.0 11.0" fill="#ffffff" fill-rule="evenodd" stroke="none"/>
  </g>
</svg>
