<?xml version="1.0" encoding="UTF-8" standalone="no"?>
<svg xmlns:ffdec="https://www.free-decompiler.com/flash" xmlns:xlink="http://www.w3.org/1999/xlink" ffdec:objectType="shape" height="44.0px" width="340.0px" xmlns="http://www.w3.org/2000/svg">
  <g transform="matrix(1.0, 0.0, 0.0, 1.0, 2.0, 2.0)">
    <path d="M326.0 0.0 L10.0 0.0 Q0.0 0.0 0.0 10.0 L0.0 30.0 Q0.0 40.0 10.0 40.0 L326.0 40.0 Q336.0 40.0 336.0 30.0 L336.0 10.0 Q336.0 0.0 326.0 0.0 Z" fill="none" stroke="#333333" stroke-linecap="round" stroke-linejoin="round" stroke-width="4.0"/>
    <path d="M336.0 30.0 Q336.0 40.0 326.0 40.0 L10.0 40.0 Q0.0 40.0 0.0 30.0 L0.0 10.0 Q0.0 0.0 10.0 0.0 L326.0 0.0 Q336.0 0.0 336.0 10.0 L336.0 30.0" fill="#000000" fill-rule="evenodd" stroke="none"/>
  </g>
</svg>
