<?xml version="1.0" encoding="UTF-8" standalone="no"?>
<svg xmlns:ffdec="https://www.free-decompiler.com/flash" xmlns:xlink="http://www.w3.org/1999/xlink" ffdec:objectType="shape" height="47.3px" width="42.15px" xmlns="http://www.w3.org/2000/svg">
  <g transform="matrix(1.0, 0.0, 0.0, 1.0, 21.05, 81.0)">
    <path d="M-5.6 -70.0 L-8.5 -70.0 -8.5 -80.0 8.7 -80.0 8.7 -70.0 5.85 -70.0 -5.6 -70.0" fill="url(#gradient0)" fill-rule="evenodd" stroke="none"/>
    <path d="M5.85 -70.0 L5.85 -60.0 -5.6 -60.0 -5.6 -70.0 5.85 -70.0" fill="url(#gradient1)" fill-rule="evenodd" stroke="none"/>
    <path d="M5.85 -60.0 L20.1 -35.05 19.85 -34.9 19.75 -34.9 Q10.95 -40.0 0.0 -40.0 -11.1 -40.0 -20.05 -34.7 L-5.6 -60.0 5.85 -60.0" fill="url(#gradient2)" fill-rule="evenodd" stroke="none"/>
    <path d="M5.85 -70.0 L5.85 -60.0 20.1 -35.05 M19.85 -34.9 L19.75 -34.9 Q10.95 -40.0 0.0 -40.0 -11.1 -40.0 -20.05 -34.7 L-5.6 -60.0 -5.6 -70.0 -8.5 -70.0 -8.5 -80.0 8.7 -80.0 8.7 -70.0 5.85 -70.0 -5.6 -70.0 M5.85 -60.0 L-5.6 -60.0" fill="none" stroke="#333333" stroke-linecap="round" stroke-linejoin="round" stroke-width="2.0"/>
  </g>
  <defs>
    <linearGradient gradientTransform="matrix(0.0105, 0.0, 0.0, 0.0061, 0.1, -75.0)" gradientUnits="userSpaceOnUse" id="gradient0" spreadMethod="pad" x1="-819.2" x2="819.2">
      <stop offset="0.00392156862745098" stop-color="#333333"/>
      <stop offset="0.5098039215686274" stop-color="#999999"/>
      <stop offset="1.0" stop-color="#333333"/>
    </linearGradient>
    <linearGradient gradientTransform="matrix(0.007, 0.0, 0.0, 0.0061, 0.1, -65.0)" gradientUnits="userSpaceOnUse" id="gradient1" spreadMethod="pad" x1="-819.2" x2="819.2">
      <stop offset="0.00392156862745098" stop-color="#333333"/>
      <stop offset="0.5098039215686274" stop-color="#999999"/>
      <stop offset="1.0" stop-color="#333333"/>
    </linearGradient>
    <linearGradient gradientTransform="matrix(0.0245, 0.0, 0.0, 0.0154, 0.0, -47.35)" gradientUnits="userSpaceOnUse" id="gradient2" spreadMethod="pad" x1="-819.2" x2="819.2">
      <stop offset="0.00392156862745098" stop-color="#333333"/>
      <stop offset="0.5098039215686274" stop-color="#999999"/>
      <stop offset="1.0" stop-color="#333333"/>
    </linearGradient>
  </defs>
</svg>
