<?xml version="1.0" encoding="UTF-8" standalone="no"?>
<svg xmlns:ffdec="https://www.free-decompiler.com/flash" xmlns:xlink="http://www.w3.org/1999/xlink" ffdec:objectType="shape" height="95.3px" width="85.2px" xmlns="http://www.w3.org/2000/svg">
  <g transform="matrix(1.0, 0.0, 0.0, 1.0, 43.6, 57.3)">
    <path d="M4.35 -15.0 L15.0 3.7 14.85 3.8 14.8 3.85 Q18.2 5.8 21.2 8.8 30.0 17.6 30.0 30.0 L-30.0 30.0 Q-30.0 17.6 -21.2 8.8 -18.05 5.6 -14.45 3.6 L-15.05 3.95 -4.25 -15.0 -4.25 -22.5 -6.4 -22.5 -6.4 -30.0 6.45 -30.0 6.45 -22.5 4.35 -22.5 4.35 -15.0" fill="#ffffff" fill-opacity="0.7019608" fill-rule="evenodd" stroke="none"/>
    <path d="M12.1 -35.7 L12.15 -35.6 Q14.45 -33.3 14.45 -30.0 L14.45 -22.5 Q14.45 -19.35 12.35 -17.05 L21.15 -1.6 Q24.15 0.4 26.85 3.1 L26.9 3.1 Q38.0 14.25 38.0 30.0 L38.0 30.05 Q38.0 33.35 35.65 35.7 33.3 38.0 30.0 38.0 L-30.0 38.0 Q-33.3 38.0 -35.6 35.7 L-35.7 35.65 Q-38.0 33.3 -38.0 30.0 L-38.0 29.95 Q-38.0 14.3 -26.9 3.15 L-26.85 3.1 Q-24.05 0.3 -21.0 -1.75 L-12.25 -17.0 Q-14.4 -19.35 -14.4 -22.5 L-14.4 -30.0 Q-14.4 -33.3 -12.1 -35.6 L-12.05 -35.7 Q-9.7 -38.0 -6.4 -38.0 L6.45 -38.0 Q9.75 -38.0 12.1 -35.7 M4.35 -15.0 L4.35 -22.5 6.45 -22.5 6.45 -30.0 -6.4 -30.0 -6.4 -22.5 -4.25 -22.5 -4.25 -15.0 -15.05 3.95 -14.45 3.6 Q-18.05 5.6 -21.2 8.8 -30.0 17.6 -30.0 30.0 L30.0 30.0 Q30.0 17.6 21.2 8.8 18.2 5.8 14.8 3.85 L14.85 3.8 15.0 3.7 4.35 -15.0 M12.15 -16.85 L12.1 -16.8 12.0 -16.7 12.35 -15.5 12.35 -17.05 12.15 -16.85 M-12.1 -16.85 L-12.25 -17.0 -12.25 -15.5 -11.9 -16.7 -12.05 -16.8 -12.1 -16.85" fill="#ffffff" fill-opacity="0.4" fill-rule="evenodd" stroke="none"/>
    <path d="M18.75 -34.45 L29.4 -15.75 14.4 -19.45 -0.05 -15.85 -0.15 -15.8 14.0 -12.3 13.85 -12.2 13.8 -12.15 13.85 -12.15 -4.8 4.0 -16.05 -12.05 -15.45 -12.4 -1.0 -16.0 -0.45 -15.85 10.15 -34.45 18.75 -34.45 M30.75 -6.75 Q33.7 -4.25 36.1 -0.8 43.25 9.4 41.1 21.6 L21.4 18.15 21.85 -1.5 30.65 -6.8 30.75 -6.75 M11.5 30.0 L-13.85 30.0 8.55 10.55 11.5 30.0 M-3.3 -57.3 L-2.0 -49.9 -4.05 -49.55 -2.8 -42.15 -11.25 -40.65 -12.55 -48.05 -14.65 -47.7 -15.95 -55.05 -3.3 -57.3 M-32.9 -8.15 L-19.1 5.7 -28.7 17.6 -43.1 20.1 Q-45.3 7.9 -38.15 -2.3 -35.8 -5.65 -32.9 -8.15" fill="#000000" fill-rule="evenodd" stroke="none"/>
  </g>
</svg>
