<?xml version="1.0" encoding="UTF-8" standalone="no"?>
<svg xmlns:ffdec="https://www.free-decompiler.com/flash" xmlns:xlink="http://www.w3.org/1999/xlink" ffdec:objectType="shape" height="119.2px" width="158.05px" xmlns="http://www.w3.org/2000/svg">
  <g transform="matrix(1.0, 0.0, 0.0, 1.0, 82.85, 89.2)">
    <path d="M1.55 -51.45 L1.6 -51.45 -14.0 -32.3 -27.8 -46.15 -27.3 -46.6 -13.7 -52.65 1.75 -51.6 1.55 -51.45 M33.2 -39.95 L51.0 -52.55 58.75 -48.9 60.55 -27.45 48.5 -37.15 33.9 -40.0 33.2 -39.95 M52.85 -2.95 L63.1 -19.7 73.3 -19.85 73.4 -19.8 Q74.7 -16.15 75.05 -12.0 76.15 0.4 68.15 9.95 L52.85 -2.95 M11.5 30.0 L-13.85 30.0 8.55 10.55 11.5 30.0 M-81.1 -26.3 L-62.2 -21.25 -64.6 -6.1 -75.8 3.3 Q-83.8 -6.25 -82.7 -18.6 -82.35 -22.7 -81.1 -26.3 M-26.8 -70.8 L-31.1 -76.95 -32.9 -75.7 -37.2 -81.85 -26.65 -89.2 -22.35 -83.05 -24.1 -81.85 -19.8 -75.7 -26.8 -70.8" fill="#1a1a1a" fill-rule="evenodd" stroke="none"/>
  </g>
</svg>
