<?xml version="1.0" encoding="UTF-8" standalone="no"?>
<svg xmlns:ffdec="https://www.free-decompiler.com/flash" xmlns:xlink="http://www.w3.org/1999/xlink" ffdec:objectType="shape" height="127.2px" width="192.55px" xmlns="http://www.w3.org/2000/svg">
  <g transform="matrix(1.0, 0.0, 0.0, 1.0, 101.85, 97.2)">
    <path d="M73.25 -50.4 L75.05 -28.95 63.0 -38.65 48.4 -41.5 47.7 -41.45 65.5 -54.05 73.25 -50.4 M88.9 -16.3 Q90.2 -12.65 90.55 -8.5 91.65 3.9 83.65 13.45 L68.35 0.55 78.6 -16.2 88.8 -16.35 88.9 -16.3 M11.5 30.0 L-13.85 30.0 8.55 10.55 11.5 30.0 M-100.1 -25.3 L-81.2 -20.25 -83.6 -5.1 -94.8 4.3 Q-102.8 -5.25 -101.7 -17.6 -101.35 -21.7 -100.1 -25.3 M-36.8 -78.8 L-41.1 -84.95 -42.9 -83.7 -47.2 -89.85 -36.65 -97.2 -32.35 -91.05 -34.1 -89.85 -29.8 -83.7 -36.8 -78.8 M-20.65 -70.15 L-5.2 -69.1 -5.4 -68.95 -5.35 -68.95 -20.95 -49.8 -34.75 -63.65 -34.25 -64.1 -20.65 -70.15" fill="#2a2a2a" fill-opacity="0.7490196" fill-rule="evenodd" stroke="none"/>
  </g>
</svg>
