<?xml version="1.0" encoding="UTF-8" standalone="no"?>
<svg xmlns:ffdec="https://www.free-decompiler.com/flash" xmlns:xlink="http://www.w3.org/1999/xlink" ffdec:objectType="shape" height="135.05px" width="222.95px" xmlns="http://www.w3.org/2000/svg">
  <g transform="matrix(1.0, 0.0, 0.0, 1.0, 120.2, 105.05)">
    <path d="M68.0 -48.85 L87.75 -58.15 94.75 -53.25 92.8 -31.8 82.6 -43.45 68.7 -48.8 68.0 -48.85 M102.35 -12.85 Q103.0 -9.05 102.65 -4.85 101.55 7.55 92.05 15.55 L79.2 0.2 92.2 -14.55 102.35 -12.95 102.35 -12.85 M11.5 30.0 L-13.85 30.0 8.55 10.55 11.5 30.0 M-41.7 -99.75 L-43.15 -98.25 -37.9 -92.95 -43.95 -86.9 -49.25 -92.2 -50.8 -90.65 -56.1 -95.95 -47.0 -105.05 -41.7 -99.75 M-120.2 -20.15 L-100.7 -21.85 -97.8 -6.8 -105.1 5.85 Q-115.9 -0.4 -119.1 -12.35 -120.15 -16.35 -120.2 -20.15 M-25.55 -63.6 L-41.6 -74.85 -41.15 -75.35 -28.8 -83.7 -13.45 -85.35 -13.55 -85.2 -13.55 -85.15 -25.55 -63.6" fill="#666666" fill-opacity="0.2509804" fill-rule="evenodd" stroke="none"/>
  </g>
</svg>
