<?xml version="1.0" encoding="UTF-8" standalone="no"?>
<svg xmlns:ffdec="https://www.free-decompiler.com/flash" xmlns:xlink="http://www.w3.org/1999/xlink" ffdec:objectType="shape" height="47.5px" width="46.0px" xmlns="http://www.w3.org/2000/svg">
  <g transform="matrix(1.0, 0.0, 0.0, 1.0, -41.95, 23.0)">
    <path d="M43.95 19.15 L43.95 -9.9 48.25 -9.9 66.4 -13.25 67.8 -17.7 79.1 -21.0 85.95 -12.85 85.95 0.8 80.35 0.8 80.35 11.35 75.35 11.35 75.35 22.5 55.45 22.5 43.95 19.15" fill="#000000" fill-rule="evenodd" stroke="none"/>
    <path d="M43.95 19.15 L55.45 22.5 75.35 22.5 75.35 11.35 80.35 11.35 80.35 0.8 85.95 0.8 85.95 -12.85 79.1 -21.0 67.8 -17.7 66.4 -13.25 48.25 -9.9" fill="none" stroke="#666666" stroke-linecap="square" stroke-linejoin="miter-clip" stroke-miterlimit="3.0" stroke-width="3.0"/>
  </g>
</svg>
