<?xml version="1.0" encoding="UTF-8" standalone="no"?>
<svg xmlns:ffdec="https://www.free-decompiler.com/flash" xmlns:xlink="http://www.w3.org/1999/xlink" ffdec:objectType="shape" height="185.1px" width="206.0px" xmlns="http://www.w3.org/2000/svg">
  <g transform="matrix(1.0, 0.0, 0.0, 1.0, 103.0, 82.5)">
    <path d="M-32.45 38.0 L-11.0 20.9 11.0 20.9 32.5 38.0 -32.45 38.0 M62.9 27.9 L11.0 -3.1 -11.0 -3.1 -62.9 27.95 -75.0 -60.0 75.0 -60.0 62.9 27.9" fill="#333333" fill-rule="evenodd" stroke="none"/>
    <path d="M32.5 38.0 L11.0 20.9 -11.0 20.9 -32.45 38.0 -61.0 38.0 -62.9 27.95 -11.0 -3.1 11.0 -3.1 62.9 27.9 61.0 38.0 32.5 38.0 M70.15 55.6 L74.1 80.95 8.9 99.6 -0.75 72.8 -8.6 98.95 -74.9 83.35 -70.4 55.6 -10.45 55.6 70.15 55.6 M-10.45 55.6 L-0.75 72.8 -10.45 55.6" fill="#191919" fill-rule="evenodd" stroke="none"/>
    <path d="M32.5 38.0 L61.0 38.0 70.15 38.0 70.15 55.6 -10.45 55.6 -70.4 55.6 -70.4 38.0 -61.0 38.0 -32.45 38.0 32.5 38.0" fill="#000000" fill-rule="evenodd" stroke="none"/>
    <path d="M32.5 38.0 L61.0 38.0 62.9 27.9 75.0 -60.0 -75.0 -60.0 -62.9 27.95 -61.0 38.0 -32.45 38.0 32.5 38.0 M-70.4 55.6 L-70.4 38.0 -61.0 38.0 M70.15 55.6 L74.1 80.95 8.9 99.6 -0.75 72.8 -8.6 98.95 -74.9 83.35 -70.4 55.6 -10.45 55.6 70.15 55.6 70.15 38.0 61.0 38.0 M-0.75 72.8 L-10.45 55.6" fill="none" stroke="#000000" stroke-linecap="round" stroke-linejoin="round" stroke-width="6.0"/>
    <path d="M-32.45 38.0 L-11.0 20.9 11.0 20.9 32.5 38.0 M62.9 27.9 L11.0 -3.1 -11.0 -3.1 -62.9 27.95" fill="none" stroke="#000000" stroke-linecap="round" stroke-linejoin="round" stroke-width="3.0"/>
    <path d="M11.0 -48.5 L20.0 -64.0 29.0 -79.5 100.0 -58.5 94.5 -41.65 89.3 -25.9 84.15 -10.1 80.0 2.5 11.0 -11.5 11.0 -21.5 11.0 -29.5 11.0 -48.5 89.3 -25.9 11.0 -48.5 M-11.0 -21.5 L-11.0 -11.5 -80.0 2.5 -84.1 -10.1 -89.3 -25.9 -94.45 -41.65 -100.0 -58.5 -29.0 -79.5 -20.0 -64.0 -11.0 -48.5 -11.0 -29.5 -11.0 -21.5 M84.15 -10.1 L11.0 -29.5 84.15 -10.1 M20.0 -64.0 L94.5 -41.65 20.0 -64.0 M-84.1 -10.1 L-11.0 -29.5 -84.1 -10.1 M-20.0 -64.0 L-94.45 -41.65 -20.0 -64.0 M-89.3 -25.9 L-11.0 -48.5 -89.3 -25.9" fill="#990000" fill-rule="evenodd" stroke="none"/>
    <path d="M11.0 -21.5 L-11.0 -21.5 -11.0 -29.5 -11.0 -48.5 11.0 -48.5 11.0 -29.5 11.0 -21.5" fill="#000000" fill-rule="evenodd" stroke="none"/>
    <path d="M11.0 -48.5 L20.0 -64.0 29.0 -79.5 100.0 -58.5 94.5 -41.65 89.3 -25.9 84.15 -10.1 80.0 2.5 11.0 -11.5 11.0 -21.5 -11.0 -21.5 -11.0 -11.5 -80.0 2.5 -84.1 -10.1 -89.3 -25.9 -94.45 -41.65 -100.0 -58.5 -29.0 -79.5 -20.0 -64.0 -11.0 -48.5 11.0 -48.5 11.0 -29.5 11.0 -21.5 M-11.0 -21.5 L-11.0 -29.5 -11.0 -48.5" fill="none" stroke="#000000" stroke-linecap="round" stroke-linejoin="round" stroke-width="6.0"/>
    <path d="M11.0 -48.5 L89.3 -25.9 M11.0 -29.5 L84.15 -10.1 M94.5 -41.65 L20.0 -64.0 M-11.0 -29.5 L-84.1 -10.1 M-11.0 -48.5 L-89.3 -25.9 M-94.45 -41.65 L-20.0 -64.0" fill="none" stroke="#000000" stroke-linecap="round" stroke-linejoin="round" stroke-width="3.0"/>
  </g>
</svg>
