<?xml version="1.0" encoding="UTF-8" standalone="no"?>
<svg xmlns:ffdec="https://www.free-decompiler.com/flash" xmlns:xlink="http://www.w3.org/1999/xlink" ffdec:objectType="shape" height="188.0px" width="228.0px" xmlns="http://www.w3.org/2000/svg">
  <g transform="matrix(1.0, 0.0, 0.0, 1.0, 114.0, 184.0)">
    <path d="M20.0 -130.0 Q20.0 -121.75 14.2 -115.9 L14.15 -115.85 Q8.5 -110.2 0.55 -110.0 L-0.5 -110.0 Q-8.5 -110.2 -14.15 -115.85 L-14.2 -115.9 Q-20.0 -121.75 -20.0 -130.0 -20.0 -134.3 -18.45 -137.9 -17.0 -141.3 -14.15 -144.15 -8.3 -150.0 0.0 -150.0 8.3 -150.0 14.15 -144.15 17.0 -141.3 18.45 -137.9 20.0 -134.3 20.0 -130.0 M8.5 -138.5 Q4.95 -142.0 0.0 -142.0 -5.0 -142.0 -8.5 -138.5 -10.2 -136.8 -11.05 -134.75 -12.0 -132.55 -12.0 -130.0 -12.0 -125.05 -8.55 -121.55 L-8.5 -121.5 Q-5.1 -118.1 -0.3 -118.0 L0.35 -118.0 Q5.1 -118.1 8.5 -121.5 L8.5 -121.55 Q12.0 -125.05 12.0 -130.0 12.0 -132.55 11.05 -134.75 10.15 -136.8 8.5 -138.5" fill="#dece5f" fill-rule="evenodd" stroke="none"/>
    <path d="M50.0 -160.0 L50.0 -180.0 70.0 -180.0 70.0 -140.0 90.0 -120.0 84.3 -111.4 70.0 -90.0 50.0 -110.0 70.0 -90.0 -70.0 -90.0 -84.25 -111.4 -90.0 -120.0 -70.0 -140.0 -70.0 -180.0 -50.0 -180.0 -50.0 -160.0 -20.0 -130.0 Q-20.0 -121.75 -14.2 -115.9 L-70.0 -140.0 -50.0 -110.0 -0.5 -110.0 0.55 -110.0 50.0 -110.0 70.0 -140.0 14.2 -115.9 Q20.0 -121.75 20.0 -130.0 L50.0 -160.0 M-70.0 -90.0 L-50.0 -110.0 -70.0 -90.0" fill="#993300" fill-rule="evenodd" stroke="none"/>
    <path d="M70.0 -90.0 L77.1 -72.25 40.0 -50.0 20.0 -60.0 -20.0 -60.0 -40.0 -50.0 -77.1 -72.25 -70.0 -90.0 70.0 -90.0" fill="#ddac46" fill-rule="evenodd" stroke="none"/>
    <path d="M84.3 -54.25 L40.0 -10.0 -40.0 -10.0 -84.25 -54.25 -77.1 -72.25 -40.0 -50.0 -20.0 -60.0 20.0 -60.0 40.0 -50.0 77.1 -72.25 84.3 -54.25 M30.0 -30.0 L30.0 -40.0 -30.0 -40.0 -30.0 -30.0 30.0 -30.0" fill="#000000" fill-rule="evenodd" stroke="none"/>
    <path d="M84.3 -111.4 L110.0 -60.0 90.0 -40.0 84.3 -54.25 77.1 -72.25 70.0 -90.0 84.3 -111.4 M-84.25 -54.25 L-90.0 -40.0 -110.0 -60.0 -84.25 -111.4 -70.0 -90.0 -77.1 -72.25 -84.25 -54.25 M-50.0 -160.0 L-20.0 -180.0 20.0 -180.0 50.0 -160.0 20.0 -130.0 Q20.0 -134.3 18.45 -137.9 17.0 -141.3 14.15 -144.15 8.3 -150.0 0.0 -150.0 -8.3 -150.0 -14.15 -144.15 -17.0 -141.3 -18.45 -137.9 -20.0 -134.3 -20.0 -130.0 L-50.0 -160.0 M14.2 -115.9 L70.0 -140.0 50.0 -110.0 0.55 -110.0 Q8.5 -110.2 14.15 -115.85 L14.2 -115.9 M-0.5 -110.0 L-50.0 -110.0 -70.0 -140.0 -14.2 -115.9 -14.15 -115.85 Q-8.5 -110.2 -0.5 -110.0" fill="#333333" fill-rule="evenodd" stroke="none"/>
    <path d="M8.5 -138.5 Q10.15 -136.8 11.05 -134.75 12.0 -132.55 12.0 -130.0 12.0 -125.05 8.5 -121.55 L8.5 -121.5 Q5.1 -118.1 0.35 -118.0 L-0.3 -118.0 Q-5.1 -118.1 -8.5 -121.5 L-8.55 -121.55 Q-12.0 -125.05 -12.0 -130.0 -12.0 -132.55 -11.05 -134.75 -10.2 -136.8 -8.5 -138.5 -5.0 -142.0 0.0 -142.0 4.95 -142.0 8.5 -138.5" fill="#cc6633" fill-rule="evenodd" stroke="none"/>
    <path d="M40.0 -10.0 L30.0 0.0 -30.0 0.0 -40.0 -10.0 40.0 -10.0 M30.0 -30.0 L-30.0 -30.0 -30.0 -40.0 30.0 -40.0 30.0 -30.0" fill="#bb8922" fill-rule="evenodd" stroke="none"/>
    <path d="M50.0 -160.0 L50.0 -180.0 70.0 -180.0 70.0 -140.0 90.0 -120.0 84.3 -111.4 110.0 -60.0 90.0 -40.0 84.3 -54.25 40.0 -10.0 30.0 0.0 -30.0 0.0 -40.0 -10.0 -84.25 -54.25 -90.0 -40.0 -110.0 -60.0 -84.25 -111.4 -90.0 -120.0 -70.0 -140.0 -70.0 -180.0 -50.0 -180.0 -50.0 -160.0 -20.0 -180.0 20.0 -180.0 50.0 -160.0 20.0 -130.0 Q20.0 -121.75 14.2 -115.9 L70.0 -140.0 50.0 -110.0 70.0 -90.0 84.3 -111.4 M-20.0 -130.0 Q-20.0 -134.3 -18.45 -137.9 -17.0 -141.3 -14.15 -144.15 -8.3 -150.0 0.0 -150.0 8.3 -150.0 14.15 -144.15 17.0 -141.3 18.45 -137.9 20.0 -134.3 20.0 -130.0 M14.2 -115.9 L14.15 -115.85 Q8.5 -110.2 0.55 -110.0 L50.0 -110.0 M70.0 -90.0 L77.1 -72.25 84.3 -54.25 M77.1 -72.25 L40.0 -50.0 20.0 -60.0 -20.0 -60.0 -40.0 -50.0 -77.1 -72.25 -84.25 -54.25 M30.0 -30.0 L-30.0 -30.0 -30.0 -40.0 30.0 -40.0 30.0 -30.0 M-14.2 -115.9 L-70.0 -140.0 -50.0 -110.0 -0.5 -110.0 Q-8.5 -110.2 -14.15 -115.85 L-14.2 -115.9 Q-20.0 -121.75 -20.0 -130.0 L-50.0 -160.0 M-77.1 -72.25 L-70.0 -90.0 -84.25 -111.4 M-50.0 -110.0 L-70.0 -90.0 70.0 -90.0 M40.0 -10.0 L-40.0 -10.0 M0.55 -110.0 L-0.5 -110.0" fill="none" stroke="#000000" stroke-linecap="square" stroke-linejoin="miter-clip" stroke-miterlimit="3.0" stroke-width="6.0"/>
    <path d="M37.05 -79.1 Q40.0 -76.15 40.0 -72.0 40.0 -67.85 37.05 -64.95 34.15 -62.0 30.0 -62.0 25.85 -62.0 22.9 -64.95 20.0 -67.85 20.0 -72.0 20.0 -76.15 22.9 -79.1 25.85 -82.0 30.0 -82.0 34.15 -82.0 37.05 -79.1 M-30.0 -82.0 Q-25.85 -82.0 -22.95 -79.1 -20.0 -76.15 -20.0 -72.0 -20.0 -67.85 -22.95 -64.95 -25.85 -62.0 -30.0 -62.0 -34.15 -62.0 -37.1 -64.95 -40.0 -67.85 -40.0 -72.0 -40.0 -76.15 -37.1 -79.1 -34.15 -82.0 -30.0 -82.0" fill="#000000" fill-rule="evenodd" stroke="none"/>
    <path d="M10.0 -78.0 L30.0 -88.0 M-10.0 -78.0 L-30.0 -88.0" fill="none" stroke="#000000" stroke-linecap="square" stroke-linejoin="miter-clip" stroke-miterlimit="3.0" stroke-width="6.0"/>
  </g>
</svg>
