<?xml version="1.0" encoding="UTF-8" standalone="no"?>
<svg xmlns:ffdec="https://www.free-decompiler.com/flash" xmlns:xlink="http://www.w3.org/1999/xlink" ffdec:objectType="shape" height="247.65px" width="329.2px" xmlns="http://www.w3.org/2000/svg">
  <g transform="matrix(1.0, 0.0, 0.0, 1.0, 164.6, 212.75)">
    <path d="M75.9 -176.75 L159.75 -176.75 143.75 -144.85 95.85 -132.35 75.9 -176.75 M-95.85 -128.85 L-143.8 -144.85 -159.75 -176.75 -76.7 -176.75 -95.85 -128.85 M55.85 -78.0 L68.9 -96.9 81.55 -96.9 84.0 -72.9 55.85 -78.0" fill="#e8e2ce" fill-rule="evenodd" stroke="none"/>
    <path d="M127.8 -64.95 L111.85 -1.05 15.95 30.9 47.9 -36.15 127.8 -64.95 M75.9 -176.75 L95.85 -132.35 47.9 -112.85 39.7 -80.95 15.95 -85.25 31.95 -160.8 75.9 -176.75 M-76.7 -176.75 L-20.05 -160.8 -16.0 -91.1 -16.5 -91.2 -33.1 -94.15 -47.95 -112.85 -95.85 -128.85 -76.7 -176.75" fill="#8b7b43" fill-rule="evenodd" stroke="none"/>
    <path d="M95.85 -70.75 L127.8 -64.95 47.9 -36.15 -31.95 -36.15 -47.95 -96.9 -33.1 -94.15 -16.5 -91.2 -16.0 -91.1 -20.05 -160.8 -76.7 -176.75 -63.9 -208.75 63.9 -208.75 75.9 -176.75 31.95 -160.8 15.95 -85.25 39.7 -80.95 40.05 -80.9 55.85 -78.0 84.0 -72.9 95.85 -70.75 M-15.5 -91.0 L15.95 -85.25 -15.5 -91.0" fill="#c8ba8c" fill-rule="evenodd" stroke="none"/>
    <path d="M95.85 -132.35 L95.85 -70.75 84.0 -72.9 81.55 -96.9 68.9 -96.9 55.85 -78.0 40.05 -80.9 39.7 -80.95 47.9 -112.85 95.85 -132.35 M-95.85 14.95 L-111.85 -64.95 -95.85 -72.95 -95.85 -128.85 -47.95 -112.85 -33.1 -94.15 -47.95 -96.9 -31.95 -36.15 -95.85 14.95 M-95.85 -72.95 L-47.95 -96.9 -95.85 -72.95" fill="#b3a062" fill-rule="evenodd" stroke="none"/>
    <path d="M15.95 30.9 L-95.85 14.95 -31.95 -36.15 47.9 -36.15 15.95 30.9" fill="#a4914f" fill-rule="evenodd" stroke="none"/>
    <path d="M75.9 -176.75 L159.75 -176.75 143.75 -144.85 95.85 -132.35 95.85 -70.75 127.8 -64.95 111.85 -1.05 15.95 30.9 -95.85 14.95 -111.85 -64.95 -95.85 -72.95 -95.85 -128.85 -143.8 -144.85 -159.75 -176.75 -76.7 -176.75 -63.9 -208.75 63.9 -208.75 75.9 -176.75 95.85 -132.35 M40.05 -80.9 L55.85 -78.0 84.0 -72.9 95.85 -70.75 M15.95 -85.25 L39.7 -80.95 M-76.7 -176.75 L-95.85 -128.85 M-33.1 -94.15 L-16.5 -91.2 M-33.1 -94.15 L-47.95 -96.9 -95.85 -72.95 M15.95 -85.25 L-15.5 -91.0" fill="none" stroke="#494123" stroke-linecap="square" stroke-linejoin="miter-clip" stroke-miterlimit="10.0" stroke-width="6.0"/>
    <path d="M55.85 -78.0 L68.9 -96.9 81.55 -96.9 84.0 -72.9 M75.9 -176.75 L31.95 -160.8 15.95 -85.25 M-16.0 -91.1 L-20.05 -160.8 -76.7 -176.75" fill="none" stroke="#6f6235" stroke-linecap="square" stroke-linejoin="miter-clip" stroke-miterlimit="1.0" stroke-width="4.0"/>
    <path d="M51.1 -159.15 Q59.65 -159.2 65.7 -153.15 71.9 -146.9 71.9 -138.4 71.9 -129.9 65.75 -123.9 L65.6 -123.8 Q59.6 -117.65 51.1 -117.6 42.6 -117.6 36.4 -123.8 30.35 -129.85 30.35 -138.4 30.3 -146.9 36.35 -153.05 L36.4 -153.15 36.45 -153.15 Q42.65 -159.2 51.1 -159.15" fill="#000000" fill-rule="evenodd" stroke="none"/>
    <path d="M-59.45 -153.15 Q-53.25 -159.2 -44.8 -159.15 -36.25 -159.2 -30.2 -153.15 -24.0 -146.9 -24.0 -138.4 -24.0 -129.9 -30.15 -123.9 L-30.3 -123.8 Q-36.3 -117.65 -44.8 -117.6 -53.3 -117.6 -59.5 -123.8 -65.55 -129.85 -65.55 -138.4 -65.6 -146.9 -59.55 -153.05 L-59.5 -153.15 -59.45 -153.15" fill="#000000" fill-rule="evenodd" stroke="none"/>
  </g>
</svg>
