<?xml version="1.0" encoding="UTF-8" standalone="no"?>
<svg xmlns:ffdec="https://www.free-decompiler.com/flash" xmlns:xlink="http://www.w3.org/1999/xlink" ffdec:objectType="shape" height="22.4px" width="22.35px" xmlns="http://www.w3.org/2000/svg">
  <g transform="matrix(1.0, 0.0, 0.0, 1.0, 11.2, 11.2)">
    <path d="M-0.05 -8.0 Q-3.35 -8.0 -5.7 -5.65 -8.05 -3.3 -8.0 0.0 -8.05 3.25 -5.7 5.6 -3.35 7.95 -0.05 8.0 3.25 7.95 5.55 5.6 7.95 3.25 7.95 0.0 7.95 -3.3 5.55 -5.65 3.25 -8.0 -0.05 -8.0 M-8.05 -7.9 L-7.95 -8.0 Q-4.6 -11.2 -0.05 -11.2 4.5 -11.2 7.75 -7.95 11.1 -4.6 11.15 0.0 11.15 4.55 7.85 7.75 L7.75 7.8 7.7 7.85 Q4.5 11.15 -0.05 11.2 -4.65 11.15 -8.0 7.8 -11.25 4.55 -11.2 0.0 -11.2 -4.55 -8.05 -7.9" fill="#ff6200" fill-opacity="0.5019608" fill-rule="evenodd" stroke="none"/>
    <path d="M-0.05 -8.0 Q3.25 -8.0 5.55 -5.65 7.95 -3.3 7.95 0.0 7.95 3.25 5.55 5.6 3.25 7.95 -0.05 8.0 -3.35 7.95 -5.7 5.6 -8.05 3.25 -8.0 0.0 -8.05 -3.3 -5.7 -5.65 -3.35 -8.0 -0.05 -8.0" fill="#ff6600" fill-rule="evenodd" stroke="none"/>
  </g>
</svg>
