<?xml version="1.0" encoding="UTF-8" standalone="no"?>
<svg xmlns:ffdec="https://www.free-decompiler.com/flash" xmlns:xlink="http://www.w3.org/1999/xlink" ffdec:objectType="shape" height="122.1px" width="78.1px" xmlns="http://www.w3.org/2000/svg">
  <g transform="matrix(1.0, 0.0, 0.0, 1.0, 39.05, 39.8)">
    <path d="M23.85 -24.65 Q19.45 -29.05 14.3 -31.45 7.8 -34.5 0.0 -34.5 -7.75 -34.5 -14.2 -31.5 -19.5 -29.1 -23.9 -24.65 -28.35 -20.25 -30.75 -14.95 -33.75 -8.5 -33.75 -0.75 -33.75 7.05 -30.7 13.55 -28.3 18.7 -23.9 23.1 -20.65 26.35 -16.9 28.6 L-16.85 70.5 16.9 70.5 16.85 28.6 Q20.55 26.35 23.85 23.1 28.2 18.75 30.65 13.65 33.75 7.1 33.75 -0.75 33.75 -8.55 30.7 -15.05 28.2 -20.3 23.85 -24.65 Z" fill="none" stroke="#333333" stroke-linecap="square" stroke-linejoin="miter-clip" stroke-miterlimit="3.0" stroke-width="8.0"/>
    <path d="M16.85 14.15 Q22.5 7.85 22.5 -0.75 22.5 -10.1 15.9 -16.65 9.3 -23.25 0.0 -23.25 -9.35 -23.25 -15.9 -16.65 -22.5 -10.1 -22.5 -0.75 -22.5 7.85 -16.9 14.15 L-16.9 28.6 Q-20.65 26.35 -23.9 23.1 -28.3 18.7 -30.7 13.55 -33.75 7.05 -33.75 -0.75 -33.75 -8.5 -30.75 -14.95 -28.35 -20.25 -23.9 -24.65 -19.5 -29.1 -14.2 -31.5 -7.75 -34.5 0.0 -34.5 7.8 -34.5 14.3 -31.45 19.45 -29.05 23.85 -24.65 28.2 -20.3 30.7 -15.05 33.75 -8.55 33.75 -0.75 33.75 7.1 30.65 13.65 28.2 18.75 23.85 23.1 20.55 26.35 16.85 28.6 L16.85 14.15" fill="#888888" fill-rule="evenodd" stroke="none"/>
    <path d="M-16.9 14.15 Q-22.5 7.85 -22.5 -0.75 -22.5 -10.1 -15.9 -16.65 -9.35 -23.25 0.0 -23.25 9.3 -23.25 15.9 -16.65 22.5 -10.1 22.5 -0.75 22.5 7.85 16.85 14.15 L15.9 15.15 Q12.75 18.3 9.0 19.95 4.85 21.75 0.0 21.75 -4.9 21.75 -9.0 19.95 -12.8 18.3 -15.9 15.15 L-16.9 14.15" fill="url(#gradient0)" fill-rule="evenodd" stroke="none"/>
    <path d="M16.85 14.15 L16.85 28.6 16.9 70.5 -16.85 70.5 -16.9 28.6 -16.9 14.15 -15.9 15.15 Q-12.8 18.3 -9.0 19.95 -4.9 21.75 0.0 21.75 4.85 21.75 9.0 19.95 12.75 18.3 15.9 15.15 L16.85 14.15" fill="#999999" fill-rule="evenodd" stroke="none"/>
  </g>
  <defs>
    <linearGradient gradientTransform="matrix(0.0118, 0.0204, -0.0238, 0.0138, -0.35, -1.35)" gradientUnits="userSpaceOnUse" id="gradient0" spreadMethod="pad" x1="-819.2" x2="819.2">
      <stop offset="0.14901960784313725" stop-color="#626262"/>
      <stop offset="1.0" stop-color="#555555"/>
    </linearGradient>
  </defs>
</svg>
