<?xml version="1.0" encoding="UTF-8" standalone="no"?>
<svg xmlns:ffdec="https://www.free-decompiler.com/flash" xmlns:xlink="http://www.w3.org/1999/xlink" ffdec:objectType="shape" height="50.8px" width="171.3px" xmlns="http://www.w3.org/2000/svg">
  <g transform="matrix(1.0, 0.0, 0.0, 1.0, 73.5, 25.35)">
    <path d="M-45.5 7.25 L-49.75 7.25 -49.75 -6.8 -45.2 -6.8" fill="none" stroke="#333333" stroke-linecap="square" stroke-linejoin="miter-clip" stroke-miterlimit="3.0" stroke-width="8.0"/>
    <path d="M-31.15 -6.8 L-27.2 -15.2" fill="none" stroke="#333333" stroke-linecap="square" stroke-linejoin="miter-clip" stroke-miterlimit="3.0" stroke-width="8.0"/>
    <path d="M-27.2 -15.2 L-27.25 -15.25" fill="none" stroke="#333333" stroke-linecap="round" stroke-linejoin="miter-clip" stroke-miterlimit="3.0" stroke-width="8.0"/>
    <path d="M-27.25 -15.25 L92.5 -15.2 92.5 18.55 -27.25 18.5 -31.4 7.25" fill="none" stroke="#333333" stroke-linecap="round" stroke-linejoin="miter-clip" stroke-miterlimit="3.0" stroke-width="8.0"/>
    <path d="M-45.2 -6.8 L-48.35 -12.2 -57.5 -12.15 -65.0 -7.5 -72.5 -7.5 -72.5 -24.35 -41.3 -24.35 -31.2 -6.8 -45.2 -6.8" fill="url(#gradient0)" fill-rule="evenodd" stroke="none"/>
    <path d="M-49.7 0.0 L-49.75 -6.8 -45.2 -6.8 -31.2 -6.8 -31.15 -6.8 -27.5 0.0 -49.7 0.0 M-27.2 -15.2 L-27.25 -15.25 92.5 -15.2 92.5 0.0 -27.5 0.0 -27.2 -15.2 M-27.25 18.5 L-31.4 7.25 -27.5 0.0 -27.25 18.5" fill="#999999" fill-rule="evenodd" stroke="none"/>
    <path d="M-31.15 -6.8 L-27.2 -15.2 -27.5 0.0 -31.15 -6.8" fill="#cccccc" fill-rule="evenodd" stroke="none"/>
    <path d="M92.5 0.0 L92.5 18.55 -27.25 18.5 -27.5 0.0 -31.4 7.25 -45.5 7.25 -49.75 7.25 -49.7 0.0 -27.5 0.0 92.5 0.0" fill="#666666" fill-rule="evenodd" stroke="none"/>
    <path d="M-31.4 7.25 L-41.3 24.4 -72.5 24.45 -72.5 7.5 -65.0 7.5 -57.5 12.2 -48.35 12.2 -45.5 7.25 -31.4 7.25" fill="url(#gradient1)" fill-rule="evenodd" stroke="none"/>
    <path d="M-45.2 -6.8 L-48.35 -12.2 -57.5 -12.15 -65.0 -7.5 -72.5 -7.5 -72.5 -24.35 -41.3 -24.35 -31.2 -6.8 M-31.4 7.25 L-41.3 24.4 -72.5 24.45 -72.5 7.5 -65.0 7.5 -57.5 12.2 -48.35 12.2 -45.5 7.25" fill="none" stroke="#cccccc" stroke-linecap="round" stroke-linejoin="round" stroke-width="2.0"/>
  </g>
  <defs>
    <linearGradient gradientTransform="matrix(0.0278, 0.0, 0.0, 0.0107, -53.95, -15.6)" gradientUnits="userSpaceOnUse" id="gradient0" spreadMethod="pad" x1="-819.2" x2="819.2">
      <stop offset="0.0" stop-color="#626262"/>
      <stop offset="0.807843137254902" stop-color="#111111"/>
    </linearGradient>
    <linearGradient gradientTransform="matrix(0.0277, 0.0, 0.0, 0.0105, -54.1, 15.8)" gradientUnits="userSpaceOnUse" id="gradient1" spreadMethod="pad" x1="-819.2" x2="819.2">
      <stop offset="0.0" stop-color="#626262"/>
      <stop offset="0.807843137254902" stop-color="#111111"/>
    </linearGradient>
  </defs>
</svg>
