<?xml version="1.0" encoding="UTF-8" standalone="no"?>
<svg xmlns:ffdec="https://www.free-decompiler.com/flash" xmlns:xlink="http://www.w3.org/1999/xlink" ffdec:objectType="shape" height="160.0px" width="160.0px" xmlns="http://www.w3.org/2000/svg">
  <g transform="matrix(1.0, 0.0, 0.0, 1.0, 230.0, 27.0)">
    <path d="M-168.2 45.55 L-168.15 45.55 -164.5 52.35 -186.7 52.35 -186.75 45.55 -168.2 45.55" fill="#999999" fill-rule="evenodd" stroke="none"/>
    <path d="M-186.7 52.35 L-190.0 50.0 -209.5 50.0 -209.5 28.0 -178.3 28.0 -168.2 45.55 -186.75 45.55 -186.7 52.35" fill="url(#gradient0)" fill-rule="evenodd" stroke="none"/>
    <path d="M-168.4 59.6 L-178.3 76.75 -209.5 76.8 -209.5 55.0 -190.0 55.0 -186.7 52.35 -186.75 59.6 -168.4 59.6" fill="url(#gradient1)" fill-rule="evenodd" stroke="none"/>
    <path d="M-164.5 52.35 L-168.4 59.6 -186.75 59.6 -186.7 52.35 -164.5 52.35" fill="#666666" fill-rule="evenodd" stroke="none"/>
    <path d="M-186.7 52.35 L-190.0 50.0 -209.5 50.0 -209.5 28.0 -178.3 28.0 -168.2 45.55 M-168.4 59.6 L-178.3 76.75 -209.5 76.8 -209.5 55.0 -190.0 55.0 -186.7 52.35" fill="none" stroke="#cccccc" stroke-linecap="round" stroke-linejoin="round" stroke-width="2.0"/>
    <path d="M-93.45 -3.6 Q-70.0 19.85 -70.0 53.0 -70.0 86.15 -93.45 109.55 -116.85 133.0 -150.0 133.0 -183.15 133.0 -206.6 109.55 -230.0 86.15 -230.0 53.0 -230.0 19.85 -206.6 -3.6 -183.15 -27.0 -150.0 -27.0 -116.85 -27.0 -93.45 -3.6" fill="url(#gradient2)" fill-rule="evenodd" stroke="none"/>
  </g>
  <defs>
    <linearGradient gradientTransform="matrix(0.0278, 0.0, 0.0, 0.0107, -190.95, 36.75)" gradientUnits="userSpaceOnUse" id="gradient0" spreadMethod="pad" x1="-819.2" x2="819.2">
      <stop offset="0.0" stop-color="#626262"/>
      <stop offset="0.807843137254902" stop-color="#111111"/>
    </linearGradient>
    <linearGradient gradientTransform="matrix(0.0277, 0.0, 0.0, 0.0105, -191.1, 68.15)" gradientUnits="userSpaceOnUse" id="gradient1" spreadMethod="pad" x1="-819.2" x2="819.2">
      <stop offset="0.0" stop-color="#626262"/>
      <stop offset="0.807843137254902" stop-color="#111111"/>
    </linearGradient>
    <linearGradient gradientTransform="matrix(0.0977, 0.0, 0.0, 0.0977, -150.0, 53.0)" gradientUnits="userSpaceOnUse" id="gradient2" spreadMethod="pad" x1="-819.2" x2="819.2">
      <stop offset="0.0" stop-color="#ffffff" stop-opacity="0.3019608"/>
      <stop offset="0.47058823529411764" stop-color="#ffffff" stop-opacity="0.0"/>
    </linearGradient>
  </defs>
</svg>
