<?xml version="1.0" encoding="UTF-8" standalone="no"?>
<svg xmlns:ffdec="https://www.free-decompiler.com/flash" xmlns:xlink="http://www.w3.org/1999/xlink" ffdec:objectType="shape" height="75.05px" width="56.3px" xmlns="http://www.w3.org/2000/svg">
  <g transform="matrix(1.0, 0.0, 0.0, 1.0, 37.9, 57.7)">
    <path d="M-19.7 -40.75 L-19.25 -54.85 4.65 -54.7 10.55 -49.7 0.75 -35.55 -12.35 -38.85 -19.65 -40.75 -19.7 -40.75 M8.85 -33.1 L8.85 -18.15 -2.35 -18.15 -2.35 3.45 4.25 3.4 4.25 11.0 -5.15 15.35 -11.65 13.65 -15.25 1.3 -16.65 6.6 -21.65 5.3 -23.5 -7.8 -25.35 -0.8 -30.65 -2.25 -26.5 -17.7 -10.5 -38.3 8.2 -33.3 8.85 -33.1" fill="#000000" fill-rule="evenodd" stroke="none"/>
    <path d="M-19.7 -40.75 L-19.65 -40.75 -12.35 -38.85 -10.5 -38.3 -26.5 -17.7 -30.65 -2.25 -35.9 -3.65 -30.9 -22.4 -19.7 -40.75 M0.75 -35.55 L10.55 -49.7 16.4 -44.65 8.85 -33.1 8.2 -33.3 0.75 -35.55 M-11.65 13.65 L-18.05 11.9 -16.65 6.6 -15.25 1.3 -11.65 13.65 M-21.65 5.3 L-26.65 3.9 -25.35 -0.8 -23.5 -7.8 -21.65 5.3" fill="#1d1d1d" fill-rule="evenodd" stroke="none"/>
    <path d="M10.55 -49.7 L4.65 -54.7 -19.25 -54.85 -19.7 -40.75 -19.65 -40.75 -12.35 -38.85 -10.5 -38.3 8.2 -33.3 M10.55 -49.7 L16.4 -44.65 8.85 -33.1 8.85 -18.15 -2.35 -18.15 -2.35 3.45 M4.25 3.4 L4.25 11.0 -5.15 15.35 -11.65 13.65 -18.05 11.9 -16.65 6.6 -21.65 5.3 -26.65 3.9 -25.35 -0.8 -30.65 -2.25 -35.9 -3.65 -30.9 -22.4 -19.7 -40.75 M-25.35 -0.8 L-23.5 -7.8 M-16.65 6.6 L-15.25 1.3" fill="none" stroke="#333333" stroke-linecap="square" stroke-linejoin="miter-clip" stroke-miterlimit="3.0" stroke-width="3.0"/>
  </g>
</svg>
