<?xml version="1.0" encoding="UTF-8" standalone="no"?>
<svg xmlns:ffdec="https://www.free-decompiler.com/flash" xmlns:xlink="http://www.w3.org/1999/xlink" ffdec:objectType="shape" height="128.0px" width="151.45px" xmlns="http://www.w3.org/2000/svg">
  <g transform="matrix(1.0, 0.0, 0.0, 1.0, 82.45, 123.05)">
    <path d="M-44.3 -50.0 L-69.75 -24.55 -82.45 -37.25 -69.75 -50.0 -82.45 -62.7 -69.75 -75.45 -44.3 -50.0" fill="#000000" fill-rule="evenodd" stroke="none"/>
    <path d="M13.35 -93.95 L13.4 -93.95 13.35 -93.95 M26.9 -60.9 L26.95 -60.85 26.9 -60.95 26.9 -60.9 M57.5 -19.05 L57.5 -59.05 -17.5 -59.05 -17.5 -19.05 57.5 -19.05 M65.0 0.95 L-25.0 0.95 -57.0 0.0 -57.0 -109.0 -25.0 -119.0 65.0 -119.0 65.0 0.95 M-25.0 -119.0 L-25.0 0.95 -25.0 -119.0" fill="#000000" fill-rule="evenodd" stroke="none"/>
    <path d="M57.5 -19.05 L-17.5 -19.05 -17.5 -59.05 57.5 -59.05 57.5 -19.05" fill="#f2efbb" fill-rule="evenodd" stroke="none"/>
    <path d="M65.0 0.95 L-25.0 0.95 -57.0 0.0 -57.0 -109.0 -25.0 -119.0 65.0 -119.0 65.0 0.95 M-25.0 0.95 L-25.0 -119.0" fill="none" stroke="#333333" stroke-linecap="square" stroke-linejoin="miter-clip" stroke-miterlimit="3.0" stroke-width="6.0"/>
  </g>
</svg>
