<?xml version="1.0" encoding="UTF-8" standalone="no"?>
<svg xmlns:ffdec="https://www.free-decompiler.com/flash" xmlns:xlink="http://www.w3.org/1999/xlink" ffdec:objectType="shape" height="128.0px" width="151.7px" xmlns="http://www.w3.org/2000/svg">
  <g transform="matrix(1.0, 0.0, 0.0, 1.0, 61.0, 123.05)">
    <path d="M52.5 -50.0 L77.95 -75.45 90.7 -62.7 77.95 -50.0 90.7 -37.25 77.95 -24.55 52.5 -50.0" fill="#000000" fill-rule="evenodd" stroke="none"/>
    <path d="M33.0 -119.0 L65.0 -109.0 65.0 0.0 33.0 0.95 33.0 -119.0" fill="#111111" fill-rule="evenodd" stroke="none"/>
    <path d="M25.5 -59.05 L25.5 -19.05 -49.5 -19.05 -49.5 -59.05 25.5 -59.05" fill="#f2efbb" fill-rule="evenodd" stroke="none"/>
    <path d="M33.0 -119.0 L33.0 0.95 -57.0 0.95 -57.0 -119.0 33.0 -119.0 M25.5 -59.05 L-49.5 -59.05 -49.5 -19.05 25.5 -19.05 25.5 -59.05 M-18.85 -60.9 L-18.85 -60.95 -18.9 -60.85 -18.85 -60.9" fill="#000000" fill-rule="evenodd" stroke="none"/>
    <path d="M33.0 0.95 L65.0 0.0 65.0 -109.0 33.0 -119.0 33.0 0.95 -57.0 0.95 -57.0 -119.0 33.0 -119.0" fill="none" stroke="#333333" stroke-linecap="square" stroke-linejoin="miter-clip" stroke-miterlimit="3.0" stroke-width="6.0"/>
  </g>
</svg>
