<?xml version="1.0" encoding="UTF-8" standalone="no"?>
<svg xmlns:ffdec="https://www.free-decompiler.com/flash" xmlns:xlink="http://www.w3.org/1999/xlink" ffdec:objectType="shape" height="135.5px" width="93.0px" xmlns="http://www.w3.org/2000/svg">
  <g transform="matrix(1.0, 0.0, 0.0, 1.0, 46.5, 62.75)">
    <path d="M25.5 60.25 L25.5 51.75 25.5 60.25 25.5 68.75 -25.5 68.75 -25.5 60.25 -42.5 43.25 -33.0 26.25 33.05 26.3 42.5 43.25 25.5 60.25 M-25.5 51.75 L-25.5 60.25 -25.5 51.75" fill="#990000" fill-rule="evenodd" stroke="none"/>
    <path d="M25.5 51.75 L25.5 60.25" fill="none" stroke="#330000" stroke-linecap="square" stroke-linejoin="miter-clip" stroke-miterlimit="10.0" stroke-width="6.0"/>
    <path d="M25.5 60.25 L42.5 43.25 33.05 26.3 -33.0 26.25 -42.5 43.25 -25.5 60.25 -25.5 68.75 25.5 68.75 25.5 60.25" fill="none" stroke="#330000" stroke-linecap="round" stroke-linejoin="miter-clip" stroke-miterlimit="10.0" stroke-width="6.0"/>
    <path d="M-25.5 60.25 L-25.5 51.75" fill="none" stroke="#330000" stroke-linecap="round" stroke-linejoin="miter-clip" stroke-miterlimit="10.0" stroke-width="6.0"/>
    <path d="M25.5 -4.75 Q34.0 4.8 34.0 17.75 34.0 22.2 33.0 26.3 30.8 34.95 24.0 41.75 14.05 51.75 0.0 51.75 -14.05 51.75 -24.05 41.75 -30.85 34.95 -33.0 26.25 -34.0 22.2 -34.0 17.75 -34.0 4.75 -25.5 -4.75 L-25.5 -58.75 25.5 -58.75 25.5 -4.75 25.5 9.25 25.5 -4.75 M-25.5 9.25 L-25.5 -4.75 -25.5 9.25" fill="#6cce8c" fill-rule="evenodd" stroke="none"/>
    <path d="M25.5 -4.75 Q34.0 4.8 34.0 17.75 34.0 22.2 33.0 26.3 30.8 34.95 24.0 41.75 14.05 51.75 0.0 51.75 -14.05 51.75 -24.05 41.75 -30.85 34.95 -33.0 26.25 -34.0 22.2 -34.0 17.75 -34.0 4.75 -25.5 -4.75 L-25.5 -58.75 25.5 -58.75 25.5 -4.75" fill="none" stroke="#1a4d2b" stroke-linecap="round" stroke-linejoin="miter-clip" stroke-miterlimit="10.0" stroke-width="6.0"/>
    <path d="M25.5 -4.75 L25.5 9.25 M-25.5 -4.75 L-25.5 9.25" fill="none" stroke="#1a4d2b" stroke-linecap="round" stroke-linejoin="miter-clip" stroke-miterlimit="10.0" stroke-width="6.0"/>
    <path d="M0.0 34.75 Q-1.75 34.75 -3.0 33.45 -4.25 32.25 -4.25 30.5 -4.25 28.75 -3.0 27.5 -1.75 26.25 0.0 26.25 1.75 26.25 3.0 27.5 4.25 28.75 4.25 30.5 4.25 32.25 3.0 33.45 1.75 34.75 0.0 34.75" fill="#2b8046" fill-rule="evenodd" stroke="none"/>
    <path d="M-12.75 -6.9 Q-14.5 -6.9 -15.75 -8.2 -17.0 -9.4 -17.0 -11.15 -17.0 -12.9 -15.75 -14.15 -14.5 -15.4 -12.75 -15.4 -11.0 -15.4 -9.75 -14.15 -8.5 -12.9 -8.5 -11.15 -8.5 -9.4 -9.75 -8.2 -11.0 -6.9 -12.75 -6.9" fill="#2b8046" fill-rule="evenodd" stroke="none"/>
    <path d="M12.75 -6.9 Q11.0 -6.9 9.75 -8.2 8.5 -9.4 8.5 -11.15 8.5 -12.9 9.75 -14.15 11.0 -15.4 12.75 -15.4 14.5 -15.4 15.75 -14.15 17.0 -12.9 17.0 -11.15 17.0 -9.4 15.75 -8.2 14.5 -6.9 12.75 -6.9" fill="#2b8046" fill-rule="evenodd" stroke="none"/>
  </g>
</svg>
