<?xml version="1.0" encoding="UTF-8" standalone="no"?>
<svg xmlns:ffdec="https://www.free-decompiler.com/flash" xmlns:xlink="http://www.w3.org/1999/xlink" ffdec:objectType="shape" height="181.3px" width="171.3px" xmlns="http://www.w3.org/2000/svg">
  <g transform="matrix(1.0, 0.0, 0.0, 1.0, 86.4, 150.65)">
    <path d="M-65.75 -115.95 Q-69.0 -115.55 -71.4 -113.15 -74.3 -110.2 -74.3 -106.05 -74.3 -101.9 -71.4 -99.0 -69.0 -96.6 -65.75 -96.15 M-65.75 -75.9 Q-68.15 -75.5 -69.95 -73.7 -72.3 -71.35 -72.3 -68.05 -72.3 -64.75 -69.95 -62.4 -68.15 -60.6 -65.75 -60.15" fill="none" stroke="#6f8b25" stroke-linecap="square" stroke-linejoin="miter-clip" stroke-miterlimit="3.0" stroke-width="16.0"/>
    <path d="M-65.75 -60.15 L-65.75 -51.4 -75.75 -50.0 -65.75 0.0 4.25 20.0 74.25 -10.0 74.25 -50.0 64.25 -51.25 64.25 -76.05 Q68.35 -76.05 71.25 -79.0 74.2 -81.9 74.2 -86.05 74.2 -90.2 71.25 -93.15 68.35 -96.05 64.25 -96.05 L64.25 -140.0 -65.75 -130.0 -65.75 -115.95 M-65.75 -96.15 L-65.75 -75.9" fill="none" stroke="#6f8b25" stroke-linecap="square" stroke-linejoin="miter-clip" stroke-miterlimit="3.0" stroke-width="16.0"/>
  </g>
</svg>
