<?xml version="1.0" encoding="UTF-8" standalone="no"?>
<svg xmlns:ffdec="https://www.free-decompiler.com/flash" xmlns:xlink="http://www.w3.org/1999/xlink" ffdec:objectType="shape" height="181.3px" width="172.0px" xmlns="http://www.w3.org/2000/svg">
  <g transform="matrix(1.0, 0.0, 0.0, 1.0, 87.95, 150.65)">
    <path d="M-15.5 19.0 L73.4 -7.2 65.0 -123.0 27.7 -140.0 -69.8 -130.0 -69.8 -115.95 Q-72.2 -115.5 -74.0 -113.15 -76.2 -110.2 -76.2 -106.05 -76.2 -101.9 -74.0 -99.0 -72.2 -96.6 -69.8 -96.15 L-69.8 -75.9 Q-71.6 -75.5 -72.95 -73.7 -74.7 -71.35 -74.7 -68.05 -74.7 -64.75 -72.95 -62.4 -71.6 -60.6 -69.8 -60.15 L-69.8 -51.4 -77.3 -50.0 -69.8 0.0 -17.3 20.0 -15.5 19.0" fill="none" stroke="#6f8b25" stroke-linecap="round" stroke-linejoin="miter-clip" stroke-miterlimit="3.0" stroke-width="16.0"/>
    <path d="M31.0 -138.0 L65.0 -123.0 73.4 -7.2 -15.5 19.0 31.0 -138.0" fill="#32341f" fill-rule="evenodd" stroke="none"/>
    <path d="M-15.5 19.0 L73.4 -7.2 65.0 -123.0 31.0 -138.0" fill="none" stroke="#32341f" stroke-linecap="square" stroke-linejoin="miter-clip" stroke-miterlimit="3.0" stroke-width="6.0"/>
  </g>
</svg>
