<?xml version="1.0" encoding="UTF-8" standalone="no"?>
<svg xmlns:ffdec="https://www.free-decompiler.com/flash" xmlns:xlink="http://www.w3.org/1999/xlink" ffdec:objectType="shape" height="161.3px" width="161.3px" xmlns="http://www.w3.org/2000/svg">
  <g transform="matrix(1.0, 0.0, 0.0, 1.0, 80.65, 140.65)">
    <path d="M-34.0 -112.15 L-13.0 -113.9 -20.0 -90.0 -34.0 -112.15" fill="#990000" fill-rule="evenodd" stroke="none"/>
    <path d="M60.0 -85.5 L60.0 -90.0 Q64.15 -90.0 67.05 -87.1 70.0 -84.15 70.0 -80.0 70.0 -75.85 67.05 -72.95 64.15 -70.0 60.0 -70.0 L60.0 -85.5 M-60.0 -14.0 Q-63.3 -14.0 -65.65 -16.35 -68.0 -18.7 -68.0 -22.0 -68.0 -25.3 -65.65 -27.65 -63.3 -30.0 -60.0 -30.0 L-60.0 -14.0 M-60.0 -60.0 Q-64.15 -60.0 -67.1 -62.95 -70.0 -65.85 -70.0 -70.0 -70.0 -74.15 -67.1 -77.1 -64.15 -80.0 -60.0 -80.0 L-60.0 -60.0" fill="#32341f" fill-rule="evenodd" stroke="none"/>
    <path d="M60.0 -70.0 Q64.15 -70.0 67.05 -72.95 70.0 -75.85 70.0 -80.0 70.0 -84.15 67.05 -87.1 64.15 -90.0 60.0 -90.0 L60.0 -85.5 60.0 -70.0 60.0 0.0 0.0 10.0 -60.0 0.0 -60.0 -14.0 Q-63.3 -14.0 -65.65 -16.35 -68.0 -18.7 -68.0 -22.0 -68.0 -25.3 -65.65 -27.65 -63.3 -30.0 -60.0 -30.0 L-60.0 -60.0 Q-64.15 -60.0 -67.1 -62.95 -70.0 -65.85 -70.0 -70.0 -70.0 -74.15 -67.1 -77.1 -64.15 -80.0 -60.0 -80.0 L-60.0 -120.0 -40.0 -121.65 -34.0 -112.15 -20.0 -90.0 -13.0 -113.9 -10.0 -124.15 40.0 -130.0 60.0 -85.5 M-60.0 -80.0 L-60.0 -60.0 M-60.0 -30.0 L-60.0 -14.0" fill="none" stroke="#6f8b25" stroke-linecap="round" stroke-linejoin="miter-clip" stroke-miterlimit="3.0" stroke-width="16.0"/>
    <path d="M-34.0 -112.15 L-13.0 -113.9" fill="none" stroke="#32341f" stroke-linecap="round" stroke-linejoin="miter-clip" stroke-miterlimit="3.0" stroke-width="6.0"/>
  </g>
</svg>
