<?xml version="1.0" encoding="UTF-8" standalone="no"?>
<svg xmlns:ffdec="https://www.free-decompiler.com/flash" xmlns:xlink="http://www.w3.org/1999/xlink" ffdec:objectType="shape" height="161.3px" width="160.7px" xmlns="http://www.w3.org/2000/svg">
  <g transform="matrix(1.0, 0.0, 0.0, 1.0, 77.55, 140.65)">
    <path d="M70.3 -87.1 Q72.5 -84.15 72.5 -80.0 72.5 -75.85 70.3 -72.95 68.1 -70.0 65.0 -70.0 L65.0 0.0 20.0 10.0 -66.9 -7.2 -56.9 -113.9 50.0 -130.0 65.0 -90.0 Q68.1 -90.0 70.3 -87.1 Z" fill="none" stroke="#6f8b25" stroke-linecap="square" stroke-linejoin="miter-clip" stroke-miterlimit="3.0" stroke-width="16.0"/>
    <path d="M-24.55 -100.0 L-22.2 0.1 -66.9 -7.2 -56.9 -113.9 -25.0 -120.0 -24.55 -100.0" fill="#32341f" fill-rule="evenodd" stroke="none"/>
    <path d="M-24.6 -120.0 L10.9 -123.4 10.0 -110.0 -24.55 -100.0 -25.0 -120.0 -24.6 -120.0" fill="#660000" fill-rule="evenodd" stroke="none"/>
    <path d="M-24.6 -120.0 L10.9 -123.4 10.0 -110.0 -24.55 -100.0 -22.2 0.1 -66.9 -7.2 -56.9 -113.9 -25.0 -120.0 -24.55 -100.0" fill="none" stroke="#32341f" stroke-linecap="square" stroke-linejoin="miter-clip" stroke-miterlimit="3.0" stroke-width="6.0"/>
  </g>
</svg>
