<?xml version="1.0" encoding="UTF-8" standalone="no"?>
<svg xmlns:ffdec="https://www.free-decompiler.com/flash" xmlns:xlink="http://www.w3.org/1999/xlink" ffdec:objectType="shape" height="71.95px" width="49.05px" xmlns="http://www.w3.org/2000/svg">
  <g transform="matrix(1.0, 0.0, 0.0, 1.0, 37.55, 53.95)">
    <path d="M4.25 3.4 L4.25 11.0 -5.15 15.35 -16.65 10.15 -16.65 6.6 -25.35 2.65 -25.35 -0.8 -34.9 -7.3 -30.4 -31.05 -19.25 -39.3 -14.3 -51.3 8.4 -44.25 5.5 -32.15 8.85 -18.15 -2.35 -18.15 -2.35 3.45 4.25 3.4 M-23.5 -7.8 L-25.35 -0.8 -23.5 -7.8 M-15.25 1.3 L-16.65 6.6 -15.25 1.3" fill="#d39b50" fill-rule="evenodd" stroke="none"/>
    <path d="M4.25 3.4 L4.25 11.0 -5.15 15.35 -16.65 10.15 -16.65 6.6" fill="none" stroke="#b3792d" stroke-linecap="square" stroke-linejoin="miter-clip" stroke-miterlimit="3.0" stroke-width="4.0"/>
    <path d="M-16.65 6.6 L-25.35 2.65 -25.35 -0.8" fill="none" stroke="#b3792d" stroke-linecap="round" stroke-linejoin="miter-clip" stroke-miterlimit="3.0" stroke-width="4.0"/>
    <path d="M-25.35 -0.8 L-34.9 -7.3 -30.4 -31.05 -19.25 -39.3 -14.3 -51.3 8.4 -44.25 5.5 -32.15 8.85 -18.15 -2.35 -18.15 -2.35 3.45 M-25.35 -0.8 L-23.5 -7.8 M-16.65 6.6 L-15.25 1.3" fill="none" stroke="#b3792d" stroke-linecap="round" stroke-linejoin="miter-clip" stroke-miterlimit="3.0" stroke-width="4.0"/>
  </g>
</svg>
