<?xml version="1.0" encoding="UTF-8" standalone="no"?>
<svg xmlns:ffdec="https://www.free-decompiler.com/flash" xmlns:xlink="http://www.w3.org/1999/xlink" ffdec:objectType="shape" height="112.05px" width="118.4px" xmlns="http://www.w3.org/2000/svg">
  <g transform="matrix(1.0, 0.0, 0.0, 1.0, 59.8, 51.25)">
    <path d="M-21.7 -10.3 L-21.7 -20.65 21.5 -20.65 21.5 -7.2 -21.7 -10.3" fill="#c6cc4a" fill-rule="evenodd" stroke="none"/>
    <path d="M21.5 -7.2 L21.5 22.55 -21.7 22.55 -21.7 -10.3 21.5 -7.2" fill="#e1e49e" fill-rule="evenodd" stroke="none"/>
    <path d="M21.5 -7.2 L21.5 -20.65 -21.7 -20.65 -21.7 -10.3 -21.7 22.55 21.5 22.55 21.5 -7.2 M26.3 27.35 L-26.5 27.35 -26.5 -25.45 26.3 -25.45 26.3 27.35" fill="#818525" fill-rule="evenodd" stroke="none"/>
    <path d="M20.35 -37.5 L45.2 -44.4 52.55 -34.95 52.15 -14.35 43.15 -15.25 43.1 -15.25 42.3 -15.35 18.9 -17.7 20.35 -37.5 M-47.0 -43.65 L-22.2 -36.75 -22.05 -31.25 -22.05 -31.05 -22.0 -30.7 -21.6 -17.1 -51.0 -15.75 -53.5 -36.05 -47.0 -43.65 M-0.05 4.7 L-0.1 4.7 -7.3 11.9 -7.25 11.9 -0.1 19.1 7.05 11.9 7.1 11.9 -0.05 4.7 M-8.95 11.9 L-8.9 11.9 -16.05 4.7 -16.1 4.7 -23.3 11.9 -23.25 11.9 -16.1 19.1 -8.95 11.9 M-24.95 11.9 L-24.9 11.9 -32.05 4.7 -32.1 4.7 -39.3 11.9 -39.25 11.9 -32.1 19.1 -24.95 11.9 M-43.25 3.2 L38.95 3.75 39.45 3.75 42.9 3.8 42.9 21.8 -43.25 21.25 -43.25 3.2 M39.05 11.9 L39.1 11.9 31.95 4.7 31.9 4.7 24.7 11.9 24.75 11.9 31.9 19.1 39.05 11.9 M23.05 11.9 L23.1 11.9 15.95 4.7 15.9 4.7 8.7 11.9 8.75 11.9 15.9 19.1 23.05 11.9" fill="#996600" fill-rule="evenodd" stroke="none"/>
    <path d="M9.65 -2.45 L15.2 -12.05 38.65 -9.7 36.85 -2.25 9.65 -2.45 M-9.5 -2.55 L-37.0 -2.7 -38.6 -10.3 -15.4 -11.4 -15.5 -14.95 -9.5 -2.55" fill="#336699" fill-rule="evenodd" stroke="none"/>
    <path d="M-3.85 34.5 L-16.0 53.25 -47.75 48.65 -39.25 36.2 -38.9 35.45 -38.6 34.5 -3.85 34.5 M37.85 34.5 L38.6 35.65 39.15 38.1 40.0 37.9 46.5 48.45 12.05 54.15 3.0 34.5 37.85 34.5" fill="#003366" fill-rule="evenodd" stroke="none"/>
    <path d="M13.55 -27.15 L0.1 -3.8 -11.6 -28.05 13.6 -28.05 13.55 -27.15" fill="#bbab73" fill-rule="evenodd" stroke="none"/>
    <path d="M9.65 -2.45 L3.95 -2.45 12.85 -17.95 12.45 -12.35 15.2 -12.05 9.65 -2.45 M-15.5 -14.95 L-15.9 -27.75 -3.7 -2.5 -9.5 -2.55 -15.5 -14.95" fill="#cc6633" fill-rule="evenodd" stroke="none"/>
    <path d="M-38.6 34.5 L-36.25 27.3 -2.3 27.5 -2.3 32.25 -2.8 32.9 -3.85 34.5 -38.6 34.5 M3.0 34.5 L2.45 33.25 1.7 32.25 1.7 27.5 36.8 27.75 38.05 33.2 37.35 33.65 37.85 34.5 3.0 34.5" fill="#8f7e45" fill-rule="evenodd" stroke="none"/>
    <path d="M-0.1 11.9 L-0.05 4.7 7.1 11.9 7.05 11.9 -0.1 11.9 M-16.05 4.7 L-8.9 11.9 -8.95 11.9 -16.1 11.9 -16.05 4.7 M-32.05 4.7 L-24.9 11.9 -24.95 11.9 -32.1 11.9 -32.05 4.7 M31.95 4.7 L39.1 11.9 39.05 11.9 31.9 11.9 31.95 4.7 M15.95 4.7 L23.1 11.9 23.05 11.9 15.9 11.9 15.95 4.7" fill="#cccccc" fill-rule="evenodd" stroke="none"/>
    <path d="M-0.1 19.1 L-0.1 11.9 7.05 11.9 -0.1 19.1 M-8.95 11.9 L-16.1 19.1 -16.1 11.9 -8.95 11.9 M-24.95 11.9 L-32.1 19.1 -32.1 11.9 -24.95 11.9 M39.05 11.9 L31.9 19.1 31.9 11.9 39.05 11.9 M23.05 11.9 L15.9 19.1 15.9 11.9 23.05 11.9" fill="#666666" fill-rule="evenodd" stroke="none"/>
    <path d="M-7.25 11.9 L-0.1 11.9 -0.1 19.1 -7.25 11.9 M-16.1 19.1 L-23.25 11.9 -16.1 11.9 -16.1 19.1 M-32.1 19.1 L-39.25 11.9 -32.1 11.9 -32.1 19.1 M31.9 19.1 L24.75 11.9 31.9 11.9 31.9 19.1 M15.9 19.1 L8.75 11.9 15.9 11.9 15.9 19.1" fill="#999999" fill-rule="evenodd" stroke="none"/>
    <path d="M-0.1 11.9 L-7.25 11.9 -7.3 11.9 -0.1 4.7 -0.05 4.7 -0.1 11.9 M-23.25 11.9 L-23.3 11.9 -16.1 4.7 -16.05 4.7 -16.1 11.9 -23.25 11.9 M-39.25 11.9 L-39.3 11.9 -32.1 4.7 -32.05 4.7 -32.1 11.9 -39.25 11.9 M24.75 11.9 L24.7 11.9 31.9 4.7 31.95 4.7 31.9 11.9 24.75 11.9 M8.75 11.9 L8.7 11.9 15.9 4.7 15.95 4.7 15.9 11.9 8.75 11.9" fill="#e0e0e0" fill-rule="evenodd" stroke="none"/>
    <path d="M14.05 -34.05 L14.7 -42.15 47.45 -51.25 58.6 -37.0 58.05 -7.7 44.7 -9.05 43.05 -2.2 48.9 -2.15 48.9 27.85 42.95 27.8 44.2 33.35 56.3 52.9 8.5 60.8 -0.75 40.7 -13.05 59.75 -58.1 53.2 -44.45 33.15 -42.55 27.25 -49.25 27.2 -49.25 -2.8 -43.1 -2.75 -44.65 -10.05 -56.3 -9.5 -59.8 -37.95 -49.05 -50.45 -16.35 -41.35 -16.15 -34.05 -12.75 -34.05 14.05 -34.05 M13.55 -27.15 L13.6 -28.05 -11.6 -28.05 0.1 -3.8 13.55 -27.15 M15.2 -12.05 L12.45 -12.35 12.85 -17.95 3.95 -2.45 9.65 -2.45 36.85 -2.25 38.65 -9.7 15.2 -12.05 M-47.0 -43.65 L-53.5 -36.05 -51.0 -15.75 -21.6 -17.1 -22.0 -30.7 -22.05 -31.05 -22.05 -31.25 -22.2 -36.75 -47.0 -43.65 M20.35 -37.5 L18.9 -17.7 42.3 -15.35 43.1 -15.25 43.15 -15.25 52.15 -14.35 52.55 -34.95 45.2 -44.4 20.35 -37.5 M-15.5 -14.95 L-15.4 -11.4 -38.6 -10.3 -37.0 -2.7 -9.5 -2.55 -3.7 -2.5 -15.9 -27.75 -15.5 -14.95 M-38.6 34.5 L-38.9 35.45 -39.25 36.2 -47.75 48.65 -16.0 53.25 -3.85 34.5 -2.8 32.9 -2.3 32.25 -2.3 27.5 -36.25 27.3 -38.6 34.5 M-43.25 3.2 L-43.25 21.25 42.9 21.8 42.9 3.8 39.45 3.75 38.95 3.75 -43.25 3.2 M37.85 34.5 L37.35 33.65 38.05 33.2 36.8 27.75 1.7 27.5 1.7 32.25 2.45 33.25 3.0 34.5 12.05 54.15 46.5 48.45 40.0 37.9 39.15 38.1 38.6 35.65 37.85 34.5" fill="#000000" fill-rule="evenodd" stroke="none"/>
  </g>
</svg>
