<?xml version="1.0" encoding="UTF-8" standalone="no"?>
<svg xmlns:ffdec="https://www.free-decompiler.com/flash" xmlns:xlink="http://www.w3.org/1999/xlink" ffdec:objectType="shape" height="148.0px" width="134.8px" xmlns="http://www.w3.org/2000/svg">
  <g transform="matrix(1.0, 0.0, 0.0, 1.0, 67.25, 132.0)">
    <path d="M3.45 -54.0 L-27.05 -54.0 -38.3 -61.5 -38.45 -61.6 -42.05 -64.0 28.45 -64.0 15.05 -58.65 14.9 -58.55 14.6 -58.45 3.45 -54.0 M21.55 -86.0 L-33.0 -86.0 -10.7 -96.85 -5.45 -113.5 0.4 -96.85 21.55 -86.0" fill="#cc6633" fill-rule="evenodd" stroke="none"/>
    <path d="M50.8 -57.7 L51.35 -57.25 60.5 -20.8 53.1 -17.85 52.6 -17.65 38.1 -11.85 28.85 -48.9 50.8 -57.7 M41.0 -70.0 L-49.0 -70.0 -49.0 -74.0 -44.5 -80.0 32.95 -80.0 41.0 -73.55 41.0 -70.0 M-48.5 -52.65 L-48.85 -52.2 -54.25 -16.1 -56.3 -17.5 -56.6 -17.65 -60.75 -20.45 -55.2 -57.15 -48.5 -52.65" fill="#bbab73" fill-rule="evenodd" stroke="none"/>
    <path d="M28.85 -48.9 L28.7 -49.5 21.9 -54.9 43.5 -63.55 50.8 -57.7 28.85 -48.9 M-48.5 -52.65 L-55.2 -57.15 -55.1 -57.8 -51.3 -62.9 -44.3 -58.25 -48.5 -52.65" fill="#c9bc8f" fill-rule="evenodd" stroke="none"/>
    <path d="M26.55 -3.8 L19.0 -40.05 19.0 -49.55 23.35 -46.05 33.95 -3.75 51.0 -10.6 51.0 -5.0 28.25 4.1 26.65 -3.45 26.55 -3.8 M-43.0 -50.0 L-43.0 -43.15 -47.55 -6.45 -47.6 -6.05 -48.35 -0.2 -55.0 -4.6 -55.0 -9.35 -49.7 -5.85 -43.1 -49.8 -43.0 -50.0" fill="#003366" fill-rule="evenodd" stroke="none"/>
    <path d="M4.55 -35.8 L4.55 -45.4 -6.95 -45.4 -3.35 -35.8 4.55 -35.8 M7.0 -19.95 L7.0 -22.0 -31.0 -22.0 -31.0 -20.7 -39.15 -25.4 -37.0 -42.8 -37.0 -53.4 -28.9 -48.0 4.6 -48.0 13.0 -51.35 13.0 -39.5 16.5 -22.9 7.0 -19.95 M-28.55 -45.4 L-28.55 -35.8 -20.65 -35.8 -17.05 -45.4 -28.55 -45.4" fill="#d39b50" fill-rule="evenodd" stroke="none"/>
    <path d="M-31.0 -20.7 L-31.0 -0.6 -41.4 -7.55 -39.15 -25.4 -31.0 -20.7 M16.5 -22.9 L20.3 -4.7 7.0 0.6 7.0 -19.95 16.5 -22.9" fill="#ac8653" fill-rule="evenodd" stroke="none"/>
    <path d="M47.0 -76.45 L47.0 -68.45 56.7 -60.7 67.55 -17.15 57.0 -12.95 57.0 -0.95 23.8 12.35 21.5 1.3 5.55 7.65 -4.95 16.0 -23.5 16.0 -30.1 7.25 -42.2 -0.85 -43.6 10.2 -61.0 -1.4 -61.0 -13.35 -67.25 -17.55 -60.85 -60.2 -55.0 -68.0 -55.0 -76.0 -48.55 -84.55 -48.3 -84.9 -48.2 -85.0 -48.15 -85.05 -48.1 -85.1 -47.3 -85.7 -47.2 -85.75 -15.65 -101.15 -5.9 -132.0 -5.55 -132.0 5.25 -101.1 35.05 -85.8 35.25 -85.75 35.6 -85.55 35.8 -85.4 35.9 -85.35 36.15 -85.1 47.0 -76.45 M28.85 -48.9 L38.1 -11.85 52.6 -17.65 53.1 -17.85 60.5 -20.8 51.35 -57.25 50.8 -57.7 43.5 -63.55 21.9 -54.9 28.7 -49.5 28.85 -48.9 M41.0 -70.0 L41.0 -73.55 32.95 -80.0 -44.5 -80.0 -49.0 -74.0 -49.0 -70.0 41.0 -70.0 M21.55 -86.0 L0.4 -96.85 -5.45 -113.5 -10.7 -96.85 -33.0 -86.0 21.55 -86.0 M3.45 -54.0 L14.6 -58.45 14.9 -58.55 15.05 -58.65 28.45 -64.0 -42.05 -64.0 -38.45 -61.6 -38.3 -61.5 -27.05 -54.0 3.45 -54.0 M4.55 -35.8 L-3.35 -35.8 -6.95 -45.4 4.55 -45.4 4.55 -35.8 M-31.0 -20.7 L-31.0 -22.0 7.0 -22.0 7.0 -19.95 7.0 0.6 20.3 -4.7 16.5 -22.9 13.0 -39.5 13.0 -51.35 4.6 -48.0 -28.9 -48.0 -37.0 -53.4 -37.0 -42.8 -39.15 -25.4 -41.4 -7.55 -31.0 -0.6 -31.0 -20.7 M-43.0 -50.0 L-43.1 -49.8 -49.7 -5.85 -55.0 -9.35 -55.0 -4.6 -48.35 -0.2 -47.6 -6.05 -47.55 -6.45 -43.0 -43.15 -43.0 -50.0 M26.55 -3.8 L26.65 -3.45 28.25 4.1 51.0 -5.0 51.0 -10.6 33.95 -3.75 23.35 -46.05 19.0 -49.55 19.0 -40.05 26.55 -3.8 M-55.2 -57.15 L-60.75 -20.45 -56.6 -17.65 -56.3 -17.5 -54.25 -16.1 -48.85 -52.2 -48.5 -52.65 -44.3 -58.25 -51.3 -62.9 -55.1 -57.8 -55.2 -57.15 M-28.55 -45.4 L-17.05 -45.4 -20.65 -35.8 -28.55 -35.8 -28.55 -45.4 M-25.0 -14.0 L-25.0 -8.0 -3.0 -8.0 -3.0 -14.0 -25.0 -14.0" fill="#000000" fill-rule="evenodd" stroke="none"/>
    <path d="M-25.0 -14.0 L-3.0 -14.0 -3.0 -8.0 -25.0 -8.0 -25.0 -14.0" fill="#999999" fill-rule="evenodd" stroke="none"/>
  </g>
</svg>
