<?xml version="1.0" encoding="UTF-8" standalone="no"?>
<svg xmlns:ffdec="https://www.free-decompiler.com/flash" xmlns:xlink="http://www.w3.org/1999/xlink" ffdec:objectType="shape" height="171.2px" width="148.4px" xmlns="http://www.w3.org/2000/svg">
  <g transform="matrix(1.0, 0.0, 0.0, 1.0, 73.7, 107.25)">
    <path d="M10.5 -50.05 L0.5 -40.05 -9.5 -50.05 10.5 -50.05" fill="#cc6633" fill-rule="evenodd" stroke="none"/>
    <path d="M50.5 9.95 L40.5 19.95 31.4 19.95 34.15 9.95 50.5 9.95 M-33.1 9.95 L-30.4 19.95 -39.5 19.95 -49.5 9.95 -33.1 9.95" fill="#000000" fill-rule="evenodd" stroke="none"/>
    <path d="M10.5 -50.05 L10.5 -80.05 30.5 -80.05 20.5 59.95 -19.5 59.95 -29.5 -80.05 -9.5 -80.05 -9.5 -50.05 0.5 -40.05 10.5 -50.05" fill="#687182" fill-rule="evenodd" stroke="none"/>
    <path d="M50.5 -10.05 L50.5 -0.05 36.85 -0.05 50.5 -50.05 50.5 -10.05 M-49.5 -50.05 L-35.85 -0.05 -49.5 -0.05 -49.5 -10.05 -49.5 -50.05" fill="#ff6600" fill-rule="evenodd" stroke="none"/>
    <path d="M-29.5 -80.05 L-19.5 59.95 -30.4 19.95 -33.1 9.95 -35.85 -0.05 -33.1 9.95 -49.5 9.95 -49.5 -0.05 -35.85 -0.05 -49.5 -50.05 -29.5 -80.05 M20.5 59.95 L30.5 -80.05 50.5 -50.05 36.85 -0.05 50.5 -0.05 50.5 9.95 34.15 9.95 31.4 19.95 20.5 59.95 M34.15 9.95 L36.85 -0.05 34.15 9.95" fill="#454b56" fill-rule="evenodd" stroke="none"/>
    <path d="M10.5 -80.05 L10.5 -50.05 -9.5 -50.05 -9.5 -80.05 10.5 -80.05 M50.5 -50.05 L70.5 -30.05 50.5 -10.05 50.5 -50.05 M-49.5 -10.05 L-69.5 -30.05 -49.5 -50.05 -49.5 -10.05" fill="#dece5f" fill-rule="evenodd" stroke="none"/>
    <path d="M50.5 -50.05 L30.5 -80.05 50.5 -100.05 50.5 -50.05 M-49.5 -50.05 L-49.5 -100.05 -29.5 -80.05 -49.5 -50.05" fill="#993300" fill-rule="evenodd" stroke="none"/>
    <path d="M10.5 -80.05 L10.5 -50.05 0.5 -40.05 -9.5 -50.05 -9.5 -80.05 M-29.5 -80.05 L-19.5 59.95 M20.5 59.95 L30.5 -80.05 50.5 -50.05 50.5 -10.05 M36.85 -0.05 L50.5 -50.05 M50.5 -0.05 L36.85 -0.05 34.15 9.95 50.5 9.95 M31.4 19.95 L34.15 9.95 M-29.5 -80.05 L-49.5 -50.05 -35.85 -0.05 -33.1 9.95 -30.4 19.95 M-49.5 -10.05 L-49.5 -50.05 M-35.85 -0.05 L-49.5 -0.05 M-49.5 9.95 L-33.1 9.95 M10.5 -50.05 L-9.5 -50.05" fill="none" stroke="#000000" stroke-linecap="round" stroke-linejoin="miter-clip" stroke-miterlimit="3.0" stroke-width="4.0"/>
    <path d="M-9.5 -80.05 L-29.5 -80.05 -49.5 -100.05 -49.5 -50.05 -69.5 -30.05 -49.5 -10.05 -49.5 -0.05 -49.5 9.95 -39.5 19.95 -30.4 19.95 -19.5 59.95 20.5 59.95 31.4 19.95 40.5 19.95 50.5 9.95 50.5 -0.05 50.5 -10.05 70.5 -30.05 50.5 -50.05 50.5 -100.05 30.5 -80.05 10.5 -80.05 -9.5 -80.05" fill="none" stroke="#000000" stroke-linecap="round" stroke-linejoin="miter-clip" stroke-miterlimit="3.0" stroke-width="6.0"/>
  </g>
</svg>
