<?xml version="1.0" encoding="UTF-8" standalone="no"?>
<svg xmlns:ffdec="https://www.free-decompiler.com/flash" xmlns:xlink="http://www.w3.org/1999/xlink" ffdec:objectType="shape" height="158.0px" width="164.45px" xmlns="http://www.w3.org/2000/svg">
  <g transform="matrix(1.0, 0.0, 0.0, 1.0, 87.65, 129.0)">
    <path d="M40.55 25.0 L25.55 25.0 33.05 18.35 40.55 25.0 M10.55 25.0 L-4.45 25.0 3.05 18.35 10.55 25.0" fill="#000000" fill-rule="evenodd" stroke="none"/>
    <path d="M3.05 -115.0 L3.05 -125.0 33.05 -125.0 33.05 -115.0 33.05 -95.0 3.05 -95.0 3.05 -115.0 M57.3 -82.75 L72.8 -75.0 72.8 -45.0 57.8 -37.5 57.3 -37.5 57.3 -75.0 57.3 -82.75 M25.55 25.0 L10.55 25.0 3.05 18.35 -11.95 5.0 3.05 -45.0 3.05 -75.0 33.05 -75.0 33.05 -45.0 48.05 5.0 33.05 18.35 25.55 25.0 M25.55 -55.0 L25.55 -65.0 10.55 -65.0 10.55 -55.0 10.55 -25.0 25.55 -25.0 25.55 -55.0 M3.05 -5.0 L33.05 -5.0 3.05 -5.0 M3.05 -15.0 L33.05 -15.0 3.05 -15.0 M3.05 5.0 L33.05 5.0 3.05 5.0" fill="#d1df24" fill-rule="evenodd" stroke="none"/>
    <path d="M3.05 -115.0 L3.05 -95.0 -29.05 -80.25 -29.05 -100.25 3.05 -115.0 M33.05 -95.0 L33.05 -115.0 57.3 -95.0 57.3 -82.75 57.3 -75.0 33.05 -95.0" fill="#808899" fill-rule="evenodd" stroke="none"/>
    <path d="M25.55 -55.0 L10.55 -55.0 10.55 -65.0 25.55 -65.0 25.55 -55.0" fill="#ec5f00" fill-rule="evenodd" stroke="none"/>
    <path d="M3.05 -95.0 L33.05 -95.0 57.3 -75.0 57.3 -37.5 57.3 -37.25 57.3 5.5 51.2 15.55 48.05 5.0 33.05 -45.0 33.05 -75.0 3.05 -75.0 3.05 -45.0 -11.95 5.0 -15.1 15.55 -29.05 3.0 -29.05 -80.25 3.05 -95.0" fill="#687182" fill-rule="evenodd" stroke="none"/>
    <path d="M10.55 -55.0 L25.55 -55.0 25.55 -25.0 10.55 -25.0 10.55 -55.0" fill="#ff6600" fill-rule="evenodd" stroke="none"/>
    <path d="M51.2 15.55 L40.55 25.0 33.05 18.35 48.05 5.0 51.2 15.55 M-4.45 25.0 L-51.05 25.0 -29.05 3.0 -15.1 15.55 -11.95 5.0 3.05 18.35 -4.45 25.0 -15.1 15.55 -4.45 25.0" fill="#454b56" fill-rule="evenodd" stroke="none"/>
    <path d="M-51.05 25.0 L-64.05 12.0 -64.05 -80.25 -29.05 -80.25 -29.05 3.0 -51.05 25.0" fill="#949ca7" fill-rule="evenodd" stroke="none"/>
    <path d="M-29.05 -100.25 L-29.05 -80.25 -64.05 -80.25 -64.05 -100.25 -29.05 -100.25" fill="#afb7be" fill-rule="evenodd" stroke="none"/>
    <path d="M-34.45 -115.0 L3.05 -115.0 -29.05 -100.25 -64.05 -100.25 -34.45 -115.0" fill="#d1d6d8" fill-rule="evenodd" stroke="none"/>
    <path d="M3.05 -125.0 L3.05 -115.0 -34.45 -115.0 -14.4 -125.0 3.05 -125.0" fill="#b0af1c" fill-rule="evenodd" stroke="none"/>
    <path d="M33.05 -115.0 L33.05 -125.0 3.05 -125.0 -14.4 -125.0 -34.45 -115.0 -64.05 -100.25 -64.05 -80.25 -64.05 12.0 -51.05 25.0 -4.45 25.0 10.55 25.0 25.55 25.0 40.55 25.0 51.2 15.55 57.3 5.5 57.3 -37.25 57.8 -37.5 M33.05 -15.0 L3.05 -15.0 M33.05 -5.0 L3.05 -5.0 M33.05 5.0 L3.05 5.0" fill="none" stroke="#000000" stroke-linecap="square" stroke-linejoin="miter-clip" stroke-miterlimit="3.0" stroke-width="6.0"/>
    <path d="M3.05 -125.0 L3.05 -115.0 3.05 -95.0 33.05 -95.0 33.05 -115.0 M-34.45 -115.0 L3.05 -115.0 -29.05 -100.25 -29.05 -80.25 -29.05 3.0 -15.1 15.55 -4.45 25.0 3.05 18.35 10.55 25.0 M25.55 -55.0 L25.55 -65.0 10.55 -65.0 10.55 -55.0 10.55 -25.0 25.55 -25.0 25.55 -55.0 M-11.95 5.0 L3.05 -45.0 3.05 -75.0 33.05 -75.0 33.05 -45.0 48.05 5.0 33.05 18.35 25.55 25.0 M57.3 -37.25 L57.3 -37.5 M40.55 25.0 L33.05 18.35 M-29.05 -100.25 L-64.05 -100.25 M-11.95 5.0 L3.05 18.35 M-29.05 3.0 L-51.05 25.0" fill="none" stroke="#000000" stroke-linecap="square" stroke-linejoin="miter-clip" stroke-miterlimit="3.0" stroke-width="4.0"/>
    <path d="M57.8 -37.5 L72.8 -45.0 72.8 -75.0 57.3 -82.75 57.3 -95.0 33.05 -115.0" fill="none" stroke="#000000" stroke-linecap="square" stroke-linejoin="miter-clip" stroke-miterlimit="3.0" stroke-width="6.0"/>
    <path d="M57.3 -82.75 L57.3 -75.0 57.3 -37.5" fill="none" stroke="#000000" stroke-linecap="round" stroke-linejoin="miter-clip" stroke-miterlimit="3.0" stroke-width="4.0"/>
    <path d="M-70.25 -40.65 L-85.0 -50.4 -85.0 -69.65 -70.25 -79.3 -55.55 -69.65 -55.55 -50.4 -70.25 -40.65" fill="#b0af1c" fill-rule="evenodd" stroke="none"/>
    <path d="M-70.25 -79.3 L-57.7 -87.6 -36.65 -73.8 -36.65 -46.25 -57.65 -32.4 -70.25 -40.65 -55.55 -50.4 -55.55 -69.65 -70.25 -79.3" fill="#d1df24" fill-rule="evenodd" stroke="none"/>
    <path d="M-70.25 -40.65 L-85.0 -50.4 -85.0 -69.65 -70.25 -79.3 -57.7 -87.6 -36.65 -73.8 -36.65 -46.25 -57.65 -32.4 -70.25 -40.65 -55.55 -50.4 -55.55 -69.65 -70.25 -79.3" fill="none" stroke="#000000" stroke-linecap="round" stroke-linejoin="miter-clip" stroke-miterlimit="3.0" stroke-width="4.0"/>
  </g>
</svg>
