<?xml version="1.0" encoding="UTF-8" standalone="no"?>
<svg xmlns:ffdec="https://www.free-decompiler.com/flash" xmlns:xlink="http://www.w3.org/1999/xlink" ffdec:objectType="shape" height="67.05px" width="227.65px" xmlns="http://www.w3.org/2000/svg">
  <g transform="matrix(1.0, 0.0, 0.0, 1.0, 106.65, 33.5)">
    <path d="M-39.65 24.7 L-39.65 24.65 -39.65 24.7" fill="#000000" fill-rule="evenodd" stroke="none"/>
    <path d="M120.0 0.0 L75.1 24.7 -39.65 24.7 -39.65 24.65 -20.0 0.0 -45.2 9.7 -64.0 9.7 -69.65 9.7 -77.65 0.0 -20.0 0.0 120.0 0.0" fill="#660000" fill-rule="evenodd" stroke="none"/>
    <path d="M-39.65 -20.3 L100.0 -20.0 120.0 0.0 -20.0 0.0 -77.65 0.0 -69.65 -9.05 -63.6 -9.05 -44.9 -9.05 -20.0 0.0 -39.65 -20.3" fill="#dd0000" fill-rule="evenodd" stroke="none"/>
    <path d="M-39.65 24.65 L-45.2 9.7 -20.0 0.0 -39.65 24.65" fill="#aa0000" fill-rule="evenodd" stroke="none"/>
    <path d="M-44.9 -9.05 L-39.65 -20.3 -20.0 0.0 -44.9 -9.05" fill="#ee0000" fill-rule="evenodd" stroke="none"/>
    <path d="M-63.6 -9.05 L-67.8 -16.25 -86.55 -16.25 -104.75 -9.55 -105.65 -11.35 -80.0 -32.5 -58.4 -32.5 -44.9 -9.05 -63.6 -9.05" fill="url(#gradient0)" fill-rule="evenodd" stroke="none"/>
    <path d="M-45.2 9.7 L-58.4 32.55 -80.0 32.55 -105.65 11.35 -104.75 9.55 -86.55 16.25 -67.8 16.25 -64.0 9.7 -45.2 9.7" fill="url(#gradient1)" fill-rule="evenodd" stroke="none"/>
    <path d="M-63.6 -9.05 L-44.9 -9.05 M-45.2 9.7 L-64.0 9.7 M-20.0 0.0 L-77.65 0.0 M-20.0 0.0 L120.0 0.0" fill="none" stroke="#ff6600" stroke-linecap="round" stroke-linejoin="round" stroke-opacity="0.3019608" stroke-width="2.0"/>
    <path d="M-39.65 24.65 L-20.0 0.0 -45.2 9.7 M-44.9 -9.05 L-20.0 0.0 -39.65 -20.3" fill="none" stroke="#ff6600" stroke-linecap="round" stroke-linejoin="round" stroke-opacity="0.3019608" stroke-width="2.0"/>
    <path d="M-39.65 24.65 L-39.65 24.7" fill="none" stroke="#ff6600" stroke-linecap="round" stroke-linejoin="round" stroke-opacity="0.6" stroke-width="2.0"/>
    <path d="M-44.9 -9.05 L-39.65 -20.3 100.0 -20.0 120.0 0.0 75.1 24.7 -39.65 24.7 -39.65 24.65 -45.2 9.7 M-64.0 9.7 L-69.65 9.7 -77.65 0.0 -69.65 -9.05 -63.6 -9.05" fill="none" stroke="#ff9900" stroke-linecap="round" stroke-linejoin="round" stroke-width="2.0"/>
    <path d="M-63.6 -9.05 L-67.8 -16.25 -86.55 -16.25 -104.75 -9.55 -105.65 -11.35 -80.0 -32.5 -58.4 -32.5 -44.9 -9.05 M-45.2 9.7 L-58.4 32.55 -80.0 32.55 -105.65 11.35 -104.75 9.55 -86.55 16.25 -67.8 16.25 -64.0 9.7" fill="none" stroke="#cccccc" stroke-linecap="round" stroke-linejoin="round" stroke-width="2.0"/>
    <path d="M87.9 8.75 Q89.45 7.1 90.0 4.0 91.85 18.15 70.0 24.0 L50.0 24.0 Q54.3 22.95 58.3 18.85 62.1 14.3 63.75 12.9 L65.35 11.65 Q65.95 14.1 68.4 14.5 70.75 14.9 72.05 13.05 74.55 9.5 76.2 8.3 78.5 6.65 82.9 6.1 81.5 9.45 84.75 10.0 86.4 10.3 87.9 8.75 M59.9 8.75 Q61.45 7.1 62.0 4.0 63.85 18.15 42.0 24.0 L22.0 24.0 Q26.3 22.95 30.3 18.85 34.1 14.3 35.75 12.9 L37.35 11.65 Q37.95 14.1 40.4 14.5 42.75 14.9 44.05 13.05 46.55 9.5 48.2 8.3 50.5 6.65 54.9 6.1 53.5 9.45 56.75 10.0 58.4 10.3 59.9 8.75 M34.0 4.0 Q35.85 18.15 14.0 24.0 L-6.0 24.0 Q-1.7 22.95 2.3 18.85 6.1 14.3 7.75 12.9 L9.35 11.65 Q9.95 14.1 12.4 14.5 14.75 14.9 16.05 13.05 18.55 9.5 20.2 8.3 22.5 6.65 26.9 6.1 25.5 9.45 28.75 10.0 30.4 10.3 31.9 8.75 33.45 7.1 34.0 4.0" fill="url(#gradient2)" fill-rule="evenodd" stroke="none"/>
  </g>
  <defs>
    <linearGradient gradientTransform="matrix(0.0371, 0.0, 0.0, 0.0143, -75.3, -20.8)" gradientUnits="userSpaceOnUse" id="gradient0" spreadMethod="pad" x1="-819.2" x2="819.2">
      <stop offset="0.0" stop-color="#626262"/>
      <stop offset="0.807843137254902" stop-color="#111111"/>
    </linearGradient>
    <linearGradient gradientTransform="matrix(0.0369, 0.0, 0.0, 0.014, -75.45, 21.05)" gradientUnits="userSpaceOnUse" id="gradient1" spreadMethod="pad" x1="-819.2" x2="819.2">
      <stop offset="0.0" stop-color="#626262"/>
      <stop offset="0.807843137254902" stop-color="#111111"/>
    </linearGradient>
    <linearGradient gradientTransform="matrix(0.0, -0.0104, 0.0587, 0.0, 42.05, 14.5)" gradientUnits="userSpaceOnUse" id="gradient2" spreadMethod="pad" x1="-819.2" x2="819.2">
      <stop offset="0.0" stop-color="#870101"/>
      <stop offset="1.0" stop-color="#a93301"/>
    </linearGradient>
  </defs>
</svg>
