<?xml version="1.0" encoding="UTF-8" standalone="no"?>
<svg xmlns:ffdec="https://www.free-decompiler.com/flash" xmlns:xlink="http://www.w3.org/1999/xlink" ffdec:objectType="shape" height="160.05px" width="252.9px" xmlns="http://www.w3.org/2000/svg">
  <g transform="matrix(1.0, 0.0, 0.0, 1.0, 217.4, 45.15)">
    <path d="M7.55 -41.55 Q24.8 -34.4 31.95 -17.25 39.05 0.0 31.9 17.25 24.75 34.5 7.55 41.6 1.85 43.95 -3.85 44.8 L-11.0 62.05 3.35 62.05 3.35 92.05 -31.9 107.05 -146.65 107.05 -146.65 92.05 -152.2 92.05 -165.4 114.9 -202.9 114.9 -217.4 89.8 -217.25 74.8 -176.65 74.8 -217.25 74.8 -202.9 49.85 -165.4 49.85 -158.5 61.85 -123.4 61.85 -123.3 62.05 -59.7 62.05 -45.4 27.55 Q-48.9 22.95 -51.25 17.2 -58.35 0.05 -51.2 -17.2 -44.1 -34.45 -26.9 -41.6 -15.6 -46.3 -4.2 -44.75 1.65 -44.0 7.55 -41.55" fill="#ffffff" fill-opacity="0.101960786" fill-rule="evenodd" stroke="none"/>
  </g>
</svg>
