<?xml version="1.0" encoding="UTF-8" standalone="no"?>
<svg xmlns:ffdec="https://www.free-decompiler.com/flash" xmlns:xlink="http://www.w3.org/1999/xlink" ffdec:objectType="shape" height="77.05px" width="237.0px" xmlns="http://www.w3.org/2000/svg">
  <g transform="matrix(1.0, 0.0, 0.0, 1.0, 267.65, -23.85)">
    <path d="M-30.65 42.05 L-30.65 72.05 Q-30.7 73.8 -31.65 75.35 -32.65 76.85 -34.3 77.55 L-69.55 92.55 -71.9 93.05 -186.65 93.05 Q-189.15 93.05 -190.9 91.3 -192.7 89.5 -192.65 87.05 L-192.65 84.85 -200.2 97.9 Q-201.05 99.25 -202.45 100.1 -203.85 100.9 -205.4 100.9 L-242.9 100.9 Q-244.55 100.9 -245.9 100.1 -247.3 99.25 -248.1 97.9 L-266.85 65.4 Q-267.65 63.95 -267.65 62.4 -267.65 60.8 -266.85 59.4 L-248.1 26.85 Q-247.3 25.45 -245.9 24.65 -244.55 23.85 -242.9 23.85 L-205.4 23.85 Q-202.95 23.85 -201.15 25.6 L-201.15 25.65 -200.2 26.9 -192.45 40.35 Q-192.05 38.9 -190.9 37.8 -189.15 36.0 -186.65 36.05 L-36.65 36.05 Q-34.2 36.0 -32.4 37.8 -30.65 39.55 -30.65 42.05" fill="url(#gradient0)" fill-rule="evenodd" stroke="none"/>
    <path d="M-242.9 29.85 L-205.4 29.85 -205.4 29.9 -191.9 53.3 -218.9 53.3 -224.15 62.4 -218.55 72.05 -192.2 72.05 -205.4 94.9 -242.85 94.9 -242.9 94.9 -243.85 93.2 -261.4 62.75 -261.6 62.4 -261.65 62.4 -243.5 30.9 -242.9 29.85 -224.15 62.4 -261.6 62.4 -224.15 62.4 -242.9 29.85 -243.5 30.9 -242.9 29.85 M-205.4 94.9 L-218.55 72.05 -205.4 94.9 M-242.85 94.9 L-224.15 62.4 -242.85 94.9 -243.85 93.2 -242.85 94.9 M-218.9 53.3 L-205.4 29.9 -218.9 53.3" fill="#000000" fill-rule="evenodd" stroke="none"/>
    <path d="M-190.95 62.4 L-190.95 72.05 -192.2 72.05 -218.55 72.05 -224.15 62.4 -190.95 62.4" fill="#660000" fill-rule="evenodd" stroke="none"/>
    <path d="M-191.9 53.3 L-190.95 53.3 -190.95 62.4 -224.15 62.4 -218.9 53.3 -191.9 53.3" fill="#dd0000" fill-rule="evenodd" stroke="none"/>
    <path d="M-242.9 29.85 L-205.4 29.85 -205.4 29.9 -191.9 53.3 -190.95 53.3 M-190.95 72.05 L-192.2 72.05 -205.4 94.9 -242.85 94.9 -242.9 94.9 M-243.85 93.2 L-261.4 62.75 -261.65 62.4 -243.5 30.9 -242.9 29.85 M-242.85 94.9 L-243.85 93.2 M-261.6 62.4 L-261.65 62.4" fill="none" stroke="#ffffff" stroke-linecap="round" stroke-linejoin="round" stroke-opacity="0.6" stroke-width="2.0"/>
    <path d="M-218.55 72.05 L-205.4 94.9 M-224.15 62.4 L-242.85 94.9 M-205.4 29.9 L-218.9 53.3 M-261.6 62.4 L-224.15 62.4 -242.9 29.85" fill="none" stroke="#ffffff" stroke-linecap="round" stroke-linejoin="round" stroke-opacity="0.3019608" stroke-width="2.0"/>
    <path d="M-191.9 53.3 L-218.9 53.3 -224.15 62.4 -190.95 62.4 M-224.15 62.4 L-218.55 72.05 -192.2 72.05" fill="none" stroke="#ff6600" stroke-linecap="round" stroke-linejoin="round" stroke-opacity="0.3019608" stroke-width="2.0"/>
  </g>
  <defs>
    <linearGradient gradientTransform="matrix(0.1447, 0.0, 0.0, 0.047, -149.15, 62.35)" gradientUnits="userSpaceOnUse" id="gradient0" spreadMethod="pad" x1="-819.2" x2="819.2">
      <stop offset="0.0" stop-color="#ffffff" stop-opacity="0.3019608"/>
      <stop offset="1.0" stop-color="#ffffff" stop-opacity="0.0"/>
    </linearGradient>
  </defs>
</svg>
