<?xml version="1.0" encoding="UTF-8" standalone="no"?>
<svg xmlns:ffdec="https://www.free-decompiler.com/flash" xmlns:xlink="http://www.w3.org/1999/xlink" ffdec:objectType="shape" height="67.05px" width="72.7px" xmlns="http://www.w3.org/2000/svg">
  <g transform="matrix(1.0, 0.0, 0.0, 1.0, 262.65, -28.85)">
    <path d="M-242.9 29.85 L-205.4 29.85 -205.4 29.9 -191.9 53.3 -218.9 53.3 -224.15 62.4 -242.85 94.9 -242.9 94.9 -243.85 93.2 -261.4 62.75 -261.6 62.4 -261.65 62.4 -243.5 30.9 -242.9 29.85 -224.15 62.4 -261.6 62.4 -224.15 62.4 -242.9 29.85 -243.5 30.9 -242.9 29.85 M-192.2 72.05 L-205.4 94.9 -242.85 94.9 -224.15 62.4 -218.55 72.05 -192.2 72.05 M-243.85 93.2 L-242.85 94.9 -243.85 93.2 M-218.9 53.3 L-205.4 29.9 -218.9 53.3 M-205.4 94.9 L-218.55 72.05 -205.4 94.9" fill="#000000" fill-rule="evenodd" stroke="none"/>
    <path d="M-190.95 62.4 L-190.95 72.05 -192.2 72.05 -218.55 72.05 -224.15 62.4 -190.95 62.4" fill="#660000" fill-rule="evenodd" stroke="none"/>
    <path d="M-191.9 53.3 L-190.95 53.3 -190.95 62.4 -224.15 62.4 -218.9 53.3 -191.9 53.3" fill="#dd0000" fill-rule="evenodd" stroke="none"/>
    <path d="M-242.9 29.85 L-205.4 29.85 -205.4 29.9 -191.9 53.3 -190.95 53.3 M-190.95 72.05 L-192.2 72.05 -205.4 94.9 -242.85 94.9 -242.9 94.9 M-243.85 93.2 L-261.4 62.75 -261.65 62.4 -243.5 30.9 -242.9 29.85 M-242.85 94.9 L-243.85 93.2 M-261.6 62.4 L-261.65 62.4" fill="none" stroke="#ffffff" stroke-linecap="round" stroke-linejoin="round" stroke-opacity="0.6" stroke-width="2.0"/>
    <path d="M-224.15 62.4 L-242.85 94.9 M-218.55 72.05 L-205.4 94.9 M-205.4 29.9 L-218.9 53.3 M-261.6 62.4 L-224.15 62.4 -242.9 29.85" fill="none" stroke="#ffffff" stroke-linecap="round" stroke-linejoin="round" stroke-opacity="0.3019608" stroke-width="2.0"/>
    <path d="M-191.9 53.3 L-218.9 53.3 -224.15 62.4 -190.95 62.4 M-224.15 62.4 L-218.55 72.05 -192.2 72.05" fill="none" stroke="#ff6600" stroke-linecap="round" stroke-linejoin="round" stroke-opacity="0.3019608" stroke-width="2.0"/>
  </g>
</svg>
