<?xml version="1.0" encoding="UTF-8" standalone="no"?>
<svg xmlns:ffdec="https://www.free-decompiler.com/flash" xmlns:xlink="http://www.w3.org/1999/xlink" ffdec:objectType="shape" height="227.9px" width="220.55px" xmlns="http://www.w3.org/2000/svg">
  <g transform="matrix(1.0, 0.0, 0.0, 1.0, 110.25, 113.95)">
    <path d="M23.7 -103.35 L51.9 -105.95 70.9 -92.95 -109.1 -72.95 -89.1 -92.95 -50.4 -96.5 23.7 -103.35" fill="url(#gradient0)" fill-rule="evenodd" stroke="none"/>
    <path d="M-109.1 -72.95 L70.9 -92.95 51.4 -72.95 -89.1 -52.95 -109.1 -72.95" fill="url(#gradient1)" fill-rule="evenodd" stroke="none"/>
    <path d="M51.4 -59.55 L75.55 -48.75 55.6 -40.5 44.1 -35.7 -90.75 20.15 -79.95 -6.0 19.95 -46.7 51.4 -59.55 M44.1 -35.7 L19.95 -46.7 44.1 -35.7" fill="url(#gradient2)" fill-rule="evenodd" stroke="none"/>
    <path d="M75.55 -48.75 L94.0 -56.4 109.3 -19.45 90.85 -11.8 70.9 -3.55 59.25 1.3 -74.5 56.7 -75.45 57.1 -76.45 57.5 -93.95 64.75 -109.25 27.8 -90.75 20.15 44.1 -35.7 55.6 -40.5 75.55 -48.75 M55.6 -40.5 L70.9 -3.55 55.6 -40.5" fill="url(#gradient3)" fill-rule="evenodd" stroke="none"/>
    <path d="M-79.95 -6.0 L-87.2 -43.2 10.9 -58.85 19.95 -46.7 -79.95 -6.0" fill="url(#gradient4)" fill-rule="evenodd" stroke="none"/>
    <path d="M90.85 -11.8 L94.0 -3.1 60.35 10.85 59.25 1.3 60.35 10.85 -71.55 65.5 -75.45 57.1 -74.5 56.7 59.25 1.3 70.9 -3.55 90.85 -11.8" fill="url(#gradient5)" fill-rule="evenodd" stroke="none"/>
    <path d="M-74.5 56.7 L-75.45 57.1 -74.5 56.7" fill="url(#gradient6)" fill-rule="evenodd" stroke="none"/>
    <path d="M94.0 -3.1 Q103.3 27.0 90.85 57.1 76.6 91.55 42.15 105.8 26.5 112.25 10.9 112.9 -7.95 113.6 -26.75 105.8 -56.85 93.35 -71.55 65.5 L60.35 10.85 94.0 -3.1 M10.9 112.9 Q19.85 112.2 28.8 105.8 48.6 91.5 56.8 57.15 62.3 34.0 60.35 10.85 62.3 34.0 56.8 57.15 48.6 91.5 28.8 105.8 19.85 112.2 10.9 112.9" fill="url(#gradient7)" fill-rule="evenodd" stroke="none"/>
    <path d="M51.4 -72.95 L51.4 -59.55 19.95 -46.7 10.9 -58.85 -87.2 -43.2 -89.1 -52.95 51.4 -72.95" fill="url(#gradient8)" fill-rule="evenodd" stroke="none"/>
    <path d="M23.7 -103.35 L-50.4 -96.5 Q-33.15 -112.95 -9.1 -112.95 9.3 -112.95 23.7 -103.35" fill="url(#gradient9)" fill-rule="evenodd" stroke="none"/>
    <path d="M23.7 -103.35 L-50.4 -96.5 M-109.1 -72.95 L70.9 -92.95 M55.6 -40.5 L44.1 -35.7 -90.75 20.15 M55.6 -40.5 L75.55 -48.75 M51.4 -59.55 L19.95 -46.7 -79.95 -6.0 M90.85 -11.8 L70.9 -3.55 59.25 1.3 -74.5 56.7 -75.45 57.1 M51.4 -72.95 L-89.1 -52.95" fill="none" stroke="#ff6600" stroke-linecap="round" stroke-linejoin="round" stroke-opacity="0.6" stroke-width="2.0"/>
    <path d="M70.9 -3.55 L55.6 -40.5 M19.95 -46.7 L44.1 -35.7 M59.25 1.3 L60.35 10.85 Q62.3 34.0 56.8 57.15 48.6 91.5 28.8 105.8 19.85 112.2 10.9 112.9" fill="none" stroke="#ff6600" stroke-linecap="round" stroke-linejoin="round" stroke-opacity="0.3019608" stroke-width="2.0"/>
    <path d="M70.9 -92.95 L51.9 -105.95 23.7 -103.35 M-50.4 -96.5 L-89.1 -92.95 -109.1 -72.95 -89.1 -52.95 -87.2 -43.2 -79.95 -6.0 -90.75 20.15 -109.25 27.8 -93.95 64.75 -76.45 57.5 -75.45 57.1 -71.55 65.5 Q-56.85 93.35 -26.75 105.8 -7.95 113.6 10.9 112.9 26.5 112.25 42.15 105.8 76.6 91.55 90.85 57.1 103.3 27.0 94.0 -3.1 L90.85 -11.8 109.3 -19.45 94.0 -56.4 75.55 -48.75 51.4 -59.55 51.4 -72.95 70.9 -92.95" fill="none" stroke="#ff9900" stroke-linecap="round" stroke-linejoin="round" stroke-width="2.0"/>
    <path d="M23.7 -103.35 Q9.3 -112.95 -9.1 -112.95 -33.15 -112.95 -50.4 -96.5" fill="none" stroke="#cccccc" stroke-linecap="round" stroke-linejoin="round" stroke-width="2.0"/>
    <path d="M19.95 -46.7 L10.9 -58.85 -87.2 -43.2" fill="none" stroke="#cccccc" stroke-linecap="round" stroke-linejoin="round" stroke-opacity="0.6" stroke-width="2.0"/>
  </g>
  <defs>
    <linearGradient gradientTransform="matrix(0.0994, 0.0267, -0.0116, 0.0434, -18.15, -86.65)" gradientUnits="userSpaceOnUse" id="gradient0" spreadMethod="pad" x1="-819.2" x2="819.2">
      <stop offset="0.0" stop-color="#b10101"/>
      <stop offset="0.17254901960784313" stop-color="#ff0000"/>
      <stop offset="0.2901960784313726" stop-color="#fd3e3e"/>
      <stop offset="0.5019607843137255" stop-color="#ff0606"/>
      <stop offset="1.0" stop-color="#a00101"/>
    </linearGradient>
    <linearGradient gradientTransform="matrix(0.1099, 0.0, 0.0, 0.0244, -19.1, -72.95)" gradientUnits="userSpaceOnUse" id="gradient1" spreadMethod="pad" x1="-819.2" x2="819.2">
      <stop offset="0.0" stop-color="#8f0101"/>
      <stop offset="0.2901960784313726" stop-color="#e10404"/>
      <stop offset="1.0" stop-color="#870101"/>
    </linearGradient>
    <linearGradient gradientTransform="matrix(0.0901, 0.0242, -0.0066, 0.0246, -18.8, 10.45)" gradientUnits="userSpaceOnUse" id="gradient2" spreadMethod="pad" x1="-819.2" x2="819.2">
      <stop offset="0.0" stop-color="#b10101"/>
      <stop offset="0.17254901960784313" stop-color="#ff0000"/>
      <stop offset="0.2901960784313726" stop-color="#fd3e3e"/>
      <stop offset="0.5019607843137255" stop-color="#ff0606"/>
      <stop offset="1.0" stop-color="#a00101"/>
    </linearGradient>
    <linearGradient gradientTransform="matrix(0.1122, -0.0455, 0.0096, 0.0236, -4.3, 5.95)" gradientUnits="userSpaceOnUse" id="gradient3" spreadMethod="pad" x1="-819.2" x2="819.2">
      <stop offset="0.0" stop-color="#660000"/>
      <stop offset="0.17254901960784313" stop-color="#f50000"/>
      <stop offset="0.2901960784313726" stop-color="#f53d3d"/>
      <stop offset="0.48627450980392156" stop-color="#f50404"/>
      <stop offset="1.0" stop-color="#660000"/>
    </linearGradient>
    <radialGradient cx="0" cy="0" gradientTransform="matrix(0.1264, 0.0, 0.0, 0.1264, -49.1, -47.95)" gradientUnits="userSpaceOnUse" id="gradient4" r="819.2" spreadMethod="pad">
      <stop offset="0.1568627450980392" stop-color="#54fd0b"/>
      <stop offset="0.20784313725490197" stop-color="#48ec02"/>
      <stop offset="1.0" stop-color="#247601"/>
    </radialGradient>
    <radialGradient cx="0" cy="0" gradientTransform="matrix(0.1385, 0.0, 0.0, 0.1385, -11.1, 38.05)" gradientUnits="userSpaceOnUse" id="gradient5" r="819.2" spreadMethod="pad">
      <stop offset="0.27058823529411763" stop-color="#e30202"/>
      <stop offset="0.9411764705882353" stop-color="#430101"/>
    </radialGradient>
    <radialGradient cx="0" cy="0" gradientTransform="matrix(0.1385, 0.0, 0.0, 0.1385, -11.1, 38.05)" gradientUnits="userSpaceOnUse" id="gradient6" r="819.2" spreadMethod="pad">
      <stop offset="0.1568627450980392" stop-color="#fd3e3e"/>
      <stop offset="0.27058823529411763" stop-color="#ff0000"/>
      <stop offset="0.9882352941176471" stop-color="#660000"/>
    </radialGradient>
    <radialGradient cx="0" cy="0" gradientTransform="matrix(0.1385, 0.0, 0.0, 0.1385, -11.1, 38.05)" gradientUnits="userSpaceOnUse" id="gradient7" r="819.2" spreadMethod="pad">
      <stop offset="0.1568627450980392" stop-color="#fd3e3e"/>
      <stop offset="0.27058823529411763" stop-color="#ff0000"/>
      <stop offset="0.9098039215686274" stop-color="#660000"/>
    </radialGradient>
    <radialGradient cx="0" cy="0" gradientTransform="matrix(0.1264, 0.0, 0.0, 0.1264, -49.1, -47.95)" gradientUnits="userSpaceOnUse" id="gradient8" r="819.2" spreadMethod="pad">
      <stop offset="0.14901960784313725" stop-color="#626262"/>
      <stop offset="0.20784313725490197" stop-color="#404040"/>
      <stop offset="0.8627450980392157" stop-color="#1e1e1e"/>
      <stop offset="1.0" stop-color="#000000"/>
    </radialGradient>
    <radialGradient cx="0" cy="0" gradientTransform="matrix(0.0, 0.0244, -0.0631, 0.0, -21.1, -108.95)" gradientUnits="userSpaceOnUse" id="gradient9" r="819.2" spreadMethod="pad">
      <stop offset="0.14901960784313725" stop-color="#626262"/>
      <stop offset="0.20784313725490197" stop-color="#404040"/>
      <stop offset="0.8627450980392157" stop-color="#1e1e1e"/>
      <stop offset="1.0" stop-color="#000000"/>
    </radialGradient>
  </defs>
</svg>
