<?xml version="1.0" encoding="UTF-8" standalone="no"?>
<svg xmlns:ffdec="https://www.free-decompiler.com/flash" xmlns:xlink="http://www.w3.org/1999/xlink" ffdec:objectType="shape" height="88.0px" width="179.05px" xmlns="http://www.w3.org/2000/svg">
  <g transform="matrix(1.0, 0.0, 0.0, 1.0, 15.05, 24.0)">
    <path d="M40.0 -20.0 L60.0 -20.0 60.0 0.0 80.0 0.0 80.0 20.0 77.0 20.0 40.0 -20.0 M86.45 20.0 L98.45 8.0 110.45 20.0 86.45 20.0" fill="#525632" fill-rule="evenodd" stroke="none"/>
    <path d="M80.0 20.0 L86.45 20.0 110.45 20.0 120.0 20.0 160.0 0.0 160.0 17.85 111.45 51.0 78.5 51.0 40.0 34.4 20.0 0.0 40.0 -20.0 77.0 20.0 80.0 20.0" fill="#9ca668" fill-rule="evenodd" stroke="none"/>
    <path d="M160.0 17.85 L160.0 20.0 120.0 60.0 77.0 60.0 27.05 47.05 0.0 20.0 -10.2 0.0 20.0 0.0 40.0 34.4 78.5 51.0 111.45 51.0 160.0 17.85 M0.0 0.8 L-10.2 0.0 0.0 0.8" fill="#6f7547" fill-rule="evenodd" stroke="none"/>
    <path d="M-10.2 0.0 L0.0 0.8" fill="none" stroke="#525632" stroke-linecap="square" stroke-linejoin="miter-clip" stroke-miterlimit="3.0" stroke-width="2.0"/>
    <path d="M40.0 -20.0 L60.0 -20.0 60.0 0.0 80.0 0.0 80.0 20.0 86.45 20.0 98.45 8.0 110.45 20.0 86.45 20.0" fill="none" stroke="#525632" stroke-linecap="square" stroke-linejoin="miter-clip" stroke-miterlimit="3.0" stroke-width="6.0"/>
    <path d="M110.45 20.0 L120.0 20.0 160.0 0.0 160.0 17.85 160.0 20.0 120.0 60.0 77.0 60.0 27.05 47.05 0.0 20.0 -10.2 0.0 20.0 0.0 40.0 -20.0 77.0 20.0 80.0 20.0" fill="none" stroke="#525632" stroke-linecap="round" stroke-linejoin="miter-clip" stroke-miterlimit="3.0" stroke-width="6.0"/>
  </g>
</svg>
