<?xml version="1.0" encoding="UTF-8" standalone="no"?>
<svg xmlns:ffdec="https://www.free-decompiler.com/flash" xmlns:xlink="http://www.w3.org/1999/xlink" ffdec:objectType="shape" height="113.2px" width="128.0px" xmlns="http://www.w3.org/2000/svg">
  <g transform="matrix(1.0, 0.0, 0.0, 1.0, 64.0, 56.6)">
    <path d="M60.0 -6.4 Q59.95 22.4 46.2 52.6 L-48.9 52.6 Q-60.05 21.65 -60.0 -7.15 -60.05 -35.9 -48.9 -52.6 L46.2 -52.6 Q59.95 -35.25 60.0 -6.4" fill="#9ca668" fill-rule="evenodd" stroke="none"/>
    <path d="M60.0 -6.4 Q59.95 22.4 46.2 52.6 L-48.9 52.6 Q-60.05 21.65 -60.0 -7.15 -60.05 -35.9 -48.9 -52.6 L46.2 -52.6 Q59.95 -35.25 60.0 -6.4 Z" fill="none" stroke="#525632" stroke-linecap="square" stroke-linejoin="miter-clip" stroke-miterlimit="3.0" stroke-width="6.0"/>
    <path d="M-25.0 -49.65 L22.5 -49.65 -1.25 -11.8 -25.0 -49.65" fill="#6f7547" fill-rule="evenodd" stroke="none"/>
    <path d="M-25.0 -17.5 L22.5 -17.5 -1.25 20.35 -25.0 -17.5" fill="#6f7547" fill-rule="evenodd" stroke="none"/>
    <path d="M-25.0 14.7 L22.5 14.7 -1.25 52.55 -25.0 14.7" fill="#6f7547" fill-rule="evenodd" stroke="none"/>
  </g>
</svg>
