<?xml version="1.0" encoding="UTF-8" standalone="no"?>
<svg xmlns:ffdec="https://www.free-decompiler.com/flash" xmlns:xlink="http://www.w3.org/1999/xlink" ffdec:objectType="shape" height="230.1px" width="183.0px" xmlns="http://www.w3.org/2000/svg">
  <g transform="matrix(1.0, 0.0, 0.0, 1.0, 91.5, 224.35)">
    <path d="M7.6 -113.0 L7.55 -113.0 7.55 -111.4 7.6 -113.0 M-87.5 -58.75 L-75.0 -170.0 75.0 -178.0 87.5 -53.0 -87.5 -58.75 M-11.05 -134.1 L-11.1 -134.15 -11.1 -134.1 -11.05 -134.1 M-7.5 -78.0 L-7.5 -79.25 -7.5 -78.0" fill="#9ca668" fill-rule="evenodd" stroke="none"/>
    <path d="M7.6 -113.0 L7.55 -111.4 7.55 -113.0 7.6 -113.0 M-75.0 -40.5 L-87.5 -58.75 87.5 -53.0 75.0 -40.5 -75.0 -40.5 M-7.5 -78.0 L-7.5 -79.25 -7.5 -78.0" fill="#525632" fill-rule="evenodd" stroke="none"/>
    <path d="M75.0 -40.5 L62.5 -3.0 -58.0 1.75 -75.0 -40.5 75.0 -40.5" fill="url(#gradient0)" fill-rule="evenodd" stroke="none"/>
    <path d="M75.0 -40.5 L62.5 -3.0 -58.0 1.75 -75.0 -40.5 -87.5 -58.75 -75.0 -170.0 75.0 -178.0 87.5 -53.0 75.0 -40.5 Z" fill="none" stroke="#525632" stroke-linecap="square" stroke-linejoin="miter-clip" stroke-miterlimit="3.0" stroke-width="6.0"/>
    <path d="M0.0 -135.9 L-40.0 -170.0 40.0 -175.25 0.0 -135.9" fill="#525632" fill-opacity="0.6" fill-rule="evenodd" stroke="none"/>
    <path d="M6.0 -153.6 L1.0 -149.5 -23.6 -161.85 -23.55 -161.85 -1.9 -224.35 6.0 -153.6" fill="#ffffff" fill-rule="evenodd" stroke="none"/>
    <path d="M-1.9 -224.35 L19.0 -164.3 6.0 -153.6 -1.9 -224.35" fill="#eeeeee" fill-rule="evenodd" stroke="none"/>
    <path d="M6.25 -21.75 L25.0 -40.5 31.25 -34.25 12.5 -15.5 6.25 -21.75 M-25.0 -40.5 L-18.75 -34.25 -37.5 -15.5 -43.75 -21.75 -25.0 -40.5 M75.0 -40.5 L75.0 -28.0 62.5 -15.5 56.25 -21.75 75.0 -40.5" fill="#000000" fill-opacity="0.2509804" fill-rule="evenodd" stroke="none"/>
    <path d="M6.25 -21.75 L0.0 -15.5 -18.75 -34.25 -25.0 -40.5 25.0 -40.5 6.25 -21.75 M-43.75 -21.75 L-50.0 -15.5 -75.0 -40.5 -25.0 -40.5 -43.75 -21.75 M31.25 -34.25 L25.0 -40.5 75.0 -40.5 56.25 -21.75 50.0 -15.5 31.25 -34.25" fill="#ffffff" fill-rule="evenodd" stroke="none"/>
    <path d="M7.6 -116.75 L7.55 -116.75 0.0 -125.65 -7.5 -116.75 -77.15 -131.75 -77.15 -150.0 0.0 -125.65 77.2 -150.0 77.2 -130.75 7.6 -116.75" fill="#525632" fill-rule="evenodd" stroke="none"/>
    <path d="M-7.5 -116.75 L-7.5 -81.75 -50.0 -81.75 -79.6 -119.25 -77.15 -131.75 -7.5 -116.75 M77.2 -130.75 L78.4 -131.35 77.2 -130.65 79.45 -119.25 50.0 -81.75 7.6 -81.75 7.55 -81.75 7.6 -116.75 77.2 -130.75" fill="#e8e800" fill-rule="evenodd" stroke="none"/>
    <path d="M-7.5 -81.75 L-55.6 -66.1 -83.75 -90.0 -79.6 -119.25 -50.0 -81.75 -7.5 -81.75 M79.45 -119.25 L83.75 -90.0 55.65 -66.85 7.6 -81.75 50.0 -81.75 79.45 -119.25" fill="#525632" fill-opacity="0.6" fill-rule="evenodd" stroke="none"/>
    <path d="M-54.8 -106.75 Q-54.8 -115.25 -48.85 -121.3 L-48.8 -121.3 -48.8 -121.35 Q-42.75 -127.3 -34.2 -127.3 -25.7 -127.3 -19.7 -121.3 -13.6 -115.3 -13.6 -106.75 -13.6 -98.25 -19.7 -92.25 L-19.7 -92.2 Q-25.7 -86.1 -34.2 -86.1 -42.75 -86.2 -48.75 -92.2 L-48.8 -92.25 Q-54.8 -98.2 -54.8 -106.75 M-23.5 -96.0 Q-19.0 -100.45 -19.0 -106.75 -19.0 -113.05 -23.5 -117.55 -27.95 -122.0 -34.2 -121.95 -40.5 -121.95 -45.0 -117.55 L-45.05 -117.5 Q-49.45 -113.05 -49.45 -106.75 -49.45 -100.45 -45.05 -96.0 L-45.0 -95.95 Q-40.5 -91.5 -34.2 -91.5 -27.95 -91.5 -23.5 -96.0" fill="#76549c" fill-opacity="0.2" fill-rule="evenodd" stroke="none"/>
    <path d="M-43.2 -106.75 Q-43.2 -103.05 -40.55 -100.45 L-40.5 -100.45 -45.0 -95.95 -45.05 -96.0 Q-49.45 -100.45 -49.45 -106.75 L-43.2 -106.75" fill="#694a8a" fill-rule="evenodd" stroke="none"/>
    <path d="M-27.95 -100.45 Q-25.3 -103.05 -25.25 -106.75 -25.3 -110.45 -27.95 -113.05 -30.55 -115.7 -34.2 -115.7 -37.85 -115.7 -40.55 -113.05 -43.2 -110.45 -43.2 -106.75 L-49.45 -106.75 Q-49.45 -113.05 -45.05 -117.5 L-45.0 -117.55 Q-40.5 -121.95 -34.2 -121.95 -27.95 -122.0 -23.5 -117.55 -19.0 -113.05 -19.0 -106.75 -19.0 -100.45 -23.5 -96.0 L-27.95 -100.45 M-34.2 -97.75 L-34.2 -91.5 Q-40.5 -91.5 -45.0 -95.95 L-40.5 -100.45 Q-37.85 -97.8 -34.2 -97.75" fill="#76549c" fill-rule="evenodd" stroke="none"/>
    <path d="M-40.5 -100.45 L-34.2 -106.75 -43.2 -106.75 Q-43.2 -110.45 -40.55 -113.05 -37.85 -115.7 -34.2 -115.7 -30.55 -115.7 -27.95 -113.05 -25.3 -110.45 -25.25 -106.75 -25.3 -103.05 -27.95 -100.45 -30.55 -97.8 -34.2 -97.75 -37.85 -97.8 -40.5 -100.45" fill="#3e2c52" fill-rule="evenodd" stroke="none"/>
    <path d="M-40.5 -100.45 L-40.55 -100.45 Q-43.2 -103.05 -43.2 -106.75 L-34.2 -106.75 -40.5 -100.45" fill="#c9bada" fill-rule="evenodd" stroke="none"/>
    <path d="M-27.95 -100.45 L-23.5 -96.0 Q-27.95 -91.5 -34.2 -91.5 L-34.2 -97.75 Q-30.55 -97.8 -27.95 -100.45" fill="#9c80bb" fill-rule="evenodd" stroke="none"/>
    <path d="M13.45 -106.75 Q13.45 -115.25 19.4 -121.3 L19.45 -121.3 19.45 -121.35 Q25.5 -127.3 34.05 -127.3 42.55 -127.3 48.55 -121.3 54.65 -115.3 54.65 -106.75 54.65 -98.25 48.55 -92.25 L48.55 -92.2 Q42.55 -86.1 34.05 -86.1 25.5 -86.2 19.5 -92.2 L19.45 -92.25 Q13.45 -98.2 13.45 -106.75 M44.75 -96.0 Q49.25 -100.45 49.25 -106.75 49.25 -113.05 44.75 -117.55 40.3 -122.0 34.05 -121.95 27.75 -121.95 23.25 -117.55 L23.2 -117.5 Q18.8 -113.05 18.8 -106.75 18.8 -100.45 23.2 -96.0 L23.25 -95.95 Q27.75 -91.5 34.05 -91.5 40.3 -91.5 44.75 -96.0" fill="#76549c" fill-opacity="0.2" fill-rule="evenodd" stroke="none"/>
    <path d="M25.05 -106.75 Q25.05 -110.45 27.7 -113.05 30.4 -115.7 34.05 -115.7 37.7 -115.7 40.3 -113.05 42.95 -110.45 43.0 -106.75 42.95 -103.05 40.3 -100.45 37.7 -97.8 34.05 -97.75 30.4 -97.8 27.75 -100.45 L34.05 -106.75 25.05 -106.75" fill="#3e2c52" fill-rule="evenodd" stroke="none"/>
    <path d="M40.3 -100.45 Q42.95 -103.05 43.0 -106.75 42.95 -110.45 40.3 -113.05 37.7 -115.7 34.05 -115.7 30.4 -115.7 27.7 -113.05 25.05 -110.45 25.05 -106.75 L18.8 -106.75 Q18.8 -113.05 23.2 -117.5 L23.25 -117.55 Q27.75 -121.95 34.05 -121.95 40.3 -122.0 44.75 -117.55 49.25 -113.05 49.25 -106.75 49.25 -100.45 44.75 -96.0 L40.3 -100.45 M27.75 -100.45 Q30.4 -97.8 34.05 -97.75 L34.05 -91.5 Q27.75 -91.5 23.25 -95.95 L27.75 -100.45" fill="#76549c" fill-rule="evenodd" stroke="none"/>
    <path d="M25.05 -106.75 L34.05 -106.75 27.75 -100.45 27.7 -100.45 Q25.05 -103.05 25.05 -106.75" fill="#c9bada" fill-rule="evenodd" stroke="none"/>
    <path d="M18.8 -106.75 L25.05 -106.75 Q25.05 -103.05 27.7 -100.45 L27.75 -100.45 23.25 -95.95 23.2 -96.0 Q18.8 -100.45 18.8 -106.75" fill="#694a8a" fill-rule="evenodd" stroke="none"/>
    <path d="M34.05 -97.75 Q37.7 -97.8 40.3 -100.45 L44.75 -96.0 Q40.3 -91.5 34.05 -91.5 L34.05 -97.75" fill="#9c80bb" fill-rule="evenodd" stroke="none"/>
  </g>
  <defs>
    <linearGradient gradientTransform="matrix(0.0, -0.0183, 0.0916, 0.0, 0.0, -19.0)" gradientUnits="userSpaceOnUse" id="gradient0" spreadMethod="pad" x1="-819.2" x2="819.2">
      <stop offset="0.0" stop-color="#ec3102"/>
      <stop offset="1.0" stop-color="#993333"/>
    </linearGradient>
  </defs>
</svg>
