<?xml version="1.0" encoding="UTF-8" standalone="no"?>
<svg xmlns:ffdec="https://www.free-decompiler.com/flash" xmlns:xlink="http://www.w3.org/1999/xlink" ffdec:objectType="shape" height="228.5px" width="199.6px" xmlns="http://www.w3.org/2000/svg">
  <g transform="matrix(1.0, 0.0, 0.0, 1.0, 89.95, 222.3)">
    <path d="M21.7 -134.15 L21.7 -134.1 21.75 -134.1 21.7 -134.15 M35.7 -113.0 L35.65 -113.0 35.65 -111.8 35.7 -113.0 M24.35 -78.0 L24.4 -78.0 24.35 -79.25 24.35 -78.0 M-26.25 -170.0 L76.25 -178.0 105.65 -53.0 -5.6 -58.75 -26.25 -170.0" fill="#9ca668" fill-rule="evenodd" stroke="none"/>
    <path d="M35.7 -113.0 L35.65 -111.8 35.65 -113.0 35.7 -113.0 M24.35 -78.0 L24.35 -79.25 24.4 -78.0 24.35 -78.0 M105.65 -53.0 L96.25 -40.5 -16.25 -40.5 -5.6 -58.75 -16.25 -40.5 -13.5 1.75 -64.95 -10.95 -68.8 -100.85 -70.35 -102.1 -68.85 -67.5 -68.45 -67.95 -66.8 -28.85 -87.95 -45.95 -69.7 -66.55 -89.95 -82.95 -71.9 -103.35 -89.95 -117.95 -70.45 -139.95 -70.95 -150.95 -26.25 -170.0 -5.6 -58.75 105.65 -53.0 M-70.45 -139.95 L-68.8 -100.85 -70.45 -139.95" fill="#525632" fill-rule="evenodd" stroke="none"/>
    <path d="M96.25 -40.5 L76.9 -3.0 -13.5 1.75 -16.25 -40.5 96.25 -40.5" fill="url(#gradient0)" fill-rule="evenodd" stroke="none"/>
    <path d="M105.65 -53.0 L96.25 -40.5 76.9 -3.0 -13.5 1.75 -64.95 -10.95 -68.8 -100.85 -70.45 -139.95 -70.95 -150.95 -26.25 -170.0 76.25 -178.0 105.65 -53.0 M-5.6 -58.75 L-16.25 -40.5 -13.5 1.75 M-26.25 -170.0 L-5.6 -58.75" fill="none" stroke="#525632" stroke-linecap="square" stroke-linejoin="miter-clip" stroke-miterlimit="3.0" stroke-width="6.0"/>
    <path d="M0.0 -170.0 L60.0 -175.25 30.0 -135.9 0.0 -170.0" fill="#525632" fill-opacity="0.6" fill-rule="evenodd" stroke="none"/>
    <path d="M34.25 -151.65 L28.4 -148.6 9.5 -165.2 9.55 -165.2 48.8 -222.3 34.25 -151.65" fill="#ffffff" fill-rule="evenodd" stroke="none"/>
    <path d="M48.8 -222.3 L49.55 -159.7 34.25 -151.65 48.8 -222.3" fill="#eeeeee" fill-rule="evenodd" stroke="none"/>
    <path d="M19.25 -34.25 L5.75 -15.5 1.25 -21.75 -12.25 -40.5 23.75 -40.5 19.25 -34.25 M37.25 -21.75 L23.75 -40.5 59.75 -40.5 55.25 -34.25 41.75 -15.5 37.25 -21.75 M73.25 -21.75 L59.75 -40.5 95.75 -40.5 77.75 -15.5 73.25 -21.75" fill="#ffffff" fill-rule="evenodd" stroke="none"/>
    <path d="M19.25 -34.25 L23.75 -40.5 37.25 -21.75 32.75 -15.5 19.25 -34.25 M-12.25 -40.5 L1.25 -21.75 -3.25 -15.5 -12.25 -28.0 -12.25 -40.5 M55.25 -34.25 L59.75 -40.5 73.25 -21.75 68.75 -15.5 55.25 -34.25" fill="#000000" fill-opacity="0.2509804" fill-rule="evenodd" stroke="none"/>
    <path d="M84.75 -130.45 L85.3 -131.0 84.75 -130.35 86.95 -119.05 76.45 -82.0 55.4 -82.0 47.5 -116.6 84.75 -130.45 M37.55 -116.65 L44.45 -82.05 14.65 -82.05 -13.5 -119.1 -15.6 -131.45 37.55 -116.65" fill="#e8e800" fill-rule="evenodd" stroke="none"/>
    <path d="M84.75 -130.45 L47.5 -116.6 47.4 -116.6 45.1 -125.4 37.55 -116.65 -15.6 -131.45 -21.1 -149.5 45.15 -125.45 82.4 -149.5 84.75 -130.45" fill="#525632" fill-rule="evenodd" stroke="none"/>
    <path d="M55.4 -82.0 L76.45 -82.0 86.95 -119.05 95.4 -90.15 86.15 -67.3 55.4 -82.0 M44.45 -82.05 L19.25 -66.6 -10.65 -90.2 -13.5 -119.1 14.65 -82.05 44.45 -82.05" fill="#525632" fill-opacity="0.6" fill-rule="evenodd" stroke="none"/>
    <path d="M11.9 -121.15 L11.95 -121.15 11.9 -121.2 Q15.0 -127.1 21.0 -127.1 26.95 -127.1 32.35 -121.15 37.75 -115.25 39.45 -106.75 41.15 -98.35 38.05 -92.45 L38.1 -92.4 Q35.1 -86.4 29.15 -86.4 23.1 -86.45 17.75 -92.4 L17.65 -92.45 Q12.3 -98.3 10.6 -106.75 8.95 -115.15 11.9 -121.15 M34.7 -96.15 Q36.95 -100.55 35.7 -106.75 34.45 -113.0 30.45 -117.45 26.45 -121.85 22.05 -121.8 17.6 -121.8 15.35 -117.45 L15.3 -117.4 Q13.1 -113.0 14.35 -106.75 15.6 -100.55 19.55 -96.15 L19.6 -96.1 Q23.6 -91.7 28.05 -91.7 32.45 -91.7 34.7 -96.15" fill="#76549c" fill-opacity="0.2" fill-rule="evenodd" stroke="none"/>
    <path d="M14.35 -106.75 Q13.1 -113.0 15.3 -117.4 L15.35 -117.45 Q17.6 -121.8 22.05 -121.8 26.45 -121.85 30.45 -117.45 34.45 -113.0 35.7 -106.75 36.95 -100.55 34.7 -96.15 L30.7 -100.55 Q32.0 -103.15 31.3 -106.75 30.55 -110.4 28.2 -113.0 25.85 -115.6 23.3 -115.6 20.7 -115.6 19.35 -113.0 18.05 -110.4 18.75 -106.75 L14.35 -106.75 M28.05 -91.7 Q23.6 -91.7 19.6 -96.1 L21.85 -100.55 Q24.2 -97.95 26.85 -97.9 L28.05 -91.7" fill="#76549c" fill-rule="evenodd" stroke="none"/>
    <path d="M18.75 -106.75 Q18.05 -110.4 19.35 -113.0 20.7 -115.6 23.3 -115.6 25.85 -115.6 28.2 -113.0 30.55 -110.4 31.3 -106.75 32.0 -103.15 30.7 -100.55 29.35 -97.95 26.85 -97.9 24.2 -97.95 21.85 -100.55 L25.05 -106.75 18.75 -106.75" fill="#3e2c52" fill-rule="evenodd" stroke="none"/>
    <path d="M19.6 -96.1 L19.55 -96.15 Q15.6 -100.55 14.35 -106.75 L18.75 -106.75 Q19.5 -103.15 21.85 -100.55 L19.6 -96.1" fill="#694a8a" fill-rule="evenodd" stroke="none"/>
    <path d="M18.75 -106.75 L25.05 -106.75 21.85 -100.55 Q19.5 -103.15 18.75 -106.75" fill="#c9bada" fill-rule="evenodd" stroke="none"/>
    <path d="M34.7 -96.15 Q32.45 -91.7 28.05 -91.7 L26.85 -97.9 Q29.35 -97.95 30.7 -100.55 L34.7 -96.15" fill="#9c80bb" fill-rule="evenodd" stroke="none"/>
    <path d="M58.45 -106.75 Q56.8 -115.15 59.75 -121.15 L59.8 -121.15 59.75 -121.2 Q62.85 -127.1 68.85 -127.1 74.8 -127.1 80.2 -121.15 85.6 -115.25 87.3 -106.75 89.0 -98.35 85.9 -92.45 L85.95 -92.4 Q82.95 -86.4 77.0 -86.4 70.95 -86.45 65.6 -92.4 L65.5 -92.45 Q60.15 -98.3 58.45 -106.75 M82.55 -96.15 Q84.8 -100.55 83.55 -106.75 82.3 -113.0 78.3 -117.45 74.3 -121.85 69.9 -121.8 65.45 -121.8 63.2 -117.45 L63.2 -117.4 Q60.95 -113.0 62.2 -106.75 63.45 -100.55 67.45 -96.15 L67.45 -96.1 Q71.45 -91.7 75.9 -91.7 80.3 -91.7 82.55 -96.15" fill="#76549c" fill-opacity="0.2" fill-rule="evenodd" stroke="none"/>
    <path d="M78.55 -100.55 Q79.85 -103.15 79.15 -106.75 78.4 -110.4 76.05 -113.0 73.7 -115.6 71.15 -115.6 68.55 -115.6 67.2 -113.0 65.9 -110.4 66.6 -106.75 L62.2 -106.75 Q60.95 -113.0 63.2 -117.4 L63.2 -117.45 Q65.45 -121.8 69.9 -121.8 74.3 -121.85 78.3 -117.45 82.3 -113.0 83.55 -106.75 84.8 -100.55 82.55 -96.15 L78.55 -100.55 M69.7 -100.55 Q72.05 -97.95 74.7 -97.9 L75.9 -91.7 Q71.45 -91.7 67.45 -96.1 L69.7 -100.55" fill="#76549c" fill-rule="evenodd" stroke="none"/>
    <path d="M66.6 -106.75 Q65.9 -110.4 67.2 -113.0 68.55 -115.6 71.15 -115.6 73.7 -115.6 76.05 -113.0 78.4 -110.4 79.15 -106.75 79.85 -103.15 78.55 -100.55 77.2 -97.95 74.7 -97.9 72.05 -97.95 69.7 -100.55 L72.9 -106.75 66.6 -106.75" fill="#3e2c52" fill-rule="evenodd" stroke="none"/>
    <path d="M62.2 -106.75 L66.6 -106.75 Q67.35 -103.15 69.7 -100.55 L67.45 -96.1 67.45 -96.15 Q63.45 -100.55 62.2 -106.75" fill="#694a8a" fill-rule="evenodd" stroke="none"/>
    <path d="M66.6 -106.75 L72.9 -106.75 69.7 -100.55 Q67.35 -103.15 66.6 -106.75" fill="#c9bada" fill-rule="evenodd" stroke="none"/>
    <path d="M78.55 -100.55 L82.55 -96.15 Q80.3 -91.7 75.9 -91.7 L74.7 -97.9 Q77.2 -97.95 78.55 -100.55" fill="#9c80bb" fill-rule="evenodd" stroke="none"/>
  </g>
  <defs>
    <linearGradient gradientTransform="matrix(0.0, -0.0183, 0.0687, 0.0, 30.0, -19.0)" gradientUnits="userSpaceOnUse" id="gradient0" spreadMethod="pad" x1="-819.2" x2="819.2">
      <stop offset="0.0" stop-color="#ec3102"/>
      <stop offset="1.0" stop-color="#993333"/>
    </linearGradient>
  </defs>
</svg>
