<?xml version="1.0" encoding="UTF-8" standalone="no"?>
<svg xmlns:ffdec="https://www.free-decompiler.com/flash" xmlns:xlink="http://www.w3.org/1999/xlink" ffdec:objectType="shape" height="228.35px" width="199.6px" xmlns="http://www.w3.org/2000/svg">
  <g transform="matrix(1.0, 0.0, 0.0, 1.0, 103.95, 222.3)">
    <path d="M74.5 -100.85 L76.2 -139.95 74.5 -100.85 70.65 -10.95 19.2 1.75 21.95 -40.5 11.3 -53.75 21.95 -40.5 -90.55 -40.5 -99.95 -58.0 11.3 -53.75 31.95 -170.0 76.65 -150.95 76.2 -139.95 95.65 -117.95 77.6 -103.35 95.65 -82.95 75.4 -66.55 93.65 -45.95 72.5 -28.85 74.2 -67.95 74.6 -67.5 76.05 -102.1 74.5 -100.85 M-29.95 -111.8 L-29.95 -113.0 -29.95 -111.8 M-18.65 -79.25 L-18.65 -78.0 -18.65 -79.25" fill="#525632" fill-rule="evenodd" stroke="none"/>
    <path d="M31.95 -170.0 L11.3 -53.75 -99.95 -58.0 -70.55 -178.0 31.95 -170.0 M-15.95 -134.15 L-16.0 -134.1 -15.95 -134.1 -15.95 -134.15 M-29.95 -111.8 L-29.95 -113.0 -29.95 -111.8 M-18.65 -79.25 L-18.65 -78.0 -18.65 -79.25" fill="#9ca668" fill-rule="evenodd" stroke="none"/>
    <path d="M21.95 -40.5 L19.2 1.75 -71.15 -3.0 -90.55 -40.5 21.95 -40.5" fill="url(#gradient0)" fill-rule="evenodd" stroke="none"/>
    <path d="M76.2 -139.95 L74.5 -100.85 70.65 -10.95 19.2 1.75 -71.15 -3.0 -90.55 -40.5 -99.95 -58.0 -70.55 -178.0 31.95 -170.0 11.3 -53.75 21.95 -40.5 19.2 1.75 M76.2 -139.95 L76.65 -150.95 31.95 -170.0" fill="none" stroke="#525632" stroke-linecap="square" stroke-linejoin="miter-clip" stroke-miterlimit="3.0" stroke-width="6.0"/>
    <path d="M-24.3 -135.9 L-54.3 -175.25 5.7 -170.0 -24.3 -135.9" fill="#525632" fill-opacity="0.6" fill-rule="evenodd" stroke="none"/>
    <path d="M-43.1 -222.3 L-3.85 -165.2 -3.8 -165.2 -22.7 -148.6 -28.55 -151.65 -43.1 -222.3" fill="#ffffff" fill-rule="evenodd" stroke="none"/>
    <path d="M-43.1 -222.3 L-28.55 -151.65 -43.85 -159.7 -43.1 -222.3" fill="#eeeeee" fill-rule="evenodd" stroke="none"/>
    <path d="M17.95 -40.5 L4.45 -21.75 -0.05 -15.5 -13.55 -34.25 -18.05 -40.5 -31.55 -21.75 -36.05 -15.5 -49.55 -34.25 -54.05 -40.5 -67.55 -21.75 -72.05 -15.5 -90.05 -40.5 -54.05 -40.5 -18.05 -40.5 17.95 -40.5" fill="#ffffff" fill-rule="evenodd" stroke="none"/>
    <path d="M17.95 -40.5 L17.95 -28.0 8.95 -15.5 4.45 -21.75 17.95 -40.5 M-13.55 -34.25 L-27.05 -15.5 -31.55 -21.75 -18.05 -40.5 -13.55 -34.25 M-49.55 -34.25 L-63.05 -15.5 -67.55 -21.75 -54.05 -40.5 -49.55 -34.25" fill="#000000" fill-opacity="0.2509804" fill-rule="evenodd" stroke="none"/>
    <path d="M21.3 -131.45 L19.2 -119.1 -8.95 -82.05 -38.75 -82.05 -31.85 -116.65 21.3 -131.45 M-79.05 -130.45 L-41.8 -116.6 -49.7 -82.0 -70.75 -82.0 -81.25 -119.05 -79.05 -130.35 -79.6 -131.0 -79.05 -130.45" fill="#e8e800" fill-rule="evenodd" stroke="none"/>
    <path d="M21.3 -131.45 L-31.85 -116.65 -39.4 -125.4 -41.7 -116.6 -41.8 -116.6 -79.05 -130.45 -76.7 -149.5 -39.45 -125.45 26.8 -149.5 21.3 -131.45" fill="#525632" fill-rule="evenodd" stroke="none"/>
    <path d="M-38.75 -82.05 L-8.95 -82.05 19.2 -119.1 16.35 -90.2 -13.55 -66.6 -38.75 -82.05 M-81.25 -119.05 L-70.75 -82.0 -49.7 -82.0 -80.45 -67.3 -89.7 -90.15 -81.25 -119.05" fill="#525632" fill-opacity="0.6" fill-rule="evenodd" stroke="none"/>
    <path d="M-29.0 -96.15 Q-31.25 -100.55 -30.0 -106.75 -28.75 -113.0 -24.75 -117.45 -20.75 -121.85 -16.35 -121.8 -11.9 -121.8 -9.65 -117.45 L-9.6 -117.4 Q-7.4 -113.0 -8.65 -106.75 L-13.05 -106.75 Q-12.35 -110.4 -13.65 -113.0 -15.0 -115.6 -17.6 -115.6 -20.15 -115.6 -22.5 -113.0 -24.85 -110.4 -25.6 -106.75 -26.3 -103.15 -25.0 -100.55 L-29.0 -96.15 M-13.9 -96.1 Q-17.9 -91.7 -22.35 -91.7 L-21.15 -97.9 Q-18.5 -97.95 -16.15 -100.55 L-13.9 -96.1" fill="#76549c" fill-rule="evenodd" stroke="none"/>
    <path d="M-8.65 -106.75 Q-7.4 -113.0 -9.6 -117.4 L-9.65 -117.45 Q-11.9 -121.8 -16.35 -121.8 -20.75 -121.85 -24.75 -117.45 -28.75 -113.0 -30.0 -106.75 -31.25 -100.55 -29.0 -96.15 -26.75 -91.7 -22.35 -91.7 -17.9 -91.7 -13.9 -96.1 L-13.85 -96.15 Q-9.9 -100.55 -8.65 -106.75 M-26.65 -121.15 Q-21.25 -127.1 -15.3 -127.1 -9.3 -127.1 -6.2 -121.2 L-6.25 -121.15 -6.2 -121.15 Q-3.25 -115.15 -4.9 -106.75 -6.6 -98.3 -11.95 -92.45 L-12.05 -92.4 Q-17.4 -86.45 -23.45 -86.4 -29.4 -86.4 -32.4 -92.4 L-32.35 -92.45 Q-35.45 -98.35 -33.75 -106.75 -32.05 -115.25 -26.65 -121.15" fill="#76549c" fill-opacity="0.2" fill-rule="evenodd" stroke="none"/>
    <path d="M-25.0 -100.55 Q-26.3 -103.15 -25.6 -106.75 -24.85 -110.4 -22.5 -113.0 -20.15 -115.6 -17.6 -115.6 -15.0 -115.6 -13.65 -113.0 -12.35 -110.4 -13.05 -106.75 L-19.35 -106.75 -16.15 -100.55 Q-18.5 -97.95 -21.15 -97.9 -23.65 -97.95 -25.0 -100.55" fill="#3e2c52" fill-rule="evenodd" stroke="none"/>
    <path d="M-13.05 -106.75 L-8.65 -106.75 Q-9.9 -100.55 -13.85 -96.15 L-13.9 -96.1 -16.15 -100.55 Q-13.8 -103.15 -13.05 -106.75" fill="#694a8a" fill-rule="evenodd" stroke="none"/>
    <path d="M-13.05 -106.75 Q-13.8 -103.15 -16.15 -100.55 L-19.35 -106.75 -13.05 -106.75" fill="#c9bada" fill-rule="evenodd" stroke="none"/>
    <path d="M-29.0 -96.15 L-25.0 -100.55 Q-23.65 -97.95 -21.15 -97.9 L-22.35 -91.7 Q-26.75 -91.7 -29.0 -96.15" fill="#9c80bb" fill-rule="evenodd" stroke="none"/>
    <path d="M-60.9 -106.75 Q-60.2 -110.4 -61.5 -113.0 -62.85 -115.6 -65.45 -115.6 -68.0 -115.6 -70.35 -113.0 -72.7 -110.4 -73.45 -106.75 -74.15 -103.15 -72.85 -100.55 L-76.85 -96.15 Q-79.1 -100.55 -77.85 -106.75 -76.6 -113.0 -72.6 -117.45 -68.6 -121.85 -64.2 -121.8 -59.75 -121.8 -57.5 -117.45 L-57.5 -117.4 Q-55.25 -113.0 -56.5 -106.75 L-60.9 -106.75 M-69.0 -97.9 Q-66.35 -97.95 -64.0 -100.55 L-61.75 -96.1 Q-65.75 -91.7 -70.2 -91.7 L-69.0 -97.9" fill="#76549c" fill-rule="evenodd" stroke="none"/>
    <path d="M-72.85 -100.55 Q-74.15 -103.15 -73.45 -106.75 -72.7 -110.4 -70.35 -113.0 -68.0 -115.6 -65.45 -115.6 -62.85 -115.6 -61.5 -113.0 -60.2 -110.4 -60.9 -106.75 L-67.2 -106.75 -64.0 -100.55 Q-66.35 -97.95 -69.0 -97.9 -71.5 -97.95 -72.85 -100.55" fill="#3e2c52" fill-rule="evenodd" stroke="none"/>
    <path d="M-60.9 -106.75 L-56.5 -106.75 Q-57.75 -100.55 -61.75 -96.15 L-61.75 -96.1 -64.0 -100.55 Q-61.65 -103.15 -60.9 -106.75" fill="#694a8a" fill-rule="evenodd" stroke="none"/>
    <path d="M-64.0 -100.55 L-67.2 -106.75 -60.9 -106.75 Q-61.65 -103.15 -64.0 -100.55" fill="#c9bada" fill-rule="evenodd" stroke="none"/>
    <path d="M-56.5 -106.75 Q-55.25 -113.0 -57.5 -117.4 L-57.5 -117.45 Q-59.75 -121.8 -64.2 -121.8 -68.6 -121.85 -72.6 -117.45 -76.6 -113.0 -77.85 -106.75 -79.1 -100.55 -76.85 -96.15 -74.6 -91.7 -70.2 -91.7 -65.75 -91.7 -61.75 -96.1 L-61.75 -96.15 Q-57.75 -100.55 -56.5 -106.75 M-54.1 -121.15 L-54.05 -121.15 Q-51.1 -115.15 -52.75 -106.75 -54.45 -98.3 -59.8 -92.45 L-59.9 -92.4 Q-65.25 -86.45 -71.3 -86.4 -77.25 -86.4 -80.25 -92.4 L-80.2 -92.45 Q-83.3 -98.35 -81.6 -106.75 -79.9 -115.25 -74.5 -121.15 -69.1 -127.1 -63.15 -127.1 -57.15 -127.1 -54.05 -121.2 L-54.1 -121.15" fill="#76549c" fill-opacity="0.2" fill-rule="evenodd" stroke="none"/>
    <path d="M-76.85 -96.15 L-72.85 -100.55 Q-71.5 -97.95 -69.0 -97.9 L-70.2 -91.7 Q-74.6 -91.7 -76.85 -96.15" fill="#9c80bb" fill-rule="evenodd" stroke="none"/>
  </g>
  <defs>
    <linearGradient gradientTransform="matrix(0.0, -0.0183, -0.0687, 0.0, -24.3, -19.0)" gradientUnits="userSpaceOnUse" id="gradient0" spreadMethod="pad" x1="-819.2" x2="819.2">
      <stop offset="0.0" stop-color="#ec3102"/>
      <stop offset="1.0" stop-color="#993333"/>
    </linearGradient>
  </defs>
</svg>
