<?xml version="1.0" encoding="UTF-8" standalone="no"?>
<svg xmlns:ffdec="https://www.free-decompiler.com/flash" xmlns:xlink="http://www.w3.org/1999/xlink" ffdec:objectType="shape" height="180.45px" width="165.3px" xmlns="http://www.w3.org/2000/svg">
  <g transform="matrix(1.0, 0.0, 0.0, 1.0, 82.65, 176.45)">
    <path d="M60.0 -159.95 L60.0 -150.0 0.0 -120.0 -60.0 -150.0 -60.0 -159.95 -30.0 -159.95 0.0 -159.95 30.0 -159.95 60.0 -159.95 M80.0 -140.0 L60.0 -110.0 70.0 -60.0 70.0 0.0 10.0 0.0 0.0 -20.0 -10.0 0.0 -70.0 0.0 -70.0 -60.0 -60.0 -110.0 -80.0 -140.0 -60.0 -130.0 0.0 -100.0 60.0 -130.0 60.0 -110.0 60.0 -130.0 80.0 -140.0 M-20.0 -140.0 L0.0 -130.0 20.0 -140.0 0.0 -130.0 -20.0 -140.0 M-10.0 -80.0 L10.0 -80.0 -10.0 -80.0 M-60.0 -130.0 L-60.0 -110.0 -60.0 -130.0 M-10.0 -40.0 L10.0 -40.0 -10.0 -40.0 M-60.0 -60.0 L60.0 -60.0 -60.0 -60.0" fill="#cc0000" fill-rule="evenodd" stroke="none"/>
    <path d="M60.0 -150.0 L70.0 -156.0 80.0 -140.0 60.0 -130.0 0.0 -100.0 -60.0 -130.0 -60.0 -150.0 -60.0 -130.0 -80.0 -140.0 -70.0 -156.0 -60.0 -150.0 0.0 -120.0 60.0 -150.0 60.0 -130.0 60.0 -150.0 M10.0 0.0 L-10.0 0.0 0.0 -20.0 10.0 0.0" fill="#990000" fill-rule="evenodd" stroke="none"/>
    <path d="M-60.0 -159.95 L-60.0 -172.0 -30.0 -159.95 -30.0 -172.0 0.0 -159.95 30.0 -172.0 30.0 -159.95 60.0 -172.0 60.0 -159.95 30.0 -159.95 0.0 -159.95 -30.0 -159.95 -60.0 -159.95" fill="#660000" fill-rule="evenodd" stroke="none"/>
    <path d="M-60.0 -159.95 L-60.0 -172.0 -30.0 -159.95 -30.0 -172.0 0.0 -159.95 30.0 -172.0 30.0 -159.95 60.0 -172.0 60.0 -159.95 60.0 -150.0 60.0 -130.0 60.0 -110.0 70.0 -60.0 70.0 0.0 10.0 0.0 -10.0 0.0 -70.0 0.0 -70.0 -60.0 -60.0 -110.0 -60.0 -130.0 -60.0 -150.0 -60.0 -159.95 -30.0 -159.95 0.0 -159.95 30.0 -159.95 60.0 -159.95 M10.0 -80.0 L-10.0 -80.0 M60.0 -60.0 L-60.0 -60.0" fill="none" stroke="#660000" stroke-linecap="square" stroke-linejoin="miter-clip" stroke-miterlimit="3.0" stroke-width="6.0"/>
    <path d="M60.0 -150.0 L70.0 -156.0 80.0 -140.0 60.0 -110.0 M-60.0 -110.0 L-80.0 -140.0 -70.0 -156.0 -60.0 -150.0" fill="none" stroke="#660000" stroke-linecap="square" stroke-linejoin="miter-clip" stroke-miterlimit="3.0" stroke-width="4.0"/>
    <path d="M20.0 -140.0 L0.0 -130.0 -20.0 -140.0 M10.0 -40.0 L-10.0 -40.0" fill="none" stroke="#990000" stroke-linecap="square" stroke-linejoin="miter-clip" stroke-miterlimit="3.0" stroke-width="4.0"/>
    <path d="M29.3 -90.0 Q17.15 -90.25 8.5 -98.85 L8.25 -99.1 Q6.45 -101.0 5.0 -103.0 6.5 -105.15 8.5 -107.1 17.15 -115.75 29.3 -116.0 24.35 -115.75 20.8 -112.15 17.15 -108.55 17.0 -103.45 L17.0 -103.0 Q16.95 -97.6 20.8 -93.8 24.35 -90.25 29.3 -90.0 M30.65 -116.0 Q35.2 -115.9 39.3 -114.65 46.05 -112.5 51.5 -107.1 L55.0 -103.0 Q53.45 -100.85 51.5 -98.85 42.8 -90.25 30.65 -90.0 35.6 -90.25 39.2 -93.8 43.0 -97.6 43.0 -103.0 43.0 -108.35 39.2 -112.15 L37.4 -113.7 Q34.4 -115.8 30.65 -116.0" fill="#f1da58" fill-rule="evenodd" stroke="none"/>
    <path d="M29.3 -116.0 L30.65 -116.0 Q34.4 -115.8 37.4 -113.7 L39.2 -112.15 Q43.0 -108.35 43.0 -103.0 43.0 -97.6 39.2 -93.8 35.6 -90.25 30.65 -90.0 L29.3 -90.0 Q24.35 -90.25 20.8 -93.8 16.95 -97.6 17.0 -103.0 L17.0 -103.45 Q17.15 -108.55 20.8 -112.15 24.35 -115.75 29.3 -116.0 M25.4 -107.6 Q23.45 -105.7 23.5 -103.0 23.45 -100.3 25.4 -98.4 27.15 -96.6 29.65 -96.5 L30.35 -96.5 Q32.8 -96.6 34.6 -98.4 36.5 -100.3 36.5 -103.0 36.5 -105.7 34.6 -107.6 32.8 -109.4 30.35 -109.5 L29.65 -109.5 28.85 -109.4 Q26.95 -109.1 25.55 -107.75 L25.4 -107.6" fill="#cc7a00" fill-rule="evenodd" stroke="none"/>
    <path d="M25.4 -107.6 L25.55 -107.75 Q26.95 -109.1 28.85 -109.4 L29.65 -109.5 30.35 -109.5 Q32.8 -109.4 34.6 -107.6 36.5 -105.7 36.5 -103.0 36.5 -100.3 34.6 -98.4 32.8 -96.6 30.35 -96.5 L29.65 -96.5 Q27.15 -96.6 25.4 -98.4 23.45 -100.3 23.5 -103.0 23.45 -105.7 25.4 -107.6" fill="#660000" fill-rule="evenodd" stroke="none"/>
    <path d="M29.3 -90.0 Q17.15 -90.25 8.5 -98.85 L8.25 -99.1 Q6.45 -101.0 5.0 -103.0 6.5 -105.15 8.5 -107.1 17.15 -115.75 29.3 -116.0 M30.65 -116.0 Q35.2 -115.9 39.3 -114.65 46.05 -112.5 51.5 -107.1 L55.0 -103.0 Q53.45 -100.85 51.5 -98.85 42.8 -90.25 30.65 -90.0" fill="none" stroke="#660000" stroke-linecap="square" stroke-linejoin="miter-clip" stroke-miterlimit="3.0" stroke-width="4.0"/>
    <path d="M24.0 -104.0 Q22.35 -104.0 21.15 -105.2 20.0 -106.35 20.0 -108.0 20.0 -109.65 21.15 -110.85 22.35 -112.0 24.0 -112.0 25.65 -112.0 26.8 -110.85 28.0 -109.65 28.0 -108.0 28.0 -106.35 26.8 -105.2 25.65 -104.0 24.0 -104.0" fill="#ffffff" fill-rule="evenodd" stroke="none"/>
    <path d="M36.0 -100.0 Q36.8 -100.0 37.4 -99.4 38.0 -98.8 38.0 -98.0 38.0 -97.15 37.4 -96.6 36.8 -96.0 36.0 -96.0 35.2 -96.0 34.6 -96.6 34.0 -97.15 34.0 -98.0 34.0 -98.8 34.6 -99.4 35.2 -100.0 36.0 -100.0" fill="#ffffff" fill-rule="evenodd" stroke="none"/>
    <path d="M-30.7 -90.0 Q-42.85 -90.25 -51.5 -98.85 -53.5 -100.85 -55.0 -103.0 L-51.5 -107.1 Q-46.1 -112.55 -39.3 -114.65 -35.25 -115.9 -30.7 -116.0 -34.45 -115.8 -37.4 -113.7 L-39.2 -112.15 Q-43.05 -108.35 -43.0 -103.0 -43.05 -97.6 -39.2 -93.8 -35.65 -90.25 -30.7 -90.0 M-29.35 -116.0 Q-17.2 -115.75 -8.5 -107.1 -6.55 -105.15 -5.0 -103.0 -6.45 -101.0 -8.25 -99.1 L-8.5 -98.85 Q-17.2 -90.25 -29.35 -90.0 -24.4 -90.25 -20.8 -93.8 -17.0 -97.6 -17.0 -103.0 L-17.0 -103.45 Q-17.15 -108.55 -20.8 -112.15 -24.4 -115.75 -29.35 -116.0" fill="#f1da58" fill-rule="evenodd" stroke="none"/>
    <path d="M-30.7 -90.0 Q-35.65 -90.25 -39.2 -93.8 -43.05 -97.6 -43.0 -103.0 -43.05 -108.35 -39.2 -112.15 L-37.4 -113.7 Q-34.45 -115.8 -30.7 -116.0 L-29.35 -116.0 Q-24.4 -115.75 -20.8 -112.15 -17.15 -108.55 -17.0 -103.45 L-17.0 -103.0 Q-17.0 -97.6 -20.8 -93.8 -24.4 -90.25 -29.35 -90.0 L-30.7 -90.0 M-36.5 -103.0 Q-36.55 -100.3 -34.6 -98.4 -32.85 -96.6 -30.35 -96.5 L-29.65 -96.5 Q-27.2 -96.6 -25.4 -98.4 -23.5 -100.3 -23.5 -103.0 -23.5 -105.7 -25.4 -107.6 L-25.6 -107.75 Q-27.05 -109.1 -28.85 -109.4 L-29.65 -109.5 -30.35 -109.5 Q-32.85 -109.4 -34.6 -107.6 -36.55 -105.7 -36.5 -103.0" fill="#cc7a00" fill-rule="evenodd" stroke="none"/>
    <path d="M-36.5 -103.0 Q-36.55 -105.7 -34.6 -107.6 -32.85 -109.4 -30.35 -109.5 L-29.65 -109.5 -28.85 -109.4 Q-27.05 -109.1 -25.6 -107.75 L-25.4 -107.6 Q-23.5 -105.7 -23.5 -103.0 -23.5 -100.3 -25.4 -98.4 -27.2 -96.6 -29.65 -96.5 L-30.35 -96.5 Q-32.85 -96.6 -34.6 -98.4 -36.55 -100.3 -36.5 -103.0" fill="#660000" fill-rule="evenodd" stroke="none"/>
    <path d="M-30.7 -116.0 Q-35.25 -115.9 -39.3 -114.65 -46.1 -112.55 -51.5 -107.1 L-55.0 -103.0 Q-53.5 -100.85 -51.5 -98.85 -42.85 -90.25 -30.7 -90.0 M-29.35 -116.0 Q-17.2 -115.75 -8.5 -107.1 -6.55 -105.15 -5.0 -103.0 -6.45 -101.0 -8.25 -99.1 L-8.5 -98.85 Q-17.2 -90.25 -29.35 -90.0" fill="none" stroke="#660000" stroke-linecap="square" stroke-linejoin="miter-clip" stroke-miterlimit="3.0" stroke-width="4.0"/>
    <path d="M-36.0 -104.0 Q-37.65 -104.0 -38.85 -105.2 -40.0 -106.35 -40.0 -108.0 -40.0 -109.65 -38.85 -110.85 -37.65 -112.0 -36.0 -112.0 -34.35 -112.0 -33.2 -110.85 -32.0 -109.65 -32.0 -108.0 -32.0 -106.35 -33.2 -105.2 -34.35 -104.0 -36.0 -104.0" fill="#ffffff" fill-rule="evenodd" stroke="none"/>
    <path d="M-24.0 -100.0 Q-23.2 -100.0 -22.6 -99.4 -22.0 -98.8 -22.0 -98.0 -22.0 -97.15 -22.6 -96.6 -23.2 -96.0 -24.0 -96.0 -24.8 -96.0 -25.4 -96.6 -26.0 -97.15 -26.0 -98.0 -26.0 -98.8 -25.4 -99.4 -24.8 -100.0 -24.0 -100.0" fill="#ffffff" fill-rule="evenodd" stroke="none"/>
  </g>
</svg>
