<?xml version="1.0" encoding="UTF-8" standalone="no"?>
<svg xmlns:ffdec="https://www.free-decompiler.com/flash" xmlns:xlink="http://www.w3.org/1999/xlink" ffdec:objectType="shape" height="180.7px" width="163.7px" xmlns="http://www.w3.org/2000/svg">
  <g transform="matrix(1.0, 0.0, 0.0, 1.0, 83.0, 177.7)">
    <path d="M-25.6 -147.95 L-26.1 -156.95 -12.75 -156.95 -12.6 -156.95 15.6 -156.95 15.7 -156.95 15.8 -156.95 38.15 -156.95 38.2 -156.95 38.4 -156.95 57.9 -156.95 58.4 -148.0 18.0 -120.0 -25.6 -147.95 M59.55 -128.0 L60.65 -109.6 71.0 -59.7 74.35 -3.0 31.2 -3.0 23.8 -20.0 18.45 -3.0 -24.65 -3.0 -28.0 -60.05 -23.4 -110.15 -24.4 -127.95 19.15 -100.0 59.55 -128.0 M32.35 -142.75 L17.35 -132.4 1.25 -142.75 -0.9 -139.4 17.45 -127.6 34.65 -139.5 32.35 -142.75 M69.5 -63.0 L-26.5 -63.0 -26.5 -57.0 69.5 -57.0 69.5 -63.0 M9.85 -83.0 L9.85 -77.0 30.85 -77.0 30.85 -83.0 9.85 -83.0 M13.15 -42.0 L13.15 -38.0 32.15 -38.0 32.15 -42.0 13.15 -42.0" fill="#cc0000" fill-rule="evenodd" stroke="none"/>
    <path d="M40.95 -164.85 L62.75 -176.9 66.6 -110.25 77.0 -60.4 80.7 3.0 -83.0 3.0 -83.0 -60.3 -73.0 -110.35 -73.0 -176.9 -47.15 -163.75 -36.1 -177.7 -14.1 -164.3 -8.95 -176.15 15.65 -163.35 40.25 -176.9 40.95 -164.85 M58.4 -148.0 L57.9 -156.95 38.4 -156.95 38.2 -156.95 38.15 -156.95 15.8 -156.95 15.7 -156.95 15.6 -156.95 -12.6 -156.95 -12.75 -156.95 -26.1 -156.95 -25.6 -147.95 -24.4 -127.95 -23.4 -110.15 -28.0 -60.05 -24.65 -3.0 18.45 -3.0 31.2 -3.0 74.35 -3.0 71.0 -59.7 60.65 -109.6 59.55 -128.0 58.4 -148.0 M9.85 -83.0 L30.85 -83.0 30.85 -77.0 9.85 -77.0 9.85 -83.0 M69.5 -63.0 L69.5 -57.0 -26.5 -57.0 -26.5 -63.0 69.5 -63.0 M-29.4 -109.9 L-32.1 -156.95 -67.0 -156.95 -67.0 -109.7 -77.0 -59.65 -77.0 -3.0 -30.65 -3.0 -34.0 -59.8 -29.4 -109.9" fill="#660000" fill-rule="evenodd" stroke="none"/>
    <path d="M58.4 -148.0 L59.55 -128.0 19.15 -100.0 -24.4 -127.95 -25.6 -147.95 18.0 -120.0 58.4 -148.0 M31.2 -3.0 L18.45 -3.0 23.8 -20.0 31.2 -3.0 M32.35 -142.75 L34.65 -139.5 17.45 -127.6 -0.9 -139.4 1.25 -142.75 17.35 -132.4 32.35 -142.75 M13.15 -42.0 L32.15 -42.0 32.15 -38.0 13.15 -38.0 13.15 -42.0 M-29.4 -109.9 L-34.0 -59.8 -30.65 -3.0 -77.0 -3.0 -77.0 -59.65 -67.0 -109.7 -67.0 -156.95 -32.1 -156.95 -29.4 -109.9" fill="#990000" fill-rule="evenodd" stroke="none"/>
    <path d="M41.8 -90.0 Q38.0 -90.25 35.15 -93.8 32.05 -97.6 31.75 -103.0 L31.75 -103.45 Q31.55 -108.55 34.1 -112.15 36.55 -115.75 40.25 -116.0 L41.25 -116.0 Q44.05 -115.8 46.45 -113.7 L47.9 -112.15 Q50.95 -108.35 51.25 -103.0 51.6 -97.6 48.95 -93.8 46.45 -90.25 42.8 -90.0 L41.8 -90.0 M40.3 -109.4 Q38.85 -109.1 37.9 -107.75 L37.8 -107.6 Q36.45 -105.7 36.65 -103.0 36.8 -100.3 38.35 -98.4 39.75 -96.6 41.65 -96.5 L42.15 -96.5 Q44.0 -96.6 45.25 -98.4 46.6 -100.3 46.4 -103.0 46.25 -105.7 44.7 -107.6 43.25 -109.4 41.4 -109.5 L40.9 -109.5 40.3 -109.4" fill="#cc7a00" fill-rule="evenodd" stroke="none"/>
    <path d="M40.25 -116.0 Q36.55 -115.75 34.1 -112.15 31.55 -108.55 31.75 -103.45 L31.75 -103.0 Q32.05 -97.6 35.15 -93.8 38.0 -90.25 41.8 -90.0 32.6 -90.25 25.65 -98.85 L25.45 -99.1 22.75 -103.0 Q23.8 -105.15 25.2 -107.1 31.15 -115.75 40.25 -116.0 M42.8 -90.0 Q46.45 -90.25 48.95 -93.8 51.6 -97.6 51.25 -103.0 50.95 -108.35 47.9 -112.15 L46.45 -113.7 Q44.05 -115.8 41.25 -116.0 44.65 -115.9 47.85 -114.65 53.0 -112.5 57.45 -107.1 59.0 -105.15 60.25 -103.0 59.25 -100.85 57.9 -98.85 51.85 -90.25 42.8 -90.0" fill="#f1da58" fill-rule="evenodd" stroke="none"/>
    <path d="M40.3 -109.4 L40.9 -109.5 41.4 -109.5 Q43.25 -109.4 44.7 -107.6 46.25 -105.7 46.4 -103.0 46.6 -100.3 45.25 -98.4 44.0 -96.6 42.15 -96.5 L41.65 -96.5 Q39.75 -96.6 38.35 -98.4 36.8 -100.3 36.65 -103.0 36.45 -105.7 37.8 -107.6 L37.9 -107.75 Q38.85 -109.1 40.3 -109.4" fill="#660000" fill-rule="evenodd" stroke="none"/>
    <path d="M40.25 -116.0 Q31.15 -115.75 25.2 -107.1 23.8 -105.15 22.75 -103.0 L25.45 -99.1 25.65 -98.85 Q32.6 -90.25 41.8 -90.0 M41.25 -116.0 Q44.65 -115.9 47.85 -114.65 53.0 -112.5 57.45 -107.1 59.0 -105.15 60.25 -103.0 59.25 -100.85 57.9 -98.85 51.85 -90.25 42.8 -90.0" fill="none" stroke="#660000" stroke-linecap="square" stroke-linejoin="miter-clip" stroke-miterlimit="3.0" stroke-width="4.0"/>
    <path d="M37.0 -104.0 Q35.75 -104.0 34.75 -105.2 33.85 -106.35 33.75 -108.0 33.65 -109.65 34.45 -110.85 35.25 -112.0 36.5 -112.0 37.75 -112.0 38.7 -110.85 39.65 -109.65 39.75 -108.0 39.85 -106.35 39.0 -105.2 38.25 -104.0 37.0 -104.0" fill="#ffffff" fill-rule="evenodd" stroke="none"/>
    <path d="M46.2 -100.0 Q46.8 -100.0 47.3 -99.4 47.75 -98.8 47.8 -98.0 47.85 -97.15 47.45 -96.6 47.05 -96.0 46.45 -96.0 45.85 -96.0 45.35 -96.6 44.85 -97.15 44.8 -98.0 44.75 -98.8 45.2 -99.4 45.6 -100.0 46.2 -100.0" fill="#ffffff" fill-rule="evenodd" stroke="none"/>
    <path d="M-2.2 -90.0 Q1.45 -90.25 3.95 -93.8 6.6 -97.6 6.25 -103.0 L6.25 -103.45 Q5.85 -108.55 2.9 -112.15 0.0 -115.75 -3.75 -116.0 5.4 -115.75 12.45 -107.1 L15.25 -103.0 13.05 -99.1 12.9 -98.85 Q6.85 -90.25 -2.2 -90.0 M-4.75 -116.0 Q-7.6 -115.8 -9.65 -113.7 L-10.9 -112.15 Q-13.6 -108.35 -13.25 -103.0 -12.95 -97.6 -9.85 -93.8 -7.0 -90.25 -3.2 -90.0 -12.4 -90.25 -19.35 -98.85 L-22.25 -103.0 -19.8 -107.1 Q-16.1 -112.55 -11.1 -114.65 -8.2 -115.9 -4.75 -116.0" fill="#f1da58" fill-rule="evenodd" stroke="none"/>
    <path d="M-3.75 -116.0 Q0.0 -115.75 2.9 -112.15 5.85 -108.55 6.25 -103.45 L6.25 -103.0 Q6.6 -97.6 3.95 -93.8 1.45 -90.25 -2.2 -90.0 L-3.2 -90.0 Q-7.0 -90.25 -9.85 -93.8 -12.95 -97.6 -13.25 -103.0 -13.6 -108.35 -10.9 -112.15 L-9.65 -113.7 Q-7.6 -115.8 -4.75 -116.0 L-3.75 -116.0 M1.4 -103.0 Q1.25 -105.7 -0.3 -107.6 L-0.45 -107.75 Q-1.65 -109.1 -3.0 -109.4 L-3.6 -109.5 -4.1 -109.5 Q-6.0 -109.4 -7.2 -107.6 -8.55 -105.7 -8.35 -103.0 -8.2 -100.3 -6.65 -98.4 -5.25 -96.6 -3.35 -96.5 L-2.85 -96.5 Q-1.0 -96.6 0.25 -98.4 1.6 -100.3 1.4 -103.0" fill="#cc7a00" fill-rule="evenodd" stroke="none"/>
    <path d="M1.4 -103.0 Q1.6 -100.3 0.25 -98.4 -1.0 -96.6 -2.85 -96.5 L-3.35 -96.5 Q-5.25 -96.6 -6.65 -98.4 -8.2 -100.3 -8.35 -103.0 -8.55 -105.7 -7.2 -107.6 -6.0 -109.4 -4.1 -109.5 L-3.6 -109.5 -3.0 -109.4 Q-1.65 -109.1 -0.45 -107.75 L-0.3 -107.6 Q1.25 -105.7 1.4 -103.0" fill="#660000" fill-rule="evenodd" stroke="none"/>
    <path d="M-2.2 -90.0 Q6.85 -90.25 12.9 -98.85 L13.05 -99.1 15.25 -103.0 12.45 -107.1 Q5.4 -115.75 -3.75 -116.0 M-4.75 -116.0 Q-8.2 -115.9 -11.1 -114.65 -16.1 -112.55 -19.8 -107.1 L-22.25 -103.0 -19.35 -98.85 Q-12.4 -90.25 -3.2 -90.0" fill="none" stroke="#660000" stroke-linecap="square" stroke-linejoin="miter-clip" stroke-miterlimit="3.0" stroke-width="4.0"/>
    <path d="M-8.0 -104.0 Q-9.25 -104.0 -10.25 -105.2 -11.15 -106.35 -11.25 -108.0 -11.35 -109.65 -10.55 -110.85 -9.75 -112.0 -8.5 -112.0 -7.25 -112.0 -6.3 -110.85 -5.35 -109.65 -5.25 -108.0 -5.15 -106.35 -6.0 -105.2 -6.75 -104.0 -8.0 -104.0" fill="#ffffff" fill-rule="evenodd" stroke="none"/>
    <path d="M1.2 -100.0 Q1.8 -100.0 2.3 -99.4 2.75 -98.8 2.8 -98.0 2.85 -97.15 2.45 -96.6 2.05 -96.0 1.45 -96.0 0.85 -96.0 0.35 -96.6 -0.15 -97.15 -0.2 -98.0 -0.25 -98.8 0.2 -99.4 0.6 -100.0 1.2 -100.0" fill="#ffffff" fill-rule="evenodd" stroke="none"/>
    <path d="M-67.0 -140.0 L-57.0 -156.0 -47.0 -150.0 -47.0 -130.0 -67.0 -140.0" fill="#990000" fill-rule="evenodd" stroke="none"/>
    <path d="M-47.0 -130.0 L-47.0 -110.0 -67.0 -140.0 -47.0 -130.0" fill="#cc0000" fill-rule="evenodd" stroke="none"/>
    <path d="M-67.0 -140.0 L-57.0 -156.0 -47.0 -150.0 M-47.0 -110.0 L-67.0 -140.0" fill="none" stroke="#660000" stroke-linecap="square" stroke-linejoin="miter-clip" stroke-miterlimit="3.0" stroke-width="4.0"/>
  </g>
</svg>
