<?xml version="1.0" encoding="UTF-8" standalone="no"?>
<svg xmlns:ffdec="https://www.free-decompiler.com/flash" xmlns:xlink="http://www.w3.org/1999/xlink" ffdec:objectType="shape" height="180.7px" width="163.6px" xmlns="http://www.w3.org/2000/svg">
  <g transform="matrix(1.0, 0.0, 0.0, 1.0, 93.1, 177.7)">
    <path d="M13.15 -148.0 L13.7 -156.95 0.6 -156.95 0.0 -156.95 -28.05 -156.95 -28.15 -156.95 -70.3 -156.95 -70.85 -147.95 -72.0 -128.0 -73.05 -109.6 -83.45 -59.7 -86.75 -3.0 -43.65 -3.0 -30.9 -3.0 12.25 -3.0 15.55 -60.05 10.95 -110.15 12.0 -128.0 13.15 -148.0 M34.1 -156.95 L33.7 -156.95 19.7 -156.95 16.95 -109.9 21.55 -59.8 18.25 -3.0 64.5 -3.0 64.5 -59.65 54.5 -109.7 54.5 -156.95 34.1 -156.95 M1.65 -164.3 L23.6 -177.7 34.7 -163.75 60.5 -176.9 60.5 -110.35 70.5 -60.3 70.5 3.0 15.15 3.0 15.05 3.0 14.9 3.0 -93.1 3.0 -89.4 -60.4 -79.05 -110.25 -76.15 -159.95 -76.15 -160.0 -76.15 -160.1 -76.15 -160.2 -75.15 -176.9 -53.35 -164.85 -52.65 -176.9 -28.1 -163.35 -3.45 -176.15 1.65 -164.3 M14.05 -63.0 L14.05 -57.0 -81.95 -57.0 -81.95 -63.0 14.05 -63.0 M-22.3 -83.0 L-22.3 -77.0 -43.3 -77.0 -43.3 -83.0 -22.3 -83.0" fill="#660000" fill-rule="evenodd" stroke="none"/>
    <path d="M13.15 -148.0 L12.0 -128.0 -31.65 -100.0 -72.0 -128.0 -70.85 -147.95 -30.5 -120.0 13.15 -148.0 M-30.9 -3.0 L-43.65 -3.0 -36.3 -20.0 -30.9 -3.0 M34.1 -156.95 L54.5 -156.95 54.5 -109.7 64.5 -59.65 64.5 -3.0 18.25 -3.0 21.55 -59.8 16.95 -109.9 19.7 -156.95 33.7 -156.95 34.1 -156.95 M-47.05 -139.5 L-44.8 -142.75 -29.8 -132.4 -13.7 -142.75 -11.5 -139.4 -29.95 -127.6 -47.05 -139.5 M-22.4 -144.9 L-22.35 -144.9 -22.4 -144.9 M-44.65 -38.0 L-44.65 -42.0 -25.65 -42.0 -25.65 -38.0 -44.65 -38.0" fill="#990000" fill-rule="evenodd" stroke="none"/>
    <path d="M-70.85 -147.95 L-70.3 -156.95 -28.15 -156.95 -28.05 -156.95 0.0 -156.95 0.6 -156.95 13.7 -156.95 13.15 -148.0 -30.5 -120.0 -70.85 -147.95 M12.0 -128.0 L10.95 -110.15 15.55 -60.05 12.25 -3.0 -30.9 -3.0 -36.3 -20.0 -43.65 -3.0 -86.75 -3.0 -83.45 -59.7 -73.05 -109.6 -72.0 -128.0 -31.65 -100.0 12.0 -128.0 M14.05 -63.0 L-81.95 -63.0 -81.95 -57.0 14.05 -57.0 14.05 -63.0 M-47.05 -139.5 L-29.95 -127.6 -11.5 -139.4 -13.7 -142.75 -29.8 -132.4 -44.8 -142.75 -47.05 -139.5 M-22.4 -144.9 L-22.35 -144.9 -22.4 -144.9 M-22.3 -83.0 L-43.3 -83.0 -43.3 -77.0 -22.3 -77.0 -22.3 -83.0 M-44.65 -38.0 L-25.65 -38.0 -25.65 -42.0 -44.65 -42.0 -44.65 -38.0" fill="#cc0000" fill-rule="evenodd" stroke="none"/>
    <path d="M-55.3 -90.0 Q-64.35 -90.25 -70.35 -98.85 -71.75 -100.85 -72.75 -103.0 L-69.9 -107.1 Q-65.5 -112.5 -60.3 -114.65 -57.15 -115.9 -53.75 -116.0 -56.55 -115.8 -58.95 -113.7 L-60.4 -112.15 Q-63.45 -108.35 -63.75 -103.0 -64.1 -97.6 -61.45 -93.8 -58.95 -90.25 -55.3 -90.0 M-52.7 -116.0 Q-43.65 -115.75 -37.65 -107.1 -36.25 -105.15 -35.25 -103.0 L-37.95 -99.1 -38.1 -98.85 Q-45.1 -90.25 -54.25 -90.0 -50.5 -90.25 -47.65 -93.8 -44.55 -97.6 -44.25 -103.0 L-44.25 -103.45 Q-44.05 -108.55 -46.6 -112.15 -49.05 -115.75 -52.7 -116.0" fill="#f1da58" fill-rule="evenodd" stroke="none"/>
    <path d="M-55.3 -90.0 Q-58.95 -90.25 -61.45 -93.8 -64.1 -97.6 -63.75 -103.0 -63.45 -108.35 -60.4 -112.15 L-58.95 -113.7 Q-56.55 -115.8 -53.75 -116.0 L-52.7 -116.0 Q-49.05 -115.75 -46.6 -112.15 -44.05 -108.55 -44.25 -103.45 L-44.25 -103.0 Q-44.55 -97.6 -47.65 -93.8 -50.5 -90.25 -54.25 -90.0 L-55.3 -90.0 M-58.85 -103.0 Q-59.05 -100.3 -57.75 -98.4 -56.5 -96.6 -54.65 -96.5 L-54.15 -96.5 Q-52.25 -96.6 -50.85 -98.4 -49.3 -100.3 -49.1 -103.0 -48.95 -105.7 -50.3 -107.6 L-50.4 -107.75 Q-51.35 -109.1 -52.8 -109.4 L-53.4 -109.5 -53.9 -109.5 Q-55.75 -109.4 -57.2 -107.6 -58.7 -105.7 -58.85 -103.0" fill="#cc7a00" fill-rule="evenodd" stroke="none"/>
    <path d="M-58.85 -103.0 Q-58.7 -105.7 -57.2 -107.6 -55.75 -109.4 -53.9 -109.5 L-53.4 -109.5 -52.8 -109.4 Q-51.35 -109.1 -50.4 -107.75 L-50.3 -107.6 Q-48.95 -105.7 -49.1 -103.0 -49.3 -100.3 -50.85 -98.4 -52.25 -96.6 -54.15 -96.5 L-54.65 -96.5 Q-56.5 -96.6 -57.75 -98.4 -59.05 -100.3 -58.85 -103.0" fill="#660000" fill-rule="evenodd" stroke="none"/>
    <path d="M-53.75 -116.0 Q-57.15 -115.9 -60.3 -114.65 -65.5 -112.5 -69.9 -107.1 L-72.75 -103.0 Q-71.75 -100.85 -70.35 -98.85 -64.35 -90.25 -55.3 -90.0 M-52.7 -116.0 Q-43.65 -115.75 -37.65 -107.1 -36.25 -105.15 -35.25 -103.0 L-37.95 -99.1 -38.1 -98.85 Q-45.1 -90.25 -54.25 -90.0" fill="none" stroke="#660000" stroke-linecap="square" stroke-linejoin="miter-clip" stroke-miterlimit="3.0" stroke-width="4.0"/>
    <path d="M-49.5 -104.0 Q-50.75 -104.0 -51.5 -105.2 -52.35 -106.35 -52.25 -108.0 -52.15 -109.65 -51.2 -110.85 -50.25 -112.0 -49.0 -112.0 -47.75 -112.0 -46.95 -110.85 -46.15 -109.65 -46.25 -108.0 -46.35 -106.35 -47.25 -105.2 -48.25 -104.0 -49.5 -104.0" fill="#ffffff" fill-rule="evenodd" stroke="none"/>
    <path d="M-58.7 -100.0 Q-58.1 -100.0 -57.7 -99.4 -57.25 -98.8 -57.3 -98.0 -57.35 -97.15 -57.85 -96.6 -58.35 -96.0 -58.95 -96.0 -59.55 -96.0 -59.95 -96.6 -60.35 -97.15 -60.3 -98.0 -60.25 -98.8 -59.8 -99.4 -59.3 -100.0 -58.7 -100.0" fill="#ffffff" fill-rule="evenodd" stroke="none"/>
    <path d="M-7.7 -116.0 Q-4.3 -115.9 -1.35 -114.65 3.65 -112.55 7.35 -107.1 8.75 -105.15 9.75 -103.0 8.5 -100.85 6.9 -98.85 -0.1 -90.25 -9.25 -90.0 -5.5 -90.25 -2.65 -93.8 0.45 -97.6 0.75 -103.0 1.1 -108.35 -1.6 -112.15 L-2.85 -113.7 Q-4.9 -115.8 -7.7 -116.0 M-10.3 -90.0 Q-19.35 -90.25 -25.35 -98.85 L-25.55 -99.1 -27.75 -103.0 Q-26.5 -105.15 -24.9 -107.1 -17.9 -115.75 -8.75 -116.0 -12.5 -115.75 -15.4 -112.15 -18.35 -108.55 -18.75 -103.45 L-18.75 -103.0 Q-19.1 -97.6 -16.45 -93.8 -13.95 -90.25 -10.3 -90.0" fill="#f1da58" fill-rule="evenodd" stroke="none"/>
    <path d="M-7.7 -116.0 Q-4.9 -115.8 -2.85 -113.7 L-1.6 -112.15 Q1.1 -108.35 0.75 -103.0 0.45 -97.6 -2.65 -93.8 -5.5 -90.25 -9.25 -90.0 L-10.3 -90.0 Q-13.95 -90.25 -16.45 -93.8 -19.1 -97.6 -18.75 -103.0 L-18.75 -103.45 Q-18.35 -108.55 -15.4 -112.15 -12.5 -115.75 -8.75 -116.0 L-7.7 -116.0 M-12.2 -107.6 Q-13.7 -105.7 -13.85 -103.0 -14.05 -100.3 -12.75 -98.4 -11.5 -96.6 -9.65 -96.5 L-9.15 -96.5 Q-7.25 -96.6 -5.85 -98.4 -4.3 -100.3 -4.1 -103.0 -3.95 -105.7 -5.3 -107.6 -6.5 -109.4 -8.4 -109.5 L-8.9 -109.5 -9.5 -109.4 Q-10.85 -109.1 -12.05 -107.75 L-12.2 -107.6" fill="#cc7a00" fill-rule="evenodd" stroke="none"/>
    <path d="M-12.2 -107.6 L-12.05 -107.75 Q-10.85 -109.1 -9.5 -109.4 L-8.9 -109.5 -8.4 -109.5 Q-6.5 -109.4 -5.3 -107.6 -3.95 -105.7 -4.1 -103.0 -4.3 -100.3 -5.85 -98.4 -7.25 -96.6 -9.15 -96.5 L-9.65 -96.5 Q-11.5 -96.6 -12.75 -98.4 -14.05 -100.3 -13.85 -103.0 -13.7 -105.7 -12.2 -107.6" fill="#660000" fill-rule="evenodd" stroke="none"/>
    <path d="M-9.25 -90.0 Q-0.1 -90.25 6.9 -98.85 8.5 -100.85 9.75 -103.0 8.75 -105.15 7.35 -107.1 3.65 -112.55 -1.35 -114.65 -4.3 -115.9 -7.7 -116.0 M-10.3 -90.0 Q-19.35 -90.25 -25.35 -98.85 L-25.55 -99.1 -27.75 -103.0 Q-26.5 -105.15 -24.9 -107.1 -17.9 -115.75 -8.75 -116.0" fill="none" stroke="#660000" stroke-linecap="square" stroke-linejoin="miter-clip" stroke-miterlimit="3.0" stroke-width="4.0"/>
    <path d="M-4.5 -104.0 Q-5.75 -104.0 -6.5 -105.2 -7.35 -106.35 -7.25 -108.0 -7.15 -109.65 -6.2 -110.85 -5.25 -112.0 -4.0 -112.0 -2.75 -112.0 -1.95 -110.85 -1.15 -109.65 -1.25 -108.0 -1.35 -106.35 -2.25 -105.2 -3.25 -104.0 -4.5 -104.0" fill="#ffffff" fill-rule="evenodd" stroke="none"/>
    <path d="M-13.7 -100.0 Q-13.1 -100.0 -12.7 -99.4 -12.25 -98.8 -12.3 -98.0 -12.35 -97.15 -12.85 -96.6 -13.35 -96.0 -13.95 -96.0 -14.55 -96.0 -14.95 -96.6 -15.35 -97.15 -15.3 -98.0 -15.25 -98.8 -14.8 -99.4 -14.3 -100.0 -13.7 -100.0" fill="#ffffff" fill-rule="evenodd" stroke="none"/>
    <path d="M34.5 -110.0 L34.5 -130.0 54.5 -140.0 34.5 -110.0" fill="#cc0000" fill-rule="evenodd" stroke="none"/>
    <path d="M54.5 -140.0 L34.5 -130.0 34.5 -150.0 44.5 -156.0 54.5 -140.0" fill="#990000" fill-rule="evenodd" stroke="none"/>
    <path d="M34.5 -110.0 L54.5 -140.0 44.5 -156.0 34.5 -150.0" fill="none" stroke="#660000" stroke-linecap="square" stroke-linejoin="miter-clip" stroke-miterlimit="3.0" stroke-width="4.0"/>
  </g>
</svg>
