<?xml version="1.0" encoding="UTF-8" standalone="no"?>
<svg xmlns:ffdec="https://www.free-decompiler.com/flash" xmlns:xlink="http://www.w3.org/1999/xlink" ffdec:objectType="shape" height="135.3px" width="271.55px" xmlns="http://www.w3.org/2000/svg">
  <g transform="matrix(1.0, 0.0, 0.0, 1.0, 58.9, 67.65)">
    <path d="M140.0 15.0 L140.0 -15.0 140.0 -55.0 210.0 -55.0 210.0 -40.0 210.0 30.0 210.0 55.0 140.0 55.0 140.0 15.0 M171.0 -34.0 L160.0 -40.0 171.0 -34.0 M205.0 -36.0 L210.0 -40.0 205.0 -36.0 M187.0 20.0 L197.0 10.0 187.0 20.0 M200.0 40.0 L210.0 30.0 200.0 40.0" fill="#cccccc" fill-rule="evenodd" stroke="none"/>
    <path d="M140.0 -55.0 L150.0 -65.0 200.0 -65.0 210.0 -55.0 140.0 -55.0 M210.0 55.0 L200.0 65.0 150.0 65.0 140.0 55.0 210.0 55.0" fill="#999999" fill-rule="evenodd" stroke="none"/>
    <path d="M73.0 -15.0 L70.0 -2.75 83.35 -15.0 140.0 -15.0 140.0 15.0 110.0 15.0 110.0 0.0 100.0 15.0 22.05 15.0 2.4 15.0 -10.0 15.0 Q-21.2 0.0 -10.0 -15.0 L73.0 -15.0 M71.65 13.25 L78.65 6.75 71.65 13.25 M63.65 13.25 L70.65 6.75 63.65 13.25 M36.0 3.0 L43.0 -3.5 36.0 3.0 M130.0 0.0 L133.5 -6.0 130.0 0.0 M-34.7 -16.1 L-35.5 -15.6 -41.25 2.8 -40.8 13.9 -50.65 13.9 Q-61.85 -1.1 -50.65 -16.1 L-34.7 -16.1" fill="#703810" fill-rule="evenodd" stroke="none"/>
    <path d="M83.35 -15.0 L70.0 -2.75 73.0 -15.0 83.35 -15.0 M100.0 15.0 L110.0 0.0 110.0 15.0 100.0 15.0" fill="#a95618" fill-rule="evenodd" stroke="none"/>
    <path d="M73.0 -15.0 L-10.0 -15.0 Q-21.2 0.0 -10.0 15.0 L2.4 15.0 22.05 15.0 100.0 15.0 110.0 15.0 140.0 15.0 140.0 -15.0 83.35 -15.0 73.0 -15.0 M140.0 -55.0 L150.0 -65.0 200.0 -65.0 210.0 -55.0 210.0 -40.0 210.0 30.0 210.0 55.0 200.0 65.0 150.0 65.0 140.0 55.0 140.0 15.0 M140.0 -55.0 L140.0 -15.0 M210.0 -55.0 L140.0 -55.0 M140.0 55.0 L210.0 55.0 M-40.8 13.9 L-50.65 13.9 Q-61.85 -1.1 -50.65 -16.1 L-34.7 -16.1" fill="none" stroke="#000000" stroke-linecap="square" stroke-linejoin="miter-clip" stroke-miterlimit="3.0" stroke-width="4.0"/>
    <path d="M197.0 10.0 L187.0 20.0" fill="none" stroke="#ffffff" stroke-linecap="square" stroke-linejoin="miter-clip" stroke-miterlimit="3.0" stroke-width="2.0"/>
    <path d="M210.0 -40.0 L205.0 -36.0 M160.0 -40.0 L171.0 -34.0 M210.0 30.0 L200.0 40.0" fill="none" stroke="#999999" stroke-linecap="square" stroke-linejoin="miter-clip" stroke-miterlimit="3.0" stroke-width="2.0"/>
    <path d="M133.5 -6.0 L130.0 0.0" fill="none" stroke="#a95618" stroke-linecap="square" stroke-linejoin="miter-clip" stroke-miterlimit="3.0" stroke-width="2.0"/>
    <path d="M43.0 -3.5 L36.0 3.0" fill="none" stroke="#a95618" stroke-linecap="square" stroke-linejoin="miter-clip" stroke-miterlimit="3.0" stroke-width="2.0"/>
    <path d="M70.65 6.75 L63.65 13.25 M78.65 6.75 L71.65 13.25" fill="none" stroke="#000000" stroke-linecap="square" stroke-linejoin="miter-clip" stroke-miterlimit="3.0" stroke-width="2.0"/>
    <path d="M-35.5 -15.6 L-41.25 2.8 -40.8 13.9" fill="none" stroke="#660000" stroke-linecap="square" stroke-linejoin="miter-clip" stroke-miterlimit="3.0" stroke-width="6.0"/>
  </g>
</svg>
