<?xml version="1.0" encoding="UTF-8" standalone="no"?>
<svg xmlns:ffdec="https://www.free-decompiler.com/flash" xmlns:xlink="http://www.w3.org/1999/xlink" ffdec:objectType="shape" height="142.5px" width="154.9px" xmlns="http://www.w3.org/2000/svg">
  <g transform="matrix(1.0, 0.0, 0.0, 1.0, 77.45, 60.7)">
    <path d="M18.6 65.0 L9.3 77.8 -7.8 77.8 -14.75 66.5 -40.95 59.8 -45.9 47.4 46.1 47.8 42.35 59.8 18.6 65.0" fill="#330000" fill-rule="evenodd" stroke="none"/>
    <path d="M18.6 65.0 L42.35 59.8 46.1 47.8 -45.9 47.4 -40.95 59.8 -14.75 66.5 -7.8 77.8 9.3 77.8 18.6 65.0 Z" fill="none" stroke="#000000" stroke-linecap="square" stroke-linejoin="miter-clip" stroke-miterlimit="3.0" stroke-width="6.0"/>
    <path d="M73.25 -15.6 L-2.75 -1.4 64.05 0.0 64.05 0.55 46.3 45.55 -1.0 56.7 -46.85 45.3 -60.85 -0.8 -62.3 -2.75 -2.75 -1.4 -72.75 -19.9 -58.55 -50.4 59.0 -56.7 73.45 -16.0 73.25 -15.6 M3.95 40.0 L3.7 33.0 -8.35 32.55 -7.7 39.55 3.95 40.0" fill="#cc0000" fill-rule="evenodd" stroke="none"/>
    <path d="M64.4 0.0 L64.05 0.0 -2.75 -1.4 73.25 -15.6 64.4 0.0 M3.95 40.0 L-7.7 39.55 -8.35 32.55 3.7 33.0 3.95 40.0 M-62.3 -2.75 L-73.45 -18.45 -72.75 -19.9 -2.75 -1.4 -62.3 -2.75" fill="#990000" fill-rule="evenodd" stroke="none"/>
    <path d="M64.05 0.0 L64.4 0.0 64.05 0.55 64.05 0.0" fill="#a2627e" fill-rule="evenodd" stroke="none"/>
    <path d="M64.4 0.0 L73.25 -15.6 73.45 -16.0 59.0 -56.7 -58.55 -50.4 -72.75 -19.9 -73.45 -18.45 -62.3 -2.75 -60.85 -0.8 -46.85 45.3 -1.0 56.7 46.3 45.55 64.05 0.55 64.4 0.0 Z" fill="none" stroke="#660000" stroke-linecap="square" stroke-linejoin="miter-clip" stroke-miterlimit="3.0" stroke-width="6.0"/>
    <path d="M5.2 -31.6 Q2.8 -29.2 2.8 -25.9 2.8 -24.1 3.5 -22.6 L4.2 -21.5 4.7 -21.5 Q8.0 -21.5 10.4 -19.2 11.5 -18.1 12.1 -16.8 12.6 -15.6 12.7 -14.3 L11.7 -15.6 9.8 -16.9 Q8.6 -17.5 7.2 -17.5 4.5 -17.5 2.6 -15.6 0.7 -13.7 0.7 -11.1 0.7 -9.7 1.3 -8.4 1.7 -7.4 2.6 -6.6 L4.0 -5.5 Q2.6 -5.6 1.4 -6.2 0.1 -6.8 -0.9 -7.9 -2.2 -9.2 -2.8 -10.7 -3.6 -10.2 -4.4 -9.8 -5.9 -9.1 -7.6 -8.9 L-5.9 -10.3 Q-4.8 -11.3 -4.2 -12.6 -3.5 -14.1 -3.5 -15.9 -3.5 -19.2 -5.9 -21.6 -8.2 -23.9 -11.5 -23.9 -13.3 -23.9 -14.8 -23.2 -16.1 -22.6 -17.2 -21.6 L-18.4 -19.9 Q-18.3 -21.6 -17.6 -23.0 -16.9 -24.6 -15.6 -26.0 -12.6 -28.9 -8.5 -28.9 -4.7 -28.9 -1.9 -26.3 L-2.2 -28.9 Q-2.2 -33.0 0.8 -36.0 3.7 -38.9 7.8 -38.9 11.9 -38.9 14.9 -36.0 16.2 -34.6 17.0 -33.0 17.6 -31.6 17.8 -29.9 L16.5 -31.6 Q15.4 -32.6 14.1 -33.2 12.6 -33.9 10.8 -33.9 7.5 -33.9 5.2 -31.6" fill="#000000" fill-rule="evenodd" stroke="none"/>
  </g>
</svg>
