<?xml version="1.0" encoding="UTF-8" standalone="no"?>
<svg xmlns:ffdec="https://www.free-decompiler.com/flash" xmlns:xlink="http://www.w3.org/1999/xlink" ffdec:objectType="shape" height="169.25px" width="187.2px" xmlns="http://www.w3.org/2000/svg">
  <g transform="matrix(1.0, 0.0, 0.0, 1.0, 86.0, 165.25)">
    <path d="M82.0 -129.25 L82.0 -139.5 Q85.3 -144.0 85.65 -149.1 L87.05 -163.5 90.75 -163.9 95.35 -150.5 Q111.75 -93.35 82.0 -84.2 L82.0 -99.9 Q96.3 -109.6 90.1 -137.35 L86.4 -133.0 82.0 -129.25" fill="#666666" fill-rule="evenodd" stroke="none"/>
    <path d="M82.0 -99.9 L82.0 -129.25 86.4 -133.0 90.1 -137.35 Q96.3 -109.6 82.0 -99.9" fill="#ffffff" fill-rule="evenodd" stroke="none"/>
    <path d="M16.75 -118.6 L16.7 -118.65 16.7 -118.6 16.75 -118.6 M81.25 -82.0 L73.3 -82.0 73.3 -19.8 51.75 -19.8 40.5 0.0 14.25 0.0 -0.05 -19.8 -21.6 -19.8 -21.6 -82.0 -31.25 -82.0 -31.25 -149.9 81.25 -149.95 81.25 -82.0" fill="#cc0000" fill-rule="evenodd" stroke="none"/>
    <path d="M-31.25 -149.9 L-31.25 -82.0 -31.25 0.0 -70.0 0.0 -70.0 -140.0 -31.25 -149.9" fill="#660000" fill-rule="evenodd" stroke="none"/>
    <path d="M40.5 0.0 L51.75 -19.8 73.3 -19.8 73.3 -82.0 81.25 -82.0 81.25 0.0 40.5 0.0 M-31.25 -82.0 L-21.6 -82.0 -21.6 -19.8 -0.05 -19.8 14.25 0.0 -31.25 0.0 -31.25 -82.0" fill="#aa0000" fill-rule="evenodd" stroke="none"/>
    <path d="M40.5 0.0 L81.25 0.0 81.25 -82.0 81.25 -149.95 -31.25 -149.9 -31.25 -82.0 -31.25 0.0 14.25 0.0 40.5 0.0 M-31.25 -149.9 L-70.0 -140.0 -70.0 0.0 -31.25 0.0" fill="none" stroke="#660000" stroke-linecap="square" stroke-linejoin="miter-clip" stroke-miterlimit="3.0" stroke-width="6.0"/>
    <path d="M-11.65 -106.25 Q10.7 -87.85 30.35 -103.95 40.55 -112.4 50.45 -111.45 59.85 -110.6 65.25 -101.65" fill="none" stroke="#000000" stroke-linecap="square" stroke-linejoin="miter-clip" stroke-miterlimit="3.0" stroke-width="8.0"/>
    <path d="M30.6 -13.8 L38.1 -18.8" fill="none" stroke="#000000" stroke-linecap="square" stroke-linejoin="miter-clip" stroke-miterlimit="3.0" stroke-width="8.0"/>
    <path d="M10.55 -42.85 Q15.95 -50.05 23.55 -50.05 31.1 -50.05 36.5 -42.85 41.0 -36.85 41.75 -28.75 L5.35 -28.75 Q6.05 -36.85 10.55 -42.85" fill="#990000" fill-rule="evenodd" stroke="none"/>
    <path d="M18.85 -41.25 Q20.4 -41.25 21.45 -39.8 22.6 -38.3 22.6 -36.25 22.6 -34.2 21.45 -32.75 20.4 -31.25 18.85 -31.25 17.3 -31.25 16.2 -32.75 15.1 -34.2 15.1 -36.25 15.1 -38.3 16.2 -39.8 17.3 -41.25 18.85 -41.25" fill="#000000" fill-rule="evenodd" stroke="none"/>
    <path d="M28.25 -41.25 Q29.8 -41.25 30.85 -39.8 32.0 -38.3 32.0 -36.25 32.0 -34.2 30.85 -32.75 29.8 -31.25 28.25 -31.25 26.7 -31.25 25.6 -32.75 24.5 -34.2 24.5 -36.25 24.5 -38.3 25.6 -39.8 26.7 -41.25 28.25 -41.25" fill="#000000" fill-rule="evenodd" stroke="none"/>
    <path d="M62.5 -69.4 Q62.45 -59.3 57.1 -52.15 51.75 -45.0 44.15 -45.0 36.6 -45.0 31.2 -52.15 25.85 -59.3 25.85 -69.4 25.85 -79.55 31.2 -86.7 36.6 -93.85 44.15 -93.85 51.75 -93.85 57.1 -86.7 62.45 -79.55 62.5 -69.4 M57.4 -71.35 Q57.4 -79.45 53.1 -85.2 48.8 -90.95 42.75 -90.9 36.65 -90.95 32.35 -85.2 28.05 -79.45 28.05 -71.35 28.05 -63.3 32.35 -57.55 36.65 -51.85 42.75 -51.8 48.8 -51.85 53.1 -57.55 57.4 -63.3 57.4 -71.35 M14.15 -79.4 Q18.4 -73.7 18.45 -65.65 18.4 -57.6 14.15 -51.9 9.85 -46.2 3.85 -46.2 -2.2 -46.2 -6.45 -51.9 -10.75 -57.6 -10.75 -65.65 -10.75 -73.7 -6.45 -79.4 -2.2 -85.1 3.85 -85.1 9.85 -85.1 14.15 -79.4 M10.95 -78.25 Q7.55 -82.8 2.7 -82.8 -2.1 -82.8 -5.55 -78.25 -8.95 -73.65 -8.95 -67.2 -8.95 -60.8 -5.55 -56.25 -2.1 -51.7 2.7 -51.65 7.55 -51.7 10.95 -56.25 14.4 -60.8 14.4 -67.2 14.4 -73.65 10.95 -78.25" fill="#000000" fill-rule="evenodd" stroke="none"/>
    <path d="M57.4 -71.35 Q57.4 -63.3 53.1 -57.55 48.8 -51.85 42.75 -51.8 36.65 -51.85 32.35 -57.55 28.05 -63.3 28.05 -71.35 28.05 -79.45 32.35 -85.2 36.65 -90.95 42.75 -90.9 48.8 -90.95 53.1 -85.2 57.4 -79.45 57.4 -71.35 M10.95 -78.25 Q14.4 -73.65 14.4 -67.2 14.4 -60.8 10.95 -56.25 7.55 -51.7 2.7 -51.65 -2.1 -51.7 -5.55 -56.25 -8.95 -60.8 -8.95 -67.2 -8.95 -73.65 -5.55 -78.25 -2.1 -82.8 2.7 -82.8 7.55 -82.8 10.95 -78.25" fill="#ffffff" fill-rule="evenodd" stroke="none"/>
    <path d="M1.7 -71.25 Q1.7 -72.65 2.45 -73.65 3.25 -74.65 4.35 -74.65 L4.8 -74.6 Q5.65 -74.45 6.2 -73.65 7.0 -72.6 7.0 -71.1 7.0 -69.65 6.2 -68.65 5.45 -67.6 4.35 -67.6 3.25 -67.6 2.45 -68.65 1.7 -69.65 1.7 -71.1 L1.7 -71.25" fill="#ffffff" fill-rule="evenodd" stroke="none"/>
    <path d="M1.7 -71.25 L1.7 -71.1 Q1.7 -69.65 2.45 -68.65 3.25 -67.6 4.35 -67.6 5.45 -67.6 6.2 -68.65 7.0 -69.65 7.0 -71.1 7.0 -72.6 6.2 -73.65 5.65 -74.45 4.8 -74.6 L6.7 -75.0 Q9.15 -75.0 10.85 -72.7 12.55 -70.45 12.55 -67.25 12.55 -64.0 10.85 -61.7 9.15 -59.45 6.7 -59.45 4.3 -59.45 2.6 -61.7 0.9 -64.0 0.9 -67.25 0.9 -69.45 1.7 -71.25" fill="#000000" fill-rule="evenodd" stroke="none"/>
    <path d="M44.35 -80.65 Q45.35 -80.4 46.1 -79.45 47.1 -78.15 47.1 -76.25 47.1 -74.4 46.1 -73.15 45.15 -71.8 43.75 -71.8 42.35 -71.8 41.35 -73.15 40.4 -74.4 40.4 -76.25 L40.4 -76.4 Q40.45 -78.15 41.35 -79.45 42.35 -80.7 43.75 -80.7 L44.35 -80.65" fill="#ffffff" fill-rule="evenodd" stroke="none"/>
    <path d="M40.4 -76.4 L40.4 -76.25 Q40.4 -74.4 41.35 -73.15 42.35 -71.8 43.75 -71.8 45.15 -71.8 46.1 -73.15 47.1 -74.4 47.1 -76.25 47.1 -78.15 46.1 -79.45 45.35 -80.4 44.35 -80.65 L46.7 -81.15 Q49.75 -81.15 51.9 -78.25 54.05 -75.45 54.05 -71.4 54.05 -67.3 51.9 -64.45 49.75 -61.6 46.7 -61.6 43.65 -61.6 41.55 -64.45 39.4 -67.3 39.4 -71.4 39.4 -74.15 40.4 -76.4" fill="#000000" fill-rule="evenodd" stroke="none"/>
    <path d="M-49.5 -132.5 Q-44.3 -132.5 -40.7 -125.2 -37.0 -117.85 -37.0 -107.5 -37.0 -97.15 -40.6 -80.2 -44.3 -63.25 -49.5 -63.5 -54.7 -63.75 -58.3 -80.45 -62.0 -97.15 -62.0 -107.5 -62.0 -117.85 -58.35 -125.2 -54.7 -132.5 -49.5 -132.5" fill="#330000" fill-rule="evenodd" stroke="none"/>
    <path d="M-75.6 -165.25 L-71.9 -164.85 -70.5 -150.45 Q-70.0 -143.55 -64.15 -137.7 -59.0 -132.55 -53.05 -131.55 -39.7 -120.6 -39.7 -107.35 -39.7 -94.15 -53.05 -83.85 -99.85 -83.2 -80.15 -151.85 L-75.6 -165.25 M-71.2 -134.35 Q-73.3 -136.5 -74.9 -138.7 -83.5 -100.45 -53.05 -96.45 L-53.0 -96.45 Q-47.65 -102.5 -47.65 -110.6 -47.65 -118.7 -53.05 -125.2 -62.9 -126.05 -71.2 -134.35" fill="#666666" fill-rule="evenodd" stroke="none"/>
    <path d="M-71.2 -134.35 Q-62.9 -126.05 -53.05 -125.2 -47.65 -118.7 -47.65 -110.6 -47.65 -102.5 -53.0 -96.45 L-53.05 -96.45 Q-83.5 -100.45 -74.9 -138.7 -73.3 -136.5 -71.2 -134.35" fill="#ffffff" fill-rule="evenodd" stroke="none"/>
  </g>
</svg>
