<?xml version="1.0" encoding="UTF-8" standalone="no"?>
<svg xmlns:ffdec="https://www.free-decompiler.com/flash" xmlns:xlink="http://www.w3.org/1999/xlink" ffdec:objectType="shape" height="62.3px" width="196.55px" xmlns="http://www.w3.org/2000/svg">
  <g transform="matrix(1.0, 0.0, 0.0, 1.0, 12.9, 29.65)">
    <path d="M148.4 23.8 L133.35 26.4 136.95 18.4 148.4 23.8" fill="#cccccc" fill-rule="evenodd" stroke="none"/>
    <path d="M31.0 15.0 L31.0 0.0 Q78.8 10.9 114.75 9.55 151.2 8.15 181.0 -6.0 L174.0 16.0 Q161.6 20.9 148.4 23.8 L136.95 18.4 133.35 26.4 Q86.9 32.35 31.0 15.0 M102.85 -21.9 L111.0 -22.65 100.0 -6.0 102.85 -21.9 M113.05 -22.85 L121.7 -23.7 110.0 -6.0 113.05 -22.85 M123.2 -23.85 L132.35 -24.7 120.0 -6.0 123.2 -23.85 M93.35 14.3 L86.9 18.35 93.35 14.3 M99.8 17.05 L89.7 23.15 99.8 17.05" fill="#999999" fill-rule="evenodd" stroke="none"/>
    <path d="M31.0 0.0 L31.0 -15.0 102.85 -21.9 100.0 -6.0 111.0 -22.65 113.05 -22.85 110.0 -6.0 121.7 -23.7 123.2 -23.85 120.0 -6.0 132.35 -24.7 156.0 -27.0 181.0 -6.0 Q151.2 8.15 114.75 9.55 78.8 10.9 31.0 0.0" fill="#ffffff" fill-rule="evenodd" stroke="none"/>
    <path d="M16.0 -15.0 L16.0 -26.0 31.0 -26.0 31.0 -15.0 31.0 0.0 31.0 15.0 31.0 30.0 16.0 30.0 16.0 15.0 10.25 15.0 10.2 15.0 -5.1 15.0 Q-15.35 0.0 -5.1 -15.0 L16.0 -15.0 16.0 15.0 16.0 -15.0" fill="#333333" fill-rule="evenodd" stroke="none"/>
    <path d="M31.0 -15.0 L31.0 -26.0 16.0 -26.0 16.0 -15.0 16.0 15.0 16.0 30.0 31.0 30.0 31.0 15.0 31.0 0.0 31.0 -15.0 102.85 -21.9 111.0 -22.65 113.05 -22.85 121.7 -23.7 123.2 -23.85 132.35 -24.7 156.0 -27.0 181.0 -6.0 174.0 16.0 Q161.6 20.9 148.4 23.8 L133.35 26.4 Q86.9 32.35 31.0 15.0 M10.25 15.0 L16.0 15.0 M16.0 -15.0 L-5.1 -15.0 Q-15.35 0.0 -5.1 15.0 L10.2 15.0" fill="none" stroke="#000000" stroke-linecap="square" stroke-linejoin="miter-clip" stroke-miterlimit="10.0" stroke-width="4.0"/>
    <path d="M181.0 -6.0 Q151.2 8.15 114.75 9.55 78.8 10.9 31.0 0.0" fill="none" stroke="#000000" stroke-linecap="square" stroke-linejoin="miter-clip" stroke-miterlimit="10.0" stroke-width="3.0"/>
    <path d="M89.7 23.15 L99.8 17.05 M86.9 18.35 L93.35 14.3" fill="none" stroke="#cccccc" stroke-linecap="round" stroke-linejoin="round" stroke-width="1.0"/>
  </g>
</svg>
