<?xml version="1.0" encoding="UTF-8" standalone="no"?>
<svg xmlns:ffdec="https://www.free-decompiler.com/flash" xmlns:xlink="http://www.w3.org/1999/xlink" ffdec:objectType="shape" height="145.95px" width="129.35px" xmlns="http://www.w3.org/2000/svg">
  <g transform="matrix(1.0, 0.0, 0.0, 1.0, 64.0, 58.15)">
    <path d="M53.6 59.8 L58.6 74.8 34.6 83.8 -8.4 77.8 -33.4 79.8 -42.0 75.1 -37.4 59.4 53.6 59.8" fill="#4a0000" fill-rule="evenodd" stroke="none"/>
    <path d="M53.6 59.8 L-37.4 59.4 -42.0 75.1 -55.4 67.8 -49.4 47.4 49.6 47.8 53.6 59.8" fill="#990000" fill-rule="evenodd" stroke="none"/>
    <path d="M-42.0 75.1 L-33.4 79.8 -8.4 77.8 34.6 83.8 58.6 74.8 53.6 59.8 49.6 47.8 -49.4 47.4 -55.4 67.8 -42.0 75.1 Z" fill="none" stroke="#000000" stroke-linecap="square" stroke-linejoin="miter-clip" stroke-miterlimit="3.0" stroke-width="6.0"/>
    <path d="M-52.15 -23.25 L-36.35 -47.45 39.85 -51.9 53.85 -22.0 53.75 -21.7 -0.75 -7.6 -52.15 -23.25 M49.65 -7.6 L49.5 -7.1 60.0 33.25 40.75 51.9 -45.1 48.9 -60.0 31.75 -46.85 -5.6 -47.6 -7.6 -0.75 -7.6 49.65 -7.6 M3.2 38.9 L3.2 29.9 -7.35 29.9 -7.35 38.9 3.2 38.9 M-38.5 17.5 L-35.15 16.4 -32.0 22.75 -35.15 16.4 -38.5 17.5 M-22.0 18.75 L-24.9 12.95 -35.15 16.4 -37.0 12.75 -35.15 16.4 -24.9 12.95 -22.0 18.75 M-17.0 5.25 L-14.8 9.6 -24.9 12.95 -27.0 8.75 -24.9 12.95 -14.8 9.6 -17.0 5.25 M-12.0 15.25 L-14.8 9.6 -8.5 7.5 -14.8 9.6 -12.0 15.25" fill="#a2627e" fill-rule="evenodd" stroke="none"/>
    <path d="M53.75 -21.7 L49.65 -7.6 -0.75 -7.6 -47.6 -7.6 -53.0 -22.0 -52.15 -23.25 -0.75 -7.6 53.75 -21.7 M3.2 38.9 L-7.35 38.9 -7.35 29.9 3.2 29.9 3.2 38.9" fill="#86355b" fill-rule="evenodd" stroke="none"/>
    <path d="M-52.15 -23.25 L-36.35 -47.45 39.85 -51.9 53.85 -22.0 53.75 -21.7 49.65 -7.6 49.5 -7.1 60.0 33.25 40.75 51.9 -45.1 48.9 -60.0 31.75 -46.85 -5.6 -47.6 -7.6 -53.0 -22.0 -52.15 -23.25" fill="none" stroke="#660033" stroke-linecap="square" stroke-linejoin="miter-clip" stroke-miterlimit="3.0" stroke-width="6.0"/>
    <path d="M-8.5 7.5 L-14.8 9.6 -12.0 15.25 M-27.0 8.75 L-24.9 12.95 -14.8 9.6 -17.0 5.25 M-37.0 12.75 L-35.15 16.4 -24.9 12.95 -22.0 18.75 M-32.0 22.75 L-35.15 16.4 -38.5 17.5" fill="none" stroke="#660033" stroke-linecap="square" stroke-linejoin="miter-clip" stroke-miterlimit="3.0" stroke-width="4.0"/>
    <path d="M55.65 39.5 L-6.4 -42.15 -22.15 -37.95 -29.35 -48.0 -6.4 -54.15 61.25 34.9 55.65 39.5" fill="#990000" fill-rule="evenodd" stroke="none"/>
    <path d="M-22.15 -37.95 L-6.4 -42.15 55.65 39.5 41.65 50.85 -22.15 -37.95" fill="#4a0000" fill-rule="evenodd" stroke="none"/>
    <path d="M55.65 39.5 L61.25 34.9 -6.4 -54.15 -29.35 -48.0 -22.15 -37.95 41.65 50.85 55.65 39.5 Z" fill="none" stroke="#000000" stroke-linecap="square" stroke-linejoin="miter-clip" stroke-miterlimit="3.0" stroke-width="6.0"/>
  </g>
</svg>
