<?xml version="1.0" encoding="UTF-8" standalone="no"?>
<svg xmlns:ffdec="https://www.free-decompiler.com/flash" xmlns:xlink="http://www.w3.org/1999/xlink" ffdec:objectType="shape" height="44.75px" width="88.5px" xmlns="http://www.w3.org/2000/svg">
  <g transform="matrix(1.0, 0.0, 0.0, 1.0, 14.1, 20.25)">
    <path d="M13.95 -11.75 L16.65 -18.25 31.15 -12.2 31.1 -12.15 31.15 11.95 31.1 -12.15 31.15 -12.2 31.3 -12.2 48.0 -17.1 63.9 -17.1 63.9 -8.2 67.9 -8.2 67.85 0.25 72.4 0.25 72.4 11.2 66.9 17.7 62.55 16.55 49.85 22.5 31.15 12.0 31.15 11.95 17.15 18.85 14.0 12.3 Q3.0 15.7 1.35 15.7 -5.1 15.65 -9.6 11.2 -14.1 6.65 -14.1 0.25 -14.1 -6.2 -9.6 -10.65 -5.1 -15.2 1.35 -15.2 2.65 -15.2 13.95 -11.75 L14.05 12.25 14.0 12.3 14.05 12.25 13.95 -11.75 M31.15 -12.15 L31.3 -12.2 31.15 -12.15 31.1 -12.15 31.15 -12.15 M44.9 11.5 L56.75 11.5 57.85 15.05 62.55 16.55 57.85 15.05 56.75 11.5 44.9 11.5" fill="#000000" fill-rule="evenodd" stroke="none"/>
    <path d="M31.15 -12.2 L16.65 -18.25 13.95 -11.75 14.05 12.25 14.0 12.3 17.15 18.85 31.15 11.95 31.1 -12.15 31.15 -12.2 M31.3 -12.2 L48.0 -17.1 63.9 -17.1 63.9 -8.2 67.9 -8.2 67.85 0.25 72.4 0.25 72.4 11.2 66.9 17.7 62.55 16.55 49.85 22.5 31.15 12.0 31.15 11.95 M31.3 -12.2 L31.15 -12.15 31.1 -12.15 M62.55 16.55 L57.85 15.05 56.75 11.5 44.9 11.5" fill="none" stroke="#666666" stroke-linecap="square" stroke-linejoin="miter-clip" stroke-miterlimit="3.0" stroke-width="3.0"/>
  </g>
</svg>
