<?xml version="1.0" encoding="UTF-8" standalone="no"?>
<svg xmlns:ffdec="https://www.free-decompiler.com/flash" xmlns:xlink="http://www.w3.org/1999/xlink" ffdec:objectType="shape" height="184.0px" width="82.8px" xmlns="http://www.w3.org/2000/svg">
  <g transform="matrix(1.0, 0.0, 0.0, 1.0, 6.0, 92.0)">
    <path d="M38.75 -73.25 Q33.4 -79.0 27.2 -79.0 13.9 -79.0 4.5 -52.65 -1.5 -35.8 -3.65 -14.45 -2.4 -42.55 3.9 -63.65 11.8 -90.0 23.0 -90.0 31.9 -90.0 38.75 -73.25" fill="#bbbb3e" fill-rule="evenodd" stroke="none"/>
    <path d="M-3.65 -14.45 Q-1.5 -35.8 4.5 -52.65 13.9 -79.0 27.2 -79.0 33.4 -79.0 38.75 -73.25 40.5 -69.0 42.1 -63.65 47.2 -46.65 49.0 -25.05 47.35 -26.5 45.5 -26.5 41.3 -26.5 38.25 -19.2 L38.05 -18.75 Q35.0 -11.0 35.0 0.0 35.0 6.95 36.25 12.6 36.95 15.9 38.05 18.75 39.3 21.95 40.8 23.8 L39.45 28.65 Q28.45 65.3 12.85 65.35 7.8 65.3 3.3 61.5 -4.0 35.8 -4.0 0.0 -4.0 -7.45 -3.65 -14.45" fill="#999933" fill-rule="evenodd" stroke="none"/>
    <path d="M36.25 12.6 Q35.0 6.95 35.0 0.0 35.0 -11.0 38.05 -18.75 L38.25 -19.2 74.05 0.0 36.25 12.6" fill="#993300" fill-rule="evenodd" stroke="none"/>
    <path d="M38.25 -19.2 Q41.3 -26.5 45.5 -26.5 47.35 -26.5 49.0 -25.05 L74.05 0.0 38.25 -19.2" fill="#bf3f00" fill-rule="evenodd" stroke="none"/>
    <path d="M40.8 23.8 Q39.3 21.95 38.05 18.75 36.95 15.9 36.25 12.6 L74.05 0.0 49.0 25.05 Q47.35 26.5 45.5 26.5 42.95 26.5 40.8 23.8" fill="#792700" fill-rule="evenodd" stroke="none"/>
    <path d="M3.3 61.5 Q7.8 65.3 12.85 65.35 28.45 65.3 39.45 28.65 L40.8 23.8 Q42.95 26.5 45.5 26.5 47.35 26.5 49.0 25.05 47.2 46.65 42.1 63.65 34.2 90.0 23.0 90.0 11.8 90.0 3.9 63.65 L3.3 61.5" fill="#80802b" fill-rule="evenodd" stroke="none"/>
    <path d="M38.75 -73.25 Q31.9 -90.0 23.0 -90.0 11.8 -90.0 3.9 -63.65 -2.4 -42.55 -3.65 -14.45 -4.0 -7.45 -4.0 0.0 -4.0 35.8 3.3 61.5 L3.9 63.65 Q11.8 90.0 23.0 90.0 34.2 90.0 42.1 63.65 47.2 46.65 49.0 25.05 L74.05 0.0 49.0 -25.05 Q47.2 -46.65 42.1 -63.65 40.5 -69.0 38.75 -73.25 M40.8 23.8 Q39.3 21.95 38.05 18.75 36.95 15.9 36.25 12.6 35.0 6.95 35.0 0.0 35.0 -11.0 38.05 -18.75 L38.25 -19.2 Q41.3 -26.5 45.5 -26.5 47.35 -26.5 49.0 -25.05 M40.8 23.8 Q42.95 26.5 45.5 26.5 47.35 26.5 49.0 25.05" fill="none" stroke="#333333" stroke-linecap="butt" stroke-linejoin="miter-clip" stroke-miterlimit="3.0" stroke-width="4.0"/>
  </g>
</svg>
