<?xml version="1.0" encoding="UTF-8" standalone="no"?>
<svg xmlns:ffdec="https://www.free-decompiler.com/flash" xmlns:xlink="http://www.w3.org/1999/xlink" ffdec:objectType="shape" height="138.6px" width="83.4px" xmlns="http://www.w3.org/2000/svg">
  <g transform="matrix(1.0, 0.0, 0.0, 1.0, 40.7, 100.6)">
    <path d="M11.85 -77.1 L18.95 -78.0 21.95 -78.1 Q18.3 -74.95 15.05 -70.2 8.45 -60.75 10.4 -52.85 11.3 -48.9 16.7 -44.2 L27.7 -35.45 Q34.65 -29.65 38.1 -24.0 42.7 -16.5 42.7 -7.3 42.7 12.05 29.75 25.55 23.95 31.55 16.75 34.8 9.5 38.1 2.2 38.0 -13.05 37.85 -23.4 31.7 -34.6 25.15 -38.1 12.85 -41.4 1.15 -40.55 -9.3 -39.85 -18.8 -35.3 -30.85 -31.8 -40.2 -31.1 -48.2 L-30.55 -57.15 -29.45 -70.2 Q-28.0 -83.65 -8.0 -93.45 2.0 -98.4 11.75 -100.6 10.05 -99.55 -2.55 -89.0 -10.5 -82.4 -10.7 -68.7 -10.8 -64.4 -10.1 -59.9 L-9.4 -56.3 Q-8.35 -60.05 -2.55 -69.25 1.05 -75.0 11.85 -77.1 M12.25 -72.15 L13.55 -73.95 12.5 -73.75 Q3.45 -72.0 0.3 -67.4 L0.35 -67.4 Q-5.05 -58.85 -6.1 -55.35 -6.45 -54.25 -7.4 -53.5 -8.35 -52.85 -9.5 -52.85 -10.7 -52.95 -11.6 -53.7 -12.5 -54.45 -12.7 -55.6 L-13.45 -59.25 -13.45 -59.4 Q-14.2 -64.2 -14.1 -68.75 -13.85 -83.35 -5.7 -90.75 L-6.5 -90.4 Q-24.45 -81.6 -26.05 -69.85 L-27.15 -56.95 -27.7 -47.85 -27.7 -47.9 Q-28.4 -39.45 -32.1 -29.65 -36.45 -18.1 -37.15 -9.05 -37.95 0.85 -34.8 11.9 -31.65 22.9 -21.7 28.8 -12.0 34.45 2.25 34.6 8.8 34.7 15.35 31.7 22.0 28.7 27.3 23.15 39.3 10.65 39.3 -7.3 39.3 -15.5 35.2 -22.2 L35.15 -22.25 Q31.95 -27.45 25.5 -32.85 L14.65 -41.55 14.5 -41.65 Q8.05 -47.2 7.05 -52.05 L7.1 -52.05 Q4.65 -61.25 12.25 -72.15" fill="#ff0000" fill-opacity="0.49803922" fill-rule="evenodd" stroke="none"/>
    <path d="M12.25 -72.15 Q4.65 -61.25 7.1 -52.05 L7.05 -52.05 Q8.05 -47.2 14.5 -41.65 L14.65 -41.55 25.5 -32.85 Q31.95 -27.45 35.15 -22.25 L35.2 -22.2 Q39.3 -15.5 39.3 -7.3 39.3 10.65 27.3 23.15 22.0 28.7 15.35 31.7 8.8 34.7 2.25 34.6 -12.0 34.45 -21.7 28.8 -31.65 22.9 -34.8 11.9 -37.95 0.85 -37.15 -9.05 -36.45 -18.1 -32.1 -29.65 -28.4 -39.45 -27.7 -47.9 L-27.7 -47.85 -27.15 -56.95 -26.05 -69.85 Q-24.45 -81.6 -6.5 -90.4 L-5.7 -90.75 Q-13.85 -83.35 -14.1 -68.75 -14.2 -64.2 -13.45 -59.4 L-13.45 -59.25 -12.7 -55.6 Q-12.5 -54.45 -11.6 -53.7 -10.7 -52.95 -9.5 -52.85 -8.35 -52.85 -7.4 -53.5 -6.45 -54.25 -6.1 -55.35 -5.05 -58.85 0.35 -67.4 L0.3 -67.4 Q3.45 -72.0 12.5 -73.75 L13.55 -73.95 12.25 -72.15" fill="#dd4800" fill-rule="evenodd" stroke="none"/>
    <path d="M-6.65 -27.95 Q5.8 -25.55 11.55 -12.8 17.3 -0.05 10.25 14.1 5.1 21.3 0.45 22.3 -6.5 23.7 -11.0 19.2 -14.75 15.45 -15.4 8.7 L-15.45 8.7 -16.1 -0.05 Q-16.6 -7.05 -17.85 -18.7 -19.15 -30.35 -6.65 -27.95" fill="#ff9900" fill-rule="evenodd" stroke="none"/>
  </g>
</svg>
