<?xml version="1.0" encoding="UTF-8" standalone="no"?>
<svg xmlns:ffdec="https://www.free-decompiler.com/flash" xmlns:xlink="http://www.w3.org/1999/xlink" ffdec:objectType="shape" height="140.5px" width="95.0px" xmlns="http://www.w3.org/2000/svg">
  <g transform="matrix(1.0, 0.0, 0.0, 1.0, 47.5, 54.0)">
    <path d="M-27.0 -14.05 L-27.0 -27.0 27.0 -27.0 27.0 -10.2 -27.0 -14.05" fill="#c6cc4a" fill-rule="evenodd" stroke="none"/>
    <path d="M27.0 -10.2 L27.0 27.0 -27.0 27.0 -27.0 -14.05 27.0 -10.2" fill="#e1e49e" fill-rule="evenodd" stroke="none"/>
    <path d="M27.0 -10.2 L27.0 -27.0 -27.0 -27.0 -27.0 -14.05 -27.0 27.0 27.0 27.0 27.0 -10.2 M33.0 -33.0 L33.0 33.0 -33.0 33.0 -33.0 -33.0 33.0 -33.0" fill="#818525" fill-rule="evenodd" stroke="none"/>
    <path d="M15.9 -24.4 L16.3 -24.85 20.7 -20.45 20.2 -19.95 20.25 -20.0 Q11.85 -11.65 0.05 -11.65 -11.8 -11.65 -20.15 -20.0 L-20.6 -20.5 -16.25 -24.85 -15.85 -24.4 -15.8 -24.35 Q-9.2 -17.85 0.05 -17.85 9.35 -17.85 15.9 -24.35 L15.9 -24.4 M30.25 -10.0 L31.5 -11.35 41.5 -11.35 41.5 4.65 -41.5 4.65 -41.5 -11.35 -31.55 -11.35 -30.25 -10.0 Q-17.75 2.5 0.0 2.5 17.75 2.5 30.25 -10.05 L30.25 -10.0 M28.65 -18.2 L14.85 -32.0 28.65 -32.0 28.65 -18.2 M41.5 17.9 L41.5 22.9 -41.5 22.9 -41.5 16.65 41.5 16.65 41.5 17.5 41.5 17.7 41.5 17.9 M41.5 38.95 L-41.5 38.95 -41.5 33.7 41.5 33.7 41.5 38.95 M-24.8 -21.95 L-28.65 -18.15 -28.65 -32.0 -14.8 -32.0 -24.6 -22.15 -24.8 -21.95" fill="#993300" fill-rule="evenodd" stroke="none"/>
    <path d="M-44.5 44.95 Q-45.75 44.95 -46.6 44.1 -47.5 43.2 -47.5 41.95 L-47.5 -51.0 Q-47.5 -52.25 -46.6 -53.1 -45.75 -54.0 -44.5 -54.0 L44.5 -54.0 Q45.75 -54.0 46.65 -53.1 47.5 -52.25 47.5 -51.0 L47.5 17.5 47.5 17.7 47.5 17.9 47.5 41.95 Q47.5 43.2 46.65 44.1 45.75 44.95 44.5 44.95 L-44.5 44.95 M44.5 56.9 L44.5 71.9 38.55 71.9 4.5 86.5 0.0 71.9 -6.75 84.25 -44.5 71.9 -44.5 56.9 -9.25 56.9 -9.25 65.5 9.25 65.5 9.25 56.9 44.5 56.9 M28.65 -36.0 L28.65 -48.0 -28.65 -48.0 -28.65 -36.0 28.65 -36.0 M13.0 -27.15 L13.5 -27.65 9.15 -32.0 -9.15 -32.0 -13.45 -27.7 -13.0 -27.2 -12.95 -27.15 Q-7.55 -21.85 0.05 -21.85 7.65 -21.85 13.05 -27.2 L13.0 -27.15 M30.25 -10.0 L30.25 -10.05 Q17.75 2.5 0.0 2.5 -17.75 2.5 -30.25 -10.0 L-31.55 -11.35 -41.5 -11.35 -41.5 4.65 41.5 4.65 41.5 -11.35 31.5 -11.35 30.25 -10.0 M15.9 -24.4 L15.9 -24.35 Q9.35 -17.85 0.05 -17.85 -9.2 -17.85 -15.8 -24.35 L-15.85 -24.4 -16.25 -24.85 -20.6 -20.5 -20.15 -20.0 Q-11.8 -11.65 0.05 -11.65 11.85 -11.65 20.25 -20.0 L20.2 -19.95 20.7 -20.45 16.3 -24.85 15.9 -24.4 M23.5 -17.65 L23.1 -17.2 23.1 -17.15 Q13.55 -7.65 0.05 -7.65 -13.5 -7.65 -23.0 -17.15 L-23.45 -17.6 -27.85 -13.3 -27.4 -12.85 Q-16.05 -1.5 0.0 -1.5 16.05 -1.5 27.4 -12.85 L27.85 -13.3 23.5 -17.65 M32.65 -48.0 L32.65 -15.35 41.5 -15.35 41.5 -48.0 32.65 -48.0 M41.5 17.9 L41.5 17.7 41.5 17.5 41.5 16.65 -41.5 16.65 -41.5 22.9 41.5 22.9 41.5 17.9 M28.65 -18.2 L28.65 -32.0 14.85 -32.0 28.65 -18.2 M41.5 29.7 L41.5 26.9 -41.5 26.9 -41.5 29.7 41.5 29.7 M41.5 12.65 L41.5 8.65 -41.5 8.65 -41.5 12.65 41.5 12.65 M41.5 38.95 L41.5 33.7 -41.5 33.7 -41.5 38.95 41.5 38.95 M-41.5 -48.0 L-41.5 -15.35 -32.65 -15.35 -32.65 -48.0 -41.5 -48.0 M-24.8 -21.95 L-24.6 -22.15 -14.8 -32.0 -28.65 -32.0 -28.65 -18.15 -24.8 -21.95" fill="#000000" fill-rule="evenodd" stroke="none"/>
    <path d="M-44.5 44.95 L44.5 44.95 44.5 56.9 9.25 56.9 9.25 47.0 -9.25 47.0 -9.25 56.9 -44.5 56.9 -44.5 44.95 M28.65 -36.0 L-28.65 -36.0 -28.65 -48.0 28.65 -48.0 28.65 -36.0 M32.65 -48.0 L41.5 -48.0 41.5 -15.35 32.65 -15.35 32.65 -48.0 M-41.5 -48.0 L-32.65 -48.0 -32.65 -15.35 -41.5 -15.35 -41.5 -48.0" fill="#6a2300" fill-rule="evenodd" stroke="none"/>
    <path d="M13.0 -27.15 L13.05 -27.2 Q7.65 -21.85 0.05 -21.85 -7.55 -21.85 -12.95 -27.15 L-13.0 -27.2 -13.45 -27.7 -9.15 -32.0 9.15 -32.0 13.5 -27.65 13.0 -27.15 M23.5 -17.65 L27.85 -13.3 27.4 -12.85 Q16.05 -1.5 0.0 -1.5 -16.05 -1.5 -27.4 -12.85 L-27.85 -13.3 -23.45 -17.6 -23.0 -17.15 Q-13.5 -7.65 0.05 -7.65 13.55 -7.65 23.1 -17.15 L23.1 -17.2 23.5 -17.65 M41.5 12.65 L-41.5 12.65 -41.5 8.65 41.5 8.65 41.5 12.65 M41.5 29.7 L-41.5 29.7 -41.5 26.9 41.5 26.9 41.5 29.7" fill="#cc6633" fill-rule="evenodd" stroke="none"/>
    <path d="M5.2 61.5 L-5.3 61.5 -5.3 51.0 5.2 51.0 5.2 61.5" fill="#d7c43e" fill-rule="evenodd" stroke="none"/>
    <path d="M5.2 61.5 L5.2 51.0 -5.3 51.0 -5.3 61.5 5.2 61.5 M9.25 56.9 L9.25 65.5 -9.25 65.5 -9.25 56.9 -9.25 47.0 9.25 47.0 9.25 56.9" fill="#ae9d24" fill-rule="evenodd" stroke="none"/>
  </g>
</svg>
