<?xml version="1.0" encoding="UTF-8" standalone="no"?>
<svg xmlns:ffdec="https://www.free-decompiler.com/flash" xmlns:xlink="http://www.w3.org/1999/xlink" ffdec:objectType="shape" height="181.05px" width="228.5px" xmlns="http://www.w3.org/2000/svg">
  <g transform="matrix(1.0, 0.0, 0.0, 1.0, 114.25, 178.05)">
    <path d="M16.8 -120.0 L0.0 -78.05 -16.75 -120.0 -12.2 -131.35 -12.1 -131.75 0.0 -161.9 12.15 -131.55 12.35 -131.1 16.8 -120.0 M65.1 -100.65 L0.0 -63.45 -65.1 -100.65 -53.0 -112.75 -53.0 -97.0 -31.25 -97.0 -1.85 -67.6 -1.5 -67.4 -1.4 -67.35 -1.15 -67.25 -0.4 -67.0 -0.05 -67.0 0.0 -67.0 0.4 -67.0 0.5 -67.05 0.95 -67.15 1.8 -67.55 2.1 -67.8 2.15 -67.85 2.35 -68.1 31.25 -97.0 53.0 -97.0 53.0 -112.75 65.1 -100.65 M44.25 -60.0 L80.0 -95.75 105.75 -70.0 70.0 -34.25 44.25 -60.0 M80.0 -88.0 L56.0 -64.0 74.0 -46.0 98.0 -70.0 80.0 -88.0 M-44.25 -60.0 L-70.0 -34.25 -105.75 -70.0 -80.0 -95.75 -44.25 -60.0 M-80.0 -88.0 L-98.0 -70.0 -74.0 -46.0 -56.0 -64.0 -80.0 -88.0" fill="#dece5f" fill-rule="evenodd" stroke="none"/>
    <path d="M21.3 -124.9 L47.0 -108.35 47.0 -103.0 28.75 -103.0 8.2 -82.45 23.25 -120.0 21.3 -124.9 M72.75 -97.0 L38.75 -63.0 27.0 -63.0 27.0 -60.0 13.0 -60.0 13.0 -63.0 11.3 -63.0 70.8 -97.0 72.75 -97.0 M80.0 -88.0 L98.0 -70.0 74.0 -46.0 56.0 -64.0 80.0 -88.0 M-47.0 -108.35 L-21.25 -124.9 -23.2 -120.0 -8.2 -82.45 -28.75 -103.0 -47.0 -103.0 -47.0 -108.35 M-38.75 -63.0 L-72.75 -97.0 -70.8 -97.0 -11.3 -63.0 -13.0 -63.0 -13.0 -60.0 -27.0 -60.0 -27.0 -63.0 -38.75 -63.0 M-80.0 -88.0 L-56.0 -64.0 -74.0 -46.0 -98.0 -70.0 -80.0 -88.0" fill="#993300" fill-rule="evenodd" stroke="none"/>
    <path d="M-47.0 -40.0 L-47.0 -48.75 -38.75 -57.0 -29.55 -57.0 Q-28.9 -54.75 -27.1 -52.95 -24.15 -50.0 -20.0 -50.0 -15.85 -50.0 -12.95 -52.95 -11.15 -54.75 -10.4 -57.0 L10.45 -57.0 Q11.1 -54.75 12.9 -52.95 15.85 -50.0 20.0 -50.0 24.15 -50.0 27.05 -52.95 28.85 -54.75 29.6 -57.0 L38.75 -57.0 47.0 -48.75 47.0 -40.0 10.85 -40.0 10.0 -40.8 9.6 -40.4 0.0 -50.0 -9.55 -40.4 -10.0 -40.8 -10.8 -40.0 -47.0 -40.0" fill="#ddac46" fill-rule="evenodd" stroke="none"/>
    <path d="M-47.0 -40.0 L-10.8 -40.0 -12.8 -38.0 0.0 -25.15 12.85 -38.0 10.85 -40.0 47.0 -40.0 47.0 -21.25 29.4 -3.65 10.7 -13.0 -10.7 -13.0 -29.4 -3.65 -47.0 -21.25 -47.0 -40.0 M-9.55 -40.4 L0.0 -50.0 9.6 -40.4 0.0 -30.85 -9.55 -40.4 M13.0 -15.15 L15.85 -18.0 10.85 -23.0 -10.8 -23.0 -15.8 -18.0 -13.0 -15.15 -9.15 -19.0 9.15 -19.0 13.0 -15.15" fill="#e8c782" fill-rule="evenodd" stroke="none"/>
    <path d="M21.3 -124.9 L23.25 -120.0 8.2 -82.45 28.75 -103.0 47.0 -103.0 47.0 -108.35 21.3 -124.9 M16.8 -120.0 L12.35 -131.1 12.15 -131.55 0.0 -161.9 -12.1 -131.75 -12.2 -131.35 -16.75 -120.0 0.0 -78.05 16.8 -120.0 M71.25 -103.0 L80.0 -103.0 Q81.25 -103.0 82.15 -102.1 L114.25 -70.0 83.2 -38.95 86.5 -17.0 51.25 -17.0 32.15 2.15 32.05 2.2 32.0 2.25 Q31.2 2.95 30.15 3.0 L30.0 3.0 29.7 3.0 -30.0 3.0 -30.35 3.0 -30.95 2.85 -31.4 2.65 -31.65 2.55 -32.1 2.15 -51.25 -17.0 -86.45 -17.0 -83.2 -38.95 -114.25 -70.0 -82.1 -102.1 Q-81.25 -103.0 -80.0 -103.0 L-71.25 -103.0 -47.0 -127.25 -47.0 -115.5 -17.4 -134.5 0.0 -178.05 17.45 -134.5 47.0 -115.5 47.0 -127.25 71.25 -103.0 M65.1 -100.65 L53.0 -112.75 53.0 -97.0 31.25 -97.0 2.35 -68.1 2.15 -67.85 2.1 -67.8 1.8 -67.55 0.95 -67.15 0.5 -67.05 0.4 -67.0 0.0 -67.0 -0.05 -67.0 -0.4 -67.0 -1.15 -67.25 -1.4 -67.35 -1.5 -67.4 -1.85 -67.6 -31.25 -97.0 -53.0 -97.0 -53.0 -112.75 -65.1 -100.65 0.0 -63.45 65.1 -100.65 M44.25 -60.0 L70.0 -34.25 105.75 -70.0 80.0 -95.75 44.25 -60.0 M72.75 -97.0 L70.8 -97.0 11.3 -63.0 13.0 -63.0 13.0 -60.0 27.0 -60.0 27.0 -63.0 38.75 -63.0 72.75 -97.0 M47.0 -40.0 L47.0 -48.75 38.75 -57.0 29.6 -57.0 Q28.85 -54.75 27.05 -52.95 24.15 -50.0 20.0 -50.0 15.85 -50.0 12.9 -52.95 11.1 -54.75 10.45 -57.0 L-10.4 -57.0 Q-11.15 -54.75 -12.95 -52.95 -15.85 -50.0 -20.0 -50.0 -24.15 -50.0 -27.1 -52.95 -28.9 -54.75 -29.55 -57.0 L-38.75 -57.0 -47.0 -48.75 -47.0 -40.0 -47.0 -21.25 -29.4 -3.65 -10.7 -13.0 10.7 -13.0 29.4 -3.65 47.0 -21.25 47.0 -40.0 M-10.8 -40.0 L-10.0 -40.8 -9.55 -40.4 0.0 -30.85 9.6 -40.4 10.0 -40.8 10.85 -40.0 12.85 -38.0 0.0 -25.15 -12.8 -38.0 -10.8 -40.0 M13.0 -15.15 L9.15 -19.0 -9.15 -19.0 -13.0 -15.15 -15.8 -18.0 -10.8 -23.0 10.85 -23.0 15.85 -18.0 13.0 -15.15 M-38.75 -63.0 L-27.0 -63.0 -27.0 -60.0 -13.0 -60.0 -13.0 -63.0 -11.3 -63.0 -70.8 -97.0 -72.75 -97.0 -38.75 -63.0 M-47.0 -108.35 L-47.0 -103.0 -28.75 -103.0 -8.2 -82.45 -23.2 -120.0 -21.25 -124.9 -47.0 -108.35 M-44.25 -60.0 L-80.0 -95.75 -105.75 -70.0 -70.0 -34.25 -44.25 -60.0" fill="#000000" fill-rule="evenodd" stroke="none"/>
  </g>
</svg>
