<?xml version="1.0" encoding="UTF-8" standalone="no"?>
<svg xmlns:ffdec="https://www.free-decompiler.com/flash" xmlns:xlink="http://www.w3.org/1999/xlink" ffdec:objectType="shape" height="181.7px" width="194.6px" xmlns="http://www.w3.org/2000/svg">
  <g transform="matrix(1.0, 0.0, 0.0, 1.0, 91.4, 178.7)">
    <path d="M59.95 -100.7 L-21.3 -63.55 -60.05 -100.5 -54.9 -109.15 -54.9 -97.0 -41.6 -97.0 -24.5 -68.5 -24.45 -68.45 -24.25 -68.1 -24.1 -67.95 -23.6 -67.5 -23.0 -67.2 -22.4 -67.0 -21.8 -67.0 -21.5 -67.0 -21.35 -67.05 -21.3 -67.05 -21.2 -67.05 -20.75 -67.2 -20.4 -67.35 -20.3 -67.4 -19.85 -67.75 16.7 -97.0 43.6 -97.0 43.6 -113.75 59.95 -100.7 M69.95 -54.95 L69.9 -54.95 39.0 -35.15 38.7 -34.95 37.3 -34.05 19.85 -59.15 77.3 -95.9 94.7 -70.85 70.15 -55.1 69.95 -54.95 M75.5 -89.3 L31.5 -62.05 44.65 -43.4 88.65 -70.65 75.5 -89.3 M-5.85 -131.2 L-5.8 -131.15 -5.8 -131.05 -0.25 -120.0 -20.9 -78.7 -30.8 -120.0 -28.0 -131.7 -27.95 -131.8 -27.95 -131.85 -20.9 -161.3 -5.95 -131.45 -5.9 -131.35 -5.85 -131.2 M-49.4 -60.0 L-54.45 -51.55 -54.5 -51.45 -63.45 -36.6 -63.5 -36.5 -63.9 -35.85 -84.4 -70.0 -69.9 -94.15 -49.4 -60.0 M-69.9 -88.0 L-80.7 -70.0 -66.3 -46.0 -55.5 -64.0 -69.9 -88.0" fill="#dece5f" fill-rule="evenodd" stroke="none"/>
    <path d="M14.55 -103.0 L-13.1 -80.85 6.45 -120.0 3.65 -125.6 Q20.65 -116.9 37.6 -108.15 L37.6 -103.0 14.55 -103.0 M67.85 -97.0 L14.75 -63.0 -8.15 -63.0 66.25 -97.0 67.85 -97.0 M75.5 -89.3 L88.65 -70.65 44.65 -43.4 31.5 -62.05 75.5 -89.3 M-48.9 -108.8 L-36.45 -122.1 -36.95 -120.0 -29.4 -88.3 -38.2 -103.0 -48.9 -103.0 -48.9 -108.8 M-63.9 -95.85 L-29.4 -63.0 -44.2 -63.0 -63.9 -95.85 M-69.9 -88.0 L-55.5 -64.0 -66.3 -46.0 -80.7 -70.0 -69.9 -88.0" fill="#993300" fill-rule="evenodd" stroke="none"/>
    <path d="M14.55 -103.0 L37.6 -103.0 37.6 -108.15 Q20.65 -116.9 3.65 -125.6 L6.45 -120.0 -13.1 -80.85 14.55 -103.0 M37.6 -114.9 L37.6 -126.25 66.7 -103.0 78.1 -103.0 79.0 -102.85 80.25 -102.1 80.65 -101.6 103.2 -69.15 74.95 -51.05 82.5 -17.0 41.65 -17.0 17.6 2.25 17.55 2.3 17.5 2.35 16.15 2.95 15.95 3.0 15.6 3.0 -39.9 3.0 -40.4 2.95 -40.5 2.95 -41.2 2.7 -41.75 2.4 -41.75 2.35 -42.0 2.15 -42.2 1.95 -42.45 1.55 -42.6 1.35 -54.5 -18.5 -54.55 -18.55 -60.9 -29.15 -63.9 -24.15 -91.4 -70.0 -72.5 -101.45 -72.45 -101.55 -72.1 -102.05 -72.05 -102.05 -72.0 -102.1 -71.8 -102.3 -71.65 -102.4 Q-71.15 -102.8 -70.55 -102.9 L-70.25 -102.95 -70.0 -103.0 -65.6 -103.0 -50.1 -128.85 -48.9 -128.5 -48.9 -117.6 -33.6 -133.95 -22.9 -178.7 -0.9 -134.7 37.6 -114.9 M69.95 -54.95 L70.15 -55.1 94.7 -70.85 77.3 -95.9 19.85 -59.15 37.3 -34.05 38.7 -34.95 39.0 -35.15 69.9 -54.95 69.95 -54.95 M59.95 -100.7 L43.6 -113.75 43.6 -97.0 16.7 -97.0 -19.85 -67.75 -20.3 -67.4 -20.4 -67.35 -20.75 -67.2 -21.2 -67.05 -21.3 -67.05 -21.35 -67.05 -21.5 -67.0 -21.8 -67.0 -22.4 -67.0 -23.0 -67.2 -23.6 -67.5 -24.1 -67.95 -24.25 -68.1 -24.45 -68.45 -24.5 -68.5 -41.6 -97.0 -54.9 -97.0 -54.9 -109.15 -60.05 -100.5 -21.3 -63.55 59.95 -100.7 M67.85 -97.0 L66.25 -97.0 -8.15 -63.0 14.75 -63.0 67.85 -97.0 M25.85 -40.0 L14.05 -57.0 6.3 -57.0 Q5.7 -54.75 4.3 -52.95 1.95 -50.0 -1.4 -50.0 -4.7 -50.0 -7.0 -52.95 -8.5 -54.75 -9.05 -57.0 L-28.15 -57.0 Q-28.55 -54.75 -29.6 -52.95 -31.4 -50.0 -33.9 -50.0 -36.4 -50.0 -38.1 -52.95 -39.2 -54.75 -39.6 -57.0 L-44.2 -57.0 -48.9 -49.15 -48.9 -40.0 -48.9 -20.85 -39.1 -4.55 -28.95 -13.0 -8.8 -13.0 15.1 -3.4 37.6 -21.45 37.6 -27.15 35.65 -25.9 25.85 -40.0 M-28.45 -40.0 L-27.55 -40.55 -27.2 -40.75 -21.35 -31.0 -10.0 -40.5 -9.65 -40.8 -8.95 -40.0 -7.05 -37.75 -22.4 -24.95 -30.65 -38.65 -28.45 -40.0 M-48.9 -108.8 L-48.9 -103.0 -38.2 -103.0 -29.4 -88.3 -36.95 -120.0 -36.45 -122.1 -48.9 -108.8 M-5.85 -131.2 L-5.9 -131.35 -5.95 -131.45 -20.9 -161.3 -27.95 -131.85 -27.95 -131.8 -28.0 -131.7 -30.8 -120.0 -20.9 -78.7 -0.25 -120.0 -5.8 -131.05 -5.8 -131.15 -5.85 -131.2 M-49.4 -60.0 L-69.9 -94.15 -84.4 -70.0 -63.9 -35.85 -63.5 -36.5 -63.45 -36.6 -54.5 -51.45 -54.45 -51.55 -49.4 -60.0 M-63.9 -95.85 L-44.2 -63.0 -29.4 -63.0 -63.9 -95.85 M-29.0 -15.25 L-32.45 -17.3 -29.0 -23.0 -8.7 -23.0 -2.85 -18.3 -5.3 -15.2 -10.1 -19.0 -26.75 -19.0 -29.0 -15.25" fill="#000000" fill-rule="evenodd" stroke="none"/>
    <path d="M25.85 -40.0 L35.65 -25.9 37.6 -27.15 37.6 -21.45 15.1 -3.4 -8.8 -13.0 -28.95 -13.0 -39.1 -4.55 -48.9 -20.85 -48.9 -40.0 -28.45 -40.0 -30.65 -38.65 -22.4 -24.95 -7.05 -37.75 -8.95 -40.0 25.85 -40.0 M-27.55 -40.55 L-21.9 -50.0 -10.0 -40.5 -21.35 -31.0 -27.2 -40.75 -27.55 -40.55 M-29.0 -15.25 L-26.75 -19.0 -10.1 -19.0 -5.3 -15.2 -2.85 -18.3 -8.7 -23.0 -29.0 -23.0 -32.45 -17.3 -29.0 -15.25" fill="#e8c782" fill-rule="evenodd" stroke="none"/>
    <path d="M-48.9 -40.0 L-48.9 -49.15 -44.2 -57.0 -39.6 -57.0 Q-39.2 -54.75 -38.1 -52.95 -36.4 -50.0 -33.9 -50.0 -31.4 -50.0 -29.6 -52.95 -28.55 -54.75 -28.15 -57.0 L-9.05 -57.0 Q-8.5 -54.75 -7.0 -52.95 -4.7 -50.0 -1.4 -50.0 1.95 -50.0 4.3 -52.95 5.7 -54.75 6.3 -57.0 L14.05 -57.0 25.85 -40.0 -8.95 -40.0 -9.65 -40.8 -10.0 -40.5 -21.9 -50.0 -27.55 -40.55 -28.45 -40.0 -48.9 -40.0" fill="#ddac46" fill-rule="evenodd" stroke="none"/>
  </g>
</svg>
