<?xml version="1.0" encoding="UTF-8" standalone="no"?>
<svg xmlns:ffdec="https://www.free-decompiler.com/flash" xmlns:xlink="http://www.w3.org/1999/xlink" ffdec:objectType="shape" height="133.55px" width="81.55px" xmlns="http://www.w3.org/2000/svg">
  <g transform="matrix(1.0, 0.0, 0.0, 1.0, 39.35, 91.8)">
    <path d="M4.55 -76.15 Q7.3 -82.35 16.75 -87.7 21.5 -90.35 25.7 -91.8 23.3 -88.1 18.2 -75.45 14.3 -66.0 16.05 -58.75 17.75 -51.5 25.7 -44.1 46.0 -25.0 41.35 4.95 38.45 23.6 28.4 32.3 17.8 41.5 -2.95 41.75 -21.95 42.0 -30.6 30.05 -36.4 22.0 -39.0 4.7 -40.7 -6.75 -34.25 -19.65 -32.05 -24.1 -28.35 -29.65 L-22.7 -38.0 Q-18.65 -44.3 -18.45 -50.6 -18.35 -54.4 -19.3 -63.2 -19.7 -73.1 -8.4 -87.05 -11.2 -82.15 -4.95 -65.05 -3.05 -59.65 -0.4 -53.75 L1.85 -48.9 1.55 -58.8 Q1.8 -70.0 4.55 -76.15 M18.4 -84.7 Q10.15 -80.05 7.65 -74.75 5.2 -69.1 4.95 -58.9 L5.25 -48.95 Q5.25 -47.75 4.5 -46.8 3.75 -45.85 2.6 -45.55 1.4 -45.3 0.35 -45.85 -0.75 -46.4 -1.25 -47.45 L-3.5 -52.4 Q-6.2 -58.4 -8.15 -63.9 L-8.15 -63.85 Q-10.75 -70.95 -11.85 -76.15 -15.95 -69.05 -15.9 -63.4 -14.95 -54.45 -15.05 -50.5 -15.2 -43.3 -19.85 -36.1 L-19.85 -36.15 -25.5 -27.8 -25.5 -27.7 Q-29.1 -22.4 -31.2 -18.15 -37.1 -6.35 -35.6 4.15 L-35.6 4.2 Q-33.2 20.45 -27.8 28.05 -20.0 38.55 -3.0 38.35 16.3 38.1 26.2 29.75 35.3 21.6 38.0 4.45 42.35 -23.7 23.35 -41.65 14.55 -49.85 12.75 -57.95 L12.75 -58.0 Q10.7 -66.1 15.05 -76.75 L18.4 -84.7" fill="#ff0000" fill-opacity="0.49803922" fill-rule="evenodd" stroke="none"/>
    <path d="M18.4 -84.7 L15.05 -76.75 Q10.7 -66.1 12.75 -58.0 L12.75 -57.95 Q14.55 -49.85 23.35 -41.65 42.35 -23.7 38.0 4.45 35.3 21.6 26.2 29.75 16.3 38.1 -3.0 38.35 -20.0 38.55 -27.8 28.05 -33.2 20.45 -35.6 4.2 L-35.6 4.15 Q-37.1 -6.35 -31.2 -18.15 -29.1 -22.4 -25.5 -27.7 L-25.5 -27.8 -19.85 -36.15 -19.85 -36.1 Q-15.2 -43.3 -15.05 -50.5 -14.95 -54.45 -15.9 -63.4 -15.95 -69.05 -11.85 -76.15 -10.75 -70.95 -8.15 -63.85 L-8.15 -63.9 Q-6.2 -58.4 -3.5 -52.4 L-1.25 -47.45 Q-0.75 -46.4 0.35 -45.85 1.4 -45.3 2.6 -45.55 3.75 -45.85 4.5 -46.8 5.25 -47.75 5.25 -48.95 L4.95 -58.9 Q5.2 -69.1 7.65 -74.75 10.15 -80.05 18.4 -84.7" fill="#dd4800" fill-rule="evenodd" stroke="none"/>
    <path d="M8.85 -24.4 Q14.8 -18.8 12.15 8.85 7.95 20.15 2.45 21.5 -5.8 23.55 -10.05 20.05 -17.55 15.3 -14.15 1.95 -10.8 -11.35 -3.95 -20.7 2.95 -30.05 8.85 -24.4 M15.85 -4.3 Q14.2 3.3 12.25 8.65 L15.85 -4.3" fill="#ff9900" fill-rule="evenodd" stroke="none"/>
  </g>
</svg>
