<?xml version="1.0" encoding="UTF-8" standalone="no"?>
<svg xmlns:ffdec="https://www.free-decompiler.com/flash" xmlns:xlink="http://www.w3.org/1999/xlink" ffdec:objectType="shape" height="254.5px" width="266.1px" xmlns="http://www.w3.org/2000/svg">
  <g transform="matrix(1.0, 0.0, 0.0, 1.0, 133.05, 127.25)">
    <path d="M129.05 -86.3 L117.7 1.95 -1.15 -12.8 -117.7 1.95 -129.05 -86.3 129.05 -86.3 M92.35 33.15 L69.45 97.55 -2.95 123.25 -75.4 97.55 -90.6 39.3 -1.15 -12.8 92.35 33.15" fill="#5e5788" fill-rule="evenodd" stroke="none"/>
    <path d="M-129.05 -86.3 L-83.9 -117.55 81.95 -123.25 129.05 -86.3 -129.05 -86.3" fill="#696198" fill-rule="evenodd" stroke="none"/>
    <path d="M117.7 1.95 L92.35 33.15 -1.15 -12.8 -90.6 39.3 -117.7 1.95 -1.15 -12.8 117.7 1.95" fill="#373164" fill-rule="evenodd" stroke="none"/>
    <path d="M-129.05 -86.3 L-83.9 -117.55 81.95 -123.25 129.05 -86.3 117.7 1.95 92.35 33.15 69.45 97.55 -2.95 123.25 -75.4 97.55 -90.6 39.3 -117.7 1.95 -129.05 -86.3 Z" fill="none" stroke="#000000" stroke-linecap="square" stroke-linejoin="miter-clip" stroke-miterlimit="3.0" stroke-width="6.0"/>
    <path d="M5.15 78.15 Q7.25 80.25 7.25 83.25 7.25 86.2 5.15 88.3 3.05 90.4 0.0 90.4 -3.0 90.4 -5.1 88.3 -7.25 86.2 -7.2 83.25 -7.25 80.25 -5.1 78.15 -3.0 76.05 0.0 76.05 3.05 76.05 5.15 78.15" fill="#000000" fill-rule="evenodd" stroke="none"/>
    <path d="M74.65 -22.25 L72.7 -26.2 70.9 -29.75 M93.1 -32.95 L91.15 -36.85" fill="none" stroke="#000000" stroke-linecap="square" stroke-linejoin="miter-clip" stroke-miterlimit="3.0" stroke-width="4.0"/>
    <path d="M72.7 -26.2 L68.05 -23.55 M81.35 -31.2 L79.65 -34.6 M91.15 -36.85 L89.4 -40.4 M91.15 -36.85 L97.0 -40.25 M81.35 -31.2 L83.35 -27.1" fill="none" stroke="#000000" stroke-linecap="round" stroke-linejoin="miter-clip" stroke-miterlimit="3.0" stroke-width="4.0"/>
    <path d="M72.7 -26.2 L81.35 -31.2 91.15 -36.85" fill="none" stroke="#000000" stroke-linecap="round" stroke-linejoin="miter-clip" stroke-miterlimit="3.0" stroke-width="4.0"/>
  </g>
</svg>
