<?xml version="1.0" encoding="UTF-8" standalone="no"?>
<svg xmlns:ffdec="https://www.free-decompiler.com/flash" xmlns:xlink="http://www.w3.org/1999/xlink" ffdec:objectType="shape" height="191.5px" width="188.0px" xmlns="http://www.w3.org/2000/svg">
  <g transform="matrix(1.0, 0.0, 0.0, 1.0, 64.0, 187.5)">
    <path d="M18.15 -87.5 L20.0 -89.9 Q28.3 -99.95 40.0 -100.0 L45.0 -99.5 Q36.45 -97.75 30.0 -89.9 L28.15 -87.5 Q22.8 -79.85 21.9 -70.0 L11.9 -70.0 Q12.8 -79.85 18.15 -87.5 M63.1 -80.55 Q63.1 -77.65 61.35 -75.6 59.7 -73.5 57.3 -73.5 54.9 -73.5 53.2 -75.6 51.5 -77.65 51.5 -80.55 51.5 -83.45 53.2 -85.55 54.55 -87.15 56.3 -87.5 L57.3 -87.6 58.3 -87.5 Q60.05 -87.15 61.35 -85.55 63.1 -83.45 63.1 -80.55 M42.8 -87.6 L43.8 -87.5 Q45.55 -87.15 46.85 -85.55 48.6 -83.45 48.6 -80.55 48.6 -77.65 46.85 -75.6 45.15 -73.5 42.8 -73.5 40.4 -73.5 38.65 -75.6 37.0 -77.65 37.0 -80.55 37.0 -83.45 38.65 -85.55 40.0 -87.15 41.8 -87.5 L42.8 -87.6" fill="#000000" fill-rule="evenodd" stroke="none"/>
    <path d="M71.85 -87.5 L96.3 -87.5 120.0 -50.0 0.0 -50.0 -13.95 -87.5 18.15 -87.5 Q12.8 -79.85 11.9 -70.0 L21.9 -70.0 78.15 -70.0 Q77.2 -79.85 71.85 -87.5" fill="#7d77a8" fill-rule="evenodd" stroke="none"/>
    <path d="M71.85 -87.5 L70.05 -89.9 Q61.75 -99.95 50.0 -100.0 L45.0 -99.5 50.0 -100.0 Q61.75 -99.95 70.05 -89.9 L71.85 -87.5 Q77.2 -79.85 78.15 -70.0 L21.9 -70.0 Q22.8 -79.85 28.15 -87.5 L30.0 -89.9 Q36.45 -97.75 45.0 -99.5 L40.0 -100.0 Q28.3 -99.95 20.0 -89.9 L18.15 -87.5 -13.95 -87.5 -16.2 -152.65 96.3 -162.45 96.3 -87.5 71.85 -87.5 M42.8 -87.6 L41.8 -87.5 Q40.0 -87.15 38.65 -85.55 37.0 -83.45 37.0 -80.55 37.0 -77.65 38.65 -75.6 40.4 -73.5 42.8 -73.5 45.15 -73.5 46.85 -75.6 48.6 -77.65 48.6 -80.55 48.6 -83.45 46.85 -85.55 45.55 -87.15 43.8 -87.5 L42.8 -87.6 M63.1 -80.55 Q63.1 -83.45 61.35 -85.55 60.05 -87.15 58.3 -87.5 L57.3 -87.6 56.3 -87.5 Q54.55 -87.15 53.2 -85.55 51.5 -83.45 51.5 -80.55 51.5 -77.65 53.2 -75.6 54.9 -73.5 57.3 -73.5 59.7 -73.5 61.35 -75.6 63.1 -77.65 63.1 -80.55" fill="#574f86" fill-rule="evenodd" stroke="none"/>
    <path d="M0.0 -50.0 L120.0 -50.0 96.3 0.0 -16.2 0.0 0.0 -50.0" fill="#373164" fill-rule="evenodd" stroke="none"/>
    <path d="M-16.2 -152.65 L-13.95 -87.5 0.0 -50.0 -16.2 0.0 -60.0 0.0 -60.0 -140.0 -16.2 -152.65" fill="#29244a" fill-rule="evenodd" stroke="none"/>
    <path d="M96.3 -87.5 L96.3 -162.45 -16.2 -152.65 -13.95 -87.5 0.0 -50.0 -16.2 0.0 96.3 0.0 120.0 -50.0 96.3 -87.5 M-16.2 -152.65 L-60.0 -140.0 -60.0 0.0 -16.2 0.0" fill="none" stroke="#000000" stroke-linecap="square" stroke-linejoin="miter-clip" stroke-miterlimit="3.0" stroke-width="6.0"/>
    <path d="M71.85 -87.5 L96.3 -87.5 M-13.95 -87.5 L18.15 -87.5 M120.0 -50.0 L0.0 -50.0" fill="none" stroke="#000000" stroke-linecap="square" stroke-linejoin="miter-clip" stroke-miterlimit="3.0" stroke-width="4.0"/>
    <path d="M45.0 -99.5 L50.0 -100.0 Q61.75 -99.95 70.05 -89.9 L71.85 -87.5 M45.0 -99.5 Q36.45 -97.75 30.0 -89.9 L28.15 -87.5 Q22.8 -79.85 21.9 -70.0 L11.9 -70.0 Q12.8 -79.85 18.15 -87.5" fill="none" stroke="#000000" stroke-linecap="round" stroke-linejoin="miter-clip" stroke-miterlimit="3.0" stroke-width="4.0"/>
    <path d="M54.65 -175.0 L45.3 -162.5 82.8 -162.5 -29.7 -150.0 -10.95 -162.5 -20.35 -187.5 -1.6 -175.0 7.8 -187.5 26.55 -175.0 54.65 -175.0" fill="#000000" fill-rule="evenodd" stroke="none"/>
    <path d="M35.35 -25.0 Q37.25 -25.0 38.65 -23.15 40.05 -21.3 40.05 -18.75 40.05 -16.2 38.65 -14.35 37.25 -12.5 35.35 -12.5 33.4 -12.5 32.0 -14.35 30.65 -16.2 30.65 -18.75 30.65 -21.3 32.0 -23.15 33.4 -25.0 35.35 -25.0" fill="#000000" fill-rule="evenodd" stroke="none"/>
    <path d="M35.35 -25.0 Q37.25 -25.0 38.65 -23.15 40.05 -21.3 40.05 -18.75 40.05 -16.2 38.65 -14.35 37.25 -12.5 35.35 -12.5 33.4 -12.5 32.0 -14.35 30.65 -16.2 30.65 -18.75 30.65 -21.3 32.0 -23.15 33.4 -25.0 35.35 -25.0 Z" fill="none" stroke="#34314d" stroke-linecap="square" stroke-linejoin="miter-clip" stroke-miterlimit="3.0" stroke-width="4.0"/>
    <path d="M87.0 -118.1 Q86.95 -110.05 82.7 -104.35 78.4 -98.65 72.4 -98.65 66.35 -98.65 62.1 -104.35 57.8 -110.05 57.8 -118.1 57.8 -126.15 62.1 -131.85 66.35 -137.55 72.4 -137.55 78.4 -137.55 82.7 -131.85 86.95 -126.15 87.0 -118.1 M21.35 -118.1 Q21.35 -110.05 17.05 -104.35 12.8 -98.65 6.8 -98.65 0.75 -98.65 -3.55 -104.35 -7.8 -110.05 -7.8 -118.1 -7.8 -126.15 -3.55 -131.85 0.75 -137.55 6.8 -137.5 12.8 -137.55 17.05 -131.85 21.35 -126.15 21.35 -118.1 M79.45 -130.65 Q76.05 -135.2 71.2 -135.2 66.4 -135.2 62.95 -130.65 59.55 -126.05 59.55 -119.6 59.55 -113.2 62.95 -108.65 66.4 -104.1 71.2 -104.05 76.05 -104.1 79.45 -108.65 82.9 -113.2 82.9 -119.6 82.9 -126.05 79.45 -130.65 M17.3 -119.65 Q17.3 -126.1 13.85 -130.65 10.45 -135.2 5.65 -135.2 0.8 -135.2 -2.65 -130.65 -6.05 -126.1 -6.05 -119.65 -6.05 -113.2 -2.65 -108.65 0.8 -104.1 5.65 -104.1 10.45 -104.1 13.85 -108.65 17.3 -113.2 17.3 -119.65" fill="#000000" fill-rule="evenodd" stroke="none"/>
    <path d="M17.3 -119.65 Q17.3 -113.2 13.85 -108.65 10.45 -104.1 5.65 -104.1 0.8 -104.1 -2.65 -108.65 -6.05 -113.2 -6.05 -119.65 -6.05 -126.1 -2.65 -130.65 0.8 -135.2 5.65 -135.2 10.45 -135.2 13.85 -130.65 17.3 -126.1 17.3 -119.65 M79.45 -130.65 Q82.9 -126.05 82.9 -119.6 82.9 -113.2 79.45 -108.65 76.05 -104.1 71.2 -104.05 66.4 -104.1 62.95 -108.65 59.55 -113.2 59.55 -119.6 59.55 -126.05 62.95 -130.65 66.4 -135.2 71.2 -135.2 76.05 -135.2 79.45 -130.65" fill="#eeeeee" fill-rule="evenodd" stroke="none"/>
    <path d="M7.3 -127.0 Q8.15 -127.4 9.15 -127.4 11.6 -127.4 13.3 -125.15 15.0 -122.85 15.0 -119.6 15.0 -116.4 13.3 -114.1 11.6 -111.85 9.15 -111.85 6.75 -111.85 5.05 -114.1 3.3 -116.4 3.35 -119.6 3.35 -121.85 4.15 -123.65 L4.15 -123.5 Q4.15 -122.05 4.9 -121.0 5.7 -119.95 6.8 -119.95 7.9 -119.95 8.7 -121.0 9.45 -122.05 9.45 -123.5 9.45 -125.0 8.7 -126.05 8.1 -126.85 7.3 -127.0" fill="#000000" fill-rule="evenodd" stroke="none"/>
    <path d="M4.15 -123.65 Q4.2 -125.05 4.9 -126.05 5.7 -127.05 6.8 -127.05 L7.3 -127.0 Q8.1 -126.85 8.7 -126.05 9.45 -125.0 9.45 -123.5 9.45 -122.05 8.7 -121.0 7.9 -119.95 6.8 -119.95 5.7 -119.95 4.9 -121.0 4.15 -122.05 4.15 -123.5 L4.15 -123.65" fill="#eeeeee" fill-rule="evenodd" stroke="none"/>
    <path d="M72.95 -127.0 L74.8 -127.4 Q77.25 -127.4 78.95 -125.15 80.65 -122.85 80.65 -119.6 80.65 -116.4 78.95 -114.1 77.25 -111.85 74.8 -111.85 72.4 -111.85 70.7 -114.1 68.95 -116.4 69.0 -119.6 69.0 -121.85 69.8 -123.65 L69.8 -123.5 Q69.8 -122.05 70.55 -121.0 71.35 -119.95 72.45 -119.95 73.55 -119.95 74.35 -121.0 75.1 -122.05 75.1 -123.5 75.1 -125.0 74.35 -126.05 73.75 -126.85 72.95 -127.0" fill="#000000" fill-rule="evenodd" stroke="none"/>
    <path d="M69.8 -123.65 Q69.85 -125.05 70.55 -126.05 71.35 -127.05 72.45 -127.05 L72.95 -127.0 Q73.75 -126.85 74.35 -126.05 75.1 -125.0 75.1 -123.5 75.1 -122.05 74.35 -121.0 73.55 -119.95 72.45 -119.95 71.35 -119.95 70.55 -121.0 69.8 -122.05 69.8 -123.5 L69.8 -123.65" fill="#eeeeee" fill-rule="evenodd" stroke="none"/>
    <path d="M26.4 -122.9 L-11.1 -139.0 -7.55 -160.25 29.95 -144.15 26.4 -122.9" fill="#000000" fill-rule="evenodd" stroke="none"/>
    <path d="M91.95 -160.25 L95.5 -139.0 58.0 -122.9 54.45 -144.15 91.95 -160.25" fill="#000000" fill-rule="evenodd" stroke="none"/>
  </g>
</svg>
