<?xml version="1.0" encoding="UTF-8" standalone="no"?>
<svg xmlns:ffdec="https://www.free-decompiler.com/flash" xmlns:xlink="http://www.w3.org/1999/xlink" ffdec:objectType="shape" height="121.1px" width="82.95px" xmlns="http://www.w3.org/2000/svg">
  <g transform="matrix(1.0, 0.0, 0.0, 1.0, 39.95, 79.85)">
    <path d="M18.9 -78.2 L22.45 -72.7 Q24.45 -68.95 25.4 -65.4 L26.25 -61.1 27.5 -54.8 29.35 -45.55 29.7 -43.45 Q30.4 -39.3 31.35 -35.65 32.8 -29.3 33.8 -26.35 L34.1 -25.5 Q37.9 -17.25 41.55 -4.95 L41.65 -4.8 Q44.3 4.55 41.75 13.55 40.75 16.95 39.1 20.1 36.45 24.85 32.25 28.9 25.95 35.0 17.15 38.3 L15.95 38.7 Q5.95 42.1 -4.15 40.95 L-11.2 39.7 Q-23.9 37.05 -31.2 29.7 L-31.95 28.9 Q-38.7 21.6 -39.85 6.8 -40.35 0.9 -37.65 -3.2 -35.7 -6.15 -31.35 -8.85 L-25.1 -12.95 Q-21.55 -15.95 -21.5 -19.25 -21.3 -23.5 -21.4 -26.55 L-21.6 -30.75 -21.9 -35.1 -21.9 -41.75 Q-21.9 -44.85 -21.5 -47.2 -21.3 -48.95 -20.75 -50.3 L-19.75 -52.1 -18.65 -53.75 Q-15.15 -58.75 -7.5 -61.5 L-6.5 -61.9 Q-3.2 -63.25 -0.15 -63.7 -0.05 -62.95 -0.7 -61.75 -2.95 -60.1 -4.85 -55.35 L-4.95 -55.05 Q-6.05 -52.6 -3.95 -49.05 L-2.35 -47.15 Q-1.1 -45.7 0.75 -44.4 L2.25 -43.45 Q3.8 -43.4 6.3 -44.55 L7.45 -45.2 Q12.15 -48.0 16.35 -54.7 17.4 -56.45 18.0 -58.75 L18.75 -62.1 19.5 -64.95 19.6 -65.7 Q20.05 -68.05 19.25 -71.4 16.9 -78.95 16.65 -78.9 L16.7 -79.55 16.75 -79.7 16.9 -79.8 17.0 -79.85 17.15 -79.8 18.9 -78.2 M22.5 -62.6 L22.45 -62.9 22.4 -62.8 22.1 -61.5 22.05 -61.4 21.3 -57.95 Q20.6 -55.05 19.25 -52.9 14.5 -45.4 9.2 -42.3 L9.15 -42.3 7.9 -41.55 7.8 -41.5 Q4.35 -39.85 2.1 -40.05 1.2 -40.1 0.45 -40.55 L-1.15 -41.6 Q-3.3 -43.1 -4.85 -44.8 L-6.85 -47.25 -6.9 -47.3 Q-10.0 -52.5 -8.15 -56.25 L-8.0 -56.6 -7.5 -57.85 Q-13.1 -55.6 -15.85 -51.8 L-16.05 -51.6 -16.7 -50.55 -17.0 -50.05 -17.55 -49.05 -17.55 -49.0 -18.1 -46.8 -18.1 -46.65 Q-18.5 -44.5 -18.5 -41.7 L-18.5 -35.15 -18.25 -31.05 -18.25 -31.0 -17.95 -26.7 Q-17.85 -23.5 -18.05 -19.1 -18.05 -14.45 -22.9 -10.35 L-23.1 -10.2 -29.55 -5.95 Q-33.15 -3.7 -34.8 -1.3 -36.9 1.9 -36.45 6.5 -35.45 19.9 -29.45 26.55 L-29.45 26.6 -28.7 27.4 -28.75 27.3 Q-22.1 33.95 -10.5 36.35 L-10.4 36.35 -3.8 37.55 -3.75 37.55 Q5.6 38.6 14.9 35.45 L16.0 35.05 Q24.1 32.05 29.85 26.5 L29.9 26.45 Q33.7 22.8 36.1 18.5 L36.1 18.45 Q37.6 15.65 38.5 12.6 40.7 4.7 38.45 -3.5 L38.3 -3.95 Q34.7 -16.0 31.0 -24.05 L30.95 -24.15 30.55 -25.25 Q29.55 -28.35 28.05 -34.9 27.05 -38.65 26.35 -42.9 L26.35 -42.85 25.95 -44.95 25.95 -45.0 24.2 -54.05 24.2 -54.1 22.9 -60.45 22.5 -62.6" fill="#ff0000" fill-opacity="0.49803922" fill-rule="evenodd" stroke="none"/>
    <path d="M22.5 -62.6 L22.9 -60.45 24.2 -54.1 24.2 -54.05 25.95 -45.0 25.95 -44.95 26.35 -42.85 26.35 -42.9 Q27.05 -38.65 28.05 -34.9 29.55 -28.35 30.55 -25.25 L30.95 -24.15 31.0 -24.05 Q34.7 -16.0 38.3 -3.95 L38.45 -3.5 Q40.7 4.7 38.5 12.6 37.6 15.65 36.1 18.45 L36.1 18.5 Q33.7 22.8 29.9 26.45 L29.85 26.5 Q24.1 32.05 16.0 35.05 L14.9 35.45 Q5.6 38.6 -3.75 37.55 L-3.8 37.55 -10.4 36.35 -10.5 36.35 Q-22.1 33.95 -28.75 27.3 L-28.7 27.4 -29.45 26.6 -29.45 26.55 Q-35.45 19.9 -36.45 6.5 -36.9 1.9 -34.8 -1.3 -33.15 -3.7 -29.55 -5.95 L-23.1 -10.2 -22.9 -10.35 Q-18.05 -14.45 -18.05 -19.1 -17.85 -23.5 -17.95 -26.7 L-18.25 -31.0 -18.25 -31.05 -18.5 -35.15 -18.5 -41.7 Q-18.5 -44.5 -18.1 -46.65 L-18.1 -46.8 -17.55 -49.0 -17.55 -49.05 -17.0 -50.05 -16.7 -50.55 -16.05 -51.6 -15.85 -51.8 Q-13.1 -55.6 -7.5 -57.85 L-8.0 -56.6 -8.15 -56.25 Q-10.0 -52.5 -6.9 -47.3 L-6.85 -47.25 -4.85 -44.8 Q-3.3 -43.1 -1.15 -41.6 L0.45 -40.55 Q1.2 -40.1 2.1 -40.05 4.35 -39.85 7.8 -41.5 L7.9 -41.55 9.15 -42.3 9.2 -42.3 Q14.5 -45.4 19.25 -52.9 20.6 -55.05 21.3 -57.95 L22.05 -61.4 22.1 -61.5 22.4 -62.8 22.45 -62.9 22.5 -62.6" fill="#dd4800" fill-rule="evenodd" stroke="none"/>
    <path d="M-1.7 -14.55 Q3.55 -20.65 9.65 -19.05 15.7 -17.45 17.05 10.05 11.55 23.7 2.9 23.65 -5.8 23.55 -4.6 17.35 -9.4 6.65 -8.2 -0.9 -7.0 -8.5 -1.7 -14.55" fill="#ff9900" fill-rule="evenodd" stroke="none"/>
  </g>
</svg>
