<?xml version="1.0" encoding="UTF-8" standalone="no"?>
<svg xmlns:ffdec="https://www.free-decompiler.com/flash" xmlns:xlink="http://www.w3.org/1999/xlink" ffdec:objectType="shape" height="188.8px" width="188.0px" xmlns="http://www.w3.org/2000/svg">
  <g transform="matrix(1.0, 0.0, 0.0, 1.0, 124.0, 184.8)">
    <path d="M-96.25 -87.5 L-96.25 -162.45 16.25 -152.65 13.95 -87.5 -18.1 -87.5 -19.95 -89.9 Q-28.3 -99.95 -40.0 -100.0 L-45.0 -99.5 Q-36.45 -97.75 -29.95 -89.9 L-28.1 -87.5 Q-22.8 -79.85 -21.85 -70.0 L-78.1 -70.0 Q-77.2 -79.85 -71.85 -87.5 L-70.0 -89.9 Q-61.75 -99.95 -50.0 -100.0 L-45.0 -99.5 -50.0 -100.0 Q-61.75 -99.95 -70.0 -89.9 L-71.85 -87.5 -96.25 -87.5 M-38.65 -85.55 Q-40.0 -87.15 -41.75 -87.5 L-42.75 -87.6 -43.8 -87.5 Q-45.55 -87.15 -46.85 -85.55 -48.6 -83.45 -48.6 -80.55 -48.6 -77.65 -46.85 -75.6 -45.15 -73.5 -42.75 -73.5 -40.4 -73.5 -38.65 -75.6 -37.0 -77.65 -37.0 -80.55 -37.0 -83.45 -38.65 -85.55 M-57.3 -87.6 L-58.25 -87.5 Q-60.05 -87.15 -61.35 -85.55 -63.1 -83.45 -63.1 -80.55 -63.1 -77.65 -61.35 -75.6 -59.7 -73.5 -57.3 -73.5 -54.9 -73.5 -53.15 -75.6 -51.5 -77.65 -51.5 -80.55 -51.5 -83.45 -53.15 -85.55 -54.55 -87.15 -56.25 -87.5 L-57.3 -87.6" fill="#574f86" fill-rule="evenodd" stroke="none"/>
    <path d="M16.25 -152.65 L60.0 -140.0 60.0 0.0 16.25 0.0 0.0 -50.0 13.95 -87.5 16.25 -152.65" fill="#29244a" fill-rule="evenodd" stroke="none"/>
    <path d="M-120.0 -50.0 L-96.25 -87.5 -71.85 -87.5 Q-77.2 -79.85 -78.1 -70.0 L-21.85 -70.0 -11.85 -70.0 Q-12.8 -79.85 -18.1 -87.5 L13.95 -87.5 0.0 -50.0 -120.0 -50.0" fill="#7d77a8" fill-rule="evenodd" stroke="none"/>
    <path d="M-45.0 -99.5 L-40.0 -100.0 Q-28.3 -99.95 -19.95 -89.9 L-18.1 -87.5 Q-12.8 -79.85 -11.85 -70.0 L-21.85 -70.0 Q-22.8 -79.85 -28.1 -87.5 L-29.95 -89.9 Q-36.45 -97.75 -45.0 -99.5 M-57.3 -87.6 L-56.25 -87.5 Q-54.55 -87.15 -53.15 -85.55 -51.5 -83.45 -51.5 -80.55 -51.5 -77.65 -53.15 -75.6 -54.9 -73.5 -57.3 -73.5 -59.7 -73.5 -61.35 -75.6 -63.1 -77.65 -63.1 -80.55 -63.1 -83.45 -61.35 -85.55 -60.05 -87.15 -58.25 -87.5 L-57.3 -87.6 M-38.65 -85.55 Q-37.0 -83.45 -37.0 -80.55 -37.0 -77.65 -38.65 -75.6 -40.4 -73.5 -42.75 -73.5 -45.15 -73.5 -46.85 -75.6 -48.6 -77.65 -48.6 -80.55 -48.6 -83.45 -46.85 -85.55 -45.55 -87.15 -43.8 -87.5 L-42.75 -87.6 -41.75 -87.5 Q-40.0 -87.15 -38.65 -85.55" fill="#000000" fill-rule="evenodd" stroke="none"/>
    <path d="M16.25 0.0 L-96.25 0.0 -120.0 -50.0 0.0 -50.0 16.25 0.0" fill="#373164" fill-rule="evenodd" stroke="none"/>
    <path d="M16.25 -152.65 L60.0 -140.0 60.0 0.0 16.25 0.0 -96.25 0.0 -120.0 -50.0 -96.25 -87.5 -96.25 -162.45 16.25 -152.65 13.95 -87.5 0.0 -50.0 16.25 0.0" fill="none" stroke="#000000" stroke-linecap="square" stroke-linejoin="miter-clip" stroke-miterlimit="3.0" stroke-width="6.0"/>
    <path d="M-45.0 -99.5 Q-36.45 -97.75 -29.95 -89.9 L-28.1 -87.5 Q-22.8 -79.85 -21.85 -70.0 L-11.85 -70.0 Q-12.8 -79.85 -18.1 -87.5 M-45.0 -99.5 L-50.0 -100.0 Q-61.75 -99.95 -70.0 -89.9 L-71.85 -87.5" fill="none" stroke="#000000" stroke-linecap="round" stroke-linejoin="miter-clip" stroke-miterlimit="3.0" stroke-width="4.0"/>
    <path d="M-18.1 -87.5 L13.95 -87.5 M-96.25 -87.5 L-71.85 -87.5 M0.0 -50.0 L-120.0 -50.0" fill="none" stroke="#000000" stroke-linecap="square" stroke-linejoin="miter-clip" stroke-miterlimit="3.0" stroke-width="4.0"/>
    <path d="M21.85 -172.3 L12.5 -159.8 43.5 -147.3 -56.5 -157.3 -43.75 -159.8 -53.15 -184.8 -34.4 -172.3 -25.0 -184.8 -6.25 -172.3 21.85 -172.3" fill="#000000" fill-rule="evenodd" stroke="none"/>
    <path d="M-59.0 -14.35 Q-60.4 -12.5 -62.35 -12.5 -64.25 -12.5 -65.6 -14.35 -67.05 -16.2 -67.0 -18.75 -67.05 -21.3 -65.6 -23.15 -64.25 -25.0 -62.35 -25.0 -60.4 -25.0 -59.0 -23.15 -57.65 -21.3 -57.65 -18.75 -57.65 -16.2 -59.0 -14.35" fill="#000000" fill-rule="evenodd" stroke="none"/>
    <path d="M-59.0 -14.35 Q-57.65 -16.2 -57.65 -18.75 -57.65 -21.3 -59.0 -23.15 -60.4 -25.0 -62.35 -25.0 -64.25 -25.0 -65.6 -23.15 -67.05 -21.3 -67.0 -18.75 -67.05 -16.2 -65.6 -14.35 -64.25 -12.5 -62.35 -12.5 -60.4 -12.5 -59.0 -14.35 Z" fill="none" stroke="#34314d" stroke-linecap="square" stroke-linejoin="miter-clip" stroke-miterlimit="3.0" stroke-width="4.0"/>
    <path d="M3.55 -131.85 Q7.8 -126.15 7.8 -118.1 7.8 -110.05 3.55 -104.35 -0.75 -98.65 -6.75 -98.65 -12.8 -98.65 -17.05 -104.35 -21.35 -110.05 -21.35 -118.1 -21.35 -126.15 -17.05 -131.85 -12.8 -137.55 -6.75 -137.5 -0.75 -137.55 3.55 -131.85 M2.65 -130.65 Q-0.8 -135.2 -5.6 -135.2 -10.45 -135.2 -13.85 -130.65 -17.3 -126.1 -17.25 -119.65 -17.3 -113.2 -13.85 -108.65 -10.45 -104.1 -5.6 -104.1 -0.8 -104.1 2.65 -108.65 6.05 -113.2 6.05 -119.65 6.05 -126.1 2.65 -130.65 M-72.35 -137.55 Q-66.35 -137.55 -62.05 -131.85 -57.8 -126.15 -57.8 -118.1 -57.8 -110.05 -62.05 -104.35 -66.35 -98.65 -72.35 -98.65 -78.4 -98.65 -82.65 -104.35 -86.95 -110.05 -86.95 -118.1 -86.95 -126.15 -82.65 -131.85 -78.4 -137.55 -72.35 -137.55 M-79.45 -130.65 Q-82.9 -126.05 -82.85 -119.6 -82.9 -113.2 -79.45 -108.65 -76.05 -104.1 -71.2 -104.05 -66.35 -104.1 -62.95 -108.65 -59.55 -113.2 -59.55 -119.6 -59.55 -126.05 -62.95 -130.65 -66.35 -135.2 -71.2 -135.2 -76.05 -135.2 -79.45 -130.65" fill="#000000" fill-rule="evenodd" stroke="none"/>
    <path d="M2.65 -130.65 Q6.05 -126.1 6.05 -119.65 6.05 -113.2 2.65 -108.65 -0.8 -104.1 -5.6 -104.1 -10.45 -104.1 -13.85 -108.65 -17.3 -113.2 -17.25 -119.65 -17.3 -126.1 -13.85 -130.65 -10.45 -135.2 -5.6 -135.2 -0.8 -135.2 2.65 -130.65 M-79.45 -130.65 Q-76.05 -135.2 -71.2 -135.2 -66.35 -135.2 -62.95 -130.65 -59.55 -126.05 -59.55 -119.6 -59.55 -113.2 -62.95 -108.65 -66.35 -104.1 -71.2 -104.05 -76.05 -104.1 -79.45 -108.65 -82.9 -113.2 -82.85 -119.6 -82.9 -126.05 -79.45 -130.65" fill="#eeeeee" fill-rule="evenodd" stroke="none"/>
    <path d="M-4.15 -123.65 Q-3.35 -121.85 -3.3 -119.6 -3.3 -116.4 -5.0 -114.1 -6.75 -111.85 -9.15 -111.85 -11.6 -111.85 -13.3 -114.1 -15.0 -116.4 -15.0 -119.6 -15.0 -122.85 -13.3 -125.15 -11.6 -127.4 -9.15 -127.4 L-7.25 -127.0 Q-8.1 -126.85 -8.65 -126.05 -9.45 -125.0 -9.45 -123.5 -9.45 -122.05 -8.65 -121.0 -7.9 -119.95 -6.8 -119.95 -5.7 -119.95 -4.9 -121.0 -4.15 -122.05 -4.15 -123.5 L-4.15 -123.65" fill="#000000" fill-rule="evenodd" stroke="none"/>
    <path d="M-4.15 -123.65 L-4.15 -123.5 Q-4.15 -122.05 -4.9 -121.0 -5.7 -119.95 -6.8 -119.95 -7.9 -119.95 -8.65 -121.0 -9.45 -122.05 -9.45 -123.5 -9.45 -125.0 -8.65 -126.05 -8.1 -126.85 -7.25 -127.0 L-6.8 -127.05 Q-5.7 -127.05 -4.9 -126.05 -4.2 -125.05 -4.15 -123.65" fill="#eeeeee" fill-rule="evenodd" stroke="none"/>
    <path d="M-69.8 -123.65 Q-69.0 -121.85 -68.95 -119.6 -68.95 -116.4 -70.65 -114.1 -72.4 -111.85 -74.8 -111.85 -77.25 -111.85 -78.95 -114.1 -80.65 -116.4 -80.65 -119.6 -80.65 -122.85 -78.95 -125.15 -77.25 -127.4 -74.8 -127.4 L-72.9 -127.0 Q-73.75 -126.85 -74.3 -126.05 -75.1 -125.0 -75.1 -123.5 -75.1 -122.05 -74.3 -121.0 -73.55 -119.95 -72.45 -119.95 -71.35 -119.95 -70.55 -121.0 -69.8 -122.05 -69.8 -123.5 L-69.8 -123.65" fill="#000000" fill-rule="evenodd" stroke="none"/>
    <path d="M-69.8 -123.65 L-69.8 -123.5 Q-69.8 -122.05 -70.55 -121.0 -71.35 -119.95 -72.45 -119.95 -73.55 -119.95 -74.3 -121.0 -75.1 -122.05 -75.1 -123.5 -75.1 -125.0 -74.3 -126.05 -73.75 -126.85 -72.9 -127.0 L-72.45 -127.05 Q-71.35 -127.05 -70.55 -126.05 -69.85 -125.05 -69.8 -123.65" fill="#eeeeee" fill-rule="evenodd" stroke="none"/>
    <path d="M-58.4 -122.9 L-95.9 -139.0 -92.35 -160.25 -54.85 -144.15 -58.4 -122.9" fill="#000000" fill-rule="evenodd" stroke="none"/>
    <path d="M7.15 -160.25 L10.7 -139.0 -26.8 -122.9 -30.35 -144.15 7.15 -160.25" fill="#000000" fill-rule="evenodd" stroke="none"/>
  </g>
</svg>
