<?xml version="1.0" encoding="UTF-8" standalone="no"?>
<svg xmlns:ffdec="https://www.free-decompiler.com/flash" xmlns:xlink="http://www.w3.org/1999/xlink" ffdec:objectType="shape" height="125.45px" width="83.7px" xmlns="http://www.w3.org/2000/svg">
  <g transform="matrix(1.0, 0.0, 0.0, 1.0, 40.05, 83.65)">
    <path d="M17.45 -82.3 L17.5 -82.3 Q24.45 -76.25 26.45 -70.0 27.85 -65.6 29.75 -47.5 31.3 -33.2 32.75 -29.1 36.45 -21.15 41.35 -8.7 44.9 0.35 43.0 9.95 41.15 18.95 34.8 26.55 28.45 34.0 19.3 38.1 9.65 42.35 -0.9 41.75 -21.2 40.55 -30.05 32.2 -37.15 25.5 -39.75 10.4 -40.8 4.3 -38.05 0.3 -36.1 -2.5 -31.35 -5.05 L-24.35 -9.15 Q-21.2 -11.7 -21.65 -15.3 -23.3 -28.65 -23.4 -31.25 -23.75 -40.25 -21.35 -48.9 -19.05 -57.2 -9.05 -64.45 -4.1 -68.05 0.45 -70.0 -3.25 -66.95 -6.35 -57.05 -8.3 -50.9 -4.1 -43.45 -2.8 -41.15 -1.05 -39.0 L0.45 -37.3 Q2.1 -36.85 4.8 -37.95 10.15 -40.05 15.45 -47.5 18.3 -51.5 18.0 -59.2 17.75 -64.25 15.95 -72.55 14.2 -80.65 14.25 -82.1 L14.25 -82.2 14.45 -83.3 Q14.65 -83.65 15.05 -83.65 L15.5 -83.6 17.45 -82.3 M19.3 -73.3 Q21.15 -64.6 21.4 -59.3 21.75 -50.2 18.25 -45.55 12.2 -37.1 6.05 -34.8 2.05 -33.2 -0.4 -34.0 -1.4 -34.3 -2.1 -35.05 L-3.6 -36.75 -3.65 -36.85 Q-5.65 -39.25 -7.1 -41.8 L-7.05 -41.8 Q-12.1 -50.7 -9.6 -58.1 L-8.9 -60.25 Q-16.15 -54.5 -18.05 -47.95 -20.35 -39.85 -20.0 -31.35 -19.9 -28.8 -18.25 -15.7 -17.55 -10.3 -22.2 -6.5 -23.25 -5.65 -29.75 -2.1 -33.6 0.0 -35.25 2.25 -37.2 5.25 -36.4 9.85 -34.05 23.55 -27.7 29.75 -19.45 37.25 -0.7 38.35 9.05 38.9 17.95 35.0 26.35 31.2 32.2 24.35 37.95 17.45 39.65 9.25 41.4 0.65 38.2 -7.45 33.3 -19.75 29.65 -27.7 L29.55 -28.0 Q27.95 -32.25 26.4 -47.15 24.5 -64.7 23.2 -69.0 L23.25 -69.0 Q21.95 -72.75 18.65 -76.4 L19.3 -73.3" fill="#ff0000" fill-opacity="0.49803922" fill-rule="evenodd" stroke="none"/>
    <path d="M19.3 -73.3 L18.65 -76.4 Q21.95 -72.75 23.25 -69.0 L23.2 -69.0 Q24.5 -64.7 26.4 -47.15 27.95 -32.25 29.55 -28.0 L29.65 -27.7 Q33.3 -19.75 38.2 -7.45 41.4 0.65 39.65 9.25 37.95 17.45 32.2 24.35 26.35 31.2 17.95 35.0 9.05 38.9 -0.7 38.35 -19.45 37.25 -27.7 29.75 -34.05 23.55 -36.4 9.85 -37.2 5.25 -35.25 2.25 -33.6 0.0 -29.75 -2.1 -23.25 -5.65 -22.2 -6.5 -17.55 -10.3 -18.25 -15.7 -19.9 -28.8 -20.0 -31.35 -20.35 -39.85 -18.05 -47.95 -16.15 -54.5 -8.9 -60.25 L-9.6 -58.1 Q-12.1 -50.7 -7.05 -41.8 L-7.1 -41.8 Q-5.65 -39.25 -3.65 -36.85 L-3.6 -36.75 -2.1 -35.05 Q-1.4 -34.3 -0.4 -34.0 2.05 -33.2 6.05 -34.8 12.2 -37.1 18.25 -45.55 21.75 -50.2 21.4 -59.3 21.15 -64.6 19.3 -73.3" fill="#dd4800" fill-rule="evenodd" stroke="none"/>
    <path d="M-5.8 -8.4 Q-3.45 -10.15 6.15 -13.8 15.7 -17.45 21.1 11.4 11.55 23.7 2.9 23.65 -5.8 23.55 -4.6 17.35 -9.4 6.65 -8.8 0.0 -8.2 -6.7 -5.8 -8.4" fill="#ff9900" fill-rule="evenodd" stroke="none"/>
  </g>
</svg>
