<?xml version="1.0" encoding="UTF-8" standalone="no"?>
<svg xmlns:ffdec="https://www.free-decompiler.com/flash" xmlns:xlink="http://www.w3.org/1999/xlink" ffdec:objectType="shape" height="125.9px" width="83.0px" xmlns="http://www.w3.org/2000/svg">
  <g transform="matrix(1.0, 0.0, 0.0, 1.0, 38.25, 83.65)">
    <path d="M21.0 -73.6 Q12.95 -69.6 10.55 -62.2 9.25 -58.15 8.85 -53.75 L8.85 -53.85 8.3 -46.65 Q7.8 -42.4 6.35 -39.7 L6.35 -39.65 Q4.55 -36.2 0.4 -33.2 L0.45 -33.2 -4.85 -29.15 -5.4 -28.75 -14.75 -22.85 Q-27.25 -14.95 -31.5 -9.7 L-31.55 -9.7 Q-36.7 -3.25 -33.8 4.45 L-33.75 4.7 Q-31.6 11.9 -25.55 19.7 -13.35 35.35 6.45 38.4 17.25 40.05 25.6 35.4 33.05 31.2 37.3 22.8 41.35 14.6 41.35 4.95 41.3 -4.75 37.0 -12.5 33.1 -19.6 29.05 -24.4 27.15 -26.65 23.3 -30.3 L23.25 -30.3 Q19.9 -33.5 18.85 -35.9 17.35 -39.1 17.5 -44.9 17.8 -57.2 23.2 -74.55 L21.0 -73.55 21.0 -73.6 M7.3 -63.2 Q10.05 -71.95 19.5 -76.65 24.2 -78.95 28.4 -79.55 21.3 -58.8 20.9 -44.8 20.75 -39.95 21.95 -37.35 22.85 -35.4 25.6 -32.75 L31.65 -26.6 Q35.9 -21.55 40.0 -14.15 44.65 -5.65 44.75 4.95 44.75 15.4 40.35 24.3 35.65 33.7 27.25 38.4 17.95 43.6 5.9 41.75 -15.2 38.55 -28.25 21.8 -34.75 13.4 -37.0 5.65 -40.55 -3.9 -34.2 -11.8 -29.75 -17.4 -16.55 -25.7 L-7.25 -31.6 -1.6 -35.95 Q1.85 -38.45 3.35 -41.25 4.5 -43.5 4.9 -47.0 L5.45 -54.05 Q5.9 -58.85 7.3 -63.2 M-10.3 -71.05 Q-13.25 -58.85 -18.95 -53.3 -22.05 -49.7 -17.95 -43.9 -16.35 -41.6 -13.9 -39.25 L-13.45 -38.8 Q-9.1 -42.0 -7.1 -48.05 -4.8 -55.15 -6.85 -61.45 L-10.3 -71.05 M-11.8 -83.65 Q-6.65 -71.7 -3.6 -62.5 -1.2 -55.2 -3.85 -47.0 -6.75 -38.25 -13.85 -34.55 L-16.2 -36.7 Q-18.95 -39.3 -20.75 -41.95 -26.65 -50.4 -21.35 -55.7 -16.05 -61.05 -13.4 -72.9 -12.1 -78.8 -11.8 -83.65" fill="#ff0000" fill-opacity="0.49803922" fill-rule="evenodd" stroke="none"/>
    <path d="M21.0 -73.6 L21.0 -73.55 23.2 -74.55 Q17.8 -57.2 17.5 -44.9 17.35 -39.1 18.85 -35.9 19.9 -33.5 23.25 -30.3 L23.3 -30.3 Q27.15 -26.65 29.05 -24.4 33.1 -19.6 37.0 -12.5 41.3 -4.75 41.35 4.95 41.35 14.6 37.3 22.8 33.05 31.2 25.6 35.4 17.25 40.05 6.45 38.4 -13.35 35.35 -25.55 19.7 -31.6 11.9 -33.75 4.7 L-33.8 4.45 Q-36.7 -3.25 -31.55 -9.7 L-31.5 -9.7 Q-27.25 -14.95 -14.75 -22.85 L-5.4 -28.75 -4.85 -29.15 0.45 -33.2 0.4 -33.2 Q4.55 -36.2 6.35 -39.65 L6.35 -39.7 Q7.8 -42.4 8.3 -46.65 L8.85 -53.85 8.85 -53.75 Q9.25 -58.15 10.55 -62.2 12.95 -69.6 21.0 -73.6 M-10.3 -71.05 L-6.85 -61.45 Q-4.8 -55.15 -7.1 -48.05 -9.1 -42.0 -13.45 -38.8 L-13.9 -39.25 Q-16.35 -41.6 -17.95 -43.9 -22.05 -49.7 -18.95 -53.3 -13.25 -58.85 -10.3 -71.05" fill="#dd4800" fill-rule="evenodd" stroke="none"/>
    <path d="M17.2 -13.05 L17.3 -11.85 Q16.45 -12.5 17.2 -13.05 M5.6 20.25 Q-3.5 20.65 -8.0 5.75 -5.35 -4.0 6.75 -10.7 24.75 -0.15 21.1 11.4 14.7 19.8 5.6 20.25" fill="#ff9900" fill-rule="evenodd" stroke="none"/>
  </g>
</svg>
