<?xml version="1.0" encoding="UTF-8" standalone="no"?>
<svg xmlns:ffdec="https://www.free-decompiler.com/flash" xmlns:xlink="http://www.w3.org/1999/xlink" ffdec:objectType="shape" height="128.05px" width="79.7px" xmlns="http://www.w3.org/2000/svg">
  <g transform="matrix(1.0, 0.0, 0.0, 1.0, 34.75, 86.05)">
    <path d="M15.7 -81.45 L18.95 -74.05 19.6 -72.4 Q22.75 -63.9 22.9 -55.65 L23.0 -51.55 Q23.0 -49.35 23.15 -47.3 23.3 -45.05 23.7 -43.55 L24.3 -41.75 Q24.95 -40.15 26.4 -38.1 L32.1 -30.85 33.75 -28.75 Q37.75 -23.55 40.8 -17.75 43.1 -13.2 44.15 -8.65 45.25 -3.55 44.85 2.55 44.45 8.05 42.85 13.8 41.5 18.5 39.25 22.75 34.85 30.8 27.45 36.05 L25.25 37.45 Q15.25 43.5 4.6 41.5 L3.1 41.2 Q-8.55 38.55 -17.1 31.55 -24.8 25.3 -29.45 16.15 L-29.85 15.4 Q-34.35 6.4 -34.65 -2.1 L-34.65 -2.15 Q-35.3 -10.75 -30.8 -16.55 L-28.4 -19.4 Q-22.25 -25.8 -17.1 -29.9 L-11.85 -35.3 Q-9.75 -37.55 -8.0 -39.85 L-8.0 -39.9 -5.75 -42.25 -5.35 -42.55 -4.9 -42.8 -4.5 -42.95 -4.45 -42.95 -4.3 -42.95 -3.9 -42.7 -1.75 -41.85 -0.2 -41.05 1.3 -40.2 2.35 -39.65 2.55 -39.45 2.75 -39.55 3.05 -39.9 3.45 -40.5 4.2 -42.2 5.45 -46.1 6.25 -49.15 8.45 -58.55 9.35 -62.95 Q10.15 -67.75 11.75 -72.4 L12.9 -75.55 15.7 -81.45 M14.95 -71.3 Q13.45 -66.9 12.7 -62.35 L11.8 -57.85 9.55 -48.3 9.6 -48.4 8.75 -45.2 7.4 -40.95 6.5 -39.0 6.45 -38.8 Q5.5 -37.25 4.85 -36.85 3.0 -35.45 1.6 -36.2 0.65 -36.25 0.0 -37.0 L-0.55 -37.35 -0.8 -37.5 -1.5 -37.9 -1.65 -38.0 -3.2 -38.75 -4.1 -39.1 -5.4 -37.7 -5.3 -37.85 Q-7.1 -35.35 -9.4 -32.95 L-9.35 -33.0 -14.8 -27.4 -15.0 -27.25 Q-20.0 -23.25 -25.95 -17.05 L-25.9 -17.15 -28.1 -14.45 -28.15 -14.45 Q-31.8 -9.55 -31.3 -2.35 L-31.25 -2.15 Q-30.9 5.65 -26.8 13.85 L-26.7 14.05 -26.45 14.55 -26.4 14.6 Q-22.1 23.1 -14.95 28.95 -7.0 35.4 3.85 37.9 L5.25 38.15 Q14.65 39.9 23.5 34.55 L23.45 34.55 25.55 33.2 25.5 33.25 Q32.25 28.5 36.25 21.15 38.35 17.2 39.55 12.85 41.05 7.45 41.45 2.3 41.8 -3.3 40.8 -7.95 L40.85 -7.9 Q39.9 -12.05 37.8 -16.15 L37.8 -16.2 Q34.9 -21.7 31.05 -26.65 L29.4 -28.8 23.75 -36.0 23.6 -36.15 Q21.95 -38.55 21.15 -40.45 20.65 -41.5 20.4 -42.75 19.9 -44.5 19.75 -47.1 19.6 -49.25 19.6 -51.5 L19.5 -55.55 19.5 -55.6 Q19.35 -63.25 16.4 -71.2 L15.8 -72.7 15.8 -72.8 15.65 -73.15 14.95 -71.3 M-12.2 -85.75 L-12.05 -86.05 Q-9.1 -76.45 -5.95 -69.15 L-5.35 -67.7 Q-3.35 -62.1 -5.45 -55.1 L-5.7 -54.25 Q-8.0 -47.35 -12.65 -44.25 L-13.8 -44.4 -15.45 -46.55 -17.75 -49.75 -18.8 -51.5 Q-23.05 -58.9 -20.65 -63.55 -18.55 -68.2 -15.25 -77.15 L-12.2 -85.75 M-8.55 -66.55 L-9.1 -67.8 -9.05 -67.75 -12.15 -75.6 Q-15.45 -66.8 -17.55 -62.15 L-17.6 -62.0 Q-18.95 -58.65 -15.8 -53.15 L-14.9 -51.65 -12.75 -48.6 Q-10.35 -51.15 -8.95 -55.35 L-8.75 -55.9 -8.75 -56.1 Q-7.0 -61.9 -8.55 -66.5 L-8.55 -66.55" fill="#ff0000" fill-opacity="0.49803922" fill-rule="evenodd" stroke="none"/>
    <path d="M14.95 -71.3 L15.65 -73.15 15.8 -72.8 15.8 -72.7 16.4 -71.2 Q19.35 -63.25 19.5 -55.6 L19.5 -55.55 19.6 -51.5 Q19.6 -49.25 19.75 -47.1 19.9 -44.5 20.4 -42.75 20.65 -41.5 21.15 -40.45 21.95 -38.55 23.6 -36.15 L23.75 -36.0 29.4 -28.8 31.05 -26.65 Q34.9 -21.7 37.8 -16.2 L37.8 -16.15 Q39.9 -12.05 40.85 -7.9 L40.8 -7.95 Q41.8 -3.3 41.45 2.3 41.05 7.45 39.55 12.85 38.35 17.2 36.25 21.15 32.25 28.5 25.5 33.25 L25.55 33.2 23.45 34.55 23.5 34.55 Q14.65 39.9 5.25 38.15 L3.85 37.9 Q-7.0 35.4 -14.95 28.95 -22.1 23.1 -26.4 14.6 L-26.45 14.55 -26.7 14.05 -26.8 13.85 Q-30.9 5.65 -31.25 -2.15 L-31.3 -2.35 Q-31.8 -9.55 -28.15 -14.45 L-28.1 -14.45 -25.9 -17.15 -25.95 -17.05 Q-20.0 -23.25 -15.0 -27.25 L-14.8 -27.4 -9.35 -33.0 -9.4 -32.95 Q-7.1 -35.35 -5.3 -37.85 L-5.4 -37.7 -4.1 -39.1 -3.2 -38.75 -1.65 -38.0 -1.5 -37.9 -0.8 -37.5 -0.55 -37.35 0.0 -37.0 Q0.65 -36.25 1.6 -36.2 3.0 -35.45 4.85 -36.85 5.5 -37.25 6.45 -38.8 L6.5 -39.0 7.4 -40.95 8.75 -45.2 9.6 -48.4 9.55 -48.3 11.8 -57.85 12.7 -62.35 Q13.45 -66.9 14.95 -71.3 M-8.55 -66.55 L-8.55 -66.5 Q-7.0 -61.9 -8.75 -56.1 L-8.75 -55.9 -8.95 -55.35 Q-10.35 -51.15 -12.75 -48.6 L-14.9 -51.65 -15.8 -53.15 Q-18.95 -58.65 -17.6 -62.0 L-17.55 -62.15 Q-15.45 -66.8 -12.15 -75.6 L-9.05 -67.75 -9.1 -67.8 -8.55 -66.55" fill="#dd4800" fill-rule="evenodd" stroke="none"/>
    <path d="M17.3 -11.85 Q16.45 -12.5 17.2 -13.05 L17.3 -11.85 M5.6 20.25 Q-3.5 20.65 -8.0 5.75 -5.35 -4.0 5.35 -18.85 24.75 -0.15 21.75 5.9 14.7 19.8 5.6 20.25" fill="#ff9900" fill-rule="evenodd" stroke="none"/>
  </g>
</svg>
