<?xml version="1.0" encoding="UTF-8" standalone="no"?>
<svg xmlns:ffdec="https://www.free-decompiler.com/flash" xmlns:xlink="http://www.w3.org/1999/xlink" ffdec:objectType="shape" height="45.4px" width="45.4px" xmlns="http://www.w3.org/2000/svg">
  <g transform="matrix(1.0, 0.0, 0.0, 1.0, 22.7, 22.7)">
    <path d="M8.2 -8.75 L4.2 -5.45 Q3.45 -4.8 2.45 -4.65 L0.55 -4.9 Q-0.35 -5.35 -0.9 -6.15 L-0.95 -6.15 -3.85 -10.4 -1.9 -5.6 Q-1.55 -4.7 -1.7 -3.7 -1.9 -2.7 -2.55 -1.95 -3.2 -1.25 -4.15 -0.95 L-4.15 -0.9 -9.1 0.55 -3.95 0.2 Q-3.0 0.1 -2.1 0.6 -1.2 1.05 -0.7 1.95 L-0.7 1.9 Q-0.2 2.75 -0.25 3.8 L-0.4 8.95 0.85 3.95 Q1.1 3.0 1.8 2.3 2.5 1.6 3.5 1.4 L5.45 1.55 10.4 3.3 5.9 0.5 5.9 0.45 Q5.05 -0.1 4.65 -0.95 4.2 -1.85 4.3 -2.85 4.4 -3.85 5.05 -4.65 L5.0 -4.65 8.2 -8.75 M6.7 -0.8 L22.7 9.35 4.95 2.95 3.85 2.85 Q3.25 2.95 2.85 3.4 2.45 3.75 2.3 4.35 L-2.25 22.7 -1.75 3.75 Q-1.75 3.15 -2.0 2.7 L-2.8 1.9 -3.85 1.7 -22.7 3.0 -4.6 -2.35 Q-4.05 -2.55 -3.65 -2.95 L-3.2 -3.95 Q-3.1 -4.5 -3.3 -5.05 L-10.35 -22.7 0.3 -7.0 1.15 -6.3 2.25 -6.15 Q2.8 -6.25 3.25 -6.6 L17.8 -18.8 6.2 -3.7 Q5.85 -3.25 5.8 -2.7 5.7 -2.15 6.0 -1.6 L6.7 -0.8" fill="#ffffff" fill-opacity="0.49803922" fill-rule="evenodd" stroke="none"/>
    <path d="M8.2 -8.75 L5.0 -4.65 5.05 -4.65 Q4.4 -3.85 4.3 -2.85 4.2 -1.85 4.65 -0.95 5.05 -0.1 5.9 0.45 L5.9 0.5 10.4 3.3 5.45 1.55 3.5 1.4 Q2.5 1.6 1.8 2.3 1.1 3.0 0.85 3.95 L-0.4 8.95 -0.25 3.8 Q-0.2 2.75 -0.7 1.9 L-0.7 1.95 Q-1.2 1.05 -2.1 0.6 -3.0 0.1 -3.95 0.2 L-9.1 0.55 -4.15 -0.9 -4.15 -0.95 Q-3.2 -1.25 -2.55 -1.95 -1.9 -2.7 -1.7 -3.7 -1.55 -4.7 -1.9 -5.6 L-3.85 -10.4 -0.95 -6.15 -0.9 -6.15 Q-0.35 -5.35 0.55 -4.9 L2.45 -4.65 Q3.45 -4.8 4.2 -5.45 L8.2 -8.75" fill="#ffffff" fill-rule="evenodd" stroke="none"/>
  </g>
</svg>
