<?xml version="1.0" encoding="UTF-8" standalone="no"?>
<svg xmlns:ffdec="https://www.free-decompiler.com/flash" xmlns:xlink="http://www.w3.org/1999/xlink" ffdec:objectType="shape" height="131.6px" width="78.15px" xmlns="http://www.w3.org/2000/svg">
  <g transform="matrix(1.0, 0.0, 0.0, 1.0, 32.85, 89.8)">
    <path d="M13.15 -80.5 Q23.6 -72.3 24.7 -62.7 L25.25 -53.75 Q25.3 -49.5 25.65 -47.8 26.55 -42.7 34.25 -32.85 43.15 -21.45 44.85 -11.8 46.5 -2.25 42.2 11.85 37.85 25.95 25.45 35.0 12.95 44.0 1.85 41.1 -11.3 37.55 -20.05 28.55 -27.8 20.6 -30.95 9.65 -33.9 -0.4 -32.3 -9.9 -30.75 -19.35 -25.45 -24.35 -13.95 -35.3 -11.55 -38.15 -7.95 -42.55 -4.3 -50.95 L-2.0 -54.45 -1.35 -54.55 -0.75 -54.15 0.75 -49.8 Q1.3 -46.5 1.4 -42.1 1.5 -37.95 1.15 -35.95 L1.1 -35.2 1.2 -34.95 1.25 -34.9 1.65 -35.1 2.25 -35.75 Q3.8 -37.55 5.65 -41.2 10.65 -51.45 9.6 -58.75 7.9 -70.0 2.9 -86.7 7.9 -84.55 13.15 -80.5 M11.05 -77.8 L8.45 -79.7 Q11.7 -67.9 12.95 -59.25 14.3 -51.1 8.7 -39.7 6.6 -35.6 4.9 -33.55 L4.85 -33.55 Q2.25 -30.55 0.75 -31.55 -2.0 -31.35 -2.3 -34.9 L-2.2 -36.6 -2.2 -36.55 Q-1.9 -38.35 -2.0 -42.0 L-2.3 -47.05 Q-5.6 -39.95 -8.9 -35.95 -11.4 -33.0 -23.1 -21.9 -27.6 -17.5 -28.95 -9.35 -30.4 -0.55 -27.7 8.7 -24.75 18.8 -17.6 26.2 -9.45 34.5 2.7 37.8 12.45 40.15 23.45 32.2 34.95 23.85 38.95 10.85 43.0 -2.3 41.5 -11.2 39.85 -20.15 31.55 -30.75 23.15 -41.5 22.3 -47.2 21.9 -49.1 21.85 -53.7 21.75 -58.5 21.3 -62.35 20.2 -70.65 11.05 -77.8 M-16.65 -83.25 Q-14.65 -86.95 -12.5 -89.8 -11.45 -80.6 -7.7 -74.1 -5.1 -69.6 -7.35 -62.25 -9.45 -55.55 -13.15 -53.0 L-16.15 -59.5 Q-19.35 -66.95 -20.0 -71.4 -20.65 -75.85 -16.65 -83.25 M-13.05 -60.9 L-12.3 -59.2 Q-11.35 -60.95 -10.65 -63.25 -8.9 -68.9 -10.65 -72.4 -12.85 -76.15 -14.15 -80.7 -16.95 -75.2 -16.6 -71.85 -16.0 -67.75 -13.05 -60.8 L-13.05 -60.9" fill="#ff0000" fill-opacity="0.49803922" fill-rule="evenodd" stroke="none"/>
    <path d="M11.05 -77.8 Q20.2 -70.65 21.3 -62.35 21.75 -58.5 21.85 -53.7 21.9 -49.1 22.3 -47.2 23.15 -41.5 31.55 -30.75 39.85 -20.15 41.5 -11.2 43.0 -2.3 38.95 10.85 34.95 23.85 23.45 32.2 12.45 40.15 2.7 37.8 -9.45 34.5 -17.6 26.2 -24.75 18.8 -27.7 8.7 -30.4 -0.55 -28.95 -9.35 -27.6 -17.5 -23.1 -21.9 -11.4 -33.0 -8.9 -35.95 -5.6 -39.95 -2.3 -47.05 L-2.0 -42.0 Q-1.9 -38.35 -2.2 -36.55 L-2.2 -36.6 -2.3 -34.9 Q-2.0 -31.35 0.75 -31.55 2.25 -30.55 4.85 -33.55 L4.9 -33.55 Q6.6 -35.6 8.7 -39.7 14.3 -51.1 12.95 -59.25 11.7 -67.9 8.45 -79.7 L11.05 -77.8 M-13.05 -60.9 L-13.05 -60.8 Q-16.0 -67.75 -16.6 -71.85 -16.95 -75.2 -14.15 -80.7 -12.85 -76.15 -10.65 -72.4 -8.9 -68.9 -10.65 -63.25 -11.35 -60.95 -12.3 -59.2 L-13.05 -60.9" fill="#dd4800" fill-rule="evenodd" stroke="none"/>
    <path d="M6.75 19.1 Q-3.5 20.65 -7.3 -1.7 -10.15 -8.75 12.85 -24.3 27.95 -3.35 22.45 7.1 16.9 17.55 6.75 19.1" fill="#ff9900" fill-rule="evenodd" stroke="none"/>
  </g>
</svg>
