<?xml version="1.0" encoding="UTF-8" standalone="no"?>
<svg xmlns:ffdec="https://www.free-decompiler.com/flash" xmlns:xlink="http://www.w3.org/1999/xlink" ffdec:objectType="shape" height="23.4px" width="62.2px" xmlns="http://www.w3.org/2000/svg">
  <g transform="matrix(1.0, 0.0, 0.0, 1.0, 30.2, 59.55)">
    <path d="M25.85 -45.15 Q26.75 -46.0 28.0 -46.0 29.25 -46.0 30.1 -45.15 31.0 -44.25 31.0 -43.0 31.0 -41.75 30.1 -40.9 29.25 -40.0 28.0 -40.0 26.75 -40.0 25.85 -40.9 25.0 -41.75 25.0 -43.0 25.0 -44.25 25.85 -45.15 M-3.5 -58.55 Q-1.85 -58.55 -0.7 -57.4 0.5 -56.2 0.5 -54.55 0.5 -52.9 -0.7 -51.75 -1.85 -50.55 -3.5 -50.55 -5.15 -50.55 -6.35 -51.75 -7.5 -52.9 -7.5 -54.55 -7.5 -56.2 -6.35 -57.4 -5.15 -58.55 -3.5 -58.55 M-22.3 -40.6 Q-22.3 -39.15 -23.3 -38.15 -24.3 -37.15 -25.75 -37.15 -27.2 -37.15 -28.2 -38.15 -29.2 -39.15 -29.2 -40.6 -29.2 -42.05 -28.2 -43.05 -27.2 -44.05 -25.75 -44.05 -24.3 -44.05 -23.3 -43.05 -22.3 -42.05 -22.3 -40.6 Z" fill="none" stroke="#0099ff" stroke-linecap="round" stroke-linejoin="round" stroke-opacity="0.101960786" stroke-width="2.0"/>
  </g>
</svg>
