<?xml version="1.0" encoding="UTF-8" standalone="no"?>
<svg xmlns:ffdec="https://www.free-decompiler.com/flash" xmlns:xlink="http://www.w3.org/1999/xlink" ffdec:objectType="shape" height="25.0px" width="37.5px" xmlns="http://www.w3.org/2000/svg">
  <g transform="matrix(1.0, 0.0, 0.0, 1.0, 22.15, 18.6)">
    <path d="M9.8 -9.7 Q11.75 -9.35 13.3 -7.85 15.3 -5.8 15.35 -2.95 15.3 -0.15 13.3 1.9 11.3 3.9 8.45 3.9 L5.9 3.45 Q2.45 6.4 -2.2 6.4 -6.75 6.4 -10.1 3.65 L-10.6 4.25 Q-12.2 5.8 -14.35 5.8 -16.55 5.8 -18.1 4.25 -19.7 2.65 -19.65 0.5 -19.65 -1.3 -18.65 -2.65 L-19.7 -3.55 Q-22.2 -6.05 -22.15 -9.5 -22.2 -13.05 -19.7 -15.5 -17.25 -17.95 -13.75 -17.95 -11.1 -17.95 -9.05 -16.55 -6.05 -18.6 -2.2 -18.6 2.95 -18.6 6.65 -14.95 8.95 -12.65 9.8 -9.7" fill="#ffffff" fill-opacity="0.4" fill-rule="evenodd" stroke="none"/>
  </g>
</svg>
