<?xml version="1.0" encoding="UTF-8" standalone="no"?>
<svg xmlns:ffdec="https://www.free-decompiler.com/flash" xmlns:xlink="http://www.w3.org/1999/xlink" ffdec:objectType="shape" height="95.5px" width="237.9px" xmlns="http://www.w3.org/2000/svg">
  <g transform="matrix(1.0, 0.0, 0.0, 1.0, 117.65, 35.1)">
    <path d="M35.45 -15.6 Q61.3 -34.55 70.5 -35.1 L37.3 10.4 Q52.6 8.25 82.9 6.95 114.35 5.6 120.25 7.15 L120.25 9.75 37.8 36.8 Q50.9 38.6 111.55 59.6 L113.85 60.4 -117.65 60.4 -115.7 59.6 -101.45 53.9 Q-76.6 44.1 -62.95 39.65 L-103.7 -3.1 -103.55 -3.65 Q-79.35 5.2 -55.3 14.5 L-84.65 -27.45 Q-83.25 -27.25 -48.55 -10.75 -11.95 6.65 3.15 11.05 13.65 0.4 35.45 -15.6 M59.4 -26.6 Q50.85 -21.95 37.85 -12.35 16.35 3.4 6.0 13.85 5.2 14.65 4.15 14.95 L2.05 14.9 Q-13.25 10.45 -50.25 -7.1 L-73.1 -17.95 -52.0 12.2 Q-51.25 13.3 -51.3 14.6 -51.35 15.9 -52.15 17.0 -52.95 18.0 -54.25 18.35 L-56.75 18.25 Q-73.25 11.85 -89.8 5.7 L-60.05 36.9 Q-59.1 37.9 -58.95 39.3 -58.85 40.7 -59.6 41.85 -60.35 43.0 -61.7 43.45 -74.9 47.75 -98.65 57.1 L91.9 57.1 Q48.1 42.3 37.25 40.8 35.85 40.55 34.9 39.55 33.95 38.55 33.85 37.15 33.7 35.75 34.45 34.6 35.2 33.45 36.55 33.0 L105.7 10.35 Q96.95 10.35 83.1 10.95 53.05 12.25 37.85 14.35 36.2 14.6 34.9 13.6 33.6 12.6 33.35 11.0 33.1 9.4 34.1 8.05 L59.4 -26.6" fill="#33c5ff" fill-opacity="0.8509804" fill-rule="evenodd" stroke="none"/>
    <path d="M59.4 -26.6 L34.1 8.05 Q33.1 9.4 33.35 11.0 33.6 12.6 34.9 13.6 36.2 14.6 37.85 14.35 53.05 12.25 83.1 10.95 96.95 10.35 105.7 10.35 L36.55 33.0 Q35.2 33.45 34.45 34.6 33.7 35.75 33.85 37.15 33.95 38.55 34.9 39.55 35.85 40.55 37.25 40.8 48.1 42.3 91.9 57.1 L-98.65 57.1 Q-74.9 47.75 -61.7 43.45 -60.35 43.0 -59.6 41.85 -58.85 40.7 -58.95 39.3 -59.1 37.9 -60.05 36.9 L-89.8 5.7 Q-73.25 11.85 -56.75 18.25 L-54.25 18.35 Q-52.95 18.0 -52.15 17.0 -51.35 15.9 -51.3 14.6 -51.25 13.3 -52.0 12.2 L-73.1 -17.95 -50.25 -7.1 Q-13.25 10.45 2.05 14.9 L4.15 14.95 Q5.2 14.65 6.0 13.85 16.35 3.4 37.85 -12.35 50.85 -21.95 59.4 -26.6" fill="#33c5ff" fill-opacity="0.5529412" fill-rule="evenodd" stroke="none"/>
  </g>
</svg>
