<?xml version="1.0" encoding="UTF-8" standalone="no"?>
<svg xmlns:ffdec="https://www.free-decompiler.com/flash" xmlns:xlink="http://www.w3.org/1999/xlink" ffdec:objectType="shape" height="86.45px" width="289.9px" xmlns="http://www.w3.org/2000/svg">
  <g transform="matrix(1.0, 0.0, 0.0, 1.0, 145.75, 26.05)">
    <path d="M-73.05 17.65 Q-72.3 18.65 -72.3 19.95 -72.3 21.25 -73.05 22.3 -73.8 23.3 -75.0 23.75 L-77.45 23.8 -110.25 13.95 -81.3 39.1 Q-80.2 40.05 -79.95 41.55 -79.75 43.05 -80.6 44.3 -81.45 45.55 -82.85 45.95 L-122.2 57.1 114.35 57.1 103.35 54.25 Q64.05 44.0 61.3 43.65 59.9 43.45 58.95 42.45 57.95 41.4 57.85 40.05 57.7 38.65 58.5 37.45 59.25 36.3 60.6 35.85 L107.4 22.75 127.9 16.7 107.35 17.2 Q78.5 18.35 61.75 20.3 60.15 20.45 58.85 19.45 57.55 18.45 57.35 16.85 57.1 15.25 58.1 13.95 L77.8 -12.55 Q65.7 -5.55 53.05 1.45 8.15 26.3 -1.0 26.1 -9.8 26.4 -52.35 9.1 L-90.1 -6.55 -73.05 17.65 M51.1 -2.05 Q72.85 -14.05 92.8 -26.05 L61.3 16.3 Q78.15 14.35 107.2 13.2 139.1 12.0 144.15 13.85 141.1 17.55 108.45 26.6 L61.8 39.65 Q64.6 40.0 104.35 50.35 L139.65 59.6 142.65 60.4 -145.75 60.4 -143.5 59.6 Q-129.4 54.75 -83.95 42.1 L-126.9 4.75 -76.3 19.95 Q-101.9 -15.85 -100.05 -15.1 -72.2 -3.3 -50.85 5.4 -9.55 22.2 -1.05 22.1 7.65 22.0 51.1 -2.05" fill="#33c5ff" fill-opacity="0.8509804" fill-rule="evenodd" stroke="none"/>
    <path d="M114.35 57.1 L-122.2 57.1 -82.85 45.95 Q-81.45 45.55 -80.6 44.3 -79.75 43.05 -79.95 41.55 -80.2 40.05 -81.3 39.1 L-110.25 13.95 -77.45 23.8 -75.0 23.75 Q-73.8 23.3 -73.05 22.3 -72.3 21.25 -72.3 19.95 -72.3 18.65 -73.05 17.65 L-90.1 -6.55 -52.35 9.1 Q-9.8 26.4 -1.0 26.1 8.15 26.3 53.05 1.45 65.7 -5.55 77.8 -12.55 L58.1 13.95 Q57.1 15.25 57.35 16.85 57.55 18.45 58.85 19.45 60.15 20.45 61.75 20.3 78.5 18.35 107.35 17.2 L127.9 16.7 107.4 22.75 60.6 35.85 Q59.25 36.3 58.5 37.45 57.7 38.65 57.85 40.05 57.95 41.4 58.95 42.45 59.9 43.45 61.3 43.65 64.05 44.0 103.35 54.25 L114.35 57.1" fill="#33c5ff" fill-opacity="0.5529412" fill-rule="evenodd" stroke="none"/>
  </g>
</svg>
