<?xml version="1.0" encoding="UTF-8" standalone="no"?>
<svg xmlns:ffdec="https://www.free-decompiler.com/flash" xmlns:xlink="http://www.w3.org/1999/xlink" ffdec:objectType="shape" height="57.25px" width="322.7px" xmlns="http://www.w3.org/2000/svg">
  <g transform="matrix(1.0, 0.0, 0.0, 1.0, 150.1, -3.15)">
    <path d="M94.05 55.35 Q92.95 54.35 92.8 52.95 92.6 51.5 93.4 50.3 94.2 49.05 95.55 48.65 L126.35 39.0 119.0 39.6 75.6 42.45 Q74.35 42.4 73.35 41.65 72.3 40.85 71.95 39.65 71.55 38.45 71.95 37.25 72.35 36.0 73.35 35.25 87.5 24.65 99.7 11.85 26.65 36.75 13.8 39.65 4.6 41.75 -4.75 40.35 -43.35 34.4 -80.15 20.6 L-80.2 20.7 -80.2 20.8 Q-80.75 22.1 -80.25 23.45 -79.7 24.85 -78.45 25.85 L-78.4 25.85 Q-72.7 30.35 -66.15 33.95 -65.0 34.6 -64.45 35.85 -63.9 37.05 -64.2 38.4 -64.5 39.65 -65.55 40.55 -66.6 41.4 -67.9 41.45 L-131.3 44.15 Q-117.05 48.75 -106.6 48.7 -105.05 48.7 -103.85 49.75 -102.7 50.8 -102.55 52.35 -102.45 53.9 -103.35 55.15 -104.05 56.0 -105.0 56.4 L96.1 56.4 Q94.9 56.2 94.05 55.35 M167.95 56.65 L172.55 59.35 172.6 59.6 172.25 59.95 147.4 60.4 -150.1 60.4 -150.1 60.1 -106.55 52.7 Q-122.35 52.85 -146.5 42.75 L-148.15 40.85 -68.1 37.45 Q-74.9 33.7 -80.9 29.0 -83.05 27.35 -84.0 24.85 -85.05 22.05 -83.95 19.3 -83.2 17.3 -81.85 15.7 -43.95 30.25 -4.15 36.4 4.45 37.7 12.9 35.75 26.95 32.6 112.75 3.15 96.25 23.05 75.75 38.45 L118.65 35.6 158.5 33.1 96.75 52.45 167.95 56.65" fill="#33c5ff" fill-opacity="0.8509804" fill-rule="evenodd" stroke="none"/>
    <path d="M92.8 52.95 Q92.95 54.35 94.05 55.35 94.9 56.2 96.1 56.4 L-105.0 56.4 Q-104.05 56.0 -103.35 55.15 -102.45 53.9 -102.55 52.35 -102.7 50.8 -103.85 49.75 -105.05 48.7 -106.6 48.7 -117.05 48.75 -131.3 44.15 L-67.9 41.45 Q-66.6 41.4 -65.55 40.55 -64.5 39.65 -64.2 38.4 -63.9 37.05 -64.45 35.85 -65.0 34.6 -66.15 33.95 -72.7 30.35 -78.4 25.85 L-78.45 25.85 Q-79.7 24.85 -80.25 23.45 -80.75 22.1 -80.2 20.8 L-80.2 20.7 -80.15 20.6 Q-43.35 34.4 -4.75 40.35 4.6 41.75 13.8 39.65 26.65 36.75 99.7 11.85 87.5 24.65 73.35 35.25 72.35 36.0 71.95 37.25 71.55 38.45 71.95 39.65 72.3 40.85 73.35 41.65 74.35 42.4 75.6 42.45 L119.0 39.6 126.35 39.0 95.55 48.65 Q94.2 49.05 93.4 50.3 92.6 51.5 92.8 52.95" fill="#33c5ff" fill-opacity="0.5529412" fill-rule="evenodd" stroke="none"/>
  </g>
</svg>
