<?xml version="1.0" encoding="UTF-8" standalone="no"?>
<svg xmlns:ffdec="https://www.free-decompiler.com/flash" xmlns:xlink="http://www.w3.org/1999/xlink" ffdec:objectType="shape" height="77.25px" width="333.65px" xmlns="http://www.w3.org/2000/svg">
  <g transform="matrix(1.0, 0.0, 0.0, 1.0, 150.15, 16.85)">
    <path d="M-115.2 46.55 Q-114.8 47.95 -115.4 49.3 -116.0 50.65 -117.35 51.3 L-120.1 51.5 -121.0 51.25 -115.3 53.95 Q-114.0 54.55 -113.4 55.85 L-113.15 56.4 -32.45 56.4 Q-63.55 52.5 -94.0 44.75 -107.4 41.2 -111.4 28.3 -113.75 20.9 -114.0 14.05 -120.2 29.5 -115.2 46.55 M95.0 47.9 Q95.6 46.75 96.75 46.25 L101.35 44.15 100.2 43.3 Q99.3 42.35 99.1 41.1 98.9 39.8 99.5 38.65 102.3 33.25 105.9 28.55 L103.5 30.75 103.5 30.7 Q91.05 41.6 76.15 48.6 65.25 53.6 53.75 56.4 L109.05 56.4 97.45 53.75 Q96.25 53.4 95.4 52.45 94.6 51.5 94.5 50.25 94.35 49.0 95.0 47.9 M130.0 -9.05 Q132.25 -13.4 135.7 -16.85 L136.5 -15.25 Q134.45 -8.35 131.05 -0.25 124.2 15.95 117.3 22.15 108.5 30.0 103.05 40.5 126.85 29.25 153.15 28.0 157.35 27.35 159.45 29.15 127.6 36.2 98.45 49.85 139.1 60.3 183.5 56.1 177.2 58.2 170.8 59.6 L166.95 60.4 -141.8 60.4 -138.75 59.6 Q-128.35 57.1 -117.0 57.55 L-150.15 42.05 -150.15 39.15 -119.05 47.65 Q-126.0 23.95 -112.8 3.0 -111.0 0.2 -107.95 0.3 -112.2 12.5 -107.6 27.1 -104.2 37.9 -93.0 40.85 -40.6 54.25 13.7 56.0 L39.8 54.9 Q57.9 52.6 74.45 44.95 88.85 38.2 100.85 27.7 L109.7 19.25 Q121.8 6.55 130.0 -9.05" fill="#33c5ff" fill-opacity="0.8509804" fill-rule="evenodd" stroke="none"/>
    <path d="M101.35 44.15 L96.75 46.25 Q95.6 46.75 95.0 47.9 94.35 49.0 94.5 50.25 94.6 51.5 95.4 52.45 96.25 53.4 97.45 53.75 L109.05 56.4 53.75 56.4 Q65.25 53.6 76.15 48.6 91.05 41.6 103.5 30.7 L103.5 30.75 105.9 28.55 Q102.3 33.25 99.5 38.65 98.9 39.8 99.1 41.1 99.3 42.35 100.2 43.3 L101.35 44.15 M-114.0 14.05 Q-113.75 20.9 -111.4 28.3 -107.4 41.2 -94.0 44.75 -63.55 52.5 -32.45 56.4 L-113.15 56.4 -113.4 55.85 Q-114.0 54.55 -115.3 53.95 L-121.0 51.25 -120.1 51.5 -117.35 51.3 Q-116.0 50.65 -115.4 49.3 -114.8 47.95 -115.2 46.55 -120.2 29.5 -114.0 14.05" fill="#33c5ff" fill-opacity="0.5529412" fill-rule="evenodd" stroke="none"/>
  </g>
</svg>
