<?xml version="1.0" encoding="UTF-8" standalone="no"?>
<svg xmlns:ffdec="https://www.free-decompiler.com/flash" xmlns:xlink="http://www.w3.org/1999/xlink" ffdec:objectType="shape" height="200.0px" width="320.0px" xmlns="http://www.w3.org/2000/svg">
  <g transform="matrix(1.0, 0.0, 0.0, 1.0, 160.0, 140.0)">
    <path d="M113.1 -93.2 Q160.0 -46.3 160.0 20.0 160.0 41.0 155.3 60.0 L-155.3 60.0 Q-160.0 41.0 -160.0 20.0 -160.0 -46.3 -113.2 -93.2 -66.3 -140.0 0.0 -140.0 66.3 -140.0 113.1 -93.2" fill="url(#gradient0)" fill-rule="evenodd" stroke="none"/>
    <path d="M-93.85 4.7 L-94.65 4.25 Q-93.05 -12.4 -77.85 -15.6 L-93.85 4.7 M-91.0 -31.85 Q-87.35 -34.25 -84.1 -37.1 -87.95 -35.05 -91.0 -31.85 M-101.65 -21.9 L-101.75 -22.15 Q-93.35 -42.8 -71.85 -44.6 -83.15 -29.2 -101.65 -21.9 M84.0 -28.3 Q90.95 -17.75 90.4 -4.2 L88.0 -2.3 Q82.35 -14.65 81.8 -27.9 L84.0 -28.3 M67.65 -44.35 L68.15 -47.8 Q82.9 -48.05 92.4 -35.45 L91.85 -31.55 67.65 -44.35" fill="#33c5ff" fill-opacity="0.8509804" fill-rule="evenodd" stroke="none"/>
    <path d="M-91.0 -31.85 Q-87.95 -35.05 -84.1 -37.1 -87.35 -34.25 -91.0 -31.85" fill="#33c5ff" fill-opacity="0.5529412" fill-rule="evenodd" stroke="none"/>
  </g>
  <defs>
    <radialGradient cx="0" cy="0" gradientTransform="matrix(0.1968, 0.0, 0.0, 0.1968, 0.0, 20.0)" gradientUnits="userSpaceOnUse" id="gradient0" r="819.2" spreadMethod="pad">
      <stop offset="0.0" stop-color="#33c5ff" stop-opacity="0.0"/>
      <stop offset="0.6941176470588235" stop-color="#33c5ff" stop-opacity="0.043137256"/>
      <stop offset="1.0" stop-color="#33c5ff" stop-opacity="0.0"/>
    </radialGradient>
  </defs>
</svg>
