<?xml version="1.0" encoding="UTF-8" standalone="no"?>
<svg xmlns:ffdec="https://www.free-decompiler.com/flash" xmlns:xlink="http://www.w3.org/1999/xlink" ffdec:objectType="shape" height="25.0px" width="25.0px" xmlns="http://www.w3.org/2000/svg">
  <g transform="matrix(1.0, 0.0, 0.0, 1.0, 12.5, 12.5)">
    <path d="M7.1 -7.1 L10.0 0.0 7.1 7.1 0.0 10.0 -7.1 7.1 -10.0 0.0 -7.1 -7.1 0.0 -10.0 7.1 -7.1" fill="#000000" fill-opacity="0.2" fill-rule="evenodd" stroke="none"/>
    <path d="M7.1 -7.1 L0.0 -10.0 -7.1 -7.1 -10.0 0.0 -7.1 7.1 0.0 10.0 7.1 7.1 10.0 0.0 7.1 -7.1 M8.9 -8.85 L12.5 0.0 8.9 8.9 0.0 12.5 -8.85 8.9 -12.5 0.0 -8.85 -8.85 0.0 -12.5 8.9 -8.85" fill="#000000" fill-opacity="0.101960786" fill-rule="evenodd" stroke="none"/>
  </g>
</svg>
