<?xml version="1.0" encoding="UTF-8" standalone="no"?>
<svg xmlns:ffdec="https://www.free-decompiler.com/flash" xmlns:xlink="http://www.w3.org/1999/xlink" ffdec:objectType="shape" height="319.8px" width="900.0px" xmlns="http://www.w3.org/2000/svg">
  <g transform="matrix(1.0, 0.0, 0.0, 1.0, 450.0, 159.9)">
    <path d="M73.1 -83.35 Q64.0 -83.35 57.15 -78.05 L56.95 -78.25 Q51.7 -83.5 44.35 -83.45 37.0 -83.5 31.8 -78.25 26.55 -73.05 26.6 -65.7 L26.65 -63.95 Q23.05 -62.8 20.2 -59.9 15.5 -55.25 15.35 -48.65 12.4 -47.2 9.95 -44.7 4.1 -38.95 4.15 -30.7 4.1 -22.45 9.95 -16.65 15.7 -10.85 23.95 -10.85 L142.25 -10.85 Q150.45 -10.85 156.3 -16.65 162.1 -22.45 162.1 -30.7 162.1 -38.95 156.3 -44.7 150.45 -50.55 142.25 -50.5 L120.05 -50.5 Q119.35 -55.9 115.35 -59.9 110.5 -64.75 103.7 -64.75 L98.35 -64.75 Q96.55 -70.85 91.7 -75.65 84.0 -83.35 73.1 -83.35 M73.1 -87.85 Q85.85 -87.85 94.9 -78.85 99.25 -74.5 101.5 -69.25 L103.7 -69.25 Q112.35 -69.25 118.5 -63.1 122.1 -59.5 123.6 -55.0 L142.25 -55.0 Q152.35 -55.05 159.45 -47.9 166.55 -40.8 166.6 -30.7 166.55 -20.6 159.45 -13.45 152.35 -6.35 142.25 -6.35 L23.95 -6.35 Q13.85 -6.35 6.75 -13.45 -0.35 -20.6 -0.35 -30.7 -0.35 -40.8 6.75 -47.9 8.8 -49.95 11.1 -51.4 12.0 -58.1 17.0 -63.1 19.35 -65.5 22.15 -66.9 22.5 -75.35 28.6 -81.45 35.1 -87.95 44.35 -87.95 51.8 -88.0 57.5 -83.75 64.45 -87.85 73.1 -87.85 M419.9 -99.8 Q423.65 -96.0 425.1 -91.25 429.0 -89.85 432.2 -86.65 436.7 -82.15 437.7 -76.15 440.9 -74.6 443.6 -71.9 449.95 -65.55 450.0 -56.5 449.95 -47.5 443.6 -41.2 L443.6 -41.15 Q437.25 -34.8 428.25 -34.8 L351.9 -34.8 Q342.9 -34.8 336.55 -41.15 330.2 -47.5 330.2 -56.5 330.2 -65.55 336.55 -71.9 342.9 -78.25 351.9 -78.25 L354.4 -78.25 Q356.4 -82.1 359.7 -85.4 368.3 -93.95 380.35 -93.95 L385.85 -93.45 Q387.35 -96.9 390.25 -99.8 396.35 -105.95 405.05 -105.95 413.75 -105.95 419.9 -99.8 M393.45 -96.6 Q389.7 -92.9 388.85 -88.05 384.9 -89.45 380.35 -89.45 370.15 -89.45 362.9 -82.25 359.05 -78.4 357.25 -73.75 L351.9 -73.75 Q344.75 -73.75 339.7 -68.7 334.7 -63.65 334.7 -56.5 334.7 -49.35 339.7 -44.35 344.75 -39.3 351.9 -39.3 L428.25 -39.3 Q435.4 -39.3 440.45 -44.35 445.5 -49.35 445.5 -56.5 445.5 -63.65 440.45 -68.7 437.35 -71.8 433.5 -72.95 433.35 -79.1 429.0 -83.45 425.7 -86.8 421.35 -87.65 420.55 -92.8 416.7 -96.6 411.85 -101.45 405.05 -101.45 398.25 -101.45 393.45 -96.6 M264.05 39.25 Q257.9 33.1 249.25 33.1 240.55 33.1 234.45 39.25 230.15 43.5 228.85 48.95 224.15 49.55 220.6 53.1 216.3 57.4 216.3 63.45 L216.35 64.65 Q211.7 66.05 208.0 69.75 202.1 75.7 202.1 84.05 202.1 92.35 208.0 98.3 213.95 104.25 222.3 104.25 L291.9 104.25 Q300.25 104.25 306.2 98.3 312.15 92.35 312.15 84.05 312.15 75.7 306.2 69.75 300.25 63.8 291.9 63.8 L282.2 63.8 282.2 63.45 Q282.2 57.4 277.9 53.1 274.35 49.55 269.65 48.95 268.3 43.5 264.05 39.25 M273.15 45.1 Q277.55 46.4 281.05 49.9 285.15 54.0 286.25 59.3 L291.9 59.3 Q302.1 59.3 309.35 66.55 316.6 73.8 316.6 84.05 316.6 94.2 309.35 101.45 302.1 108.7 291.9 108.75 L222.3 108.75 Q212.05 108.75 204.8 101.45 197.55 94.25 197.6 84.05 197.55 73.8 204.8 66.55 L204.85 66.55 Q208.05 63.3 211.9 61.55 212.5 54.85 217.4 49.95 L217.4 49.9 Q220.9 46.4 225.35 45.15 227.15 40.1 231.25 36.05 238.7 28.6 249.25 28.6 259.8 28.6 267.25 36.05 271.3 40.1 273.15 45.1 M31.15 120.25 Q37.95 127.1 38.0 136.7 37.95 146.3 31.15 153.1 24.35 159.9 14.75 159.9 L-121.45 159.9 Q-131.05 159.9 -137.85 153.1 -144.65 146.3 -144.65 136.7 -144.65 127.1 -137.85 120.3 L-137.85 120.25 Q-134.55 117.0 -130.65 115.35 -129.25 108.55 -124.05 103.4 -116.95 96.25 -106.85 96.25 L-104.55 96.35 Q-102.5 89.15 -96.8 83.45 -87.85 74.5 -75.2 74.5 -63.4 74.5 -54.85 82.3 -49.15 78.55 -41.85 78.55 -32.0 78.5 -25.0 85.5 -19.4 91.1 -18.3 98.65 -13.25 100.15 -9.2 104.15 -5.1 108.25 -3.65 113.5 L14.75 113.5 Q24.35 113.45 31.15 120.25 M33.5 136.7 Q33.5 128.95 28.0 123.45 22.5 118.0 14.75 118.0 L-7.4 118.0 Q-7.95 111.85 -12.4 107.35 -16.7 103.05 -22.55 102.35 -22.55 94.3 -28.2 88.65 -33.85 83.0 -41.85 83.0 -49.65 83.0 -55.2 88.35 L-56.85 86.6 Q-64.45 79.0 -75.2 79.0 -86.0 79.0 -93.6 86.6 -100.0 93.0 -101.0 101.55 -103.75 100.75 -106.85 100.75 -115.1 100.75 -120.85 106.55 -126.0 111.65 -126.6 118.65 -131.1 119.9 -134.7 123.45 -140.15 128.95 -140.15 136.7 -140.15 144.45 -134.7 149.9 -129.2 155.4 -121.45 155.4 L14.75 155.4 Q22.5 155.4 28.0 149.9 33.5 144.45 33.5 136.7 M-176.1 -151.1 Q-169.25 -144.25 -167.7 -135.2 L-165.75 -135.2 Q-157.25 -135.2 -151.2 -129.15 -145.5 -123.45 -145.2 -115.5 -141.75 -113.8 -138.8 -110.85 -131.7 -103.75 -131.7 -93.65 -131.7 -83.55 -138.8 -76.4 -145.95 -69.3 -156.05 -69.3 L-288.55 -69.3 Q-298.65 -69.3 -305.75 -76.4 -312.85 -83.55 -312.85 -93.65 -312.85 -103.75 -305.75 -110.85 -298.65 -117.95 -288.55 -117.95 L-273.7 -117.95 Q-272.7 -124.35 -267.9 -129.15 -264.0 -133.1 -259.0 -134.45 -257.45 -141.2 -252.2 -146.4 -244.7 -153.9 -234.05 -153.9 -226.15 -153.9 -220.0 -149.75 L-218.7 -151.05 -218.7 -151.1 Q-209.9 -159.9 -197.4 -159.9 -184.9 -159.9 -176.1 -151.1 M-215.55 -147.9 Q-217.7 -145.75 -219.25 -143.3 -225.4 -149.4 -234.05 -149.4 -242.85 -149.45 -249.05 -143.25 -254.4 -137.9 -255.1 -130.6 -260.65 -130.05 -264.7 -125.95 -269.45 -121.25 -269.45 -114.6 L-269.4 -113.45 -288.55 -113.45 Q-296.8 -113.5 -302.55 -107.65 -308.4 -101.9 -308.35 -93.65 -308.4 -85.4 -302.55 -79.6 -296.8 -73.8 -288.55 -73.8 L-156.05 -73.8 Q-147.8 -73.8 -142.0 -79.6 -136.2 -85.4 -136.2 -93.65 -136.2 -101.9 -142.0 -107.65 -145.45 -111.15 -149.8 -112.55 L-149.65 -114.6 Q-149.7 -121.25 -154.4 -125.95 -159.1 -130.7 -165.75 -130.7 L-171.75 -130.7 Q-172.1 -140.75 -179.25 -147.9 -186.75 -155.4 -197.4 -155.4 -208.05 -155.4 -215.55 -147.9 M-316.3 31.35 Q-311.95 32.75 -308.45 36.25 -302.55 42.15 -302.55 50.55 -302.55 52.3 -302.8 53.95 -300.25 55.6 -297.95 57.9 -289.8 66.0 -289.8 77.5 -289.85 88.95 -297.95 97.05 L-297.95 97.1 Q-306.05 105.2 -317.5 105.2 L-410.35 105.2 Q-421.7 105.2 -429.75 97.3 L-430.35 97.3 Q-438.55 97.3 -444.3 91.55 -450.0 85.8 -450.0 77.65 -450.0 69.5 -444.3 63.75 L-444.25 63.75 Q-438.5 58.0 -430.35 58.0 L-430.05 58.0 -429.95 57.9 Q-421.8 49.8 -410.35 49.8 L-408.7 49.8 Q-407.3 45.5 -403.85 42.05 L-403.85 42.0 Q-398.25 36.45 -390.45 36.3 -388.85 31.65 -385.1 27.9 L-385.05 27.85 Q-378.5 21.3 -369.15 21.3 -362.7 21.3 -357.55 24.5 -356.05 21.85 -353.75 19.55 L-353.75 19.5 Q-347.25 13.05 -338.1 13.1 -328.95 13.05 -322.5 19.5 -317.45 24.6 -316.3 31.35 M-311.65 39.45 Q-315.45 35.65 -320.5 35.0 -320.6 27.8 -325.7 22.7 -330.85 17.55 -338.1 17.55 -345.4 17.55 -350.55 22.7 -354.6 26.75 -355.45 32.15 L-356.5 31.05 Q-361.75 25.8 -369.15 25.8 -376.6 25.8 -381.9 31.05 -386.15 35.3 -386.95 41.05 L-389.95 40.8 Q-396.25 40.75 -400.7 45.2 -404.55 49.05 -405.05 54.3 L-410.35 54.3 Q-419.95 54.25 -426.75 61.05 L-428.2 62.6 -430.35 62.5 Q-436.65 62.5 -441.1 66.9 -445.55 71.35 -445.55 77.65 -445.55 83.95 -441.1 88.35 -436.65 92.8 -430.35 92.8 L-427.95 92.65 -426.75 93.9 Q-419.95 100.7 -410.35 100.7 L-317.5 100.7 Q-307.9 100.7 -301.15 93.9 -294.35 87.1 -294.3 77.5 -294.35 67.85 -301.15 61.05 -304.3 57.9 -308.05 56.2 -307.05 53.6 -307.05 50.55 -307.05 44.05 -311.65 39.45" fill="#ffffff" fill-opacity="0.101960786" fill-rule="evenodd" stroke="none"/>
    <path d="M73.1 -83.35 Q84.0 -83.35 91.7 -75.65 96.55 -70.85 98.35 -64.75 L103.7 -64.75 Q110.5 -64.75 115.35 -59.9 119.35 -55.9 120.05 -50.5 L142.25 -50.5 Q150.45 -50.55 156.3 -44.7 162.1 -38.95 162.1 -30.7 162.1 -22.45 156.3 -16.65 150.45 -10.85 142.25 -10.85 L23.95 -10.85 Q15.7 -10.85 9.95 -16.65 4.1 -22.45 4.15 -30.7 4.1 -38.95 9.95 -44.7 12.4 -47.2 15.35 -48.65 15.5 -55.25 20.2 -59.9 23.05 -62.8 26.65 -63.95 L26.6 -65.7 Q26.55 -73.05 31.8 -78.25 37.0 -83.5 44.35 -83.45 51.7 -83.5 56.95 -78.25 L57.15 -78.05 Q64.0 -83.35 73.1 -83.35 M393.45 -96.6 Q398.25 -101.45 405.05 -101.45 411.85 -101.45 416.7 -96.6 420.55 -92.8 421.35 -87.65 425.7 -86.8 429.0 -83.45 433.35 -79.1 433.5 -72.95 437.35 -71.8 440.45 -68.7 445.5 -63.65 445.5 -56.5 445.5 -49.35 440.45 -44.35 435.4 -39.3 428.25 -39.3 L351.9 -39.3 Q344.75 -39.3 339.7 -44.35 334.7 -49.35 334.7 -56.5 334.7 -63.65 339.7 -68.7 344.75 -73.75 351.9 -73.75 L357.25 -73.75 Q359.05 -78.4 362.9 -82.25 370.15 -89.45 380.35 -89.45 384.9 -89.45 388.85 -88.05 389.7 -92.9 393.45 -96.6 M264.05 39.25 Q268.3 43.5 269.65 48.95 274.35 49.55 277.9 53.1 282.2 57.4 282.2 63.45 L282.2 63.8 291.9 63.8 Q300.25 63.8 306.2 69.75 312.15 75.7 312.15 84.05 312.15 92.35 306.2 98.3 300.25 104.25 291.9 104.25 L222.3 104.25 Q213.95 104.25 208.0 98.3 202.1 92.35 202.1 84.05 202.1 75.7 208.0 69.75 211.7 66.05 216.35 64.65 L216.3 63.45 Q216.3 57.4 220.6 53.1 224.15 49.55 228.85 48.95 230.15 43.5 234.45 39.25 240.55 33.1 249.25 33.1 257.9 33.1 264.05 39.25 M33.5 136.7 Q33.5 144.45 28.0 149.9 22.5 155.4 14.75 155.4 L-121.45 155.4 Q-129.2 155.4 -134.7 149.9 -140.15 144.45 -140.15 136.7 -140.15 128.95 -134.7 123.45 -131.1 119.9 -126.6 118.65 -126.0 111.65 -120.85 106.55 -115.1 100.75 -106.85 100.75 -103.75 100.75 -101.0 101.55 -100.0 93.0 -93.6 86.6 -86.0 79.0 -75.2 79.0 -64.45 79.0 -56.85 86.6 L-55.2 88.35 Q-49.65 83.0 -41.85 83.0 -33.85 83.0 -28.2 88.65 -22.55 94.3 -22.55 102.35 -16.7 103.05 -12.4 107.35 -7.95 111.85 -7.4 118.0 L14.75 118.0 Q22.5 118.0 28.0 123.45 33.5 128.95 33.5 136.7 M-215.55 -147.9 Q-208.05 -155.4 -197.4 -155.4 -186.75 -155.4 -179.25 -147.9 -172.1 -140.75 -171.75 -130.7 L-165.75 -130.7 Q-159.1 -130.7 -154.4 -125.95 -149.7 -121.25 -149.65 -114.6 L-149.8 -112.55 Q-145.45 -111.15 -142.0 -107.65 -136.2 -101.9 -136.2 -93.65 -136.2 -85.4 -142.0 -79.6 -147.8 -73.8 -156.05 -73.8 L-288.55 -73.8 Q-296.8 -73.8 -302.55 -79.6 -308.4 -85.4 -308.35 -93.65 -308.4 -101.9 -302.55 -107.65 -296.8 -113.5 -288.55 -113.45 L-269.4 -113.45 -269.45 -114.6 Q-269.45 -121.25 -264.7 -125.95 -260.65 -130.05 -255.1 -130.6 -254.4 -137.9 -249.05 -143.25 -242.85 -149.45 -234.05 -149.4 -225.4 -149.4 -219.25 -143.3 -217.7 -145.75 -215.55 -147.9 M-311.65 39.45 Q-307.05 44.05 -307.05 50.55 -307.05 53.6 -308.05 56.2 -304.3 57.9 -301.15 61.05 -294.35 67.85 -294.3 77.5 -294.35 87.1 -301.15 93.9 -307.9 100.7 -317.5 100.7 L-410.35 100.7 Q-419.95 100.7 -426.75 93.9 L-427.95 92.65 -430.35 92.8 Q-436.65 92.8 -441.1 88.35 -445.55 83.95 -445.55 77.65 -445.55 71.35 -441.1 66.9 -436.65 62.5 -430.35 62.5 L-428.2 62.6 -426.75 61.05 Q-419.95 54.25 -410.35 54.3 L-405.05 54.3 Q-404.55 49.05 -400.7 45.2 -396.25 40.75 -389.95 40.8 L-386.95 41.05 Q-386.15 35.3 -381.9 31.05 -376.6 25.8 -369.15 25.8 -361.75 25.8 -356.5 31.05 L-355.45 32.15 Q-354.6 26.75 -350.55 22.7 -345.4 17.55 -338.1 17.55 -330.85 17.55 -325.7 22.7 -320.6 27.8 -320.5 35.0 -315.45 35.65 -311.65 39.45" fill="#ffffff" fill-opacity="0.3019608" fill-rule="evenodd" stroke="none"/>
  </g>
</svg>
