<?xml version="1.0" encoding="UTF-8" standalone="no"?>
<svg xmlns:ffdec="https://www.free-decompiler.com/flash" xmlns:xlink="http://www.w3.org/1999/xlink" ffdec:objectType="shape" height="520.0px" width="520.0px" xmlns="http://www.w3.org/2000/svg">
  <g transform="matrix(1.0, 0.0, 0.0, 1.0, 260.0, 260.0)">
    <path d="M30.0 -240.0 L30.0 -60.0 10.0 -40.0 10.0 -17.35 Q12.2 -16.1 14.15 -14.15 20.0 -8.3 20.0 0.0 20.0 8.3 14.15 14.15 L10.0 17.4 10.0 40.0 30.0 60.0 30.0 240.0 0.0 260.0 -30.0 240.0 -30.0 60.0 -10.0 40.0 -10.0 17.4 -14.15 14.15 Q-20.0 8.3 -20.0 0.0 -20.0 -8.3 -14.15 -14.15 -12.2 -16.1 -10.0 -17.35 L-10.0 -40.0 -30.0 -60.0 -30.0 -240.0 0.0 -260.0 30.0 -240.0" fill="#000000" fill-rule="evenodd" stroke="none"/>
    <path d="M14.15 -14.15 Q16.1 -12.2 17.35 -10.0 L40.0 -10.0 60.0 -30.0 240.0 -30.0 260.0 0.0 240.0 30.0 60.0 30.0 40.0 10.0 17.35 10.0 Q16.1 12.2 14.15 14.15 8.3 20.0 0.0 20.0 -8.3 20.0 -14.15 14.15 -16.1 12.2 -17.4 10.0 L-40.0 10.0 -60.0 30.0 -240.0 30.0 -260.0 0.0 -240.0 -30.0 -60.0 -30.0 -40.0 -10.0 -17.4 -10.0 Q-16.1 -12.2 -14.15 -14.15 -8.3 -20.0 0.0 -20.0 8.3 -20.0 14.15 -14.15" fill="#000000" fill-rule="evenodd" stroke="none"/>
  </g>
</svg>
