<?xml version="1.0" encoding="UTF-8" standalone="no"?>
<svg xmlns:ffdec="https://www.free-decompiler.com/flash" xmlns:xlink="http://www.w3.org/1999/xlink" ffdec:objectType="shape" height="726.7px" width="1260.1px" xmlns="http://www.w3.org/2000/svg">
  <g transform="matrix(1.0, 0.0, 0.0, 1.0, 630.05, 0.0)">
    <path d="M621.35 126.8 Q634.15 126.8 628.15 141.4 626.6 145.05 618.35 158.0 590.5 201.5 547.5 230.1 545.2 223.65 554.05 209.25 561.35 197.25 599.25 151.45 608.4 136.65 609.65 135.1 615.8 126.75 621.35 126.8 M419.05 72.3 Q425.25 56.0 428.6 49.8 435.05 37.7 445.1 28.6 L447.85 28.6 Q456.5 28.55 444.1 63.95 L430.75 97.4 Q423.25 114.0 375.1 160.7 324.0 208.55 308.8 223.45 297.25 224.0 297.35 215.25 297.35 212.3 300.15 204.8 304.55 192.85 336.7 165.8 L364.2 143.15 Q380.25 129.85 388.1 122.15 400.25 110.0 408.1 96.3 413.35 87.15 419.05 72.3 M478.25 210.55 Q477.6 216.3 475.6 220.05 468.15 233.7 457.9 242.2 452.4 246.7 438.75 254.55 425.65 262.1 418.15 268.7 406.6 278.85 397.5 294.35 384.5 316.7 366.2 334.1 344.1 354.9 326.0 354.95 302.05 354.95 300.05 343.8 299.45 340.15 301.15 335.75 302.05 333.4 303.25 331.45 306.55 323.65 308.95 319.7 309.65 319.65 316.0 314.85 316.15 316.8 318.75 320.35 321.15 323.65 322.05 323.65 362.15 323.6 382.25 294.45 392.9 279.0 395.65 262.35 401.7 249.85 407.95 242.95 413.35 236.85 422.3 231.6 427.95 228.25 443.5 220.2 460.2 211.1 477.05 199.8 478.9 204.0 478.25 210.55 M441.4 378.3 Q413.35 395.75 399.2 404.7 348.45 436.75 321.85 459.3 286.0 489.75 271.5 519.4 270.7 521.05 271.95 523.2 L274.85 527.35 Q279.1 533.2 276.8 537.7 275.35 540.5 259.35 551.95 233.85 570.1 224.55 577.3 175.55 614.95 157.95 646.45 141.9 675.1 130.85 689.45 113.75 711.55 91.25 726.7 86.65 724.5 87.55 721.9 88.0 720.5 95.5 712.2 L113.15 692.7 Q142.4 660.0 151.3 644.35 154.0 635.35 164.85 621.5 L174.65 609.45 Q180.7 601.95 184.2 596.95 187.0 590.2 197.9 582.25 205.5 576.6 221.0 567.9 239.8 557.25 244.4 554.3 255.8 547.0 258.3 541.95 259.2 540.0 258.85 532.8 258.45 525.5 261.05 520.15 269.45 502.45 306.35 463.1 345.65 421.15 367.2 406.55 L424.05 367.2 Q448.9 350.75 474.7 339.15 493.35 330.75 506.7 319.85 517.0 311.3 526.3 299.35 L541.0 279.3 Q549.65 268.1 558.9 261.45 556.1 273.8 544.65 291.4 526.2 319.65 481.85 351.3 465.85 362.7 441.4 378.3 M559.85 384.85 Q561.3 382.55 566.9 375.9 580.15 357.9 588.3 357.9 603.25 357.85 597.3 373.65 594.25 381.85 587.65 390.45 575.15 406.6 551.3 419.8 526.95 433.25 476.95 451.55 515.3 451.55 518.65 461.75 519.75 465.15 516.85 469.8 L512.3 475.75 Q503.15 487.75 491.05 496.85 480.35 504.85 463.9 513.15 452.6 518.8 428.1 529.45 396.55 543.25 382.15 549.9 360.65 559.7 335.45 581.65 309.8 605.3 296.7 615.45 L286.85 621.85 274.4 629.15 Q258.8 638.5 254.75 644.0 252.75 646.75 246.2 657.15 241.05 665.35 237.0 670.2 228.05 680.75 220.3 688.05 L209.6 697.45 Q204.45 701.8 201.75 705.0 198.0 709.4 194.4 716.3 193.05 718.9 191.35 720.45 189.3 722.25 185.6 723.8 180.35 721.15 183.25 715.35 185.0 711.85 192.1 705.15 L208.1 690.1 Q234.05 664.8 250.4 634.7 250.75 634.05 260.4 627.8 L284.15 612.3 Q324.25 585.35 346.75 563.45 355.0 555.4 375.65 544.7 387.35 538.6 418.35 524.45 448.45 510.65 462.95 502.95 486.25 490.45 496.5 480.2 447.85 478.05 438.7 471.7 435.6 469.5 437.05 466.8 437.8 465.3 439.9 463.2 445.35 454.9 457.05 447.05 467.2 440.15 484.75 431.95 495.6 426.9 521.85 415.85 550.95 403.5 567.8 395.9 L574.4 389.75 Q574.1 388.45 570.3 388.35 L561.65 388.4 Q557.5 388.4 559.85 384.85 M141.3 373.45 Q146.25 362.45 160.05 353.4 178.0 341.4 206.25 310.9 L228.0 287.15 Q239.9 274.6 247.3 268.55 248.85 272.85 248.8 275.85 248.75 279.35 246.65 285.45 242.95 295.9 208.2 332.3 187.25 354.25 171.85 368.75 160.05 379.5 152.75 390.3 L142.95 406.75 Q137.65 415.45 130.6 421.7 121.5 429.75 105.1 438.3 98.0 441.95 90.35 450.15 L76.75 466.05 Q58.6 487.35 39.5 495.9 34.3 498.3 10.8 519.65 -13.1 541.45 -13.8 547.3 -14.1 549.8 -12.05 559.4 -10.1 568.7 -10.95 575.5 -13.9 598.25 -23.05 614.35 -29.15 625.15 -40.7 636.6 L-49.45 645.15 Q-54.15 649.85 -56.9 653.45 -64.15 662.75 -64.8 673.25 -65.75 688.25 -58.55 697.7 L-53.75 704.05 Q-51.65 707.5 -52.0 711.4 -52.35 715.5 -52.95 716.8 -54.75 720.6 -60.4 722.45 -62.55 713.2 -65.3 705.95 -66.8 701.9 -69.25 696.3 -71.1 691.7 -71.65 687.5 -72.4 682.2 -71.95 673.1 -71.25 658.55 -63.95 647.25 -59.65 640.5 -47.65 629.0 -35.6 617.35 -30.35 609.05 -21.6 595.1 -19.25 575.25 -19.0 572.85 -21.2 565.05 -23.55 557.05 -22.6 548.55 -21.55 538.75 -20.35 534.6 -18.9 529.4 -15.4 524.95 -12.35 521.05 -4.15 513.4 L17.65 493.25 Q20.55 490.45 40.15 478.15 60.3 465.45 64.4 461.55 71.75 454.4 78.55 444.9 L89.2 429.0 Q91.5 425.4 110.95 411.8 130.55 398.05 134.15 391.85 137.7 385.5 141.3 373.45 M214.75 423.85 L183.45 457.35 Q141.1 502.7 135.15 514.1 123.95 535.15 111.15 548.55 103.1 556.95 90.7 565.6 78.3 574.3 74.6 578.1 67.45 585.5 64.85 596.35 64.0 599.75 66.5 603.95 68.0 606.4 72.15 611.8 80.15 623.05 76.95 634.7 73.6 646.75 62.05 655.2 54.05 661.0 39.1 666.8 L27.55 671.1 Q21.15 673.5 17.5 675.3 7.7 680.05 6.7 685.6 5.15 694.05 9.2 704.5 11.35 709.95 11.8 711.9 12.8 715.9 12.1 719.45 11.45 722.8 7.6 725.7 -2.15 720.8 -2.8 707.55 -3.1 701.75 -0.25 685.0 1.95 672.0 12.1 665.35 18.9 660.9 33.6 657.75 L44.9 655.25 Q51.05 653.7 55.15 651.75 65.65 646.65 68.65 635.45 69.45 632.45 67.1 628.2 L61.35 619.7 Q52.75 607.1 55.2 596.55 56.45 591.05 73.7 562.15 80.2 551.9 96.8 541.45 L110.55 533.15 Q118.55 528.35 122.8 525.1 122.55 520.9 118.2 517.55 114.55 514.75 115.75 510.5 116.3 508.55 122.35 503.65 L136.9 492.25 Q161.15 472.85 174.2 454.5 206.0 409.25 230.8 392.55 232.25 395.85 232.25 398.1 232.25 400.85 230.45 405.55 229.6 407.75 214.75 423.85 M-138.05 189.9 Q-137.35 194.2 -136.85 210.25 -136.15 231.1 -142.7 251.5 L-146.4 252.4 Q-150.55 243.4 -150.4 232.1 L-149.7 212.7 Q-150.1 204.05 -162.5 194.4 -168.05 190.0 -190.3 176.55 -210.0 164.55 -219.3 155.85 -233.2 142.7 -234.8 128.5 -236.1 117.4 -234.55 110.6 -232.95 103.5 -227.45 97.15 -222.85 91.7 -211.45 82.4 L-184.3 60.1 Q-180.2 66.35 -178.75 70.7 -177.05 75.8 -176.5 84.6 -174.9 110.6 -202.0 125.6 -153.65 160.6 -144.4 173.95 -139.4 181.15 -138.05 189.9 M-315.0 340.7 Q-297.95 366.35 -285.45 396.4 -274.3 423.3 -269.55 447.1 -268.95 450.1 -269.15 461.25 -269.35 472.1 -268.75 474.9 -265.2 492.15 -230.3 526.7 L-208.1 548.35 Q-198.4 558.1 -198.0 561.05 -197.6 564.1 -200.0 577.3 -202.3 590.05 -201.6 594.9 -201.05 598.7 -197.5 603.1 -195.25 605.9 -189.85 610.9 L-181.8 618.9 Q-177.65 623.45 -176.2 627.45 -168.4 649.25 -167.0 656.05 -156.0 695.85 -155.0 706.35 -154.45 712.8 -154.55 714.45 -154.9 719.8 -158.2 721.35 -160.7 719.75 -161.45 713.4 -161.85 710.15 -161.8 706.35 -163.85 686.5 -170.3 669.85 -174.4 659.25 -184.25 641.9 -194.8 623.3 -199.4 611.8 -207.7 591.25 -211.9 563.7 -212.75 557.95 -234.3 541.95 L-249.95 530.35 Q-257.5 524.55 -258.35 522.65 L-269.95 499.3 Q-279.45 480.3 -280.0 477.7 -280.65 474.85 -280.0 464.1 -279.35 453.0 -279.95 450.05 -282.0 440.5 -299.1 405.5 L-302.35 398.8 Q-317.85 367.1 -318.7 363.35 -322.65 346.6 -315.45 341.0 L-315.0 340.7 M-115.35 289.55 Q-114.15 293.0 -114.1 298.95 -114.05 304.8 -118.7 324.75 L-123.2 343.0 Q-117.5 431.5 -116.8 470.7 -116.7 478.0 -105.85 519.95 -96.1 557.7 -96.15 567.9 -96.2 571.35 -100.45 587.05 L-109.3 619.45 Q-120.7 663.5 -120.0 686.55 -119.85 692.55 -118.4 696.2 L-115.25 701.45 Q-110.9 707.85 -110.7 719.45 -110.7 720.5 -111.7 722.25 -113.1 724.65 -115.55 725.7 -119.95 712.7 -124.95 703.4 -126.0 701.4 -126.35 699.0 L-126.95 687.95 Q-127.1 684.65 -126.1 665.35 -124.9 641.75 -123.45 632.6 -123.85 621.85 -114.55 599.7 -109.25 587.05 -107.7 582.8 -104.55 573.7 -104.6 567.9 -104.6 558.15 -107.65 546.45 -109.35 540.2 -114.7 524.4 -119.9 509.2 -122.25 499.5 -125.95 484.15 -126.4 468.95 -127.0 449.65 -130.75 409.1 -134.9 364.5 -135.75 340.7 -136.1 331.35 -130.2 308.95 -123.8 284.6 -119.45 282.5 -116.35 286.65 -115.35 289.55 M-455.2 196.35 Q-448.7 210.45 -453.55 223.45 -406.6 230.3 -390.6 246.85 -384.65 253.05 -381.45 262.15 L-377.1 278.15 Q-372.85 293.75 -372.45 297.35 -371.25 308.3 -377.25 314.05 -394.65 298.3 -391.6 276.4 -397.45 271.25 -408.4 270.45 L-428.8 270.25 Q-441.35 269.8 -449.35 265.65 -460.15 260.0 -467.4 246.0 -470.4 239.85 -473.0 227.1 -476.15 212.1 -477.3 208.75 -478.3 205.95 -505.65 173.95 -538.65 135.4 -554.15 111.7 -568.85 89.15 -603.5 46.0 L-606.1 42.75 Q-654.0 -6.1 -606.1 0.85 -596.2 13.05 -584.05 30.45 -572.25 47.55 -553.6 76.6 L-529.25 114.05 Q-520.8 126.2 -503.2 143.05 L-474.95 170.0 Q-460.5 184.85 -455.2 196.35 M-610.45 384.95 Q-610.3 380.75 -600.9 380.8 -530.0 380.75 -440.95 460.35 -437.55 468.65 -440.05 474.1 -406.85 481.1 -399.5 483.6 -396.2 484.75 -395.35 485.8 L-394.6 487.85 Q-392.3 494.2 -394.6 499.35 -396.2 502.85 -400.9 507.2 -406.4 512.3 -407.5 513.8 -410.15 517.5 -408.6 521.35 -408.25 522.25 -364.55 543.75 -318.15 566.5 -305.15 573.95 -285.8 585.05 -270.65 598.3 -254.2 612.75 -252.05 622.25 -251.05 626.75 -250.5 633.25 L-249.75 644.2 Q-248.75 657.05 -244.35 664.4 L-241.3 669.0 Q-237.55 674.6 -233.75 678.7 -230.95 681.75 -226.05 685.9 -222.15 689.15 -220.6 691.35 -218.35 694.65 -217.25 700.15 L-216.0 707.05 Q-215.65 710.6 -216.75 713.35 -218.95 718.6 -228.9 724.05 -231.3 725.35 -234.15 726.7 L-236.45 724.75 Q-237.3 723.75 -237.75 721.9 -238.5 718.75 -236.15 716.55 -235.35 715.7 -231.35 713.35 L-230.7 713.0 Q-226.85 710.7 -225.35 708.4 -223.15 705.1 -224.2 700.0 -225.4 694.3 -229.05 690.45 -230.85 688.6 -236.75 684.5 L-238.05 683.5 Q-242.6 680.25 -245.15 677.1 -249.6 671.5 -252.0 662.7 -253.55 656.8 -254.4 641.45 -256.2 627.0 -263.2 620.35 -279.75 604.65 -305.75 589.8 -321.4 580.8 -353.35 565.7 -383.1 551.6 -394.7 544.35 -413.55 532.45 -418.55 520.4 -421.8 512.5 -422.1 510.55 -422.8 506.15 -420.1 498.55 L-419.75 498.0 Q-447.85 493.45 -454.7 490.15 -458.55 488.4 -460.65 485.5 -461.95 483.65 -464.35 478.25 -467.55 471.1 -467.8 469.6 -468.45 465.55 -464.35 462.1 -476.95 448.9 -508.7 425.9 -511.0 424.25 -515.6 419.5 -519.2 415.8 -522.8 414.05 -533.45 408.95 -565.65 409.85 -587.6 410.2 -597.55 404.6 -602.25 401.9 -606.0 395.2 -610.5 387.3 -610.45 384.95" fill="url(#gradient0)" fill-rule="evenodd" stroke="none"/>
  </g>
  <defs>
    <linearGradient gradientTransform="matrix(0.0, 0.4618, -0.7788, 0.0, -7.9, 371.45)" gradientUnits="userSpaceOnUse" id="gradient0" spreadMethod="pad" x1="-819.2" x2="819.2">
      <stop offset="0.0" stop-color="#ffffff" stop-opacity="0.0"/>
      <stop offset="1.0" stop-color="#ffffff" stop-opacity="0.09019608"/>
    </linearGradient>
  </defs>
</svg>
