<?xml version="1.0" encoding="UTF-8" standalone="no"?>
<svg xmlns:ffdec="https://www.free-decompiler.com/flash" xmlns:xlink="http://www.w3.org/1999/xlink" ffdec:objectType="shape" height="114.15px" width="172.1px" xmlns="http://www.w3.org/2000/svg">
  <g transform="matrix(1.0, 0.0, 0.0, 1.0, 86.05, 0.0)">
    <path d="M25.85 1.35 L35.7 16.55 45.2 30.7 Q54.85 44.75 64.95 58.5 75.25 72.6 86.05 86.35 L68.5 86.35 37.6 30.7 28.35 30.7 65.45 114.15 46.9 114.15 19.05 30.7 9.75 30.7 22.15 86.35 6.7 86.35 0.5 30.7 -8.75 30.7 -8.75 58.5 -21.15 58.5 -18.05 30.7 -27.3 30.7 -24.2 16.55 -31.9 16.55 -45.9 58.5 -58.25 58.5 -70.6 86.35 -86.05 86.35 -55.15 30.7 -63.65 30.7 -53.4 16.55 -43.05 1.3 -42.2 0.05 -27.45 0.05 -26.8 0.05 25.05 0.05 25.85 1.35" fill="url(#gradient0)" fill-rule="evenodd" stroke="none"/>
  </g>
  <defs>
    <linearGradient gradientTransform="matrix(0.0, 0.0635, -0.105, 0.0, 0.0, 56.0)" gradientUnits="userSpaceOnUse" id="gradient0" spreadMethod="pad" x1="-819.2" x2="819.2">
      <stop offset="0.0" stop-color="#ffcc00"/>
      <stop offset="1.0" stop-color="#ff0000"/>
    </linearGradient>
  </defs>
</svg>
