<?xml version="1.0" encoding="UTF-8" standalone="no"?>
<svg xmlns:ffdec="https://www.free-decompiler.com/flash" xmlns:xlink="http://www.w3.org/1999/xlink" ffdec:objectType="shape" height="860.0px" width="1073.7px" xmlns="http://www.w3.org/2000/svg">
  <g transform="matrix(1.0, 0.0, 0.0, 1.0, 585.75, 700.0)">
    <path d="M-95.25 100.0 L-95.25 54.85 -80.75 54.85 -80.75 40.35 -66.2 40.35 -66.2 -206.45 -73.45 -206.45 -73.45 -256.9 -81.55 -261.6 -81.55 -282.05 Q-100.45 -287.45 -115.4 -302.4 -136.2 -323.2 -138.5 -351.6 L-127.35 -351.6 -127.35 -366.1 -138.5 -366.1 Q-136.2 -394.55 -115.4 -415.3 -99.85 -430.85 -80.05 -436.05 L-80.05 -456.0 -66.2 -464.0 -66.2 -511.25 -51.7 -511.25 -51.7 -464.0 -37.85 -456.0 -37.85 -436.05 Q-18.05 -430.85 -2.5 -415.3 18.25 -394.55 20.6 -366.1 L10.55 -366.1 10.55 -351.6 20.6 -351.6 Q18.25 -323.2 -2.5 -302.4 -17.45 -287.5 -36.3 -282.1 L-36.3 -261.6 -44.45 -256.9 -44.45 -206.45 -51.7 -206.45 -51.7 40.35 -37.2 40.35 -37.2 54.85 -22.65 54.85 -22.65 100.0 -95.25 100.0" fill="#555555" fill-rule="evenodd" stroke="none"/>
    <path d="M-95.25 100.0 L-22.65 100.0 -22.65 160.0 -95.25 160.0 -95.25 100.0" fill="#666666" fill-rule="evenodd" stroke="none"/>
    <path d="M-469.8 -409.65 L-455.3 -409.65 -455.3 -426.2 Q-462.4 -424.85 -469.8 -424.4 L-469.8 -409.65 M-498.85 -426.2 L-498.85 -409.65 -484.35 -409.65 -484.35 -424.4 Q-491.8 -424.85 -498.85 -426.2 M-484.35 -700.0 L-469.8 -700.0 -469.8 -659.35 -445.8 -645.5 -445.8 -637.65 Q-420.3 -630.25 -400.05 -610.05 -370.8 -580.75 -368.45 -540.3 L-379.8 -540.3 -379.8 -525.8 -368.45 -525.8 Q-370.8 -485.35 -400.05 -456.1 -418.3 -437.9 -440.8 -430.05 L-440.8 -395.15 -426.25 -395.15 -426.25 -380.65 -437.9 -380.65 -437.9 -366.1 -426.25 -366.1 -426.25 -351.6 -437.9 -351.6 -437.9 -337.1 -426.25 -337.1 -426.25 -322.55 -437.9 -322.55 -437.9 -308.05 Q-437.9 -306.85 -438.75 -306.0 -439.6 -305.15 -440.8 -305.15 L-440.8 -293.55 -455.3 -293.55 -455.3 -279.0 -469.8 -279.0 -469.8 -75.8 -455.3 -75.8 -455.3 11.3 -448.05 11.3 -448.05 40.35 -433.55 40.35 -433.55 160.0 -520.65 160.0 -520.65 40.35 -506.1 40.35 -506.1 11.3 -498.85 11.3 -498.85 -75.8 -484.35 -75.8 -484.35 -279.0 -498.85 -279.0 -498.85 -293.55 -513.35 -293.55 -513.35 -305.15 Q-514.6 -305.15 -515.4 -306.0 -516.3 -306.85 -516.25 -308.05 L-516.25 -322.55 -527.9 -322.55 -527.9 -337.1 -516.25 -337.1 -516.25 -351.6 -527.9 -351.6 -527.9 -366.1 -516.25 -366.1 -516.25 -380.65 -527.9 -380.65 -527.9 -395.15 -513.35 -395.15 -513.35 -430.05 Q-535.85 -437.9 -554.05 -456.1 -583.35 -485.35 -585.75 -525.8 L-574.35 -525.8 -574.35 -540.3 -585.75 -540.3 Q-583.35 -580.75 -554.05 -610.05 -533.95 -630.2 -508.55 -637.6 L-508.55 -645.5 -484.35 -659.5 -484.35 -700.0" fill="#555555" fill-rule="evenodd" stroke="none"/>
    <path d="M423.25 -509.95 L423.25 -500.1 Q440.25 -491.75 454.75 -477.25 483.5 -448.5 487.95 -409.65 L475.7 -409.65 475.7 -397.65 476.3 -397.2 Q477.15 -396.35 477.15 -395.15 L477.15 -380.65 487.95 -380.65 Q483.5 -341.8 454.75 -313.0 426.0 -284.3 387.15 -279.85 L387.15 -262.8 Q402.1 -259.15 413.75 -247.5 425.45 -235.75 429.1 -220.65 427.7 -220.05 426.6 -218.45 427.8 -212.7 427.8 -206.45 427.8 -200.2 426.6 -194.45 427.7 -192.85 429.1 -192.25 425.45 -177.15 413.75 -165.4 L408.75 -160.9 408.75 -152.1 387.15 -139.65 387.15 -90.3 379.9 -90.3 379.9 -17.75 394.4 -17.75 394.4 -3.2 408.95 -3.2 408.95 160.0 336.35 160.0 336.35 -3.2 350.9 -3.2 350.9 -17.75 365.4 -17.75 365.4 -90.3 358.15 -90.3 358.15 -139.65 336.6 -152.1 336.6 -160.9 331.6 -165.4 Q319.85 -177.15 316.2 -192.25 317.55 -192.85 318.7 -194.45 317.5 -200.2 317.5 -206.45 317.5 -212.7 318.7 -218.45 317.55 -220.05 316.2 -220.65 319.85 -235.75 331.6 -247.5 343.2 -259.15 358.15 -262.8 L358.15 -279.85 Q319.25 -284.3 290.5 -313.0 261.75 -341.8 257.35 -380.65 L268.15 -380.65 268.15 -409.65 257.35 -409.65 Q261.75 -448.5 290.5 -477.25 305.0 -491.8 322.1 -500.1 L322.1 -509.95 365.4 -534.95 365.4 -554.8 379.9 -554.8 379.9 -535.0 Q401.55 -522.5 423.25 -509.95" fill="#555555" fill-rule="evenodd" stroke="none"/>
    <path d="M57.8 -511.25 L72.3 -511.25 72.3 -464.0 86.15 -456.0 86.15 -436.05 Q105.95 -430.85 121.5 -415.3 142.25 -394.55 144.6 -366.1 L134.55 -366.1 134.55 -351.6 144.6 -351.6 Q142.25 -323.2 121.5 -302.4 106.55 -287.5 87.7 -282.1 L87.7 -261.6 79.55 -256.9 79.55 -206.45 72.3 -206.45 72.3 40.35 86.8 40.35 86.8 54.85 101.35 54.85 101.35 160.0 28.75 160.0 28.75 54.85 43.25 54.85 43.25 40.35 57.8 40.35 57.8 -206.45 50.55 -206.45 50.55 -256.9 42.45 -261.6 42.45 -282.05 Q23.55 -287.45 8.6 -302.4 -12.2 -323.2 -14.5 -351.6 L-3.35 -351.6 -3.35 -366.1 -14.5 -366.1 Q-12.2 -394.55 8.6 -415.3 24.15 -430.85 43.95 -436.05 L43.95 -456.0 57.8 -464.0 57.8 -511.25" fill="#555555" fill-rule="evenodd" stroke="none"/>
  </g>
</svg>
