<?xml version="1.0" encoding="UTF-8" standalone="no"?>
<svg xmlns:ffdec="https://www.free-decompiler.com/flash" xmlns:xlink="http://www.w3.org/1999/xlink" ffdec:objectType="shape" height="1260.05px" width="1190.0px" xmlns="http://www.w3.org/2000/svg">
  <g transform="matrix(1.0, 0.0, 0.0, 1.0, 600.0, 1100.0)">
    <path d="M590.0 160.05 L-600.0 160.05 -600.0 -660.0 590.0 -660.0 590.0 160.05" fill="url(#gradient0)" fill-rule="evenodd" stroke="none"/>
    <path d="M-358.2 -416.5 Q-359.8 -418.75 -361.65 -419.55 -356.7 -440.4 -340.5 -456.6 -324.45 -472.6 -303.9 -477.65 L-303.9 -501.1 Q-357.45 -507.25 -397.05 -546.85 -436.65 -586.45 -442.75 -640.0 L-427.9 -640.0 -427.9 -660.0 Q-427.9 -661.65 -426.7 -662.8 L-425.9 -663.45 -425.9 -680.0 -442.75 -680.0 Q-436.65 -733.55 -397.05 -773.15 -377.1 -793.1 -353.6 -804.55 L-353.6 -818.2 -293.9 -852.7 -293.9 -880.0 -289.0 -880.0 -289.0 -895.0 Q-289.0 -897.05 -287.55 -898.55 -286.05 -900.0 -284.0 -900.0 -281.9 -900.0 -280.45 -898.55 -279.0 -897.05 -279.0 -895.0 L-279.0 -880.0 -273.9 -880.0 -273.9 -852.65 -214.25 -818.2 -214.25 -804.6 Q-190.75 -793.15 -170.75 -773.15 -131.15 -733.55 -125.0 -680.0 L-139.9 -680.0 -139.9 -640.0 -125.0 -640.0 Q-131.15 -586.45 -170.75 -546.85 -210.35 -507.25 -263.9 -501.1 L-263.9 -477.65 Q-243.35 -472.6 -227.35 -456.6 -211.15 -440.4 -206.1 -419.55 -208.0 -418.75 -209.55 -416.5 L-210.95 -414.15 Q-213.9 -408.3 -213.9 -400.0 -213.9 -391.7 -210.95 -385.85 L-209.55 -383.45 Q-208.0 -381.25 -206.1 -380.45 -211.15 -359.65 -227.35 -343.45 -230.7 -340.1 -234.2 -337.25 L-234.2 -325.15 -263.9 -308.0 -263.9 -240.0 -273.9 -240.0 -273.9 -140.0 -253.9 -140.0 -253.9 -120.0 -233.9 -120.0 -233.9 160.0 -333.9 160.0 -333.9 -120.0 -313.9 -120.0 -313.9 -140.0 -293.9 -140.0 -293.9 -240.0 -303.9 -240.0 -303.9 -307.95 -333.65 -325.15 -333.65 -337.25 Q-337.15 -340.1 -340.5 -343.45 -356.7 -359.65 -361.65 -380.45 -359.8 -381.25 -358.2 -383.45 L-356.8 -385.85 Q-353.9 -391.7 -353.9 -400.0 -353.9 -408.3 -356.8 -414.15 L-358.2 -416.5 M-147.9 -664.0 L-147.9 -676.0 -417.9 -676.0 -417.9 -664.0 -147.9 -664.0 M-147.9 -644.0 L-147.9 -656.0 -419.9 -656.0 -419.9 -644.0 -147.9 -644.0 M-188.8 -748.45 Q-191.85 -750.45 -194.8 -749.4 -197.7 -748.35 -198.75 -744.8 -199.85 -741.35 -198.4 -737.4 -197.0 -733.5 -193.9 -731.5 -190.85 -729.55 -187.95 -730.6 -185.05 -731.65 -183.95 -735.15 -182.9 -738.65 -184.3 -742.55 -185.75 -746.45 -188.8 -748.45 M-234.1 -749.85 Q-237.6 -749.25 -239.5 -745.9 -241.45 -742.6 -240.75 -738.5 -240.05 -734.45 -237.05 -732.0 -234.1 -729.55 -230.65 -730.15 -227.15 -730.75 -225.2 -734.05 -223.3 -737.4 -224.0 -741.45 -224.7 -745.55 -227.65 -748.0 -230.65 -750.45 -234.1 -749.85 M-290.95 -747.05 Q-293.9 -744.15 -293.9 -740.0 -293.9 -735.85 -290.95 -732.9 -288.05 -730.0 -283.9 -730.0 -279.75 -730.0 -276.8 -732.9 -273.9 -735.85 -273.9 -740.0 -273.9 -744.15 -276.8 -747.05 -279.75 -750.0 -283.9 -750.0 -288.05 -750.0 -290.95 -747.05 M-183.95 -584.8 Q-185.05 -588.35 -187.95 -589.4 -190.85 -590.45 -193.9 -588.45 -197.0 -586.5 -198.4 -582.55 -199.85 -578.65 -198.75 -575.15 -197.7 -571.65 -194.8 -570.6 -191.85 -569.55 -188.8 -571.55 -185.75 -573.55 -184.3 -577.4 -182.9 -581.35 -183.95 -584.8 M-230.65 -589.85 Q-234.1 -590.45 -237.05 -588.0 -240.05 -585.55 -240.75 -581.45 -241.45 -577.4 -239.5 -574.05 -237.6 -570.75 -234.1 -570.15 -230.65 -569.55 -227.65 -571.95 -224.7 -574.45 -224.0 -578.5 -223.3 -582.6 -225.2 -585.9 -227.15 -589.25 -230.65 -589.85 M-276.8 -572.9 Q-273.9 -575.85 -273.9 -580.0 -273.9 -584.15 -276.8 -587.05 -279.75 -590.0 -283.9 -590.0 -288.05 -590.0 -290.95 -587.05 -293.9 -584.15 -293.9 -580.0 -293.9 -575.85 -290.95 -572.9 -288.05 -570.0 -283.9 -570.0 -279.75 -570.0 -276.8 -572.9 M-298.05 -414.15 Q-303.9 -408.3 -303.9 -400.0 -303.9 -391.7 -298.05 -385.85 -292.2 -380.0 -283.9 -380.0 -275.6 -380.0 -269.75 -385.85 -263.9 -391.7 -263.9 -400.0 -263.9 -408.3 -269.75 -414.15 -275.6 -420.0 -283.9 -420.0 -292.2 -420.0 -298.05 -414.15 M-333.6 -749.85 Q-337.1 -750.5 -340.05 -748.0 -343.0 -745.6 -343.75 -741.5 -344.45 -737.4 -342.5 -734.1 -340.6 -730.8 -337.1 -730.15 -333.65 -729.55 -330.65 -732.0 -327.7 -734.45 -327.0 -738.55 -326.3 -742.65 -328.2 -745.95 -330.15 -749.25 -333.6 -749.85 M-372.95 -749.4 Q-375.9 -750.45 -378.95 -748.45 -382.0 -746.45 -383.45 -742.55 -384.85 -738.65 -383.8 -735.15 -382.75 -731.65 -379.8 -730.6 -376.9 -729.55 -373.8 -731.5 -370.75 -733.5 -369.35 -737.4 -367.9 -741.35 -368.95 -744.8 -370.05 -748.35 -372.95 -749.4 M-343.75 -578.5 Q-343.0 -574.4 -340.05 -571.95 -337.1 -569.5 -333.6 -570.1 -330.15 -570.75 -328.2 -574.05 -326.3 -577.35 -327.0 -581.45 -327.7 -585.55 -330.65 -588.0 -333.65 -590.45 -337.1 -589.8 -340.6 -589.2 -342.5 -585.9 -344.45 -582.6 -343.75 -578.5 M-372.95 -570.6 Q-370.05 -571.65 -368.95 -575.15 -367.9 -578.65 -369.35 -582.55 -370.75 -586.5 -373.8 -588.45 -376.9 -590.45 -379.8 -589.4 -382.75 -588.35 -383.8 -584.85 -384.85 -581.35 -383.45 -577.45 -382.0 -573.55 -378.95 -571.55 -375.9 -569.55 -372.95 -570.6" fill="#333333" fill-rule="evenodd" stroke="none"/>
    <path d="M-147.9 -644.0 L-419.9 -644.0 -419.9 -656.0 -147.9 -656.0 -147.9 -644.0" fill="url(#gradient1)" fill-rule="evenodd" stroke="none"/>
    <path d="M-147.9 -664.0 L-417.9 -664.0 -417.9 -676.0 -147.9 -676.0 -147.9 -664.0" fill="url(#gradient2)" fill-rule="evenodd" stroke="none"/>
    <path d="M-188.8 -748.45 Q-185.75 -746.45 -184.3 -742.55 -182.9 -738.65 -183.95 -735.15 -185.05 -731.65 -187.95 -730.6 -190.85 -729.55 -193.9 -731.5 -197.0 -733.5 -198.4 -737.4 -199.85 -741.35 -198.75 -744.8 -197.7 -748.35 -194.8 -749.4 -191.85 -750.45 -188.8 -748.45" fill="url(#gradient3)" fill-rule="evenodd" stroke="none"/>
    <path d="M-234.1 -749.85 Q-230.65 -750.45 -227.65 -748.0 -224.7 -745.55 -224.0 -741.45 -223.3 -737.4 -225.2 -734.05 -227.15 -730.75 -230.65 -730.15 -234.1 -729.55 -237.05 -732.0 -240.05 -734.45 -240.75 -738.5 -241.45 -742.6 -239.5 -745.9 -237.6 -749.25 -234.1 -749.85" fill="url(#gradient4)" fill-rule="evenodd" stroke="none"/>
    <path d="M-290.95 -747.05 Q-288.05 -750.0 -283.9 -750.0 -279.75 -750.0 -276.8 -747.05 -273.9 -744.15 -273.9 -740.0 -273.9 -735.85 -276.8 -732.9 -279.75 -730.0 -283.9 -730.0 -288.05 -730.0 -290.95 -732.9 -293.9 -735.85 -293.9 -740.0 -293.9 -744.15 -290.95 -747.05" fill="url(#gradient5)" fill-rule="evenodd" stroke="none"/>
    <path d="M-183.95 -584.8 Q-182.9 -581.35 -184.3 -577.4 -185.75 -573.55 -188.8 -571.55 -191.85 -569.55 -194.8 -570.6 -197.7 -571.65 -198.75 -575.15 -199.85 -578.65 -198.4 -582.55 -197.0 -586.5 -193.9 -588.45 -190.85 -590.45 -187.95 -589.4 -185.05 -588.35 -183.95 -584.8" fill="url(#gradient6)" fill-rule="evenodd" stroke="none"/>
    <path d="M-230.65 -589.85 Q-227.15 -589.25 -225.2 -585.9 -223.3 -582.6 -224.0 -578.5 -224.7 -574.45 -227.65 -571.95 -230.65 -569.55 -234.1 -570.15 -237.6 -570.75 -239.5 -574.05 -241.45 -577.4 -240.75 -581.45 -240.05 -585.55 -237.05 -588.0 -234.1 -590.45 -230.65 -589.85" fill="url(#gradient7)" fill-rule="evenodd" stroke="none"/>
    <path d="M-276.8 -572.9 Q-279.75 -570.0 -283.9 -570.0 -288.05 -570.0 -290.95 -572.9 -293.9 -575.85 -293.9 -580.0 -293.9 -584.15 -290.95 -587.05 -288.05 -590.0 -283.9 -590.0 -279.75 -590.0 -276.8 -587.05 -273.9 -584.15 -273.9 -580.0 -273.9 -575.85 -276.8 -572.9" fill="url(#gradient8)" fill-rule="evenodd" stroke="none"/>
    <path d="M-298.05 -414.15 Q-292.2 -420.0 -283.9 -420.0 -275.6 -420.0 -269.75 -414.15 -263.9 -408.3 -263.9 -400.0 -263.9 -391.7 -269.75 -385.85 -275.6 -380.0 -283.9 -380.0 -292.2 -380.0 -298.05 -385.85 -303.9 -391.7 -303.9 -400.0 -303.9 -408.3 -298.05 -414.15" fill="url(#gradient9)" fill-rule="evenodd" stroke="none"/>
    <path d="M-209.55 -416.5 Q-207.9 -408.6 -207.9 -400.0 -207.9 -391.4 -209.55 -383.45 L-210.95 -385.85 Q-213.9 -391.7 -213.9 -400.0 -213.9 -408.3 -210.95 -414.15 L-209.55 -416.5 M-358.2 -383.45 Q-359.9 -391.4 -359.9 -400.0 -359.9 -408.6 -358.2 -416.5 L-356.8 -414.15 Q-353.9 -408.3 -353.9 -400.0 -353.9 -391.7 -356.8 -385.85 L-358.2 -383.45" fill="url(#gradient10)" fill-rule="evenodd" stroke="none"/>
    <path d="M-333.6 -749.85 Q-330.15 -749.25 -328.2 -745.95 -326.3 -742.65 -327.0 -738.55 -327.7 -734.45 -330.65 -732.0 -333.65 -729.55 -337.1 -730.15 -340.6 -730.8 -342.5 -734.1 -344.45 -737.4 -343.75 -741.5 -343.0 -745.6 -340.05 -748.0 -337.1 -750.5 -333.6 -749.85" fill="url(#gradient11)" fill-rule="evenodd" stroke="none"/>
    <path d="M-372.95 -749.4 Q-370.05 -748.35 -368.95 -744.8 -367.9 -741.35 -369.35 -737.4 -370.75 -733.5 -373.8 -731.5 -376.9 -729.55 -379.8 -730.6 -382.75 -731.65 -383.8 -735.15 -384.85 -738.65 -383.45 -742.55 -382.0 -746.45 -378.95 -748.45 -375.9 -750.45 -372.95 -749.4" fill="url(#gradient12)" fill-rule="evenodd" stroke="none"/>
    <path d="M-343.75 -578.5 Q-344.45 -582.6 -342.5 -585.9 -340.6 -589.2 -337.1 -589.8 -333.65 -590.45 -330.65 -588.0 -327.7 -585.55 -327.0 -581.45 -326.3 -577.35 -328.2 -574.05 -330.15 -570.75 -333.6 -570.1 -337.1 -569.5 -340.05 -571.95 -343.0 -574.4 -343.75 -578.5" fill="url(#gradient13)" fill-rule="evenodd" stroke="none"/>
    <path d="M-372.95 -570.6 Q-375.9 -569.55 -378.95 -571.55 -382.0 -573.55 -383.45 -577.45 -384.85 -581.35 -383.8 -584.85 -382.75 -588.35 -379.8 -589.4 -376.9 -590.45 -373.8 -588.45 -370.75 -586.5 -369.35 -582.55 -367.9 -578.65 -368.95 -575.15 -370.05 -571.65 -372.95 -570.6" fill="url(#gradient14)" fill-rule="evenodd" stroke="none"/>
    <path d="M169.45 -994.0 Q204.45 -983.8 232.15 -956.1 272.5 -915.75 275.8 -860.0 L260.1 -860.0 260.1 -840.0 275.8 -840.0 Q272.5 -784.3 232.15 -743.95 207.1 -718.85 176.1 -708.1 L176.1 -660.0 196.1 -660.0 196.1 -640.0 180.1 -640.0 180.1 -620.0 196.1 -620.0 196.1 -600.0 180.1 -600.0 180.1 -580.0 196.1 -580.0 196.1 -560.0 180.1 -560.0 180.1 -540.0 Q180.1 -538.35 178.95 -537.15 177.75 -536.0 176.1 -536.0 L176.1 -520.0 156.1 -520.0 156.1 -500.0 136.1 -500.0 136.1 -220.0 156.1 -220.0 156.1 -100.0 166.1 -100.0 166.1 -60.0 186.1 -60.0 186.1 160.0 66.1 160.0 66.1 -60.0 86.1 -60.0 86.1 -100.0 96.1 -100.0 96.1 -220.0 116.1 -220.0 116.1 -500.0 96.1 -500.0 96.1 -520.0 76.1 -520.0 76.1 -536.0 Q74.45 -536.0 73.3 -537.15 72.1 -538.35 72.1 -540.0 L72.1 -560.0 56.1 -560.0 56.1 -580.0 72.1 -580.0 72.1 -600.0 56.1 -600.0 56.1 -620.0 72.1 -620.0 72.1 -640.0 56.1 -640.0 56.1 -660.0 76.1 -660.0 76.1 -708.1 Q45.1 -718.85 20.0 -743.95 -20.35 -784.3 -23.6 -840.0 L-7.9 -840.0 -7.9 -860.0 -23.6 -860.0 Q-20.35 -915.75 20.0 -956.1 47.85 -983.9 83.0 -994.1 L83.0 -1004.95 116.1 -1024.05 116.1 -1080.0 121.0 -1080.0 121.0 -1095.0 Q121.0 -1097.05 122.45 -1098.55 123.95 -1100.0 126.0 -1100.0 128.1 -1100.0 129.55 -1098.55 131.0 -1097.05 131.0 -1095.0 L131.0 -1080.0 136.1 -1080.0 136.1 -1024.2 169.45 -1004.95 169.45 -994.0 M118.6 -910.0 Q118.6 -906.9 120.8 -904.7 123.0 -902.5 126.1 -902.5 129.2 -902.5 131.4 -904.7 133.6 -906.9 133.6 -910.0 133.6 -913.1 131.4 -915.3 129.2 -917.5 126.1 -917.5 123.0 -917.5 120.8 -915.3 118.6 -913.1 118.6 -910.0 M34.2 -902.95 Q36.35 -902.15 38.7 -903.65 40.95 -905.15 42.05 -908.05 43.1 -911.0 42.3 -913.6 41.5 -916.25 39.3 -917.05 37.1 -917.85 34.85 -916.35 32.5 -914.85 31.45 -911.9 30.4 -909.0 31.2 -906.35 32.0 -903.75 34.2 -902.95 M0.1 -856.0 L0.1 -844.0 252.1 -844.0 252.1 -856.0 0.1 -856.0 M34.2 -797.0 Q32.0 -796.25 31.2 -793.6 30.4 -791.0 31.45 -788.05 32.5 -785.15 34.85 -783.65 37.1 -782.15 39.3 -782.95 41.5 -783.75 42.3 -786.35 43.1 -789.0 42.05 -791.9 40.95 -794.85 38.7 -796.3 36.35 -797.8 34.2 -797.0 M131.4 -795.3 Q129.2 -797.5 126.1 -797.5 123.0 -797.5 120.8 -795.3 118.6 -793.1 118.6 -790.0 118.6 -786.9 120.8 -784.7 123.0 -782.5 126.1 -782.5 129.2 -782.5 131.4 -784.7 133.6 -786.9 133.6 -790.0 133.6 -793.1 131.4 -795.3 M210.25 -908.05 Q211.3 -905.15 213.6 -903.65 215.9 -902.15 218.1 -902.95 220.25 -903.75 221.05 -906.35 221.85 -909.0 220.8 -911.9 219.7 -914.85 217.45 -916.35 215.1 -917.85 212.95 -917.05 210.75 -916.25 209.95 -913.6 209.15 -911.0 210.25 -908.05 M218.1 -797.0 Q215.9 -797.8 213.6 -796.3 211.3 -794.85 210.25 -791.9 209.15 -788.95 209.95 -786.35 210.75 -783.75 212.95 -782.95 215.1 -782.15 217.45 -783.65 219.7 -785.15 220.8 -788.05 221.85 -791.0 221.05 -793.6 220.25 -796.25 218.1 -797.0 M172.1 -624.0 L172.1 -636.0 80.1 -636.0 80.1 -624.0 172.1 -624.0 M96.1 -702.75 L96.1 -680.0 116.1 -680.0 116.1 -700.3 Q105.85 -700.9 96.1 -702.75 M136.1 -700.3 L136.1 -680.0 156.1 -680.0 156.1 -702.75 Q146.35 -700.9 136.1 -700.3 M80.1 -556.0 L80.1 -544.0 172.1 -544.0 172.1 -556.0 80.1 -556.0 M172.1 -596.0 L80.1 -596.0 80.1 -584.0 172.1 -584.0 172.1 -596.0" fill="#333333" fill-rule="evenodd" stroke="none"/>
    <path d="M118.6 -910.0 Q118.6 -913.1 120.8 -915.3 123.0 -917.5 126.1 -917.5 129.2 -917.5 131.4 -915.3 133.6 -913.1 133.6 -910.0 133.6 -906.9 131.4 -904.7 129.2 -902.5 126.1 -902.5 123.0 -902.5 120.8 -904.7 118.6 -906.9 118.6 -910.0" fill="url(#gradient15)" fill-rule="evenodd" stroke="none"/>
    <path d="M34.2 -902.95 Q32.0 -903.75 31.2 -906.35 30.4 -909.0 31.45 -911.9 32.5 -914.85 34.85 -916.35 37.1 -917.85 39.3 -917.05 41.5 -916.25 42.3 -913.6 43.1 -911.0 42.05 -908.05 40.95 -905.15 38.7 -903.65 36.35 -902.15 34.2 -902.95" fill="url(#gradient16)" fill-rule="evenodd" stroke="none"/>
    <path d="M0.1 -856.0 L252.1 -856.0 252.1 -844.0 0.1 -844.0 0.1 -856.0" fill="url(#gradient17)" fill-rule="evenodd" stroke="none"/>
    <path d="M34.2 -797.0 Q36.35 -797.8 38.7 -796.3 40.95 -794.85 42.05 -791.9 43.1 -789.0 42.3 -786.35 41.5 -783.75 39.3 -782.95 37.1 -782.15 34.85 -783.65 32.5 -785.15 31.45 -788.05 30.4 -791.0 31.2 -793.6 32.0 -796.25 34.2 -797.0" fill="url(#gradient18)" fill-rule="evenodd" stroke="none"/>
    <path d="M131.4 -795.3 Q133.6 -793.1 133.6 -790.0 133.6 -786.9 131.4 -784.7 129.2 -782.5 126.1 -782.5 123.0 -782.5 120.8 -784.7 118.6 -786.9 118.6 -790.0 118.6 -793.1 120.8 -795.3 123.0 -797.5 126.1 -797.5 129.2 -797.5 131.4 -795.3" fill="url(#gradient19)" fill-rule="evenodd" stroke="none"/>
    <path d="M210.25 -908.05 Q209.15 -911.0 209.95 -913.6 210.75 -916.25 212.95 -917.05 215.1 -917.85 217.45 -916.35 219.7 -914.85 220.8 -911.9 221.85 -909.0 221.05 -906.35 220.25 -903.75 218.1 -902.95 215.9 -902.15 213.6 -903.65 211.3 -905.15 210.25 -908.05" fill="url(#gradient20)" fill-rule="evenodd" stroke="none"/>
    <path d="M218.1 -797.0 Q220.25 -796.25 221.05 -793.6 221.85 -791.0 220.8 -788.05 219.7 -785.15 217.45 -783.65 215.1 -782.15 212.95 -782.95 210.75 -783.75 209.95 -786.35 209.15 -788.95 210.25 -791.9 211.3 -794.85 213.6 -796.3 215.9 -797.8 218.1 -797.0" fill="url(#gradient21)" fill-rule="evenodd" stroke="none"/>
    <path d="M172.1 -624.0 L80.1 -624.0 80.1 -636.0 172.1 -636.0 172.1 -624.0" fill="url(#gradient22)" fill-rule="evenodd" stroke="none"/>
    <path d="M80.1 -556.0 L172.1 -556.0 172.1 -544.0 80.1 -544.0 80.1 -556.0" fill="url(#gradient23)" fill-rule="evenodd" stroke="none"/>
    <path d="M172.1 -596.0 L172.1 -584.0 80.1 -584.0 80.1 -596.0 172.1 -596.0" fill="url(#gradient24)" fill-rule="evenodd" stroke="none"/>
    <path d="M481.0 -820.0 L486.1 -820.0 486.1 -754.85 505.15 -743.85 505.15 -716.35 Q532.45 -709.2 553.85 -687.8 582.5 -659.15 585.7 -620.0 L570.35 -620.0 570.35 -600.0 585.7 -600.0 Q582.5 -560.85 553.85 -532.25 533.3 -511.65 507.25 -504.2 L507.25 -476.0 496.1 -469.55 496.1 -400.0 486.1 -400.0 486.1 -60.0 506.1 -60.0 506.1 -40.0 526.1 -40.0 526.1 160.0 426.1 160.0 426.1 -40.0 446.1 -40.0 446.1 -60.0 466.1 -60.0 466.1 -400.0 456.1 -400.0 456.1 -469.55 444.9 -476.0 444.9 -504.2 Q418.9 -511.65 398.3 -532.25 369.7 -560.85 366.5 -600.0 L380.3 -600.0 380.3 -620.0 366.5 -620.0 Q369.7 -659.15 398.3 -687.8 419.7 -709.2 447.0 -716.35 L447.0 -743.85 466.1 -754.85 466.1 -820.0 471.0 -820.0 471.0 -835.0 Q471.0 -837.05 472.45 -838.55 473.95 -840.0 476.0 -840.0 478.1 -840.0 479.55 -838.55 481.0 -837.05 481.0 -835.0 L481.0 -820.0 M541.7 -650.2 Q543.45 -649.1 545.1 -649.7 546.7 -650.3 547.35 -652.25 547.9 -654.2 547.15 -656.4 546.3 -658.6 544.6 -659.75 542.85 -660.85 541.25 -660.25 539.6 -659.65 539.0 -657.7 538.4 -655.75 539.2 -653.5 540.0 -651.35 541.7 -650.2 M562.35 -604.0 L562.35 -616.0 388.3 -616.0 388.3 -604.0 562.35 -604.0 M476.15 -660.6 Q473.8 -660.6 472.15 -658.95 470.5 -657.35 470.5 -655.0 470.5 -652.65 472.15 -651.0 473.8 -649.4 476.15 -649.35 478.45 -649.4 480.1 -651.0 481.75 -652.65 481.75 -655.0 481.75 -657.35 480.1 -658.95 478.45 -660.6 476.15 -660.6 M411.05 -660.25 Q409.4 -660.85 407.7 -659.75 405.95 -658.65 405.15 -656.45 404.35 -654.25 404.95 -652.25 405.55 -650.3 407.2 -649.7 408.85 -649.15 410.55 -650.25 412.25 -651.35 413.1 -653.55 413.85 -655.75 413.3 -657.7 412.65 -659.7 411.05 -660.25 M480.1 -561.0 Q481.75 -562.65 481.75 -565.0 481.75 -567.35 480.1 -568.95 478.45 -570.6 476.15 -570.6 473.8 -570.6 472.15 -568.95 470.5 -567.35 470.5 -565.0 470.5 -562.65 472.15 -561.0 473.8 -559.4 476.15 -559.35 478.45 -559.4 480.1 -561.0 M410.55 -569.75 Q408.85 -570.85 407.2 -570.25 405.55 -569.65 404.95 -567.7 404.35 -565.75 405.15 -563.55 405.95 -561.35 407.7 -560.2 409.4 -559.1 411.05 -559.7 412.65 -560.3 413.3 -562.25 413.85 -564.25 413.1 -566.4 412.25 -568.6 410.55 -569.75 M544.6 -560.2 Q546.3 -561.35 547.15 -563.5 547.9 -565.7 547.35 -567.65 546.7 -569.65 545.1 -570.25 543.45 -570.85 541.7 -569.7 540.0 -568.6 539.2 -566.4 538.4 -564.2 539.0 -562.25 539.6 -560.3 541.25 -559.65 542.85 -559.1 544.6 -560.2" fill="#333333" fill-rule="evenodd" stroke="none"/>
    <path d="M541.7 -650.2 Q540.0 -651.35 539.2 -653.5 538.4 -655.75 539.0 -657.7 539.6 -659.65 541.25 -660.25 542.85 -660.85 544.6 -659.75 546.3 -658.6 547.15 -656.4 547.9 -654.2 547.35 -652.25 546.7 -650.3 545.1 -649.7 543.45 -649.1 541.7 -650.2" fill="url(#gradient25)" fill-rule="evenodd" stroke="none"/>
    <path d="M562.35 -604.0 L388.3 -604.0 388.3 -616.0 562.35 -616.0 562.35 -604.0" fill="url(#gradient26)" fill-rule="evenodd" stroke="none"/>
    <path d="M476.15 -660.6 Q478.45 -660.6 480.1 -658.95 481.75 -657.35 481.75 -655.0 481.75 -652.65 480.1 -651.0 478.45 -649.4 476.15 -649.35 473.8 -649.4 472.15 -651.0 470.5 -652.65 470.5 -655.0 470.5 -657.35 472.15 -658.95 473.8 -660.6 476.15 -660.6" fill="url(#gradient27)" fill-rule="evenodd" stroke="none"/>
    <path d="M411.05 -660.25 Q412.65 -659.7 413.3 -657.7 413.85 -655.75 413.1 -653.55 412.25 -651.35 410.55 -650.25 408.85 -649.15 407.2 -649.7 405.55 -650.3 404.95 -652.25 404.35 -654.25 405.15 -656.45 405.95 -658.65 407.7 -659.75 409.4 -660.85 411.05 -660.25" fill="url(#gradient28)" fill-rule="evenodd" stroke="none"/>
    <path d="M480.1 -561.0 Q478.45 -559.4 476.15 -559.35 473.8 -559.4 472.15 -561.0 470.5 -562.65 470.5 -565.0 470.5 -567.35 472.15 -568.95 473.8 -570.6 476.15 -570.6 478.45 -570.6 480.1 -568.95 481.75 -567.35 481.75 -565.0 481.75 -562.65 480.1 -561.0" fill="url(#gradient29)" fill-rule="evenodd" stroke="none"/>
    <path d="M410.55 -569.75 Q412.25 -568.6 413.1 -566.4 413.85 -564.25 413.3 -562.25 412.65 -560.3 411.05 -559.7 409.4 -559.1 407.7 -560.2 405.95 -561.35 405.15 -563.55 404.35 -565.75 404.95 -567.7 405.55 -569.65 407.2 -570.25 408.85 -570.85 410.55 -569.75" fill="url(#gradient30)" fill-rule="evenodd" stroke="none"/>
    <path d="M544.6 -560.2 Q542.85 -559.1 541.25 -559.65 539.6 -560.3 539.0 -562.25 538.4 -564.2 539.2 -566.4 540.0 -568.6 541.7 -569.7 543.45 -570.85 545.1 -570.25 546.7 -569.65 547.35 -567.65 547.9 -565.7 547.15 -563.5 546.3 -561.35 544.6 -560.2" fill="url(#gradient31)" fill-rule="evenodd" stroke="none"/>
    <path d="M590.0 -660.0 L590.0 160.05 -600.0 160.05 -600.0 -660.0 590.0 -660.0" fill="url(#gradient32)" fill-rule="evenodd" stroke="none"/>
    <path d="M-85.0 -100.0 L-80.0 -100.0 -80.0 -79.5 Q-49.1 -76.4 -26.35 -53.65 0.0 -27.3 0.0 10.0 0.0 15.1 -0.5 20.0 L-16.0 20.0 -16.0 40.0 -4.85 40.0 Q-8.55 50.6 -14.95 60.0 L20.0 60.0 20.0 100.0 40.0 100.0 40.0 160.0 -220.0 160.0 -220.0 100.0 -200.0 100.0 -200.0 60.0 -165.0 60.0 Q-171.45 50.6 -175.15 40.0 L-164.0 40.0 -164.0 20.0 -179.5 20.0 Q-180.0 15.1 -180.0 10.0 -180.0 -27.3 -153.65 -53.65 -130.9 -76.4 -100.0 -79.5 L-100.0 -100.0 -95.0 -100.0 -95.0 -115.0 Q-95.0 -117.05 -93.55 -118.55 -92.05 -120.0 -90.0 -120.0 -87.9 -120.0 -86.45 -118.55 -85.0 -117.05 -85.0 -115.0 L-85.0 -100.0 M-24.0 36.0 L-24.0 24.0 -156.0 24.0 -156.0 36.0 -24.0 36.0" fill="#222222" fill-rule="evenodd" stroke="none"/>
    <path d="M-24.0 36.0 L-156.0 36.0 -156.0 24.0 -24.0 24.0 -24.0 36.0" fill="url(#gradient33)" fill-rule="evenodd" stroke="none"/>
    <path d="M-600.0 -20.0 L-600.0 -180.0 -590.0 -180.0 -590.0 -160.0 -580.0 -160.0 -580.0 -139.1 Q-509.95 -132.8 -458.6 -81.45 -414.7 -37.55 -403.65 20.0 L-420.0 20.0 -420.0 40.0 -410.0 40.0 -410.0 80.0 -390.0 80.0 -390.0 100.0 -370.0 100.0 -370.0 160.0 -600.0 160.0 -600.0 0.0 -470.0 0.0 -470.0 -20.0 -600.0 -20.0" fill="#222222" fill-rule="evenodd" stroke="none"/>
    <path d="M-600.0 0.0 L-600.0 -20.0 -470.0 -20.0 -470.0 0.0 -600.0 0.0" fill="url(#gradient34)" fill-rule="evenodd" stroke="none"/>
    <path d="M590.0 0.0 L590.0 160.0 360.0 160.0 360.0 100.0 380.0 100.0 380.0 80.0 400.0 80.0 400.0 40.0 410.0 40.0 410.0 20.0 393.7 20.0 Q404.65 -37.55 448.55 -81.45 499.95 -132.8 570.0 -139.1 L570.0 -160.0 580.0 -160.0 580.0 -180.0 590.0 -180.0 590.0 -20.0 460.0 -20.0 460.0 0.0 590.0 0.0" fill="#222222" fill-rule="evenodd" stroke="none"/>
    <path d="M590.0 -20.0 L590.0 0.0 460.0 0.0 460.0 -20.0 590.0 -20.0" fill="url(#gradient35)" fill-rule="evenodd" stroke="none"/>
    <path d="M268.0 -219.0 Q268.0 -206.7 260.8 -197.3 L263.95 -194.15 Q258.1 -188.3 258.1 -180.0 258.1 -173.2 262.05 -168.0 L262.3 -168.25 Q274.0 -156.55 274.0 -140.0 274.0 -123.45 262.25 -111.75 L262.05 -111.95 Q258.1 -106.8 258.1 -100.0 258.1 -93.2 262.05 -88.0 L262.3 -88.25 Q274.0 -76.55 274.0 -60.0 274.0 -43.45 262.25 -31.75 L262.05 -31.95 Q258.1 -26.8 258.1 -20.0 258.1 -13.2 262.05 -8.0 L262.3 -8.25 Q274.0 3.45 274.0 20.0 274.0 36.55 262.25 48.25 L259.95 45.95 Q256.1 51.65 256.1 59.0 L256.15 60.0 260.0 60.0 260.0 100.0 280.0 100.0 320.0 160.0 220.0 160.0 220.0 100.0 240.0 100.0 240.0 60.0 244.1 60.0 244.1 59.0 Q244.1 46.7 251.35 37.35 L248.15 34.15 Q254.0 28.3 254.0 20.0 254.0 13.2 250.1 8.05 L249.85 8.25 Q238.1 -3.45 238.1 -20.0 238.1 -36.55 249.85 -48.25 L250.1 -48.0 Q254.0 -53.2 254.0 -60.0 254.0 -66.8 250.1 -71.95 L249.85 -71.75 Q238.1 -83.45 238.1 -100.0 238.1 -116.55 249.85 -128.25 L250.1 -128.0 Q254.0 -133.2 254.0 -140.0 254.0 -146.8 250.1 -151.95 L249.85 -151.75 Q238.1 -163.45 238.1 -180.0 238.1 -196.55 249.85 -208.25 L252.2 -205.9 Q256.0 -211.65 256.0 -219.0 L256.0 -220.0 259.0 -220.0 259.0 -233.0 265.0 -233.0 265.0 -220.0 268.0 -219.0" fill="#222222" fill-rule="evenodd" stroke="none"/>
    <path d="M268.0 -219.0 L265.0 -220.0 268.0 -220.0 268.0 -219.0" fill="#000000" fill-rule="evenodd" stroke="none"/>
    <path d="M590.0 -20.0 L590.0 160.05 -600.0 160.05 -600.0 -20.0 590.0 -20.0" fill="url(#gradient36)" fill-rule="evenodd" stroke="none"/>
  </g>
  <defs>
    <linearGradient gradientTransform="matrix(0.0, 0.484, -0.7263, 0.0, -5.0, -248.6)" gradientUnits="userSpaceOnUse" id="gradient0" spreadMethod="pad" x1="-819.2" x2="819.2">
      <stop offset="0.0" stop-color="#b07602" stop-opacity="0.0"/>
      <stop offset="1.0" stop-color="#c8ed12" stop-opacity="0.5803922"/>
    </linearGradient>
    <linearGradient gradientTransform="matrix(0.1709, 0.0, 0.0, 0.0122, -283.9, -650.0)" gradientUnits="userSpaceOnUse" id="gradient1" spreadMethod="pad" x1="-819.2" x2="819.2">
      <stop offset="0.0" stop-color="#b07602"/>
      <stop offset="0.17254901960784313" stop-color="#ffaa00"/>
      <stop offset="0.2901960784313726" stop-color="#fcbd3f"/>
      <stop offset="0.5019607843137255" stop-color="#ffac05"/>
      <stop offset="0.9882352941176471" stop-color="#a16b01"/>
    </linearGradient>
    <linearGradient gradientTransform="matrix(0.1697, 0.0, 0.0, 0.0122, -282.9, -670.0)" gradientUnits="userSpaceOnUse" id="gradient2" spreadMethod="pad" x1="-819.2" x2="819.2">
      <stop offset="0.0" stop-color="#b07602"/>
      <stop offset="0.17254901960784313" stop-color="#ffaa00"/>
      <stop offset="0.2901960784313726" stop-color="#fcbd3f"/>
      <stop offset="0.5019607843137255" stop-color="#ffac05"/>
      <stop offset="0.9882352941176471" stop-color="#a16b01"/>
    </linearGradient>
    <linearGradient gradientTransform="matrix(0.0086, -0.0031, -0.0042, -0.0115, -191.35, -740.0)" gradientUnits="userSpaceOnUse" id="gradient3" spreadMethod="pad" x1="-819.2" x2="819.2">
      <stop offset="0.0" stop-color="#b07602"/>
      <stop offset="0.17254901960784313" stop-color="#ffaa00"/>
      <stop offset="0.2901960784313726" stop-color="#fcbd3f"/>
      <stop offset="0.5019607843137255" stop-color="#ffac05"/>
      <stop offset="0.9882352941176471" stop-color="#a16b01"/>
    </linearGradient>
    <linearGradient gradientTransform="matrix(0.0102, -0.0018, -0.0021, -0.012, -232.35, -740.0)" gradientUnits="userSpaceOnUse" id="gradient4" spreadMethod="pad" x1="-819.2" x2="819.2">
      <stop offset="0.0" stop-color="#b07602"/>
      <stop offset="0.17254901960784313" stop-color="#ffaa00"/>
      <stop offset="0.2901960784313726" stop-color="#fcbd3f"/>
      <stop offset="0.5019607843137255" stop-color="#ffac05"/>
      <stop offset="0.9882352941176471" stop-color="#a16b01"/>
    </linearGradient>
    <linearGradient gradientTransform="matrix(0.0122, 0.0, 0.0, -0.0122, -283.9, -740.0)" gradientUnits="userSpaceOnUse" id="gradient5" spreadMethod="pad" x1="-819.2" x2="819.2">
      <stop offset="0.0" stop-color="#b07602"/>
      <stop offset="0.17254901960784313" stop-color="#ffaa00"/>
      <stop offset="0.2901960784313726" stop-color="#fcbd3f"/>
      <stop offset="0.5019607843137255" stop-color="#ffac05"/>
      <stop offset="0.9882352941176471" stop-color="#a16b01"/>
    </linearGradient>
    <linearGradient gradientTransform="matrix(0.0086, 0.0031, -0.0042, 0.0115, -191.35, -580.0)" gradientUnits="userSpaceOnUse" id="gradient6" spreadMethod="pad" x1="-819.2" x2="819.2">
      <stop offset="0.0" stop-color="#b07602"/>
      <stop offset="0.17254901960784313" stop-color="#ffaa00"/>
      <stop offset="0.2901960784313726" stop-color="#fcbd3f"/>
      <stop offset="0.5019607843137255" stop-color="#ffac05"/>
      <stop offset="0.9882352941176471" stop-color="#a16b01"/>
    </linearGradient>
    <linearGradient gradientTransform="matrix(0.0102, 0.0018, -0.0021, 0.012, -232.35, -580.0)" gradientUnits="userSpaceOnUse" id="gradient7" spreadMethod="pad" x1="-819.2" x2="819.2">
      <stop offset="0.0" stop-color="#b07602"/>
      <stop offset="0.17254901960784313" stop-color="#ffaa00"/>
      <stop offset="0.2901960784313726" stop-color="#fcbd3f"/>
      <stop offset="0.5019607843137255" stop-color="#ffac05"/>
      <stop offset="0.9882352941176471" stop-color="#a16b01"/>
    </linearGradient>
    <linearGradient gradientTransform="matrix(0.0122, 0.0, 0.0, 0.0122, -283.9, -580.0)" gradientUnits="userSpaceOnUse" id="gradient8" spreadMethod="pad" x1="-819.2" x2="819.2">
      <stop offset="0.0" stop-color="#b07602"/>
      <stop offset="0.17254901960784313" stop-color="#ffaa00"/>
      <stop offset="0.2901960784313726" stop-color="#fcbd3f"/>
      <stop offset="0.5019607843137255" stop-color="#ffac05"/>
      <stop offset="0.9882352941176471" stop-color="#a16b01"/>
    </linearGradient>
    <linearGradient gradientTransform="matrix(0.0244, 0.0, 0.0, 0.0244, -283.9, -400.0)" gradientUnits="userSpaceOnUse" id="gradient9" spreadMethod="pad" x1="-819.2" x2="819.2">
      <stop offset="0.0" stop-color="#b07602"/>
      <stop offset="0.17254901960784313" stop-color="#ffaa00"/>
      <stop offset="0.2901960784313726" stop-color="#fcbd3f"/>
      <stop offset="0.5019607843137255" stop-color="#ffac05"/>
      <stop offset="0.9882352941176471" stop-color="#a16b01"/>
    </linearGradient>
    <linearGradient gradientTransform="matrix(0.0232, 0.0, 0.0, 0.0232, -283.9, -400.0)" gradientUnits="userSpaceOnUse" id="gradient10" spreadMethod="pad" x1="-819.2" x2="819.2">
      <stop offset="0.0" stop-color="#b07602"/>
      <stop offset="0.17254901960784313" stop-color="#ffaa00"/>
      <stop offset="0.2901960784313726" stop-color="#fcbd3f"/>
      <stop offset="0.5019607843137255" stop-color="#ffac05"/>
      <stop offset="0.9882352941176471" stop-color="#a16b01"/>
    </linearGradient>
    <linearGradient gradientTransform="matrix(0.0102, 0.0018, 0.0021, -0.012, -335.35, -740.0)" gradientUnits="userSpaceOnUse" id="gradient11" spreadMethod="pad" x1="-819.2" x2="819.2">
      <stop offset="0.0" stop-color="#b07602"/>
      <stop offset="0.17254901960784313" stop-color="#ffaa00"/>
      <stop offset="0.2901960784313726" stop-color="#fcbd3f"/>
      <stop offset="0.5019607843137255" stop-color="#ffac05"/>
      <stop offset="0.9882352941176471" stop-color="#a16b01"/>
    </linearGradient>
    <linearGradient gradientTransform="matrix(0.0086, 0.0031, 0.0042, -0.0115, -376.4, -740.0)" gradientUnits="userSpaceOnUse" id="gradient12" spreadMethod="pad" x1="-819.2" x2="819.2">
      <stop offset="0.0" stop-color="#b07602"/>
      <stop offset="0.17254901960784313" stop-color="#ffaa00"/>
      <stop offset="0.2901960784313726" stop-color="#fcbd3f"/>
      <stop offset="0.5019607843137255" stop-color="#ffac05"/>
      <stop offset="0.9882352941176471" stop-color="#a16b01"/>
    </linearGradient>
    <linearGradient gradientTransform="matrix(0.0102, -0.0018, 0.0021, 0.012, -335.35, -580.0)" gradientUnits="userSpaceOnUse" id="gradient13" spreadMethod="pad" x1="-819.2" x2="819.2">
      <stop offset="0.0" stop-color="#b07602"/>
      <stop offset="0.17254901960784313" stop-color="#ffaa00"/>
      <stop offset="0.2901960784313726" stop-color="#fcbd3f"/>
      <stop offset="0.5019607843137255" stop-color="#ffac05"/>
      <stop offset="0.9882352941176471" stop-color="#a16b01"/>
    </linearGradient>
    <linearGradient gradientTransform="matrix(0.0086, -0.0031, 0.0042, 0.0115, -376.4, -580.0)" gradientUnits="userSpaceOnUse" id="gradient14" spreadMethod="pad" x1="-819.2" x2="819.2">
      <stop offset="0.0" stop-color="#b07602"/>
      <stop offset="0.17254901960784313" stop-color="#ffaa00"/>
      <stop offset="0.2901960784313726" stop-color="#fcbd3f"/>
      <stop offset="0.5019607843137255" stop-color="#ffac05"/>
      <stop offset="0.9882352941176471" stop-color="#a16b01"/>
    </linearGradient>
    <linearGradient gradientTransform="matrix(0.0092, 0.0, 0.0, -0.0092, 126.1, -910.0)" gradientUnits="userSpaceOnUse" id="gradient15" spreadMethod="pad" x1="-819.2" x2="819.2">
      <stop offset="0.0" stop-color="#b07602"/>
      <stop offset="0.17254901960784313" stop-color="#ffaa00"/>
      <stop offset="0.2901960784313726" stop-color="#fcbd3f"/>
      <stop offset="0.5019607843137255" stop-color="#ffac05"/>
      <stop offset="0.9882352941176471" stop-color="#a16b01"/>
    </linearGradient>
    <linearGradient gradientTransform="matrix(0.0065, 0.0023, 0.0031, -0.0086, 36.75, -910.0)" gradientUnits="userSpaceOnUse" id="gradient16" spreadMethod="pad" x1="-819.2" x2="819.2">
      <stop offset="0.0" stop-color="#b07602"/>
      <stop offset="0.17254901960784313" stop-color="#ffaa00"/>
      <stop offset="0.2901960784313726" stop-color="#fcbd3f"/>
      <stop offset="0.5019607843137255" stop-color="#ffac05"/>
      <stop offset="0.9882352941176471" stop-color="#a16b01"/>
    </linearGradient>
    <linearGradient gradientTransform="matrix(0.1587, 0.0, 0.0, 0.0122, 126.1, -850.0)" gradientUnits="userSpaceOnUse" id="gradient17" spreadMethod="pad" x1="-819.2" x2="819.2">
      <stop offset="0.0" stop-color="#b07602"/>
      <stop offset="0.17254901960784313" stop-color="#ffaa00"/>
      <stop offset="0.2901960784313726" stop-color="#fcbd3f"/>
      <stop offset="0.5019607843137255" stop-color="#ffac05"/>
      <stop offset="0.9882352941176471" stop-color="#a16b01"/>
    </linearGradient>
    <linearGradient gradientTransform="matrix(0.0065, -0.0023, 0.0031, 0.0086, 36.75, -790.0)" gradientUnits="userSpaceOnUse" id="gradient18" spreadMethod="pad" x1="-819.2" x2="819.2">
      <stop offset="0.0" stop-color="#b07602"/>
      <stop offset="0.17254901960784313" stop-color="#ffaa00"/>
      <stop offset="0.2901960784313726" stop-color="#fcbd3f"/>
      <stop offset="0.5019607843137255" stop-color="#ffac05"/>
      <stop offset="0.9882352941176471" stop-color="#a16b01"/>
    </linearGradient>
    <linearGradient gradientTransform="matrix(0.0092, 0.0, 0.0, 0.0092, 126.1, -790.0)" gradientUnits="userSpaceOnUse" id="gradient19" spreadMethod="pad" x1="-819.2" x2="819.2">
      <stop offset="0.0" stop-color="#b07602"/>
      <stop offset="0.17254901960784313" stop-color="#ffaa00"/>
      <stop offset="0.2901960784313726" stop-color="#fcbd3f"/>
      <stop offset="0.5019607843137255" stop-color="#ffac05"/>
      <stop offset="0.9882352941176471" stop-color="#a16b01"/>
    </linearGradient>
    <linearGradient gradientTransform="matrix(0.0065, -0.0023, -0.0031, -0.0086, 215.5, -910.0)" gradientUnits="userSpaceOnUse" id="gradient20" spreadMethod="pad" x1="-819.2" x2="819.2">
      <stop offset="0.0" stop-color="#b07602"/>
      <stop offset="0.17254901960784313" stop-color="#ffaa00"/>
      <stop offset="0.2901960784313726" stop-color="#fcbd3f"/>
      <stop offset="0.5019607843137255" stop-color="#ffac05"/>
      <stop offset="0.9882352941176471" stop-color="#a16b01"/>
    </linearGradient>
    <linearGradient gradientTransform="matrix(0.0065, 0.0023, -0.0031, 0.0086, 215.5, -790.0)" gradientUnits="userSpaceOnUse" id="gradient21" spreadMethod="pad" x1="-819.2" x2="819.2">
      <stop offset="0.0" stop-color="#b07602"/>
      <stop offset="0.17254901960784313" stop-color="#ffaa00"/>
      <stop offset="0.2901960784313726" stop-color="#fcbd3f"/>
      <stop offset="0.5019607843137255" stop-color="#ffac05"/>
      <stop offset="0.9882352941176471" stop-color="#a16b01"/>
    </linearGradient>
    <linearGradient gradientTransform="matrix(0.061, 0.0, 0.0, 0.0122, 126.1, -630.0)" gradientUnits="userSpaceOnUse" id="gradient22" spreadMethod="pad" x1="-819.2" x2="819.2">
      <stop offset="0.0" stop-color="#b07602"/>
      <stop offset="0.17254901960784313" stop-color="#ffaa00"/>
      <stop offset="0.2901960784313726" stop-color="#fcbd3f"/>
      <stop offset="0.5019607843137255" stop-color="#ffac05"/>
      <stop offset="0.9882352941176471" stop-color="#a16b01"/>
    </linearGradient>
    <linearGradient gradientTransform="matrix(0.061, 0.0, 0.0, 0.0122, 126.1, -550.0)" gradientUnits="userSpaceOnUse" id="gradient23" spreadMethod="pad" x1="-819.2" x2="819.2">
      <stop offset="0.0" stop-color="#b07602"/>
      <stop offset="0.17254901960784313" stop-color="#ffaa00"/>
      <stop offset="0.2901960784313726" stop-color="#fcbd3f"/>
      <stop offset="0.5019607843137255" stop-color="#ffac05"/>
      <stop offset="0.9882352941176471" stop-color="#a16b01"/>
    </linearGradient>
    <linearGradient gradientTransform="matrix(0.061, 0.0, 0.0, 0.0122, 126.1, -590.0)" gradientUnits="userSpaceOnUse" id="gradient24" spreadMethod="pad" x1="-819.2" x2="819.2">
      <stop offset="0.0" stop-color="#b07602"/>
      <stop offset="0.17254901960784313" stop-color="#ffaa00"/>
      <stop offset="0.2901960784313726" stop-color="#fcbd3f"/>
      <stop offset="0.5019607843137255" stop-color="#ffac05"/>
      <stop offset="0.9882352941176471" stop-color="#a16b01"/>
    </linearGradient>
    <linearGradient gradientTransform="matrix(0.0048, -0.0018, -0.0023, -0.0065, 543.15, -655.0)" gradientUnits="userSpaceOnUse" id="gradient25" spreadMethod="pad" x1="-819.2" x2="819.2">
      <stop offset="0.0" stop-color="#b07602"/>
      <stop offset="0.17254901960784313" stop-color="#ffaa00"/>
      <stop offset="0.2901960784313726" stop-color="#fcbd3f"/>
      <stop offset="0.5019607843137255" stop-color="#ffac05"/>
      <stop offset="0.9882352941176471" stop-color="#a16b01"/>
    </linearGradient>
    <linearGradient gradientTransform="matrix(0.1111, 0.0, 0.0, 0.0122, 475.3, -610.0)" gradientUnits="userSpaceOnUse" id="gradient26" spreadMethod="pad" x1="-819.2" x2="819.2">
      <stop offset="0.0" stop-color="#b07602"/>
      <stop offset="0.17254901960784313" stop-color="#ffaa00"/>
      <stop offset="0.2901960784313726" stop-color="#fcbd3f"/>
      <stop offset="0.5019607843137255" stop-color="#ffac05"/>
      <stop offset="0.9882352941176471" stop-color="#a16b01"/>
    </linearGradient>
    <linearGradient gradientTransform="matrix(0.0069, 0.0, 0.0, -0.0069, 476.15, -655.0)" gradientUnits="userSpaceOnUse" id="gradient27" spreadMethod="pad" x1="-819.2" x2="819.2">
      <stop offset="0.0" stop-color="#b07602"/>
      <stop offset="0.17254901960784313" stop-color="#ffaa00"/>
      <stop offset="0.2901960784313726" stop-color="#fcbd3f"/>
      <stop offset="0.5019607843137255" stop-color="#ffac05"/>
      <stop offset="0.9882352941176471" stop-color="#a16b01"/>
    </linearGradient>
    <linearGradient gradientTransform="matrix(0.0048, 0.0018, 0.0023, -0.0065, 409.15, -655.0)" gradientUnits="userSpaceOnUse" id="gradient28" spreadMethod="pad" x1="-819.2" x2="819.2">
      <stop offset="0.0" stop-color="#b07602"/>
      <stop offset="0.17254901960784313" stop-color="#ffaa00"/>
      <stop offset="0.2901960784313726" stop-color="#fcbd3f"/>
      <stop offset="0.5019607843137255" stop-color="#ffac05"/>
      <stop offset="0.9882352941176471" stop-color="#a16b01"/>
    </linearGradient>
    <linearGradient gradientTransform="matrix(0.0069, 0.0, 0.0, 0.0069, 476.15, -565.0)" gradientUnits="userSpaceOnUse" id="gradient29" spreadMethod="pad" x1="-819.2" x2="819.2">
      <stop offset="0.0" stop-color="#b07602"/>
      <stop offset="0.17254901960784313" stop-color="#ffaa00"/>
      <stop offset="0.2901960784313726" stop-color="#fcbd3f"/>
      <stop offset="0.5019607843137255" stop-color="#ffac05"/>
      <stop offset="0.9882352941176471" stop-color="#a16b01"/>
    </linearGradient>
    <linearGradient gradientTransform="matrix(0.0048, -0.0018, 0.0023, 0.0065, 409.15, -565.0)" gradientUnits="userSpaceOnUse" id="gradient30" spreadMethod="pad" x1="-819.2" x2="819.2">
      <stop offset="0.0" stop-color="#b07602"/>
      <stop offset="0.17254901960784313" stop-color="#ffaa00"/>
      <stop offset="0.2901960784313726" stop-color="#fcbd3f"/>
      <stop offset="0.5019607843137255" stop-color="#ffac05"/>
      <stop offset="0.9882352941176471" stop-color="#a16b01"/>
    </linearGradient>
    <linearGradient gradientTransform="matrix(0.0048, 0.0018, -0.0023, 0.0065, 543.15, -564.95)" gradientUnits="userSpaceOnUse" id="gradient31" spreadMethod="pad" x1="-819.2" x2="819.2">
      <stop offset="0.0" stop-color="#b07602"/>
      <stop offset="0.17254901960784313" stop-color="#ffaa00"/>
      <stop offset="0.2901960784313726" stop-color="#fcbd3f"/>
      <stop offset="0.5019607843137255" stop-color="#ffac05"/>
      <stop offset="0.9882352941176471" stop-color="#a16b01"/>
    </linearGradient>
    <linearGradient gradientTransform="matrix(0.0, 0.484, -0.7263, 0.0, -5.0, -248.6)" gradientUnits="userSpaceOnUse" id="gradient32" spreadMethod="pad" x1="-819.2" x2="819.2">
      <stop offset="0.0" stop-color="#b07602" stop-opacity="0.0"/>
      <stop offset="1.0" stop-color="#c8ed12" stop-opacity="0.2"/>
    </linearGradient>
    <linearGradient gradientTransform="matrix(0.0854, 0.0, 0.0, 0.0122, -90.0, 30.0)" gradientUnits="userSpaceOnUse" id="gradient33" spreadMethod="pad" x1="-819.2" x2="819.2">
      <stop offset="0.0" stop-color="#b07602"/>
      <stop offset="0.17254901960784313" stop-color="#ffaa00"/>
      <stop offset="0.2901960784313726" stop-color="#fcbd3f"/>
      <stop offset="0.5019607843137255" stop-color="#ffac05"/>
      <stop offset="0.9882352941176471" stop-color="#a16b01"/>
    </linearGradient>
    <linearGradient gradientTransform="matrix(0.1587, 0.0, 0.0, 0.0122, -600.0, -10.0)" gradientUnits="userSpaceOnUse" id="gradient34" spreadMethod="pad" x1="-819.2" x2="819.2">
      <stop offset="0.0" stop-color="#b07602"/>
      <stop offset="0.17254901960784313" stop-color="#ffaa00"/>
      <stop offset="0.2901960784313726" stop-color="#fcbd3f"/>
      <stop offset="0.5019607843137255" stop-color="#ffac05"/>
      <stop offset="0.9882352941176471" stop-color="#a16b01"/>
    </linearGradient>
    <linearGradient gradientTransform="matrix(0.1587, 0.0, 0.0, 0.0122, 590.0, -10.0)" gradientUnits="userSpaceOnUse" id="gradient35" spreadMethod="pad" x1="-819.2" x2="819.2">
      <stop offset="0.0" stop-color="#b07602"/>
      <stop offset="0.17254901960784313" stop-color="#ffaa00"/>
      <stop offset="0.2901960784313726" stop-color="#fcbd3f"/>
      <stop offset="0.5019607843137255" stop-color="#ffac05"/>
      <stop offset="0.9882352941176471" stop-color="#a16b01"/>
    </linearGradient>
    <linearGradient gradientTransform="matrix(0.0, 0.1063, -0.7263, 0.0, -5.0, 70.35)" gradientUnits="userSpaceOnUse" id="gradient36" spreadMethod="pad" x1="-819.2" x2="819.2">
      <stop offset="0.0" stop-color="#b07602" stop-opacity="0.0"/>
      <stop offset="1.0" stop-color="#c8ed12" stop-opacity="0.5803922"/>
    </linearGradient>
  </defs>
</svg>
