<?xml version="1.0" encoding="UTF-8" standalone="no"?>
<svg xmlns:ffdec="https://www.free-decompiler.com/flash" xmlns:xlink="http://www.w3.org/1999/xlink" ffdec:objectType="shape" height="65.7px" width="35.0px" xmlns="http://www.w3.org/2000/svg">
  <g transform="matrix(1.0, 0.0, 0.0, 1.0, 330.0, 905.7)">
    <path d="M-325.0 -900.0 L-325.0 -881.25 -315.0 -880.0 -315.0 -882.5 -320.0 -884.25 -320.0 -891.5 Q-322.4 -893.15 -322.5 -895.45 L-322.5 -895.7 Q-322.5 -899.85 -319.6 -902.8 -316.65 -905.7 -312.5 -905.7 -308.35 -905.7 -305.45 -902.8 -302.5 -899.85 -302.5 -895.7 L-302.5 -895.45 Q-302.6 -893.2 -305.0 -891.55 L-305.0 -884.25 -310.0 -882.5 -310.0 -880.0 -300.0 -881.25 -300.0 -900.0 -295.0 -900.0 -295.0 -878.25 -300.0 -873.25 -303.75 -873.25 -305.0 -860.0 -305.0 -845.0 -300.0 -845.0 -300.0 -840.0 -310.0 -840.0 -311.25 -857.0 -313.75 -857.0 -315.0 -840.0 -325.0 -840.0 -325.0 -845.0 -320.0 -845.0 -320.0 -860.0 -321.25 -873.25 -325.0 -873.25 -330.0 -878.25 -330.0 -900.0 -325.0 -900.0" fill="#000000" fill-rule="evenodd" stroke="none"/>
  </g>
</svg>
