<?xml version="1.0" encoding="UTF-8" standalone="no"?>
<svg xmlns:ffdec="https://www.free-decompiler.com/flash" xmlns:xlink="http://www.w3.org/1999/xlink" ffdec:objectType="shape" height="1480.0px" width="960.0px" xmlns="http://www.w3.org/2000/svg">
  <g transform="matrix(1.0, 0.0, 0.0, 1.0, 480.0, 1340.1)">
    <path d="M-159.7 -1238.2 Q-166.55 -1251.55 -172.0 -1265.15 -182.9 -1292.0 -185.6 -1313.1 L-198.7 -1314.55 Q-192.0 -1247.35 -159.6 -1191.15 L-157.8 -438.9 Q-167.8 -470.25 -172.6 -509.25 L-188.95 -509.25 Q-189.5 -468.45 -185.8 -442.85 -181.75 -414.1 -170.0 -384.0 -164.0 -368.65 -156.7 -355.3 L-150.0 139.9 -210.0 139.9 Q-208.25 16.55 -204.95 -600.1 -201.6 -1216.75 -200.0 -1340.1 L-160.0 -1340.1 -159.7 -1238.2 M-240.0 -1340.1 L-225.0 139.9 -315.0 139.9 -305.05 -350.9 Q-287.35 -377.1 -274.2 -410.65 -258.55 -450.8 -253.1 -489.1 -248.2 -523.25 -248.9 -577.65 L-270.65 -577.65 Q-279.9 -503.45 -303.0 -450.05 -302.45 -475.15 -301.5 -895.05 L-301.25 -977.95 Q-264.85 -1037.05 -257.7 -1108.85 L-270.85 -1107.35 Q-273.6 -1086.3 -284.4 -1059.45 -291.65 -1041.45 -301.15 -1024.0 -300.35 -1319.2 -300.0 -1340.1 L-240.0 -1340.1 M10.0 -1340.1 L50.0 -1340.1 54.5 -267.9 Q41.7 -196.05 14.1 -146.4 9.05 -137.35 3.65 -129.3 4.75 -207.6 6.9 -735.9 L7.25 -819.3 Q33.7 -870.55 39.8 -930.7 L26.6 -929.2 Q23.9 -908.1 13.1 -881.3 L7.45 -868.15 Q9.1 -1273.3 10.0 -1340.1 M120.0 -1340.1 L178.5 -1340.1 164.0 -587.35 Q160.8 -590.3 157.55 -593.7 140.8 -610.9 125.15 -636.35 118.6 -646.95 113.0 -657.75 117.65 -1222.6 120.0 -1340.1 M265.0 -1340.1 L305.0 -1340.1 305.9 -1225.75 Q297.25 -1206.65 285.9 -1188.2 275.4 -1171.25 264.55 -1157.95 L265.0 -1340.1 M345.0 -1340.1 L376.5 -1340.1 Q375.25 -1280.85 375.0 -815.95 L375.0 -712.45 373.55 -713.95 Q356.8 -731.15 341.15 -756.6 L340.0 -758.4 Q343.4 -1256.6 345.0 -1340.1 M375.0 139.9 L330.0 139.9 332.9 -0.4 Q351.25 26.85 376.2 43.55 375.85 98.65 375.0 139.9 M315.0 139.9 L255.0 139.9 261.5 -339.7 Q274.6 -359.15 284.35 -384.0 296.1 -414.1 300.2 -442.85 303.8 -468.45 303.3 -509.25 L287.0 -509.25 Q280.0 -453.25 262.5 -413.05 L264.4 -1116.85 Q278.6 -1132.3 290.9 -1151.45 299.2 -1164.35 306.2 -1177.85 L307.8 -829.0 Q303.5 -843.15 301.9 -855.25 L288.8 -856.75 Q293.05 -813.6 308.0 -774.9 L308.1 -742.55 Q310.2 -220.85 311.15 -145.0 308.95 -157.15 307.4 -170.1 L291.05 -170.1 Q290.5 -129.3 294.2 -103.7 298.25 -74.95 310.0 -44.85 L312.6 -38.45 315.0 139.9 M150.0 139.9 L105.0 139.9 Q107.6 16.55 112.5 -600.1 L112.6 -611.8 Q116.2 -605.65 120.1 -599.6 136.75 -573.85 156.65 -554.8 L163.25 -548.75 150.0 139.9 M60.0 139.9 L0.0 139.9 2.5 -45.1 Q35.0 -79.9 55.8 -133.15 L56.3 -134.45 60.0 139.9 M-440.0 -1340.1 L-406.5 -1340.1 -435.0 139.9 -450.0 139.9 Q-448.25 16.55 -444.95 -600.1 -441.6 -1216.75 -440.0 -1340.1 M334.25 -68.6 Q336.05 -157.1 339.7 -704.95 L339.8 -714.35 Q354.9 -692.0 372.65 -675.0 L375.0 -672.8 Q374.95 -338.25 375.8 -230.1 376.6 -105.1 376.45 -11.8 356.7 -27.05 341.3 -54.8 337.55 -61.45 334.25 -68.6" fill="#7d2800" fill-rule="evenodd" stroke="none"/>
    <path d="M-159.6 -1191.15 Q-192.0 -1247.35 -198.7 -1314.55 L-185.6 -1313.1 Q-182.9 -1292.0 -172.0 -1265.15 -166.55 -1251.55 -159.7 -1238.2 -153.6 -1226.2 -146.35 -1214.4 -130.7 -1188.95 -113.95 -1171.75 -103.15 -1160.5 -93.2 -1154.15 L-90.0 -1340.1 -66.0 -1340.1 -47.3 -785.55 -45.0 -787.85 Q-28.3 -805.1 -12.6 -830.55 -1.25 -849.0 7.45 -868.15 L13.1 -881.3 Q23.9 -908.1 26.6 -929.2 L39.8 -930.7 Q33.7 -870.55 7.25 -819.3 0.5 -806.3 -7.6 -793.8 -24.25 -767.95 -44.1 -748.9 L-46.0 -747.1 -24.1 -96.4 Q-9.25 -110.0 3.65 -129.3 9.05 -137.35 14.1 -146.4 41.7 -196.05 54.5 -267.9 57.25 -283.5 59.35 -300.15 L81.1 -300.15 Q81.8 -245.75 76.9 -211.6 71.6 -173.95 56.3 -134.45 L55.8 -133.15 Q35.0 -79.9 2.5 -45.1 -8.7 -33.15 -21.3 -23.35 L-15.0 139.9 -105.0 139.9 Q-102.55 16.55 -104.2 -230.1 L-104.65 -296.15 Q-135.9 -317.35 -156.7 -355.3 -164.0 -368.65 -170.0 -384.0 -181.75 -414.1 -185.8 -442.85 -189.5 -468.45 -188.95 -509.25 L-172.6 -509.25 Q-167.8 -470.25 -157.8 -438.9 -149.9 -414.05 -138.7 -393.95 -123.85 -367.15 -104.9 -352.0 -105.2 -442.75 -93.8 -1115.45 -104.15 -1122.6 -114.85 -1132.75 -134.75 -1151.85 -151.4 -1177.65 -155.7 -1184.3 -159.6 -1191.15 M-301.15 -1024.0 Q-291.65 -1041.45 -284.4 -1059.45 -273.6 -1086.3 -270.85 -1107.35 L-257.7 -1108.85 Q-264.85 -1037.05 -301.25 -977.95 L-305.05 -971.95 Q-321.65 -946.1 -341.6 -927.05 L-345.3 -923.55 -345.3 -875.85 -345.0 -382.9 Q-329.3 -399.95 -315.9 -423.9 -309.0 -436.3 -303.0 -450.05 -279.9 -503.45 -270.65 -577.65 L-248.9 -577.65 Q-248.2 -523.25 -253.1 -489.1 -258.55 -450.8 -274.2 -410.65 -287.35 -377.1 -305.05 -350.9 -322.85 -324.6 -345.3 -305.65 L-345.7 -230.1 Q-347.45 16.55 -345.0 139.9 L-435.0 139.9 -406.5 -1340.1 -346.5 -1340.1 Q-345.85 -1310.05 -345.35 -963.05 L-342.5 -965.95 Q-325.8 -983.15 -310.1 -1008.65 -305.4 -1016.3 -301.15 -1024.0 M178.5 -1340.1 L238.5 -1340.1 Q238.9 -1318.5 239.3 -1132.65 246.2 -1137.95 253.5 -1145.55 259.1 -1151.25 264.55 -1157.95 275.4 -1171.25 285.9 -1188.2 297.25 -1206.65 305.9 -1225.75 L311.6 -1238.95 Q322.4 -1265.8 325.1 -1286.9 L338.3 -1288.35 Q332.3 -1228.7 306.2 -1177.85 299.2 -1164.35 290.9 -1151.45 278.6 -1132.3 264.4 -1116.85 L254.4 -1106.55 Q246.8 -1099.35 239.4 -1093.6 L239.7 -873.15 Q240.2 -477.7 240.0 -373.65 246.85 -382.8 253.1 -393.95 258.1 -403.0 262.5 -413.05 280.0 -453.25 287.0 -509.25 L303.3 -509.25 Q303.8 -468.45 300.2 -442.85 296.1 -414.1 284.35 -384.0 274.6 -359.15 261.5 -339.7 251.6 -324.95 239.75 -313.25 L239.3 -230.1 Q237.55 16.55 240.0 139.9 L150.0 139.9 163.25 -548.75 156.65 -554.8 Q136.75 -573.85 120.1 -599.6 116.2 -605.65 112.6 -611.8 79.55 -668.55 72.8 -736.5 L85.9 -735.05 Q88.6 -713.95 99.5 -687.15 105.4 -672.25 113.0 -657.75 118.6 -646.95 125.15 -636.35 140.8 -610.9 157.55 -593.7 160.8 -590.3 164.0 -587.35 L178.5 -1340.1 M376.5 -1340.1 L436.5 -1340.1 455.0 -120.85 461.6 -131.85 Q472.25 -151.1 480.0 -174.75 L480.0 -94.0 Q469.9 -75.45 457.3 -60.75 L465.0 139.9 375.0 139.9 Q375.85 98.65 376.2 43.55 351.25 26.85 332.9 -0.4 321.4 -17.4 312.6 -38.45 L310.0 -44.85 Q298.25 -74.95 294.2 -103.7 290.5 -129.3 291.05 -170.1 L307.4 -170.1 Q308.95 -157.15 311.15 -145.0 319.0 -101.3 334.25 -68.6 337.55 -61.45 341.3 -54.8 356.7 -27.05 376.45 -11.8 376.6 -105.1 375.8 -230.1 374.95 -338.25 375.0 -672.8 L372.65 -675.0 Q354.9 -692.0 339.8 -714.35 L336.1 -719.85 Q319.1 -746.15 308.0 -774.9 293.05 -813.6 288.8 -856.75 L301.9 -855.25 Q303.5 -843.15 307.8 -829.0 310.9 -818.7 315.5 -807.4 325.5 -782.3 340.0 -758.4 L341.15 -756.6 Q356.8 -731.15 373.55 -713.95 L375.0 -712.45 375.0 -815.95 Q375.25 -1280.85 376.5 -1340.1 M-480.0 -174.75 Q-469.5 -206.85 -464.45 -247.2 L-448.15 -247.2 Q-447.65 -206.35 -451.3 -180.75 -455.35 -152.05 -467.1 -121.95 -472.9 -107.0 -480.0 -94.0 L-480.0 -174.75 M-330.6 -1059.35 L-331.1 -1058.85 -331.25 -1060.0 -330.6 -1059.35 M473.4 -822.65 L472.7 -821.6 472.5 -823.2 473.4 -822.65" fill="#c13f00" fill-rule="evenodd" stroke="none"/>
    <path d="M-159.7 -1238.2 L-160.0 -1340.1 -90.0 -1340.1 -93.2 -1154.15 Q-103.15 -1160.5 -113.95 -1171.75 -130.7 -1188.95 -146.35 -1214.4 -153.6 -1226.2 -159.7 -1238.2 M-200.0 -1340.1 Q-201.6 -1216.75 -204.95 -600.1 -208.25 16.55 -210.0 139.9 L-225.0 139.9 -240.0 -1340.1 -200.0 -1340.1 M-150.0 139.9 L-156.7 -355.3 Q-135.9 -317.35 -104.65 -296.15 L-104.2 -230.1 Q-102.55 16.55 -105.0 139.9 L-150.0 139.9 M-157.8 -438.9 L-159.6 -1191.15 Q-155.7 -1184.3 -151.4 -1177.65 -134.75 -1151.85 -114.85 -1132.75 -104.15 -1122.6 -93.8 -1115.45 -105.2 -442.75 -104.9 -352.0 -123.85 -367.15 -138.7 -393.95 -149.9 -414.05 -157.8 -438.9 M-300.0 -1340.1 Q-300.35 -1319.2 -301.15 -1024.0 -305.4 -1016.3 -310.1 -1008.65 -325.8 -983.15 -342.5 -965.95 L-345.35 -963.05 Q-345.85 -1310.05 -346.5 -1340.1 L-300.0 -1340.1 M-301.25 -977.95 L-301.5 -895.05 Q-302.45 -475.15 -303.0 -450.05 -309.0 -436.3 -315.9 -423.9 -329.3 -399.95 -345.0 -382.9 L-345.3 -875.85 -345.3 -923.55 -341.6 -927.05 Q-321.65 -946.1 -305.05 -971.95 L-301.25 -977.95 M-305.05 -350.9 L-315.0 139.9 -345.0 139.9 Q-347.45 16.55 -345.7 -230.1 L-345.3 -305.65 Q-322.85 -324.6 -305.05 -350.9 M-66.0 -1340.1 L10.0 -1340.1 Q9.1 -1273.3 7.45 -868.15 -1.25 -849.0 -12.6 -830.55 -28.3 -805.1 -45.0 -787.85 L-47.3 -785.55 -66.0 -1340.1 M50.0 -1340.1 L120.0 -1340.1 Q117.65 -1222.6 113.0 -657.75 105.4 -672.25 99.5 -687.15 88.6 -713.95 85.9 -735.05 L72.8 -736.5 Q79.55 -668.55 112.6 -611.8 L112.5 -600.1 Q107.6 16.55 105.0 139.9 L60.0 139.9 56.3 -134.45 Q71.6 -173.95 76.9 -211.6 81.8 -245.75 81.1 -300.15 L59.35 -300.15 Q57.25 -283.5 54.5 -267.9 L50.0 -1340.1 M238.5 -1340.1 L265.0 -1340.1 264.55 -1157.95 Q259.1 -1151.25 253.5 -1145.55 246.2 -1137.95 239.3 -1132.65 238.9 -1318.5 238.5 -1340.1 M305.0 -1340.1 L345.0 -1340.1 Q343.4 -1256.6 340.0 -758.4 325.5 -782.3 315.5 -807.4 310.9 -818.7 307.8 -829.0 L306.2 -1177.85 Q332.3 -1228.7 338.3 -1288.35 L325.1 -1286.9 Q322.4 -1265.8 311.6 -1238.95 L305.9 -1225.75 305.0 -1340.1 M436.5 -1340.1 L480.0 -1340.1 480.0 -174.75 Q472.25 -151.1 461.6 -131.85 L455.0 -120.85 436.5 -1340.1 M480.0 -94.0 L480.0 139.9 465.0 139.9 457.3 -60.75 Q469.9 -75.45 480.0 -94.0 M330.0 139.9 L315.0 139.9 312.6 -38.45 Q321.4 -17.4 332.9 -0.4 L330.0 139.9 M255.0 139.9 L240.0 139.9 Q237.55 16.55 239.3 -230.1 L239.75 -313.25 Q251.6 -324.95 261.5 -339.7 L255.0 139.9 M0.0 139.9 L-15.0 139.9 -21.3 -23.35 Q-8.7 -33.15 2.5 -45.1 L0.0 139.9 M-440.0 -1340.1 Q-441.6 -1216.75 -444.95 -600.1 -448.25 16.55 -450.0 139.9 L-480.0 139.9 -480.0 -94.0 Q-472.9 -107.0 -467.1 -121.95 -455.35 -152.05 -451.3 -180.75 -447.65 -206.35 -448.15 -247.2 L-464.45 -247.2 Q-469.5 -206.85 -480.0 -174.75 L-480.0 -1340.1 -440.0 -1340.1 M-330.6 -1059.35 L-331.25 -1060.0 -331.1 -1058.85 -330.6 -1059.35 M262.5 -413.05 Q258.1 -403.0 253.1 -393.95 246.85 -382.8 240.0 -373.65 240.2 -477.7 239.7 -873.15 L239.4 -1093.6 Q246.8 -1099.35 254.4 -1106.55 L264.4 -1116.85 262.5 -413.05 M473.4 -822.65 L472.5 -823.2 472.7 -821.6 473.4 -822.65 M3.65 -129.3 Q-9.25 -110.0 -24.1 -96.4 L-46.0 -747.1 -44.1 -748.9 Q-24.25 -767.95 -7.6 -793.8 0.5 -806.3 7.25 -819.3 L6.9 -735.9 Q4.75 -207.6 3.65 -129.3 M308.0 -774.9 Q319.1 -746.15 336.1 -719.85 L339.8 -714.35 339.7 -704.95 Q336.05 -157.1 334.25 -68.6 319.0 -101.3 311.15 -145.0 310.2 -220.85 308.1 -742.55 L308.0 -774.9" fill="#993300" fill-rule="evenodd" stroke="none"/>
  </g>
</svg>
