<?xml version="1.0" encoding="UTF-8" standalone="no"?>
<svg xmlns:ffdec="https://www.free-decompiler.com/flash" xmlns:xlink="http://www.w3.org/1999/xlink" ffdec:objectType="shape" height="696.7px" width="960.0px" xmlns="http://www.w3.org/2000/svg">
  <g transform="matrix(1.0, 0.0, 0.0, 1.0, 480.0, 348.35)">
    <path d="M128.8 -264.25 L149.6 -292.35 167.8 -320.85 167.8 -320.1 154.85 -281.1 148.1 -262.75 128.8 -264.25 M232.85 182.2 L277.85 164.7 287.95 187.3 233.95 221.35 232.85 182.2 M239.8 45.0 L297.85 16.6 330.95 49.3 239.8 45.0 M302.8 -18.6 L310.85 -26.65 368.95 -22.6 302.8 -18.6 M324.85 -61.6 L342.85 -89.9 369.95 -80.65 324.85 -61.6 M349.85 -177.6 L361.85 -204.25 381.95 -201.6 369.95 -170.65 349.85 -177.6 M353.8 -233.85 L374.8 -275.1 385.85 -275.35 370.9 -229.6 353.8 -233.85 M-441.0 -15.35 L-406.0 -2.4 -428.0 5.4 -441.0 -15.35 M-329.3 -59.35 L-307.0 -80.75 -282.0 -78.6 -315.0 -47.65 -329.3 -59.35 M-192.05 61.2 L-159.2 50.7 -110.0 72.3 -177.0 72.3 -192.05 61.2 M-166.55 9.0 L-170.8 -8.9 -148.0 -32.65 -166.55 9.0 M-208.25 -67.75 L-165.7 -91.85 -140.8 -123.9 -140.8 -89.65 -208.25 -67.75 M-174.25 -155.65 L-159.65 -189.15 -112.6 -225.9 -133.0 -179.65 -174.25 -155.65 M-125.45 -246.25 L-112.55 -279.05 -120.9 -298.5 -119.0 -327.25 -70.1 -348.35 -104.0 -313.6 -91.0 -273.6 -125.45 -246.25 M89.8 -48.35 L137.8 -82.0 147.95 -30.6 89.8 -48.35 M130.1 -117.85 L130.1 -160.35 162.95 -152.65 130.1 -117.85 M123.85 -223.0 L133.85 -240.25 164.1 -228.1 123.85 -223.0" fill="#a85c17" fill-rule="evenodd" stroke="none"/>
    <path d="M176.35 -260.65 L164.1 -228.1 148.1 -262.75 176.35 -260.65 M445.1 100.2 L444.85 101.0 444.8 100.2 445.1 100.2 M-454.0 65.45 L-465.0 6.0 -451.0 7.4 -462.0 -13.85 -471.5 -36.8 -471.5 -63.1 -441.0 -15.35 -428.0 5.4 -406.0 -2.4 -438.0 40.75 -454.0 65.45 M-294.0 -140.65 L-276.5 -107.1 -257.0 -72.6 -295.0 -20.5 -265.0 37.3 -249.0 28.75 -255.0 72.9 -302.0 94.3 -301.0 42.3 -315.0 -23.65 -315.0 -47.65 -282.0 -78.6 -294.0 -140.65 M-212.7 124.9 L-212.9 123.85 -212.2 124.35 -212.7 124.9" fill="#000000" fill-rule="evenodd" stroke="none"/>
    <path d="M128.8 -264.25 L148.1 -262.75 154.85 -281.1 176.35 -260.65 148.1 -262.75 164.1 -228.1 133.85 -240.25 128.8 -264.25 M214.3 -109.4 L187.85 -78.25 163.9 -106.6 214.3 -109.4 M172.85 -8.9 L208.85 35.7 155.95 21.3 172.85 -8.9 M166.85 90.0 L178.85 138.0 150.95 134.35 166.85 90.0 M175.85 151.85 L200.35 165.45 232.85 182.2 233.95 221.35 170.8 178.05 175.85 151.85 M351.85 -120.6 L352.85 -133.35 357.85 -146.1 349.85 -177.6 369.95 -170.65 388.9 -123.6 351.85 -120.6 M361.85 -204.25 L353.8 -233.85 370.9 -229.6 381.95 -201.6 361.85 -204.25 M398.8 -13.0 L446.1 1.6 374.95 18.3 398.8 -13.0 M412.85 76.15 L445.1 100.2 444.8 100.2 381.95 102.3 412.85 76.15 M420.85 138.9 L478.85 170.2 396.95 172.3 420.85 138.9 M-465.0 6.0 L-462.0 -13.85 -451.0 7.4 -465.0 6.0 M-438.0 40.75 L-420.0 64.2 -454.0 65.45 -438.0 40.75 M-424.0 98.7 L-400.0 128.2 -444.0 112.3 -424.0 98.7 M-332.75 77.0 L-322.0 56.45 -301.0 42.3 -302.0 94.3 -233.0 98.0 -219.0 105.9 -302.0 94.3 -332.75 77.0 M-339.8 -36.9 L-329.3 -59.35 -315.0 -47.65 -315.0 -23.65 -339.8 -36.9 M-307.0 -80.75 L-294.0 -140.65 -282.0 -78.6 -307.0 -80.75 M-295.0 -20.5 L-249.0 28.75 -265.0 37.3 -295.0 -20.5 M-212.9 123.85 L-192.05 61.2 -177.0 72.3 -192.0 141.3 -212.2 124.35 -212.9 123.85 M-170.8 -8.9 L-208.1 -44.6 -148.0 -32.65 -170.8 -8.9 M-112.6 -225.9 L-125.45 -246.25 -91.0 -273.6 -66.05 -244.6 -112.6 -225.9 M-36.2 -202.55 L13.8 -153.1 -75.05 -154.6 -36.2 -202.55 M-56.1 -93.5 L-20.4 -74.45 -73.1 -75.6 -56.1 -93.5 M-65.1 -9.95 L-36.25 43.8 -99.0 17.4 -65.1 -9.95 M97.85 4.85 L84.1 -7.85 134.95 -13.6 97.85 4.85 M130.1 -160.35 L147.85 -176.85 162.95 -152.65 130.1 -160.35 M127.9 56.35 L127.9 77.35 46.3 53.2 127.9 56.35 M-74.05 105.3 L-0.2 84.9 16.9 121.3 -74.05 105.3" fill="#663300" fill-rule="evenodd" stroke="none"/>
    <path d="M179.8 -123.55 L214.3 -109.4 163.9 -106.6 179.8 -123.55 M252.85 78.0 L239.8 45.0 330.95 49.3 252.85 78.0 M342.85 -89.9 L351.85 -120.6 388.9 -123.6 369.95 -80.65 342.85 -89.9 M-347.0 85.5 L-332.75 77.0 -302.0 94.3 -347.0 85.5 M-45.55 60.4 L-0.2 84.9 -74.05 105.3 -45.55 60.4 M46.3 53.2 L105.85 31.75 127.9 56.35 46.3 53.2 M84.1 -7.85 L89.8 -48.35 147.95 -30.6 134.95 -13.6 84.1 -7.85" fill="#7f4b18" fill-rule="evenodd" stroke="none"/>
    <path d="M164.1 -228.1 L209.8 -156.1 179.8 -123.55 163.9 -106.6 187.85 -78.25 204.85 -60.25 172.85 -8.9 155.95 21.3 208.85 35.7 167.6 66.0 166.85 90.0 150.95 134.35 178.85 138.0 175.85 151.85 170.8 178.05 233.95 221.35 287.95 187.3 277.85 164.7 272.8 154.6 289.85 140.45 269.8 118.2 274.85 109.2 252.85 78.0 330.95 49.3 297.85 16.6 279.1 -2.1 271.85 -23.1 282.35 -23.4 302.8 -18.6 368.95 -22.6 296.8 -40.5 299.8 -61.15 324.85 -61.6 369.95 -80.65 388.9 -123.6 369.95 -170.65 381.95 -201.6 370.9 -229.6 385.85 -275.35 383.8 -246.85 395.8 -217.6 385.85 -162.1 412.85 -123.1 398.8 -90.55 407.35 -82.6 410.8 -82.85 392.8 -55.0 413.8 -33.6 398.8 -13.0 374.95 18.3 446.1 1.6 434.8 41.2 412.85 76.15 381.95 102.3 444.8 100.2 444.85 101.0 420.85 138.9 396.95 172.3 478.85 170.2 480.0 170.2 480.0 348.35 -480.0 348.35 -480.0 168.35 -471.5 145.3 -459.0 129.25 -464.3 116.45 -454.0 65.45 -420.0 64.2 -424.0 98.7 -444.0 112.3 -400.0 128.2 -372.0 113.45 -372.0 103.75 -349.75 95.2 -347.0 85.5 -302.0 94.3 -219.0 105.9 -219.0 123.0 -212.7 124.9 -212.2 124.35 -192.0 141.3 -177.0 72.3 -110.0 72.3 -159.2 50.7 -141.1 24.35 -166.55 9.0 -148.0 -32.65 -208.1 -44.6 -208.25 -67.75 -140.8 -89.65 -140.8 -123.9 -116.0 -148.6 -133.0 -179.65 -112.6 -225.9 -66.05 -244.6 -91.0 -273.6 -104.0 -313.6 -70.1 -348.35 -70.0 -347.8 -85.45 -290.65 -57.25 -274.0 -31.8 -256.45 -30.7 -248.35 -29.15 -225.65 -36.2 -202.55 -75.05 -154.6 13.8 -153.1 -56.1 -93.5 -73.1 -75.6 -25.4 -41.6 -65.1 -9.95 -99.0 17.4 -36.25 43.8 -45.55 60.4 -74.05 105.3 16.9 121.3 -0.2 84.9 -0.2 72.5 8.6 41.45 46.3 53.2 127.9 77.35 127.9 56.35 105.85 31.75 87.85 15.35 97.85 4.85 134.95 -13.6 147.95 -30.6 137.8 -82.0 130.1 -117.85 162.95 -152.65 147.85 -176.85 123.85 -223.0 164.1 -228.1" fill="url(#gradient0)" fill-rule="evenodd" stroke="none"/>
    <path d="M310.85 -26.65 L296.8 -40.5 368.95 -22.6 310.85 -26.65 M-322.0 56.45 L-333.0 10.4 -339.8 -36.9 -315.0 -23.65 -301.0 42.3 -322.0 56.45 M-255.0 72.9 L-233.0 98.0 -302.0 94.3 -255.0 72.9 M-140.8 -123.9 L-176.0 -155.1 -174.25 -155.65 -133.0 -179.65 -116.0 -148.6 -140.8 -123.9 M-20.4 -74.45 L-25.4 -41.6 -73.1 -75.6 -20.4 -74.45" fill="#442509" fill-rule="evenodd" stroke="none"/>
  </g>
  <defs>
    <linearGradient gradientTransform="matrix(0.0, -0.1582, 0.5859, 0.0, 0.0, 201.6)" gradientUnits="userSpaceOnUse" id="gradient0" spreadMethod="pad" x1="-819.2" x2="819.2">
      <stop offset="0.0" stop-color="#442509"/>
      <stop offset="1.0" stop-color="#000000"/>
    </linearGradient>
  </defs>
</svg>
