<?xml version="1.0" encoding="UTF-8" standalone="no"?>
<svg xmlns:ffdec="https://www.free-decompiler.com/flash" xmlns:xlink="http://www.w3.org/1999/xlink" ffdec:objectType="shape" height="610.0px" width="960.0px" xmlns="http://www.w3.org/2000/svg">
  <g transform="matrix(1.0, 0.0, 0.0, 1.0, 480.0, 305.0)">
    <path d="M160.5 44.8 Q155.85 44.8 152.0 46.9 L158.05 50.5 161.8 44.9 160.5 44.8 M304.6 -269.1 L286.55 -296.0 295.55 -305.0 302.65 -294.4 Q305.5 -296.0 309.05 -296.0 314.65 -296.0 318.65 -292.05 322.55 -288.1 322.55 -282.55 322.55 -277.0 318.65 -273.05 L317.6 -272.1 331.55 -251.15 385.55 -278.05 394.6 -260.1 349.6 -233.2 385.55 -206.3 376.6 -179.4 382.55 -170.5 407.7 -138.6 367.6 -107.6 394.6 -89.8 385.55 -53.9 412.65 -35.95 430.6 -53.9 439.65 -35.95 394.6 -0.05 403.6 26.85 Q414.8 26.85 422.7 34.7 430.6 42.6 430.6 53.75 430.6 59.5 428.55 64.35 L436.0 69.3 463.35 55.4 480.0 58.05 480.0 304.95 -480.0 304.95 -480.0 73.35 -476.5 76.85 Q-474.75 74.25 -472.4 71.9 -469.4 68.95 -466.05 67.0 -458.95 62.7 -450.15 62.7 -437.05 62.7 -427.8 71.9 -418.6 81.15 -418.6 94.1 -418.6 100.8 -421.05 106.55 L-418.6 107.55 -400.6 89.65 -436.55 44.8 -427.6 26.85 -391.55 44.8 -373.6 17.85 -339.1 24.7 Q-346.55 16.1 -346.55 4.4 -346.55 -6.55 -340.0 -14.7 L-364.55 -27.0 -346.55 -53.9 -364.55 -107.6 -346.55 -116.6 -319.55 -80.75 -301.5 -116.6 -256.5 -134.6 -256.5 -170.4 -301.5 -170.4 -310.55 -197.35 -293.6 -214.2 Q-301.5 -222.05 -301.5 -233.2 -301.5 -242.4 -296.15 -249.4 L-301.5 -260.1 -301.5 -278.05 -292.55 -278.05 -278.75 -259.8 -274.5 -260.1 Q-263.3 -260.1 -255.4 -252.25 -253.65 -250.6 -252.4 -248.75 L-229.5 -260.1 -238.5 -287.05 -229.5 -296.0 -202.5 -251.15 -157.5 -260.1 -148.45 -233.2 -202.5 -215.25 -184.5 -161.45 Q-175.45 -165.9 -166.45 -170.4 L-157.5 -161.45 -175.45 -143.5 -169.6 -136.25 -168.85 -137.0 Q-162.3 -143.5 -152.95 -143.5 -143.65 -143.5 -137.05 -137.0 -130.45 -130.4 -130.45 -121.15 -130.45 -111.85 -137.05 -105.3 -139.25 -103.1 -141.75 -101.55 L-139.5 -98.7 -103.45 -116.6 -85.4 -80.75 -103.45 -71.85 -121.45 -27.0 -114.8 -16.95 -103.45 -18.0 Q-81.1 -18.0 -65.25 -2.25 -49.45 13.55 -49.45 35.8 -49.45 42.25 -50.75 48.2 L-28.1 65.8 Q-26.4 54.75 -18.0 46.35 -7.4 35.8 7.45 35.8 19.8 35.8 29.1 42.95 L34.45 35.8 25.5 -9.05 52.5 -18.0 61.4 -44.95 34.45 -53.9 34.45 -62.8 61.4 -53.9 70.45 -80.75 88.5 -71.85 79.45 -44.95 106.5 -9.05 97.45 26.85 99.25 30.45 113.05 23.6 143.5 41.85 Q150.7 35.8 160.5 35.8 164.1 35.8 167.3 36.65 L181.2 15.8 160.5 8.9 151.5 -27.0 160.15 -28.65 158.05 -30.25 167.05 -48.2 186.15 -33.85 196.55 -35.95 214.55 -62.8 160.5 -125.55 178.5 -143.5 200.0 -122.1 214.7 -133.05 Q215.1 -138.4 217.25 -142.95 L194.0 -173.65 203.05 -182.7 221.1 -164.75 236.4 -175.55 214.55 -197.35 223.5 -206.3 246.9 -183.0 284.1 -209.55 305.55 -195.3 313.55 -215.25 304.6 -224.25 268.55 -206.3 259.55 -224.25 295.55 -242.2 304.6 -269.1 M124.45 80.65 L125.0 80.35 123.25 77.6 122.9 77.65 124.45 80.65 M20.2 84.4 Q25.5 79.15 25.5 71.7 25.5 64.2 20.2 59.05 L18.25 57.35 Q13.65 53.75 7.45 53.75 0.0 53.75 -5.25 59.05 -10.55 64.2 -10.55 71.7 L-10.2 75.25 Q-9.25 80.45 -5.25 84.4 0.0 89.65 7.45 89.65 14.9 89.65 20.2 84.4 M-315.0 -9.05 Q-320.65 -9.05 -324.6 -5.1 -328.5 -1.15 -328.5 4.4 -328.5 9.95 -324.6 13.9 -320.65 17.85 -315.0 17.85 -309.45 17.85 -305.5 13.9 -301.5 9.95 -301.5 4.4 -301.5 -1.15 -305.5 -5.1 -309.45 -9.05 -315.0 -9.05 M-77.95 10.45 Q-88.55 -0.05 -103.45 -0.05 L-105.65 0.05 -96.55 12.1 -112.5 35.8 -78.25 61.45 -77.95 61.15 Q-67.45 50.65 -67.45 35.8 -67.45 20.95 -77.95 10.45 M-469.9 83.35 L-463.65 89.65 -429.45 103.25 Q-427.6 99.1 -427.6 94.1 -427.6 84.8 -434.2 78.2 -440.8 71.7 -450.15 71.7 -459.45 71.7 -466.0 78.2 L-466.05 78.3 Q-468.35 80.7 -469.9 83.35" fill="url(#gradient0)" fill-rule="evenodd" stroke="none"/>
    <path d="M177.2 -113.8 L215.85 -94.45 225.85 -109.5 225.1 -110.2 Q222.3 -113.05 222.3 -117.0 222.3 -121.0 225.1 -123.85 227.95 -126.65 231.95 -126.65 234.5 -126.65 236.55 -125.55 L241.6 -133.15 248.05 -126.65 235.15 -107.35 241.6 -88.05 267.35 -75.15 260.95 -62.25 235.15 -75.15 228.75 -68.65 241.6 -36.45 273.85 -42.95 293.15 -62.25 299.55 -55.85 280.25 -36.45 248.05 -30.05 258.2 -19.9 261.1 -23.4 Q267.7 -30.05 277.05 -30.05 286.4 -30.05 293.0 -23.4 299.55 -16.85 299.55 -7.5 299.55 0.4 294.95 6.3 L299.55 8.65 325.35 -17.15 338.25 -4.25 299.55 40.85 312.45 60.15 344.7 66.6 338.25 92.4 318.95 98.8 327.1 115.2 Q331.95 111.7 338.25 111.7 346.25 111.7 351.9 117.3 357.6 123.0 357.6 131.0 357.6 135.4 355.95 139.05 L364.05 143.9 383.35 105.25 376.9 79.5 396.25 53.7 389.8 34.4 402.7 27.95 409.15 47.25 428.45 40.85 428.45 47.25 409.15 53.7 415.6 73.05 434.9 79.5 428.45 111.7 432.3 116.8 Q439.0 111.7 447.8 111.7 458.45 111.7 466.0 119.25 473.6 126.85 473.6 137.5 473.6 140.1 473.15 142.5 L480.0 143.9 480.0 305.0 -480.0 305.0 -480.0 137.5 -460.7 150.4 -441.35 118.15 -422.05 131.0 -428.45 143.9 -415.55 150.4 -389.85 131.0 -402.7 98.8 -422.05 79.5 -410.9 70.6 Q-415.55 65.55 -415.55 58.55 -415.55 51.2 -410.4 46.05 -405.2 40.85 -397.85 40.85 -391.5 40.85 -386.8 44.7 L-383.35 34.4 -415.55 8.65 -387.3 -7.55 Q-389.85 -11.8 -389.85 -17.15 -389.85 -25.15 -384.15 -30.85 -378.55 -36.45 -370.45 -36.45 -364.95 -36.45 -360.5 -33.8 L-351.15 -49.35 -376.95 -81.55 -357.6 -94.45 -312.5 -62.25 -299.6 -75.15 -293.15 -68.65 -312.5 -42.95 -286.7 -23.6 -293.15 -10.75 -299.8 -11.8 Q-300.35 -9.2 -302.45 -7.1 -305.3 -4.25 -309.25 -4.25 -313.25 -4.25 -316.1 -7.1 -318.95 -9.95 -318.95 -13.9 L-318.9 -15.0 -331.85 -17.15 -338.25 -4.25 -316.15 21.5 -315.7 21.5 Q-309.0 21.5 -304.35 26.2 -299.6 30.95 -299.6 37.6 L-299.8 40.55 -299.6 40.85 -273.8 21.5 -267.4 34.4 -293.15 53.7 -267.4 92.4 -235.2 73.05 -222.3 79.5 -238.75 105.8 Q-230.6 107.45 -224.35 113.75 -217.85 120.25 -216.3 128.8 L-203.0 118.15 -195.55 120.6 Q-196.5 116.3 -196.5 111.7 -196.5 95.7 -185.2 84.35 -173.85 73.05 -157.85 73.05 L-149.75 73.8 -144.95 66.6 -157.85 34.4 -170.75 27.95 -157.85 2.15 -132.1 15.05 -130.45 13.0 -133.8 10.35 Q-138.55 5.6 -138.55 -1.05 -138.55 -7.75 -133.8 -12.45 -129.1 -17.15 -122.4 -17.15 -115.75 -17.15 -111.05 -12.45 L-110.5 -11.9 -106.35 -17.15 -119.2 -30.05 -112.75 -36.45 -99.85 -30.05 -86.95 -68.65 -125.65 -81.55 -119.2 -100.9 -86.95 -94.45 -67.65 -126.65 -61.25 -120.25 -67.65 -100.9 -51.3 -92.7 -49.15 -95.25 Q-43.45 -100.9 -35.45 -100.9 L-32.4 -100.7 -22.55 -113.8 -16.15 -113.8 -16.15 -100.9 -19.95 -93.2 Q-16.15 -88.2 -16.15 -81.55 -16.15 -73.55 -21.8 -67.95 L-9.65 -55.85 -16.15 -36.45 -48.35 -36.45 -48.35 -10.75 -16.15 2.15 -3.25 27.95 16.1 2.15 29.0 8.65 16.1 47.25 29.0 66.6 11.4 75.4 Q16.1 81.25 16.1 89.15 16.1 97.55 10.75 103.75 L35.45 98.8 48.3 118.15 74.1 105.25 80.5 118.15 54.75 150.4 67.65 163.2 69.4 162.5 Q67.65 158.4 67.65 153.55 67.65 144.25 74.25 137.65 80.85 131.0 90.2 131.0 99.55 131.0 106.15 137.65 107.85 139.3 109.1 141.15 L119.2 131.0 138.5 137.5 146.45 132.2 Q145.0 128.7 145.0 124.6 145.0 116.55 150.6 110.9 156.3 105.25 164.3 105.25 L170.75 85.95 138.5 60.15 145.0 47.25 157.85 60.15 177.2 47.25 170.75 21.5 190.05 8.65 164.3 -10.75 138.5 2.15 125.6 27.95 119.2 21.5 132.1 -4.25 166.05 -21.25 Q164.3 -23.65 164.3 -26.8 164.3 -30.8 167.15 -33.65 170.0 -36.45 173.95 -36.45 176.5 -36.45 178.55 -35.3 L183.6 -42.95 177.2 -62.25 202.95 -81.55 170.75 -100.9 177.2 -113.8 M3.2 89.15 Q3.2 85.15 0.4 82.3 -2.45 79.5 -6.45 79.5 -10.45 79.5 -13.3 82.3 -16.15 85.15 -16.15 89.15 -16.15 93.1 -13.3 95.95 -10.45 98.8 -6.45 98.8 -2.45 98.8 0.4 95.95 3.2 93.1 3.2 89.15 M460.7 137.5 Q460.7 132.1 456.9 128.35 453.1 124.6 447.8 124.6 443.35 124.6 440.05 127.2 L438.7 128.35 Q434.9 132.1 434.9 137.5 434.9 142.8 438.7 146.6 442.45 150.4 447.8 150.4 453.1 150.4 456.9 146.6 459.75 143.75 460.45 140.0 L460.7 137.5 M338.25 118.15 Q333.55 118.15 330.1 121.05 L329.15 121.9 Q325.35 125.7 325.35 131.0 325.35 136.4 329.15 140.15 332.95 143.9 338.25 143.9 343.6 143.9 347.35 140.15 349.35 138.15 350.35 135.7 351.15 133.55 351.15 131.0 351.15 125.7 347.35 121.9 343.6 118.15 338.25 118.15 M267.35 -7.5 Q267.35 -3.5 270.2 -0.65 273.05 2.15 277.05 2.15 280.35 2.15 282.85 0.25 L283.9 -0.65 Q286.75 -3.5 286.75 -7.5 286.75 -11.45 283.9 -14.3 281.05 -17.15 277.05 -17.15 273.05 -17.15 270.2 -14.3 268.45 -12.55 267.8 -10.3 267.35 -9.0 267.35 -7.5 M75.45 160.15 L99.9 150.4 104.35 145.85 Q103.25 143.9 101.55 142.15 96.9 137.5 90.2 137.5 83.55 137.5 78.8 142.15 74.1 146.9 74.1 153.55 74.1 157.15 75.45 160.15 M-235.2 143.9 L-222.3 133.6 Q-222.5 124.7 -228.9 118.3 -234.65 112.55 -242.5 111.85 L-254.5 131.0 -235.2 143.9 M-156.3 86.0 L-157.85 85.95 Q-168.5 85.95 -176.1 93.45 -183.6 101.05 -183.6 111.7 -183.6 122.35 -176.1 129.9 L-175.9 130.1 -151.4 111.7 -162.8 94.65 -156.3 86.0 M-375.05 -12.6 Q-373.15 -10.75 -370.45 -10.75 -367.8 -10.75 -365.95 -12.6 -364.05 -14.45 -364.05 -17.15 -364.05 -19.85 -365.95 -21.75 -367.8 -23.6 -370.45 -23.6 -373.15 -23.6 -375.05 -21.75 -376.95 -19.85 -376.95 -17.15 -376.95 -14.45 -375.05 -12.6" fill="url(#gradient1)" fill-rule="evenodd" stroke="none"/>
  </g>
  <defs>
    <linearGradient gradientTransform="matrix(0.0, -0.3723, 0.5859, 0.0, 0.0, 0.0)" gradientUnits="userSpaceOnUse" id="gradient0" spreadMethod="pad" x1="-819.2" x2="819.2">
      <stop offset="0.0" stop-color="#525252"/>
      <stop offset="1.0" stop-color="#000000"/>
    </linearGradient>
    <linearGradient gradientTransform="matrix(0.0, -0.2674, 0.5859, 0.0, 0.0, 85.95)" gradientUnits="userSpaceOnUse" id="gradient1" spreadMethod="pad" x1="-819.2" x2="819.2">
      <stop offset="0.0" stop-color="#7a8b67"/>
      <stop offset="1.0" stop-color="#9aa88a"/>
    </linearGradient>
  </defs>
</svg>
