<?xml version="1.0" encoding="UTF-8" standalone="no"?>
<svg xmlns:ffdec="https://www.free-decompiler.com/flash" xmlns:xlink="http://www.w3.org/1999/xlink" ffdec:objectType="shape" height="484.2px" width="960.0px" xmlns="http://www.w3.org/2000/svg">
  <g transform="matrix(1.0, 0.0, 0.0, 1.0, 480.0, 222.1)">
    <path d="M84.15 -105.7 L90.0 -117.15 113.7 -134.6 81.05 -61.2 84.15 -105.7 M105.0 -79.0 L139.2 -100.3 179.05 -143.55 192.8 -136.9 116.4 -45.2 29.0 125.55 52.5 146.4 164.85 -20.7 179.85 -44.8 259.25 -85.4 259.25 -85.35 206.4 -27.25 96.45 137.85 105.6 135.7 128.3 140.05 187.2 151.3 211.75 144.7 211.75 18.8 229.35 -8.55 243.3 -15.1 276.0 20.7 257.95 132.3 298.8 121.3 312.05 129.25 319.55 133.75 327.8 108.85 350.95 39.55 356.45 23.0 382.85 -56.15 392.3 -80.45 399.6 -52.4 332.7 141.65 351.2 152.75 352.8 153.7 354.9 152.75 357.95 151.35 368.6 146.35 397.1 133.05 424.8 120.1 432.85 124.85 466.2 144.4 457.2 32.75 480.0 -16.3 480.0 262.1 -480.0 262.1 -480.0 0.35 -458.0 117.2 -448.75 112.9 -415.9 138.0 -447.4 -13.05 -434.85 -34.5 -389.05 136.7 -374.7 131.05 -334.75 115.3 -315.55 150.1 -291.55 127.3 -287.75 128.0 -259.15 41.15 -208.6 4.4 -209.05 5.4 -195.05 -5.5 -162.4 -30.95 -151.65 -39.3 -105.35 -48.6 -256.6 133.75 -231.3 138.4 -200.35 144.1 -181.15 118.9 -177.55 119.95 -143.55 129.65 -150.7 33.75 -118.05 -6.0 -116.25 -8.1 -111.25 -8.05 -76.1 148.9 -63.55 152.5 -48.7 138.9 -97.15 -8.05 -97.45 -30.75 -84.35 -10.8 -26.9 136.1 -17.55 147.95 19.9 84.35 31.75 64.2 78.05 -16.75 81.05 -61.2 105.0 -79.0 M252.9 -46.25 L285.05 -37.65 285.05 -37.6 273.6 -20.05 252.9 -46.25 M297.85 -24.65 L288.5 -49.85 298.05 -100.05 310.75 -90.75 310.75 -44.05 324.15 8.25 297.85 -24.65 M321.65 -61.3 L329.55 -106.05 350.4 -88.4 340.15 4.5 321.65 -61.3 M413.65 -38.5 L451.8 -89.45 457.95 -90.35 436.8 -48.8 406.8 -13.8 413.65 -38.5 M445.25 -36.9 L469.2 -54.65 479.95 -57.15 480.0 -57.1 452.4 -15.25 391.2 42.75 400.05 10.95 445.25 -36.9 M-363.85 -24.7 L-361.9 -25.8 -366.75 -44.25 -361.95 -82.05 -333.55 -28.45 -333.55 30.35 -331.9 80.15 -363.85 -24.7 M-294.7 -69.7 L-290.05 -93.15 -279.55 -80.0 -326.1 98.95 -331.9 80.15 -294.7 -69.7 M-265.05 -61.35 L-235.2 -78.45 -257.95 -44.05 -283.15 39.95 -265.05 -61.3 -265.05 -61.35 M-236.25 -16.95 L-224.85 -21.65 -200.05 -16.3 -200.05 -16.25 -230.35 5.15 -247.65 12.05 -236.25 -16.95 M-67.05 -90.0 L-64.5 -125.2 -40.5 -111.6 -40.5 -111.5 -40.5 -78.8 -67.05 -90.0 M-1.55 -34.75 L-28.6 -138.2 -10.95 -138.8 22.8 -8.05 -1.55 -34.75 M46.15 -94.65 L50.0 -117.15 63.6 -112.4 56.4 -59.6 46.15 -94.65 M99.6 -54.8 L139.2 -100.3 99.6 -54.8" fill="#eeeeee" fill-opacity="0.8" fill-rule="evenodd" stroke="none"/>
    <path d="M79.05 -156.45 L84.5 -111.2 83.25 -103.95 84.15 -105.7 81.05 -61.2 113.7 -134.6 119.55 -126.7 117.35 -103.2 105.0 -79.0 81.05 -61.2 78.05 -16.75 31.75 64.2 -48.0 -27.25 -136.6 -108.65 -67.05 -90.0 -40.5 -78.8 -40.5 -111.5 -1.25 -33.6 -1.55 -34.75 22.8 -8.05 -10.95 -138.8 -10.95 -222.1 30.75 -153.7 46.15 -94.65 56.4 -59.6 63.6 -112.4 79.05 -156.45 M192.8 -136.9 L179.95 -58.05 162.55 -22.3 164.85 -20.7 52.5 146.4 29.0 125.55 116.4 -45.2 192.8 -136.9 M259.25 -85.35 L260.1 -57.9 252.9 -46.25 237.45 -21.4 237.45 -21.45 229.35 -8.55 211.75 18.8 128.3 140.05 105.6 135.7 96.45 137.85 206.4 -27.25 259.25 -85.35 M285.05 -37.6 L296.25 -25.75 296.95 -25.8 297.85 -23.95 298.35 -23.45 297.85 -24.65 324.15 8.25 310.75 -44.05 310.75 -90.75 321.65 -61.3 340.15 4.5 350.4 -88.4 380.35 -174.75 389.75 -95.5 382.85 -56.15 356.45 23.0 340.15 4.5 350.95 39.55 327.8 108.85 273.6 -20.05 285.05 -37.6 M420.45 -116.5 L428.65 -113.3 425.0 -67.65 413.65 -38.5 406.8 -13.8 436.8 -48.8 457.95 -90.35 454.45 -49.1 445.25 -36.9 400.05 10.95 391.2 42.75 357.95 151.35 354.9 152.75 351.2 152.75 332.7 141.65 399.6 -52.4 420.45 -116.5 M479.95 -57.15 L480.0 -57.15 480.0 -57.1 480.0 -16.35 397.1 133.05 368.6 146.35 391.2 42.75 452.4 -15.25 480.0 -57.1 479.95 -57.15 M-480.0 0.35 L-480.0 -57.15 -471.7 -48.75 -447.4 -13.05 -415.9 138.0 -448.75 112.9 -458.0 117.2 -480.0 0.35 M-418.65 -38.7 L-437.55 -110.8 -401.95 -110.8 -427.8 -157.25 -412.3 -154.0 -389.65 -123.35 -363.85 -24.7 -331.9 80.15 -333.55 30.35 -333.55 -28.45 -318.75 -67.3 -328.05 -129.5 -324.7 -134.15 -300.0 -105.15 -294.7 -69.7 -331.9 80.15 -326.1 98.95 -279.55 -80.0 -264.3 -110.25 -259.95 -87.15 -265.05 -61.35 -265.05 -61.3 -283.15 39.95 -257.95 -44.05 -235.2 -78.45 -227.4 -64.7 -236.25 -16.95 -247.65 12.05 -230.35 5.15 -200.05 -16.25 -200.05 -16.3 -199.95 -16.3 -200.05 -16.25 -208.6 4.4 -259.15 41.15 -287.75 128.0 -291.55 127.3 -315.55 150.1 -334.75 115.3 -374.7 131.05 -418.65 -38.7 M-195.05 -5.5 L-201.4 -22.6 -197.1 -61.55 -187.3 -60.5 -164.4 -36.3 -162.4 -30.95 -195.05 -5.5 M-116.25 -8.1 L-111.25 -8.5 -108.9 -19.9 -97.45 -30.85 -97.45 -30.75 -97.15 -8.05 -48.7 138.9 -63.55 152.5 -76.1 148.9 -111.25 -8.05 -116.25 -8.1 M-84.35 -10.8 L-73.2 -11.7 -48.25 9.45 -21.6 39.95 19.9 84.35 -17.55 147.95 -26.9 136.1 -84.35 -10.8 M457.2 32.75 L466.2 144.4 432.85 124.85 457.2 32.75 M312.05 129.25 L298.8 121.3 257.95 132.3 276.0 20.7 312.05 129.25 M-177.55 119.95 L-181.15 118.9 -200.35 144.1 -231.3 138.4 -179.5 68.5 -177.55 119.95" fill="#eeeeee" fill-opacity="0.6" fill-rule="evenodd" stroke="none"/>
    <path d="M329.55 -106.05 L365.3 -177.45 380.35 -174.8 380.35 -174.75 350.4 -88.4 329.55 -106.05 M392.3 -80.45 L420.45 -116.5 399.6 -52.4 392.3 -80.45 M-437.55 -110.8 L-427.8 -157.25 -401.95 -110.8 -437.55 -110.8 M-361.95 -82.05 L-345.1 -101.1 -318.75 -67.3 -333.55 -28.45 -361.95 -82.05 M-290.05 -93.15 L-272.05 -116.3 -264.3 -110.3 -264.3 -110.25 -279.55 -80.0 -290.05 -93.15 M-28.6 -138.2 L-25.75 -218.2 -10.95 -222.1 -10.95 -138.8 -28.6 -138.2 M50.0 -117.15 L70.4 -158.0 79.05 -156.5 79.05 -156.45 63.6 -112.4 50.0 -117.15" fill="#eeeeee" fill-opacity="0.9490196" fill-rule="evenodd" stroke="none"/>
    <path d="M480.0 -16.35 L480.0 -16.3 457.2 32.75 432.85 124.85 424.8 120.1 397.1 133.05 480.0 -16.35 M-434.85 -34.5 L-418.65 -38.7 -374.7 131.05 -389.05 136.7 -434.85 -34.5 M-105.35 -48.6 L-102.15 -33.15 -118.05 -6.0 -150.7 33.75 -143.55 129.65 -177.55 119.95 -179.5 68.5 -231.3 138.4 -256.6 133.75 -105.35 -48.6 M-48.25 9.45 L-61.35 -16.65 -136.95 -97.85 -136.6 -108.65 -48.0 -27.25 31.75 64.2 19.9 84.35 -21.6 39.95 -48.25 9.45 M243.3 -15.1 L252.9 -46.25 273.6 -20.05 327.8 108.85 319.55 133.75 312.05 129.25 276.0 20.7 243.3 -15.1 M128.3 140.05 L211.75 18.8 211.75 144.7 187.2 151.3 128.3 140.05 M391.2 42.75 L368.6 146.35 357.95 151.35 391.2 42.75 M340.15 4.5 L356.45 23.0 350.95 39.55 340.15 4.5 M-125.75 3.0 L-126.25 3.45 -126.1 3.45 -125.75 3.0" fill="#cccccc" fill-opacity="0.6" fill-rule="evenodd" stroke="none"/>
    <path d="M139.2 -100.3 L99.6 -54.8" fill="none" stroke="#666666" stroke-linecap="round" stroke-linejoin="round" stroke-width="1.0"/>
  </g>
</svg>
