<?xml version="1.0" encoding="UTF-8" standalone="no"?>
<svg xmlns:ffdec="https://www.free-decompiler.com/flash" xmlns:xlink="http://www.w3.org/1999/xlink" ffdec:objectType="shape" height="576.7px" width="960.05px" xmlns="http://www.w3.org/2000/svg">
  <g transform="matrix(1.0, 0.0, 0.0, 1.0, 480.0, 245.0)">
    <path d="M480.05 331.7 L-480.0 331.7 -480.0 241.7 480.05 241.7 480.05 331.7" fill="url(#gradient0)" fill-rule="evenodd" stroke="none"/>
    <path d="M50.0 -45.0 L130.0 -45.0 130.0 -25.0 150.0 -25.0 150.0 245.0 30.0 245.0 30.0 -25.0 50.0 -25.0 50.0 -45.0 M430.0 55.0 L480.0 55.0 480.0 245.0 420.0 245.0 420.0 65.0 430.0 65.0 430.0 55.0 M350.0 55.0 L400.0 55.0 400.0 65.0 410.0 65.0 410.0 245.0 340.0 245.0 340.0 65.0 350.0 65.0 350.0 55.0 M320.0 75.0 L320.0 245.0 170.0 245.0 170.0 75.0 200.0 75.0 200.0 55.0 290.0 55.0 290.0 75.0 320.0 75.0 M10.0 245.0 L-130.0 245.0 -130.0 75.0 -110.0 75.0 -110.0 35.0 -80.0 35.0 -80.0 25.0 -70.0 25.0 -70.0 15.0 -50.0 15.0 -50.0 25.0 -40.0 25.0 -40.0 35.0 -10.0 35.0 -10.0 75.0 10.0 75.0 10.0 245.0 M-330.0 -25.0 L-330.0 -5.0 -310.0 -5.0 -310.0 15.0 -290.0 15.0 -290.0 245.0 -360.0 245.0 -360.0 -25.0 -330.0 -25.0 M-150.0 55.0 L-150.0 245.0 -270.0 245.0 -270.0 55.0 -260.0 55.0 -260.0 45.0 -250.0 45.0 -250.0 35.0 -220.0 35.0 -220.0 45.0 -200.0 45.0 -200.0 25.0 -180.0 25.0 -180.0 45.0 -160.0 45.0 -160.0 55.0 -150.0 55.0 M-470.0 65.0 L-470.0 245.0 -480.0 245.0 -480.0 65.0 -470.0 65.0 M-380.0 5.0 L-380.0 245.0 -450.0 245.0 -450.0 5.0 -380.0 5.0" fill="#666666" fill-rule="evenodd" stroke="none"/>
    <path d="M148.0 -125.0 L150.0 -95.0 230.0 -95.0 230.0 -85.0 220.0 -85.0 220.0 -78.0 210.0 -75.0 210.0 -65.0 220.0 -65.0 220.0 -55.0 230.0 -55.0 230.0 -5.0 240.0 -5.0 240.0 25.0 250.0 25.0 250.0 245.0 100.0 245.0 100.0 25.0 110.0 25.0 110.0 -5.0 120.0 -5.0 120.0 -55.0 130.0 -55.0 130.0 -65.0 140.0 -65.0 140.0 -75.0 130.0 -78.0 130.0 -85.0 120.0 -85.0 120.0 -95.0 140.0 -95.0 142.0 -125.0 148.0 -125.0 M70.0 -170.95 L70.0 105.0 80.0 105.0 80.0 245.0 -30.0 245.0 -30.0 105.0 -20.0 105.0 -20.0 5.0 -19.95 5.0 Q-18.9 -68.45 13.65 -120.85 38.15 -160.2 70.0 -170.95 M150.0 -65.0 L200.0 -65.0 200.0 -75.0 150.0 -75.0 150.0 -65.0 M150.0 -39.25 L174.25 -15.0 175.75 -15.0 200.0 -39.25 200.0 -45.0 150.0 -45.0 150.0 -39.25 M140.0 -35.0 L140.0 -5.0 170.0 -5.0 170.0 -10.75 145.75 -35.0 140.0 -35.0 M180.0 -5.0 L210.0 -5.0 210.0 -35.0 204.25 -35.0 180.0 -10.75 180.0 -5.0 M320.0 -45.0 L320.0 -35.0 340.0 -15.0 350.0 -15.0 350.0 -5.0 370.0 15.0 380.0 15.0 380.0 35.0 370.0 35.0 370.0 55.0 380.0 55.0 380.0 75.0 370.0 75.0 370.0 95.0 380.0 95.0 380.0 115.0 370.0 115.0 370.0 135.0 380.0 135.0 380.0 155.0 370.0 155.0 370.0 175.0 380.0 175.0 380.0 245.0 270.0 245.0 270.0 -65.0 290.0 -65.0 310.0 -45.0 320.0 -45.0 M460.0 25.0 L460.0 75.0 470.0 75.0 470.0 115.0 480.0 115.0 480.0 145.0 470.0 145.0 470.0 155.0 480.0 155.0 480.0 245.0 400.0 245.0 400.0 155.0 410.0 155.0 410.0 145.0 400.0 145.0 400.0 115.0 410.0 115.0 410.0 111.0 420.0 105.0 420.0 101.0 430.0 95.0 430.0 91.0 440.0 85.0 440.0 75.0 450.0 75.0 450.0 25.0 460.0 25.0 M-260.0 -225.0 L-250.0 -225.0 -250.0 -205.0 -240.0 -205.0 -240.0 -198.0 -250.0 -195.0 -250.0 -175.2 Q-247.05 -171.0 -244.35 -165.0 L-230.0 -165.0 -230.0 -158.0 -240.5 -155.0 -237.45 -145.0 -220.0 -145.0 -220.0 -138.0 -235.1 -135.0 -233.25 -125.0 -220.0 -125.0 -220.0 -118.0 -231.9 -115.0 -230.9 -105.0 -220.0 -105.0 -220.0 -98.0 -230.3 -95.0 -230.0 -85.0 -220.0 -85.0 -220.0 -78.0 -230.0 -75.0 -230.3 -65.0 -220.0 -65.0 -220.0 -58.0 -230.9 -55.0 -231.85 -45.0 -220.0 -45.0 -220.0 -38.0 -233.25 -35.0 -235.1 -25.0 -230.0 -25.0 -230.0 -18.0 -237.45 -15.0 -240.5 -5.0 -230.0 -5.0 -230.0 2.0 -244.35 5.0 Q-247.05 11.0 -250.0 15.25 L-250.0 35.0 -240.0 41.0 -240.0 45.0 -230.0 45.0 -230.0 65.0 -220.0 65.0 -220.0 105.0 -210.0 105.0 -210.0 245.0 -320.0 245.0 -320.0 105.0 -310.0 105.0 -310.0 65.0 -300.0 65.0 -300.0 45.0 -290.0 45.0 -290.0 41.0 -280.0 35.0 -280.0 15.25 Q-282.95 11.0 -285.6 5.0 L-300.0 2.0 -300.0 -5.0 -289.5 -5.0 -292.5 -15.0 -300.0 -18.0 -300.0 -25.0 -294.9 -25.0 -296.75 -35.0 -310.0 -38.0 -310.0 -45.0 -298.1 -45.0 -299.05 -55.0 -310.0 -58.0 -310.0 -65.0 -299.65 -65.0 -299.95 -75.0 -310.0 -78.0 -310.0 -85.0 -299.95 -85.0 -299.65 -95.0 -310.0 -98.0 -310.0 -105.0 -299.05 -105.0 -298.1 -115.0 -310.0 -118.0 -310.0 -125.0 -296.7 -125.0 -294.9 -135.0 -310.0 -138.0 -310.0 -145.0 -292.5 -145.0 -289.75 -154.25 -289.5 -155.0 -300.0 -158.0 -300.0 -165.0 -285.6 -165.0 Q-282.95 -171.0 -280.0 -175.2 L-280.0 -195.0 -290.0 -198.0 -290.0 -205.0 -280.0 -205.0 -280.0 -225.0 -270.0 -225.0 -267.0 -245.0 -263.0 -245.0 -260.0 -225.0 M-65.9 -115.0 L-60.0 -115.0 -60.0 -95.0 -65.9 -95.0 Q-68.8 -92.8 -73.2 -90.85 -80.7 -87.5 -90.0 -86.05 L-93.0 -65.0 -98.8 -65.0 -93.5 25.0 -90.0 25.0 -84.0 85.0 -60.0 85.0 -60.0 95.0 -50.0 95.0 -50.0 105.0 -40.0 105.0 -40.0 245.0 -200.0 245.0 -200.0 162.0 -170.0 135.0 -170.0 105.0 -160.0 105.0 -160.0 95.0 -150.0 95.0 -150.0 85.0 -126.0 85.0 -120.0 25.0 -116.45 25.0 -111.15 -65.0 -117.0 -65.0 -120.0 -86.05 Q-129.3 -87.5 -136.85 -90.85 -141.2 -92.8 -144.1 -95.0 L-150.0 -95.0 -150.0 -115.0 -144.1 -115.0 Q-141.2 -117.2 -136.85 -119.15 -129.3 -122.5 -120.0 -123.9 L-120.0 -135.0 -110.0 -135.0 -107.0 -173.0 -103.0 -173.0 -100.0 -135.0 -90.0 -135.0 -90.0 -123.9 Q-80.7 -122.5 -73.2 -119.15 -68.8 -117.2 -65.9 -115.0 M-400.0 95.0 L-400.0 75.0 -390.0 75.0 -390.0 65.0 -380.0 65.0 -380.0 55.0 -360.0 55.0 -360.0 65.0 -350.0 65.0 -350.0 75.0 -340.0 75.0 -340.0 95.0 -350.0 95.0 -350.0 105.0 -340.0 105.0 -340.0 125.0 -350.0 125.0 -350.0 135.0 -340.0 135.0 -340.0 155.0 -350.0 155.0 -350.0 165.0 -340.0 165.0 -340.0 245.0 -400.0 245.0 -400.0 165.0 -390.0 165.0 -390.0 155.0 -400.0 155.0 -400.0 135.0 -390.0 135.0 -390.0 125.0 -400.0 125.0 -400.0 105.0 -390.0 105.0 -390.0 95.0 -400.0 95.0 M-440.0 45.0 L-420.0 45.0 -420.0 55.0 -410.0 55.0 -410.0 245.0 -470.0 245.0 -470.0 55.0 -460.0 55.0 -460.0 45.0 -450.0 45.0 -450.0 22.0 -443.0 22.0 -440.0 45.0" fill="#000000" fill-rule="evenodd" stroke="none"/>
    <path d="M-422.9 26.25 Q-428.75 32.1 -437.05 32.1 -445.35 32.1 -451.2 26.25 -457.05 20.4 -457.05 12.1 -457.05 3.8 -451.2 -2.05 L-440.65 8.5 -423.1 -1.55 -433.35 15.8 -422.9 26.25" fill="#000000" fill-rule="evenodd" stroke="none"/>
    <path d="M30.0 -125.0 L70.0 -125.0 70.0 -115.0 30.0 -115.0 30.0 -125.0 M70.0 -75.0 L10.0 -75.0 10.0 -85.0 70.0 -85.0 70.0 -75.0 M9.0 -15.0 L21.0 -15.0 21.0 -3.0 9.0 -3.0 9.0 -15.0 M49.0 -15.0 L61.0 -15.0 61.0 -3.0 49.0 -3.0 49.0 -15.0 M360.0 95.0 L340.0 95.0 340.0 85.0 360.0 85.0 360.0 95.0 M330.0 55.0 L310.0 55.0 310.0 45.0 330.0 45.0 330.0 55.0 M330.0 135.0 L310.0 135.0 310.0 125.0 330.0 125.0 330.0 135.0 M330.0 205.0 L310.0 205.0 310.0 165.0 330.0 165.0 330.0 205.0 M280.0 85.0 L300.0 85.0 300.0 95.0 280.0 95.0 280.0 85.0 M240.0 35.0 L240.0 55.0 230.0 55.0 230.0 35.0 240.0 35.0 M200.0 35.0 L200.0 55.0 190.0 55.0 190.0 35.0 200.0 35.0 M213.0 131.0 L187.0 131.0 187.0 105.0 213.0 105.0 213.0 131.0 M163.0 131.0 L137.0 131.0 137.0 105.0 163.0 105.0 163.0 131.0 M163.0 191.0 L137.0 191.0 137.0 165.0 163.0 165.0 163.0 191.0 M217.0 165.0 L243.0 165.0 243.0 191.0 217.0 191.0 217.0 165.0 M213.0 161.0 L187.0 161.0 187.0 135.0 213.0 135.0 213.0 161.0 M160.0 35.0 L160.0 55.0 150.0 55.0 150.0 35.0 160.0 35.0 M140.0 35.0 L140.0 55.0 130.0 55.0 130.0 35.0 140.0 35.0 M140.0 85.0 L140.0 65.0 160.0 65.0 160.0 85.0 140.0 85.0 M47.0 25.0 L63.0 25.0 63.0 41.0 47.0 41.0 47.0 25.0 M23.0 21.0 L7.0 21.0 7.0 5.0 23.0 5.0 23.0 21.0 M3.0 41.0 L-13.0 41.0 -13.0 25.0 3.0 25.0 3.0 41.0 M23.0 85.0 L23.0 101.0 7.0 101.0 7.0 85.0 23.0 85.0 M63.0 85.0 L63.0 101.0 47.0 101.0 47.0 85.0 63.0 85.0 M63.0 81.0 L47.0 81.0 47.0 65.0 63.0 65.0 63.0 81.0 M43.0 61.0 L27.0 61.0 27.0 45.0 43.0 45.0 43.0 61.0 M60.0 115.0 L70.0 115.0 70.0 135.0 60.0 135.0 60.0 115.0 M30.0 115.0 L30.0 135.0 20.0 135.0 20.0 115.0 30.0 115.0 M3.0 101.0 L-13.0 101.0 -13.0 85.0 3.0 85.0 3.0 101.0 M-260.0 -185.0 L-270.0 -185.0 -270.0 -195.0 -260.0 -195.0 -260.0 -185.0 M-260.0 -165.0 L-270.0 -165.0 -270.0 -175.0 -260.0 -175.0 -260.0 -165.0 M-246.0 -75.0 L-246.0 -65.0 -256.0 -65.0 -256.0 -75.0 -246.0 -75.0 M-260.0 -65.0 L-270.0 -65.0 -270.0 -75.0 -260.0 -75.0 -260.0 -65.0 M-274.0 -65.0 L-284.0 -65.0 -284.0 -75.0 -274.0 -75.0 -274.0 -65.0 M-260.0 -25.0 L-270.0 -25.0 -270.0 -35.0 -260.0 -35.0 -260.0 -25.0 M-79.0 -101.0 L-89.0 -101.0 -89.0 -111.0 -79.0 -111.0 -79.0 -101.0 M-135.0 -111.0 L-135.0 -101.0 -145.0 -101.0 -145.0 -111.0 -135.0 -111.0 M-117.0 -101.0 L-117.0 -111.0 -107.0 -111.0 -107.0 -101.0 -117.0 -101.0 M-120.0 135.0 L-130.0 135.0 -130.0 115.0 -120.0 115.0 -120.0 135.0 M-100.0 135.0 L-110.0 135.0 -110.0 115.0 -100.0 115.0 -100.0 135.0 M-123.0 149.0 L-107.0 149.0 -107.0 165.0 -123.0 165.0 -123.0 149.0 M-123.0 169.0 L-107.0 169.0 -107.0 185.0 -123.0 185.0 -123.0 169.0 M-83.0 149.0 L-67.0 149.0 -67.0 165.0 -83.0 165.0 -83.0 149.0 M-83.0 169.0 L-67.0 169.0 -67.0 185.0 -83.0 185.0 -83.0 169.0 M-240.0 65.0 L-250.0 65.0 -250.0 55.0 -240.0 55.0 -240.0 65.0 M-252.0 115.0 L-238.0 115.0 -238.0 135.0 -252.0 135.0 -252.0 115.0 M-252.0 141.0 L-238.0 141.0 -238.0 161.0 -252.0 161.0 -252.0 141.0 M-218.0 141.0 L-218.0 161.0 -232.0 161.0 -232.0 141.0 -218.0 141.0 M-430.0 121.0 L-460.0 121.0 -460.0 105.0 -430.0 105.0 -430.0 121.0 M-460.0 161.0 L-460.0 145.0 -430.0 145.0 -430.0 161.0 -460.0 161.0 M-360.0 135.0 L-380.0 135.0 -380.0 125.0 -360.0 125.0 -360.0 135.0" fill="#bc8a1f" fill-rule="evenodd" stroke="none"/>
    <path d="M50.0 -145.0 L70.0 -145.0 70.0 -135.0 50.0 -135.0 50.0 -145.0 M70.0 -105.0 L70.0 -95.0 20.0 -95.0 20.0 -105.0 70.0 -105.0 M1.0 -3.0 L-11.0 -3.0 -11.0 -15.0 1.0 -15.0 1.0 -3.0 M290.0 -45.0 L280.0 -45.0 280.0 -55.0 290.0 -55.0 290.0 -45.0 M360.0 45.0 L360.0 55.0 340.0 55.0 340.0 45.0 360.0 45.0 M330.0 15.0 L330.0 5.0 350.0 5.0 350.0 15.0 330.0 15.0 M330.0 95.0 L310.0 95.0 310.0 85.0 330.0 85.0 330.0 95.0 M460.0 145.0 L460.0 155.0 420.0 155.0 420.0 145.0 460.0 145.0 M300.0 15.0 L300.0 5.0 320.0 5.0 320.0 15.0 300.0 15.0 M290.0 15.0 L280.0 15.0 280.0 5.0 290.0 5.0 290.0 15.0 M300.0 55.0 L280.0 55.0 280.0 45.0 300.0 45.0 300.0 55.0 M180.0 35.0 L180.0 55.0 170.0 55.0 170.0 35.0 180.0 35.0 M170.0 65.0 L180.0 65.0 180.0 85.0 170.0 85.0 170.0 65.0 M167.0 105.0 L183.0 105.0 183.0 131.0 167.0 131.0 167.0 105.0 M183.0 135.0 L183.0 161.0 167.0 161.0 167.0 135.0 183.0 135.0 M167.0 191.0 L167.0 165.0 183.0 165.0 183.0 191.0 167.0 191.0 M217.0 135.0 L243.0 135.0 243.0 161.0 217.0 161.0 217.0 135.0 M300.0 135.0 L280.0 135.0 280.0 125.0 300.0 125.0 300.0 135.0 M300.0 165.0 L300.0 205.0 280.0 205.0 280.0 165.0 300.0 165.0 M120.0 35.0 L120.0 55.0 110.0 55.0 110.0 35.0 120.0 35.0 M110.0 65.0 L130.0 65.0 130.0 85.0 110.0 85.0 110.0 65.0 M43.0 21.0 L27.0 21.0 27.0 5.0 43.0 5.0 43.0 21.0 M43.0 41.0 L27.0 41.0 27.0 25.0 43.0 25.0 43.0 41.0 M63.0 45.0 L63.0 61.0 47.0 61.0 47.0 45.0 63.0 45.0 M3.0 21.0 L-13.0 21.0 -13.0 5.0 3.0 5.0 3.0 21.0 M23.0 45.0 L23.0 61.0 7.0 61.0 7.0 45.0 23.0 45.0 M23.0 81.0 L7.0 81.0 7.0 65.0 23.0 65.0 23.0 81.0 M27.0 65.0 L43.0 65.0 43.0 81.0 27.0 81.0 27.0 65.0 M3.0 61.0 L-13.0 61.0 -13.0 45.0 3.0 45.0 3.0 61.0 M50.0 135.0 L40.0 135.0 40.0 115.0 50.0 115.0 50.0 135.0 M133.0 131.0 L107.0 131.0 107.0 105.0 133.0 105.0 133.0 131.0 M107.0 165.0 L133.0 165.0 133.0 191.0 107.0 191.0 107.0 165.0 M-260.0 -205.0 L-270.0 -205.0 -270.0 -215.0 -260.0 -215.0 -260.0 -205.0 M-260.0 -155.0 L-260.0 -145.0 -270.0 -145.0 -270.0 -155.0 -260.0 -155.0 M-284.0 -115.0 L-274.0 -115.0 -274.0 -105.0 -284.0 -105.0 -284.0 -115.0 M-260.0 -125.0 L-270.0 -125.0 -270.0 -135.0 -260.0 -135.0 -260.0 -125.0 M-270.0 -115.0 L-260.0 -115.0 -260.0 -105.0 -270.0 -105.0 -270.0 -115.0 M-256.0 -115.0 L-246.0 -115.0 -246.0 -105.0 -256.0 -105.0 -256.0 -115.0 M-246.0 -85.0 L-256.0 -85.0 -256.0 -95.0 -246.0 -95.0 -246.0 -85.0 M-260.0 -85.0 L-270.0 -85.0 -270.0 -95.0 -260.0 -95.0 -260.0 -85.0 M-274.0 -85.0 L-284.0 -85.0 -284.0 -95.0 -274.0 -95.0 -274.0 -85.0 M-260.0 -55.0 L-260.0 -45.0 -270.0 -45.0 -270.0 -55.0 -260.0 -55.0 M-75.0 -111.0 L-65.0 -111.0 -65.0 -101.0 -75.0 -101.0 -75.0 -111.0 M-131.0 -111.0 L-121.0 -111.0 -121.0 -101.0 -131.0 -101.0 -131.0 -111.0 M-103.0 -111.0 L-93.0 -111.0 -93.0 -101.0 -103.0 -101.0 -103.0 -111.0 M-110.0 45.0 L-110.0 35.0 -100.0 35.0 -100.0 45.0 -110.0 45.0 M-140.0 135.0 L-150.0 135.0 -150.0 115.0 -140.0 115.0 -140.0 135.0 M-143.0 169.0 L-127.0 169.0 -127.0 185.0 -143.0 185.0 -143.0 169.0 M-87.0 165.0 L-103.0 165.0 -103.0 149.0 -87.0 149.0 -87.0 165.0 M-290.0 55.0 L-280.0 55.0 -280.0 65.0 -290.0 65.0 -290.0 55.0 M-270.0 65.0 L-270.0 55.0 -260.0 55.0 -260.0 65.0 -270.0 65.0 M-258.0 141.0 L-258.0 161.0 -272.0 161.0 -272.0 141.0 -258.0 141.0 M-298.0 135.0 L-312.0 135.0 -312.0 115.0 -298.0 115.0 -298.0 135.0 M-292.0 141.0 L-278.0 141.0 -278.0 161.0 -292.0 161.0 -292.0 141.0 M-360.0 95.0 L-360.0 105.0 -380.0 105.0 -380.0 95.0 -360.0 95.0 M-460.0 65.0 L-430.0 65.0 -430.0 81.0 -460.0 81.0 -460.0 65.0 M-430.0 141.0 L-460.0 141.0 -460.0 125.0 -430.0 125.0 -430.0 141.0 M-460.0 165.0 L-430.0 165.0 -430.0 181.0 -460.0 181.0 -460.0 165.0" fill="#eedc00" fill-rule="evenodd" stroke="none"/>
    <path d="M70.0 -55.0 L0.0 -55.0 0.0 -65.0 70.0 -65.0 70.0 -55.0 M29.0 -15.0 L41.0 -15.0 41.0 -3.0 29.0 -3.0 29.0 -15.0 M0.0 -45.0 L70.0 -45.0 70.0 -35.0 0.0 -35.0 0.0 -45.0 M280.0 -25.0 L290.0 -25.0 290.0 -15.0 280.0 -15.0 280.0 -25.0 M300.0 -15.0 L300.0 -25.0 320.0 -25.0 320.0 -15.0 300.0 -15.0 M460.0 85.0 L460.0 95.0 450.0 95.0 450.0 85.0 460.0 85.0 M360.0 135.0 L340.0 135.0 340.0 125.0 360.0 125.0 360.0 135.0 M360.0 165.0 L360.0 205.0 340.0 205.0 340.0 165.0 360.0 165.0 M460.0 115.0 L430.0 115.0 430.0 105.0 460.0 105.0 460.0 115.0 M220.0 35.0 L220.0 55.0 210.0 55.0 210.0 35.0 220.0 35.0 M190.0 65.0 L210.0 65.0 210.0 85.0 190.0 85.0 190.0 65.0 M240.0 65.0 L240.0 85.0 220.0 85.0 220.0 65.0 240.0 65.0 M217.0 105.0 L243.0 105.0 243.0 131.0 217.0 131.0 217.0 105.0 M187.0 165.0 L213.0 165.0 213.0 191.0 187.0 191.0 187.0 165.0 M163.0 161.0 L137.0 161.0 137.0 135.0 163.0 135.0 163.0 161.0 M63.0 21.0 L47.0 21.0 47.0 5.0 63.0 5.0 63.0 21.0 M7.0 25.0 L23.0 25.0 23.0 41.0 7.0 41.0 7.0 25.0 M3.0 81.0 L-13.0 81.0 -13.0 65.0 3.0 65.0 3.0 81.0 M43.0 85.0 L43.0 101.0 27.0 101.0 27.0 85.0 43.0 85.0 M10.0 115.0 L10.0 135.0 0.0 135.0 0.0 115.0 10.0 115.0 M133.0 161.0 L107.0 161.0 107.0 135.0 133.0 135.0 133.0 161.0 M-270.0 -15.0 L-260.0 -15.0 -260.0 -5.0 -270.0 -5.0 -270.0 -15.0 M-90.0 115.0 L-80.0 115.0 -80.0 135.0 -90.0 135.0 -90.0 115.0 M-127.0 165.0 L-143.0 165.0 -143.0 149.0 -127.0 149.0 -127.0 165.0 M-103.0 185.0 L-103.0 169.0 -87.0 169.0 -87.0 185.0 -103.0 185.0 M-20.0 135.0 L-20.0 115.0 -10.0 115.0 -10.0 135.0 -20.0 135.0 M-60.0 135.0 L-70.0 135.0 -70.0 115.0 -60.0 115.0 -60.0 135.0 M-260.0 15.0 L-270.0 15.0 -270.0 5.0 -260.0 5.0 -260.0 15.0 M-258.0 135.0 L-272.0 135.0 -272.0 115.0 -258.0 115.0 -258.0 135.0 M-278.0 135.0 L-292.0 135.0 -292.0 115.0 -278.0 115.0 -278.0 135.0 M-298.0 141.0 L-298.0 161.0 -312.0 161.0 -312.0 141.0 -298.0 141.0 M-218.0 115.0 L-218.0 135.0 -232.0 135.0 -232.0 115.0 -218.0 115.0 M-430.0 85.0 L-430.0 101.0 -460.0 101.0 -460.0 85.0 -430.0 85.0 M-380.0 155.0 L-360.0 155.0 -360.0 165.0 -380.0 165.0 -380.0 155.0" fill="#796265" fill-rule="evenodd" stroke="none"/>
  </g>
  <defs>
    <linearGradient gradientTransform="matrix(0.0, 0.0513, -0.586, 0.0, 0.05, 288.05)" gradientUnits="userSpaceOnUse" id="gradient0" spreadMethod="pad" x1="-819.2" x2="819.2">
      <stop offset="0.0" stop-color="#000000"/>
      <stop offset="0.9882352941176471" stop-color="#333333"/>
    </linearGradient>
  </defs>
</svg>
