<?xml version="1.0" encoding="UTF-8" standalone="no"?>
<svg xmlns:ffdec="https://www.free-decompiler.com/flash" xmlns:xlink="http://www.w3.org/1999/xlink" ffdec:objectType="shape" height="100.9px" width="79.8px" xmlns="http://www.w3.org/2000/svg">
  <g transform="matrix(1.0, 0.0, 0.0, 1.0, 51.3, 66.6)">
    <path d="M10.0 -65.5 L27.1 -50.85 Q28.3 -49.85 28.5 -48.3 28.65 -46.8 27.75 -45.5 L17.35 -30.8 16.9 -15.4 16.05 -15.45 Q8.1 -15.45 -3.2 -17.5 L-15.3 -19.55 Q-24.5 -19.65 -24.5 -12.75 -24.5 -10.45 -22.45 -8.85 -20.7 -7.45 -18.95 -7.45 L-1.35 -6.15 Q-4.15 -2.9 -4.15 1.85 L-4.0 3.1 Q-5.45 2.7 -7.05 1.6 -9.5 -0.1 -12.35 -0.1 L-15.8 0.45 Q-19.25 1.75 -19.25 5.6 -19.25 8.15 -12.6 11.6 -6.55 14.75 -4.15 14.75 L12.3 13.7 12.4 14.55 12.4 23.75 Q12.4 24.9 11.8 25.9 11.15 26.9 10.1 27.4 3.1 30.65 -3.9 33.95 L-6.65 34.15 -26.05 28.95 Q-27.65 28.5 -28.45 27.1 -29.3 25.65 -28.85 24.05 L-28.15 21.3 -36.8 19.0 Q-38.4 18.55 -39.25 17.15 -40.1 15.65 -39.65 14.1 L-39.1 12.0 -48.3 9.55 Q-49.9 9.1 -50.75 7.7 -51.6 6.25 -51.15 4.65 L-44.2 -21.55 -43.75 -22.6 -30.45 -44.4 -29.8 -62.7 Q-29.75 -64.35 -28.6 -65.45 -27.45 -66.6 -25.8 -66.6 L7.4 -66.45 Q8.85 -66.45 10.0 -65.5" fill="#f709c8" fill-opacity="0.7019608" fill-rule="evenodd" stroke="none"/>
    <path d="M-24.0 -42.5 L-23.4 -60.1 6.45 -59.95 13.8 -53.7 1.55 -36.0 -14.85 -40.1 -23.95 -42.5 -24.0 -42.5 M10.9 -32.95 L10.45 -17.9 0.9 -18.05 -2.3 14.5 5.6 14.25 5.9 17.05 5.9 22.15 -5.85 27.65 -13.9 25.5 -18.4 10.05 -20.2 16.7 -26.4 15.05 -28.75 -1.35 -31.1 7.4 -37.7 5.65 -32.5 -13.65 -12.5 -39.45 10.1 -33.2 10.9 -32.95 M-2.8 19.1 L-2.3 14.5 -2.8 19.1" fill="#000000" fill-rule="evenodd" stroke="none"/>
    <path d="M-24.0 -42.5 L-23.95 -42.5 -14.85 -40.1 -12.5 -39.45 -32.5 -13.65 -37.7 5.65 -44.25 3.9 -38.0 -19.55 -24.0 -42.5 M1.55 -36.0 L13.8 -53.7 21.15 -47.4 10.9 -32.95 10.1 -33.2 1.55 -36.0 M-13.9 25.5 L-21.95 23.3 -20.2 16.7 -18.4 10.05 -13.9 25.5 M-26.4 15.05 L-32.7 13.35 -31.1 7.4 -28.75 -1.35 -26.4 15.05" fill="#1d1d1d" fill-rule="evenodd" stroke="none"/>
    <path d="M13.8 -53.7 L6.45 -59.95 -23.4 -60.1 -24.0 -42.5 -23.95 -42.5 -14.85 -40.1 -12.5 -39.45 10.1 -33.2 M13.8 -53.7 L21.15 -47.4 10.9 -32.95 10.45 -17.9 0.9 -18.05 -2.3 14.5 -2.8 19.1 M5.9 17.05 L5.9 22.15 -5.85 27.65 -13.9 25.5 -21.95 23.3 -20.2 16.7 -26.4 15.05 -32.7 13.35 -31.1 7.4 -37.7 5.65 -44.25 3.9 -38.0 -19.55 -24.0 -42.5 M-20.2 16.7 L-18.4 10.05 M-31.1 7.4 L-28.75 -1.35" fill="none" stroke="#666666" stroke-linecap="square" stroke-linejoin="miter-clip" stroke-miterlimit="3.0" stroke-width="5.0"/>
  </g>
</svg>
