<?xml version="1.0" encoding="UTF-8" standalone="no"?>
<svg xmlns:ffdec="https://www.free-decompiler.com/flash" xmlns:xlink="http://www.w3.org/1999/xlink" ffdec:objectType="shape" height="597.1px" width="960.0px" xmlns="http://www.w3.org/2000/svg">
  <g transform="matrix(1.0, 0.0, 0.0, 1.0, 480.0, 248.55)">
    <path d="M-102.15 74.75 L-85.25 88.05 -99.45 70.45 -97.7 68.15 -82.35 80.3 -95.05 64.7 -92.9 61.9 -81.3 70.85 -90.65 58.9 -81.65 47.15 -38.95 60.85 -58.8 -47.3 -15.95 35.3 10.2 -59.95 13.0 -60.25 Q14.6 -60.7 15.85 -61.6 16.5 -60.25 17.7 -59.05 20.25 -56.45 23.85 -56.45 27.5 -56.45 30.05 -59.05 31.25 -60.25 31.9 -61.6 33.1 -60.75 34.75 -60.25 38.25 -59.35 41.35 -61.15 44.5 -62.95 45.45 -66.4 45.9 -68.05 45.75 -69.55 L48.85 -69.85 Q52.4 -70.85 54.2 -73.9 56.0 -77.1 55.05 -80.6 L53.75 -83.45 56.3 -85.25 Q58.85 -87.8 58.85 -91.4 58.85 -95.1 56.3 -97.6 L53.75 -99.4 Q54.55 -100.7 55.05 -102.35 56.0 -105.85 54.2 -108.95 52.4 -112.1 48.85 -113.0 L45.7 -113.3 Q45.85 -114.85 45.4 -116.45 L44.55 -118.6 76.35 -160.4 94.7 -104.0 94.3 -103.75 76.1 -90.35 96.25 -99.2 97.1 -96.55 79.85 -83.9 98.55 -92.05 99.55 -89.05 85.75 -78.65 100.85 -84.95 111.2 -53.15 78.15 42.2 Q77.3 42.4 76.65 42.85 L75.7 41.5 Q74.35 40.15 72.45 40.15 70.5 40.15 69.2 41.5 68.55 42.1 68.2 42.85 L66.7 42.2 Q64.9 41.7 63.2 42.65 62.0 43.3 61.45 44.5 L61.1 45.4 Q60.8 46.25 60.95 47.05 L59.25 47.2 Q57.45 47.7 56.5 49.4 55.55 51.0 56.05 52.85 56.25 53.7 56.75 54.35 L55.4 55.3 Q53.95 56.65 54.0 58.55 53.95 60.45 55.4 61.85 L56.75 62.8 Q56.25 63.45 56.05 64.3 55.55 66.15 56.5 67.85 57.45 69.4 59.25 69.95 L60.95 70.1 Q60.8 70.85 61.1 71.75 61.55 73.6 63.2 74.6 64.9 75.45 66.7 74.95 L66.8 75.0 60.55 92.85 99.3 105.35 100.95 109.45 126.05 89.5 126.8 89.75 128.5 89.95 Q128.4 90.7 128.65 91.6 129.1 93.45 130.75 94.4 132.45 95.3 134.25 94.8 L135.75 94.1 136.75 95.5 Q138.1 96.85 140.0 96.85 141.85 96.85 143.25 95.5 L144.2 94.15 145.7 94.8 Q147.55 95.3 149.2 94.4 150.85 93.45 151.35 91.6 L151.5 89.95 153.15 89.75 Q155.0 89.25 155.95 87.65 156.9 86.0 156.4 84.15 L155.75 82.6 157.05 81.65 Q158.4 80.3 158.4 78.4 158.4 76.5 157.05 75.2 L155.75 74.2 156.4 72.7 Q156.9 70.85 155.95 69.2 155.2 67.9 153.95 67.4 L175.55 50.2 188.45 -18.1 207.5 -15.25 189.25 -22.3 189.85 -25.45 209.4 -22.45 190.65 -29.8 191.25 -32.8 208.95 -30.35 192.05 -37.25 224.15 -207.2 242.95 -173.65 255.6 -132.05 254.0 -132.65 Q250.45 -133.6 247.35 -131.75 244.25 -129.95 243.3 -126.4 242.8 -124.8 243.05 -123.25 L239.85 -123.05 Q236.35 -122.1 234.55 -118.9 232.75 -115.85 233.7 -112.3 234.1 -110.75 235.05 -109.4 233.65 -108.8 232.45 -107.6 229.85 -105.1 229.85 -101.45 229.85 -97.85 232.45 -95.3 233.65 -94.1 235.05 -93.4 234.1 -92.2 233.7 -90.55 232.75 -87.1 234.55 -83.9 236.35 -80.85 239.85 -79.9 L243.0 -79.6 Q242.85 -78.1 243.3 -76.45 244.2 -72.95 247.35 -71.15 250.45 -69.35 254.0 -70.3 255.55 -70.75 256.85 -71.65 257.5 -70.25 258.7 -69.05 261.05 -66.7 264.25 -66.4 L256.05 -13.7 346.55 -85.55 348.35 -80.75 361.55 -134.3 372.5 -125.5 362.45 -138.1 363.5 -142.3 377.85 -130.85 364.7 -147.25 365.45 -150.35 381.35 -137.9 369.0 -153.85 366.9 -155.95 389.6 -248.55 416.4 -94.7 410.9 -49.3 Q409.95 -49.85 408.8 -49.85 406.85 -49.85 405.5 -48.5 404.85 -47.9 404.55 -47.15 L403.05 -47.8 Q401.2 -48.3 399.5 -47.35 397.9 -46.45 397.4 -44.6 397.15 -43.75 397.25 -42.95 L395.6 -42.8 Q393.75 -42.3 392.85 -40.6 391.85 -39.0 392.4 -37.15 392.55 -36.3 393.05 -35.65 L391.7 -34.7 Q390.3 -33.35 390.35 -31.45 390.3 -29.55 391.7 -28.15 L393.05 -27.2 Q392.55 -26.55 392.4 -25.7 391.85 -23.85 392.85 -22.15 393.75 -20.6 395.6 -20.05 L397.25 -19.9 Q397.15 -19.15 397.4 -18.25 397.85 -16.4 399.5 -15.4 401.2 -14.55 403.05 -15.05 L404.55 -15.7 405.5 -14.35 406.65 -13.45 404.15 7.6 387.05 20.3 411.5 84.1 427.25 27.65 445.2 79.45 455.25 73.4 470.25 85.45 458.9 71.3 462.05 69.35 475.55 80.15 465.35 67.4 468.95 65.2 479.0 73.1 480.0 73.1 480.0 348.55 -480.0 348.55 -480.0 58.55 -456.8 72.5 -445.65 16.85 -471.35 3.5 -403.1 -151.55 -400.1 -55.4 -377.2 -47.95 -383.95 -32.5 -373.45 -46.75 -370.05 -45.7 -377.45 -28.75 -365.95 -44.35 -362.85 -43.4 -369.7 -27.2 -358.5 -41.95 -350.05 -39.25 -347.45 -50.6 -342.55 -65.95 -340.35 -36.1 -310.8 -26.65 -309.8 -24.7 Q-311.2 -24.1 -312.4 -22.9 -315.05 -20.4 -315.0 -16.75 -315.05 -13.15 -312.4 -10.6 -311.2 -9.4 -309.8 -8.75 -310.75 -7.5 -311.15 -5.9 -312.1 -2.4 -310.3 0.8 -308.5 3.9 -305.0 4.85 L-301.85 5.15 Q-302.0 6.65 -301.55 8.3 -300.65 11.75 -297.5 13.55 -294.35 15.35 -290.85 14.45 -289.25 14.0 -288.0 13.1 -287.35 14.45 -286.15 15.65 -283.6 18.25 -280.0 18.25 -276.35 18.25 -273.8 15.65 -272.6 14.45 -271.95 13.1 -270.75 13.95 -269.1 14.45 -265.65 15.35 -262.5 13.55 -259.4 11.75 -258.4 8.3 -257.95 6.65 -258.1 5.15 L-255.0 4.85 Q-251.45 3.9 -249.65 0.8 -247.85 -2.4 -248.8 -5.9 L-248.55 -6.6 -217.0 3.55 -201.8 105.45 -181.7 52.55 -223.65 -50.45 -211.6 -86.65 -115.25 91.2 -102.5 74.5 -102.15 74.75" fill="url(#gradient0)" fill-rule="evenodd" stroke="none"/>
    <path d="M-102.15 74.75 L-102.5 74.5 -102.45 74.45 -102.15 74.75 M-248.55 -6.6 L-248.8 -5.9 -249.1 -6.8 -248.55 -6.6 M480.0 73.1 L479.0 73.1 471.65 63.55 480.0 58.55 480.0 73.1 M66.8 75.0 L66.7 74.95 66.8 74.95 66.8 75.0" fill="#333333" fill-rule="evenodd" stroke="none"/>
  </g>
  <defs>
    <linearGradient gradientTransform="matrix(0.0, -0.137, 0.5859, 0.0, 0.0, 103.85)" gradientUnits="userSpaceOnUse" id="gradient0" spreadMethod="pad" x1="-819.2" x2="819.2">
      <stop offset="0.0" stop-color="#3c3c45"/>
      <stop offset="1.0" stop-color="#000000"/>
    </linearGradient>
  </defs>
</svg>
