<?xml version="1.0" encoding="UTF-8" standalone="no"?>
<svg xmlns:ffdec="https://www.free-decompiler.com/flash" xmlns:xlink="http://www.w3.org/1999/xlink" ffdec:objectType="shape" height="554.75px" width="960.05px" xmlns="http://www.w3.org/2000/svg">
  <g transform="matrix(1.0, 0.0, 0.0, 1.0, 480.0, 232.35)">
    <path d="M480.05 322.4 L-480.0 322.4 -480.0 232.4 480.05 232.4 480.05 322.4" fill="url(#gradient0)" fill-rule="evenodd" stroke="none"/>
    <path d="M231.5 -74.05 L240.0 -65.6 248.5 -74.05 240.0 -82.55 231.5 -74.05 M214.5 -74.05 L240.0 -99.5 265.45 -74.05 240.0 -48.65 214.5 -74.05 M-125.95 -183.1 L-100.5 -157.65 -125.95 -132.2 -151.45 -157.65 -125.95 -183.1 M-125.95 -166.1 L-134.45 -157.65 -125.95 -149.2 -117.5 -157.65 -125.95 -166.1" fill="#5826b2" fill-rule="evenodd" stroke="none"/>
    <path d="M231.5 -74.05 L240.0 -82.55 248.5 -74.05 240.0 -65.6 231.5 -74.05 M-125.95 -166.1 L-117.5 -157.65 -125.95 -149.2 -134.45 -157.65 -125.95 -166.1" fill="#6633cc" fill-rule="evenodd" stroke="none"/>
    <path d="M180.6 -74.05 L240.0 -133.45 299.4 -74.05 240.0 -14.65 180.6 -74.05 M197.6 -74.05 L240.0 -31.65 282.45 -74.05 240.0 -116.5 197.6 -74.05 M-125.95 -115.25 L-83.55 -157.65 -125.95 -200.05 -168.35 -157.65 -125.95 -115.25 M-125.95 -98.25 L-185.35 -157.65 -125.95 -217.05 -66.55 -157.65 -125.95 -98.25" fill="#3f0c7f" fill-rule="evenodd" stroke="none"/>
    <path d="M214.5 -74.05 L240.0 -48.65 265.45 -74.05 240.0 -99.5 214.5 -74.05 M197.6 -74.05 L240.0 -116.5 282.45 -74.05 240.0 -31.65 197.6 -74.05 M-125.95 -183.1 L-151.45 -157.65 -125.95 -132.2 -100.5 -157.65 -125.95 -183.1 M-125.95 -115.25 L-168.35 -157.65 -125.95 -200.05 -83.55 -157.65 -125.95 -115.25" fill="#4c1999" fill-rule="evenodd" stroke="none"/>
    <path d="M248.9 232.35 L225.85 232.35 480.0 -24.45 480.0 -1.15 248.9 232.35" fill="#3f0c7f" fill-rule="evenodd" stroke="none"/>
    <path d="M480.0 22.2 L480.0 45.5 295.15 232.25 272.0 232.25 480.0 22.2" fill="#5826b2" fill-rule="evenodd" stroke="none"/>
    <path d="M480.0 45.5 L480.0 232.35 295.15 232.25 480.0 45.5" fill="#6633cc" fill-rule="evenodd" stroke="none"/>
    <path d="M480.0 -1.15 L480.0 22.2 272.0 232.25 248.9 232.35 480.0 -1.15" fill="#4c1999" fill-rule="evenodd" stroke="none"/>
    <path d="M27.15 232.3 L3.5 232.3 -209.3 17.35 -422.1 232.25 -445.75 232.3 -209.25 -6.55 27.15 232.3" fill="#4c1999" fill-rule="evenodd" stroke="none"/>
    <path d="M27.15 232.3 L-209.25 -6.55 -445.75 232.3 -469.4 232.3 -209.25 -30.4 50.85 232.3 27.15 232.3" fill="#3f0c7f" fill-rule="evenodd" stroke="none"/>
    <path d="M-20.1 232.25 L-398.5 232.25 -209.25 41.2 -20.1 232.25" fill="#6633cc" fill-rule="evenodd" stroke="none"/>
    <path d="M-422.1 232.25 L-209.3 17.35 3.5 232.3 -20.1 232.25 -209.25 41.2 -398.5 232.25 -422.1 232.25" fill="#5826b2" fill-rule="evenodd" stroke="none"/>
    <path d="M354.95 232.35 L324.65 232.35 52.5 -42.6 -219.65 232.25 -249.9 232.35 52.55 -73.15 354.95 232.35" fill="#4c1999" fill-rule="evenodd" stroke="none"/>
    <path d="M354.95 232.35 L52.55 -73.15 -249.9 232.35 -280.15 232.35 52.55 -103.65 385.2 232.35 354.95 232.35" fill="#3f0c7f" fill-rule="evenodd" stroke="none"/>
    <path d="M-219.65 232.25 L52.5 -42.6 324.65 232.35 294.45 232.25 52.55 -12.1 -189.45 232.25 -219.65 232.25" fill="#5826b2" fill-rule="evenodd" stroke="none"/>
    <path d="M294.45 232.25 L-189.45 232.25 52.55 -12.1 294.45 232.25" fill="#6633cc" fill-rule="evenodd" stroke="none"/>
    <path d="M72.2 232.3 L53.1 232.3 263.7 19.6 474.25 232.3 455.1 232.3 263.7 38.9 72.2 232.3" fill="#3f0c7f" fill-rule="evenodd" stroke="none"/>
    <path d="M435.95 232.3 L416.8 232.25 263.7 77.6 110.5 232.25 91.35 232.25 263.65 58.25 435.95 232.3" fill="#5826b2" fill-rule="evenodd" stroke="none"/>
    <path d="M72.2 232.3 L263.7 38.9 455.1 232.3 435.95 232.3 263.65 58.25 91.35 232.25 72.2 232.3" fill="#4c1999" fill-rule="evenodd" stroke="none"/>
    <path d="M416.8 232.25 L110.5 232.25 263.7 77.6 416.8 232.25" fill="#6633cc" fill-rule="evenodd" stroke="none"/>
    <path d="M-479.95 -1.15 L-479.95 -24.45 -225.8 232.35 -248.85 232.35 -479.95 -1.15" fill="#3f0c7f" fill-rule="evenodd" stroke="none"/>
    <path d="M-479.95 -1.15 L-248.85 232.35 -271.95 232.25 -479.95 22.2 -479.95 -1.15" fill="#4c1999" fill-rule="evenodd" stroke="none"/>
    <path d="M-271.95 232.25 L-295.1 232.25 -479.95 45.5 -479.95 22.2 -271.95 232.25" fill="#5826b2" fill-rule="evenodd" stroke="none"/>
    <path d="M-295.1 232.25 L-479.95 232.35 -479.95 45.5 -295.1 232.25" fill="#6633cc" fill-rule="evenodd" stroke="none"/>
    <path d="M180.0 -232.35 L0.0 -232.35" fill="none" stroke="#010101" stroke-linecap="round" stroke-linejoin="round" stroke-opacity="0.0" stroke-width="0.05"/>
    <path d="M240.0 232.3 L120.0 232.3" fill="none" stroke="#010101" stroke-linecap="round" stroke-linejoin="round" stroke-opacity="0.0" stroke-width="0.05"/>
  </g>
  <defs>
    <linearGradient gradientTransform="matrix(0.0, 0.0513, -0.586, 0.0, 0.05, 278.75)" gradientUnits="userSpaceOnUse" id="gradient0" spreadMethod="pad" x1="-819.2" x2="819.2">
      <stop offset="0.0" stop-color="#3f0c7f"/>
      <stop offset="0.9725490196078431" stop-color="#5826b2"/>
    </linearGradient>
  </defs>
</svg>
