<?xml version="1.0" encoding="UTF-8" standalone="no"?>
<svg xmlns:ffdec="https://www.free-decompiler.com/flash" xmlns:xlink="http://www.w3.org/1999/xlink" ffdec:objectType="shape" height="369.75px" width="237.45px" xmlns="http://www.w3.org/2000/svg">
  <g transform="matrix(1.0, 0.0, 0.0, 1.0, 118.7, 184.85)">
    <path d="M50.4 142.5 Q50.4 153.6 42.5 161.45 34.7 169.3 23.55 169.3 L16.85 168.55 Q14.75 171.7 11.9 174.55 1.6 184.9 -13.0 184.9 -27.55 184.9 -37.9 174.55 -41.75 170.7 -44.1 166.3 -49.7 169.1 -56.45 169.1 -68.0 169.1 -76.2 160.9 -84.35 152.75 -84.35 141.2 -84.35 129.65 -76.2 121.45 L-74.1 119.5 -18.65 83.6 42.65 123.4 42.5 123.5 43.5 124.55 46.05 127.8 Q50.4 134.25 50.4 142.5 M45.9 142.5 Q45.95 135.65 42.35 130.25 L42.35 130.3 40.15 127.55 39.35 126.7 39.25 126.6 -18.65 89.0 -71.4 123.15 -73.0 124.65 Q-79.85 131.5 -79.85 141.2 -79.85 150.9 -73.0 157.75 -66.15 164.6 -56.45 164.6 -50.8 164.6 -46.15 162.3 -44.5 161.45 -42.75 162.05 -41.05 162.55 -40.15 164.15 -38.1 168.0 -34.7 171.4 -25.7 180.4 -13.0 180.4 -0.3 180.4 8.7 171.4 L8.75 171.35 Q11.25 168.85 13.1 166.1 13.85 164.85 15.2 164.35 L17.95 164.2 23.55 164.8 Q32.8 164.8 39.3 158.3 L39.35 158.25 Q45.9 151.75 45.9 142.5" fill="#000000" fill-rule="evenodd" stroke="none"/>
    <path d="M45.9 142.5 Q45.9 151.75 39.35 158.25 L39.3 158.3 Q32.8 164.8 23.55 164.8 L17.95 164.2 15.2 164.35 Q13.85 164.85 13.1 166.1 11.25 168.85 8.75 171.35 L8.7 171.4 Q-0.3 180.4 -13.0 180.4 -25.7 180.4 -34.7 171.4 -38.1 168.0 -40.15 164.15 -41.05 162.55 -42.75 162.05 -44.5 161.45 -46.15 162.3 -50.8 164.6 -56.45 164.6 -66.15 164.6 -73.0 157.75 -79.85 150.9 -79.85 141.2 -79.85 131.5 -73.0 124.65 L-71.4 123.15 -18.65 89.0 39.25 126.6 39.35 126.7 40.15 127.55 42.35 130.3 42.35 130.25 Q45.95 135.65 45.9 142.5 M38.65 132.85 L38.6 132.8 Q38.05 131.95 37.85 131.1 -11.5 150.6 -71.05 129.2 -75.35 134.3 -75.35 141.2 -75.35 149.05 -69.85 154.55 L-69.8 154.55 Q-64.3 160.1 -56.45 160.1 L-56.4 160.1 Q-51.9 160.15 -48.15 158.25 -44.9 156.65 -41.4 157.7 -38.0 158.8 -36.25 162.0 L-36.2 162.0 Q-34.4 165.3 -31.5 168.2 L-31.55 168.2 Q-23.8 175.9 -13.0 175.9 -2.15 175.9 5.5 168.2 L5.55 168.2 5.55 168.15 9.35 163.6 Q10.85 161.2 13.55 160.2 16.25 159.1 19.0 159.85 L23.55 160.3 Q30.95 160.3 36.1 155.1 L36.15 155.1 36.15 155.05 Q41.4 149.9 41.4 142.5 41.45 137.05 38.65 132.85" fill="url(#gradient0)" fill-rule="evenodd" stroke="none"/>
    <path d="M38.65 132.85 Q41.45 137.05 41.4 142.5 41.4 149.9 36.15 155.05 L36.15 155.1 36.1 155.1 Q30.95 160.3 23.55 160.3 L19.0 159.85 Q16.25 159.1 13.55 160.2 10.85 161.2 9.35 163.6 L5.55 168.15 5.55 168.2 5.5 168.2 Q-2.15 175.9 -13.0 175.9 -23.8 175.9 -31.55 168.2 L-31.5 168.2 Q-34.4 165.3 -36.2 162.0 L-36.25 162.0 Q-38.0 158.8 -41.4 157.7 -44.9 156.65 -48.15 158.25 -51.9 160.15 -56.4 160.1 L-56.45 160.1 Q-64.3 160.1 -69.8 154.55 L-69.85 154.55 Q-75.35 149.05 -75.35 141.2 -75.35 134.3 -71.05 129.2 -11.5 150.6 37.85 131.1 38.05 131.95 38.6 132.8 L38.65 132.85" fill="url(#gradient1)" fill-rule="evenodd" stroke="none"/>
    <path d="M42.85 137.1 L42.9 137.05 Q45.6 138.7 46.8 141.6 49.35 147.3 55.0 150.6 L55.05 150.6 Q62.2 154.75 70.15 152.6 78.1 150.45 82.2 143.3 L82.25 143.3 82.25 143.25 Q84.2 139.95 84.8 136.4 85.3 133.65 87.15 131.55 L87.1 131.5 Q88.9 129.35 91.7 128.5 L97.1 128.35 101.65 128.2 Q105.45 127.15 107.35 123.75 L107.4 123.75 107.4 123.7 Q109.4 120.3 108.35 116.5 107.4 112.95 104.5 111.05 58.25 132.9 20.15 124.2 19.15 125.15 18.35 126.45 L18.3 126.5 Q16.55 129.6 17.45 133.1 18.4 136.6 21.5 138.45 L21.55 138.45 Q24.75 140.25 28.2 139.3 L28.25 139.3 Q30.05 138.85 31.4 137.75 33.9 135.75 37.05 135.6 L37.1 135.6 Q40.2 135.4 42.85 137.1 M18.0 119.5 L57.5 80.45 105.4 105.8 105.5 105.85 106.45 106.4 Q111.65 109.4 113.2 115.25 114.75 121.05 111.75 126.25 L111.7 126.3 Q108.7 131.5 102.9 133.05 99.25 134.05 95.9 133.2 L93.15 133.3 Q91.8 133.7 90.9 134.75 89.95 135.85 89.75 137.25 89.05 141.6 86.6 145.75 L86.55 145.8 Q81.4 154.75 71.45 157.4 61.45 160.05 52.5 154.9 45.35 150.8 42.25 143.6 41.6 142.15 40.3 141.35 38.9 140.45 37.3 140.6 35.75 140.7 34.5 141.65 32.35 143.4 29.5 144.15 24.0 145.6 19.1 142.75 14.15 139.9 12.65 134.4 11.2 128.9 14.05 124.0 15.45 121.5 17.55 119.9 L18.0 119.5" fill="url(#gradient2)" fill-rule="evenodd" stroke="none"/>
    <path d="M42.85 137.1 Q40.2 135.4 37.1 135.6 L37.05 135.6 Q33.9 135.75 31.4 137.75 30.05 138.85 28.25 139.3 L28.2 139.3 Q24.75 140.25 21.55 138.45 L21.5 138.45 Q18.4 136.6 17.45 133.1 16.55 129.6 18.3 126.5 L18.35 126.45 Q19.15 125.15 20.15 124.2 58.25 132.9 104.5 111.05 107.4 112.95 108.35 116.5 109.4 120.3 107.4 123.7 L107.4 123.75 107.35 123.75 Q105.45 127.15 101.65 128.2 L97.1 128.35 91.7 128.5 Q88.9 129.35 87.1 131.5 L87.15 131.55 Q85.3 133.65 84.8 136.4 84.2 139.95 82.25 143.25 L82.25 143.3 82.2 143.3 Q78.1 150.45 70.15 152.6 62.2 154.75 55.05 150.6 L55.0 150.6 Q49.35 147.3 46.8 141.6 45.6 138.7 42.9 137.05 L42.85 137.1" fill="url(#gradient3)" fill-rule="evenodd" stroke="none"/>
    <path d="M18.0 119.5 L17.55 119.9 Q15.45 121.5 14.05 124.0 11.2 128.9 12.65 134.4 14.15 139.9 19.1 142.75 24.0 145.6 29.5 144.15 32.35 143.4 34.5 141.65 35.75 140.7 37.3 140.6 38.9 140.45 40.3 141.35 41.6 142.15 42.25 143.6 45.35 150.8 52.5 154.9 61.45 160.05 71.45 157.4 81.4 154.75 86.55 145.8 L86.6 145.75 Q89.05 141.6 89.75 137.25 89.95 135.85 90.9 134.75 91.8 133.7 93.15 133.3 L95.9 133.2 Q99.25 134.05 102.9 133.05 108.7 131.5 111.7 126.3 L111.75 126.25 Q114.75 121.05 113.2 115.25 111.65 109.4 106.45 106.4 L105.5 105.85 105.4 105.8 57.5 80.45 18.0 119.5 M14.5 115.95 L56.55 74.25 107.75 101.4 108.9 102.0 Q115.95 106.1 118.05 113.95 120.15 121.75 116.1 128.7 112.0 135.8 104.2 137.9 99.25 139.2 94.65 138.05 93.85 143.3 90.95 148.25 84.7 159.05 72.75 162.25 60.75 165.45 50.0 159.25 41.35 154.25 37.65 145.55 34.65 147.9 30.75 148.95 23.3 150.95 16.55 147.1 9.8 143.2 7.8 135.7 5.8 128.2 9.7 121.5 11.65 118.1 14.5 115.95" fill="#000000" fill-rule="evenodd" stroke="none"/>
    <path d="M0.8 117.55 Q0.8 123.55 -3.45 127.75 -7.65 132.0 -13.65 132.0 -17.6 132.0 -20.8 130.15 -22.6 135.6 -26.95 139.95 -34.35 147.35 -44.85 147.35 -55.35 147.35 -62.75 139.95 -65.9 136.8 -67.7 133.05 -74.0 138.6 -82.55 138.6 -91.95 138.6 -98.65 131.9 -105.3 125.25 -105.3 115.85 -105.3 106.75 -99.05 100.2 L-98.65 99.75 Q-96.65 97.75 -94.4 96.4 L-48.3 64.1 -0.3 111.85 -0.05 112.55 0.1 112.9 Q0.8 115.1 0.8 117.55 M-91.55 100.5 L-91.75 100.65 Q-93.55 101.7 -95.1 103.3 L-95.35 103.55 -95.45 103.65 Q-100.3 108.75 -100.3 115.85 -100.3 123.2 -95.1 128.4 -89.9 133.6 -82.55 133.6 -75.9 133.6 -71.05 129.3 -69.85 128.25 -68.25 128.1 -66.7 127.9 -65.3 128.7 -63.9 129.45 -63.2 130.9 -61.75 133.9 -59.2 136.45 -53.3 142.35 -44.85 142.35 -36.4 142.35 -30.45 136.45 -27.0 132.95 -25.55 128.6 -25.1 127.15 -23.85 126.2 -22.65 125.25 -21.15 125.2 -19.65 125.05 -18.3 125.85 -16.2 127.0 -13.65 127.0 -9.75 127.0 -7.0 124.25 L-6.95 124.2 Q-4.2 121.45 -4.2 117.55 -4.2 116.0 -4.6 114.6 L-48.85 70.6 -91.55 100.5" fill="#000000" fill-rule="evenodd" stroke="none"/>
    <path d="M-91.55 100.5 L-48.85 70.6 -4.6 114.6 Q-4.2 116.0 -4.2 117.55 -4.2 121.45 -6.95 124.2 L-7.0 124.25 Q-9.75 127.0 -13.65 127.0 -16.2 127.0 -18.3 125.85 -19.65 125.05 -21.15 125.2 -22.65 125.25 -23.85 126.2 -25.1 127.15 -25.55 128.6 -27.0 132.95 -30.45 136.45 -36.4 142.35 -44.85 142.35 -53.3 142.35 -59.2 136.45 -61.75 133.9 -63.2 130.9 -63.9 129.45 -65.3 128.7 -66.7 127.9 -68.25 128.1 -69.85 128.25 -71.05 129.3 -75.9 133.6 -82.55 133.6 -89.9 133.6 -95.1 128.4 -100.3 123.2 -100.3 115.85 -100.3 108.75 -95.45 103.65 L-95.35 103.55 -95.1 103.3 Q-93.55 101.7 -91.75 100.65 L-91.55 100.5 M-93.05 108.6 Q-95.3 111.75 -95.3 115.85 -95.3 121.1 -91.6 124.85 L-91.55 124.85 Q-87.8 128.6 -82.55 128.6 -77.85 128.6 -74.35 125.55 -71.95 123.45 -68.8 123.1 -65.65 122.75 -62.85 124.3 -60.1 125.85 -58.7 128.7 -57.6 130.95 -55.7 132.9 L-55.65 132.9 Q-51.2 137.35 -44.85 137.35 -38.5 137.35 -34.0 132.9 -31.4 130.25 -30.3 127.0 -29.35 124.15 -26.95 122.25 L-26.9 122.25 Q-24.5 120.35 -21.45 120.2 -18.45 119.95 -15.8 121.5 -14.85 122.05 -13.7 122.0 L-13.65 122.0 Q-11.85 122.0 -10.55 120.7 L-10.5 120.7 -10.5 120.65 Q-8.25 119.0 -8.7 114.7 -53.05 117.2 -93.05 108.6" fill="url(#gradient4)" fill-rule="evenodd" stroke="none"/>
    <path d="M-93.05 108.6 Q-53.05 117.2 -8.7 114.7 -8.25 119.0 -10.5 120.65 L-10.5 120.7 -10.55 120.7 Q-11.85 122.0 -13.65 122.0 L-13.7 122.0 Q-14.85 122.05 -15.8 121.5 -18.45 119.95 -21.45 120.2 -24.5 120.35 -26.9 122.25 L-26.95 122.25 Q-29.35 124.15 -30.3 127.0 -31.4 130.25 -34.0 132.9 -38.5 137.35 -44.85 137.35 -51.2 137.35 -55.65 132.9 L-55.7 132.9 Q-57.6 130.95 -58.7 128.7 -60.1 125.85 -62.85 124.3 -65.65 122.75 -68.8 123.1 -71.95 123.45 -74.35 125.55 -77.85 128.6 -82.55 128.6 -87.8 128.6 -91.55 124.85 L-91.6 124.85 Q-95.3 121.1 -95.3 115.85 -95.3 111.75 -93.05 108.6" fill="url(#gradient5)" fill-rule="evenodd" stroke="none"/>
    <path d="M90.1 60.4 L91.2 61.55 94.05 65.15 Q98.85 72.35 98.85 81.5 98.85 93.85 90.1 102.55 81.4 111.3 69.05 111.3 L61.6 110.45 Q59.25 113.95 56.1 117.1 44.65 128.6 28.45 128.6 12.25 128.6 0.75 117.1 -3.5 112.85 -6.15 107.95 -12.35 111.05 -19.85 111.05 -32.7 111.05 -41.8 101.95 -50.85 92.9 -50.85 80.05 -50.85 67.2 -41.8 58.1 L-39.45 55.95 22.15 16.05 90.25 60.3 90.1 60.4 M86.6 63.95 L86.5 63.85 22.15 22.05 -36.45 60.0 -38.25 61.65 Q-45.85 69.3 -45.85 80.05 -45.85 90.85 -38.25 98.45 -30.65 106.05 -19.85 106.05 -13.6 106.05 -8.4 103.5 -6.6 102.55 -4.65 103.2 -2.75 103.8 -1.75 105.55 0.55 109.85 4.3 113.6 14.3 123.6 28.45 123.6 42.55 123.6 52.55 113.6 L52.6 113.55 Q55.35 110.75 57.4 107.7 58.25 106.35 59.75 105.8 L62.8 105.6 69.05 106.3 Q79.3 106.3 86.55 99.05 L86.6 99.0 Q93.85 91.75 93.85 81.5 93.9 73.9 89.9 67.9 L89.9 67.95 87.5 64.9 86.6 63.95" fill="#000000" fill-rule="evenodd" stroke="none"/>
    <path d="M86.6 63.95 L87.5 64.9 89.9 67.95 89.9 67.9 Q93.9 73.9 93.85 81.5 93.85 91.75 86.6 99.0 L86.55 99.05 Q79.3 106.3 69.05 106.3 L62.8 105.6 59.75 105.8 Q58.25 106.35 57.4 107.7 55.35 110.75 52.6 113.55 L52.55 113.6 Q42.55 123.6 28.45 123.6 14.3 123.6 4.3 113.6 0.55 109.85 -1.75 105.55 -2.75 103.8 -4.65 103.2 -6.6 102.55 -8.4 103.5 -13.6 106.05 -19.85 106.05 -30.65 106.05 -38.25 98.45 -45.85 90.85 -45.85 80.05 -45.85 69.3 -38.25 61.65 L-36.45 60.0 22.15 22.05 86.5 63.85 86.6 63.95 M85.8 70.75 L85.75 70.7 84.95 68.85 Q30.1 90.5 -36.1 66.7 -40.85 72.4 -40.85 80.05 -40.85 88.75 -34.75 94.9 L-34.7 94.9 Q-28.55 101.05 -19.85 101.05 L-19.8 101.05 Q-14.8 101.1 -10.65 99.0 -7.0 97.2 -3.15 98.4 0.65 99.6 2.6 103.15 L2.65 103.15 Q4.65 106.85 7.85 110.05 L7.8 110.05 Q16.4 118.6 28.45 118.6 40.5 118.6 49.0 110.05 L49.05 110.05 49.05 110.0 Q51.45 107.6 53.25 104.95 54.95 102.3 57.95 101.15 60.9 99.95 64.0 100.75 L69.05 101.3 Q77.25 101.3 83.0 95.5 L83.05 95.5 83.05 95.45 Q88.85 89.7 88.85 81.5 88.9 75.45 85.8 70.75" fill="url(#gradient6)" fill-rule="evenodd" stroke="none"/>
    <path d="M85.8 70.75 Q88.9 75.45 88.85 81.5 88.85 89.7 83.05 95.45 L83.05 95.5 83.0 95.5 Q77.25 101.3 69.05 101.3 L64.0 100.75 Q60.9 99.95 57.95 101.15 54.95 102.3 53.25 104.95 51.45 107.6 49.05 110.0 L49.05 110.05 49.0 110.05 Q40.5 118.6 28.45 118.6 16.4 118.6 7.8 110.05 L7.85 110.05 Q4.65 106.85 2.65 103.15 L2.6 103.15 Q0.65 99.6 -3.15 98.4 -7.0 97.2 -10.65 99.0 -14.8 101.1 -19.8 101.05 L-19.85 101.05 Q-28.55 101.05 -34.7 94.9 L-34.75 94.9 Q-40.85 88.75 -40.85 80.05 -40.85 72.4 -36.1 66.7 30.1 90.5 84.95 68.85 L85.75 70.7 85.8 70.75" fill="url(#gradient7)" fill-rule="evenodd" stroke="none"/>
    <path d="M10.7 35.45 Q16.35 43.35 14.8 52.95 13.2 62.6 5.35 68.25 -2.55 73.9 -12.15 72.35 -15.1 71.85 -17.65 70.75 L-21.0 70.65 Q-22.8 71.1 -23.75 72.65 -26.2 76.35 -30.1 79.2 -38.4 85.15 -48.5 83.5 -58.6 81.85 -64.55 73.55 -68.05 68.6 -68.9 63.05 -69.25 61.25 -70.6 60.05 -71.85 58.85 -73.7 58.8 -75.5 58.8 -76.9 59.85 L-77.65 60.4 -77.75 60.4 Q-85.35 65.9 -94.6 64.4 -103.9 62.85 -109.45 55.25 -114.9 47.6 -113.4 38.3 -111.85 29.0 -104.25 23.5 -102.25 22.1 -100.2 21.15 L-99.45 20.7 -50.55 -12.7 10.45 35.15 10.7 35.45 M2.4 64.2 Q8.65 59.65 9.9 52.1 10.95 45.45 7.65 39.9 -44.65 52.4 -102.7 28.7 -107.4 32.7 -108.45 39.1 -109.6 46.3 -105.4 52.3 L-105.35 52.3 Q-101.05 58.25 -93.8 59.45 -86.55 60.6 -80.65 56.35 L-80.6 56.35 -80.55 56.25 -79.95 55.9 -79.9 55.85 Q-77.1 53.7 -73.5 53.8 -69.95 53.95 -67.25 56.35 -64.55 58.65 -64.0 62.25 -63.3 66.7 -60.5 70.65 L-60.45 70.65 Q-55.75 77.2 -47.7 78.55 -39.65 79.85 -33.0 75.15 -29.9 72.85 -27.95 69.95 -26.0 66.95 -22.55 65.85 -19.1 64.75 -15.75 66.15 -13.7 67.0 -11.35 67.4 -3.8 68.6 2.4 64.2" fill="url(#gradient8)" fill-rule="evenodd" stroke="none"/>
    <path d="M2.4 64.2 Q-3.8 68.6 -11.35 67.4 -13.7 67.0 -15.75 66.15 -19.1 64.75 -22.55 65.85 -26.0 66.95 -27.95 69.95 -29.9 72.85 -33.0 75.15 -39.65 79.85 -47.7 78.55 -55.75 77.2 -60.45 70.65 L-60.5 70.65 Q-63.3 66.7 -64.0 62.25 -64.55 58.65 -67.25 56.35 -69.95 53.95 -73.5 53.8 -77.1 53.7 -79.9 55.85 L-79.95 55.9 -80.55 56.25 -80.6 56.35 -80.65 56.35 Q-86.55 60.6 -93.8 59.45 -101.05 58.25 -105.35 52.3 L-105.4 52.3 Q-109.6 46.3 -108.45 39.1 -107.4 32.7 -102.7 28.7 -44.65 52.4 7.65 39.9 10.95 45.45 9.9 52.1 8.65 59.65 2.4 64.2" fill="url(#gradient9)" fill-rule="evenodd" stroke="none"/>
    <path d="M14.75 32.55 Q21.65 42.15 19.75 53.75 17.85 65.4 8.25 72.3 -1.3 79.15 -12.95 77.25 -16.5 76.65 -19.6 75.4 -22.5 79.85 -27.2 83.2 -37.2 90.35 -49.3 88.4 -61.45 86.4 -68.6 76.45 -72.9 70.45 -73.85 63.8 L-74.8 64.45 Q-84.05 71.2 -95.4 69.35 -106.75 67.5 -113.45 58.1 -120.15 48.8 -118.3 37.5 -116.4 26.15 -107.1 19.4 -104.8 17.75 -102.3 16.6 L-50.35 -18.9 14.05 31.6 14.75 32.55 M10.7 35.45 L10.45 35.15 -50.55 -12.7 -99.45 20.7 -100.2 21.15 Q-102.25 22.1 -104.25 23.5 -111.85 29.0 -113.4 38.3 -114.9 47.6 -109.45 55.25 -103.9 62.85 -94.6 64.4 -85.35 65.9 -77.75 60.4 L-77.65 60.4 -76.9 59.85 Q-75.5 58.8 -73.7 58.8 -71.85 58.85 -70.6 60.05 -69.25 61.25 -68.9 63.05 -68.05 68.6 -64.55 73.55 -58.6 81.85 -48.5 83.5 -38.4 85.15 -30.1 79.2 -26.2 76.35 -23.75 72.65 -22.8 71.1 -21.0 70.65 L-17.65 70.75 Q-15.1 71.85 -12.15 72.35 -2.55 73.9 5.35 68.25 13.2 62.6 14.8 52.95 16.35 43.35 10.7 35.45" fill="#000000" fill-rule="evenodd" stroke="none"/>
    <path d="M93.6 -4.9 Q92.4 -7.95 90.5 -10.3 L90.35 -10.5 88.45 -12.45 33.25 -40.9 -18.05 5.3 Q-19.3 6.85 -20.15 8.85 -22.6 14.5 -20.25 20.3 -17.95 26.1 -12.3 28.6 -6.6 31.0 -0.8 28.65 2.0 27.55 4.0 25.7 5.45 24.35 7.4 24.35 9.3 24.3 10.75 25.6 12.2 26.9 12.45 28.85 12.85 33.3 14.65 37.8 19.6 50.25 31.9 55.55 44.1 60.75 56.5 55.8 68.95 50.85 74.3 38.65 76.85 32.55 77.0 26.45 77.0 24.8 78.0 23.6 78.95 22.3 80.5 21.85 L82.45 21.1 Q90.15 18.05 93.35 10.45 L93.4 10.4 Q96.7 2.8 93.6 -4.9 M98.25 -6.75 Q102.1 2.9 97.95 12.4 93.95 21.9 84.3 25.75 L81.95 26.55 Q81.8 33.65 78.85 40.6 72.7 54.75 58.35 60.45 44.0 66.2 29.9 60.1 15.75 54.0 10.05 39.65 8.0 34.5 7.5 29.3 4.8 31.85 1.05 33.3 -6.65 36.4 -14.3 33.15 -21.85 29.85 -24.9 22.15 -28.0 14.45 -24.75 6.85 -23.5 4.0 -21.6 1.8 L32.5 -46.95 91.35 -16.6 94.3 -13.55 94.4 -13.45 Q96.75 -10.55 98.25 -6.75" fill="#000000" fill-rule="evenodd" stroke="none"/>
    <path d="M93.6 -4.9 Q96.7 2.8 93.4 10.4 L93.35 10.45 Q90.15 18.05 82.45 21.1 L80.5 21.85 Q78.95 22.3 78.0 23.6 77.0 24.8 77.0 26.45 76.85 32.55 74.3 38.65 68.95 50.85 56.5 55.8 44.1 60.75 31.9 55.55 19.6 50.25 14.65 37.8 12.85 33.3 12.45 28.85 12.2 26.9 10.75 25.6 9.3 24.3 7.4 24.35 5.45 24.35 4.0 25.7 2.0 27.55 -0.8 28.65 -6.6 31.0 -12.3 28.6 -17.95 26.1 -20.25 20.3 -22.6 14.5 -20.15 8.85 -19.3 6.85 -18.05 5.3 L33.25 -40.9 88.45 -12.45 90.35 -10.5 90.5 -10.3 Q92.4 -7.95 93.6 -4.9 M88.95 -3.05 Q88.05 -5.3 86.7 -7.0 31.05 17.3 -15.1 9.85 L-15.55 10.75 -15.6 10.85 Q-17.15 14.6 -15.6 18.45 -14.1 22.3 -10.35 24.0 L-10.3 23.95 Q-6.5 25.6 -2.65 24.05 L-2.6 24.05 Q-0.75 23.35 0.65 22.05 3.5 19.4 7.35 19.35 11.2 19.3 14.15 21.9 16.95 24.45 17.4 28.3 17.75 32.15 19.3 35.95 23.45 46.45 33.85 50.95 L33.8 50.95 Q44.2 55.35 54.65 51.15 65.15 47.0 69.65 36.65 71.8 31.5 71.95 26.35 72.0 23.1 74.0 20.55 75.95 18.0 79.05 17.05 L80.6 16.5 Q86.4 14.2 88.75 8.5 L88.8 8.45 88.8 8.4 Q91.3 2.75 88.95 -3.05 M12.25 7.4 L12.3 7.4 12.25 7.35 12.25 7.4" fill="url(#gradient10)" fill-rule="evenodd" stroke="none"/>
    <path d="M88.95 -3.05 Q91.3 2.75 88.8 8.4 L88.8 8.45 88.75 8.5 Q86.4 14.2 80.6 16.5 L79.05 17.05 Q75.95 18.0 74.0 20.55 72.0 23.1 71.95 26.35 71.8 31.5 69.65 36.65 65.15 47.0 54.65 51.15 44.2 55.35 33.8 50.95 L33.85 50.95 Q23.45 46.45 19.3 35.95 17.75 32.15 17.4 28.3 16.95 24.45 14.15 21.9 11.2 19.3 7.35 19.35 3.5 19.4 0.65 22.05 -0.75 23.35 -2.6 24.05 L-2.65 24.05 Q-6.5 25.6 -10.3 23.95 L-10.35 24.0 Q-14.1 22.3 -15.6 18.45 -17.15 14.6 -15.6 10.85 L-15.55 10.75 -15.1 9.85 Q31.05 17.3 86.7 -7.0 88.05 -5.3 88.95 -3.05" fill="url(#gradient11)" fill-rule="evenodd" stroke="none"/>
    <path d="M36.6 -37.6 L35.2 -39.45 33.65 -41.15 32.8 -42.25 -9.05 -82.8 -79.4 -49.2 -82.7 -46.45 Q-89.05 -40.05 -89.05 -31.05 -89.05 -22.0 -82.7 -15.65 -76.35 -9.3 -67.3 -9.3 -60.2 -9.25 -54.75 -13.25 -53.35 -14.3 -51.65 -14.25 -49.95 -14.2 -48.6 -13.1 -47.3 -12.05 -46.9 -10.35 -45.0 -2.2 -38.65 4.15 -29.65 13.15 -16.85 13.15 -4.05 13.15 5.0 4.15 L6.55 2.4 Q7.45 1.4 8.7 1.0 L11.2 0.8 16.1 1.2 Q26.35 1.2 33.6 -6.05 L33.65 -6.1 Q40.9 -13.35 40.9 -23.6 40.95 -31.5 36.65 -37.6 L36.6 -37.6 M37.15 -44.7 L39.0 -42.7 40.7 -40.5 Q45.9 -33.15 45.9 -23.6 45.9 -11.25 37.15 -2.55 28.45 6.2 16.1 6.2 L10.35 5.7 8.5 7.65 Q-2.0 18.15 -16.85 18.15 -31.7 18.15 -42.2 7.65 -49.55 0.3 -51.75 -9.25 -58.5 -4.3 -67.3 -4.3 -78.4 -4.3 -86.25 -12.15 -94.05 -19.95 -94.05 -31.05 -94.05 -42.15 -86.25 -50.0 -84.2 -52.05 -81.95 -53.5 L-8.05 -88.8 37.35 -44.85 37.15 -44.7" fill="#000000" fill-rule="evenodd" stroke="none"/>
    <path d="M36.6 -37.6 L36.65 -37.6 Q40.95 -31.5 40.9 -23.6 40.9 -13.35 33.65 -6.1 L33.6 -6.05 Q26.35 1.2 16.1 1.2 L11.2 0.8 8.7 1.0 Q7.45 1.4 6.55 2.4 L5.0 4.15 Q-4.05 13.15 -16.85 13.15 -29.65 13.15 -38.65 4.15 -45.0 -2.2 -46.9 -10.35 -47.3 -12.05 -48.6 -13.1 -49.95 -14.2 -51.65 -14.25 -53.35 -14.3 -54.75 -13.25 -60.2 -9.25 -67.3 -9.3 -76.35 -9.3 -82.7 -15.65 -89.05 -22.0 -89.05 -31.05 -89.05 -40.05 -82.7 -46.45 L-79.4 -49.2 -9.05 -82.8 32.8 -42.25 33.65 -41.15 35.2 -39.45 36.6 -37.6 M12.1 -4.15 L16.1 -3.8 Q24.3 -3.8 30.05 -9.6 L30.1 -9.6 30.1 -9.65 Q35.9 -15.4 35.9 -23.6 35.95 -28.7 33.75 -32.8 -29.0 -20.4 -80.6 -41.3 -84.05 -36.9 -84.05 -31.05 -84.05 -24.1 -79.2 -19.2 L-79.15 -19.2 Q-74.25 -14.3 -67.3 -14.3 L-67.25 -14.3 Q-61.85 -14.25 -57.7 -17.3 -54.9 -19.35 -51.5 -19.25 -48.1 -19.15 -45.45 -17.0 -42.8 -14.85 -42.0 -11.5 -40.4 -4.7 -35.1 0.6 L-35.15 0.6 Q-27.55 8.15 -16.85 8.15 -6.2 8.15 1.4 0.65 L1.45 0.6 2.75 -0.85 2.8 -0.9 Q4.55 -2.9 7.05 -3.75 L7.0 -3.75 Q9.5 -4.65 12.1 -4.15" fill="url(#gradient12)" fill-rule="evenodd" stroke="none"/>
    <path d="M12.1 -4.15 Q9.5 -4.65 7.0 -3.75 L7.05 -3.75 Q4.55 -2.9 2.8 -0.9 L2.75 -0.85 1.45 0.6 1.4 0.65 Q-6.2 8.15 -16.85 8.15 -27.55 8.15 -35.15 0.6 L-35.1 0.6 Q-40.4 -4.7 -42.0 -11.5 -42.8 -14.85 -45.45 -17.0 -48.1 -19.15 -51.5 -19.25 -54.9 -19.35 -57.7 -17.3 -61.85 -14.25 -67.25 -14.3 L-67.3 -14.3 Q-74.25 -14.3 -79.15 -19.2 L-79.2 -19.2 Q-84.05 -24.1 -84.05 -31.05 -84.05 -36.9 -80.6 -41.3 -29.0 -20.4 33.75 -32.8 35.95 -28.7 35.9 -23.6 35.9 -15.4 30.1 -9.65 L30.1 -9.6 30.05 -9.6 Q24.3 -3.8 16.1 -3.8 L12.1 -4.15" fill="url(#gradient13)" fill-rule="evenodd" stroke="none"/>
    <path d="M70.3 -60.4 Q76.05 -54.65 76.05 -46.55 76.05 -38.45 70.3 -32.75 64.6 -27.0 56.5 -27.0 51.4 -27.0 47.25 -29.3 45.05 -24.45 40.95 -20.4 32.2 -11.6 19.8 -11.6 7.4 -11.6 -1.4 -20.4 -8.45 -27.45 -9.8 -36.8 -13.25 -35.3 -17.3 -35.3 -25.05 -35.3 -30.55 -40.8 -36.05 -46.3 -36.05 -54.05 -36.05 -61.8 -30.55 -67.3 -27.8 -70.05 -24.5 -71.4 L26.95 -100.8 69.35 -61.3 70.3 -60.4 M66.8 -56.85 L66.05 -57.55 65.95 -57.65 26.25 -94.6 -22.0 -67.05 -22.55 -66.8 Q-25.0 -65.8 -27.0 -63.75 -31.05 -59.75 -31.05 -54.05 -31.05 -48.35 -27.0 -44.3 -23.0 -40.3 -17.3 -40.3 -14.35 -40.3 -11.8 -41.35 L-8.8 -41.7 Q-7.25 -41.4 -6.15 -40.2 -5.1 -39.1 -4.85 -37.5 -3.7 -29.75 2.15 -23.9 9.45 -16.6 19.8 -16.6 30.1 -16.6 37.4 -23.9 L37.45 -23.95 Q40.85 -27.35 42.7 -31.35 43.25 -32.65 44.45 -33.45 45.6 -34.25 47.0 -34.3 48.4 -34.35 49.65 -33.65 52.7 -32.0 56.5 -32.0 62.5 -32.0 66.75 -36.25 L66.8 -36.3 Q71.05 -40.55 71.05 -46.55 71.05 -52.6 66.8 -56.85" fill="#000000" fill-rule="evenodd" stroke="none"/>
    <path d="M66.8 -56.85 Q71.05 -52.6 71.05 -46.55 71.05 -40.55 66.8 -36.3 L66.75 -36.25 Q62.5 -32.0 56.5 -32.0 52.7 -32.0 49.65 -33.65 48.4 -34.35 47.0 -34.3 45.6 -34.25 44.45 -33.45 43.25 -32.65 42.7 -31.35 40.85 -27.35 37.45 -23.95 L37.4 -23.9 Q30.1 -16.6 19.8 -16.6 9.45 -16.6 2.15 -23.9 -3.7 -29.75 -4.85 -37.5 -5.1 -39.1 -6.15 -40.2 -7.25 -41.4 -8.8 -41.7 L-11.8 -41.35 Q-14.35 -40.3 -17.3 -40.3 -23.0 -40.3 -27.0 -44.3 -31.05 -48.35 -31.05 -54.05 -31.05 -59.75 -27.0 -63.75 -25.0 -65.8 -22.55 -66.8 L-22.0 -67.05 26.25 -94.6 65.95 -57.65 66.05 -57.55 66.8 -56.85 M33.9 -27.45 L33.9 -27.5 Q36.65 -30.2 38.15 -33.45 39.3 -36.0 41.65 -37.55 L41.65 -37.6 Q43.95 -39.2 46.8 -39.3 49.6 -39.45 52.1 -38.05 54.05 -36.95 56.5 -37.0 60.45 -37.0 63.2 -39.8 L63.25 -39.8 63.25 -39.85 Q66.05 -42.6 66.05 -46.55 66.05 -50.2 63.7 -52.85 13.4 -43.7 -21.15 -61.95 -22.4 -61.3 -23.45 -60.25 L-23.5 -60.2 Q-26.05 -57.65 -26.05 -54.05 -26.05 -50.45 -23.5 -47.85 L-23.45 -47.85 Q-20.9 -45.3 -17.3 -45.3 L-17.25 -45.3 Q-15.4 -45.25 -13.8 -45.95 -10.9 -47.25 -7.8 -46.6 L-7.75 -46.6 Q-4.7 -45.95 -2.55 -43.65 L-2.5 -43.65 Q-0.35 -41.35 0.1 -38.25 1.05 -32.1 5.65 -27.45 L5.7 -27.45 Q11.55 -21.6 19.8 -21.6 28.05 -21.6 33.85 -27.45 L33.9 -27.45" fill="url(#gradient14)" fill-rule="evenodd" stroke="none"/>
    <path d="M33.9 -27.45 L33.85 -27.45 Q28.05 -21.6 19.8 -21.6 11.55 -21.6 5.7 -27.45 L5.65 -27.45 Q1.05 -32.1 0.1 -38.25 -0.35 -41.35 -2.5 -43.65 L-2.55 -43.65 Q-4.7 -45.95 -7.75 -46.6 L-7.8 -46.6 Q-10.9 -47.25 -13.8 -45.95 -15.4 -45.25 -17.25 -45.3 L-17.3 -45.3 Q-20.9 -45.3 -23.45 -47.85 L-23.5 -47.85 Q-26.05 -50.45 -26.05 -54.05 -26.05 -57.65 -23.5 -60.2 L-23.45 -60.25 Q-22.4 -61.3 -21.15 -61.95 13.4 -43.7 63.7 -52.85 66.05 -50.2 66.05 -46.55 66.05 -42.6 63.25 -39.85 L63.25 -39.8 63.2 -39.8 Q60.45 -37.0 56.5 -37.0 54.05 -36.95 52.1 -38.05 49.6 -39.45 46.8 -39.3 43.95 -39.2 41.65 -37.6 L41.65 -37.55 Q39.3 -36.0 38.15 -33.45 36.65 -30.2 33.9 -27.5 L33.9 -27.45" fill="url(#gradient15)" fill-rule="evenodd" stroke="none"/>
    <path d="M39.9 -99.05 L42.55 -99.3 39.9 -100.45 39.45 -99.95 Q40.75 -99.15 40.15 -99.4 L39.4 -99.9 38.85 -100.4 39.9 -99.05 Q4.9 -91.75 -34.0 -92.2 L-34.75 -91.55 -34.8 -91.5 Q-37.05 -89.25 -37.05 -86.05 -37.05 -82.85 -34.8 -80.55 L-34.75 -80.55 Q-32.5 -78.3 -29.3 -78.3 L-29.25 -78.3 Q-26.45 -78.25 -24.4 -80.0 L-24.35 -80.05 Q-21.45 -82.45 -17.7 -82.35 -13.95 -82.3 -11.15 -79.7 -6.9 -75.8 -1.05 -75.8 5.0 -75.8 9.35 -80.0 11.9 -82.55 15.5 -82.8 19.05 -83.15 22.05 -81.1 L22.1 -81.05 Q25.15 -78.9 29.2 -78.95 34.55 -78.95 38.35 -82.7 42.1 -86.5 42.1 -91.85 42.1 -95.95 39.9 -99.05 M42.45 -103.85 L42.55 -103.8 42.8 -103.55 42.55 -103.75 Q47.1 -98.75 47.1 -91.85 47.1 -84.4 41.9 -79.15 36.65 -73.95 29.2 -73.95 23.55 -73.9 19.2 -76.95 17.7 -78.0 15.9 -77.85 14.1 -77.7 12.85 -76.45 7.05 -70.8 -1.05 -70.8 -8.9 -70.8 -14.55 -76.05 -15.95 -77.35 -17.8 -77.35 -19.7 -77.4 -21.15 -76.2 -24.65 -73.3 -29.3 -73.3 -34.6 -73.3 -38.3 -77.0 -42.05 -80.75 -42.05 -86.05 -42.05 -91.35 -38.3 -95.05 L-36.3 -96.75 -36.15 -96.85 -35.8 -97.05 2.4 -126.8 42.1 -104.3 42.45 -103.85 M-33.45 -92.65 L-33.5 -92.6 -33.4 -92.65 -33.45 -92.65" fill="url(#gradient16)" fill-rule="evenodd" stroke="none"/>
    <path d="M39.9 -99.05 L38.85 -100.4 39.4 -99.9 40.15 -99.4 Q40.75 -99.15 39.45 -99.95 L39.9 -100.45 42.55 -99.3 39.9 -99.05 M-33.45 -92.65 L-33.4 -92.65 -33.5 -92.6 -33.45 -92.65" fill="url(#gradient17)" fill-rule="evenodd" stroke="none"/>
    <path d="M42.45 -103.85 L42.1 -104.3 2.4 -126.8 -35.8 -97.05 -36.15 -96.85 -36.3 -96.75 -38.3 -95.05 Q-42.05 -91.35 -42.05 -86.05 -42.05 -80.75 -38.3 -77.0 -34.6 -73.3 -29.3 -73.3 -24.65 -73.3 -21.15 -76.2 -19.7 -77.4 -17.8 -77.35 -15.95 -77.35 -14.55 -76.05 -8.9 -70.8 -1.05 -70.8 7.05 -70.8 12.85 -76.45 14.1 -77.7 15.9 -77.85 17.7 -78.0 19.2 -76.95 23.55 -73.9 29.2 -73.95 36.65 -73.95 41.9 -79.15 47.1 -84.4 47.1 -91.85 47.1 -98.75 42.55 -103.75 L42.8 -103.55 42.55 -103.8 42.45 -103.85 M46.2 -107.2 L46.25 -107.15 Q52.1 -100.7 52.1 -91.85 52.1 -82.35 45.4 -75.65 38.7 -68.95 29.2 -68.95 21.95 -68.95 16.35 -72.85 9.1 -65.8 -1.05 -65.8 -10.85 -65.8 -17.95 -72.35 -22.8 -68.3 -29.3 -68.3 -36.65 -68.3 -41.85 -73.5 -47.05 -78.7 -47.05 -86.05 -47.05 -93.4 -41.85 -98.6 L-39.1 -100.85 -38.9 -101.0 1.95 -132.8 45.5 -108.1 45.4 -108.05 46.2 -107.2" fill="#000000" fill-rule="evenodd" stroke="none"/>
    <path d="M39.9 -99.05 Q42.1 -95.95 42.1 -91.85 42.1 -86.5 38.35 -82.7 34.55 -78.95 29.2 -78.95 25.15 -78.9 22.1 -81.05 L22.05 -81.1 Q19.05 -83.15 15.5 -82.8 11.9 -82.55 9.35 -80.0 5.0 -75.8 -1.05 -75.8 -6.9 -75.8 -11.15 -79.7 -13.95 -82.3 -17.7 -82.35 -21.45 -82.45 -24.35 -80.05 L-24.4 -80.0 Q-26.45 -78.25 -29.25 -78.3 L-29.3 -78.3 Q-32.5 -78.3 -34.75 -80.55 L-34.8 -80.55 Q-37.05 -82.85 -37.05 -86.05 -37.05 -89.25 -34.8 -91.5 L-34.75 -91.55 -34.0 -92.2 Q4.9 -91.75 39.9 -99.05" fill="url(#gradient18)" fill-rule="evenodd" stroke="none"/>
    <path d="M27.45 -125.6 Q27.45 -115.95 20.65 -109.15 13.85 -102.35 4.2 -102.35 -5.45 -102.35 -12.25 -109.15 -19.05 -115.95 -19.05 -125.6 -19.05 -130.45 -17.3 -134.6 L-16.9 -135.5 4.95 -184.85 24.5 -137.05 Q25.95 -134.55 26.7 -131.7 L26.8 -131.45 Q27.45 -128.65 27.45 -125.6 M22.0 -130.0 L21.85 -130.45 Q21.3 -132.65 20.2 -134.55 L19.9 -135.15 4.8 -172.1 -12.35 -133.45 -12.4 -133.35 -12.7 -132.65 Q-14.05 -129.4 -14.05 -125.6 -14.05 -118.0 -8.7 -112.65 -3.4 -107.35 4.2 -107.35 11.8 -107.35 17.15 -112.65 22.45 -118.0 22.45 -125.6 22.45 -127.9 22.0 -129.95 L22.0 -130.0" fill="#000000" fill-rule="evenodd" stroke="none"/>
    <path d="M22.0 -130.0 L22.0 -129.95 Q22.45 -127.9 22.45 -125.6 22.45 -118.0 17.15 -112.65 11.8 -107.35 4.2 -107.35 -3.4 -107.35 -8.7 -112.65 -14.05 -118.0 -14.05 -125.6 -14.05 -129.4 -12.7 -132.65 L-12.4 -133.35 -12.35 -133.45 4.8 -172.1 19.9 -135.15 20.2 -134.55 Q21.3 -132.65 21.85 -130.45 L22.0 -130.0 M5.25 -128.25 Q7.3 -130.35 7.3 -133.25 L7.1 -134.95 7.05 -135.15 6.4 -136.75 6.3 -137.0 0.4 -151.35 -6.25 -136.35 -6.25 -136.25 -6.35 -136.0 Q-6.9 -134.75 -6.9 -133.25 -6.9 -130.35 -4.8 -128.25 -2.75 -126.15 0.2 -126.15 3.15 -126.15 5.25 -128.25" fill="url(#gradient19)" fill-rule="evenodd" stroke="none"/>
    <path d="M7.3 -133.25 Q7.3 -130.35 5.25 -128.25 3.15 -126.15 0.2 -126.15 -2.75 -126.15 -4.8 -128.25 -6.9 -130.35 -6.9 -133.25 -6.9 -134.75 -6.35 -136.0 L-6.25 -136.25 -6.25 -136.35 0.4 -151.35 6.3 -137.0 6.4 -136.75 7.05 -135.15 7.1 -134.95 7.3 -133.25" fill="url(#gradient20)" fill-rule="evenodd" stroke="none"/>
  </g>
  <defs>
    <linearGradient gradientTransform="matrix(0.0, 0.0484, -0.0767, 0.0, -17.0, 143.05)" gradientUnits="userSpaceOnUse" id="gradient0" spreadMethod="pad" x1="-819.2" x2="819.2">
      <stop offset="0.0" stop-color="#003333"/>
      <stop offset="1.0" stop-color="#339999"/>
    </linearGradient>
    <linearGradient gradientTransform="matrix(0.0, 0.0242, -0.0712, 0.0, -17.0, 155.6)" gradientUnits="userSpaceOnUse" id="gradient1" spreadMethod="pad" x1="-819.2" x2="819.2">
      <stop offset="0.0" stop-color="#34a4a4"/>
      <stop offset="0.47058823529411764" stop-color="#2b8989"/>
    </linearGradient>
    <linearGradient gradientTransform="matrix(0.0079, 0.0528, -0.0619, 0.0092, 63.85, 130.7)" gradientUnits="userSpaceOnUse" id="gradient2" spreadMethod="pad" x1="-819.2" x2="819.2">
      <stop offset="0.0" stop-color="#003333"/>
      <stop offset="1.0" stop-color="#339999"/>
    </linearGradient>
    <linearGradient gradientTransform="matrix(0.0054, 0.0201, -0.0543, 0.0145, 66.45, 137.85)" gradientUnits="userSpaceOnUse" id="gradient3" spreadMethod="pad" x1="-819.2" x2="819.2">
      <stop offset="0.0" stop-color="#34a4a4"/>
      <stop offset="0.47058823529411764" stop-color="#2b8989"/>
    </linearGradient>
    <linearGradient gradientTransform="matrix(0.0, 0.0438, -0.0587, 0.0, -52.25, 106.45)" gradientUnits="userSpaceOnUse" id="gradient4" spreadMethod="pad" x1="-819.2" x2="819.2">
      <stop offset="0.0" stop-color="#003333"/>
      <stop offset="1.0" stop-color="#339999"/>
    </linearGradient>
    <linearGradient gradientTransform="matrix(0.0, 0.0177, -0.0524, 0.0, -52.35, 129.6)" gradientUnits="userSpaceOnUse" id="gradient5" spreadMethod="pad" x1="-819.2" x2="819.2">
      <stop offset="0.0" stop-color="#34a4a4"/>
      <stop offset="0.47058823529411764" stop-color="#2b8989"/>
    </linearGradient>
    <linearGradient gradientTransform="matrix(0.0, 0.0538, -0.0853, 0.0, 24.0, 82.1)" gradientUnits="userSpaceOnUse" id="gradient6" spreadMethod="pad" x1="-819.2" x2="819.2">
      <stop offset="0.0" stop-color="#003333"/>
      <stop offset="1.0" stop-color="#339999"/>
    </linearGradient>
    <linearGradient gradientTransform="matrix(0.0, 0.0269, -0.0792, 0.0, 24.0, 96.05)" gradientUnits="userSpaceOnUse" id="gradient7" spreadMethod="pad" x1="-819.2" x2="819.2">
      <stop offset="0.0" stop-color="#34a4a4"/>
      <stop offset="0.47058823529411764" stop-color="#2b8989"/>
    </linearGradient>
    <linearGradient gradientTransform="matrix(-0.0046, 0.0653, -0.0786, -0.0056, -49.8, 53.8)" gradientUnits="userSpaceOnUse" id="gradient8" spreadMethod="pad" x1="-819.2" x2="819.2">
      <stop offset="0.0" stop-color="#003333"/>
      <stop offset="1.0" stop-color="#339999"/>
    </linearGradient>
    <linearGradient gradientTransform="matrix(-0.0042, 0.0259, -0.0716, -0.0117, -51.35, 58.35)" gradientUnits="userSpaceOnUse" id="gradient9" spreadMethod="pad" x1="-819.2" x2="819.2">
      <stop offset="0.0" stop-color="#34a4a4"/>
      <stop offset="0.47058823529411764" stop-color="#2b8989"/>
    </linearGradient>
    <linearGradient gradientTransform="matrix(0.008, 0.0661, -0.0711, 0.0086, 38.6, 22.3)" gradientUnits="userSpaceOnUse" id="gradient10" spreadMethod="pad" x1="-819.2" x2="819.2">
      <stop offset="0.0" stop-color="#003333"/>
      <stop offset="1.0" stop-color="#339999"/>
    </linearGradient>
    <linearGradient gradientTransform="matrix(0.0086, 0.0216, -0.0596, 0.0238, 43.9, 25.9)" gradientUnits="userSpaceOnUse" id="gradient11" spreadMethod="pad" x1="-819.2" x2="819.2">
      <stop offset="0.0" stop-color="#34a4a4"/>
      <stop offset="0.47058823529411764" stop-color="#2b8989"/>
    </linearGradient>
    <linearGradient gradientTransform="matrix(-0.0085, 0.0586, -0.0786, -0.0114, -24.35, -24.75)" gradientUnits="userSpaceOnUse" id="gradient12" spreadMethod="pad" x1="-819.2" x2="819.2">
      <stop offset="0.0" stop-color="#003333"/>
      <stop offset="1.0" stop-color="#339999"/>
    </linearGradient>
    <linearGradient gradientTransform="matrix(0.0, 0.0172, -0.0732, 0.0, -24.05, -10.75)" gradientUnits="userSpaceOnUse" id="gradient13" spreadMethod="pad" x1="-819.2" x2="819.2">
      <stop offset="0.0" stop-color="#34a4a4"/>
      <stop offset="0.47058823529411764" stop-color="#2b8989"/>
    </linearGradient>
    <linearGradient gradientTransform="matrix(-0.0061, 0.0531, -0.0621, -0.0071, 19.35, -44.35)" gradientUnits="userSpaceOnUse" id="gradient14" spreadMethod="pad" x1="-819.2" x2="819.2">
      <stop offset="0.0" stop-color="#003333"/>
      <stop offset="1.0" stop-color="#339999"/>
    </linearGradient>
    <linearGradient gradientTransform="matrix(0.0, 0.0208, -0.0562, 0.0, 20.0, -36.8)" gradientUnits="userSpaceOnUse" id="gradient15" spreadMethod="pad" x1="-819.2" x2="819.2">
      <stop offset="0.0" stop-color="#34a4a4"/>
      <stop offset="0.47058823529411764" stop-color="#2b8989"/>
    </linearGradient>
    <linearGradient gradientTransform="matrix(-0.0094, 0.0356, -0.0507, -0.0134, 4.25, -95.15)" gradientUnits="userSpaceOnUse" id="gradient16" spreadMethod="pad" x1="-819.2" x2="819.2">
      <stop offset="0.0" stop-color="#003333"/>
      <stop offset="1.0" stop-color="#339999"/>
    </linearGradient>
    <linearGradient gradientTransform="matrix(0.0, 0.0122, -0.4075, 0.0, -65.15, -213.8)" gradientUnits="userSpaceOnUse" id="gradient17" spreadMethod="pad" x1="-819.2" x2="819.2">
      <stop offset="0.0" stop-color="#ffffff" stop-opacity="0.2"/>
      <stop offset="1.0" stop-color="#ffffff" stop-opacity="0.0"/>
    </linearGradient>
    <linearGradient gradientTransform="matrix(0.0, 0.0177, -0.0483, 0.0, 2.55, -79.3)" gradientUnits="userSpaceOnUse" id="gradient18" spreadMethod="pad" x1="-819.2" x2="819.2">
      <stop offset="0.0" stop-color="#34a4a4"/>
      <stop offset="0.47058823529411764" stop-color="#2b8989"/>
    </linearGradient>
    <linearGradient gradientTransform="matrix(0.007, -0.0262, 0.0216, 0.0058, 7.05, -136.25)" gradientUnits="userSpaceOnUse" id="gradient19" spreadMethod="pad" x1="-819.2" x2="819.2">
      <stop offset="0.0" stop-color="#003333"/>
      <stop offset="1.0" stop-color="#339999"/>
    </linearGradient>
    <linearGradient gradientTransform="matrix(0.0, 0.0177, -0.0483, 0.0, 2.55, -79.3)" gradientUnits="userSpaceOnUse" id="gradient20" spreadMethod="pad" x1="-819.2" x2="819.2">
      <stop offset="0.0" stop-color="#34a4a4"/>
      <stop offset="0.47058823529411764" stop-color="#2b8989"/>
    </linearGradient>
  </defs>
</svg>
