<?xml version="1.0" encoding="UTF-8" standalone="no"?>
<svg xmlns:ffdec="https://www.free-decompiler.com/flash" xmlns:xlink="http://www.w3.org/1999/xlink" ffdec:objectType="shape" height="233.45px" width="960.0px" xmlns="http://www.w3.org/2000/svg">
  <g transform="matrix(1.0, 0.0, 0.0, 1.0, 479.95, -126.55)">
    <path d="M-479.95 180.2 L-479.95 155.95 -369.15 155.95 Q-356.7 155.95 -347.35 166.35 L-182.65 166.35 Q-180.7 152.15 -172.95 141.25 -162.5 126.55 -147.7 126.55 L97.2 126.55 Q112.0 126.55 122.45 141.25 127.25 148.0 129.8 155.95 L315.1 155.95 Q332.95 155.95 345.5 173.6 352.1 182.85 355.25 194.05 L365.35 194.05 Q367.5 180.8 374.75 170.6 385.2 155.95 400.0 155.95 L480.05 155.95 480.05 180.2 406.2 180.2 Q401.1 180.2 397.45 185.2 394.8 189.0 394.15 194.05 393.9 195.65 393.9 197.5 393.9 204.65 397.45 209.7 401.1 214.8 406.2 214.8 L480.05 214.8 480.05 233.8 463.35 233.8 Q457.05 233.8 452.55 240.15 448.05 246.45 448.05 255.35 L448.05 255.45 Q448.05 264.35 452.55 270.65 457.05 277.0 463.35 277.0 L480.05 277.0 480.05 306.4 468.95 306.4 Q466.95 306.4 465.45 308.4 464.05 310.45 464.05 313.3 464.05 316.15 465.45 318.15 466.95 320.25 468.95 320.25 L480.05 320.25 480.05 360.0 423.45 360.0 Q411.65 360.0 403.35 348.35 399.05 342.3 397.05 334.85 389.95 339.25 381.6 339.25 L24.55 339.25 17.9 338.55 Q8.35 351.35 -4.95 351.35 L-173.55 351.35 Q-187.3 351.35 -197.05 337.6 -205.2 326.2 -206.55 310.8 -208.35 314.35 -210.6 317.55 -220.4 331.3 -234.25 331.3 L-351.8 331.3 Q-353.7 340.8 -359.05 348.35 -367.3 360.0 -379.05 360.0 L-479.95 360.0 -479.95 320.25 -372.9 320.25 Q-370.85 320.25 -369.45 318.15 -367.95 316.15 -367.95 313.3 -367.95 310.45 -369.45 308.4 -370.85 306.4 -372.9 306.4 L-479.95 306.4 -479.95 277.0 -334.05 277.0 Q-327.7 277.0 -323.2 270.65 -318.75 264.35 -318.75 255.45 L-318.75 255.35 Q-318.75 246.45 -323.2 240.15 -327.7 233.8 -334.05 233.8 L-479.95 233.8 -479.95 214.8 -459.05 214.8 Q-453.95 214.8 -450.35 209.7 -446.75 204.65 -446.75 197.5 -446.75 190.3 -450.35 185.2 -453.95 180.2 -459.05 180.2 L-479.95 180.2 M392.3 258.3 Q388.35 252.75 382.75 252.75 L206.75 252.75 Q201.15 252.75 197.15 258.3 193.2 263.9 193.2 271.8 193.2 279.65 197.15 285.2 201.15 290.8 206.75 290.8 L382.75 290.8 Q388.35 290.8 392.3 285.2 396.3 279.65 396.3 271.8 396.3 263.9 392.3 258.3 M142.8 214.8 L-17.3 214.8 Q-25.45 214.8 -31.2 222.85 -36.95 230.95 -36.95 242.4 L-36.95 242.45 Q-36.95 253.9 -31.2 261.95 -25.45 270.05 -17.3 270.05 L142.8 270.05 Q150.95 270.05 156.65 261.95 162.45 253.9 162.45 242.45 L162.45 242.4 Q162.45 230.95 156.65 222.85 150.95 214.8 142.8 214.8 M74.45 287.35 L-86.8 287.35 Q-89.6 287.35 -91.6 290.15 -93.55 292.9 -93.55 296.9 -93.55 300.85 -91.6 303.6 -89.6 306.4 -86.8 306.4 L74.45 306.4 Q77.25 306.4 79.25 303.6 81.2 300.85 81.2 296.9 81.2 292.9 79.25 290.15 77.25 287.35 74.45 287.35 M-136.95 184.0 Q-133.5 188.85 -128.65 188.85 L-44.95 188.85 Q-40.1 188.85 -36.7 184.0 -33.25 179.25 -33.25 172.4 -33.25 165.55 -36.7 160.7 -40.1 155.95 -44.95 155.95 L-128.65 155.95 Q-133.5 155.95 -136.95 160.7 -140.35 165.55 -140.35 172.4 -140.35 179.25 -136.95 184.0 M-271.15 238.4 Q-276.9 246.55 -276.9 257.95 L-276.9 258.05 Q-276.9 269.45 -271.15 277.5 -265.4 285.65 -257.25 285.65 L-119.35 285.65 Q-111.2 285.65 -105.5 277.5 -99.7 269.45 -99.7 258.05 L-99.7 257.95 Q-99.7 246.55 -105.5 238.4 -111.2 230.35 -119.35 230.35 L-257.25 230.35 Q-265.4 230.35 -271.15 238.4" fill="#000000" fill-rule="evenodd" stroke="none"/>
    <path d="M-479.95 180.2 L-459.05 180.2 Q-453.95 180.2 -450.35 185.2 -446.75 190.3 -446.75 197.5 -446.75 204.65 -450.35 209.7 -453.95 214.8 -459.05 214.8 L-479.95 214.8 -479.95 180.2 M-479.95 233.8 L-334.05 233.8 Q-327.7 233.8 -323.2 240.15 -318.75 246.45 -318.75 255.35 L-318.75 255.45 Q-318.75 264.35 -323.2 270.65 -327.7 277.0 -334.05 277.0 L-479.95 277.0 -479.95 233.8 M-479.95 306.4 L-372.9 306.4 Q-370.85 306.4 -369.45 308.4 -367.95 310.45 -367.95 313.3 -367.95 316.15 -369.45 318.15 -370.85 320.25 -372.9 320.25 L-479.95 320.25 -479.95 306.4 M480.05 320.25 L468.95 320.25 Q466.95 320.25 465.45 318.15 464.05 316.15 464.05 313.3 464.05 310.45 465.45 308.4 466.95 306.4 468.95 306.4 L480.05 306.4 480.05 320.25 M480.05 277.0 L463.35 277.0 Q457.05 277.0 452.55 270.65 448.05 264.35 448.05 255.45 L448.05 255.35 Q448.05 246.45 452.55 240.15 457.05 233.8 463.35 233.8 L480.05 233.8 480.05 277.0 M480.05 214.8 L406.2 214.8 Q401.1 214.8 397.45 209.7 393.9 204.65 393.9 197.5 393.9 195.65 394.15 194.05 394.8 189.0 397.45 185.2 401.1 180.2 406.2 180.2 L480.05 180.2 480.05 214.8 M392.3 258.3 Q396.3 263.9 396.3 271.8 396.3 279.65 392.3 285.2 388.35 290.8 382.75 290.8 L206.75 290.8 Q201.15 290.8 197.15 285.2 193.2 279.65 193.2 271.8 193.2 263.9 197.15 258.3 201.15 252.75 206.75 252.75 L382.75 252.75 Q388.35 252.75 392.3 258.3 M-271.15 238.4 Q-265.4 230.35 -257.25 230.35 L-119.35 230.35 Q-111.2 230.35 -105.5 238.4 -99.7 246.55 -99.7 257.95 L-99.7 258.05 Q-99.7 269.45 -105.5 277.5 -111.2 285.65 -119.35 285.65 L-257.25 285.65 Q-265.4 285.65 -271.15 277.5 -276.9 269.45 -276.9 258.05 L-276.9 257.95 Q-276.9 246.55 -271.15 238.4 M-136.95 184.0 Q-140.35 179.25 -140.35 172.4 -140.35 165.55 -136.95 160.7 -133.5 155.95 -128.65 155.95 L-44.95 155.95 Q-40.1 155.95 -36.7 160.7 -33.25 165.55 -33.25 172.4 -33.25 179.25 -36.7 184.0 -40.1 188.85 -44.95 188.85 L-128.65 188.85 Q-133.5 188.85 -136.95 184.0 M74.45 287.35 Q77.25 287.35 79.25 290.15 81.2 292.9 81.2 296.9 81.2 300.85 79.25 303.6 77.25 306.4 74.45 306.4 L-86.8 306.4 Q-89.6 306.4 -91.6 303.6 -93.55 300.85 -93.55 296.9 -93.55 292.9 -91.6 290.15 -89.6 287.35 -86.8 287.35 L74.45 287.35 M142.8 214.8 Q150.95 214.8 156.65 222.85 162.45 230.95 162.45 242.4 L162.45 242.45 Q162.45 253.9 156.65 261.95 150.95 270.05 142.8 270.05 L-17.3 270.05 Q-25.45 270.05 -31.2 261.95 -36.95 253.9 -36.95 242.45 L-36.95 242.4 Q-36.95 230.95 -31.2 222.85 -25.45 214.8 -17.3 214.8 L142.8 214.8" fill="#002424" fill-rule="evenodd" stroke="none"/>
  </g>
</svg>
