<?xml version="1.0" encoding="UTF-8" standalone="no"?>
<svg xmlns:ffdec="https://www.free-decompiler.com/flash" xmlns:xlink="http://www.w3.org/1999/xlink" ffdec:objectType="shape" height="367.4px" width="118.75px" xmlns="http://www.w3.org/2000/svg">
  <g transform="matrix(1.0, 0.0, 0.0, 1.0, 0.0, 184.85)">
    <path d="M0.0 -126.15 L0.2 -126.15 1.85 -126.35 2.5 -126.55 2.75 -126.6 3.25 -126.8 3.7 -127.05 3.8 -127.1 4.7 -127.75 4.75 -127.8 4.85 -127.85 4.9 -127.95 5.05 -128.05 5.15 -128.15 5.25 -128.25 6.6 -130.15 Q7.3 -131.55 7.3 -133.2 L7.3 -133.25 7.1 -134.95 7.05 -135.15 6.4 -136.75 6.3 -137.0 0.4 -151.35 0.0 -150.45 0.0 -161.3 4.8 -172.1 19.9 -135.15 20.2 -134.55 Q21.3 -132.65 21.85 -130.45 L22.0 -130.0 22.0 -129.95 Q22.45 -127.9 22.45 -125.6 22.45 -123.4 22.0 -121.4 21.45 -118.9 20.25 -116.7 19.0 -114.55 17.15 -112.65 11.8 -107.35 4.2 -107.35 L0.0 -107.8 0.0 -126.15" fill="url(#gradient0)" fill-rule="evenodd" stroke="none"/>
    <path d="M0.0 -150.45 L0.4 -151.35 6.3 -137.0 6.4 -136.75 7.05 -135.15 7.1 -134.95 7.3 -133.25 7.3 -133.2 Q7.3 -131.55 6.6 -130.15 L5.25 -128.25 5.15 -128.15 5.05 -128.05 4.9 -127.95 4.85 -127.85 4.75 -127.8 4.7 -127.75 3.8 -127.1 3.7 -127.05 3.25 -126.8 2.75 -126.6 2.5 -126.55 1.85 -126.35 0.2 -126.15 0.0 -126.15 0.0 -150.45 M0.0 -93.35 L17.15 -95.2 30.7 -97.3 39.9 -99.05 Q42.1 -95.95 42.1 -91.85 42.1 -89.45 41.35 -87.35 40.5 -85.0 38.7 -83.05 L38.35 -82.7 Q34.55 -78.95 29.2 -78.95 25.15 -78.9 22.1 -81.05 L22.05 -81.1 Q19.05 -83.15 15.5 -82.8 11.9 -82.55 9.35 -80.0 5.4 -76.15 0.0 -75.8 L0.0 -93.35" fill="url(#gradient1)" fill-rule="evenodd" stroke="none"/>
    <path d="M0.0 -107.8 L4.2 -107.35 Q11.8 -107.35 17.15 -112.65 19.0 -114.55 20.25 -116.7 21.45 -118.9 22.0 -121.4 22.45 -123.4 22.45 -125.6 22.45 -127.9 22.0 -129.95 L22.0 -130.0 21.85 -130.45 Q21.3 -132.65 20.2 -134.55 L19.9 -135.15 4.8 -172.1 0.0 -161.3 0.0 -173.65 4.95 -184.85 24.5 -137.05 Q25.95 -134.55 26.7 -131.7 L26.8 -131.45 Q27.45 -128.65 27.45 -125.6 27.45 -122.05 26.55 -118.85 L45.5 -108.1 45.4 -108.05 46.2 -107.2 46.25 -107.15 Q52.1 -100.7 52.1 -91.85 52.1 -85.4 49.05 -80.25 L69.35 -61.3 70.3 -60.4 Q76.05 -54.65 76.05 -46.55 76.05 -38.45 70.3 -32.75 68.4 -30.8 66.2 -29.5 78.75 -23.05 91.35 -16.55 L94.3 -13.55 94.4 -13.45 Q96.75 -10.55 98.25 -6.75 102.1 2.9 98.0 12.4 93.9 21.95 84.3 25.8 L81.95 26.6 Q81.8 33.6 78.85 40.6 76.7 45.55 73.55 49.45 L90.25 60.3 90.1 60.4 91.2 61.55 94.05 65.15 Q98.85 72.35 98.85 81.5 98.85 88.9 95.7 95.05 L107.75 101.45 108.9 102.05 Q115.95 106.1 118.05 113.95 120.15 121.75 116.05 128.75 112.05 135.8 104.25 137.9 99.3 139.2 94.65 138.05 93.8 143.3 90.9 148.3 84.75 159.05 72.75 162.25 60.8 165.45 50.0 159.25 48.05 158.1 46.35 156.8 L42.5 161.45 Q34.65 169.35 23.55 169.35 20.0 169.35 16.85 168.55 14.75 171.7 11.9 174.55 6.55 179.95 0.0 182.55 L0.0 177.6 Q4.7 175.4 8.7 171.4 L8.75 171.35 Q11.25 168.85 13.1 166.1 13.85 164.9 15.2 164.35 L17.9 164.2 23.55 164.85 Q32.8 164.8 39.3 158.3 L39.35 158.3 Q41.5 156.15 42.95 153.7 41.2 151.9 39.9 149.8 38.6 147.8 37.65 145.6 34.7 147.9 30.8 148.95 23.3 150.95 16.55 147.1 11.35 144.05 9.0 138.9 8.3 137.4 7.85 135.7 6.1 129.25 8.75 123.4 4.5 120.85 0.8 117.15 L0.8 117.55 Q0.8 120.15 0.0 122.45 L0.0 108.45 Q1.85 111.15 4.3 113.6 7.55 116.85 11.3 119.1 13.55 120.4 15.95 121.35 21.75 123.6 28.45 123.6 42.55 123.6 52.55 113.6 L52.6 113.55 Q55.35 110.75 57.4 107.7 58.25 106.35 59.75 105.8 L62.8 105.6 69.05 106.3 Q79.3 106.3 86.55 99.05 L86.6 99.0 88.55 96.85 Q90.15 94.85 91.25 92.7 93.85 87.65 93.85 81.5 93.9 73.9 89.9 67.9 L89.9 67.95 87.5 64.9 86.6 63.95 86.5 63.85 70.1 53.2 Q65.15 57.75 58.4 60.45 44.05 66.15 29.9 60.1 24.1 57.6 19.75 53.75 17.8 65.4 8.25 72.3 4.3 75.1 0.0 76.45 L0.0 71.15 Q2.75 70.1 5.35 68.25 13.25 62.55 14.8 52.95 L15.15 48.8 Q12.05 44.75 10.05 39.65 8.75 36.45 8.05 33.25 L5.3 31.1 Q3.35 32.4 1.05 33.35 L0.0 33.75 0.0 28.35 1.1 27.8 4.05 25.7 Q4.65 25.1 5.35 24.8 L7.4 24.35 9.0 24.6 10.8 25.6 Q12.05 26.75 12.35 28.4 L12.4 28.85 12.65 30.5 Q13.2 34.15 14.65 37.8 16.7 43.0 20.1 46.95 24.75 52.45 31.85 55.5 44.1 60.75 56.55 55.85 61.75 53.75 65.75 50.35 L69.35 46.75 Q72.3 43.2 74.25 38.65 76.85 32.55 76.95 26.5 77.0 24.85 78.0 23.6 78.95 22.25 80.5 21.8 L82.45 21.15 Q90.15 18.05 93.4 10.45 L93.4 10.4 Q96.7 2.8 93.65 -4.9 92.4 -7.95 90.5 -10.3 L90.35 -10.5 88.45 -12.4 88.45 -12.45 59.75 -27.25 56.5 -27.0 Q51.4 -27.0 47.25 -29.3 L45.8 -26.5 45.9 -23.6 Q45.9 -11.25 37.15 -2.55 28.45 6.2 16.1 6.2 L10.35 5.7 8.5 7.65 3.95 11.55 0.0 14.05 0.0 8.25 Q2.6 6.5 5.0 4.15 L6.55 2.4 Q7.45 1.4 8.7 1.0 L11.2 0.8 16.1 1.2 Q26.35 1.2 33.6 -6.05 L33.65 -6.1 Q39.65 -12.1 40.7 -20.1 37.6 -17.1 34.05 -15.1 27.65 -11.6 19.8 -11.6 8.35 -11.6 0.0 -19.05 L0.0 -26.3 2.15 -23.9 Q9.45 -16.6 19.8 -16.6 29.05 -16.6 35.9 -22.5 L37.4 -23.9 37.45 -23.95 40.6 -27.7 42.7 -31.35 Q43.25 -32.6 44.35 -33.4 L44.45 -33.45 46.25 -34.2 47.0 -34.3 Q48.4 -34.35 49.65 -33.65 52.7 -32.0 56.5 -32.0 L60.45 -32.5 Q63.95 -33.45 66.75 -36.25 L66.8 -36.3 Q71.05 -40.55 71.05 -46.55 71.05 -52.6 66.8 -56.85 L66.05 -57.55 65.95 -57.65 46.0 -76.25 45.4 -75.65 Q38.7 -68.95 29.2 -68.95 21.95 -68.95 16.35 -72.85 9.45 -66.15 0.0 -65.8 L0.0 -70.8 Q7.45 -71.15 12.85 -76.45 14.1 -77.7 15.9 -77.85 17.7 -78.0 19.2 -76.95 23.55 -73.9 29.2 -73.95 36.65 -73.95 41.9 -79.15 L42.35 -79.65 Q44.1 -81.55 45.25 -83.75 47.1 -87.4 47.1 -91.85 47.1 -98.75 42.55 -103.75 L42.8 -103.55 42.55 -103.8 42.45 -103.85 42.1 -104.3 24.6 -114.25 Q23.05 -111.55 20.65 -109.15 13.85 -102.35 4.2 -102.35 L0.0 -102.7 0.0 -107.8 M17.95 127.25 L13.2 125.65 Q11.4 129.8 12.65 134.4 13.2 136.4 14.15 138.0 15.9 140.9 19.05 142.75 24.0 145.6 29.5 144.15 32.35 143.4 34.55 141.7 35.75 140.65 37.35 140.6 38.9 140.5 40.25 141.35 L41.4 142.25 42.25 143.6 Q43.4 146.25 45.1 148.55 46.65 150.55 48.65 152.25 L52.5 154.95 Q61.5 160.1 71.45 157.45 81.4 154.75 86.55 145.8 L86.6 145.75 Q89.0 141.6 89.75 137.25 89.95 135.85 90.9 134.8 91.8 133.7 93.15 133.3 L95.9 133.2 Q99.3 134.05 102.95 133.05 108.75 131.5 111.75 126.3 L111.75 126.25 Q114.75 121.05 113.2 115.25 111.65 109.4 106.4 106.35 L105.5 105.9 105.4 105.85 93.0 99.25 90.1 102.55 Q81.4 111.3 69.05 111.3 L61.6 110.45 Q59.25 113.95 56.1 117.1 49.35 123.9 40.9 126.7 35.05 128.6 28.45 128.6 22.95 128.6 17.95 127.25" fill="#000000" fill-rule="evenodd" stroke="none"/>
    <path d="M0.0 -102.7 L4.2 -102.35 Q13.85 -102.35 20.65 -109.15 23.05 -111.55 24.6 -114.25 L42.1 -104.3 42.45 -103.85 42.55 -103.8 42.8 -103.55 42.55 -103.75 Q47.1 -98.75 47.1 -91.85 47.1 -87.4 45.25 -83.75 44.1 -81.55 42.35 -79.65 L41.9 -79.15 Q36.65 -73.95 29.2 -73.95 23.55 -73.9 19.2 -76.95 17.7 -78.0 15.9 -77.85 14.1 -77.7 12.85 -76.45 7.45 -71.15 0.0 -70.8 L0.0 -75.8 Q5.4 -76.15 9.35 -80.0 11.9 -82.55 15.5 -82.8 19.05 -83.15 22.05 -81.1 L22.1 -81.05 Q25.15 -78.9 29.2 -78.95 34.55 -78.95 38.35 -82.7 L38.7 -83.05 Q40.5 -85.0 41.35 -87.35 42.1 -89.45 42.1 -91.85 42.1 -95.95 39.9 -99.05 L30.7 -97.3 17.15 -95.2 0.0 -93.35 0.0 -102.7 M39.9 -99.05 L42.55 -99.3 39.9 -100.45 39.45 -99.95 Q40.75 -99.15 40.15 -99.4 L39.4 -99.9 38.85 -100.4 39.9 -99.05" fill="url(#gradient2)" fill-rule="evenodd" stroke="none"/>
    <path d="M0.0 -65.8 Q9.45 -66.15 16.35 -72.85 21.95 -68.95 29.2 -68.95 38.7 -68.95 45.4 -75.65 L46.0 -76.25 65.95 -57.65 66.05 -57.55 66.8 -56.85 Q71.05 -52.6 71.05 -46.55 71.05 -40.55 66.8 -36.3 L66.75 -36.25 Q63.95 -33.45 60.45 -32.5 L56.5 -32.0 Q52.7 -32.0 49.65 -33.65 48.4 -34.35 47.0 -34.3 L46.25 -34.2 44.45 -33.45 44.35 -33.4 Q43.25 -32.6 42.7 -31.35 L40.6 -27.7 37.45 -23.95 37.4 -23.9 35.9 -22.5 Q29.05 -16.6 19.8 -16.6 9.45 -16.6 2.15 -23.9 L0.0 -26.3 0.0 -38.8 0.1 -38.25 Q0.9 -32.95 4.45 -28.8 L5.65 -27.45 5.7 -27.45 Q11.55 -21.6 19.8 -21.6 28.05 -21.6 33.85 -27.45 L33.9 -27.45 33.9 -27.5 35.25 -28.95 Q37.0 -31.05 38.15 -33.45 L38.6 -34.3 Q39.7 -36.3 41.65 -37.55 L41.65 -37.6 Q43.95 -39.2 46.8 -39.3 L47.25 -39.3 Q49.8 -39.3 52.1 -38.05 54.05 -36.95 56.5 -37.0 60.45 -37.0 63.2 -39.8 L63.25 -39.8 63.25 -39.85 Q66.05 -42.6 66.05 -46.55 66.05 -50.2 63.7 -52.85 47.1 -49.85 32.25 -49.8 28.5 -49.8 24.85 -49.95 11.7 -50.6 0.0 -53.7 L0.0 -65.8" fill="url(#gradient3)" fill-rule="evenodd" stroke="none"/>
    <path d="M0.0 -53.7 Q11.7 -50.6 24.85 -49.95 28.5 -49.8 32.25 -49.8 47.1 -49.85 63.7 -52.85 66.05 -50.2 66.05 -46.55 66.05 -42.6 63.25 -39.85 L63.25 -39.8 63.2 -39.8 Q60.45 -37.0 56.5 -37.0 54.05 -36.95 52.1 -38.05 49.8 -39.3 47.25 -39.3 L46.8 -39.3 Q43.95 -39.2 41.65 -37.6 L41.65 -37.55 Q39.7 -36.3 38.6 -34.3 L38.15 -33.45 Q37.0 -31.05 35.25 -28.95 L33.9 -27.5 33.9 -27.45 33.85 -27.45 Q28.05 -21.6 19.8 -21.6 11.55 -21.6 5.7 -27.45 L5.65 -27.45 4.45 -28.8 Q0.9 -32.95 0.1 -38.25 L0.0 -38.8 0.0 -53.7" fill="url(#gradient4)" fill-rule="evenodd" stroke="none"/>
    <path d="M0.0 -19.05 Q8.35 -11.6 19.8 -11.6 27.65 -11.6 34.05 -15.1 32.65 -12.15 30.1 -9.65 L30.1 -9.6 30.05 -9.6 Q24.3 -3.8 16.1 -3.8 L12.1 -4.15 Q9.5 -4.65 7.0 -3.75 L7.05 -3.75 Q4.55 -2.9 2.8 -0.9 L2.75 -0.85 1.4 0.65 1.45 0.6 0.0 1.95 0.0 -19.05" fill="url(#gradient5)" fill-rule="evenodd" stroke="none"/>
    <path d="M34.05 -15.1 Q37.6 -17.1 40.7 -20.1 39.65 -12.1 33.65 -6.1 L33.6 -6.05 Q26.35 1.2 16.1 1.2 L11.2 0.8 8.7 1.0 Q7.45 1.4 6.55 2.4 L5.0 4.15 Q2.6 6.5 0.0 8.25 L0.0 1.95 1.45 0.6 1.4 0.65 2.75 -0.85 2.8 -0.9 Q4.55 -2.9 7.05 -3.75 L7.0 -3.75 Q9.5 -4.65 12.1 -4.15 L16.1 -3.8 Q24.3 -3.8 30.05 -9.6 L30.1 -9.6 30.1 -9.65 Q32.65 -12.15 34.05 -15.1" fill="url(#gradient6)" fill-rule="evenodd" stroke="none"/>
    <path d="M3.95 11.55 L8.5 7.65 10.35 5.7 16.1 6.2 Q28.45 6.2 37.15 -2.55 45.9 -11.25 45.9 -23.6 L45.8 -26.5 47.25 -29.3 Q51.4 -27.0 56.5 -27.0 L59.75 -27.25 88.45 -12.45 88.45 -12.4 90.35 -10.5 90.5 -10.3 Q92.4 -7.95 93.65 -4.9 96.7 2.8 93.4 10.4 L93.4 10.45 Q90.15 18.05 82.45 21.15 L80.5 21.8 Q78.95 22.25 78.0 23.6 77.0 24.85 76.95 26.5 76.85 32.55 74.25 38.65 72.3 43.2 69.35 46.75 L65.75 50.35 Q61.75 53.75 56.55 55.85 44.1 60.75 31.85 55.5 24.75 52.45 20.1 46.95 16.7 43.0 14.65 37.8 13.2 34.15 12.65 30.5 L12.4 28.85 12.35 28.4 Q12.05 26.75 10.8 25.6 L9.0 24.6 7.4 24.35 5.35 24.8 Q4.65 25.1 4.05 25.7 L1.1 27.8 0.0 28.35 0.0 22.55 0.6 22.05 0.65 22.05 1.2 21.55 Q3.85 19.35 7.35 19.35 10.95 19.3 13.7 21.55 L14.1 21.85 14.1 21.9 Q15.9 23.45 16.75 25.55 17.25 26.85 17.4 28.35 17.75 32.15 19.3 35.95 23.5 46.45 33.85 50.95 44.2 55.35 54.7 51.2 58.35 49.7 61.35 47.5 63.4 45.9 65.1 44.0 67.9 40.8 69.7 36.65 L69.65 36.65 Q71.85 31.5 72.0 26.4 L71.95 26.35 Q72.05 23.15 74.0 20.55 75.95 17.95 79.05 17.05 L80.55 16.5 80.6 16.5 Q86.35 14.2 88.8 8.5 L88.85 8.45 88.8 8.4 Q91.3 2.7 89.0 -3.05 88.1 -5.3 86.7 -7.05 42.3 12.35 3.95 11.55 M12.25 7.4 L12.2 7.35 12.25 7.4" fill="url(#gradient7)" fill-rule="evenodd" stroke="none"/>
    <path d="M0.0 14.05 L3.95 11.55 Q42.3 12.35 86.7 -7.05 88.1 -5.3 89.0 -3.05 91.3 2.7 88.8 8.4 L88.85 8.45 88.8 8.5 Q86.35 14.2 80.6 16.5 L80.55 16.5 79.05 17.05 Q75.95 17.95 74.0 20.55 72.05 23.15 71.95 26.35 L72.0 26.4 Q71.85 31.5 69.65 36.65 L69.7 36.65 Q67.9 40.8 65.1 44.0 63.4 45.9 61.35 47.5 58.35 49.7 54.7 51.2 44.2 55.35 33.85 50.95 23.5 46.45 19.3 35.95 17.75 32.15 17.4 28.35 17.25 26.85 16.75 25.55 15.9 23.45 14.1 21.9 L14.1 21.85 13.7 21.55 Q10.95 19.3 7.35 19.35 3.85 19.35 1.2 21.55 L0.65 22.05 0.6 22.05 0.0 22.55 0.0 14.05" fill="url(#gradient8)" fill-rule="evenodd" stroke="none"/>
    <path d="M0.0 76.45 Q4.3 75.1 8.25 72.3 17.8 65.4 19.75 53.75 24.1 57.6 29.9 60.1 44.05 66.15 58.4 60.45 65.15 57.75 70.1 53.2 L86.5 63.85 86.6 63.95 87.5 64.9 89.9 67.95 89.9 67.9 Q93.9 73.9 93.85 81.5 93.85 87.65 91.25 92.7 90.15 94.85 88.55 96.85 L86.6 99.0 86.55 99.05 Q79.3 106.3 69.05 106.3 L62.8 105.6 59.75 105.8 Q58.25 106.35 57.4 107.7 55.35 110.75 52.6 113.55 L52.55 113.6 Q42.55 123.6 28.45 123.6 21.75 123.6 15.95 121.35 13.55 120.4 11.3 119.1 7.55 116.85 4.3 113.6 1.85 111.15 0.0 108.45 L0.0 100.05 Q1.35 101.05 2.3 102.6 L2.6 103.15 2.65 103.15 Q4.65 106.85 7.85 110.05 L7.8 110.05 Q11.15 113.4 15.0 115.4 17.45 116.7 20.1 117.45 24.0 118.6 28.45 118.6 40.5 118.6 49.0 110.05 L49.05 110.05 49.05 110.0 Q51.45 107.6 53.25 104.95 54.95 102.3 57.95 101.15 60.9 99.95 64.0 100.75 L69.05 101.3 Q77.25 101.3 83.0 95.5 L83.05 95.5 83.05 95.45 84.0 94.45 Q85.7 92.5 86.85 90.35 88.85 86.35 88.85 81.5 88.9 75.45 85.8 70.75 L85.75 70.7 84.95 68.85 Q72.85 73.6 60.2 76.2 L53.4 77.4 Q27.8 81.35 0.0 76.45" fill="url(#gradient9)" fill-rule="evenodd" stroke="none"/>
    <path d="M0.0 76.45 Q27.8 81.35 53.4 77.4 L60.2 76.2 Q72.85 73.6 84.95 68.85 L85.75 70.7 85.8 70.75 Q88.9 75.45 88.85 81.5 88.85 86.35 86.85 90.35 85.7 92.5 84.0 94.45 L83.05 95.45 83.05 95.5 83.0 95.5 Q77.25 101.3 69.05 101.3 L64.0 100.75 Q60.9 99.95 57.95 101.15 54.95 102.3 53.25 104.95 51.45 107.6 49.05 110.0 L49.05 110.05 49.0 110.05 Q40.5 118.6 28.45 118.6 24.0 118.6 20.1 117.45 17.45 116.7 15.0 115.4 11.15 113.4 7.8 110.05 L7.85 110.05 Q4.65 106.85 2.65 103.15 L2.6 103.15 2.3 102.6 Q1.35 101.05 0.0 100.05 L0.0 76.45" fill="url(#gradient10)" fill-rule="evenodd" stroke="none"/>
    <path d="M0.0 33.75 L1.05 33.35 Q3.35 32.4 5.3 31.1 L8.05 33.25 Q8.75 36.45 10.05 39.65 12.05 44.75 15.15 48.8 L14.8 52.95 Q13.25 62.55 5.35 68.25 2.75 70.1 0.0 71.15 L0.0 65.65 2.4 64.2 2.45 64.15 Q8.65 59.7 9.9 52.15 10.95 45.5 7.65 39.9 L0.0 41.5 0.0 33.75" fill="url(#gradient11)" fill-rule="evenodd" stroke="none"/>
    <path d="M0.0 41.5 L7.65 39.9 Q10.95 45.5 9.9 52.15 8.65 59.7 2.45 64.15 L2.4 64.2 0.0 65.65 0.0 41.5" fill="url(#gradient12)" fill-rule="evenodd" stroke="none"/>
    <path d="M40.9 126.7 Q49.35 123.9 56.1 117.1 59.25 113.95 61.6 110.45 L69.05 111.3 Q81.4 111.3 90.1 102.55 L93.0 99.25 105.4 105.85 105.5 105.9 106.4 106.35 Q111.65 109.4 113.2 115.25 114.75 121.05 111.75 126.25 L111.75 126.3 Q108.75 131.5 102.95 133.05 99.3 134.05 95.9 133.2 L93.15 133.3 Q91.8 133.7 90.9 134.8 89.95 135.85 89.75 137.25 89.0 141.6 86.6 145.75 L86.55 145.8 Q81.4 154.75 71.45 157.45 61.5 160.1 52.5 154.95 L48.65 152.25 Q46.65 150.55 45.1 148.55 43.4 146.25 42.25 143.6 L41.4 142.25 40.25 141.35 Q38.9 140.5 37.35 140.6 35.75 140.65 34.55 141.7 32.35 143.4 29.5 144.15 24.0 145.6 19.05 142.75 15.9 140.9 14.15 138.0 13.2 136.4 12.65 134.4 11.4 129.8 13.2 125.65 L17.95 127.25 Q16.65 130.05 17.5 133.1 18.05 135.3 19.55 136.85 L21.55 138.45 21.6 138.45 Q24.7 140.2 28.2 139.3 L28.25 139.3 Q30.05 138.85 31.4 137.8 33.9 135.75 37.05 135.6 L40.2 135.9 Q41.55 136.25 42.85 137.05 L42.9 137.1 Q44.6 138.1 45.75 139.65 L46.85 141.6 Q48.05 144.45 50.1 146.7 52.15 148.95 55.0 150.6 62.2 154.75 70.15 152.6 78.1 150.45 82.25 143.3 L82.25 143.25 Q84.2 139.9 84.8 136.4 85.25 133.65 87.1 131.5 88.95 129.35 91.65 128.5 L97.1 128.35 101.6 128.25 101.65 128.25 Q105.4 127.2 107.4 123.8 L107.45 123.75 107.4 123.75 Q109.4 120.35 108.4 116.55 107.45 113.0 104.45 111.05 72.95 125.95 45.25 126.65 L40.9 126.7" fill="url(#gradient13)" fill-rule="evenodd" stroke="none"/>
    <path d="M40.9 126.7 L45.25 126.65 Q72.95 125.95 104.45 111.05 107.45 113.0 108.4 116.55 109.4 120.35 107.4 123.75 L107.45 123.75 107.4 123.8 Q105.4 127.2 101.65 128.25 L101.6 128.25 97.1 128.35 91.65 128.5 Q88.95 129.35 87.1 131.5 85.25 133.65 84.8 136.4 84.2 139.9 82.25 143.25 L82.25 143.3 Q78.1 150.45 70.15 152.6 62.2 154.75 55.0 150.6 52.15 148.95 50.1 146.7 48.05 144.45 46.85 141.6 L45.75 139.65 Q44.6 138.1 42.9 137.1 L42.85 137.05 Q41.55 136.25 40.2 135.9 L37.05 135.6 Q33.9 135.75 31.4 137.8 30.05 138.85 28.25 139.3 L28.2 139.3 Q24.7 140.2 21.6 138.45 L21.55 138.45 19.55 136.85 Q18.05 135.3 17.5 133.1 16.65 130.05 17.95 127.25 22.95 128.6 28.45 128.6 35.05 128.6 40.9 126.7" fill="url(#gradient14)" fill-rule="evenodd" stroke="none"/>
    <path d="M0.0 122.45 Q0.8 120.15 0.8 117.55 L0.8 117.15 Q4.5 120.85 8.75 123.4 6.1 129.25 7.85 135.7 8.3 137.4 9.0 138.9 L0.0 139.95 0.0 122.45 M39.9 149.8 Q41.2 151.9 42.95 153.7 41.5 156.15 39.35 158.3 L39.3 158.3 Q32.8 164.8 23.55 164.85 L17.9 164.2 15.2 164.35 Q13.85 164.9 13.1 166.1 11.25 168.85 8.75 171.35 L8.7 171.4 Q4.7 175.4 0.0 177.6 L0.0 172.55 Q2.95 170.8 5.55 168.2 7.75 166.0 9.35 163.6 10.9 161.2 13.55 160.2 16.2 159.15 19.0 159.85 L23.55 160.35 Q30.95 160.35 36.15 155.15 L36.15 155.1 Q38.55 152.65 39.9 149.8" fill="url(#gradient15)" fill-rule="evenodd" stroke="none"/>
    <path d="M9.0 138.9 Q11.35 144.05 16.55 147.1 23.3 150.95 30.8 148.95 34.7 147.9 37.65 145.6 38.6 147.8 39.9 149.8 38.55 152.65 36.15 155.1 L36.15 155.15 Q30.95 160.35 23.55 160.35 L19.0 159.85 Q16.2 159.15 13.55 160.2 10.9 161.2 9.35 163.6 7.75 166.0 5.55 168.2 2.95 170.8 0.0 172.55 L0.0 139.95 9.0 138.9" fill="url(#gradient16)" fill-rule="evenodd" stroke="none"/>
  </g>
  <defs>
    <linearGradient gradientTransform="matrix(0.007, -0.0262, 0.0216, 0.0058, 7.05, -136.25)" gradientUnits="userSpaceOnUse" id="gradient0" spreadMethod="pad" x1="-819.2" x2="819.2">
      <stop offset="0.0" stop-color="#003333"/>
      <stop offset="1.0" stop-color="#339999"/>
    </linearGradient>
    <linearGradient gradientTransform="matrix(0.0, 0.0177, -0.0483, 0.0, 2.55, -79.3)" gradientUnits="userSpaceOnUse" id="gradient1" spreadMethod="pad" x1="-819.2" x2="819.2">
      <stop offset="0.0" stop-color="#34a4a4"/>
      <stop offset="0.47058823529411764" stop-color="#2b8989"/>
    </linearGradient>
    <linearGradient gradientTransform="matrix(-0.0094, 0.0356, -0.0507, -0.0134, 4.25, -95.15)" gradientUnits="userSpaceOnUse" id="gradient2" spreadMethod="pad" x1="-819.2" x2="819.2">
      <stop offset="0.0" stop-color="#003333"/>
      <stop offset="1.0" stop-color="#339999"/>
    </linearGradient>
    <linearGradient gradientTransform="matrix(-0.0061, 0.0531, -0.0621, -0.0071, 19.35, -44.35)" gradientUnits="userSpaceOnUse" id="gradient3" spreadMethod="pad" x1="-819.2" x2="819.2">
      <stop offset="0.0" stop-color="#003333"/>
      <stop offset="1.0" stop-color="#339999"/>
    </linearGradient>
    <linearGradient gradientTransform="matrix(0.0, 0.0208, -0.0562, 0.0, 20.0, -36.8)" gradientUnits="userSpaceOnUse" id="gradient4" spreadMethod="pad" x1="-819.2" x2="819.2">
      <stop offset="0.0" stop-color="#34a4a4"/>
      <stop offset="0.47058823529411764" stop-color="#2b8989"/>
    </linearGradient>
    <linearGradient gradientTransform="matrix(0.0, 0.0172, -0.0732, 0.0, -24.05, -10.75)" gradientUnits="userSpaceOnUse" id="gradient5" spreadMethod="pad" x1="-819.2" x2="819.2">
      <stop offset="0.0" stop-color="#34a4a4"/>
      <stop offset="0.47058823529411764" stop-color="#2b8989"/>
    </linearGradient>
    <linearGradient gradientTransform="matrix(-0.0085, 0.0586, -0.0786, -0.0114, -24.35, -24.75)" gradientUnits="userSpaceOnUse" id="gradient6" spreadMethod="pad" x1="-819.2" x2="819.2">
      <stop offset="0.0" stop-color="#003333"/>
      <stop offset="1.0" stop-color="#339999"/>
    </linearGradient>
    <linearGradient gradientTransform="matrix(0.008, 0.0661, -0.0711, 0.0086, 38.6, 22.3)" gradientUnits="userSpaceOnUse" id="gradient7" spreadMethod="pad" x1="-819.2" x2="819.2">
      <stop offset="0.0" stop-color="#003333"/>
      <stop offset="1.0" stop-color="#339999"/>
    </linearGradient>
    <linearGradient gradientTransform="matrix(0.0086, 0.0216, -0.0596, 0.0238, 43.9, 25.9)" gradientUnits="userSpaceOnUse" id="gradient8" spreadMethod="pad" x1="-819.2" x2="819.2">
      <stop offset="0.0" stop-color="#34a4a4"/>
      <stop offset="0.47058823529411764" stop-color="#2b8989"/>
    </linearGradient>
    <linearGradient gradientTransform="matrix(0.0, 0.0538, -0.0853, 0.0, 24.0, 82.1)" gradientUnits="userSpaceOnUse" id="gradient9" spreadMethod="pad" x1="-819.2" x2="819.2">
      <stop offset="0.0" stop-color="#003333"/>
      <stop offset="1.0" stop-color="#339999"/>
    </linearGradient>
    <linearGradient gradientTransform="matrix(0.0, 0.0269, -0.0792, 0.0, 24.0, 96.05)" gradientUnits="userSpaceOnUse" id="gradient10" spreadMethod="pad" x1="-819.2" x2="819.2">
      <stop offset="0.0" stop-color="#34a4a4"/>
      <stop offset="0.47058823529411764" stop-color="#2b8989"/>
    </linearGradient>
    <linearGradient gradientTransform="matrix(-0.0046, 0.0653, -0.0786, -0.0056, -49.8, 53.8)" gradientUnits="userSpaceOnUse" id="gradient11" spreadMethod="pad" x1="-819.2" x2="819.2">
      <stop offset="0.0" stop-color="#003333"/>
      <stop offset="1.0" stop-color="#339999"/>
    </linearGradient>
    <linearGradient gradientTransform="matrix(-0.0042, 0.0259, -0.0716, -0.0117, -51.35, 58.35)" gradientUnits="userSpaceOnUse" id="gradient12" spreadMethod="pad" x1="-819.2" x2="819.2">
      <stop offset="0.0" stop-color="#34a4a4"/>
      <stop offset="0.47058823529411764" stop-color="#2b8989"/>
    </linearGradient>
    <linearGradient gradientTransform="matrix(0.0079, 0.0528, -0.0619, 0.0092, 63.85, 130.7)" gradientUnits="userSpaceOnUse" id="gradient13" spreadMethod="pad" x1="-819.2" x2="819.2">
      <stop offset="0.0" stop-color="#003333"/>
      <stop offset="1.0" stop-color="#339999"/>
    </linearGradient>
    <linearGradient gradientTransform="matrix(0.0054, 0.0201, -0.0543, 0.0145, 66.45, 137.85)" gradientUnits="userSpaceOnUse" id="gradient14" spreadMethod="pad" x1="-819.2" x2="819.2">
      <stop offset="0.0" stop-color="#34a4a4"/>
      <stop offset="0.47058823529411764" stop-color="#2b8989"/>
    </linearGradient>
    <linearGradient gradientTransform="matrix(0.0, 0.0484, -0.0767, 0.0, -17.0, 143.05)" gradientUnits="userSpaceOnUse" id="gradient15" spreadMethod="pad" x1="-819.2" x2="819.2">
      <stop offset="0.0" stop-color="#003333"/>
      <stop offset="1.0" stop-color="#339999"/>
    </linearGradient>
    <linearGradient gradientTransform="matrix(0.0, 0.0242, -0.0712, 0.0, -17.0, 155.6)" gradientUnits="userSpaceOnUse" id="gradient16" spreadMethod="pad" x1="-819.2" x2="819.2">
      <stop offset="0.0" stop-color="#34a4a4"/>
      <stop offset="0.47058823529411764" stop-color="#2b8989"/>
    </linearGradient>
  </defs>
</svg>
