<?xml version="1.0" encoding="UTF-8" standalone="no"?>
<svg xmlns:ffdec="https://www.free-decompiler.com/flash" xmlns:xlink="http://www.w3.org/1999/xlink" ffdec:objectType="shape" height="585.1px" width="960.0px" xmlns="http://www.w3.org/2000/svg">
  <g transform="matrix(1.0, 0.0, 0.0, 1.0, 480.0, 292.55)">
    <path d="M480.0 -19.55 Q479.0 -55.65 453.15 -81.45 426.4 -108.3 388.5 -108.3 350.6 -108.3 323.8 -81.45 297.9 -55.45 297.05 -19.0 L297.05 -100.45 Q297.05 -145.3 265.45 -176.95 233.8 -208.65 189.0 -208.65 144.25 -208.65 112.65 -176.95 81.0 -145.3 81.0 -100.45 L81.0 -82.1 Q80.05 -116.6 55.5 -141.2 29.95 -166.75 -6.15 -166.75 -42.2 -166.75 -67.75 -141.2 -92.45 -116.45 -93.25 -81.75 L-93.25 -180.9 Q-93.25 -222.8 -122.85 -252.45 -152.4 -282.05 -194.25 -282.05 L-194.3 -282.05 Q-236.15 -282.05 -265.75 -252.45 -295.3 -222.8 -295.3 -180.9 L-295.3 -45.25 Q-296.15 -82.0 -322.4 -108.3 -349.45 -135.35 -387.65 -135.3 -425.9 -135.35 -453.0 -108.3 -479.0 -82.2 -480.0 -45.75 L-480.0 -88.75 Q-472.75 -103.25 -460.4 -115.65 L-460.35 -115.7 Q-430.2 -145.85 -387.65 -145.8 -345.1 -145.85 -315.0 -115.7 -309.95 -110.65 -305.75 -105.25 L-305.75 -180.9 Q-305.75 -227.1 -273.15 -259.8 L-273.15 -259.9 Q-240.45 -292.55 -194.3 -292.55 L-194.25 -292.55 Q-148.1 -292.55 -115.5 -259.9 -82.8 -227.15 -82.8 -180.9 L-82.8 -140.1 Q-79.3 -144.5 -75.15 -148.6 -46.55 -177.25 -6.15 -177.2 34.25 -177.25 62.85 -148.6 69.75 -141.65 75.0 -134.0 83.0 -162.15 105.2 -184.35 139.9 -219.15 189.0 -219.15 238.15 -219.15 272.85 -184.35 307.5 -149.65 307.5 -100.45 L307.5 -78.8 Q311.55 -84.0 316.4 -88.85 L316.45 -88.9 Q346.3 -118.75 388.5 -118.75 430.75 -118.75 460.6 -88.9 467.35 -82.1 472.6 -74.7 L480.0 -88.5 480.0 -19.55" fill="#000000" fill-rule="evenodd" stroke="none"/>
    <path d="M286.6 292.55 L286.6 -100.45 Q286.55 -140.95 258.0 -169.55 229.45 -198.2 189.0 -198.15 148.55 -198.2 120.0 -169.55 91.45 -140.95 91.45 -100.45 L91.45 292.55 70.5 292.55 70.5 -82.1 Q69.6 -112.2 48.05 -133.75 25.6 -156.3 -6.15 -156.3 -37.9 -156.3 -60.3 -133.75 -82.1 -111.95 -82.8 -81.45 L-82.8 292.55 -103.7 292.55 -103.7 -180.9 Q-103.75 -218.45 -130.3 -245.05 -156.75 -271.55 -194.25 -271.55 L-194.3 -271.55 Q-231.8 -271.6 -258.35 -245.1 L-258.4 -245.05 Q-284.85 -218.45 -284.85 -180.9 L-284.85 292.55 -305.75 292.55 -305.75 -45.25 Q-306.65 -77.65 -329.8 -100.85 -353.75 -124.85 -387.65 -124.85 -421.55 -124.85 -445.6 -100.9 L-445.65 -100.85 Q-469.55 -76.8 -469.55 -42.85 L-469.55 292.55 -480.0 292.55 -480.0 -45.75 Q-479.0 -82.2 -453.0 -108.3 -425.9 -135.35 -387.65 -135.3 -349.45 -135.35 -322.4 -108.3 -296.15 -82.0 -295.3 -45.25 L-295.3 -180.9 Q-295.3 -222.8 -265.75 -252.45 -236.15 -282.05 -194.3 -282.05 L-194.25 -282.05 Q-152.4 -282.05 -122.85 -252.45 -93.25 -222.8 -93.25 -180.9 L-93.25 -81.75 Q-92.45 -116.45 -67.75 -141.2 -42.2 -166.75 -6.15 -166.75 29.95 -166.75 55.5 -141.2 80.05 -116.6 81.0 -82.1 L81.0 -100.45 Q81.0 -145.3 112.65 -176.95 144.25 -208.65 189.0 -208.65 233.8 -208.65 265.45 -176.95 297.05 -145.3 297.05 -100.45 L297.05 -19.0 Q297.9 -55.45 323.8 -81.45 350.6 -108.3 388.5 -108.3 426.4 -108.3 453.15 -81.45 479.0 -55.65 480.0 -19.55 L480.0 292.55 469.6 292.55 469.55 -16.6 Q469.55 -50.25 445.8 -74.1 422.1 -97.85 388.5 -97.8 354.95 -97.8 331.2 -74.1 308.25 -51.0 307.5 -18.7 L307.5 292.55 286.6 292.55" fill="#336633" fill-rule="evenodd" stroke="none"/>
    <path d="M91.45 292.55 L91.45 -100.45 Q91.45 -140.95 120.0 -169.55 148.55 -198.2 189.0 -198.15 229.45 -198.2 258.0 -169.55 286.55 -140.95 286.6 -100.45 L286.6 292.55 91.45 292.55" fill="url(#gradient0)" fill-rule="evenodd" stroke="none"/>
    <path d="M-82.8 292.55 L-82.8 -81.45 Q-82.1 -111.95 -60.3 -133.75 -37.9 -156.3 -6.15 -156.3 25.6 -156.3 48.05 -133.75 69.6 -112.2 70.5 -82.1 L70.5 292.55 -82.8 292.55" fill="url(#gradient1)" fill-rule="evenodd" stroke="none"/>
    <path d="M307.5 292.55 L307.5 -18.7 Q308.25 -51.0 331.2 -74.1 354.95 -97.8 388.5 -97.8 422.1 -97.85 445.8 -74.1 469.55 -50.25 469.55 -16.6 L469.6 292.55 307.5 292.55" fill="url(#gradient2)" fill-rule="evenodd" stroke="none"/>
    <path d="M-469.55 292.55 L-469.55 -42.85 Q-469.55 -76.8 -445.65 -100.85 L-445.6 -100.9 Q-421.55 -124.85 -387.65 -124.85 -353.75 -124.85 -329.8 -100.85 -306.65 -77.65 -305.75 -45.25 L-305.75 292.55 -469.55 292.55" fill="url(#gradient3)" fill-rule="evenodd" stroke="none"/>
    <path d="M-284.85 292.55 L-284.85 -180.9 Q-284.85 -218.45 -258.4 -245.05 L-258.35 -245.1 Q-231.8 -271.6 -194.3 -271.55 L-194.25 -271.55 Q-156.75 -271.55 -130.3 -245.05 -103.75 -218.45 -103.7 -180.9 L-103.7 292.55 -284.85 292.55" fill="url(#gradient4)" fill-rule="evenodd" stroke="none"/>
  </g>
  <defs>
    <linearGradient gradientTransform="matrix(0.0, 0.1962, -0.1191, 0.0, 189.0, 50.6)" gradientUnits="userSpaceOnUse" id="gradient0" spreadMethod="pad" x1="-819.2" x2="819.2">
      <stop offset="0.00784313725490196" stop-color="#66cc33"/>
      <stop offset="1.0" stop-color="#50a033"/>
    </linearGradient>
    <linearGradient gradientTransform="matrix(0.0, 0.1871, -0.0936, 0.0, -6.15, 35.6)" gradientUnits="userSpaceOnUse" id="gradient1" spreadMethod="pad" x1="-819.2" x2="819.2">
      <stop offset="0.00784313725490196" stop-color="#66cc33"/>
      <stop offset="1.0" stop-color="#50a033"/>
    </linearGradient>
    <linearGradient gradientTransform="matrix(0.0, 0.1579, -0.0989, 0.0, 388.6, 71.85)" gradientUnits="userSpaceOnUse" id="gradient2" spreadMethod="pad" x1="-819.2" x2="819.2">
      <stop offset="0.00784313725490196" stop-color="#66cc33"/>
      <stop offset="1.0" stop-color="#50a033"/>
    </linearGradient>
    <linearGradient gradientTransform="matrix(0.0, 0.1668, -0.1, 0.0, -387.65, 52.1)" gradientUnits="userSpaceOnUse" id="gradient3" spreadMethod="pad" x1="-819.2" x2="819.2">
      <stop offset="0.00784313725490196" stop-color="#66cc33"/>
      <stop offset="1.0" stop-color="#50a033"/>
    </linearGradient>
    <linearGradient gradientTransform="matrix(0.0, 0.2494, -0.1105, 0.0, -194.25, -18.55)" gradientUnits="userSpaceOnUse" id="gradient4" spreadMethod="pad" x1="-819.2" x2="819.2">
      <stop offset="0.00784313725490196" stop-color="#66cc33"/>
      <stop offset="1.0" stop-color="#50a033"/>
    </linearGradient>
  </defs>
</svg>
