<?xml version="1.0" encoding="UTF-8" standalone="no"?>
<svg xmlns:ffdec="https://www.free-decompiler.com/flash" xmlns:xlink="http://www.w3.org/1999/xlink" ffdec:objectType="shape" height="108.9px" width="121.5px" xmlns="http://www.w3.org/2000/svg">
  <g transform="matrix(1.0, 0.0, 0.0, 1.0, 55.35, 69.6)">
    <path d="M27.1 -49.85 Q28.3 -48.85 28.5 -47.3 28.65 -45.8 27.75 -44.5 L17.35 -29.8 17.0 -18.4 34.75 -15.95 Q36.25 -22.15 41.1 -26.95 L41.15 -27.0 Q48.2 -33.9 58.0 -34.0 L58.15 -34.0 Q59.8 -34.0 61.0 -32.8 62.15 -31.65 62.15 -30.0 L62.15 -10.0 62.15 0.0 62.1 30.0 Q62.1 31.65 60.95 32.8 59.8 33.95 58.15 34.0 48.25 34.15 41.1 27.0 L41.05 27.0 Q36.1 22.0 34.7 15.55 L12.4 18.9 12.4 24.75 Q12.4 25.9 11.8 26.9 11.15 27.9 10.1 28.4 3.1 31.65 -3.9 34.95 L-6.65 35.15 -26.05 29.95 Q-27.65 29.5 -28.45 28.1 -29.3 26.65 -28.85 25.05 L-28.15 22.3 -36.8 20.0 Q-38.4 19.55 -39.25 18.15 -40.1 16.65 -39.65 15.1 L-39.1 13.0 -48.3 10.55 Q-49.9 10.1 -50.75 8.7 -51.6 7.25 -51.15 5.65 L-44.2 -20.55 -43.75 -21.6 -30.45 -43.4 -29.8 -61.7 Q-29.75 -63.35 -28.6 -64.45 -27.45 -65.6 -25.8 -65.6 L7.4 -65.45 Q8.85 -65.45 10.0 -64.5 L27.1 -49.85" fill="#ff0000" fill-rule="evenodd" stroke="none"/>
    <path d="M29.7 -52.9 Q32.05 -50.9 32.45 -47.8 32.8 -44.75 31.05 -42.15 L21.3 -28.45 21.1 -21.85 32.0 -20.4 Q34.0 -25.55 38.25 -29.8 L38.35 -29.9 Q46.6 -37.85 57.95 -38.0 L58.15 -38.0 Q61.45 -38.0 63.8 -35.65 66.15 -33.3 66.15 -30.0 L66.15 -10.0 66.15 0.0 66.1 30.0 Q66.1 33.25 63.8 35.6 61.5 37.95 58.25 38.0 L58.2 38.0 Q46.9 38.15 38.65 30.2 L38.2 29.8 Q33.85 25.4 31.85 20.05 L16.4 22.35 16.4 24.75 Q16.4 27.05 15.15 29.05 13.9 31.0 11.8 32.0 L-2.2 38.55 -2.25 38.55 Q-4.95 39.8 -7.75 39.0 L-7.7 39.0 -27.1 33.8 Q-30.3 32.95 -31.9 30.1 L-31.95 30.1 Q-33.3 27.75 -32.95 25.2 L-37.8 23.9 Q-41.0 23.05 -42.7 20.15 -43.9 18.1 -43.8 15.9 L-49.35 14.45 -49.35 14.4 Q-52.55 13.55 -54.2 10.7 -55.9 7.85 -55.05 4.65 L-48.05 -21.6 -47.15 -23.7 -34.4 -44.6 -33.8 -61.85 Q-33.7 -65.1 -31.35 -67.35 -29.05 -69.6 -25.8 -69.6 L7.4 -69.45 Q10.35 -69.45 12.55 -67.55 L12.6 -67.55 29.7 -52.9 M27.1 -49.85 L10.0 -64.5 Q8.85 -65.45 7.4 -65.45 L-25.8 -65.6 Q-27.45 -65.6 -28.6 -64.45 -29.75 -63.35 -29.8 -61.7 L-30.45 -43.4 -43.75 -21.6 -44.2 -20.55 -51.15 5.65 Q-51.6 7.25 -50.75 8.7 -49.9 10.1 -48.3 10.55 L-39.1 13.0 -39.65 15.1 Q-40.1 16.65 -39.25 18.15 -38.4 19.55 -36.8 20.0 L-28.15 22.3 -28.85 25.05 Q-29.3 26.65 -28.45 28.1 -27.65 29.5 -26.05 29.95 L-6.65 35.15 -3.9 34.95 Q3.1 31.65 10.1 28.4 11.15 27.9 11.8 26.9 12.4 25.9 12.4 24.75 L12.4 18.9 34.7 15.55 Q36.1 22.0 41.05 27.0 L41.1 27.0 Q48.25 34.15 58.15 34.0 59.8 33.95 60.95 32.8 62.1 31.65 62.1 30.0 L62.15 0.0 62.15 -10.0 62.15 -30.0 Q62.15 -31.65 61.0 -32.8 59.8 -34.0 58.15 -34.0 L58.0 -34.0 Q48.2 -33.9 41.15 -27.0 L41.1 -26.95 Q36.25 -22.15 34.75 -15.95 L17.0 -18.4 17.35 -29.8 27.75 -44.5 Q28.65 -45.8 28.5 -47.3 28.3 -48.85 27.1 -49.85" fill="#ff0000" fill-opacity="0.49803922" fill-rule="evenodd" stroke="none"/>
    <path d="M38.1 -11.45 L38.1 -11.5 Q38.6 -18.85 43.9 -24.15 49.85 -29.9 58.05 -30.0 L58.15 -30.0 58.15 -10.0 58.15 0.0 58.1 30.0 Q49.85 30.1 43.9 24.15 38.25 18.45 38.1 10.5 L38.1 -9.95 38.05 -10.0 38.1 -11.45" fill="url(#gradient0)" fill-rule="evenodd" stroke="none"/>
    <path d="M38.1 10.5 L38.1 11.0 -1.9 17.0 -1.85 -16.95 38.1 -11.45 38.05 -10.0 38.1 -9.95 38.1 10.5" fill="url(#gradient1)" fill-rule="evenodd" stroke="none"/>
  </g>
  <defs>
    <linearGradient gradientTransform="matrix(0.0123, 0.0, 0.0, 0.061, 48.1, 0.0)" gradientUnits="userSpaceOnUse" id="gradient0" spreadMethod="pad" x1="-819.2" x2="819.2">
      <stop offset="0.0" stop-color="#423224"/>
      <stop offset="1.0" stop-color="#8a560a"/>
    </linearGradient>
    <linearGradient gradientTransform="matrix(0.0244, 0.0, 0.0, 0.0122, 18.1, 0.0)" gradientUnits="userSpaceOnUse" id="gradient1" spreadMethod="pad" x1="-819.2" x2="819.2">
      <stop offset="0.0" stop-color="#423224"/>
      <stop offset="1.0" stop-color="#8a560a"/>
    </linearGradient>
  </defs>
</svg>
