<?xml version="1.0" encoding="UTF-8" standalone="no"?>
<svg xmlns:ffdec="https://www.free-decompiler.com/flash" xmlns:xlink="http://www.w3.org/1999/xlink" ffdec:objectType="shape" height="10.0px" width="220.0px" xmlns="http://www.w3.org/2000/svg">
  <g transform="matrix(1.0, 0.0, 0.0, 1.0, 110.0, 20.0)">
    <path d="M101.45 -11.45 Q100.0 -12.9 100.0 -15.0 100.0 -17.05 101.45 -18.5 102.85 -20.0 105.0 -20.0 107.05 -20.0 108.55 -18.5 110.0 -17.05 110.0 -15.0 110.0 -12.9 108.55 -11.45 107.0 -10.0 105.0 -10.0 102.9 -10.0 101.45 -11.45" fill="url(#gradient0)" fill-rule="evenodd" stroke="none"/>
    <path d="M-101.45 -11.45 Q-102.9 -10.0 -105.0 -10.0 -107.0 -10.0 -108.55 -11.45 -110.0 -12.9 -110.0 -15.0 -110.0 -17.05 -108.55 -18.5 -107.05 -20.0 -105.0 -20.0 -102.85 -20.0 -101.45 -18.5 -100.0 -17.05 -100.0 -15.0 -100.0 -12.9 -101.45 -11.45" fill="url(#gradient1)" fill-rule="evenodd" stroke="none"/>
  </g>
  <defs>
    <linearGradient gradientTransform="matrix(0.0, -0.0257, -0.0702, 0.0, -72.5, -12.0)" gradientUnits="userSpaceOnUse" id="gradient0" spreadMethod="pad" x1="-819.2" x2="819.2">
      <stop offset="0.0" stop-color="#333333"/>
      <stop offset="1.0" stop-color="#cccccc"/>
    </linearGradient>
    <linearGradient gradientTransform="matrix(0.0, -0.0257, 0.0702, 0.0, 72.5, -12.0)" gradientUnits="userSpaceOnUse" id="gradient1" spreadMethod="pad" x1="-819.2" x2="819.2">
      <stop offset="0.0" stop-color="#333333"/>
      <stop offset="1.0" stop-color="#cccccc"/>
    </linearGradient>
  </defs>
</svg>
