<?xml version="1.0" encoding="UTF-8" standalone="no"?>
<svg xmlns:ffdec="https://www.free-decompiler.com/flash" xmlns:xlink="http://www.w3.org/1999/xlink" ffdec:objectType="shape" height="40.0px" width="230.0px" xmlns="http://www.w3.org/2000/svg">
  <g transform="matrix(1.0, 0.0, 0.0, 1.0, 115.0, 30.0)">
    <path d="M77.1 -17.05 Q80.0 -14.15 80.0 -10.0 80.0 -5.85 77.1 -2.9 74.15 0.0 70.0 0.0 L-70.0 0.0 Q-74.15 0.0 -77.1 -2.9 -80.0 -5.85 -80.0 -10.0 -80.0 -14.15 -77.1 -17.05 -74.15 -20.0 -70.0 -20.0 L70.0 -20.0 Q74.15 -20.0 77.1 -17.05 M90.0 -25.0 L105.0 -25.0 Q109.15 -25.0 112.1 -22.05 115.0 -19.15 115.0 -15.0 115.0 -10.8 112.1 -7.9 109.2 -5.0 105.0 -5.0 L90.0 -5.0 90.0 10.0 -90.0 10.0 -90.0 -5.0 -105.0 -5.0 Q-109.2 -5.0 -112.1 -7.9 -115.0 -10.8 -115.0 -15.0 -115.0 -19.15 -112.1 -22.05 -109.15 -25.0 -105.0 -25.0 L-90.0 -25.0 -90.0 -30.0 90.0 -30.0 90.0 -25.0 M85.0 5.0 L85.0 -25.0 -85.0 -25.0 -85.0 5.0 85.0 5.0 M110.0 -15.0 Q110.0 -17.05 108.55 -18.5 107.05 -20.0 105.0 -20.0 102.85 -20.0 101.45 -18.5 100.0 -17.05 100.0 -15.0 100.0 -12.9 101.45 -11.45 102.9 -10.0 105.0 -10.0 107.0 -10.0 108.55 -11.45 110.0 -12.9 110.0 -15.0 M-110.0 -15.0 Q-110.0 -12.9 -108.55 -11.45 -107.0 -10.0 -105.0 -10.0 -102.9 -10.0 -101.45 -11.45 -100.0 -12.9 -100.0 -15.0 -100.0 -17.05 -101.45 -18.5 -102.85 -20.0 -105.0 -20.0 -107.05 -20.0 -108.55 -18.5 -110.0 -17.05 -110.0 -15.0" fill="url(#gradient0)" fill-rule="evenodd" stroke="none"/>
    <path d="M77.1 -17.05 Q74.15 -20.0 70.0 -20.0 L-70.0 -20.0 Q-74.15 -20.0 -77.1 -17.05 -80.0 -14.15 -80.0 -10.0 -80.0 -5.85 -77.1 -2.9 -74.15 0.0 -70.0 0.0 L70.0 0.0 Q74.15 0.0 77.1 -2.9 80.0 -5.85 80.0 -10.0 80.0 -14.15 77.1 -17.05 M110.0 -15.0 Q110.0 -12.9 108.55 -11.45 107.0 -10.0 105.0 -10.0 102.9 -10.0 101.45 -11.45 100.0 -12.9 100.0 -15.0 100.0 -17.05 101.45 -18.5 102.85 -20.0 105.0 -20.0 107.05 -20.0 108.55 -18.5 110.0 -17.05 110.0 -15.0 M85.0 5.0 L-85.0 5.0 -85.0 -25.0 85.0 -25.0 85.0 5.0 M-110.0 -15.0 Q-110.0 -17.05 -108.55 -18.5 -107.05 -20.0 -105.0 -20.0 -102.85 -20.0 -101.45 -18.5 -100.0 -17.05 -100.0 -15.0 -100.0 -12.9 -101.45 -11.45 -102.9 -10.0 -105.0 -10.0 -107.0 -10.0 -108.55 -11.45 -110.0 -12.9 -110.0 -15.0" fill="url(#gradient1)" fill-rule="evenodd" stroke="none"/>
  </g>
  <defs>
    <linearGradient gradientTransform="matrix(0.0, -0.0257, -0.0702, 0.0, -72.5, -12.0)" gradientUnits="userSpaceOnUse" id="gradient0" spreadMethod="pad" x1="-819.2" x2="819.2">
      <stop offset="0.0" stop-color="#000000"/>
      <stop offset="1.0" stop-color="#999999"/>
    </linearGradient>
    <linearGradient gradientTransform="matrix(0.0, -0.0257, -0.0702, 0.0, -72.5, -12.0)" gradientUnits="userSpaceOnUse" id="gradient1" spreadMethod="pad" x1="-819.2" x2="819.2">
      <stop offset="0.0" stop-color="#333333"/>
      <stop offset="1.0" stop-color="#cccccc"/>
    </linearGradient>
  </defs>
</svg>
