<?xml version="1.0" encoding="UTF-8" standalone="no"?>
<svg xmlns:ffdec="https://www.free-decompiler.com/flash" xmlns:xlink="http://www.w3.org/1999/xlink" ffdec:objectType="shape" height="59.95px" width="40.0px" xmlns="http://www.w3.org/2000/svg">
  <g transform="matrix(1.0, 0.0, 0.0, 1.0, 20.0, 29.95)">
    <path d="M-19.9 -1.25 L-20.0 -2.25 Q-20.0 -4.3 -18.55 -5.8 -17.05 -7.25 -15.0 -7.25 L15.0 -7.25 Q17.1 -7.25 18.55 -5.8 20.0 -4.3 20.0 -2.25 L19.9 -1.25 Q19.65 0.2 18.55 1.3 17.1 2.75 15.0 2.75 L-15.0 2.75 Q-17.05 2.75 -18.55 1.3 -19.65 0.2 -19.9 -1.25" fill="url(#gradient0)" fill-rule="evenodd" stroke="none"/>
    <path d="M19.9 -1.25 L20.0 -0.25 Q20.0 1.85 18.55 3.3 17.1 4.75 15.0 4.75 L-15.0 4.75 Q-17.05 4.75 -18.55 3.3 -20.0 1.85 -20.0 -0.25 L-19.9 -1.25 Q-19.65 0.2 -18.55 1.3 -17.05 2.75 -15.0 2.75 L15.0 2.75 Q17.1 2.75 18.55 1.3 19.65 0.2 19.9 -1.25" fill="#000000" fill-rule="evenodd" stroke="none"/>
    <path d="M6.95 -10.9 Q8.95 -13.45 8.4 -17.55 L4.3 -19.5 Q-1.75 -21.05 -7.0 -20.1 L-7.9 -16.25 6.95 -10.9 M-7.1 -8.4 L-9.1 -9.5 Q-11.15 -16.4 -8.3 -23.35 L-9.2 -27.9 Q-7.55 -29.95 -4.25 -29.85 -0.7 -30.2 2.65 -29.05 6.7 -27.65 8.7 -23.95 9.85 -21.8 8.85 -19.4 L10.25 -17.6 Q10.45 -12.35 7.4 -8.8 L5.65 -8.45 3.05 -7.4 -4.9 -7.85 -7.1 -8.4 M7.2 -20.25 L6.8 -25.45 Q2.5 -26.15 -1.7 -25.5 -4.95 -24.9 -6.7 -22.05 L7.2 -20.25 M-7.85 -27.25 L-6.85 -24.95 2.95 -27.5 Q0.4 -28.7 -2.35 -28.55 -5.7 -29.1 -7.85 -27.25 M-7.1 -9.9 L-3.95 -8.9 Q0.35 -7.5 4.25 -9.6 L-7.35 -13.6 -7.1 -9.9" fill="url(#gradient1)" fill-rule="evenodd" stroke="none"/>
    <path d="M6.95 -10.9 L-7.9 -16.25 -7.0 -20.1 Q-1.75 -21.05 4.3 -19.5 L8.4 -17.55 Q8.95 -13.45 6.95 -10.9" fill="url(#gradient2)" fill-rule="evenodd" stroke="none"/>
    <path d="M-7.1 -8.4 L-4.9 -7.85 -1.9 27.55 -0.15 28.05 0.65 26.75 Q1.85 23.85 2.7 20.85 3.45 18.25 2.9 15.5 2.3 12.75 2.0 8.45 1.65 4.1 1.75 0.4 1.85 -3.35 3.05 -7.4 L5.65 -8.45 Q4.65 -5.6 4.5 -2.65 L3.95 3.95 Q3.6 7.55 4.55 12.9 5.45 18.2 4.5 22.5 3.55 26.75 1.0 29.9 L-1.4 29.85 Q-3.4 29.35 -4.1 27.4 -5.35 24.05 -5.2 20.45 -5.05 16.85 -5.7 9.75 L-7.1 -8.4" fill="#26210d" fill-rule="evenodd" stroke="none"/>
    <path d="M7.2 -20.25 L-6.7 -22.05 Q-4.95 -24.9 -1.7 -25.5 2.5 -26.15 6.8 -25.45 L7.2 -20.25" fill="url(#gradient3)" fill-rule="evenodd" stroke="none"/>
    <path d="M-4.9 -7.85 L3.05 -7.4 Q1.85 -3.35 1.75 0.4 1.65 4.1 2.0 8.45 2.3 12.75 2.9 15.5 3.45 18.25 2.7 20.85 1.85 23.85 0.65 26.75 L-0.15 28.05 -1.9 27.55 -4.9 -7.85 M0.8 17.25 Q-0.05 17.25 -0.2 18.55 L-0.2 20.1 -0.2 21.35 Q-0.05 22.5 0.8 22.55 L1.35 21.35 1.55 19.9 Q1.25 17.25 0.8 17.25 M-0.45 2.0 L-1.25 -4.4 Q-3.3 -0.85 -0.45 2.0" fill="url(#gradient4)" fill-rule="evenodd" stroke="none"/>
    <path d="M0.8 17.25 Q1.25 17.25 1.55 19.9 L1.35 21.35 0.8 22.55 Q-0.05 22.5 -0.2 21.35 L-0.2 20.1 -0.2 18.55 Q-0.05 17.25 0.8 17.25" fill="#403615" fill-rule="evenodd" stroke="none"/>
    <path d="M-7.85 -27.25 Q-5.7 -29.1 -2.35 -28.55 0.4 -28.7 2.95 -27.5 L-6.85 -24.95 -7.85 -27.25" fill="url(#gradient5)" fill-rule="evenodd" stroke="none"/>
    <path d="M-7.1 -9.9 L-7.35 -13.6 4.25 -9.6 Q0.35 -7.5 -3.95 -8.9 L-7.1 -9.9" fill="url(#gradient6)" fill-rule="evenodd" stroke="none"/>
    <path d="M-0.45 2.0 Q-3.3 -0.85 -1.25 -4.4 L-0.45 2.0" fill="#736227" fill-rule="evenodd" stroke="none"/>
    <path d="M6.4 -0.85 Q5.85 -0.25 5.0 -0.25 L-7.0 -0.25 Q-7.85 -0.25 -8.4 -0.85 -9.0 -1.45 -9.0 -2.25 -9.0 -3.1 -8.4 -3.65 -7.85 -4.25 -7.0 -4.25 L5.0 -4.25 Q5.85 -4.25 6.4 -3.65 7.0 -3.1 7.0 -2.25 7.0 -1.45 6.4 -0.85" fill="#000000" fill-rule="evenodd" stroke="none"/>
  </g>
  <defs>
    <radialGradient cx="0" cy="0" gradientTransform="matrix(0.0244, 0.0, 0.0, 0.0244, 0.0, -2.25)" gradientUnits="userSpaceOnUse" id="gradient0" r="819.2" spreadMethod="pad">
      <stop offset="0.0" stop-color="#666666"/>
      <stop offset="1.0" stop-color="#000000"/>
    </radialGradient>
    <linearGradient gradientTransform="matrix(0.0122, 0.0, 0.0, 0.0139, 0.3, -18.6)" gradientUnits="userSpaceOnUse" id="gradient1" spreadMethod="pad" x1="-819.2" x2="819.2">
      <stop offset="0.0196078431372549" stop-color="#c4b188"/>
      <stop offset="1.0" stop-color="#887322"/>
    </linearGradient>
    <linearGradient gradientTransform="matrix(0.0102, 0.0, 0.0, 0.0063, 0.3, -15.4)" gradientUnits="userSpaceOnUse" id="gradient2" spreadMethod="pad" x1="-819.2" x2="819.2">
      <stop offset="0.0196078431372549" stop-color="#ded7ba"/>
      <stop offset="1.0" stop-color="#dec976"/>
    </linearGradient>
    <linearGradient gradientTransform="matrix(0.0089, 0.0, 0.0, 0.0034, 0.55, -23.05)" gradientUnits="userSpaceOnUse" id="gradient3" spreadMethod="pad" x1="-819.2" x2="819.2">
      <stop offset="0.0196078431372549" stop-color="#ded7ba"/>
      <stop offset="1.0" stop-color="#dec976"/>
    </linearGradient>
    <radialGradient cx="0" cy="0" gradientTransform="matrix(0.016, 0.0, 0.0, 0.0589, -2.5, -10.0)" gradientUnits="userSpaceOnUse" id="gradient4" r="819.2" spreadMethod="pad">
      <stop offset="0.0" stop-color="#99884c"/>
      <stop offset="1.0" stop-color="#3d330e"/>
    </radialGradient>
    <linearGradient gradientTransform="matrix(0.0068, 0.0, 0.0, 0.0025, -2.3, -26.5)" gradientUnits="userSpaceOnUse" id="gradient5" spreadMethod="pad" x1="-819.2" x2="819.2">
      <stop offset="0.0196078431372549" stop-color="#ded7ba"/>
      <stop offset="1.0" stop-color="#dec976"/>
    </linearGradient>
    <linearGradient gradientTransform="matrix(0.0072, 0.0, 0.0, 0.0031, -1.65, -11.05)" gradientUnits="userSpaceOnUse" id="gradient6" spreadMethod="pad" x1="-819.2" x2="819.2">
      <stop offset="0.0196078431372549" stop-color="#ded7ba"/>
      <stop offset="1.0" stop-color="#dec976"/>
    </linearGradient>
  </defs>
</svg>
