<?xml version="1.0" encoding="UTF-8" standalone="no"?>
<svg xmlns:ffdec="https://www.free-decompiler.com/flash" xmlns:xlink="http://www.w3.org/1999/xlink" ffdec:objectType="shape" height="124.15px" width="47.05px" xmlns="http://www.w3.org/2000/svg">
  <g transform="matrix(1.0, 0.0, 0.0, 1.0, 14.95, 116.65)">
    <path d="M5.3 -62.7 Q8.9 -59.5 10.0 -54.55 17.3 -21.5 4.65 5.95 L0.75 5.1 -0.8 3.4 Q-16.9 -26.4 -4.0 -56.2 L-0.3 -56.95 5.3 -62.7" fill="#ffec00" fill-rule="evenodd" stroke="none"/>
    <path d="M6.9 -116.65 L12.8 -104.95 Q8.0 -88.25 11.65 -71.55 14.4 -59.05 25.7 -52.75 L27.35 -54.25 32.1 -53.3 Q30.0 -29.95 23.0 -6.7 17.85 10.55 3.0 6.85 -2.6 5.55 -5.05 0.4 -24.8 -41.15 -4.85 -87.75 1.25 -102.05 6.9 -116.65 M5.3 -62.7 L-0.3 -56.95 -4.0 -56.2 Q-16.9 -26.4 -0.8 3.4 L0.75 5.1 4.65 5.95 Q17.3 -21.5 10.0 -54.55 8.9 -59.5 5.3 -62.7" fill="#ff9900" fill-opacity="0.8" fill-rule="evenodd" stroke="none"/>
  </g>
</svg>
