<?xml version="1.0" encoding="UTF-8" standalone="no"?>
<svg xmlns:ffdec="https://www.free-decompiler.com/flash" xmlns:xlink="http://www.w3.org/1999/xlink" ffdec:objectType="shape" height="125.0px" width="46.1px" xmlns="http://www.w3.org/2000/svg">
  <g transform="matrix(1.0, 0.0, 0.0, 1.0, 17.85, 113.75)">
    <path d="M0.85 -81.85 L4.0 -83.0 Q15.25 -75.55 15.55 -62.2 15.95 -41.6 7.8 -22.15 10.95 -16.05 11.3 -9.25 11.75 -0.45 7.6 7.4 -5.25 5.35 -8.15 -7.15 -12.35 -24.95 -3.1 -40.4 -8.45 -60.25 -0.7 -79.5 L0.85 -81.85" fill="#ffec00" fill-rule="evenodd" stroke="none"/>
    <path d="M0.85 -81.85 L-0.7 -79.5 Q-8.45 -60.25 -3.1 -40.4 -12.35 -24.95 -8.15 -7.15 -5.25 5.35 7.6 7.4 11.75 -0.45 11.3 -9.25 10.95 -16.05 7.8 -22.15 15.95 -41.6 15.55 -62.2 15.25 -75.55 4.0 -83.0 L0.85 -81.85 M17.85 -74.9 Q17.6 -53.3 25.4 -33.1 34.15 -10.45 16.0 4.6 -5.45 22.25 -14.1 -6.85 -19.85 -26.2 -16.75 -46.25 -13.45 -67.85 -4.4 -87.85 L7.5 -113.75 Q18.05 -96.25 17.85 -74.9" fill="#ff9900" fill-opacity="0.8" fill-rule="evenodd" stroke="none"/>
  </g>
</svg>
