<?xml version="1.0" encoding="UTF-8" standalone="no"?>
<svg xmlns:ffdec="https://www.free-decompiler.com/flash" xmlns:xlink="http://www.w3.org/1999/xlink" ffdec:objectType="shape" height="114.5px" width="49.1px" xmlns="http://www.w3.org/2000/svg">
  <g transform="matrix(1.0, 0.0, 0.0, 1.0, 24.3, 104.75)">
    <path d="M4.2 -95.25 L8.0 -99.0 Q29.9 -78.55 7.8 -66.7 L6.35 -66.2 4.05 -69.45 Q12.6 -81.6 3.6 -93.3 L3.0 -94.1 4.2 -95.25 M-1.8 9.6 Q-25.05 -11.1 -1.75 -33.75 L-1.15 -43.0 3.0 -45.0 Q10.15 -33.35 15.45 -20.75 27.0 6.85 -0.8 9.75 L-1.8 9.6" fill="#ffec00" fill-rule="evenodd" stroke="none"/>
    <path d="M3.6 -93.3 Q12.6 -81.6 4.05 -69.45 L6.35 -66.2 7.8 -66.7 Q29.9 -78.55 8.0 -99.0 L4.2 -95.25 7.0 -104.75 Q31.6 -73.0 20.3 -34.1 25.0 -26.15 24.8 -16.9 24.3 9.4 -0.8 9.75 27.0 6.85 15.45 -20.75 10.15 -33.35 3.0 -45.0 L-1.15 -43.0 -1.75 -33.75 Q-25.05 -11.1 -1.8 9.6 -4.9 9.05 -6.85 7.25 -39.5 -22.9 -11.05 -74.5 L-7.0 -73.85 -6.85 -58.1 3.6 -93.3" fill="#ff9900" fill-opacity="0.8" fill-rule="evenodd" stroke="none"/>
  </g>
</svg>
