<?xml version="1.0" encoding="UTF-8" standalone="no"?>
<svg xmlns:ffdec="https://www.free-decompiler.com/flash" xmlns:xlink="http://www.w3.org/1999/xlink" ffdec:objectType="shape" height="128.75px" width="53.55px" xmlns="http://www.w3.org/2000/svg">
  <g transform="matrix(1.0, 0.0, 0.0, 1.0, 24.35, 116.75)">
    <path d="M1.15 -66.25 L0.65 -66.7 Q-7.4 -86.85 10.8 -88.6 12.45 -77.25 4.2 -67.15 L1.15 -66.25 M13.05 -38.6 L16.5 -28.9 Q26.5 -6.95 6.8 5.0 -1.9 10.35 -6.15 2.15 -27.6 -39.1 16.6 -50.55 L18.0 -46.0 13.05 -38.6" fill="#ffec00" fill-rule="evenodd" stroke="none"/>
    <path d="M1.15 -66.25 L4.2 -67.15 Q12.45 -77.25 10.8 -88.6 -7.4 -86.85 0.65 -66.7 L1.15 -66.25 M12.45 -97.8 Q19.3 -94.2 20.05 -86.55 L18.0 -66.25 Q18.65 -64.55 19.55 -62.95 36.25 -32.85 24.05 -3.0 15.05 19.05 -6.4 8.65 -33.9 -4.65 -19.25 -35.65 -22.6 -55.7 -5.75 -72.6 -9.7 -96.25 0.0 -116.75 L10.5 -98.7 12.45 -97.8 M13.05 -38.6 L18.0 -46.0 16.6 -50.55 Q-27.6 -39.1 -6.15 2.15 -1.9 10.35 6.8 5.0 26.5 -6.95 16.5 -28.9 L13.05 -38.6" fill="#ff9900" fill-opacity="0.8" fill-rule="evenodd" stroke="none"/>
  </g>
</svg>
