<?xml version="1.0" encoding="UTF-8" standalone="no"?>
<svg xmlns:ffdec="https://www.free-decompiler.com/flash" xmlns:xlink="http://www.w3.org/1999/xlink" ffdec:objectType="shape" height="135.2px" width="49.3px" xmlns="http://www.w3.org/2000/svg">
  <g transform="matrix(1.0, 0.0, 0.0, 1.0, 23.75, 123.0)">
    <path d="M2.4 -104.1 L7.05 -105.9 Q19.75 -90.5 11.0 -71.25 3.2 -88.3 2.4 -104.1 M2.0 -55.0 Q16.5 -39.3 11.0 -17.35 3.15 14.0 -7.3 -12.2 -12.3 -24.7 -7.1 -38.25 -3.65 -47.15 2.0 -55.0" fill="#ffec00" fill-rule="evenodd" stroke="none"/>
    <path d="M2.4 -104.1 Q3.2 -88.3 11.0 -71.25 19.75 -90.5 7.05 -105.9 L2.4 -104.1 M4.0 -77.75 L3.25 -85.05 Q2.05 -88.2 0.15 -90.8 -6.15 -99.45 -4.9 -108.9 L-11.7 -120.1 -10.05 -123.0 Q15.5 -116.5 19.35 -88.7 22.85 -63.35 25.2 -38.25 28.2 -6.6 5.65 9.4 -4.3 16.4 -10.95 5.95 -19.85 2.7 -21.85 -6.7 -26.55 -28.55 -19.7 -48.55 L-14.8 -47.55 -9.65 -37.35 4.0 -77.75 M2.0 -55.0 Q-3.65 -47.15 -7.1 -38.25 -12.3 -24.7 -7.3 -12.2 3.15 14.0 11.0 -17.35 16.5 -39.3 2.0 -55.0 M-15.5 -83.2 L-8.25 -83.2 -8.25 -69.75 -15.5 -69.75 -15.5 -83.2" fill="#ff9900" fill-opacity="0.8" fill-rule="evenodd" stroke="none"/>
  </g>
</svg>
