<?xml version="1.0" encoding="UTF-8" standalone="no"?>
<svg xmlns:ffdec="https://www.free-decompiler.com/flash" xmlns:xlink="http://www.w3.org/1999/xlink" ffdec:objectType="shape" height="128.55px" width="57.55px" xmlns="http://www.w3.org/2000/svg">
  <g transform="matrix(1.0, 0.0, 0.0, 1.0, 30.55, 111.2)">
    <path d="M21.45 -111.2 L21.75 -106.6 Q21.0 -97.55 17.9 -89.25 7.75 -61.85 16.05 -35.6 22.0 -16.85 13.0 -1.2 -9.15 37.35 -22.45 -4.15 -32.3 -35.0 -30.2 -67.9 L-27.2 -69.75 -21.7 -64.4 Q-12.2 -71.15 -8.05 -81.95 1.65 -107.35 21.45 -111.2 M5.5 -79.0 Q-7.1 -69.65 -14.05 -55.3 -23.7 -35.3 -20.15 -13.55 -15.55 14.65 0.4 1.55 19.2 -13.9 7.7 -35.7 -3.45 -56.75 10.4 -76.25 L5.5 -79.0 M23.0 -61.75 Q28.0 -61.75 26.75 -52.6 L26.75 -47.05 Q26.15 -43.25 23.0 -43.25 19.85 -43.25 19.25 -47.65 18.95 -49.9 19.25 -52.35 L19.25 -58.0 Q19.85 -61.75 23.0 -61.75" fill="#ff9900" fill-opacity="0.8" fill-rule="evenodd" stroke="none"/>
    <path d="M5.5 -79.0 L10.4 -76.25 Q-3.45 -56.75 7.7 -35.7 19.2 -13.9 0.4 1.55 -15.55 14.65 -20.15 -13.55 -23.7 -35.3 -14.05 -55.3 -7.1 -69.65 5.5 -79.0" fill="#ffec00" fill-rule="evenodd" stroke="none"/>
  </g>
</svg>
