<?xml version="1.0" encoding="UTF-8" standalone="no"?>
<svg xmlns:ffdec="https://www.free-decompiler.com/flash" xmlns:xlink="http://www.w3.org/1999/xlink" ffdec:objectType="shape" height="143.55px" width="116.0px" xmlns="http://www.w3.org/2000/svg">
  <g transform="matrix(1.0, 0.0, 0.0, 1.0, 58.0, 81.8)">
    <path d="M25.7 -52.85 L31.4 -58.55 Q37.95 -52.0 42.65 -44.6 L38.6 -42.6 30.55 -38.55 25.7 -52.85" fill="url(#gradient0)" fill-rule="evenodd" stroke="none"/>
    <path d="M9.75 -63.25 L12.6 -67.1 15.5 -70.95 Q23.95 -66.0 31.4 -58.55 L25.7 -52.85 23.9 -51.0 9.75 -63.25" fill="url(#gradient1)" fill-rule="evenodd" stroke="none"/>
    <path d="M0.0 -50.3 L9.75 -63.25 23.9 -51.0 16.35 -43.5 16.35 -43.55 Q9.6 -50.3 0.0 -50.3" fill="url(#gradient2)" fill-rule="evenodd" stroke="none"/>
    <path d="M12.6 -67.1 L9.75 -63.25 0.0 -50.3 -9.7 -63.25 -12.6 -67.1 12.6 -67.1" fill="url(#gradient3)" fill-rule="evenodd" stroke="none"/>
    <path d="M23.9 -51.0 L25.7 -52.85 30.55 -38.55 22.1 -34.3 Q20.45 -39.45 16.35 -43.5 L23.9 -51.0" fill="url(#gradient4)" fill-rule="evenodd" stroke="none"/>
    <path d="M12.6 -67.1 L-12.6 -67.1 -15.5 -70.95 Q-8.15 -75.35 0.0 -77.8 8.15 -75.35 15.5 -70.95 L12.6 -67.1" fill="url(#gradient5)" fill-rule="evenodd" stroke="none"/>
    <path d="M30.55 -38.55 L38.6 -42.6 44.75 -15.55 36.35 -17.15 22.05 -19.95 Q23.15 -23.35 23.15 -27.15 23.15 -30.95 22.1 -34.3 L30.55 -38.55" fill="url(#gradient6)" fill-rule="evenodd" stroke="none"/>
    <path d="M22.1 -34.3 Q23.15 -30.95 23.15 -27.15 L7.75 -27.15 Q7.7 -30.35 5.45 -32.6 L16.35 -43.5 Q20.45 -39.45 22.1 -34.3" fill="url(#gradient7)" fill-rule="evenodd" stroke="none"/>
    <path d="M16.35 -43.5 L5.45 -32.6 Q3.2 -34.85 0.0 -34.85 L0.0 -50.3 Q9.6 -50.3 16.35 -43.55 L16.35 -43.5" fill="url(#gradient8)" fill-rule="evenodd" stroke="none"/>
    <path d="M5.45 -32.6 Q7.7 -30.35 7.75 -27.15 7.7 -23.95 5.45 -21.7 3.2 -19.4 0.0 -19.4 -3.2 -19.4 -5.45 -21.7 -7.75 -23.95 -7.7 -27.15 -7.75 -30.35 -5.45 -32.6 -3.2 -34.85 0.0 -34.85 3.2 -34.85 5.45 -32.6" fill="url(#gradient9)" fill-rule="evenodd" stroke="none"/>
    <path d="M0.0 -19.4 Q3.2 -19.4 5.45 -21.7 L16.35 -10.8 Q10.95 -5.4 3.8 -4.3 L0.0 -4.0 0.0 -19.4" fill="url(#gradient10)" fill-rule="evenodd" stroke="none"/>
    <path d="M0.0 -19.4 L0.0 -4.0 -3.75 -4.3 Q-10.95 -5.4 -16.35 -10.8 L-5.45 -21.7 Q-3.2 -19.4 0.0 -19.4" fill="url(#gradient11)" fill-rule="evenodd" stroke="none"/>
    <path d="M0.0 -4.0 L3.8 -4.3 7.75 11.45 0.0 26.9 -7.7 11.45 -3.75 -4.3 0.0 -4.0" fill="url(#gradient12)" fill-rule="evenodd" stroke="none"/>
    <path d="M7.75 -27.15 L23.15 -27.15 Q23.15 -23.35 22.05 -19.95 20.45 -14.85 16.35 -10.8 L5.45 -21.7 Q7.7 -23.95 7.75 -27.15" fill="url(#gradient13)" fill-rule="evenodd" stroke="none"/>
    <path d="M3.8 -4.3 Q10.95 -5.4 16.35 -10.8 L23.15 -4.0 28.3 1.15 7.75 11.45 3.8 -4.3" fill="url(#gradient14)" fill-rule="evenodd" stroke="none"/>
    <path d="M22.05 -19.95 L36.35 -17.15 23.15 -4.0 16.35 -10.8 Q20.45 -14.85 22.05 -19.95" fill="url(#gradient15)" fill-rule="evenodd" stroke="none"/>
    <path d="M36.35 -17.15 L44.75 -15.55 38.6 11.45 28.3 1.15 23.15 -4.0 36.35 -17.15" fill="url(#gradient16)" fill-rule="evenodd" stroke="none"/>
    <path d="M38.6 -42.6 L42.65 -44.6 Q49.95 -33.0 52.55 -19.4 L44.75 -15.55 38.6 -42.6" fill="url(#gradient17)" fill-rule="evenodd" stroke="none"/>
    <path d="M38.6 11.45 L44.75 -15.55 52.55 -19.4 Q54.0 -12.0 54.0 -4.0 L54.0 1.6 38.6 11.45" fill="url(#gradient18)" fill-rule="evenodd" stroke="none"/>
    <path d="M0.0 -50.3 L0.0 -34.85 Q-3.2 -34.85 -5.45 -32.6 L-16.35 -43.5 -16.35 -43.55 Q-9.6 -50.3 0.0 -50.3" fill="url(#gradient19)" fill-rule="evenodd" stroke="none"/>
    <path d="M54.0 1.6 L54.0 19.15 38.6 11.45 54.0 1.6" fill="url(#gradient20)" fill-rule="evenodd" stroke="none"/>
    <path d="M28.3 1.15 L38.6 11.45 23.15 30.75 7.75 11.45 28.3 1.15" fill="url(#gradient21)" fill-rule="evenodd" stroke="none"/>
    <path d="M38.6 42.35 L23.15 46.15 7.75 50.05 8.7 48.75 23.15 30.75 38.6 42.35" fill="url(#gradient22)" fill-rule="evenodd" stroke="none"/>
    <path d="M54.0 57.75 L28.15 57.75 23.15 46.15 38.6 42.35 54.0 57.75" fill="url(#gradient23)" fill-rule="evenodd" stroke="none"/>
    <path d="M38.6 11.45 L54.0 19.15 38.6 42.35 23.15 30.75 38.6 11.45" fill="url(#gradient24)" fill-rule="evenodd" stroke="none"/>
    <path d="M0.0 26.9 L7.75 11.45 23.15 30.75 0.0 26.9" fill="url(#gradient25)" fill-rule="evenodd" stroke="none"/>
    <path d="M23.15 30.75 L8.7 48.75 7.65 49.85 0.0 26.9 23.15 30.75" fill="url(#gradient26)" fill-rule="evenodd" stroke="none"/>
    <path d="M28.15 57.75 L0.0 57.75 7.6 49.95 7.75 50.05 23.15 46.15 28.15 57.75" fill="url(#gradient27)" fill-rule="evenodd" stroke="none"/>
    <path d="M7.65 49.85 L7.6 49.95 0.0 57.75 -7.6 49.95 -7.65 49.85 0.0 26.9 7.65 49.85" fill="url(#gradient28)" fill-rule="evenodd" stroke="none"/>
    <path d="M54.0 19.15 L54.0 57.75 38.6 42.35 54.0 19.15" fill="url(#gradient29)" fill-rule="evenodd" stroke="none"/>
    <path d="M-12.6 -67.1 L-9.7 -63.25 -23.85 -51.0 -25.7 -52.85 -31.4 -58.55 Q-23.95 -66.0 -15.5 -70.95 L-12.6 -67.1" fill="url(#gradient30)" fill-rule="evenodd" stroke="none"/>
    <path d="M-42.6 -44.6 Q-37.95 -52.0 -31.4 -58.55 L-25.7 -52.85 -30.55 -38.55 -38.55 -42.6 -42.6 -44.6" fill="url(#gradient31)" fill-rule="evenodd" stroke="none"/>
    <path d="M-25.7 -52.85 L-23.85 -51.0 -16.35 -43.5 Q-20.45 -39.45 -22.1 -34.3 L-30.55 -38.55 -25.7 -52.85" fill="url(#gradient32)" fill-rule="evenodd" stroke="none"/>
    <path d="M-9.7 -63.25 L0.0 -50.3 Q-9.6 -50.3 -16.35 -43.55 L-16.35 -43.5 -23.85 -51.0 -9.7 -63.25" fill="#cc6600" fill-rule="evenodd" stroke="none"/>
    <path d="M-52.55 -19.4 Q-50.0 -33.0 -42.6 -44.6 L-38.55 -42.6 -44.75 -15.55 -52.55 -19.4" fill="url(#gradient33)" fill-rule="evenodd" stroke="none"/>
    <path d="M-53.95 1.65 L-53.95 -2.0 -54.0 -4.0 Q-54.0 -12.0 -52.55 -19.4 L-44.75 -15.55 -38.55 11.45 -53.95 1.65" fill="url(#gradient34)" fill-rule="evenodd" stroke="none"/>
    <path d="M-22.1 -34.3 Q-20.45 -39.45 -16.35 -43.5 L-5.45 -32.6 Q-7.75 -30.35 -7.7 -27.15 L-23.15 -27.15 Q-23.15 -30.95 -22.1 -34.3" fill="url(#gradient35)" fill-rule="evenodd" stroke="none"/>
    <path d="M-30.55 -38.55 L-22.1 -34.3 Q-23.15 -30.95 -23.15 -27.15 -23.15 -23.35 -22.05 -19.95 L-36.3 -17.15 -44.75 -15.55 -38.55 -42.6 -30.55 -38.55" fill="url(#gradient36)" fill-rule="evenodd" stroke="none"/>
    <path d="M-36.3 -17.15 L-23.15 -4.0 -28.3 1.15 -38.55 11.45 -44.75 -15.55 -36.3 -17.15" fill="url(#gradient37)" fill-rule="evenodd" stroke="none"/>
    <path d="M-23.15 -4.0 L-36.3 -17.15 -22.05 -19.95 Q-20.45 -14.85 -16.35 -10.8 L-23.15 -4.0" fill="url(#gradient38)" fill-rule="evenodd" stroke="none"/>
    <path d="M-28.3 1.15 L-23.15 -4.0 -16.35 -10.8 Q-10.95 -5.4 -3.75 -4.3 L-7.7 11.45 -28.3 1.15" fill="url(#gradient39)" fill-rule="evenodd" stroke="none"/>
    <path d="M-16.35 -10.8 Q-20.45 -14.85 -22.05 -19.95 -23.15 -23.35 -23.15 -27.15 L-7.7 -27.15 Q-7.75 -23.95 -5.45 -21.7 L-16.35 -10.8" fill="url(#gradient40)" fill-rule="evenodd" stroke="none"/>
    <path d="M-38.55 11.45 L-28.3 1.15 -7.7 11.45 -23.15 30.75 -38.55 11.45" fill="url(#gradient41)" fill-rule="evenodd" stroke="none"/>
    <path d="M-28.15 57.75 L-54.0 57.75 -38.55 42.35 -23.15 46.15 -28.15 57.75" fill="url(#gradient42)" fill-rule="evenodd" stroke="none"/>
    <path d="M-38.55 42.35 L-23.15 30.75 -8.7 48.75 -7.7 50.05 -23.15 46.15 -38.55 42.35" fill="url(#gradient43)" fill-rule="evenodd" stroke="none"/>
    <path d="M0.0 26.9 L-7.65 49.85 -8.7 48.75 -23.15 30.75 0.0 26.9" fill="url(#gradient44)" fill-rule="evenodd" stroke="none"/>
    <path d="M-23.15 30.75 L-38.55 42.35 -53.95 19.2 -53.95 19.15 -38.55 11.45 -23.15 30.75" fill="url(#gradient45)" fill-rule="evenodd" stroke="none"/>
    <path d="M-23.15 30.75 L-7.7 11.45 0.0 26.9 -23.15 30.75" fill="url(#gradient46)" fill-rule="evenodd" stroke="none"/>
    <path d="M-53.95 19.15 L-53.95 1.65 -38.55 11.45 -53.95 19.15" fill="url(#gradient47)" fill-rule="evenodd" stroke="none"/>
    <path d="M0.0 57.75 L-28.15 57.75 -23.15 46.15 -7.7 50.05 -7.6 49.95 0.0 57.75" fill="url(#gradient48)" fill-rule="evenodd" stroke="none"/>
    <path d="M-54.0 57.75 L-53.95 19.2 -38.55 42.35 -54.0 57.75" fill="url(#gradient49)" fill-rule="evenodd" stroke="none"/>
    <path d="M9.75 -63.25 L12.6 -67.1 -12.6 -67.1 -9.7 -63.25 0.0 -50.3 9.75 -63.25 23.9 -51.0 25.7 -52.85 31.4 -58.55 M15.5 -70.95 L12.6 -67.1 M-15.5 -70.95 L-12.6 -67.1 M30.55 -38.55 L38.6 -42.6 42.65 -44.6 M22.1 -34.3 L30.55 -38.55 25.7 -52.85 M23.15 -27.15 Q23.15 -30.95 22.1 -34.3 20.45 -39.45 16.35 -43.5 L5.45 -32.6 Q7.7 -30.35 7.75 -27.15 L23.15 -27.15 Q23.15 -23.35 22.05 -19.95 L36.35 -17.15 44.75 -15.55 38.6 -42.6 M16.35 -43.5 L16.35 -43.55 Q9.6 -50.3 0.0 -50.3 L0.0 -34.85 Q3.2 -34.85 5.45 -32.6 M5.45 -21.7 Q3.2 -19.4 0.0 -19.4 L0.0 -4.0 3.8 -4.3 Q10.95 -5.4 16.35 -10.8 L5.45 -21.7 Q7.7 -23.95 7.75 -27.15 M23.15 -4.0 L36.35 -17.15 M16.35 -10.8 L23.15 -4.0 28.3 1.15 38.6 11.45 44.75 -15.55 52.55 -19.4 M22.05 -19.95 Q20.45 -14.85 16.35 -10.8 M23.9 -51.0 L16.35 -43.5 M54.0 1.6 L38.6 11.45 54.0 19.15 38.6 42.35 23.15 30.75 8.7 48.75 7.75 50.05 23.15 46.15 28.15 57.75 M-53.95 19.2 L-54.0 19.15 -53.95 19.15 -38.55 11.45 -28.3 1.15 -23.15 -4.0 -16.35 -10.8 Q-20.45 -14.85 -22.05 -19.95 L-36.3 -17.15 -44.75 -15.55 -38.55 11.45 -53.95 1.65 M23.15 46.15 L38.6 42.35 54.0 57.75 M7.75 11.45 L0.0 26.9 23.15 30.75 7.75 11.45 3.8 -4.3 M23.15 30.75 L38.6 11.45 M28.3 1.15 L7.75 11.45 M7.65 49.85 L7.6 49.95 0.0 57.75 -7.6 49.95 -7.65 49.85 -8.7 48.75 -23.15 30.75 -38.55 11.45 M7.75 50.05 L7.65 49.85 0.0 26.9 -7.65 49.85 -7.7 50.05 -8.7 48.75 M8.7 48.75 L7.65 49.85 M-23.85 -51.0 L-9.7 -63.25 M-25.7 -52.85 L-23.85 -51.0 -16.35 -43.5 -16.35 -43.55 Q-9.6 -50.3 0.0 -50.3 M-31.4 -58.55 L-25.7 -52.85 -30.55 -38.55 -22.1 -34.3 Q-20.45 -39.45 -16.35 -43.5 L-5.45 -32.6 Q-3.2 -34.85 0.0 -34.85 M-52.55 -19.4 L-44.75 -15.55 -38.55 -42.6 -42.6 -44.6 M-7.7 -27.15 Q-7.75 -30.35 -5.45 -32.6 M-30.55 -38.55 L-38.55 -42.6 M-23.15 -27.15 Q-23.15 -30.95 -22.1 -34.3 M-23.15 -4.0 L-36.3 -17.15 M-16.35 -10.8 L-5.45 -21.7 Q-7.75 -23.95 -7.7 -27.15 L-23.15 -27.15 Q-23.15 -23.35 -22.05 -19.95 M-3.75 -4.3 Q-10.95 -5.4 -16.35 -10.8 M-7.7 11.45 L-23.15 30.75 0.0 26.9 -7.7 11.45 -28.3 1.15 M-23.15 30.75 L-38.55 42.35 -23.15 46.15 -7.7 50.05 M-53.95 19.2 L-38.55 42.35 -54.0 57.75 M-23.15 46.15 L-28.15 57.75 M-3.75 -4.3 L-7.7 11.45 M0.0 -19.4 Q-3.2 -19.4 -5.45 -21.7 M0.0 -4.0 L-3.75 -4.3" fill="none" stroke="#ffffff" stroke-linecap="round" stroke-linejoin="round" stroke-opacity="0.3019608" stroke-width="6.0"/>
    <path d="M31.4 -58.55 Q23.95 -66.0 15.5 -70.95 8.15 -75.35 0.0 -77.8 -8.15 -75.35 -15.5 -70.95 -23.95 -66.0 -31.4 -58.55 -37.95 -52.0 -42.6 -44.6 -50.0 -33.0 -52.55 -19.4 -54.0 -12.0 -54.0 -4.0 L-53.95 -2.0 -53.95 1.65 -53.95 19.15 -53.95 19.2 -54.0 57.75 -28.15 57.75 0.0 57.75 28.15 57.75 54.0 57.75 54.0 19.15 54.0 1.6 54.0 -4.0 Q54.0 -12.0 52.55 -19.4 49.95 -33.0 42.65 -44.6 37.95 -52.0 31.4 -58.55 Z" fill="none" stroke="#ffffff" stroke-linecap="round" stroke-linejoin="round" stroke-opacity="0.2" stroke-width="8.0"/>
    <path d="M31.4 -58.55 Q37.95 -52.0 42.65 -44.6 49.95 -33.0 52.55 -19.4 54.0 -12.0 54.0 -4.0 L54.0 57.75 -54.0 57.75 -54.0 -2.0 -54.0 -4.0 Q-54.05 -12.0 -52.6 -19.4 -50.0 -33.0 -42.65 -44.6 -38.0 -52.0 -31.4 -58.55 -24.0 -66.0 -15.5 -71.0 -8.15 -75.35 0.0 -77.85 8.1 -75.35 15.5 -71.0 23.95 -66.0 31.4 -58.55 Z" fill="none" stroke="#000000" stroke-linecap="round" stroke-linejoin="round" stroke-width="4.0"/>
    <path d="M15.5 -70.95 L12.6 -67.1 9.75 -63.25 23.9 -51.0 25.7 -52.85 31.4 -58.55 M12.6 -67.1 L-12.6 -67.1 -9.7 -63.25 0.0 -50.3 9.75 -63.25 M22.1 -34.3 Q20.45 -39.45 16.35 -43.5 L5.45 -32.6 Q7.7 -30.35 7.75 -27.15 L23.15 -27.15 Q23.15 -30.95 22.1 -34.3 L30.55 -38.55 25.7 -52.85 M30.55 -38.55 L38.6 -42.6 42.65 -44.6 M16.35 -43.5 L16.35 -43.55 Q9.6 -50.3 0.0 -50.3 L0.0 -34.85 Q3.2 -34.85 5.45 -32.6 M0.0 -34.85 Q-3.2 -34.85 -5.45 -32.6 -7.75 -30.35 -7.7 -27.15 -7.75 -23.95 -5.45 -21.7 -3.2 -19.4 0.0 -19.4 3.2 -19.4 5.45 -21.7 7.7 -23.95 7.75 -27.15 M5.45 -21.7 L16.35 -10.8 Q20.45 -14.85 22.05 -19.95 23.15 -23.35 23.15 -27.15 M3.8 -4.3 L7.75 11.45 28.3 1.15 23.15 -4.0 16.35 -10.8 Q10.95 -5.4 3.8 -4.3 L0.0 -4.0 -3.75 -4.3 -7.7 11.45 0.0 26.9 7.75 11.45 23.15 30.75 38.6 11.45 28.3 1.15 M0.0 -4.0 L0.0 -19.4 M38.6 11.45 L44.75 -15.55 36.35 -17.15 23.15 -4.0 M22.05 -19.95 L36.35 -17.15 M38.6 -42.6 L44.75 -15.55 52.55 -19.4 M23.9 -51.0 L16.35 -43.5 M23.15 30.75 L8.7 48.75 7.75 50.05 23.15 46.15 38.6 42.35 23.15 30.75 0.0 26.9 7.65 49.85 8.7 48.75 M7.75 50.05 L7.65 49.85 0.0 57.75 -7.65 49.85 -7.7 50.05 -23.15 46.15 -28.15 57.75 M54.0 1.6 L38.6 11.45 54.0 19.15 38.6 42.35 54.0 57.75 M28.15 57.75 L23.15 46.15 M-31.4 -58.55 L-25.7 -52.85 -23.85 -51.0 -9.7 -63.25 M-15.5 -70.95 L-12.6 -67.1 M-52.55 -19.4 L-44.75 -15.55 -38.55 -42.6 -42.6 -44.6 M-23.85 -51.0 L-16.35 -43.5 -16.35 -43.55 Q-9.6 -50.3 0.0 -50.3 M-5.45 -32.6 L-16.35 -43.5 Q-20.45 -39.45 -22.1 -34.3 -23.15 -30.95 -23.15 -27.15 L-7.7 -27.15 M-22.1 -34.3 L-30.55 -38.55 -38.55 -42.6 M-36.3 -17.15 L-44.75 -15.55 -38.55 11.45 -28.3 1.15 -23.15 -4.0 -36.3 -17.15 -22.05 -19.95 Q-23.15 -23.35 -23.15 -27.15 M-5.45 -21.7 L-16.35 -10.8 Q-10.95 -5.4 -3.75 -4.3 M-22.05 -19.95 Q-20.45 -14.85 -16.35 -10.8 L-23.15 -4.0 M-30.55 -38.55 L-25.7 -52.85 M-7.7 50.05 L-8.7 48.75 -23.15 30.75 -38.55 42.35 -23.15 46.15 M-38.55 11.45 L-23.15 30.75 -7.7 11.45 -28.3 1.15 M-54.0 57.75 L-38.55 42.35 -53.95 19.2 -54.0 19.15 -53.95 19.15 -38.55 11.45 -53.95 1.65 M-8.7 48.75 L-7.65 49.85 0.0 26.9 -23.15 30.75" fill="none" stroke="#000000" stroke-linecap="round" stroke-linejoin="round" stroke-width="2.0"/>
    <path d="M31.4 -58.55 Q37.95 -52.0 42.65 -44.6 49.95 -33.0 52.55 -19.4 54.0 -12.0 54.0 -4.0 L54.0 57.75 -54.0 57.75 -54.0 -2.0 -54.0 -4.0 Q-54.05 -12.0 -52.6 -19.4 -50.0 -33.0 -42.65 -44.6 -38.0 -52.0 -31.4 -58.55 -24.0 -66.0 -15.5 -71.0 -8.15 -75.35 0.0 -77.85 8.1 -75.35 15.5 -71.0 23.95 -66.0 31.4 -58.55" fill="url(#gradient50)" fill-rule="evenodd" stroke="none"/>
  </g>
  <defs>
    <radialGradient cx="0" cy="0" gradientTransform="matrix(0.014, 0.0, 0.0, 0.014, 33.15, -47.2)" gradientUnits="userSpaceOnUse" id="gradient0" r="819.2" spreadMethod="pad">
      <stop offset="0.01568627450980392" stop-color="#0f0fe8"/>
      <stop offset="1.0" stop-color="#24246c"/>
    </radialGradient>
    <radialGradient cx="0" cy="0" gradientTransform="matrix(0.0164, 0.0, 0.0, 0.0164, 18.15, -60.75)" gradientUnits="userSpaceOnUse" id="gradient1" r="819.2" spreadMethod="pad">
      <stop offset="0.01568627450980392" stop-color="#02db43"/>
      <stop offset="1.0" stop-color="#339933"/>
    </radialGradient>
    <radialGradient cx="0" cy="0" gradientTransform="matrix(0.0161, 0.0, 0.0, 0.0161, 12.75, -53.75)" gradientUnits="userSpaceOnUse" id="gradient2" r="819.2" spreadMethod="pad">
      <stop offset="0.01568627450980392" stop-color="#6f70f7"/>
      <stop offset="1.0" stop-color="#3e3eb9"/>
    </radialGradient>
    <radialGradient cx="0" cy="0" gradientTransform="matrix(0.0173, 0.0, 0.0, 0.0173, 0.0, -60.75)" gradientUnits="userSpaceOnUse" id="gradient3" r="819.2" spreadMethod="pad">
      <stop offset="0.01568627450980392" stop-color="#0f0fe8"/>
      <stop offset="1.0" stop-color="#24246c"/>
    </radialGradient>
    <radialGradient cx="0" cy="0" gradientTransform="matrix(0.0143, 0.0, 0.0, 0.0143, 23.15, -41.4)" gradientUnits="userSpaceOnUse" id="gradient4" r="819.2" spreadMethod="pad">
      <stop offset="0.01568627450980392" stop-color="#bf40bf"/>
      <stop offset="1.0" stop-color="#662266"/>
    </radialGradient>
    <radialGradient cx="0" cy="0" gradientTransform="matrix(0.0218, 0.0, 0.0, 0.0218, -2.35, -71.1)" gradientUnits="userSpaceOnUse" id="gradient5" r="819.2" spreadMethod="pad">
      <stop offset="0.01568627450980392" stop-color="#bf40bf"/>
      <stop offset="1.0" stop-color="#662266"/>
    </radialGradient>
    <radialGradient cx="0" cy="0" gradientTransform="matrix(0.022, 0.0, 0.0, 0.022, 31.25, -27.5)" gradientUnits="userSpaceOnUse" id="gradient6" r="819.2" spreadMethod="pad">
      <stop offset="0.01568627450980392" stop-color="#e37302"/>
      <stop offset="1.0" stop-color="#a05001"/>
    </radialGradient>
    <radialGradient cx="0" cy="0" gradientTransform="matrix(0.0131, 0.0, 0.0, 0.0131, 14.65, -33.7)" gradientUnits="userSpaceOnUse" id="gradient7" r="819.2" spreadMethod="pad">
      <stop offset="0.01568627450980392" stop-color="#e3cc02"/>
      <stop offset="1.0" stop-color="#c09a03"/>
    </radialGradient>
    <radialGradient cx="0" cy="0" gradientTransform="matrix(0.0154, 0.0, 0.0, 0.0155, 6.55, -39.5)" gradientUnits="userSpaceOnUse" id="gradient8" r="819.2" spreadMethod="pad">
      <stop offset="0.0" stop-color="#c5c5cb"/>
      <stop offset="1.0" stop-color="#737384"/>
    </radialGradient>
    <radialGradient cx="0" cy="0" gradientTransform="matrix(0.0107, 0.0, 0.0, 0.0107, 0.75, -27.9)" gradientUnits="userSpaceOnUse" id="gradient9" r="819.2" spreadMethod="pad">
      <stop offset="0.01568627450980392" stop-color="#e37302"/>
      <stop offset="1.0" stop-color="#a05001"/>
    </radialGradient>
    <radialGradient cx="0" cy="0" gradientTransform="matrix(0.0152, 0.0, 0.0, 0.0152, 5.0, -15.2)" gradientUnits="userSpaceOnUse" id="gradient10" r="819.2" spreadMethod="pad">
      <stop offset="0.01568627450980392" stop-color="#e3cc02"/>
      <stop offset="1.0" stop-color="#c09a03"/>
    </radialGradient>
    <radialGradient cx="0" cy="0" gradientTransform="matrix(0.0134, 0.0, 0.0, 0.0134, -7.75, -11.7)" gradientUnits="userSpaceOnUse" id="gradient11" r="819.2" spreadMethod="pad">
      <stop offset="0.0" stop-color="#c5c5cb"/>
      <stop offset="1.0" stop-color="#737384"/>
    </radialGradient>
    <radialGradient cx="0" cy="0" gradientTransform="matrix(0.0202, 0.0, 0.0, 0.0203, 1.55, 11.45)" gradientUnits="userSpaceOnUse" id="gradient12" r="819.2" spreadMethod="pad">
      <stop offset="0.01568627450980392" stop-color="#bf40bf"/>
      <stop offset="1.0" stop-color="#662266"/>
    </radialGradient>
    <radialGradient cx="0" cy="0" gradientTransform="matrix(0.013, 0.0, 0.0, 0.013, 15.05, -21.35)" gradientUnits="userSpaceOnUse" id="gradient13" r="819.2" spreadMethod="pad">
      <stop offset="0.0" stop-color="#c5c5cb"/>
      <stop offset="1.0" stop-color="#737384"/>
    </radialGradient>
    <radialGradient cx="0" cy="0" gradientTransform="matrix(0.0191, 0.0, 0.0, 0.0191, 12.75, 2.55)" gradientUnits="userSpaceOnUse" id="gradient14" r="819.2" spreadMethod="pad">
      <stop offset="0.01568627450980392" stop-color="#6f70f7"/>
      <stop offset="1.0" stop-color="#3e3eb9"/>
    </radialGradient>
    <radialGradient cx="0" cy="0" gradientTransform="matrix(0.0143, 0.0, 0.0, 0.0143, 25.45, -12.9)" gradientUnits="userSpaceOnUse" id="gradient15" r="819.2" spreadMethod="pad">
      <stop offset="0.0" stop-color="#61626b"/>
      <stop offset="1.0" stop-color="#27282e"/>
    </radialGradient>
    <radialGradient cx="0" cy="0" gradientTransform="matrix(0.0198, 0.0, 0.0, 0.0198, 33.55, -3.95)" gradientUnits="userSpaceOnUse" id="gradient16" r="819.2" spreadMethod="pad">
      <stop offset="0.01568627450980392" stop-color="#02db43"/>
      <stop offset="1.0" stop-color="#339933"/>
    </radialGradient>
    <radialGradient cx="0" cy="0" gradientTransform="matrix(0.0181, 0.0, 0.0, 0.0181, 43.95, -29.85)" gradientUnits="userSpaceOnUse" id="gradient17" r="819.2" spreadMethod="pad">
      <stop offset="0.0" stop-color="#61626b"/>
      <stop offset="1.0" stop-color="#27282e"/>
    </radialGradient>
    <radialGradient cx="0" cy="0" gradientTransform="matrix(0.0236, 0.0, 0.0, 0.0237, 49.75, -4.4)" gradientUnits="userSpaceOnUse" id="gradient18" r="819.2" spreadMethod="pad">
      <stop offset="0.01568627450980392" stop-color="#6f70f7"/>
      <stop offset="1.0" stop-color="#3e3eb9"/>
    </radialGradient>
    <radialGradient cx="0" cy="0" gradientTransform="matrix(0.0153, 0.0, 0.0, 0.0153, -5.05, -40.25)" gradientUnits="userSpaceOnUse" id="gradient19" r="819.2" spreadMethod="pad">
      <stop offset="0.01568627450980392" stop-color="#e3cc02"/>
      <stop offset="1.0" stop-color="#c09a03"/>
    </radialGradient>
    <radialGradient cx="0" cy="0" gradientTransform="matrix(0.0139, 0.0, 0.0, 0.0139, 48.2, 11.45)" gradientUnits="userSpaceOnUse" id="gradient20" r="819.2" spreadMethod="pad">
      <stop offset="0.01568627450980392" stop-color="#cc9900"/>
      <stop offset="1.0" stop-color="#ba6f02"/>
    </radialGradient>
    <radialGradient cx="0" cy="0" gradientTransform="matrix(0.0235, 0.0, 0.0, 0.0236, 23.15, 11.45)" gradientUnits="userSpaceOnUse" id="gradient21" r="819.2" spreadMethod="pad">
      <stop offset="0.01568627450980392" stop-color="#e3cc02"/>
      <stop offset="1.0" stop-color="#c09a03"/>
    </radialGradient>
    <radialGradient cx="0" cy="0" gradientTransform="matrix(0.0223, 0.0, 0.0, 0.0223, 22.75, 39.6)" gradientUnits="userSpaceOnUse" id="gradient22" r="819.2" spreadMethod="pad">
      <stop offset="0.0" stop-color="#c5c5cb"/>
      <stop offset="1.0" stop-color="#737384"/>
    </radialGradient>
    <radialGradient cx="0" cy="0" gradientTransform="matrix(0.0256, 0.0, 0.0, 0.0256, 33.95, 51.55)" gradientUnits="userSpaceOnUse" id="gradient23" r="819.2" spreadMethod="pad">
      <stop offset="0.01568627450980392" stop-color="#cc9900"/>
      <stop offset="1.0" stop-color="#ba6f02"/>
    </radialGradient>
    <radialGradient cx="0" cy="0" gradientTransform="matrix(0.0228, 0.0, 0.0, 0.0228, 36.65, 26.1)" gradientUnits="userSpaceOnUse" id="gradient24" r="819.2" spreadMethod="pad">
      <stop offset="0.01568627450980392" stop-color="#0f0fe8"/>
      <stop offset="1.0" stop-color="#24246c"/>
    </radialGradient>
    <radialGradient cx="0" cy="0" gradientTransform="matrix(0.0219, 0.0, 0.0, 0.0219, 7.7, 21.45)" gradientUnits="userSpaceOnUse" id="gradient25" r="819.2" spreadMethod="pad">
      <stop offset="0.0" stop-color="#61626b"/>
      <stop offset="1.0" stop-color="#27282e"/>
    </radialGradient>
    <radialGradient cx="0" cy="0" gradientTransform="matrix(0.0195, 0.0, 0.0, 0.0195, 7.7, 35.0)" gradientUnits="userSpaceOnUse" id="gradient26" r="819.2" spreadMethod="pad">
      <stop offset="0.01568627450980392" stop-color="#0f0fe8"/>
      <stop offset="1.0" stop-color="#24246c"/>
    </radialGradient>
    <radialGradient cx="0" cy="0" gradientTransform="matrix(0.0211, 0.0, 0.0, 0.0211, 16.55, 52.75)" gradientUnits="userSpaceOnUse" id="gradient27" r="819.2" spreadMethod="pad">
      <stop offset="0.0" stop-color="#61626b"/>
      <stop offset="1.0" stop-color="#27282e"/>
    </radialGradient>
    <radialGradient cx="0" cy="0" gradientTransform="matrix(0.0268, 0.0, 0.0, 0.0269, 0.0, 48.85)" gradientUnits="userSpaceOnUse" id="gradient28" r="819.2" spreadMethod="pad">
      <stop offset="0.01568627450980392" stop-color="#02db43"/>
      <stop offset="1.0" stop-color="#339933"/>
    </radialGradient>
    <radialGradient cx="0" cy="0" gradientTransform="matrix(0.0255, 0.0, 0.0, 0.0255, 48.2, 37.7)" gradientUnits="userSpaceOnUse" id="gradient29" r="819.2" spreadMethod="pad">
      <stop offset="0.01568627450980392" stop-color="#bf40bf"/>
      <stop offset="1.0" stop-color="#662266"/>
    </radialGradient>
    <radialGradient cx="0" cy="0" gradientTransform="matrix(0.0151, 0.0, 0.0, 0.0151, -19.3, -61.1)" gradientUnits="userSpaceOnUse" id="gradient30" r="819.2" spreadMethod="pad">
      <stop offset="0.01568627450980392" stop-color="#0f0fe8"/>
      <stop offset="1.0" stop-color="#24246c"/>
    </radialGradient>
    <radialGradient cx="0" cy="0" gradientTransform="matrix(0.0171, 0.0, 0.0, 0.0171, -34.75, -44.9)" gradientUnits="userSpaceOnUse" id="gradient31" r="819.2" spreadMethod="pad">
      <stop offset="0.01568627450980392" stop-color="#bf40bf"/>
      <stop offset="1.0" stop-color="#662266"/>
    </radialGradient>
    <radialGradient cx="0" cy="0" gradientTransform="matrix(0.0122, 0.0, 0.0, 0.0123, -23.95, -42.95)" gradientUnits="userSpaceOnUse" id="gradient32" r="819.2" spreadMethod="pad">
      <stop offset="0.0" stop-color="#61626b"/>
      <stop offset="1.0" stop-color="#27282e"/>
    </radialGradient>
    <radialGradient cx="0" cy="0" gradientTransform="matrix(0.0245, 0.0, 0.0, 0.0245, -47.85, -25.2)" gradientUnits="userSpaceOnUse" id="gradient33" r="819.2" spreadMethod="pad">
      <stop offset="0.01568627450980392" stop-color="#cc9900"/>
      <stop offset="1.0" stop-color="#ba6f02"/>
    </radialGradient>
    <radialGradient cx="0" cy="0" gradientTransform="matrix(0.0267, 0.0, 0.0, 0.0267, -47.45, 1.8)" gradientUnits="userSpaceOnUse" id="gradient34" r="819.2" spreadMethod="pad">
      <stop offset="0.01568627450980392" stop-color="#02db43"/>
      <stop offset="1.0" stop-color="#339933"/>
    </radialGradient>
    <radialGradient cx="0" cy="0" gradientTransform="matrix(0.0132, 0.0, 0.0, 0.0132, -14.25, -33.3)" gradientUnits="userSpaceOnUse" id="gradient35" r="819.2" spreadMethod="pad">
      <stop offset="0.0" stop-color="#c5c5cb"/>
      <stop offset="1.0" stop-color="#737384"/>
    </radialGradient>
    <radialGradient cx="0" cy="0" gradientTransform="matrix(0.0218, 0.0, 0.0, 0.0218, -32.05, -26.0)" gradientUnits="userSpaceOnUse" id="gradient36" r="819.2" spreadMethod="pad">
      <stop offset="0.01568627450980392" stop-color="#6f70f7"/>
      <stop offset="1.0" stop-color="#3e3eb9"/>
    </radialGradient>
    <radialGradient cx="0" cy="0" gradientTransform="matrix(0.0195, 0.0, 0.0, 0.0195, -34.35, -3.95)" gradientUnits="userSpaceOnUse" id="gradient37" r="819.2" spreadMethod="pad">
      <stop offset="0.0" stop-color="#61626b"/>
      <stop offset="1.0" stop-color="#27282e"/>
    </radialGradient>
    <radialGradient cx="0" cy="0" gradientTransform="matrix(0.014, 0.0, 0.0, 0.014, -26.25, -11.7)" gradientUnits="userSpaceOnUse" id="gradient38" r="819.2" spreadMethod="pad">
      <stop offset="0.01568627450980392" stop-color="#bf40bf"/>
      <stop offset="1.0" stop-color="#662266"/>
    </radialGradient>
    <radialGradient cx="0" cy="0" gradientTransform="matrix(0.0169, 0.0, 0.0, 0.0169, -14.65, 2.95)" gradientUnits="userSpaceOnUse" id="gradient39" r="819.2" spreadMethod="pad">
      <stop offset="0.01568627450980392" stop-color="#0f0fe8"/>
      <stop offset="1.0" stop-color="#24246c"/>
    </radialGradient>
    <radialGradient cx="0" cy="0" gradientTransform="matrix(0.0137, 0.0, 0.0, 0.0137, -13.9, -21.75)" gradientUnits="userSpaceOnUse" id="gradient40" r="819.2" spreadMethod="pad">
      <stop offset="0.01568627450980392" stop-color="#e3cc02"/>
      <stop offset="1.0" stop-color="#c09a03"/>
    </radialGradient>
    <radialGradient cx="0" cy="0" gradientTransform="matrix(0.0202, 0.0, 0.0, 0.0203, -23.15, 14.15)" gradientUnits="userSpaceOnUse" id="gradient41" r="819.2" spreadMethod="pad">
      <stop offset="0.01568627450980392" stop-color="#cc9900"/>
      <stop offset="1.0" stop-color="#ba6f02"/>
    </radialGradient>
    <radialGradient cx="0" cy="0" gradientTransform="matrix(0.0205, 0.0, 0.0, 0.0205, -38.55, 51.2)" gradientUnits="userSpaceOnUse" id="gradient42" r="819.2" spreadMethod="pad">
      <stop offset="0.01568627450980392" stop-color="#6f70f7"/>
      <stop offset="1.0" stop-color="#3e3eb9"/>
    </radialGradient>
    <radialGradient cx="0" cy="0" gradientTransform="matrix(0.0211, 0.0, 0.0, 0.0211, -23.15, 42.3)" gradientUnits="userSpaceOnUse" id="gradient43" r="819.2" spreadMethod="pad">
      <stop offset="0.0" stop-color="#61626b"/>
      <stop offset="1.0" stop-color="#27282e"/>
    </radialGradient>
    <radialGradient cx="0" cy="0" gradientTransform="matrix(0.0194, 0.0, 0.0, 0.0194, -10.45, 34.2)" gradientUnits="userSpaceOnUse" id="gradient44" r="819.2" spreadMethod="pad">
      <stop offset="0.01568627450980392" stop-color="#bf40bf"/>
      <stop offset="1.0" stop-color="#662266"/>
    </radialGradient>
    <radialGradient cx="0" cy="0" gradientTransform="matrix(0.0204, 0.0, 0.0, 0.0204, -38.95, 26.5)" gradientUnits="userSpaceOnUse" id="gradient45" r="819.2" spreadMethod="pad">
      <stop offset="0.0" stop-color="#c5c5cb"/>
      <stop offset="1.0" stop-color="#737384"/>
    </radialGradient>
    <radialGradient cx="0" cy="0" gradientTransform="matrix(0.024, 0.0, 0.0, 0.024, -5.8, 21.45)" gradientUnits="userSpaceOnUse" id="gradient46" r="819.2" spreadMethod="pad">
      <stop offset="0.0" stop-color="#c5c5cb"/>
      <stop offset="1.0" stop-color="#737384"/>
    </radialGradient>
    <radialGradient cx="0" cy="0" gradientTransform="matrix(0.0146, 0.0, 0.0, 0.0146, -50.55, 10.3)" gradientUnits="userSpaceOnUse" id="gradient47" r="819.2" spreadMethod="pad">
      <stop offset="0.01568627450980392" stop-color="#cc9900"/>
      <stop offset="1.0" stop-color="#ba6f02"/>
    </radialGradient>
    <radialGradient cx="0" cy="0" gradientTransform="matrix(0.0221, 0.0, 0.0, 0.0221, -18.15, 57.75)" gradientUnits="userSpaceOnUse" id="gradient48" r="819.2" spreadMethod="pad">
      <stop offset="0.01568627450980392" stop-color="#cc9900"/>
      <stop offset="1.0" stop-color="#ba6f02"/>
    </radialGradient>
    <radialGradient cx="0" cy="0" gradientTransform="matrix(0.0284, 0.0, 0.0, 0.0284, -46.3, 41.15)" gradientUnits="userSpaceOnUse" id="gradient49" r="819.2" spreadMethod="pad">
      <stop offset="0.01568627450980392" stop-color="#bf40bf"/>
      <stop offset="1.0" stop-color="#662266"/>
    </radialGradient>
    <radialGradient cx="0" cy="0" gradientTransform="matrix(0.1207, 0.0, 0.0, 0.1207, -12.95, -15.0)" gradientUnits="userSpaceOnUse" id="gradient50" r="819.2" spreadMethod="pad">
      <stop offset="0.20392156862745098" stop-color="#000000" stop-opacity="0.0"/>
      <stop offset="1.0" stop-color="#000000" stop-opacity="0.53333336"/>
    </radialGradient>
  </defs>
</svg>
