<?xml version="1.0" encoding="UTF-8" standalone="no"?>
<svg xmlns:ffdec="https://www.free-decompiler.com/flash" xmlns:xlink="http://www.w3.org/1999/xlink" ffdec:objectType="shape" height="60.0px" width="120.0px" xmlns="http://www.w3.org/2000/svg">
  <g transform="matrix(1.0, 0.0, 0.0, 1.0, 60.0, 30.0)">
    <path d="M-30.85 -7.5 Q-20.95 -16.15 -12.8 -26.15 L-10.8 -28.55 Q-9.95 -29.55 -8.75 -29.8 -5.45 -30.6 -3.6 -27.9 0.05 -28.4 3.4 -26.85 L4.65 -25.95 Q6.85 -23.55 5.65 -20.5 4.4 -17.35 0.95 -17.35 -2.9 -16.95 -5.3 -14.15 L-7.95 -14.05 Q-8.15 -15.15 -7.2 -16.05 -5.5 -17.8 -3.2 -18.8 L-0.55 -19.45 Q1.3 -19.4 2.8 -20.5 3.8 -21.25 3.9 -22.45 L3.55 -24.05 3.5 -24.1 2.65 -24.75 0.5 -25.15 -5.25 -25.45 -6.35 -27.2 Q-8.1 -28.05 -9.5 -26.65 -10.1 -26.05 -10.4 -25.1 -11.15 -22.8 -12.85 -20.95 -18.25 -15.1 -24.45 -9.9 L-32.9 -2.8 Q-36.9 0.6 -41.75 2.8 L-46.95 5.45 Q-47.9 5.95 -48.45 7.0 L-47.95 7.75 -45.25 8.9 -46.5 10.55 -47.8 10.5 Q-50.55 10.05 -50.75 7.4 -50.95 5.45 -49.45 4.4 -47.75 3.2 -45.7 2.5 -42.05 1.05 -38.75 -1.05 L-36.55 -2.55 -36.4 -2.7 -34.6 -4.2 -32.65 -5.85 -30.85 -7.5" fill="url(#gradient0)" fill-rule="evenodd" stroke="none"/>
    <path d="M-45.25 8.9 L-47.95 7.75 -48.45 7.0 Q-47.9 5.95 -46.95 5.45 L-41.75 2.8 Q-36.9 0.6 -32.9 -2.8 L-24.45 -9.9 Q-18.25 -15.1 -12.85 -20.95 -11.15 -22.8 -10.4 -25.1 -10.1 -26.05 -9.5 -26.65 -8.1 -28.05 -6.35 -27.2 L-5.25 -25.45 0.5 -25.15 2.65 -24.75 3.5 -24.1 2.5 -24.3 Q1.35 -24.3 1.05 -23.35 L0.35 -22.0 Q-0.75 -21.25 -2.8 -20.65 -6.6 -19.95 -7.4 -19.3 -8.1 -18.65 -8.3 -17.75 -8.5 -16.75 -8.8 -16.35 L-10.4 -14.7 -11.0 -13.75 Q-20.1 -12.45 -25.75 -6.9 -28.3 -4.4 -29.7 -1.45 -30.75 0.65 -30.8 1.85 L-31.65 1.8 -32.45 1.6 Q-39.3 1.55 -45.25 8.9" fill="url(#gradient1)" fill-rule="evenodd" stroke="none"/>
    <path d="M3.5 -24.1 L3.55 -24.05 3.9 -22.45 Q3.8 -21.25 2.8 -20.5 1.3 -19.4 -0.55 -19.45 L-3.2 -18.8 Q-5.5 -17.8 -7.2 -16.05 -8.15 -15.15 -7.95 -14.05 L-8.3 -14.0 -8.85 -13.95 -9.95 -13.85 -11.0 -13.7 -11.0 -13.75 -10.4 -14.7 -8.8 -16.35 Q-8.5 -16.75 -8.3 -17.75 -8.1 -18.65 -7.4 -19.3 -6.6 -19.95 -2.8 -20.65 -0.75 -21.25 0.35 -22.0 L1.05 -23.35 Q1.35 -24.3 2.5 -24.3 L3.5 -24.1" fill="#e6e6e6" fill-rule="evenodd" stroke="none"/>
    <path d="M-7.95 -14.05 L-5.3 -14.15 Q-1.8 -14.25 1.3 -12.9 4.7 -11.4 7.15 -8.65 L11.4 -3.2 Q12.35 -1.75 12.8 -0.1 13.7 3.4 13.75 7.0 13.75 10.4 12.15 13.5 L10.8 16.1 10.4 16.8 11.05 18.7 11.3 19.5 10.65 21.85 3.95 25.35 -8.45 30.0 -9.1 30.0 Q-10.15 29.75 -11.4 27.95 -12.65 25.8 -12.8 25.8 L-17.2 26.25 Q-20.65 26.2 -22.05 25.2 L-19.0 23.95 -14.05 23.75 Q-13.5 21.35 -3.2 18.05 L-2.95 18.0 -2.75 17.9 4.45 15.9 Q7.85 15.0 8.35 15.05 L8.75 15.05 9.1 14.35 9.75 13.15 9.9 12.75 9.95 12.65 10.05 12.5 10.2 12.15 10.25 12.0 10.35 11.75 10.4 11.55 10.5 11.35 10.55 11.2 11.4 8.1 11.4 7.9 11.5 6.95 Q11.1 1.8 8.9 -2.75 4.45 -11.8 -4.9 -11.8 -19.1 -11.8 -25.2 -4.3 -26.85 -2.3 -28.2 0.85 L-28.9 2.35 -28.9 2.4 -30.8 1.85 Q-30.75 0.65 -29.7 -1.45 -28.3 -4.4 -25.75 -6.9 -20.1 -12.45 -11.0 -13.75 L-11.0 -13.7 -9.95 -13.85 -8.85 -13.95 -8.3 -14.0 -7.95 -14.05 M4.3 18.6 L1.15 19.45 3.5 23.1 6.65 21.8 4.3 18.6 M8.1 17.35 L6.65 17.85 8.95 20.5 8.1 17.35 M-7.4 22.4 L-11.05 24.2 -8.65 27.6 -4.95 26.25 -7.4 22.4 M-1.1 19.95 L-5.25 21.45 -2.7 25.45 1.1 24.0 -1.1 19.95" fill="url(#gradient2)" fill-rule="evenodd" stroke="none"/>
    <path d="M40.65 21.0 L52.3 24.8 Q59.7 27.5 60.0 30.0 L-8.45 30.0 3.95 25.35 10.65 21.85 Q12.85 22.95 15.5 22.5 19.4 21.65 23.2 22.65 26.7 23.6 30.4 23.35 L36.55 22.9 Q39.05 22.6 40.65 21.0 M-9.1 30.0 L-41.5 30.0 Q-38.25 29.05 -29.85 24.95 -28.75 25.55 -25.45 25.55 L-22.05 25.2 Q-20.65 26.2 -17.2 26.25 L-12.8 25.8 Q-12.65 25.8 -11.4 27.95 -10.15 29.75 -9.1 30.0 M-43.65 30.0 L-60.0 30.0 Q-59.85 26.7 -53.1 23.4 -53.0 25.0 -51.35 25.45 -48.0 26.35 -45.45 28.6 L-43.65 30.0" fill="#000000" fill-rule="evenodd" stroke="none"/>
    <path d="M12.15 13.5 L20.75 13.6 Q21.8 13.55 22.6 13.1 L23.75 11.95 Q25.35 10.3 28.65 10.3 32.05 10.3 33.35 11.9 34.0 12.7 34.0 13.85 41.25 15.1 41.25 19.4 41.2 20.3 40.65 21.0 39.05 22.6 36.55 22.9 L30.4 23.35 Q26.7 23.6 23.2 22.65 19.4 21.65 15.5 22.5 12.85 22.95 10.65 21.85 L11.3 19.5 19.85 19.8 22.7 20.25 35.55 20.65 Q37.55 20.5 38.9 19.25 38.85 18.3 37.95 17.8 L37.05 17.3 35.1 16.6 33.15 16.1 Q31.85 16.05 31.25 15.05 L31.65 13.85 Q29.45 12.0 26.5 12.9 25.25 13.2 24.6 14.3 24.2 15.0 23.4 15.35 20.95 16.4 18.25 15.85 L10.8 16.1 12.15 13.5" fill="url(#gradient3)" fill-rule="evenodd" stroke="none"/>
    <path d="M10.8 16.1 L18.25 15.85 Q20.95 16.4 23.4 15.35 24.2 15.0 24.6 14.3 25.25 13.2 26.5 12.9 29.45 12.0 31.65 13.85 L31.25 15.05 Q31.85 16.05 33.15 16.1 L35.1 16.6 37.05 17.3 36.0 17.4 Q35.35 17.0 34.75 17.0 L32.65 17.55 20.75 18.3 12.65 18.05 11.05 18.7 10.4 16.8 10.8 16.1" fill="url(#gradient4)" fill-rule="evenodd" stroke="none"/>
    <path d="M37.05 17.3 L37.95 17.8 Q38.85 18.3 38.9 19.25 37.55 20.5 35.55 20.65 L22.7 20.25 19.85 19.8 11.3 19.5 11.05 18.7 12.65 18.05 20.75 18.3 32.65 17.55 34.75 17.0 Q35.35 17.0 36.0 17.4 L37.05 17.3 M11.4 7.9 L11.4 8.1 10.55 11.2 10.5 11.35 10.4 11.55 10.35 11.75 10.25 12.0 10.2 12.15 10.05 12.5 9.95 12.65 9.9 12.75 9.75 13.15 9.1 14.35 8.75 15.05 8.35 15.05 Q7.85 15.0 4.45 15.9 L-2.75 17.9 -7.85 18.05 -7.9 18.05 -4.7 17.25 Q-3.35 16.55 -1.15 15.8 L5.35 13.8 Q6.7 13.1 11.4 7.9 M-35.5 24.1 Q-34.65 23.25 -32.7 22.1 L-27.65 19.2 -24.6 18.25 Q-22.0 17.5 -21.4 17.0 L-20.0 15.25 Q-19.45 14.55 -18.65 14.35 L-18.1 15.1 -17.6 15.85 Q-17.2 16.45 -17.3 17.3 -17.9 21.25 -21.7 22.55 -24.65 23.5 -27.8 23.1 -29.05 22.25 -30.35 22.9 L-32.7 23.9 -35.15 24.75 -35.2 24.65 -35.5 24.1" fill="#b3b3b3" fill-rule="evenodd" stroke="none"/>
    <path d="M-28.9 2.35 L-28.2 0.85 Q-26.85 -2.3 -25.2 -4.3 -19.1 -11.8 -4.9 -11.8 4.45 -11.8 8.9 -2.75 11.1 1.8 11.5 6.95 L11.4 7.9 Q6.7 13.1 5.35 13.8 L-1.15 15.8 Q-3.35 16.55 -4.7 17.25 L-7.9 18.05 -11.2 18.45 -14.5 18.15 -15.2 18.35 -15.1 17.65 Q-14.8 15.65 -15.4 13.75 -15.6 13.05 -16.25 12.55 L-21.6 7.45 Q-24.15 4.8 -27.25 3.1 L-28.25 2.6 -28.9 2.35 M3.5 5.1 Q4.0 3.7 4.05 1.8 4.05 -0.35 2.2 -1.65 0.35 -2.95 -2.55 -2.9 -5.2 -2.95 -6.0 -2.2 -6.4 -1.85 -6.4 -1.0 L-6.35 0.5 Q-6.25 2.05 -5.7 3.4 -4.15 7.35 0.55 7.4 2.6 7.4 3.5 5.1 M8.1 17.35 L8.95 20.5 6.65 17.85 8.1 17.35 M4.3 18.6 L6.65 21.8 3.5 23.1 1.15 19.45 4.3 18.6 M-17.2 9.4 Q-16.05 11.9 -13.25 11.9 -10.55 11.6 -9.75 8.8 -8.05 5.2 -10.2 2.05 -11.3 0.45 -13.05 -0.4 -15.5 -1.65 -17.15 0.35 -17.9 1.2 -18.1 2.5 -18.7 6.15 -17.2 9.4 M-1.1 19.95 L1.1 24.0 -2.7 25.45 -5.25 21.45 -1.1 19.95 M-7.4 22.4 L-4.95 26.25 -8.65 27.6 -11.05 24.2 -7.4 22.4" fill="url(#gradient5)" fill-rule="evenodd" stroke="none"/>
    <path d="M3.5 5.1 Q2.6 7.4 0.55 7.4 -4.15 7.35 -5.7 3.4 -6.25 2.05 -6.35 0.5 L-6.4 -1.0 Q-6.4 -1.85 -6.0 -2.2 -5.2 -2.95 -2.55 -2.9 0.35 -2.95 2.2 -1.65 4.05 -0.35 4.05 1.8 4.0 3.7 3.5 5.1 M-17.2 9.4 Q-18.7 6.15 -18.1 2.5 -17.9 1.2 -17.15 0.35 -15.5 -1.65 -13.05 -0.4 -11.3 0.45 -10.2 2.05 -8.05 5.2 -9.75 8.8 -10.55 11.6 -13.25 11.9 -16.05 11.9 -17.2 9.4 M-37.8 17.2 L-37.6 15.55 Q-36.85 12.65 -33.9 12.15 -31.7 11.85 -29.9 13.05 -29.25 13.45 -29.45 14.1 -30.7 17.95 -35.0 18.2 -36.85 18.5 -37.8 17.2" fill="url(#gradient6)" fill-rule="evenodd" stroke="none"/>
    <path d="M-30.85 -7.5 L-32.65 -5.85 Q-36.45 -8.1 -39.55 -11.1 -40.3 -11.8 -40.4 -12.65 L-40.6 -15.85 Q-41.3 -16.4 -42.15 -16.55 L-43.65 -16.85 -46.75 -16.5 -46.85 -16.0 -45.05 -13.3 -45.4 -12.9 Q-46.05 -12.25 -46.95 -12.0 L-47.0 -12.0 -48.4 -11.85 Q-49.25 -11.65 -49.6 -10.9 L-48.55 -9.85 Q-45.3 -7.9 -41.85 -6.45 -38.85 -5.15 -36.7 -2.75 L-36.55 -2.55 -38.75 -1.05 -41.65 -3.55 Q-45.0 -7.05 -49.9 -7.8 -50.45 -7.75 -50.8 -8.05 -52.35 -9.25 -51.95 -11.4 L-51.65 -12.35 Q-50.95 -14.2 -48.75 -14.4 -49.7 -16.35 -48.45 -18.05 L-47.45 -18.8 Q-43.35 -19.9 -39.45 -18.3 -38.7 -18.05 -38.25 -17.4 L-37.95 -16.5 Q-37.9 -14.7 -38.2 -12.95 L-30.85 -7.5" fill="url(#gradient7)" fill-rule="evenodd" stroke="none"/>
    <path d="M-32.65 -5.85 L-34.6 -4.2 -34.6 -4.25 Q-34.6 -5.55 -37.35 -6.55 -41.0 -7.65 -42.7 -8.4 -46.15 -9.8 -46.6 -10.6 L-47.0 -12.0 -46.95 -12.0 Q-46.05 -12.25 -45.4 -12.9 L-45.05 -13.3 -46.85 -16.0 -46.75 -16.5 -43.65 -16.85 -42.15 -16.55 Q-41.3 -16.4 -40.6 -15.85 L-40.4 -12.65 Q-40.3 -11.8 -39.55 -11.1 -36.45 -8.1 -32.65 -5.85 M-36.4 -2.7 L-36.55 -2.55 -36.7 -2.75 -36.4 -2.7" fill="url(#gradient8)" fill-rule="evenodd" stroke="none"/>
    <path d="M-34.6 -4.2 L-36.4 -2.7 -36.7 -2.75 Q-38.85 -5.15 -41.85 -6.45 -45.3 -7.9 -48.55 -9.85 L-49.6 -10.9 Q-49.25 -11.65 -48.4 -11.85 L-47.0 -12.0 -46.6 -10.6 Q-46.15 -9.8 -42.7 -8.4 -41.0 -7.65 -37.35 -6.55 -34.6 -5.55 -34.6 -4.25 L-34.6 -4.2" fill="#c4c4c4" fill-rule="evenodd" stroke="none"/>
    <path d="M-2.75 17.9 L-2.95 18.0 -3.2 18.05 Q-13.5 21.35 -14.05 23.75 L-19.0 23.95 Q-16.0 21.8 -15.2 18.35 L-14.5 18.15 -11.2 18.45 -7.9 18.05 -7.85 18.05 -2.75 17.9" fill="#989898" fill-rule="evenodd" stroke="none"/>
    <path d="M-18.65 14.35 Q-19.45 14.55 -20.0 15.25 L-21.4 17.0 Q-22.0 17.5 -24.6 18.25 L-27.65 19.2 -32.7 22.1 Q-34.65 23.25 -35.5 24.1 -36.4 22.75 -38.25 22.3 -40.5 21.7 -42.15 20.4 -44.5 18.5 -47.1 16.95 -46.95 15.8 -46.05 14.3 -44.15 10.95 -41.15 8.45 L-39.1 6.8 Q-36.55 4.75 -33.35 3.95 L-30.55 4.9 Q-29.35 5.1 -28.25 5.75 -22.55 9.15 -18.65 14.35 M-37.8 17.2 Q-36.85 18.5 -35.0 18.2 -30.7 17.95 -29.45 14.1 -29.25 13.45 -29.9 13.05 -31.7 11.85 -33.9 12.15 -36.85 12.65 -37.6 15.55 L-37.8 17.2 M-42.85 22.85 L-45.85 25.75 -47.15 24.8 -44.15 21.9 -42.85 22.85 M-49.95 22.85 L-48.15 18.5 -46.05 20.35 -49.0 23.55 -49.95 22.85 M-44.3 26.85 L-40.85 24.25 Q-39.05 25.35 -37.7 25.8 L-42.85 27.8 -44.3 26.85" fill="url(#gradient9)" fill-rule="evenodd" stroke="none"/>
    <path d="M-46.5 10.55 L-45.25 8.9 Q-39.3 1.55 -32.45 1.6 L-31.65 1.8 -30.8 1.85 -28.9 2.4 -28.25 2.6 -27.25 3.1 Q-24.15 4.8 -21.6 7.45 L-16.25 12.55 Q-15.6 13.05 -15.4 13.75 -14.8 15.65 -15.1 17.65 L-15.2 18.35 Q-16.0 21.8 -19.0 23.95 L-22.05 25.2 -25.45 25.55 Q-28.75 25.55 -29.85 24.95 -38.25 29.05 -41.5 30.0 L-43.65 30.0 -45.45 28.6 Q-48.0 26.35 -51.35 25.45 -53.0 25.0 -53.1 23.4 -51.25 17.65 -47.7 12.3 L-47.2 11.55 -46.5 10.55 M-35.5 24.1 L-35.2 24.65 -35.2 24.8 -35.15 24.75 -32.7 23.9 -30.35 22.9 Q-29.05 22.25 -27.8 23.1 -24.65 23.5 -21.7 22.55 -17.9 21.25 -17.3 17.3 -17.2 16.45 -17.6 15.85 L-18.1 15.1 -18.65 14.35 Q-22.55 9.15 -28.25 5.75 -29.35 5.1 -30.55 4.9 L-33.35 3.95 Q-36.55 4.75 -39.1 6.8 L-41.15 8.45 Q-44.15 10.95 -46.05 14.3 -46.95 15.8 -47.1 16.95 -44.5 18.5 -42.15 20.4 -40.5 21.7 -38.25 22.3 -36.4 22.75 -35.5 24.1 M-49.95 22.85 L-49.0 23.55 -46.05 20.35 -48.15 18.5 -49.95 22.85 M-42.85 22.85 L-44.15 21.9 -47.15 24.8 -45.85 25.75 -42.85 22.85 M-44.3 26.85 L-42.85 27.8 -37.7 25.8 Q-39.05 25.35 -40.85 24.25 L-44.3 26.85" fill="url(#gradient10)" fill-rule="evenodd" stroke="none"/>
  </g>
  <defs>
    <linearGradient gradientTransform="matrix(0.0054, 0.0068, -0.0315, 0.0231, -20.85, -8.1)" gradientUnits="userSpaceOnUse" id="gradient0" spreadMethod="pad" x1="-819.2" x2="819.2">
      <stop offset="0.0" stop-color="#e1e1e1"/>
      <stop offset="1.0" stop-color="#666666"/>
    </linearGradient>
    <linearGradient gradientTransform="matrix(0.0034, 0.0058, -0.0316, 0.0176, -20.4, -6.5)" gradientUnits="userSpaceOnUse" id="gradient1" spreadMethod="pad" x1="-819.2" x2="819.2">
      <stop offset="0.01568627450980392" stop-color="#ffffff"/>
      <stop offset="1.0" stop-color="#b7b7b7"/>
    </linearGradient>
    <linearGradient gradientTransform="matrix(-0.0013, 0.025, -0.0273, -0.0013, -8.6, 7.1)" gradientUnits="userSpaceOnUse" id="gradient2" spreadMethod="pad" x1="-819.2" x2="819.2">
      <stop offset="0.0" stop-color="#e1e1e1"/>
      <stop offset="1.0" stop-color="#666666"/>
    </linearGradient>
    <linearGradient gradientTransform="matrix(0.0, 0.007, -0.0187, 0.0, 25.95, 17.2)" gradientUnits="userSpaceOnUse" id="gradient3" spreadMethod="pad" x1="-819.2" x2="819.2">
      <stop offset="0.0" stop-color="#e1e1e1"/>
      <stop offset="1.0" stop-color="#666666"/>
    </linearGradient>
    <linearGradient gradientTransform="matrix(0.0, 0.0051, -0.0174, 0.0, 24.65, 18.35)" gradientUnits="userSpaceOnUse" id="gradient4" spreadMethod="pad" x1="-819.2" x2="819.2">
      <stop offset="0.01568627450980392" stop-color="#ffffff"/>
      <stop offset="1.0" stop-color="#b7b7b7"/>
    </linearGradient>
    <linearGradient gradientTransform="matrix(0.0, 0.0154, -0.0246, 0.0, -8.7, 5.2)" gradientUnits="userSpaceOnUse" id="gradient5" spreadMethod="pad" x1="-819.2" x2="819.2">
      <stop offset="0.01568627450980392" stop-color="#ffffff"/>
      <stop offset="1.0" stop-color="#b7b7b7"/>
    </linearGradient>
    <linearGradient gradientTransform="matrix(0.011, 0.0184, -0.0447, 0.025, -13.3, 8.85)" gradientUnits="userSpaceOnUse" id="gradient6" spreadMethod="pad" x1="-819.2" x2="819.2">
      <stop offset="0.01568627450980392" stop-color="#999999"/>
      <stop offset="1.0" stop-color="#666666"/>
    </linearGradient>
    <linearGradient gradientTransform="matrix(0.0, 0.0126, -0.0129, 0.0, -41.4, -8.1)" gradientUnits="userSpaceOnUse" id="gradient7" spreadMethod="pad" x1="-819.2" x2="819.2">
      <stop offset="0.0" stop-color="#e1e1e1"/>
      <stop offset="1.0" stop-color="#666666"/>
    </linearGradient>
    <linearGradient gradientTransform="matrix(0.0047, 0.0079, -0.0064, 0.0036, -40.9, -7.9)" gradientUnits="userSpaceOnUse" id="gradient8" spreadMethod="pad" x1="-819.2" x2="819.2">
      <stop offset="0.01568627450980392" stop-color="#ffffff"/>
      <stop offset="1.0" stop-color="#b7b7b7"/>
    </linearGradient>
    <linearGradient gradientTransform="matrix(0.0, 0.0107, -0.0183, 0.0, -32.35, 15.0)" gradientUnits="userSpaceOnUse" id="gradient9" spreadMethod="pad" x1="-819.2" x2="819.2">
      <stop offset="0.01568627450980392" stop-color="#ffffff"/>
      <stop offset="1.0" stop-color="#b7b7b7"/>
    </linearGradient>
    <linearGradient gradientTransform="matrix(0.0, 0.0155, -0.0233, 0.0, -34.05, 14.4)" gradientUnits="userSpaceOnUse" id="gradient10" spreadMethod="pad" x1="-819.2" x2="819.2">
      <stop offset="0.0" stop-color="#e1e1e1"/>
      <stop offset="1.0" stop-color="#666666"/>
    </linearGradient>
  </defs>
</svg>
