<?xml version="1.0" encoding="UTF-8" standalone="no"?>
<svg xmlns:ffdec="https://www.free-decompiler.com/flash" xmlns:xlink="http://www.w3.org/1999/xlink" ffdec:objectType="shape" height="54.85px" width="108.7px" xmlns="http://www.w3.org/2000/svg">
  <g transform="matrix(1.0, 0.0, 0.0, 1.0, 33.45, 25.55)">
    <path d="M-6.9 -11.55 L20.2 -11.55 20.2 -4.1 -7.1 -4.1 -7.0 -7.6 -6.9 -11.55" fill="#585858" fill-rule="evenodd" stroke="none"/>
    <path d="M29.45 -15.95 L29.3 -15.95 29.3 -15.8 29.45 -15.95 M20.2 -11.55 L20.2 -16.5 42.4 -16.5 40.85 -13.1 59.45 -13.1 68.4 -19.8 73.25 -16.0 73.25 -7.65 59.5 0.7 66.4 0.7 66.4 7.15 51.2 13.65 60.25 13.65 60.25 20.45 40.25 20.45 20.2 7.8 20.2 -4.1 20.2 -11.55 M-7.7 16.15 L-23.85 22.75 -31.45 -6.1 -27.25 -14.85 -7.0 -7.6 -7.1 -4.1 -7.45 7.8 -7.7 16.15" fill="#000000" fill-rule="evenodd" stroke="none"/>
    <path d="M-6.7 -18.2 L-6.4 -22.8 20.2 -22.8 20.2 -16.5 20.2 -11.55 -6.9 -11.55 -6.7 -18.2 M20.2 -4.1 L20.2 7.8 -7.45 7.8 -7.1 -4.1 20.2 -4.1" fill="#333333" fill-rule="evenodd" stroke="none"/>
    <path d="M-6.7 -18.2 L-6.9 -11.55 -7.0 -7.6 -27.25 -14.85 -23.1 -23.55 -6.7 -18.2 M73.25 -7.65 L73.25 0.7 66.4 0.7 59.5 0.7 73.25 -7.65 M66.4 7.15 L66.4 13.65 60.25 13.65 51.2 13.65 66.4 7.15 M60.25 20.45 L60.25 27.3 36.0 27.3 20.2 19.7 -7.9 19.7 -7.7 16.15 -7.45 7.8 20.2 7.8 20.2 19.7 20.2 7.8 40.25 20.45 60.25 20.45" fill="#1d1d1d" fill-rule="evenodd" stroke="none"/>
    <path d="M20.2 -16.5 L20.2 -22.8 -6.4 -22.8 -6.7 -18.2 -6.9 -11.55 -7.0 -7.6 -7.1 -4.1 -7.45 7.8 -7.7 16.15 -23.85 22.75 -31.45 -6.1 -27.25 -14.85 -23.1 -23.55 -6.7 -18.2 M20.2 -11.55 L20.2 -16.5 M68.4 -19.8 L73.25 -16.0 73.25 -7.65 73.25 0.7 66.4 0.7 66.4 7.15 66.4 13.65 60.25 13.65 60.25 20.45 60.25 27.3 36.0 27.3 20.2 19.7 -7.9 19.7 -7.7 16.15 M20.2 -4.1 L20.2 -11.55 M51.2 13.65 L60.25 13.65 M66.4 0.7 L59.5 0.7 M20.2 7.8 L20.2 19.7 M20.2 7.8 L20.2 -4.1" fill="none" stroke="#666666" stroke-linecap="square" stroke-linejoin="miter-clip" stroke-miterlimit="3.0" stroke-width="3.0"/>
    <path d="M20.2 -16.5 L42.4 -16.5 40.85 -13.1 59.45 -13.1 68.4 -19.8" fill="none" stroke="#666666" stroke-linecap="square" stroke-linejoin="miter-clip" stroke-miterlimit="3.0" stroke-width="4.0"/>
  </g>
</svg>
