<?xml version="1.0" encoding="UTF-8" standalone="no"?>
<svg xmlns:ffdec="https://www.free-decompiler.com/flash" xmlns:xlink="http://www.w3.org/1999/xlink" ffdec:objectType="shape" height="150.0px" width="90.0px" xmlns="http://www.w3.org/2000/svg">
  <g transform="matrix(1.0, 0.0, 0.0, 1.0, 45.0, 60.0)">
    <path d="M10.75 89.95 L19.55 88.5 32.5 87.75 37.7 87.9 Q37.35 87.15 37.35 86.35 37.45 84.0 37.2 83.6 35.65 80.5 18.65 78.25 L21.7 77.65 25.6 77.35 30.85 77.55 30.4 75.65 29.45 70.85 Q28.0 65.0 23.75 63.05 L23.1 62.75 17.7 63.05 16.2 62.75 15.7 62.45 15.6 61.4 Q15.6 60.4 16.8 59.8 17.7 59.35 20.4 58.8 28.85 56.9 34.35 54.8 38.0 53.45 39.3 50.65 L40.6 45.85 Q41.0 44.25 41.35 36.8 L41.65 28.6 41.2 19.3 40.45 11.0 Q40.25 10.3 40.35 8.85 40.45 7.45 40.2 6.75 39.45 4.25 34.05 2.75 30.35 1.7 20.7 0.05 15.0 -0.9 15.0 -2.3 14.95 -3.45 15.15 -3.65 L15.8 -3.8 14.4 -6.5 14.45 -7.15 Q14.35 -7.45 14.4 -7.85 14.4 -8.5 18.4 -12.75 L21.1 -15.6 20.6 -15.9 Q20.4 -16.1 20.45 -16.8 20.45 -17.5 21.7 -17.9 L24.4 -18.7 Q28.3 -20.25 28.3 -24.95 L28.15 -30.1 Q27.2 -30.8 25.9 -30.8 L23.65 -30.6 Q21.0 -30.5 19.85 -34.0 20.45 -34.65 22.0 -34.8 L21.85 -36.85 Q21.55 -40.6 20.6 -42.6 18.45 -47.25 10.7 -49.3 L10.45 -49.2 10.2 -49.4 3.05 -50.55 Q2.85 -50.0 2.9 -51.45 2.85 -52.45 3.65 -52.7 L5.6 -52.8 8.55 -52.75 7.95 -54.2 Q6.4 -57.0 0.0 -58.55 -6.4 -57.0 -7.95 -54.2 L-8.55 -52.75 -5.6 -52.8 -3.65 -52.7 Q-2.9 -52.45 -2.9 -51.45 -2.9 -50.0 -3.05 -50.55 L-10.2 -49.4 -10.45 -49.2 -10.7 -49.3 Q-18.5 -47.25 -20.6 -42.6 -21.55 -40.6 -21.85 -36.85 L-22.0 -34.8 Q-20.5 -34.65 -19.85 -34.0 -21.0 -30.5 -23.65 -30.6 L-25.9 -30.8 Q-27.25 -30.8 -28.15 -30.1 L-28.3 -24.95 Q-28.35 -20.25 -24.4 -18.7 L-21.7 -17.9 Q-20.45 -17.5 -20.45 -16.8 -20.45 -16.1 -20.6 -15.9 L-21.1 -15.6 -18.4 -12.75 Q-14.4 -8.5 -14.4 -7.85 L-14.45 -7.15 -14.4 -6.5 -15.8 -3.8 -15.15 -3.65 Q-15.0 -3.45 -15.0 -2.3 -15.0 -0.9 -20.7 0.05 -30.4 1.7 -34.05 2.75 -39.5 4.25 -40.2 6.75 -40.45 7.45 -40.35 8.85 L-40.45 11.0 -41.2 19.3 -41.65 28.6 -41.35 36.8 Q-41.0 44.25 -40.6 45.85 L-39.25 50.65 Q-38.0 53.45 -34.35 54.8 -28.85 56.9 -20.4 58.8 -17.75 59.35 -16.8 59.8 -15.6 60.4 -15.6 61.4 L-15.7 62.45 -16.2 62.75 -17.7 63.05 -23.1 62.75 -23.75 63.05 Q-28.05 65.0 -29.45 70.85 L-30.4 75.65 -30.85 77.55 -25.6 77.35 -21.7 77.65 -18.6 78.25 Q-35.7 80.5 -37.2 83.6 -37.45 84.0 -37.35 86.35 -37.35 87.15 -37.7 87.9 L-32.5 87.75 -19.55 88.5 -10.8 89.95 -11.5 90.0 -41.4 89.95 -41.4 88.05 -40.45 88.0 -40.45 83.65 -40.1 82.15 Q-39.85 80.9 -38.9 80.05 -37.25 78.5 -33.1 77.85 L-33.15 75.55 Q-32.95 71.15 -31.65 66.85 -30.7 63.55 -29.35 61.5 -39.85 58.25 -43.3 48.25 -45.0 43.35 -45.0 36.75 L-44.65 28.75 -44.65 15.1 Q-44.3 8.5 -42.25 4.85 -39.8 0.5 -34.05 -1.55 -28.7 -3.5 -19.7 -3.75 L-18.75 -5.45 -17.2 -7.1 -20.7 -10.65 Q-23.8 -14.2 -24.05 -15.15 L-24.4 -15.15 Q-30.35 -15.2 -31.35 -19.35 -31.75 -20.7 -31.6 -22.75 L-31.35 -25.4 Q-32.05 -28.3 -31.35 -30.55 -30.2 -34.65 -24.25 -34.9 L-24.2 -34.9 -24.3 -35.45 Q-24.7 -37.4 -24.7 -38.75 -24.7 -50.25 -11.95 -52.35 L-11.95 -53.2 Q-12.0 -55.75 -11.05 -57.0 -8.9 -60.0 -1.95 -60.0 L0.0 -59.9 1.95 -60.0 Q8.85 -60.0 11.05 -57.0 11.95 -55.75 11.95 -53.2 L11.95 -52.35 Q24.65 -50.25 24.7 -38.75 L24.3 -35.45 24.2 -34.9 24.25 -34.9 Q30.2 -34.65 31.35 -30.55 32.0 -28.3 31.35 -25.4 L31.6 -22.75 Q31.7 -20.7 31.35 -19.35 30.3 -15.2 24.4 -15.15 L24.05 -15.15 Q23.8 -14.2 20.7 -10.65 L17.2 -7.1 18.8 -5.45 19.7 -3.75 Q28.7 -3.5 34.05 -1.55 39.8 0.5 42.25 4.85 44.3 8.5 44.65 15.1 L44.65 28.75 45.0 36.75 Q45.0 43.35 43.3 48.25 39.85 58.25 29.35 61.5 30.65 63.55 31.65 66.85 32.9 71.15 33.15 75.55 L33.1 77.85 Q37.2 78.5 38.9 80.05 39.85 80.9 40.15 82.15 L40.45 83.65 40.45 88.0 41.2 88.05 41.2 89.95 10.75 89.95" fill="#666600" fill-rule="evenodd" stroke="none"/>
    <path d="M-10.8 89.95 L-19.55 88.5 -32.5 87.75 -37.7 87.9 Q-37.35 87.15 -37.35 86.35 -37.45 84.0 -37.2 83.6 -35.7 80.5 -18.6 78.25 L-21.7 77.65 -25.6 77.35 -30.85 77.55 -30.4 75.65 -29.45 70.85 Q-28.05 65.0 -23.75 63.05 L-23.1 62.75 -17.7 63.05 -16.2 62.75 -15.7 62.45 -15.6 61.4 Q-15.6 60.4 -16.8 59.8 -17.75 59.35 -20.4 58.8 -28.85 56.9 -34.35 54.8 -38.0 53.45 -39.25 50.65 L-40.6 45.85 Q-41.0 44.25 -41.35 36.8 L-41.65 28.6 -41.2 19.3 -40.45 11.0 -40.35 8.85 Q-40.45 7.45 -40.2 6.75 -39.5 4.25 -34.05 2.75 -30.4 1.7 -20.7 0.05 -15.0 -0.9 -15.0 -2.3 -15.0 -3.45 -15.15 -3.65 L-15.8 -3.8 -14.4 -6.5 -14.45 -7.15 -14.4 -7.85 Q-14.4 -8.5 -18.4 -12.75 L-21.1 -15.6 -20.6 -15.9 Q-20.45 -16.1 -20.45 -16.8 -20.45 -17.5 -21.7 -17.9 L-24.4 -18.7 Q-28.35 -20.25 -28.3 -24.95 L-28.15 -30.1 Q-27.25 -30.8 -25.9 -30.8 L-23.65 -30.6 Q-21.0 -30.5 -19.85 -34.0 -20.5 -34.65 -22.0 -34.8 L-21.85 -36.85 Q-21.55 -40.6 -20.6 -42.6 -18.5 -47.25 -10.7 -49.3 L-10.45 -49.2 -10.2 -49.4 -3.05 -50.55 Q-2.9 -50.0 -2.9 -51.45 -2.9 -52.45 -3.65 -52.7 L-5.6 -52.8 -8.55 -52.75 -7.95 -54.2 Q-6.4 -57.0 0.0 -58.55 6.4 -57.0 7.95 -54.2 L8.55 -52.75 5.6 -52.8 3.65 -52.7 Q2.85 -52.45 2.9 -51.45 2.85 -50.0 3.05 -50.55 L10.2 -49.4 10.45 -49.2 10.7 -49.3 Q18.45 -47.25 20.6 -42.6 21.55 -40.6 21.85 -36.85 L22.0 -34.8 Q20.45 -34.65 19.85 -34.0 21.0 -30.5 23.65 -30.6 L25.9 -30.8 Q27.2 -30.8 28.15 -30.1 L28.3 -24.95 Q28.3 -20.25 24.4 -18.7 L21.7 -17.9 Q20.45 -17.5 20.45 -16.8 20.4 -16.1 20.6 -15.9 L21.1 -15.6 18.4 -12.75 Q14.4 -8.5 14.4 -7.85 14.35 -7.45 14.45 -7.15 L14.4 -6.5 15.8 -3.8 15.15 -3.65 Q14.95 -3.45 15.0 -2.3 15.0 -0.9 20.7 0.05 30.35 1.7 34.05 2.75 39.45 4.25 40.2 6.75 40.45 7.45 40.35 8.85 40.25 10.3 40.45 11.0 L41.2 19.3 41.65 28.6 41.35 36.8 Q41.0 44.25 40.6 45.85 L39.3 50.65 Q38.0 53.45 34.35 54.8 28.85 56.9 20.4 58.8 17.7 59.35 16.8 59.8 15.6 60.4 15.6 61.4 L15.7 62.45 16.2 62.75 17.7 63.05 23.1 62.75 23.75 63.05 Q28.0 65.0 29.45 70.85 L30.4 75.65 30.85 77.55 25.6 77.35 21.7 77.65 18.65 78.25 Q35.65 80.5 37.2 83.6 37.45 84.0 37.35 86.35 37.35 87.15 37.7 87.9 L32.5 87.75 19.55 88.5 10.75 89.95 -10.8 89.95" fill="#000000" fill-rule="evenodd" stroke="none"/>
  </g>
</svg>
