<?xml version="1.0" encoding="UTF-8" standalone="no"?>
<svg xmlns:ffdec="https://www.free-decompiler.com/flash" xmlns:xlink="http://www.w3.org/1999/xlink" ffdec:objectType="shape" height="60.0px" width="60.0px" xmlns="http://www.w3.org/2000/svg">
  <g transform="matrix(1.0, 0.0, 0.0, 1.0, 30.0, 30.0)">
    <path d="M17.0 -17.0 Q24.0 -9.95 24.0 0.0 24.0 9.95 17.0 17.0 9.95 24.0 0.0 24.0 -9.95 24.0 -17.0 17.0 -24.0 9.95 -24.0 0.0 -24.0 -9.95 -17.0 -17.0 -9.95 -24.0 0.0 -24.0 9.95 -24.0 17.0 -17.0 M4.0 -9.2 L4.0 -17.0 -4.0 -17.0 -4.0 -9.2 Q-5.7 -8.5 -7.1 -7.1 -10.0 -4.15 -10.0 0.0 -10.0 4.15 -7.1 7.05 -5.7 8.45 -4.0 9.2 L-4.0 17.0 4.0 17.0 4.0 9.2 Q5.65 8.45 7.05 7.05 10.0 4.15 10.0 0.0 10.0 -4.15 7.05 -7.1 5.65 -8.5 4.0 -9.2" fill="#000000" fill-rule="evenodd" stroke="none"/>
    <path d="M21.2 -21.25 Q30.0 -12.45 30.0 0.0 30.0 12.45 21.2 21.2 12.45 30.0 0.0 30.0 -12.45 30.0 -21.25 21.2 -30.0 12.45 -30.0 0.0 -30.0 -12.45 -21.25 -21.25 -12.45 -30.0 0.0 -30.0 12.45 -30.0 21.2 -21.25 M17.0 -17.0 Q9.95 -24.0 0.0 -24.0 -9.95 -24.0 -17.0 -17.0 -24.0 -9.95 -24.0 0.0 -24.0 9.95 -17.0 17.0 -9.95 24.0 0.0 24.0 9.95 24.0 17.0 17.0 24.0 9.95 24.0 0.0 24.0 -9.95 17.0 -17.0 M4.0 -9.2 Q5.65 -8.5 7.05 -7.1 10.0 -4.15 10.0 0.0 10.0 4.15 7.05 7.05 5.65 8.45 4.0 9.2 L4.0 17.0 -4.0 17.0 -4.0 9.2 Q-5.7 8.45 -7.1 7.05 -10.0 4.15 -10.0 0.0 -10.0 -4.15 -7.1 -7.1 -5.7 -8.5 -4.0 -9.2 L-4.0 -17.0 4.0 -17.0 4.0 -9.2" fill="#cc00ff" fill-rule="evenodd" stroke="none"/>
  </g>
</svg>
