<?xml version="1.0" encoding="UTF-8" standalone="no"?>
<svg xmlns:ffdec="https://www.free-decompiler.com/flash" xmlns:xlink="http://www.w3.org/1999/xlink" ffdec:objectType="shape" height="42.0px" width="130.0px" xmlns="http://www.w3.org/2000/svg">
  <g transform="matrix(1.0, 0.0, 0.0, 1.0, 65.0, 81.0)">
    <path d="M64.0 -60.0 Q64.0 -50.0 54.0 -50.0 L10.0 -50.0 0.0 -40.0 -10.0 -50.0 -54.0 -50.0 Q-64.0 -50.0 -64.0 -60.0 L-64.0 -70.0 Q-64.0 -80.0 -54.0 -80.0 L54.0 -80.0 Q64.0 -80.0 64.0 -70.0 L64.0 -60.0" fill="#000000" fill-rule="evenodd" stroke="none"/>
    <path d="M64.0 -60.0 L64.0 -70.0 Q64.0 -80.0 54.0 -80.0 L-54.0 -80.0 Q-64.0 -80.0 -64.0 -70.0 L-64.0 -60.0 Q-64.0 -50.0 -54.0 -50.0 L-10.0 -50.0 0.0 -40.0 10.0 -50.0 54.0 -50.0 Q64.0 -50.0 64.0 -60.0 Z" fill="none" stroke="#666666" stroke-linecap="round" stroke-linejoin="round" stroke-width="2.0"/>
  </g>
</svg>
