<?xml version="1.0" encoding="UTF-8" standalone="no"?>
<svg xmlns:ffdec="https://www.free-decompiler.com/flash" xmlns:xlink="http://www.w3.org/1999/xlink" ffdec:objectType="shape" height="161.0px" width="56.0px" xmlns="http://www.w3.org/2000/svg">
  <g transform="matrix(1.0, 0.0, 0.0, 1.0, 28.0, 74.0)">
    <path d="M15.0 -46.0 L15.0 21.5 0.0 14.0 -15.0 21.5 -15.0 -46.0 0.0 -61.0 15.0 -46.0 M15.0 66.5 L0.0 74.0 -15.0 66.5 -15.0 51.5 0.0 44.0 15.0 51.5 15.0 66.5" fill="#ffffff" fill-opacity="0.3019608" fill-rule="evenodd" stroke="none"/>
    <path d="M9.2 -70.2 L24.2 -55.2 Q28.0 -51.4 28.0 -46.0 L28.0 21.5 Q28.0 26.05 25.1 29.65 22.2 33.25 17.8 34.2 13.3 35.2 9.2 33.15 L0.0 28.55 -9.15 33.15 Q-13.3 35.2 -17.75 34.2 -22.2 33.25 -25.1 29.65 -28.0 26.05 -28.0 21.5 L-28.0 -46.0 Q-28.0 -51.4 -24.2 -55.2 L-9.2 -70.2 Q-5.4 -74.0 0.0 -74.0 5.4 -74.0 9.2 -70.2 M15.0 -46.0 L0.0 -61.0 -15.0 -46.0 -15.0 21.5 0.0 14.0 15.0 21.5 15.0 -46.0 M5.85 32.4 L20.85 39.9 Q24.1 41.55 26.05 44.7 28.0 47.8 28.0 51.5 L28.0 66.5 Q28.0 70.2 26.05 73.35 24.1 76.45 20.85 78.15 L5.85 85.65 Q3.05 87.0 0.0 87.0 -3.05 87.0 -5.8 85.65 L-20.8 78.15 Q-24.1 76.45 -26.05 73.35 -28.0 70.2 -28.0 66.5 L-28.0 51.5 Q-28.0 47.8 -26.05 44.7 -24.1 41.55 -20.8 39.9 L-5.8 32.4 Q-3.05 31.0 0.0 31.0 3.05 31.0 5.85 32.4 M15.0 66.5 L15.0 51.5 0.0 44.0 -15.0 51.5 -15.0 66.5 0.0 74.0 15.0 66.5" fill="#ffffff" fill-opacity="0.14901961" fill-rule="evenodd" stroke="none"/>
  </g>
</svg>
