<?xml version="1.0" encoding="UTF-8" standalone="no"?>
<svg xmlns:ffdec="https://www.free-decompiler.com/flash" xmlns:xlink="http://www.w3.org/1999/xlink" ffdec:objectType="shape" height="87.35px" width="90.0px" xmlns="http://www.w3.org/2000/svg">
  <g transform="matrix(1.0, 0.0, 0.0, 1.0, 45.0, 43.65)">
    <path d="M13.15 -25.7 L23.25 -25.55 Q28.9 -25.4 34.3 -23.4 37.95 -22.1 40.8 -19.5 42.2 -18.3 43.05 -16.7 L43.75 -15.0 Q44.6 -12.7 44.7 -10.25 45.35 7.3 44.7 24.75 44.35 32.55 39.35 36.9 37.8 38.2 35.7 38.75 L32.0 39.6 Q25.5 41.1 18.9 41.25 L5.85 41.1 -29.65 38.35 Q-33.55 37.85 -36.95 36.1 -40.05 34.45 -40.85 31.1 -44.9 14.25 -44.95 -3.45 -45.05 -11.7 -40.0 -17.8 -35.55 -23.25 -28.45 -24.8 -21.95 -26.25 -15.35 -26.05 -15.25 -33.2 -11.3 -38.85 -6.65 -45.55 0.5 -42.85 7.9 -40.1 11.15 -32.8 12.6 -29.45 13.15 -25.7 M11.7 -21.35 Q7.4 -27.6 5.05 -34.8 2.15 -43.65 -5.75 -37.95 -12.35 -33.3 -11.95 -24.9 -11.8 -21.6 -15.1 -21.45 L-30.3 -19.75 Q-35.3 -19.0 -37.9 -15.1 -39.8 -12.25 -39.85 -8.6 L-40.15 5.05 Q-40.45 11.45 -39.1 17.75 -37.65 24.45 -36.45 31.2 -31.9 33.95 -26.2 34.55 4.45 37.55 34.75 34.4 36.65 34.25 37.35 32.2 45.25 7.55 38.45 -17.6 38.25 -18.3 37.6 -18.5 28.55 -21.65 18.65 -21.7 L13.25 -21.9 11.7 -21.35 M10.45 -18.95 Q18.05 -19.55 25.65 -18.95 34.1 -18.15 36.5 -10.0 38.5 -3.25 38.6 3.8 38.6 11.5 37.6 19.05 36.45 27.45 29.25 31.4 26.85 32.6 24.2 32.75 L9.45 33.2 Q2.05 33.35 -5.4 33.0 L-20.2 32.0 Q-27.05 31.95 -31.55 27.95 -33.5 26.15 -34.15 23.5 -35.65 17.1 -35.7 10.5 -35.75 2.65 -36.6 -5.1 -37.5 -13.45 -29.85 -15.55 -23.9 -17.3 -17.65 -17.8 L-13.55 -18.05 -13.8 -14.45 Q-21.65 -14.05 -29.3 -12.6 -31.75 -12.25 -32.05 -9.25 -34.2 9.0 -30.25 27.2 L-26.15 28.2 Q2.55 32.25 30.4 26.05 32.1 25.6 32.65 23.85 34.55 16.9 34.9 9.5 35.45 -2.15 32.7 -13.25 32.5 -14.05 31.6 -14.25 20.85 -16.4 9.95 -15.35 L10.45 -18.95 M2.15 -1.95 Q-5.45 0.1 -10.45 -5.8 -11.05 -6.5 -11.05 -7.25 -11.1 -14.45 -9.45 -21.7 -8.1 -27.7 -5.1 -33.1 -2.25 -38.4 1.1 -33.5 8.65 -21.6 10.05 -7.55 7.25 -3.25 2.15 -1.95 M27.1 16.0 L26.8 15.4 26.65 15.7 Q23.8 20.85 19.55 24.8 13.7 20.65 10.2 14.05 7.55 20.7 1.9 22.95 1.1 23.25 0.5 22.5 -2.5 18.85 -4.2 14.5 -7.25 22.1 -13.75 26.2 L-23.35 13.3 Q-25.3 18.6 -25.45 24.6 -25.55 25.65 -26.75 25.4 -30.25 20.95 -27.7 15.5 -23.95 7.35 -14.35 6.7 3.2 5.9 20.65 7.15 29.0 8.4 31.35 16.35 32.95 21.8 28.3 23.5 27.5 22.7 27.8 21.5 28.35 18.6 27.1 16.0 M24.65 12.45 Q18.85 9.5 12.15 10.6 L19.2 19.75 22.1 15.4 24.65 12.45 M17.95 0.5 Q20.55 -7.7 25.5 -1.2 24.35 3.25 19.55 2.7 17.3 2.35 17.95 0.5 M7.6 10.65 L-2.25 10.65 2.7 18.75 7.6 10.65 M-8.3 -7.65 Q-6.45 -5.55 -3.2 -5.9 2.2 -5.8 6.6 -9.0 L-2.0 -31.95 Q-3.8 -24.65 -5.2 -17.25 -6.2 -12.25 -8.3 -7.65 M-19.55 10.75 L-13.2 21.2 -6.85 10.75 -19.55 10.75 M-27.1 1.65 Q-27.25 -5.7 -20.4 -1.55 -19.65 3.35 -25.4 2.95 -27.1 2.95 -27.1 1.65" fill="url(#gradient0)" fill-rule="evenodd" stroke="none"/>
    <path d="M2.15 -1.95 Q7.25 -3.25 10.05 -7.55 8.65 -21.6 1.1 -33.5 -2.25 -38.4 -5.1 -33.1 -8.1 -27.7 -9.45 -21.7 -11.1 -14.45 -11.05 -7.25 -11.05 -6.5 -10.45 -5.8 -5.45 0.1 2.15 -1.95 M10.45 -18.95 L9.95 -15.35 Q20.85 -16.4 31.6 -14.25 32.5 -14.05 32.7 -13.25 35.45 -2.15 34.9 9.5 34.55 16.9 32.65 23.85 32.1 25.6 30.4 26.05 2.55 32.25 -26.15 28.2 L-30.25 27.2 Q-34.2 9.0 -32.05 -9.25 -31.75 -12.25 -29.3 -12.6 -21.65 -14.05 -13.8 -14.45 L-13.55 -18.05 -17.65 -17.8 Q-23.9 -17.3 -29.85 -15.55 -37.5 -13.45 -36.6 -5.1 -35.75 2.65 -35.7 10.5 -35.65 17.1 -34.15 23.5 -33.5 26.15 -31.55 27.95 -27.05 31.95 -20.2 32.0 L-5.4 33.0 Q2.05 33.35 9.45 33.2 L24.2 32.75 Q26.85 32.6 29.25 31.4 36.45 27.45 37.6 19.05 38.6 11.5 38.6 3.8 38.5 -3.25 36.5 -10.0 34.1 -18.15 25.65 -18.95 18.05 -19.55 10.45 -18.95 M11.7 -21.35 L13.25 -21.9 18.65 -21.7 Q28.55 -21.65 37.6 -18.5 38.25 -18.3 38.45 -17.6 45.25 7.55 37.35 32.2 36.65 34.25 34.75 34.4 4.45 37.55 -26.2 34.55 -31.9 33.95 -36.45 31.2 -37.65 24.45 -39.1 17.75 -40.45 11.45 -40.15 5.05 L-39.85 -8.6 Q-39.8 -12.25 -37.9 -15.1 -35.3 -19.0 -30.3 -19.75 L-15.1 -21.45 Q-11.8 -21.6 -11.95 -24.9 -12.35 -33.3 -5.75 -37.95 2.15 -43.65 5.05 -34.8 7.4 -27.6 11.7 -21.35 M26.65 15.7 L27.1 16.0 Q28.35 18.6 27.8 21.5 27.5 22.7 28.3 23.5 32.95 21.8 31.35 16.35 29.0 8.4 20.65 7.15 3.2 5.9 -14.35 6.7 -23.95 7.35 -27.7 15.5 -30.25 20.95 -26.75 25.4 -25.55 25.65 -25.45 24.6 -25.3 18.6 -23.35 13.3 L-13.75 26.2 Q-7.25 22.1 -4.2 14.5 -2.5 18.85 0.5 22.5 1.1 23.25 1.9 22.95 7.55 20.7 10.2 14.05 13.7 20.65 19.55 24.8 23.8 20.85 26.65 15.7 M-27.1 1.65 Q-27.1 2.95 -25.4 2.95 -19.65 3.35 -20.4 -1.55 -27.25 -5.7 -27.1 1.65 M-19.55 10.75 L-6.85 10.75 -13.2 21.2 -19.55 10.75 M-8.3 -7.65 Q-6.2 -12.25 -5.2 -17.25 -3.8 -24.65 -2.0 -31.95 L6.6 -9.0 Q2.2 -5.8 -3.2 -5.9 -6.45 -5.55 -8.3 -7.65 M7.6 10.65 L2.7 18.75 -2.25 10.65 7.6 10.65 M17.95 0.5 Q17.3 2.35 19.55 2.7 24.35 3.25 25.5 -1.2 20.55 -7.7 17.95 0.5 M24.65 12.45 L22.1 15.4 19.2 19.75 12.15 10.6 Q18.85 9.5 24.65 12.45" fill="url(#gradient1)" fill-rule="evenodd" stroke="none"/>
    <path d="M6.6 -9.0 L5.9 -8.5 -2.0 -29.5 -5.25 -14.8 Q-6.0 -10.75 -7.55 -6.95 L-8.3 -7.7 Q-6.2 -12.25 -5.25 -17.25 L-2.0 -31.95 6.6 -9.0 M18.6 -21.75 L18.8 -21.75 18.8 -22.05 Q18.8 -22.5 19.7 -23.0 L21.55 -23.95 22.25 -23.25 21.4 -22.05 21.05 -21.65 Q29.65 -21.25 37.55 -18.5 38.25 -18.3 38.45 -17.6 41.75 -5.35 41.6 6.8 41.45 -4.15 38.45 -15.2 38.25 -15.9 37.55 -16.1 33.15 -17.6 28.5 -18.4 L25.65 -18.95 22.3 -19.15 18.6 -19.3 13.25 -19.5 12.0 -19.05 11.65 -19.05 Q7.4 -25.25 5.05 -32.4 2.15 -41.2 -5.8 -35.55 -11.5 -31.55 -11.95 -24.75 L-11.95 -24.9 Q-12.35 -33.3 -5.8 -38.0 2.15 -43.65 5.05 -34.8 7.4 -27.65 11.7 -21.4 L13.25 -21.95 13.35 -21.95 14.15 -22.7 Q15.05 -23.35 15.5 -23.35 L16.2 -22.75 15.1 -21.8 18.6 -21.75 M2.5 -2.05 Q7.15 -3.35 9.8 -7.25 L10.0 -5.15 Q7.25 -0.85 2.1 0.45 -4.65 2.3 -9.35 -2.25 L-9.4 -2.25 -9.95 -2.8 -10.45 -3.4 Q-11.05 -4.1 -11.05 -4.85 L-11.05 -6.95 -10.45 -5.8 -9.15 -4.45 -8.4 -4.8 Q-7.95 -4.8 -7.5 -4.25 L-7.95 -3.45 Q-3.9 -0.55 1.5 -1.8 L1.15 -2.15 1.65 -3.3 Q2.2 -4.4 2.75 -4.55 L3.45 -3.85 2.8 -2.45 2.5 -2.05 M14.15 -4.2 Q14.15 -4.55 17.95 -7.4 21.75 -10.35 22.4 -10.35 22.75 -10.35 23.15 -9.75 22.4 -8.9 14.9 -3.4 L14.15 -4.2 M14.3 -6.25 Q13.6 -6.55 13.6 -7.1 L18.65 -10.6 19.4 -10.05 Q19.05 -9.5 14.3 -6.25 M9.9 -12.95 L10.25 -15.4 Q21.05 -16.4 31.6 -14.25 32.5 -14.05 32.7 -13.25 35.1 -3.45 34.95 6.8 34.85 -2.15 32.7 -10.85 32.5 -11.65 31.6 -11.8 20.85 -14.0 9.9 -12.95 M40.95 -17.0 L40.2 -17.8 Q40.2 -18.25 40.95 -18.4 41.65 -18.25 41.65 -17.75 L41.6 -17.4 40.95 -17.0 M41.5 -10.35 L40.9 -10.7 Q40.75 -10.45 40.75 -11.15 40.75 -11.6 41.5 -11.8 L42.2 -11.2 41.5 -10.35 M43.25 26.7 Q44.0 26.95 44.0 27.4 44.0 27.95 43.1 28.95 42.1 30.0 41.5 29.85 L40.75 29.05 Q40.75 28.6 41.2 28.0 41.9 27.0 43.25 26.7 M44.85 20.6 L44.65 27.15 Q44.35 34.95 39.35 39.3 37.8 40.6 35.7 41.15 L31.95 42.0 Q25.5 43.5 18.9 43.65 12.35 43.75 5.85 43.5 L-29.65 40.75 Q-33.55 40.3 -36.95 38.5 -40.05 36.85 -40.85 33.5 -44.9 16.65 -45.0 -1.05 L-44.95 -2.15 Q-44.75 14.85 -40.85 31.1 -40.05 34.45 -36.95 36.1 L-36.55 36.3 -36.15 35.8 Q-35.65 35.4 -35.3 35.4 -34.9 35.4 -34.55 35.75 L-34.4 36.05 Q-34.4 36.4 -34.85 36.95 L-34.95 37.05 -32.1 37.9 -31.6 37.45 Q-30.15 36.2 -29.35 35.95 -28.65 36.25 -28.65 36.6 -28.65 37.05 -30.1 38.3 L-29.65 38.35 5.85 41.1 16.95 41.25 Q17.6 40.75 18.6 40.15 21.95 37.95 22.4 37.95 22.75 37.95 23.15 38.55 L20.1 41.2 Q26.1 40.95 31.95 39.6 L33.3 39.3 Q33.5 38.8 34.4 37.9 L35.75 36.85 Q36.45 37.0 36.45 37.5 L35.6 38.75 35.7 38.75 Q37.8 38.2 39.35 36.85 44.35 32.55 44.65 24.75 L44.85 20.6 M24.85 0.45 L25.5 1.2 Q24.35 5.65 19.5 5.1 17.3 4.75 17.95 2.9 L18.2 2.15 Q18.6 2.55 19.5 2.65 22.4 3.0 23.95 1.6 L23.8 1.45 Q23.7 1.7 23.7 1.0 23.7 0.6 24.45 0.35 L24.8 0.55 24.85 0.45 M26.6 18.1 Q23.8 23.25 19.55 27.2 13.7 23.05 10.2 16.45 7.55 23.15 1.9 25.35 1.1 25.65 0.5 24.9 -2.5 21.25 -4.2 16.9 -7.25 24.5 -13.8 28.6 L-23.35 15.7 Q-25.3 21.0 -25.5 27.0 -25.55 28.05 -26.75 27.8 -29.2 24.7 -28.7 21.1 -28.4 23.35 -26.75 25.4 -25.55 25.65 -25.5 24.6 -25.3 18.6 -23.35 13.3 L-15.15 24.35 Q-12.25 21.85 -12.0 21.8 -11.25 21.95 -11.25 22.5 L-12.85 24.1 -14.4 25.35 -13.8 26.2 Q-7.25 22.1 -4.2 14.5 -2.5 18.85 0.5 22.5 1.1 23.25 1.9 22.9 7.55 20.7 10.2 14.05 13.7 20.65 19.55 24.8 23.8 20.85 26.6 15.7 L26.8 15.35 27.1 16.0 Q28.25 18.35 27.9 20.95 27.7 19.65 27.1 18.4 L26.8 17.8 26.6 18.1 M24.6 12.45 L23.15 14.2 Q18.75 12.35 13.85 12.8 L12.15 10.6 Q18.85 9.5 24.6 12.45 M28.3 23.5 Q31.15 22.45 31.65 20.05 32.4 24.4 28.3 25.95 27.5 25.15 27.8 23.95 L27.95 23.05 28.3 23.5 M36.45 21.05 Q36.45 21.6 35.85 22.45 L35.0 23.25 34.4 23.05 Q34.15 22.8 34.15 22.4 L34.75 21.5 35.75 20.35 Q36.45 20.6 36.45 21.05 M-22.25 -20.8 L-21.5 -21.6 -19.25 -23.35 Q-18.5 -23.05 -18.5 -22.65 -18.5 -22.3 -19.6 -21.05 L-15.15 -21.45 Q-12.2 -21.6 -11.95 -24.15 L-11.95 -22.5 Q-11.8 -19.15 -15.15 -19.05 L-30.3 -17.35 Q-35.3 -16.6 -37.9 -12.7 -39.8 -9.8 -39.85 -6.2 L-40.2 7.45 -40.2 8.4 -40.2 5.0 Q-39.95 -1.85 -39.85 -8.6 -39.8 -12.25 -37.9 -15.15 -35.3 -19.05 -30.3 -19.75 L-28.3 -20.05 -27.5 -20.85 -25.6 -22.15 Q-24.85 -22.0 -24.85 -21.5 -24.85 -21.15 -25.45 -20.4 L-22.25 -20.8 M7.6 10.65 L6.1 13.05 -0.8 13.05 -2.25 10.65 7.6 10.65 M38.55 6.2 Q38.6 13.9 37.6 21.5 36.45 29.9 29.25 33.8 26.85 35.05 24.15 35.15 L9.45 35.6 Q2.0 35.75 -5.45 35.4 L-20.2 34.4 Q-27.05 34.4 -31.55 30.4 -33.5 28.6 -34.15 25.9 -35.65 19.5 -35.75 12.9 -35.75 5.1 -36.6 -2.7 L-36.65 -5.6 -36.6 -5.15 Q-35.75 2.65 -35.75 10.5 -35.65 17.1 -34.15 23.5 -33.5 26.15 -31.55 27.95 L-30.4 28.9 -30.3 29.6 -28.4 30.15 Q-24.85 31.95 -20.2 32.0 L-5.45 32.95 Q2.0 33.35 9.45 33.2 L24.15 32.7 Q26.85 32.6 29.25 31.4 36.45 27.5 37.6 19.05 38.45 12.7 38.55 6.2 M-33.3 -9.0 L-34.55 -8.05 -35.3 -8.8 -34.45 -9.9 Q-33.6 -10.7 -33.1 -10.9 -32.4 -10.6 -32.4 -10.25 -32.4 -9.85 -33.3 -9.0 M-35.4 -4.8 L-36.15 -5.85 -35.4 -6.25 Q-34.7 -6.1 -34.7 -5.6 L-34.75 -5.25 Q-35.0 -4.95 -35.4 -4.8 M-18.1 13.15 L-19.6 10.75 -6.9 10.75 -8.35 13.15 -18.1 13.15 M-32.1 -9.25 Q-31.75 -12.25 -29.3 -12.6 -21.65 -14.05 -13.8 -14.5 L-13.7 -15.6 -13.55 -15.65 -13.8 -12.05 Q-21.65 -11.65 -29.3 -10.2 -31.75 -9.8 -32.1 -6.85 -32.75 -1.0 -32.8 4.8 -32.9 -2.25 -32.1 -9.25 M-20.4 0.85 Q-19.65 5.75 -25.4 5.35 -27.1 5.35 -27.1 4.05 L-27.0 2.2 Q-26.75 2.75 -26.0 2.9 L-24.75 2.1 Q-24.0 2.3 -24.0 2.8 L-24.0 3.0 Q-21.15 2.75 -20.5 0.8 L-20.4 0.85" fill="#000000" fill-opacity="0.15294118" fill-rule="evenodd" stroke="none"/>
  </g>
  <defs>
    <linearGradient gradientTransform="matrix(0.0159, 0.0374, -0.0539, 0.0229, -0.65, 3.2)" gradientUnits="userSpaceOnUse" id="gradient0" spreadMethod="pad" x1="-819.2" x2="819.2">
      <stop offset="0.0" stop-color="#c9cc51"/>
      <stop offset="1.0" stop-color="#97993d"/>
    </linearGradient>
    <linearGradient gradientTransform="matrix(0.0241, 0.0416, -0.0472, 0.0273, 0.8, 6.35)" gradientUnits="userSpaceOnUse" id="gradient1" spreadMethod="pad" x1="-819.2" x2="819.2">
      <stop offset="0.0" stop-color="#b0b035"/>
      <stop offset="1.0" stop-color="#74732e"/>
    </linearGradient>
  </defs>
</svg>
