<?xml version="1.0" encoding="UTF-8" standalone="no"?>
<svg xmlns:ffdec="https://www.free-decompiler.com/flash" xmlns:xlink="http://www.w3.org/1999/xlink" ffdec:objectType="shape" height="180.0px" width="120.0px" xmlns="http://www.w3.org/2000/svg">
  <g transform="matrix(1.0, 0.0, 0.0, 1.0, 60.0, 90.0)">
    <path d="M-60.0 1.0 L-60.0 -36.0 -31.45 -39.3 36.8 -47.3 32.65 7.95 -40.0 2.5 -60.0 1.0 M-56.0 -32.4 L-56.0 -2.7 -39.8 -1.5 -39.7 -1.5 28.95 3.65 32.45 -42.75 -30.9 -35.3 -31.1 -35.3 -56.0 -32.4" fill="url(#gradient0)" fill-rule="evenodd" stroke="none"/>
    <path d="M-56.0 -32.4 L-31.1 -35.3 -30.9 -35.3 32.45 -42.75 28.95 3.65 -39.7 -1.5 -39.8 -1.5 -56.0 -2.7 -56.0 -32.4" fill="url(#gradient1)" fill-rule="evenodd" stroke="none"/>
    <path d="M-60.0 -36.0 L-60.0 -90.0 -34.0 -90.0 -31.45 -39.3 -60.0 -36.0 M-37.8 -86.0 L-56.0 -86.0 -56.0 -40.5 -35.65 -42.85 -37.8 -86.0" fill="url(#gradient2)" fill-rule="evenodd" stroke="none"/>
    <path d="M-37.8 -86.0 L-35.65 -42.85 -56.0 -40.5 -56.0 -86.0 -37.8 -86.0" fill="url(#gradient3)" fill-rule="evenodd" stroke="none"/>
    <path d="M-34.0 -90.0 L60.0 -90.0 60.0 -50.0 36.8 -47.3 -31.45 -39.3 -34.0 -90.0 M56.0 -53.55 L56.0 -86.0 -29.8 -86.0 -27.65 -43.75 36.3 -51.25 36.45 -51.25 56.0 -53.55" fill="url(#gradient4)" fill-rule="evenodd" stroke="none"/>
    <path d="M56.0 -53.55 L36.45 -51.25 36.3 -51.25 -27.65 -43.75 -29.8 -86.0 56.0 -86.0 56.0 -53.55" fill="url(#gradient5)" fill-rule="evenodd" stroke="none"/>
    <path d="M60.0 -50.0 L60.0 10.0 32.65 7.95 36.8 -47.3 60.0 -50.0 M56.0 -45.5 L40.55 -43.7 36.95 4.25 56.0 5.7 56.0 -45.5" fill="url(#gradient6)" fill-rule="evenodd" stroke="none"/>
    <path d="M56.0 -45.5 L56.0 5.7 36.95 4.25 40.55 -43.7 56.0 -45.5" fill="url(#gradient7)" fill-rule="evenodd" stroke="none"/>
    <path d="M60.0 10.0 L60.0 47.5 30.55 50.7 -29.85 57.25 -40.0 2.5 32.65 7.95 60.0 10.0 M-35.1 6.9 L-26.6 52.9 30.05 46.75 30.1 46.75 30.5 46.7 56.0 43.95 56.0 13.75 32.45 11.95 32.35 11.95 -35.1 6.9" fill="url(#gradient8)" fill-rule="evenodd" stroke="none"/>
    <path d="M-35.1 6.9 L32.35 11.95 32.45 11.95 56.0 13.75 56.0 43.95 30.5 46.7 30.1 46.75 30.05 46.75 -26.6 52.9 -35.1 6.9" fill="url(#gradient9)" fill-rule="evenodd" stroke="none"/>
    <path d="M60.0 47.5 L60.0 90.0 35.0 90.0 30.55 50.7 60.0 47.5 M35.0 54.25 L38.6 86.0 56.0 86.0 56.0 51.95 35.0 54.25" fill="url(#gradient10)" fill-rule="evenodd" stroke="none"/>
    <path d="M35.0 54.25 L56.0 51.95 56.0 86.0 38.6 86.0 35.0 54.25" fill="url(#gradient11)" fill-rule="evenodd" stroke="none"/>
    <path d="M35.0 90.0 L-60.0 90.0 -60.0 60.5 -29.85 57.25 30.55 50.7 35.0 90.0 M-56.0 86.0 L30.55 86.0 27.05 55.1 -29.4 61.25 -29.55 61.25 -56.0 64.1 -56.0 86.0" fill="url(#gradient12)" fill-rule="evenodd" stroke="none"/>
    <path d="M-56.0 86.0 L-56.0 64.1 -29.55 61.25 -29.4 61.25 27.05 55.1 30.55 86.0 -56.0 86.0" fill="url(#gradient13)" fill-rule="evenodd" stroke="none"/>
    <path d="M-60.0 60.5 L-60.0 1.0 -40.0 2.5 -29.85 57.25 -60.0 60.5 M-43.35 6.3 L-56.0 5.35 -56.0 56.05 -34.55 53.75 -43.35 6.3" fill="url(#gradient14)" fill-rule="evenodd" stroke="none"/>
    <path d="M-43.35 6.3 L-34.55 53.75 -56.0 56.05 -56.0 5.35 -43.35 6.3" fill="url(#gradient15)" fill-rule="evenodd" stroke="none"/>
  </g>
  <defs>
    <linearGradient gradientTransform="matrix(0.0191, 0.0263, -0.0526, 0.0383, -4.75, -13.7)" gradientUnits="userSpaceOnUse" id="gradient0" spreadMethod="pad" x1="-819.2" x2="819.2">
      <stop offset="0.0" stop-color="#6b6136"/>
      <stop offset="1.0" stop-color="#221d09"/>
    </linearGradient>
    <linearGradient gradientTransform="matrix(0.0417, 0.0417, -0.0443, 0.0443, -8.15, -19.65)" gradientUnits="userSpaceOnUse" id="gradient1" spreadMethod="pad" x1="-819.2" x2="819.2">
      <stop offset="0.0" stop-color="#99884c"/>
      <stop offset="1.0" stop-color="#3d330e"/>
    </linearGradient>
    <linearGradient gradientTransform="matrix(0.0119, 0.029, -0.0252, 0.0103, -46.95, -62.9)" gradientUnits="userSpaceOnUse" id="gradient2" spreadMethod="pad" x1="-819.2" x2="819.2">
      <stop offset="0.0" stop-color="#6b6136"/>
      <stop offset="1.0" stop-color="#221d09"/>
    </linearGradient>
    <linearGradient gradientTransform="matrix(0.0242, 0.0242, -0.0244, 0.0244, -47.2, -63.2)" gradientUnits="userSpaceOnUse" id="gradient3" spreadMethod="pad" x1="-819.2" x2="819.2">
      <stop offset="0.0" stop-color="#99884c"/>
      <stop offset="1.0" stop-color="#3d330e"/>
    </linearGradient>
    <linearGradient gradientTransform="matrix(0.0195, 0.0256, -0.0502, 0.0383, 9.0, -71.65)" gradientUnits="userSpaceOnUse" id="gradient4" spreadMethod="pad" x1="-819.2" x2="819.2">
      <stop offset="0.0" stop-color="#6b6136"/>
      <stop offset="1.0" stop-color="#221d09"/>
    </linearGradient>
    <linearGradient gradientTransform="matrix(0.0409, 0.0409, -0.0434, 0.0434, 10.95, -67.95)" gradientUnits="userSpaceOnUse" id="gradient5" spreadMethod="pad" x1="-819.2" x2="819.2">
      <stop offset="0.0" stop-color="#99884c"/>
      <stop offset="1.0" stop-color="#3d330e"/>
    </linearGradient>
    <linearGradient gradientTransform="matrix(0.0133, 0.0317, -0.0268, 0.0113, 47.7, -17.7)" gradientUnits="userSpaceOnUse" id="gradient6" spreadMethod="pad" x1="-819.2" x2="819.2">
      <stop offset="0.0" stop-color="#6b6136"/>
      <stop offset="1.0" stop-color="#221d09"/>
    </linearGradient>
    <linearGradient gradientTransform="matrix(0.0246, 0.0246, -0.026, 0.026, 48.5, -18.8)" gradientUnits="userSpaceOnUse" id="gradient7" spreadMethod="pad" x1="-819.2" x2="819.2">
      <stop offset="0.0" stop-color="#99884c"/>
      <stop offset="1.0" stop-color="#3d330e"/>
    </linearGradient>
    <linearGradient gradientTransform="matrix(0.0174, 0.0301, -0.0536, 0.031, 5.6, 17.25)" gradientUnits="userSpaceOnUse" id="gradient8" spreadMethod="pad" x1="-819.2" x2="819.2">
      <stop offset="0.0" stop-color="#6b6136"/>
      <stop offset="1.0" stop-color="#221d09"/>
    </linearGradient>
    <linearGradient gradientTransform="matrix(0.0442, 0.0442, -0.0418, 0.0418, 8.2, 26.8)" gradientUnits="userSpaceOnUse" id="gradient9" spreadMethod="pad" x1="-819.2" x2="819.2">
      <stop offset="0.0" stop-color="#99884c"/>
      <stop offset="1.0" stop-color="#3d330e"/>
    </linearGradient>
    <linearGradient gradientTransform="matrix(0.0114, 0.0197, -0.0227, 0.0131, 47.1, 68.0)" gradientUnits="userSpaceOnUse" id="gradient10" spreadMethod="pad" x1="-819.2" x2="819.2">
      <stop offset="0.0" stop-color="#6b6136"/>
      <stop offset="1.0" stop-color="#221d09"/>
    </linearGradient>
    <linearGradient gradientTransform="matrix(0.021, 0.021, -0.0206, 0.0206, 47.15, 68.45)" gradientUnits="userSpaceOnUse" id="gradient11" spreadMethod="pad" x1="-819.2" x2="819.2">
      <stop offset="0.0" stop-color="#99884c"/>
      <stop offset="1.0" stop-color="#3d330e"/>
    </linearGradient>
    <linearGradient gradientTransform="matrix(0.0106, 0.0184, -0.0518, 0.03, -12.65, 74.0)" gradientUnits="userSpaceOnUse" id="gradient12" spreadMethod="pad" x1="-819.2" x2="819.2">
      <stop offset="0.0" stop-color="#6b6136"/>
      <stop offset="1.0" stop-color="#221d09"/>
    </linearGradient>
    <linearGradient gradientTransform="matrix(0.038, 0.038, -0.0396, 0.0396, -11.15, 73.85)" gradientUnits="userSpaceOnUse" id="gradient13" spreadMethod="pad" x1="-819.2" x2="819.2">
      <stop offset="0.0" stop-color="#99884c"/>
      <stop offset="1.0" stop-color="#3d330e"/>
    </linearGradient>
    <linearGradient gradientTransform="matrix(0.018, 0.0312, -0.0245, 0.0142, -49.55, 32.3)" gradientUnits="userSpaceOnUse" id="gradient14" spreadMethod="pad" x1="-819.2" x2="819.2">
      <stop offset="0.0" stop-color="#6b6136"/>
      <stop offset="1.0" stop-color="#221d09"/>
    </linearGradient>
    <linearGradient gradientTransform="matrix(0.0264, 0.0264, -0.0238, 0.0238, -48.65, 32.85)" gradientUnits="userSpaceOnUse" id="gradient15" spreadMethod="pad" x1="-819.2" x2="819.2">
      <stop offset="0.0" stop-color="#99884c"/>
      <stop offset="1.0" stop-color="#3d330e"/>
    </linearGradient>
  </defs>
</svg>
