<?xml version="1.0" encoding="UTF-8" standalone="no"?>
<svg xmlns:ffdec="https://www.free-decompiler.com/flash" xmlns:xlink="http://www.w3.org/1999/xlink" ffdec:objectType="shape" height="47.1px" width="41.05px" xmlns="http://www.w3.org/2000/svg">
  <g transform="matrix(1.0, 0.0, 0.0, 1.0, 21.15, 0.0)">
    <path d="M10.35 0.0 Q11.65 5.4 10.1 10.55 L9.95 11.5 9.95 12.5 9.45 12.5 Q9.8 6.1 9.15 0.0 L10.35 0.0" fill="#909fd1" fill-opacity="0.8980392" fill-rule="evenodd" stroke="none"/>
    <path d="M-9.85 0.0 L9.15 0.0 Q9.8 6.1 9.45 12.5 L9.95 12.5 10.0 13.5 Q10.35 18.9 6.95 20.5 L6.0 20.65 Q2.9 21.5 0.95 16.5 L0.95 16.0 Q-9.4 17.05 -12.05 10.5 L-12.05 9.5 -12.05 8.5 Q-9.0 6.25 -9.85 0.0" fill="#fafbfd" fill-opacity="0.99607843" fill-rule="evenodd" stroke="none"/>
    <path d="M6.95 20.5 L6.7 21.2 Q1.1 25.75 0.95 16.5 2.9 21.5 6.0 20.65 L6.95 20.5" fill="#9dabda" fill-opacity="0.92941177" fill-rule="evenodd" stroke="none"/>
    <path d="M-13.5 0.0 L-11.55 0.0 Q-9.4 4.6 -13.05 7.5 L-13.05 8.5 -14.05 8.5 -14.05 7.5 -14.05 6.5 -13.8 5.75 Q-10.75 2.75 -13.5 0.0" fill="#2e3d70" fill-opacity="0.52156866" fill-rule="evenodd" stroke="none"/>
    <path d="M-12.05 20.5 Q-12.05 21.0 -12.3 21.25 L-13.05 21.5 Q-13.75 24.7 -12.0 25.35 L-11.05 25.5 -9.05 25.5 -8.05 25.5 Q-8.05 26.0 -8.2 26.05 -11.05 27.0 -14.05 27.5 L-14.05 26.5 -14.05 20.5 -13.05 20.5 -12.05 20.5" fill="#7f90c6" fill-opacity="0.8627451" fill-rule="evenodd" stroke="none"/>
    <path d="M-13.05 10.5 Q-8.2 17.2 -11.8 19.85 L-12.05 20.5 -13.05 20.5 -14.05 20.5 -13.95 19.55 Q-12.8 15.25 -14.05 8.5 L-13.05 8.5 -13.05 9.5 -13.05 10.5" fill="#6476b0" fill-opacity="0.78431374" fill-rule="evenodd" stroke="none"/>
    <path d="M-6.05 17.5 Q-3.6 24.15 -1.3 26.7 -1.05 27.0 -1.05 27.5 L-1.2 28.35 -1.25 28.4 Q-2.25 30.8 -4.45 29.65 L-6.05 28.5 -5.95 27.5 Q-5.4 24.85 -8.05 25.5 L-8.05 24.5 Q-6.35 24.2 -6.95 21.5 L-7.05 20.5 Q-7.05 20.0 -7.2 19.55 L-8.05 17.5 -7.05 17.5 -6.05 17.5" fill="#96a5d5" fill-opacity="0.9098039" fill-rule="evenodd" stroke="none"/>
    <path d="M-5.05 18.5 Q3.4 20.6 -4.95 19.0 L-5.05 18.5" fill="#3b4c85" fill-opacity="0.6117647" fill-rule="evenodd" stroke="none"/>
    <path d="M-11.05 25.5 L-11.15 24.95 Q-12.65 24.65 -12.05 22.5 -10.3 18.8 -7.9 20.3 L-7.05 20.5 -6.95 21.5 Q-6.35 24.2 -8.05 24.5 L-8.05 25.5 -9.05 25.5 -11.05 25.5" fill="#f7f8fc" fill-opacity="0.99607843" fill-rule="evenodd" stroke="none"/>
    <path d="M-16.05 14.5 L-16.55 14.5 -16.05 12.05 -16.05 13.5 -16.05 14.5 M-15.75 8.5 Q-15.75 2.9 -19.35 0.0 L-13.5 0.0 Q-10.75 2.75 -13.8 5.75 L-14.05 6.5 -14.55 6.5 Q-14.4 8.45 -15.75 8.5" fill="#0f1834" fill-opacity="0.24705882" fill-rule="evenodd" stroke="none"/>
    <path d="M-16.05 29.5 Q-16.05 29.0 -16.2 28.55 -17.35 25.3 -17.05 20.5 -13.85 18.25 -15.8 15.35 L-16.05 14.5 -16.05 13.5 -16.05 12.05 -16.05 8.5 -15.75 8.5 Q-14.4 8.45 -14.55 6.5 L-14.05 6.5 -14.05 7.5 -14.05 8.5 Q-12.8 15.25 -13.95 19.55 L-14.05 20.5 -14.55 20.5 Q-14.3 26.25 -16.05 29.5" fill="#212e5a" fill-opacity="0.41960785" fill-rule="evenodd" stroke="none"/>
    <path d="M-17.05 30.5 L-16.3 30.25 -16.05 29.5 Q-14.3 26.25 -14.55 20.5 L-14.05 20.5 -14.05 26.5 -14.05 27.5 -14.0 28.5 Q-13.85 31.2 -16.05 31.5 L-16.05 33.5 -16.05 34.5 -17.05 34.5 -19.05 34.5 -19.05 33.5 Q-17.35 33.2 -17.1 31.5 L-17.05 30.5" fill="#35457a" fill-opacity="0.56078434" fill-rule="evenodd" stroke="none"/>
    <path d="M-0.05 28.1 L-0.1 28.5 Q-0.85 35.5 -6.05 30.5 L-6.05 29.5 -6.05 28.5 -7.0 28.65 Q-10.6 29.95 -16.05 34.5 L-16.05 33.5 -16.05 31.5 Q-13.85 31.2 -14.0 28.5 L-14.05 27.5 Q-11.05 27.0 -8.2 26.05 -8.05 26.0 -8.05 25.5 -5.4 24.85 -5.95 27.5 L-6.05 28.5 -4.45 29.65 Q-2.25 30.8 -1.25 28.4 L-1.2 28.35 -1.05 27.5 -0.05 27.5 -0.05 28.1" fill="#495b96" fill-opacity="0.68235296" fill-rule="evenodd" stroke="none"/>
    <path d="M-15.05 38.5 Q-15.05 39.0 -15.2 39.05 -22.0 40.95 -21.05 34.5 L-17.75 30.75 Q-17.55 30.5 -17.05 30.5 L-17.1 31.5 Q-17.35 33.2 -19.05 33.5 L-19.05 34.5 Q-20.25 39.2 -16.05 38.55 L-15.05 38.5" fill="#1a264c" fill-opacity="0.35686275" fill-rule="evenodd" stroke="none"/>
    <path d="M-16.05 34.5 Q-16.0 36.45 -15.3 37.65 -15.05 38.0 -15.05 38.5 L-16.05 38.55 Q-20.25 39.2 -19.05 34.5 L-17.05 34.5 -16.05 34.5" fill="#4b5d99" fill-opacity="0.69411767" fill-rule="evenodd" stroke="none"/>
    <path d="M-3.6 39.8 Q-3.2 40.1 -3.65 39.85 L-8.85 37.1 -9.05 36.5 Q-4.5 39.2 -3.6 39.8" fill="#37487f" fill-opacity="0.58431375" fill-rule="evenodd" stroke="none"/>
    <path d="M10.95 17.5 Q13.75 8.85 12.55 0.0 L19.9 0.0 19.7 0.35 Q14.1 8.15 11.95 19.5 L12.15 20.4 Q23.05 40.95 9.95 32.5 L9.95 34.5 9.95 35.5 9.45 35.45 Q9.05 32.15 7.15 32.45 5.35 27.05 -0.05 28.1 L-0.05 27.5 Q2.7 25.25 6.95 24.6 L7.95 24.5 Q14.85 34.85 10.5 21.65 10.45 21.5 9.95 21.5 L9.95 20.5 9.95 19.5 10.75 18.4 10.95 17.5 M10.95 36.5 L11.45 36.55 Q13.35 49.6 7.95 46.5 L7.45 46.5 8.0 39.6 Q9.2 39.7 10.7 37.35 L10.95 36.5" fill="#192449" fill-opacity="0.34509805" fill-rule="evenodd" stroke="none"/>
    <path d="M10.35 0.0 L12.55 0.0 Q13.75 8.85 10.95 17.5 L11.05 16.5 Q11.65 12.8 9.95 11.5 L10.1 10.55 Q11.65 5.4 10.35 0.0" fill="#42548d" fill-opacity="0.64705884" fill-rule="evenodd" stroke="none"/>
    <path d="M9.95 11.5 Q11.65 12.8 11.05 16.5 L10.95 17.5 10.75 18.4 9.95 19.5 9.95 20.5 9.95 21.5 10.05 22.5 Q10.6 25.15 7.95 24.5 L6.95 24.6 Q2.7 25.25 -0.05 27.5 L-1.05 27.5 Q-1.05 27.0 -1.3 26.7 -3.6 24.15 -6.05 17.5 L-6.05 16.5 -0.05 16.5 0.95 16.5 Q1.1 25.75 6.7 21.2 L6.95 20.5 Q10.35 18.9 10.0 13.5 L9.95 12.5 9.95 11.5 M-5.05 18.5 L-4.95 19.0 Q3.4 20.6 -5.05 18.5" fill="#5f71ac" fill-opacity="0.76862746" fill-rule="evenodd" stroke="none"/>
    <path d="M7.95 24.5 Q10.6 25.15 10.05 22.5 L9.95 21.5 Q10.45 21.5 10.5 21.65 14.85 34.85 7.95 24.5" fill="#36477f" fill-opacity="0.58431375" fill-rule="evenodd" stroke="none"/>
    <path d="M9.95 35.5 Q9.95 36.0 10.2 36.25 L10.95 36.5 10.7 37.35 Q9.2 39.7 8.0 39.6 6.15 39.4 4.95 33.5 6.2 32.55 7.15 32.45 9.05 32.15 9.45 35.45 L9.95 35.5" fill="#475993" fill-opacity="0.67058825" fill-rule="evenodd" stroke="none"/>
    <path d="M-11.55 0.0 L-9.85 0.0 Q-9.0 6.25 -12.05 8.5 L-12.05 9.5 -12.05 10.5 -13.05 10.5 -13.05 9.5 -13.05 8.5 -13.05 7.5 Q-9.4 4.6 -11.55 0.0" fill="#798ac2" fill-opacity="0.84705883" fill-rule="evenodd" stroke="none"/>
    <path d="M0.95 16.5 L-0.05 16.5 -6.05 16.5 -6.05 17.5 -7.05 17.5 -8.05 17.5 -7.2 19.55 Q-7.05 20.0 -7.05 20.5 L-7.9 20.3 Q-10.3 18.8 -12.05 22.5 -12.65 24.65 -11.15 24.95 L-11.05 25.5 -12.0 25.35 Q-13.75 24.7 -13.05 21.5 L-12.3 21.25 Q-12.05 21.0 -12.05 20.5 L-11.8 19.85 Q-8.2 17.2 -13.05 10.5 L-12.05 10.5 Q-9.4 17.05 0.95 16.0 L0.95 16.5" fill="#bbc5e8" fill-opacity="0.9647059" fill-rule="evenodd" stroke="none"/>
    <path d="M-6.05 30.5 L-6.55 30.5 Q-2.0 37.6 -3.6 39.8 -4.5 39.2 -9.05 36.5 L-8.85 37.1 -3.65 39.85 Q-5.6 42.15 -15.05 38.5 -15.05 38.0 -15.3 37.65 -16.0 36.45 -16.05 34.5 -10.6 29.95 -7.0 28.65 L-6.05 28.5 -6.05 29.5 -6.05 30.5" fill="#1a264d" fill-opacity="0.3647059" fill-rule="evenodd" stroke="none"/>
  </g>
</svg>
