<?xml version="1.0" encoding="UTF-8" standalone="no"?>
<svg xmlns:ffdec="https://www.free-decompiler.com/flash" xmlns:xlink="http://www.w3.org/1999/xlink" ffdec:objectType="shape" height="45.05px" width="40.25px" xmlns="http://www.w3.org/2000/svg">
  <g transform="matrix(1.0, 0.0, 0.0, 1.0, 21.3, 0.0)">
    <path d="M11.15 0.0 L18.9 0.0 18.7 0.35 Q7.55 18.15 18.95 38.5 L18.15 38.25 Q12.0 32.75 6.4 31.1 13.8 27.35 11.1 20.45 L10.95 19.5 11.45 19.4 Q13.8 8.1 11.15 0.0" fill="#19254a" fill-opacity="0.34901962" fill-rule="evenodd" stroke="none"/>
    <path d="M11.15 0.0 Q13.8 8.1 11.45 19.4 L10.95 19.5 10.95 18.5 11.05 17.5 Q11.55 14.85 10.5 13.85 12.3 12.75 11.45 4.05 L10.95 4.0 10.75 4.0 10.25 0.0 11.15 0.0" fill="#455691" fill-opacity="0.65882355" fill-rule="evenodd" stroke="none"/>
    <path d="M9.05 0.0 L10.25 0.0 10.75 4.0 10.45 3.9 Q10.1 2.25 9.15 1.3 L9.05 0.0" fill="#8798cc" fill-opacity="0.8862745" fill-rule="evenodd" stroke="none"/>
    <path d="M-10.75 0.0 L5.9 0.0 5.05 0.2 3.95 1.0 Q4.6 5.35 7.2 7.75 L7.95 8.0 Q7.95 8.5 8.2 8.85 L8.6 9.55 8.15 9.75 Q-7.05 22.5 -9.6 5.5 -9.5 3.75 -9.95 1.5 L-10.0 0.95 -10.05 0.5 -10.65 0.3 -10.75 0.0 M5.95 0.0 L9.05 0.0 9.15 1.3 Q7.95 0.15 5.95 0.0" fill="#fcfdfe" fill-opacity="0.99607843" fill-rule="evenodd" stroke="none"/>
    <path d="M10.5 13.85 Q11.55 14.85 11.05 17.5 L10.95 18.5 9.95 18.5 9.8 17.55 Q7.9 10.55 0.95 14.5 3.85 17.6 5.4 22.35 L5.95 22.5 5.85 23.05 Q4.0 23.45 2.95 22.5 L2.95 21.5 2.95 20.5 2.8 19.95 1.4 19.55 -3.1 18.3 -13.05 15.5 -13.05 14.5 -13.05 10.5 Q-9.8 9.55 -9.6 5.5 -7.05 22.5 8.15 9.75 L8.6 9.55 Q9.4 11.3 6.95 12.0 9.3 14.6 10.5 13.85" fill="#d7def2" fill-opacity="0.98039216" fill-rule="evenodd" stroke="none"/>
    <path d="M10.95 19.5 L11.1 20.45 Q13.8 27.35 6.4 31.1 3.45 32.55 -1.05 33.5 L-0.95 32.5 -0.8 30.55 Q-0.95 29.0 -2.05 28.5 L-1.9 27.55 Q-0.6 22.8 -6.05 27.5 -6.05 29.0 -5.6 30.35 L-5.05 30.5 -5.05 31.5 -5.05 31.95 -5.05 32.5 -6.05 32.5 -6.25 31.6 -7.05 30.5 Q-7.05 30.0 -7.2 29.95 L-10.05 29.5 -10.05 28.5 -10.05 27.5 Q-9.05 27.5 -8.25 27.1 -8.05 27.0 -8.05 26.5 L-7.25 25.4 -7.05 24.5 -7.05 23.5 -7.05 19.5 Q-4.95 18.4 -3.1 18.3 L1.4 19.55 2.2 20.25 2.95 20.5 2.95 21.5 2.95 22.5 1.95 22.5 Q4.75 28.45 9.75 19.4 L9.95 18.5 10.95 18.5 10.95 19.5 M-6.05 20.5 L-6.0 21.0 Q5.6 22.6 -6.05 20.5" fill="#4a5c97" fill-opacity="0.6862745" fill-rule="evenodd" stroke="none"/>
    <path d="M5.95 22.5 L5.4 22.35 Q3.85 17.6 0.95 14.5 7.9 10.55 9.8 17.55 L9.95 18.5 9.35 18.7 Q8.25 21.3 5.95 22.5" fill="#fcfcfe" fill-opacity="0.99607843" fill-rule="evenodd" stroke="none"/>
    <path d="M9.95 18.5 L9.75 19.4 Q4.75 28.45 1.95 22.5 L2.95 22.5 Q4.0 23.45 5.85 23.05 L5.95 22.5 Q8.25 21.3 9.35 18.7 L9.95 18.5" fill="#8b9ace" fill-opacity="0.8901961" fill-rule="evenodd" stroke="none"/>
    <path d="M5.9 0.0 L5.95 0.0 5.75 0.9 4.95 2.0 Q7.1 3.85 7.85 7.0 L7.95 8.0 7.2 7.75 Q4.6 5.35 3.95 1.0 L5.05 0.2 5.9 0.0" fill="#1a264d" fill-opacity="0.3647059" fill-rule="evenodd" stroke="none"/>
    <path d="M10.75 4.0 L10.95 4.0 11.05 5.0 Q11.45 6.85 10.75 7.6 10.3 8.15 9.4 8.2 L7.95 8.0 7.85 7.0 Q7.1 3.85 4.95 2.0 L5.75 0.9 5.95 0.0 Q7.95 0.15 9.15 1.3 10.1 2.25 10.45 3.9 L10.75 4.0" fill="#3e5089" fill-opacity="0.627451" fill-rule="evenodd" stroke="none"/>
    <path d="M10.95 4.0 L11.45 4.05 Q12.3 12.75 10.5 13.85 9.3 14.6 6.95 12.0 9.4 11.3 8.6 9.55 L8.2 8.85 Q7.95 8.5 7.95 8.0 L9.4 8.2 Q10.3 8.15 10.75 7.6 11.45 6.85 11.05 5.0 L10.95 4.0" fill="#151f42" fill-opacity="0.3137255" fill-rule="evenodd" stroke="none"/>
    <path d="M-12.05 0.0 L-10.75 0.0 -10.65 0.3 -10.05 0.5 -10.0 0.95 -9.95 1.5 Q-9.5 3.75 -9.6 5.5 -9.8 9.55 -13.05 10.5 L-13.05 14.5 -13.05 15.5 -14.05 15.5 -14.55 15.4 Q-15.05 13.0 -15.05 10.5 -9.25 7.8 -11.85 1.45 L-12.05 0.5 -12.05 0.0" fill="#6577b1" fill-opacity="0.78431374" fill-rule="evenodd" stroke="none"/>
    <path d="M-13.1 0.0 L-12.05 0.0 -12.05 0.5 -13.05 0.5 -13.1 0.0" fill="#2c3c6f" fill-opacity="0.5176471" fill-rule="evenodd" stroke="none"/>
    <path d="M-7.05 30.5 L-8.05 30.5 -10.05 30.5 -10.05 34.5 -10.05 35.5 -10.55 35.5 Q-10.4 37.65 -12.05 37.5 L-12.05 38.5 -12.05 39.5 -12.9 39.25 Q-14.85 37.95 -16.05 40.5 L-16.1 39.5 Q-16.35 36.8 -19.05 36.5 L-19.05 35.5 Q-17.35 35.2 -17.1 33.5 L-17.05 32.5 -16.95 31.5 Q-15.2 21.7 -17.05 9.5 L-16.05 9.5 Q-10.85 6.85 -12.9 1.45 L-13.05 0.5 -12.05 0.5 -11.85 1.45 Q-9.25 7.8 -15.05 10.5 -15.05 13.0 -14.55 15.4 L-14.05 15.5 -13.85 16.35 Q-11.45 20.45 -15.05 22.5 L-15.05 23.5 Q-16.15 31.9 -10.95 29.7 L-10.05 29.5 -7.2 29.95 Q-7.05 30.0 -7.05 30.5 M-17.05 35.0 Q-7.15 32.05 -17.05 34.5 L-17.05 35.0" fill="#202d58" fill-opacity="0.41568628" fill-rule="evenodd" stroke="none"/>
    <path d="M-16.05 9.5 L-15.85 8.6 Q-13.8 4.25 -19.35 0.0 L-13.1 0.0 -13.05 0.5 -12.9 1.45 Q-10.85 6.85 -16.05 9.5" fill="#0f1834" fill-opacity="0.24705882" fill-rule="evenodd" stroke="none"/>
    <path d="M2.95 20.5 L2.2 20.25 1.4 19.55 2.8 19.95 2.95 20.5 M-3.1 18.3 Q-4.95 18.4 -7.05 19.5 L-7.05 23.5 -7.05 24.5 -7.55 24.5 Q-7.15 21.1 -10.05 21.5 L-11.05 21.5 -12.05 21.5 -11.8 20.65 Q-10.05 17.95 -13.05 15.5 L-3.1 18.3" fill="#8898cd" fill-opacity="0.8901961" fill-rule="evenodd" stroke="none"/>
    <path d="M-14.05 15.5 L-13.05 15.5 Q-10.05 17.95 -11.8 20.65 L-12.05 21.5 Q-12.05 22.0 -12.3 22.25 L-13.05 22.5 -13.05 23.5 -14.05 23.5 -15.05 23.5 -15.05 22.5 Q-11.45 20.45 -13.85 16.35 L-14.05 15.5 M-17.05 35.0 L-17.05 34.5 Q-7.15 32.05 -17.05 35.0" fill="#485a95" fill-opacity="0.6784314" fill-rule="evenodd" stroke="none"/>
    <path d="M-8.05 26.5 Q-8.05 27.0 -8.25 27.1 -9.05 27.5 -10.05 27.5 L-10.05 28.5 -11.05 28.55 Q-15.25 29.2 -14.05 24.5 L-13.3 24.25 -13.05 23.5 -13.05 22.5 -12.3 22.25 Q-12.05 22.0 -12.05 21.5 L-11.05 21.5 -10.05 21.5 -10.25 22.4 -12.05 25.5 Q-11.75 27.2 -9.05 26.6 L-8.05 26.5" fill="#a5b2dd" fill-opacity="0.93333334" fill-rule="evenodd" stroke="none"/>
    <path d="M-7.05 24.5 L-7.25 25.4 -8.05 26.5 -9.05 26.6 Q-11.75 27.2 -12.05 25.5 L-10.25 22.4 -10.05 21.5 Q-7.15 21.1 -7.55 24.5 L-7.05 24.5" fill="#eaedf8" fill-opacity="0.99215686" fill-rule="evenodd" stroke="none"/>
    <path d="M-6.05 20.5 Q5.6 22.6 -6.0 21.0 L-6.05 20.5" fill="#2b3a6d" fill-opacity="0.50980395" fill-rule="evenodd" stroke="none"/>
    <path d="M-10.05 28.5 L-10.05 29.5 -10.95 29.7 Q-16.15 31.9 -15.05 23.5 L-14.05 23.5 -13.05 23.5 -13.3 24.25 -14.05 24.5 Q-15.25 29.2 -11.05 28.55 L-10.05 28.5" fill="#586aa6" fill-opacity="0.7490196" fill-rule="evenodd" stroke="none"/>
    <path d="M-16.05 40.5 L-16.15 41.0 Q-22.5 42.45 -21.05 35.5 -18.9 34.65 -17.7 32.7 L-17.05 32.5 -17.1 33.5 Q-17.35 35.2 -19.05 35.5 L-19.05 36.5 -20.05 36.5 Q-20.75 40.7 -17.05 40.5 L-16.05 40.5" fill="#162043" fill-opacity="0.31764707" fill-rule="evenodd" stroke="none"/>
    <path d="M-16.05 40.5 L-17.05 40.5 Q-20.75 40.7 -20.05 36.5 L-19.05 36.5 Q-16.35 36.8 -16.1 39.5 L-16.05 40.5" fill="#3b4c85" fill-opacity="0.6117647" fill-rule="evenodd" stroke="none"/>
    <path d="M-5.05 30.5 L-5.6 30.35 Q-6.05 29.0 -6.05 27.5 -0.6 22.8 -1.9 27.55 L-2.05 28.5 -2.1 29.5 -2.4 30.9 Q-2.8 31.8 -3.8 31.4 L-5.05 30.5" fill="#94a3d4" fill-opacity="0.9098039" fill-rule="evenodd" stroke="none"/>
    <path d="M-1.05 33.5 L-1.15 34.0 Q-4.25 34.7 -5.05 32.5 L-5.05 31.95 -5.05 31.5 -5.05 30.5 -3.8 31.4 Q-2.8 31.8 -2.4 30.9 L-2.1 29.5 -2.05 28.5 Q-0.95 29.0 -0.8 30.55 L-0.95 32.5 -1.05 33.5" fill="#5a6da8" fill-opacity="0.75686276" fill-rule="evenodd" stroke="none"/>
    <path d="M-10.05 35.5 L-6.25 37.9 Q-6.05 38.0 -6.05 38.5 L-7.05 38.5 -9.05 38.5 Q-8.65 43.6 -4.05 44.4 L-3.05 44.5 -3.1 45.0 Q-10.5 45.45 -12.05 39.5 L-12.05 38.5 -12.05 37.5 Q-10.4 37.65 -10.55 35.5 L-10.05 35.5" fill="#131d3d" fill-opacity="0.2901961" fill-rule="evenodd" stroke="none"/>
    <path d="M-3.05 44.5 L-4.05 44.4 Q-8.65 43.6 -9.05 38.5 L-7.05 38.5 -6.05 38.5 Q-1.9 40.85 -2.9 43.55 L-3.05 44.5" fill="#2d3d71" fill-opacity="0.52156866" fill-rule="evenodd" stroke="none"/>
    <path d="M-6.05 38.5 Q2.1 39.55 -2.3 44.25 L-3.05 44.5 -2.9 43.55 Q-1.9 40.85 -6.05 38.5" fill="#141e3f" fill-opacity="0.3019608" fill-rule="evenodd" stroke="none"/>
  </g>
</svg>
