<?xml version="1.0" encoding="UTF-8" standalone="no"?>
<svg xmlns:ffdec="https://www.free-decompiler.com/flash" xmlns:xlink="http://www.w3.org/1999/xlink" ffdec:objectType="shape" height="47.15px" width="41.3px" xmlns="http://www.w3.org/2000/svg">
  <g transform="matrix(1.0, 0.0, 0.0, 1.0, 22.05, 0.0)">
    <path d="M16.9 0.0 L16.7 0.35 Q15.0 3.05 11.95 4.5 12.45 5.5 13.2 6.25 L13.95 6.5 14.1 7.45 Q17.5 16.85 11.95 25.5 11.95 25.0 12.2 24.7 14.4 22.0 11.95 19.5 L12.15 18.6 Q15.3 11.05 10.95 6.5 L10.85 6.5 10.1 4.05 10.0 3.55 9.95 2.5 11.95 0.0 16.9 0.0" fill="#1a264d" fill-opacity="0.3647059" fill-rule="evenodd" stroke="none"/>
    <path d="M16.9 0.0 L19.0 0.0 19.1 0.45 Q20.15 4.2 13.95 5.5 L13.95 6.5 13.2 6.25 Q12.45 5.5 11.95 4.5 15.0 3.05 16.7 0.35 L16.9 0.0" fill="#0d152f" fill-opacity="0.22352941" fill-rule="evenodd" stroke="none"/>
    <path d="M9.4 0.0 L11.95 0.0 9.95 2.5 10.0 3.55 9.95 3.1 9.85 2.1 Q9.6 0.85 9.1 0.35 L9.4 0.0 M10.85 6.5 L10.95 6.5 10.95 6.95 10.85 6.5 M10.95 8.75 L10.95 9.5 Q10.45 9.5 10.3 9.3 L10.0 8.8 10.95 8.75" fill="#697bb5" fill-opacity="0.8" fill-rule="evenodd" stroke="none"/>
    <path d="M-11.0 0.0 L-3.0 0.0 -6.05 0.4 -6.05 0.9 -2.45 0.0 8.0 0.0 Q7.15 0.1 5.95 1.1 L5.95 4.1 5.95 5.1 Q8.75 8.15 10.0 8.8 L10.3 9.3 Q10.45 9.5 10.95 9.5 L10.7 10.35 Q6.25 16.45 -2.05 13.5 L-2.05 14.5 -2.05 15.5 -2.55 15.55 Q-2.85 18.2 -5.05 18.5 L-5.9 18.25 Q-10.55 15.0 -11.0 0.0 M8.45 0.0 L9.4 0.0 9.1 0.35 Q8.8 0.05 8.45 0.0" fill="#f8f9fd" fill-opacity="0.99607843" fill-rule="evenodd" stroke="none"/>
    <path d="M10.95 9.5 L11.45 9.6 Q12.75 15.3 8.95 16.5 9.25 18.7 11.0 19.35 L11.95 19.5 12.05 20.5 Q12.65 23.2 10.95 23.5 L11.05 22.55 Q11.6 20.4 9.95 20.5 L9.85 19.95 Q6.0 19.05 3.95 20.5 L3.95 21.5 2.95 21.5 0.95 21.5 0.8 20.55 Q0.35 19.55 -2.05 15.5 L-2.05 14.5 -2.05 13.5 Q6.25 16.45 10.7 10.35 L10.95 9.5 M-1.05 14.5 L-0.9 15.05 Q12.6 19.7 -1.05 14.5" fill="#8495ca" fill-opacity="0.8784314" fill-rule="evenodd" stroke="none"/>
    <path d="M10.95 6.5 Q15.3 11.05 12.15 18.6 L11.95 19.5 11.0 19.35 Q9.25 18.7 8.95 16.5 12.75 15.3 11.45 9.6 L10.95 9.5 10.95 8.75 Q11.25 8.3 10.95 6.95 L10.95 6.5" fill="#475993" fill-opacity="0.67058825" fill-rule="evenodd" stroke="none"/>
    <path d="M9.95 24.5 L9.7 25.25 Q8.15 26.7 6.95 28.5 L6.95 29.5 6.35 29.3 5.95 28.35 5.6 27.4 Q4.6 24.6 3.95 21.5 L3.95 20.5 Q6.0 19.05 9.85 19.95 L9.95 20.5 8.95 20.5 5.95 20.5 Q4.9 30.1 9.25 24.75 9.45 24.5 9.95 24.5" fill="#aebae2" fill-opacity="0.9490196" fill-rule="evenodd" stroke="none"/>
    <path d="M10.95 23.5 L10.7 24.25 9.95 24.5 Q9.45 24.5 9.25 24.75 4.9 30.1 5.95 20.5 L8.95 20.5 9.95 20.5 Q11.6 20.4 11.05 22.55 L10.95 23.5" fill="#e5e9f7" fill-opacity="0.99215686" fill-rule="evenodd" stroke="none"/>
    <path d="M11.95 19.5 Q14.4 22.0 12.2 24.7 11.95 25.0 11.95 25.5 11.45 25.5 11.4 25.65 10.2 29.25 6.95 30.5 L6.95 29.5 6.95 28.5 Q8.15 26.7 9.7 25.25 L9.95 24.5 10.7 24.25 10.95 23.5 Q12.65 23.2 12.05 20.5 L11.95 19.5" fill="#4b5d97" fill-opacity="0.6862745" fill-rule="evenodd" stroke="none"/>
    <path d="M11.95 25.5 L12.15 26.4 Q15.9 32.9 12.95 38.5 L12.95 38.0 -1.45 37.45 Q-1.05 35.05 -1.05 30.5 L-1.05 29.5 Q-0.55 29.5 -0.35 29.25 0.55 28.25 0.75 27.5 4.9 30.2 6.95 31.0 L6.95 30.5 Q10.2 29.25 11.4 25.65 11.45 25.5 11.95 25.5 M-4.9 37.25 L-13.05 36.5 -14.05 36.5 -16.05 36.5 -16.8 36.25 -17.05 35.5 -16.05 35.5 -15.05 35.5 Q-11.1 34.95 -8.3 33.15 -8.05 33.0 -8.05 32.5 L-8.05 31.5 -8.05 27.5 -8.05 26.5 -8.05 24.5 -6.0 23.65 -5.05 23.5 -2.3 25.45 -6.05 25.5 Q-6.75 28.7 -5.0 29.35 L-4.05 29.5 -4.15 30.5 Q-4.7 32.85 -6.05 34.5 L-4.9 37.25" fill="#1c2951" fill-opacity="0.38039216" fill-rule="evenodd" stroke="none"/>
    <path d="M6.95 29.5 L6.95 30.5 6.45 30.4 5.95 28.35 6.35 29.3 6.95 29.5 M5.6 27.4 Q3.2 21.9 -4.05 23.5 L-4.05 22.5 -3.05 22.5 Q-0.35 23.2 0.35 21.7 L0.95 21.5 2.95 21.5 3.95 21.5 Q4.6 24.6 5.6 27.4" fill="#6d7fba" fill-opacity="0.8235294" fill-rule="evenodd" stroke="none"/>
    <path d="M6.95 30.5 L6.95 31.0 Q4.9 30.2 0.75 27.5 L-2.3 25.45 -5.05 23.5 -4.05 23.5 Q3.2 21.9 5.6 27.4 L5.95 28.35 6.45 30.4 6.95 30.5" fill="#3f508a" fill-opacity="0.6313726" fill-rule="evenodd" stroke="none"/>
    <path d="M10.95 6.95 Q11.25 8.3 10.95 8.75 L10.0 8.8 Q8.75 8.15 5.95 5.1 8.05 5.65 8.9 4.75 9.4 4.2 9.45 3.1 L9.95 3.1 10.0 3.55 10.1 4.05 10.85 6.5 10.95 6.95" fill="#141e3f" fill-opacity="0.29803923" fill-rule="evenodd" stroke="none"/>
    <path d="M8.0 0.0 L8.45 0.0 Q8.8 0.05 9.1 0.35 9.6 0.85 9.85 2.1 L9.95 3.1 9.45 3.1 Q9.4 4.2 8.9 4.75 8.05 5.65 5.95 5.1 L5.95 4.1 5.95 1.1 Q7.15 0.1 8.0 0.0" fill="#253361" fill-opacity="0.4509804" fill-rule="evenodd" stroke="none"/>
    <path d="M-13.05 0.0 L-11.0 0.0 Q-10.55 15.0 -5.9 18.25 L-5.05 18.5 Q-4.55 20.5 -3.3 21.75 -3.05 22.0 -3.05 22.5 L-4.05 22.5 -5.05 22.5 Q-13.4 22.85 -15.05 16.5 -8.75 15.8 -10.55 7.6 L-11.05 7.5 Q-11.05 7.0 -11.3 6.65 -13.05 4.2 -13.05 0.0" fill="#8e9ed0" fill-opacity="0.8980392" fill-rule="evenodd" stroke="none"/>
    <path d="M-14.9 0.0 L-13.05 0.0 Q-13.05 4.2 -11.3 6.65 -11.05 7.0 -11.05 7.5 L-11.7 7.3 Q-13.7 3.95 -14.9 0.0" fill="#394a82" fill-opacity="0.6" fill-rule="evenodd" stroke="none"/>
    <path d="M-17.05 15.5 L-16.8 14.75 Q-10.45 7.75 -18.5 0.0 L-14.9 0.0 Q-13.7 3.95 -11.7 7.3 L-11.05 7.5 -11.0 8.5 Q-10.25 13.8 -14.05 14.5 L-15.0 14.65 Q-16.05 15.0 -17.05 15.5" fill="#151f40" fill-opacity="0.30588236" fill-rule="evenodd" stroke="none"/>
    <path d="M-11.05 7.5 L-10.55 7.6 Q-8.75 15.8 -15.05 16.5 L-15.05 15.5 -14.3 15.25 Q-14.05 15.0 -14.05 14.5 -10.25 13.8 -11.0 8.5 L-11.05 7.5" fill="#4c5e99" fill-opacity="0.69411767" fill-rule="evenodd" stroke="none"/>
    <path d="M-4.05 23.5 L-5.05 23.5 -6.0 23.65 -8.05 24.5 -8.05 26.5 -8.05 27.5 -9.05 27.5 -11.05 27.5 -11.65 27.7 Q-12.7 29.85 -15.05 30.5 L-15.05 34.5 -15.05 35.5 -16.05 35.5 -16.05 34.5 -16.05 29.5 Q-9.9 26.25 -14.3 21.75 -14.55 21.5 -15.05 21.5 L-15.55 21.4 Q-16.05 19.0 -16.05 16.5 L-15.05 16.5 Q-13.4 22.85 -5.05 22.5 L-4.05 22.5 -4.05 23.5" fill="#50639e" fill-opacity="0.7176471" fill-rule="evenodd" stroke="none"/>
    <path d="M-1.05 14.5 Q12.6 19.7 -0.9 15.05 L-1.05 14.5" fill="#4f619c" fill-opacity="0.7058824" fill-rule="evenodd" stroke="none"/>
    <path d="M-2.05 15.5 Q0.35 19.55 0.8 20.55 L0.95 21.5 0.35 21.7 Q-0.35 23.2 -3.05 22.5 -3.05 22.0 -3.3 21.75 -4.55 20.5 -5.05 18.5 -2.85 18.2 -2.55 15.55 L-2.05 15.5" fill="#afbbe2" fill-opacity="0.9529412" fill-rule="evenodd" stroke="none"/>
    <path d="M-15.05 22.5 L-15.95 22.3 Q-19.05 21.0 -18.05 15.5 L-17.05 15.5 Q-16.05 15.0 -15.0 14.65 L-14.05 14.5 Q-14.05 15.0 -14.3 15.25 L-15.05 15.5 -15.05 16.5 -16.05 16.5 Q-16.05 19.0 -15.55 21.4 L-15.05 21.5 -15.05 22.5" fill="#1f2c57" fill-opacity="0.4117647" fill-rule="evenodd" stroke="none"/>
    <path d="M-17.05 35.5 Q-17.05 35.0 -17.3 34.8 -18.95 33.4 -19.05 30.5 -15.8 28.25 -15.1 23.5 L-15.05 22.5 -15.05 21.5 Q-14.55 21.5 -14.3 21.75 -9.9 26.25 -16.05 29.5 L-16.05 34.5 -16.05 35.5 -17.05 35.5" fill="#1d2a52" fill-opacity="0.3882353" fill-rule="evenodd" stroke="none"/>
    <path d="M-15.05 35.5 L-15.05 34.5 -15.05 30.5 Q-12.7 29.85 -11.65 27.7 L-11.05 27.5 Q-11.05 28.0 -11.3 28.25 L-12.05 28.5 Q-11.6 34.05 -8.95 32.7 L-8.05 32.5 Q-8.05 33.0 -8.3 33.15 -11.1 34.95 -15.05 35.5" fill="#6375b0" fill-opacity="0.78431374" fill-rule="evenodd" stroke="none"/>
    <path d="M-13.05 36.5 L-12.8 37.3 Q-7.9 43.55 -17.05 43.5 L-17.05 42.5 -16.1 42.35 Q-8.3 40.2 -18.05 39.5 L-18.05 38.5 Q-15.9 39.15 -16.0 37.5 L-16.05 36.5 -14.05 36.5 -13.05 36.5" fill="#131d3d" fill-opacity="0.2901961" fill-rule="evenodd" stroke="none"/>
    <path d="M-17.05 43.5 L-17.55 43.6 Q-18.9 50.75 -22.05 43.5 -18.9 43.15 -18.55 39.55 L-18.05 39.5 Q-18.05 41.0 -17.6 42.35 L-17.05 42.5 -17.05 43.5" fill="#111a38" fill-opacity="0.26666668" fill-rule="evenodd" stroke="none"/>
    <path d="M-18.05 39.5 Q-8.3 40.2 -16.1 42.35 L-17.05 42.5 -17.6 42.35 Q-18.05 41.0 -18.05 39.5" fill="#334379" fill-opacity="0.56078434" fill-rule="evenodd" stroke="none"/>
    <path d="M0.75 27.5 Q0.55 28.25 -0.35 29.25 -0.55 29.5 -1.05 29.5 L-2.05 29.5 -4.05 29.5 -5.0 29.35 Q-6.75 28.7 -6.05 25.5 L-2.3 25.45 0.75 27.5" fill="#0a1024" fill-opacity="0.1764706" fill-rule="evenodd" stroke="none"/>
    <path d="M-1.45 37.45 Q-2.25 42.8 -4.9 37.25 L-6.05 34.5 Q-4.7 32.85 -4.15 30.5 L-4.05 29.5 -2.05 29.5 -1.05 29.5 -1.05 30.5 Q-1.05 35.05 -1.45 37.45" fill="#50629c" fill-opacity="0.7058824" fill-rule="evenodd" stroke="none"/>
    <path d="M-11.05 27.5 L-9.05 27.5 -8.05 27.5 -8.05 31.5 -8.05 32.5 -8.95 32.7 Q-11.6 34.05 -12.05 28.5 L-11.3 28.25 Q-11.05 28.0 -11.05 27.5" fill="#93a2d3" fill-opacity="0.90588236" fill-rule="evenodd" stroke="none"/>
    <path d="M-3.0 0.0 L-2.45 0.0 -6.05 0.9 -6.05 0.4 -3.0 0.0" fill="#f5f7fc" fill-opacity="0.99607843" fill-rule="evenodd" stroke="none"/>
  </g>
</svg>
