<?xml version="1.0" encoding="UTF-8" standalone="no"?>
<svg xmlns:ffdec="https://www.free-decompiler.com/flash" xmlns:xlink="http://www.w3.org/1999/xlink" ffdec:objectType="shape" height="43.45px" width="39.95px" xmlns="http://www.w3.org/2000/svg">
  <g transform="matrix(1.0, 0.0, 0.0, 1.0, 19.05, 0.0)">
    <path d="M15.3 0.0 Q10.75 1.4 9.95 6.5 L9.95 5.5 9.95 4.5 Q11.55 3.3 11.15 0.0 L15.3 0.0" fill="#334479" fill-opacity="0.56078434" fill-rule="evenodd" stroke="none"/>
    <path d="M15.3 0.0 L20.9 0.0 20.7 0.25 Q17.05 4.1 12.95 7.5 16.6 15.65 14.45 28.4 L13.95 28.5 14.05 27.5 Q14.65 24.3 12.95 23.5 L12.8 22.55 11.95 20.5 Q13.6 20.65 13.05 18.45 L12.95 17.5 13.45 17.5 Q13.65 10.8 9.95 7.5 L9.95 6.5 Q10.75 1.4 15.3 0.0" fill="#151f40" fill-opacity="0.30588236" fill-rule="evenodd" stroke="none"/>
    <path d="M-11.1 0.0 L10.0 0.0 9.85 0.4 10.0 0.3 Q10.0 4.45 7.95 6.5 7.05 11.4 10.0 12.35 L10.95 12.5 11.2 13.25 11.95 13.5 11.9 14.5 Q11.65 19.2 5.95 18.5 L5.75 17.55 Q4.2 13.75 -0.05 12.5 L-0.05 13.5 -0.05 14.5 -1.05 14.5 -1.05 15.5 -1.9 15.7 Q-7.65 19.2 -9.8 12.85 L-10.25 11.15 Q-11.2 7.0 -11.1 0.0" fill="#f8f9fd" fill-opacity="0.99607843" fill-rule="evenodd" stroke="none"/>
    <path d="M9.95 6.5 L9.95 7.5 8.95 7.5 Q8.4 11.05 10.8 11.95 L10.95 12.5 10.0 12.35 Q7.05 11.4 7.95 6.5 10.0 4.45 10.0 0.3 L9.85 0.4 10.0 0.0 11.15 0.0 Q11.55 3.3 9.95 4.5 L9.95 5.5 9.95 6.5" fill="#8f9fd1" fill-opacity="0.8980392" fill-rule="evenodd" stroke="none"/>
    <path d="M9.95 7.5 Q13.65 10.8 13.45 17.5 L12.95 17.5 13.05 16.5 Q13.65 13.8 11.95 13.5 L11.2 13.25 10.95 12.5 10.8 11.95 Q8.4 11.05 8.95 7.5 L9.95 7.5" fill="#4a5c96" fill-opacity="0.68235296" fill-rule="evenodd" stroke="none"/>
    <path d="M5.95 18.5 Q11.65 19.2 11.9 14.5 L11.95 13.5 Q13.65 13.8 13.05 16.5 L12.95 17.5 12.3 17.7 Q10.0 21.55 5.95 18.5" fill="#6b7db8" fill-opacity="0.8156863" fill-rule="evenodd" stroke="none"/>
    <path d="M12.95 17.5 L13.05 18.45 Q13.6 20.65 11.95 20.5 L12.8 22.55 12.95 23.5 11.95 23.45 Q4.7 22.75 -1.05 20.5 L-1.05 19.5 Q-0.4 17.15 1.95 16.6 L2.95 16.5 Q4.65 16.8 5.35 18.3 5.45 18.5 5.95 18.5 10.0 21.55 12.3 17.7 L12.95 17.5" fill="#2d3d70" fill-opacity="0.5176471" fill-rule="evenodd" stroke="none"/>
    <path d="M-1.05 20.5 Q4.7 22.75 11.95 23.45 L12.95 23.5 13.0 24.5 Q13.45 29.5 9.95 30.5 L9.95 31.5 9.35 31.7 Q6.95 37.35 3.95 33.5 L4.15 32.6 Q6.55 28.0 2.95 26.5 L1.95 26.5 -0.05 26.5 Q-0.05 26.0 0.2 25.7 1.8 23.65 -3.05 19.5 L-2.05 19.5 -1.8 20.25 -1.05 20.5 M6.95 26.5 L6.75 27.4 5.95 28.5 Q7.5 34.95 11.75 26.4 L11.95 25.5 11.7 24.75 Q9.9 23.05 5.95 23.5 5.35 25.65 6.85 25.95 L6.95 26.5" fill="#586aa6" fill-opacity="0.74509805" fill-rule="evenodd" stroke="none"/>
    <path d="M11.95 25.5 L10.95 25.45 Q8.25 25.3 6.95 26.5 L6.85 25.95 Q5.35 25.65 5.95 23.5 9.9 23.05 11.7 24.75 L11.95 25.5" fill="#8999ce" fill-opacity="0.89411765" fill-rule="evenodd" stroke="none"/>
    <path d="M6.95 26.5 Q8.25 25.3 10.95 25.45 L11.95 25.5 11.75 26.4 Q7.5 34.95 5.95 28.5 L6.75 27.4 6.95 26.5" fill="#abb8e0" fill-opacity="0.9411765" fill-rule="evenodd" stroke="none"/>
    <path d="M12.95 23.5 Q14.65 24.3 14.05 27.5 L13.95 28.5 14.05 29.45 Q16.65 40.45 6.95 36.5 L6.95 35.5 Q10.85 36.4 10.05 32.5 L9.95 31.5 9.95 30.5 Q13.45 29.5 13.0 24.5 L12.95 23.5" fill="#1a264b" fill-opacity="0.35686275" fill-rule="evenodd" stroke="none"/>
    <path d="M6.95 36.5 L6.75 37.1 4.95 37.5 4.0 37.35 Q2.25 36.7 2.95 33.5 L3.95 33.5 Q6.95 37.35 9.35 31.7 L9.95 31.5 10.05 32.5 Q10.85 36.4 6.95 35.5 L6.95 36.5" fill="#293868" fill-opacity="0.4862745" fill-rule="evenodd" stroke="none"/>
    <path d="M-13.15 0.0 L-11.1 0.0 Q-11.2 7.0 -10.25 11.15 L-11.05 10.5 Q-11.05 10.0 -11.3 9.75 -11.55 9.5 -12.05 9.5 L-12.2 8.55 Q-13.5 5.15 -13.15 0.0 M-0.05 26.5 Q-0.55 26.5 -0.75 26.75 -2.55 28.9 -4.05 26.5 L-4.15 25.55 Q-5.2 21.05 -9.05 24.5 L-9.55 24.45 Q-10.05 20.0 -10.05 15.5 L-9.95 14.5 -9.8 12.85 Q-7.65 19.2 -1.9 15.7 L-1.05 15.5 -0.95 16.45 Q-0.4 18.65 -2.05 18.5 L-2.05 19.5 -3.05 19.5 Q1.8 23.65 0.2 25.7 -0.05 26.0 -0.05 26.5" fill="#8495c9" fill-opacity="0.8745098" fill-rule="evenodd" stroke="none"/>
    <path d="M-18.05 24.5 L-18.55 24.4 Q-19.05 22.0 -19.05 19.5 -9.6 15.25 -14.8 8.3 L-15.05 7.5 Q-13.35 7.8 -12.65 9.3 -12.55 9.5 -12.05 9.5 -11.55 9.5 -11.3 9.75 -11.05 10.0 -11.05 10.5 L-11.0 11.5 Q-10.2 19.35 -17.05 19.5 L-17.05 20.5 -18.05 20.5 -18.05 23.5 -18.05 24.5" fill="#172246" fill-opacity="0.33333334" fill-rule="evenodd" stroke="none"/>
    <path d="M-15.05 7.5 L-14.95 6.55 Q-14.4 4.4 -16.05 4.5 L-15.85 3.65 Q-14.85 2.0 -14.95 1.0 -13.0 1.2 -15.0 0.8 -15.1 0.3 -15.55 0.0 L-13.15 0.0 Q-13.5 5.15 -12.2 8.55 L-12.05 9.5 Q-12.55 9.5 -12.65 9.3 -13.35 7.8 -15.05 7.5" fill="#2c3c6e" fill-opacity="0.5137255" fill-rule="evenodd" stroke="none"/>
    <path d="M-11.05 10.5 L-10.25 11.15 -9.8 12.85 -9.95 14.5 -10.05 15.5 -10.55 15.5 Q-9.6 21.95 -16.05 20.5 L-17.05 20.5 -17.05 19.5 Q-10.2 19.35 -11.0 11.5 L-11.05 10.5" fill="#3e4f88" fill-opacity="0.62352943" fill-rule="evenodd" stroke="none"/>
    <path d="M-16.05 20.5 Q-9.6 21.95 -10.55 15.5 L-10.05 15.5 Q-10.05 20.0 -9.55 24.45 L-9.05 24.5 -9.05 25.0 Q-14.05 24.25 -16.05 20.5" fill="#697cb8" fill-opacity="0.8156863" fill-rule="evenodd" stroke="none"/>
    <path d="M-0.05 14.5 L-0.05 13.5 -0.05 12.5 Q4.2 13.75 5.75 17.55 L5.95 18.5 Q5.45 18.5 5.35 18.3 4.65 16.8 2.95 16.5 L2.7 15.65 Q1.9 14.55 -0.05 14.5" fill="#93a2d3" fill-opacity="0.90588236" fill-rule="evenodd" stroke="none"/>
    <path d="M-0.05 14.5 Q1.9 14.55 2.7 15.65 L2.95 16.5 1.95 16.6 Q-0.4 17.15 -1.05 19.5 L-1.05 20.5 -1.8 20.25 -2.05 19.5 -2.05 18.5 Q-0.4 18.65 -0.95 16.45 L-1.05 15.5 -1.05 14.5 -0.05 14.5" fill="#5668a3" fill-opacity="0.7294118" fill-rule="evenodd" stroke="none"/>
    <path d="M-16.05 4.5 L-16.6 4.35 Q-17.35 2.25 -18.3 0.6 L-14.95 1.0 Q-14.85 2.0 -15.85 3.65 L-16.05 4.5 M-18.65 0.1 L-18.7 0.0 -15.55 0.0 Q-15.1 0.3 -15.0 0.8 L-18.65 0.1" fill="#0f1632" fill-opacity="0.23529412" fill-rule="evenodd" stroke="none"/>
    <path d="M-17.05 32.5 L-16.8 31.8 Q-12.05 27.85 -18.05 24.5 L-18.05 23.5 -18.05 20.5 -17.05 20.5 Q-10.05 27.95 -16.3 34.25 L-17.05 34.5 -17.05 33.5 -17.05 32.5" fill="#1d2952" fill-opacity="0.3882353" fill-rule="evenodd" stroke="none"/>
    <path d="M-9.05 37.5 Q-9.05 38.0 -9.25 38.1 L-10.1 38.55 Q-14.15 40.4 -15.85 39.05 L-16.65 38.0 Q-17.2 36.7 -17.05 34.5 L-16.3 34.25 Q-10.05 27.95 -17.05 20.5 L-16.05 20.5 Q-14.05 24.25 -9.05 25.0 L-9.05 24.5 Q-5.2 21.05 -4.15 25.55 L-4.05 26.5 -5.05 26.5 Q-9.0 26.55 -10.05 29.5 L-9.2 31.55 Q-9.05 32.0 -9.05 32.5 -9.55 32.5 -9.65 32.3 -10.35 30.85 -12.05 32.5 -11.75 35.7 -9.85 37.25 L-9.55 37.45 -9.05 37.5" fill="#455792" fill-opacity="0.6666667" fill-rule="evenodd" stroke="none"/>
    <path d="M-7.05 28.5 L-7.15 29.5 -7.55 31.3 -7.55 28.5 -7.05 28.5 M-10.1 38.55 Q-12.65 42.9 -15.85 39.05 -14.15 40.4 -10.1 38.55 M-16.65 38.0 L-19.05 33.5 -17.95 32.7 -17.05 32.5 -17.05 33.5 -17.05 34.5 Q-17.2 36.7 -16.65 38.0" fill="#152041" fill-opacity="0.30980393" fill-rule="evenodd" stroke="none"/>
    <path d="M-18.3 0.6 L-19.0 0.5 -19.05 0.0 -18.65 0.1 -15.0 0.8 Q-13.0 1.2 -14.95 1.0 L-18.3 0.6" fill="#141f40" fill-opacity="0.30588236" fill-rule="evenodd" stroke="none"/>
    <path d="M0.95 28.5 L0.05 28.7 Q-3.1 30.5 -7.05 28.5 L-7.55 28.5 -7.55 31.3 Q-7.75 35.1 -9.05 37.5 L-9.05 36.5 -9.05 36.25 -9.05 32.5 Q-9.05 32.0 -9.2 31.55 L-10.05 29.5 Q-9.0 26.55 -5.05 26.5 L-4.05 26.5 Q-2.55 28.9 -0.75 26.75 -0.55 26.5 -0.05 26.5 L1.95 26.5 2.95 26.5 Q2.95 27.0 2.75 27.1 1.95 27.5 0.95 27.5 L0.95 28.5" fill="#253361" fill-opacity="0.45490196" fill-rule="evenodd" stroke="none"/>
    <path d="M4.95 37.5 L4.7 38.3 Q-1.75 45.65 -6.05 42.5 3.55 40.15 -4.2 34.75 L-5.05 34.5 -5.05 33.5 Q3.65 36.05 1.5 28.65 1.45 28.5 0.95 28.5 L0.95 27.5 Q1.95 27.5 2.75 27.1 2.95 27.0 2.95 26.5 6.55 28.0 4.15 32.6 L3.95 33.5 2.95 33.5 Q2.25 36.7 4.0 37.35 L4.95 37.5" fill="#19254b" fill-opacity="0.3529412" fill-rule="evenodd" stroke="none"/>
    <path d="M-9.05 32.5 L-9.05 36.25 -9.05 36.5 -9.05 37.5 -9.55 37.45 -9.85 37.25 Q-11.75 35.7 -12.05 32.5 -10.35 30.85 -9.65 32.3 -9.55 32.5 -9.05 32.5" fill="#6c7eb8" fill-opacity="0.8156863" fill-rule="evenodd" stroke="none"/>
    <path d="M-6.05 42.5 L-6.05 41.5 -6.05 39.5 Q-4.35 38.7 -4.95 35.5 L-5.05 34.5 -4.2 34.75 Q3.55 40.15 -6.05 42.5" fill="#42538b" fill-opacity="0.6313726" fill-rule="evenodd" stroke="none"/>
  </g>
</svg>
