<?xml version="1.0" encoding="UTF-8" standalone="no"?>
<svg xmlns:ffdec="https://www.free-decompiler.com/flash" xmlns:xlink="http://www.w3.org/1999/xlink" ffdec:objectType="shape" height="44.4px" width="40.9px" xmlns="http://www.w3.org/2000/svg">
  <g transform="matrix(1.0, 0.0, 0.0, 1.0, 20.05, 0.0)">
    <path d="M14.95 0.0 L20.85 0.0 20.7 0.2 Q14.85 4.6 12.95 12.5 L12.95 11.5 12.95 10.5 14.85 0.5 14.95 0.0" fill="#0e1631" fill-opacity="0.23529412" fill-rule="evenodd" stroke="none"/>
    <path d="M14.95 0.0 L14.85 0.5 12.95 10.5 12.95 11.5 12.95 12.5 Q16.95 17.85 14.5 24.35 L13.95 24.5 13.95 23.5 Q13.95 23.0 14.2 22.65 16.4 19.1 12.95 17.5 L12.9 17.0 Q9.25 16.7 9.95 12.5 L10.75 11.4 10.95 10.5 Q12.7 6.75 12.0 0.5 L12.0 0.0 14.95 0.0" fill="#1d2a52" fill-opacity="0.3882353" fill-rule="evenodd" stroke="none"/>
    <path d="M8.4 0.0 L12.0 0.0 12.0 0.5 Q12.7 6.75 10.95 10.5 L10.95 9.5 Q11.15 3.3 8.4 0.0" fill="#6374ae" fill-opacity="0.77254903" fill-rule="evenodd" stroke="none"/>
    <path d="M-6.05 0.0 L-5.05 0.0 -5.0 0.3 -6.05 0.0" fill="#f7f8fc" fill-opacity="0.99607843" fill-rule="evenodd" stroke="none"/>
    <path d="M10.95 10.5 L10.75 11.4 9.95 12.5 Q9.25 16.7 12.9 17.0 L12.95 17.5 12.95 18.5 12.95 19.5 12.0 19.35 Q7.75 18.2 6.95 13.5 L10.2 10.75 Q10.45 10.5 10.95 10.5" fill="#6d7eb5" fill-opacity="0.79607844" fill-rule="evenodd" stroke="none"/>
    <path d="M12.95 17.5 Q16.4 19.1 14.2 22.65 13.95 23.0 13.95 23.5 L13.15 23.75 Q11.15 25.2 6.95 24.5 L6.95 23.5 11.85 23.0 11.95 22.5 Q13.6 22.65 13.05 20.45 L12.95 19.5 12.95 18.5 12.95 17.5" fill="#52649f" fill-opacity="0.7176471" fill-rule="evenodd" stroke="none"/>
    <path d="M3.95 20.5 L3.7 19.75 Q0.65 16.6 -1.05 19.5 L-1.05 18.5 -1.05 16.5 Q1.65 16.3 3.1 17.25 L3.95 17.5 Q6.0 21.45 10.95 22.4 L11.95 22.5 11.85 23.0 6.95 23.5 6.7 22.75 3.95 20.5" fill="#7a8bc1" fill-opacity="0.84313726" fill-rule="evenodd" stroke="none"/>
    <path d="M-0.05 25.5 L-0.05 24.5 -0.05 22.5 Q4.0 20.75 6.3 24.25 L6.95 24.5 6.9 25.5 Q6.3 29.45 -0.05 25.5" fill="#080c1d" fill-opacity="0.13725491" fill-rule="evenodd" stroke="none"/>
    <path d="M13.95 24.5 L13.9 25.5 Q12.5 48.9 3.95 37.5 L4.45 37.5 Q-7.35 25.75 -9.05 42.5 L-9.25 43.15 Q-19.6 49.2 -20.05 25.5 -6.95 20.75 -15.8 11.25 L-16.05 10.5 -16.05 9.5 -16.05 6.5 -15.05 6.5 Q-15.05 9.0 -14.55 11.4 L-14.05 11.5 -13.8 12.25 -13.05 12.5 Q-10.7 15.15 -10.1 19.5 L-10.05 20.5 -10.95 20.7 -12.05 21.5 -12.05 27.5 -12.05 28.5 Q-12.95 32.4 -9.2 31.05 -9.05 31.0 -9.05 30.5 -4.85 28.7 -2.65 24.7 L-2.05 24.5 -0.95 25.3 -0.05 25.5 Q6.3 29.45 6.9 25.5 L6.95 24.5 Q11.15 25.2 13.15 23.75 L13.95 23.5 13.95 24.5 M5.95 37.0 Q18.35 27.0 5.95 36.5 L5.95 37.0 M-4.05 28.5 L-3.9 29.05 Q11.25 33.6 -4.05 28.5 M-19.05 26.5 L-18.85 27.1 Q-11.1 31.45 -19.05 26.5" fill="#1f2c56" fill-opacity="0.40392157" fill-rule="evenodd" stroke="none"/>
    <path d="M-2.05 22.5 Q-0.5 20.55 2.95 20.5 L3.95 20.5 6.7 22.75 6.95 23.5 6.95 24.5 6.3 24.25 Q4.0 20.75 -0.05 22.5 L-0.05 24.5 -0.05 25.5 -0.95 25.3 -2.05 24.5 -2.05 23.5 -2.05 22.5" fill="#1d2951" fill-opacity="0.38039216" fill-rule="evenodd" stroke="none"/>
    <path d="M-12.9 0.0 L-12.1 0.0 Q-12.2 7.2 -10.2 12.55 -10.05 13.0 -10.05 13.5 L-11.0 13.35 -13.05 12.5 -13.8 12.25 -14.05 11.5 -14.05 10.5 -14.05 6.5 Q-12.4 4.35 -12.9 0.0" fill="#7f90c5" fill-opacity="0.85490197" fill-rule="evenodd" stroke="none"/>
    <path d="M-14.65 0.0 L-12.9 0.0 Q-12.4 4.35 -14.05 6.5 L-14.05 10.5 -14.05 11.5 -14.55 11.4 Q-15.05 9.0 -15.05 6.5 L-14.85 5.65 Q-13.0 2.6 -14.65 0.0" fill="#37477e" fill-opacity="0.5803922" fill-rule="evenodd" stroke="none"/>
    <path d="M-9.05 15.5 Q-10.7 23.15 -6.0 24.35 L-5.05 24.5 -5.25 25.15 Q-8.65 27.1 -11.05 22.5 L-10.25 21.4 -10.05 20.5 -10.1 19.5 Q-10.7 15.15 -13.05 12.5 L-11.0 13.35 -10.05 13.5 -9.25 14.6 -9.05 15.5" fill="#5a6da8" fill-opacity="0.7529412" fill-rule="evenodd" stroke="none"/>
    <path d="M-2.05 22.5 L-2.05 23.5 -2.05 24.5 -2.65 24.7 Q-4.85 28.7 -9.05 30.5 L-8.9 29.55 Q-7.35 24.7 -12.05 28.5 L-12.05 27.5 -12.05 21.5 -10.95 20.7 -10.05 20.5 -10.25 21.4 -11.05 22.5 Q-8.65 27.1 -5.25 25.15 L-5.05 24.5 Q-3.35 24.2 -2.65 22.7 L-2.05 22.5" fill="#485a96" fill-opacity="0.68235296" fill-rule="evenodd" stroke="none"/>
    <path d="M-1.05 19.5 L-1.3 20.25 -2.05 20.5 -2.05 19.5 -2.05 13.5 Q0.95 10.65 3.75 16.6 L3.95 17.5 3.1 17.25 Q1.65 16.3 -1.05 16.5 L-1.05 18.5 -1.05 19.5" fill="#99a8d7" fill-opacity="0.92156863" fill-rule="evenodd" stroke="none"/>
    <path d="M3.95 20.5 L2.95 20.5 Q-0.5 20.55 -2.05 22.5 L-2.05 21.5 -2.05 20.5 -1.3 20.25 -1.05 19.5 Q0.65 16.6 3.7 19.75 L3.95 20.5" fill="#40518b" fill-opacity="0.63529414" fill-rule="evenodd" stroke="none"/>
    <path d="M-2.05 20.5 L-2.05 21.5 -2.05 22.5 -2.65 22.7 Q-3.35 24.2 -5.05 24.5 L-6.0 24.35 Q-10.7 23.15 -9.05 15.5 -8.05 26.35 -2.8 20.75 L-2.05 20.5" fill="#8898cd" fill-opacity="0.8901961" fill-rule="evenodd" stroke="none"/>
    <path d="M-16.05 10.5 L-16.55 10.5 Q-15.5 3.85 -18.6 0.0 L-14.65 0.0 Q-13.0 2.6 -14.85 5.65 L-15.05 6.5 -16.05 6.5 -16.05 9.5 -16.05 10.5" fill="#101835" fill-opacity="0.25490198" fill-rule="evenodd" stroke="none"/>
    <path d="M-19.05 26.5 Q-11.1 31.45 -18.85 27.1 L-19.05 26.5" fill="#4b5d97" fill-opacity="0.6862745" fill-rule="evenodd" stroke="none"/>
    <path d="M-9.05 30.5 Q-9.05 31.0 -9.2 31.05 -12.95 32.4 -12.05 28.5 -7.35 24.7 -8.9 29.55 L-9.05 30.5" fill="#6072ae" fill-opacity="0.78039217" fill-rule="evenodd" stroke="none"/>
    <path d="M-4.05 28.5 Q11.25 33.6 -3.9 29.05 L-4.05 28.5" fill="#4a5c96" fill-opacity="0.68235296" fill-rule="evenodd" stroke="none"/>
    <path d="M5.95 37.0 L5.95 36.5 Q18.35 27.0 5.95 37.0" fill="#53659f" fill-opacity="0.7176471" fill-rule="evenodd" stroke="none"/>
    <path d="M-12.1 0.0 L-6.05 0.0 -5.0 0.3 -5.05 0.0 8.4 0.0 Q11.15 3.3 10.95 9.5 L10.95 10.5 Q10.45 10.5 10.2 10.75 L6.95 13.5 Q7.75 18.2 12.0 19.35 L12.95 19.5 13.05 20.45 Q13.6 22.65 11.95 22.5 L10.95 22.4 Q6.0 21.45 3.95 17.5 L3.75 16.6 Q0.95 10.65 -2.05 13.5 L-2.05 19.5 -2.05 20.5 -2.8 20.75 Q-8.05 26.35 -9.05 15.5 L-9.25 14.6 -10.05 13.5 Q-10.05 13.0 -10.2 12.55 -12.2 7.2 -12.1 0.0" fill="#f5f7fc" fill-opacity="0.99607843" fill-rule="evenodd" stroke="none"/>
  </g>
</svg>
