<?xml version="1.0" encoding="UTF-8" standalone="no"?>
<svg xmlns:ffdec="https://www.free-decompiler.com/flash" xmlns:xlink="http://www.w3.org/1999/xlink" ffdec:objectType="shape" height="40.25px" width="44.9px" xmlns="http://www.w3.org/2000/svg">
  <g transform="matrix(1.0, 0.0, 0.0, 1.0, 23.05, 0.0)">
    <path d="M10.95 0.0 L13.55 0.0 Q11.7 0.85 11.15 3.0 L10.95 3.1 10.95 0.0 M10.95 4.5 L10.95 3.6 11.05 3.55 10.95 4.5" fill="#324277" fill-opacity="0.5529412" fill-rule="evenodd" stroke="none"/>
    <path d="M17.9 0.0 L17.75 0.35 Q16.45 2.5 13.95 3.5 13.95 6.5 14.45 9.4 L14.95 9.5 15.15 10.4 Q20.15 21.15 9.95 24.5 20.55 29.3 15.65 35.25 L14.95 35.5 Q14.95 35.0 15.2 34.7 19.2 29.4 9.95 28.5 L9.7 27.8 Q8.25 26.7 8.95 23.5 10.95 23.0 12.75 22.1 L12.95 21.5 13.45 21.45 Q14.25 12.7 10.95 7.5 L10.95 6.5 10.95 5.5 10.95 4.5 11.05 3.55 Q22.25 -3.2 11.15 3.0 11.7 0.85 13.55 0.0 L17.9 0.0" fill="#162043" fill-opacity="0.31764707" fill-rule="evenodd" stroke="none"/>
    <path d="M17.9 0.0 L21.85 0.0 21.7 0.2 14.95 5.5 14.95 8.5 14.95 9.5 14.45 9.4 Q13.95 6.5 13.95 3.5 16.45 2.5 17.75 0.35 L17.9 0.0" fill="#0b1229" fill-opacity="0.19607843" fill-rule="evenodd" stroke="none"/>
    <path d="M10.15 0.0 L10.95 0.0 10.95 3.1 10.95 3.6 10.95 4.5 10.95 5.5 10.95 6.5 10.95 7.5 Q11.7 10.75 11.9 14.5 L11.95 15.5 10.95 15.5 10.7 14.7 Q8.05 11.4 8.95 4.5 10.55 3.3 10.15 0.0" fill="#7c8dc4" fill-opacity="0.85490197" fill-rule="evenodd" stroke="none"/>
    <path d="M12.95 21.5 L13.0 20.5 Q13.3 17.15 11.95 15.5 L11.9 14.5 Q11.7 10.75 10.95 7.5 14.25 12.7 13.45 21.45 L12.95 21.5" fill="#43558f" fill-opacity="0.6509804" fill-rule="evenodd" stroke="none"/>
    <path d="M6.95 22.5 L6.95 21.5 Q13.45 21.25 11.15 16.4 L10.95 15.5 11.95 15.5 Q13.3 17.15 13.0 20.5 L12.95 21.5 11.95 21.6 7.95 22.5 6.95 22.5" fill="#899ace" fill-opacity="0.8901961" fill-rule="evenodd" stroke="none"/>
    <path d="M4.95 22.5 L5.95 22.5 6.95 22.5 7.95 22.5 7.7 23.25 6.95 23.5 Q6.7 27.2 9.05 28.3 L9.95 28.5 9.95 31.5 9.95 32.5 8.95 32.5 7.95 32.5 7.2 32.25 4.95 29.5 5.0 28.5 Q5.4 24.55 3.95 22.5 L4.95 22.5" fill="#6173ae" fill-opacity="0.7764706" fill-rule="evenodd" stroke="none"/>
    <path d="M7.95 22.5 L11.95 21.6 12.95 21.5 12.75 22.1 Q10.95 23.0 8.95 23.5 8.25 26.7 9.7 27.8 L9.95 28.5 9.05 28.3 Q6.7 27.2 6.95 23.5 L7.7 23.25 7.95 22.5" fill="#40528b" fill-opacity="0.63529414" fill-rule="evenodd" stroke="none"/>
    <path d="M7.95 33.5 Q7.45 33.5 7.35 33.3 6.1 30.95 4.9 29.5 L4.95 29.5 7.2 32.25 7.95 32.5 7.95 33.5 M4.45 29.0 Q0.95 25.3 -2.05 29.3 -2.1 28.95 -2.3 28.8 -3.75 27.7 -3.05 24.5 -2.4 22.15 -0.05 21.6 L0.95 21.5 Q4.1 23.6 4.45 29.0 M-4.5 34.05 L-5.05 35.5 -6.05 35.5 -6.05 34.5 -4.5 34.05" fill="#19254b" fill-opacity="0.3529412" fill-rule="evenodd" stroke="none"/>
    <path d="M14.95 35.5 L14.75 36.15 Q9.6 39.35 7.95 33.5 L7.95 32.5 8.95 32.5 9.95 32.5 Q10.6 37.5 14.05 35.7 L14.95 35.5" fill="#1d2952" fill-opacity="0.38431373" fill-rule="evenodd" stroke="none"/>
    <path d="M14.95 35.5 L14.05 35.7 Q10.6 37.5 9.95 32.5 L9.95 31.5 9.95 28.5 Q19.2 29.4 15.2 34.7 14.95 35.0 14.95 35.5" fill="#52649f" fill-opacity="0.7176471" fill-rule="evenodd" stroke="none"/>
    <path d="M10.95 3.6 L10.95 3.1 11.15 3.0 Q22.25 -3.2 11.05 3.55 L10.95 3.6" fill="#131d3d" fill-opacity="0.28627452" fill-rule="evenodd" stroke="none"/>
    <path d="M-13.0 0.0 L-11.85 0.0 Q-8.65 14.55 -15.05 18.5 -15.65 20.65 -14.15 20.95 L-14.05 21.5 -15.05 21.5 -16.05 21.5 -16.05 20.5 -16.05 17.5 Q-12.65 11.2 -13.0 0.0" fill="#7d8dc4" fill-opacity="0.8509804" fill-rule="evenodd" stroke="none"/>
    <path d="M-18.05 21.5 L-18.05 20.5 -18.05 16.5 Q-14.25 15.3 -15.55 9.6 L-16.05 9.5 -15.9 8.55 Q-13.75 1.75 -16.7 0.0 L-13.0 0.0 Q-12.65 11.2 -16.05 17.5 L-16.05 20.5 -16.05 21.5 -17.05 21.5 -18.05 21.5" fill="#2b3a6b" fill-opacity="0.49803922" fill-rule="evenodd" stroke="none"/>
    <path d="M-8.05 17.5 L-8.05 16.5 -8.05 15.5 Q-3.1 13.3 1.8 14.95 L1.95 15.5 0.95 15.5 -0.05 15.5 -0.05 16.5 -1.05 16.5 Q-5.2 16.35 -8.05 17.5" fill="#93a2d4" fill-opacity="0.9098039" fill-rule="evenodd" stroke="none"/>
    <path d="M-10.05 27.5 L-10.0 26.5 Q-9.8 21.75 -14.05 21.5 -11.1 20.45 -8.85 18.75 -8.55 18.5 -8.05 18.5 -8.25 21.2 -6.05 21.45 L-5.05 21.5 Q-3.35 21.8 -3.1 23.5 L-3.05 24.5 -3.55 24.6 Q-4.35 28.7 -10.05 27.5 M-9.05 22.5 L-8.8 23.15 Q-2.3 27.95 -9.05 22.5" fill="#7789c1" fill-opacity="0.84313726" fill-rule="evenodd" stroke="none"/>
    <path d="M-9.05 22.5 Q-2.3 27.95 -8.8 23.15 L-9.05 22.5" fill="#d8dff2" fill-opacity="0.98039216" fill-rule="evenodd" stroke="none"/>
    <path d="M4.9 29.5 L4.45 29.5 4.45 29.0 Q4.1 23.6 0.95 21.5 L0.7 20.65 Q-1.85 16.55 -6.05 18.5 -6.65 20.65 -5.15 21.0 -5.05 21.0 -5.05 21.5 L-6.05 21.45 Q-8.25 21.2 -8.05 18.5 L-8.05 17.5 Q-5.2 16.35 -1.05 16.5 L-0.05 16.5 Q2.4 18.55 3.4 22.4 L3.95 22.5 Q5.4 24.55 5.0 28.5 L4.95 29.5 4.9 29.5" fill="#4c5e99" fill-opacity="0.69411767" fill-rule="evenodd" stroke="none"/>
    <path d="M-5.05 21.5 Q-5.05 21.0 -5.15 21.0 -6.65 20.65 -6.05 18.5 -1.85 16.55 0.7 20.65 L0.95 21.5 -0.05 21.6 Q-2.4 22.15 -3.05 24.5 L-3.1 23.5 Q-3.35 21.8 -5.05 21.5" fill="#2a396c" fill-opacity="0.5019608" fill-rule="evenodd" stroke="none"/>
    <path d="M1.95 15.5 Q4.25 17.7 4.85 21.5 L4.95 22.5 3.95 22.5 3.4 22.4 Q2.4 18.55 -0.05 16.5 L-0.05 15.5 0.95 15.5 1.95 15.5" fill="#8697cc" fill-opacity="0.88235295" fill-rule="evenodd" stroke="none"/>
    <path d="M-16.05 9.5 L-16.55 9.45 Q-17.05 3.1 -20.45 0.0 L-16.7 0.0 Q-13.75 1.75 -15.9 8.55 L-16.05 9.5" fill="#0d152f" fill-opacity="0.22352941" fill-rule="evenodd" stroke="none"/>
    <path d="M-5.05 35.5 Q-5.05 36.0 -5.3 36.3 L-5.9 37.1 -6.0 36.5 -6.05 35.5 -5.05 35.5 M-7.55 38.8 Q-15.25 45.4 -18.05 21.5 L-17.05 21.5 -16.05 21.5 Q-12.7 23.65 -10.65 27.3 L-10.05 27.5 Q-7.15 29.05 -8.8 30.75 L-9.05 31.5 -9.55 31.5 Q-9.35 34.2 -11.05 34.5 -8.85 37.65 -7.55 38.8" fill="#192448" fill-opacity="0.34117648" fill-rule="evenodd" stroke="none"/>
    <path d="M-16.05 21.5 L-15.05 21.5 -14.05 21.5 Q-9.8 21.75 -10.0 26.5 L-10.05 27.5 -10.65 27.3 Q-12.7 23.65 -16.05 21.5" fill="#445690" fill-opacity="0.654902" fill-rule="evenodd" stroke="none"/>
    <path d="M-23.05 0.0 Q-16.25 6.95 -22.8 0.75 L-23.05 0.0" fill="#1c284e" fill-opacity="0.36862746" fill-rule="evenodd" stroke="none"/>
    <path d="M-2.05 29.3 L-2.05 29.5 -2.2 29.5 -3.0 29.65 Q-6.05 30.5 -9.05 31.5 L-8.8 30.75 Q-7.15 29.05 -10.05 27.5 -4.35 28.7 -3.55 24.6 L-3.05 24.5 Q-3.75 27.7 -2.3 28.8 -2.1 28.95 -2.05 29.3" fill="#43558f" fill-opacity="0.654902" fill-rule="evenodd" stroke="none"/>
    <path d="M-2.05 29.5 L-2.1 30.5 Q-2.5 33.1 -4.5 34.05 L-6.05 34.5 -6.85 34.75 Q-9.55 36.95 -9.05 31.5 -6.05 30.5 -3.0 29.65 L-2.2 29.5 -2.05 29.5" fill="#7081bb" fill-opacity="0.8235294" fill-rule="evenodd" stroke="none"/>
    <path d="M-5.9 37.1 L-7.55 38.8 Q-8.85 37.65 -11.05 34.5 -9.35 34.2 -9.55 31.5 L-9.05 31.5 Q-9.55 36.95 -6.85 34.75 L-6.05 34.5 -6.05 35.5 -6.0 36.5 -5.9 37.1" fill="#34457b" fill-opacity="0.5686275" fill-rule="evenodd" stroke="none"/>
    <path d="M-11.85 0.0 L10.15 0.0 Q10.55 3.3 8.95 4.5 8.05 11.4 10.7 14.7 L10.95 15.5 11.15 16.4 Q13.45 21.25 6.95 21.5 L6.95 22.5 5.95 22.5 4.95 22.5 4.85 21.5 Q4.25 17.7 1.95 15.5 L1.8 14.95 Q-3.1 13.3 -8.05 15.5 L-8.05 16.5 -8.05 17.5 -8.05 18.5 Q-8.55 18.5 -8.85 18.75 -11.1 20.45 -14.05 21.5 L-14.15 20.95 Q-15.65 20.65 -15.05 18.5 -8.65 14.55 -11.85 0.0" fill="#f5f7fc" fill-opacity="0.99607843" fill-rule="evenodd" stroke="none"/>
  </g>
</svg>
