<?xml version="1.0" encoding="UTF-8" standalone="no"?>
<svg xmlns:ffdec="https://www.free-decompiler.com/flash" xmlns:xlink="http://www.w3.org/1999/xlink" ffdec:objectType="shape" height="37.75px" width="42.45px" xmlns="http://www.w3.org/2000/svg">
  <g transform="matrix(1.0, 0.0, 0.0, 1.0, 20.55, 0.0)">
    <path d="M13.25 0.0 Q12.55 0.2 11.95 0.5 14.1 7.75 14.5 14.8 14.15 16.55 13.95 18.5 14.0 20.2 14.55 21.35 L14.45 22.5 14.95 22.5 Q14.95 23.0 15.2 23.35 17.75 27.25 13.95 28.5 L15.2 30.25 15.95 30.5 15.95 31.5 15.95 32.5 14.95 32.5 Q14.95 32.0 14.75 31.9 10.8 29.6 6.95 32.5 6.25 35.2 7.95 35.45 L8.95 35.5 8.7 36.25 7.95 36.5 7.95 37.5 6.95 37.55 Q2.75 38.2 2.95 34.5 L3.45 34.5 Q3.5 27.9 2.2 25.2 L6.95 23.5 7.95 26.5 Q17.75 29.4 12.15 16.4 L11.95 15.5 12.5 15.35 Q15.05 9.0 10.95 6.5 L10.75 5.6 Q9.9 4.15 9.85 1.8 13.45 2.95 9.85 1.5 L9.9 0.0 13.25 0.0 M-7.05 28.5 L-7.65 28.7 Q-11.8 36.1 -19.05 35.5 L-18.2 35.3 Q-12.95 32.1 -20.05 31.5 L-20.05 30.5 Q-9.9 29.85 -16.8 22.25 L-17.05 21.5 -15.95 22.3 -15.05 22.5 Q-14.55 22.5 -14.3 22.75 -14.05 23.0 -14.05 23.5 -12.6 27.7 -5.75 27.05 L-7.05 28.5" fill="#273666" fill-opacity="0.4745098" fill-rule="evenodd" stroke="none"/>
    <path d="M13.25 0.0 L21.9 0.0 21.7 0.25 Q16.25 5.7 14.5 14.8 14.1 7.75 11.95 0.5 12.55 0.2 13.25 0.0 M14.55 21.35 L14.7 21.65 14.95 22.5 14.45 22.5 14.55 21.35" fill="#0e1631" fill-opacity="0.23529412" fill-rule="evenodd" stroke="none"/>
    <path d="M7.85 0.0 L9.9 0.0 9.85 1.5 7.85 0.75 Q9.0 1.55 9.85 1.8 9.9 4.15 10.75 5.6 L10.95 6.5 10.95 7.5 10.95 8.5 10.2 8.25 Q7.95 5.75 7.85 0.75 L7.85 0.4 7.85 0.0" fill="#798ac0" fill-opacity="0.8352941" fill-rule="evenodd" stroke="none"/>
    <path d="M-10.9 0.0 L-9.85 0.0 -10.9 0.05 -10.9 0.0 M-8.4 0.0 L-7.5 0.0 -8.1 0.05 -8.4 0.0 M-6.55 0.0 L7.85 0.0 7.85 0.4 7.85 0.75 Q7.95 5.75 10.2 8.25 L10.95 8.5 10.8 9.45 Q6.8 20.05 -5.05 12.5 -3.6 16.5 -4.85 18.65 L-5.05 19.5 -6.0 19.65 Q-14.3 22.1 -15.05 15.5 -13.4 15.65 -13.95 13.45 L-14.05 12.5 Q-11.85 10.7 -11.05 7.4 L-10.15 7.2 -10.05 6.95 -10.05 6.65 -10.05 5.65 -5.65 5.25 -5.35 5.2 -5.15 5.15 -4.6 5.35 -0.3 6.9 Q-4.55 4.65 -4.5 4.5 -2.95 0.25 -6.55 0.0 M-9.45 0.3 L-10.85 0.6 -10.85 0.45 -9.45 0.3" fill="#f9fafd" fill-opacity="0.99607843" fill-rule="evenodd" stroke="none"/>
    <path d="M10.95 8.5 L10.95 7.5 10.95 6.5 Q15.05 9.0 12.5 15.35 L11.95 15.5 12.0 14.5 Q12.65 10.25 10.95 8.5" fill="#5769a5" fill-opacity="0.7411765" fill-rule="evenodd" stroke="none"/>
    <path d="M10.95 8.5 Q12.65 10.25 12.0 14.5 L11.95 15.5 10.95 15.5 Q1.55 15.7 -4.05 19.5 L-5.05 19.5 -4.85 18.65 Q-3.6 16.5 -5.05 12.5 6.8 20.05 10.8 9.45 L10.95 8.5" fill="#98a7d6" fill-opacity="0.91764706" fill-rule="evenodd" stroke="none"/>
    <path d="M11.95 15.5 L12.15 16.4 Q17.75 29.4 7.95 26.5 L6.95 23.5 2.2 25.2 Q0.05 20.75 -5.75 27.05 -12.6 27.7 -14.05 23.5 -10.55 24.35 -4.3 20.15 -4.05 20.0 -4.05 19.5 1.55 15.7 10.95 15.5 L11.95 15.5" fill="#5467a3" fill-opacity="0.73333335" fill-rule="evenodd" stroke="none"/>
    <path d="M14.95 22.5 Q19.8 25.6 16.2 29.7 15.95 30.0 15.95 30.5 L15.2 30.25 13.95 28.5 Q17.75 27.25 15.2 23.35 14.95 23.0 14.95 22.5" fill="#101834" fill-opacity="0.24705882" fill-rule="evenodd" stroke="none"/>
    <path d="M14.95 32.5 L15.95 32.5 Q16.45 32.5 16.55 32.7 19.0 37.7 8.95 35.5 L8.95 34.5 Q13.15 35.2 14.7 33.3 L14.95 32.5" fill="#324379" fill-opacity="0.56078434" fill-rule="evenodd" stroke="none"/>
    <path d="M8.95 35.5 L7.95 35.45 Q6.25 35.2 6.95 32.5 10.8 29.6 14.75 31.9 14.95 32.0 14.95 32.5 L14.7 33.3 Q13.15 35.2 8.95 34.5 L8.95 35.5" fill="#6b7cb6" fill-opacity="0.8039216" fill-rule="evenodd" stroke="none"/>
    <path d="M15.95 31.5 L16.65 31.75 Q22.4 38.9 7.95 37.5 L7.95 36.5 8.7 36.25 8.95 35.5 Q19.0 37.7 16.55 32.7 16.45 32.5 15.95 32.5 L15.95 31.5" fill="#121b39" fill-opacity="0.27058825" fill-rule="evenodd" stroke="none"/>
    <path d="M-12.95 0.0 L-10.9 0.0 -10.9 0.05 -12.05 0.05 -12.05 0.55 -10.85 0.45 -10.85 0.6 -11.05 0.65 -11.05 1.65 -11.95 1.85 -12.8 2.4 -12.95 0.0 M-11.05 7.4 Q-11.85 10.7 -14.05 12.5 L-14.05 11.5 -14.05 10.5 Q-13.45 9.05 -13.15 7.3 L-11.05 7.4" fill="#7d8ec4" fill-opacity="0.85490197" fill-rule="evenodd" stroke="none"/>
    <path d="M-14.9 0.0 L-12.95 0.0 -12.8 2.4 -14.25 3.65 Q-14.45 1.6 -14.9 0.0 M-14.05 6.85 L-13.15 7.3 Q-13.45 9.05 -14.05 10.5 L-14.05 9.5 -14.05 6.85" fill="#34457b" fill-opacity="0.5686275" fill-rule="evenodd" stroke="none"/>
    <path d="M-14.05 12.5 L-13.95 13.45 Q-13.4 15.65 -15.05 15.5 -14.3 22.1 -6.0 19.65 L-5.05 19.5 -4.05 19.5 Q-4.05 20.0 -4.3 20.15 -10.55 24.35 -14.05 23.5 -14.05 23.0 -14.3 22.75 -14.55 22.5 -15.05 22.5 L-15.25 21.6 Q-16.6 19.05 -16.05 14.5 -14.4 14.65 -14.55 12.5 L-14.05 12.5" fill="#93a2d3" fill-opacity="0.90588236" fill-rule="evenodd" stroke="none"/>
    <path d="M-15.05 10.5 Q-15.05 10.0 -15.2 9.55 -16.85 3.8 -20.55 0.0 L-14.9 0.0 Q-14.45 1.6 -14.25 3.65 L-15.05 4.65 Q-14.9 6.15 -14.05 6.85 L-14.05 9.5 -14.05 10.5 -15.05 10.5" fill="#101835" fill-opacity="0.2509804" fill-rule="evenodd" stroke="none"/>
    <path d="M-17.05 21.5 Q-17.05 21.0 -17.3 20.75 -18.75 19.2 -18.05 15.5 -17.1 12.95 -15.3 11.25 -15.05 11.0 -15.05 10.5 L-14.05 10.5 -14.05 11.5 -14.05 12.5 -14.55 12.5 Q-14.4 14.65 -16.05 14.5 -16.6 19.05 -15.25 21.6 L-15.05 22.5 -15.95 22.3 -17.05 21.5" fill="#38487e" fill-opacity="0.5764706" fill-rule="evenodd" stroke="none"/>
    <path d="M-19.05 35.5 L-19.6 35.4 Q-20.05 33.5 -20.05 31.5 -12.95 32.1 -18.2 35.3 L-19.05 35.5" fill="#6273a9" fill-opacity="0.7529412" fill-rule="evenodd" stroke="none"/>
    <path d="M2.95 34.5 L2.95 34.0 Q-2.65 36.4 -7.05 28.5 L-5.75 27.05 Q0.05 20.75 2.2 25.2 3.5 27.9 3.45 34.5 L2.95 34.5" fill="#101936" fill-opacity="0.25490198" fill-rule="evenodd" stroke="none"/>
    <path d="M-11.05 1.65 L-10.75 1.65 -10.05 1.65 Q-10.45 5.15 -10.1 6.65 L-10.9 6.7 -11.05 6.7 Q-12.45 6.85 -12.95 6.15 -13.5 5.4 -13.05 3.65 L-12.8 3.55 -11.3 2.4 Q-11.05 2.15 -11.05 1.65" fill="#243361" fill-opacity="0.45490196" fill-rule="evenodd" stroke="none"/>
    <path d="M-10.1 6.65 L-10.05 6.65 -10.05 6.95 -10.15 7.2 -11.05 7.4 -13.15 7.3 -14.05 6.85 Q-14.9 6.15 -15.05 4.65 L-14.25 3.65 -12.8 2.4 -11.95 1.85 -11.05 1.65 Q-11.05 2.15 -11.3 2.4 L-12.8 3.55 -13.05 3.65 Q-13.5 5.4 -12.95 6.15 -12.45 6.85 -11.05 6.7 L-10.9 6.7 -10.1 6.65" fill="#101834" fill-opacity="0.2509804" fill-rule="evenodd" stroke="none"/>
    <path d="M9.85 1.8 Q9.0 1.55 7.85 0.75 L9.85 1.5 Q13.45 2.95 9.85 1.8" fill="#151f40" fill-opacity="0.30588236" fill-rule="evenodd" stroke="none"/>
    <path d="M-9.85 0.0 L-8.4 0.0 -8.1 0.05 -9.45 0.3 -10.85 0.45 -12.05 0.55 -12.05 0.05 -10.9 0.05 -9.85 0.0" fill="#121c3b" fill-opacity="0.2784314" fill-rule="evenodd" stroke="none"/>
    <path d="M-7.5 0.0 L-6.55 0.0 Q-2.95 0.25 -4.5 4.5 -4.55 4.65 -0.3 6.9 L-4.6 5.35 -5.15 5.15 -5.35 5.2 -5.65 5.25 -10.05 5.65 -10.05 6.65 -10.1 6.65 Q-10.45 5.15 -10.05 1.65 L-10.75 1.65 -11.05 1.65 -11.05 0.65 -10.85 0.6 -9.45 0.3 -8.1 0.05 -7.5 0.0" fill="#f5f7fc" fill-opacity="0.99607843" fill-rule="evenodd" stroke="none"/>
  </g>
</svg>
