<?xml version="1.0" encoding="UTF-8" standalone="no"?>
<svg xmlns:ffdec="https://www.free-decompiler.com/flash" xmlns:xlink="http://www.w3.org/1999/xlink" ffdec:objectType="shape" height="41.2px" width="43.9px" xmlns="http://www.w3.org/2000/svg">
  <g transform="matrix(1.0, 0.0, 0.0, 1.0, 22.05, 0.05)">
    <path d="M11.1 0.0 L21.85 0.0 21.7 0.2 Q12.85 7.45 14.95 24.5 L15.05 25.45 Q17.05 32.95 20.95 39.5 L20.8 40.05 Q13.9 41.95 3.95 40.5 L3.45 40.5 Q4.75 36.9 5.3 34.25 7.4 38.75 9.95 38.55 L10.95 38.5 Q21.65 42.7 15.65 35.75 L14.95 35.5 13.95 35.5 10.95 35.5 10.3 35.25 Q8.05 32.25 5.45 33.3 6.95 23.2 -4.05 27.5 L-3.85 28.1 Q8.55 33.7 -11.05 36.5 L-11.05 35.5 -11.05 31.5 -10.3 31.25 -10.05 30.5 Q-6.15 28.2 -3.3 25.25 -3.05 25.0 -3.05 24.5 6.05 18.25 7.85 28.5 L7.95 29.5 Q19.7 34.25 13.6 25.75 13.45 25.5 12.95 25.5 L12.95 24.5 12.95 20.5 13.45 20.5 Q13.65 11.65 11.35 1.25 L11.35 1.15 11.1 0.0" fill="#141d3e" fill-opacity="0.2901961" fill-rule="evenodd" stroke="none"/>
    <path d="M11.1 0.0 L11.35 1.15 11.1 1.2 11.35 1.25 Q13.65 11.65 13.45 20.5 L12.95 20.5 12.95 19.5 12.95 18.5 13.0 17.5 Q13.95 11.0 9.95 9.5 L9.95 8.5 9.95 2.15 9.95 1.05 9.95 0.0 11.1 0.0" fill="#384980" fill-opacity="0.5882353" fill-rule="evenodd" stroke="none"/>
    <path d="M7.9 0.0 L7.9 0.05 7.9 0.25 Q7.7 6.9 9.4 11.35 L9.95 11.5 Q12.85 12.6 11.5 17.35 L10.95 17.5 10.0 17.65 Q3.5 20.3 1.95 13.5 L1.9 13.0 Q-2.6 12.45 -5.05 14.5 L-5.05 15.5 -5.95 15.7 -7.05 16.5 -7.05 17.5 -7.55 17.5 Q-7.65 20.4 -11.05 19.5 L-11.05 20.5 Q-11.05 21.0 -11.3 21.25 -15.9 26.0 -16.05 19.5 -14.55 18.5 -14.15 16.5 L-14.05 15.5 -13.3 15.25 -13.05 14.5 Q-11.7 8.05 -11.15 0.85 L-11.15 0.5 -11.1 0.0 6.95 0.0 7.1 0.0 7.3 -0.05 7.65 0.0 7.9 0.0" fill="#f7f8fc" fill-opacity="0.99607843" fill-rule="evenodd" stroke="none"/>
    <path d="M9.95 0.0 L9.95 1.05 9.95 2.15 9.95 8.5 9.95 9.5 9.95 10.5 9.95 11.5 9.4 11.35 Q7.7 6.9 7.9 0.25 L7.9 0.05 7.9 0.0 9.95 0.0" fill="#8091c6" fill-opacity="0.85882354" fill-rule="evenodd" stroke="none"/>
    <path d="M9.95 11.5 L9.95 10.5 9.95 9.5 Q13.95 11.0 13.0 17.5 L12.95 18.5 Q12.45 18.5 12.2 18.75 5.55 24.8 -4.05 15.5 L-5.05 15.5 -5.05 14.5 Q-2.6 12.45 1.9 13.0 L1.95 13.5 Q1.85 23.0 10.75 18.1 L10.95 17.5 11.5 17.35 Q12.85 12.6 9.95 11.5" fill="#7a8bc2" fill-opacity="0.8509804" fill-rule="evenodd" stroke="none"/>
    <path d="M1.95 13.5 Q3.5 20.3 10.0 17.65 L10.95 17.5 10.75 18.1 Q1.85 23.0 1.95 13.5" fill="#9faddb" fill-opacity="0.92941177" fill-rule="evenodd" stroke="none"/>
    <path d="M12.95 20.5 L12.95 24.5 12.95 25.5 13.0 26.5 Q13.4 30.95 7.95 29.5 L7.85 28.5 Q6.05 18.25 -3.05 24.5 L-4.05 24.5 -3.9 23.55 Q-3.0 20.95 -4.05 15.5 5.55 24.8 12.2 18.75 12.45 18.5 12.95 18.5 L12.95 19.5 12.95 20.5" fill="#40518b" fill-opacity="0.63529414" fill-rule="evenodd" stroke="none"/>
    <path d="M12.95 25.5 Q13.45 25.5 13.6 25.75 19.7 34.25 7.95 29.5 13.4 30.95 13.0 26.5 L12.95 25.5" fill="#29386a" fill-opacity="0.49803922" fill-rule="evenodd" stroke="none"/>
    <path d="M5.45 33.3 Q8.05 32.25 10.3 35.25 L10.95 35.5 10.95 37.5 10.95 38.5 Q15.05 39.6 14.95 36.5 L14.95 35.5 15.65 35.75 Q21.65 42.7 10.95 38.5 L9.95 38.55 Q7.4 38.75 5.3 34.25 L4.95 33.5 5.45 33.3" fill="#2d3c70" fill-opacity="0.52156866" fill-rule="evenodd" stroke="none"/>
    <path d="M10.95 35.5 L13.95 35.5 14.95 35.5 14.95 36.5 Q15.05 39.6 10.95 38.5 L10.95 37.5 10.95 35.5" fill="#6d7fb8" fill-opacity="0.8117647" fill-rule="evenodd" stroke="none"/>
    <path d="M-12.1 1.0 L-11.15 0.85 Q-11.7 8.05 -13.05 14.5 L-13.05 13.5 -13.05 3.5 -12.8 2.65 Q-12.2 1.8 -12.1 1.0 M-11.15 0.5 L-12.1 0.6 -12.2 0.0 -11.1 0.0 -11.15 0.5" fill="#7385be" fill-opacity="0.8392157" fill-rule="evenodd" stroke="none"/>
    <path d="M-12.1 1.0 Q-12.2 1.8 -12.8 2.65 L-13.05 3.5 -14.05 3.5 -14.05 8.5 -14.05 9.5 -14.6 9.35 Q-15.05 8.0 -15.05 6.5 L-14.9 5.55 Q-14.1 3.05 -14.35 1.35 L-12.1 1.0 M-12.1 0.6 L-14.4 0.9 -14.75 0.0 -12.2 0.0 -12.1 0.6" fill="#2e3d71" fill-opacity="0.5254902" fill-rule="evenodd" stroke="none"/>
    <path d="M-5.05 15.5 L-4.05 15.5 Q-3.0 20.95 -3.9 23.55 L-4.05 24.5 -5.05 24.45 -11.05 23.5 Q-10.05 25.95 -10.05 29.5 L-10.05 30.5 -10.8 30.25 Q-12.6 28.55 -15.05 27.5 L-15.7 27.25 Q-17.7 24.2 -18.05 19.5 L-18.05 18.5 Q-15.85 18.2 -15.2 16.45 L-15.05 15.5 -14.05 15.5 -14.15 16.5 Q-14.55 18.5 -16.05 19.5 -15.9 26.0 -11.3 21.25 -11.05 21.0 -11.05 20.5 -1.9 24.65 -6.8 18.3 L-7.05 17.5 -7.05 16.5 -5.95 15.7 -5.05 15.5" fill="#6c7eb7" fill-opacity="0.80784315" fill-rule="evenodd" stroke="none"/>
    <path d="M-13.05 3.5 L-13.05 13.5 -13.05 14.5 -13.3 15.25 -14.05 15.5 -15.05 15.5 -15.05 14.5 Q-13.35 13.7 -13.95 10.5 L-14.05 9.5 -14.05 8.5 -14.05 3.5 -13.05 3.5" fill="#495b96" fill-opacity="0.68235296" fill-rule="evenodd" stroke="none"/>
    <path d="M-11.05 20.5 L-11.05 19.5 Q-7.65 20.4 -7.55 17.5 L-7.05 17.5 -6.8 18.3 Q-1.9 24.65 -11.05 20.5" fill="#b3bee5" fill-opacity="0.95686275" fill-rule="evenodd" stroke="none"/>
    <path d="M-14.4 0.9 L-15.05 0.95 -15.05 1.45 -14.35 1.35 Q-14.1 3.05 -14.9 5.55 L-15.05 6.5 -16.05 6.5 -16.05 7.5 -16.05 8.5 -16.55 8.45 Q-17.3 2.8 -20.45 0.0 L-14.75 0.0 -14.4 0.9" fill="#0d152e" fill-opacity="0.21960784" fill-rule="evenodd" stroke="none"/>
    <path d="M-14.05 9.5 L-13.95 10.5 Q-13.35 13.7 -15.05 14.5 L-15.05 15.5 -15.2 16.45 Q-15.85 18.2 -18.05 18.5 L-18.05 19.5 -19.05 19.5 -19.05 18.5 -19.05 17.5 Q-14.0 15.0 -15.9 9.45 L-16.05 8.5 -16.05 7.5 -16.05 6.5 -15.05 6.5 Q-15.05 8.0 -14.6 9.35 L-14.05 9.5" fill="#192449" fill-opacity="0.34509805" fill-rule="evenodd" stroke="none"/>
    <path d="M-19.05 19.5 L-18.05 19.5 Q-17.7 24.2 -15.7 27.25 L-15.05 27.5 -15.05 28.5 -15.05 29.5 -15.75 29.25 Q-18.85 25.3 -20.05 19.5 L-19.05 19.5" fill="#182347" fill-opacity="0.3372549" fill-rule="evenodd" stroke="none"/>
    <path d="M-10.05 30.5 L-10.3 31.25 -11.05 31.5 -11.05 35.5 -11.05 36.5 -11.8 36.25 Q-14.4 33.85 -15.05 29.5 L-15.05 28.5 -15.05 27.5 Q-12.6 28.55 -10.8 30.25 L-10.05 30.5" fill="#314177" fill-opacity="0.54901963" fill-rule="evenodd" stroke="none"/>
    <path d="M-19.65 35.95 Q-16.05 34.55 -15.15 30.5 L-15.05 29.5 Q-14.4 33.85 -11.8 36.25 L-11.05 36.5 Q-11.05 37.0 -11.3 37.15 -18.25 42.25 -22.05 36.5 L-19.95 36.05 -19.8 36.25 Q-15.2 40.85 -19.65 35.95" fill="#152042" fill-opacity="0.3137255" fill-rule="evenodd" stroke="none"/>
    <path d="M-11.15 0.85 L-12.1 1.0 -14.35 1.35 -15.05 1.45 -15.05 0.95 -14.4 0.9 -12.1 0.6 -11.15 0.5 -11.15 0.85" fill="#151f40" fill-opacity="0.3019608" fill-rule="evenodd" stroke="none"/>
    <path d="M-19.95 36.05 L-20.05 35.5 -19.65 35.95 Q-15.2 40.85 -19.8 36.25 L-19.95 36.05" fill="#5769a3" fill-opacity="0.73333335" fill-rule="evenodd" stroke="none"/>
    <path d="M-3.05 24.5 Q-3.05 25.0 -3.3 25.25 -6.15 28.2 -10.05 30.5 L-10.05 29.5 Q-10.05 25.95 -11.05 23.5 L-5.05 24.45 -4.05 24.5 -3.05 24.5" fill="#324378" fill-opacity="0.5568628" fill-rule="evenodd" stroke="none"/>
    <path d="M11.35 1.15 L11.35 1.25 11.1 1.2 11.35 1.15" fill="#101935" fill-opacity="0.25490198" fill-rule="evenodd" stroke="none"/>
  </g>
</svg>
