<?xml version="1.0" encoding="UTF-8" standalone="no"?>
<svg xmlns:ffdec="https://www.free-decompiler.com/flash" xmlns:xlink="http://www.w3.org/1999/xlink" ffdec:objectType="shape" height="53.65px" width="231.1px" xmlns="http://www.w3.org/2000/svg">
  <g transform="matrix(1.0, 0.0, 0.0, 1.0, 116.95, 14.45)">
    <path d="M36.55 38.25 L36.55 38.05 Q39.9 36.6 39.5 38.75 L36.55 38.25" fill="#000000" fill-opacity="0.3019608" fill-rule="evenodd" stroke="none"/>
    <path d="M36.55 38.25 L33.6 37.7 18.1 39.2 18.35 35.05 9.25 36.0 10.7 29.8 Q18.4 24.8 24.05 28.55 L24.85 32.75 31.95 28.55 38.8 29.75 39.5 35.25 36.55 38.05 36.55 38.25 M114.1 9.15 L111.4 17.2 95.7 12.4 93.55 8.8 95.45 3.6 114.1 9.15 M107.25 -0.65 L101.45 -0.65 101.45 -6.05 111.4 -12.0 114.15 -4.7 107.25 -0.65 M-55.7 -1.95 L-59.15 -2.15 -58.2 -8.65 -24.35 -14.45 -23.3 -9.05 -19.3 -7.65 -18.85 -1.65 -24.75 -1.0 -25.6 -2.6 -55.7 2.75 -55.7 -1.95 M-114.9 -2.6 L-108.6 -2.8 -106.85 2.5 -93.5 2.95 -95.05 9.25 -105.95 17.2 -112.05 15.45 -116.95 2.75 -114.9 -2.6" fill="#000000" fill-opacity="0.14901961" fill-rule="evenodd" stroke="none"/>
  </g>
</svg>
