<?xml version="1.0" encoding="UTF-8" standalone="no"?>
<svg xmlns:ffdec="https://www.free-decompiler.com/flash" xmlns:xlink="http://www.w3.org/1999/xlink" ffdec:objectType="shape" height="65.7px" width="231.1px" xmlns="http://www.w3.org/2000/svg">
  <g transform="matrix(1.0, 0.0, 0.0, 1.0, 116.95, 26.5)">
    <path d="M36.55 38.25 L36.55 38.05 Q39.9 36.6 39.5 38.75 L36.55 38.25 M-104.85 -8.6 L-104.85 -12.0 -101.4 -12.0 -96.25 -23.65 -82.8 -22.05 -80.7 -17.9 -70.45 -18.2 -71.35 -12.5 Q-76.0 -10.3 -81.45 -10.65 -85.4 -11.15 -87.45 -14.4 L-99.1 -8.6 -104.85 -8.6" fill="#000000" fill-opacity="0.3019608" fill-rule="evenodd" stroke="none"/>
    <path d="M36.55 38.25 L33.6 37.7 18.1 39.2 18.35 35.05 9.25 36.0 10.7 29.8 17.95 26.65 24.05 28.55 24.85 32.75 31.95 28.55 38.8 29.75 39.5 35.25 36.55 38.05 36.55 38.25 M114.1 9.15 L111.4 17.2 95.7 12.4 93.55 8.8 95.45 3.6 114.1 9.15 M101.45 -0.65 L101.45 -6.05 111.4 -12.0 114.15 -4.7 107.25 -0.65 101.45 -0.65 M80.7 -12.0 L80.7 -18.2 94.05 -26.5 96.3 -26.2 98.7 -16.85 95.85 -16.8 89.7 -10.55 80.7 -12.0 M27.05 -17.95 L32.7 -17.85 33.85 -15.2 44.8 -16.4 44.95 -12.5 55.0 -12.0 55.0 -4.35 Q41.6 -2.1 36.15 -7.15 35.8 -7.45 35.65 -7.9 L20.6 -5.55 20.6 -12.35 27.05 -17.95 M-114.9 -2.6 L-108.6 -2.8 -106.85 2.5 -93.5 2.95 -95.05 9.25 -105.95 17.2 -112.05 15.45 -116.95 2.75 -114.9 -2.6 M-55.7 -1.95 L-59.15 -2.15 -58.2 -8.65 -24.35 -14.45 -23.3 -9.05 -19.3 -7.65 -18.85 -1.65 -24.75 -1.0 -25.6 -2.6 -55.7 2.75 -55.7 -1.95" fill="#000000" fill-opacity="0.14901961" fill-rule="evenodd" stroke="none"/>
  </g>
</svg>
