<?xml version="1.0" encoding="UTF-8" standalone="no"?>
<svg xmlns:ffdec="https://www.free-decompiler.com/flash" xmlns:xlink="http://www.w3.org/1999/xlink" ffdec:objectType="shape" height="143.4px" width="233.9px" xmlns="http://www.w3.org/2000/svg">
  <g transform="matrix(1.0, 0.0, 0.0, 1.0, 116.95, 83.5)">
    <path d="M58.2 -13.15 L58.6 -6.4 38.95 -6.3 38.55 -12.85 43.2 -16.35 44.95 -11.7 58.2 -13.15 M97.35 -23.3 L98.8 -16.55 95.05 -16.65 85.05 -14.45 85.05 -17.85 93.7 -23.4 97.35 -23.3 M110.95 -0.95 L110.9 -0.85 Q111.0 -0.4 111.35 -0.9 L114.3 -4.3 116.95 2.75 114.7 8.65 113.8 9.0 Q114.15 9.15 114.4 9.4 L112.05 15.5 105.15 14.5 Q108.55 9.6 100.15 11.65 L100.65 6.55 107.3 -1.1 110.95 -0.95 M89.75 39.3 L89.75 41.75 99.15 40.3 100.95 46.55 94.55 51.6 92.05 51.6 69.55 44.8 69.55 41.2 89.75 39.3 M55.0 7.5 L54.25 21.0 48.55 20.9 48.45 16.65 Q39.85 23.9 30.7 18.9 L26.25 11.55 26.25 5.9 36.05 9.15 37.05 13.9 49.3 7.4 55.0 7.5 M14.95 15.05 L4.35 20.95 Q4.35 18.5 7.45 16.8 10.55 15.05 14.95 15.05 M-75.35 48.0 L-75.35 45.65 -77.0 47.2 -88.15 50.0 -89.2 38.05 -80.35 37.95 -60.3 33.2 -60.8 37.05 -64.4 37.85 -58.85 41.25 -59.35 41.75 Q-61.2 43.75 -57.8 42.6 L-59.1 46.9 -75.35 48.0 M7.55 38.95 L15.95 38.25 17.4 36.65 22.7 38.65 23.2 42.7 20.4 47.25 7.55 42.6 7.55 38.95 M16.9 42.95 L16.9 42.75 Q15.95 43.15 16.9 42.95 M39.5 38.75 Q35.55 37.5 39.4 38.3 L39.5 38.75 M-114.6 8.8 L-111.1 -3.0 -106.9 -1.9 -105.9 2.3 -93.7 3.15 -96.6 8.3 -92.55 8.45 -93.15 12.25 -100.0 15.0 -100.15 14.45 Q-100.75 12.1 -103.65 15.45 L-105.45 15.8 -112.05 15.45 -114.6 8.8 M-48.3 -13.1 L-29.35 -13.15 -24.95 -12.0 -24.95 -8.3 -31.4 -1.65 -37.4 -1.6 -37.75 -4.75 -43.25 -1.15 -44.0 -0.75 -48.0 -0.85 -48.0 -3.65 -50.25 -4.5 -51.7 -9.2 -48.3 -13.1 M-68.0 39.3 L-71.55 42.25 -68.95 43.35 -68.0 39.3" fill="#000000" fill-opacity="0.3019608" fill-rule="evenodd" stroke="none"/>
    <path d="M114.7 8.65 L114.4 9.4 Q114.15 9.15 113.8 9.0 L114.7 8.65 M13.65 36.1 Q11.9 36.95 12.05 36.55 12.3 36.05 13.65 36.1 M16.9 42.95 Q15.95 43.15 16.9 42.75 L16.9 42.95" fill="#ff0000" fill-opacity="0.3019608" fill-rule="evenodd" stroke="none"/>
    <path d="M-95.1 -11.1 L-109.55 -5.0 -109.55 -8.95 -104.85 -12.0 -101.4 -12.0 -99.95 -15.95 -95.6 -18.5 -82.35 -17.25 -83.0 -13.45 -85.7 -12.35 -95.1 -11.1" fill="#000000" fill-opacity="0.49803922" fill-rule="evenodd" stroke="none"/>
    <path d="M59.5 -52.5 L66.6 -40.6 51.6 -37.65 47.05 -52.5 59.5 -52.5 M43.2 -16.35 L38.55 -12.85 38.95 -6.3 58.6 -6.4 58.2 -13.15 70.3 -10.4 69.6 -4.1 30.8 3.65 29.35 -1.5 25.5 -2.55 25.5 -5.45 20.6 -5.55 20.6 -12.35 27.05 -17.95 Q33.85 -20.45 32.4 -15.75 L32.4 -15.4 43.2 -16.35 M95.05 -16.65 L89.7 -10.55 80.7 -12.0 82.4 -18.65 94.05 -26.5 96.3 -26.2 97.35 -23.3 93.7 -23.4 85.05 -17.85 85.05 -14.45 95.05 -16.65 M112.05 15.5 L106.4 17.2 103.35 14.3 93.6 12.9 92.3 7.3 84.1 7.65 85.35 1.65 98.45 1.1 99.45 3.95 98.85 -5.5 111.4 -12.0 114.15 -4.7 110.95 -0.95 107.3 -1.1 100.65 6.55 100.15 11.65 Q108.55 9.6 105.15 14.5 L112.05 15.5 M92.05 51.6 L73.4 48.15 72.0 50.85 69.35 50.8 67.95 56.25 66.45 57.05 Q61.9 59.45 56.8 59.9 53.2 59.95 49.95 58.9 L44.8 50.2 64.3 49.25 60.95 45.25 54.65 42.3 52.35 30.45 59.25 30.75 62.05 21.4 82.9 19.2 84.85 16.85 91.15 18.0 92.0 22.85 99.85 21.85 95.95 30.75 67.8 31.2 78.4 38.65 89.75 39.3 69.55 41.2 69.55 44.8 92.05 51.6 M1.9 28.0 L4.35 28.05 14.9 20.6 23.05 28.55 28.25 28.65 28.85 28.5 29.1 28.55 Q29.7 29.0 29.7 29.65 L38.8 29.75 39.5 35.25 36.65 38.0 33.15 37.05 28.35 45.0 34.2 46.4 34.2 51.6 19.2 51.1 16.55 53.0 10.2 51.9 9.1 47.0 -5.85 49.6 -6.3 46.7 -21.35 50.75 -22.45 46.9 -33.45 48.5 -34.1 46.05 Q-54.5 51.0 -75.35 48.0 L-59.1 46.9 -57.8 42.6 Q-39.55 40.4 -21.35 40.8 -9.15 41.05 1.4 36.1 L1.9 28.0 M-80.35 37.95 L-65.15 25.8 -65.85 21.9 -69.95 28.85 -92.7 28.6 -91.35 22.45 -82.6 23.3 Q-80.95 23.0 -79.7 21.7 -75.3 16.85 -68.85 15.65 L-45.15 11.25 -45.15 16.85 -55.65 22.95 -43.25 23.9 -42.9 29.95 -58.85 41.25 -64.4 37.85 -60.8 37.05 -60.3 33.2 -80.35 37.95 M13.65 36.1 Q12.3 36.05 12.05 36.55 11.9 36.95 13.65 36.1 M7.55 38.95 L7.55 42.6 20.4 47.25 23.2 42.7 22.7 38.65 17.4 36.65 15.95 38.25 7.55 38.95 M-109.55 -8.95 L-109.55 -5.0 -95.1 -11.1 -98.8 -8.9 -85.5 -4.3 -85.7 -1.25 -79.55 -1.2 -78.7 1.15 -68.55 -0.85 -68.55 5.1 -85.95 10.3 -86.25 15.5 -93.5 21.25 -99.1 20.15 -100.0 15.0 -93.15 12.25 -92.55 8.45 -96.6 8.3 -93.7 3.15 -105.9 2.3 -106.9 -1.9 -111.1 -3.0 -114.6 8.8 -116.95 2.75 -113.05 -7.6 -109.55 -8.95 M-85.7 -12.35 L-83.0 -13.45 -82.35 -17.25 -95.6 -18.5 -99.95 -15.95 -96.25 -23.65 -82.8 -22.05 -80.7 -17.9 -70.45 -18.2 -71.35 -12.5 -85.7 -12.35 M-44.0 -0.75 L-49.5 2.75 -55.7 2.75 -55.7 -1.95 -59.15 -2.15 -58.4 -8.4 -54.95 -10.6 Q-55.3 -12.8 -54.65 -14.95 -53.3 -19.35 -49.75 -22.2 -46.8 -24.5 -43.0 -25.15 L-42.5 -27.75 -36.1 -27.65 -37.35 -14.3 -48.3 -13.1 -51.7 -9.2 -50.25 -4.5 -48.0 -3.65 -48.0 -0.85 -44.0 -0.75 M-29.35 -13.15 L-2.05 -11.05 -2.9 -4.8 Q-12.2 1.35 -23.4 -0.95 -28.4 6.55 -35.45 4.5 -36.9 0.8 -36.95 3.2 -37.0 4.1 -37.75 4.55 L-42.1 3.65 -43.25 -1.15 -37.75 -4.75 -37.4 -1.6 -31.4 -1.65 -24.95 -8.3 -24.95 -12.0 -29.35 -13.15 M-46.65 -34.55 L-70.85 -40.55 -65.8 -46.65 -55.95 -45.1 -50.2 -52.5 -39.5 -52.5 -49.2 -41.05 -45.5 -40.5 -46.65 -34.55 M-11.5 20.8 L-27.75 25.8 -27.75 20.4 -11.5 15.4 -11.5 20.8" fill="#000000" fill-opacity="0.14901961" fill-rule="evenodd" stroke="none"/>
    <path d="M7.5 -1.55 Q7.15 -2.85 7.4 -2.7 18.0 -0.4 20.65 11.1 L13.45 8.2 Q3.95 14.45 0.0 5.8 L8.1 1.55 7.5 -1.55 M19.2 -0.95 L28.65 -0.95 28.65 4.6 19.2 4.6 19.2 -0.95 M14.95 15.05 L17.75 15.1 14.9 20.6 4.35 28.05 1.9 28.0 Q-2.9 27.2 1.25 23.25 L4.35 20.95 14.95 15.05 M-17.95 12.7 L-17.4 16.6 -40.7 20.85 -40.45 16.1 -25.9 10.75 -17.95 12.7 M-5.95 -1.95 L-2.0 -1.85 -2.6 2.15 -17.7 11.75 -21.75 11.75 -20.45 6.85 -5.95 -1.95" fill="#cc3300" fill-rule="evenodd" stroke="none"/>
    <path d="M51.0 -76.75 Q58.2 -73.15 57.5 -71.1 L69.3 -69.35 68.35 -67.25 Q67.35 -65.6 65.85 -65.6 L48.85 -67.2 31.0 -69.6 Q31.6 -70.5 31.4 -72.2 32.25 -73.5 39.0 -73.5 L45.5 -72.35 45.9 -72.0 Q46.25 -71.8 46.25 -72.6 L42.5 -74.1 45.0 -78.0 51.3 -77.5 51.0 -76.75 M6.7 -76.8 Q0.5 -75.25 -0.5 -71.5 L-1.0 -71.6 -1.0 -75.0 -1.1 -75.35 Q-2.8 -74.65 -3.5 -74.0 L-4.0 -74.1 Q-4.0 -75.65 -2.75 -77.75 L-2.6 -77.85 -6.5 -78.1 Q-6.25 -78.45 -5.3 -81.05 -3.75 -83.5 -0.5 -83.5 5.05 -83.5 5.85 -82.5 5.65 -81.35 5.75 -81.1 L13.8 -82.35 Q12.8 -78.3 6.7 -76.8 M-34.0 -77.5 L-33.6 -77.35 Q-35.75 -71.5 -44.65 -68.1 -47.75 -66.5 -51.0 -66.5 -52.25 -66.5 -53.45 -67.55 L-55.0 -66.5 -56.0 -66.6 Q-54.9 -68.4 -51.95 -70.75 L-52.05 -72.15 Q-52.55 -74.25 -60.5 -74.6 -60.0 -76.35 -57.5 -79.5 -57.0 -79.35 -57.0 -78.6 -51.2 -78.25 -49.35 -77.35 -47.95 -78.6 -45.5 -80.0 L-36.5 -79.85 -37.1 -78.8 -37.3 -78.0 -37.0 -78.0 -35.0 -77.85 -35.5 -76.75 -34.0 -77.5" fill="#000000" fill-opacity="0.14901961" fill-rule="evenodd" stroke="none"/>
  </g>
</svg>
