<?xml version="1.0" encoding="UTF-8" standalone="no"?>
<svg xmlns:ffdec="https://www.free-decompiler.com/flash" xmlns:xlink="http://www.w3.org/1999/xlink" ffdec:objectType="shape" height="143.45px" width="233.9px" xmlns="http://www.w3.org/2000/svg">
  <g transform="matrix(1.0, 0.0, 0.0, 1.0, 116.95, 84.85)">
    <path d="M114.7 8.65 L114.4 9.4 Q114.15 9.15 113.8 9.0 L114.7 8.65 M29.35 46.1 Q26.1 45.8 29.3 45.2 L29.35 46.1" fill="#ff0000" fill-opacity="0.3019608" fill-rule="evenodd" stroke="none"/>
    <path d="M61.2 -70.6 L60.95 -70.2 Q59.95 -68.6 57.85 -68.6 L47.5 -70.6 49.55 -74.6 51.2 -77.05 Q51.95 -78.0 52.5 -78.0 L59.0 -77.35 57.0 -73.35 61.8 -72.35 61.2 -70.6 M4.9 -83.0 L6.65 -84.65 11.4 -84.85 Q15.45 -83.55 19.7 -83.3 18.25 -81.25 14.75 -77.85 L11.0 -74.5 Q7.2 -74.5 6.25 -76.65 6.0 -77.3 6.0 -79.75 L6.0 -79.85 3.0 -79.5 2.5 -79.6 4.9 -83.0 M52.3 -0.85 L44.65 -3.85 34.35 -2.15 33.85 -13.35 38.1 -16.05 38.3 -16.15 44.8 -16.4 44.95 -11.7 58.6 -13.1 65.0 -10.1 70.3 -10.85 69.35 -6.5 63.5 -2.45 54.55 -2.7 52.3 -0.85 M38.2 -16.1 L38.2 -16.15 38.3 -16.15 38.2 -16.1 M112.8 -3.9 Q112.0 -3.9 111.45 -2.95 110.9 -2.0 110.9 -0.65 L113.55 -4.35 116.95 2.75 114.7 8.65 113.8 9.0 Q114.15 9.15 114.4 9.4 L112.05 15.5 106.4 16.55 100.65 19.45 95.95 30.75 68.75 31.2 78.4 38.65 89.75 39.3 89.75 41.75 99.1 40.3 100.95 46.55 94.55 51.6 80.2 51.0 73.75 47.7 72.0 50.85 69.35 50.8 69.35 55.15 Q66.35 57.5 62.8 58.6 L47.55 58.0 45.65 57.1 44.05 52.05 36.55 51.6 64.45 28.35 65.0 24.1 59.7 23.75 60.65 18.8 81.5 17.6 90.25 15.15 94.1 12.6 Q92.85 10.55 92.6 8.75 L92.55 8.1 94.0 -7.3 112.8 -3.9 M12.85 53.05 L10.0 53.0 8.55 46.85 14.65 46.1 12.85 53.05 M-77.0 47.2 L-88.1 50.15 -88.4 46.8 -78.6 43.65 -77.0 47.2 M-91.85 29.0 L-91.35 22.45 -85.8 22.45 -83.85 23.65 -78.0 20.95 -90.5 19.0 -93.5 21.25 -99.15 19.1 -99.15 18.8 -100.45 13.0 -103.65 15.45 -105.45 15.8 -112.05 15.45 -116.95 2.75 -113.05 -7.6 -109.55 -8.95 Q-105.65 -8.95 -102.85 -10.9 -100.1 -12.85 -100.1 -15.6 L-96.25 -23.65 -82.8 -22.05 -80.7 -17.9 -70.45 -18.2 -71.35 -12.5 -84.9 -12.55 -94.8 -11.2 Q-96.1 -10.8 -97.0 -10.25 L-97.75 -9.45 Q-99.0 -7.15 -93.35 -7.75 L-92.0 -7.65 -92.0 -6.2 -90.8 -6.15 -85.6 -6.2 -85.45 -2.8 Q-85.4 -1.9 -85.7 -1.25 L-79.55 -1.2 -79.55 1.25 -79.3 1.25 -80.45 10.15 -85.95 10.3 -85.95 14.15 -83.55 13.9 -86.1 17.25 -78.85 15.75 -71.05 16.35 -71.95 20.4 Q-82.0 30.35 -89.65 26.0 L-91.85 29.0 M-48.3 -13.1 L-29.35 -13.15 -24.95 -12.0 -24.95 -9.45 -19.0 -7.65 -18.75 -3.55 -24.0 -1.0 -30.05 4.35 -36.1 4.15 -43.0 2.5 -43.15 1.75 -44.0 -0.75 -48.0 -0.85 -48.0 -3.65 -50.25 -4.5 -51.7 -9.2 -48.3 -13.1 M5.5 20.1 Q5.5 18.0 8.25 16.55 11.0 15.05 14.85 15.05 L5.5 20.1 M96.3 -26.2 L97.35 -23.3 98.8 -16.55 95.05 -16.65 89.7 -10.55 80.7 -12.0 82.4 -18.65 94.05 -26.5 96.3 -26.2 M92.5 22.85 L92.75 22.8 Q91.65 20.25 92.5 22.85 M6.2 41.5 Q7.95 41.15 6.0 41.75 L6.2 41.5 M-52.5 -78.15 L-52.4 -78.75 Q-51.15 -80.5 -45.5 -80.5 -43.4 -80.5 -42.05 -79.95 L-41.65 -79.75 -40.5 -78.85 Q-41.65 -76.25 -42.55 -74.7 -44.15 -71.95 -49.0 -70.6 -49.0 -71.35 -50.05 -72.9 -50.7 -73.85 -49.25 -74.75 L-49.1 -74.85 -53.5 -75.6 Q-52.95 -76.4 -52.5 -78.15 M-11.8 45.6 L-11.55 45.45 Q-14.6 51.45 -11.8 45.6 M-57.5 39.55 L-58.85 41.25 Q-62.05 41.55 -58.1 39.8 L-57.5 39.55" fill="#000000" fill-opacity="0.3019608" fill-rule="evenodd" stroke="none"/>
    <path d="M28.75 51.6 L19.2 51.1 16.55 53.0 12.85 53.05 14.65 46.1 8.55 46.85 Q-7.2 57.0 -5.6 46.7 L-17.0 50.85 -17.2 43.95 15.8 31.6 17.9 35.4 38.9 30.35 39.3 31.65 39.05 34.35 34.2 39.85 Q29.4 36.4 33.45 40.3 L34.0 40.25 28.75 51.6 M-43.1 47.25 L-77.0 47.2 -78.6 43.65 -88.4 46.8 -89.2 38.05 -80.35 37.95 -55.95 25.7 -52.1 26.8 -51.6 32.85 -52.6 34.75 -57.5 39.55 -58.1 39.8 Q-62.05 41.55 -58.85 41.25 L-49.95 41.75 -52.5 44.3 -51.2 43.95 Q-44.15 41.55 -43.1 47.25 M38.2 -16.1 L38.3 -16.15 38.2 -16.1 M6.2 41.5 L6.0 41.75 Q7.95 41.15 6.2 41.5 M29.35 46.1 L29.3 45.2 Q26.1 45.8 29.35 46.1 M-11.8 45.6 Q-14.6 51.45 -11.55 45.45 L-11.8 45.6 M-68.0 39.3 L-71.55 42.25 -68.95 43.35 -68.0 39.3" fill="#000000" fill-opacity="0.49803922" fill-rule="evenodd" stroke="none"/>
    <path d="M38.1 -16.05 L38.2 -16.1 38.3 -16.15 38.1 -16.05" fill="#bbbbbb" fill-rule="evenodd" stroke="none"/>
    <path d="M51.2 -77.05 L49.55 -74.6 47.5 -70.6 57.85 -68.6 Q59.95 -68.6 60.95 -70.2 L61.2 -70.6 69.3 -69.35 68.35 -67.25 Q67.35 -65.6 65.85 -65.6 L48.85 -67.2 31.0 -69.6 Q31.6 -70.5 31.4 -72.2 32.25 -73.5 39.0 -73.5 L45.5 -72.35 45.9 -72.0 Q46.25 -71.8 46.25 -72.6 L42.5 -74.1 45.0 -78.0 51.3 -77.5 51.2 -77.05 M59.5 -52.5 L67.3 -41.4 65.3 -39.6 Q63.45 -37.95 60.9 -37.65 56.35 -36.7 51.6 -37.65 L47.05 -52.5 59.5 -52.5 M4.9 -83.0 L2.5 -79.6 3.0 -79.5 6.0 -79.85 6.0 -79.75 Q6.0 -77.3 6.25 -76.65 0.45 -75.1 -0.5 -71.5 L-1.0 -71.6 -1.0 -75.0 -1.1 -75.35 Q-2.8 -74.65 -3.5 -74.0 L-4.0 -74.1 Q-4.0 -75.65 -2.75 -77.75 L-2.6 -77.85 -6.5 -78.1 Q-6.25 -78.45 -5.3 -81.05 -3.75 -83.5 -0.5 -83.5 L4.9 -83.0 M20.6 -8.65 L20.6 -12.35 25.5 -17.0 32.7 -17.85 33.45 -15.1 38.2 -16.15 38.2 -16.1 38.1 -16.05 33.85 -13.35 34.35 -2.15 44.65 -3.85 52.3 -0.85 30.8 3.65 29.35 -1.5 25.5 -2.55 25.5 -5.45 20.6 -5.55 20.6 -7.05 20.6 -8.65 M58.6 -13.1 L62.15 -12.45 63.55 -16.55 61.05 -17.65 61.05 -24.35 76.25 -20.4 77.5 -17.95 76.7 -10.6 82.2 -9.5 81.05 -2.45 90.9 -5.4 90.9 -10.75 105.25 -12.0 105.25 -8.75 111.15 -12.0 112.8 -3.9 94.0 -7.3 92.55 8.1 91.85 7.95 Q89.0 8.35 92.6 8.75 92.85 10.55 94.1 12.6 L90.25 15.15 84.65 15.15 81.5 17.6 60.65 18.8 59.7 23.75 65.0 24.1 64.45 28.35 36.55 51.6 28.75 51.6 34.0 40.25 34.2 39.85 39.05 34.35 39.3 31.65 40.35 34.3 36.55 38.05 38.95 38.05 44.8 29.0 38.9 30.35 17.9 35.4 15.8 31.6 -17.2 43.95 -17.0 50.85 -21.35 50.75 -21.35 46.45 -33.45 48.5 -33.95 46.05 -43.1 47.25 Q-44.15 41.55 -51.2 43.95 L-52.5 44.3 -49.95 41.75 -39.95 36.95 -36.5 38.05 -41.9 34.4 -43.25 30.1 -52.6 34.75 -51.6 32.85 -52.1 26.8 -55.95 25.7 -80.35 37.95 -69.4 31.2 -71.7 31.2 -64.8 25.8 -65.85 21.9 -69.95 28.85 -91.85 29.0 -89.65 26.0 Q-82.0 30.35 -71.95 20.4 L-71.05 16.35 -78.85 15.75 -86.1 17.25 -83.55 13.9 -73.9 12.1 -68.6 6.1 -80.45 10.15 -79.3 1.25 -70.9 -9.65 -64.8 -10.3 -65.2 -3.55 -67.8 -1.2 -55.7 -1.5 -59.15 -2.15 -59.15 -7.55 -54.3 -10.85 Q-55.8 -21.5 -43.0 -25.15 L-42.5 -27.75 -36.1 -27.65 -37.0 -14.6 -48.3 -13.1 -51.7 -9.2 -50.25 -4.5 -48.0 -3.65 -48.0 -0.85 -44.0 -0.75 -58.1 8.9 -55.7 9.35 -55.5 13.05 -45.15 11.25 -46.8 18.0 -40.7 18.15 -40.7 20.85 -31.3 18.4 -29.0 18.45 -28.9 24.4 -27.75 20.4 -11.5 15.4 -16.55 29.3 0.6 28.0 4.35 28.05 Q11.2 23.15 14.8 20.65 15.7 22.55 18.15 23.3 L18.35 26.2 29.85 29.9 31.95 28.55 34.85 28.6 34.2 23.65 51.0 23.85 Q50.65 24.65 51.0 24.3 51.65 23.8 51.85 22.8 L48.55 20.9 48.55 16.95 Q40.8 23.0 31.35 19.55 L27.15 12.0 26.25 5.9 36.05 9.15 36.6 13.5 55.0 7.5 54.7 16.8 65.65 15.75 69.35 14.95 71.55 7.75 67.45 6.9 67.7 -0.8 70.2 -3.85 63.5 -2.45 69.35 -6.5 70.3 -10.85 65.0 -10.1 58.6 -13.1 M-29.35 -13.15 L-2.05 -11.05 -2.05 -5.65 Q-6.4 -1.45 -12.4 -0.55 -18.25 0.55 -24.0 -1.0 L-18.75 -3.55 -19.0 -7.65 -24.95 -9.45 -24.95 -12.0 -29.35 -13.15 M84.1 6.75 L83.65 6.6 Q79.35 8.95 84.1 6.75 M-42.05 -79.95 L-36.5 -79.85 -37.1 -78.8 -37.3 -78.0 -37.0 -78.0 -35.0 -77.85 -35.5 -76.75 -34.0 -77.5 -33.6 -77.35 Q-35.75 -71.5 -44.65 -68.1 -47.75 -66.5 -51.0 -66.5 -52.25 -66.5 -53.45 -67.55 L-55.0 -66.5 -56.0 -66.6 Q-54.9 -68.4 -51.95 -70.75 L-52.05 -72.15 Q-52.55 -74.25 -60.5 -74.6 -60.0 -76.35 -57.5 -79.5 -57.0 -79.35 -57.0 -78.6 L-52.5 -78.15 Q-52.95 -76.4 -53.5 -75.6 L-49.1 -74.85 -49.25 -74.75 Q-50.7 -73.85 -50.05 -72.9 -49.0 -71.35 -49.0 -70.6 -44.15 -71.95 -42.55 -74.7 -41.65 -76.25 -40.5 -78.85 L-41.65 -79.75 -42.05 -79.95 M-46.65 -34.55 L-70.85 -40.55 -65.8 -46.65 -55.95 -45.1 -50.2 -52.5 -39.5 -52.5 -49.2 -41.05 -45.5 -40.5 -46.65 -34.55 M-26.9 38.45 L-28.55 38.55 Q-28.6 39.35 -26.9 38.45 M-39.1 24.75 Q-43.8 23.95 -42.9 28.3 L-39.2 24.9 -39.1 24.75 M-6.6 35.8 L-7.25 35.7 Q-12.6 38.0 -6.6 35.8" fill="#000000" fill-opacity="0.14901961" fill-rule="evenodd" stroke="none"/>
    <path d="M20.6 -8.65 L20.6 -7.05 10.35 -1.8 Q18.4 1.3 20.65 11.1 L13.45 8.2 Q3.95 14.45 0.0 5.8 L8.1 1.55 7.7 -0.45 -17.95 12.7 -17.4 16.6 -31.3 18.4 -40.7 20.85 -40.7 18.15 Q-36.9 9.3 -26.1 9.6 -25.9 9.95 -20.8 8.15 L-20.45 6.85 -5.95 -1.95 -2.0 -1.85 -2.4 0.9 Q7.15 -3.0 20.6 -8.65 M19.2 -0.95 L28.65 -0.95 28.65 4.6 19.2 4.6 19.2 -0.95 M0.6 28.0 Q0.6 24.75 2.05 22.45 3.45 20.1 5.5 20.1 L14.85 15.05 17.75 15.1 17.75 18.65 14.8 20.65 Q11.2 23.15 4.35 28.05 L0.6 28.0" fill="#cc3300" fill-rule="evenodd" stroke="none"/>
  </g>
</svg>
