<?xml version="1.0" encoding="UTF-8" standalone="no"?>
<svg xmlns:ffdec="https://www.free-decompiler.com/flash" xmlns:xlink="http://www.w3.org/1999/xlink" ffdec:objectType="shape" height="98.35px" width="100.8px" xmlns="http://www.w3.org/2000/svg">
  <g transform="matrix(1.0, 0.0, 0.0, 1.0, 50.35, 49.2)">
    <path d="M34.7 -24.55 L34.7 -24.45 35.35 -24.25 34.7 -24.55 M29.45 -30.2 L40.2 -24.45 18.35 2.0 9.9 6.95 2.1 1.35 2.15 1.3 -3.8 -3.0 29.45 -30.2" fill="#ccc964" fill-rule="evenodd" stroke="none"/>
    <path d="M40.2 -24.45 L48.4 -20.1 25.4 18.1 9.9 6.95 18.35 2.0 40.2 -24.45 M-3.8 -3.0 L-23.8 -17.45 -23.9 -17.4 -23.85 -17.5 -23.8 -17.45 -23.85 -17.5 -7.8 -39.75 -2.45 -47.2 29.45 -30.2 -3.8 -3.0" fill="#e1e49e" fill-rule="evenodd" stroke="none"/>
    <path d="M-23.85 -17.5 L-35.2 -25.5 -25.25 -35.55 -7.8 -39.75 -23.85 -17.5" fill="#d3d267" fill-rule="evenodd" stroke="none"/>
    <path d="M29.45 -30.2 L40.2 -24.45 48.4 -20.1 25.4 18.1 9.9 6.95 2.1 1.35 M2.15 1.3 L-3.8 -3.0 -23.8 -17.45 -23.85 -17.5 -7.8 -39.75 -2.45 -47.2 29.45 -30.2 M-23.85 -17.5 L-35.2 -25.5 -25.25 -35.55 -7.8 -39.75" fill="none" stroke="#818525" stroke-linecap="square" stroke-linejoin="miter-clip" stroke-miterlimit="3.0" stroke-width="3.0"/>
    <path d="M37.9 -29.25 L36.4 -26.5 31.9 -20.85 29.95 -23.05 21.1 -32.0 17.0 -32.0 21.1 -32.0 29.95 -23.05 13.15 -3.35 -2.2 3.15 -0.35 5.8 2.5 5.35 18.35 16.75 11.55 29.9 1.35 36.0 14.0 19.0 2.5 5.35 14.0 19.0 1.35 36.0 -18.45 36.0 -32.65 30.75 -39.35 19.0 -48.05 15.15 -48.15 5.4 -48.35 -9.85 -33.0 -31.5 -28.8 -39.15 -20.25 -22.5 -20.25 -19.95 -7.2 -19.4 3.95 -20.8 17.0 -32.0 11.55 -32.0 14.4 -38.2 13.2 -41.2 21.55 -45.0 35.35 -41.5 39.4 -32.0 37.9 -29.25 24.25 -38.85 14.4 -38.2 24.25 -38.85 37.9 -29.25 M-10.55 26.2 L-18.45 36.0 -10.55 26.2 M-28.75 -15.0 L-25.8 -16.7 -20.25 -19.95 -25.8 -16.7 -28.75 -15.0 M-48.15 5.4 L-19.55 17.15 -15.65 13.05 -0.35 5.8 -15.65 13.05 -19.55 17.15 -39.35 19.0 -19.55 17.15 -48.15 5.4 M-10.2 6.5 L-2.2 3.15 -10.2 6.5 M-25.8 -16.7 L-33.0 -31.5 -25.8 -16.7" fill="#000000" fill-rule="evenodd" stroke="none"/>
    <path d="M11.55 29.9 Q23.0 23.1 30.45 30.75 L13.5 44.5 14.0 47.15 -18.45 47.15 -18.45 36.0 1.35 36.0 11.55 29.9 M1.35 36.0 Q11.2 35.85 13.5 44.5 11.2 35.85 1.35 36.0" fill="#333333" fill-rule="evenodd" stroke="none"/>
    <path d="M1.35 36.0 L14.0 19.0 2.5 5.35 M13.5 44.5 Q11.2 35.85 1.35 36.0 M-20.25 -19.95 L-25.8 -16.7 -28.75 -15.0" fill="none" stroke="#666666" stroke-linecap="square" stroke-linejoin="miter-clip" stroke-miterlimit="3.0" stroke-width="3.0"/>
    <path d="M-18.45 36.0 L-10.55 26.2 M-33.0 -31.5 L-25.8 -16.7 M-2.2 3.15 L-10.2 6.5 M-0.35 5.8 L-15.65 13.05 -19.55 17.15 -39.35 19.0 M-19.55 17.15 L-48.15 5.4" fill="none" stroke="#666666" stroke-linecap="square" stroke-linejoin="miter-clip" stroke-miterlimit="3.0" stroke-width="2.0"/>
    <path d="M29.95 -23.05 L31.9 -20.85 36.4 -26.5 37.9 -29.25 39.4 -32.0 35.35 -41.5 21.55 -45.0 13.2 -41.2 14.4 -38.2 11.55 -32.0 17.0 -32.0 3.95 -20.8 -7.2 -19.4 -20.25 -19.95 -20.25 -22.5 -28.8 -39.15 -33.0 -31.5 -48.35 -9.85 -48.15 5.4 -48.05 15.15 -39.35 19.0 -32.65 30.75 -18.45 36.0 -18.45 47.15 14.0 47.15 13.5 44.5 30.45 30.75 Q23.0 23.1 11.55 29.9 L18.35 16.75 2.5 5.35 -0.35 5.8 -2.2 3.15 13.15 -3.35 29.95 -23.05" fill="none" stroke="#666666" stroke-linecap="round" stroke-linejoin="miter-clip" stroke-miterlimit="3.0" stroke-width="3.0"/>
    <path d="M37.9 -29.25 L24.25 -38.85 14.4 -38.2 M17.0 -32.0 L21.1 -32.0 29.95 -23.05" fill="none" stroke="#666666" stroke-linecap="round" stroke-linejoin="miter-clip" stroke-miterlimit="3.0" stroke-width="2.0"/>
  </g>
</svg>
