<?xml version="1.0" encoding="UTF-8" standalone="no"?>
<svg xmlns:ffdec="https://www.free-decompiler.com/flash" xmlns:xlink="http://www.w3.org/1999/xlink" ffdec:objectType="shape" height="89.8px" width="57.5px" xmlns="http://www.w3.org/2000/svg">
  <g transform="matrix(1.0, 0.0, 0.0, 1.0, 55.5, 47.75)">
    <path d="M-24.75 -25.55 L-27.7 -31.1 -30.45 -36.2 -27.7 -31.1 -40.0 -11.0 -36.15 20.65 -35.9 20.55 -34.35 37.15 -42.4 40.0 -42.4 23.05 -46.45 -12.5 -30.45 -36.2 -33.15 -41.25 -27.0 -45.5 -13.7 -19.65 -20.0 -16.7 -24.75 -25.55 M-30.2 -36.6 L-30.45 -36.2 -30.2 -36.6 M-29.45 18.05 L-21.6 15.0 -24.1 0.8 -18.55 3.15 -16.1 12.85 -18.55 3.15 -13.0 5.5 -10.8 10.8 -13.35 11.8 -16.1 12.85 -18.85 13.95 -10.25 28.65 -17.45 31.2 -22.7 15.9 -17.45 31.2 -24.95 33.85 -29.45 18.05 M-21.6 15.0 L-18.85 13.95 -21.6 15.0 M-36.15 20.65 L-42.4 23.05 -36.15 20.65" fill="#804000" fill-rule="evenodd" stroke="none"/>
    <path d="M-27.7 -31.1 L-24.75 -25.55 -20.0 -16.7 -28.0 -13.0 -26.0 0.0 -24.1 0.8 -21.6 15.0 -29.45 18.05 -35.9 20.55 -29.45 18.05 -24.95 33.85 -34.35 37.15 -35.9 20.55 -36.15 20.65 -40.0 -11.0 -27.7 -31.1 M-33.15 -41.25 L-30.45 -36.2 -46.45 -12.5 -42.4 23.05 -47.5 25.0 -53.5 -13.0 -35.0 -40.0 -33.15 -41.25 M-28.75 15.5 L-32.25 -11.75 -24.75 -25.55 -32.25 -11.75 -28.75 15.5 M-16.1 12.85 L-13.35 11.8 -2.25 25.8 -10.25 28.65 -18.85 13.95 -16.1 12.85" fill="#663300" fill-rule="evenodd" stroke="none"/>
    <path d="M-27.7 -31.1 L-24.75 -25.55 -20.0 -16.7 -13.7 -19.65 -27.0 -45.5 -33.15 -41.25 -30.45 -36.2 -27.7 -31.1 M-33.15 -41.25 L-35.0 -40.0 -53.5 -13.0 -47.5 25.0 -42.4 23.05 -36.15 20.65 -35.9 20.55 -29.45 18.05 -21.6 15.0 -18.85 13.95 -16.1 12.85 -13.35 11.8 -10.8 10.8 -13.0 5.5 -18.55 3.15 -24.1 0.8 -26.0 0.0 -28.0 -13.0 -20.0 -16.7 M-34.35 37.15 L-24.95 33.85 -17.45 31.2 -10.25 28.65 -2.25 25.8 -13.35 11.8 M-34.35 37.15 L-42.4 40.0 -42.4 23.05" fill="none" stroke="#000000" stroke-linecap="round" stroke-linejoin="miter-clip" stroke-miterlimit="3.0" stroke-width="3.0"/>
    <path d="M-30.45 -36.2 L-30.2 -36.6 M-24.75 -25.55 L-32.25 -11.75 -28.75 15.5 M-24.1 0.8 L-24.25 0.0 M-17.45 31.2 L-22.7 15.9" fill="none" stroke="#000000" stroke-linecap="round" stroke-linejoin="miter-clip" stroke-miterlimit="3.0" stroke-width="1.5"/>
    <path d="M-42.4 23.05 L-46.45 -12.5 -30.45 -36.2 M-27.7 -31.1 L-40.0 -11.0 -36.15 20.65 M-21.6 15.0 L-24.1 0.8 M-18.55 3.15 L-16.1 12.85 M-24.95 33.85 L-29.45 18.05 M-10.25 28.65 L-18.85 13.95 M-35.9 20.55 L-34.35 37.15" fill="none" stroke="#000000" stroke-linecap="round" stroke-linejoin="miter-clip" stroke-miterlimit="3.0" stroke-width="1.5"/>
    <path d="M-2.25 25.8 L0.0 25.0" fill="none" stroke="#000000" stroke-linecap="round" stroke-linejoin="miter-clip" stroke-miterlimit="3.0" stroke-width="3.0"/>
  </g>
</svg>
