<?xml version="1.0" encoding="UTF-8" standalone="no"?>
<svg xmlns:ffdec="https://www.free-decompiler.com/flash" xmlns:xlink="http://www.w3.org/1999/xlink" ffdec:objectType="shape" height="83.0px" width="42.7px" xmlns="http://www.w3.org/2000/svg">
  <g transform="matrix(1.0, 0.0, 0.0, 1.0, 53.7, 45.0)">
    <path d="M-24.95 7.3 L-27.7 5.1 Q-32.0 0.8 -32.0 -5.3 -32.0 -11.4 -27.7 -15.7 -25.3 -18.1 -22.4 -19.15 L-21.0 -15.7 Q-23.25 -14.9 -25.05 -13.05 -28.3 -9.85 -28.3 -5.25 -28.3 -0.7 -25.05 2.55 L-23.0 4.15 Q-20.5 5.75 -17.25 5.75 L-14.05 5.3 -13.0 8.8 -17.3 9.4 Q-21.6 9.4 -24.95 7.3" fill="#663300" fill-rule="evenodd" stroke="none"/>
    <path d="M-34.95 11.75 L-26.1 12.1 -22.25 12.25 -22.25 12.5 -22.4 17.5 -22.5 20.0 -33.85 29.45 -35.0 13.0 -34.95 11.75 M-22.4 -19.15 L-28.3 -43.0 -20.0 -40.0 -16.55 -19.75 Q-20.05 -20.0 -22.4 -19.15" fill="#804900" fill-rule="evenodd" stroke="none"/>
    <path d="M-15.8 12.45 L-22.0 17.5 -22.4 17.5 -22.25 12.5 -22.25 12.25 -15.8 12.45" fill="url(#gradient0)" fill-rule="evenodd" stroke="none"/>
    <path d="M-46.45 11.35 L-34.95 11.75 -35.0 13.0 -33.85 29.45 -33.5 34.75 -43.0 36.0 -46.45 11.35" fill="#a08001" fill-rule="evenodd" stroke="none"/>
    <path d="M-46.45 11.35 L-50.6 11.2 Q-56.0 -18.7 -35.45 -41.15 L-28.3 -43.0 -22.4 -19.15 Q-25.3 -18.1 -27.7 -15.7 -32.0 -11.4 -32.0 -5.3 -32.0 0.8 -27.7 5.1 L-24.95 7.3 -26.1 12.1 -24.95 7.3 Q-21.6 9.4 -17.3 9.4 L-13.0 8.8 -15.8 12.45 -22.25 12.25 -26.1 12.1 -34.95 11.75 -46.45 11.35 M-36.0 -15.35 L-29.7 -19.85 -36.0 -15.35 M-36.45 -18.5 L-30.15 -23.0 -36.45 -18.5" fill="url(#gradient1)" fill-rule="evenodd" stroke="none"/>
    <path d="M-22.25 12.25 L-26.1 12.1 M-22.4 17.5 L-22.25 12.5 M-22.25 12.25 L-15.8 12.45 M-35.0 13.0 L-33.85 29.45" fill="none" stroke="#592400" stroke-linecap="square" stroke-linejoin="miter-clip" stroke-miterlimit="3.0" stroke-width="1.5"/>
    <path d="M-30.15 -23.0 L-36.45 -18.5 M-29.7 -19.85 L-36.0 -15.35" fill="none" stroke="#635101" stroke-linecap="square" stroke-linejoin="miter-clip" stroke-miterlimit="10.0" stroke-width="1.0"/>
    <path d="M-22.4 17.5 L-22.5 20.0 -33.85 29.45 -33.5 34.75 -43.0 36.0 -46.45 11.35" fill="none" stroke="#592400" stroke-linecap="square" stroke-linejoin="miter-clip" stroke-miterlimit="3.0" stroke-width="3.0"/>
    <path d="M-28.3 -43.0 L-35.45 -41.15 Q-56.0 -18.7 -50.6 11.2 L-46.45 11.35 M-13.0 8.8 L-15.8 12.45 -22.0 17.5" fill="none" stroke="#592400" stroke-linecap="round" stroke-linejoin="miter-clip" stroke-miterlimit="3.0" stroke-width="3.0"/>
    <path d="M-46.45 11.35 L-34.95 11.75 -26.1 12.1 -24.95 7.3 -27.7 5.1 Q-32.0 0.8 -32.0 -5.3 -32.0 -11.4 -27.7 -15.7 -25.3 -18.1 -22.4 -19.15" fill="none" stroke="#592400" stroke-linecap="square" stroke-linejoin="miter-clip" stroke-miterlimit="3.0" stroke-width="1.5"/>
    <path d="M-22.4 -19.15 L-28.3 -43.0" fill="none" stroke="#592400" stroke-linecap="round" stroke-linejoin="miter-clip" stroke-miterlimit="3.0" stroke-width="1.5"/>
    <path d="M-28.3 -43.0 L-20.0 -40.0 -16.55 -19.75 Q-20.05 -20.0 -22.4 -19.15 L-21.0 -15.7 Q-23.25 -14.9 -25.05 -13.05 -28.3 -9.85 -28.3 -5.25 -28.3 -0.7 -25.05 2.55 L-23.0 4.15 Q-20.5 5.75 -17.25 5.75 L-14.05 5.3 -13.0 8.8" fill="none" stroke="#592400" stroke-linecap="round" stroke-linejoin="miter-clip" stroke-miterlimit="3.0" stroke-width="3.0"/>
    <path d="M-13.0 8.8 L-17.3 9.4 Q-21.6 9.4 -24.95 7.3" fill="none" stroke="#592400" stroke-linecap="round" stroke-linejoin="miter-clip" stroke-miterlimit="3.0" stroke-width="1.5"/>
    <path d="M-33.6 -36.85 Q-32.4 -37.15 -31.8 -36.5 -31.15 -35.9 -31.45 -34.7 -31.75 -33.5 -32.8 -32.4 -33.9 -31.35 -35.1 -31.05 -36.3 -30.75 -36.95 -31.35 -37.55 -32.0 -37.25 -33.2 -36.95 -34.4 -35.85 -35.5 -34.8 -36.55 -33.6 -36.85" fill="#ffff00" fill-opacity="0.2" fill-rule="evenodd" stroke="none"/>
  </g>
  <defs>
    <linearGradient gradientTransform="matrix(0.0126, 0.0, 0.0, 0.0074, -111.0, 18.0)" gradientUnits="userSpaceOnUse" id="gradient0" spreadMethod="pad" x1="-819.2" x2="819.2">
      <stop offset="0.0" stop-color="#a08001"/>
      <stop offset="1.0" stop-color="#5c4901"/>
    </linearGradient>
    <radialGradient cx="0" cy="0" fx="-236.8" fy="0" gradientTransform="matrix(0.0347, 0.0, 0.0, 0.0507, -44.5, -23.0)" gradientUnits="userSpaceOnUse" id="gradient1" r="819.2" spreadMethod="pad">
      <stop offset="0.0" stop-color="#a08001"/>
      <stop offset="0.6039215686274509" stop-color="#8c7201"/>
      <stop offset="0.7686274509803922" stop-color="#6c5b01"/>
      <stop offset="1.0" stop-color="#5c4901"/>
    </radialGradient>
  </defs>
</svg>
