<?xml version="1.0" encoding="UTF-8" standalone="no"?>
<svg xmlns:ffdec="https://www.free-decompiler.com/flash" xmlns:xlink="http://www.w3.org/1999/xlink" ffdec:objectType="shape" height="160.05px" width="303.15px" xmlns="http://www.w3.org/2000/svg">
  <g transform="matrix(1.0, 0.0, 0.0, 1.0, 267.65, 45.15)">
    <path d="M7.55 -41.55 Q24.8 -34.4 31.95 -17.25 39.05 0.0 31.9 17.25 24.75 34.5 7.55 41.6 1.85 43.95 -3.85 44.8 L-11.0 62.05 3.35 62.05 3.35 92.05 -31.9 107.05 -146.65 107.05 -146.65 92.05 -152.2 92.05 -165.4 114.9 -202.9 114.9 -217.4 89.8 -217.25 74.8 -176.65 74.8 -217.25 74.8 -202.9 49.85 -165.4 49.85 -158.5 61.85 -123.4 61.85 -123.3 62.05 -59.7 62.05 -45.4 27.55 Q-48.9 22.95 -51.25 17.2 -58.35 0.05 -51.2 -17.2 -44.1 -34.45 -26.9 -41.6 -15.6 -46.3 -4.2 -44.75 1.65 -44.0 7.55 -41.55" fill="#ffffff" fill-opacity="0.101960786" fill-rule="evenodd" stroke="none"/>
    <path d="M-30.65 42.05 L-30.65 72.05 Q-30.7 73.8 -31.65 75.35 -32.65 76.85 -34.3 77.55 L-69.55 92.55 -71.9 93.05 -186.65 93.05 Q-189.15 93.05 -190.9 91.3 -192.7 89.5 -192.65 87.05 L-192.65 84.85 -200.2 97.9 Q-201.05 99.25 -202.45 100.1 -203.85 100.9 -205.4 100.9 L-242.9 100.9 Q-244.55 100.9 -245.9 100.1 -247.3 99.25 -248.1 97.9 L-266.85 65.4 Q-267.65 63.95 -267.65 62.4 -267.65 60.8 -266.85 59.4 L-248.1 26.85 Q-247.3 25.45 -245.9 24.65 -244.55 23.85 -242.9 23.85 L-205.4 23.85 Q-202.95 23.85 -201.15 25.6 L-201.15 25.65 -200.2 26.9 -192.45 40.35 Q-192.05 38.9 -190.9 37.8 -189.15 36.0 -186.65 36.05 L-36.65 36.05 Q-34.2 36.0 -32.4 37.8 -30.65 39.55 -30.65 42.05" fill="url(#gradient0)" fill-rule="evenodd" stroke="none"/>
  </g>
  <defs>
    <linearGradient gradientTransform="matrix(0.1447, 0.0, 0.0, 0.047, -149.15, 62.35)" gradientUnits="userSpaceOnUse" id="gradient0" spreadMethod="pad" x1="-819.2" x2="819.2">
      <stop offset="0.0" stop-color="#ffffff" stop-opacity="0.3019608"/>
      <stop offset="1.0" stop-color="#ffffff" stop-opacity="0.0"/>
    </linearGradient>
  </defs>
</svg>
