<?xml version="1.0" encoding="UTF-8" standalone="no"?>
<svg xmlns:ffdec="https://www.free-decompiler.com/flash" xmlns:xlink="http://www.w3.org/1999/xlink" ffdec:objectType="shape" height="242.0px" width="238.8px" xmlns="http://www.w3.org/2000/svg">
  <g transform="matrix(1.0, 0.0, 0.0, 1.0, 117.9, 121.0)">
    <path d="M78.4 -44.4 Q72.45 -54.7 63.5 -63.65 37.15 -90.0 -0.1 -90.0 L-0.1 -120.0 Q27.6 -120.0 50.8 -109.05 69.2 -100.4 84.7 -84.9 98.5 -71.1 106.9 -55.1 L78.4 -44.4 106.9 -55.1 Q113.4 -42.65 116.65 -28.8 L88.2 -18.1 116.65 -28.8 Q119.9 -15.05 119.9 0.0 119.9 49.75 84.7 84.85 49.6 120.0 -0.1 120.0 -49.85 120.0 -85.0 84.85 -98.75 71.1 -107.1 55.15 L-78.65 44.45 -107.1 55.15 Q-113.65 42.65 -116.9 28.8 L-88.4 18.15 Q-85.75 32.2 -78.65 44.45 -72.75 54.65 -63.8 63.6 -37.4 90.0 -0.1 90.0 37.15 90.0 63.5 63.6 89.9 37.3 89.9 0.0 89.9 -9.4 88.2 -18.1 85.5 -32.15 78.4 -44.4" fill="#000000" fill-rule="evenodd" stroke="none"/>
    <path d="M-0.1 -120.0 L-0.1 -90.0 Q-16.15 -90.0 -30.1 -85.15 L-30.1 -105.0 -0.1 -120.0 M-88.4 18.15 L-116.9 28.8 -103.75 0.0 -90.1 0.0 Q-90.1 9.4 -88.4 18.15" fill="#262626" fill-rule="evenodd" stroke="none"/>
    <path d="M-0.1 -90.0 Q37.15 -90.0 63.5 -63.65 72.45 -54.7 78.4 -44.4 L-0.1 -15.0 78.4 -44.4 Q85.5 -32.15 88.2 -18.1 89.9 -9.4 89.9 0.0 89.9 37.3 63.5 63.6 37.15 90.0 -0.1 90.0 -37.4 90.0 -63.8 63.6 -72.75 54.65 -78.65 44.45 -85.75 32.2 -88.4 18.15 L-0.1 -15.0 -0.1 -90.0 M88.2 -18.1 L-78.65 44.45 88.2 -18.1" fill="url(#gradient0)" fill-rule="evenodd" stroke="none"/>
    <path d="M-0.1 -90.0 Q37.15 -90.0 63.5 -63.65 72.45 -54.7 78.4 -44.4 L106.9 -55.1 M-0.1 -120.0 L-0.1 -90.0 -0.1 -15.0 78.4 -44.4 Q85.5 -32.15 88.2 -18.1 L116.65 -28.8 M-0.1 -90.0 Q-16.15 -90.0 -30.1 -85.15 M88.2 -18.1 Q89.9 -9.4 89.9 0.0 89.9 37.3 63.5 63.6 37.15 90.0 -0.1 90.0 -37.4 90.0 -63.8 63.6 -72.75 54.65 -78.65 44.45 L-107.1 55.15 M-116.9 28.8 L-88.4 18.15 Q-90.1 9.4 -90.1 0.0 M-78.65 44.45 Q-85.75 32.2 -88.4 18.15 L-0.1 -15.0 M-78.65 44.45 L88.2 -18.1" fill="none" stroke="#ffffff" stroke-linecap="round" stroke-linejoin="round" stroke-opacity="0.3019608" stroke-width="2.0"/>
    <path d="M106.9 -55.1 Q98.5 -71.1 84.7 -84.9 69.2 -100.4 50.8 -109.05 27.6 -120.0 -0.1 -120.0 L-30.1 -105.0 -30.1 -85.15 M116.65 -28.8 Q113.4 -42.65 106.9 -55.1 M-107.1 55.15 Q-98.75 71.1 -85.0 84.85 -49.85 120.0 -0.1 120.0 49.6 120.0 84.7 84.85 119.9 49.75 119.9 0.0 119.9 -15.05 116.65 -28.8 M-90.1 0.0 L-103.75 0.0 -116.9 28.8 Q-113.65 42.65 -107.1 55.15" fill="none" stroke="#ffffff" stroke-linecap="round" stroke-linejoin="round" stroke-opacity="0.6" stroke-width="2.0"/>
  </g>
  <defs>
    <radialGradient cx="0" cy="0" gradientTransform="matrix(0.1144, 0.0, 0.0, 0.1144, 2.15, -3.0)" gradientUnits="userSpaceOnUse" id="gradient0" r="819.2" spreadMethod="pad">
      <stop offset="0.0" stop-color="#7b7b7b"/>
      <stop offset="0.5254901960784314" stop-color="#333333"/>
      <stop offset="0.8196078431372549" stop-color="#07060b"/>
      <stop offset="0.9019607843137255" stop-color="#000000"/>
      <stop offset="1.0" stop-color="#262626"/>
    </radialGradient>
  </defs>
</svg>
