<?xml version="1.0" encoding="UTF-8" standalone="no"?>
<svg xmlns:ffdec="https://www.free-decompiler.com/flash" xmlns:xlink="http://www.w3.org/1999/xlink" ffdec:objectType="shape" height="63.65px" width="61.4px" xmlns="http://www.w3.org/2000/svg">
  <g transform="matrix(1.0, 0.0, 0.0, 1.0, 30.25, 28.15)">
    <path d="M5.8 30.0 L4.3 35.2 4.3 35.15 4.2 35.5 -25.15 32.95 -30.25 26.25 -27.95 -0.15 -23.85 1.55 -11.3 6.65 -11.25 6.65 3.1 12.5 10.05 15.3 5.8 30.0" fill="url(#gradient0)" fill-rule="evenodd" stroke="none"/>
    <path d="M25.7 8.95 L31.15 7.55 29.35 27.9 22.95 33.45 7.1 32.05 7.85 29.7 12.65 15.25 13.7 12.1 25.7 8.95" fill="url(#gradient1)" fill-rule="evenodd" stroke="none"/>
    <path d="M1.15 -19.8 L2.85 -24.5 22.4 -26.2 28.75 -21.35 30.95 3.5 Q30.65 3.5 30.4 3.65 L24.6 6.2 12.45 11.55 12.4 11.6 12.4 11.55 5.0 9.95 -8.45 7.1 -2.8 -8.7 1.15 -19.8 M12.45 11.55 L12.4 11.55 12.45 11.55" fill="url(#gradient2)" fill-rule="evenodd" stroke="none"/>
    <path d="M-23.65 -2.05 L-29.8 -4.45 -28.5 -22.9 -21.95 -28.15 2.95 -26.4 -0.9 -19.4 -7.55 -7.15 -12.65 2.2 -23.65 -2.05" fill="url(#gradient3)" fill-rule="evenodd" stroke="none"/>
    <path d="M24.6 6.2 L25.7 8.95 13.7 12.1 12.45 11.55 24.6 6.2 M7.85 29.7 L5.8 30.0 10.05 15.3 12.65 15.25 7.85 29.7 M-23.85 1.55 L-23.65 -2.05 -12.65 2.2 -11.3 6.65 -23.85 1.55 M-0.9 -19.4 L1.15 -19.8 -2.8 -8.7 -7.55 -7.15 -0.9 -19.4 M-8.45 7.1 L5.0 9.95 3.1 12.5 -11.25 6.65 -8.45 7.1" fill="#181f32" fill-rule="evenodd" stroke="none"/>
    <path d="M12.4 11.55 L12.45 11.55" fill="none" stroke="#ff0000" stroke-linecap="round" stroke-linejoin="round" stroke-width="0.05"/>
    <path d="M25.55 -23.5 L27.75 1.5 12.1 8.45 -4.45 4.9 5.0 -21.7 25.55 -23.5 M2.0 32.25 L-27.55 29.7 -25.3 4.15 6.4 17.05 2.0 32.25 M27.75 11.5 L26.1 30.7 11.15 29.4 16.05 14.6 27.75 11.5 M-14.0 -1.55 L-26.65 -6.45 -25.35 -25.35 -1.9 -23.7 -14.0 -1.55" fill="#ffffff" fill-opacity="0.2" fill-rule="evenodd" stroke="none"/>
  </g>
  <defs>
    <linearGradient gradientTransform="matrix(-0.0213, -0.0057, 0.0051, -0.019, -11.5, 20.95)" gradientUnits="userSpaceOnUse" id="gradient0" spreadMethod="pad" x1="-819.2" x2="819.2">
      <stop offset="0.0" stop-color="#a2a2bb"/>
      <stop offset="1.0" stop-color="#6a6b78"/>
    </linearGradient>
    <linearGradient gradientTransform="matrix(0.0104, 0.0028, -0.0047, 0.0176, 20.9, 20.3)" gradientUnits="userSpaceOnUse" id="gradient1" spreadMethod="pad" x1="-819.2" x2="819.2">
      <stop offset="0.0" stop-color="#a2a2bb"/>
      <stop offset="1.0" stop-color="#4d4e55"/>
    </linearGradient>
    <linearGradient gradientTransform="matrix(0.0026, 0.0198, -0.0247, 0.0033, 10.35, -6.8)" gradientUnits="userSpaceOnUse" id="gradient2" spreadMethod="pad" x1="-819.2" x2="819.2">
      <stop offset="0.0" stop-color="#88889e"/>
      <stop offset="1.0" stop-color="#414247"/>
    </linearGradient>
    <linearGradient gradientTransform="matrix(0.0042, -0.0157, 0.018, 0.0048, -16.3, -13.65)" gradientUnits="userSpaceOnUse" id="gradient3" spreadMethod="pad" x1="-819.2" x2="819.2">
      <stop offset="0.0" stop-color="#a2a2bb"/>
      <stop offset="1.0" stop-color="#6a6b78"/>
    </linearGradient>
  </defs>
</svg>
