<?xml version="1.0" encoding="UTF-8" standalone="no"?>
<svg xmlns:ffdec="https://www.free-decompiler.com/flash" xmlns:xlink="http://www.w3.org/1999/xlink" ffdec:objectType="shape" height="68.85px" width="62.35px" xmlns="http://www.w3.org/2000/svg">
  <g transform="matrix(1.0, 0.0, 0.0, 1.0, 31.3, 26.05)">
    <path d="M-24.85 -0.55 L-29.4 -2.1 -28.75 -20.7 -22.85 -26.05 2.55 -25.2 0.45 -21.0 -8.85 -2.5 -12.05 3.95 -17.0 2.2 -24.85 -0.55" fill="url(#gradient0)" fill-rule="evenodd" stroke="none"/>
    <path d="M0.65 -20.9 L0.7 -20.9 20.5 -24.4 26.8 -19.7 31.05 4.55 30.55 4.75 21.95 9.5 13.35 14.25 13.3 14.2 -7.85 11.55 -5.3 1.9 0.65 -20.9" fill="url(#gradient1)" fill-rule="evenodd" stroke="none"/>
    <path d="M4.45 36.85 L2.3 42.45 2.15 42.8 -27.65 37.55 -31.3 30.2 -26.75 4.5 -23.7 6.05 9.7 23.2 4.45 36.85" fill="url(#gradient2)" fill-rule="evenodd" stroke="none"/>
    <path d="M22.05 14.15 L30.7 11.55 29.65 32.0 23.75 37.75 7.5 36.9 11.6 22.9 13.4 16.75 22.05 14.15" fill="url(#gradient3)" fill-rule="evenodd" stroke="none"/>
    <path d="M0.45 -21.0 L0.65 -20.9 -5.3 1.9 -8.85 -2.5 0.45 -21.0 M21.95 9.5 L22.05 14.15 13.4 16.75 13.3 14.25 13.35 14.25 21.95 9.5 M7.5 36.9 L4.45 36.85 9.7 23.2 11.6 22.9 7.5 36.9 M-26.75 4.5 L-24.85 -0.55 -17.0 2.2 -23.7 6.05 -26.75 4.5" fill="#181f32" fill-rule="evenodd" stroke="none"/>
    <path d="M13.3 14.25 L13.3 14.2" fill="none" stroke="#ff0000" stroke-linecap="round" stroke-linejoin="round" stroke-width="0.05"/>
    <path d="M23.35 -21.85 L27.75 2.85 12.75 11.1 -4.05 9.0 3.05 -18.3 23.35 -21.85 M0.25 39.4 L-28.95 34.25 -24.5 9.0 5.95 24.65 0.25 39.4 M26.45 34.9 L11.45 34.1 15.8 19.15 27.45 15.65 26.45 34.9 M-25.65 -23.15 L-2.25 -22.35 -13.55 0.25 -26.35 -4.2 -25.65 -23.15" fill="#ffffff" fill-opacity="0.2" fill-rule="evenodd" stroke="none"/>
  </g>
  <defs>
    <linearGradient gradientTransform="matrix(0.0, -0.0149, 0.0195, 0.0, -13.45, -12.2)" gradientUnits="userSpaceOnUse" id="gradient0" spreadMethod="pad" x1="-819.2" x2="819.2">
      <stop offset="0.0" stop-color="#a2a2bb"/>
      <stop offset="1.0" stop-color="#6a6b78"/>
    </linearGradient>
    <linearGradient gradientTransform="matrix(0.0031, 0.0198, -0.0238, 0.0037, 9.55, -5.3)" gradientUnits="userSpaceOnUse" id="gradient1" spreadMethod="pad" x1="-819.2" x2="819.2">
      <stop offset="0.0" stop-color="#88889e"/>
      <stop offset="1.0" stop-color="#414247"/>
    </linearGradient>
    <linearGradient gradientTransform="matrix(-0.0206, -0.0079, 0.007, -0.0183, -12.6, 27.2)" gradientUnits="userSpaceOnUse" id="gradient2" spreadMethod="pad" x1="-819.2" x2="819.2">
      <stop offset="0.0" stop-color="#a2a2bb"/>
      <stop offset="1.0" stop-color="#6a6b78"/>
    </linearGradient>
    <linearGradient gradientTransform="matrix(0.0103, 0.0, 0.0, 0.0162, 21.05, 24.8)" gradientUnits="userSpaceOnUse" id="gradient3" spreadMethod="pad" x1="-819.2" x2="819.2">
      <stop offset="0.0" stop-color="#a2a2bb"/>
      <stop offset="1.0" stop-color="#4d4e55"/>
    </linearGradient>
  </defs>
</svg>
