<?xml version="1.0" encoding="UTF-8" standalone="no"?>
<svg xmlns:ffdec="https://www.free-decompiler.com/flash" xmlns:xlink="http://www.w3.org/1999/xlink" ffdec:objectType="shape" height="72.85px" width="54.7px" xmlns="http://www.w3.org/2000/svg">
  <g transform="matrix(1.0, 0.0, 0.0, 1.0, 29.5, 11.15)">
    <path d="M-27.75 -6.95 L-21.2 -11.15 -2.4 -8.85 -16.05 13.35 -29.5 7.3 -27.75 -6.95" fill="url(#gradient0)" fill-rule="evenodd" stroke="none"/>
    <path d="M5.4 -1.95 L14.1 -1.95 24.55 10.5 24.25 10.8 20.7 16.75 -1.25 14.2 -3.6 5.6 5.4 -1.95 M-0.45 33.45 L-7.7 18.2 16.8 16.7 13.9 24.2 13.85 24.2 -0.45 33.45" fill="url(#gradient1)" fill-rule="evenodd" stroke="none"/>
    <path d="M-25.9 40.85 L-29.35 35.25 -23.75 14.3 -11.45 22.05 -16.65 43.3 -25.9 40.85 M-16.7 53.8 L-4.55 35.6 6.7 50.05 -5.25 61.5 -5.45 61.7 -16.7 53.8" fill="url(#gradient2)" fill-rule="evenodd" stroke="none"/>
    <path d="M11.05 28.9 L25.2 25.95 22.75 43.35 18.45 46.45 4.95 44.55 11.05 28.9" fill="url(#gradient3)" fill-rule="evenodd" stroke="none"/>
    <path d="M-7.4 -6.45 L-17.25 9.55 -26.25 5.5 -24.55 -8.55 -7.4 -6.45 M-14.9 23.45 L-18.85 39.6 -26.85 37.45 -21.9 19.05 -14.9 23.45 M-12.55 53.05 L-4.35 40.75 2.65 49.75 -5.75 57.8 -12.55 53.05 M0.8 29.1 L-3.1 20.9 12.35 20.0 11.5 22.2 0.8 29.1 M19.15 13.55 L1.15 11.45 -0.2 6.65 10.15 -2.0 20.8 10.75 19.15 13.55 M21.6 29.8 L19.7 43.55 9.1 42.1 13.25 31.5 21.6 29.8" fill="#ffffff" fill-opacity="0.2" fill-rule="evenodd" stroke="none"/>
  </g>
  <defs>
    <linearGradient gradientTransform="matrix(0.0, -0.0149, 0.0195, 0.0, -13.45, 1.8)" gradientUnits="userSpaceOnUse" id="gradient0" spreadMethod="pad" x1="-819.2" x2="819.2">
      <stop offset="0.0" stop-color="#a2a2bb"/>
      <stop offset="1.0" stop-color="#6a6b78"/>
    </linearGradient>
    <linearGradient gradientTransform="matrix(0.0031, 0.0198, -0.0238, 0.0037, 9.55, 8.7)" gradientUnits="userSpaceOnUse" id="gradient1" spreadMethod="pad" x1="-819.2" x2="819.2">
      <stop offset="0.0" stop-color="#88889e"/>
      <stop offset="1.0" stop-color="#414247"/>
    </linearGradient>
    <linearGradient gradientTransform="matrix(-0.0206, -0.0079, 0.007, -0.0183, -12.6, 41.2)" gradientUnits="userSpaceOnUse" id="gradient2" spreadMethod="pad" x1="-819.2" x2="819.2">
      <stop offset="0.0" stop-color="#a2a2bb"/>
      <stop offset="1.0" stop-color="#6a6b78"/>
    </linearGradient>
    <linearGradient gradientTransform="matrix(0.0103, 0.0, 0.0, 0.0162, 21.05, 38.8)" gradientUnits="userSpaceOnUse" id="gradient3" spreadMethod="pad" x1="-819.2" x2="819.2">
      <stop offset="0.0" stop-color="#a2a2bb"/>
      <stop offset="1.0" stop-color="#4d4e55"/>
    </linearGradient>
  </defs>
</svg>
