<?xml version="1.0" encoding="UTF-8" standalone="no"?>
<svg xmlns:ffdec="https://www.free-decompiler.com/flash" xmlns:xlink="http://www.w3.org/1999/xlink" ffdec:objectType="shape" height="71.15px" width="48.1px" xmlns="http://www.w3.org/2000/svg">
  <g transform="matrix(1.0, 0.0, 0.0, 1.0, 25.55, 4.7)">
    <path d="M-2.7 38.55 L-8.15 27.1 10.2 26.0 8.05 31.6 8.0 31.6 -2.7 38.55 M22.55 16.35 L22.35 16.6 19.65 21.0 3.2 19.15 1.4 12.65 12.0 3.8 22.55 16.35" fill="url(#gradient0)" fill-rule="evenodd" stroke="none"/>
    <path d="M-23.0 -4.7 L-4.45 -2.4 -14.7 14.2 -24.8 9.7 -23.0 -4.7" fill="url(#gradient1)" fill-rule="evenodd" stroke="none"/>
    <path d="M19.25 35.7 L17.05 51.45 4.05 49.6 8.65 37.85 19.25 35.7" fill="url(#gradient2)" fill-rule="evenodd" stroke="none"/>
    <path d="M-11.25 28.75 L-15.15 44.7 -25.55 41.9 -20.45 22.95 -11.25 28.75 M-14.15 60.55 L-5.0 46.9 3.4 57.7 -5.7 66.45 -14.15 60.55" fill="url(#gradient3)" fill-rule="evenodd" stroke="none"/>
    <path d="M-9.45 0.0 L-15.9 10.4 Q-18.7 9.15 -21.55 7.85 L-20.4 -1.35 -9.45 0.0 M-3.55 29.85 L6.1 29.25 -1.5 34.2 -3.55 29.85 M-21.85 39.75 L-18.6 27.65 -14.65 30.15 -17.35 41.0 -21.85 39.75 M-4.85 52.05 L-0.65 57.45 -6.0 62.6 -10.0 59.8 -4.85 52.05 M11.65 8.05 L18.85 16.6 18.1 17.8 5.6 16.4 4.85 13.7 11.65 8.05 M8.25 47.15 L10.85 40.5 15.65 39.5 14.5 48.05 8.25 47.15" fill="#ffffff" fill-opacity="0.2" fill-rule="evenodd" stroke="none"/>
  </g>
  <defs>
    <linearGradient gradientTransform="matrix(0.0031, 0.0198, -0.0238, 0.0037, 9.55, 19.2)" gradientUnits="userSpaceOnUse" id="gradient0" spreadMethod="pad" x1="-819.2" x2="819.2">
      <stop offset="0.0" stop-color="#88889e"/>
      <stop offset="1.0" stop-color="#414247"/>
    </linearGradient>
    <linearGradient gradientTransform="matrix(0.0, -0.0149, 0.0195, 0.0, -13.45, 12.3)" gradientUnits="userSpaceOnUse" id="gradient1" spreadMethod="pad" x1="-819.2" x2="819.2">
      <stop offset="0.0" stop-color="#a2a2bb"/>
      <stop offset="1.0" stop-color="#6a6b78"/>
    </linearGradient>
    <linearGradient gradientTransform="matrix(0.0103, 0.0, 0.0, 0.0162, 21.05, 49.3)" gradientUnits="userSpaceOnUse" id="gradient2" spreadMethod="pad" x1="-819.2" x2="819.2">
      <stop offset="0.0" stop-color="#a2a2bb"/>
      <stop offset="1.0" stop-color="#4d4e55"/>
    </linearGradient>
    <linearGradient gradientTransform="matrix(-0.0206, -0.0079, 0.007, -0.0183, -12.6, 51.7)" gradientUnits="userSpaceOnUse" id="gradient3" spreadMethod="pad" x1="-819.2" x2="819.2">
      <stop offset="0.0" stop-color="#a2a2bb"/>
      <stop offset="1.0" stop-color="#6a6b78"/>
    </linearGradient>
  </defs>
</svg>
