<?xml version="1.0" encoding="UTF-8" standalone="no"?>
<svg xmlns:ffdec="https://www.free-decompiler.com/flash" xmlns:xlink="http://www.w3.org/1999/xlink" ffdec:objectType="shape" height="64.4px" width="41.0px" xmlns="http://www.w3.org/2000/svg">
  <g transform="matrix(1.0, 0.0, 0.0, 1.0, 22.95, -3.15)">
    <path d="M17.5 22.95 L17.35 23.15 15.35 26.45 3.0 25.05 1.65 20.2 9.6 13.55 17.5 22.95 M5.65 34.45 L-2.4 39.65 -6.5 31.05 7.3 30.2 5.65 34.45" fill="url(#gradient0)" fill-rule="evenodd" stroke="none"/>
    <path d="M-7.75 4.85 L-15.4 17.35 -22.95 13.95 -21.65 3.15 -7.75 4.85" fill="url(#gradient1)" fill-rule="evenodd" stroke="none"/>
    <path d="M-11.85 33.25 L-14.75 45.2 -22.55 43.1 -18.75 28.9 -11.85 33.25 M-4.15 52.9 L2.15 61.0 -4.7 67.55 -11.0 63.1 -4.15 52.9" fill="url(#gradient2)" fill-rule="evenodd" stroke="none"/>
    <path d="M18.05 43.5 L16.4 55.3 6.7 53.95 10.1 45.15 18.05 43.5" fill="url(#gradient3)" fill-rule="evenodd" stroke="none"/>
    <path d="M14.5 47.3 L13.85 51.9 10.85 51.5 12.35 47.75 14.5 47.3 M13.8 23.2 L13.85 23.25 13.75 23.25 4.0 22.15 9.2 17.75 13.8 23.2 M-12.75 7.25 L-16.6 13.55 -19.7 12.15 -19.05 6.5 -12.75 7.25 M-18.9 41.0 L-16.9 33.65 -15.3 34.65 -16.95 41.5 -18.9 41.0 M-1.9 33.75 L1.45 33.55 -1.2 35.25 -1.9 33.75 M-1.9 60.7 L-5.0 63.7 -6.9 62.35 -4.0 58.0 -1.9 60.7" fill="#ffffff" fill-opacity="0.2" fill-rule="evenodd" stroke="none"/>
  </g>
  <defs>
    <linearGradient gradientTransform="matrix(0.0031, 0.0198, -0.0238, 0.0037, 9.55, 22.7)" gradientUnits="userSpaceOnUse" id="gradient0" spreadMethod="pad" x1="-819.2" x2="819.2">
      <stop offset="0.0" stop-color="#88889e"/>
      <stop offset="1.0" stop-color="#414247"/>
    </linearGradient>
    <linearGradient gradientTransform="matrix(0.0, -0.0149, 0.0195, 0.0, -13.45, 15.8)" gradientUnits="userSpaceOnUse" id="gradient1" spreadMethod="pad" x1="-819.2" x2="819.2">
      <stop offset="0.0" stop-color="#a2a2bb"/>
      <stop offset="1.0" stop-color="#6a6b78"/>
    </linearGradient>
    <linearGradient gradientTransform="matrix(-0.0206, -0.0079, 0.007, -0.0183, -12.6, 55.2)" gradientUnits="userSpaceOnUse" id="gradient2" spreadMethod="pad" x1="-819.2" x2="819.2">
      <stop offset="0.0" stop-color="#a2a2bb"/>
      <stop offset="1.0" stop-color="#6a6b78"/>
    </linearGradient>
    <linearGradient gradientTransform="matrix(0.0103, 0.0, 0.0, 0.0162, 21.05, 52.8)" gradientUnits="userSpaceOnUse" id="gradient3" spreadMethod="pad" x1="-819.2" x2="819.2">
      <stop offset="0.0" stop-color="#a2a2bb"/>
      <stop offset="1.0" stop-color="#4d4e55"/>
    </linearGradient>
  </defs>
</svg>
