<?xml version="1.0" encoding="UTF-8" standalone="no"?>
<svg xmlns:ffdec="https://www.free-decompiler.com/flash" xmlns:xlink="http://www.w3.org/1999/xlink" ffdec:objectType="shape" height="60.25px" width="36.8px" xmlns="http://www.w3.org/2000/svg">
  <g transform="matrix(1.0, 0.0, 0.0, 1.0, 20.85, -12.25)">
    <path d="M14.45 29.1 L14.35 29.2 12.85 31.7 3.6 30.65 2.6 27.0 8.55 22.05 14.45 29.1 M3.65 43.7 L3.6 43.7 -2.45 47.6 -5.5 41.15 4.85 40.55 3.65 43.7" fill="url(#gradient0)" fill-rule="evenodd" stroke="none"/>
    <path d="M-9.45 13.5 L-15.2 22.85 -20.85 20.35 -19.85 12.25 -9.45 13.5" fill="url(#gradient1)" fill-rule="evenodd" stroke="none"/>
    <path d="M-11.7 48.8 L-17.6 47.2 -14.7 36.55 -9.55 39.8 -11.7 48.8 M-8.9 69.2 L-3.8 61.5 0.95 67.6 -4.15 72.5 -8.9 69.2" fill="url(#gradient2)" fill-rule="evenodd" stroke="none"/>
    <path d="M15.95 50.5 L14.7 59.35 7.4 58.3 9.95 51.7 15.95 50.5" fill="url(#gradient3)" fill-rule="evenodd" stroke="none"/>
    <path d="M1.55 43.15 L-1.45 44.7 -2.4 42.6 2.1 42.1 1.55 43.15 M9.95 28.35 L6.15 27.95 8.2 26.25 9.95 28.35 M11.55 55.85 L12.45 53.55 12.15 55.95 11.55 55.85 M-17.25 15.55 L-14.45 15.9 -16.35 19.05 -17.6 18.5 -17.25 15.55 M-3.1 67.3 L-5.8 69.95 -3.6 66.65 -3.1 67.3" fill="#ffffff" fill-opacity="0.2" fill-rule="evenodd" stroke="none"/>
  </g>
  <defs>
    <linearGradient gradientTransform="matrix(0.0031, 0.0198, -0.0238, 0.0037, 9.55, 29.7)" gradientUnits="userSpaceOnUse" id="gradient0" spreadMethod="pad" x1="-819.2" x2="819.2">
      <stop offset="0.0" stop-color="#88889e"/>
      <stop offset="1.0" stop-color="#414247"/>
    </linearGradient>
    <linearGradient gradientTransform="matrix(0.0, -0.0149, 0.0195, 0.0, -13.45, 22.8)" gradientUnits="userSpaceOnUse" id="gradient1" spreadMethod="pad" x1="-819.2" x2="819.2">
      <stop offset="0.0" stop-color="#a2a2bb"/>
      <stop offset="1.0" stop-color="#6a6b78"/>
    </linearGradient>
    <linearGradient gradientTransform="matrix(-0.0206, -0.0079, 0.007, -0.0183, -12.6, 62.2)" gradientUnits="userSpaceOnUse" id="gradient2" spreadMethod="pad" x1="-819.2" x2="819.2">
      <stop offset="0.0" stop-color="#a2a2bb"/>
      <stop offset="1.0" stop-color="#6a6b78"/>
    </linearGradient>
    <linearGradient gradientTransform="matrix(0.0103, 0.0, 0.0, 0.0162, 21.05, 59.8)" gradientUnits="userSpaceOnUse" id="gradient3" spreadMethod="pad" x1="-819.2" x2="819.2">
      <stop offset="0.0" stop-color="#a2a2bb"/>
      <stop offset="1.0" stop-color="#4d4e55"/>
    </linearGradient>
  </defs>
</svg>
