<?xml version="1.0" encoding="UTF-8" standalone="no"?>
<svg xmlns:ffdec="https://www.free-decompiler.com/flash" xmlns:xlink="http://www.w3.org/1999/xlink" ffdec:objectType="shape" height="300.0px" width="300.0px" xmlns="http://www.w3.org/2000/svg">
  <g transform="matrix(1.0, 0.0, 0.0, 1.0, 150.0, 150.0)">
    <path d="M100.0 -149.95 L150.0 -149.95 150.0 150.0 110.0 150.0 109.9 148.95 110.0 149.95 -110.0 149.95 -110.0 150.0 -150.0 150.0 -150.0 -150.0 -100.0 -150.0 -100.0 -149.9 -90.0 -61.4 -100.0 -21.55 -95.35 53.65 -51.3 99.7 -12.0 95.0 40.0 110.0 90.0 63.35 100.0 1.6 90.0 -92.85 100.0 -149.9 100.0 -149.95" fill="#000000" fill-rule="evenodd" stroke="none"/>
    <path d="M-92.9 93.5 L-92.9 86.5 -87.05 87.65 -87.05 92.35 -92.9 93.5 M-122.75 111.1 L-125.75 117.05 -130.0 116.2 -130.0 110.0 -123.65 106.85 -122.75 111.1" fill="#191919" fill-rule="evenodd" stroke="none"/>
    <path d="M128.85 -59.0 L127.05 -52.25 121.75 -54.85 122.95 -59.35 128.85 -59.0 M109.85 -76.85 L107.55 -80.8 110.85 -84.55 Q112.45 -83.75 114.0 -83.0 L114.3 -77.75 109.85 -76.85" fill="#191919" fill-rule="evenodd" stroke="none"/>
  </g>
</svg>
