<?xml version="1.0" encoding="UTF-8" standalone="no"?>
<svg xmlns:ffdec="https://www.free-decompiler.com/flash" xmlns:xlink="http://www.w3.org/1999/xlink" ffdec:objectType="shape" height="300.0px" width="300.0px" xmlns="http://www.w3.org/2000/svg">
  <g transform="matrix(1.0, 0.0, 0.0, 1.0, 150.0, 150.0)">
    <path d="M-100.0 -149.9 L100.0 -149.9 90.0 -92.85 96.65 -30.0 -97.85 -30.0 -90.0 -61.4 -100.0 -149.9" fill="url(#gradient0)" fill-rule="evenodd" stroke="none"/>
    <path d="M100.0 -149.9 L100.0 -149.95 150.0 -149.95 150.0 150.0 110.0 150.0 109.9 148.95 110.0 149.95 -110.0 149.95 -110.0 150.0 -150.0 150.0 -150.0 -150.0 -100.0 -150.0 -100.0 -149.9 -90.0 -61.4 -97.85 -30.0 -100.0 -21.55 -95.35 53.65 -51.3 99.7 -12.0 95.0 40.0 110.0 90.0 63.35 100.0 1.6 96.65 -30.0 90.0 -92.85 100.0 -149.9" fill="#000000" fill-rule="evenodd" stroke="none"/>
    <path d="M96.65 -30.0 L100.0 1.6 90.0 63.35 40.0 110.0 -12.0 95.0 -51.3 99.7 -95.35 53.65 -100.0 -21.55 -97.85 -30.0 96.65 -30.0" fill="url(#gradient1)" fill-rule="evenodd" stroke="none"/>
    <path d="M-60.35 -121.4 L-55.95 -128.0 -44.0 -132.0 -38.6 -121.1 -49.85 -112.65 -60.35 -121.4" fill="#7f5b00" fill-opacity="0.2" fill-rule="evenodd" stroke="none"/>
    <path d="M17.55 -19.6 L7.5 -29.65 17.55 -36.35 24.25 -29.65 17.55 -19.6" fill="#7f5b00" fill-opacity="0.2" fill-rule="evenodd" stroke="none"/>
    <path d="M-18.65 69.2 L-27.6 78.1 -41.3 73.55 -36.35 66.15 -23.55 61.9 -18.65 69.2" fill="#7f5b00" fill-opacity="0.2" fill-rule="evenodd" stroke="none"/>
    <path d="M82.0 37.7 L73.25 34.8 73.25 25.5 82.9 22.3 86.8 28.15 82.0 37.7" fill="#7f5b00" fill-opacity="0.2" fill-rule="evenodd" stroke="none"/>
    <path d="M54.55 -126.1 L61.15 -121.7 65.15 -109.75 54.25 -104.35 45.8 -115.6 54.55 -126.1" fill="#7f5b00" fill-opacity="0.2" fill-rule="evenodd" stroke="none"/>
    <path d="M-38.35 11.7 L-28.3 1.65 -21.6 11.7 -28.3 18.4 -38.35 11.7" fill="#7f5b00" fill-opacity="0.2" fill-rule="evenodd" stroke="none"/>
    <path d="M41.9 72.4 L46.45 58.7 53.85 63.65 58.1 76.45 50.8 81.35 41.9 72.4" fill="#7f5b00" fill-opacity="0.2" fill-rule="evenodd" stroke="none"/>
    <path d="M-77.7 -8.0 L-74.8 -16.75 -65.5 -16.75 -62.3 -7.1 -68.15 -3.2 -77.7 -8.0" fill="#7f5b00" fill-opacity="0.2" fill-rule="evenodd" stroke="none"/>
    <path d="M-92.9 93.5 L-92.9 86.5 -87.05 87.65 -87.05 92.35 -92.9 93.5 M-122.75 111.1 L-125.75 117.05 -130.0 116.2 -130.0 110.0 -123.65 106.85 -122.75 111.1" fill="#191919" fill-rule="evenodd" stroke="none"/>
    <path d="M128.85 -59.0 L127.05 -52.25 121.75 -54.85 122.95 -59.35 128.85 -59.0 M109.85 -76.85 L107.55 -80.8 110.85 -84.55 Q112.45 -83.75 114.0 -83.0 L114.3 -77.75 109.85 -76.85" fill="#191919" fill-rule="evenodd" stroke="none"/>
  </g>
  <defs>
    <linearGradient gradientTransform="matrix(0.1343, 0.0, 0.0, 0.183, 0.0, 0.0)" gradientUnits="userSpaceOnUse" id="gradient0" spreadMethod="pad" x1="-819.2" x2="819.2">
      <stop offset="0.0" stop-color="#6d4d01"/>
      <stop offset="0.25882352941176473" stop-color="#cc9900"/>
      <stop offset="0.7529411764705882" stop-color="#cc9900"/>
      <stop offset="1.0" stop-color="#6d4d01"/>
    </linearGradient>
    <radialGradient cx="0" cy="0" gradientTransform="matrix(0.0, 0.2686, -0.1826, 0.0, 1.25, -30.0)" gradientUnits="userSpaceOnUse" id="gradient1" r="819.2" spreadMethod="pad">
      <stop offset="0.0" stop-color="#cc9900"/>
      <stop offset="0.3686274509803922" stop-color="#cc9900"/>
      <stop offset="0.7215686274509804" stop-color="#6d4d01"/>
    </radialGradient>
  </defs>
</svg>
