<?xml version="1.0" encoding="UTF-8" standalone="no"?>
<svg xmlns:ffdec="https://www.free-decompiler.com/flash" xmlns:xlink="http://www.w3.org/1999/xlink" ffdec:objectType="shape" height="176.5px" width="176.5px" xmlns="http://www.w3.org/2000/svg">
  <g transform="matrix(1.0, 0.0, 0.0, 1.0, 100.25, 100.25)">
    <path d="M36.05 -84.4 L39.8 -70.25 32.05 -68.15 36.2 -52.7 43.95 -54.75 48.1 -39.3 40.35 -37.25 44.55 -21.75 52.2 -23.85 56.35 -8.4 48.65 -6.35 52.8 9.15 60.55 7.05 64.65 22.55 56.95 24.55 61.05 40.05 68.8 37.95 72.45 51.55 Q74.0 55.3 73.45 59.4 73.3 61.0 72.75 62.6 L72.15 64.05 Q71.4 65.85 70.2 67.35 L67.35 70.25 Q65.95 71.35 64.25 72.05 L62.35 72.8 58.65 73.55 Q55.1 73.85 51.75 72.55 L37.95 68.85 40.05 61.15 24.55 56.95 22.5 64.7 7.0 60.55 9.15 52.85 -6.4 48.7 -8.45 56.4 -23.85 52.25 -21.8 44.55 -37.25 40.35 -39.35 48.15 -54.8 43.95 -52.75 36.25 -68.15 32.15 -70.25 39.9 -84.85 35.95 Q-87.15 35.5 -89.1 34.35 L-91.6 32.75 -93.15 31.3 Q-97.6 26.7 -97.6 20.2 -97.65 13.6 -92.9 8.9 L-81.65 -2.4 -75.95 3.3 -64.65 -8.05 -70.3 -13.7 -59.0 -25.05 -53.3 -19.35 -42.0 -30.65 -47.65 -36.35 -36.35 -47.65 -30.65 -42.0 -19.35 -53.3 -25.05 -59.0 -13.7 -70.3 -8.05 -64.65 3.25 -75.9 -2.45 -81.6 8.9 -92.9 Q13.6 -97.65 20.2 -97.6 26.85 -97.6 31.55 -92.9 35.2 -89.25 36.05 -84.4 M26.0 -83.05 Q25.35 -85.5 23.15 -86.7 21.05 -87.95 18.65 -87.3 16.25 -86.7 15.0 -84.55 L14.45 -83.25 14.2 -81.6 Q14.2 -79.1 15.95 -77.35 17.7 -75.6 20.2 -75.6 22.7 -75.6 24.45 -77.35 26.1 -79.05 26.2 -81.35 L26.2 -81.6 26.0 -83.05 M24.9 -33.05 L17.15 -31.05 11.9 -50.65 -2.4 -36.35 -8.05 -42.05 -19.4 -30.7 1.2 -10.1 29.05 -17.65 24.9 -33.05 M34.8 34.85 L29.6 15.35 37.35 13.3 33.15 -2.15 5.25 5.3 -2.2 33.2 13.25 37.35 15.35 29.6 34.8 34.85 M61.75 61.8 L62.7 60.55 Q63.85 58.4 63.3 56.05 62.6 53.6 60.5 52.35 58.3 51.15 55.95 51.8 55.15 52.0 54.55 52.35 L54.35 52.45 53.15 53.35 Q52.7 53.8 52.5 54.3 L52.3 54.55 Q51.95 55.2 51.75 55.95 51.1 58.35 52.35 60.5 53.55 62.65 56.0 63.35 58.4 63.95 60.55 62.7 L61.75 61.8 M-36.35 -2.4 L-50.65 11.95 -31.05 17.2 -33.1 24.95 -17.65 29.1 -10.15 1.15 -30.7 -19.4 -42.05 -8.05 -36.35 -2.4 M-76.4 17.25 L-77.35 15.95 Q-79.1 14.2 -81.6 14.2 L-82.05 14.25 -82.15 14.3 Q-83.35 14.35 -84.6 15.05 -86.7 16.3 -87.35 18.7 -88.0 21.1 -86.75 23.2 -85.5 25.4 -83.1 26.05 L-82.4 26.2 -81.6 26.2 Q-79.1 26.2 -77.35 24.45 -75.65 22.7 -75.6 20.2 -75.65 18.95 -76.05 17.95 L-76.4 17.25" fill="url(#gradient0)" fill-rule="evenodd" stroke="none"/>
    <path d="M36.05 -84.4 L39.8 -70.25 32.05 -68.15 36.2 -52.7 43.95 -54.75 48.1 -39.3 40.35 -37.25 44.55 -21.75 52.2 -23.85 56.35 -8.4 48.65 -6.35 52.8 9.15 60.55 7.05 64.65 22.55 56.95 24.55 61.05 40.05 68.8 37.95 72.45 51.55 Q74.0 55.3 73.45 59.4 73.3 61.0 72.75 62.6 L72.15 64.05 Q71.4 65.85 70.2 67.35 L67.35 70.25 Q65.95 71.35 64.25 72.05 L62.35 72.8 58.65 73.55 Q55.1 73.85 51.75 72.55 L37.95 68.85 40.05 61.15 24.55 56.95 22.5 64.7 7.0 60.55 9.15 52.85 -6.4 48.7 -8.45 56.4 -23.85 52.25 -21.8 44.55 -37.25 40.35 -39.35 48.15 -54.8 43.95 -52.75 36.25 -68.15 32.15 -70.25 39.9 -84.85 35.95 Q-87.15 35.5 -89.1 34.35 L-91.6 32.75 -93.15 31.3 Q-97.6 26.7 -97.6 20.2 -97.65 13.6 -92.9 8.9 L-81.65 -2.4 -75.95 3.3 -64.65 -8.05 -70.3 -13.7 -59.0 -25.05 -53.3 -19.35 -42.0 -30.65 -47.65 -36.35 -36.35 -47.65 -30.65 -42.0 -19.35 -53.3 -25.05 -59.0 -13.7 -70.3 -8.05 -64.65 3.25 -75.9 -2.45 -81.6 8.9 -92.9 Q13.6 -97.65 20.2 -97.6 26.85 -97.6 31.55 -92.9 35.2 -89.25 36.05 -84.4 M26.0 -83.05 L26.2 -81.6 26.2 -81.35 Q26.1 -79.05 24.45 -77.35 22.7 -75.6 20.2 -75.6 17.7 -75.6 15.95 -77.35 14.2 -79.1 14.2 -81.6 L14.45 -83.25 15.0 -84.55 Q16.25 -86.7 18.65 -87.3 21.05 -87.95 23.15 -86.7 25.35 -85.5 26.0 -83.05 M24.9 -33.05 L17.15 -31.05 11.9 -50.65 -2.4 -36.35 -8.05 -42.05 -19.4 -30.7 1.2 -10.1 29.05 -17.65 24.9 -33.05 M34.8 34.85 L29.6 15.35 37.35 13.3 33.15 -2.15 5.25 5.3 -2.2 33.2 13.25 37.35 15.35 29.6 34.8 34.85 M61.75 61.8 L60.55 62.7 Q58.4 63.95 56.0 63.35 53.55 62.65 52.35 60.5 51.1 58.35 51.75 55.95 51.95 55.2 52.3 54.55 L52.5 54.3 Q52.7 53.8 53.15 53.35 L54.35 52.45 54.55 52.35 Q55.15 52.0 55.95 51.8 58.3 51.15 60.5 52.35 62.6 53.6 63.3 56.05 63.85 58.4 62.7 60.55 L61.75 61.8 M-36.35 -2.4 L-50.65 11.95 -31.05 17.2 -33.1 24.95 -17.65 29.1 -10.15 1.15 -30.7 -19.4 -42.05 -8.05 -36.35 -2.4 M-76.4 17.25 L-76.05 17.95 Q-75.65 18.95 -75.6 20.2 -75.65 22.7 -77.35 24.45 -79.1 26.2 -81.6 26.2 L-82.4 26.2 -83.1 26.05 Q-85.5 25.4 -86.75 23.2 -88.0 21.1 -87.35 18.7 -86.7 16.3 -84.6 15.05 -83.35 14.35 -82.15 14.3 L-82.05 14.25 -81.6 14.2 Q-79.1 14.2 -77.35 15.95 L-76.4 17.25 Z" fill="none" stroke="#000000" stroke-linecap="square" stroke-linejoin="miter-clip" stroke-miterlimit="3.0" stroke-opacity="0.4" stroke-width="4.0"/>
  </g>
  <defs>
    <linearGradient gradientTransform="matrix(0.0, -0.0616, 0.1045, 0.0, -12.0, -2.4)" gradientUnits="userSpaceOnUse" id="gradient0" spreadMethod="pad" x1="-819.2" x2="819.2">
      <stop offset="0.0" stop-color="#7c7c7c"/>
      <stop offset="0.6039215686274509" stop-color="#e0e0e0"/>
      <stop offset="1.0" stop-color="#a9a9a9"/>
    </linearGradient>
  </defs>
</svg>
