<?xml version="1.0" encoding="UTF-8" standalone="no"?>
<svg xmlns:ffdec="https://www.free-decompiler.com/flash" xmlns:xlink="http://www.w3.org/1999/xlink" ffdec:objectType="shape" height="40.0px" width="40.0px" xmlns="http://www.w3.org/2000/svg">
  <g transform="matrix(1.0, 0.0, 0.0, 1.0, 20.0, 20.0)">
    <path d="M-8.0 12.0 L-20.0 0.0 0.0 -20.0 5.0 -15.0 0.0 -10.0 -10.0 0.0 -3.0 7.0 -8.0 12.0 M8.0 -12.0 L20.0 0.0 0.0 20.0 -5.0 15.0 0.0 10.0 10.0 0.0 3.0 -7.0 8.0 -12.0" fill="#cc00ff" fill-rule="evenodd" stroke="none"/>
    <path d="M5.0 -15.0 L8.0 -12.0 3.0 -7.0 0.0 -10.0 5.0 -15.0 M-5.0 15.0 L-8.0 12.0 -3.0 7.0 0.0 10.0 -5.0 15.0" fill="#660099" fill-rule="evenodd" stroke="none"/>
  </g>
</svg>
