<?xml version="1.0" encoding="UTF-8" standalone="no"?>
<svg xmlns:ffdec="https://www.free-decompiler.com/flash" xmlns:xlink="http://www.w3.org/1999/xlink" ffdec:objectType="shape" height="52.0px" width="52.0px" xmlns="http://www.w3.org/2000/svg">
  <g transform="matrix(1.0, 0.0, 0.0, 1.0, 26.0, 25.95)">
    <path d="M0.0 -25.95 Q10.75 -26.0 18.35 -18.4 26.0 -10.75 26.0 0.05 26.0 10.8 18.35 18.4 10.75 26.05 0.0 26.05 -10.8 26.05 -18.4 18.4 -26.0 10.8 -26.0 0.05 -26.0 -10.75 -18.4 -18.4 -10.8 -26.0 0.0 -25.95 M0.0 -19.85 Q-8.3 -19.85 -14.15 -14.0 -20.0 -8.15 -20.0 0.15 -20.0 8.45 -14.15 14.3 -8.3 20.15 0.0 20.15 8.25 20.15 14.1 14.3 19.95 8.45 20.0 0.15 19.95 -8.15 14.1 -14.0 8.25 -19.85 0.0 -19.85" fill="#ffffff" fill-rule="evenodd" stroke="none"/>
  </g>
</svg>
