<?xml version="1.0" encoding="UTF-8" standalone="no"?>
<svg xmlns:ffdec="https://www.free-decompiler.com/flash" xmlns:xlink="http://www.w3.org/1999/xlink" ffdec:objectType="shape" height="120.0px" width="120.0px" xmlns="http://www.w3.org/2000/svg">
  <g transform="matrix(1.0, 0.0, 0.0, 1.0, 60.0, 60.0)">
    <path d="M60.0 -60.0 L60.0 60.0 -60.0 60.0 -60.0 -60.0 60.0 -60.0" fill="#000000" fill-rule="evenodd" stroke="none"/>
    <path d="M56.05 -56.0 L-55.95 -56.0 -55.95 56.0 56.05 56.0 56.05 -56.0 M58.0 -57.95 L58.0 58.05 -58.0 58.05 -58.0 -57.95 58.0 -57.95" fill="#333333" fill-rule="evenodd" stroke="none"/>
    <path d="M-40.0 -44.0 L40.0 -44.0 40.0 16.0 -40.0 16.0 -40.0 -44.0 M-38.0 -41.95 L-38.0 14.05 38.0 14.05 38.0 -41.95 -38.0 -41.95" fill="#333333" fill-rule="evenodd" stroke="none"/>
    <path d="M-38.0 -41.95 L38.0 -41.95 38.0 14.05 -38.0 14.05 -38.0 -41.95" fill="url(#gradient0)" fill-rule="evenodd" stroke="none"/>
    <path d="M-28.0 28.0 L-20.0 28.0 -20.0 36.0 -28.0 36.0 -28.0 28.0 M-32.0 36.0 L-40.0 36.0 -40.0 28.0 -32.0 28.0 -32.0 36.0 M-32.0 40.0 L-32.0 48.0 -40.0 48.0 -40.0 40.0 -32.0 40.0 M-28.0 40.0 L-20.0 40.0 -20.0 48.0 -28.0 48.0 -28.0 40.0" fill="#ff0060" fill-rule="evenodd" stroke="none"/>
    <path d="M4.0 36.0 L-4.0 36.0 -4.0 28.0 4.0 28.0 4.0 36.0 M16.0 36.0 L8.0 36.0 8.0 28.0 16.0 28.0 16.0 36.0" fill="#cc6600" fill-rule="evenodd" stroke="none"/>
    <path d="M20.0 28.0 L28.0 28.0 28.0 36.0 20.0 36.0 20.0 28.0 M40.0 28.0 L40.0 36.0 32.0 36.0 32.0 28.0 40.0 28.0" fill="#ff6600" fill-rule="evenodd" stroke="none"/>
    <path d="M18.0 44.0 L22.0 44.0 22.0 48.0 18.0 48.0 18.0 44.0 M28.0 48.0 L24.0 48.0 24.0 44.0 28.0 44.0 28.0 48.0 M30.0 44.0 L34.0 44.0 34.0 48.0 30.0 48.0 30.0 44.0 M40.0 44.0 L40.0 48.0 36.0 48.0 36.0 44.0 40.0 44.0" fill="#666666" fill-rule="evenodd" stroke="none"/>
  </g>
  <defs>
    <radialGradient cx="0" cy="0" fx="-332.8" fy="0" gradientTransform="matrix(0.1268, 0.0, 0.0, 0.1246, 36.15, 31.75)" gradientUnits="userSpaceOnUse" id="gradient0" r="819.2" spreadMethod="pad">
      <stop offset="0.2980392156862745" stop-color="#0033ff"/>
      <stop offset="0.5411764705882353" stop-color="#00ccff"/>
      <stop offset="0.596078431372549" stop-color="#0033ff"/>
      <stop offset="0.7098039215686275" stop-color="#000000"/>
      <stop offset="0.9490196078431372" stop-color="#996600"/>
    </radialGradient>
  </defs>
</svg>
