<?xml version="1.0" encoding="UTF-8" standalone="no"?>
<svg xmlns:ffdec="https://www.free-decompiler.com/flash" xmlns:xlink="http://www.w3.org/1999/xlink" ffdec:objectType="shape" height="120.0px" width="120.0px" xmlns="http://www.w3.org/2000/svg">
  <g transform="matrix(1.0, 0.0, 0.0, 1.0, 60.0, 60.0)">
    <path d="M60.0 -60.0 L60.0 60.0 -60.0 60.0 -60.0 -60.0 60.0 -60.0" fill="#000000" fill-rule="evenodd" stroke="none"/>
    <path d="M58.0 -57.95 L58.0 58.05 -58.0 58.05 -58.0 -57.95 58.0 -57.95 M56.05 -56.0 L-55.95 -56.0 -55.95 56.0 56.05 56.0 56.05 -56.0" fill="#333333" fill-rule="evenodd" stroke="none"/>
    <path d="M-14.0 14.0 L-22.0 14.0 -22.0 6.0 -14.0 6.0 -14.0 14.0 M-2.0 6.0 L-2.0 14.0 -10.0 14.0 -10.0 6.0 -2.0 6.0" fill="#ff6600" fill-rule="evenodd" stroke="none"/>
    <path d="M-26.0 14.0 L-34.0 14.0 -34.0 6.0 -26.0 6.0 -26.0 14.0 M-38.0 14.0 L-46.0 14.0 -46.0 6.0 -38.0 6.0 -38.0 14.0" fill="#cc6600" fill-rule="evenodd" stroke="none"/>
    <path d="M-31.0 44.0 L-31.0 48.0 -35.0 48.0 -35.0 44.0 -31.0 44.0 M-37.0 48.0 L-41.0 48.0 -41.0 44.0 -37.0 44.0 -37.0 48.0 M-25.0 48.0 L-29.0 48.0 -29.0 44.0 -25.0 44.0 -25.0 48.0 M-47.0 48.0 L-47.0 44.0 -43.0 44.0 -43.0 48.0 -47.0 48.0" fill="#666666" fill-rule="evenodd" stroke="none"/>
    <path d="M34.0 -46.0 L34.0 14.0 26.0 14.0 26.0 -46.0 34.0 -46.0 M22.0 -46.0 L22.0 14.0 14.0 14.0 14.0 -46.0 22.0 -46.0 M46.0 -46.0 L46.0 14.0 38.0 14.0 38.0 -46.0 46.0 -46.0" fill="#333333" fill-rule="evenodd" stroke="none"/>
    <path d="M22.0 -46.0 L22.0 -38.0 14.0 -38.0 14.0 -46.0 22.0 -46.0" fill="#999999" fill-rule="evenodd" stroke="none"/>
    <path d="M34.0 -26.0 L34.0 -18.0 26.0 -18.0 26.0 -26.0 34.0 -26.0" fill="#999999" fill-rule="evenodd" stroke="none"/>
    <path d="M38.0 -16.0 L46.0 -16.0 46.0 -8.0 38.0 -8.0 38.0 -16.0" fill="#999999" fill-rule="evenodd" stroke="none"/>
    <path d="M-23.0 -46.0 Q-14.7 -46.0 -8.85 -40.15 -3.0 -34.3 -3.0 -26.0 -3.0 -17.7 -8.85 -11.85 -14.7 -6.0 -23.0 -6.0 -31.3 -6.0 -37.15 -11.85 -43.0 -17.7 -43.0 -26.0 -43.0 -34.3 -37.15 -40.15 -31.3 -46.0 -23.0 -46.0" fill="#333333" fill-rule="evenodd" stroke="none"/>
    <path d="M-26.5 -29.5 L-12.35 -43.65 -5.3 -36.55 -19.4 -22.4 -26.5 -29.5" fill="#999999" fill-rule="evenodd" stroke="none"/>
    <path d="M-31.0 38.0 L-31.0 42.0 -35.0 42.0 -35.0 38.0 -31.0 38.0 M-37.0 42.0 L-41.0 42.0 -41.0 38.0 -37.0 38.0 -37.0 42.0 M-25.0 42.0 L-29.0 42.0 -29.0 38.0 -25.0 38.0 -25.0 42.0 M-47.0 42.0 L-47.0 38.0 -43.0 38.0 -43.0 42.0 -47.0 42.0" fill="#666666" fill-rule="evenodd" stroke="none"/>
    <path d="M-25.0 36.0 L-29.0 36.0 -29.0 32.0 -25.0 32.0 -25.0 36.0 M-31.0 32.0 L-31.0 36.0 -35.0 36.0 -35.0 32.0 -31.0 32.0 M-37.0 36.0 L-41.0 36.0 -41.0 32.0 -37.0 32.0 -37.0 36.0 M-47.0 36.0 L-47.0 32.0 -43.0 32.0 -43.0 36.0 -47.0 36.0" fill="#666666" fill-rule="evenodd" stroke="none"/>
    <path d="M46.0 49.0 L-14.0 49.0 -14.0 23.0 46.0 23.0 46.0 49.0 M44.5 47.3 L44.5 24.75 -12.5 24.75 -12.5 47.3 44.5 47.3" fill="#333333" fill-rule="evenodd" stroke="none"/>
    <path d="M44.5 47.3 L-12.5 47.3 -12.5 24.75 44.5 24.75 44.5 47.3" fill="#000000" fill-rule="evenodd" stroke="none"/>
    <path d="M42.25 24.75 L42.25 47.3 40.2 47.3 40.2 24.75 42.25 24.75 M9.95 47.3 L9.95 24.75 11.95 24.75 11.95 47.3 9.95 47.3 M1.85 24.75 L1.85 30.9 -3.2 36.5 -3.2 47.3 -5.2 47.3 -5.2 35.6 -0.15 29.95 -0.15 24.75 1.85 24.75 M20.35 25.55 L21.05 24.75 22.5 24.75 27.1 29.95 27.1 47.3 25.05 47.3 25.05 30.9 20.35 25.55" fill="#cc3300" fill-rule="evenodd" stroke="none"/>
    <path d="M4.9 35.6 L4.9 24.75 6.9 24.75 6.9 36.5 1.85 42.15 1.85 47.3 -0.15 47.3 -0.15 41.2 4.9 35.6 M17.0 24.75 L17.0 35.6 22.05 41.2 22.05 47.3 20.0 47.3 20.0 42.15 14.95 36.5 14.95 24.75 17.0 24.75 M32.15 29.95 L37.2 35.6 37.2 42.15 32.6 47.3 31.15 47.3 30.4 46.5 35.15 41.2 35.15 36.5 30.1 30.9 30.1 24.75 32.15 24.75 32.15 29.95 M-8.25 24.75 L-8.25 47.3 -10.25 47.3 -10.25 24.75 -8.25 24.75" fill="#990000" fill-rule="evenodd" stroke="none"/>
  </g>
</svg>
