<?xml version="1.0" encoding="UTF-8" standalone="no"?>
<svg xmlns:ffdec="https://www.free-decompiler.com/flash" xmlns:xlink="http://www.w3.org/1999/xlink" ffdec:objectType="shape" height="122.8px" width="122.6px" xmlns="http://www.w3.org/2000/svg">
  <g transform="matrix(1.0, 0.0, 0.0, 1.0, 61.25, 61.5)">
    <path d="M20.05 -60.0 L40.05 -38.15 30.05 -27.25 30.05 -38.15 20.05 -49.1 10.05 -49.1 20.05 -60.0 M-29.95 -27.25 L-39.95 -38.15 -19.95 -60.0 -9.95 -49.1 -19.95 -49.1 -29.95 -38.15 -29.95 -27.25 M10.05 -16.35 L0.05 -5.45 -9.95 -16.35 10.05 -16.35 M15.05 5.45 L20.05 16.4 13.4 20.0 10.05 21.85 13.4 20.0 20.05 27.3 20.05 38.2 10.05 27.3 10.05 21.85 0.05 27.3 -9.95 21.85 -13.3 20.0 -9.95 21.85 -9.95 27.3 -19.95 38.2 -19.95 27.3 -13.3 20.0 -19.95 16.4 -14.95 5.45 -5.95 12.0 0.05 16.4 6.05 12.0 15.05 5.45" fill="#393206" fill-rule="evenodd" stroke="none"/>
    <path d="M30.05 -27.25 L50.05 -16.35 47.15 -7.0 30.05 -16.35 30.05 -27.25 20.05 -38.15 10.05 -27.25 -9.95 -27.25 -19.95 -38.15 -29.95 -27.25 -29.95 -38.15 -19.95 -49.1 -9.95 -49.1 0.05 -38.15 10.05 -49.1 20.05 -49.1 30.05 -38.15 30.05 -27.25 M40.05 16.4 L60.05 27.3 50.05 27.3 40.05 27.3 30.05 27.3 20.05 27.3 13.4 20.0 20.05 16.4 40.05 16.4 M-59.95 27.3 L-39.95 16.4 -19.95 16.4 -13.3 20.0 -19.95 27.3 -29.95 27.3 -39.95 27.3 -49.95 27.3 -59.95 27.3 M-47.05 -7.0 L-49.95 -16.35 -29.95 -27.25 -29.95 -16.35 -47.05 -7.0 M-19.95 -60.0 L20.05 -60.0 0.05 -49.1 -19.95 -60.0 M10.05 -16.35 L20.05 -5.45 30.05 -12.7 30.05 -5.45 15.05 5.45 6.05 12.0 0.05 16.4 -5.95 12.0 -14.95 5.45 -29.95 -5.45 -29.95 -12.7 -19.95 -5.45 -9.95 -16.35 0.05 -5.45 10.05 -16.35 M10.05 5.45 L0.05 -5.45 10.05 5.45 M-9.95 21.85 L0.05 27.3 10.05 21.85 10.05 27.3 20.05 38.2 -19.95 38.2 -9.95 27.3 -9.95 21.85 M-5.95 12.0 L0.05 5.45 6.05 12.0 0.05 5.45 -5.95 12.0 M0.05 -5.45 L-9.95 5.45 0.05 -5.45" fill="#b49c16" fill-rule="evenodd" stroke="none"/>
    <path d="M10.05 -27.25 L20.05 -27.25 10.05 -16.35 10.05 -27.25 M-9.95 -16.35 L-19.95 -27.25 -9.95 -27.25 -9.95 -16.35" fill="#ffff00" fill-rule="evenodd" stroke="none"/>
    <path d="M47.15 -7.0 L40.05 16.4 20.05 16.4 15.05 5.45 30.05 -5.45 30.05 -12.7 20.05 -5.45 10.05 -16.35 20.05 -27.25 10.05 -27.25 20.05 -38.15 30.05 -27.25 30.05 -16.35 30.05 -12.7 30.05 -16.35 47.15 -7.0 M60.05 27.3 L60.05 38.2 50.05 38.2 50.05 27.3 60.05 27.3 M-59.9 38.2 L-59.95 38.2 -59.95 27.3 -49.95 27.3 -49.95 38.2 -49.95 27.3 -39.95 27.3 -29.95 27.3 -29.95 38.2 -29.95 27.3 -19.95 27.3 -19.95 38.2 -29.95 38.2 -39.95 38.2 -39.95 27.3 -39.95 38.2 -49.95 38.2 -59.9 38.2 M-39.95 16.4 L-47.05 -7.0 -29.95 -16.35 -29.95 -12.7 -29.95 -5.45 -14.95 5.45 -19.95 16.4 -39.95 16.4 M-29.95 -27.25 L-19.95 -38.15 -9.95 -27.25 -19.95 -27.25 -9.95 -16.35 -19.95 -5.45 -29.95 -12.7 -29.95 -16.35 -29.95 -27.25 M20.05 27.3 L30.05 27.3 40.05 27.3 50.05 27.3 50.05 38.2 40.05 38.2 30.05 38.2 30.05 27.3 30.05 38.2 20.05 38.2 20.05 27.3 M30.05 -5.45 L30.05 5.45 20.05 16.4 30.05 5.45 30.05 -5.45 M40.05 27.3 L40.05 38.2 40.05 27.3 M-19.95 16.4 L-29.95 5.45 -29.95 -5.45 -29.95 5.45 -19.95 16.4" fill="#73640d" fill-rule="evenodd" stroke="none"/>
    <path d="M20.05 -60.0 L10.05 -49.1 0.05 -38.15 -9.95 -49.1 -19.95 -60.0 0.05 -49.1 20.05 -60.0 M-9.95 -27.25 L10.05 -27.25 10.05 -16.35 -9.95 -16.35 -9.95 -27.25" fill="#a28c13" fill-rule="evenodd" stroke="none"/>
    <path d="M60.05 38.2 L60.05 60.0 -59.9 60.0 -59.9 38.2 -49.95 38.2 -39.95 38.2 -29.95 38.2 -19.95 38.2 20.05 38.2 30.05 38.2 40.05 38.2 50.05 38.2 60.05 38.2" fill="#86740f" fill-rule="evenodd" stroke="none"/>
    <path d="M20.05 -60.0 L40.05 -38.15 M50.05 -16.35 L47.15 -7.0 40.05 16.4 60.05 27.3 60.05 38.2 60.05 60.0 -59.9 60.0 -59.9 38.2 -59.95 38.2 -59.95 27.3 -39.95 16.4 -47.05 -7.0 -49.95 -16.35 -29.95 -27.25 -39.95 -38.15 -19.95 -60.0 20.05 -60.0 10.05 -49.1 20.05 -49.1 30.05 -38.15 M20.05 -38.15 L10.05 -27.25 20.05 -27.25 M10.05 -16.35 L20.05 -5.45 30.05 -12.7 M10.05 -49.1 L0.05 -38.15 -9.95 -49.1 -19.95 -49.1 -29.95 -38.15 -29.95 -27.25 -29.95 -16.35 -29.95 -12.7 -29.95 -5.45 -14.95 5.45 -19.95 16.4 -13.3 20.0 -9.95 21.85 0.05 27.3 10.05 21.85 13.4 20.0 20.05 16.4 30.05 5.45 30.05 -5.45 15.05 5.45 6.05 12.0 0.05 16.4 -5.95 12.0 -14.95 5.45 M-19.95 -38.15 L-9.95 -27.25 10.05 -27.25 10.05 -16.35 0.05 -5.45 10.05 5.45 M-19.95 -60.0 L0.05 -49.1 20.05 -60.0 M20.05 27.3 L30.05 27.3 40.05 27.3 50.05 27.3 60.05 27.3 M50.05 38.2 L50.05 27.3 M50.05 38.2 L60.05 38.2 M20.05 16.4 L15.05 5.45 M6.05 12.0 L0.05 5.45 -5.95 12.0 M10.05 21.85 L10.05 27.3 20.05 38.2 20.05 27.3 13.4 20.0 M30.05 38.2 L40.05 38.2 40.05 27.3 M30.05 38.2 L30.05 27.3 M20.05 16.4 L40.05 16.4 M20.05 38.2 L30.05 38.2 M40.05 38.2 L50.05 38.2 M-9.95 -16.35 L-19.95 -27.25 -9.95 -27.25 -9.95 -16.35 10.05 -16.35 M-9.95 -16.35 L-19.95 -5.45 -29.95 -12.7 M-9.95 -49.1 L-19.95 -60.0 M-29.95 38.2 L-29.95 27.3 -39.95 27.3 -39.95 38.2 -29.95 38.2 -19.95 38.2 -19.95 27.3 -29.95 27.3 M-19.95 38.2 L-9.95 27.3 -9.95 21.85 M-13.3 20.0 L-19.95 27.3 M-19.95 16.4 L-39.95 16.4 M-29.95 -5.45 L-29.95 5.45 -19.95 16.4 M-49.95 27.3 L-59.95 27.3 M-49.95 38.2 L-49.95 27.3 -39.95 27.3 M-59.9 38.2 L-49.95 38.2 -39.95 38.2 M0.05 -5.45 L-9.95 -16.35 M20.05 38.2 L-19.95 38.2 M-9.95 5.45 L0.05 -5.45" fill="none" stroke="#393206" stroke-linecap="square" stroke-linejoin="miter-clip" stroke-miterlimit="3.0" stroke-width="2.0"/>
    <path d="M40.05 -38.15 L30.05 -27.25 50.05 -16.35 M20.05 -27.25 L10.05 -16.35 M30.05 -5.45 L30.05 -12.7" fill="none" stroke="#393206" stroke-linecap="square" stroke-linejoin="miter-clip" stroke-miterlimit="3.0" stroke-width="2.0"/>
    <path d="M30.05 -38.15 L30.05 -27.25 30.05 -16.35 30.05 -12.7" fill="none" stroke="#393206" stroke-linecap="round" stroke-linejoin="miter-clip" stroke-miterlimit="3.0" stroke-width="2.0"/>
  </g>
</svg>
