<?xml version="1.0" encoding="UTF-8" standalone="no"?>
<svg xmlns:ffdec="https://www.free-decompiler.com/flash" xmlns:xlink="http://www.w3.org/1999/xlink" ffdec:objectType="shape" height="184.3px" width="63.3px" xmlns="http://www.w3.org/2000/svg">
  <g transform="matrix(1.0, 0.0, 0.0, 1.0, 31.65, 93.0)">
    <path d="M20.0 71.05 L30.0 71.05 30.0 90.0 -30.0 90.0 -30.0 71.05 -20.0 71.05 20.0 71.05" fill="#666666" fill-rule="evenodd" stroke="none"/>
    <path d="M-2.5 -71.05 L-5.0 -71.05 0.0 -90.0 5.0 -71.05 2.5 -71.05 -2.5 -71.05 M4.0 -65.35 L6.5 -65.35 10.0 -52.1 7.5 -52.1 -7.5 -52.1 -10.0 -52.1 -6.5 -65.35 -4.0 -65.35 4.0 -65.35 M9.0 -46.4 L11.5 -46.4 15.0 -33.15 12.5 -33.15 -12.5 -33.15 -15.0 -33.15 -11.5 -46.4 -9.0 -46.4 9.0 -46.4 M14.0 -27.45 L16.5 -27.45 20.0 -14.2 17.5 -14.2 -17.5 -14.2 -20.0 -14.2 -16.5 -27.45 -14.0 -27.45 14.0 -27.45 M19.0 -8.5 L21.5 -8.5 25.0 4.75 22.5 4.75 -22.5 4.75 -25.0 4.75 -21.5 -8.5 -19.0 -8.5 19.0 -8.5" fill="#999999" fill-rule="evenodd" stroke="none"/>
    <path d="M2.5 -71.05 L4.0 -65.35 -4.0 -65.35 -2.5 -71.05 2.5 -71.05 M7.5 -52.1 L9.0 -46.4 -9.0 -46.4 -7.5 -52.1 7.5 -52.1 M12.5 -33.15 L14.0 -27.45 -14.0 -27.45 -12.5 -33.15 12.5 -33.15 M17.5 -14.2 L19.0 -8.5 -19.0 -8.5 -17.5 -14.2 17.5 -14.2 M22.5 4.75 L24.0 10.45 -24.0 10.45 -22.5 4.75 22.5 4.75 M10.0 23.7 L10.0 33.2 -10.0 33.2 -10.0 23.7 10.0 23.7 M20.0 42.65 L30.0 42.65 20.0 61.6 -20.0 61.6 -30.0 42.65 -20.0 42.65 20.0 42.65" fill="#333333" fill-rule="evenodd" stroke="none"/>
    <path d="M20.0 61.6 L20.0 71.05 -20.0 71.05 -20.0 61.6 20.0 61.6" fill="#444444" fill-rule="evenodd" stroke="none"/>
    <path d="M10.0 33.2 L20.0 33.2 20.0 42.65 -20.0 42.65 -20.0 33.2 -10.0 33.2 10.0 33.2" fill="#555555" fill-rule="evenodd" stroke="none"/>
    <path d="M24.0 10.45 L26.5 10.45 20.0 23.7 10.0 23.7 -10.0 23.7 -20.0 23.7 -26.5 10.45 -24.0 10.45 24.0 10.45" fill="#777777" fill-rule="evenodd" stroke="none"/>
    <path d="M-2.5 -71.05 L-5.0 -71.05 0.0 -90.0 5.0 -71.05 2.5 -71.05 4.0 -65.35 6.5 -65.35 10.0 -52.1 7.5 -52.1 9.0 -46.4 11.5 -46.4 15.0 -33.15 12.5 -33.15 14.0 -27.45 16.5 -27.45 20.0 -14.2 17.5 -14.2 19.0 -8.5 21.5 -8.5 25.0 4.75 22.5 4.75 24.0 10.45 26.5 10.45 20.0 23.7 10.0 23.7 10.0 33.2 20.0 33.2 20.0 42.65 30.0 42.65 20.0 61.6 20.0 71.05 30.0 71.05 30.0 90.0 -30.0 90.0 -30.0 71.05 -20.0 71.05 -20.0 61.6 -30.0 42.65 -20.0 42.65 -20.0 33.2 -10.0 33.2 -10.0 23.7 -20.0 23.7 -26.5 10.45 -24.0 10.45 -22.5 4.75 -25.0 4.75 -21.5 -8.5 -19.0 -8.5 -17.5 -14.2 -20.0 -14.2 -16.5 -27.45 -14.0 -27.45 -12.5 -33.15 -15.0 -33.15 -11.5 -46.4 -9.0 -46.4 -7.5 -52.1 -10.0 -52.1 -6.5 -65.35 -4.0 -65.35 -2.5 -71.05 2.5 -71.05 M-20.0 71.05 L20.0 71.05 M20.0 61.6 L-20.0 61.6 M-10.0 33.2 L10.0 33.2 M20.0 42.65 L-20.0 42.65 M10.0 23.7 L-10.0 23.7 M24.0 10.45 L-24.0 10.45 M22.5 4.75 L-22.5 4.75 M19.0 -8.5 L-19.0 -8.5 M17.5 -14.2 L-17.5 -14.2 M14.0 -27.45 L-14.0 -27.45 M-9.0 -46.4 L9.0 -46.4 M12.5 -33.15 L-12.5 -33.15 M-4.0 -65.35 L4.0 -65.35 M7.5 -52.1 L-7.5 -52.1" fill="none" stroke="#000000" stroke-linecap="round" stroke-linejoin="miter-clip" stroke-miterlimit="3.0" stroke-width="2.0"/>
  </g>
</svg>
