<?xml version="1.0" encoding="UTF-8" standalone="no"?>
<svg xmlns:ffdec="https://www.free-decompiler.com/flash" xmlns:xlink="http://www.w3.org/1999/xlink" ffdec:objectType="shape" height="60.0px" width="60.0px" xmlns="http://www.w3.org/2000/svg">
  <g transform="matrix(1.0, 0.0, 0.0, 1.0, 30.0, 30.0)">
    <path d="M25.3 -8.9 L22.45 -7.35 24.75 -11.15 25.3 -8.9 M-10.95 6.15 L-10.0 10.0 -20.0 10.0 -20.0 6.15 -10.95 6.15 M9.05 6.15 L10.0 10.0 0.0 10.0 0.0 6.15 9.05 6.15 M29.05 6.15 L30.0 10.0 20.0 10.0 20.0 6.15 29.05 6.15 M3.8 14.75 L2.3 16.2 0.8 14.75 2.3 13.25 3.8 14.75 M17.3 13.95 L15.8 12.5 17.3 11.0 18.8 12.5 17.3 13.95 M-20.0 14.65 L-21.5 13.2 -20.0 11.7 -18.5 13.2 -20.0 14.65" fill="#999999" fill-rule="evenodd" stroke="none"/>
    <path d="M24.75 -11.15 L22.45 -7.35 25.3 -8.9 28.45 3.8 20.0 3.8 20.0 -30.0 24.75 -11.15 M-20.0 -30.0 L-14.05 -6.2 -17.25 0.0 -13.5 -4.0 -11.55 3.8 -20.0 3.8 -20.0 -30.0 M0.0 -30.0 L8.45 3.8 0.0 3.8 0.0 -30.0" fill="#cccccc" fill-rule="evenodd" stroke="none"/>
    <path d="M30.0 15.0 L30.0 17.4 20.0 18.65 10.0 14.25 0.0 22.4 -10.0 17.4 -20.0 20.6 -30.0 16.4 -30.0 14.0 -20.0 18.2 -10.0 15.0 0.0 20.0 10.0 11.85 20.0 16.25 30.0 15.0" fill="#333333" fill-rule="evenodd" stroke="none"/>
    <path d="M-30.0 14.0 L-30.0 10.0 -20.0 10.0 -10.0 10.0 0.0 10.0 10.0 10.0 20.0 10.0 30.0 10.0 30.0 15.0 20.0 16.25 10.0 11.85 0.0 20.0 -10.0 15.0 -20.0 18.2 -30.0 14.0 M17.3 13.95 L18.8 12.5 17.3 11.0 15.8 12.5 17.3 13.95 M3.8 14.75 L2.3 13.25 0.8 14.75 2.3 16.2 3.8 14.75 M-20.0 14.65 L-18.5 13.2 -20.0 11.7 -21.5 13.2 -20.0 14.65" fill="#666666" fill-rule="evenodd" stroke="none"/>
    <path d="M20.0 3.8 L28.45 3.8 29.05 6.15 20.0 6.15 20.0 3.8 M-11.55 3.8 L-10.95 6.15 -20.0 6.15 -20.0 3.8 -11.55 3.8 M8.45 3.8 L9.05 6.15 0.0 6.15 0.0 3.8 8.45 3.8" fill="#bbbbbb" fill-rule="evenodd" stroke="none"/>
    <path d="M-29.0 6.15 L-28.45 3.8 -20.0 3.8 -20.0 6.15 -29.0 6.15 M-14.05 -6.2 L-13.5 -4.0 -17.25 0.0 -14.05 -6.2 M-9.0 6.15 L-8.45 3.8 0.0 3.8 0.0 6.15 -9.0 6.15 M11.0 6.15 L11.55 3.8 20.0 3.8 20.0 6.15 11.0 6.15" fill="#eeeeee" fill-rule="evenodd" stroke="none"/>
    <path d="M-30.0 10.0 L-29.0 6.15 -20.0 6.15 -20.0 10.0 -30.0 10.0 M-10.0 10.0 L-9.0 6.15 0.0 6.15 0.0 10.0 -10.0 10.0 M-4.75 -10.95 L-4.4 -12.25 -1.4 -10.0 -4.75 -10.95 M-3.95 -14.2 L-3.5 -15.9 -1.4 -13.1 -3.95 -14.2 M10.0 10.0 L11.0 6.15 20.0 6.15 20.0 10.0 10.0 10.0" fill="#dddddd" fill-rule="evenodd" stroke="none"/>
    <path d="M20.0 -30.0 L20.0 3.8 11.55 3.8 20.0 -30.0 M-28.45 3.8 L-20.0 -30.0 -20.0 3.8 -28.45 3.8 M-8.45 3.8 L-4.75 -10.95 -1.4 -10.0 -4.4 -12.25 -3.95 -14.2 -1.4 -13.1 -3.5 -15.9 0.0 -30.0 0.0 3.8 -8.45 3.8" fill="#ffffff" fill-rule="evenodd" stroke="none"/>
    <path d="M30.0 17.4 L30.0 30.0 -30.0 30.0 -30.0 16.4 -20.0 20.6 -10.0 17.4 0.0 22.4 10.0 14.25 20.0 18.65 30.0 17.4" fill="#000000" fill-rule="evenodd" stroke="none"/>
  </g>
</svg>
