<?xml version="1.0" encoding="UTF-8" standalone="no"?>
<svg xmlns:ffdec="https://www.free-decompiler.com/flash" xmlns:xlink="http://www.w3.org/1999/xlink" ffdec:objectType="shape" height="88.05px" width="176.1px" xmlns="http://www.w3.org/2000/svg">
  <g transform="matrix(1.0, 0.0, 0.0, 1.0, 95.0, 44.95)">
    <path d="M25.1 -44.95 L33.1 -44.95 33.1 -4.95 25.1 -4.95 25.1 -20.95 17.1 -20.95 17.1 -4.95 9.1 -4.95 9.1 -44.95 17.1 -44.95 17.1 -28.95 25.1 -28.95 25.1 -44.95 M1.1 -36.95 L-6.9 -36.95 -6.9 -4.95 -14.9 -4.95 -14.9 -36.95 -22.9 -36.95 -22.9 -44.95 1.1 -44.95 1.1 -36.95 M65.1 -28.95 L81.1 -28.95 81.1 -4.95 57.1 -4.95 57.1 -12.95 73.1 -12.95 73.1 -20.95 57.1 -20.95 57.1 -44.95 81.1 -44.95 81.1 -36.95 65.1 -36.95 65.1 -28.95 M49.1 -44.95 L49.1 -4.95 41.1 -4.95 41.1 -44.95 49.1 -44.95 M81.1 27.1 L73.1 27.1 73.1 43.1 65.1 43.1 65.1 27.1 57.1 27.1 57.1 3.1 65.1 3.1 65.1 19.1 73.1 19.1 73.1 3.1 81.1 3.1 81.1 27.1 M41.1 11.1 L33.1 11.1 33.1 19.1 41.1 19.1 41.1 11.1 M41.1 43.1 L41.1 27.1 33.1 27.1 33.1 43.1 25.1 43.1 25.1 3.1 49.1 3.1 49.1 43.1 41.1 43.1 M17.1 3.1 L17.1 43.1 -22.9 43.1 -22.9 3.1 -14.9 3.1 -14.9 35.1 -6.9 35.1 -6.9 3.1 1.1 3.1 1.1 35.1 9.1 35.1 9.1 3.1 17.1 3.1" fill="#0066ff" fill-rule="evenodd" stroke="none"/>
    <path d="M-35.0 -40.0 L-75.0 0.0 -35.0 40.0 -55.0 40.0 -95.0 0.0 -55.0 -40.0 -35.0 -40.0 M-55.0 0.0 L-35.0 -20.0 -35.0 20.0 -55.0 0.0" fill="#0066ff" fill-rule="evenodd" stroke="none"/>
  </g>
</svg>
