<?xml version="1.0" encoding="UTF-8" standalone="no"?>
<svg xmlns:ffdec="https://www.free-decompiler.com/flash" xmlns:xlink="http://www.w3.org/1999/xlink" ffdec:objectType="shape" height="180.35px" width="180.5px" xmlns="http://www.w3.org/2000/svg">
  <g transform="matrix(1.0, 0.0, 0.0, 1.0, 90.25, 90.2)">
    <path d="M-90.25 -73.7 L-90.25 -76.4 Q-75.9 -86.15 -72.1 -89.65 -71.55 -90.2 -70.85 -90.2 -70.1 -90.25 -69.5 -89.75 L-39.05 -65.15 Q-38.35 -64.55 -38.2 -63.6 L-36.2 -47.45 1.6 -29.2 2.5 -28.35 Q2.85 -27.8 2.85 -27.1 L2.75 7.3 21.05 21.15 21.5 21.7 25.85 28.15 33.75 22.35 Q35.75 20.8 37.65 22.05 51.8 31.1 65.05 43.75 L65.55 44.55 65.8 45.45 Q66.05 56.55 67.75 67.15 L89.85 89.55 90.25 90.15 87.25 90.15 65.8 68.35 Q63.95 57.2 63.65 45.5 50.55 33.0 36.6 24.05 35.8 23.55 34.95 24.2 30.25 27.9 25.25 31.2 L19.85 23.0 0.7 8.45 0.8 -27.1 -38.15 -45.9 -40.3 -63.3 -70.75 -87.95 Q-74.75 -84.25 -90.25 -73.7" fill="#ffffff" fill-opacity="0.2" fill-rule="evenodd" stroke="none"/>
    <path d="M-90.25 -73.7 Q-74.75 -84.25 -70.75 -87.95 L-40.3 -63.3 -38.15 -45.9 0.8 -27.1 0.7 8.45 19.85 23.0 25.25 31.2 Q30.25 27.9 34.95 24.2 35.8 23.55 36.6 24.05 50.55 33.0 63.65 45.5 63.95 57.2 65.8 68.35 L87.25 90.15 -90.25 90.15 -90.25 56.4 -88.7 54.6 -90.25 53.25 -90.25 45.6 -73.2 61.05 -71.85 37.6 -90.25 20.7 -90.25 11.05 -86.65 7.75 -87.25 -10.9 -90.25 -15.1 -90.25 -29.15 -83.7 -19.8 -82.5 -21.1 -45.95 -61.55 -51.45 -66.45 -69.25 -80.45 -70.25 -81.25 -90.25 -66.9 -90.25 -73.7 M9.7 38.4 Q10.95 38.4 14.8 34.6 18.55 30.8 18.55 29.9 2.05 10.55 -4.95 10.55 -7.35 10.55 -11.05 13.25 -14.85 16.0 -14.85 17.95 6.95 38.4 9.7 38.4 M37.65 31.2 L36.75 30.3 11.8 49.05 26.8 67.4 28.15 66.45 54.45 47.95 37.65 31.2 M71.25 82.7 Q71.25 81.85 66.45 77.4 L56.1 68.0 Q56.0 67.8 45.65 75.3 35.25 82.8 35.25 83.3 71.25 85.1 71.25 82.7 M8.95 84.55 L23.3 85.0 Q23.9 85.05 23.9 79.65 L23.75 72.6 Q13.25 58.1 9.9 55.9 9.3 54.35 7.6 54.35 7.25 54.35 -11.15 70.25 -11.95 70.45 -6.25 76.65 -0.2 83.2 -0.2 83.9 L8.95 84.55 M-49.45 11.8 L-43.75 9.75 -23.0 -13.5 -10.1 -27.0 -35.25 -37.5 -37.3 -38.3 Q-37.15 -37.65 -40.25 -24.2 L-68.6 -1.0 -50.85 12.3 -49.45 11.8 M-19.5 21.8 L-20.3 20.9 -31.7 28.9 -33.55 68.0 -33.4 76.0 -31.35 74.4 3.35 47.6 -19.5 21.8 M-37.55 33.25 L-38.2 31.7 -53.25 48.05 -40.1 61.6 -38.6 61.25 -38.55 61.05 -36.9 34.65 -37.55 33.25 M-50.35 17.95 Q-52.6 17.95 -53.0 22.9 L-52.95 28.5 -52.7 33.8 Q-52.1 38.95 -50.35 38.95 -47.75 38.95 -47.2 34.9 L-47.2 30.6 Q-47.55 17.95 -50.35 17.95 M-71.75 3.6 L-72.8 2.7 -86.85 15.3 -85.45 16.0 -69.05 31.45 -68.05 30.4 -55.6 16.45 -62.5 11.3 -71.75 3.6 M-8.0 83.9 L-16.5 74.6 -27.9 83.9 -8.0 83.9 M-51.55 84.2 L-44.2 84.45 -38.75 80.15 -38.75 67.4 -51.55 84.2 M-76.75 84.45 L-76.3 66.85 Q-77.1 65.55 -80.2 63.1 -83.35 60.45 -83.6 61.3 L-83.6 84.55 -76.75 84.45 M-56.8 84.45 L-44.6 64.45 -57.1 52.3 -71.25 65.5 Q-69.85 66.85 -69.2 84.45 L-56.8 84.45" fill="#333333" fill-rule="evenodd" stroke="none"/>
    <path d="M-90.25 45.6 L-90.25 20.7 -71.85 37.6 -73.2 61.05 -90.25 45.6 M-90.25 11.05 L-90.25 -15.1 -87.25 -10.9 -86.65 7.75 -90.25 11.05 M9.7 38.4 Q6.95 38.4 -14.85 17.95 -14.85 16.0 -11.05 13.25 -7.35 10.55 -4.95 10.55 2.05 10.55 18.55 29.9 18.55 30.8 14.8 34.6 10.95 38.4 9.7 38.4 M8.95 84.55 L-0.2 83.9 Q-0.2 83.2 -6.25 76.65 -11.95 70.45 -11.15 70.25 7.25 54.35 7.6 54.35 9.3 54.35 9.9 55.9 13.25 58.1 23.75 72.6 L23.9 79.65 Q23.9 85.05 23.3 85.0 L8.95 84.55 M71.25 82.7 Q71.25 85.1 35.25 83.3 35.25 82.8 45.65 75.3 56.0 67.8 56.1 68.0 L66.45 77.4 Q71.25 81.85 71.25 82.7 M-50.35 17.95 Q-47.55 17.95 -47.2 30.6 L-47.2 34.9 Q-47.75 38.95 -50.35 38.95 -52.1 38.95 -52.7 33.8 L-52.95 28.5 -53.0 22.9 Q-52.6 17.95 -50.35 17.95 M-56.8 84.45 L-69.2 84.45 Q-69.85 66.85 -71.25 65.5 L-57.1 52.3 -44.6 64.45 -56.8 84.45 M-76.75 84.45 L-83.6 84.55 -83.6 61.3 Q-83.35 60.45 -80.2 63.1 -77.1 65.55 -76.3 66.85 L-76.75 84.45 M-51.55 84.2 L-38.75 67.4 -38.75 80.15 -44.2 84.45 -51.55 84.2 M-8.0 83.9 L-27.9 83.9 -16.5 74.6 -8.0 83.9" fill="#62777b" fill-rule="evenodd" stroke="none"/>
    <path d="M-90.25 56.4 L-90.25 53.25 -88.7 54.6 -90.25 56.4 M-90.25 -32.1 L-90.25 -65.4 -69.25 -80.45 -51.45 -66.45 -45.95 -61.55 -82.5 -21.1 -90.25 -32.1 M37.65 31.2 L54.45 47.95 28.15 66.45 13.9 49.05 37.65 31.2 M-35.25 -37.5 L-10.1 -27.0 -23.0 -13.5 -43.75 9.75 -49.45 11.8 -66.5 -1.0 -38.15 -24.2 -35.25 -37.5 M-31.35 74.4 L-31.45 68.0 -29.6 28.9 -19.5 21.8 3.35 47.6 -31.35 74.4 M-37.55 33.25 L-36.9 34.65 -38.55 61.05 -51.15 48.05 -37.55 33.25 M-71.75 3.6 L-62.5 11.3 -55.6 16.45 -68.05 30.4 -83.35 16.0 -84.75 15.3 -71.75 3.6" fill="#8da0a5" fill-rule="evenodd" stroke="none"/>
    <path d="M-90.25 -29.15 L-90.25 -32.1 -82.5 -21.1 -83.7 -19.8 -90.25 -29.15 M-90.25 -65.4 L-90.25 -66.9 -70.25 -81.25 -69.25 -80.45 -90.25 -65.4 M28.15 66.45 L26.8 67.4 11.8 49.05 36.75 30.3 37.65 31.2 13.9 49.05 28.15 66.45 M-49.45 11.8 L-50.85 12.3 -68.6 -1.0 -40.25 -24.2 Q-37.15 -37.65 -37.3 -38.3 L-35.25 -37.5 -38.15 -24.2 -66.5 -1.0 -49.45 11.8 M-31.35 74.4 L-33.4 76.0 -33.55 68.0 -31.7 28.9 -20.3 20.9 -19.5 21.8 -29.6 28.9 -31.45 68.0 -31.35 74.4 M-38.55 61.05 L-38.6 61.25 -40.1 61.6 -53.25 48.05 -38.2 31.7 -37.55 33.25 -51.15 48.05 -38.55 61.05 M-68.05 30.4 L-69.05 31.45 -85.45 16.0 -86.85 15.3 -72.8 2.7 -71.75 3.6 -84.75 15.3 -83.35 16.0 -68.05 30.4" fill="#cbd3d6" fill-rule="evenodd" stroke="none"/>
  </g>
</svg>
