<?xml version="1.0" encoding="UTF-8" standalone="no"?>
<svg xmlns:ffdec="https://www.free-decompiler.com/flash" xmlns:xlink="http://www.w3.org/1999/xlink" ffdec:objectType="shape" height="180.0px" width="180.0px" xmlns="http://www.w3.org/2000/svg">
  <g transform="matrix(1.0, 0.0, 0.0, 1.0, 90.0, 90.0)">
    <path d="M-86.1 90.0 L-90.0 90.0 -89.15 89.15 -70.0 77.5 -68.0 51.25 -67.7 50.3 -67.0 49.55 -19.1 17.2 Q-18.5 16.8 -17.8 16.9 -17.1 16.95 -16.6 17.5 -16.4 17.5 -13.25 18.65 L-13.3 18.65 Q-12.4 18.95 -10.5 20.35 L-10.45 20.35 -9.95 20.75 -3.0 9.85 Q-2.55 9.1 -1.75 8.95 L1.85 8.05 10.8 -19.2 Q11.0 -19.85 11.55 -20.25 L14.6 -22.75 14.75 -22.9 Q39.3 -39.05 47.35 -43.85 L48.9 -44.05 58.8 -41.95 Q60.55 -46.3 66.6 -58.55 L66.6 -58.6 Q67.6 -61.1 85.15 -72.9 L88.25 -75.0 90.0 -76.2 90.0 -73.5 86.25 -71.0 Q69.5 -59.75 68.45 -57.5 60.6 -41.55 60.1 -39.4 L48.35 -41.85 Q40.3 -37.1 15.85 -20.95 L12.75 -18.45 3.45 10.0 -1.3 11.15 -9.25 23.65 -11.65 22.25 Q-13.2 21.05 -13.95 20.8 L-18.0 19.15 -65.95 51.45 -67.95 78.05 -67.8 79.3 -68.6 79.3 -86.1 90.0" fill="#ffffff" fill-opacity="0.2" fill-rule="evenodd" stroke="none"/>
    <path d="M90.0 -73.5 L90.0 -66.75 72.45 -54.1 90.0 -29.05 90.0 -15.0 76.0 -34.9 62.7 -19.75 64.1 -9.25 78.9 8.25 89.0 12.0 90.0 11.05 90.0 20.7 88.7 19.45 85.6 22.05 86.1 27.5 86.45 42.3 90.0 45.55 90.0 53.2 77.35 42.2 71.4 37.55 70.35 36.75 42.0 58.4 29.3 71.6 30.95 84.35 33.05 84.35 65.15 84.35 90.0 56.3 90.0 90.0 -86.1 90.0 -68.6 79.3 -67.8 79.3 -67.95 78.05 -65.95 51.45 -18.0 19.15 -13.95 20.8 Q-13.2 21.05 -11.65 22.25 L-9.25 23.65 -1.3 11.15 3.45 10.0 12.75 -18.45 15.85 -20.95 Q40.3 -37.1 48.35 -41.85 L60.1 -39.4 Q60.6 -41.55 68.45 -57.5 69.5 -59.75 86.25 -71.0 L90.0 -73.5 M63.6 -31.15 L64.2 -30.75 73.5 -39.95 70.25 -46.85 63.6 -31.15 M50.1 -34.7 L49.3 -35.5 19.4 -16.65 43.75 7.5 44.85 6.55 59.9 -6.85 Q59.4 -7.45 57.85 -26.85 L50.1 -34.7 M80.85 20.3 L68.35 4.15 69.8 28.55 81.95 38.7 80.85 20.3 M46.3 46.05 L41.0 14.7 22.95 -3.2 14.35 4.5 12.95 19.25 38.6 53.9 46.3 46.05 M4.45 32.15 Q5.85 32.15 9.15 25.75 L6.4 21.55 Q3.45 17.4 2.6 17.4 1.5 17.35 -1.15 20.35 -3.9 23.4 -3.9 24.85 -3.9 25.7 -1.5 28.55 1.4 32.1 4.45 32.15 M-12.2 84.35 L-5.65 84.35 -7.25 55.35 -10.6 52.45 -6.5 46.9 0.1 39.5 0.05 39.45 -15.5 26.05 -16.45 25.25 -49.9 47.6 -14.3 84.35 -12.2 84.35 M15.1 35.0 L14.1 33.7 -2.0 53.0 24.4 82.35 24.9 82.7 24.75 82.25 24.5 80.15 22.7 66.05 34.0 58.9 15.1 35.0 M-24.45 83.7 L-55.9 50.95 -60.65 54.0 -61.5 56.9 -63.45 84.05 -24.45 84.35 -23.65 84.35 -24.45 83.7 M-1.75 62.4 L-2.0 65.75 -0.2 84.35 16.85 84.35 -1.75 62.4" fill="#333333" fill-rule="evenodd" stroke="none"/>
    <path d="M-24.45 83.7 L-23.65 84.35 -24.45 84.35 -24.45 83.7" fill="#8d9fa5" fill-rule="evenodd" stroke="none"/>
    <path d="M88.25 -75.0 L75.0 -75.0 75.0 -90.0 90.0 -90.0 90.0 -76.2 88.25 -75.0" fill="#ffffff" fill-opacity="0.011764706" fill-rule="evenodd" stroke="none"/>
    <path d="M90.0 -15.0 L90.0 11.05 89.0 12.0 78.9 8.25 64.1 -9.25 62.7 -19.75 76.0 -34.9 90.0 -15.0 M90.0 20.7 L90.0 45.55 86.45 42.3 86.1 27.5 85.6 22.05 88.7 19.45 90.0 20.7 M63.6 -31.15 L70.25 -46.85 73.5 -39.95 64.2 -30.75 63.6 -31.15 M46.3 46.05 L38.6 53.9 12.95 19.25 14.35 4.5 22.95 -3.2 41.0 14.7 46.3 46.05 M80.85 20.3 L81.95 38.7 69.8 28.55 68.35 4.15 80.85 20.3 M4.45 32.15 Q1.4 32.1 -1.5 28.55 -3.9 25.7 -3.9 24.85 -3.9 23.4 -1.15 20.35 1.5 17.35 2.6 17.4 3.45 17.4 6.4 21.55 L9.15 25.75 Q5.85 32.15 4.45 32.15 M-24.45 84.35 L-63.45 84.05 -61.5 56.9 -60.65 54.0 -55.9 50.95 -24.45 83.7 -24.45 84.35 M-1.75 62.4 L16.85 84.35 -0.2 84.35 -2.0 65.75 -1.75 62.4" fill="#62777b" fill-rule="evenodd" stroke="none"/>
    <path d="M90.0 -65.25 L90.0 -32.0 74.55 -54.1 90.0 -65.25 M90.0 53.2 L90.0 56.3 65.15 84.35 33.05 84.35 31.4 71.6 44.1 58.4 71.4 37.55 77.35 42.2 90.0 53.2 M50.1 -34.7 L57.85 -26.85 Q59.4 -7.45 59.9 -6.85 L44.85 6.55 21.5 -16.65 50.1 -34.7 M-15.5 26.05 L0.05 39.45 0.1 39.5 -6.5 46.9 -10.6 52.45 -7.25 55.35 -5.65 84.35 -12.2 84.35 -47.85 47.6 -15.5 26.05 M15.1 35.0 L34.0 58.9 22.7 66.05 24.5 80.15 0.1 53.0 15.1 35.0" fill="#8da0a5" fill-rule="evenodd" stroke="none"/>
    <path d="M90.0 -66.75 L90.0 -65.25 74.55 -54.1 90.0 -32.0 90.0 -29.05 72.45 -54.1 90.0 -66.75 M44.85 6.55 L43.75 7.5 19.4 -16.65 49.3 -35.5 50.1 -34.7 21.5 -16.65 44.85 6.55 M33.05 84.35 L30.95 84.35 29.3 71.6 42.0 58.4 70.35 36.75 71.4 37.55 44.1 58.4 31.4 71.6 33.05 84.35 M-12.2 84.35 L-14.3 84.35 -49.9 47.6 -16.45 25.25 -15.5 26.05 -47.85 47.6 -12.2 84.35 M24.5 80.15 L24.75 82.25 24.9 82.7 24.4 82.35 -2.0 53.0 14.1 33.7 15.1 35.0 0.1 53.0 24.5 80.15" fill="#cbd3d6" fill-rule="evenodd" stroke="none"/>
  </g>
</svg>
