<?xml version="1.0" encoding="UTF-8" standalone="no"?>
<svg xmlns:ffdec="https://www.free-decompiler.com/flash" xmlns:xlink="http://www.w3.org/1999/xlink" ffdec:objectType="shape" height="120.0px" width="120.0px" xmlns="http://www.w3.org/2000/svg">
  <g transform="matrix(1.0, 0.0, 0.0, 1.0, 60.0, 60.0)">
    <path d="M60.0 -60.0 L58.0 -58.0 -17.5 -58.0 -47.8 -58.0 -58.0 -58.0 -58.0 -48.0 -58.0 -46.0 -58.0 -26.75 -58.0 -23.0 -58.0 -20.0 -58.0 -17.1 -58.0 16.5 -60.0 18.25 -60.0 -60.0 60.0 -60.0" fill="url(#gradient0)" fill-rule="evenodd" stroke="none"/>
    <path d="M58.0 -58.0 L60.0 -60.0 60.0 60.0 -60.0 60.0 -58.0 58.0 58.0 58.0 58.0 54.75 58.0 48.0 58.0 46.0 58.0 17.25 58.0 -46.0 58.0 -48.0 58.0 -58.0" fill="url(#gradient1)" fill-rule="evenodd" stroke="none"/>
    <path d="M40.05 -48.0 L38.05 -46.0 -4.95 -46.0 -47.95 -46.0 -47.95 -30.5 21.05 -30.5 21.05 -30.0 21.05 -29.5 20.55 -29.5 -47.95 -29.5 -47.95 -10.5 0.05 -10.5 0.05 -10.0 0.05 -9.5 -0.45 -9.5 -47.95 -9.5 -47.95 9.5 -19.95 9.5 -19.95 10.0 -19.95 10.5 -20.45 10.5 -47.95 10.5 -47.95 18.0 -47.95 29.5 -39.95 29.5 -39.95 30.0 -39.95 30.5 -40.45 30.5 -47.95 30.5 -47.95 38.0 -49.95 40.0 -49.95 20.0 -49.95 -46.0 -49.95 -48.0 40.05 -48.0 M48.05 -9.5 L23.05 -9.5 23.05 -10.0 3.55 9.5 48.05 9.5 48.05 10.5 3.05 10.5 3.05 10.0 -9.9 22.35 -11.3 20.0 50.05 -40.0 50.05 -37.0 48.05 -35.0 43.55 -30.5 48.05 -30.5 48.05 -29.5 43.05 -29.5 43.05 -30.0 23.55 -10.5 48.05 -10.5 48.05 -9.5" fill="#86703e" fill-rule="evenodd" stroke="none"/>
    <path d="M38.05 -46.0 L40.05 -48.0 50.05 -48.0 50.05 -46.0 50.05 -40.0 -11.3 20.0 -26.45 16.5 -20.45 10.5 -19.95 10.5 -19.95 10.0 -0.45 -9.5 0.05 -9.5 0.05 -10.0 20.55 -29.5 21.05 -29.5 21.05 -30.0 30.05 -38.45 38.05 -46.0" fill="url(#gradient2)" fill-rule="evenodd" stroke="none"/>
    <path d="M-19.95 10.0 L-19.95 9.5 -47.95 9.5 -47.95 -9.5 -0.45 -9.5 -19.95 10.0 M21.05 -30.0 L21.05 -30.5 -47.95 -30.5 -47.95 -46.0 -4.95 -46.0 12.55 -40.0 20.05 -43.25 30.05 -38.45 21.05 -30.0 M-42.95 -43.0 L-42.95 -41.0 -36.95 -41.0 -36.95 -39.0 -40.95 -39.0 -40.95 -37.0 -36.95 -37.0 -36.95 -35.0 -42.95 -35.0 -42.95 -33.0 -34.95 -33.0 -34.95 -43.0 -42.95 -43.0 M-26.95 -41.0 L-26.95 -39.0 -32.95 -39.0 -32.95 -33.0 -24.95 -33.0 -24.95 -35.0 -30.95 -35.0 -30.95 -37.0 -24.95 -37.0 -24.95 -43.0 -32.95 -43.0 -32.95 -41.0 -26.95 -41.0 M-16.95 -37.0 L-16.95 -35.0 -22.95 -35.0 -22.95 -33.0 -14.95 -33.0 -14.95 -43.0 -22.95 -43.0 -22.95 -37.0 -16.95 -37.0 M-16.95 -41.0 L-16.95 -39.0 -20.95 -39.0 -20.95 -41.0 -16.95 -41.0" fill="url(#gradient3)" fill-rule="evenodd" stroke="none"/>
    <path d="M-4.95 -46.0 L38.05 -46.0 30.05 -38.45 20.05 -43.25 12.55 -40.0 -4.95 -46.0" fill="url(#gradient4)" fill-rule="evenodd" stroke="none"/>
    <path d="M-47.95 18.0 L-47.95 10.5 -20.45 10.5 -26.45 16.5 -29.95 20.0 -39.95 14.25 -47.95 18.0 M0.05 -10.0 L0.05 -10.5 -47.95 -10.5 -47.95 -29.5 20.55 -29.5 0.05 -10.0" fill="url(#gradient5)" fill-rule="evenodd" stroke="none"/>
    <path d="M48.05 9.5 L3.55 9.5 23.05 -10.0 23.05 -9.5 48.05 -9.5 48.05 9.5" fill="url(#gradient6)" fill-rule="evenodd" stroke="none"/>
    <path d="M58.0 -48.0 L58.0 -46.0 50.05 -46.0 50.05 -48.0 58.0 -48.0 M58.0 46.0 L58.0 48.0 50.05 48.0 50.05 46.0 58.0 46.0 M-58.0 48.0 L-58.0 46.0 -49.95 46.0 -49.95 48.0 -58.0 48.0" fill="#977e46" fill-rule="evenodd" stroke="none"/>
    <path d="M58.0 -46.0 L58.0 17.25 50.05 22.5 50.05 -37.0 50.05 -40.0 50.05 -46.0 58.0 -46.0" fill="url(#gradient7)" fill-rule="evenodd" stroke="none"/>
    <path d="M48.05 9.5 L48.05 -9.5 48.05 -10.5 48.05 -29.5 48.05 -30.5 48.05 -35.0 50.05 -37.0 50.05 22.5 48.05 19.4 48.05 10.5 48.05 9.5" fill="#a68b4e" fill-rule="evenodd" stroke="none"/>
    <path d="M48.05 -30.5 L43.55 -30.5 48.05 -35.0 48.05 -30.5" fill="url(#gradient8)" fill-rule="evenodd" stroke="none"/>
    <path d="M48.05 -10.5 L23.55 -10.5 43.05 -30.0 43.05 -29.5 48.05 -29.5 48.05 -10.5" fill="url(#gradient9)" fill-rule="evenodd" stroke="none"/>
    <path d="M-58.0 -48.0 L-58.0 -58.0 -47.8 -58.0 -43.65 -54.25 -31.55 -56.35 -29.95 -54.65 -17.5 -58.0 58.0 -58.0 58.0 -48.0 50.05 -48.0 40.05 -48.0 -49.95 -48.0 -58.0 -48.0" fill="url(#gradient10)" fill-rule="evenodd" stroke="none"/>
    <path d="M48.05 19.4 L50.05 22.5 50.05 46.0 50.05 48.0 -36.95 48.0 -34.95 46.0 48.05 46.0 48.05 30.5 48.05 29.5 48.05 19.4" fill="#8c7541" fill-rule="evenodd" stroke="none"/>
    <path d="M58.0 17.25 L58.0 46.0 50.05 46.0 50.05 22.5 58.0 17.25" fill="url(#gradient11)" fill-rule="evenodd" stroke="none"/>
    <path d="M-9.9 22.35 L3.05 10.0 3.05 10.5 48.05 10.5 48.05 19.4 40.05 24.25 20.8 26.25 10.05 18.75 -9.9 22.35" fill="url(#gradient12)" fill-rule="evenodd" stroke="none"/>
    <path d="M-11.3 20.0 L-9.9 22.35 -17.45 29.5 48.05 29.5 48.05 30.5 -17.95 30.5 -17.95 30.0 -34.95 46.0 -36.95 48.0 -39.95 48.0 -11.3 20.0" fill="#7a6537" fill-rule="evenodd" stroke="none"/>
    <path d="M48.05 30.5 L48.05 46.0 -34.95 46.0 -17.95 30.0 -17.95 30.5 48.05 30.5" fill="url(#gradient13)" fill-rule="evenodd" stroke="none"/>
    <path d="M58.0 48.0 L58.0 54.75 -58.0 54.75 -58.0 48.0 -49.95 48.0 -39.95 48.0 -36.95 48.0 50.05 48.0 58.0 48.0" fill="url(#gradient14)" fill-rule="evenodd" stroke="none"/>
    <path d="M48.05 19.4 L48.05 29.5 -17.45 29.5 -9.9 22.35 10.05 18.75 20.8 26.25 40.05 24.25 48.05 19.4" fill="url(#gradient15)" fill-rule="evenodd" stroke="none"/>
    <path d="M58.0 54.75 L58.0 58.0 -58.0 58.0 -58.0 54.75 58.0 54.75" fill="url(#gradient16)" fill-rule="evenodd" stroke="none"/>
    <path d="M-47.8 -58.0 L-17.5 -58.0 -29.95 -54.65 -31.55 -56.35 -43.65 -54.25 -47.8 -58.0" fill="url(#gradient17)" fill-rule="evenodd" stroke="none"/>
    <path d="M-58.0 -46.0 L-58.0 -48.0 -49.95 -48.0 -49.95 -46.0 -58.0 -46.0" fill="#b09656" fill-rule="evenodd" stroke="none"/>
    <path d="M-42.95 -43.0 L-34.95 -43.0 -34.95 -33.0 -42.95 -33.0 -42.95 -35.0 -36.95 -35.0 -36.95 -37.0 -40.95 -37.0 -40.95 -39.0 -36.95 -39.0 -36.95 -41.0 -42.95 -41.0 -42.95 -43.0 M-16.95 -41.0 L-20.95 -41.0 -20.95 -39.0 -16.95 -39.0 -16.95 -41.0 M-16.95 -37.0 L-22.95 -37.0 -22.95 -43.0 -14.95 -43.0 -14.95 -33.0 -22.95 -33.0 -22.95 -35.0 -16.95 -35.0 -16.95 -37.0 M-26.95 -41.0 L-32.95 -41.0 -32.95 -43.0 -24.95 -43.0 -24.95 -37.0 -30.95 -37.0 -30.95 -35.0 -24.95 -35.0 -24.95 -33.0 -32.95 -33.0 -32.95 -39.0 -26.95 -39.0 -26.95 -41.0" fill="#a45c44" fill-rule="evenodd" stroke="none"/>
    <path d="M-58.0 16.5 L-58.0 -17.1 -53.45 -15.25 -58.0 -20.0 -58.0 -23.0 -52.95 -20.0 -58.0 -26.75 -58.0 -46.0 -49.95 -46.0 -49.95 20.0 -58.0 16.5" fill="url(#gradient18)" fill-rule="evenodd" stroke="none"/>
    <path d="M-58.0 -17.1 L-58.0 -20.0 -53.45 -15.25 -58.0 -17.1 M-58.0 -23.0 L-58.0 -26.75 -52.95 -20.0 -58.0 -23.0" fill="url(#gradient19)" fill-rule="evenodd" stroke="none"/>
    <path d="M-39.95 30.0 L-39.95 29.5 -47.95 29.5 -47.95 18.0 -39.95 14.25 -29.95 20.0 -39.95 30.0" fill="url(#gradient20)" fill-rule="evenodd" stroke="none"/>
    <path d="M-49.95 40.0 L-47.95 38.0 -40.45 30.5 -39.95 30.5 -39.95 30.0 -29.95 20.0 -26.45 16.5 -11.3 20.0 -39.95 48.0 -49.95 48.0 -49.95 46.0 -49.95 40.0" fill="url(#gradient21)" fill-rule="evenodd" stroke="none"/>
    <path d="M-60.0 18.25 L-58.0 16.5 -58.0 46.0 -58.0 48.0 -58.0 54.75 -58.0 58.0 -60.0 60.0 -60.0 18.25" fill="url(#gradient22)" fill-rule="evenodd" stroke="none"/>
    <path d="M-49.95 20.0 L-49.95 40.0 -49.95 46.0 -58.0 46.0 -58.0 16.5 -49.95 20.0" fill="url(#gradient23)" fill-rule="evenodd" stroke="none"/>
    <path d="M-47.95 38.0 L-47.95 30.5 -40.45 30.5 -47.95 38.0" fill="url(#gradient24)" fill-rule="evenodd" stroke="none"/>
  </g>
  <defs>
    <linearGradient gradientTransform="matrix(0.0, 0.0711, -0.0739, 0.0, 0.0, -1.25)" gradientUnits="userSpaceOnUse" id="gradient0" spreadMethod="pad" x1="-819.2" x2="819.2">
      <stop offset="0.0" stop-color="#eae1d0"/>
      <stop offset="1.0" stop-color="#ae9352"/>
    </linearGradient>
    <linearGradient gradientTransform="matrix(0.0, 0.0711, -0.0739, 0.0, 0.0, -1.25)" gradientUnits="userSpaceOnUse" id="gradient1" spreadMethod="pad" x1="-819.2" x2="819.2">
      <stop offset="0.0" stop-color="#ae9352"/>
      <stop offset="1.0" stop-color="#231d10"/>
    </linearGradient>
    <linearGradient gradientTransform="matrix(-0.0389, 0.0389, -0.0061, -0.0061, 2.2, -2.15)" gradientUnits="userSpaceOnUse" id="gradient2" spreadMethod="pad" x1="-819.2" x2="819.2">
      <stop offset="0.0" stop-color="#bdac6f"/>
      <stop offset="1.0" stop-color="#ae9251"/>
    </linearGradient>
    <linearGradient gradientTransform="matrix(0.0549, 0.0, 0.0, 0.0549, -4.95, -5.0)" gradientUnits="userSpaceOnUse" id="gradient3" spreadMethod="pad" x1="-819.2" x2="819.2">
      <stop offset="0.0" stop-color="#c4ae80"/>
      <stop offset="1.0" stop-color="#b19656"/>
    </linearGradient>
    <linearGradient gradientTransform="matrix(0.0549, 0.0, 0.0, 0.0549, -4.95, -5.0)" gradientUnits="userSpaceOnUse" id="gradient4" spreadMethod="pad" x1="-819.2" x2="819.2">
      <stop offset="0.0" stop-color="#c4ae80"/>
      <stop offset="1.0" stop-color="#a3894f"/>
    </linearGradient>
    <linearGradient gradientTransform="matrix(0.0549, 0.0, 0.0, 0.0549, -4.95, -5.0)" gradientUnits="userSpaceOnUse" id="gradient5" spreadMethod="pad" x1="-819.2" x2="819.2">
      <stop offset="0.0" stop-color="#bdac6f"/>
      <stop offset="1.0" stop-color="#ae9251"/>
    </linearGradient>
    <linearGradient gradientTransform="matrix(0.0549, 0.0, 0.0, 0.0549, 5.05, 5.0)" gradientUnits="userSpaceOnUse" id="gradient6" spreadMethod="pad" x1="-819.2" x2="819.2">
      <stop offset="0.0" stop-color="#c4ae80"/>
      <stop offset="1.0" stop-color="#b19656"/>
    </linearGradient>
    <linearGradient gradientTransform="matrix(0.0, -0.051, 0.0061, 0.0, 55.0, 0.25)" gradientUnits="userSpaceOnUse" id="gradient7" spreadMethod="pad" x1="-819.2" x2="819.2">
      <stop offset="0.0" stop-color="#bdac6f"/>
      <stop offset="1.0" stop-color="#ae9251"/>
    </linearGradient>
    <linearGradient gradientTransform="matrix(0.0549, 0.0, 0.0, 0.0549, 5.05, 5.0)" gradientUnits="userSpaceOnUse" id="gradient8" spreadMethod="pad" x1="-819.2" x2="819.2">
      <stop offset="0.0" stop-color="#c4ae80"/>
      <stop offset="1.0" stop-color="#99814b"/>
    </linearGradient>
    <linearGradient gradientTransform="matrix(0.0549, 0.0, 0.0, 0.0549, 5.05, 5.0)" gradientUnits="userSpaceOnUse" id="gradient9" spreadMethod="pad" x1="-819.2" x2="819.2">
      <stop offset="0.0" stop-color="#bdac6f"/>
      <stop offset="1.0" stop-color="#ae9251"/>
    </linearGradient>
    <linearGradient gradientTransform="matrix(0.0732, 0.0, 0.0, 0.0061, 0.0, -55.0)" gradientUnits="userSpaceOnUse" id="gradient10" spreadMethod="pad" x1="-819.2" x2="819.2">
      <stop offset="0.0" stop-color="#bdac6f"/>
      <stop offset="1.0" stop-color="#ae9251"/>
    </linearGradient>
    <linearGradient gradientTransform="matrix(0.0, -0.051, 0.0061, 0.0, 55.0, 0.25)" gradientUnits="userSpaceOnUse" id="gradient11" spreadMethod="pad" x1="-819.2" x2="819.2">
      <stop offset="0.0" stop-color="#a38f4f"/>
      <stop offset="1.0" stop-color="#ae9251"/>
    </linearGradient>
    <linearGradient gradientTransform="matrix(0.0549, 0.0, 0.0, 0.0549, 5.05, 5.0)" gradientUnits="userSpaceOnUse" id="gradient12" spreadMethod="pad" x1="-819.2" x2="819.2">
      <stop offset="0.0" stop-color="#bdac6f"/>
      <stop offset="1.0" stop-color="#977e46"/>
    </linearGradient>
    <linearGradient gradientTransform="matrix(0.0549, 0.0, 0.0, 0.0549, 5.05, 5.0)" gradientUnits="userSpaceOnUse" id="gradient13" spreadMethod="pad" x1="-819.2" x2="819.2">
      <stop offset="0.0" stop-color="#bdac6f"/>
      <stop offset="1.0" stop-color="#9d8448"/>
    </linearGradient>
    <linearGradient gradientTransform="matrix(0.0732, 0.0, 0.0, 0.0061, 0.0, 55.0)" gradientUnits="userSpaceOnUse" id="gradient14" spreadMethod="pad" x1="-819.2" x2="819.2">
      <stop offset="0.0" stop-color="#bdac6f"/>
      <stop offset="1.0" stop-color="#927943"/>
    </linearGradient>
    <linearGradient gradientTransform="matrix(0.0549, 0.0, 0.0, 0.0549, 5.05, 5.0)" gradientUnits="userSpaceOnUse" id="gradient15" spreadMethod="pad" x1="-819.2" x2="819.2">
      <stop offset="0.0" stop-color="#b09e67"/>
      <stop offset="1.0" stop-color="#8a7340"/>
    </linearGradient>
    <linearGradient gradientTransform="matrix(0.0732, 0.0, 0.0, 0.0061, 0.0, 55.0)" gradientUnits="userSpaceOnUse" id="gradient16" spreadMethod="pad" x1="-819.2" x2="819.2">
      <stop offset="0.0" stop-color="#b09e67"/>
      <stop offset="1.0" stop-color="#856d3d"/>
    </linearGradient>
    <linearGradient gradientTransform="matrix(0.0732, 0.0, 0.0, 0.0061, 0.0, -55.0)" gradientUnits="userSpaceOnUse" id="gradient17" spreadMethod="pad" x1="-819.2" x2="819.2">
      <stop offset="0.0" stop-color="#daccad"/>
      <stop offset="1.0" stop-color="#ae9251"/>
    </linearGradient>
    <linearGradient gradientTransform="matrix(0.0, 0.0531, -0.0061, 0.0, -54.95, 0.5)" gradientUnits="userSpaceOnUse" id="gradient18" spreadMethod="pad" x1="-819.2" x2="819.2">
      <stop offset="0.0" stop-color="#bdac6f"/>
      <stop offset="1.0" stop-color="#ae9251"/>
    </linearGradient>
    <linearGradient gradientTransform="matrix(0.0, 0.0531, -0.0061, 0.0, -54.95, 0.5)" gradientUnits="userSpaceOnUse" id="gradient19" spreadMethod="pad" x1="-819.2" x2="819.2">
      <stop offset="0.0" stop-color="#d3c4a3"/>
      <stop offset="1.0" stop-color="#ae9251"/>
    </linearGradient>
    <linearGradient gradientTransform="matrix(0.0549, 0.0, 0.0, 0.0549, -4.95, -5.0)" gradientUnits="userSpaceOnUse" id="gradient20" spreadMethod="pad" x1="-819.2" x2="819.2">
      <stop offset="0.0" stop-color="#b8a46c"/>
      <stop offset="1.0" stop-color="#a1874b"/>
    </linearGradient>
    <linearGradient gradientTransform="matrix(-0.0389, 0.0389, -0.0061, -0.0061, 2.2, -2.15)" gradientUnits="userSpaceOnUse" id="gradient21" spreadMethod="pad" x1="-819.2" x2="819.2">
      <stop offset="0.0" stop-color="#bdac6f"/>
      <stop offset="1.0" stop-color="#a3884c"/>
    </linearGradient>
    <linearGradient gradientTransform="matrix(0.0, 0.0711, -0.0739, 0.0, 0.0, -1.25)" gradientUnits="userSpaceOnUse" id="gradient22" spreadMethod="pad" x1="-819.2" x2="819.2">
      <stop offset="0.0" stop-color="#d9d0c1"/>
      <stop offset="1.0" stop-color="#a3884c"/>
    </linearGradient>
    <linearGradient gradientTransform="matrix(0.0, 0.0531, -0.0061, 0.0, -54.95, 0.5)" gradientUnits="userSpaceOnUse" id="gradient23" spreadMethod="pad" x1="-819.2" x2="819.2">
      <stop offset="0.0" stop-color="#bdac6f"/>
      <stop offset="1.0" stop-color="#a1874b"/>
    </linearGradient>
    <linearGradient gradientTransform="matrix(0.0549, 0.0, 0.0, 0.0549, -4.95, -5.0)" gradientUnits="userSpaceOnUse" id="gradient24" spreadMethod="pad" x1="-819.2" x2="819.2">
      <stop offset="0.0" stop-color="#b79d62"/>
      <stop offset="1.0" stop-color="#ae9251"/>
    </linearGradient>
  </defs>
</svg>
