<?xml version="1.0" encoding="UTF-8" standalone="no"?>
<svg xmlns:ffdec="https://www.free-decompiler.com/flash" xmlns:xlink="http://www.w3.org/1999/xlink" ffdec:objectType="shape" height="120.0px" width="120.0px" xmlns="http://www.w3.org/2000/svg">
  <g transform="matrix(1.0, 0.0, 0.0, 1.0, 60.0, 60.0)">
    <path d="M14.15 -25.85 Q20.0 -31.7 20.0 -40.0 L40.0 -40.0 40.0 40.0 20.0 40.0 Q20.0 31.7 14.15 25.85 8.3 20.0 0.0 20.0 -8.3 20.0 -14.15 25.85 -20.0 31.7 -20.0 40.0 L-40.0 40.0 -40.0 -40.0 -20.0 -40.0 Q-20.0 -31.7 -14.15 -25.85 -8.3 -20.0 0.0 -20.0 8.3 -20.0 14.15 -25.85" fill="#000000" fill-rule="evenodd" stroke="none"/>
    <path d="M14.15 -25.85 Q8.3 -20.0 0.0 -20.0 -8.3 -20.0 -14.15 -25.85 -20.0 -31.7 -20.0 -40.0 L-40.0 -40.0 -40.0 40.0 -20.0 40.0 Q-20.0 31.7 -14.15 25.85 -8.3 20.0 0.0 20.0 8.3 20.0 14.15 25.85 20.0 31.7 20.0 40.0 L40.0 40.0 40.0 -40.0 20.0 -40.0 Q20.0 -31.7 14.15 -25.85 M0.0 -30.0 Q4.15 -30.0 7.1 -32.95 10.0 -35.85 10.0 -40.0 10.0 -44.2 7.1 -47.1 4.2 -50.0 0.0 -50.0 -4.15 -50.0 -7.05 -47.1 -10.0 -44.15 -10.0 -40.0 -10.0 -35.9 -7.05 -32.95 -4.1 -30.0 0.0 -30.0 M52.45 -52.45 Q58.0 -46.9 58.0 -39.0 L58.0 39.0 Q58.0 46.9 52.45 52.45 46.9 58.0 39.0 58.0 L-39.0 58.0 Q-46.9 58.0 -52.45 52.45 -58.0 46.9 -58.0 39.0 L-58.0 -39.0 Q-58.0 -46.9 -52.45 -52.45 -46.9 -58.0 -39.0 -58.0 L39.0 -58.0 Q46.9 -58.0 52.45 -52.45 M7.1 47.05 Q10.0 44.15 10.0 40.0 10.0 35.8 7.1 32.9 4.2 30.0 0.0 30.0 -4.15 30.0 -7.05 32.9 -10.0 35.85 -10.0 40.0 -10.0 44.1 -7.05 47.05 -4.1 50.0 0.0 50.0 4.15 50.0 7.1 47.05" fill="url(#gradient0)" fill-rule="evenodd" stroke="none"/>
    <path d="M3.55 -36.45 Q5.0 -37.9 5.0 -40.0 5.0 -42.0 3.55 -43.55 2.1 -45.0 0.0 -45.0 -2.05 -45.0 -3.5 -43.55 -5.0 -42.05 -5.0 -40.0 -5.0 -37.85 -3.5 -36.45 -2.05 -35.0 0.0 -35.0 2.1 -35.0 3.55 -36.45 M0.0 -30.0 Q-4.1 -30.0 -7.05 -32.95 -10.0 -35.9 -10.0 -40.0 -10.0 -44.15 -7.05 -47.1 -4.15 -50.0 0.0 -50.0 4.2 -50.0 7.1 -47.1 10.0 -44.2 10.0 -40.0 10.0 -35.85 7.1 -32.95 4.15 -30.0 0.0 -30.0 M7.1 47.05 Q4.15 50.0 0.0 50.0 -4.1 50.0 -7.05 47.05 -10.0 44.1 -10.0 40.0 -10.0 35.85 -7.05 32.9 -4.15 30.0 0.0 30.0 4.2 30.0 7.1 32.9 10.0 35.8 10.0 40.0 10.0 44.15 7.1 47.05 M0.0 45.0 Q2.1 45.0 3.55 43.55 5.0 42.1 5.0 40.0 5.0 38.0 3.55 36.45 2.1 35.0 0.0 35.0 -2.05 35.0 -3.5 36.45 -5.0 37.95 -5.0 40.0 -5.0 42.15 -3.5 43.55 -2.05 45.0 0.0 45.0" fill="#666666" fill-rule="evenodd" stroke="none"/>
    <path d="M3.55 -36.45 Q2.1 -35.0 0.0 -35.0 -2.05 -35.0 -3.5 -36.45 -5.0 -37.85 -5.0 -40.0 -5.0 -42.05 -3.5 -43.55 -2.05 -45.0 0.0 -45.0 2.1 -45.0 3.55 -43.55 5.0 -42.0 5.0 -40.0 5.0 -37.9 3.55 -36.45 M0.0 45.0 Q-2.05 45.0 -3.5 43.55 -5.0 42.15 -5.0 40.0 -5.0 37.95 -3.5 36.45 -2.05 35.0 0.0 35.0 2.1 35.0 3.55 36.45 5.0 38.0 5.0 40.0 5.0 42.1 3.55 43.55 2.1 45.0 0.0 45.0" fill="#cccccc" fill-rule="evenodd" stroke="none"/>
    <path d="M52.45 -52.45 Q46.9 -58.0 39.0 -58.0 L-39.0 -58.0 Q-46.9 -58.0 -52.45 -52.45 -58.0 -46.9 -58.0 -39.0 L-58.0 39.0 Q-58.0 46.9 -52.45 52.45 -46.9 58.0 -39.0 58.0 L39.0 58.0 Q46.9 58.0 52.45 52.45 58.0 46.9 58.0 39.0 L58.0 -39.0 Q58.0 -46.9 52.45 -52.45 M39.0 -60.0 Q47.7 -60.0 53.85 -53.85 60.0 -47.7 60.0 -39.0 L60.0 39.0 Q60.0 47.7 53.85 53.85 47.7 60.0 39.0 60.0 L-39.0 60.0 Q-47.7 60.0 -53.85 53.85 -60.0 47.7 -60.0 39.0 L-60.0 -39.0 Q-60.0 -47.7 -53.85 -53.85 -47.7 -60.0 -39.0 -60.0 L39.0 -60.0" fill="#dddddd" fill-rule="evenodd" stroke="none"/>
    <path d="M14.15 -25.85 Q8.3 -20.0 0.0 -20.0 -8.3 -20.0 -14.15 -25.85 -20.0 -31.7 -20.0 -40.0 L-40.0 -40.0 -40.0 40.0 -20.0 40.0 Q-20.0 31.7 -14.15 25.85 -8.3 20.0 0.0 20.0 8.3 20.0 14.15 25.85 20.0 31.7 20.0 40.0 L40.0 40.0 40.0 -40.0 20.0 -40.0 Q20.0 -31.7 14.15 -25.85 M0.0 -30.0 Q-4.1 -30.0 -7.05 -32.95 -10.0 -35.9 -10.0 -40.0 -10.0 -44.15 -7.05 -47.1 -4.15 -50.0 0.0 -50.0 4.2 -50.0 7.1 -47.1 10.0 -44.2 10.0 -40.0 10.0 -35.85 7.1 -32.95 4.15 -30.0 0.0 -30.0 M7.1 47.05 Q4.15 50.0 0.0 50.0 -4.1 50.0 -7.05 47.05 -10.0 44.1 -10.0 40.0 -10.0 35.85 -7.05 32.9 -4.15 30.0 0.0 30.0 4.2 30.0 7.1 32.9 10.0 35.8 10.0 40.0 10.0 44.15 7.1 47.05 Z" fill="none" stroke="#666666" stroke-linecap="round" stroke-linejoin="round" stroke-opacity="0.3019608" stroke-width="6.0"/>
  </g>
  <defs>
    <linearGradient gradientTransform="matrix(-0.1113, 0.0452, -0.055, -0.1354, -2.9, -67.1)" gradientUnits="userSpaceOnUse" id="gradient0" spreadMethod="pad" x1="-819.2" x2="819.2">
      <stop offset="0.00784313725490196" stop-color="#eaeaea"/>
      <stop offset="0.34901960784313724" stop-color="#808080"/>
      <stop offset="0.7058823529411765" stop-color="#a6a6a6"/>
      <stop offset="1.0" stop-color="#b7b7b7"/>
    </linearGradient>
  </defs>
</svg>
