<?xml version="1.0" encoding="UTF-8" standalone="no"?>
<svg xmlns:ffdec="https://www.free-decompiler.com/flash" xmlns:xlink="http://www.w3.org/1999/xlink" ffdec:objectType="shape" height="60.0px" width="240.0px" xmlns="http://www.w3.org/2000/svg">
  <g transform="matrix(1.0, 0.0, 0.0, 1.0, 120.0, 30.0)">
    <path d="M90.0 -10.0 Q85.9 -10.0 82.95 -7.05 80.0 -4.1 80.0 0.0 80.0 4.15 82.95 7.1 85.85 10.0 90.0 10.0 L100.0 10.0 100.0 20.0 -100.0 20.0 -100.0 10.0 -90.0 10.0 Q-85.8 10.0 -82.9 7.1 -80.0 4.2 -80.0 0.0 -80.0 -4.15 -82.9 -7.05 -85.85 -10.0 -90.0 -10.0 L-100.0 -10.0 -100.0 -20.0 100.0 -20.0 100.0 -10.0 90.0 -10.0" fill="#000000" fill-rule="evenodd" stroke="none"/>
    <path d="M93.55 -3.55 Q95.0 -1.95 95.0 0.0 95.0 2.05 93.55 3.55 92.05 5.0 90.0 5.0 88.05 5.0 86.45 3.55 85.0 2.1 85.0 0.0 85.0 -2.1 86.45 -3.55 87.9 -5.0 90.0 -5.0 92.1 -5.0 93.55 -3.55 M90.0 -2.5 Q89.0 -2.5 88.25 -1.75 87.5 -1.0 87.5 0.0 87.5 1.05 88.25 1.8 89.1 2.5 90.0 2.5 90.95 2.5 91.8 1.8 92.5 0.95 92.5 0.0 92.5 -0.9 91.8 -1.75 91.05 -2.5 90.0 -2.5 M-90.0 -5.0 Q-87.9 -5.0 -86.45 -3.55 -85.0 -2.0 -85.0 0.0 -85.0 2.05 -86.45 3.55 -87.95 5.0 -90.0 5.0 -92.0 5.0 -93.55 3.55 -95.0 2.1 -95.0 0.0 -95.0 -2.1 -93.55 -3.55 -92.1 -5.0 -90.0 -5.0 M-88.2 -1.75 Q-88.95 -2.5 -90.0 -2.5 -91.0 -2.5 -91.75 -1.75 -92.5 -1.0 -92.5 0.0 -92.5 1.05 -91.75 1.8 -90.95 2.5 -90.0 2.5 -89.0 2.5 -88.2 1.8 -87.5 1.0 -87.5 0.0 -87.5 -0.95 -88.2 -1.75" fill="#666666" fill-rule="evenodd" stroke="none"/>
    <path d="M90.0 -2.5 Q91.05 -2.5 91.8 -1.75 92.5 -0.9 92.5 0.0 92.5 0.95 91.8 1.8 90.95 2.5 90.0 2.5 89.1 2.5 88.25 1.8 87.5 1.05 87.5 0.0 87.5 -1.0 88.25 -1.75 89.0 -2.5 90.0 -2.5 M-88.2 -1.75 Q-87.5 -0.95 -87.5 0.0 -87.5 1.0 -88.2 1.8 -89.0 2.5 -90.0 2.5 -90.95 2.5 -91.75 1.8 -92.5 1.05 -92.5 0.0 -92.5 -1.0 -91.75 -1.75 -91.0 -2.5 -90.0 -2.5 -88.95 -2.5 -88.2 -1.75" fill="#cccccc" fill-rule="evenodd" stroke="none"/>
    <path d="M93.55 -3.55 Q92.1 -5.0 90.0 -5.0 87.9 -5.0 86.45 -3.55 85.0 -2.1 85.0 0.0 85.0 2.1 86.45 3.55 88.05 5.0 90.0 5.0 92.05 5.0 93.55 3.55 95.0 2.05 95.0 0.0 95.0 -1.95 93.55 -3.55 M90.0 -10.0 L100.0 -10.0 100.0 -20.0 -100.0 -20.0 -100.0 -10.0 -90.0 -10.0 Q-85.85 -10.0 -82.9 -7.05 -80.0 -4.15 -80.0 0.0 -80.0 4.2 -82.9 7.1 -85.8 10.0 -90.0 10.0 L-100.0 10.0 -100.0 20.0 100.0 20.0 100.0 10.0 90.0 10.0 Q85.85 10.0 82.95 7.1 80.0 4.15 80.0 0.0 80.0 -4.1 82.95 -7.05 85.9 -10.0 90.0 -10.0 M118.0 -9.0 L118.0 9.0 Q118.0 16.9 112.45 22.45 106.9 28.0 99.0 28.0 L-99.0 28.0 Q-106.9 28.0 -112.45 22.45 -118.0 16.9 -118.0 9.0 L-118.0 -9.0 Q-118.0 -16.9 -112.45 -22.45 -106.9 -28.0 -99.0 -28.0 L99.0 -28.0 Q106.9 -28.0 112.45 -22.45 118.0 -16.9 118.0 -9.0 M-90.0 -5.0 Q-92.1 -5.0 -93.55 -3.55 -95.0 -2.1 -95.0 0.0 -95.0 2.1 -93.55 3.55 -92.0 5.0 -90.0 5.0 -87.95 5.0 -86.45 3.55 -85.0 2.05 -85.0 0.0 -85.0 -2.0 -86.45 -3.55 -87.9 -5.0 -90.0 -5.0" fill="url(#gradient0)" fill-rule="evenodd" stroke="none"/>
    <path d="M118.0 -9.0 Q118.0 -16.9 112.45 -22.45 106.9 -28.0 99.0 -28.0 L-99.0 -28.0 Q-106.9 -28.0 -112.45 -22.45 -118.0 -16.9 -118.0 -9.0 L-118.0 9.0 Q-118.0 16.9 -112.45 22.45 -106.9 28.0 -99.0 28.0 L99.0 28.0 Q106.9 28.0 112.45 22.45 118.0 16.9 118.0 9.0 L118.0 -9.0 M113.85 -23.85 Q120.0 -17.7 120.0 -9.0 L120.0 9.0 Q120.0 17.7 113.85 23.85 107.7 30.0 99.0 30.0 L-99.0 30.0 Q-107.7 30.0 -113.85 23.85 -120.0 17.7 -120.0 9.0 L-120.0 -9.0 Q-120.0 -17.7 -113.85 -23.85 -107.7 -30.0 -99.0 -30.0 L99.0 -30.0 Q107.7 -30.0 113.85 -23.85" fill="#dddddd" fill-rule="evenodd" stroke="none"/>
    <path d="M90.0 -10.0 L100.0 -10.0 100.0 -20.0 -100.0 -20.0 -100.0 -10.0 -90.0 -10.0 Q-85.85 -10.0 -82.9 -7.05 -80.0 -4.15 -80.0 0.0 -80.0 4.2 -82.9 7.1 -85.8 10.0 -90.0 10.0 L-100.0 10.0 -100.0 20.0 100.0 20.0 100.0 10.0 90.0 10.0 Q85.85 10.0 82.95 7.1 80.0 4.15 80.0 0.0 80.0 -4.1 82.95 -7.05 85.9 -10.0 90.0 -10.0 Z" fill="none" stroke="#666666" stroke-linecap="round" stroke-linejoin="round" stroke-opacity="0.3019608" stroke-width="6.0"/>
  </g>
  <defs>
    <linearGradient gradientTransform="matrix(0.0452, 0.1113, -0.1354, 0.055, 12.9, 12.9)" gradientUnits="userSpaceOnUse" id="gradient0" spreadMethod="pad" x1="-819.2" x2="819.2">
      <stop offset="0.00784313725490196" stop-color="#eaeaea"/>
      <stop offset="0.34901960784313724" stop-color="#808080"/>
      <stop offset="0.7058823529411765" stop-color="#a6a6a6"/>
      <stop offset="1.0" stop-color="#b7b7b7"/>
    </linearGradient>
  </defs>
</svg>
