<?xml version="1.0" encoding="UTF-8" standalone="no"?>
<svg xmlns:ffdec="https://www.free-decompiler.com/flash" xmlns:xlink="http://www.w3.org/1999/xlink" ffdec:objectType="shape" height="120.0px" width="120.0px" xmlns="http://www.w3.org/2000/svg">
  <g transform="matrix(1.0, 0.0, 0.0, 1.0, 60.0, 60.0)">
    <path d="M0.8 -34.85 L0.35 -35.15 -0.2 -35.15 Q-0.5 -35.1 -0.7 -34.85 L-8.65 -25.95 -8.9 -25.4 -8.75 -24.8 -8.3 -24.4 -0.35 -20.55 0.05 -20.45 0.5 -20.55 8.4 -24.4 8.85 -24.8 9.0 -25.4 8.75 -25.95 0.8 -34.85 M24.7 -25.0 L24.15 -25.15 12.3 -24.5 11.75 -24.25 Q11.5 -24.1 11.4 -23.75 L11.4 -23.15 14.3 -14.85 14.55 -14.5 14.9 -14.25 23.25 -11.3 23.85 -11.3 24.35 -11.65 24.55 -12.2 25.2 -24.1 25.1 -24.6 24.7 -25.0 M13.65 -13.15 L13.1 -12.9 Q12.85 -12.7 12.75 -12.35 L11.0 -5.15 11.05 -4.55 11.45 -4.1 17.75 -0.2 18.35 -0.05 Q18.7 -0.1 18.95 -0.3 L19.25 -0.8 21.05 -8.05 21.0 -8.65 20.6 -9.15 14.25 -13.0 13.65 -13.15 M12.4 -12.7 L12.95 -13.0 13.2 -13.6 13.05 -14.2 9.2 -20.5 8.7 -20.9 8.1 -20.95 0.9 -19.2 Q0.6 -19.15 0.4 -18.9 L0.15 -18.3 0.3 -17.7 4.15 -11.4 4.6 -11.0 5.2 -10.95 12.4 -12.7 M8.6 -8.05 L8.05 -8.6 0.4 -11.75 Q0.0 -11.95 -0.35 -11.75 L-8.05 -8.6 -8.6 -8.05 -11.8 -0.35 -11.8 0.4 -8.6 8.05 -8.05 8.6 -0.35 11.75 0.4 11.75 8.05 8.6 8.6 8.05 11.75 0.4 11.75 -0.35 8.6 -8.05 M4.15 -3.6 L3.6 -4.15 0.35 -5.5 -0.4 -5.5 -3.6 -4.15 -4.15 -3.6 -5.5 -0.4 Q-5.7 0.0 -5.5 0.35 L-4.15 3.6 -3.6 4.15 -0.4 5.45 0.35 5.45 3.6 4.15 4.15 3.6 5.45 0.35 5.45 -0.4 4.15 -3.6 M4.55 -4.6 L6.5 0.0 4.55 4.55 0.0 6.5 -4.6 4.6 -6.55 -0.05 -4.65 -4.6 0.0 -6.55 4.55 -4.6 M26.05 -8.65 L25.45 -8.9 24.9 -8.75 24.45 -8.3 20.65 -0.4 20.55 0.05 20.65 0.45 24.45 8.4 24.9 8.85 25.45 8.95 26.05 8.7 34.95 0.8 35.2 0.35 35.2 -0.2 34.95 -0.7 26.05 -8.65 M20.55 9.15 L20.95 8.65 21.0 8.05 19.3 0.9 18.95 0.4 18.4 0.15 17.8 0.3 11.45 4.15 11.05 4.6 11.0 5.2 12.75 12.35 13.05 12.9 13.65 13.15 14.25 13.0 20.55 9.15 M23.85 11.4 L23.25 11.4 14.95 14.3 Q14.7 14.35 14.55 14.55 L14.3 14.9 11.4 23.25 11.4 23.85 11.7 24.35 12.3 24.55 24.15 25.2 24.7 25.1 25.1 24.7 25.2 24.15 24.55 12.3 24.35 11.75 23.85 11.4 M0.5 20.65 L0.05 20.55 -0.35 20.65 -8.3 24.5 -8.75 24.9 -8.9 25.5 -8.65 26.05 -0.7 34.95 -0.2 35.2 0.35 35.2 0.8 34.95 8.75 26.05 9.0 25.45 8.85 24.9 8.4 24.45 0.5 20.65 M5.2 11.0 L4.6 11.05 4.15 11.45 0.3 17.75 Q0.15 18.0 0.15 18.35 L0.4 18.9 0.95 19.25 8.1 21.0 8.7 20.95 9.2 20.55 13.0 14.2 13.15 13.6 12.9 13.05 12.4 12.7 5.2 11.0 M60.0 60.0 L-60.0 60.0 -60.0 -60.0 60.0 -60.0 60.0 60.0 M50.0 50.0 L50.0 -50.0 -50.0 -50.0 -50.0 50.0 50.0 50.0 M39.0 -39.0 L39.0 39.0 -39.0 39.0 -39.0 -39.0 39.0 -39.0 M-20.85 -8.65 L-20.9 -8.05 -19.15 -0.85 -18.85 -0.3 Q-18.6 -0.1 -18.25 -0.05 L-17.65 -0.2 -11.4 -4.1 -11.0 -4.55 -10.95 -5.15 -12.65 -12.35 -13.0 -12.9 -13.55 -13.15 -14.15 -13.0 -20.45 -9.1 -20.85 -8.65 M-34.85 -0.7 L-35.15 -0.2 -35.15 0.35 -34.85 0.8 -25.95 8.75 -25.4 9.0 -24.8 8.85 -24.4 8.4 -20.55 0.45 -20.45 0.05 -20.55 -0.4 -24.4 -8.3 -24.8 -8.75 -25.4 -8.9 -25.95 -8.65 -34.85 -0.7 M-24.1 -25.15 L-24.6 -25.0 -25.0 -24.6 -25.15 -24.1 -24.5 -12.2 -24.25 -11.65 -23.75 -11.3 -23.15 -11.3 -14.85 -14.2 -14.45 -14.45 -14.2 -14.85 -11.3 -23.15 -11.3 -23.75 -11.6 -24.25 -12.2 -24.5 -24.1 -25.15 M-8.0 -21.0 L-8.6 -20.95 -9.1 -20.55 -12.95 -14.2 -13.1 -13.6 -12.85 -13.0 Q-12.65 -12.8 -12.35 -12.7 L-5.15 -10.95 -4.55 -11.0 -4.05 -11.4 -0.15 -17.75 0.0 -18.35 -0.25 -18.9 -0.8 -19.25 -8.0 -21.0 M-11.0 4.6 L-11.4 4.15 -17.7 0.25 -18.3 0.1 Q-18.6 0.1 -18.85 0.35 L-19.2 0.85 -20.95 8.05 -20.9 8.65 -20.5 9.15 -14.15 13.0 -13.55 13.15 -13.0 12.9 -12.65 12.4 -10.95 5.2 -11.0 4.6 M-4.05 11.45 Q-4.25 11.2 -4.55 11.05 L-5.15 11.0 -12.3 12.7 Q-12.6 12.8 -12.8 13.05 L-13.05 13.6 -12.9 14.2 -9.05 20.5 -8.6 20.9 -8.0 20.95 -0.85 19.25 -0.3 18.9 -0.05 18.35 Q-0.05 18.0 -0.2 17.75 L-4.05 11.45 M-14.45 14.55 L-14.85 14.3 -23.15 11.35 -23.75 11.35 -24.25 11.7 -24.5 12.25 -25.15 24.15 -25.0 24.7 -24.6 25.1 -24.1 25.2 -12.2 24.55 -11.6 24.35 -11.3 23.85 -11.3 23.25 -14.2 14.9 -14.45 14.55" fill="#666666" fill-rule="evenodd" stroke="none"/>
    <path d="M24.7 -25.0 L25.1 -24.6 25.2 -24.1 24.55 -12.2 24.35 -11.65 23.85 -11.3 23.25 -11.3 14.9 -14.25 14.55 -14.5 14.3 -14.85 11.4 -23.15 11.4 -23.75 Q11.5 -24.1 11.75 -24.25 L12.3 -24.5 24.15 -25.15 24.7 -25.0 M0.8 -34.85 L8.75 -25.95 9.0 -25.4 8.85 -24.8 8.4 -24.4 0.5 -20.55 0.05 -20.45 -0.35 -20.55 -8.3 -24.4 -8.75 -24.8 -8.9 -25.4 -8.65 -25.95 -0.7 -34.85 Q-0.5 -35.1 -0.2 -35.15 L0.35 -35.15 0.8 -34.85 M0.05 -34.2 L-7.9 -25.3 0.05 -21.45 8.0 -25.3 0.05 -34.2 M12.4 -12.7 L5.2 -10.95 4.6 -11.0 4.15 -11.4 0.3 -17.7 0.15 -18.3 0.4 -18.9 Q0.6 -19.15 0.9 -19.2 L8.1 -20.95 8.7 -20.9 9.2 -20.5 13.05 -14.2 13.2 -13.6 12.95 -13.0 12.4 -12.7 M13.65 -13.15 L14.25 -13.0 20.6 -9.15 21.0 -8.65 21.05 -8.05 19.25 -0.8 18.95 -0.3 Q18.7 -0.1 18.35 -0.05 L17.75 -0.2 11.45 -4.1 11.05 -4.55 11.0 -5.15 12.75 -12.35 Q12.85 -12.7 13.1 -12.9 L13.65 -13.15 M15.25 -15.2 L23.55 -12.25 24.2 -24.15 12.35 -23.5 15.25 -15.2 M1.15 -18.25 L5.0 -11.95 12.2 -13.65 8.35 -19.95 1.15 -18.25 M8.6 -8.05 L11.75 -0.35 11.75 0.4 8.6 8.05 8.05 8.6 0.4 11.75 -0.35 11.75 -8.05 8.6 -8.6 8.05 -11.8 0.4 -11.8 -0.35 -8.6 -8.05 -8.05 -8.6 -0.35 -11.75 Q0.0 -11.95 0.4 -11.75 L8.05 -8.6 8.6 -8.05 M4.55 0.0 L3.2 -3.25 0.0 -4.55 -3.25 -3.25 -4.6 0.0 -3.25 3.2 0.0 4.55 3.2 3.2 4.55 0.0 M4.15 -3.6 L5.45 -0.4 5.45 0.35 4.15 3.6 3.6 4.15 0.35 5.45 -0.4 5.45 -3.6 4.15 -4.15 3.6 -5.5 0.35 Q-5.7 0.0 -5.5 -0.4 L-4.15 -3.6 -3.6 -4.15 -0.4 -5.5 0.35 -5.5 3.6 -4.15 4.15 -3.6 M7.55 0.0 L5.35 5.35 0.0 7.55 -5.4 5.35 -7.65 0.0 -5.4 -5.4 0.0 -7.6 5.35 -5.4 7.55 0.0 M7.65 -7.65 L0.0 -10.85 -7.65 -7.65 -10.85 0.0 -7.65 7.65 0.0 10.85 7.65 7.65 10.85 0.0 7.65 -7.65 M4.55 -4.6 L0.0 -6.55 -4.65 -4.6 -6.55 -0.05 -4.6 4.6 0.0 6.5 4.55 4.55 6.5 0.0 4.55 -4.6 M12.0 -4.95 L18.3 -1.05 20.05 -8.3 13.75 -12.15 12.0 -4.95 M26.05 -8.65 L34.95 -0.7 35.2 -0.2 35.2 0.35 34.95 0.8 26.05 8.7 25.45 8.95 24.9 8.85 24.45 8.4 20.65 0.45 20.55 0.05 20.65 -0.4 24.45 -8.3 24.9 -8.75 25.45 -8.9 26.05 -8.65 M43.0 -42.0 L43.0 42.0 42.7 42.7 42.0 43.0 -42.0 43.0 -42.7 42.7 -43.0 42.0 -43.0 -42.0 -42.7 -42.7 -42.0 -43.0 42.0 -43.0 42.7 -42.7 43.0 -42.0 M23.85 11.4 L24.35 11.75 24.55 12.3 25.2 24.15 25.1 24.7 24.7 25.1 24.15 25.2 12.3 24.55 11.7 24.35 11.4 23.85 11.4 23.25 14.3 14.9 14.55 14.55 Q14.7 14.35 14.95 14.3 L23.25 11.4 23.85 11.4 M20.55 9.15 L14.25 13.0 13.65 13.15 13.05 12.9 12.75 12.35 11.0 5.2 11.05 4.6 11.45 4.15 17.8 0.3 18.4 0.15 18.95 0.4 19.3 0.9 21.0 8.05 20.95 8.65 20.55 9.15 M21.55 0.05 L25.35 7.95 34.25 0.05 25.35 -7.9 21.55 0.05 M24.2 24.2 L23.55 12.35 15.25 15.25 12.35 23.55 24.2 24.2 M18.3 1.15 L12.0 5.0 13.7 12.15 20.0 8.3 18.3 1.15 M5.2 11.0 L12.4 12.7 12.9 13.05 13.15 13.6 13.0 14.2 9.2 20.55 8.7 20.95 8.1 21.0 0.95 19.25 0.4 18.9 0.15 18.35 Q0.15 18.0 0.3 17.75 L4.15 11.45 4.6 11.05 5.2 11.0 M0.5 20.65 L8.4 24.45 8.85 24.9 9.0 25.45 8.75 26.05 0.8 34.95 0.35 35.2 -0.2 35.2 -0.7 34.95 -8.65 26.05 -8.9 25.5 -8.75 24.9 -8.3 24.5 -0.35 20.65 0.05 20.55 0.5 20.65 M8.35 20.0 L12.15 13.7 5.0 12.0 1.15 18.25 8.35 20.0 M0.05 34.25 L8.0 25.35 0.05 21.55 -7.9 25.4 0.05 34.25 M39.0 -39.0 L-39.0 -39.0 -39.0 39.0 39.0 39.0 39.0 -39.0 M40.0 40.0 L-40.0 40.0 -40.0 -40.0 40.0 -40.0 40.0 40.0 M42.0 42.0 L42.0 -42.0 -42.0 -42.0 -42.0 42.0 42.0 42.0 M-24.1 -25.15 L-12.2 -24.5 -11.6 -24.25 -11.3 -23.75 -11.3 -23.15 -14.2 -14.85 -14.45 -14.45 -14.85 -14.2 -23.15 -11.3 -23.75 -11.3 -24.25 -11.65 -24.5 -12.2 -25.15 -24.1 -25.0 -24.6 -24.6 -25.0 -24.1 -25.15 M-34.85 -0.7 L-25.95 -8.65 -25.4 -8.9 -24.8 -8.75 -24.4 -8.3 -20.55 -0.4 -20.45 0.05 -20.55 0.45 -24.4 8.4 -24.8 8.85 -25.4 9.0 -25.95 8.75 -34.85 0.8 -35.15 0.35 -35.15 -0.2 -34.85 -0.7 M-20.85 -8.65 L-20.45 -9.1 -14.15 -13.0 -13.55 -13.15 -13.0 -12.9 -12.65 -12.35 -10.95 -5.15 -11.0 -4.55 -11.4 -4.1 -17.65 -0.2 -18.25 -0.05 Q-18.6 -0.1 -18.85 -0.3 L-19.15 -0.85 -20.9 -8.05 -20.85 -8.65 M-24.15 -24.15 L-23.5 -12.25 -15.15 -15.15 -12.25 -23.5 -24.15 -24.15 M-8.0 -21.0 L-0.8 -19.25 -0.25 -18.9 0.0 -18.35 -0.15 -17.75 -4.05 -11.4 -4.55 -11.0 -5.15 -10.95 -12.35 -12.7 Q-12.65 -12.8 -12.85 -13.0 L-13.1 -13.6 -12.95 -14.2 -9.1 -20.55 -8.6 -20.95 -8.0 -21.0 M-1.0 -18.25 L-8.25 -20.0 -12.1 -13.65 -4.9 -11.95 -1.0 -18.25 M-11.9 -4.95 L-13.65 -12.15 -19.95 -8.25 -18.2 -1.05 -11.9 -4.95 M-4.05 11.45 L-0.2 17.75 Q-0.05 18.0 -0.05 18.35 L-0.3 18.9 -0.85 19.25 -8.0 20.95 -8.6 20.9 -9.05 20.5 -12.9 14.2 -13.05 13.6 -12.8 13.05 Q-12.6 12.8 -12.3 12.7 L-5.15 11.0 -4.55 11.05 Q-4.25 11.2 -4.05 11.45 M-11.0 4.6 L-10.95 5.2 -12.65 12.4 -13.0 12.9 -13.55 13.15 -14.15 13.0 -20.5 9.15 -20.9 8.65 -20.95 8.05 -19.2 0.85 -18.85 0.35 Q-18.6 0.1 -18.3 0.1 L-17.7 0.25 -11.4 4.15 -11.0 4.6 M-18.2 1.1 L-20.0 8.3 -13.65 12.15 -11.9 5.0 -18.2 1.1 M-14.45 14.55 L-14.2 14.9 -11.3 23.25 -11.3 23.85 -11.6 24.35 -12.2 24.55 -24.1 25.2 -24.6 25.1 -25.0 24.7 -25.15 24.15 -24.5 12.25 -24.25 11.7 -23.75 11.35 -23.15 11.35 -14.85 14.3 -14.45 14.55 M-15.15 15.25 L-23.5 12.3 -24.15 24.2 -12.25 23.55 -15.15 15.25 M-1.05 18.25 L-4.9 12.0 -12.05 13.7 -8.2 20.0 -1.05 18.25 M-25.3 8.0 L-21.45 0.05 -25.3 -7.9 -34.2 0.05 -25.3 8.0" fill="#222222" fill-rule="evenodd" stroke="none"/>
    <path d="M0.05 -34.2 L8.0 -25.3 0.05 -21.45 -7.9 -25.3 0.05 -34.2" fill="url(#gradient0)" fill-rule="evenodd" stroke="none"/>
    <path d="M15.25 -15.2 L12.35 -23.5 24.2 -24.15 23.55 -12.25 15.25 -15.2" fill="url(#gradient1)" fill-rule="evenodd" stroke="none"/>
    <path d="M1.15 -18.25 L8.35 -19.95 12.2 -13.65 5.0 -11.95 1.15 -18.25" fill="url(#gradient2)" fill-rule="evenodd" stroke="none"/>
    <path d="M4.55 0.0 L3.2 3.2 0.0 4.55 -3.25 3.2 -4.6 0.0 -3.25 -3.25 0.0 -4.55 3.2 -3.25 4.55 0.0" fill="url(#gradient3)" fill-rule="evenodd" stroke="none"/>
    <path d="M7.55 0.0 L5.35 -5.4 0.0 -7.6 -5.4 -5.4 -7.65 0.0 -5.4 5.35 0.0 7.55 5.35 5.35 7.55 0.0 M7.65 -7.65 L10.85 0.0 7.65 7.65 0.0 10.85 -7.65 7.65 -10.85 0.0 -7.65 -7.65 0.0 -10.85 7.65 -7.65" fill="url(#gradient4)" fill-rule="evenodd" stroke="none"/>
    <path d="M12.0 -4.95 L13.75 -12.15 20.05 -8.3 18.3 -1.05 12.0 -4.95" fill="url(#gradient5)" fill-rule="evenodd" stroke="none"/>
    <path d="M43.0 -42.0 L42.7 -42.7 42.0 -43.0 -42.0 -43.0 -42.7 -42.7 -43.0 -42.0 -43.0 42.0 -42.7 42.7 -42.0 43.0 42.0 43.0 42.7 42.7 43.0 42.0 43.0 -42.0 M50.0 50.0 L-50.0 50.0 -50.0 -50.0 50.0 -50.0 50.0 50.0" fill="#333333" fill-rule="evenodd" stroke="none"/>
    <path d="M21.55 0.05 L25.35 -7.9 34.25 0.05 25.35 7.95 21.55 0.05" fill="url(#gradient6)" fill-rule="evenodd" stroke="none"/>
    <path d="M24.2 24.2 L12.35 23.55 15.25 15.25 23.55 12.35 24.2 24.2" fill="url(#gradient7)" fill-rule="evenodd" stroke="none"/>
    <path d="M18.3 1.15 L20.0 8.3 13.7 12.15 12.0 5.0 18.3 1.15" fill="url(#gradient8)" fill-rule="evenodd" stroke="none"/>
    <path d="M8.35 20.0 L1.15 18.25 5.0 12.0 12.15 13.7 8.35 20.0" fill="url(#gradient9)" fill-rule="evenodd" stroke="none"/>
    <path d="M0.05 34.25 L-7.9 25.4 0.05 21.55 8.0 25.35 0.05 34.25" fill="url(#gradient10)" fill-rule="evenodd" stroke="none"/>
    <path d="M40.0 40.0 L40.0 -40.0 -40.0 -40.0 -40.0 40.0 40.0 40.0 M42.0 42.0 L-42.0 42.0 -42.0 -42.0 42.0 -42.0 42.0 42.0" fill="url(#gradient11)" fill-rule="evenodd" stroke="none"/>
    <path d="M-24.15 -24.15 L-12.25 -23.5 -15.15 -15.15 -23.5 -12.25 -24.15 -24.15" fill="url(#gradient12)" fill-rule="evenodd" stroke="none"/>
    <path d="M-1.0 -18.25 L-4.9 -11.95 -12.1 -13.65 -8.25 -20.0 -1.0 -18.25" fill="url(#gradient13)" fill-rule="evenodd" stroke="none"/>
    <path d="M-11.9 -4.95 L-18.2 -1.05 -19.95 -8.25 -13.65 -12.15 -11.9 -4.95" fill="url(#gradient14)" fill-rule="evenodd" stroke="none"/>
    <path d="M-18.2 1.1 L-11.9 5.0 -13.65 12.15 -20.0 8.3 -18.2 1.1" fill="url(#gradient15)" fill-rule="evenodd" stroke="none"/>
    <path d="M-15.15 15.25 L-12.25 23.55 -24.15 24.2 -23.5 12.3 -15.15 15.25" fill="url(#gradient16)" fill-rule="evenodd" stroke="none"/>
    <path d="M-1.05 18.25 L-8.2 20.0 -12.05 13.7 -4.9 12.0 -1.05 18.25" fill="url(#gradient17)" fill-rule="evenodd" stroke="none"/>
    <path d="M-25.3 8.0 L-34.2 0.05 -25.3 -7.9 -21.45 0.05 -25.3 8.0" fill="url(#gradient18)" fill-rule="evenodd" stroke="none"/>
  </g>
  <defs>
    <linearGradient gradientTransform="matrix(0.0097, 0.0, 0.0, 0.0078, 0.05, -27.85)" gradientUnits="userSpaceOnUse" id="gradient0" spreadMethod="pad" x1="-819.2" x2="819.2">
      <stop offset="0.0" stop-color="#ffe575"/>
      <stop offset="0.8627450980392157" stop-color="#cc9200"/>
      <stop offset="1.0" stop-color="#d4a223"/>
    </linearGradient>
    <linearGradient gradientTransform="matrix(0.0072, 0.0, 0.0, 0.0073, 18.25, -18.2)" gradientUnits="userSpaceOnUse" id="gradient1" spreadMethod="pad" x1="-819.2" x2="819.2">
      <stop offset="0.0" stop-color="#ffe575"/>
      <stop offset="0.8627450980392157" stop-color="#cc9200"/>
      <stop offset="1.0" stop-color="#d4a223"/>
    </linearGradient>
    <linearGradient gradientTransform="matrix(0.0067, 0.0, 0.0, 0.0049, 6.65, -15.95)" gradientUnits="userSpaceOnUse" id="gradient2" spreadMethod="pad" x1="-819.2" x2="819.2">
      <stop offset="0.0" stop-color="#ffe575"/>
      <stop offset="0.8627450980392157" stop-color="#cc9200"/>
      <stop offset="1.0" stop-color="#d4a223"/>
    </linearGradient>
    <linearGradient gradientTransform="matrix(0.0056, 0.0, 0.0, 0.0056, -0.05, 0.0)" gradientUnits="userSpaceOnUse" id="gradient3" spreadMethod="pad" x1="-819.2" x2="819.2">
      <stop offset="0.0" stop-color="#ffe575"/>
      <stop offset="0.8627450980392157" stop-color="#cc9200"/>
      <stop offset="1.0" stop-color="#d4a223"/>
    </linearGradient>
    <linearGradient gradientTransform="matrix(0.0132, 0.0, 0.0, 0.0132, 0.0, 0.0)" gradientUnits="userSpaceOnUse" id="gradient4" spreadMethod="pad" x1="-819.2" x2="819.2">
      <stop offset="0.0" stop-color="#ffe575"/>
      <stop offset="0.8627450980392157" stop-color="#cc9200"/>
      <stop offset="1.0" stop-color="#d4a223"/>
    </linearGradient>
    <linearGradient gradientTransform="matrix(0.0049, 0.0, 0.0, 0.0068, 16.0, -6.6)" gradientUnits="userSpaceOnUse" id="gradient5" spreadMethod="pad" x1="-819.2" x2="819.2">
      <stop offset="0.0" stop-color="#ffe575"/>
      <stop offset="0.8627450980392157" stop-color="#cc9200"/>
      <stop offset="1.0" stop-color="#d4a223"/>
    </linearGradient>
    <linearGradient gradientTransform="matrix(0.0078, 0.0, 0.0, 0.0097, 27.9, 0.0)" gradientUnits="userSpaceOnUse" id="gradient6" spreadMethod="pad" x1="-819.2" x2="819.2">
      <stop offset="0.0" stop-color="#ffe575"/>
      <stop offset="0.8627450980392157" stop-color="#cc9200"/>
      <stop offset="1.0" stop-color="#d4a223"/>
    </linearGradient>
    <linearGradient gradientTransform="matrix(0.0072, 0.0, 0.0, 0.0072, 18.25, 18.25)" gradientUnits="userSpaceOnUse" id="gradient7" spreadMethod="pad" x1="-819.2" x2="819.2">
      <stop offset="0.0" stop-color="#ffe575"/>
      <stop offset="0.8627450980392157" stop-color="#cc9200"/>
      <stop offset="1.0" stop-color="#d4a223"/>
    </linearGradient>
    <linearGradient gradientTransform="matrix(0.0049, 0.0, 0.0, 0.0067, 16.0, 6.65)" gradientUnits="userSpaceOnUse" id="gradient8" spreadMethod="pad" x1="-819.2" x2="819.2">
      <stop offset="0.0" stop-color="#ffe575"/>
      <stop offset="0.8627450980392157" stop-color="#cc9200"/>
      <stop offset="1.0" stop-color="#d4a223"/>
    </linearGradient>
    <linearGradient gradientTransform="matrix(0.0067, 0.0, 0.0, 0.0049, 6.65, 16.0)" gradientUnits="userSpaceOnUse" id="gradient9" spreadMethod="pad" x1="-819.2" x2="819.2">
      <stop offset="0.0" stop-color="#ffe575"/>
      <stop offset="0.8627450980392157" stop-color="#cc9200"/>
      <stop offset="1.0" stop-color="#d4a223"/>
    </linearGradient>
    <linearGradient gradientTransform="matrix(0.0097, 0.0, 0.0, 0.0078, 0.05, 27.9)" gradientUnits="userSpaceOnUse" id="gradient10" spreadMethod="pad" x1="-819.2" x2="819.2">
      <stop offset="0.0" stop-color="#ffe575"/>
      <stop offset="0.8627450980392157" stop-color="#cc9200"/>
      <stop offset="1.0" stop-color="#d4a223"/>
    </linearGradient>
    <linearGradient gradientTransform="matrix(0.0513, 0.0, 0.0, 0.0513, 0.0, 0.0)" gradientUnits="userSpaceOnUse" id="gradient11" spreadMethod="pad" x1="-819.2" x2="819.2">
      <stop offset="0.0" stop-color="#ffe575"/>
      <stop offset="0.8627450980392157" stop-color="#cc9200"/>
      <stop offset="1.0" stop-color="#d4a223"/>
    </linearGradient>
    <linearGradient gradientTransform="matrix(0.0073, 0.0, 0.0, 0.0073, -18.2, -18.2)" gradientUnits="userSpaceOnUse" id="gradient12" spreadMethod="pad" x1="-819.2" x2="819.2">
      <stop offset="0.0" stop-color="#ffe575"/>
      <stop offset="0.8627450980392157" stop-color="#cc9200"/>
      <stop offset="1.0" stop-color="#d4a223"/>
    </linearGradient>
    <linearGradient gradientTransform="matrix(0.0068, 0.0, 0.0, 0.0049, -6.55, -16.0)" gradientUnits="userSpaceOnUse" id="gradient13" spreadMethod="pad" x1="-819.2" x2="819.2">
      <stop offset="0.0" stop-color="#ffe575"/>
      <stop offset="0.8627450980392157" stop-color="#cc9200"/>
      <stop offset="1.0" stop-color="#d4a223"/>
    </linearGradient>
    <linearGradient gradientTransform="matrix(0.0049, 0.0, 0.0, 0.0068, -15.95, -6.6)" gradientUnits="userSpaceOnUse" id="gradient14" spreadMethod="pad" x1="-819.2" x2="819.2">
      <stop offset="0.0" stop-color="#ffe575"/>
      <stop offset="0.8627450980392157" stop-color="#cc9200"/>
      <stop offset="1.0" stop-color="#d4a223"/>
    </linearGradient>
    <linearGradient gradientTransform="matrix(0.0049, 0.0, 0.0, 0.0067, -15.95, 6.6)" gradientUnits="userSpaceOnUse" id="gradient15" spreadMethod="pad" x1="-819.2" x2="819.2">
      <stop offset="0.0" stop-color="#ffe575"/>
      <stop offset="0.8627450980392157" stop-color="#cc9200"/>
      <stop offset="1.0" stop-color="#d4a223"/>
    </linearGradient>
    <linearGradient gradientTransform="matrix(0.0073, 0.0, 0.0, 0.0073, -18.2, 18.25)" gradientUnits="userSpaceOnUse" id="gradient16" spreadMethod="pad" x1="-819.2" x2="819.2">
      <stop offset="0.0" stop-color="#ffe575"/>
      <stop offset="0.8627450980392157" stop-color="#cc9200"/>
      <stop offset="1.0" stop-color="#d4a223"/>
    </linearGradient>
    <linearGradient gradientTransform="matrix(0.0067, 0.0, 0.0, 0.0049, -6.55, 16.0)" gradientUnits="userSpaceOnUse" id="gradient17" spreadMethod="pad" x1="-819.2" x2="819.2">
      <stop offset="0.0" stop-color="#ffe575"/>
      <stop offset="0.8627450980392157" stop-color="#cc9200"/>
      <stop offset="1.0" stop-color="#d4a223"/>
    </linearGradient>
    <linearGradient gradientTransform="matrix(0.0078, 0.0, 0.0, 0.0097, -27.85, 0.05)" gradientUnits="userSpaceOnUse" id="gradient18" spreadMethod="pad" x1="-819.2" x2="819.2">
      <stop offset="0.0" stop-color="#ffe575"/>
      <stop offset="0.8627450980392157" stop-color="#cc9200"/>
      <stop offset="1.0" stop-color="#d4a223"/>
    </linearGradient>
  </defs>
</svg>
