<?xml version="1.0" encoding="UTF-8" standalone="no"?>
<svg xmlns:ffdec="https://www.free-decompiler.com/flash" xmlns:xlink="http://www.w3.org/1999/xlink" ffdec:objectType="shape" height="120.0px" width="120.0px" xmlns="http://www.w3.org/2000/svg">
  <g transform="matrix(1.0, 0.0, 0.0, 1.0, 60.0, 60.0)">
    <path d="M2.75 -28.1 L0.8 -28.65 0.15 -28.5 -0.45 -28.65 -2.6 -28.1 Q-10.3 -24.95 -17.95 -21.75 -19.0 -21.35 -19.8 -20.65 L-20.1 -20.15 -20.6 -19.85 -21.75 -18.0 -21.75 -17.95 -28.15 -2.6 -28.15 -2.65 -28.7 -0.45 -28.55 0.1 -28.7 0.65 -28.15 2.75 -21.75 18.05 -20.6 19.95 -20.05 20.3 -19.75 20.8 -18.0 21.85 -17.95 21.85 Q-10.3 25.0 -2.6 28.2 L-0.5 28.7 0.15 28.5 0.2 28.55 0.9 28.7 2.75 28.2 10.3 25.05 10.35 25.05 10.55 25.0 18.05 21.85 19.85 20.8 20.2 20.15 20.8 19.8 21.85 18.05 25.0 10.55 25.05 10.35 25.05 10.3 28.2 2.75 28.7 0.9 28.55 0.2 28.5 0.1 28.5 0.05 28.7 -0.65 28.2 -2.6 21.85 -17.95 20.85 -19.7 20.25 -20.05 19.9 -20.65 18.05 -21.75 2.75 -28.1 M6.1 -39.0 L39.0 -39.0 39.0 -6.2 33.15 -0.35 33.0 0.0 33.15 0.35 39.0 6.2 39.0 39.0 6.1 39.0 0.3 33.2 -0.05 33.05 Q-0.25 33.05 -0.4 33.2 L-6.2 39.0 -39.0 39.0 -39.0 6.2 -33.2 0.4 -33.05 0.05 -33.2 -0.3 -39.0 -6.1 -39.0 -39.0 -6.3 -39.0 -0.45 -33.15 -0.1 -33.0 Q0.1 -33.0 0.25 -33.15 L6.1 -39.0 M11.65 -17.0 L18.95 -18.8 17.2 -11.45 Q16.8 -9.95 17.15 -8.45 L17.15 -8.4 17.55 -7.15 18.15 -6.05 18.1 -6.05 Q18.95 -4.75 20.35 -3.9 L26.85 0.1 20.4 4.05 Q18.95 4.9 18.1 6.35 L17.95 6.5 17.55 7.3 17.55 7.35 17.2 8.35 Q16.75 9.95 17.2 11.65 L18.95 18.9 11.65 17.2 Q9.95 16.8 8.35 17.2 L7.35 17.55 7.3 17.55 6.5 17.95 6.35 18.1 Q4.95 18.95 4.05 20.4 L0.15 26.8 -3.85 20.35 Q-4.65 19.0 -5.9 18.2 L-5.9 18.15 Q-6.45 17.8 -7.1 17.55 L-8.45 17.15 -11.4 17.2 -18.7 18.9 -16.95 11.65 Q-16.7 10.45 -16.8 9.3 L-16.8 9.15 -17.3 7.35 Q-17.7 6.45 -18.25 5.7 L-18.4 5.5 -20.1 4.05 -26.55 0.1 -20.1 -3.9 Q-19.1 -4.5 -18.35 -5.4 -17.75 -6.15 -17.3 -7.15 -16.9 -8.15 -16.8 -9.2 -16.7 -10.3 -16.95 -11.45 L-18.7 -18.75 -11.4 -17.0 -9.0 -16.85 -8.95 -16.85 -7.1 -17.35 -5.55 -18.25 -5.5 -18.3 -5.5 -18.35 Q-4.5 -19.1 -3.85 -20.15 L0.15 -26.6 4.05 -20.15 Q4.8 -18.95 5.9 -18.2 L5.85 -18.2 Q6.55 -17.7 7.35 -17.35 L8.95 -16.9 11.65 -17.0 M2.7 -15.55 L0.3 -16.1 -0.25 -16.1 -2.65 -15.55 -9.1 -12.9 Q-10.4 -12.4 -11.3 -11.5 L-11.25 -11.5 -11.5 -11.25 -11.5 -11.3 Q-12.4 -10.4 -12.9 -9.1 L-15.6 -2.65 -15.6 -2.7 Q-16.15 -1.4 -16.2 -0.1 L-16.2 0.2 Q-16.15 1.45 -15.6 2.7 L-12.9 9.15 Q-12.4 10.4 -11.5 11.35 L-11.45 11.4 -11.45 11.45 -9.1 12.95 -2.65 15.6 -0.1 16.1 -0.05 16.1 0.15 16.1 2.7 15.6 9.15 12.95 Q11.8 11.85 12.95 9.15 L15.6 2.7 Q16.1 1.4 16.1 0.1 L16.1 0.05 16.1 -0.15 Q16.1 -1.4 15.6 -2.65 L12.95 -9.1 11.4 -11.45 9.15 -12.9 2.7 -15.55 M0.0 -7.6 L5.35 -5.4 7.6 0.0 5.35 5.35 0.0 7.6 -5.35 5.35 -7.6 0.0 -5.35 -5.35 0.0 -7.6 M50.0 50.0 L50.0 -50.0 -50.0 -50.0 -50.0 50.0 50.0 50.0 M60.0 60.0 L-60.0 60.0 -60.0 -60.0 60.0 -60.0 60.0 60.0" fill="#666666" fill-rule="evenodd" stroke="none"/>
    <path d="M6.1 -39.0 L0.25 -33.15 Q0.1 -33.0 -0.1 -33.0 L-0.45 -33.15 -6.3 -39.0 -39.0 -39.0 -39.0 -6.1 -33.2 -0.3 -33.05 0.05 -33.2 0.4 -39.0 6.2 -39.0 39.0 -6.2 39.0 -0.4 33.2 Q-0.25 33.05 -0.05 33.05 L0.3 33.2 6.1 39.0 39.0 39.0 39.0 6.2 33.15 0.35 33.0 0.0 33.15 -0.35 39.0 -6.2 39.0 -39.0 6.1 -39.0 M43.0 -42.0 L43.0 42.0 42.7 42.7 42.0 43.0 -42.0 43.0 -42.7 42.7 -43.0 42.0 -43.0 -42.0 -42.7 -42.7 -42.0 -43.0 42.0 -43.0 42.7 -42.7 43.0 -42.0 M34.2 0.0 L39.0 4.8 39.0 -4.8 34.2 0.0 M40.0 40.0 L-40.0 40.0 -40.0 -40.0 40.0 -40.0 40.0 40.0 M42.0 42.0 L42.0 -42.0 -42.0 -42.0 -42.0 42.0 42.0 42.0 M-4.9 -39.0 L-0.1 -34.2 4.7 -39.0 -4.9 -39.0 M-0.05 34.25 L-4.8 39.0 4.7 39.0 -0.05 34.25 M-39.05 4.85 L-34.25 0.05 -39.05 -4.75 -39.05 4.85" fill="#222222" fill-rule="evenodd" stroke="none"/>
    <path d="M2.35 -27.2 L0.65 -27.65 4.9 -20.7 Q5.55 -19.65 6.45 -19.0 7.05 -18.6 7.7 -18.3 L9.1 -17.9 11.4 -18.0 19.25 -19.9 17.65 -20.85 2.35 -27.2 M2.75 -28.1 L18.05 -21.75 19.9 -20.65 20.25 -20.05 20.85 -19.7 21.85 -17.95 28.2 -2.6 28.7 -0.65 28.5 0.05 28.5 0.1 28.55 0.2 28.7 0.9 28.2 2.75 25.05 10.3 25.05 10.35 25.0 10.55 21.85 18.05 20.8 19.8 20.2 20.15 19.85 20.8 18.05 21.85 10.55 25.0 10.35 25.05 10.3 25.05 2.75 28.2 0.9 28.7 0.2 28.55 0.15 28.5 -0.5 28.7 -2.6 28.2 Q-10.3 25.0 -17.95 21.85 L-18.0 21.85 -19.75 20.8 -20.05 20.3 -20.6 19.95 -21.75 18.05 -28.15 2.75 -28.7 0.65 -28.55 0.1 -28.7 -0.45 -28.15 -2.65 -28.15 -2.6 -21.75 -17.95 -21.75 -18.0 -20.6 -19.85 -20.1 -20.15 -19.8 -20.65 Q-19.0 -21.35 -17.95 -21.75 -10.3 -24.95 -2.6 -28.1 L-0.45 -28.65 0.15 -28.5 0.8 -28.65 2.75 -28.1 M11.65 -17.0 L8.95 -16.9 7.35 -17.35 Q6.55 -17.7 5.85 -18.2 L5.9 -18.2 Q4.8 -18.95 4.05 -20.15 L0.15 -26.6 -3.85 -20.15 Q-4.5 -19.1 -5.5 -18.35 L-5.5 -18.3 -5.55 -18.25 -7.1 -17.35 -8.95 -16.85 -9.0 -16.85 -11.4 -17.0 -18.7 -18.75 -16.95 -11.45 Q-16.7 -10.3 -16.8 -9.2 -16.9 -8.15 -17.3 -7.15 -17.75 -6.15 -18.35 -5.4 -19.1 -4.5 -20.1 -3.9 L-26.55 0.1 -20.1 4.05 -18.4 5.5 -18.25 5.7 Q-17.7 6.45 -17.3 7.35 L-16.8 9.15 -16.8 9.3 Q-16.7 10.45 -16.95 11.65 L-18.7 18.9 -11.4 17.2 -8.45 17.15 -7.1 17.55 Q-6.45 17.8 -5.9 18.15 L-5.9 18.2 Q-4.65 19.0 -3.85 20.35 L0.15 26.8 4.05 20.4 Q4.95 18.95 6.35 18.1 L6.5 17.95 7.3 17.55 7.35 17.55 8.35 17.2 Q9.95 16.8 11.65 17.2 L18.95 18.9 17.2 11.65 Q16.75 9.95 17.2 8.35 L17.55 7.35 17.55 7.3 17.95 6.5 18.1 6.35 Q18.95 4.9 20.4 4.05 L26.85 0.1 20.35 -3.9 Q18.95 -4.75 18.1 -6.05 L18.15 -6.05 17.55 -7.15 17.15 -8.4 17.15 -8.45 Q16.8 -9.95 17.2 -11.45 L18.95 -18.8 11.65 -17.0 M2.3 -14.65 L0.25 -15.1 -0.2 -15.1 -0.25 -15.1 -2.3 -14.65 -8.75 -12.0 -10.6 -10.8 -10.8 -10.6 -12.0 -8.75 -14.7 -2.3 Q-15.15 -1.2 -15.2 -0.1 L-15.2 0.15 Q-15.15 1.25 -14.7 2.3 L-12.0 8.75 -10.8 10.65 -10.75 10.7 -8.75 12.0 -2.3 14.65 -0.1 15.1 -0.05 15.1 0.1 15.1 2.3 14.65 8.75 12.0 Q11.05 11.05 12.0 8.75 L14.65 2.3 Q15.1 1.2 15.1 0.1 L15.1 0.05 15.1 -0.1 Q15.1 -1.2 14.65 -2.3 L12.0 -8.75 10.7 -10.75 Q9.9 -11.55 8.75 -12.0 L2.3 -14.65 M2.7 -15.55 L9.15 -12.9 11.4 -11.45 12.95 -9.1 15.6 -2.65 Q16.1 -1.4 16.1 -0.15 L16.1 0.05 16.1 0.1 Q16.1 1.4 15.6 2.7 L12.95 9.15 Q11.8 11.85 9.15 12.95 L2.7 15.6 0.15 16.1 -0.05 16.1 -0.1 16.1 -2.65 15.6 -9.1 12.95 -11.45 11.45 -11.45 11.4 -11.5 11.35 Q-12.4 10.4 -12.9 9.15 L-15.6 2.7 Q-16.15 1.45 -16.2 0.2 L-16.2 -0.1 Q-16.15 -1.4 -15.6 -2.7 L-15.6 -2.65 -12.9 -9.1 Q-12.4 -10.4 -11.5 -11.3 L-11.5 -11.25 -11.25 -11.5 -11.3 -11.5 Q-10.4 -12.4 -9.1 -12.9 L-2.65 -15.55 -0.25 -16.1 0.3 -16.1 2.7 -15.55 M6.1 -6.15 L8.65 0.0 6.1 6.1 0.0 8.65 -6.15 6.1 -8.7 0.0 -6.15 -6.15 0.0 -8.7 6.1 -6.15 M0.0 -7.6 L-5.35 -5.35 -7.6 0.0 -5.35 5.35 0.0 7.6 5.35 5.35 7.6 0.0 5.35 -5.4 0.0 -7.6 M18.1 -8.65 L18.45 -7.55 18.95 -6.6 Q19.65 -5.45 20.85 -4.75 L27.7 -0.55 27.25 -2.25 20.9 -17.6 20.05 -19.1 18.15 -11.25 Q17.85 -9.9 18.1 -8.65 M43.0 -42.0 L42.7 -42.7 42.0 -43.0 -42.0 -43.0 -42.7 -42.7 -43.0 -42.0 -43.0 42.0 -42.7 42.7 -42.0 43.0 42.0 43.0 42.7 42.7 43.0 42.0 43.0 -42.0 M27.25 2.35 L27.7 0.75 20.9 4.9 Q19.6 5.7 18.85 6.95 L18.8 7.0 18.45 7.7 18.15 8.6 Q17.8 10.0 18.15 11.4 L20.0 19.15 20.9 17.65 24.05 10.15 24.05 10.1 24.1 9.95 27.25 2.35 M8.6 18.15 L7.7 18.45 7.0 18.8 6.95 18.85 Q5.7 19.6 4.9 20.9 L0.75 27.7 2.35 27.25 9.95 24.1 10.1 24.05 10.15 24.05 17.65 20.9 19.2 20.0 11.4 18.15 Q9.95 17.8 8.6 18.15 M50.0 50.0 L-50.0 50.0 -50.0 -50.0 50.0 -50.0 50.0 50.0 M-0.4 -27.65 L-2.25 -27.2 Q-9.9 -24.0 -17.6 -20.85 L-19.15 -19.9 -11.2 -18.0 -9.1 -17.85 -7.5 -18.3 -6.2 -19.05 -6.15 -19.1 Q-5.3 -19.75 -4.7 -20.7 L-0.4 -27.65 M-27.25 -2.25 L-27.7 -0.4 -20.65 -4.75 -19.15 -6.05 -18.25 -7.55 -17.8 -9.3 Q-17.7 -10.25 -17.95 -11.25 L-19.85 -19.2 -20.85 -17.6 -27.25 -2.25 M-19.05 6.3 L-19.15 6.2 -20.65 4.9 -27.7 0.55 -27.25 2.35 -20.85 17.65 -19.85 19.3 -17.95 11.4 Q-17.7 10.4 -17.8 9.4 L-17.8 9.3 -18.25 7.7 -19.05 6.3 M-11.2 18.15 L-19.1 20.0 -17.6 20.9 Q-9.9 24.1 -2.25 27.25 L-0.45 27.7 -4.7 20.85 Q-5.4 19.7 -6.45 19.0 L-7.5 18.45 Q-8.1 18.2 -8.65 18.1 L-11.2 18.15" fill="#333333" fill-rule="evenodd" stroke="none"/>
    <path d="M40.0 40.0 L40.0 -40.0 -40.0 -40.0 -40.0 40.0 40.0 40.0 M42.0 42.0 L-42.0 42.0 -42.0 -42.0 42.0 -42.0 42.0 42.0" fill="url(#gradient0)" fill-rule="evenodd" stroke="none"/>
    <path d="M2.35 -27.2 L17.65 -20.85 19.25 -19.9 11.4 -18.0 9.1 -17.9 7.7 -18.3 Q7.05 -18.6 6.45 -19.0 5.55 -19.65 4.9 -20.7 L0.65 -27.65 2.35 -27.2" fill="url(#gradient1)" fill-rule="evenodd" stroke="none"/>
    <path d="M2.3 -14.65 L8.75 -12.0 Q9.9 -11.55 10.7 -10.75 L12.0 -8.75 14.65 -2.3 Q15.1 -1.2 15.1 -0.1 L15.1 0.05 15.1 0.1 Q15.1 1.2 14.65 2.3 L12.0 8.75 Q11.05 11.05 8.75 12.0 L2.3 14.65 0.1 15.1 -0.05 15.1 -0.1 15.1 -2.3 14.65 -8.75 12.0 -10.75 10.7 -10.8 10.65 -12.0 8.75 -14.7 2.3 Q-15.15 1.25 -15.2 0.15 L-15.2 -0.1 Q-15.15 -1.2 -14.7 -2.3 L-12.0 -8.75 -10.8 -10.6 -10.6 -10.8 -8.75 -12.0 -2.3 -14.65 -0.25 -15.1 -0.2 -15.1 0.25 -15.1 2.3 -14.65 M6.1 -6.15 L0.0 -8.7 -6.15 -6.15 -8.7 0.0 -6.15 6.1 0.0 8.65 6.1 6.1 8.65 0.0 6.1 -6.15" fill="url(#gradient2)" fill-rule="evenodd" stroke="none"/>
    <path d="M18.1 -8.65 Q17.85 -9.9 18.15 -11.25 L20.05 -19.1 20.9 -17.6 27.25 -2.25 27.7 -0.55 20.85 -4.75 Q19.65 -5.45 18.95 -6.6 L18.45 -7.55 18.1 -8.65" fill="url(#gradient3)" fill-rule="evenodd" stroke="none"/>
    <path d="M27.25 2.35 L24.1 9.95 24.05 10.1 24.05 10.15 20.9 17.65 20.0 19.15 18.15 11.4 Q17.8 10.0 18.15 8.6 L18.45 7.7 18.8 7.0 18.85 6.95 Q19.6 5.7 20.9 4.9 L27.7 0.75 27.25 2.35" fill="url(#gradient4)" fill-rule="evenodd" stroke="none"/>
    <path d="M8.6 18.15 Q9.95 17.8 11.4 18.15 L19.2 20.0 17.65 20.9 10.15 24.05 10.1 24.05 9.95 24.1 2.35 27.25 0.75 27.7 4.9 20.9 Q5.7 19.6 6.95 18.85 L7.0 18.8 7.7 18.45 8.6 18.15" fill="url(#gradient5)" fill-rule="evenodd" stroke="none"/>
    <path d="M-0.4 -27.65 L-4.7 -20.7 Q-5.3 -19.75 -6.15 -19.1 L-6.2 -19.05 -7.5 -18.3 -9.1 -17.85 -11.2 -18.0 -19.15 -19.9 -17.6 -20.85 Q-9.9 -24.0 -2.25 -27.2 L-0.4 -27.65" fill="url(#gradient6)" fill-rule="evenodd" stroke="none"/>
    <path d="M-27.25 -2.25 L-20.85 -17.6 -19.85 -19.2 -17.95 -11.25 Q-17.7 -10.25 -17.8 -9.3 L-18.25 -7.55 -19.15 -6.05 -20.65 -4.75 -27.7 -0.4 -27.25 -2.25" fill="url(#gradient7)" fill-rule="evenodd" stroke="none"/>
    <path d="M-19.05 6.3 L-18.25 7.7 -17.8 9.3 -17.8 9.4 Q-17.7 10.4 -17.95 11.4 L-19.85 19.3 -20.85 17.65 -27.25 2.35 -27.7 0.55 -20.65 4.9 -19.15 6.2 -19.05 6.3" fill="url(#gradient8)" fill-rule="evenodd" stroke="none"/>
    <path d="M34.2 0.0 L39.0 -4.8 39.0 4.8 34.2 0.0 M-4.9 -39.0 L4.7 -39.0 -0.1 -34.2 -4.9 -39.0 M-11.2 18.15 L-8.65 18.1 Q-8.1 18.2 -7.5 18.45 L-6.45 19.0 Q-5.4 19.7 -4.7 20.85 L-0.45 27.7 -2.25 27.25 Q-9.9 24.1 -17.6 20.9 L-19.1 20.0 -11.2 18.15 M-39.05 4.85 L-39.05 -4.75 -34.25 0.05 -39.05 4.85 M-0.05 34.25 L4.7 39.0 -4.8 39.0 -0.05 34.25" fill="url(#gradient9)" fill-rule="evenodd" stroke="none"/>
  </g>
  <defs>
    <linearGradient gradientTransform="matrix(0.0513, 0.0, 0.0, 0.0513, 0.0, 0.0)" gradientUnits="userSpaceOnUse" id="gradient0" spreadMethod="pad" x1="-819.2" x2="819.2">
      <stop offset="0.0" stop-color="#ffe575"/>
      <stop offset="0.8627450980392157" stop-color="#cc9200"/>
      <stop offset="1.0" stop-color="#d4a223"/>
    </linearGradient>
    <linearGradient gradientTransform="matrix(0.0135, 0.0, 0.0, 0.0098, 13.35, -31.85)" gradientUnits="userSpaceOnUse" id="gradient1" spreadMethod="pad" x1="-819.2" x2="819.2">
      <stop offset="0.0" stop-color="#ffe575"/>
      <stop offset="0.8627450980392157" stop-color="#cc9200"/>
      <stop offset="1.0" stop-color="#d4a223"/>
    </linearGradient>
    <linearGradient gradientTransform="matrix(0.0112, 0.0, 0.0, 0.0111, -0.05, 0.05)" gradientUnits="userSpaceOnUse" id="gradient2" spreadMethod="pad" x1="-819.2" x2="819.2">
      <stop offset="0.0" stop-color="#ffe575"/>
      <stop offset="0.8627450980392157" stop-color="#cc9200"/>
      <stop offset="1.0" stop-color="#d4a223"/>
    </linearGradient>
    <linearGradient gradientTransform="matrix(0.0098, 0.0, 0.0, 0.0135, 32.05, -13.15)" gradientUnits="userSpaceOnUse" id="gradient3" spreadMethod="pad" x1="-819.2" x2="819.2">
      <stop offset="0.0" stop-color="#ffe575"/>
      <stop offset="0.8627450980392157" stop-color="#cc9200"/>
      <stop offset="1.0" stop-color="#d4a223"/>
    </linearGradient>
    <linearGradient gradientTransform="matrix(0.0098, 0.0, 0.0, 0.0134, 32.05, 13.35)" gradientUnits="userSpaceOnUse" id="gradient4" spreadMethod="pad" x1="-819.2" x2="819.2">
      <stop offset="0.0" stop-color="#ffe575"/>
      <stop offset="0.8627450980392157" stop-color="#cc9200"/>
      <stop offset="1.0" stop-color="#d4a223"/>
    </linearGradient>
    <linearGradient gradientTransform="matrix(0.0134, 0.0, 0.0, 0.0098, 13.35, 32.05)" gradientUnits="userSpaceOnUse" id="gradient5" spreadMethod="pad" x1="-819.2" x2="819.2">
      <stop offset="0.0" stop-color="#ffe575"/>
      <stop offset="0.8627450980392157" stop-color="#cc9200"/>
      <stop offset="1.0" stop-color="#d4a223"/>
    </linearGradient>
    <linearGradient gradientTransform="matrix(0.0135, 0.0, 0.0, 0.0098, -13.05, -31.95)" gradientUnits="userSpaceOnUse" id="gradient6" spreadMethod="pad" x1="-819.2" x2="819.2">
      <stop offset="0.0" stop-color="#ffe575"/>
      <stop offset="0.8627450980392157" stop-color="#cc9200"/>
      <stop offset="1.0" stop-color="#d4a223"/>
    </linearGradient>
    <linearGradient gradientTransform="matrix(0.0098, 0.0, 0.0, 0.0135, -31.85, -13.15)" gradientUnits="userSpaceOnUse" id="gradient7" spreadMethod="pad" x1="-819.2" x2="819.2">
      <stop offset="0.0" stop-color="#ffe575"/>
      <stop offset="0.8627450980392157" stop-color="#cc9200"/>
      <stop offset="1.0" stop-color="#d4a223"/>
    </linearGradient>
    <linearGradient gradientTransform="matrix(0.0099, 0.0, 0.0, 0.0135, -31.85, 13.25)" gradientUnits="userSpaceOnUse" id="gradient8" spreadMethod="pad" x1="-819.2" x2="819.2">
      <stop offset="0.0" stop-color="#ffe575"/>
      <stop offset="0.8627450980392157" stop-color="#cc9200"/>
      <stop offset="1.0" stop-color="#d4a223"/>
    </linearGradient>
    <linearGradient gradientTransform="matrix(0.0134, 0.0, 0.0, 0.0098, -13.05, 32.05)" gradientUnits="userSpaceOnUse" id="gradient9" spreadMethod="pad" x1="-819.2" x2="819.2">
      <stop offset="0.0" stop-color="#ffe575"/>
      <stop offset="0.8627450980392157" stop-color="#cc9200"/>
      <stop offset="1.0" stop-color="#d4a223"/>
    </linearGradient>
  </defs>
</svg>
