<?xml version="1.0" encoding="UTF-8" standalone="no"?>
<svg xmlns:ffdec="https://www.free-decompiler.com/flash" xmlns:xlink="http://www.w3.org/1999/xlink" ffdec:objectType="shape" height="120.0px" width="120.0px" xmlns="http://www.w3.org/2000/svg">
  <g transform="matrix(1.0, 0.0, 0.0, 1.0, 60.0, 60.0)">
    <path d="M20.0 -56.0 L56.05 -56.0 56.05 -55.95 30.0 -30.0 56.05 -55.95 56.05 -19.95 30.0 0.0 56.05 20.0 30.0 0.0 56.05 -19.95 56.05 20.0 56.05 56.0 20.0 56.0 0.0 30.0 -19.95 56.0 0.0 30.0 20.0 56.0 -19.95 56.0 -55.9 56.0 -55.95 56.0 -55.95 20.0 -30.0 0.0 -55.95 -20.0 -30.0 0.0 -55.95 20.0 -55.95 -20.0 -55.95 -56.0 -20.0 -56.0 0.0 -30.0 20.0 -56.0 0.0 -30.0 -20.0 -56.0 20.0 -56.0 M-30.0 -30.0 L-55.95 -56.0 -30.0 -30.0 M30.0 30.0 L56.05 56.0 30.0 30.0 M-30.0 30.0 L-55.9 56.0 -30.0 30.0" fill="#6b0e0e" fill-rule="evenodd" stroke="none"/>
    <path d="M20.0 -56.0 L0.0 -30.0 -20.0 -56.0 M-55.95 -56.0 L-30.0 -30.0 M56.05 -55.95 L30.0 -30.0 M56.05 56.0 L30.0 30.0 M56.05 20.0 L30.0 0.0 56.05 -19.95 M20.0 56.0 L0.0 30.0 -19.95 56.0 M-55.95 -20.0 L-30.0 0.0 -55.95 20.0 M-55.9 56.0 L-30.0 30.0" fill="none" stroke="#330000" stroke-linecap="square" stroke-linejoin="miter-clip" stroke-miterlimit="3.0" stroke-width="2.0"/>
    <path d="M-58.0 58.05 L58.0 58.05 58.0 -57.95 -58.0 -57.95 -58.0 58.05 M-60.0 60.0 L-60.0 -60.0 60.0 -60.0 60.0 60.0 -60.0 60.0" fill="#6b0e0e" fill-rule="evenodd" stroke="none"/>
    <path d="M-55.95 56.0 L56.05 56.0 56.05 -56.0 -55.95 -56.0 -55.95 56.0 M-58.0 58.05 L-58.0 -57.95 58.0 -57.95 58.0 58.05 -58.0 58.05" fill="#000000" fill-rule="evenodd" stroke="none"/>
    <path d="M17.5 -2.5 L17.5 -8.5 11.5 -2.5 17.5 -2.5 M20.0 0.0 L5.0 0.0 20.0 -15.0 20.0 0.0 M-17.5 -8.5 L-17.5 -2.5 -11.5 -2.5 -17.5 -8.5 M-20.0 0.0 L-20.0 -15.0 -5.0 0.0 -20.0 0.0" fill="#000000" fill-rule="evenodd" stroke="none"/>
    <path d="M17.5 -2.5 L11.5 -2.5 17.5 -8.5 17.5 -2.5 M-17.5 -8.5 L-11.5 -2.5 -17.5 -2.5 -17.5 -8.5" fill="#ff9900" fill-rule="evenodd" stroke="none"/>
    <path d="M-15.0 -30.0 L0.0 -15.0 15.0 -30.0 30.0 -30.0 25.0 -25.0 0.0 0.0 -25.0 -25.0 -30.0 -30.0 -15.0 -30.0 M15.0 15.0 L10.0 20.0 5.0 25.0 0.0 30.0 -5.0 25.0 -10.0 20.0 -15.0 15.0 0.0 0.0 15.0 15.0 M10.0 20.0 L0.0 10.0 -10.0 20.0 0.0 10.0 10.0 20.0 M5.0 25.0 L0.0 20.0 -5.0 25.0 0.0 20.0 5.0 25.0" fill="#9c1414" fill-rule="evenodd" stroke="none"/>
    <path d="M-30.0 -30.0 L-25.0 -25.0 -25.0 5.0 -30.0 0.0 -30.0 -30.0 M25.0 -25.0 L30.0 -30.0 30.0 0.0 25.0 5.0 25.0 -25.0" fill="#330000" fill-rule="evenodd" stroke="none"/>
    <path d="M15.0 -30.0 L0.0 -15.0 -15.0 -30.0 15.0 -30.0" fill="#af1616" fill-rule="evenodd" stroke="none"/>
    <path d="M25.0 5.0 L30.0 0.0 30.0 30.0 15.0 30.0 15.0 15.0 15.0 30.0 0.0 30.0 5.0 25.0 10.0 20.0 15.0 15.0 25.0 5.0 M-15.0 15.0 L-10.0 20.0 -5.0 25.0 0.0 30.0 -15.0 30.0 -30.0 30.0 -30.0 0.0 -25.0 5.0 -15.0 15.0 -15.0 30.0 -15.0 15.0" fill="#8d1212" fill-rule="evenodd" stroke="none"/>
    <path d="M-25.0 -25.0 L0.0 0.0 25.0 -25.0 25.0 5.0 15.0 15.0 0.0 0.0 -15.0 15.0 -25.0 5.0 -25.0 -25.0 M20.0 0.0 L20.0 -15.0 5.0 0.0 20.0 0.0 M-20.0 0.0 L-5.0 0.0 -20.0 -15.0 -20.0 0.0" fill="#6b0e0e" fill-rule="evenodd" stroke="none"/>
    <path d="M15.0 -30.0 L0.0 -15.0 -15.0 -30.0 M-30.0 -30.0 L-25.0 -25.0 0.0 0.0 25.0 -25.0 30.0 -30.0 M30.0 0.0 L25.0 5.0 15.0 15.0 15.0 30.0 M15.0 15.0 L10.0 20.0 5.0 25.0 0.0 30.0 -5.0 25.0 0.0 20.0 5.0 25.0 M-10.0 20.0 L0.0 10.0 10.0 20.0 M15.0 15.0 L0.0 0.0 -15.0 15.0 -10.0 20.0 -5.0 25.0 M-15.0 15.0 L-15.0 30.0 M-25.0 5.0 L-15.0 15.0 M-30.0 0.0 L-25.0 5.0" fill="none" stroke="#330000" stroke-linecap="square" stroke-linejoin="miter-clip" stroke-miterlimit="3.0" stroke-width="2.0"/>
    <path d="M-15.0 -30.0 L-30.0 -30.0 -30.0 0.0 -30.0 30.0 -15.0 30.0 0.0 30.0 15.0 30.0 30.0 30.0 30.0 0.0 30.0 -30.0 15.0 -30.0 -15.0 -30.0 Z" fill="none" stroke="#330000" stroke-linecap="square" stroke-linejoin="miter-clip" stroke-miterlimit="3.0" stroke-width="4.0"/>
  </g>
</svg>
