<?xml version="1.0" encoding="UTF-8" standalone="no"?>
<svg xmlns:ffdec="https://www.free-decompiler.com/flash" xmlns:xlink="http://www.w3.org/1999/xlink" ffdec:objectType="shape" height="120.0px" width="120.0px" xmlns="http://www.w3.org/2000/svg">
  <g transform="matrix(1.0, 0.0, 0.0, 1.0, 60.0, 60.0)">
    <path d="M3.05 -56.0 L26.0 -56.0 33.35 -26.65 26.0 -56.0 56.05 -56.0 56.05 -2.05 56.05 56.0 54.0 56.0 42.0 56.0 14.0 56.0 -26.0 56.0 -55.95 56.0 -55.95 12.0 -55.95 -56.0 -54.0 -56.0 -31.95 -56.0 -14.0 -56.0 3.05 -56.0 -8.3 -33.35 3.05 -56.0 M6.7 26.65 L-5.0 -20.0 -8.3 -33.35 -5.0 -20.0 6.7 26.65 33.35 -26.65 6.7 26.65 14.0 56.0 6.7 26.65 M54.0 56.0 L50.0 40.0 45.0 20.0 50.0 40.0 54.0 56.0 M56.05 -2.05 L45.0 20.0 56.05 -2.05 M42.0 56.0 L50.0 40.0 42.0 56.0 M-54.0 -56.0 L-46.65 -26.65 -43.3 -13.3 -46.65 -26.65 -54.0 -56.0 M45.0 20.0 L33.35 -26.65 45.0 20.0 M-31.95 -56.0 L-46.65 -26.65 -31.95 -56.0 M-43.3 -13.3 L-31.65 33.35 -26.0 56.0 -31.65 33.35 -43.3 -13.3 -55.95 12.0 -43.3 -13.3 M-8.3 -33.35 L-14.0 -56.0 -8.3 -33.35 M-31.65 33.35 L-5.0 -20.0 -31.65 33.35" fill="#580c0c" fill-rule="evenodd" stroke="none"/>
    <path d="M-8.3 -33.35 L-5.0 -20.0 6.7 26.65 14.0 56.0 M33.35 -26.65 L26.0 -56.0 M45.0 20.0 L50.0 40.0 54.0 56.0 M33.35 -26.65 L45.0 20.0 M-43.3 -13.3 L-46.65 -26.65 -54.0 -56.0 M-14.0 -56.0 L-8.3 -33.35 M-26.0 56.0 L-31.65 33.35 -43.3 -13.3" fill="none" stroke="#330000" stroke-linecap="square" stroke-linejoin="miter-clip" stroke-miterlimit="3.0" stroke-width="4.0"/>
    <path d="M3.05 -56.0 L-8.3 -33.35 M6.7 26.65 L33.35 -26.65 M50.0 40.0 L42.0 56.0 M45.0 20.0 L56.05 -2.05 M-46.65 -26.65 L-31.95 -56.0 M-43.3 -13.3 L-55.95 12.0 M-5.0 -20.0 L-31.65 33.35" fill="none" stroke="#330000" stroke-linecap="square" stroke-linejoin="miter-clip" stroke-miterlimit="3.0" stroke-width="2.0"/>
    <path d="M-58.0 58.05 L-58.0 -57.95 58.0 -57.95 58.0 58.05 -58.0 58.05 M-55.95 56.0 L56.05 56.0 56.05 -56.0 -55.95 -56.0 -55.95 56.0" fill="#000000" fill-rule="evenodd" stroke="none"/>
    <path d="M-60.0 60.0 L-60.0 -60.0 60.0 -60.0 60.0 60.0 -60.0 60.0 M-58.0 58.05 L58.0 58.05 58.0 -57.95 -58.0 -57.95 -58.0 58.05" fill="#6b0e0e" fill-rule="evenodd" stroke="none"/>
  </g>
</svg>
