<?xml version="1.0" encoding="UTF-8" standalone="no"?>
<svg xmlns:ffdec="https://www.free-decompiler.com/flash" xmlns:xlink="http://www.w3.org/1999/xlink" ffdec:objectType="shape" height="120.0px" width="120.0px" xmlns="http://www.w3.org/2000/svg">
  <g transform="matrix(1.0, 0.0, 0.0, 1.0, 60.0, 60.0)">
    <path d="M10.0 -20.0 L10.0 -56.0 10.0 -20.0 M-10.0 -56.0 L10.0 -56.0 56.05 -56.0 56.05 -10.0 -55.95 -10.0 56.05 -10.0 56.05 10.0 56.05 56.0 10.0 56.0 -10.0 56.0 -55.95 56.0 -55.95 10.0 -55.95 -10.0 -55.95 -56.0 -10.0 -56.0 -10.0 -20.0 -10.0 -56.0 M-55.95 10.0 L56.05 10.0 -55.95 10.0 M10.0 20.0 L10.0 56.0 10.0 20.0 M-10.0 20.0 L-10.0 56.0 -10.0 20.0" fill="#4f4b2b" fill-rule="evenodd" stroke="none"/>
    <path d="M10.0 -56.0 L10.0 -20.0 M-10.0 -56.0 L-10.0 -20.0 M-55.95 -10.0 L56.05 -10.0 M-10.0 56.0 L-10.0 20.0 M10.0 56.0 L10.0 20.0 M56.05 10.0 L-55.95 10.0" fill="none" stroke="#000000" stroke-linecap="square" stroke-linejoin="miter-clip" stroke-miterlimit="3.0" stroke-width="2.0"/>
    <path d="M-58.0 58.05 L58.0 58.05 58.0 -57.95 -58.0 -57.95 -58.0 58.05 M-60.0 60.0 L-60.0 -60.0 60.0 -60.0 60.0 60.0 -60.0 60.0" fill="#4f4b2b" fill-rule="evenodd" stroke="none"/>
    <path d="M-58.0 58.05 L-58.0 -57.95 58.0 -57.95 58.0 58.05 -58.0 58.05 M-55.95 56.0 L56.05 56.0 56.05 -56.0 -55.95 -56.0 -55.95 56.0" fill="#000000" fill-rule="evenodd" stroke="none"/>
    <path d="M25.0 -27.5 L35.0 -27.5 34.2 -22.5 30.85 -2.5 25.0 32.5 10.0 32.5 7.15 22.5 4.3 12.5 0.0 -2.5 25.0 -27.5 M15.25 -27.75 L15.0 -28.0 0.0 -13.0 -15.0 -28.0 -15.25 -27.75 -20.0 -32.5 20.0 -32.5 15.25 -27.75 M21.7 7.5 L25.0 -12.5 10.0 -2.5 13.75 12.5 15.0 17.5 20.0 17.5 21.7 7.5 M-25.0 -27.5 L0.0 -2.5 -4.25 12.5 -7.1 22.5 -10.0 32.5 -25.0 32.5 -30.8 -2.5 -34.15 -22.5 -35.0 -27.5 -25.0 -27.5 M-13.75 12.5 L-10.0 -2.5 -25.0 -12.5 -21.65 7.5 -20.0 17.5 -15.0 17.5 -13.75 12.5" fill="#4f4b2b" fill-rule="evenodd" stroke="none"/>
    <path d="M15.0 -28.0 L15.25 -27.75 15.0 -27.5 0.0 -12.5 -15.0 -27.5 -15.25 -27.75 -15.0 -28.0 0.0 -13.0 15.0 -28.0" fill="#d7d7f9" fill-rule="evenodd" stroke="none"/>
    <path d="M4.3 12.5 L7.15 22.5 -7.1 22.5 -4.25 12.5 4.3 12.5 M30.85 -2.5 L34.2 -22.5 45.0 -17.5 50.0 2.5 45.0 22.5 40.0 2.5 30.85 -2.5 M13.75 12.5 L21.7 7.5 20.0 17.5 15.0 17.5 13.75 12.5 M-34.15 -22.5 L-30.8 -2.5 -40.0 2.5 -45.0 22.5 -50.0 2.5 -45.0 -17.5 -34.15 -22.5 M-13.75 12.5 L-15.0 17.5 -20.0 17.5 -21.65 7.5 -13.75 12.5" fill="#746f3f" fill-rule="evenodd" stroke="none"/>
    <path d="M25.0 -27.5 L0.0 -2.5 4.3 12.5 -4.25 12.5 0.0 -2.5 -25.0 -27.5 -15.0 -27.5 0.0 -12.5 15.0 -27.5 25.0 -27.5 M7.15 22.5 L10.0 32.5 -10.0 32.5 -7.1 22.5 7.15 22.5" fill="#403d22" fill-rule="evenodd" stroke="none"/>
    <path d="M13.75 12.5 L10.0 -2.5 25.0 -12.5 21.7 7.5 13.75 12.5 M-21.65 7.5 L-25.0 -12.5 -10.0 -2.5 -13.75 12.5 -21.65 7.5" fill="#000000" fill-rule="evenodd" stroke="none"/>
    <path d="M34.2 -22.5 L35.0 -27.5 25.0 -27.5 15.0 -27.5 15.25 -27.75 20.0 -32.5 -20.0 -32.5 -15.25 -27.75 -15.0 -27.5 -25.0 -27.5 -35.0 -27.5 -34.15 -22.5 -30.8 -2.5 -25.0 32.5 -10.0 32.5 10.0 32.5 25.0 32.5 30.85 -2.5 34.2 -22.5 45.0 -17.5 50.0 2.5 45.0 22.5 40.0 2.5 30.85 -2.5 M-34.15 -22.5 L-45.0 -17.5 -50.0 2.5 -45.0 22.5 -40.0 2.5 -30.8 -2.5" fill="none" stroke="#000000" stroke-linecap="square" stroke-linejoin="miter-clip" stroke-miterlimit="3.0" stroke-width="3.0"/>
    <path d="M25.0 -27.5 L0.0 -2.5 4.3 12.5 7.15 22.5 10.0 32.5 M-15.0 -28.0 L0.0 -13.0 15.0 -28.0 M-25.0 -27.5 L0.0 -2.5 -4.25 12.5 4.3 12.5 M-10.0 32.5 L-7.1 22.5 -4.25 12.5 M-7.1 22.5 L7.15 22.5" fill="none" stroke="#000000" stroke-linecap="square" stroke-linejoin="miter-clip" stroke-miterlimit="3.0" stroke-width="2.0"/>
    <path d="M21.7 7.5 L25.0 -12.5 10.0 -2.5 13.75 12.5 21.7 7.5 20.0 17.5 15.0 17.5 13.75 12.5 M-21.65 7.5 L-25.0 -12.5 -10.0 -2.5 -13.75 12.5 -15.0 17.5 -20.0 17.5 -21.65 7.5 -13.75 12.5" fill="none" stroke="#000000" stroke-linecap="square" stroke-linejoin="miter-clip" stroke-miterlimit="3.0" stroke-width="4.0"/>
    <path d="M19.25 -0.75 Q18.55 -1.5 17.5 -1.5 16.5 -1.5 15.75 -0.75 15.0 0.0 15.0 1.0 15.0 2.05 15.75 2.75 16.5 3.5 17.5 3.5 18.55 3.5 19.25 2.75 20.0 2.05 20.0 1.0 20.0 0.0 19.25 -0.75 M21.0 -2.55 Q22.5 -1.05 22.5 1.0 22.5 3.05 21.0 4.5 19.55 6.0 17.5 6.0 15.45 6.0 13.95 4.5 12.5 3.05 12.5 1.0 12.5 -1.05 13.95 -2.55 15.45 -4.0 17.5 -4.0 19.55 -4.0 21.0 -2.55 M-15.75 -0.75 Q-16.45 -1.5 -17.5 -1.5 -18.5 -1.5 -19.25 -0.75 -20.0 0.0 -20.0 1.0 -20.0 2.05 -19.25 2.75 -18.5 3.5 -17.5 3.5 -16.45 3.5 -15.75 2.75 -15.0 2.05 -15.0 1.0 -15.0 0.0 -15.75 -0.75 M-14.0 -2.55 Q-12.5 -1.05 -12.5 1.0 -12.5 3.05 -14.0 4.5 -15.45 6.0 -17.5 6.0 -19.55 6.0 -21.05 4.5 -22.5 3.05 -22.5 1.0 -22.5 -1.05 -21.05 -2.55 -19.55 -4.0 -17.5 -4.0 -15.45 -4.0 -14.0 -2.55" fill="#d2c12b" fill-opacity="0.49803922" fill-rule="evenodd" stroke="none"/>
    <path d="M19.25 -0.75 Q20.0 0.0 20.0 1.0 20.0 2.05 19.25 2.75 18.55 3.5 17.5 3.5 16.5 3.5 15.75 2.75 15.0 2.05 15.0 1.0 15.0 0.0 15.75 -0.75 16.5 -1.5 17.5 -1.5 18.55 -1.5 19.25 -0.75 M-15.75 -0.75 Q-15.0 0.0 -15.0 1.0 -15.0 2.05 -15.75 2.75 -16.45 3.5 -17.5 3.5 -18.5 3.5 -19.25 2.75 -20.0 2.05 -20.0 1.0 -20.0 0.0 -19.25 -0.75 -18.5 -1.5 -17.5 -1.5 -16.45 -1.5 -15.75 -0.75" fill="#d2c12b" fill-rule="evenodd" stroke="none"/>
  </g>
</svg>
