<?xml version="1.0" encoding="UTF-8" standalone="no"?>
<svg xmlns:ffdec="https://www.free-decompiler.com/flash" xmlns:xlink="http://www.w3.org/1999/xlink" ffdec:objectType="shape" height="120.0px" width="120.0px" xmlns="http://www.w3.org/2000/svg">
  <g transform="matrix(1.0, 0.0, 0.0, 1.0, 60.0, 60.0)">
    <path d="M50.0 -20.0 L50.0 -40.0 50.0 -50.0 -50.0 -50.0 -50.0 -40.0 -50.0 -20.0 -50.0 0.0 -50.0 20.0 -50.0 40.0 -50.0 50.0 50.0 50.0 50.0 40.0 50.0 20.0 50.0 0.0 50.0 -20.0 M60.0 -60.0 L60.0 60.0 -60.0 60.0 -60.0 -60.0 60.0 -60.0 M58.0 -57.95 L-58.0 -57.95 -58.0 58.05 58.0 58.05 58.0 -57.95 M56.05 -56.0 L56.05 56.0 -55.95 56.0 -55.95 -56.0 56.05 -56.0" fill="#000000" fill-rule="evenodd" stroke="none"/>
    <path d="M58.0 -57.95 L58.0 58.05 -58.0 58.05 -58.0 -57.95 58.0 -57.95 M56.05 -56.0 L-55.95 -56.0 -55.95 56.0 56.05 56.0 56.05 -56.0" fill="#333333" fill-rule="evenodd" stroke="none"/>
    <path d="M50.0 -40.0 L50.0 -20.0 -50.0 -20.0 -50.0 -40.0 50.0 -40.0" fill="url(#gradient0)" fill-rule="evenodd" stroke="none"/>
    <path d="M50.0 -20.0 L50.0 0.0 -50.0 0.0 -50.0 -20.0 50.0 -20.0" fill="url(#gradient1)" fill-rule="evenodd" stroke="none"/>
    <path d="M50.0 0.0 L50.0 20.0 -50.0 20.0 -50.0 0.0 50.0 0.0" fill="url(#gradient2)" fill-rule="evenodd" stroke="none"/>
    <path d="M-50.0 -40.0 L-50.0 -50.0 50.0 -50.0 50.0 -40.0 -50.0 -40.0" fill="url(#gradient3)" fill-rule="evenodd" stroke="none"/>
    <path d="M50.0 20.0 L50.0 40.0 -50.0 40.0 -50.0 20.0 50.0 20.0" fill="url(#gradient4)" fill-rule="evenodd" stroke="none"/>
    <path d="M50.0 40.0 L50.0 50.0 -50.0 50.0 -50.0 40.0 50.0 40.0" fill="url(#gradient5)" fill-rule="evenodd" stroke="none"/>
    <path d="M50.0 -40.0 L-50.0 -40.0 M50.0 0.0 L-50.0 0.0 M-50.0 20.0 L50.0 20.0 M50.0 40.0 L-50.0 40.0 M50.0 -20.0 L-50.0 -20.0" fill="none" stroke="#666666" stroke-linecap="butt" stroke-linejoin="miter-clip" stroke-miterlimit="3.0" stroke-width="2.0"/>
    <path d="M-50.0 -50.0 L50.0 -50.0 50.0 50.0 -50.0 50.0 -50.0 -50.0 Z" fill="none" stroke="#666666" stroke-linecap="square" stroke-linejoin="miter-clip" stroke-miterlimit="3.0" stroke-width="2.0"/>
  </g>
  <defs>
    <linearGradient gradientTransform="matrix(0.0, 0.0122, -0.0684, 0.0, 0.05, -30.0)" gradientUnits="userSpaceOnUse" id="gradient0" spreadMethod="pad" x1="-819.2" x2="819.2">
      <stop offset="0.0" stop-color="#3c3c44"/>
      <stop offset="1.0" stop-color="#000000"/>
    </linearGradient>
    <linearGradient gradientTransform="matrix(0.0, 0.0122, -0.0684, 0.0, 0.05, -10.0)" gradientUnits="userSpaceOnUse" id="gradient1" spreadMethod="pad" x1="-819.2" x2="819.2">
      <stop offset="0.0" stop-color="#3c3c44"/>
      <stop offset="1.0" stop-color="#000000"/>
    </linearGradient>
    <linearGradient gradientTransform="matrix(0.0, 0.0122, -0.0684, 0.0, 0.05, 10.0)" gradientUnits="userSpaceOnUse" id="gradient2" spreadMethod="pad" x1="-819.2" x2="819.2">
      <stop offset="0.0" stop-color="#3c3c44"/>
      <stop offset="1.0" stop-color="#000000"/>
    </linearGradient>
    <linearGradient gradientTransform="matrix(0.0, 0.0098, -0.0684, 0.0, 0.05, -48.0)" gradientUnits="userSpaceOnUse" id="gradient3" spreadMethod="pad" x1="-819.2" x2="819.2">
      <stop offset="0.0" stop-color="#3c3c44"/>
      <stop offset="1.0" stop-color="#000000"/>
    </linearGradient>
    <linearGradient gradientTransform="matrix(0.0, 0.0122, -0.0684, 0.0, 0.05, 30.0)" gradientUnits="userSpaceOnUse" id="gradient4" spreadMethod="pad" x1="-819.2" x2="819.2">
      <stop offset="0.0" stop-color="#3c3c44"/>
      <stop offset="1.0" stop-color="#000000"/>
    </linearGradient>
    <linearGradient gradientTransform="matrix(0.0, 0.0098, -0.0684, 0.0, 0.05, 48.0)" gradientUnits="userSpaceOnUse" id="gradient5" spreadMethod="pad" x1="-819.2" x2="819.2">
      <stop offset="0.0" stop-color="#3c3c44"/>
      <stop offset="1.0" stop-color="#000000"/>
    </linearGradient>
  </defs>
</svg>
