<?xml version="1.0" encoding="UTF-8" standalone="no"?>
<svg xmlns:ffdec="https://www.free-decompiler.com/flash" xmlns:xlink="http://www.w3.org/1999/xlink" ffdec:objectType="shape" height="120.0px" width="82.0px" xmlns="http://www.w3.org/2000/svg">
  <g transform="matrix(1.0, 0.0, 0.0, 1.0, 41.0, 60.0)">
    <path d="M20.0 -45.0 L20.0 -60.0 40.0 -60.0 40.0 60.0 20.0 60.0 20.0 45.0 20.0 35.0 20.0 5.0 20.0 -5.0 20.0 -35.0 20.0 -45.0" fill="url(#gradient0)" fill-rule="evenodd" stroke="none"/>
    <path d="M-20.0 45.0 L-20.0 60.0 -40.0 60.0 -40.0 -60.0 -20.0 -60.0 -20.0 -45.0 -20.0 -35.0 -20.0 -5.0 -20.0 5.0 -20.0 35.0 -20.0 45.0" fill="url(#gradient1)" fill-rule="evenodd" stroke="none"/>
    <path d="M-20.0 -45.0 L20.0 -45.0 20.0 -35.0 -20.0 -35.0 -20.0 -45.0" fill="url(#gradient2)" fill-rule="evenodd" stroke="none"/>
    <path d="M20.0 45.0 L-20.0 45.0 -20.0 35.0 20.0 35.0 20.0 45.0" fill="url(#gradient3)" fill-rule="evenodd" stroke="none"/>
    <path d="M20.0 -5.0 L20.0 5.0 -20.0 5.0 -20.0 -5.0 20.0 -5.0" fill="url(#gradient4)" fill-rule="evenodd" stroke="none"/>
    <path d="M20.0 -40.0 L40.0 -40.0 M-40.0 -40.0 L-20.0 -40.0" fill="none" stroke="#000000" stroke-linecap="butt" stroke-linejoin="miter-clip" stroke-miterlimit="3.0" stroke-opacity="0.2" stroke-width="2.0"/>
    <path d="M20.0 40.0 L40.0 40.0 M-40.0 40.0 L-20.0 40.0" fill="none" stroke="#000000" stroke-linecap="butt" stroke-linejoin="miter-clip" stroke-miterlimit="3.0" stroke-opacity="0.2" stroke-width="2.0"/>
    <path d="M20.0 0.0 L40.0 0.0 M-40.0 0.0 L-20.0 0.0" fill="none" stroke="#000000" stroke-linecap="butt" stroke-linejoin="miter-clip" stroke-miterlimit="3.0" stroke-opacity="0.2" stroke-width="2.0"/>
  </g>
  <defs>
    <linearGradient gradientTransform="matrix(0.0122, 0.0, 0.0, 0.0732, 30.0, 0.0)" gradientUnits="userSpaceOnUse" id="gradient0" spreadMethod="pad" x1="-819.2" x2="819.2">
      <stop offset="0.0" stop-color="#424242"/>
      <stop offset="0.23529411764705882" stop-color="#999999"/>
      <stop offset="1.0" stop-color="#000000"/>
    </linearGradient>
    <linearGradient gradientTransform="matrix(0.0122, 0.0, 0.0, 0.0732, -30.0, 0.0)" gradientUnits="userSpaceOnUse" id="gradient1" spreadMethod="pad" x1="-819.2" x2="819.2">
      <stop offset="0.0" stop-color="#424242"/>
      <stop offset="0.23529411764705882" stop-color="#999999"/>
      <stop offset="1.0" stop-color="#000000"/>
    </linearGradient>
    <linearGradient gradientTransform="matrix(0.0, 0.0061, -0.0244, 0.0, 0.0, -40.0)" gradientUnits="userSpaceOnUse" id="gradient2" spreadMethod="pad" x1="-819.2" x2="819.2">
      <stop offset="0.0" stop-color="#424242"/>
      <stop offset="0.23529411764705882" stop-color="#999999"/>
      <stop offset="1.0" stop-color="#000000"/>
    </linearGradient>
    <linearGradient gradientTransform="matrix(0.0, 0.0061, -0.0244, 0.0, 0.0, 40.0)" gradientUnits="userSpaceOnUse" id="gradient3" spreadMethod="pad" x1="-819.2" x2="819.2">
      <stop offset="0.0" stop-color="#424242"/>
      <stop offset="0.23529411764705882" stop-color="#999999"/>
      <stop offset="1.0" stop-color="#000000"/>
    </linearGradient>
    <linearGradient gradientTransform="matrix(0.0, 0.0061, -0.0244, 0.0, 0.0, 0.0)" gradientUnits="userSpaceOnUse" id="gradient4" spreadMethod="pad" x1="-819.2" x2="819.2">
      <stop offset="0.0" stop-color="#424242"/>
      <stop offset="0.23529411764705882" stop-color="#999999"/>
      <stop offset="1.0" stop-color="#000000"/>
    </linearGradient>
  </defs>
</svg>
