<?xml version="1.0" encoding="UTF-8" standalone="no"?>
<svg xmlns:ffdec="https://www.free-decompiler.com/flash" xmlns:xlink="http://www.w3.org/1999/xlink" ffdec:objectType="shape" height="60.0px" width="60.0px" xmlns="http://www.w3.org/2000/svg">
  <g transform="matrix(1.0, 0.0, 0.0, 1.0, 30.0, 30.0)">
    <path d="M1.8 -0.15 L30.0 -8.5 30.0 18.65 -0.45 8.2 -2.3 4.1 1.8 -0.15" fill="url(#gradient0)" fill-rule="evenodd" stroke="none"/>
    <path d="M1.8 -0.15 L-2.3 4.1 -25.95 -2.85 -22.25 -16.2 -18.45 -30.0 -8.1 -30.0 -3.1 -19.4 1.8 -0.15" fill="url(#gradient1)" fill-rule="evenodd" stroke="none"/>
    <path d="M-0.45 8.2 L30.0 18.65 10.1 29.95 -2.0 12.75 -0.45 8.2" fill="url(#gradient2)" fill-rule="evenodd" stroke="none"/>
    <path d="M-30.0 -7.55 L-30.0 -20.0 -22.25 -16.2 -25.95 -2.85 -30.0 -7.55" fill="url(#gradient3)" fill-rule="evenodd" stroke="none"/>
    <path d="M-2.3 4.1 L-0.45 8.2 -2.0 12.75 -10.0 25.5 -16.6 23.25 -30.0 18.65 -30.0 18.6 -25.95 -2.85 -2.3 4.1" fill="url(#gradient4)" fill-rule="evenodd" stroke="none"/>
    <path d="M-8.2 30.0 L-18.45 30.0 -16.6 23.25 -10.0 25.5 -8.2 30.0" fill="url(#gradient5)" fill-rule="evenodd" stroke="none"/>
    <path d="M10.1 29.95 L10.15 30.0 -8.2 30.0 -10.0 25.5 -2.0 12.75 10.1 29.95" fill="url(#gradient6)" fill-rule="evenodd" stroke="none"/>
    <path d="M30.0 18.65 L30.0 30.0 10.15 30.0 10.1 29.95 30.0 18.65" fill="url(#gradient7)" fill-rule="evenodd" stroke="none"/>
    <path d="M-18.45 30.0 L-30.0 30.0 -30.0 18.65 -16.6 23.25 -18.45 30.0" fill="url(#gradient8)" fill-rule="evenodd" stroke="none"/>
    <path d="M-30.0 -20.0 L-30.0 -30.0 -18.45 -30.0 -22.25 -16.2 -30.0 -20.0" fill="url(#gradient9)" fill-rule="evenodd" stroke="none"/>
    <path d="M30.0 -20.0 L10.0 -30.0 30.0 -30.0 30.0 -20.0" fill="url(#gradient10)" fill-rule="evenodd" stroke="none"/>
    <path d="M-30.0 18.6 L-30.0 -7.55 -25.95 -2.85 -30.0 18.6" fill="url(#gradient11)" fill-rule="evenodd" stroke="none"/>
    <path d="M30.0 -8.5 L1.8 -0.15 -3.1 -19.4 10.0 -30.0 30.0 -20.0 30.0 -8.5" fill="url(#gradient12)" fill-rule="evenodd" stroke="none"/>
    <path d="M10.0 -30.0 L-3.1 -19.4 -8.1 -30.0 10.0 -30.0" fill="url(#gradient13)" fill-rule="evenodd" stroke="none"/>
    <path d="M-30.0 -30.0 L30.0 -30.0 30.0 30.0 -30.0 30.0 -30.0 -30.0" fill="url(#gradient14)" fill-rule="evenodd" stroke="none"/>
  </g>
  <defs>
    <radialGradient cx="0" cy="0" gradientTransform="matrix(0.029, 0.0, 0.0, 0.029, 21.35, 6.65)" gradientUnits="userSpaceOnUse" id="gradient0" r="819.2" spreadMethod="pad">
      <stop offset="0.0" stop-color="#ec3c00"/>
      <stop offset="0.1411764705882353" stop-color="#e20900"/>
      <stop offset="1.0" stop-color="#240014"/>
    </radialGradient>
    <radialGradient cx="0" cy="0" gradientTransform="matrix(0.0305, 0.0, 0.0, 0.0305, -10.35, -19.55)" gradientUnits="userSpaceOnUse" id="gradient1" r="819.2" spreadMethod="pad">
      <stop offset="0.0" stop-color="#fa8e00"/>
      <stop offset="0.25098039215686274" stop-color="#e20900"/>
      <stop offset="1.0" stop-color="#240014"/>
    </radialGradient>
    <radialGradient cx="0" cy="0" gradientTransform="matrix(0.024, 0.0, 0.0, 0.024, 14.05, 21.35)" gradientUnits="userSpaceOnUse" id="gradient2" r="819.2" spreadMethod="pad">
      <stop offset="0.0" stop-color="#ec3c00"/>
      <stop offset="0.1411764705882353" stop-color="#e20900"/>
      <stop offset="1.0" stop-color="#240014"/>
    </radialGradient>
    <radialGradient cx="0" cy="0" gradientTransform="matrix(0.0264, 0.0, 0.0, 0.0264, -28.5, -23.95)" gradientUnits="userSpaceOnUse" id="gradient3" r="819.2" spreadMethod="pad">
      <stop offset="0.0" stop-color="#f15800"/>
      <stop offset="0.3176470588235294" stop-color="#e20900"/>
      <stop offset="1.0" stop-color="#240014"/>
    </radialGradient>
    <radialGradient cx="0" cy="0" gradientTransform="matrix(0.0303, 0.0, 0.0, 0.0303, -22.3, 18.8)" gradientUnits="userSpaceOnUse" id="gradient4" r="819.2" spreadMethod="pad">
      <stop offset="0.0" stop-color="#f15800"/>
      <stop offset="0.20392156862745098" stop-color="#e20900"/>
      <stop offset="1.0" stop-color="#240014"/>
    </radialGradient>
    <radialGradient cx="0" cy="0" gradientTransform="matrix(0.015, 0.0, 0.0, 0.015, -12.0, 34.1)" gradientUnits="userSpaceOnUse" id="gradient5" r="819.2" spreadMethod="pad">
      <stop offset="0.0" stop-color="#ec3c00"/>
      <stop offset="0.1411764705882353" stop-color="#e20900"/>
      <stop offset="1.0" stop-color="#240014"/>
    </radialGradient>
    <radialGradient cx="0" cy="0" gradientTransform="matrix(0.0203, 0.0, 0.0, 0.0203, 1.65, 28.95)" gradientUnits="userSpaceOnUse" id="gradient6" r="819.2" spreadMethod="pad">
      <stop offset="0.0" stop-color="#ec3c00"/>
      <stop offset="0.1411764705882353" stop-color="#e20900"/>
      <stop offset="1.0" stop-color="#240014"/>
    </radialGradient>
    <radialGradient cx="0" cy="0" gradientTransform="matrix(0.0239, 0.0, 0.0, 0.0239, 29.7, 29.8)" gradientUnits="userSpaceOnUse" id="gradient7" r="819.2" spreadMethod="pad">
      <stop offset="0.0" stop-color="#ec3c00"/>
      <stop offset="0.1411764705882353" stop-color="#e20900"/>
      <stop offset="1.0" stop-color="#240014"/>
    </radialGradient>
    <radialGradient cx="0" cy="0" gradientTransform="matrix(0.0246, 0.0, 0.0, 0.0246, -29.7, 29.85)" gradientUnits="userSpaceOnUse" id="gradient8" r="819.2" spreadMethod="pad">
      <stop offset="0.0" stop-color="#ec3c00"/>
      <stop offset="0.1411764705882353" stop-color="#e20900"/>
      <stop offset="1.0" stop-color="#240014"/>
    </radialGradient>
    <radialGradient cx="0" cy="0" gradientTransform="matrix(0.0184, 0.0, 0.0, 0.0184, -29.25, -29.55)" gradientUnits="userSpaceOnUse" id="gradient9" r="819.2" spreadMethod="pad">
      <stop offset="0.0" stop-color="#ec3c00"/>
      <stop offset="0.1411764705882353" stop-color="#e20900"/>
      <stop offset="1.0" stop-color="#240014"/>
    </radialGradient>
    <radialGradient cx="0" cy="0" gradientTransform="matrix(0.0242, 0.0, 0.0, 0.0242, 29.8, -29.55)" gradientUnits="userSpaceOnUse" id="gradient10" r="819.2" spreadMethod="pad">
      <stop offset="0.0" stop-color="#ec3c00"/>
      <stop offset="0.1411764705882353" stop-color="#e20900"/>
      <stop offset="1.0" stop-color="#240014"/>
    </radialGradient>
    <radialGradient cx="0" cy="0" gradientTransform="matrix(0.0303, 0.0, 0.0, 0.0303, -40.0, 7.25)" gradientUnits="userSpaceOnUse" id="gradient11" r="819.2" spreadMethod="pad">
      <stop offset="0.0" stop-color="#ec3c00"/>
      <stop offset="0.1411764705882353" stop-color="#e20900"/>
      <stop offset="1.0" stop-color="#240014"/>
    </radialGradient>
    <radialGradient cx="0" cy="0" gradientTransform="matrix(0.0281, 0.0, 0.0, 0.0281, 14.2, -19.55)" gradientUnits="userSpaceOnUse" id="gradient12" r="819.2" spreadMethod="pad">
      <stop offset="0.0" stop-color="#f05600"/>
      <stop offset="0.24313725490196078" stop-color="#e20900"/>
      <stop offset="1.0" stop-color="#240014"/>
    </radialGradient>
    <radialGradient cx="0" cy="0" gradientTransform="matrix(0.0207, 0.0, 0.0, 0.0207, 1.7, -30.85)" gradientUnits="userSpaceOnUse" id="gradient13" r="819.2" spreadMethod="pad">
      <stop offset="0.0" stop-color="#ec3c00"/>
      <stop offset="0.1411764705882353" stop-color="#e20900"/>
      <stop offset="1.0" stop-color="#240014"/>
    </radialGradient>
    <linearGradient gradientTransform="matrix(0.0, -0.0353, 0.0366, 0.0, 0.7, -1.2)" gradientUnits="userSpaceOnUse" id="gradient14" spreadMethod="pad" x1="-819.2" x2="819.2">
      <stop offset="0.10196078431372549" stop-color="#280000"/>
      <stop offset="0.6666666666666666" stop-color="#ff0000" stop-opacity="0.0"/>
    </linearGradient>
  </defs>
</svg>
