<?xml version="1.0" encoding="UTF-8" standalone="no"?>
<svg xmlns:ffdec="https://www.free-decompiler.com/flash" xmlns:xlink="http://www.w3.org/1999/xlink" ffdec:objectType="shape" height="120.0px" width="125.45px" xmlns="http://www.w3.org/2000/svg">
  <g transform="matrix(1.0, 0.0, 0.0, 1.0, 62.5, 60.0)">
    <path d="M-4.75 60.0 L-4.75 59.95 -5.3 60.0 -5.6 59.55 Q-7.35 57.15 -9.2 54.9 -12.9 52.7 -17.8 50.95 -34.35 44.8 -52.55 46.85 L-58.6 47.75 -60.0 48.05 -59.75 46.65 -59.2 42.95 -59.1 42.25 -58.45 42.1 -54.05 41.35 Q-35.35 39.2 -19.45 44.8 -27.85 37.8 -38.5 32.55 -47.25 28.15 -55.8 25.9 L-56.65 25.7 -56.55 24.8 -55.9 20.25 -55.75 19.15 -54.7 19.4 Q-38.6 22.9 -22.45 36.0 L-28.35 28.75 -28.4 28.75 Q-30.4 26.35 -44.8 13.15 L-50.8 7.5 -51.35 7.0 -51.0 6.35 -49.85 4.25 -49.8 4.15 -48.9 2.75 -48.25 1.85 -47.45 2.6 Q-26.55 20.95 -12.9 38.65 -21.1 24.35 -30.05 10.7 -36.55 0.85 -42.0 -6.25 L-42.45 -6.8 -42.0 -7.4 -39.95 -10.05 -39.2 -11.05 -38.45 -10.05 Q-32.2 -2.2 -26.35 7.15 L-13.85 26.55 -8.05 35.95 -8.85 33.4 Q-17.5 8.4 -34.95 -14.3 L-35.5 -15.0 -34.85 -15.6 -31.65 -18.5 -30.85 -19.15 -30.25 -18.3 Q-25.9 -12.3 -22.1 -6.4 -11.3 10.55 -4.0 31.8 L-2.9 35.25 Q-3.7 27.15 -5.95 18.45 L-10.55 0.15 Q-13.55 -11.4 -16.0 -18.5 L-18.4 -24.7 -18.8 -25.7 -17.8 -26.05 -14.65 -27.05 -13.8 -27.25 -13.45 -26.45 -10.9 -19.6 Q-4.9 -0.35 -0.5 18.4 2.2 30.1 3.4 38.35 3.75 34.55 3.55 30.55 2.35 10.9 1.4 4.35 L1.4 4.4 -3.7 -24.9 -4.4 -29.2 -4.55 -30.05 -3.7 -30.3 -1.2 -31.05 -0.55 -31.2 1.35 -31.15 2.15 -31.1 2.3 -30.25 3.5 -22.05 Q6.8 0.15 8.0 11.7 8.95 21.15 9.2 28.8 13.7 12.7 14.8 4.55 15.95 -4.2 16.6 -23.45 L16.75 -28.15 16.8 -29.35 17.95 -29.1 21.9 -28.05 22.65 -27.85 22.6 -27.05 21.95 -15.7 Q20.55 4.5 19.7 7.45 18.45 11.7 17.2 19.4 L16.1 25.4 25.85 4.05 35.85 -20.45 36.35 -21.65 37.35 -20.9 40.2 -18.55 40.8 -18.05 40.45 -17.4 38.8 -13.8 Q36.15 -8.05 24.45 19.0 L17.95 33.7 27.5 22.7 Q41.9 4.3 44.6 1.45 L49.6 -3.4 50.65 -4.3 51.15 -3.05 52.35 0.05 52.75 1.1 53.0 1.75 52.5 2.2 Q41.55 11.65 26.4 29.9 L16.55 42.2 Q31.9 32.0 41.6 27.4 L41.65 27.35 41.7 27.35 44.9 26.1 44.95 26.1 Q52.5 23.55 58.05 23.0 L58.95 22.9 59.1 23.75 59.8 27.25 60.0 28.25 59.0 28.4 Q54.65 29.05 47.75 31.3 37.25 34.65 28.45 40.45 L28.5 40.4 18.4 47.65 18.15 47.9 19.9 47.3 Q33.1 42.9 48.9 42.35 53.7 42.1 57.45 42.4 L59.2 42.5 58.15 43.95 Q56.8 45.7 55.4 48.0 L55.05 48.45 54.4 48.4 Q40.3 46.7 22.0 52.7 9.35 56.8 4.7 59.65 L4.45 59.8 4.45 60.0 -4.75 60.0" fill="#000000" fill-rule="evenodd" stroke="none"/>
    <path d="M16.75 -40.2 L-2.95 -40.2 -2.95 -60.0 16.75 -60.0 16.75 -40.2" fill="#666666" fill-opacity="0.0" fill-rule="evenodd" stroke="none"/>
    <path d="M4.45 60.0 L4.45 59.8 4.7 59.65 Q9.35 56.8 22.0 52.7 40.3 46.7 54.4 48.4 L55.05 48.45 55.4 48.0 Q56.8 45.7 58.15 43.95 L59.2 42.5 57.45 42.4 Q53.7 42.1 48.9 42.35 33.1 42.9 19.9 47.3 L18.15 47.9 18.4 47.65 28.5 40.4 28.45 40.45 Q37.25 34.65 47.75 31.3 54.65 29.05 59.0 28.4 L60.0 28.25 59.8 27.25 59.1 23.75 58.95 22.9 58.05 23.0 Q52.5 23.55 44.95 26.1 L44.9 26.1 41.7 27.35 41.65 27.35 41.6 27.4 Q31.9 32.0 16.55 42.2 L26.4 29.9 Q41.55 11.65 52.5 2.2 L53.0 1.75 52.75 1.1 52.35 0.05 51.15 -3.05 50.65 -4.3 49.6 -3.4 44.6 1.45 Q41.9 4.3 27.5 22.7 L17.95 33.7 24.45 19.0 Q36.15 -8.05 38.8 -13.8 L40.45 -17.4 40.8 -18.05 40.2 -18.55 37.35 -20.9 36.35 -21.65 35.85 -20.45 25.85 4.05 16.1 25.4 17.2 19.4 Q18.45 11.7 19.7 7.45 20.55 4.5 21.95 -15.7 L22.6 -27.05 22.65 -27.85 21.9 -28.05 17.95 -29.1 16.8 -29.35 16.75 -28.15 16.6 -23.45 Q15.95 -4.2 14.8 4.55 13.7 12.7 9.2 28.8 8.95 21.15 8.0 11.7 6.8 0.15 3.5 -22.05 L2.3 -30.25 2.15 -31.1 1.35 -31.15 -0.55 -31.2 -1.2 -31.05 -3.7 -30.3 -4.55 -30.05 -4.4 -29.2 -3.7 -24.9 1.4 4.4 1.4 4.35 Q2.35 10.9 3.55 30.55 3.75 34.55 3.4 38.35 2.2 30.1 -0.5 18.4 -4.9 -0.35 -10.9 -19.6 L-13.45 -26.45 -13.8 -27.25 -14.65 -27.05 -17.8 -26.05 -18.8 -25.7 -18.4 -24.7 -16.0 -18.5 Q-13.55 -11.4 -10.55 0.15 L-5.95 18.45 Q-3.7 27.15 -2.9 35.25 L-4.0 31.8 Q-11.3 10.55 -22.1 -6.4 -25.9 -12.3 -30.25 -18.3 L-30.85 -19.15 -31.65 -18.5 -34.85 -15.6 -35.5 -15.0 -34.95 -14.3 Q-17.5 8.4 -8.85 33.4 L-8.05 35.95 -13.85 26.55 -26.35 7.15 Q-32.2 -2.2 -38.45 -10.05 L-39.2 -11.05 -39.95 -10.05 -42.0 -7.4 -42.45 -6.8 -42.0 -6.25 Q-36.55 0.85 -30.05 10.7 -21.1 24.35 -12.9 38.65 -26.55 20.95 -47.45 2.6 L-48.25 1.85 -48.9 2.75 -49.8 4.15 -49.85 4.25 -51.0 6.35 -51.35 7.0 -50.8 7.5 -44.8 13.15 Q-30.4 26.35 -28.4 28.75 L-28.35 28.75 -22.45 36.0 Q-38.6 22.9 -54.7 19.4 L-55.75 19.15 -55.9 20.25 -56.55 24.8 -56.65 25.7 -55.8 25.9 Q-47.25 28.15 -38.5 32.55 -27.85 37.8 -19.45 44.8 -35.35 39.2 -54.05 41.35 L-58.45 42.1 -59.1 42.25 -59.2 42.95 -59.75 46.65 -60.0 48.05 -58.6 47.75 -52.55 46.85 Q-34.35 44.8 -17.8 50.95 -12.9 52.7 -9.2 54.9 -7.35 57.15 -5.6 59.55 L-5.3 60.0 -4.75 59.95 -4.75 60.0 -7.75 60.0 -10.5 56.45 Q-13.95 54.45 -18.45 52.85 L-18.5 52.85 Q-34.6 46.85 -52.3 48.85 L-52.35 48.85 -58.2 49.7 -62.5 50.65 -61.7 46.4 -61.15 42.65 -61.15 42.7 -60.85 40.65 -58.9 40.15 -54.25 39.35 -54.25 39.4 Q-41.05 37.85 -29.15 40.15 -34.0 37.0 -39.35 34.35 L-39.4 34.35 Q-47.9 30.05 -56.2 27.85 L-58.8 27.25 -58.55 24.6 -58.5 24.55 -58.5 24.5 -57.85 20.0 -57.9 20.1 -57.4 16.7 -54.3 17.45 -54.25 17.45 Q-44.65 19.55 -35.0 24.95 L-46.15 14.65 -52.15 8.95 -52.05 9.05 -53.85 7.45 -52.85 5.55 -52.8 5.5 -51.75 3.5 -51.5 3.1 -51.35 2.9 -50.55 1.65 -48.55 -1.15 -46.1 1.1 Q-35.45 10.5 -26.65 19.7 L-31.7 11.8 Q-38.15 2.0 -43.55 -5.0 L-43.5 -4.95 -45.0 -6.75 -43.65 -8.5 -43.6 -8.55 -41.45 -11.3 -41.6 -11.2 -39.2 -14.35 -36.8 -11.2 Q-30.5 -3.3 -24.65 6.1 L-24.6 6.15 -18.2 16.2 Q-25.6 1.15 -36.45 -13.0 L-38.2 -15.2 -36.25 -17.0 -32.95 -20.0 -30.45 -22.05 -28.65 -19.5 -28.6 -19.45 Q-24.25 -13.4 -20.4 -7.45 -14.4 1.95 -9.5 12.65 L-12.5 0.65 -12.45 0.65 Q-15.45 -10.8 -17.9 -17.85 L-17.85 -17.8 -20.25 -23.9 -20.25 -23.95 -21.4 -26.9 -18.45 -27.9 -15.2 -28.95 -15.15 -28.95 -15.1 -29.0 -12.65 -29.55 -11.55 -27.15 -9.0 -20.25 -9.0 -20.2 Q-3.7 -3.25 0.35 13.3 -0.1 8.1 -0.5 5.2 L-0.55 4.75 -5.65 -24.55 -6.35 -28.9 -6.8 -31.45 -4.25 -32.2 -2.1 -32.85 -0.55 -33.2 1.35 -33.15 3.85 -33.0 4.3 -30.5 5.5 -22.35 Q8.8 -0.1 10.0 11.5 L10.45 16.2 Q12.2 8.95 12.85 4.3 13.95 -4.45 14.6 -23.5 L14.75 -28.25 14.9 -31.8 18.4 -31.05 22.5 -29.95 22.45 -29.95 24.75 -29.35 24.6 -26.8 24.6 -26.95 23.95 -15.55 Q22.5 5.0 21.65 8.0 L21.65 8.05 21.3 9.3 24.05 3.25 34.0 -21.2 35.5 -24.8 38.5 -22.55 38.55 -22.5 41.55 -20.05 41.5 -20.05 43.35 -18.55 42.2 -16.4 40.65 -12.95 26.3 19.8 25.2 22.3 26.0 21.4 Q40.35 3.0 43.15 0.1 45.65 -2.65 48.25 -4.85 L48.3 -4.9 51.5 -7.6 53.0 -3.8 54.25 -0.65 54.65 0.5 55.35 2.35 53.75 3.75 53.8 3.75 Q42.95 13.1 27.95 31.2 L25.65 34.0 Q34.4 28.6 40.75 25.6 L39.6 27.4 41.65 25.4 40.95 25.5 44.55 24.1 44.6 24.1 Q52.2 21.55 57.85 21.0 L60.6 20.7 61.05 23.35 61.8 26.9 61.75 26.85 62.4 29.95 59.2 30.4 59.3 30.4 Q55.1 31.0 48.4 33.2 L48.35 33.2 Q38.1 36.45 29.55 42.15 L29.45 42.2 28.4 42.9 28.6 42.85 Q38.1 40.7 48.85 40.35 53.75 40.1 57.6 40.4 L62.95 40.7 59.75 45.2 Q58.45 46.85 57.1 49.05 L55.95 50.55 54.15 50.4 Q40.4 48.75 22.65 54.6 13.15 57.65 8.3 60.0 L4.45 60.0" fill="#ffffff" fill-opacity="0.101960786" fill-rule="evenodd" stroke="none"/>
  </g>
</svg>
