<?xml version="1.0" encoding="UTF-8" standalone="no"?>
<svg xmlns:ffdec="https://www.free-decompiler.com/flash" xmlns:xlink="http://www.w3.org/1999/xlink" ffdec:objectType="shape" height="60.0px" width="60.0px" xmlns="http://www.w3.org/2000/svg">
  <g transform="matrix(1.0, 0.0, 0.0, 1.0, 30.0, 30.0)">
    <path d="M0.0 -30.0 L6.75 -25.15 15.0 -25.95 18.45 -18.4 26.0 -15.0 25.25 -6.65 30.0 0.05 25.25 6.75 26.0 15.05 Q22.25 16.75 18.45 18.5 L15.0 26.0 6.75 25.25 0.05 30.0 -6.7 25.25 -15.0 26.0 -18.4 18.5 -25.95 15.05 -25.15 6.75 -30.0 0.05 -25.15 -6.7 -25.95 -15.0 -18.4 -18.4 -15.0 -25.95 -6.7 -25.15 0.0 -30.0 M12.75 -22.0 L5.75 -21.3 0.0 -25.45 -5.65 -21.3 -12.7 -22.0 -15.6 -15.6 -22.0 -12.7 -21.3 -5.65 -25.45 0.05 -21.3 5.75 -22.0 12.8 -15.6 15.7 -12.7 22.05 -5.65 21.4 0.05 25.45 5.75 21.4 12.75 22.05 15.7 15.65 22.05 12.8 21.4 5.75 25.5 0.05 21.4 -5.65 22.05 -12.7 15.7 -15.6 12.75 -22.0 M5.55 -5.55 Q7.85 -3.25 7.85 0.0 7.85 3.25 5.55 5.55 3.25 7.85 0.0 7.85 -3.25 7.85 -5.55 5.55 -7.85 3.25 -7.85 0.0 -7.85 -3.25 -5.55 -5.55 -3.25 -7.85 0.0 -7.85 3.25 -7.85 5.55 -5.55 M3.55 -3.55 Q2.1 -5.0 0.05 -5.0 -2.05 -5.0 -3.5 -3.55 -5.0 -2.1 -5.0 0.0 -5.0 2.05 -3.5 3.55 -2.05 5.0 0.05 5.05 2.1 5.0 3.55 3.55 5.0 2.05 5.05 0.0 5.0 -2.1 3.55 -3.55" fill="#990066" fill-rule="evenodd" stroke="none"/>
    <path d="M12.75 -22.0 L15.7 -15.6 22.05 -12.7 21.4 -5.65 25.5 0.05 21.4 5.75 22.05 12.8 15.7 15.65 12.75 22.05 5.75 21.4 0.05 25.45 -5.65 21.4 -12.7 22.05 -15.6 15.7 -22.0 12.8 -21.3 5.75 -25.45 0.05 -21.3 -5.65 -22.0 -12.7 -15.6 -15.6 -12.7 -22.0 -5.65 -21.3 0.0 -25.45 5.75 -21.3 12.75 -22.0 M5.55 -5.55 Q3.25 -7.85 0.0 -7.85 -3.25 -7.85 -5.55 -5.55 -7.85 -3.25 -7.85 0.0 -7.85 3.25 -5.55 5.55 -3.25 7.85 0.0 7.85 3.25 7.85 5.55 5.55 7.85 3.25 7.85 0.0 7.85 -3.25 5.55 -5.55" fill="#000000" fill-rule="evenodd" stroke="none"/>
    <path d="M3.55 -3.55 Q5.0 -2.1 5.05 0.0 5.0 2.05 3.55 3.55 2.1 5.0 0.05 5.05 -2.05 5.0 -3.5 3.55 -5.0 2.05 -5.0 0.0 -5.0 -2.1 -3.5 -3.55 -2.05 -5.0 0.05 -5.0 2.1 -5.0 3.55 -3.55" fill="#333333" fill-rule="evenodd" stroke="none"/>
  </g>
</svg>
