<?xml version="1.0" encoding="UTF-8" standalone="no"?>
<svg xmlns:ffdec="https://www.free-decompiler.com/flash" xmlns:xlink="http://www.w3.org/1999/xlink" ffdec:objectType="shape" height="60.0px" width="120.0px" xmlns="http://www.w3.org/2000/svg">
  <g transform="matrix(1.0, 0.0, 0.0, 1.0, 60.0, 30.0)">
    <path d="M-4.0 11.1 L-4.0 -10.9 -41.0 -10.9 -41.0 11.1 -4.0 11.1 M-48.0 -18.0 L48.0 -18.0 48.0 18.0 -48.0 18.0 -48.0 -18.0 M41.0 11.1 L41.0 -10.9 4.0 -10.9 4.0 11.1 41.0 11.1" fill="url(#gradient0)" fill-rule="evenodd" stroke="none"/>
    <path d="M-4.0 11.1 L-41.0 11.1 -41.0 -10.9 -4.0 -10.9 -4.0 11.1" fill="url(#gradient1)" fill-rule="evenodd" stroke="none"/>
    <path d="M-60.0 -18.0 Q-60.0 -30.0 -48.0 -30.0 L48.0 -30.0 Q60.0 -30.0 60.0 -18.0 L60.0 18.0 Q60.0 30.0 48.0 30.0 L-48.0 30.0 Q-60.0 30.0 -60.0 18.0 L-60.0 -18.0 M-48.0 -26.0 Q-56.0 -26.0 -56.0 -18.0 L-56.0 18.0 Q-56.0 26.0 -48.0 26.0 L48.0 26.0 Q56.0 26.0 56.0 18.0 L56.0 -18.0 Q56.0 -26.0 48.0 -26.0 L-48.0 -26.0" fill="#fefd01" fill-rule="evenodd" stroke="none"/>
    <path d="M-48.0 -26.0 L48.0 -26.0 Q56.0 -26.0 56.0 -18.0 L56.0 18.0 Q56.0 26.0 48.0 26.0 L-48.0 26.0 Q-56.0 26.0 -56.0 18.0 L-56.0 -18.0 Q-56.0 -26.0 -48.0 -26.0 M-48.0 -18.0 L-48.0 18.0 48.0 18.0 48.0 -18.0 -48.0 -18.0" fill="url(#gradient2)" fill-rule="evenodd" stroke="none"/>
    <path d="M41.0 11.1 L4.0 11.1 4.0 -10.9 41.0 -10.9 41.0 11.1" fill="url(#gradient3)" fill-rule="evenodd" stroke="none"/>
  </g>
  <defs>
    <linearGradient gradientTransform="matrix(0.0, -0.0257, 0.061, 0.0, 0.0, -6.05)" gradientUnits="userSpaceOnUse" id="gradient0" spreadMethod="pad" x1="-819.2" x2="819.2">
      <stop offset="0.0" stop-color="#41015c"/>
      <stop offset="1.0" stop-color="#41015c"/>
    </linearGradient>
    <linearGradient gradientTransform="matrix(0.0, -0.0134, 0.0226, 0.0, -22.5, 0.1)" gradientUnits="userSpaceOnUse" id="gradient1" spreadMethod="pad" x1="-819.2" x2="819.2">
      <stop offset="0.0" stop-color="#9902ca"/>
      <stop offset="1.0" stop-color="#ffcc00"/>
    </linearGradient>
    <linearGradient gradientTransform="matrix(0.0, -0.0317, 0.0732, 0.0, 0.0, 2.0)" gradientUnits="userSpaceOnUse" id="gradient2" spreadMethod="pad" x1="-819.2" x2="819.2">
      <stop offset="0.0" stop-color="#9900cc"/>
      <stop offset="1.0" stop-color="#ffff00"/>
    </linearGradient>
    <linearGradient gradientTransform="matrix(0.0, -0.0134, 0.0226, 0.0, 22.5, 0.1)" gradientUnits="userSpaceOnUse" id="gradient3" spreadMethod="pad" x1="-819.2" x2="819.2">
      <stop offset="0.0" stop-color="#9902ca"/>
      <stop offset="1.0" stop-color="#ffcc00"/>
    </linearGradient>
  </defs>
</svg>
