<?xml version="1.0" encoding="UTF-8" standalone="no"?>
<svg xmlns:ffdec="https://www.free-decompiler.com/flash" xmlns:xlink="http://www.w3.org/1999/xlink" ffdec:objectType="shape" height="70.0px" width="219.95px" xmlns="http://www.w3.org/2000/svg">
  <g transform="matrix(1.0, 0.0, 0.0, 1.0, 109.95, 40.0)">
    <path d="M73.0 -14.9 L73.0 11.1 34.0 11.1 34.0 -14.9 73.0 -14.9 M26.0 11.1 L-26.0 11.1 -26.0 -14.9 26.0 -14.9 26.0 11.1 M-34.0 -14.9 L-34.0 11.1 -73.0 11.1 -73.0 -14.9 -34.0 -14.9" fill="#403200" fill-rule="evenodd" stroke="none"/>
    <path d="M80.0 -34.0 Q92.0 -34.0 92.0 -22.0 L92.0 18.0 Q92.0 30.0 80.0 30.0 L-80.0 30.0 Q-92.0 30.0 -92.0 18.0 L-92.0 -22.0 Q-92.0 -34.0 -80.0 -34.0 L80.0 -34.0 M88.0 -22.0 Q88.0 -30.0 80.0 -30.0 L-80.0 -30.0 Q-88.0 -30.0 -88.0 -22.0 L-88.0 18.0 Q-88.0 26.0 -80.0 26.0 L80.0 26.0 Q88.0 26.0 88.0 18.0 L88.0 -22.0" fill="#e2c88b" fill-rule="evenodd" stroke="none"/>
    <path d="M73.0 -14.9 L34.0 -14.9 34.0 11.1 73.0 11.1 73.0 -14.9 M80.0 18.0 L-80.0 18.0 -80.0 -22.0 80.0 -22.0 80.0 18.0 M-34.0 -14.9 L-73.0 -14.9 -73.0 11.1 -34.0 11.1 -34.0 -14.9 M26.0 11.1 L26.0 -14.9 -26.0 -14.9 -26.0 11.1 26.0 11.1" fill="url(#gradient0)" fill-rule="evenodd" stroke="none"/>
    <path d="M88.0 -22.0 L88.0 18.0 Q88.0 26.0 80.0 26.0 L-80.0 26.0 Q-88.0 26.0 -88.0 18.0 L-88.0 -22.0 Q-88.0 -30.0 -80.0 -30.0 L80.0 -30.0 Q88.0 -30.0 88.0 -22.0 M80.0 18.0 L80.0 -22.0 -80.0 -22.0 -80.0 18.0 80.0 18.0" fill="url(#gradient1)" fill-rule="evenodd" stroke="none"/>
    <path d="M24.8 -25.7 L24.75 -25.6 24.85 -25.65 24.85 -25.7 24.8 -25.7 M11.6 -3.75 L7.85 0.3 Q6.0 2.15 5.3 2.15 3.75 2.1 1.9 -0.45 L0.5 -2.75 -0.1 -3.85 -1.65 -6.8 Q-2.2 -7.8 -3.85 -9.45 L-5.75 -11.0 -12.9 -5.8 Q-19.55 -0.6 -20.15 -0.6 -22.05 -0.6 -28.05 -5.15 L-32.15 -8.3 -34.6 -9.75 Q-36.2 -9.75 -42.0 -3.75 L-46.15 0.3 Q-48.2 2.15 -49.0 2.15 -51.35 2.1 -54.3 -2.75 L-56.65 -6.8 -59.05 -10.05 -65.25 -4.65 Q-70.05 -0.2 -70.9 -0.2 L-72.05 -0.35 Q-72.2 -2.3 -75.7 -7.55 L-80.15 -13.85 -87.8 -12.3 -88.05 -12.3 -97.1 -10.3 Q-98.15 -11.0 -98.15 -11.6 -98.15 -14.25 -94.4 -17.4 -91.65 -19.75 -88.05 -21.25 L-83.95 -22.6 -83.65 -22.75 -87.85 -23.25 Q-86.6 -28.75 -78.05 -28.75 L81.95 -28.75 Q91.95 -28.75 91.95 -21.25 L91.95 -11.05 86.25 -12.7 83.1 -6.15 Q80.65 -1.3 79.3 -1.3 77.5 -1.35 72.4 -6.55 L68.95 -10.15 67.1 -11.8 Q66.5 -11.8 60.8 -5.7 55.05 0.3 54.55 0.3 52.75 0.3 48.95 -5.35 L46.3 -9.25 Q44.95 -11.0 44.35 -11.0 43.95 -11.0 37.9 -5.8 31.9 -0.6 31.35 -0.6 29.6 -0.6 24.2 -5.15 L20.5 -8.3 18.9 -9.45 18.3 -9.75 Q16.85 -9.75 11.6 -3.75 M-27.35 -25.65 L-27.35 -25.7 -27.4 -25.7 -27.45 -25.6 -27.35 -25.65" fill="#000000" fill-opacity="0.2" fill-rule="evenodd" stroke="none"/>
    <path d="M16.3 -17.25 Q14.85 -17.25 9.6 -11.25 L5.85 -7.2 Q4.0 -5.35 3.3 -5.35 1.75 -5.4 -0.1 -7.95 L-1.5 -10.25 -2.1 -11.35 -3.65 -14.3 Q-4.2 -15.3 -5.85 -16.95 L-7.75 -18.5 -14.9 -13.3 Q-21.55 -8.1 -22.15 -8.1 -24.05 -8.1 -30.05 -12.65 L-34.15 -15.8 Q-36.15 -17.25 -36.6 -17.25 -38.2 -17.25 -44.0 -11.25 L-48.15 -7.2 Q-50.2 -5.35 -51.0 -5.35 -53.35 -5.4 -56.3 -10.25 L-58.65 -14.3 -61.05 -17.55 Q-62.05 -17.0 -67.25 -12.15 -72.05 -7.7 -72.9 -7.7 L-74.05 -7.85 Q-74.2 -9.8 -77.7 -15.05 L-82.15 -21.35 -89.8 -19.8 -99.1 -17.8 Q-100.15 -18.5 -100.15 -19.1 -100.15 -21.75 -96.4 -24.9 -92.2 -28.45 -85.95 -30.1 L-85.65 -30.25 -90.9 -30.85 -102.6 -30.4 -108.7 -29.8 Q-110.5 -30.2 -109.75 -30.7 -102.6 -35.7 -94.15 -37.8 -86.6 -39.7 -74.75 -40.0 L-6.1 -39.85 -6.1 -39.95 -2.1 -39.95 -0.1 -39.95 16.9 -39.9 82.85 -39.85 86.85 -39.9 Q95.85 -39.9 103.75 -33.75 106.4 -31.75 108.4 -29.4 110.0 -27.45 110.0 -27.0 109.95 -26.5 109.7 -26.3 L108.25 -26.1 Q102.75 -26.15 94.8 -27.75 L92.15 -28.25 Q94.4 -26.6 96.35 -24.45 L98.55 -21.45 Q99.95 -20.55 101.55 -15.9 L101.45 -15.2 84.25 -20.2 81.1 -13.65 Q78.65 -8.8 77.3 -8.8 75.5 -8.85 70.4 -14.05 L66.95 -17.65 65.1 -19.3 Q64.5 -19.3 58.8 -13.2 53.05 -7.2 52.55 -7.2 50.75 -7.2 46.95 -12.85 L44.3 -16.75 Q42.95 -18.5 42.35 -18.5 41.95 -18.5 35.9 -13.3 29.9 -8.1 29.35 -8.1 27.6 -8.1 22.2 -12.65 L18.5 -15.8 16.9 -16.95 16.3 -17.25 M16.0 -23.55 L16.9 -23.65 Q18.8 -23.4 21.8 -21.0 L21.9 -21.0 25.55 -17.85 25.65 -17.8 28.95 -15.15 32.5 -18.4 32.5 -18.45 Q38.9 -23.95 41.8 -24.7 L41.7 -24.7 Q44.8 -25.95 48.3 -21.3 L48.35 -21.2 51.05 -17.25 51.15 -17.1 52.5 -15.15 55.0 -17.95 55.1 -18.05 Q61.05 -24.35 64.1 -25.4 66.5 -26.8 70.65 -22.5 L74.0 -19.05 74.1 -18.9 76.3 -16.65 76.85 -17.7 80.05 -24.4 Q80.75 -25.7 82.5 -26.25 84.2 -26.8 85.95 -26.25 L85.9 -26.25 93.65 -24.0 92.6 -25.4 92.5 -25.5 88.95 -28.65 Q87.8 -29.5 87.6 -30.65 87.4 -31.8 88.2 -32.85 88.95 -33.85 90.4 -34.3 L93.35 -34.45 96.0 -33.9 102.15 -32.85 100.65 -34.1 100.5 -34.2 Q94.1 -39.2 86.85 -39.35 L82.95 -39.3 16.9 -39.3 -0.1 -39.4 -2.1 -39.4 -5.95 -39.4 -6.1 -39.4 -6.1 -39.3 -74.6 -39.45 Q-85.45 -39.15 -92.35 -37.45 L-93.65 -37.1 -90.95 -37.1 -84.8 -36.45 -84.75 -36.45 Q-83.25 -36.3 -82.1 -35.55 -81.0 -34.8 -80.65 -33.8 -80.35 -32.8 -80.95 -31.8 -81.55 -30.85 -82.8 -30.25 L-82.85 -30.25 -83.15 -30.1 -83.2 -30.05 -84.1 -29.75 Q-88.95 -28.5 -92.25 -25.75 L-91.25 -25.95 -83.15 -27.6 -79.9 -27.3 Q-78.35 -26.8 -77.6 -25.7 L-73.05 -19.35 -72.95 -19.15 -71.5 -16.85 -71.3 -17.05 Q-65.45 -22.5 -64.0 -23.15 L-61.55 -23.8 -58.95 -23.5 -56.9 -22.35 Q-55.6 -21.15 -53.95 -18.45 L-53.9 -18.3 -51.7 -14.55 -51.6 -14.4 -50.95 -13.3 -48.25 -16.05 Q-40.85 -23.55 -36.95 -23.55 -34.7 -24.05 -30.5 -21.0 L-30.4 -21.0 -26.35 -17.85 -26.25 -17.8 -22.6 -15.15 -18.65 -18.4 -18.65 -18.45 Q-16.3 -21.55 -12.05 -23.65 -7.8 -25.75 -4.8 -24.8 -1.85 -23.9 -0.1 -19.65 L2.65 -14.55 2.75 -14.4 3.35 -13.3 5.8 -16.05 Q12.45 -23.55 16.0 -23.55" fill="#009900" fill-rule="evenodd" stroke="none"/>
    <path d="M22.85 -33.15 L22.85 -33.2 22.8 -33.2 22.75 -33.1 22.85 -33.15 M1.95 -34.55 L8.1 -35.2 8.9 -35.25 12.4 -34.85 Q14.0 -34.7 14.05 -35.4 L14.0 -35.85 13.95 -35.7 Q12.7 -36.75 9.1 -36.75 L8.1 -36.7 3.3 -36.15 -0.7 -35.55 Q-0.95 -35.55 -0.9 -35.65 L-0.9 -36.0 -4.25 -36.45 -8.9 -36.05 -10.05 -35.95 -10.9 -35.85 -13.8 -35.45 -13.8 -36.25 -15.55 -36.45 Q-17.15 -36.45 -19.1 -35.7 -21.05 -34.95 -21.05 -34.4 -21.05 -33.9 -20.75 -33.75 L-20.0 -33.6 -18.65 -34.3 Q-17.6 -34.9 -15.75 -34.9 L-14.9 -34.8 -14.9 -34.25 -14.75 -34.25 -13.3 -34.15 -10.9 -34.35 -8.9 -34.65 -6.65 -34.95 -3.05 -34.85 -2.95 -34.05 -1.95 -33.9 1.95 -34.55 M39.05 -29.6 Q37.3 -28.85 37.3 -28.35 37.3 -27.85 37.55 -27.7 L38.25 -27.55 Q38.35 -27.55 39.45 -28.2 40.4 -28.8 42.05 -28.8 L44.55 -28.5 47.0 -28.1 49.05 -28.5 Q50.25 -28.9 50.25 -29.4 L49.95 -30.0 49.3 -30.1 45.1 -29.75 43.95 -30.15 42.25 -30.4 Q40.8 -30.4 39.05 -29.6 M16.0 -23.55 Q12.45 -23.55 5.8 -16.05 L3.35 -13.3 2.75 -14.4 2.65 -14.55 -0.1 -19.65 Q-1.85 -23.9 -4.8 -24.8 -7.8 -25.75 -12.05 -23.65 -16.3 -21.55 -18.65 -18.45 L-18.65 -18.4 -22.6 -15.15 -26.25 -17.8 -26.35 -17.85 -30.4 -21.0 -30.5 -21.0 Q-34.7 -24.05 -36.95 -23.55 -40.85 -23.55 -48.25 -16.05 L-50.95 -13.3 -51.6 -14.4 -51.7 -14.55 -53.9 -18.3 -53.95 -18.45 Q-55.6 -21.15 -56.9 -22.35 L-58.95 -23.5 -61.55 -23.8 -64.0 -23.15 Q-65.45 -22.5 -71.3 -17.05 L-71.5 -16.85 -72.95 -19.15 -73.05 -19.35 -77.6 -25.7 Q-78.35 -26.8 -79.9 -27.3 L-83.15 -27.6 -91.25 -25.95 -92.25 -25.75 Q-88.95 -28.5 -84.1 -29.75 L-83.2 -30.05 -83.15 -30.1 -82.85 -30.25 -82.8 -30.25 Q-81.55 -30.85 -80.95 -31.8 -80.35 -32.8 -80.65 -33.8 -81.0 -34.8 -82.1 -35.55 -83.25 -36.3 -84.75 -36.45 L-84.8 -36.45 -90.95 -37.1 -93.65 -37.1 -92.35 -37.45 Q-85.45 -39.15 -74.6 -39.45 L-6.1 -39.3 -6.1 -39.4 -5.95 -39.4 -2.1 -39.4 -0.1 -39.4 16.9 -39.3 82.95 -39.3 86.85 -39.35 Q94.1 -39.2 100.5 -34.2 L100.65 -34.1 102.15 -32.85 96.0 -33.9 93.35 -34.45 90.4 -34.3 Q88.95 -33.85 88.2 -32.85 87.4 -31.8 87.6 -30.65 87.8 -29.5 88.95 -28.65 L92.5 -25.5 92.6 -25.4 93.65 -24.0 85.9 -26.25 85.95 -26.25 Q84.2 -26.8 82.5 -26.25 80.75 -25.7 80.05 -24.4 L76.85 -17.7 76.3 -16.65 74.1 -18.9 74.0 -19.05 70.65 -22.5 Q66.5 -26.8 64.1 -25.4 61.05 -24.35 55.1 -18.05 L55.0 -17.95 52.5 -15.15 51.15 -17.1 51.05 -17.25 48.35 -21.2 48.3 -21.3 Q44.8 -25.95 41.7 -24.7 L41.8 -24.7 Q38.9 -23.95 32.5 -18.45 L32.5 -18.4 28.95 -15.15 25.65 -17.8 25.55 -17.85 21.9 -21.0 21.8 -21.0 Q18.8 -23.4 16.9 -23.65 L16.0 -23.55 M66.95 -36.55 Q65.35 -37.25 63.75 -37.25 L60.9 -36.5 57.85 -35.75 56.25 -36.35 52.55 -36.95 49.3 -36.6 Q47.55 -36.25 47.6 -35.75 47.55 -35.25 47.85 -35.1 L48.55 -34.95 Q53.95 -36.5 55.55 -35.5 L56.4 -34.6 Q56.8 -34.1 57.45 -34.1 L60.15 -34.95 64.6 -35.75 65.6 -35.2 Q66.6 -34.65 67.35 -34.65 L68.5 -35.55 66.95 -36.55 M-29.45 -33.1 L-29.35 -33.15 -29.35 -33.2 -29.4 -33.2 -29.45 -33.1" fill="#00cc00" fill-rule="evenodd" stroke="none"/>
    <path d="M39.05 -29.6 Q40.8 -30.4 42.25 -30.4 L43.95 -30.15 45.1 -29.75 49.3 -30.1 49.95 -30.0 50.25 -29.4 Q50.25 -28.9 49.05 -28.5 L47.0 -28.1 44.55 -28.5 42.05 -28.8 Q40.4 -28.8 39.45 -28.2 38.35 -27.55 38.25 -27.55 L37.55 -27.7 Q37.3 -27.85 37.3 -28.35 37.3 -28.85 39.05 -29.6 M1.95 -34.55 L-1.95 -33.9 -2.95 -34.05 -3.05 -34.85 -6.65 -34.95 -8.9 -34.65 -10.9 -34.35 -13.3 -34.15 -14.75 -34.25 -14.9 -34.25 -14.9 -34.8 -15.75 -34.9 Q-17.6 -34.9 -18.65 -34.3 L-20.0 -33.6 -20.75 -33.75 Q-21.05 -33.9 -21.05 -34.4 -21.05 -34.95 -19.1 -35.7 -17.15 -36.45 -15.55 -36.45 L-13.8 -36.25 -13.8 -35.45 -10.9 -35.85 -10.05 -35.95 -8.9 -36.05 -4.25 -36.45 -0.9 -36.0 -0.9 -35.65 Q-0.95 -35.55 -0.7 -35.55 L3.3 -36.15 8.1 -36.7 9.1 -36.75 Q12.7 -36.75 13.95 -35.7 L14.0 -35.85 14.05 -35.4 Q14.0 -34.7 12.4 -34.85 L8.9 -35.25 8.1 -35.2 1.95 -34.55 M66.95 -36.55 L68.5 -35.55 67.35 -34.65 Q66.6 -34.65 65.6 -35.2 L64.6 -35.75 60.15 -34.95 57.45 -34.1 Q56.8 -34.1 56.4 -34.6 L55.55 -35.5 Q53.95 -36.5 48.55 -34.95 L47.85 -35.1 Q47.55 -35.25 47.6 -35.75 47.55 -36.25 49.3 -36.6 L52.55 -36.95 56.25 -36.35 57.85 -35.75 60.9 -36.5 63.75 -37.25 Q65.35 -37.25 66.95 -36.55" fill="#00ee00" fill-rule="evenodd" stroke="none"/>
    <path d="M-54.2 -31.3 Q-50.8 -31.35 -50.5 -30.85 L-50.5 -30.5 Q-50.55 -30.4 -50.3 -30.4 L-45.85 -31.0 -39.45 -31.6 Q-35.45 -31.6 -34.05 -30.6 L-34.0 -30.7 -33.95 -30.3 Q-34.0 -29.6 -35.75 -29.75 L-39.65 -30.1 -47.3 -29.45 -51.65 -28.75 -52.75 -28.9 -52.85 -29.75 -56.85 -29.8 -64.25 -29.0 Q-66.15 -29.0 -66.65 -29.4 L-66.75 -29.8 Q-66.75 -30.25 -60.65 -30.8 L-54.2 -31.3" fill="#00ee00" fill-rule="evenodd" stroke="none"/>
  </g>
  <defs>
    <linearGradient gradientTransform="matrix(0.0, -0.0257, 0.061, 0.0, 30.0, -8.05)" gradientUnits="userSpaceOnUse" id="gradient0" spreadMethod="pad" x1="-819.2" x2="819.2">
      <stop offset="0.0" stop-color="#765f01"/>
      <stop offset="1.0" stop-color="#292101"/>
    </linearGradient>
    <linearGradient gradientTransform="matrix(0.0, -0.0317, 0.0732, 0.0, 30.0, 0.0)" gradientUnits="userSpaceOnUse" id="gradient1" spreadMethod="pad" x1="-819.2" x2="819.2">
      <stop offset="0.0" stop-color="#d1b13e"/>
      <stop offset="1.0" stop-color="#b17c01"/>
    </linearGradient>
  </defs>
</svg>
