<?xml version="1.0" encoding="UTF-8" standalone="no"?>
<svg xmlns:ffdec="https://www.free-decompiler.com/flash" xmlns:xlink="http://www.w3.org/1999/xlink" ffdec:objectType="shape" height="70.0px" width="160.0px" xmlns="http://www.w3.org/2000/svg">
  <g transform="matrix(1.0, 0.0, 0.0, 1.0, 80.0, 40.0)">
    <path d="M50.0 -34.0 Q62.0 -34.0 62.0 -22.0 L62.0 18.0 Q62.0 30.0 50.0 30.0 L-50.0 30.0 Q-62.0 30.0 -62.0 18.0 L-62.0 -22.0 Q-62.0 -34.0 -50.0 -34.0 L50.0 -34.0 M58.0 -22.0 Q58.0 -30.0 50.0 -30.0 L-50.0 -30.0 Q-58.0 -30.0 -58.0 -22.0 L-58.0 18.0 Q-58.0 26.0 -50.0 26.0 L50.0 26.0 Q58.0 26.0 58.0 18.0 L58.0 -22.0" fill="#e2c88b" fill-rule="evenodd" stroke="none"/>
    <path d="M43.0 -14.9 L43.0 11.1 4.0 11.1 4.0 -14.9 43.0 -14.9 M-4.0 -14.9 L-4.0 11.1 -43.0 11.1 -43.0 -14.9 -4.0 -14.9" fill="#403200" fill-rule="evenodd" stroke="none"/>
    <path d="M58.0 -22.0 L58.0 18.0 Q58.0 26.0 50.0 26.0 L-50.0 26.0 Q-58.0 26.0 -58.0 18.0 L-58.0 -22.0 Q-58.0 -30.0 -50.0 -30.0 L50.0 -30.0 Q58.0 -30.0 58.0 -22.0 M50.0 18.0 L50.0 -22.0 -50.0 -22.0 -50.0 18.0 50.0 18.0" fill="url(#gradient0)" fill-rule="evenodd" stroke="none"/>
    <path d="M43.0 -14.9 L4.0 -14.9 4.0 11.1 43.0 11.1 43.0 -14.9 M50.0 18.0 L-50.0 18.0 -50.0 -22.0 50.0 -22.0 50.0 18.0 M-4.0 -14.9 L-43.0 -14.9 -43.0 11.1 -4.0 11.1 -4.0 -14.9" fill="url(#gradient1)" fill-rule="evenodd" stroke="none"/>
    <path d="M7.9 -5.8 Q1.9 -0.6 1.35 -0.6 -0.4 -0.6 -5.8 -5.15 L-9.5 -8.3 Q-11.3 -9.75 -11.7 -9.75 -13.15 -9.75 -18.4 -3.75 L-22.15 0.3 Q-24.0 2.15 -24.7 2.15 -26.85 2.1 -29.5 -2.75 L-31.65 -6.8 Q-32.85 -9.05 -33.8 -10.05 L-39.4 -4.65 Q-43.7 -0.2 -44.5 -0.2 L-45.55 -0.35 Q-45.65 -2.3 -48.8 -7.55 L-52.85 -13.85 -58.05 -12.75 -59.75 -12.3 -68.15 -10.3 Q-69.15 -11.0 -69.1 -11.6 -69.1 -14.25 -65.7 -17.4 -62.55 -20.4 -58.0 -22.05 L-56.3 -22.6 -56.0 -22.75 -57.9 -22.95 Q-56.8 -28.75 -48.05 -28.75 L51.95 -28.75 Q61.95 -28.75 61.95 -21.25 L61.95 -11.05 56.25 -12.7 53.1 -6.15 Q50.65 -1.3 49.3 -1.3 47.5 -1.35 42.4 -6.55 L38.95 -10.15 37.1 -11.8 Q36.5 -11.8 30.8 -5.7 25.05 0.3 24.55 0.3 22.75 0.3 18.95 -5.35 L16.3 -9.25 Q14.95 -11.0 14.35 -11.0 13.95 -11.0 7.9 -5.8" fill="#000000" fill-opacity="0.2" fill-rule="evenodd" stroke="none"/>
    <path d="M9.05 -29.6 Q7.3 -28.85 7.3 -28.35 7.3 -27.85 7.55 -27.7 L8.25 -27.55 9.45 -28.2 Q10.4 -28.8 12.05 -28.8 L14.55 -28.5 17.0 -28.1 19.05 -28.5 Q20.25 -28.9 20.25 -29.4 L19.95 -30.0 19.3 -30.1 15.1 -29.75 13.95 -30.15 12.25 -30.4 Q10.8 -30.4 9.05 -29.6 M26.25 -36.35 L22.55 -36.95 19.3 -36.6 Q17.55 -36.25 17.6 -35.75 17.55 -35.25 17.85 -35.1 L18.55 -34.95 Q23.95 -36.5 25.55 -35.5 L26.4 -34.6 Q26.8 -34.1 27.45 -34.1 L30.15 -34.95 Q32.85 -35.75 34.6 -35.75 L35.6 -35.2 Q36.6 -34.65 37.35 -34.65 L38.5 -35.55 36.95 -36.55 Q35.35 -37.25 33.75 -37.25 L30.9 -36.5 27.85 -35.75 26.25 -36.35 M2.5 -18.4 L-1.05 -15.15 -4.35 -17.8 -4.45 -17.85 -8.1 -21.0 -8.2 -21.0 Q-11.95 -24.05 -14.0 -23.55 -17.55 -23.55 -24.2 -16.05 L-26.65 -13.3 -27.25 -14.4 -27.35 -14.55 -29.3 -18.3 -29.4 -18.45 Q-30.9 -21.15 -32.05 -22.35 -32.75 -23.1 -33.9 -23.5 L-36.25 -23.8 -38.45 -23.15 Q-39.8 -22.5 -45.05 -17.05 L-45.25 -16.85 -46.55 -19.15 -46.65 -19.35 -50.75 -25.7 Q-51.45 -26.8 -52.8 -27.3 L-52.85 -27.3 -55.75 -27.6 -63.1 -25.95 -64.0 -25.75 Q-61.0 -28.5 -56.6 -29.75 L-55.8 -30.05 -55.75 -30.1 -55.5 -30.25 -55.45 -30.25 Q-54.3 -30.85 -53.75 -31.8 -53.25 -32.8 -53.5 -33.8 -53.8 -34.8 -54.8 -35.55 -55.85 -36.3 -57.2 -36.45 L-57.25 -36.45 -62.8 -37.1 -65.25 -37.1 -64.1 -37.45 Q-57.8 -39.15 -48.0 -39.45 48.15 -39.15 52.95 -39.3 L56.85 -39.35 Q64.1 -39.2 70.5 -34.2 L70.65 -34.1 72.15 -32.85 66.0 -33.9 63.35 -34.45 60.4 -34.3 Q58.95 -33.85 58.2 -32.85 57.4 -31.8 57.6 -30.65 57.8 -29.5 58.95 -28.65 L62.5 -25.5 62.6 -25.4 63.65 -24.0 55.9 -26.25 55.95 -26.25 Q54.2 -26.8 52.5 -26.25 50.75 -25.7 50.05 -24.4 L46.85 -17.7 46.3 -16.65 44.1 -18.9 44.0 -19.05 40.65 -22.5 Q36.5 -26.8 34.1 -25.4 31.05 -24.35 25.1 -18.05 L25.0 -17.95 22.5 -15.15 21.15 -17.1 21.05 -17.25 18.35 -21.2 18.3 -21.3 Q14.8 -25.95 11.7 -24.7 L11.8 -24.7 Q8.9 -23.95 2.5 -18.45 L2.5 -18.4 M-12.3 -32.6 L-8.8 -32.25 Q-7.2 -32.1 -7.15 -32.8 L-7.2 -33.2 -7.25 -33.1 Q-8.5 -34.1 -12.1 -34.1 L-17.9 -33.5 -21.9 -32.9 Q-22.15 -32.9 -22.1 -33.0 L-22.1 -33.35 Q-22.4 -33.85 -25.45 -33.8 L-31.25 -33.3 Q-36.8 -32.75 -36.8 -32.3 L-36.7 -31.9 Q-36.25 -31.5 -34.5 -31.5 L-27.85 -32.3 -24.25 -32.25 -24.15 -31.4 -23.15 -31.25 -19.25 -31.95 -12.3 -32.6" fill="#00cc00" fill-rule="evenodd" stroke="none"/>
    <path d="M26.25 -36.35 L27.85 -35.75 30.9 -36.5 33.75 -37.25 Q35.35 -37.25 36.95 -36.55 L38.5 -35.55 37.35 -34.65 Q36.6 -34.65 35.6 -35.2 L34.6 -35.75 Q32.85 -35.75 30.15 -34.95 L27.45 -34.1 Q26.8 -34.1 26.4 -34.6 L25.55 -35.5 Q23.95 -36.5 18.55 -34.95 L17.85 -35.1 Q17.55 -35.25 17.6 -35.75 17.55 -36.25 19.3 -36.6 L22.55 -36.95 26.25 -36.35 M9.05 -29.6 Q10.8 -30.4 12.25 -30.4 L13.95 -30.15 15.1 -29.75 19.3 -30.1 19.95 -30.0 20.25 -29.4 Q20.25 -28.9 19.05 -28.5 L17.0 -28.1 14.55 -28.5 12.05 -28.8 Q10.4 -28.8 9.45 -28.2 L8.25 -27.55 7.55 -27.7 Q7.3 -27.85 7.3 -28.35 7.3 -28.85 9.05 -29.6 M-12.3 -32.6 L-19.25 -31.95 -23.15 -31.25 -24.15 -31.4 -24.25 -32.25 -27.85 -32.3 -34.5 -31.5 Q-36.25 -31.5 -36.7 -31.9 L-36.8 -32.3 Q-36.8 -32.75 -31.25 -33.3 L-25.45 -33.8 Q-22.4 -33.85 -22.1 -33.35 L-22.1 -33.0 Q-22.15 -32.9 -21.9 -32.9 L-17.9 -33.5 -12.1 -34.1 Q-8.5 -34.1 -7.25 -33.1 L-7.2 -33.2 -7.15 -32.8 Q-7.2 -32.1 -8.8 -32.25 L-12.3 -32.6" fill="#00ee00" fill-rule="evenodd" stroke="none"/>
    <path d="M14.3 -16.75 Q12.95 -18.5 12.35 -18.5 11.95 -18.5 5.9 -13.3 -0.1 -8.1 -0.65 -8.1 -2.4 -8.1 -7.8 -12.65 L-11.5 -15.8 -13.7 -17.25 Q-15.15 -17.25 -20.4 -11.25 L-24.15 -7.2 Q-26.0 -5.35 -26.7 -5.35 -28.85 -5.4 -31.5 -10.25 L-33.65 -14.3 Q-34.85 -16.55 -35.8 -17.55 L-41.4 -12.15 Q-45.7 -7.7 -46.5 -7.7 L-47.55 -7.85 Q-47.65 -9.8 -50.8 -15.05 L-54.85 -21.35 -61.75 -19.8 -70.15 -17.8 Q-71.15 -18.5 -71.1 -19.1 -71.1 -21.75 -67.7 -24.9 -63.95 -28.45 -58.3 -30.1 L-58.0 -30.25 -62.75 -30.85 -73.3 -30.4 -78.85 -29.8 Q-80.45 -30.2 -79.8 -30.7 -73.35 -35.7 -65.7 -37.8 -58.85 -39.7 -48.2 -40.0 50.9 -39.75 52.85 -39.85 L56.85 -39.9 Q65.85 -39.9 73.75 -33.75 76.4 -31.75 78.4 -29.4 80.0 -27.45 80.0 -27.0 79.95 -26.5 79.7 -26.3 L78.25 -26.1 Q72.75 -26.15 64.8 -27.75 L62.15 -28.25 66.35 -24.45 68.55 -21.45 Q69.95 -20.55 71.55 -15.9 L71.45 -15.2 54.25 -20.2 51.1 -13.65 Q48.65 -8.8 47.3 -8.8 45.5 -8.85 40.4 -14.05 L36.95 -17.65 35.1 -19.3 Q34.5 -19.3 28.8 -13.2 23.05 -7.2 22.55 -7.2 20.75 -7.2 16.95 -12.85 L14.3 -16.75 M2.5 -18.4 L2.5 -18.45 Q8.9 -23.95 11.8 -24.7 L11.7 -24.7 Q14.8 -25.95 18.3 -21.3 L18.35 -21.2 21.05 -17.25 21.15 -17.1 22.5 -15.15 25.0 -17.95 25.1 -18.05 Q31.05 -24.35 34.1 -25.4 36.5 -26.8 40.65 -22.5 L44.0 -19.05 44.1 -18.9 46.3 -16.65 46.85 -17.7 50.05 -24.4 Q50.75 -25.7 52.5 -26.25 54.2 -26.8 55.95 -26.25 L55.9 -26.25 63.65 -24.0 62.6 -25.4 62.5 -25.5 58.95 -28.65 Q57.8 -29.5 57.6 -30.65 57.4 -31.8 58.2 -32.85 58.95 -33.85 60.4 -34.3 L63.35 -34.45 66.0 -33.9 72.15 -32.85 70.65 -34.1 70.5 -34.2 Q64.1 -39.2 56.85 -39.35 L52.95 -39.3 Q48.15 -39.15 -48.0 -39.45 -57.8 -39.15 -64.1 -37.45 L-65.25 -37.1 -62.8 -37.1 -57.25 -36.45 -57.2 -36.45 Q-55.85 -36.3 -54.8 -35.55 -53.8 -34.8 -53.5 -33.8 -53.25 -32.8 -53.75 -31.8 -54.3 -30.85 -55.45 -30.25 L-55.5 -30.25 -55.75 -30.1 -55.8 -30.05 -56.6 -29.75 Q-61.0 -28.5 -64.0 -25.75 L-63.1 -25.95 -55.75 -27.6 -52.85 -27.3 -52.8 -27.3 Q-51.45 -26.8 -50.75 -25.7 L-46.65 -19.35 -46.55 -19.15 -45.25 -16.85 -45.05 -17.05 Q-39.8 -22.5 -38.45 -23.15 L-36.25 -23.8 -33.9 -23.5 Q-32.75 -23.1 -32.05 -22.35 -30.9 -21.15 -29.4 -18.45 L-29.3 -18.3 -27.35 -14.55 -27.25 -14.4 -26.65 -13.3 -24.2 -16.05 Q-17.55 -23.55 -14.0 -23.55 -11.95 -24.05 -8.2 -21.0 L-8.1 -21.0 -4.45 -17.85 -4.35 -17.8 -1.05 -15.15 2.5 -18.4" fill="#009900" fill-rule="evenodd" stroke="none"/>
  </g>
  <defs>
    <linearGradient gradientTransform="matrix(0.0, -0.0317, 0.0732, 0.0, 0.0, 0.0)" gradientUnits="userSpaceOnUse" id="gradient0" spreadMethod="pad" x1="-819.2" x2="819.2">
      <stop offset="0.0" stop-color="#d1b13e"/>
      <stop offset="1.0" stop-color="#b17c01"/>
    </linearGradient>
    <linearGradient gradientTransform="matrix(0.0, -0.0257, 0.061, 0.0, 0.0, -8.05)" gradientUnits="userSpaceOnUse" id="gradient1" spreadMethod="pad" x1="-819.2" x2="819.2">
      <stop offset="0.0" stop-color="#765f01"/>
      <stop offset="1.0" stop-color="#292101"/>
    </linearGradient>
  </defs>
</svg>
