<?xml version="1.0" encoding="UTF-8" standalone="no"?>
<svg xmlns:ffdec="https://www.free-decompiler.com/flash" xmlns:xlink="http://www.w3.org/1999/xlink" ffdec:objectType="shape" height="60.0px" width="180.0px" xmlns="http://www.w3.org/2000/svg">
  <g transform="matrix(1.0, 0.0, 0.0, 1.0, 90.0, 30.0)">
    <path d="M78.0 -10.8 Q78.0 -18.0 70.8 -18.0 L-70.8 -18.0 Q-78.0 -18.0 -78.0 -10.8 L-78.0 10.8 Q-78.0 18.0 -70.8 18.0 L70.8 18.0 Q78.0 18.0 78.0 10.8 L78.0 -10.8 M84.0 -10.8 L84.0 10.8 Q84.0 24.0 70.8 24.0 L-70.8 24.0 Q-84.0 24.0 -84.0 10.8 L-84.0 -10.8 Q-84.0 -24.0 -70.8 -24.0 L70.8 -24.0 Q84.0 -24.0 84.0 -10.8" fill="#862243" fill-rule="evenodd" stroke="none"/>
    <path d="M78.0 -10.8 L78.0 10.8 Q78.0 18.0 70.8 18.0 L-70.8 18.0 Q-78.0 18.0 -78.0 10.8 L-78.0 -10.8 Q-78.0 -18.0 -70.8 -18.0 L70.8 -18.0 Q78.0 -18.0 78.0 -10.8" fill="url(#gradient0)" fill-rule="evenodd" stroke="none"/>
    <path d="M70.8 -30.0 Q90.0 -30.0 90.0 -10.8 L90.0 10.8 Q90.0 30.0 70.8 30.0 L-70.8 30.0 Q-90.0 30.0 -90.0 10.8 L-90.0 -10.8 Q-90.0 -30.0 -70.8 -30.0 L70.8 -30.0 M84.0 -10.8 Q84.0 -24.0 70.8 -24.0 L-70.8 -24.0 Q-84.0 -24.0 -84.0 -10.8 L-84.0 10.8 Q-84.0 24.0 -70.8 24.0 L70.8 24.0 Q84.0 24.0 84.0 10.8 L84.0 -10.8" fill="url(#gradient1)" fill-rule="evenodd" stroke="none"/>
  </g>
  <defs>
    <linearGradient gradientTransform="matrix(0.0, 0.0183, -0.0952, 0.0, 0.0, -2.0)" gradientUnits="userSpaceOnUse" id="gradient0" spreadMethod="pad" x1="-819.2" x2="819.2">
      <stop offset="0.0" stop-color="#ee6699"/>
      <stop offset="1.0" stop-color="#cc3366"/>
    </linearGradient>
    <linearGradient gradientTransform="matrix(0.0, 0.0324, -0.1099, 0.0, 0.0, -1.5)" gradientUnits="userSpaceOnUse" id="gradient1" spreadMethod="pad" x1="-819.2" x2="819.2">
      <stop offset="0.0" stop-color="#f398ba"/>
      <stop offset="0.9882352941176471" stop-color="#ee6699"/>
    </linearGradient>
  </defs>
</svg>
