<?xml version="1.0" encoding="UTF-8" standalone="no"?>
<svg xmlns:ffdec="https://www.free-decompiler.com/flash" xmlns:xlink="http://www.w3.org/1999/xlink" ffdec:objectType="shape" height="60.0px" width="45.0px" xmlns="http://www.w3.org/2000/svg">
  <g transform="matrix(1.0, 0.0, 0.0, 1.0, 22.5, 30.0)">
    <path d="M22.1 -29.55 Q22.5 -29.1 22.5 -28.5 L22.5 -24.0 Q22.5 -23.45 22.1 -22.95 21.65 -22.5 21.0 -22.5 L20.25 -22.5 20.25 -14.05 20.6 -13.8 Q21.0 -13.4 21.0 -12.75 L21.0 -9.75 Q21.0 -9.15 20.6 -8.65 L20.25 -8.4 20.25 8.45 20.6 8.7 Q21.0 9.1 21.0 9.75 L21.0 12.75 Q21.0 13.35 20.6 13.85 L20.25 14.1 20.25 22.5 21.0 22.5 Q21.65 22.45 22.1 22.95 22.5 23.4 22.5 24.0 L22.5 28.5 Q22.5 29.05 22.1 29.55 21.65 30.0 21.0 30.0 L-21.0 30.0 -22.05 29.55 -22.5 28.5 -22.5 24.0 Q-22.5 23.35 -22.05 22.95 -21.65 22.45 -21.0 22.5 L-20.25 22.5 -20.25 14.1 -20.55 13.85 -21.0 12.75 -21.0 9.75 Q-21.0 9.1 -20.55 8.7 L-20.25 8.45 -20.25 -8.4 -20.55 -8.65 -21.0 -9.75 -21.0 -12.75 -20.55 -13.8 -20.25 -14.05 -20.25 -22.5 -21.0 -22.5 Q-21.65 -22.5 -22.05 -22.95 -22.5 -23.4 -22.5 -24.0 L-22.5 -28.5 -22.05 -29.55 Q-21.65 -30.05 -21.0 -30.0 L21.0 -30.0 Q21.65 -30.05 22.1 -29.55 M14.1 -28.5 L11.95 -28.5 -21.0 -28.5 -21.0 -24.0 -18.75 -24.0 -18.75 -22.5 -18.75 -12.75 -19.5 -12.75 -19.5 -9.75 -18.75 -9.75 -18.75 -8.25 -18.75 9.75 -19.5 9.75 -19.5 12.75 -18.75 12.75 -18.75 14.25 -18.75 24.0 -21.0 24.0 -21.0 28.5 21.0 28.5 21.0 24.0 18.75 24.0 18.75 14.25 18.75 12.75 19.5 12.75 19.5 9.75 18.75 9.75 18.75 -8.25 18.75 -9.75 19.5 -9.75 19.5 -12.75 18.75 -12.75 18.75 -22.5 18.75 -24.0 21.0 -24.0 21.0 -28.5 14.1 -28.5" fill="#000000" fill-rule="evenodd" stroke="none"/>
    <path d="M11.95 -28.5 L14.1 -28.5 11.25 -26.2 11.95 -28.5" fill="url(#gradient0)" fill-rule="evenodd" stroke="none"/>
    <path d="M14.1 -28.5 L21.0 -28.5 21.0 -24.0 18.75 -24.0 -18.75 -24.0 -21.0 -24.0 -21.0 -28.5 11.95 -28.5 11.25 -26.2 14.1 -28.5" fill="url(#gradient1)" fill-rule="evenodd" stroke="none"/>
    <path d="M18.75 -24.0 L18.75 -22.5 -18.75 -22.5 -18.75 -24.0 18.75 -24.0" fill="url(#gradient2)" fill-rule="evenodd" stroke="none"/>
    <path d="M18.75 -9.75 L18.75 -8.25 -18.75 -8.25 -18.75 -9.75 18.75 -9.75" fill="url(#gradient3)" fill-rule="evenodd" stroke="none"/>
    <path d="M18.75 -12.75 L19.5 -12.75 19.5 -9.75 18.75 -9.75 -18.75 -9.75 -19.5 -9.75 -19.5 -12.75 -18.75 -12.75 18.75 -12.75" fill="url(#gradient4)" fill-rule="evenodd" stroke="none"/>
    <path d="M18.75 -22.5 L18.75 -12.75 -18.75 -12.75 -18.75 -22.5 18.75 -22.5" fill="url(#gradient5)" fill-rule="evenodd" stroke="none"/>
    <path d="M18.75 9.75 L19.5 9.75 19.5 12.75 18.75 12.75 -18.75 12.75 -19.5 12.75 -19.5 9.75 -18.75 9.75 18.75 9.75" fill="url(#gradient6)" fill-rule="evenodd" stroke="none"/>
    <path d="M18.75 14.25 L18.75 24.0 8.75 24.0 6.8 24.0 4.5 24.0 2.1 24.0 -18.75 24.0 -18.75 14.25 18.75 14.25 M16.35 16.2 L15.55 17.4 16.35 18.6 17.15 17.4 16.35 16.2 M14.25 19.15 L13.25 20.65 14.25 22.15 15.25 20.65 14.25 19.15" fill="url(#gradient7)" fill-rule="evenodd" stroke="none"/>
    <path d="M18.75 12.75 L18.75 14.25 -18.75 14.25 -18.75 12.75 18.75 12.75" fill="url(#gradient8)" fill-rule="evenodd" stroke="none"/>
    <path d="M18.75 24.0 L21.0 24.0 21.0 28.5 -21.0 28.5 -21.0 24.0 -18.75 24.0 2.1 24.0 3.05 25.9 4.5 24.0 6.8 24.0 7.5 25.7 8.75 24.0 18.75 24.0" fill="url(#gradient9)" fill-rule="evenodd" stroke="none"/>
    <path d="M6.8 24.0 L8.75 24.0 7.5 25.7 6.8 24.0 M4.5 24.0 L3.05 25.9 2.1 24.0 4.5 24.0" fill="url(#gradient10)" fill-rule="evenodd" stroke="none"/>
    <path d="M16.35 16.2 L17.15 17.4 16.35 18.6 15.55 17.4 16.35 16.2" fill="url(#gradient11)" fill-rule="evenodd" stroke="none"/>
    <path d="M14.25 19.15 L15.25 20.65 14.25 22.15 13.25 20.65 14.25 19.15" fill="url(#gradient12)" fill-rule="evenodd" stroke="none"/>
    <path d="M18.75 -8.25 L18.75 9.75 -18.75 9.75 -18.75 -8.25 18.75 -8.25" fill="url(#gradient13)" fill-rule="evenodd" stroke="none"/>
    <path d="M2.65 -5.95 L3.6 -6.9 Q6.1 -5.6 7.35 -3.15 L6.45 -2.2 Q5.85 -3.5 4.9 -4.45 3.95 -5.4 2.65 -5.95 M1.7 -5.0 Q3.05 -4.55 4.05 -3.55 5.05 -2.6 5.5 -1.25 L4.45 -0.2 Q4.2 -1.7 3.2 -2.7 2.2 -3.75 0.65 -3.95 L1.7 -5.0 M2.3 -1.85 L2.95 -0.8 3.25 0.5 2.95 1.75 2.3 2.75 1.25 3.45 -0.05 3.7 -1.25 3.45 -2.3 2.8 -3.0 1.75 -3.2 0.5 -2.95 -0.8 -2.3 -1.85 -1.25 -2.5 0.0 -2.75 1.3 -2.5 2.3 -1.85 M0.55 -0.1 Q0.85 0.1 0.85 0.45 L0.55 1.05 0.0 1.3 -0.55 1.05 -0.85 0.45 Q-0.8 0.1 -0.55 -0.1 L0.0 -0.35 0.55 -0.1 M7.35 4.15 Q6.75 5.35 5.8 6.25 4.85 7.2 3.55 7.8 L2.65 6.9 4.9 5.4 Q5.85 4.45 6.4 3.15 L7.35 4.15 M2.05 0.5 Q2.05 -0.35 1.45 -0.95 0.85 -1.55 -0.05 -1.55 -0.85 -1.55 -1.45 -0.95 -2.05 -0.35 -2.05 0.45 -2.0 1.3 -1.4 1.9 -0.8 2.5 0.0 2.5 0.85 2.5 1.45 1.9 2.05 1.3 2.05 0.5 M0.65 4.9 Q2.15 4.75 3.15 3.7 4.2 2.65 4.45 1.15 L5.45 2.2 Q5.05 3.55 4.05 4.55 3.05 5.5 1.7 5.95 L0.65 4.9 M-7.35 -3.05 Q-6.75 -4.35 -5.8 -5.3 -4.85 -6.25 -3.65 -6.9 L-2.7 -5.95 Q-3.95 -5.4 -4.95 -4.45 -5.9 -3.5 -6.45 -2.2 L-7.35 -3.05 M-3.2 -2.7 Q-4.25 -1.7 -4.45 -0.2 L-5.45 -1.25 Q-5.05 -2.6 -4.1 -3.55 -3.05 -4.55 -1.7 -5.0 L-0.7 -3.95 Q-2.15 -3.75 -3.2 -2.7 M-4.0 2.5 L-3.2 3.65 -2.05 4.45 -0.65 4.9 -1.7 5.95 Q-3.05 5.5 -4.05 4.55 -5.05 3.55 -5.45 2.2 L-4.4 1.15 -4.0 2.5 M-6.45 3.1 Q-5.9 4.45 -4.9 5.4 -3.95 6.35 -2.65 6.9 L-3.65 7.9 Q-4.85 7.25 -5.8 6.25 -6.75 5.35 -7.35 4.05 L-6.45 3.1" fill="url(#gradient14)" fill-rule="evenodd" stroke="none"/>
    <path d="M-7.85 -14.05 L-10.9 -16.75 -12.4 -20.3 -9.35 -17.85 -7.85 -14.05 M-4.75 -15.65 L-7.8 -18.3 -9.3 -21.85 -6.25 -19.4 -4.75 -15.65" fill="url(#gradient15)" fill-rule="evenodd" stroke="none"/>
    <path d="M18.75 -24.0 L18.75 -12.75 19.5 -12.75 19.5 -9.75 18.75 -9.75 18.75 9.75 19.5 9.75 19.5 12.75 18.75 12.75 18.75 24.0 21.0 24.0 21.0 28.5 -14.75 28.5 Q-7.7 23.55 0.0 13.5 L0.55 12.75 3.3 12.75 5.4 9.75 2.75 9.75 Q8.6 1.3 11.9 -8.25 L12.4 -9.75 14.65 -9.75 15.45 -12.75 13.3 -12.75 Q14.55 -17.5 15.25 -22.5 L15.45 -24.0 17.5 -24.0 17.8 -28.5 21.0 -28.5 21.0 -24.0 18.75 -24.0" fill="url(#gradient16)" fill-rule="evenodd" stroke="none"/>
  </g>
  <defs>
    <linearGradient gradientTransform="matrix(0.0275, 0.0, 0.0, 0.0027, 0.0, -27.75)" gradientUnits="userSpaceOnUse" id="gradient0" spreadMethod="pad" x1="-819.2" x2="819.2">
      <stop offset="0.00392156862745098" stop-color="#83a673"/>
      <stop offset="0.3176470588235294" stop-color="#a1cc8e"/>
      <stop offset="1.0" stop-color="#667755"/>
    </linearGradient>
    <linearGradient gradientTransform="matrix(0.0275, 0.0, 0.0, 0.0027, 0.0, -27.75)" gradientUnits="userSpaceOnUse" id="gradient1" spreadMethod="pad" x1="-819.2" x2="819.2">
      <stop offset="0.00392156862745098" stop-color="#83a673"/>
      <stop offset="0.3176470588235294" stop-color="#a1cc8e"/>
      <stop offset="1.0" stop-color="#293223"/>
    </linearGradient>
    <linearGradient gradientTransform="matrix(0.0247, 0.0, 0.0, 0.0092, 0.0, -18.0)" gradientUnits="userSpaceOnUse" id="gradient2" spreadMethod="pad" x1="-819.2" x2="819.2">
      <stop offset="0.0" stop-color="#607a55"/>
      <stop offset="0.2901960784313726" stop-color="#87ab77"/>
      <stop offset="1.0" stop-color="#0b0f0a"/>
    </linearGradient>
    <linearGradient gradientTransform="matrix(0.0247, 0.0, 0.0, 0.0092, 0.0, 0.0)" gradientUnits="userSpaceOnUse" id="gradient3" spreadMethod="pad" x1="-819.2" x2="819.2">
      <stop offset="0.0" stop-color="#607a55"/>
      <stop offset="0.2901960784313726" stop-color="#87ab77"/>
      <stop offset="1.0" stop-color="#0b0f0a"/>
    </linearGradient>
    <linearGradient gradientTransform="matrix(0.0256, 0.0, 0.0, 0.0018, 0.0, -9.0)" gradientUnits="userSpaceOnUse" id="gradient4" spreadMethod="pad" x1="-819.2" x2="819.2">
      <stop offset="0.00392156862745098" stop-color="#83a673"/>
      <stop offset="0.3176470588235294" stop-color="#a1cc8e"/>
      <stop offset="1.0" stop-color="#293223"/>
    </linearGradient>
    <linearGradient gradientTransform="matrix(0.0247, 0.0, 0.0, 0.0092, 0.0, -18.0)" gradientUnits="userSpaceOnUse" id="gradient5" spreadMethod="pad" x1="-819.2" x2="819.2">
      <stop offset="0.0" stop-color="#79996a"/>
      <stop offset="0.3176470588235294" stop-color="#9bc488"/>
      <stop offset="1.0" stop-color="#21281c"/>
    </linearGradient>
    <linearGradient gradientTransform="matrix(0.0256, 0.0, 0.0, 0.0018, 0.0, 9.0)" gradientUnits="userSpaceOnUse" id="gradient6" spreadMethod="pad" x1="-819.2" x2="819.2">
      <stop offset="0.00392156862745098" stop-color="#83a673"/>
      <stop offset="0.3176470588235294" stop-color="#a1cc8e"/>
      <stop offset="1.0" stop-color="#293223"/>
    </linearGradient>
    <linearGradient gradientTransform="matrix(0.0247, 0.0, 0.0, 0.0092, 0.0, 18.0)" gradientUnits="userSpaceOnUse" id="gradient7" spreadMethod="pad" x1="-819.2" x2="819.2">
      <stop offset="0.0" stop-color="#79996a"/>
      <stop offset="0.3176470588235294" stop-color="#9bc488"/>
      <stop offset="1.0" stop-color="#21281c"/>
    </linearGradient>
    <linearGradient gradientTransform="matrix(0.0247, 0.0, 0.0, 0.0092, 0.0, 18.0)" gradientUnits="userSpaceOnUse" id="gradient8" spreadMethod="pad" x1="-819.2" x2="819.2">
      <stop offset="0.0" stop-color="#607a55"/>
      <stop offset="0.2901960784313726" stop-color="#87ab77"/>
      <stop offset="1.0" stop-color="#0b0f0a"/>
    </linearGradient>
    <linearGradient gradientTransform="matrix(0.0275, 0.0, 0.0, 0.0027, 0.0, 27.75)" gradientUnits="userSpaceOnUse" id="gradient9" spreadMethod="pad" x1="-819.2" x2="819.2">
      <stop offset="0.00392156862745098" stop-color="#83a673"/>
      <stop offset="0.3176470588235294" stop-color="#a1cc8e"/>
      <stop offset="1.0" stop-color="#293223"/>
    </linearGradient>
    <linearGradient gradientTransform="matrix(0.0275, 0.0, 0.0, 0.0027, 0.0, 27.75)" gradientUnits="userSpaceOnUse" id="gradient10" spreadMethod="pad" x1="-819.2" x2="819.2">
      <stop offset="0.00392156862745098" stop-color="#83a673"/>
      <stop offset="0.3176470588235294" stop-color="#a1cc8e"/>
      <stop offset="0.8" stop-color="#293223"/>
    </linearGradient>
    <linearGradient gradientTransform="matrix(0.0247, 0.0, 0.0, 0.0092, 0.0, 18.0)" gradientUnits="userSpaceOnUse" id="gradient11" spreadMethod="pad" x1="-819.2" x2="819.2">
      <stop offset="0.0" stop-color="#79996a"/>
      <stop offset="0.3176470588235294" stop-color="#9bc488"/>
      <stop offset="1.0" stop-color="#414b34"/>
    </linearGradient>
    <linearGradient gradientTransform="matrix(0.0247, 0.0, 0.0, 0.0092, 0.0, 18.0)" gradientUnits="userSpaceOnUse" id="gradient12" spreadMethod="pad" x1="-819.2" x2="819.2">
      <stop offset="0.0" stop-color="#79996a"/>
      <stop offset="0.3176470588235294" stop-color="#9cc083"/>
      <stop offset="1.0" stop-color="#445137"/>
    </linearGradient>
    <linearGradient gradientTransform="matrix(0.0247, 0.0, 0.0, 0.0092, 0.0, 0.0)" gradientUnits="userSpaceOnUse" id="gradient13" spreadMethod="pad" x1="-819.2" x2="819.2">
      <stop offset="0.0" stop-color="#79996a"/>
      <stop offset="0.3176470588235294" stop-color="#9bc488"/>
      <stop offset="1.0" stop-color="#21281c"/>
    </linearGradient>
    <linearGradient gradientTransform="matrix(0.0077, 0.0, 0.0, 0.009, 0.15, 0.5)" gradientUnits="userSpaceOnUse" id="gradient14" spreadMethod="pad" x1="-819.2" x2="819.2">
      <stop offset="0.0" stop-color="#e3e33e"/>
      <stop offset="1.0" stop-color="#95ac34"/>
    </linearGradient>
    <linearGradient gradientTransform="matrix(0.0321, 0.0, 0.0, 0.0119, 2.6, -18.95)" gradientUnits="userSpaceOnUse" id="gradient15" spreadMethod="pad" x1="-819.2" x2="819.2">
      <stop offset="0.0" stop-color="#79996a"/>
      <stop offset="0.30196078431372547" stop-color="#d6e2c7"/>
      <stop offset="1.0" stop-color="#21281c"/>
    </linearGradient>
    <linearGradient gradientTransform="matrix(0.0178, 0.0, 0.0, 0.0348, 8.2, 0.0)" gradientUnits="userSpaceOnUse" id="gradient16" spreadMethod="pad" x1="-819.2" x2="819.2">
      <stop offset="0.0" stop-color="#000000" stop-opacity="0.050980393"/>
      <stop offset="1.0" stop-color="#21291c" stop-opacity="0.15294118"/>
    </linearGradient>
  </defs>
</svg>
