<?xml version="1.0" encoding="UTF-8" standalone="no"?>
<svg xmlns:ffdec="https://www.free-decompiler.com/flash" xmlns:xlink="http://www.w3.org/1999/xlink" ffdec:objectType="shape" height="76.65px" width="74.25px" xmlns="http://www.w3.org/2000/svg">
  <g transform="matrix(1.0, 0.0, 0.0, 1.0, 37.9, 46.65)">
    <path d="M12.3 -42.0 L0.7 -35.8 -17.0 -34.45 -24.9 -30.0 -25.95 -33.9 Q-26.1 -34.5 -25.75 -35.0 -25.5 -35.6 -24.85 -35.7 L15.75 -46.6 16.9 -46.4 17.55 -45.5 18.45 -42.15 12.3 -42.0" fill="#993300" fill-rule="evenodd" stroke="none"/>
    <path d="M21.0 30.0 L-21.0 30.0 -22.05 29.55 -22.5 28.5 -22.5 24.0 -22.4 23.5 -11.25 26.75 -3.55 23.5 7.5 26.75 22.5 24.0 22.5 28.5 Q22.5 29.05 22.1 29.55 21.65 30.0 21.0 30.0" fill="#993300" fill-rule="evenodd" stroke="none"/>
    <path d="M-25.2 9.95 L-17.85 18.5 -30.4 15.15 -28.75 9.0 -25.2 9.95" fill="#993300" fill-rule="evenodd" stroke="none"/>
    <path d="M-15.1 13.5 L-8.55 9.7 -9.05 13.95 -15.1 13.5" fill="#993300" fill-rule="evenodd" stroke="none"/>
    <path d="M6.5 21.65 L6.6 21.75 -4.0 20.6 -6.45 18.55 -2.5 14.35 14.5 16.2 6.5 21.65" fill="#993300" fill-rule="evenodd" stroke="none"/>
    <path d="M20.35 20.0 L25.8 12.05 25.7 11.95 28.75 11.15 30.4 17.3 20.35 20.0" fill="#993300" fill-rule="evenodd" stroke="none"/>
    <path d="M19.65 14.6 L19.5 14.9 8.45 11.95 8.3 11.9 -3.9 8.6 -4.15 8.55 -21.05 4.05 -20.95 3.7 -19.95 0.85 -19.8 0.65 -12.0 2.7 -11.7 2.8 20.75 11.5 20.65 11.75 19.65 14.6" fill="#993300" fill-rule="evenodd" stroke="none"/>
    <path d="M18.65 -1.35 L22.6 -5.55 35.1 -0.3 34.4 6.05 3.3 2.75 10.1 -6.7 18.65 -1.35" fill="#993300" fill-rule="evenodd" stroke="none"/>
    <path d="M36.35 -11.55 L34.7 -5.4 24.3 -11.8 27.2 -14.0 36.35 -11.55" fill="#993300" fill-rule="evenodd" stroke="none"/>
    <path d="M-14.6 -4.3 L-14.7 -4.35 -20.2 -6.15 -1.45 -8.65 -3.2 -5.5 -3.25 -5.5 -3.25 -5.45 -5.65 -1.35 -14.6 -4.3" fill="#993300" fill-rule="evenodd" stroke="none"/>
    <path d="M-24.25 -10.1 L-27.4 2.1 -34.05 3.9 -37.9 -10.45 -33.05 -11.75 -24.25 -10.1" fill="#993300" fill-rule="evenodd" stroke="none"/>
    <path d="M21.0 -13.6 L20.65 -10.65 20.6 -10.3 10.1 -11.5 9.8 -11.55 -15.0 -14.4 -15.25 -14.4 -21.05 -15.1 -21.05 -15.45 -20.7 -18.4 -20.6 -18.7 21.05 -13.9 21.0 -13.6" fill="#993300" fill-rule="evenodd" stroke="none"/>
    <path d="M9.2 -18.6 L-13.6 -24.7 -10.15 -30.4 5.85 -26.15 9.2 -18.6" fill="#993300" fill-rule="evenodd" stroke="none"/>
    <path d="M29.0 -26.2 L25.8 -20.65 22.3 -22.65 21.05 -30.8 29.0 -26.2" fill="#993300" fill-rule="evenodd" stroke="none"/>
    <path d="M-19.8 -27.45 L-20.0 -20.75 -28.0 -18.6 -29.65 -24.8 -19.8 -27.45" fill="#993300" fill-rule="evenodd" stroke="none"/>
  </g>
</svg>
