<?xml version="1.0" encoding="UTF-8" standalone="no"?>
<svg xmlns:ffdec="https://www.free-decompiler.com/flash" xmlns:xlink="http://www.w3.org/1999/xlink" ffdec:objectType="shape" height="99.05px" width="116.0px" xmlns="http://www.w3.org/2000/svg">
  <g transform="matrix(1.0, 0.0, 0.0, 1.0, 53.0, 69.05)">
    <path d="M9.0 -69.0 L9.9 -68.25 11.6 -65.3 5.7 -63.55 -3.85 -54.55 -20.6 -48.65 -27.1 -42.35 -29.05 -45.75 Q-29.4 -46.35 -29.2 -46.95 -29.1 -47.55 -28.5 -47.8 L7.85 -68.8 9.0 -69.0 M39.25 -52.7 L40.5 -44.55 20.05 -56.35 24.9 -60.95 39.25 -52.7 M2.25 -39.05 L-2.45 -42.5 -2.25 -42.8 -0.45 -45.2 -0.3 -45.45 33.45 -20.5 33.25 -20.25 31.5 -17.85 31.25 -17.55 22.75 -23.85 22.5 -24.05 2.45 -38.85 2.25 -39.05 M1.9 -13.6 L-7.05 -16.55 -7.2 -16.6 -12.7 -18.4 6.0 -20.85 4.3 -17.75 4.25 -17.75 1.9 -13.6 M40.45 -14.4 L47.4 -7.05 52.25 -10.05 63.0 -1.8 60.7 4.2 31.5 -7.05 40.45 -14.4 M51.35 -35.5 L48.55 -38.35 49.45 -46.55 55.95 -40.05 51.35 -35.5 M48.6 -27.55 L55.3 -20.85 50.8 -16.35 45.0 -27.05 48.6 -27.55 M49.1 26.05 L54.55 18.05 54.45 18.0 57.55 17.15 59.2 23.35 49.1 26.05 M23.0 16.4 L20.55 14.25 24.55 10.1 41.5 11.95 33.55 17.45 33.6 17.55 23.0 16.4 M11.05 9.2 L9.65 11.85 9.45 12.15 -1.0 7.65 -1.2 7.55 -12.75 2.6 -13.0 2.5 -29.05 -4.4 -28.9 -4.75 -27.5 -7.4 -27.35 -7.65 -19.95 -4.45 -19.65 -4.35 11.2 8.9 11.05 9.2 M22.1 29.55 Q21.65 30.0 21.0 30.0 L-21.0 30.0 -22.05 29.55 -22.5 28.5 -22.5 24.0 -22.4 23.5 -11.25 26.75 -3.55 23.5 7.5 26.75 22.5 24.0 22.5 28.5 Q22.5 29.05 22.1 29.55 M-53.0 -15.05 L-48.65 -17.6 -39.75 -18.25 -39.6 -5.65 -45.6 -2.2 -53.0 -15.05 M-40.25 -27.85 L-41.9 -34.05 -32.1 -36.7 -32.25 -30.0 -40.25 -27.85 M-17.8 13.95 L-23.85 13.5 -17.25 9.7 -17.8 13.95 M-34.65 22.7 L-43.85 13.5 -39.35 8.95 -36.75 11.55 -34.65 22.7" fill="#660000" fill-rule="evenodd" stroke="none"/>
  </g>
</svg>
