<?xml version="1.0" encoding="UTF-8" standalone="no"?>
<svg xmlns:ffdec="https://www.free-decompiler.com/flash" xmlns:xlink="http://www.w3.org/1999/xlink" ffdec:objectType="shape" height="104.25px" width="132.65px" xmlns="http://www.w3.org/2000/svg">
  <g transform="matrix(1.0, 0.0, 0.0, 1.0, 62.2, 74.25)">
    <path d="M22.25 -50.7 L22.25 -54.3 39.35 -41.7 39.2 -41.5 37.8 -39.55 37.6 -39.35 30.8 -44.4 30.6 -44.55 22.25 -50.7 M46.5 -66.4 L46.5 -60.5 34.6 -67.35 38.5 -71.05 46.5 -66.4 M8.3 -28.9 L8.25 -28.9 6.35 -25.55 -0.8 -27.95 -0.9 -27.95 -5.3 -29.4 9.65 -31.35 8.3 -28.9 M1.55 -6.7 L0.4 -4.55 0.25 -4.3 -8.1 -7.9 -8.25 -8.0 -10.25 -8.85 -10.25 -12.0 1.65 -6.9 1.55 -6.7 M65.25 -45.45 L70.45 -40.25 66.8 -36.6 64.55 -38.9 65.25 -45.45 M56.65 -32.15 L62.05 -26.8 58.45 -23.2 53.8 -31.75 56.65 -32.15 M55.8 -9.8 L61.35 -3.9 65.25 -6.3 65.5 -6.1 65.5 2.6 48.65 -3.9 55.8 -9.8 M47.8 20.95 L47.8 21.05 39.35 20.1 37.4 18.4 40.6 15.1 54.15 16.55 47.8 20.95 M22.1 29.55 Q21.65 30.0 21.0 30.0 L-21.0 30.0 -22.05 29.55 -22.5 28.5 -22.5 24.0 -22.4 23.5 -11.25 26.75 -3.55 23.5 7.5 26.75 22.5 24.0 22.5 28.5 Q22.5 29.05 22.1 29.55 M-34.8 -61.25 L-39.95 -56.2 -41.55 -58.95 Q-41.8 -59.4 -41.65 -59.9 -41.6 -60.4 -41.1 -60.6 L-17.5 -74.25 -17.5 -69.65 -21.35 -66.0 -34.8 -61.25 M-47.55 -42.05 L-47.7 -36.7 -54.1 -34.95 -55.45 -39.95 -47.55 -42.05 M-55.8 -19.9 L-55.7 -9.85 -60.45 -7.05 -60.5 -7.1 -60.5 -19.55 -55.8 -19.9 M-22.5 -15.75 L-22.5 -14.15 -30.55 -17.6 -30.45 -17.85 -29.3 -19.95 -29.15 -20.2 -23.25 -17.6 -23.05 -17.5 -18.9 -15.75 -22.5 -15.75 M-62.2 9.95 L-58.55 6.3 -56.5 8.4 -54.85 17.3 -62.2 9.95" fill="#660000" fill-rule="evenodd" stroke="none"/>
  </g>
</svg>
