<?xml version="1.0" encoding="UTF-8" standalone="no"?>
<svg xmlns:ffdec="https://www.free-decompiler.com/flash" xmlns:xlink="http://www.w3.org/1999/xlink" ffdec:objectType="shape" height="100.8px" width="145.35px" xmlns="http://www.w3.org/2000/svg">
  <g transform="matrix(1.0, 0.0, 0.0, 1.0, 71.75, 70.8)">
    <path d="M70.45 -40.25 L66.8 -36.6 64.55 -38.9 65.25 -45.45 70.45 -40.25 M50.35 -27.55 L42.0 -33.7 42.0 -37.3 59.1 -24.7 58.95 -24.5 57.55 -22.55 57.35 -22.35 50.55 -27.4 50.35 -27.55 M66.4 -17.25 L70.7 -13.0 67.8 -10.1 64.1 -16.95 66.4 -17.25 M64.35 11.2 L67.85 6.65 70.3 9.0 73.4 7.05 73.6 7.25 73.6 14.2 64.35 11.2 M57.9 22.55 L52.25 26.45 52.25 21.95 57.9 22.55 M-10.3 -52.7 L-10.4 -52.7 -14.8 -54.15 0.15 -56.1 -1.2 -53.65 -1.25 -53.65 -3.15 -50.3 -10.3 -52.7 M-50.5 -70.8 L-50.5 -65.95 -58.8 -63.0 -62.25 -59.65 -62.25 -64.0 -50.5 -70.8 M-71.75 -24.75 L-66.95 -24.75 -66.95 -22.6 -71.7 -19.8 -71.75 -19.85 -71.75 -24.75 M-20.6 -6.9 L-20.7 -6.7 -21.85 -4.55 -22.0 -4.3 -30.35 -7.9 -30.5 -8.0 -32.5 -8.85 -32.5 -12.0 -20.6 -6.9 M-66.95 15.7 L-63.3 12.05 -61.25 14.15 -59.6 23.05 -66.95 15.7" fill="#000000" fill-rule="evenodd" stroke="none"/>
    <path d="M21.0 30.0 L-21.0 30.0 -22.05 29.55 -22.5 28.5 -22.5 24.0 -22.4 23.5 -11.25 26.75 -3.55 23.5 7.5 26.75 22.5 24.0 22.5 28.5 Q22.5 29.05 22.1 29.55 21.65 30.0 21.0 30.0" fill="#000000" fill-rule="evenodd" stroke="none"/>
  </g>
</svg>
