<?xml version="1.0" encoding="UTF-8" standalone="no"?>
<svg xmlns:ffdec="https://www.free-decompiler.com/flash" xmlns:xlink="http://www.w3.org/1999/xlink" ffdec:objectType="shape" height="244.0px" width="239.0px" xmlns="http://www.w3.org/2000/svg">
  <g transform="matrix(1.0, 0.0, 0.0, 1.0, 120.0, 121.0)">
    <path d="M-50.95 -30.45 L-52.0 -40.0 -23.0 -51.0 0.0 -20.0 39.0 2.0 47.0 32.0 45.85 37.5 39.0 70.0 48.0 120.0 -45.0 120.0 -37.15 86.25 -35.0 77.0 -54.0 42.0 -48.0 -4.0 -50.95 -30.45" fill="#000000" fill-rule="evenodd" stroke="none"/>
    <path d="M-9.4 -58.75 L12.0 -30.0 35.85 -16.3 39.0 2.0 0.0 -20.0 -23.0 -51.0 -52.0 -40.0 -50.95 -30.45 -68.15 -41.05 -69.0 -49.0 -17.0 -69.0 -9.4 -58.75" fill="url(#gradient0)" fill-rule="evenodd" stroke="none"/>
    <path d="M35.85 -16.3 L12.0 -30.0 -9.4 -58.75 -4.1 -85.7 27.0 -42.0 59.0 -26.35 49.1 -8.65 35.85 -16.3" fill="url(#gradient1)" fill-rule="evenodd" stroke="none"/>
    <path d="M49.1 -8.65 L59.0 -26.35 74.0 -19.0 90.0 40.0 80.0 80.0 58.45 53.8 60.7 40.75 62.0 33.0 55.1 5.3 52.0 -7.0 49.3 -8.55 49.1 -8.65 M80.0 80.0 L90.0 120.0 88.8 120.0 88.4 120.0 76.95 120.0 80.0 80.0" fill="url(#gradient2)" fill-rule="evenodd" stroke="none"/>
    <path d="M90.0 120.0 L88.8 120.0 90.0 120.0 M65.2 120.0 L63.95 120.0 65.2 120.0 M-60.0 120.0 L-90.0 120.0 -60.0 120.0 M-84.75 70.5 L-85.2 69.6 -84.95 70.05 -84.75 70.5 M-54.15 72.7 L-54.2 72.6 -53.9 73.15 -54.05 72.9 -54.2 72.6 -54.05 72.9 -54.15 72.7" fill="#00ffff" fill-opacity="0.49803922" fill-rule="evenodd" stroke="none"/>
    <path d="M-88.75 -7.85 L-90.35 -8.1 -90.0 -10.0 -100.0 -50.0 -80.0 -90.0 -88.75 -7.85" fill="url(#gradient3)" fill-rule="evenodd" stroke="none"/>
    <path d="M-85.2 69.6 L-100.0 40.0 -90.35 -8.1 -88.75 -7.85 -77.25 60.0 -84.95 70.05 -85.2 69.6" fill="url(#gradient4)" fill-rule="evenodd" stroke="none"/>
    <path d="M-9.4 -58.75 L-17.0 -69.0 -69.0 -49.0 -68.15 -41.05 -64.5 -6.1 -70.0 41.0 -54.2 72.6 -54.15 72.7 -77.25 60.0 -88.75 -7.85 -80.0 -90.0 -40.0 -80.0 -10.0 -94.0 -4.1 -85.7 -9.4 -58.75" fill="url(#gradient5)" fill-rule="evenodd" stroke="none"/>
    <path d="M-68.15 -41.05 L-50.95 -30.45 -48.0 -4.0 -54.0 42.0 -35.0 77.0 -37.15 86.25 -51.2 79.95 -51.0 79.0 -53.65 73.7 -53.9 73.15 -54.2 72.6 -70.0 41.0 -64.5 -6.1 -68.15 -41.05" fill="url(#gradient6)" fill-rule="evenodd" stroke="none"/>
    <path d="M-90.0 120.0 L-80.0 80.0 -84.75 70.5 -84.95 70.05 -77.25 60.0 -54.15 72.7 -54.05 72.9 -53.9 73.15 -53.65 73.7 -51.0 79.0 -51.2 79.95 -60.0 120.0 -90.0 120.0 M-53.65 73.7 L-54.05 72.9 -53.65 73.7" fill="url(#gradient7)" fill-rule="evenodd" stroke="none"/>
    <path d="M-45.0 120.0 L-60.0 120.0 -51.2 79.95 -37.15 86.25 -45.0 120.0" fill="url(#gradient8)" fill-rule="evenodd" stroke="none"/>
    <path d="M55.1 5.3 L62.0 33.0 60.7 40.75 45.85 37.5 47.0 32.0 39.0 2.0 55.1 5.3" fill="url(#gradient9)" fill-rule="evenodd" stroke="none"/>
    <path d="M60.7 40.75 L58.45 53.8 55.0 74.0 63.95 120.0 48.0 120.0 39.0 70.0 45.85 37.5 60.7 40.75" fill="url(#gradient10)" fill-rule="evenodd" stroke="none"/>
    <path d="M58.45 53.8 L80.0 80.0 76.95 120.0 65.6 120.0 65.2 120.0 63.95 120.0 55.0 74.0 58.45 53.8" fill="url(#gradient11)" fill-rule="evenodd" stroke="none"/>
    <path d="M39.0 2.0 L35.85 -16.3 49.1 -8.65 49.3 -8.55 52.0 -7.0 55.1 5.3 39.0 2.0" fill="#71727d" fill-rule="evenodd" stroke="none"/>
    <path d="M35.85 -16.3 L12.0 -30.0 -9.4 -58.75 -17.0 -69.0 -69.0 -49.0 -68.15 -41.05 -64.5 -6.1 -70.0 41.0 -54.2 72.6 -54.05 72.9 -53.65 73.7 -51.0 79.0 -51.2 79.95 -60.0 120.0 M35.85 -16.3 L49.1 -8.65 M49.3 -8.55 L52.0 -7.0 55.1 5.3 62.0 33.0 60.7 40.75 58.45 53.8 55.0 74.0 63.95 120.0" fill="none" stroke="#484952" stroke-linecap="round" stroke-linejoin="round" stroke-width="2.0"/>
    <path d="M59.0 -26.35 L27.0 -42.0 -4.1 -85.7 -10.0 -94.0 -40.0 -80.0 -80.0 -90.0 -90.0 -110.0 -116.0 -118.0 M80.0 80.0 L90.0 40.0 74.0 -19.0 59.0 -26.35 M80.0 80.0 L90.0 120.0 M-90.0 120.0 L-80.0 80.0 -84.75 70.5 -85.2 69.6 -100.0 40.0 -107.0 48.0 -117.0 83.0 M96.0 -57.0 L90.0 -28.3 110.0 -40.0 M74.0 -19.0 L90.0 -28.3 M90.0 40.0 L106.0 49.0 116.0 39.0 M116.0 69.0 L106.0 49.0 M-12.0 -117.0 L-2.0 -108.0 23.0 -118.0 M-90.35 -8.1 L-100.0 40.0 M-80.0 -90.0 L-100.0 -50.0 -90.0 -10.0 -90.35 -8.1 M-73.0 -118.0 L-90.0 -110.0 M-2.0 -108.0 L-10.0 -94.0 M-107.0 48.0 L-117.0 44.0" fill="none" stroke="#ffffff" stroke-linecap="round" stroke-linejoin="round" stroke-opacity="0.2" stroke-width="6.0"/>
    <path d="M23.0 -118.0 L-2.0 -108.0 -10.0 -94.0 27.0 -42.0 74.0 -19.0 90.0 -28.3 96.0 -57.0 M90.0 -28.3 L110.0 -40.0 M-12.0 -117.0 L-2.0 -108.0 M-117.0 44.0 L-107.0 48.0 -100.0 40.0 -90.0 -10.0 -100.0 -50.0 -80.0 -90.0 -90.0 -110.0 -116.0 -118.0 M-80.0 -90.0 L-40.0 -80.0 -10.0 -94.0 M-73.0 -118.0 L-90.0 -110.0 M-117.0 83.0 L-107.0 48.0 M-90.0 120.0 L-80.0 80.0 -100.0 40.0 M74.0 -19.0 L90.0 40.0 106.0 49.0 116.0 39.0 M116.0 69.0 L106.0 49.0 M90.0 40.0 L80.0 80.0 90.0 120.0" fill="none" stroke="#484952" stroke-linecap="round" stroke-linejoin="round" stroke-width="2.0"/>
  </g>
  <defs>
    <linearGradient gradientTransform="matrix(-0.0307, -0.0665, 0.0654, -0.0302, -9.7, -26.05)" gradientUnits="userSpaceOnUse" id="gradient0" spreadMethod="pad" x1="-819.2" x2="819.2">
      <stop offset="0.0" stop-color="#94949e"/>
      <stop offset="1.0" stop-color="#50505c"/>
    </linearGradient>
    <linearGradient gradientTransform="matrix(0.0055, -0.0784, 0.053, 0.0037, 31.7, -62.05)" gradientUnits="userSpaceOnUse" id="gradient1" spreadMethod="pad" x1="-819.2" x2="819.2">
      <stop offset="0.0" stop-color="#a2a2bb"/>
      <stop offset="1.0" stop-color="#6a6b78"/>
    </linearGradient>
    <linearGradient gradientTransform="matrix(-0.036, -0.0097, 0.0262, -0.0977, 51.4, 115.85)" gradientUnits="userSpaceOnUse" id="gradient2" spreadMethod="pad" x1="-819.2" x2="819.2">
      <stop offset="0.0" stop-color="#a2a2bb"/>
      <stop offset="1.0" stop-color="#4d4e55"/>
    </linearGradient>
    <linearGradient gradientTransform="matrix(0.0, -0.0533, 0.0268, 0.0, -98.0, -62.45)" gradientUnits="userSpaceOnUse" id="gradient3" spreadMethod="pad" x1="-819.2" x2="819.2">
      <stop offset="0.0" stop-color="#a7a8be"/>
      <stop offset="1.0" stop-color="#757782"/>
    </linearGradient>
    <linearGradient gradientTransform="matrix(0.0, -0.0589, 0.0261, 0.0, -98.65, 54.15)" gradientUnits="userSpaceOnUse" id="gradient4" spreadMethod="pad" x1="-819.2" x2="819.2">
      <stop offset="0.0" stop-color="#a7a8be"/>
      <stop offset="1.0" stop-color="#757782"/>
    </linearGradient>
    <linearGradient gradientTransform="matrix(0.0, 0.07, -0.058, 0.0, -41.25, -23.9)" gradientUnits="userSpaceOnUse" id="gradient5" spreadMethod="pad" x1="-819.2" x2="819.2">
      <stop offset="0.0" stop-color="#88889e"/>
      <stop offset="1.0" stop-color="#414247"/>
    </linearGradient>
    <linearGradient gradientTransform="matrix(0.0265, 0.0384, -0.0524, 0.0361, -56.2, 21.2)" gradientUnits="userSpaceOnUse" id="gradient6" spreadMethod="pad" x1="-819.2" x2="819.2">
      <stop offset="0.0" stop-color="#8c8ca1"/>
      <stop offset="1.0" stop-color="#40404a"/>
    </linearGradient>
    <linearGradient gradientTransform="matrix(-0.0371, 0.0, 0.0, -0.0366, -62.2, 90.0)" gradientUnits="userSpaceOnUse" id="gradient7" spreadMethod="pad" x1="-819.2" x2="819.2">
      <stop offset="0.0" stop-color="#a2a2bb"/>
      <stop offset="1.0" stop-color="#6a6b78"/>
    </linearGradient>
    <linearGradient gradientTransform="matrix(-0.048, -0.0059, 0.0046, -0.0371, -60.05, 96.55)" gradientUnits="userSpaceOnUse" id="gradient8" spreadMethod="pad" x1="-819.2" x2="819.2">
      <stop offset="0.0" stop-color="#7f7f96"/>
      <stop offset="1.0" stop-color="#484952"/>
    </linearGradient>
    <linearGradient gradientTransform="matrix(-0.0149, -0.0259, 0.0557, -0.032, 96.7, 35.2)" gradientUnits="userSpaceOnUse" id="gradient9" spreadMethod="pad" x1="-819.2" x2="819.2">
      <stop offset="0.0" stop-color="#8c8ca1"/>
      <stop offset="1.0" stop-color="#5d5e69"/>
    </linearGradient>
    <linearGradient gradientTransform="matrix(0.015, 0.026, -0.0519, 0.03, 54.3, 82.1)" gradientUnits="userSpaceOnUse" id="gradient10" spreadMethod="pad" x1="-819.2" x2="819.2">
      <stop offset="0.0" stop-color="#6c6c8a"/>
      <stop offset="1.0" stop-color="#2e2e36"/>
    </linearGradient>
    <linearGradient gradientTransform="matrix(0.0287, 0.0287, -0.0419, 0.0419, 33.9, 89.65)" gradientUnits="userSpaceOnUse" id="gradient11" spreadMethod="pad" x1="-819.2" x2="819.2">
      <stop offset="0.0" stop-color="#88889e"/>
      <stop offset="1.0" stop-color="#414247"/>
    </linearGradient>
  </defs>
</svg>
