<?xml version="1.0" encoding="UTF-8" standalone="no"?>
<svg xmlns:ffdec="https://www.free-decompiler.com/flash" xmlns:xlink="http://www.w3.org/1999/xlink" ffdec:objectType="shape" height="190.0px" width="200.0px" xmlns="http://www.w3.org/2000/svg">
  <g transform="matrix(1.0, 0.0, 0.0, 1.0, 100.0, 70.0)">
    <path d="M70.75 -40.7 Q100.0 -11.4 100.0 30.0 100.0 71.4 70.7 100.65 L70.7 100.7 66.1 105.0 60.1 110.0 Q52.5 115.85 44.2 120.0 L-44.2 120.0 Q-52.55 115.85 -60.15 110.0 -63.2 107.65 -66.15 105.0 L-70.7 100.75 -70.75 100.65 Q-100.0 71.4 -100.0 30.0 -100.0 -11.45 -70.75 -40.75 L-70.75 -40.8 Q-61.05 -50.5 -50.0 -56.95 -27.7 -70.0 0.0 -70.0 27.75 -70.0 50.0 -56.9 61.0 -50.45 70.7 -40.8 L70.75 -40.7" fill="#ff0000" fill-rule="evenodd" stroke="none"/>
  </g>
</svg>
