<?xml version="1.0" encoding="UTF-8" standalone="no"?>
<svg xmlns:ffdec="https://www.free-decompiler.com/flash" xmlns:xlink="http://www.w3.org/1999/xlink" ffdec:objectType="shape" height="232.0px" width="182.0px" xmlns="http://www.w3.org/2000/svg">
  <g transform="matrix(1.0, 0.0, 0.0, 1.0, 91.0, 111.0)">
    <path d="M70.0 -20.0 L-60.0 -20.0 -60.0 120.0 -70.0 120.0 -70.0 -30.0 70.0 -30.0 70.0 -20.0" fill="#000000" fill-opacity="0.3019608" fill-rule="evenodd" stroke="none"/>
    <path d="M59.25 -50.0 L69.35 -50.0 Q70.0 -45.15 70.0 -40.0 L60.0 -40.0 Q60.0 -45.15 59.25 -50.0 M-70.0 -40.0 Q-70.0 -45.15 -69.35 -50.0 L-59.25 -50.0 Q-60.0 -45.15 -60.0 -40.0 L-70.0 -40.0" fill="#acacac" fill-rule="evenodd" stroke="none"/>
    <path d="M-59.25 -50.0 Q-58.45 -55.2 -56.75 -60.0 -52.45 -72.4 -42.45 -82.45 -24.85 -100.0 0.0 -100.0 24.85 -100.0 42.4 -82.45 52.45 -72.4 56.75 -60.0 58.45 -55.2 59.25 -50.0 60.0 -45.15 60.0 -40.0 L70.0 -40.0 80.0 -40.0 80.0 120.0 70.0 120.0 70.0 -30.0 -70.0 -30.0 -70.0 120.0 -80.0 120.0 -80.0 -40.0 -70.0 -40.0 -60.0 -40.0 Q-60.0 -45.15 -59.25 -50.0 M28.25 -68.3 Q16.55 -80.0 0.0 -80.0 -16.55 -80.0 -28.3 -68.3 -40.0 -56.55 -40.0 -40.0 L40.0 -40.0 Q40.0 -56.55 28.25 -68.3" fill="url(#gradient0)" fill-rule="evenodd" stroke="none"/>
    <path d="M28.25 -68.3 Q40.0 -56.55 40.0 -40.0 L-40.0 -40.0 Q-40.0 -56.55 -28.3 -68.3 -16.55 -80.0 0.0 -80.0 16.55 -80.0 28.25 -68.3" fill="url(#gradient1)" fill-rule="evenodd" stroke="none"/>
    <path d="M69.35 -50.0 Q70.0 -45.15 70.0 -40.0 L80.0 -40.0 80.0 120.0 70.0 120.0 70.0 -30.0 -70.0 -30.0 -70.0 120.0 -80.0 120.0 -80.0 -40.0 -70.0 -40.0 Q-70.0 -45.15 -69.35 -50.0 M-59.25 -50.0 Q-60.0 -45.15 -60.0 -40.0 L-70.0 -40.0 M28.25 -68.3 Q40.0 -56.55 40.0 -40.0 L-40.0 -40.0 Q-40.0 -56.55 -28.3 -68.3 -16.55 -80.0 0.0 -80.0 16.55 -80.0 28.25 -68.3 M59.25 -50.0 Q60.0 -45.15 60.0 -40.0 L70.0 -40.0" fill="none" stroke="#999999" stroke-linecap="round" stroke-linejoin="round" stroke-width="2.0"/>
    <path d="M66.9 -56.0 L88.5 -56.0 88.5 -46.5 59.3 -46.5 Q58.5 -51.35 56.95 -55.85 L56.9 -56.0 Q55.35 -60.55 52.95 -64.7 49.15 -71.45 43.3 -77.3 26.6 -94.0 3.0 -94.0 -20.6 -94.0 -37.3 -77.3 -46.85 -67.8 -50.95 -56.0 -52.55 -51.4 -53.3 -46.5 L-82.5 -46.5 -82.5 -56.0 -60.9 -56.0 Q-56.4 -71.65 -44.0 -84.0 -24.55 -103.5 3.0 -103.5 30.55 -103.5 50.05 -84.0 62.4 -71.65 66.9 -56.0" fill="#000000" fill-opacity="0.14901961" fill-rule="evenodd" stroke="none"/>
    <path d="M67.3 -60.0 L90.0 -60.0 90.0 -50.0 59.25 -50.0 Q58.45 -55.2 56.75 -60.0 52.45 -72.4 42.4 -82.45 24.85 -100.0 0.0 -100.0 -24.85 -100.0 -42.45 -82.45 -52.45 -72.4 -56.75 -60.0 -58.45 -55.2 -59.25 -50.0 L-90.0 -50.0 -90.0 -60.0 -67.25 -60.0 Q-62.55 -76.45 -49.5 -89.5 -29.0 -110.0 0.0 -110.0 29.0 -110.0 49.5 -89.5 62.55 -76.45 67.3 -60.0" fill="#dddddd" fill-rule="evenodd" stroke="none"/>
    <path d="M67.3 -60.0 L90.0 -60.0 90.0 -50.0 59.25 -50.0 Q58.45 -55.2 56.75 -60.0 52.45 -72.4 42.4 -82.45 24.85 -100.0 0.0 -100.0 -24.85 -100.0 -42.45 -82.45 -52.45 -72.4 -56.75 -60.0 -58.45 -55.2 -59.25 -50.0 L-90.0 -50.0 -90.0 -60.0 -67.25 -60.0 Q-62.55 -76.45 -49.5 -89.5 -29.0 -110.0 0.0 -110.0 29.0 -110.0 49.5 -89.5 62.55 -76.45 67.3 -60.0 Z" fill="none" stroke="#999999" stroke-linecap="round" stroke-linejoin="round" stroke-width="2.0"/>
  </g>
  <defs>
    <linearGradient gradientTransform="matrix(0.0, 0.1312, -0.0977, 0.0, 0.0, 12.5)" gradientUnits="userSpaceOnUse" id="gradient0" spreadMethod="pad" x1="-819.2" x2="819.2">
      <stop offset="0.0" stop-color="#cccccc"/>
      <stop offset="1.0" stop-color="#999999"/>
    </linearGradient>
    <radialGradient cx="0" cy="0" gradientTransform="matrix(0.0509, 0.0, 0.0, 0.0509, 0.95, -48.0)" gradientUnits="userSpaceOnUse" id="gradient1" r="819.2" spreadMethod="pad">
      <stop offset="0.0" stop-color="#6699cc"/>
      <stop offset="1.0" stop-color="#336699"/>
    </radialGradient>
  </defs>
</svg>
