<?xml version="1.0" encoding="UTF-8" standalone="no"?>
<svg xmlns:ffdec="https://www.free-decompiler.com/flash" xmlns:xlink="http://www.w3.org/1999/xlink" ffdec:objectType="shape" height="204.0px" width="83.0px" xmlns="http://www.w3.org/2000/svg">
  <g transform="matrix(1.0, 0.0, 0.0, 1.0, 1.0, 82.0)">
    <path d="M0.0 -10.0 L0.0 -30.0 Q0.0 -49.15 20.0 -63.1 L23.4 -65.35 Q31.15 -70.2 40.0 -73.45 49.4 -76.9 60.0 -78.5 L75.1 -79.9 80.0 -80.0 80.0 120.0 60.0 120.0 40.0 120.0 20.0 120.0 0.0 120.0 0.0 100.0 Q9.65 100.1 20.0 98.2 29.1 96.55 38.8 93.3 39.0 95.45 40.0 97.2 40.85 98.75 42.35 100.0 46.15 96.65 45.85 93.3 L49.4 96.65 Q57.4 95.85 60.0 90.0 57.4 84.1 49.4 83.3 L45.85 86.65 Q46.15 83.3 42.35 80.0 40.85 81.2 40.0 82.75 39.0 84.5 38.8 86.65 29.1 83.4 20.0 81.75 9.65 79.85 0.0 80.0 L0.0 10.0 Q9.65 10.1 20.0 8.2 29.1 6.55 38.8 3.3 39.0 5.45 40.0 7.2 40.85 8.75 42.35 10.0 46.15 6.65 45.85 3.3 L49.4 6.65 Q57.4 5.85 60.0 0.0 57.4 -5.9 49.4 -6.7 L45.85 -3.35 Q46.15 -6.7 42.35 -10.0 40.85 -8.8 40.0 -7.25 39.0 -5.5 38.8 -3.35 29.1 -6.6 20.0 -8.25 9.65 -10.15 0.0 -10.0 M20.0 -63.1 L20.0 -8.25 20.0 -63.1 M40.0 -7.25 L40.0 -73.45 40.0 -7.25 M20.0 8.2 L20.0 81.75 20.0 8.2 M60.0 90.0 L60.0 120.0 60.0 90.0 60.0 0.0 60.0 -78.5 60.0 0.0 60.0 90.0 M20.0 98.2 L20.0 120.0 20.0 98.2 M40.0 120.0 L40.0 97.2 40.0 120.0 M40.0 82.75 L40.0 7.2 40.0 82.75" fill="url(#gradient0)" fill-rule="evenodd" stroke="none"/>
    <path d="M0.0 10.0 L0.0 -10.0 Q9.65 -10.15 20.0 -8.25 29.1 -6.6 38.8 -3.35 39.0 -5.5 40.0 -7.25 40.85 -8.8 42.35 -10.0 46.15 -6.7 45.85 -3.35 L49.4 -6.7 Q57.4 -5.9 60.0 0.0 57.4 5.85 49.4 6.65 L45.85 3.3 Q46.15 6.65 42.35 10.0 40.85 8.75 40.0 7.2 39.0 5.45 38.8 3.3 29.1 6.55 20.0 8.2 9.65 10.1 0.0 10.0 M17.7 -2.65 L14.1 -3.0 Q12.2 -3.0 8.9 -1.7 L9.1 -1.0 Q11.05 -1.0 14.5 -2.35 17.6 -3.1 19.85 -0.55 20.45 -1.1 20.75 -2.05 L17.7 -2.65" fill="url(#gradient1)" fill-rule="evenodd" stroke="none"/>
    <path d="M17.7 -2.65 L20.75 -2.05 Q20.45 -1.1 19.85 -0.55 17.6 -3.1 14.5 -2.35 11.05 -1.0 9.1 -1.0 L8.9 -1.7 Q12.2 -3.0 14.1 -3.0 L17.7 -2.65 M5.15 88.45 Q5.15 87.55 5.75 87.2 L7.25 87.75 6.35 88.75 Q8.5 90.35 21.2 92.35 L21.3 92.85 Q21.35 93.05 20.65 93.05 11.55 93.05 7.5 90.9 5.15 89.7 5.15 88.45" fill="#737373" fill-rule="evenodd" stroke="none"/>
    <path d="M0.0 100.0 L0.0 80.0 Q9.65 79.85 20.0 81.75 29.1 83.4 38.8 86.65 39.0 84.5 40.0 82.75 40.85 81.2 42.35 80.0 46.15 83.3 45.85 86.65 L49.4 83.3 Q57.4 84.1 60.0 90.0 57.4 95.85 49.4 96.65 L45.85 93.3 Q46.15 96.65 42.35 100.0 40.85 98.75 40.0 97.2 39.0 95.45 38.8 93.3 29.1 96.55 20.0 98.2 9.65 100.1 0.0 100.0 M5.15 88.45 Q5.15 89.7 7.5 90.9 11.55 93.05 20.65 93.05 21.35 93.05 21.3 92.85 L21.2 92.35 Q8.5 90.35 6.35 88.75 L7.25 87.75 5.75 87.2 Q5.15 87.55 5.15 88.45" fill="url(#gradient2)" fill-rule="evenodd" stroke="none"/>
    <path d="M0.0 -10.0 Q9.65 -10.15 20.0 -8.25 29.1 -6.6 38.8 -3.35 39.0 -5.5 40.0 -7.25 40.85 -8.8 42.35 -10.0 46.15 -6.7 45.85 -3.35 L49.4 -6.7 Q57.4 -5.9 60.0 0.0 57.4 5.85 49.4 6.65 L45.85 3.3 Q46.15 6.65 42.35 10.0 40.85 8.75 40.0 7.2 39.0 5.45 38.8 3.3 29.1 6.55 20.0 8.2 9.65 10.1 0.0 10.0 M0.0 80.0 Q9.65 79.85 20.0 81.75 29.1 83.4 38.8 86.65 39.0 84.5 40.0 82.75 40.85 81.2 42.35 80.0 46.15 83.3 45.85 86.65 L49.4 83.3 Q57.4 84.1 60.0 90.0 57.4 95.85 49.4 96.65 L45.85 93.3 Q46.15 96.65 42.35 100.0 40.85 98.75 40.0 97.2 39.0 95.45 38.8 93.3 29.1 96.55 20.0 98.2 9.65 100.1 0.0 100.0" fill="none" stroke="#777777" stroke-linecap="round" stroke-linejoin="round" stroke-width="2.0"/>
    <path d="M20.0 -8.25 L20.0 -63.1 M40.0 -73.45 L40.0 -7.25 M20.0 81.75 L20.0 8.2 M40.0 7.2 L40.0 82.75 M60.0 90.0 L60.0 0.0 60.0 -78.5 M40.0 97.2 L40.0 120.0 M20.0 120.0 L20.0 98.2 M60.0 120.0 L60.0 90.0" fill="none" stroke="#402e17" stroke-linecap="butt" stroke-linejoin="miter-clip" stroke-miterlimit="3.0" stroke-opacity="0.5019608" stroke-width="2.0"/>
    <path d="M80.0 -80.0 L80.0 120.0" fill="none" stroke="#000000" stroke-linecap="butt" stroke-linejoin="miter-clip" stroke-miterlimit="3.0" stroke-width="4.0"/>
    <path d="M58.0 44.2 L58.0 40.0 62.0 40.0 62.0 44.2 Q64.85 44.75 67.05 46.95 70.0 49.85 70.0 54.0 70.0 58.15 67.05 61.05 64.15 64.0 60.0 64.0 55.85 64.0 52.95 61.05 50.0 58.15 50.0 54.0 50.0 49.85 52.95 46.95 55.15 44.75 58.0 44.2 M60.2 48.0 L59.85 48.0 58.0 48.0 59.85 48.0 Q57.45 48.05 55.75 49.75 54.0 51.5 54.0 54.0 54.0 56.5 55.75 58.25 57.5 60.0 60.0 60.0 62.45 60.0 64.25 58.25 66.0 56.5 66.0 54.0 66.0 51.5 64.25 49.75 62.55 48.05 60.2 48.0 L62.0 48.0 60.2 48.0" fill="url(#gradient3)" fill-rule="evenodd" stroke="none"/>
    <path d="M58.0 44.2 L58.0 40.0 62.0 40.0 62.0 44.2 Q64.85 44.75 67.05 46.95 70.0 49.85 70.0 54.0 70.0 58.15 67.05 61.05 64.15 64.0 60.0 64.0 55.85 64.0 52.95 61.05 50.0 58.15 50.0 54.0 50.0 49.85 52.95 46.95 55.15 44.75 58.0 44.2 M59.85 48.0 L60.2 48.0 62.0 48.0 M59.85 48.0 L58.0 48.0 M60.2 48.0 Q62.55 48.05 64.25 49.75 66.0 51.5 66.0 54.0 66.0 56.5 64.25 58.25 62.45 60.0 60.0 60.0 57.5 60.0 55.75 58.25 54.0 56.5 54.0 54.0 54.0 51.5 55.75 49.75 57.45 48.05 59.85 48.0" fill="none" stroke="#999999" stroke-linecap="round" stroke-linejoin="round" stroke-width="1.0"/>
  </g>
  <defs>
    <linearGradient gradientTransform="matrix(-0.0098, 0.111, -0.0566, -0.005, 41.6, 26.45)" gradientUnits="userSpaceOnUse" id="gradient0" spreadMethod="pad" x1="-819.2" x2="819.2">
      <stop offset="0.0" stop-color="#9e7a3f"/>
      <stop offset="1.0" stop-color="#523e1e"/>
    </linearGradient>
    <linearGradient gradientTransform="matrix(0.0366, 0.0, 0.0, 0.0122, 30.0, 0.0)" gradientUnits="userSpaceOnUse" id="gradient1" spreadMethod="pad" x1="-819.2" x2="819.2">
      <stop offset="0.0" stop-color="#666666"/>
      <stop offset="1.0" stop-color="#333333"/>
    </linearGradient>
    <linearGradient gradientTransform="matrix(0.0366, 0.0, 0.0, 0.0122, 30.0, 90.0)" gradientUnits="userSpaceOnUse" id="gradient2" spreadMethod="pad" x1="-819.2" x2="819.2">
      <stop offset="0.0" stop-color="#666666"/>
      <stop offset="1.0" stop-color="#333333"/>
    </linearGradient>
    <linearGradient gradientTransform="matrix(0.0, 0.0146, -0.0122, 0.0, 60.0, 52.0)" gradientUnits="userSpaceOnUse" id="gradient3" spreadMethod="pad" x1="-819.2" x2="819.2">
      <stop offset="0.0" stop-color="#666666"/>
      <stop offset="1.0" stop-color="#333333"/>
    </linearGradient>
  </defs>
</svg>
