<?xml version="1.0" encoding="UTF-8" standalone="no"?>
<svg xmlns:ffdec="https://www.free-decompiler.com/flash" xmlns:xlink="http://www.w3.org/1999/xlink" ffdec:objectType="shape" height="228.0px" width="212.0px" xmlns="http://www.w3.org/2000/svg">
  <g transform="matrix(1.0, 0.0, 0.0, 1.0, 106.0, 106.0)">
    <path d="M-17.25 -99.05 L-18.25 -102.95 0.0 -104.0 18.25 -102.95 17.3 -99.05 12.4 -79.45 0.0 -80.0 -12.35 -79.45 -17.25 -99.05" fill="url(#gradient0)" fill-rule="evenodd" stroke="none"/>
    <path d="M51.6 -90.15 L54.3 -93.35 Q64.2 -88.95 73.0 -82.75 77.95 -79.3 82.1 -75.6 L78.4 -73.55 59.8 -63.2 56.55 -65.35 Q47.9 -70.8 37.9 -74.2 L51.6 -90.15" fill="url(#gradient1)" fill-rule="evenodd" stroke="none"/>
    <path d="M78.4 -73.55 Q91.95 -61.85 97.05 -47.65 L77.0 -44.0 Q72.25 -54.6 59.8 -63.2 L78.4 -73.55" fill="url(#gradient2)" fill-rule="evenodd" stroke="none"/>
    <path d="M17.3 -99.05 Q35.8 -96.95 51.6 -90.15 L37.9 -74.2 Q26.05 -78.2 12.4 -79.45 L17.3 -99.05" fill="url(#gradient3)" fill-rule="evenodd" stroke="none"/>
    <path d="M97.05 -47.65 Q100.0 -39.25 100.0 -30.0 L100.0 -20.0 80.0 -20.0 80.0 -30.0 Q80.0 -37.4 77.0 -44.0 L97.05 -47.65" fill="url(#gradient4)" fill-rule="evenodd" stroke="none"/>
    <path d="M100.0 -20.0 L103.1 -20.0 102.2 10.0 100.0 10.0 80.0 10.0 80.0 -20.0 100.0 -20.0" fill="url(#gradient5)" fill-rule="evenodd" stroke="none"/>
    <path d="M-77.0 -43.95 Q-80.0 -37.4 -80.0 -30.0 L-80.0 -20.0 -100.0 -20.0 -100.0 -30.0 Q-100.0 -39.25 -97.0 -47.6 L-77.0 -43.95" fill="url(#gradient6)" fill-rule="evenodd" stroke="none"/>
    <path d="M-80.0 -20.0 L-80.0 10.0 -100.0 10.0 -102.2 10.0 -103.1 -20.0 -100.0 -20.0 -80.0 -20.0" fill="url(#gradient7)" fill-rule="evenodd" stroke="none"/>
    <path d="M-12.35 -79.45 Q-26.05 -78.25 -37.85 -74.2 L-51.55 -90.15 Q-35.8 -96.95 -17.25 -99.05 L-12.35 -79.45" fill="url(#gradient8)" fill-rule="evenodd" stroke="none"/>
    <path d="M-37.85 -74.2 Q-47.9 -70.8 -56.6 -65.35 L-59.8 -63.2 -78.35 -73.55 -82.1 -75.6 Q-77.95 -79.3 -73.0 -82.75 -64.2 -88.95 -54.3 -93.35 L-51.55 -90.15 -37.85 -74.2" fill="url(#gradient9)" fill-rule="evenodd" stroke="none"/>
    <path d="M-59.8 -63.2 Q-72.25 -54.6 -77.0 -43.95 L-97.0 -47.6 Q-91.95 -61.85 -78.35 -73.55 L-59.8 -63.2" fill="url(#gradient10)" fill-rule="evenodd" stroke="none"/>
    <path d="M-80.0 10.0 L-80.0 40.0 -100.0 40.0 -100.0 10.0 -80.0 10.0" fill="url(#gradient11)" fill-rule="evenodd" stroke="none"/>
    <path d="M-80.0 40.0 L-80.0 70.0 -100.0 70.0 -103.1 70.0 -102.2 40.0 -100.0 40.0 -80.0 40.0" fill="url(#gradient12)" fill-rule="evenodd" stroke="none"/>
    <path d="M-80.0 100.0 L-80.0 120.0 -104.0 120.0 -102.65 100.0 -100.0 100.0 -80.0 100.0" fill="url(#gradient13)" fill-rule="evenodd" stroke="none"/>
    <path d="M-80.0 70.0 L-80.0 100.0 -100.0 100.0 -100.0 70.0 -80.0 70.0" fill="url(#gradient14)" fill-rule="evenodd" stroke="none"/>
    <path d="M100.0 40.0 L102.2 40.0 103.55 70.0 100.0 70.0 80.0 70.0 80.0 40.0 100.0 40.0" fill="url(#gradient15)" fill-rule="evenodd" stroke="none"/>
    <path d="M100.0 10.0 L100.0 40.0 80.0 40.0 80.0 10.0 100.0 10.0" fill="url(#gradient16)" fill-rule="evenodd" stroke="none"/>
    <path d="M100.0 100.0 L102.65 100.0 104.0 120.0 80.0 120.0 80.0 100.0 100.0 100.0" fill="url(#gradient17)" fill-rule="evenodd" stroke="none"/>
    <path d="M100.0 70.0 L100.0 100.0 80.0 100.0 80.0 70.0 100.0 70.0" fill="url(#gradient18)" fill-rule="evenodd" stroke="none"/>
    <path d="M-17.25 -99.05 L-18.25 -102.95 0.0 -104.0 18.25 -102.95 17.3 -99.05 Q35.8 -96.95 51.6 -90.15 L54.3 -93.35 Q64.2 -88.95 73.0 -82.75 77.95 -79.3 82.1 -75.6 L78.4 -73.55 Q91.95 -61.85 97.05 -47.65 100.0 -39.25 100.0 -30.0 L100.0 -20.0 103.1 -20.0 102.2 10.0 100.0 10.0 100.0 40.0 102.2 40.0 103.55 70.0 100.0 70.0 100.0 100.0 102.65 100.0 104.0 120.0 M-104.0 120.0 L-102.65 100.0 -100.0 100.0 -100.0 70.0 -103.1 70.0 -102.2 40.0 -100.0 40.0 -100.0 10.0 -102.2 10.0 -103.1 -20.0 -100.0 -20.0 -100.0 -30.0 Q-100.0 -39.25 -97.0 -47.6 -91.95 -61.85 -78.35 -73.55 L-82.1 -75.6 Q-77.95 -79.3 -73.0 -82.75 -64.2 -88.95 -54.3 -93.35 L-51.55 -90.15 Q-35.8 -96.95 -17.25 -99.05" fill="none" stroke="#545145" stroke-linecap="butt" stroke-linejoin="miter-clip" stroke-miterlimit="3.0" stroke-width="4.0"/>
    <path d="M-17.25 -99.05 L-12.35 -79.45 M78.4 -73.55 L59.8 -63.2 M37.9 -74.2 L51.6 -90.15 M80.0 -20.0 L100.0 -20.0 M77.0 -44.0 L97.05 -47.65 M17.3 -99.05 L12.4 -79.45 M100.0 10.0 L80.0 10.0 M80.0 70.0 L100.0 70.0 M100.0 100.0 L80.0 100.0 M80.0 40.0 L100.0 40.0 M-59.8 -63.2 L-78.35 -73.55 M-51.55 -90.15 L-37.85 -74.2 M-100.0 -20.0 L-80.0 -20.0 M-77.0 -43.95 L-97.0 -47.6 M-80.0 70.0 L-100.0 70.0 M-80.0 100.0 L-100.0 100.0 M-80.0 40.0 L-100.0 40.0 M-80.0 10.0 L-100.0 10.0" fill="none" stroke="#545145" stroke-linecap="butt" stroke-linejoin="miter-clip" stroke-miterlimit="3.0" stroke-width="2.0"/>
    <path d="M54.45 -61.95 Q45.5 -67.55 35.05 -70.9 24.05 -74.45 11.4 -75.5 L0.0 -76.0 -11.4 -75.5 Q-24.05 -74.45 -35.05 -70.9 -45.5 -67.55 -54.45 -61.95 L-55.85 -61.05 Q-68.05 -53.05 -72.85 -43.2 -75.9 -37.0 -76.0 -30.0 L-76.0 120.0 -80.0 120.0 -80.0 -30.0 Q-80.0 -37.4 -77.0 -43.95 -72.25 -54.6 -59.8 -63.2 L-56.6 -65.35 Q-47.9 -70.8 -37.85 -74.2 -26.05 -78.25 -12.35 -79.45 L0.0 -80.0 12.4 -79.45 Q26.05 -78.2 37.9 -74.2 47.9 -70.8 56.55 -65.35 L59.8 -63.2 Q72.25 -54.6 77.0 -44.0 80.0 -37.4 80.0 -30.0 L80.0 120.0 76.0 120.0 76.0 -30.0 Q75.9 -37.0 72.85 -43.25 68.0 -53.05 55.85 -61.0 L54.45 -61.95" fill="#000000" fill-rule="evenodd" stroke="none"/>
  </g>
  <defs>
    <linearGradient gradientTransform="matrix(0.0038, 0.0176, -0.0212, 0.0046, 2.35, -92.35)" gradientUnits="userSpaceOnUse" id="gradient0" spreadMethod="pad" x1="-819.2" x2="819.2">
      <stop offset="0.00784313725490196" stop-color="#a7a394"/>
      <stop offset="1.0" stop-color="#797464"/>
    </linearGradient>
    <linearGradient gradientTransform="matrix(0.004, 0.0182, -0.0259, 0.0057, 59.15, -78.75)" gradientUnits="userSpaceOnUse" id="gradient1" spreadMethod="pad" x1="-819.2" x2="819.2">
      <stop offset="0.00784313725490196" stop-color="#a7a394"/>
      <stop offset="1.0" stop-color="#797464"/>
    </linearGradient>
    <linearGradient gradientTransform="matrix(0.0037, 0.0175, -0.0198, 0.0042, 77.8, -58.5)" gradientUnits="userSpaceOnUse" id="gradient2" spreadMethod="pad" x1="-819.2" x2="819.2">
      <stop offset="0.0" stop-color="#938e78"/>
      <stop offset="1.0" stop-color="#615d4e"/>
    </linearGradient>
    <linearGradient gradientTransform="matrix(0.0036, 0.0171, -0.0242, 0.0051, 31.5, -87.4)" gradientUnits="userSpaceOnUse" id="gradient3" spreadMethod="pad" x1="-819.2" x2="819.2">
      <stop offset="0.0" stop-color="#938e78"/>
      <stop offset="1.0" stop-color="#615d4e"/>
    </linearGradient>
    <linearGradient gradientTransform="matrix(0.0036, 0.0169, -0.0136, 0.0029, 89.15, -32.15)" gradientUnits="userSpaceOnUse" id="gradient4" spreadMethod="pad" x1="-819.2" x2="819.2">
      <stop offset="0.0" stop-color="#938e78"/>
      <stop offset="1.0" stop-color="#615d4e"/>
    </linearGradient>
    <linearGradient gradientTransform="matrix(0.0025, 0.0131, -0.017, 0.0033, 91.55, -4.9)" gradientUnits="userSpaceOnUse" id="gradient5" spreadMethod="pad" x1="-819.2" x2="819.2">
      <stop offset="0.00784313725490196" stop-color="#a7a394"/>
      <stop offset="1.0" stop-color="#797464"/>
    </linearGradient>
    <linearGradient gradientTransform="matrix(0.0038, 0.0182, -0.0164, 0.0034, -88.85, -33.8)" gradientUnits="userSpaceOnUse" id="gradient6" spreadMethod="pad" x1="-819.2" x2="819.2">
      <stop offset="0.0" stop-color="#938e78"/>
      <stop offset="1.0" stop-color="#615d4e"/>
    </linearGradient>
    <linearGradient gradientTransform="matrix(0.0044, 0.0204, -0.0168, 0.0036, -91.1, -5.1)" gradientUnits="userSpaceOnUse" id="gradient7" spreadMethod="pad" x1="-819.2" x2="819.2">
      <stop offset="0.00784313725490196" stop-color="#a7a394"/>
      <stop offset="1.0" stop-color="#797464"/>
    </linearGradient>
    <linearGradient gradientTransform="matrix(0.0026, 0.0124, -0.0216, 0.0045, -32.2, -85.95)" gradientUnits="userSpaceOnUse" id="gradient8" spreadMethod="pad" x1="-819.2" x2="819.2">
      <stop offset="0.0" stop-color="#938e78"/>
      <stop offset="1.0" stop-color="#615d4e"/>
    </linearGradient>
    <linearGradient gradientTransform="matrix(0.0037, 0.0169, -0.0256, 0.0056, -60.55, -77.55)" gradientUnits="userSpaceOnUse" id="gradient9" spreadMethod="pad" x1="-819.2" x2="819.2">
      <stop offset="0.00784313725490196" stop-color="#a7a394"/>
      <stop offset="1.0" stop-color="#797464"/>
    </linearGradient>
    <linearGradient gradientTransform="matrix(0.0036, 0.0175, -0.0236, 0.0049, -79.0, -58.45)" gradientUnits="userSpaceOnUse" id="gradient10" spreadMethod="pad" x1="-819.2" x2="819.2">
      <stop offset="0.0" stop-color="#938e78"/>
      <stop offset="1.0" stop-color="#615d4e"/>
    </linearGradient>
    <linearGradient gradientTransform="matrix(0.0042, 0.0199, -0.0154, 0.0032, -90.0, 25.0)" gradientUnits="userSpaceOnUse" id="gradient11" spreadMethod="pad" x1="-819.2" x2="819.2">
      <stop offset="0.0" stop-color="#938e78"/>
      <stop offset="1.0" stop-color="#615d4e"/>
    </linearGradient>
    <linearGradient gradientTransform="matrix(0.0044, 0.0203, -0.0173, 0.0038, -91.55, 55.05)" gradientUnits="userSpaceOnUse" id="gradient12" spreadMethod="pad" x1="-819.2" x2="819.2">
      <stop offset="0.00784313725490196" stop-color="#a7a394"/>
      <stop offset="1.0" stop-color="#797464"/>
    </linearGradient>
    <linearGradient gradientTransform="matrix(0.0032, 0.0145, -0.0165, 0.0036, -91.95, 110.15)" gradientUnits="userSpaceOnUse" id="gradient13" spreadMethod="pad" x1="-819.2" x2="819.2">
      <stop offset="0.00784313725490196" stop-color="#a7a394"/>
      <stop offset="1.0" stop-color="#797464"/>
    </linearGradient>
    <linearGradient gradientTransform="matrix(0.0042, 0.02, -0.0154, 0.0032, -90.05, 84.95)" gradientUnits="userSpaceOnUse" id="gradient14" spreadMethod="pad" x1="-819.2" x2="819.2">
      <stop offset="0.0" stop-color="#938e78"/>
      <stop offset="1.0" stop-color="#615d4e"/>
    </linearGradient>
    <linearGradient gradientTransform="matrix(0.0051, 0.0229, -0.0168, 0.0037, 92.2, 60.0)" gradientUnits="userSpaceOnUse" id="gradient15" spreadMethod="pad" x1="-819.2" x2="819.2">
      <stop offset="0.00784313725490196" stop-color="#a7a394"/>
      <stop offset="1.0" stop-color="#797464"/>
    </linearGradient>
    <linearGradient gradientTransform="matrix(0.0011, 0.0131, -0.0137, 0.0011, 90.1, 26.05)" gradientUnits="userSpaceOnUse" id="gradient16" spreadMethod="pad" x1="-819.2" x2="819.2">
      <stop offset="0.0" stop-color="#938e78"/>
      <stop offset="1.0" stop-color="#615d4e"/>
    </linearGradient>
    <linearGradient gradientTransform="matrix(0.0032, 0.0147, -0.0157, 0.0034, 91.35, 110.1)" gradientUnits="userSpaceOnUse" id="gradient17" spreadMethod="pad" x1="-819.2" x2="819.2">
      <stop offset="0.00784313725490196" stop-color="#a7a394"/>
      <stop offset="1.0" stop-color="#797464"/>
    </linearGradient>
    <linearGradient gradientTransform="matrix(0.0043, 0.02, -0.0154, 0.0033, 89.95, 85.0)" gradientUnits="userSpaceOnUse" id="gradient18" spreadMethod="pad" x1="-819.2" x2="819.2">
      <stop offset="0.0" stop-color="#938e78"/>
      <stop offset="1.0" stop-color="#615d4e"/>
    </linearGradient>
  </defs>
</svg>
