<?xml version="1.0" encoding="UTF-8" standalone="no"?>
<svg xmlns:ffdec="https://www.free-decompiler.com/flash" xmlns:xlink="http://www.w3.org/1999/xlink" ffdec:objectType="shape" height="224.0px" width="204.0px" xmlns="http://www.w3.org/2000/svg">
  <g transform="matrix(1.0, 0.0, 0.0, 1.0, 102.0, 102.0)">
    <path d="M72.5 -90.7 L71.7 -90.9 71.8 -90.15 Q71.8 -88.9 72.05 -89.5 L94.5 -89.45 95.25 -89.65 95.05 -90.2 Q94.75 -90.5 72.5 -90.7 M70.8 -83.0 L71.05 -83.7 56.0 -84.2 Q49.3 -84.2 49.3 -83.15 49.3 -81.9 49.55 -82.5 L53.5 -82.45 55.3 -82.75 70.8 -83.0 M6.0 -89.2 Q20.0 -90.0 24.55 -93.2 -4.8 -91.7 -8.2 -89.45 L-7.45 -89.0 6.0 -89.2 M-90.0 -70.0 L-100.0 -70.0 -100.0 -100.0 100.0 -100.0 100.0 -70.0 90.0 -70.0 70.0 -70.0 -70.0 -70.0 -90.0 -70.0 M-4.95 -77.2 L-16.15 -76.75 Q-20.25 -76.1 -21.2 -75.45 L-20.35 -75.0 Q-7.95 -74.45 -4.95 -77.2 M-85.0 -88.8 Q-85.05 -88.2 -86.2 -87.95 -66.1 -88.55 -51.3 -87.3 L-35.5 -85.95 Q-34.25 -85.95 -35.0 -86.0 L-34.95 -86.7 Q-44.95 -89.2 -72.25 -89.2 L-85.0 -88.8" fill="url(#gradient0)" fill-rule="evenodd" stroke="none"/>
    <path d="M70.8 -83.0 L55.3 -82.75 53.5 -82.45 49.55 -82.5 Q49.3 -81.9 49.3 -83.15 49.3 -84.2 56.0 -84.2 L71.05 -83.7 70.8 -83.0 M72.5 -90.7 Q94.75 -90.5 95.05 -90.2 L95.25 -89.65 94.5 -89.45 72.05 -89.5 Q71.8 -88.9 71.8 -90.15 L71.7 -90.9 72.5 -90.7 M80.9 -55.7 L81.05 -55.0 80.5 -42.75 80.0 -42.5 Q79.3 -43.55 79.3 -47.65 79.3 -52.5 79.8 -55.45 L80.75 -55.5 80.9 -55.7 M6.0 -89.2 L-7.45 -89.0 -8.2 -89.45 Q-4.8 -91.7 24.55 -93.2 20.0 -90.0 6.0 -89.2 M82.0 -1.5 Q81.3 -2.45 81.3 -6.15 L81.8 -23.45 82.75 -23.5 Q83.05 -22.45 83.05 -20.0 L82.5 -1.75 82.0 -1.5 M79.0 86.25 L78.5 86.5 Q77.8 82.6 77.8 71.75 77.8 58.05 78.3 51.05 L79.25 51.0 79.55 51.85 79.0 86.25 M-84.7 -59.45 L-83.75 -59.5 Q-83.45 -58.75 -83.45 -57.5 -83.45 -53.95 -84.15 -46.85 L-85.0 -35.2 -85.95 -35.0 -86.2 -42.6 Q-86.2 -45.3 -85.45 -50.1 -84.7 -54.9 -84.7 -59.45 M-85.0 -88.8 L-72.25 -89.2 Q-44.95 -89.2 -34.95 -86.7 L-35.0 -86.0 Q-34.25 -85.95 -35.5 -85.95 L-51.3 -87.3 Q-66.1 -88.55 -86.2 -87.95 -85.05 -88.2 -85.0 -88.8 M-4.95 -77.2 Q-7.95 -74.45 -20.35 -75.0 L-21.2 -75.45 Q-20.25 -76.1 -16.15 -76.75 L-4.95 -77.2 M-77.25 -23.0 Q-76.95 -22.7 -76.95 -21.2 L-77.45 22.85 -77.5 24.25 -78.0 24.5 Q-79.2 16.95 -79.2 -2.75 -79.2 -10.2 -78.2 -22.95 L-77.25 -23.0 M-75.7 94.05 L-74.75 94.0 -73.95 103.5 Q-73.95 107.05 -74.25 109.0 L-74.95 109.0 Q-75.2 101.05 -75.7 97.3 L-75.7 94.05 M-83.75 44.5 Q-82.2 44.5 -81.9 54.25 -81.75 59.1 -81.95 64.1 -81.95 73.0 -82.25 77.5 L-82.95 77.5 -83.05 61.1 Q-83.05 51.35 -84.7 44.8 -84.45 44.5 -83.75 44.5" fill="#473110" fill-rule="evenodd" stroke="none"/>
    <path d="M80.9 -55.7 L80.75 -55.5 79.8 -55.45 Q79.3 -52.5 79.3 -47.65 79.3 -43.55 80.0 -42.5 L80.5 -42.75 81.05 -55.0 80.9 -55.7 M90.0 -70.0 L90.0 120.0 70.0 120.0 70.0 -70.0 90.0 -70.0 M-70.0 -70.0 L-70.0 120.0 -90.0 120.0 -90.0 -70.0 -70.0 -70.0 M82.0 -1.5 L82.5 -1.75 83.05 -20.0 Q83.05 -22.45 82.75 -23.5 L81.8 -23.45 81.3 -6.15 Q81.3 -2.45 82.0 -1.5 M-84.7 -59.45 Q-84.7 -54.9 -85.45 -50.1 -86.2 -45.3 -86.2 -42.6 L-85.95 -35.0 -85.0 -35.2 -84.15 -46.85 Q-83.45 -53.95 -83.45 -57.5 -83.45 -58.75 -83.75 -59.5 L-84.7 -59.45 M79.0 86.25 L79.55 51.85 79.25 51.0 78.3 51.05 Q77.8 58.05 77.8 71.75 77.8 82.6 78.5 86.5 L79.0 86.25 M-83.75 44.5 Q-84.45 44.5 -84.7 44.8 -83.05 51.35 -83.05 61.1 L-82.95 77.5 -82.25 77.5 Q-81.95 73.0 -81.95 64.1 -81.75 59.1 -81.9 54.25 -82.2 44.5 -83.75 44.5 M-75.7 94.05 L-75.7 97.3 Q-75.2 101.05 -74.95 109.0 L-74.25 109.0 Q-73.95 107.05 -73.95 103.5 L-74.75 94.0 -75.7 94.05 M-77.25 -23.0 L-78.2 -22.95 Q-79.2 -10.2 -79.2 -2.75 -79.2 16.95 -78.0 24.5 L-77.5 24.25 -77.45 22.85 -76.95 -21.2 Q-76.95 -22.7 -77.25 -23.0" fill="url(#gradient1)" fill-rule="evenodd" stroke="none"/>
    <path d="M-90.0 -70.0 L-100.0 -70.0 -100.0 -100.0 100.0 -100.0 100.0 -70.0 90.0 -70.0 90.0 120.0 M70.0 120.0 L70.0 -70.0 -70.0 -70.0 -70.0 120.0 M-90.0 120.0 L-90.0 -70.0 -70.0 -70.0 M90.0 -70.0 L70.0 -70.0" fill="none" stroke="#000000" stroke-linecap="butt" stroke-linejoin="miter-clip" stroke-miterlimit="3.0" stroke-width="4.0"/>
  </g>
  <defs>
    <linearGradient gradientTransform="matrix(0.0, -0.0159, 0.1221, 0.0, 0.0, -85.0)" gradientUnits="userSpaceOnUse" id="gradient0" spreadMethod="pad" x1="-819.2" x2="819.2">
      <stop offset="0.0" stop-color="#704e1b"/>
      <stop offset="1.0" stop-color="#a37126"/>
    </linearGradient>
    <linearGradient gradientTransform="matrix(0.0, 0.105, -0.0122, 0.0, -80.0, 26.0)" gradientUnits="userSpaceOnUse" id="gradient1" spreadMethod="pad" x1="-819.2" x2="819.2">
      <stop offset="0.0" stop-color="#7a541d"/>
      <stop offset="1.0" stop-color="#593d15"/>
    </linearGradient>
  </defs>
</svg>
