<?xml version="1.0" encoding="UTF-8" standalone="no"?>
<svg xmlns:ffdec="https://www.free-decompiler.com/flash" xmlns:xlink="http://www.w3.org/1999/xlink" ffdec:objectType="shape" height="109.5px" width="23.9px" xmlns="http://www.w3.org/2000/svg">
  <g transform="matrix(1.0, 0.0, 0.0, 1.0, 11.95, 54.7)">
    <path d="M2.2 -49.9 L3.3 -54.7 6.35 -54.7 10.85 -34.8 6.35 -24.7 3.4 -24.7 3.4 -13.8 4.45 -13.8 Q11.95 -13.8 11.95 -6.3 L11.95 5.7 Q11.9 12.85 5.1 13.15 L3.3 19.55 -3.4 19.55 -5.2 13.15 Q-11.95 12.8 -11.95 5.7 L-11.95 -6.3 Q-11.95 -13.85 -4.45 -13.8 L-3.5 -13.8 -3.5 -24.7 -6.4 -24.7 -10.9 -34.8 -6.4 -54.7 -3.4 -54.7 -2.3 -49.9 2.2 -49.9 M-3.5 -36.45 Q-3.5 -37.9 -2.5 -38.9 -2.05 -39.35 -1.45 -39.6 L-1.45 -43.4 -2.15 -43.8 Q-2.75 -44.3 -3.0 -45.05 L-4.9 -51.2 -8.55 -35.0 -4.95 -26.95 -3.5 -26.95 -3.5 -36.45 M9.7 -6.3 Q9.7 -11.55 4.45 -11.55 L3.4 -11.55 3.4 1.05 Q3.4 2.5 2.4 3.5 1.4 4.5 -0.05 4.5 -1.5 4.5 -2.5 3.5 -3.5 2.5 -3.5 1.05 L-3.5 -11.55 -4.45 -11.55 Q-9.7 -11.6 -9.7 -6.3 L-9.7 5.7 Q-9.75 10.6 -5.1 10.9 -4.35 10.95 -3.8 11.4 -3.25 11.85 -3.0 12.55 L-1.7 17.3 1.6 17.3 2.95 12.55 Q3.15 11.85 3.7 11.4 4.3 10.9 5.0 10.9 9.65 10.65 9.7 5.7 L9.7 -6.3 M2.85 -45.05 Q2.65 -44.3 2.05 -43.8 L1.4 -43.4 1.4 -39.6 2.4 -38.9 Q3.4 -37.9 3.4 -36.45 L3.4 -26.95 4.9 -26.95 8.5 -35.0 4.8 -51.25 2.85 -45.05" fill="#000000" fill-rule="evenodd" stroke="none"/>
    <path d="M-7.55 39.8 L7.45 39.8 7.45 54.8 -7.55 54.8 -7.55 39.8" fill="#316b31" fill-opacity="0.0" fill-rule="evenodd" stroke="none"/>
    <path d="M2.85 -45.05 L4.8 -51.25 8.5 -35.0 4.9 -26.95 3.4 -26.95 3.4 -36.45 Q3.4 -37.9 2.4 -38.9 L1.4 -39.6 1.4 -43.4 2.05 -43.8 Q2.65 -44.3 2.85 -45.05 M9.7 -6.3 L9.7 5.7 Q9.65 10.65 5.0 10.9 4.3 10.9 3.7 11.4 3.15 11.85 2.95 12.55 L1.6 17.3 -1.7 17.3 -3.0 12.55 Q-3.25 11.85 -3.8 11.4 -4.35 10.95 -5.1 10.9 -9.75 10.6 -9.7 5.7 L-9.7 -6.3 Q-9.7 -11.6 -4.45 -11.55 L-3.5 -11.55 -3.5 1.05 Q-3.5 2.5 -2.5 3.5 -1.5 4.5 -0.05 4.5 1.4 4.5 2.4 3.5 3.4 2.5 3.4 1.05 L3.4 -11.55 4.45 -11.55 Q9.7 -11.55 9.7 -6.3 M-3.5 -36.45 L-3.5 -26.95 -4.95 -26.95 -8.55 -35.0 -4.9 -51.2 -3.0 -45.05 Q-2.75 -44.3 -2.15 -43.8 L-1.45 -43.4 -1.45 -39.6 Q-2.05 -39.35 -2.5 -38.9 -3.5 -37.9 -3.5 -36.45" fill="#333333" fill-rule="evenodd" stroke="none"/>
  </g>
</svg>
