<?xml version="1.0" encoding="UTF-8" standalone="no"?>
<svg xmlns:ffdec="https://www.free-decompiler.com/flash" xmlns:xlink="http://www.w3.org/1999/xlink" ffdec:objectType="shape" height="112.0px" width="220.55px" xmlns="http://www.w3.org/2000/svg">
  <g transform="matrix(1.0, 0.0, 0.0, 1.0, 109.55, 52.5)">
    <path d="M32.4 -12.9 L39.35 -13.6 Q29.65 -8.9 20.6 -3.65 L20.6 -9.65 27.05 -15.65 Q33.85 -18.3 32.4 -13.3 L32.4 -12.9 M47.05 -52.5 L59.5 -52.5 49.0 -45.7 47.05 -52.5 M57.9 -37.95 L56.5 -37.65 57.7 -38.45 64.55 -40.9 62.4 -38.9 57.9 -37.95 57.7 -38.45 57.9 -37.95 M62.2 -46.2 L55.9 -42.05 51.0 -38.75 50.05 -42.0 54.65 -44.6 61.45 -48.3 62.2 -46.2 M54.65 -44.6 L55.9 -42.05 54.65 -44.6 M70.2 -6.35 L69.6 -0.85 35.0 6.5 59.6 -10.15 65.0 -8.85 61.25 -8.6 61.25 -6.35 70.2 -6.35 M44.95 -8.95 L52.4 -9.85 30.2 5.15 29.35 1.9 25.5 0.8 25.35 -2.3 43.85 -12.05 44.95 -8.95 M88.8 -10.3 L98.3 -16.6 98.8 -14.15 95.05 -14.3 91.1 -9.45 88.8 -10.3 M90.65 -17.15 L84.25 -10.1 80.85 -9.9 82.35 -16.15 85.0 -18.25 90.65 -17.15 M110.45 -3.25 L110.35 0.3 107.15 -0.35 110.45 -3.25 M106.4 21.85 L103.35 18.75 100.25 18.3 110.95 12.65 111.0 19.3 106.4 21.85 M110.95 9.8 Q97.95 15.35 84.1 11.65 L85.35 5.25 98.45 4.7 99.45 7.75 100.25 1.2 109.5 4.25 110.95 9.8 M94.5 16.0 L94.5 16.25 Q92.35 17.65 94.5 16.0 M85.6 21.65 L88.85 22.25 85.45 26.15 85.25 28.55 87.8 28.55 91.5 24.85 92.0 27.9 99.85 26.8 96.55 31.05 68.95 37.65 68.25 40.55 71.95 39.9 74.05 41.5 65.7 59.5 46.15 59.35 64.3 56.05 58.2 49.3 62.05 26.35 73.35 25.05 70.75 28.3 70.75 30.55 73.45 30.65 85.6 21.65 M81.6 36.45 Q79.4 36.5 82.55 36.05 L81.6 36.45 M85.1 51.8 L80.15 54.25 86.05 45.2 85.1 51.8 M76.9 43.6 L80.65 44.85 71.65 52.05 76.9 43.6 M49.3 11.4 L55.0 11.5 54.25 25.9 48.55 25.8 48.45 21.25 Q39.85 29.0 30.7 23.65 L26.25 15.85 26.25 12.45 28.8 10.7 36.05 13.25 37.05 18.35 49.3 11.4 M28.65 6.2 L25.4 8.4 19.2 8.4 19.2 2.5 28.65 2.5 28.65 6.2 M19.8 12.25 L17.35 13.95 13.45 12.25 Q5.75 17.65 1.7 12.6 L14.55 4.1 Q18.05 7.1 19.8 12.25 M9.45 1.25 L7.95 4.15 7.35 0.85 9.45 1.25 M17.75 19.6 L14.9 25.5 18.55 29.3 3.15 26.8 8.75 20.75 11.4 22.25 15.6 19.55 17.75 19.6 M-109.55 -6.05 L-104.85 -9.3 -101.4 -9.3 -98.15 -17.55 -89.4 -17.7 -95.3 -12.55 Q-100.35 -8.3 -100.1 -1.55 L-109.5 1.15 -109.55 -6.05 M72.9 55.95 L71.9 56.2 Q68.05 55.5 72.9 55.95 M-82.95 -17.9 L-78.85 -10.8 -82.25 -9.7 -85.75 -16.5 -82.95 -17.9 M-85.5 -1.05 L-85.7 2.2 -79.55 2.25 -78.7 4.75 -68.55 2.6 -68.55 8.95 -85.95 14.5 -86.25 20.05 -93.5 26.2 -96.65 25.55 -97.65 9.85 -94.75 8.55 -94.75 6.3 -97.75 6.45 -95.9 -3.1 -85.5 -1.05 M-86.7 -10.7 L-94.55 -8.45 -88.6 -14.55 -86.7 -10.7 M-43.8 -52.5 L-39.5 -52.5 -41.6 -49.85 -43.8 -52.5 M-51.4 -50.8 L-50.2 -52.5 -43.85 -47.0 -46.0 -44.3 -51.4 -50.8 M-46.9 -39.9 L-46.65 -33.35 -59.15 -36.65 -63.8 -40.4 -57.2 -37.7 -54.5 -35.85 -51.75 -35.85 -53.95 -39.45 -56.05 -40.9 -61.8 -44.75 -55.95 -44.6 -53.4 -48.1 -49.1 -42.15 Q-48.25 -41.2 -48.1 -40.5 -48.05 -40.1 -46.9 -39.9 M-57.2 -37.7 L-59.15 -36.65 -57.2 -37.7 M-49.1 -42.15 L-53.95 -39.45 -49.1 -42.15 M-56.05 -40.9 L-55.95 -44.6 -56.05 -40.9 M-71.35 -9.8 L-75.15 -9.8 Q-76.35 -11.95 -77.2 -15.7 L-70.45 -15.9 -71.35 -9.8 M-54.95 -7.8 L-54.1 -13.9 -44.5 -16.25 -47.25 -11.15 -45.8 -7.4 -41.0 -6.5 -38.9 -9.45 -22.0 -9.9 -55.6 6.45 -55.7 1.45 -59.15 1.2 -58.4 -5.45 -54.95 -7.8 M-43.25 -22.9 L-43.25 -26.1 -36.1 -26.1 -36.1 -22.9 -43.25 -22.9 M-14.25 -2.6 L-42.1 7.4 -42.85 3.95 -15.7 -9.4 -2.05 -8.25 -3.95 -0.8 -21.9 2.75 -14.25 -0.35 -14.25 -2.6 M-2.6 5.8 L-17.7 16.05 -21.75 16.05 -20.45 10.8 -5.95 1.45 -2.0 1.55 -2.6 5.8 M-17.4 21.2 L-40.7 25.75 -40.45 20.7 -25.9 15.0 -17.95 17.05 -17.4 21.2 M-24.2 3.7 Q-28.95 10.3 -35.4 8.3 L-24.2 3.7 M-27.75 25.25 L-11.5 19.95 -11.5 25.7 -27.75 30.15 -27.75 25.25 M-77.7 24.6 Q-73.95 21.25 -68.9 20.25 -73.75 22.5 -77.7 24.6 M-45.15 15.5 L-45.15 21.5 -55.65 28.0 -48.5 29.15 Q-49.8 29.35 -51.1 30.05 -55.15 32.1 -56.7 36.5 -58.9 42.6 -59.85 48.45 L-59.95 49.3 -55.45 55.85 -67.95 54.1 -66.75 32.4 -65.15 31.05 Q-65.5 28.95 -66.3 27.65 L-66.75 28.5 -66.75 22.85 -45.15 15.5 M-72.45 37.25 L-75.75 52.6 -79.75 54.6 -79.35 44.3 -72.45 37.25 M-77.75 29.1 L-69.9 25.45 -71.85 34.25 -77.85 34.2 -77.75 29.1 M-100.15 10.95 L-100.15 18.95 -103.65 20.0 -109.5 20.1 -108.35 14.2 -100.15 10.95 M-100.2 7.5 L-107.8 10.45 -109.0 5.9 -100.2 1.9 -100.2 7.5 M-90.6 31.1 L-87.9 27.8 -84.2 28.2 -90.6 31.1 M-83.3 34.15 L-85.45 34.1 -82.9 32.1 -83.3 34.15" fill="#000000" fill-opacity="0.6" fill-rule="evenodd" stroke="none"/>
    <path d="M62.4 -38.9 L60.0 -33.7 57.9 -37.95 57.7 -38.45 M55.9 -42.05 L54.65 -44.6 M-55.95 -44.6 L-56.05 -40.9 M-53.95 -39.45 L-49.1 -42.15 M-59.15 -36.65 L-57.2 -37.7" fill="none" stroke="#439de0" stroke-linecap="square" stroke-linejoin="round" stroke-width="2.0"/>
    <path d="M-30.5 45.8 Q-29.1 43.7 -22.55 39.1 L-15.0 34.05 Q-16.45 37.05 -21.45 40.25 -28.6 44.75 -30.0 46.0 L-30.5 45.8 M-8.25 38.35 L-17.0 44.5 -17.5 44.3 Q-16.15 42.3 -9.75 37.7 L-0.5 31.05 Q-1.9 33.9 -8.25 38.35" fill="#000000" fill-opacity="0.6" fill-rule="evenodd" stroke="none"/>
    <path d="M14.3 31.55 Q13.3 33.15 1.5 42.0 L1.0 41.8 Q2.5 39.7 6.95 36.3 11.3 33.0 14.3 31.55 M22.3 32.05 Q19.3 35.8 11.85 43.2 L1.55 53.8 1.0 53.8 Q4.5 48.2 10.1 42.35 16.35 35.7 22.3 32.05" fill="#000000" fill-opacity="0.6" fill-rule="evenodd" stroke="none"/>
  </g>
</svg>
