<?xml version="1.0" encoding="UTF-8" standalone="no"?>
<svg xmlns:ffdec="https://www.free-decompiler.com/flash" xmlns:xlink="http://www.w3.org/1999/xlink" ffdec:objectType="shape" height="113.0px" width="220.8px" xmlns="http://www.w3.org/2000/svg">
  <g transform="matrix(1.0, 0.0, 0.0, 1.0, 109.55, 52.5)">
    <path d="M47.05 -52.5 L59.5 -52.5 49.0 -45.7 47.05 -52.5 M33.45 -12.6 L38.3 -13.75 -17.95 17.05 -17.4 21.2 -31.3 23.15 -29.0 23.2 -28.9 28.6 -37.05 28.7 -38.95 28.85 Q-43.6 29.4 -48.05 31.1 -53.7 33.35 -58.0 37.45 L-57.4 53.15 -68.0 53.85 -66.75 32.65 -65.45 29.15 -66.75 22.85 -45.15 15.5 -46.8 22.7 -5.95 1.45 -2.0 1.55 -2.4 4.45 20.6 -5.7 20.6 -9.65 25.5 -14.6 32.7 -15.55 33.45 -12.6 M62.2 -46.2 L55.9 -42.05 51.0 -38.75 50.05 -42.0 54.65 -44.6 61.45 -48.3 62.2 -46.2 M58.75 -36.25 Q56.5 -36.05 54.3 -36.2 L57.7 -38.4 64.0 -41.0 Q67.85 -37.9 61.4 -36.7 L58.75 -36.25 57.7 -38.4 58.75 -36.25 M54.65 -44.6 L55.9 -42.05 54.65 -44.6 M44.95 -8.95 L52.3 -9.75 30.2 5.15 29.35 1.9 25.5 0.8 25.5 -2.3 44.85 -12.55 44.95 -8.95 M72.95 -19.15 L77.0 -16.65 66.75 -9.0 61.25 -8.6 61.25 -6.35 82.2 -6.6 79.85 1.55 74.7 4.95 74.55 8.8 71.3 11.2 67.45 10.85 67.7 2.65 70.2 -0.6 35.1 6.45 59.7 -10.25 62.15 -9.75 63.05 -12.5 72.95 -19.15 M61.05 -22.45 L68.4 -20.4 61.05 -15.6 61.05 -22.45 M77.15 -12.0 L76.9 -9.65 73.7 -9.45 77.15 -12.0 M95.05 -14.3 L91.1 -9.45 88.8 -10.3 98.3 -16.6 98.8 -14.15 95.05 -14.3 M84.2 -17.7 L89.0 -17.35 84.25 -10.1 80.85 -9.9 82.35 -16.15 84.2 -17.7 M98.05 -7.95 L105.25 -9.3 105.25 -5.8 110.65 -8.95 103.4 -3.25 101.1 -6.55 98.05 -7.95 M92.75 -7.05 L100.6 -1.55 99.75 1.05 111.25 5.1 110.95 9.8 Q105.0 11.7 98.95 12.9 L98.6 12.45 90.95 12.2 70.75 28.3 70.75 30.55 73.45 30.65 94.55 15.8 85.4 26.2 85.25 28.55 87.8 28.55 Q91.8 24.25 96.45 20.7 103.0 15.75 111.0 14.25 L111.0 19.3 100.65 24.25 97.75 31.7 85.25 32.95 82.75 31.75 69.45 37.35 68.25 40.55 72.3 39.7 74.25 41.3 65.65 59.5 48.7 59.45 Q52.7 57.2 55.15 53.45 56.4 51.55 57.2 49.35 L57.65 47.95 57.95 46.4 58.35 41.25 Q58.5 35.65 53.95 32.05 50.65 29.55 46.6 29.05 L51.0 29.45 51.65 26.95 50.5 26.45 Q49.55 26.05 49.3 25.45 48.55 23.7 48.55 21.6 L44.55 24.1 Q40.35 26.35 35.5 25.6 33.35 25.25 31.35 24.35 L26.6 12.2 28.8 10.7 36.05 13.25 36.6 17.9 55.0 11.5 54.7 21.45 69.35 19.45 71.15 13.15 Q78.8 10.35 84.95 5.05 90.75 0.15 92.75 -7.05 M110.35 -0.8 L110.35 -0.65 Q110.95 2.4 107.9 0.1 L106.6 -0.7 Q110.75 -4.7 110.35 -0.8 M83.65 10.55 Q79.35 13.05 84.1 10.7 L83.65 10.55 M81.8 36.2 L82.5 35.55 Q81.1 37.8 81.8 36.2 M92.75 27.85 Q91.65 25.1 92.5 27.9 L92.75 27.85 M83.95 57.9 L83.45 58.05 Q84.45 57.3 83.95 57.9 M84.95 51.7 L80.1 54.3 85.5 45.95 84.95 51.7 M76.95 43.55 L80.65 44.85 71.65 52.1 76.95 43.55 M25.4 8.4 L19.2 8.4 19.2 2.5 28.65 2.5 28.65 6.2 25.4 8.4 M19.8 12.25 L17.35 13.95 13.45 12.25 Q5.75 17.65 1.7 12.6 L14.55 4.1 Q18.05 7.1 19.8 12.25 M15.6 19.55 L17.75 19.6 15.3 26.4 3.45 25.75 8.75 20.9 11.4 22.25 15.6 19.55 M1.0 41.8 Q2.5 39.7 6.95 36.3 11.3 33.0 14.3 31.55 13.3 33.15 1.5 42.0 L1.0 41.8 M22.3 32.05 Q19.3 35.8 11.85 43.2 L1.55 53.8 1.0 53.8 Q4.5 48.2 10.1 42.35 16.35 35.7 22.3 32.05 M29.4 56.95 L26.4 57.3 13.0 60.5 10.1 59.6 44.95 38.7 33.0 50.55 44.3 43.55 29.4 56.95 M-82.95 -17.9 L-78.95 -10.85 -82.25 -10.1 -85.75 -16.5 -82.95 -17.9 M-98.85 -14.85 L-98.4 -16.15 -89.4 -17.7 Q-98.35 -12.6 -100.05 -3.15 L-109.5 1.15 -109.55 -6.05 Q-101.5 -6.7 -98.85 -14.85 M-94.55 -8.5 L-88.6 -14.55 -86.75 -10.75 -94.55 -8.5 M-85.6 -3.1 L-85.45 1.45 -79.55 2.25 -79.55 4.8 -70.9 -6.8 -64.8 -7.45 -65.2 -0.25 -67.8 2.25 -55.7 1.9 -59.15 1.2 -59.15 -4.55 -54.3 -8.05 -54.0 -13.65 -44.5 -16.25 -47.25 -11.15 -45.8 -7.4 -41.0 -6.5 -38.9 -9.45 -22.0 -9.9 -72.55 14.8 -68.6 10.0 -85.95 14.5 -85.95 18.6 -76.75 17.0 -93.5 26.2 -96.7 24.9 -97.65 9.85 -94.75 8.55 -94.75 6.3 -97.75 6.45 -97.0 -2.5 -85.6 -3.1 M-43.8 -52.5 L-39.5 -52.5 -41.6 -49.85 -43.8 -52.5 M-51.4 -50.8 L-50.2 -52.5 -43.85 -47.0 -46.0 -44.3 -51.4 -50.8 M-57.2 -37.7 L-59.1 -36.65 -63.8 -40.4 -57.2 -37.7 M-54.0 -39.5 L-56.05 -40.9 -55.95 -44.6 -56.05 -40.9 -61.8 -44.75 -55.95 -44.6 -53.4 -48.1 -49.1 -42.15 -54.0 -39.5 M-43.2 -22.9 L-43.2 -26.1 -36.1 -26.1 -36.1 -22.9 -43.2 -22.9 M-71.35 -9.8 L-75.2 -9.85 Q-76.35 -12.0 -77.2 -15.7 L-70.45 -15.9 -71.35 -9.8 M-14.25 -2.6 L-39.45 7.05 -43.15 5.4 -15.7 -9.4 -2.05 -8.25 -3.1 -1.35 Q-6.45 1.7 -10.65 2.65 -16.4 4.15 -22.2 2.9 L-14.25 -0.35 -14.25 -2.6 M-26.2 4.55 L-30.05 8.15 -34.6 8.0 -26.2 4.55 M-37.25 -13.0 Q-35.8 -14.85 -37.8 -11.95 L-37.25 -13.0 M-27.75 25.25 L-11.5 19.95 -14.35 28.3 -28.65 28.6 -27.75 25.25 M-30.0 46.0 L-30.5 45.8 Q-29.1 43.7 -22.55 39.1 L-15.0 34.05 Q-16.45 37.05 -21.45 40.25 -28.6 44.75 -30.0 46.0 M-0.5 31.05 Q-1.9 33.9 -8.25 38.35 L-17.0 44.5 -17.5 44.3 Q-16.15 42.3 -9.75 37.7 L-0.5 31.05 M-55.7 13.5 L-79.55 25.6 -83.05 25.05 -51.5 8.2 -58.1 13.0 -55.7 13.5 M-72.8 39.05 L-76.05 53.85 -79.75 54.65 -79.35 44.45 -72.8 39.05 M-77.75 29.15 L-69.9 25.5 -71.85 34.3 -77.85 34.35 -77.75 29.15 M-99.8 20.4 L-100.45 17.4 -105.45 20.35 -109.5 20.1 -108.35 14.2 -100.15 10.95 -99.8 20.4 M-38.5 41.75 L-53.5 53.0 Q-48.4 41.35 -38.5 41.75 M-100.2 7.5 L-107.8 10.45 -109.0 5.9 -100.2 1.9 -100.2 7.5 M-83.35 34.4 L-86.45 34.4 -82.9 32.15 -83.35 34.4" fill="#000000" fill-opacity="0.6" fill-rule="evenodd" stroke="none"/>
    <path d="M61.4 -36.7 L60.0 -33.7 58.75 -36.25 57.7 -38.4 M55.9 -42.05 L54.65 -44.6 M-57.2 -37.7 L-59.1 -36.65 M-54.0 -39.5 L-49.1 -42.15 M-55.95 -44.6 L-56.05 -40.9" fill="none" stroke="#439de0" stroke-linecap="square" stroke-linejoin="round" stroke-width="2.0"/>
  </g>
</svg>
