<?xml version="1.0" encoding="UTF-8" standalone="no"?>
<svg xmlns:ffdec="https://www.free-decompiler.com/flash" xmlns:xlink="http://www.w3.org/1999/xlink" ffdec:objectType="shape" height="22.0px" width="22.0px" xmlns="http://www.w3.org/2000/svg">
  <g transform="matrix(1.0, 0.0, 0.0, 1.0, 1.4, 4.4)">
    <path d="M2.6 -1.95 Q5.55 -4.45 9.6 -4.4 13.6 -4.45 16.6 -1.95 L17.3 -1.3 17.4 -1.25 Q20.6 2.0 20.6 6.6 20.6 11.2 17.4 14.35 14.15 17.55 9.6 17.6 5.0 17.55 1.8 14.35 -1.45 11.2 -1.4 6.6 L-1.4 6.55 Q-1.45 1.95 1.8 -1.25 L2.6 -1.95 M3.75 -0.5 L3.1 0.05 Q0.4 2.75 0.45 6.55 L0.45 6.6 Q0.4 10.4 3.1 13.05 L3.1 13.0 Q5.8 15.7 9.6 15.7 13.35 15.7 16.05 13.0 L16.05 13.05 Q18.75 10.4 18.75 6.55 18.75 2.75 16.05 0.05 L16.0 0.0 15.4 -0.5 Q12.9 -2.6 9.6 -2.6 6.25 -2.6 3.75 -0.5" fill="#eeeeee" fill-opacity="0.49803922" fill-rule="evenodd" stroke="none"/>
    <path d="M3.75 -0.5 Q6.25 -2.6 9.6 -2.6 12.9 -2.6 15.4 -0.5 L16.0 0.0 16.05 0.05 Q18.75 2.75 18.75 6.55 18.75 10.4 16.05 13.05 L16.05 13.0 Q13.35 15.7 9.6 15.7 5.8 15.7 3.1 13.0 L3.1 13.05 Q0.4 10.4 0.45 6.6 L0.45 6.55 Q0.4 2.75 3.1 0.05 L3.75 -0.5 M4.75 1.05 L4.4 1.35 Q2.2 3.5 2.25 6.55 L2.25 6.6 Q2.2 9.6 4.4 11.75 6.55 13.9 9.6 13.9 12.65 13.9 14.8 11.75 16.95 9.6 16.95 6.55 16.95 3.55 14.85 1.35 L14.4 1.05 14.25 0.9 Q12.25 -0.8 9.6 -0.8 6.9 -0.8 4.95 0.9 L4.9 0.95 4.75 1.05" fill="#000000" fill-rule="evenodd" stroke="none"/>
    <path d="M14.4 1.05 L11.65 6.55 7.55 6.55 4.75 1.05 4.9 0.95 4.95 0.9 Q6.9 -0.8 9.6 -0.8 12.25 -0.8 14.25 0.9 L14.4 1.05" fill="#006699" fill-rule="evenodd" stroke="none"/>
    <path d="M14.4 1.05 L14.85 1.35 Q16.95 3.55 16.95 6.55 16.95 9.6 14.8 11.75 12.65 13.9 9.6 13.9 6.55 13.9 4.4 11.75 2.2 9.6 2.25 6.6 L2.25 6.55 Q2.2 3.5 4.4 1.35 L4.75 1.05 7.55 6.55 11.65 6.55 14.4 1.05" fill="#eeeeee" fill-rule="evenodd" stroke="none"/>
  </g>
</svg>
