<?xml version="1.0" encoding="UTF-8" standalone="no"?>
<svg xmlns:ffdec="https://www.free-decompiler.com/flash" xmlns:xlink="http://www.w3.org/1999/xlink" ffdec:objectType="shape" height="38.0px" width="30.15px" xmlns="http://www.w3.org/2000/svg">
  <g transform="matrix(1.0, 0.0, 0.0, 1.0, 11.15, 19.0)">
    <path d="M13.4 -13.45 Q18.95 -7.9 19.0 0.0 18.95 7.85 13.4 13.45 7.85 19.0 0.0 19.0 -6.35 19.0 -11.15 15.4 L-7.6 10.5 Q-4.3 12.95 0.0 13.0 L0.05 13.0 Q5.4 12.95 9.2 9.15 13.0 5.35 13.05 0.0 13.0 -5.4 9.2 -9.25 L7.7 -10.55 Q4.35 -13.05 0.05 -13.0 L0.0 -13.0 0.0 -19.0 Q6.35 -19.0 11.2 -15.35 L13.4 -13.45" fill="url(#gradient0)" fill-rule="evenodd" stroke="none"/>
  </g>
  <defs>
    <linearGradient gradientTransform="matrix(0.0, 0.0201, -0.0232, 0.0, 0.0, -0.5)" gradientUnits="userSpaceOnUse" id="gradient0" spreadMethod="pad" x1="-819.2" x2="819.2">
      <stop offset="0.0" stop-color="#fee223"/>
      <stop offset="1.0" stop-color="#f5bf0a"/>
    </linearGradient>
  </defs>
</svg>
