<?xml version="1.0" encoding="UTF-8" standalone="no"?>
<svg xmlns:ffdec="https://www.free-decompiler.com/flash" xmlns:xlink="http://www.w3.org/1999/xlink" ffdec:objectType="shape" height="38.0px" width="38.0px" xmlns="http://www.w3.org/2000/svg">
  <g transform="matrix(1.0, 0.0, 0.0, 1.0, 19.0, 19.0)">
    <path d="M0.0 -19.0 Q7.85 -19.0 13.4 -13.45 18.95 -7.9 19.0 0.0 18.95 7.85 13.4 13.45 L11.15 15.4 Q6.3 19.0 0.0 19.0 -7.9 19.0 -13.45 13.45 -19.0 7.85 -19.0 0.0 -19.0 -7.9 -13.45 -13.45 L-11.2 -15.4 -7.65 -10.55 -9.2 -9.25 Q-13.0 -5.4 -12.95 0.0 -13.0 5.35 -9.2 9.15 -5.4 12.95 0.0 13.0 L0.05 13.0 Q4.35 12.95 7.65 10.5 L9.2 9.15 Q13.0 5.35 13.05 0.0 13.0 -5.4 9.2 -9.25 5.4 -13.05 0.05 -13.0 L0.0 -13.0 0.0 -19.0" fill="url(#gradient0)" fill-rule="evenodd" stroke="none"/>
  </g>
  <defs>
    <linearGradient gradientTransform="matrix(0.0, 0.0201, -0.0232, 0.0, 0.0, -0.5)" gradientUnits="userSpaceOnUse" id="gradient0" spreadMethod="pad" x1="-819.2" x2="819.2">
      <stop offset="0.0" stop-color="#fee223"/>
      <stop offset="1.0" stop-color="#f5bf0a"/>
    </linearGradient>
  </defs>
</svg>
