<?xml version="1.0" encoding="UTF-8" standalone="no"?>
<svg xmlns:ffdec="https://www.free-decompiler.com/flash" xmlns:xlink="http://www.w3.org/1999/xlink" ffdec:objectType="shape" height="100.0px" width="304.95px" xmlns="http://www.w3.org/2000/svg">
  <g transform="matrix(1.0, 0.0, 0.0, 1.0, 0.0, 0.0)">
    <path d="M302.95 35.0 Q302.9 21.3 293.25 11.65 283.6 2.0 269.95 2.0 L268.6 2.0 268.5 2.0 261.35 2.0 261.3 2.0 259.95 2.0 258.6 2.0 258.5 2.0 12.0 2.0 Q2.0 2.0 2.0 12.0 L2.0 88.0 Q2.0 98.0 12.0 98.0 L165.95 98.0 Q175.95 98.0 175.95 88.0 L175.95 70.0 Q175.95 69.15 176.55 68.6 177.1 68.0 177.95 68.0 L269.65 68.0 269.95 68.0 Q283.6 67.95 293.25 58.3 302.9 48.65 302.95 35.0 M304.95 35.0 Q304.9 49.5 294.7 59.75 284.45 69.95 269.95 70.0 L177.95 70.0 177.95 88.0 Q177.95 100.0 165.95 100.0 L12.0 100.0 Q0.0 100.0 0.0 88.0 L0.0 12.0 Q0.0 0.0 12.0 0.0 L258.5 0.0 259.95 0.0 261.35 0.0 268.5 0.0 269.95 0.0 Q284.45 0.0 294.7 10.25 304.9 20.45 304.95 35.0" fill="#e613e6" fill-opacity="0.0" fill-rule="evenodd" stroke="none"/>
  </g>
</svg>
