<?xml version="1.0" encoding="UTF-8" standalone="no"?>
<svg xmlns:ffdec="https://www.free-decompiler.com/flash" xmlns:xlink="http://www.w3.org/1999/xlink" ffdec:objectType="shape" height="104.0px" width="224.0px" xmlns="http://www.w3.org/2000/svg">
  <g transform="matrix(1.0, 0.0, 0.0, 1.0, 112.0, 52.0)">
    <path d="M110.0 40.0 L110.0 -40.0 Q110.0 -50.0 100.0 -50.0 L-100.0 -50.0 Q-110.0 -50.0 -110.0 -40.0 L-110.0 40.0 Q-110.0 50.0 -100.0 50.0 L100.0 50.0 Q110.0 50.0 110.0 40.0 Z" fill="none" stroke="#f709c8" stroke-linecap="round" stroke-linejoin="round" stroke-opacity="0.7019608" stroke-width="4.0"/>
    <path d="M100.0 -50.0 Q110.0 -50.0 110.0 -40.0 L110.0 40.0 Q110.0 50.0 100.0 50.0 L-100.0 50.0 Q-110.0 50.0 -110.0 40.0 L-110.0 -40.0 Q-110.0 -50.0 -100.0 -50.0 L100.0 -50.0" fill="#000000" fill-opacity="0.8" fill-rule="evenodd" stroke="none"/>
  </g>
</svg>
