<?xml version="1.0" encoding="UTF-8" standalone="no"?>
<svg xmlns:ffdec="https://www.free-decompiler.com/flash" xmlns:xlink="http://www.w3.org/1999/xlink" ffdec:objectType="shape" height="34.0px" width="34.0px" xmlns="http://www.w3.org/2000/svg">
  <g transform="matrix(1.0, 0.0, 0.0, 1.0, 0.0, 0.0)">
    <path d="M28.85 1.0 Q33.0 1.0 33.0 5.2 L33.0 28.85 Q33.0 33.0 28.85 33.0 L5.2 33.0 Q1.0 33.0 1.0 28.85 L1.0 5.2 Q1.0 1.0 5.2 1.0 L28.85 1.0" fill="#628fc1" fill-rule="evenodd" stroke="none"/>
    <path d="M28.85 1.0 L5.2 1.0 Q1.0 1.0 1.0 5.2 L1.0 28.85 Q1.0 33.0 5.2 33.0 L28.85 33.0 Q33.0 33.0 33.0 28.85 L33.0 5.2 Q33.0 1.0 28.85 1.0 Z" fill="none" stroke="#3c6899" stroke-linecap="round" stroke-linejoin="round" stroke-width="2.0"/>
  </g>
</svg>
