<?xml version="1.0" encoding="UTF-8" standalone="no"?>
<svg xmlns:ffdec="https://www.free-decompiler.com/flash" xmlns:xlink="http://www.w3.org/1999/xlink" ffdec:objectType="shape" height="144.0px" width="244.0px" xmlns="http://www.w3.org/2000/svg">
  <g transform="matrix(1.0, 0.0, 0.0, 1.0, 122.0, 67.0)">
    <path d="M110.0 -65.0 L-110.0 -65.0 Q-120.0 -65.0 -120.0 -55.0 L-120.0 65.0 Q-120.0 75.0 -110.0 75.0 L110.0 75.0 Q120.0 75.0 120.0 65.0 L120.0 -55.0 Q120.0 -65.0 110.0 -65.0 Z" fill="none" stroke="#f709c8" stroke-linecap="round" stroke-linejoin="round" stroke-opacity="0.7019608" stroke-width="4.0"/>
    <path d="M110.0 -65.0 Q120.0 -65.0 120.0 -55.0 L120.0 65.0 Q120.0 75.0 110.0 75.0 L-110.0 75.0 Q-120.0 75.0 -120.0 65.0 L-120.0 -55.0 Q-120.0 -65.0 -110.0 -65.0 L110.0 -65.0" fill="#000000" fill-opacity="0.8" fill-rule="evenodd" stroke="none"/>
    <path d="M100.0 33.0 L-100.0 33.0 -100.0 31.0 100.0 31.0 100.0 33.0" fill="url(#gradient0)" fill-rule="evenodd" stroke="none"/>
  </g>
  <defs>
    <linearGradient gradientTransform="matrix(0.1221, 0.0, 0.0, 0.0012, 0.0, 32.0)" gradientUnits="userSpaceOnUse" id="gradient0" spreadMethod="pad" x1="-819.2" x2="819.2">
      <stop offset="0.0" stop-color="#999999" stop-opacity="0.0"/>
      <stop offset="0.5058823529411764" stop-color="#999999"/>
      <stop offset="1.0" stop-color="#999999" stop-opacity="0.0"/>
    </linearGradient>
  </defs>
</svg>
