<?xml version="1.0" encoding="UTF-8" standalone="no"?>
<svg xmlns:ffdec="https://www.free-decompiler.com/flash" xmlns:xlink="http://www.w3.org/1999/xlink" ffdec:objectType="shape" height="234.5px" width="322.0px" xmlns="http://www.w3.org/2000/svg">
  <g transform="matrix(1.0, 0.0, 0.0, 1.0, 1.0, 1.0)">
    <path d="M320.0 16.7 L320.0 220.45 320.0 221.55 Q319.5 232.35 308.35 232.5 L307.7 232.5 148.6 232.5 143.6 232.2 Q135.7 231.1 134.5 223.35 134.15 221.15 134.1 218.65 L134.05 218.65 134.05 210.0 14.85 210.0 9.35 209.65 Q1.5 208.5 0.4 200.65 0.0 198.25 0.0 195.5 L0.0 12.0 Q0.0 0.15 11.7 0.0 L12.3 0.0 303.7 0.0 Q308.5 0.0 312.15 1.2 317.1 2.65 318.6 7.6 320.0 11.45 320.0 16.7 Z" fill="none" stroke="#393939" stroke-linecap="round" stroke-linejoin="round" stroke-width="2.0"/>
    <path d="M312.15 1.2 Q317.1 2.65 318.6 7.6 320.0 11.45 320.0 16.7 L320.0 220.45 320.0 221.55 Q319.5 232.35 308.35 232.5 L307.7 232.5 148.6 232.5 143.6 232.2 Q135.7 231.1 134.5 223.35 134.15 221.15 134.1 218.65 L134.05 218.65 134.05 210.0 14.85 210.0 9.35 209.65 Q1.5 208.5 0.4 200.65 0.0 198.25 0.0 195.5 L0.0 12.0 Q0.0 0.15 11.7 0.0 L12.3 0.0 303.7 0.0 Q308.5 0.0 312.15 1.2" fill="#000000" fill-opacity="0.8" fill-rule="evenodd" stroke="none"/>
    <path d="M149.9 229.0 L303.95 229.0 303.95 231.0 149.9 231.0 149.9 229.0" fill="url(#gradient0)" fill-rule="evenodd" stroke="none"/>
  </g>
  <defs>
    <linearGradient gradientTransform="matrix(0.094, 0.0, 0.0, 0.0012, 226.95, 230.0)" gradientUnits="userSpaceOnUse" id="gradient0" spreadMethod="pad" x1="-819.2" x2="819.2">
      <stop offset="0.0" stop-color="#ffffff" stop-opacity="0.0"/>
      <stop offset="0.20784313725490197" stop-color="#ffffff" stop-opacity="0.2"/>
      <stop offset="0.8235294117647058" stop-color="#ffffff" stop-opacity="0.2"/>
      <stop offset="1.0" stop-color="#ffffff" stop-opacity="0.0"/>
    </linearGradient>
  </defs>
</svg>
