<?xml version="1.0" encoding="UTF-8" standalone="no"?>
<svg xmlns:ffdec="https://www.free-decompiler.com/flash" xmlns:xlink="http://www.w3.org/1999/xlink" ffdec:objectType="shape" height="13.0px" width="56.0px" xmlns="http://www.w3.org/2000/svg">
  <g transform="matrix(1.0, 0.0, 0.0, 1.0, -3.0, -3.0)">
    <path d="M53.0 6.0 L53.0 10.0 50.0 10.0 50.0 14.0 40.0 14.0 40.0 13.0 39.0 13.0 39.0 14.0 32.0 14.0 32.0 13.0 30.0 13.0 30.0 14.0 24.0 14.0 24.0 13.0 23.0 13.0 23.0 14.0 19.0 14.0 19.0 13.0 18.0 13.0 18.0 14.0 15.0 14.0 15.0 16.0 11.0 16.0 11.0 13.0 10.0 13.0 10.0 14.0 4.0 14.0 4.0 13.0 3.0 13.0 3.0 5.0 4.0 5.0 4.0 4.0 10.0 4.0 10.0 5.0 11.0 5.0 11.0 6.0 18.0 6.0 18.0 7.0 19.0 7.0 19.0 3.0 23.0 3.0 23.0 7.0 24.0 7.0 24.0 6.0 30.0 6.0 30.0 7.0 32.0 7.0 32.0 6.0 35.0 6.0 35.0 3.0 39.0 3.0 39.0 7.0 40.0 7.0 40.0 6.0 53.0 6.0 M59.0 4.0 L59.0 14.0 55.0 14.0 55.0 4.0 59.0 4.0 M58.0 11.0 L58.0 5.0 56.0 5.0 56.0 11.0 58.0 11.0 M52.0 9.0 L52.0 7.0 50.0 7.0 50.0 8.0 49.0 8.0 49.0 7.0 47.0 7.0 47.0 13.0 49.0 13.0 49.0 9.0 52.0 9.0 M58.0 12.0 L56.0 12.0 56.0 13.0 58.0 13.0 58.0 12.0 M44.0 9.0 L42.0 9.0 42.0 8.0 44.0 8.0 44.0 9.0 M38.0 4.0 L36.0 4.0 36.0 7.0 33.0 7.0 33.0 8.0 32.0 8.0 32.0 12.0 33.0 12.0 33.0 13.0 38.0 13.0 38.0 4.0 M45.0 8.0 L45.0 7.0 41.0 7.0 41.0 8.0 40.0 8.0 40.0 12.0 41.0 12.0 41.0 13.0 45.0 13.0 45.0 12.0 46.0 12.0 46.0 11.0 45.0 11.0 45.0 12.0 42.0 12.0 42.0 10.0 46.0 10.0 46.0 8.0 45.0 8.0 M34.0 8.0 L36.0 8.0 36.0 12.0 34.0 12.0 34.0 8.0 M25.0 7.0 L25.0 8.0 24.0 8.0 24.0 12.0 25.0 12.0 25.0 13.0 29.0 13.0 29.0 12.0 30.0 12.0 30.0 8.0 29.0 8.0 29.0 7.0 25.0 7.0 M28.0 8.0 L28.0 12.0 26.0 12.0 26.0 8.0 28.0 8.0 M22.0 13.0 L22.0 4.0 20.0 4.0 20.0 13.0 22.0 13.0 M14.0 8.0 L16.0 8.0 16.0 12.0 14.0 12.0 14.0 8.0 M9.0 6.0 L9.0 5.0 5.0 5.0 5.0 6.0 4.0 6.0 4.0 9.0 5.0 9.0 5.0 10.0 8.0 10.0 8.0 12.0 5.0 12.0 5.0 11.0 4.0 11.0 4.0 12.0 5.0 12.0 5.0 13.0 9.0 13.0 9.0 12.0 10.0 12.0 10.0 9.0 9.0 9.0 9.0 8.0 6.0 8.0 6.0 6.0 9.0 6.0 9.0 7.0 10.0 7.0 10.0 6.0 9.0 6.0 M18.0 8.0 L17.0 8.0 17.0 7.0 12.0 7.0 12.0 15.0 14.0 15.0 14.0 13.0 17.0 13.0 17.0 12.0 18.0 12.0 18.0 8.0" fill="#a4b5d5" fill-rule="evenodd" stroke="none"/>
    <path d="M58.0 12.0 L58.0 13.0 56.0 13.0 56.0 12.0 58.0 12.0 M52.0 9.0 L49.0 9.0 49.0 13.0 47.0 13.0 47.0 7.0 49.0 7.0 49.0 8.0 50.0 8.0 50.0 7.0 52.0 7.0 52.0 9.0 M58.0 11.0 L56.0 11.0 56.0 5.0 58.0 5.0 58.0 11.0 M44.0 9.0 L44.0 8.0 42.0 8.0 42.0 9.0 44.0 9.0 M45.0 8.0 L46.0 8.0 46.0 10.0 42.0 10.0 42.0 12.0 45.0 12.0 45.0 11.0 46.0 11.0 46.0 12.0 45.0 12.0 45.0 13.0 41.0 13.0 41.0 12.0 40.0 12.0 40.0 8.0 41.0 8.0 41.0 7.0 45.0 7.0 45.0 8.0 M38.0 4.0 L38.0 13.0 33.0 13.0 33.0 12.0 32.0 12.0 32.0 8.0 33.0 8.0 33.0 7.0 36.0 7.0 36.0 4.0 38.0 4.0 M34.0 8.0 L34.0 12.0 36.0 12.0 36.0 8.0 34.0 8.0 M25.0 7.0 L29.0 7.0 29.0 8.0 30.0 8.0 30.0 12.0 29.0 12.0 29.0 13.0 25.0 13.0 25.0 12.0 24.0 12.0 24.0 8.0 25.0 8.0 25.0 7.0 M28.0 8.0 L26.0 8.0 26.0 12.0 28.0 12.0 28.0 8.0 M22.0 13.0 L20.0 13.0 20.0 4.0 22.0 4.0 22.0 13.0 M14.0 8.0 L14.0 12.0 16.0 12.0 16.0 8.0 14.0 8.0 M18.0 8.0 L18.0 12.0 17.0 12.0 17.0 13.0 14.0 13.0 14.0 15.0 12.0 15.0 12.0 7.0 17.0 7.0 17.0 8.0 18.0 8.0 M9.0 6.0 L10.0 6.0 10.0 7.0 9.0 7.0 9.0 6.0 6.0 6.0 6.0 8.0 9.0 8.0 9.0 9.0 10.0 9.0 10.0 12.0 9.0 12.0 9.0 13.0 5.0 13.0 5.0 12.0 4.0 12.0 4.0 11.0 5.0 11.0 5.0 12.0 8.0 12.0 8.0 10.0 5.0 10.0 5.0 9.0 4.0 9.0 4.0 6.0 5.0 6.0 5.0 5.0 9.0 5.0 9.0 6.0" fill="#000000" fill-rule="evenodd" stroke="none"/>
  </g>
</svg>
