<?xml version="1.0" encoding="UTF-8" standalone="no"?>
<svg xmlns:ffdec="https://www.free-decompiler.com/flash" xmlns:xlink="http://www.w3.org/1999/xlink" ffdec:objectType="shape" height="10.0px" width="10.0px" xmlns="http://www.w3.org/2000/svg">
  <g transform="matrix(1.0, 0.0, 0.0, 1.0, 5.0, 5.0)">
    <path d="M4.0 -4.0 L4.0 -3.0 5.0 -3.0 5.0 3.0 4.0 3.0 4.0 -3.0 3.0 -3.0 3.0 -4.0 4.0 -4.0 M1.0 -1.9 L1.0 -2.9 2.0 -2.9 2.0 -2.0 3.0 -2.0 3.0 2.0 2.0 2.0 2.0 -1.9 1.0 -1.9 M4.0 3.1 L4.0 4.1 3.0 4.1 3.0 3.1 4.0 3.1 M2.0 3.1 L1.0 3.1 1.0 2.1 2.0 2.1 2.0 3.1 M-3.0 -4.0 L-2.0 -4.0 -2.0 -5.0 -1.0 -5.0 -1.0 5.0 -2.0 5.0 -2.0 4.0 -3.0 4.0 -3.0 3.0 -4.0 3.0 -4.0 2.0 -5.0 2.0 -5.0 -2.0 -4.0 -2.0 -4.0 -3.0 -3.0 -3.0 -3.0 -4.0" fill="#ced7e8" fill-rule="evenodd" stroke="none"/>
  </g>
</svg>
