<?xml version="1.0" encoding="UTF-8" standalone="no"?>
<svg xmlns:ffdec="https://www.free-decompiler.com/flash" xmlns:xlink="http://www.w3.org/1999/xlink" ffdec:objectType="shape" height="9.0px" width="8.0px" xmlns="http://www.w3.org/2000/svg">
  <g transform="matrix(1.0, 0.0, 0.0, 1.0, 0.0, 0.0)">
    <path d="M5.0 1.0 L6.0 1.0 6.0 0.0 8.0 0.0 8.0 7.0 7.0 7.0 7.0 8.0 5.0 8.0 5.0 7.0 6.0 7.0 6.0 6.0 7.0 6.0 7.0 3.0 7.0 2.0 6.0 2.0 5.0 2.0 4.0 2.0 4.0 3.0 3.0 3.0 3.0 8.0 2.0 8.0 2.0 9.0 0.0 9.0 0.0 8.0 1.0 8.0 1.0 7.0 2.0 7.0 2.0 1.0 3.0 1.0 4.0 1.0 5.0 1.0" fill="#cccccc" fill-rule="evenodd" stroke="none"/>
    <path d="M6.0 0.0 L6.0 1.0 5.0 1.0 5.0 0.0 6.0 0.0 M1.0 7.0 L1.0 8.0 0.0 8.0 0.0 7.0 1.0 7.0 M4.0 3.0 L4.0 2.0 5.0 2.0 5.0 3.0 4.0 3.0 M6.0 6.0 L6.0 7.0 5.0 7.0 5.0 6.0 6.0 6.0" fill="#cccccc" fill-opacity="0.7490196" fill-rule="evenodd" stroke="none"/>
    <path d="M4.0 1.0 L3.0 1.0 3.0 0.0 4.0 0.0 4.0 1.0 M6.0 2.0 L7.0 2.0 7.0 3.0 6.0 3.0 6.0 2.0" fill="#cccccc" fill-opacity="0.2509804" fill-rule="evenodd" stroke="none"/>
    <path d="M5.0 1.0 L4.0 1.0 4.0 0.0 5.0 0.0 5.0 1.0 M2.0 9.0 L2.0 8.0 3.0 8.0 3.0 9.0 2.0 9.0 M5.0 2.0 L6.0 2.0 6.0 3.0 5.0 3.0 5.0 2.0 M7.0 8.0 L7.0 7.0 8.0 7.0 8.0 8.0 7.0 8.0" fill="#cccccc" fill-opacity="0.49803922" fill-rule="evenodd" stroke="none"/>
  </g>
</svg>
