<?xml version="1.0" encoding="UTF-8" standalone="no"?>
<svg xmlns:ffdec="https://www.free-decompiler.com/flash" xmlns:xlink="http://www.w3.org/1999/xlink" ffdec:objectType="shape" height="249.45px" width="343.05px" xmlns="http://www.w3.org/2000/svg">
  <g transform="matrix(1.0, 0.0, 0.0, 1.0, 101.7, 144.0)">
    <path d="M101.7 -42.1 L81.35 73.45 Q78.45 89.8 68.25 96.3 58.65 103.8 42.15 100.9 L-73.4 80.5 Q-90.0 77.6 -96.7 67.6 -103.8 57.9 -100.85 41.35 L-80.45 -74.2 Q-74.6 -107.55 -41.25 -101.65 L74.3 -81.3 Q90.65 -78.4 97.15 -68.2 104.65 -58.6 101.7 -42.1 M98.75 -42.65 Q101.4 -57.65 94.75 -66.4 88.8 -75.7 73.75 -78.35 L-41.8 -98.7 Q-72.15 -104.1 -77.5 -73.7 L-97.9 41.85 Q-100.55 57.0 -94.2 65.9 -88.05 74.9 -72.85 77.55 L42.7 97.95 Q57.65 100.6 66.45 93.9 75.75 87.95 78.4 72.95 L98.75 -42.65" fill="#b329ff" fill-opacity="0.4" fill-rule="evenodd" stroke="none"/>
    <path d="M96.8 -43.0 Q99.25 -57.0 93.15 -65.2 87.5 -73.9 73.4 -76.35 L-42.15 -96.75 Q-70.55 -101.75 -75.55 -73.35 L-95.9 42.2 Q-100.95 70.55 -72.5 75.6 L43.05 95.95 Q57.0 98.45 65.25 92.3 73.9 86.7 76.4 72.6 L96.8 -43.0 M98.75 -42.65 L78.4 72.95 Q75.75 87.95 66.45 93.9 57.65 100.6 42.7 97.95 L-72.85 77.55 Q-88.05 74.9 -94.2 65.9 -100.55 57.0 -97.9 41.85 L-77.5 -73.7 Q-72.15 -104.1 -41.8 -98.7 L73.75 -78.35 Q88.8 -75.7 94.75 -66.4 101.4 -57.65 98.75 -42.65" fill="#b329ff" fill-opacity="0.7019608" fill-rule="evenodd" stroke="none"/>
    <path d="M90.4 -0.3 Q89.2 -0.05 88.35 0.85 87.45 1.75 87.3 3.0 L81.55 40.3 Q81.35 41.65 82.05 42.85 L82.05 42.9 Q82.75 44.1 84.1 44.6 L84.05 44.6 221.95 98.15 224.2 98.35 224.25 98.35 Q225.35 98.1 226.2 97.25 227.05 96.4 227.3 95.25 L234.2 63.95 234.25 63.7 Q234.55 62.3 233.9 61.05 L233.8 60.9 Q233.15 59.7 231.9 59.2 L231.9 59.15 92.8 -0.1 92.8 -0.05 90.45 -0.3 90.4 -0.3 M86.15 -1.2 Q87.65 -2.8 89.8 -3.25 91.95 -3.7 93.95 -2.85 L233.05 56.4 233.1 56.4 Q235.4 57.4 236.55 59.65 L236.55 59.7 Q237.7 61.9 237.15 64.35 L237.15 64.4 230.25 95.9 Q229.8 97.9 228.3 99.4 226.85 100.85 224.85 101.25 L220.9 100.95 83.0 47.4 Q80.7 46.5 79.45 44.4 78.2 42.25 78.6 39.85 L84.3 2.55 Q84.65 0.4 86.15 -1.2" fill="#000000" fill-rule="evenodd" stroke="none"/>
    <path d="M84.7 -2.6 Q86.65 -4.65 89.4 -5.2 92.15 -5.8 94.75 -4.65 L233.85 54.6 Q236.8 55.85 238.35 58.75 239.8 61.65 239.1 64.85 L239.1 64.8 232.2 96.35 Q231.6 98.9 229.75 100.8 L229.7 100.8 Q227.8 102.65 225.25 103.2 L225.25 103.25 Q222.65 103.75 220.15 102.8 L82.25 49.25 Q79.3 48.1 77.75 45.4 76.1 42.65 76.6 39.55 L82.35 2.25 Q82.75 -0.55 84.7 -2.6 M86.15 -1.2 Q84.65 0.4 84.3 2.55 L78.6 39.85 Q78.2 42.25 79.45 44.4 80.7 46.5 83.0 47.4 L220.9 100.95 224.85 101.25 Q226.85 100.85 228.3 99.4 229.8 97.9 230.25 95.9 L237.15 64.4 237.15 64.35 Q237.7 61.9 236.55 59.7 L236.55 59.65 Q235.4 57.4 233.1 56.4 L233.05 56.4 93.95 -2.85 Q91.95 -3.7 89.8 -3.25 87.65 -2.8 86.15 -1.2" fill="#b329ff" fill-opacity="0.4" fill-rule="evenodd" stroke="none"/>
    <path d="M83.25 -3.95 Q85.6 -6.45 89.0 -7.15 92.35 -7.9 95.55 -6.5 L234.65 52.75 Q238.3 54.3 240.1 57.8 L240.15 57.85 Q241.95 61.4 241.05 65.25 L241.05 65.2 234.15 96.75 234.15 96.8 Q233.4 99.9 231.15 102.2 L231.1 102.25 Q228.8 104.5 225.7 105.2 L225.65 105.2 Q222.5 105.85 219.45 104.65 L81.55 51.15 Q77.95 49.75 76.0 46.4 74.05 43.05 74.65 39.25 L80.35 1.95 Q80.85 -1.45 83.25 -3.95 M84.7 -2.6 Q82.75 -0.55 82.35 2.25 L76.6 39.55 Q76.1 42.65 77.75 45.4 79.3 48.1 82.25 49.25 L220.15 102.8 Q222.65 103.75 225.25 103.25 L225.25 103.2 Q227.8 102.65 229.7 100.8 L229.75 100.8 Q231.6 98.9 232.2 96.35 L239.1 64.8 239.1 64.85 Q239.8 61.65 238.35 58.75 236.8 55.85 233.85 54.6 L94.75 -4.65 Q92.15 -5.8 89.4 -5.2 86.65 -4.65 84.7 -2.6" fill="#b329ff" fill-opacity="0.12941177" fill-rule="evenodd" stroke="none"/>
    <path d="M90.4 -0.3 L90.45 -0.3 92.8 -0.05 92.8 -0.1 231.9 59.15 231.9 59.2 Q233.15 59.7 233.8 60.9 L233.9 61.05 Q234.55 62.3 234.25 63.7 L234.2 63.95 227.3 95.25 Q227.05 96.4 226.2 97.25 225.35 98.1 224.25 98.35 L224.2 98.35 221.95 98.15 84.05 44.6 84.1 44.6 Q82.75 44.1 82.05 42.9 L82.05 42.85 Q81.35 41.65 81.55 40.3 L87.3 3.0 Q87.45 1.75 88.35 0.85 89.2 -0.05 90.4 -0.3" fill="url(#gradient0)" fill-rule="evenodd" stroke="none"/>
    <path d="M-41.8 -137.05 L-41.75 -137.1 Q-37.9 -142.55 -31.3 -143.7 -24.7 -144.9 -19.2 -141.05 -13.7 -137.2 -12.55 -130.6 -11.4 -124.0 -15.25 -118.5 L-15.95 -117.55 -7.65 -92.1 Q-7.15 -90.6 -7.55 -89.05 -7.95 -87.5 -9.1 -86.4 -10.3 -85.35 -11.85 -85.05 L-29.55 -81.95 -32.6 -82.25 Q-34.05 -82.9 -34.95 -84.2 -35.85 -85.55 -35.9 -87.1 L-36.8 -113.85 -37.8 -114.5 Q-43.3 -118.35 -44.45 -124.95 -45.6 -131.55 -41.8 -137.05 M-14.3 -130.25 Q-15.35 -136.15 -20.25 -139.6 -25.15 -143.0 -31.0 -141.95 -36.85 -140.95 -40.3 -136.05 -43.75 -131.15 -42.7 -125.25 -41.65 -119.4 -36.75 -116.0 L-35.0 -114.9 -34.1 -87.15 Q-34.05 -86.15 -33.45 -85.25 -32.85 -84.35 -31.85 -83.95 L-29.85 -83.7 -12.15 -86.85 Q-11.1 -87.05 -10.3 -87.75 -9.55 -88.5 -9.25 -89.5 -9.05 -90.55 -9.35 -91.5 L-17.95 -117.9 -16.7 -119.55 Q-13.3 -124.4 -14.3 -130.25" fill="#b329ff" fill-opacity="0.4" fill-rule="evenodd" stroke="none"/>
    <path d="M-14.3 -130.25 Q-13.3 -124.4 -16.7 -119.55 L-17.95 -117.9 -9.35 -91.5 Q-9.05 -90.55 -9.25 -89.5 -9.55 -88.5 -10.3 -87.75 -11.1 -87.05 -12.15 -86.85 L-29.85 -83.7 -31.85 -83.95 Q-32.85 -84.35 -33.45 -85.25 -34.05 -86.15 -34.1 -87.15 L-35.0 -114.9 -36.75 -116.0 Q-41.65 -119.4 -42.7 -125.25 -43.75 -131.15 -40.3 -136.05 -36.85 -140.95 -31.0 -141.95 -25.15 -143.0 -20.25 -139.6 -15.35 -136.15 -14.3 -130.25 M-38.8 -135.05 L-38.85 -135.0 Q-41.85 -130.75 -40.9 -125.6 -40.0 -120.45 -35.75 -117.45 -34.55 -116.6 -33.25 -116.05 L-32.3 -87.2 Q-32.3 -86.7 -31.95 -86.25 L-31.15 -85.6 -30.2 -85.5 -12.45 -88.6 -11.55 -89.1 Q-11.15 -89.45 -11.0 -89.95 L-11.05 -90.95 -20.05 -118.4 Q-19.05 -119.35 -18.2 -120.55 L-18.15 -120.6 Q-15.2 -124.85 -16.1 -129.95 -17.0 -135.15 -21.25 -138.15 -25.55 -141.1 -30.7 -140.2 -35.85 -139.3 -38.8 -135.05" fill="#b329ff" fill-opacity="0.7019608" fill-rule="evenodd" stroke="none"/>
    <path d="M-38.8 -135.05 Q-35.85 -139.3 -30.7 -140.2 -25.55 -141.1 -21.25 -138.15 -17.0 -135.15 -16.1 -129.95 -15.2 -124.85 -18.15 -120.6 L-18.2 -120.55 Q-19.05 -119.35 -20.05 -118.4 L-11.05 -90.95 -11.0 -89.95 Q-11.15 -89.45 -11.55 -89.1 L-12.45 -88.6 -30.2 -85.5 -31.15 -85.6 -31.95 -86.25 Q-32.3 -86.7 -32.3 -87.2 L-33.25 -116.05 Q-34.55 -116.6 -35.75 -117.45 -40.0 -120.45 -40.9 -125.6 -41.85 -130.75 -38.85 -135.0 L-38.8 -135.05" fill="#000000" fill-rule="evenodd" stroke="none"/>
    <path d="M89.0 -115.0 Q90.7 -108.5 87.35 -102.7 84.0 -96.9 77.55 -95.15 L76.4 -94.9 66.35 -70.05 Q65.8 -68.6 64.5 -67.65 63.2 -66.75 61.65 -66.65 60.05 -66.55 58.7 -67.35 L43.1 -76.35 Q41.7 -77.15 41.0 -78.55 40.25 -80.0 40.4 -81.55 40.6 -83.15 41.5 -84.4 L58.05 -105.45 57.75 -106.6 Q55.95 -113.1 59.3 -118.9 62.65 -124.7 69.2 -126.45 75.65 -128.15 81.45 -124.8 87.25 -121.45 89.0 -115.0 M85.8 -103.6 Q88.8 -108.75 87.3 -114.5 85.7 -120.3 80.55 -123.25 75.4 -126.25 69.65 -124.7 L69.6 -124.7 Q63.85 -123.15 60.85 -118.0 57.9 -112.85 59.5 -107.1 59.75 -106.05 60.15 -105.1 L42.95 -83.25 Q42.35 -82.45 42.25 -81.4 42.1 -80.35 42.6 -79.35 43.1 -78.45 44.0 -77.9 L59.6 -68.9 Q60.5 -68.4 61.55 -68.45 62.6 -68.5 63.5 -69.1 64.35 -69.75 64.7 -70.7 L75.1 -96.5 77.15 -96.9 Q82.85 -98.45 85.8 -103.6" fill="#b329ff" fill-opacity="0.4" fill-rule="evenodd" stroke="none"/>
    <path d="M84.25 -104.5 Q86.9 -109.05 85.6 -114.1 84.2 -119.1 79.65 -121.7 75.15 -124.3 70.15 -123.0 L70.1 -122.95 Q65.05 -121.6 62.45 -117.1 59.85 -112.6 61.2 -107.55 L62.2 -104.85 44.4 -82.15 Q44.05 -81.75 44.0 -81.2 44.0 -80.7 44.25 -80.25 L44.9 -79.5 60.5 -70.5 Q60.95 -70.25 61.5 -70.25 62.05 -70.3 62.4 -70.6 L63.05 -71.35 73.8 -98.15 76.6 -98.65 76.65 -98.65 Q81.65 -100.0 84.25 -104.5 M85.8 -103.6 Q82.85 -98.45 77.15 -96.9 L75.1 -96.5 64.7 -70.7 Q64.35 -69.75 63.5 -69.1 62.6 -68.5 61.55 -68.45 60.5 -68.4 59.6 -68.9 L44.0 -77.9 Q43.1 -78.45 42.6 -79.35 42.1 -80.35 42.25 -81.4 42.35 -82.45 42.95 -83.25 L60.15 -105.1 Q59.75 -106.05 59.5 -107.1 57.9 -112.85 60.85 -118.0 63.85 -123.15 69.6 -124.7 L69.65 -124.7 Q75.4 -126.25 80.55 -123.25 85.7 -120.3 87.3 -114.5 88.8 -108.75 85.8 -103.6" fill="#b329ff" fill-opacity="0.7019608" fill-rule="evenodd" stroke="none"/>
    <path d="M84.25 -104.5 Q81.65 -100.0 76.65 -98.65 L76.6 -98.65 73.8 -98.15 63.05 -71.35 62.4 -70.6 Q62.05 -70.3 61.5 -70.25 60.95 -70.25 60.5 -70.5 L44.9 -79.5 44.25 -80.25 Q44.0 -80.7 44.0 -81.2 44.05 -81.75 44.4 -82.15 L62.2 -104.85 61.2 -107.55 Q59.85 -112.6 62.45 -117.1 65.05 -121.6 70.1 -122.95 L70.15 -123.0 Q75.15 -124.3 79.65 -121.7 84.2 -119.1 85.6 -114.1 86.9 -109.05 84.25 -104.5" fill="#000000" fill-rule="evenodd" stroke="none"/>
    <path d="M70.8 -61.6 L-44.75 -82.0 Q-58.4 -84.4 -60.8 -70.75 L-81.15 44.8 Q-83.55 58.4 -69.9 60.85 L45.65 81.2 Q52.55 82.4 56.7 79.95 60.4 76.9 61.65 70.0 L82.05 -45.6 Q83.25 -52.5 80.8 -56.65 77.75 -60.4 70.8 -61.6 M86.45 -44.8 L66.1 70.75 Q64.45 79.85 59.3 83.65 53.9 87.25 44.85 85.65 L-70.7 65.25 Q-88.8 62.05 -85.6 44.0 L-65.2 -71.55 Q-62.0 -89.6 -43.95 -86.4 L71.6 -66.05 Q80.65 -64.45 84.5 -59.25 88.05 -53.9 86.45 -44.8" fill="#000000" fill-rule="evenodd" stroke="none"/>
    <path d="M87.75 -61.55 Q83.25 -68.05 72.3 -69.95 L-43.25 -90.35 Q-65.25 -94.25 -69.15 -72.25 L-89.5 43.3 Q-93.4 65.3 -71.4 69.2 L44.15 89.55 Q55.1 91.5 61.55 86.95 L61.6 86.9 Q68.05 82.4 70.0 71.45 L90.4 -44.1 Q92.3 -55.1 87.8 -61.5 L87.75 -61.55 M92.35 -43.75 L72.0 71.8 Q69.85 83.7 62.7 88.55 55.7 93.65 43.8 91.55 L-71.75 71.15 Q-95.7 66.95 -91.5 43.0 L-71.1 -72.55 Q-66.9 -96.55 -42.9 -92.3 L72.65 -71.95 Q84.55 -69.85 89.4 -62.65 94.45 -55.7 92.35 -43.75" fill="#ff00ff" fill-rule="evenodd" stroke="none"/>
    <path d="M90.6 -63.55 Q85.5 -71.2 72.9 -73.4 L-42.65 -93.8 Q-68.1 -98.3 -72.6 -72.85 L-92.95 42.7 Q-95.2 55.45 -90.1 63.0 -84.8 70.35 -72.0 72.65 L43.55 93.0 Q56.05 95.2 63.45 89.9 L63.6 89.75 Q71.2 84.65 73.45 72.05 L93.85 -43.5 Q96.05 -56.05 90.75 -63.4 L90.6 -63.55 M96.8 -43.0 L76.4 72.6 Q73.9 86.7 65.25 92.3 57.0 98.45 43.05 95.95 L-72.5 75.6 Q-100.95 70.55 -95.9 42.2 L-75.55 -73.35 Q-70.55 -101.75 -42.15 -96.75 L73.4 -76.35 Q87.5 -73.9 93.15 -65.2 99.25 -57.0 96.8 -43.0" fill="#b329ff" fill-opacity="0.4" fill-rule="evenodd" stroke="none"/>
    <path d="M96.75 -42.95 L76.45 72.6 Q73.9 86.7 65.25 92.3 57.0 98.4 43.0 95.95 L-72.55 75.6 Q-100.9 70.55 -95.9 42.2 L-75.55 -73.35 Q-70.55 -101.7 -42.1 -96.7 L73.45 -76.4 Q87.55 -73.9 93.15 -65.2 99.25 -57.0 96.75 -42.95 M92.4 -43.8 Q94.45 -55.7 89.4 -62.7 84.55 -69.9 72.65 -71.9 L-42.95 -92.35 Q-66.9 -96.55 -71.1 -72.6 L-91.5 43.0 Q-95.75 66.9 -71.75 71.15 L43.85 91.55 Q55.75 93.6 62.75 88.55 69.9 83.7 71.95 71.85 L92.4 -43.8" fill="#000000" fill-rule="evenodd" stroke="none"/>
    <path d="M83.25 -58.35 Q86.4 -53.35 85.0 -45.05 L64.6 70.5 Q63.1 78.8 58.5 82.4 L58.4 82.45 Q53.4 85.6 45.1 84.2 L-70.4 63.8 Q-87.05 60.85 -84.15 44.25 L-63.75 -71.25 Q-60.8 -87.9 -44.2 -84.95 L71.3 -64.6 Q79.6 -63.1 83.25 -58.45 L83.25 -58.35" fill="#000000" fill-opacity="0.8" fill-rule="evenodd" stroke="none"/>
    <path d="M86.5 -44.8 Q88.05 -53.9 84.5 -59.25 80.7 -64.45 71.55 -66.0 L-43.95 -86.45 Q-62.0 -89.6 -65.2 -71.55 L-85.6 44.0 Q-88.8 62.0 -70.7 65.25 L44.85 85.65 Q53.9 87.25 59.3 83.65 64.45 79.8 66.05 70.75 L86.5 -44.8 M92.4 -43.8 L71.95 71.85 Q69.9 83.7 62.75 88.55 55.75 93.6 43.85 91.55 L-71.75 71.15 Q-95.75 66.9 -91.5 43.0 L-71.1 -72.6 Q-66.9 -96.55 -42.95 -92.35 L72.65 -71.9 Q84.55 -69.9 89.4 -62.7 94.45 -55.7 92.4 -43.8" fill="url(#gradient1)" fill-rule="evenodd" stroke="none"/>
  </g>
  <defs>
    <linearGradient gradientTransform="matrix(0.0068, -0.0175, -0.0934, -0.0364, 157.0, 49.9)" gradientUnits="userSpaceOnUse" id="gradient0" spreadMethod="pad" x1="-819.2" x2="819.2">
      <stop offset="0.0" stop-color="#1c1c1c"/>
      <stop offset="0.08235294117647059" stop-color="#000000"/>
      <stop offset="0.41568627450980394" stop-color="#050505"/>
      <stop offset="1.0" stop-color="#505050"/>
    </linearGradient>
    <linearGradient gradientTransform="matrix(0.0626, -0.0901, 0.1033, 0.0719, -5.9, 8.6)" gradientUnits="userSpaceOnUse" id="gradient1" spreadMethod="pad" x1="-819.2" x2="819.2">
      <stop offset="0.0" stop-color="#1c1c1c"/>
      <stop offset="0.2235294117647059" stop-color="#000000"/>
      <stop offset="1.0" stop-color="#787878"/>
    </linearGradient>
  </defs>
</svg>
