<?xml version="1.0" encoding="UTF-8" standalone="no"?>
<svg xmlns:ffdec="https://www.free-decompiler.com/flash" xmlns:xlink="http://www.w3.org/1999/xlink" ffdec:objectType="shape" height="233.95px" width="342.1px" xmlns="http://www.w3.org/2000/svg">
  <g transform="matrix(1.0, 0.0, 0.0, 1.0, 81.7, 97.5)">
    <path d="M108.55 -12.95 L103.05 104.25 Q102.25 120.8 93.0 128.55 84.4 137.2 67.7 136.4 L-49.45 130.9 Q-66.3 130.1 -74.2 121.05 -82.45 112.35 -81.65 95.55 L-76.15 -21.6 Q-74.6 -55.4 -40.8 -53.8 L76.35 -48.3 Q92.9 -47.55 100.65 -38.25 109.3 -29.65 108.55 -12.95 M105.55 -13.1 Q106.25 -28.3 98.55 -36.15 91.45 -44.6 76.2 -45.3 L-40.95 -50.8 Q-71.75 -52.25 -73.2 -21.45 L-78.7 95.7 Q-79.4 111.05 -71.95 119.05 -64.7 127.2 -49.3 127.9 L67.85 133.4 Q83.0 134.15 90.85 126.4 99.3 119.3 100.05 104.1 L105.55 -13.1" fill="#b329ff" fill-opacity="0.4" fill-rule="evenodd" stroke="none"/>
    <path d="M103.55 -13.2 Q104.2 -27.4 97.1 -34.75 90.4 -42.65 76.1 -43.3 L-41.05 -48.8 Q-69.85 -50.15 -71.2 -21.35 L-76.65 95.8 Q-78.0 124.55 -49.2 125.9 L67.95 131.4 Q82.1 132.1 89.5 124.95 97.35 118.3 98.05 104.0 L103.55 -13.2 M105.55 -13.1 L100.05 104.1 Q99.3 119.3 90.85 126.4 83.0 134.15 67.85 133.4 L-49.3 127.9 Q-64.7 127.2 -71.95 119.05 -79.4 111.05 -78.7 95.7 L-73.2 -21.45 Q-71.75 -52.25 -40.95 -50.8 L76.2 -45.3 Q91.45 -44.6 98.55 -36.15 106.25 -28.3 105.55 -13.1" fill="#b329ff" fill-opacity="0.7019608" fill-rule="evenodd" stroke="none"/>
    <path d="M252.6 72.4 L252.7 72.55 Q253.55 73.65 253.4 75.1 L253.4 75.35 250.5 107.25 Q250.4 108.4 249.7 109.35 248.95 110.3 247.9 110.7 L247.85 110.7 245.6 110.8 102.1 75.25 102.15 75.25 Q100.7 74.9 99.85 73.85 L99.85 73.8 Q99.0 72.7 99.05 71.3 L100.0 33.6 Q99.95 32.35 100.75 31.35 101.5 30.35 102.65 29.95 L102.7 29.95 105.05 29.9 105.05 29.85 250.5 70.9 250.5 70.95 Q251.8 71.3 252.6 72.4" fill="url(#gradient0)" fill-rule="evenodd" stroke="none"/>
    <path d="M251.3 68.0 L251.35 68.0 Q253.75 68.7 255.2 70.8 L255.2 70.85 Q256.6 72.85 256.35 75.35 L256.35 75.4 253.55 107.55 Q253.35 109.55 252.05 111.25 250.8 112.9 248.9 113.55 L244.9 113.75 101.4 78.2 Q98.95 77.6 97.45 75.65 96.0 73.7 96.05 71.25 L96.95 33.55 Q97.05 31.4 98.3 29.6 99.6 27.8 101.7 27.1 L105.85 26.95 251.3 68.0 M252.6 72.4 Q251.8 71.3 250.5 70.95 L250.5 70.9 105.05 29.85 105.05 29.9 102.7 29.95 102.65 29.95 Q101.5 30.35 100.75 31.35 99.95 32.35 100.0 33.6 L99.05 71.3 Q99.0 72.7 99.85 73.8 L99.85 73.85 Q100.7 74.9 102.15 75.25 L102.1 75.25 245.6 110.8 247.85 110.7 247.9 110.7 Q248.95 110.3 249.7 109.35 250.4 108.4 250.5 107.25 L253.4 75.35 253.4 75.1 Q253.55 73.65 252.7 72.55 L252.6 72.4" fill="#000000" fill-rule="evenodd" stroke="none"/>
    <path d="M251.3 68.0 L105.85 26.95 101.7 27.1 Q99.6 27.8 98.3 29.6 97.05 31.4 96.95 33.55 L96.05 71.25 Q96.0 73.7 97.45 75.65 98.95 77.6 101.4 78.2 L244.9 113.75 248.9 113.55 Q250.8 112.9 252.05 111.25 253.35 109.55 253.55 107.55 L256.35 75.4 256.35 75.35 Q256.6 72.85 255.2 70.85 L255.2 70.8 Q253.75 68.7 251.35 68.0 L251.3 68.0 M251.85 66.15 Q254.9 66.95 256.85 69.65 258.65 72.35 258.35 75.55 L255.5 107.75 Q255.25 110.35 253.7 112.45 L253.65 112.45 Q251.95 114.5 249.5 115.4 L249.5 115.45 244.4 115.65 100.85 80.15 Q97.75 79.35 95.95 76.85 93.95 74.35 94.05 71.2 L95.0 33.5 Q95.05 30.65 96.65 28.35 98.35 26.1 101.05 25.2 103.65 24.25 106.4 25.1 L251.85 66.15" fill="#b329ff" fill-opacity="0.4" fill-rule="evenodd" stroke="none"/>
    <path d="M258.45 68.5 L258.5 68.55 Q260.75 71.8 260.35 75.7 L257.5 107.85 257.5 107.9 Q257.15 111.1 255.2 113.7 L255.15 113.7 Q253.2 116.25 250.2 117.35 L250.15 117.35 243.9 117.55 100.4 82.05 Q96.7 81.15 94.3 78.1 91.95 75.05 92.05 71.15 L92.95 33.45 Q93.0 30.0 95.1 27.25 97.1 24.45 100.4 23.3 103.6 22.15 106.95 23.15 L252.4 64.2 Q256.2 65.25 258.45 68.5 M251.85 66.15 L106.4 25.1 Q103.65 24.25 101.05 25.2 98.35 26.1 96.65 28.35 95.05 30.65 95.0 33.5 L94.05 71.2 Q93.95 74.35 95.95 76.85 97.75 79.35 100.85 80.15 L244.4 115.65 249.5 115.45 249.5 115.4 Q251.95 114.5 253.65 112.45 L253.7 112.45 Q255.25 110.35 255.5 107.75 L258.35 75.55 Q258.65 72.35 256.85 69.65 254.9 66.95 251.85 66.15" fill="#b329ff" fill-opacity="0.12941177" fill-rule="evenodd" stroke="none"/>
    <path d="M-18.7 -74.65 Q-16.0 -79.9 -17.75 -85.6 -19.5 -91.3 -24.8 -94.05 -30.1 -96.85 -35.75 -95.05 -41.45 -93.3 -44.2 -88.0 -47.05 -82.75 -45.25 -77.0 -43.45 -71.35 -38.15 -68.55 L-36.25 -67.7 -31.85 -40.3 Q-31.65 -39.3 -30.95 -38.5 -30.25 -37.7 -29.25 -37.45 -28.25 -37.15 -27.2 -37.45 L-10.05 -42.8 Q-9.05 -43.15 -8.3 -43.95 -7.65 -44.8 -7.5 -45.8 -7.4 -46.85 -7.85 -47.75 L-19.75 -72.85 -18.7 -74.65 M-23.95 -95.65 Q-18.0 -92.55 -16.0 -86.15 -14.05 -79.75 -17.15 -73.8 L-17.7 -72.75 -6.25 -48.6 Q-5.6 -47.15 -5.8 -45.6 -6.0 -44.0 -6.95 -42.75 -8.0 -41.55 -9.5 -41.05 L-26.7 -35.75 -29.7 -35.65 Q-31.25 -36.1 -32.3 -37.3 -33.4 -38.5 -33.65 -40.05 L-37.95 -66.45 -39.0 -66.95 Q-44.95 -70.1 -46.9 -76.5 -48.9 -82.85 -45.85 -88.85 L-45.8 -88.9 Q-42.7 -94.8 -36.3 -96.7 -29.9 -98.75 -23.95 -95.65" fill="#b329ff" fill-opacity="0.4" fill-rule="evenodd" stroke="none"/>
    <path d="M-18.7 -74.65 L-19.75 -72.85 -7.85 -47.75 Q-7.4 -46.85 -7.5 -45.8 -7.65 -44.8 -8.3 -43.95 -9.05 -43.15 -10.05 -42.8 L-27.2 -37.45 Q-28.25 -37.15 -29.25 -37.45 -30.25 -37.7 -30.95 -38.5 -31.65 -39.3 -31.85 -40.3 L-36.25 -67.7 -38.15 -68.55 Q-43.45 -71.35 -45.25 -77.0 -47.05 -82.75 -44.2 -88.0 -41.45 -93.3 -35.75 -95.05 -30.1 -96.85 -24.8 -94.05 -19.5 -91.3 -17.75 -85.6 -16.0 -79.9 -18.7 -74.65 M-20.35 -75.45 L-20.3 -75.5 Q-17.9 -80.1 -19.45 -85.05 -21.0 -90.1 -25.6 -92.5 -30.25 -94.9 -35.25 -93.35 -40.25 -91.8 -42.6 -87.2 L-42.65 -87.15 Q-45.1 -82.55 -43.5 -77.55 -41.95 -72.55 -37.35 -70.15 -36.05 -69.45 -34.65 -69.05 L-30.05 -40.6 -29.65 -39.7 Q-29.25 -39.25 -28.75 -39.15 -28.25 -39.0 -27.8 -39.15 L-10.6 -44.5 -9.75 -45.15 Q-9.4 -45.55 -9.3 -46.05 L-9.45 -47.0 -21.9 -73.1 Q-21.05 -74.2 -20.35 -75.45" fill="#b329ff" fill-opacity="0.7019608" fill-rule="evenodd" stroke="none"/>
    <path d="M-20.35 -75.45 Q-21.05 -74.2 -21.9 -73.1 L-9.45 -47.0 -9.3 -46.05 Q-9.4 -45.55 -9.75 -45.15 L-10.6 -44.5 -27.8 -39.15 Q-28.25 -39.0 -28.75 -39.15 -29.25 -39.25 -29.65 -39.7 L-30.05 -40.6 -34.65 -69.05 Q-36.05 -69.45 -37.35 -70.15 -41.95 -72.55 -43.5 -77.55 -45.1 -82.55 -42.65 -87.15 L-42.6 -87.2 Q-40.25 -91.8 -35.25 -93.35 -30.25 -94.9 -25.6 -92.5 -21.0 -90.1 -19.45 -85.05 -17.9 -80.1 -20.3 -75.5 L-20.35 -75.45" fill="#000000" fill-rule="evenodd" stroke="none"/>
    <path d="M66.2 -90.8 L66.15 -90.8 Q60.65 -88.5 58.35 -83.0 56.1 -77.5 58.35 -72.05 L59.25 -70.15 45.0 -46.3 Q44.5 -45.4 44.5 -44.35 44.55 -43.3 45.15 -42.4 45.75 -41.55 46.7 -41.15 L63.3 -34.2 65.3 -33.95 Q66.4 -34.15 67.15 -34.9 67.95 -35.65 68.15 -36.65 L75.15 -63.5 77.15 -64.2 Q82.65 -66.4 84.9 -71.9 87.2 -77.4 85.0 -82.95 82.7 -88.45 77.2 -90.7 71.75 -93.0 66.2 -90.8 M77.85 -92.4 Q84.05 -89.85 86.65 -83.6 89.15 -77.4 86.55 -71.25 84.0 -65.05 77.8 -62.5 L76.7 -62.1 69.9 -36.15 Q69.5 -34.65 68.35 -33.55 67.2 -32.45 65.65 -32.15 L62.6 -32.55 46.0 -39.5 Q44.55 -40.1 43.65 -41.35 42.75 -42.7 42.7 -44.3 42.65 -45.9 43.45 -47.2 L57.2 -70.2 56.65 -71.35 Q54.15 -77.5 56.7 -83.7 59.3 -89.85 65.5 -92.45 71.7 -95.0 77.85 -92.4" fill="#b329ff" fill-opacity="0.4" fill-rule="evenodd" stroke="none"/>
    <path d="M66.2 -90.8 Q71.75 -93.0 77.2 -90.7 82.7 -88.45 85.0 -82.95 87.2 -77.4 84.9 -71.9 82.65 -66.4 77.15 -64.2 L75.15 -63.5 68.15 -36.65 Q67.95 -35.65 67.15 -34.9 66.4 -34.15 65.3 -33.95 L63.3 -34.2 46.7 -41.15 Q45.75 -41.55 45.15 -42.4 44.55 -43.3 44.5 -44.35 44.5 -45.4 45.0 -46.3 L59.25 -70.15 58.35 -72.05 Q56.1 -77.5 58.35 -83.0 60.65 -88.5 66.15 -90.8 L66.2 -90.8 M66.85 -89.15 L66.85 -89.1 Q62.05 -87.15 60.0 -82.35 58.0 -77.55 60.0 -72.7 60.6 -71.3 61.35 -70.15 L46.55 -45.35 Q46.3 -44.95 46.35 -44.35 46.35 -43.9 46.65 -43.45 46.95 -43.0 47.4 -42.8 L64.0 -35.85 65.05 -35.75 Q65.55 -35.85 65.95 -36.15 L66.45 -37.05 73.7 -65.0 Q75.05 -65.25 76.45 -65.85 L76.5 -65.8 Q81.25 -67.8 83.25 -72.6 85.3 -77.45 83.35 -82.25 81.35 -87.05 76.5 -89.05 71.75 -91.1 66.85 -89.15" fill="#b329ff" fill-opacity="0.7019608" fill-rule="evenodd" stroke="none"/>
    <path d="M66.85 -89.15 Q71.75 -91.1 76.5 -89.05 81.35 -87.05 83.35 -82.25 85.3 -77.45 83.25 -72.6 81.25 -67.8 76.5 -65.8 L76.45 -65.85 Q75.05 -65.25 73.7 -65.0 L66.45 -37.05 65.95 -36.15 Q65.55 -35.85 65.05 -35.75 L64.0 -35.85 47.4 -42.8 Q46.95 -43.0 46.65 -43.45 46.35 -43.9 46.35 -44.35 46.3 -44.95 46.55 -45.35 L61.35 -70.15 Q60.6 -71.3 60.0 -72.7 58.0 -77.55 60.0 -82.35 62.05 -87.15 66.85 -89.1 L66.85 -89.15" fill="#000000" fill-rule="evenodd" stroke="none"/>
    <path d="M93.05 -13.7 L87.6 103.5 Q87.15 112.7 82.5 117.15 77.6 121.35 68.4 120.95 L-48.75 115.45 Q-67.1 114.6 -66.2 96.3 L-60.7 -20.85 Q-59.85 -39.2 -41.5 -38.35 L75.65 -32.85 Q84.8 -32.4 89.25 -27.75 93.5 -22.9 93.05 -13.7 M85.95 -24.7 Q82.45 -28.05 75.4 -28.35 L-41.75 -33.85 Q-55.55 -34.5 -56.2 -20.65 L-61.7 96.5 Q-62.35 110.3 -48.5 110.95 L68.65 116.45 Q75.65 116.75 79.45 113.8 82.75 110.3 83.1 103.3 L88.6 -13.9 Q88.9 -20.9 85.95 -24.7" fill="#000000" fill-rule="evenodd" stroke="none"/>
    <path d="M99.05 -13.4 L93.55 103.8 Q92.95 115.85 86.5 121.55 80.2 127.5 68.15 126.95 L-49.0 121.45 Q-73.35 120.3 -72.2 96.0 L-66.7 -21.15 Q-65.55 -45.45 -41.25 -44.3 L75.9 -38.8 Q88.0 -38.25 93.7 -31.75 99.6 -25.5 99.05 -13.4 M92.25 -30.4 L92.2 -30.45 Q86.9 -36.3 75.8 -36.8 L-41.35 -42.3 Q-63.65 -43.35 -64.7 -21.05 L-70.2 96.1 Q-71.25 118.4 -48.9 119.45 L68.25 124.95 Q79.35 125.45 85.15 120.1 91.0 114.8 91.55 103.7 L97.05 -13.5 Q97.55 -24.6 92.25 -30.4" fill="#ff00ff" fill-rule="evenodd" stroke="none"/>
    <path d="M103.55 -13.2 L98.05 104.0 Q97.35 118.3 89.5 124.95 82.1 132.1 67.95 131.4 L-49.2 125.9 Q-78.0 124.55 -76.65 95.8 L-71.2 -21.35 Q-69.85 -50.15 -41.05 -48.8 L76.1 -43.3 Q90.4 -42.65 97.1 -34.75 104.2 -27.4 103.55 -13.2 M94.95 -32.65 L94.8 -32.8 Q88.75 -39.7 76.0 -40.3 L-41.15 -45.8 Q-67.0 -47.0 -68.2 -21.2 L-73.7 95.95 Q-74.3 108.85 -68.25 115.7 -62.05 122.3 -49.1 122.95 L68.05 128.45 Q80.75 129.0 87.4 122.8 L87.55 122.65 Q94.45 116.6 95.05 103.85 L100.55 -13.35 Q101.15 -26.05 94.95 -32.65" fill="#b329ff" fill-opacity="0.4" fill-rule="evenodd" stroke="none"/>
    <path d="M99.05 -13.4 Q99.65 -25.45 93.7 -31.8 88.05 -38.25 75.85 -38.8 L-41.25 -44.3 Q-65.55 -45.45 -66.7 -21.15 L-72.15 96.0 Q-73.35 120.25 -49.0 121.45 L68.15 126.9 Q80.2 127.5 86.55 121.55 92.95 115.9 93.5 103.75 L99.05 -13.4 M103.5 -13.2 L98.05 104.0 Q97.35 118.3 89.5 124.95 82.1 132.1 67.9 131.4 L-49.25 125.9 Q-78.05 124.55 -76.65 95.8 L-71.15 -21.35 Q-69.85 -50.15 -41.05 -48.75 L76.15 -43.3 Q90.45 -42.65 97.1 -34.75 104.25 -27.4 103.5 -13.2" fill="#000000" fill-rule="evenodd" stroke="none"/>
    <path d="M88.2 -26.7 Q91.95 -22.2 91.6 -13.75 L86.1 103.45 Q85.7 111.85 81.5 116.0 L81.45 116.05 Q76.9 119.85 68.5 119.45 L-48.65 113.95 Q-65.5 113.15 -64.7 96.35 L-59.2 -20.8 Q-58.4 -37.65 -41.6 -36.85 L75.55 -31.35 Q84.0 -30.95 88.15 -26.75 L88.2 -26.7" fill="#000000" fill-opacity="0.8" fill-rule="evenodd" stroke="none"/>
    <path d="M99.05 -13.4 L93.5 103.75 Q92.95 115.9 86.55 121.55 80.2 127.5 68.15 126.9 L-49.0 121.45 Q-73.35 120.25 -72.15 96.0 L-66.7 -21.15 Q-65.55 -45.45 -41.25 -44.3 L75.85 -38.8 Q88.05 -38.25 93.7 -31.8 99.65 -25.45 99.05 -13.4 M93.05 -13.7 Q93.45 -22.9 89.3 -27.75 84.8 -32.45 75.65 -32.8 L-41.55 -38.3 Q-59.85 -39.2 -60.7 -20.9 L-66.15 96.3 Q-67.1 114.6 -48.75 115.45 L68.45 120.9 Q77.6 121.35 82.5 117.15 87.15 112.7 87.55 103.55 L93.05 -13.7" fill="url(#gradient1)" fill-rule="evenodd" stroke="none"/>
  </g>
  <defs>
    <linearGradient gradientTransform="matrix(0.0045, -0.0182, -0.0972, -0.0242, 175.05, 71.2)" gradientUnits="userSpaceOnUse" id="gradient0" spreadMethod="pad" x1="-819.2" x2="819.2">
      <stop offset="0.0" stop-color="#1c1c1c"/>
      <stop offset="0.08235294117647059" stop-color="#000000"/>
      <stop offset="0.41568627450980394" stop-color="#050505"/>
      <stop offset="1.0" stop-color="#505050"/>
    </linearGradient>
    <linearGradient gradientTransform="matrix(0.0506, -0.0973, 0.1116, 0.0581, 8.3, 51.0)" gradientUnits="userSpaceOnUse" id="gradient1" spreadMethod="pad" x1="-819.2" x2="819.2">
      <stop offset="0.0" stop-color="#1c1c1c"/>
      <stop offset="0.2235294117647059" stop-color="#000000"/>
      <stop offset="1.0" stop-color="#787878"/>
    </linearGradient>
  </defs>
</svg>
