<?xml version="1.0" encoding="UTF-8" standalone="no"?>
<svg xmlns:ffdec="https://www.free-decompiler.com/flash" xmlns:xlink="http://www.w3.org/1999/xlink" ffdec:objectType="shape" height="9.0px" width="17.0px" xmlns="http://www.w3.org/2000/svg">
  <g transform="matrix(1.0, 0.0, 0.0, 1.0, 0.0, -4.0)">
    <path d="M11.0 6.0 L12.0 6.0 12.0 5.0 13.0 5.0 13.0 4.0 14.0 4.0 14.0 6.0 13.0 6.0 13.0 8.0 15.0 8.0 15.0 9.0 17.0 9.0 17.0 10.0 13.0 10.0 13.0 11.0 14.0 11.0 14.0 12.0 12.0 12.0 12.0 11.0 10.0 11.0 10.0 12.0 9.0 12.0 9.0 13.0 8.0 13.0 8.0 12.0 7.0 12.0 7.0 11.0 5.0 11.0 5.0 12.0 3.0 12.0 3.0 11.0 4.0 11.0 4.0 10.0 0.0 10.0 0.0 9.0 2.0 9.0 2.0 8.0 4.0 8.0 4.0 6.0 3.0 6.0 3.0 4.0 4.0 4.0 4.0 5.0 5.0 5.0 5.0 10.0 12.0 10.0 12.0 7.0 11.0 7.0 11.0 6.0" fill="#ffffff" fill-opacity="0.49803922" fill-rule="evenodd" stroke="none"/>
    <path d="M11.0 9.0 L6.0 9.0 6.0 4.0 8.0 4.0 8.0 7.0 10.0 7.0 10.0 8.0 11.0 8.0 11.0 9.0" fill="#ffffff" fill-rule="evenodd" stroke="none"/>
  </g>
</svg>
