<?xml version="1.0" encoding="UTF-8" standalone="no"?>
<svg xmlns:ffdec="https://www.free-decompiler.com/flash" xmlns:xlink="http://www.w3.org/1999/xlink" ffdec:objectType="shape" height="18.0px" width="18.0px" xmlns="http://www.w3.org/2000/svg">
  <g transform="matrix(1.0, 0.0, 0.0, 1.0, -1.0, 1.0)">
    <path d="M10.0 -1.0 L10.0 1.0 14.0 1.0 14.0 5.0 19.0 5.0 19.0 8.0 17.0 8.0 17.0 12.0 13.0 12.0 13.0 17.0 10.0 17.0 10.0 15.0 6.0 15.0 6.0 11.0 1.0 11.0 1.0 8.0 3.0 8.0 3.0 4.0 7.0 4.0 7.0 -1.0 10.0 -1.0 M11.0 3.0 L11.0 4.0 10.0 4.0 10.0 2.0 9.0 2.0 9.0 0.0 8.0 0.0 8.0 5.0 4.0 5.0 4.0 6.0 5.0 6.0 5.0 7.0 6.0 7.0 6.0 8.0 4.0 8.0 4.0 9.0 2.0 9.0 2.0 10.0 7.0 10.0 7.0 14.0 8.0 14.0 8.0 13.0 9.0 13.0 9.0 12.0 10.0 12.0 10.0 14.0 11.0 14.0 11.0 16.0 12.0 16.0 12.0 11.0 16.0 11.0 16.0 10.0 15.0 10.0 15.0 9.0 14.0 9.0 14.0 8.0 16.0 8.0 16.0 7.0 18.0 7.0 18.0 6.0 13.0 6.0 13.0 2.0 12.0 2.0 12.0 3.0 11.0 3.0" fill="#000000" fill-rule="evenodd" stroke="none"/>
    <path d="M11.0 3.0 L12.0 3.0 12.0 2.0 13.0 2.0 13.0 6.0 18.0 6.0 18.0 7.0 16.0 7.0 16.0 8.0 14.0 8.0 14.0 9.0 15.0 9.0 15.0 10.0 16.0 10.0 16.0 11.0 12.0 11.0 12.0 16.0 11.0 16.0 11.0 14.0 10.0 14.0 10.0 12.0 9.0 12.0 9.0 13.0 8.0 13.0 8.0 14.0 7.0 14.0 7.0 10.0 2.0 10.0 2.0 9.0 4.0 9.0 4.0 8.0 6.0 8.0 6.0 7.0 5.0 7.0 5.0 6.0 4.0 6.0 4.0 5.0 8.0 5.0 8.0 0.0 9.0 0.0 9.0 2.0 10.0 2.0 10.0 4.0 11.0 4.0 11.0 3.0" fill="url(#gradient0)" fill-rule="evenodd" stroke="none"/>
  </g>
  <defs>
    <radialGradient cx="0" cy="0" gradientTransform="matrix(0.0101, 0.0, 0.0, 0.0101, 10.0, 8.0)" gradientUnits="userSpaceOnUse" id="gradient0" r="819.2" spreadMethod="pad">
      <stop offset="0.0" stop-color="#ffffff"/>
      <stop offset="0.5098039215686274" stop-color="#e613e6"/>
    </radialGradient>
  </defs>
</svg>
