<?xml version="1.0" encoding="UTF-8" standalone="no"?>
<svg xmlns:ffdec="https://www.free-decompiler.com/flash" xmlns:xlink="http://www.w3.org/1999/xlink" ffdec:objectType="shape" height="38.0px" width="38.0px" xmlns="http://www.w3.org/2000/svg">
  <g transform="matrix(1.0, 0.0, 0.0, 1.0, 19.0, 19.0)">
    <path d="M9.2 -9.25 Q5.4 -13.05 0.05 -13.0 -5.35 -13.05 -9.2 -9.25 -13.0 -5.4 -12.95 0.0 -13.0 5.35 -9.2 9.15 -5.35 12.95 0.05 13.0 5.4 12.95 9.2 9.15 13.0 5.35 13.05 0.0 13.0 -5.4 9.2 -9.25 M19.0 0.0 Q18.95 7.85 13.4 13.45 7.85 19.0 0.0 19.0 -7.9 19.0 -13.45 13.45 -19.0 7.85 -19.0 0.0 -19.0 -7.9 -13.45 -13.45 -7.9 -19.0 0.0 -19.0 7.85 -19.0 13.4 -13.45 18.95 -7.9 19.0 0.0" fill="#000000" fill-opacity="0.3019608" fill-rule="evenodd" stroke="none"/>
  </g>
</svg>
