<?xml version="1.0" encoding="UTF-8" standalone="no"?>
<svg xmlns:ffdec="https://www.free-decompiler.com/flash" xmlns:xlink="http://www.w3.org/1999/xlink" ffdec:objectType="shape" height="131.65px" width="85.3px" xmlns="http://www.w3.org/2000/svg">
  <g transform="matrix(1.0, 0.0, 0.0, 1.0, 42.4, 90.55)">
    <path d="M20.9 -87.75 Q21.4 -90.55 22.15 -90.55 23.1 -90.6 26.35 -87.05 31.95 -81.0 28.9 -72.15 L25.5 -64.25 Q23.15 -59.1 22.3 -55.7 20.15 -47.55 21.55 -42.9 22.15 -40.7 24.0 -37.2 L28.4 -29.1 Q30.15 -25.85 33.9 -20.15 37.4 -14.8 38.9 -11.9 43.8 -2.25 42.7 10.4 41.4 25.6 32.0 33.15 22.4 40.85 3.85 41.1 -13.2 41.3 -23.75 34.2 -31.5 28.95 -39.05 16.55 -45.1 6.7 -40.25 -7.65 -36.0 -20.5 -26.1 -29.8 -18.15 -37.35 -16.65 -41.4 -16.05 -43.15 -15.95 -45.6 L-15.9 -50.95 Q-15.8 -53.35 -16.4 -57.25 L-17.1 -62.5 Q-17.15 -64.8 -16.0 -65.2 -14.6 -65.7 -11.1 -63.9 -4.95 -60.7 -0.95 -48.35 0.3 -44.5 1.2 -40.15 L1.85 -36.6 1.15 -48.9 Q0.85 -54.85 2.7 -58.65 5.05 -63.7 13.4 -72.05 19.2 -77.85 20.9 -87.75 M23.9 -84.75 L23.8 -84.8 Q21.65 -75.4 15.8 -69.65 L15.85 -69.65 Q8.05 -61.85 5.75 -57.2 4.3 -54.0 4.55 -49.05 L5.25 -36.8 Q5.3 -35.5 4.45 -34.45 3.55 -33.4 2.25 -33.25 0.9 -33.1 -0.2 -33.9 -1.3 -34.7 -1.55 -36.0 L-2.15 -39.55 Q-3.0 -43.65 -4.2 -47.3 -7.65 -57.95 -12.7 -60.85 L-13.55 -61.3 -13.05 -57.8 Q-12.35 -53.5 -12.5 -50.8 L-12.55 -45.45 Q-12.65 -42.4 -13.4 -40.25 L-13.45 -40.2 Q-15.0 -35.65 -23.8 -27.35 -33.0 -18.65 -37.0 -6.6 -41.25 6.1 -36.15 14.75 -29.05 26.4 -21.8 31.35 -12.0 37.85 3.8 37.65 20.95 37.45 29.85 30.5 38.15 23.7 39.35 10.1 40.3 -1.5 35.85 -10.4 L35.85 -10.35 31.05 -18.3 Q27.15 -24.15 25.4 -27.5 L21.05 -35.55 21.0 -35.6 Q18.95 -39.5 18.25 -41.95 16.55 -47.25 18.95 -56.55 L19.0 -56.55 Q19.9 -60.15 22.4 -65.65 L25.7 -73.25 Q28.05 -80.05 23.85 -84.75 L23.9 -84.75" fill="#ff0000" fill-opacity="0.49803922" fill-rule="evenodd" stroke="none"/>
    <path d="M23.9 -84.75 L23.85 -84.75 Q28.05 -80.05 25.7 -73.25 L22.4 -65.65 Q19.9 -60.15 19.0 -56.55 L18.95 -56.55 Q16.55 -47.25 18.25 -41.95 18.95 -39.5 21.0 -35.6 L21.05 -35.55 25.4 -27.5 Q27.15 -24.15 31.05 -18.3 L35.85 -10.35 35.85 -10.4 Q40.3 -1.5 39.35 10.1 38.15 23.7 29.85 30.5 20.95 37.45 3.8 37.65 -12.0 37.85 -21.8 31.35 -29.05 26.4 -36.15 14.75 -41.25 6.1 -37.0 -6.6 -33.0 -18.65 -23.8 -27.35 -15.0 -35.65 -13.45 -40.2 L-13.4 -40.25 Q-12.65 -42.4 -12.55 -45.45 L-12.5 -50.8 Q-12.35 -53.5 -13.05 -57.8 L-13.55 -61.3 -12.7 -60.85 Q-7.65 -57.95 -4.2 -47.3 -3.0 -43.65 -2.15 -39.55 L-1.55 -36.0 Q-1.3 -34.7 -0.2 -33.9 0.9 -33.1 2.25 -33.25 3.55 -33.4 4.45 -34.45 5.3 -35.5 5.25 -36.8 L4.55 -49.05 Q4.3 -54.0 5.75 -57.2 8.05 -61.85 15.85 -69.65 L15.8 -69.65 Q21.65 -75.4 23.8 -84.8 L23.9 -84.75" fill="#dd4800" fill-rule="evenodd" stroke="none"/>
    <path d="M2.15 -16.3 Q8.85 -14.95 20.45 10.7 11.55 23.7 2.9 23.65 -5.8 23.55 -10.05 20.05 -17.45 15.75 -13.65 5.25 -9.85 -5.3 -7.2 -11.45 -4.6 -17.65 2.15 -16.3" fill="#ff9900" fill-rule="evenodd" stroke="none"/>
  </g>
</svg>
