<?xml version="1.0" encoding="UTF-8" standalone="no"?>
<svg xmlns:ffdec="https://www.free-decompiler.com/flash" xmlns:xlink="http://www.w3.org/1999/xlink" ffdec:objectType="shape" height="113.95px" width="79.9px" xmlns="http://www.w3.org/2000/svg">
  <g transform="matrix(1.0, 0.0, 0.0, 1.0, 36.1, 76.85)">
    <path d="M15.45 -76.85 Q16.5 -66.95 16.15 -56.4 15.9 -49.6 20.85 -42.9 22.5 -40.65 26.3 -36.35 L33.2 -28.45 Q41.95 -17.85 43.4 -9.6 45.45 1.8 37.25 17.9 28.55 35.0 12.0 36.9 -3.7 38.65 -22.0 26.75 -37.4 16.75 -36.0 -1.0 -35.1 -12.45 -27.5 -25.7 -23.45 -32.8 -21.6 -41.8 -20.55 -46.9 -19.3 -56.4 -18.25 -62.15 -12.9 -68.35 -10.2 -71.45 -7.7 -73.4 -10.1 -60.15 -7.7 -52.3 -6.25 -47.4 -2.75 -42.2 L0.45 -38.0 3.2 -56.4 Q4.25 -62.15 9.95 -70.05 12.8 -74.0 15.45 -76.85 M12.7 -68.05 Q7.55 -60.95 6.55 -55.75 L3.85 -37.5 Q3.6 -36.1 2.5 -35.25 1.35 -34.45 0.0 -34.6 -1.4 -34.8 -2.25 -35.9 L-5.45 -40.15 -5.55 -40.3 Q-9.4 -45.95 -11.0 -51.3 -12.6 -56.4 -12.25 -63.65 -15.2 -59.6 -15.95 -55.75 -17.2 -46.3 -18.25 -41.15 L-18.25 -41.1 Q-20.2 -31.55 -24.5 -24.05 -31.7 -11.5 -32.6 -0.75 -33.85 15.0 -20.15 23.9 -3.05 35.05 11.6 33.55 26.4 31.7 34.25 16.35 41.75 1.5 40.05 -9.0 38.6 -16.55 30.55 -26.3 L23.75 -34.1 Q19.8 -38.55 18.1 -40.9 12.4 -48.65 12.75 -56.5 12.95 -62.4 12.7 -68.05" fill="#ff0000" fill-opacity="0.49803922" fill-rule="evenodd" stroke="none"/>
    <path d="M12.7 -68.05 Q12.95 -62.4 12.75 -56.5 12.4 -48.65 18.1 -40.9 19.8 -38.55 23.75 -34.1 L30.55 -26.3 Q38.6 -16.55 40.05 -9.0 41.75 1.5 34.25 16.35 26.4 31.7 11.6 33.55 -3.05 35.05 -20.15 23.9 -33.85 15.0 -32.6 -0.75 -31.7 -11.5 -24.5 -24.05 -20.2 -31.55 -18.25 -41.1 L-18.25 -41.15 Q-17.2 -46.3 -15.95 -55.75 -15.2 -59.6 -12.25 -63.65 -12.6 -56.4 -11.0 -51.3 -9.4 -45.95 -5.55 -40.3 L-5.45 -40.15 -2.25 -35.9 Q-1.4 -34.8 0.0 -34.6 1.35 -34.45 2.5 -35.25 3.6 -36.1 3.85 -37.5 L6.55 -55.75 Q7.55 -60.95 12.7 -68.05" fill="#dd4800" fill-rule="evenodd" stroke="none"/>
    <path d="M4.0 19.1 Q-5.2 20.5 -14.2 6.4 -24.65 -10.05 -2.8 -18.2 25.25 -3.4 19.75 7.1 14.2 17.55 4.0 19.1" fill="#ff9900" fill-rule="evenodd" stroke="none"/>
  </g>
</svg>
