<?xml version="1.0" encoding="UTF-8" standalone="no"?>
<svg xmlns:ffdec="https://www.free-decompiler.com/flash" xmlns:xlink="http://www.w3.org/1999/xlink" ffdec:objectType="shape" height="124.6px" width="77.4px" xmlns="http://www.w3.org/2000/svg">
  <g transform="matrix(1.0, 0.0, 0.0, 1.0, 40.8, 89.8)">
    <path d="M7.05 -66.25 L8.25 -68.35 Q0.55 -63.8 -1.1 -60.0 -1.9 -57.7 -6.85 -48.05 -7.45 -46.9 -8.65 -46.45 L-11.05 -46.4 Q-12.25 -46.85 -12.85 -47.95 -20.6 -60.95 -11.3 -79.45 -18.1 -74.3 -20.25 -69.4 -22.45 -64.05 -24.45 -51.25 -26.9 -35.7 -29.0 -28.8 L-29.05 -28.7 -33.6 -15.45 Q-36.55 -6.65 -37.2 -0.2 -39.05 17.25 -23.85 25.1 -5.6 34.55 10.45 29.7 17.6 27.5 22.9 22.5 28.15 17.45 30.75 10.35 35.45 -2.5 30.95 -13.2 27.55 -20.95 18.7 -28.6 -3.8 -47.85 7.05 -66.25 M17.75 -76.3 Q15.45 -73.85 11.8 -67.65 L10.0 -64.55 Q0.85 -48.35 20.9 -31.15 30.45 -22.95 34.05 -14.55 39.15 -2.7 33.95 11.55 31.1 19.4 25.25 24.95 19.4 30.5 11.45 32.95 -5.8 38.3 -25.45 28.15 -42.6 19.25 -40.6 -0.55 -39.9 -7.3 -36.8 -16.55 L-32.25 -29.8 Q-30.2 -36.55 -27.8 -51.8 -25.7 -65.1 -23.4 -70.7 -20.65 -77.3 -10.5 -84.2 -5.45 -87.65 -0.9 -89.8 -18.75 -65.25 -9.9 -49.6 -5.1 -58.95 -4.3 -61.15 -2.4 -66.5 8.75 -72.55 L9.65 -73.05 Q14.3 -75.5 18.7 -77.2 L17.75 -76.3" fill="#ff0000" fill-opacity="0.49803922" fill-rule="evenodd" stroke="none"/>
    <path d="M7.05 -66.25 Q-3.8 -47.85 18.7 -28.6 27.55 -20.95 30.95 -13.2 35.45 -2.5 30.75 10.35 28.15 17.45 22.9 22.5 17.6 27.5 10.45 29.7 -5.6 34.55 -23.85 25.1 -39.05 17.25 -37.2 -0.2 -36.55 -6.65 -33.6 -15.45 L-29.05 -28.7 -29.0 -28.8 Q-26.9 -35.7 -24.45 -51.25 -22.45 -64.05 -20.25 -69.4 -18.1 -74.3 -11.3 -79.45 -20.6 -60.95 -12.85 -47.95 -12.25 -46.85 -11.05 -46.4 L-8.65 -46.45 Q-7.45 -46.9 -6.85 -48.05 -1.9 -57.7 -1.1 -60.0 0.55 -63.8 8.25 -68.35 L7.05 -66.25" fill="#dd4800" fill-rule="evenodd" stroke="none"/>
    <path d="M-16.75 6.4 Q-25.7 -10.05 -6.95 -22.25 17.1 -3.35 12.4 7.1 7.65 17.55 -1.1 19.1 -9.05 20.5 -16.75 6.4" fill="#ff9900" fill-rule="evenodd" stroke="none"/>
  </g>
</svg>
