<?xml version="1.0" encoding="UTF-8" standalone="no"?>
<svg xmlns:ffdec="https://www.free-decompiler.com/flash" xmlns:xlink="http://www.w3.org/1999/xlink" ffdec:objectType="shape" height="1060.0px" width="960.0px" xmlns="http://www.w3.org/2000/svg">
  <g transform="matrix(1.0, 0.0, 0.0, 1.0, 480.0, 920.0)">
    <path d="M466.55 -475.55 Q472.1 -481.1 480.0 -481.1 L480.0 -427.75 478.25 -443.25 Q474.1 -443.6 470.65 -445.55 L408.65 -374.05 Q410.5 -371.1 410.5 -367.4 410.5 -365.15 409.85 -363.15 L480.0 -310.55 480.0 -301.05 405.25 -357.1 404.15 -356.4 429.25 -241.05 429.45 -241.05 Q434.3 -241.1 438.3 -238.95 L480.0 -280.7 480.0 -264.6 446.3 -230.9 Q448.4 -226.95 448.4 -222.1 448.4 -214.7 443.45 -209.35 L474.45 -139.55 480.0 -140.0 480.0 -114.75 Q478.6 -114.75 477.4 -114.2 476.35 -113.8 475.5 -112.9 474.3 -111.75 473.9 -110.25 473.65 -109.4 473.65 -108.45 473.65 -105.85 475.5 -104.0 477.35 -102.15 480.0 -102.1 L480.0 140.0 -480.0 140.0 -480.0 -102.1 -474.7 -105.0 Q-473.7 -106.5 -473.7 -108.45 L-473.75 -109.05 Q-473.95 -111.3 -475.55 -112.9 L-476.0 -113.3 Q-477.7 -114.75 -480.0 -114.75 L-480.0 -140.0 Q-471.45 -140.0 -464.55 -136.05 L-422.6 -186.7 Q-423.2 -188.5 -423.15 -190.55 -423.2 -195.8 -419.5 -199.45 L-419.3 -199.65 -459.05 -279.1 -461.05 -278.95 -465.05 -279.55 -480.0 -264.6 -480.0 -280.7 -473.1 -287.6 Q-473.7 -289.45 -473.7 -291.6 -473.7 -293.85 -473.0 -295.8 L-480.0 -301.05 -480.0 -310.55 -468.45 -301.85 -466.2 -303.2 -480.0 -427.75 -480.0 -481.1 Q-474.1 -481.1 -469.5 -477.95 L-396.5 -551.0 Q-397.95 -553.65 -397.9 -556.85 -397.9 -562.1 -394.2 -565.8 -390.55 -569.5 -385.3 -569.5 -380.05 -569.5 -376.35 -565.8 -372.65 -562.1 -372.65 -556.85 -372.65 -553.05 -374.65 -550.0 L-374.25 -549.55 -374.2 -549.5 -299.05 -453.85 Q-295.2 -455.8 -290.55 -455.8 -282.7 -455.85 -277.15 -450.3 -271.6 -444.75 -271.6 -436.85 L-271.6 -436.55 -194.25 -419.3 Q-192.9 -422.45 -190.3 -425.0 -184.75 -430.55 -176.85 -430.55 -173.25 -430.55 -170.15 -429.4 L-70.95 -587.75 5.0 -479.55 Q8.5 -481.1 12.6 -481.1 18.5 -481.1 23.1 -477.95 L96.1 -551.0 Q94.7 -553.65 94.7 -556.85 94.7 -562.1 98.4 -565.8 102.1 -569.5 107.35 -569.5 112.6 -569.5 116.3 -565.8 119.95 -562.1 120.0 -556.85 119.95 -553.05 118.0 -550.0 L118.35 -549.55 118.4 -549.55 118.45 -549.5 193.55 -453.85 Q197.4 -455.8 202.1 -455.8 209.95 -455.85 215.5 -450.3 221.05 -444.75 221.05 -436.85 L221.0 -435.45 273.65 -420.35 Q274.95 -422.85 277.1 -425.0 282.65 -430.55 290.5 -430.55 L294.4 -430.2 Q294.75 -431.8 294.3 -433.45 293.55 -436.25 291.1 -437.7 288.65 -439.1 285.95 -438.4 L285.6 -438.3 Q278.35 -436.5 271.9 -440.2 265.3 -444.0 263.35 -451.35 261.4 -458.7 265.2 -465.25 268.9 -471.7 276.1 -473.7 L276.45 -473.8 Q279.15 -474.6 280.55 -477.0 281.95 -479.5 281.2 -482.3 280.45 -485.1 278.0 -486.5 275.55 -487.9 272.85 -487.2 L272.5 -487.1 267.85 -486.5 267.85 -493.6 275.45 -494.75 275.45 -498.8 Q279.7 -498.65 283.7 -496.35 290.25 -492.55 292.2 -485.2 294.15 -477.9 290.4 -471.3 286.65 -464.85 279.45 -462.85 L279.1 -462.75 Q276.45 -461.95 275.05 -459.55 273.6 -457.05 274.35 -454.25 275.1 -451.5 277.6 -450.05 280.0 -448.65 282.7 -449.3 L283.05 -449.4 Q290.3 -451.25 296.75 -447.55 303.3 -443.75 305.3 -436.4 306.95 -430.15 304.45 -424.45 306.35 -422.4 307.55 -420.05 L461.05 -461.0 461.05 -462.15 Q461.0 -470.0 466.55 -475.55 M462.95 -453.65 L309.4 -412.7 309.45 -411.6 309.15 -408.05 388.15 -375.5 388.95 -376.3 Q392.65 -380.0 397.9 -380.0 400.6 -380.05 402.95 -379.0 L464.95 -450.55 Q463.75 -452.05 462.95 -453.65 M101.5 -545.65 L28.45 -472.6 Q31.55 -468.0 31.55 -462.15 31.55 -458.1 30.1 -454.65 L90.95 -402.45 Q94.15 -404.5 98.0 -405.05 L103.45 -544.8 Q102.4 -545.15 101.5 -545.65 M111.1 -544.75 L105.55 -404.8 Q110.55 -403.65 114.4 -399.75 L114.65 -399.5 183.35 -433.85 183.15 -436.85 Q183.1 -443.95 187.6 -449.15 L112.15 -545.15 111.1 -544.75 M3.3 -445.55 L-58.7 -374.05 Q-56.85 -371.1 -56.85 -367.4 -56.85 -365.15 -57.55 -363.15 L24.15 -301.85 Q25.25 -302.7 26.45 -303.2 L10.9 -443.25 Q6.75 -443.6 3.3 -445.55 M18.45 -444.05 L34.0 -304.25 85.75 -375.05 Q82.05 -379.95 82.1 -386.35 82.1 -390.4 83.55 -393.85 L22.65 -446.0 Q20.65 -444.75 18.45 -444.05 M188.65 -423.45 L188.45 -423.7 119.75 -389.35 120.0 -386.35 Q120.0 -381.15 117.55 -376.95 L164.45 -314.45 Q169.1 -316.45 174.4 -316.8 L191.75 -420.95 Q190.1 -422.0 188.65 -423.45 M203.3 -398.05 Q208.9 -399.95 215.2 -398.9 225.5 -397.25 231.65 -388.8 L241.85 -396.2 286.2 -334.85 283.35 -317.25 305.6 -286.5 287.9 -392.8 Q281.7 -393.6 277.1 -398.2 271.55 -403.75 271.55 -411.6 L271.6 -413.05 218.95 -428.1 Q217.65 -425.6 215.5 -423.45 211.65 -419.65 206.7 -418.45 L203.3 -398.05 M303.9 -398.2 Q301.65 -396.0 299.1 -394.65 L318.4 -278.8 Q321.45 -278.45 324.1 -277.1 L387.55 -360.1 Q385.25 -363.25 385.25 -367.4 L385.3 -368.5 306.25 -401.05 Q305.25 -399.55 303.9 -398.2 M183.05 -284.15 L183.15 -285.3 Q183.15 -287.9 181.3 -289.75 179.8 -291.25 177.85 -291.5 L176.8 -291.6 Q174.65 -291.6 173.0 -290.35 L172.35 -289.75 Q170.6 -288.0 170.5 -285.55 L170.5 -285.3 Q170.5 -282.7 172.3 -280.85 L172.35 -280.85 Q174.2 -279.0 176.8 -278.95 L178.05 -279.05 Q179.9 -279.45 181.3 -280.85 182.7 -282.25 183.05 -284.15 M192.8 -334.9 L189.4 -314.35 Q194.7 -312.05 199.15 -307.6 207.7 -299.05 208.35 -287.2 L248.05 -280.0 242.5 -287.7 224.9 -290.5 192.8 -334.9 M218.6 -363.8 Q222.8 -366.85 223.65 -372.0 224.5 -377.2 221.45 -381.4 218.35 -385.65 213.2 -386.5 208.05 -387.3 203.8 -384.25 201.65 -382.7 200.4 -380.55 L198.85 -371.3 Q199.35 -368.85 201.0 -366.6 204.05 -362.4 209.2 -361.55 214.35 -360.75 218.6 -363.8 M176.8 -253.7 Q165.5 -253.7 157.05 -260.65 L100.9 -205.75 100.4 -202.75 141.5 -213.75 Q140.35 -213.35 139.95 -211.45 139.55 -209.45 140.2 -206.9 140.9 -204.35 142.25 -202.8 143.6 -201.3 144.85 -201.6 L144.95 -201.65 Q146.15 -201.95 147.5 -200.4 148.85 -198.9 149.55 -196.35 150.2 -193.85 149.8 -191.8 149.4 -189.85 148.2 -189.45 L148.1 -189.45 Q146.9 -189.1 146.5 -187.1 146.05 -185.1 146.75 -182.55 147.4 -180.05 148.8 -178.5 150.1 -177.0 151.35 -177.3 L151.45 -177.3 Q152.7 -177.6 154.05 -176.1 155.4 -174.55 156.1 -172.05 156.75 -169.5 156.35 -167.5 155.9 -165.5 154.7 -165.15 L154.65 -165.1 Q153.4 -164.8 153.0 -162.8 152.65 -161.2 153.05 -159.3 L168.85 -151.35 Q168.85 -152.7 168.45 -154.2 167.75 -156.75 166.4 -158.3 165.05 -159.8 163.8 -159.5 L163.7 -159.5 Q162.45 -159.2 161.15 -160.7 159.8 -162.25 159.1 -164.75 158.4 -167.3 158.8 -169.3 159.2 -171.3 160.45 -171.65 L160.55 -171.65 Q161.75 -172.05 162.2 -174.0 162.6 -176.05 161.9 -178.55 161.25 -181.1 159.85 -182.6 158.5 -184.15 157.3 -183.85 L157.2 -183.8 Q155.95 -183.5 154.6 -185.0 153.25 -186.55 152.6 -189.1 151.9 -191.65 152.3 -193.6 152.7 -195.6 153.95 -195.95 L154.0 -196.0 Q155.25 -196.35 155.65 -198.35 156.05 -200.4 155.4 -202.9 154.7 -205.4 153.35 -206.95 152.0 -208.45 150.75 -208.15 L150.7 -208.15 Q149.45 -207.85 148.1 -209.35 146.75 -210.9 146.05 -213.4 145.35 -215.95 145.8 -217.95 146.2 -219.95 147.4 -220.3 L184.0 -230.1 179.25 -253.8 176.8 -253.7 M186.7 -255.2 L191.35 -232.05 217.3 -239.05 Q216.15 -238.65 215.75 -236.7 215.3 -234.7 216.0 -232.15 216.7 -229.65 218.05 -228.1 219.4 -226.6 220.65 -226.9 L220.7 -226.9 Q221.95 -227.2 223.3 -225.7 224.65 -224.15 225.35 -221.65 L225.5 -220.9 280.2 -235.55 260.6 -262.65 260.55 -262.35 205.7 -272.3 Q203.4 -267.25 199.15 -262.95 193.6 -257.45 186.7 -255.2 M298.3 -207.85 Q299.0 -205.3 300.35 -203.75 301.7 -202.25 302.95 -202.55 L303.05 -202.55 304.1 -202.5 297.9 -211.05 Q297.85 -209.6 298.3 -207.85 M315.75 -241.05 Q312.15 -241.1 309.05 -242.25 L309.05 -242.2 302.05 -231.2 Q301.9 -227.05 304.45 -223.55 307.5 -219.3 312.65 -218.45 317.8 -217.65 322.05 -220.7 326.3 -223.8 327.1 -228.9 327.95 -234.1 324.9 -238.3 323.3 -240.5 321.15 -241.8 318.6 -241.05 315.75 -241.05 M222.25 -212.2 Q221.85 -210.25 222.55 -207.85 223.2 -205.3 224.55 -203.75 225.9 -202.25 227.15 -202.55 L227.25 -202.55 Q228.5 -202.9 229.85 -201.35 230.85 -200.2 231.5 -198.5 231.85 -200.5 231.2 -202.9 230.5 -205.4 229.15 -206.95 227.8 -208.45 226.55 -208.15 L226.5 -208.15 Q225.25 -207.85 223.9 -209.35 222.85 -210.5 222.25 -212.2 M101.05 -367.4 Q97.8 -367.4 94.95 -368.35 L42.95 -297.2 43.8 -294.85 81.85 -293.2 83.35 -294.35 Q89.5 -298.85 97.0 -297.6 103.35 -296.6 107.5 -292.05 L145.6 -290.4 Q146.85 -298.7 152.35 -305.25 L105.4 -367.85 101.05 -367.4 M43.45 -287.25 Q42.55 -284.75 40.5 -282.65 L40.35 -282.5 60.3 -242.65 66.9 -283.85 76.0 -282.4 Q76.25 -284.2 76.85 -285.8 L43.45 -287.25 M18.95 -291.6 Q18.9 -293.85 19.6 -295.8 L-62.1 -357.1 -63.2 -356.4 -38.1 -241.05 -37.9 -241.05 Q-33.05 -241.1 -29.1 -238.95 L19.55 -287.6 Q18.95 -289.45 18.95 -291.6 M31.55 -278.95 L27.55 -279.55 -21.05 -230.9 Q-18.95 -226.95 -18.95 -222.1 -18.95 -214.7 -23.9 -209.35 L7.05 -139.55 12.6 -140.0 Q21.15 -140.0 28.1 -136.05 L58.3 -172.6 65.25 -215.75 59.05 -228.2 58.15 -229.4 58.2 -229.8 33.55 -279.1 31.55 -278.95 M145.3 -282.85 L111.9 -284.3 Q112.9 -280.6 112.25 -276.55 L121.3 -275.1 113.95 -229.1 151.75 -266.05 Q145.95 -273.4 145.3 -282.85 M92.9 -124.4 Q93.3 -126.45 92.65 -128.95 91.95 -131.5 90.6 -133.0 L89.35 -134.05 87.0 -119.4 89.55 -119.65 89.55 -119.7 Q89.95 -121.7 91.2 -122.05 L91.3 -122.05 Q92.5 -122.45 92.9 -124.4 M82.8 -151.0 Q83.4 -154.75 81.15 -157.85 L80.6 -158.55 Q79.75 -158.75 78.85 -159.75 L78.3 -160.45 Q76.85 -161.25 75.15 -161.5 71.4 -162.15 68.3 -159.9 65.2 -157.7 64.65 -153.9 64.0 -150.15 66.25 -147.05 68.5 -144.0 72.25 -143.35 76.0 -142.75 79.1 -145.0 82.2 -147.25 82.8 -151.0 M103.2 -278.0 Q103.8 -281.7 101.65 -284.75 L87.05 -285.35 Q85.45 -283.5 85.05 -280.9 84.4 -277.15 86.65 -274.1 88.9 -271.0 92.65 -270.4 96.4 -269.8 99.5 -272.0 102.6 -274.25 103.2 -278.0 M85.75 -111.7 L81.65 -86.0 83.45 -83.55 105.15 -81.85 Q104.55 -83.35 103.65 -84.35 102.3 -85.85 101.05 -85.55 L100.95 -85.55 Q99.7 -85.25 98.4 -86.75 97.0 -88.3 96.35 -90.8 95.65 -93.35 96.1 -95.35 96.5 -97.35 97.7 -97.7 L97.8 -97.75 Q99.0 -98.1 99.4 -100.1 99.8 -102.15 99.15 -104.6 98.5 -107.15 97.1 -108.7 95.75 -110.2 94.55 -109.9 L94.45 -109.9 Q93.2 -109.6 91.85 -111.1 L91.05 -112.2 85.75 -111.7 M43.5 -115.2 L49.2 -115.75 54.75 -150.45 36.8 -128.75 Q41.95 -122.75 43.5 -115.2 M16.65 -113.3 Q14.95 -114.75 12.6 -114.75 L10.05 -114.2 Q9.0 -113.8 8.15 -112.9 6.95 -111.75 6.55 -110.25 L6.3 -108.45 Q6.3 -105.85 8.15 -104.0 10.0 -102.15 12.6 -102.1 15.2 -102.15 17.05 -104.0 18.9 -105.85 18.95 -108.45 L18.9 -109.05 Q18.7 -111.3 17.05 -112.9 L16.65 -113.3 M159.75 -133.9 Q160.45 -131.4 161.8 -129.85 163.15 -128.35 164.4 -128.6 L164.5 -128.65 Q165.75 -128.95 167.1 -127.45 L167.3 -127.2 175.3 -127.95 174.95 -129.9 Q174.3 -132.4 172.9 -133.95 171.55 -135.45 170.3 -135.15 L170.25 -135.15 Q169.0 -134.85 167.65 -136.35 166.3 -137.9 165.6 -140.4 164.95 -142.8 165.3 -144.7 L162.95 -145.85 Q163.1 -144.45 162.85 -143.15 162.45 -141.2 161.2 -140.8 L161.15 -140.8 Q159.9 -140.45 159.5 -138.45 159.1 -136.45 159.75 -133.9 M44.2 -107.65 Q43.95 -95.85 36.0 -87.2 L38.65 -87.0 45.35 -91.85 47.95 -108.05 44.2 -107.65 M306.3 -190.4 L306.2 -190.4 Q305.0 -190.05 304.6 -188.05 304.15 -186.05 304.85 -183.5 305.5 -181.0 306.9 -179.45 308.2 -177.95 309.45 -178.2 L309.55 -178.25 Q310.8 -178.55 312.15 -177.0 313.5 -175.5 314.2 -172.95 L314.4 -172.1 Q324.0 -166.85 333.65 -161.65 L310.0 -194.35 308.05 -194.0 307.9 -192.75 Q307.5 -190.75 306.3 -190.4 M311.1 -163.7 Q310.65 -161.7 311.35 -159.15 312.05 -156.65 313.4 -155.1 314.75 -153.6 316.0 -153.9 L316.05 -153.9 Q317.3 -154.25 318.65 -152.7 320.0 -151.2 320.7 -148.65 321.35 -146.1 320.95 -144.1 320.55 -142.1 319.3 -141.75 L319.25 -141.75 Q318.0 -141.4 317.6 -139.4 317.2 -137.4 317.85 -134.85 318.55 -132.3 319.9 -130.75 321.25 -129.25 322.5 -129.55 L322.6 -129.55 Q323.85 -129.9 325.2 -128.35 326.55 -126.85 327.2 -124.3 327.9 -121.8 327.5 -119.75 327.05 -117.8 325.85 -117.4 L325.75 -117.4 Q324.8 -117.1 324.4 -115.9 L347.35 -102.1 373.95 -84.35 343.15 -127.0 343.65 -130.2 340.25 -132.95 Q334.7 -138.45 334.7 -146.3 334.7 -149.35 335.5 -152.0 L311.55 -165.0 Q311.25 -164.5 311.1 -163.7 M235.4 -159.85 L236.65 -161.05 Q235.8 -162.1 235.3 -163.55 234.95 -161.9 235.4 -159.85 M229.05 -183.5 Q229.7 -181.0 231.1 -179.45 232.4 -177.95 233.7 -178.2 L233.75 -178.25 Q235.0 -178.55 236.35 -177.0 237.35 -175.9 238.0 -174.15 238.35 -176.15 237.7 -178.55 237.05 -181.1 235.65 -182.6 234.3 -184.15 233.05 -183.85 L233.0 -183.8 Q231.75 -183.5 230.4 -185.0 229.4 -186.2 228.75 -187.9 228.4 -185.95 229.05 -183.5 M251.05 -125.55 Q251.4 -127.5 250.75 -129.9 250.05 -132.4 248.7 -133.95 247.35 -135.45 246.1 -135.15 L246.05 -135.15 Q244.8 -134.85 243.45 -136.35 242.4 -137.5 241.8 -139.2 241.45 -137.25 242.1 -134.85 242.75 -132.3 244.15 -130.75 245.45 -129.25 246.7 -129.55 L246.8 -129.55 Q248.05 -129.9 249.4 -128.35 250.4 -127.25 251.05 -125.55 M244.5 -149.85 Q244.85 -151.85 244.25 -154.2 L243.15 -156.85 240.15 -153.85 240.2 -153.9 240.3 -153.9 Q241.5 -154.25 242.85 -152.7 243.85 -151.55 244.5 -149.85 M172.15 -116.1 Q171.55 -118.25 171.75 -120.0 L169.5 -119.8 169.4 -118.8 Q168.95 -116.85 167.75 -116.5 L167.65 -116.45 Q166.45 -116.1 166.05 -114.1 165.6 -112.1 166.3 -109.55 166.95 -107.05 168.35 -105.5 169.65 -104.0 170.95 -104.3 L171.0 -104.3 Q172.25 -104.65 173.6 -103.1 174.95 -101.6 175.65 -99.05 176.3 -96.55 175.9 -94.5 175.5 -92.5 174.25 -92.15 L174.2 -92.15 Q172.95 -91.8 172.55 -89.8 172.15 -87.8 172.8 -85.25 173.5 -82.7 174.85 -81.15 175.6 -80.35 176.3 -80.05 L185.9 -85.4 Q184.55 -86.8 183.35 -86.5 L183.3 -86.5 Q182.05 -86.2 180.7 -87.7 179.35 -89.25 178.65 -91.75 177.95 -94.3 178.4 -96.3 178.8 -98.3 180.05 -98.65 L180.1 -98.65 Q181.35 -99.05 181.75 -101.0 182.15 -103.05 181.5 -105.55 180.8 -108.1 179.45 -109.6 178.1 -111.15 176.85 -110.85 L176.75 -110.8 Q175.5 -110.5 174.15 -112.05 172.8 -113.55 172.15 -116.1 M393.55 -355.5 L330.1 -272.45 Q334.2 -267.8 334.65 -261.6 L414.25 -233.5 416.05 -235.55 Q418.65 -238.15 421.8 -239.55 L396.75 -354.8 393.55 -355.5 M331.95 -250.1 L359.5 -212.0 410.5 -222.2 410.5 -222.8 332.15 -250.45 331.95 -250.1 M411.95 -214.75 L364.4 -205.25 381.25 -181.95 412.6 -213.3 411.95 -214.75 M429.45 -203.15 Q424.6 -203.15 420.65 -205.25 L389.15 -173.8 404.45 -171.35 434.3 -130.05 452.75 -124.5 Q454.75 -127.85 457.65 -130.75 L460.6 -133.4 429.6 -203.15 429.45 -203.15 M448.4 -109.75 L438.6 -102.65 Q444.7 -94.2 443.0 -83.85 441.35 -73.55 432.9 -67.4 424.45 -61.3 414.1 -62.95 403.8 -64.6 397.7 -73.05 L394.45 -70.7 423.15 -51.6 465.9 -80.1 Q461.45 -82.35 457.65 -86.1 448.4 -95.4 448.4 -108.45 L448.4 -109.75 M407.9 -80.45 Q410.95 -76.25 416.15 -75.4 421.25 -74.6 425.5 -77.65 429.75 -80.7 430.6 -85.85 431.4 -91.0 428.35 -95.25 425.25 -99.5 420.15 -100.3 414.95 -101.15 410.75 -98.05 406.5 -95.0 405.7 -89.85 404.85 -84.7 407.9 -80.45 M-286.1 -417.6 L-286.8 -413.25 Q-286.5 -411.1 -284.85 -409.4 -282.85 -407.4 -279.95 -407.4 -277.15 -407.4 -275.15 -409.3 L-274.9 -409.6 Q-269.55 -414.8 -262.05 -414.8 -254.5 -414.8 -249.15 -409.4 -243.75 -404.05 -243.75 -396.45 -243.75 -389.05 -248.95 -383.7 L-249.25 -383.4 Q-251.2 -381.4 -251.15 -378.6 -251.2 -375.75 -249.15 -373.7 -247.1 -371.7 -244.2 -371.65 -241.45 -371.65 -239.4 -373.6 L-239.15 -373.85 Q-233.8 -379.05 -226.35 -379.05 -218.8 -379.1 -213.4 -373.7 -208.05 -368.35 -208.0 -360.75 -208.05 -353.3 -213.25 -347.95 L-213.5 -347.7 Q-215.45 -345.7 -215.45 -342.9 -215.45 -340.0 -213.4 -337.95 -211.35 -335.95 -208.5 -335.95 -205.7 -335.95 -203.7 -337.85 L-203.4 -338.15 Q-198.1 -343.35 -190.65 -343.35 -183.05 -343.35 -177.65 -337.95 -172.3 -332.6 -172.3 -325.0 -172.3 -317.55 -177.5 -312.2 L-177.75 -311.95 Q-179.7 -309.95 -179.7 -307.15 -179.7 -304.3 -177.65 -302.25 -175.65 -300.2 -172.75 -300.2 -170.0 -300.2 -167.95 -302.15 L-167.7 -302.4 -164.8 -304.75 -179.5 -392.8 Q-185.7 -393.6 -190.3 -398.2 -195.85 -403.75 -195.8 -411.6 L-195.8 -411.9 -273.15 -429.15 Q-274.6 -426.05 -277.15 -423.45 -280.8 -419.8 -285.45 -418.55 L-286.1 -417.6 M-309.5 -436.85 Q-309.5 -443.95 -305.0 -449.15 L-380.5 -545.15 -381.55 -544.75 -387.05 -404.8 Q-382.1 -403.65 -378.2 -399.75 L-377.95 -399.5 -309.25 -433.85 -309.5 -436.85 M-304.2 -423.7 L-372.85 -389.35 -372.65 -386.35 Q-372.65 -381.15 -375.1 -376.95 L-328.2 -314.45 Q-323.55 -316.45 -318.2 -316.8 L-300.9 -420.95 -303.95 -423.45 -304.2 -423.7 M-266.85 -401.5 L-267.15 -401.25 Q-272.5 -396.0 -279.95 -396.0 -285.15 -396.0 -289.25 -398.5 L-303.25 -314.35 Q-297.95 -312.05 -293.5 -307.6 -285.55 -299.7 -284.4 -288.95 L-167.6 -270.25 -165.0 -273.45 Q-162.8 -275.65 -160.15 -277.0 L-162.65 -291.85 Q-167.1 -288.85 -172.75 -288.8 -180.35 -288.85 -185.7 -294.2 -191.1 -299.55 -191.1 -307.15 -191.1 -314.6 -185.85 -319.95 L-185.6 -320.2 Q-183.7 -322.25 -183.7 -325.0 -183.7 -327.9 -185.7 -329.95 -187.75 -332.0 -190.65 -331.95 -193.45 -332.0 -195.45 -330.05 L-195.7 -329.8 Q-201.05 -324.55 -208.5 -324.55 -216.05 -324.55 -221.45 -329.95 -226.8 -335.3 -226.8 -342.9 -226.8 -350.35 -221.6 -355.65 L-221.35 -355.95 Q-219.4 -357.95 -219.4 -360.75 -219.4 -363.65 -221.45 -365.65 -223.5 -367.7 -226.35 -367.7 -229.15 -367.7 -231.15 -365.75 L-231.4 -365.5 Q-236.75 -360.3 -244.2 -360.3 -251.8 -360.3 -257.15 -365.65 -262.55 -371.05 -262.55 -378.6 -262.55 -386.1 -257.3 -391.4 L-257.05 -391.65 Q-255.15 -393.7 -255.15 -396.45 -255.15 -399.35 -257.15 -401.4 -259.2 -403.45 -262.05 -403.4 -264.85 -403.45 -266.85 -401.5 M-163.45 -425.0 Q-161.2 -422.75 -159.85 -420.05 L-6.3 -461.0 -6.35 -462.15 Q-6.35 -469.75 -1.15 -475.2 L-70.6 -574.05 -163.75 -425.3 -163.45 -425.0 M-157.9 -411.6 Q-157.9 -409.75 -158.2 -408.05 L-79.2 -375.5 -78.45 -376.3 Q-74.75 -380.0 -69.5 -380.0 -66.75 -380.05 -64.4 -379.0 L-2.4 -450.55 Q-3.6 -452.05 -4.4 -453.65 L-157.95 -412.7 -157.9 -411.6 M-163.45 -398.2 Q-165.7 -396.0 -168.25 -394.65 L-153.75 -307.6 Q-146.9 -307.2 -141.95 -302.25 -136.6 -296.9 -136.55 -289.3 -136.6 -287.25 -136.95 -285.35 L-79.85 -360.1 Q-82.15 -363.25 -82.1 -367.4 L-82.05 -368.5 -161.1 -401.05 Q-162.15 -399.55 -163.45 -398.2 M-391.15 -545.65 L-464.15 -472.6 Q-461.1 -468.0 -461.05 -462.15 -461.1 -458.1 -462.55 -454.65 L-401.65 -402.45 Q-398.5 -404.5 -394.65 -405.05 L-389.2 -544.8 -391.15 -545.65 M-474.15 -444.05 L-458.65 -304.25 -406.85 -375.05 Q-410.55 -379.95 -410.55 -386.35 -410.55 -390.4 -409.05 -393.85 L-469.95 -446.0 Q-471.95 -444.75 -474.15 -444.05 M-397.7 -368.35 L-449.7 -297.2 Q-449.15 -296.1 -448.85 -294.85 L-347.0 -290.4 Q-345.75 -298.7 -340.25 -305.25 L-387.2 -367.85 -391.6 -367.4 Q-394.85 -367.4 -397.7 -368.35 M-452.15 -282.65 L-452.3 -282.5 -412.55 -203.05 -410.55 -203.15 Q-408.05 -203.2 -405.9 -202.35 L-405.3 -203.1 -340.9 -266.05 Q-346.65 -273.4 -347.3 -282.85 L-449.15 -287.25 Q-450.1 -284.75 -452.15 -282.65 M-397.9 -190.55 L-398.05 -188.55 -296.25 -137.6 -296.05 -137.65 -291.5 -137.9 -291.3 -137.9 -290.3 -138.5 -313.35 -253.8 -315.8 -253.7 Q-327.15 -253.7 -335.6 -260.65 L-399.9 -197.75 -400.05 -197.6 Q-397.9 -194.5 -397.9 -190.55 M-401.6 -181.6 Q-405.3 -177.95 -410.55 -177.9 -412.75 -177.9 -414.65 -178.55 L-455.85 -128.75 Q-451.85 -124.1 -450.0 -118.5 L-410.55 -140.0 -375.25 -122.35 -325.65 -127.15 Q-325.55 -128.1 -324.45 -129.1 -322.9 -130.45 -320.35 -131.1 L-315.8 -131.4 Q-313.85 -131.0 -313.5 -129.75 L-313.45 -129.65 Q-313.25 -128.9 -312.35 -128.45 L-304.1 -129.25 -302.5 -130.35 -301.4 -131.7 -401.45 -181.75 -401.6 -181.6 M-361.8 -116.05 Q-361.25 -115.3 -359.8 -115.0 L-355.25 -115.25 Q-353.0 -115.9 -351.5 -117.05 L-361.8 -116.05 M-73.8 -355.5 L-137.3 -272.45 Q-133.2 -267.8 -132.7 -261.6 L-53.1 -233.5 -51.35 -235.55 Q-48.7 -238.15 -45.55 -239.55 L-70.65 -354.8 Q-72.3 -354.95 -73.8 -355.5 M-147.95 -289.3 Q-147.95 -292.15 -150.0 -294.2 L-151.7 -295.5 -149.9 -284.45 Q-147.95 -286.5 -147.95 -289.3 M-137.4 -206.05 L-56.85 -222.2 -56.85 -222.8 -135.2 -250.45 Q-136.45 -248.4 -138.2 -246.6 -143.75 -241.05 -151.6 -241.05 -155.2 -241.1 -158.35 -242.25 L-184.5 -200.85 -136.35 -213.75 Q-137.55 -213.35 -137.95 -211.45 -138.35 -209.45 -137.65 -206.9 L-137.4 -206.05 M-60.8 -213.65 Q-61.8 -213.2 -62.15 -211.45 -62.55 -209.45 -61.9 -206.9 L-61.7 -206.35 -54.75 -213.3 -55.45 -214.75 -60.8 -213.65 M-53.35 -198.6 L-52.55 -196.35 Q-51.9 -193.85 -52.3 -191.8 -52.7 -189.85 -53.9 -189.45 L-54.0 -189.45 Q-55.25 -189.1 -55.65 -187.1 -56.05 -185.1 -55.35 -182.55 -54.7 -180.05 -53.3 -178.5 -52.0 -177.0 -50.75 -177.3 L-50.65 -177.3 Q-49.4 -177.6 -48.05 -176.1 -46.7 -174.55 -46.05 -172.05 -45.35 -169.5 -45.75 -167.5 -46.2 -165.5 -47.4 -165.15 L-47.45 -165.1 Q-48.7 -164.8 -49.1 -162.8 -49.55 -160.8 -48.85 -158.25 -48.2 -155.7 -46.8 -154.15 -45.5 -152.65 -44.2 -152.95 L-44.15 -152.95 Q-42.9 -153.3 -41.55 -151.75 -40.2 -150.25 -39.5 -147.7 -38.85 -145.2 -39.25 -143.15 -39.65 -141.2 -40.9 -140.8 L-40.95 -140.8 Q-42.2 -140.45 -42.6 -138.45 -43.0 -136.45 -42.35 -133.9 L-41.95 -132.7 -14.65 -124.5 Q-12.65 -127.85 -9.7 -130.75 L-6.8 -133.4 -37.75 -203.15 -37.9 -203.15 Q-42.75 -203.15 -46.7 -205.25 L-53.35 -198.6 M-309.5 -285.3 Q-309.5 -287.9 -311.35 -289.75 -312.85 -291.25 -314.75 -291.5 L-315.8 -291.6 Q-318.0 -291.6 -319.6 -290.35 L-320.3 -289.75 Q-322.05 -288.0 -322.1 -285.55 L-322.1 -285.3 Q-322.1 -282.7 -320.3 -280.85 -318.45 -279.0 -315.8 -278.95 L-314.55 -279.05 Q-312.75 -279.45 -311.35 -280.85 -309.5 -282.7 -309.5 -285.3 M-61.35 -213.55 L-129.9 -199.85 Q-128.9 -198.45 -128.35 -196.35 L-128.15 -195.65 -61.35 -213.55 M-305.9 -255.2 L-282.85 -139.95 Q-279.75 -139.65 -277.25 -137.95 -276.8 -138.75 -276.95 -139.45 L-277.0 -139.55 Q-277.3 -140.8 -275.8 -142.1 -274.25 -143.5 -271.7 -144.15 L-270.05 -144.5 -208.3 -188.6 -208.45 -190.55 Q-208.45 -195.8 -204.75 -199.45 -201.05 -203.15 -195.8 -203.15 L-192.2 -202.7 -164.7 -246.3 -165.0 -246.6 Q-168.8 -250.4 -170.0 -255.3 L-286.25 -273.9 Q-288.55 -267.9 -293.5 -262.95 -299.05 -257.45 -305.9 -255.2 M-201.4 -168.35 Q-201.0 -170.35 -199.75 -170.7 L-199.65 -170.7 Q-198.45 -171.1 -198.0 -173.05 -197.6 -175.1 -198.3 -177.6 L-198.45 -178.15 Q-200.2 -178.5 -201.7 -179.35 L-241.85 -150.65 Q-240.75 -150.2 -240.5 -149.3 L-240.45 -149.25 Q-240.1 -148.0 -238.1 -147.6 L-233.6 -147.85 Q-231.05 -148.55 -229.5 -149.9 -228.0 -151.25 -228.3 -152.5 L-228.35 -152.55 Q-228.65 -153.85 -227.1 -155.15 -225.6 -156.55 -223.05 -157.2 L-218.5 -157.45 Q-216.55 -157.05 -216.15 -155.85 L-216.15 -155.75 Q-215.8 -154.55 -213.8 -154.1 L-209.25 -154.4 Q-206.75 -155.05 -205.2 -156.4 -203.7 -157.75 -204.0 -159.0 L-204.0 -159.1 Q-204.3 -160.35 -202.8 -161.65 L-200.85 -162.95 -201.1 -163.8 Q-201.8 -166.35 -201.4 -168.35 M-179.5 -86.75 Q-180.85 -88.3 -181.55 -90.8 L-181.95 -93.1 Q-183.15 -92.55 -184.05 -91.7 -185.55 -90.4 -185.25 -89.15 L-185.25 -89.05 Q-184.95 -87.85 -186.45 -86.45 -188.0 -85.15 -190.5 -84.45 L-195.05 -84.15 Q-197.05 -84.6 -197.4 -85.8 L-197.4 -85.85 Q-197.8 -87.1 -199.75 -87.5 L-204.3 -87.25 Q-206.85 -86.6 -208.35 -85.2 -209.9 -83.9 -209.6 -82.6 L-209.55 -82.55 Q-209.25 -81.35 -210.65 -80.05 L-172.65 -81.7 Q-173.3 -83.25 -174.25 -84.35 -175.6 -85.85 -176.85 -85.55 L-176.9 -85.55 Q-178.15 -85.25 -179.5 -86.75 M-228.65 -80.75 Q-230.75 -80.2 -232.2 -79.1 L-221.8 -79.55 Q-222.3 -80.65 -224.1 -81.0 L-228.65 -80.75 M-28.5 -103.1 Q-27.15 -101.6 -26.45 -99.05 -25.8 -96.55 -26.2 -94.5 -26.6 -92.5 -27.85 -92.15 L-27.9 -92.15 Q-29.15 -91.8 -29.55 -89.8 L-29.7 -87.9 -12.05 -88.7 Q-19.0 -97.15 -18.95 -108.45 L-18.95 -110.0 -35.8 -115.05 -36.05 -114.1 Q-36.5 -112.1 -35.8 -109.55 -35.15 -107.05 -33.75 -105.5 -32.45 -104.0 -31.15 -104.3 L-31.1 -104.3 Q-29.85 -104.65 -28.5 -103.1 M-104.9 -84.65 L-99.0 -84.9 Q-100.1 -85.8 -101.05 -85.55 L-101.15 -85.55 Q-102.4 -85.25 -103.7 -86.75 -104.75 -87.9 -105.35 -89.6 -105.75 -87.65 -105.1 -85.25 L-104.9 -84.65 M-107.65 -109.9 Q-108.9 -109.6 -110.25 -111.1 -111.25 -112.25 -111.9 -113.9 -112.25 -112.0 -111.6 -109.55 -110.95 -107.05 -109.55 -105.5 -108.2 -104.0 -106.95 -104.3 L-106.9 -104.3 Q-105.65 -104.65 -104.3 -103.1 -103.3 -101.95 -102.65 -100.25 -102.3 -102.25 -102.95 -104.6 -103.6 -107.15 -105.0 -108.7 -106.35 -110.2 -107.55 -109.9 L-107.65 -109.9 M-109.15 -124.6 Q-108.9 -126.1 -109.2 -127.85 L-110.9 -127.55 -110.8 -127.45 Q-109.8 -126.3 -109.15 -124.6 M-125.05 -161.55 L-124.6 -161.9 -124.95 -162.6 -125.05 -161.55 M-131.15 -182.55 Q-130.5 -180.05 -129.1 -178.5 -127.8 -177.0 -126.5 -177.3 L-126.45 -177.3 Q-125.2 -177.6 -123.85 -176.1 -122.85 -174.95 -122.2 -173.25 -121.85 -175.2 -122.5 -177.6 -123.15 -180.15 -124.55 -181.7 -125.9 -183.2 -127.1 -182.9 L-127.2 -182.85 Q-128.45 -182.55 -129.8 -184.1 -130.8 -185.25 -131.45 -186.95 -131.8 -185.0 -131.15 -182.55" fill="#000000" fill-rule="evenodd" stroke="none"/>
    <path d="M-180.0 -920.0 L-180.0 -880.0 -220.0 -880.0 -220.0 -920.0 -180.0 -920.0" fill="#ffffff" fill-opacity="0.0" fill-rule="evenodd" stroke="none"/>
  </g>
</svg>
