<?xml version="1.0" encoding="UTF-8" standalone="no"?>
<svg xmlns:ffdec="https://www.free-decompiler.com/flash" xmlns:xlink="http://www.w3.org/1999/xlink" ffdec:objectType="shape" height="330.0px" width="1279.95px" xmlns="http://www.w3.org/2000/svg">
  <g transform="matrix(1.0, 0.0, 0.0, 1.0, 639.95, 190.0)">
    <path d="M628.65 139.85 L559.8 93.95 516.1 93.95 516.1 88.35 538.7 88.35 403.9 -17.4 374.2 -17.4 374.2 -22.95 386.6 -22.95 333.95 -71.95 312.8 -50.8 322.75 -50.8 322.75 -45.2 293.15 -45.2 235.55 4.9 267.1 4.9 267.1 10.45 224.85 10.45 223.9 10.45 209.55 10.45 28.45 139.85 18.8 139.85 207.75 4.9 227.15 4.9 291.1 -50.8 304.85 -50.8 333.8 -79.7 394.75 -22.95 405.8 -22.95 547.7 88.35 561.5 88.35 638.7 139.85 628.65 139.85" fill="#000000" fill-rule="evenodd" stroke="none"/>
    <path d="M28.45 139.85 L209.55 10.45 223.9 10.45 224.85 10.45 267.1 10.45 267.1 4.9 235.55 4.9 293.15 -45.2 322.75 -45.2 322.75 -50.8 312.8 -50.8 333.95 -71.95 386.6 -22.95 374.2 -22.95 374.2 -17.4 403.9 -17.4 538.7 88.35 516.1 88.35 516.1 93.95 559.8 93.95 628.65 139.85 28.45 139.85" fill="#373146" fill-rule="evenodd" stroke="none"/>
    <path d="M-541.65 98.1 L-551.7 98.1 -516.2 74.45 -502.45 74.45 -360.5 -36.85 -349.5 -36.85 -288.55 -93.6 -259.6 -64.7 -245.8 -64.7 -181.85 -9.05 -162.5 -9.05 -12.5 98.1 -22.1 98.1 -164.3 -3.45 -178.6 -3.45 -179.6 -3.45 -221.8 -3.45 -221.8 -9.05 -190.25 -9.05 -247.85 -59.15 -277.45 -59.15 -277.45 -64.7 -267.5 -64.7 -288.65 -85.85 -341.35 -36.85 -328.95 -36.85 -328.95 -31.3 -358.6 -31.3 -493.4 74.45 -470.85 74.45 -470.85 80.0 -514.55 80.0 -541.65 98.1" fill="#000000" fill-rule="evenodd" stroke="none"/>
    <path d="M-22.1 98.1 L-541.65 98.1 -514.55 80.0 -470.85 80.0 -470.85 74.45 -493.4 74.45 -358.6 -31.3 -328.95 -31.3 -328.95 -36.85 -341.35 -36.85 -288.65 -85.85 -267.5 -64.7 -277.45 -64.7 -277.45 -59.15 -247.85 -59.15 -190.25 -9.05 -221.8 -9.05 -221.8 -3.45 -179.6 -3.45 -178.6 -3.45 -164.3 -3.45 -22.1 98.1" fill="#373146" fill-rule="evenodd" stroke="none"/>
    <path d="M-639.95 -100.15 L640.0 -100.15 640.0 140.0 -639.95 140.0 -639.95 -100.15" fill="url(#gradient0)" fill-rule="evenodd" stroke="none"/>
    <path d="M390.5 139.85 L380.5 139.85 416.0 116.2 429.75 116.2 571.65 4.9 582.7 4.9 639.95 -48.4 639.95 -40.8 590.85 4.9 603.25 4.9 603.25 10.45 573.55 10.45 438.75 116.2 461.35 116.2 461.35 121.75 417.65 121.75 390.5 139.85" fill="#000000" fill-rule="evenodd" stroke="none"/>
    <path d="M639.95 -40.8 L639.95 139.85 390.5 139.85 417.65 121.75 461.35 121.75 461.35 116.2 438.75 116.2 573.55 10.45 603.25 10.45 603.25 4.9 590.85 4.9 639.95 -40.8" fill="#4f4565" fill-rule="evenodd" stroke="none"/>
    <path d="M-639.95 -40.8 L-639.95 -48.4 -636.25 -51.85 -607.35 -22.95 -593.55 -22.95 -529.6 32.7 -510.25 32.7 -360.2 139.85 -369.85 139.85 -512.05 38.3 -526.35 38.3 -527.35 38.3 -569.55 38.3 -569.55 32.7 -538.0 32.7 -595.6 -17.4 -625.2 -17.4 -625.2 -22.95 -615.25 -22.95 -636.4 -44.1 -639.95 -40.8" fill="#000000" fill-rule="evenodd" stroke="none"/>
    <path d="M-369.85 139.85 L-639.95 139.85 -639.95 -40.8 -636.4 -44.1 -615.25 -22.95 -625.2 -22.95 -625.2 -17.4 -595.6 -17.4 -538.0 32.7 -569.55 32.7 -569.55 38.3 -527.35 38.3 -526.35 38.3 -512.05 38.3 -369.85 139.85" fill="#4f4565" fill-rule="evenodd" stroke="none"/>
    <path d="M9.3 -159.35 L3.05 -173.45 10.7 -173.45 18.55 -159.35 9.3 -159.35 M34.0 -131.5 L45.9 -131.5 Q56.2 -117.45 67.0 -103.65 L49.45 -103.65 34.0 -131.5 M-21.9 -189.95 L-18.5 -159.35 -27.85 -159.35 -27.85 -189.95 -21.9 -189.95 M-15.45 -131.5 L-3.05 -131.5 3.1 -103.65 -12.3 -103.65 -15.45 -131.5 M-9.25 -159.35 L-12.4 -173.45 -4.65 -173.45 0.0 -159.35 -9.25 -159.35 M18.55 -103.65 L34.0 -103.65 46.4 -75.85 27.9 -75.85 18.55 -103.65 M-37.1 -159.35 L-46.35 -159.35 -43.2 -173.45 -50.95 -173.45 -45.5 -189.8 -45.45 -189.95 -39.6 -189.95 -43.2 -173.45 -35.55 -173.45 -37.1 -159.35 M-55.65 -159.35 L-64.9 -131.5 -77.3 -131.5 -89.65 -103.65 -105.1 -103.65 -89.6 -131.5 -77.3 -131.5 -64.9 -159.35 -55.65 -159.35" fill="#ff0000" fill-opacity="0.49803922" fill-rule="evenodd" stroke="none"/>
    <path d="M18.55 -159.35 L10.7 -173.45 3.05 -173.45 9.3 -159.35 34.0 -103.65 18.55 -103.65 0.0 -159.35 -4.65 -173.45 -12.4 -173.45 -9.25 -159.35 -3.05 -131.5 -15.45 -131.5 -18.5 -159.35 -21.9 -189.95 5.95 -189.95 6.8 -188.65 16.7 -173.45 26.15 -159.35 Q35.8 -145.3 45.9 -131.5 L34.0 -131.5 18.55 -159.35 M-27.85 -189.95 L-27.85 -159.35 -27.85 -131.5 -40.2 -131.5 -37.1 -159.35 -35.55 -173.45 -43.2 -173.45 -39.6 -189.95 -27.85 -189.95 M-50.95 -173.45 L-55.65 -159.35 -64.9 -159.35 -77.3 -131.5 -89.6 -131.5 -74.15 -159.35 -82.7 -159.35 -72.4 -173.45 -62.05 -188.7 -61.2 -189.95 -46.5 -189.95 -45.85 -189.95 -45.5 -189.8 -50.95 -173.45" fill="url(#gradient1)" fill-rule="evenodd" stroke="none"/>
    <path d="M-45.85 -189.95 L-45.45 -189.95 -45.5 -189.8 -45.85 -189.95" fill="#ff3300" fill-rule="evenodd" stroke="none"/>
    <path d="M-539.65 139.85 L-552.8 139.85 Q-500.5 115.3 -453.6 89.55 L-453.6 88.35 -451.55 88.35 -449.7 87.4 -449.15 88.35 -408.4 88.35 Q-313.8 36.05 -241.1 -21.5 L-241.1 -22.95 -239.3 -22.95 -237.85 -24.1 -237.0 -22.95 -217.75 -22.95 Q-119.75 -101.05 -62.05 -188.7 L-61.25 -189.95 -46.5 -189.95 -45.85 -189.95 5.95 -189.95 6.8 -188.65 Q63.55 -99.55 137.0 -22.95 L156.3 -22.95 157.45 -24.1 158.6 -22.95 160.2 -22.95 160.2 -21.3 Q201.5 21.55 248.05 60.55 L267.3 60.55 268.3 59.4 269.7 60.55 271.4 60.55 271.4 62.05 Q320.75 103.2 375.95 139.85 L365.95 139.85 Q314.2 104.9 267.65 66.1 L168.6 66.1 168.6 60.55 239.5 60.55 Q195.45 23.3 156.2 -17.4 L66.65 -17.4 66.65 -22.95 129.35 -22.95 Q58.3 -97.75 3.0 -184.4 L-5.6 -184.4 Q9.1 -125.05 47.55 -77.6 L49.4 -75.4 45.0 -71.9 43.25 -74.1 Q3.55 -123.1 -11.3 -184.4 L-30.7 -184.4 Q-40.2 -107.5 -76.55 -34.5 L-77.8 -32.0 -82.7 -34.5 -81.55 -37.0 Q-45.8 -108.75 -36.25 -184.4 L-44.2 -184.4 Q-64.0 -127.2 -104.65 -74.1 L-106.3 -71.95 -110.75 -75.3 -109.0 -77.5 Q-69.65 -128.95 -50.1 -184.4 L-58.25 -184.4 Q-114.6 -99.15 -208.85 -22.95 L-150.4 -22.95 -150.4 -17.4 -237.3 -17.4 Q-307.05 37.9 -396.95 88.35 L-298.85 88.35 -298.85 93.95 -450.05 93.95 Q-492.7 117.35 -539.65 139.85" fill="#333333" fill-rule="evenodd" stroke="none"/>
    <path d="M-539.65 139.85 Q-492.7 117.35 -450.05 93.95 L-298.85 93.95 -298.85 88.35 -396.95 88.35 Q-307.05 37.9 -237.3 -17.4 L-150.4 -17.4 -150.4 -22.95 -208.85 -22.95 Q-114.6 -99.15 -58.25 -184.4 L-50.1 -184.4 Q-69.65 -128.95 -109.0 -77.5 L-110.75 -75.3 -106.3 -71.95 -104.65 -74.1 Q-64.0 -127.2 -44.2 -184.4 L-36.25 -184.4 Q-45.8 -108.75 -81.55 -37.0 L-82.7 -34.5 -77.8 -32.0 -76.55 -34.5 Q-40.2 -107.5 -30.7 -184.4 L-11.3 -184.4 Q3.55 -123.1 43.25 -74.1 L45.0 -71.9 49.4 -75.4 47.55 -77.6 Q9.1 -125.05 -5.6 -184.4 L3.0 -184.4 Q58.3 -97.75 129.35 -22.95 L66.65 -22.95 66.65 -17.4 156.2 -17.4 Q195.45 23.3 239.5 60.55 L168.6 60.55 168.6 66.1 267.65 66.1 Q314.2 104.9 365.95 139.85 L-539.65 139.85" fill="#000000" fill-rule="evenodd" stroke="none"/>
  </g>
  <defs>
    <linearGradient gradientTransform="matrix(0.0, 0.1417, -0.7812, 0.0, -0.05, 20.3)" gradientUnits="userSpaceOnUse" id="gradient0" spreadMethod="pad" x1="-819.2" x2="819.2">
      <stop offset="0.0" stop-color="#b07602" stop-opacity="0.0"/>
      <stop offset="1.0" stop-color="#c8ed12" stop-opacity="0.5803922"/>
    </linearGradient>
    <linearGradient gradientTransform="matrix(0.0, 0.0442, -0.0827, 0.0, -21.85, -151.0)" gradientUnits="userSpaceOnUse" id="gradient1" spreadMethod="pad" x1="-819.2" x2="819.2">
      <stop offset="0.0" stop-color="#ffcc00"/>
      <stop offset="1.0" stop-color="#ff0000"/>
    </linearGradient>
  </defs>
</svg>
