<?xml version="1.0" encoding="UTF-8" standalone="no"?>
<svg xmlns:ffdec="https://www.free-decompiler.com/flash" xmlns:xlink="http://www.w3.org/1999/xlink" ffdec:objectType="shape" height="1480.0px" width="1260.0px" xmlns="http://www.w3.org/2000/svg">
  <g transform="matrix(1.0, 0.0, 0.0, 1.0, 630.0, 1320.0)">
    <path d="M-630.0 32.0 L-630.0 20.0 -470.0 20.0 -470.0 10.0 90.0 10.0 90.0 20.0 290.0 20.0 290.0 0.0 310.0 0.0 310.0 -460.0 290.0 -460.0 290.0 -500.0 310.0 -500.0 310.0 -520.0 330.0 -520.0 330.0 -1020.0 310.0 -1020.0 310.0 -1060.0 330.0 -1060.0 330.0 -1080.0 370.0 -1080.0 370.0 -1245.25 Q365.6 -1247.85 361.7 -1251.75 350.0 -1263.45 350.0 -1280.0 L-130.0 -1280.0 -130.0 -1260.0 -170.0 -1260.0 -170.0 -1240.0 -210.0 -1240.0 -210.0 -1260.0 -250.0 -1260.0 -250.0 -1280.0 -290.0 -1280.0 -290.0 -1300.0 -250.0 -1300.0 -250.0 -1320.0 -130.0 -1320.0 -130.0 -1300.0 355.25 -1300.0 Q357.85 -1304.35 361.7 -1308.3 373.5 -1320.0 390.0 -1320.0 406.55 -1320.0 418.25 -1308.3 422.15 -1304.4 424.75 -1300.0 L510.0 -1300.0 510.0 -1320.0 610.0 -1320.0 610.0 -1300.0 630.0 -1300.0 630.0 -1280.0 610.0 -1280.0 610.0 -1260.0 510.0 -1260.0 510.0 -1280.0 430.0 -1280.0 Q430.0 -1263.4 418.25 -1251.75 414.5 -1247.9 410.0 -1245.25 L410.0 -1080.0 450.0 -1080.0 450.0 -1060.0 470.0 -1060.0 470.0 -1020.0 450.0 -1020.0 450.0 -520.0 470.0 -520.0 470.0 -500.0 490.0 -500.0 490.0 -460.0 470.0 -460.0 470.0 0.0 490.0 0.0 490.0 20.0 510.0 20.0 510.0 32.0 -630.0 32.0 M350.0 -1019.95 L430.0 -1019.95 350.0 -1020.0 350.0 -1019.95 M350.0 -1000.0 L350.0 -999.8 350.2 -1000.0 350.0 -1000.0 M352.1 -1000.0 L430.0 -922.05 430.0 -1000.0 352.1 -1000.0 M430.0 -900.0 L429.85 -900.0 430.0 -899.8 430.0 -900.0 M350.0 -920.0 L417.95 -920.0 350.0 -987.95 350.0 -920.0 M350.0 -800.0 L350.0 -799.8 350.2 -800.0 350.0 -800.0 M430.0 -887.95 L362.1 -820.0 430.0 -820.0 430.0 -887.95 M352.1 -800.0 L430.0 -722.05 430.0 -800.0 352.1 -800.0 M427.95 -900.0 L350.0 -900.0 350.0 -822.05 427.95 -900.0 M430.0 -700.0 L429.85 -700.0 430.0 -699.8 430.0 -700.0 M350.0 -720.0 L417.95 -720.0 350.0 -787.95 350.0 -720.0 M350.0 -600.0 L350.0 -599.8 350.2 -600.0 350.0 -600.0 M430.0 -687.95 L362.1 -620.0 430.0 -620.0 430.0 -687.95 M352.1 -600.0 L430.0 -522.05 430.0 -600.0 352.1 -600.0 M350.0 -622.05 L427.95 -700.0 350.0 -700.0 350.0 -622.05 M350.0 -520.0 L417.95 -520.0 350.0 -587.95 350.0 -520.0 M350.2 -400.0 L350.0 -400.0 350.0 -399.8 350.2 -400.0 M350.0 -422.05 L407.95 -480.0 350.0 -480.0 350.0 -422.05 M422.05 -480.0 L362.1 -420.0 430.0 -420.0 430.0 -480.0 422.05 -480.0 M352.1 -400.0 L430.0 -322.05 430.0 -400.0 352.1 -400.0 M430.0 -299.8 L430.0 -300.0 429.85 -300.0 430.0 -299.8 M350.0 -320.0 L417.95 -320.0 350.0 -387.95 350.0 -320.0 M350.2 -200.0 L350.0 -200.0 350.0 -199.8 350.2 -200.0 M430.0 -287.95 L362.1 -220.0 430.0 -220.0 430.0 -287.95 M352.1 -200.0 L430.0 -122.05 430.0 -200.0 352.1 -200.0 M350.0 -222.05 L427.95 -300.0 350.0 -300.0 350.0 -222.05 M430.0 -99.8 L430.0 -100.0 429.85 -100.0 430.0 -99.8 M350.0 -120.0 L417.95 -120.0 350.0 -187.95 350.0 -120.0 M430.0 -87.95 L362.1 -20.0 430.0 -20.0 430.0 -87.95 M350.0 -22.05 L427.95 -100.0 350.0 -100.0 350.0 -22.05" fill="#000000" fill-rule="evenodd" stroke="none"/>
    <path d="M510.0 32.0 L510.0 160.0 -630.0 160.0 -630.0 32.0 510.0 32.0" fill="url(#gradient0)" fill-rule="evenodd" stroke="none"/>
    <path d="M-492.7 -814.3 L-488.95 -821.4 -485.4 -819.55 Q-478.55 -815.95 -471.35 -812.95 L-470.05 -816.45 -462.55 -813.75 Q-454.2 -810.75 -445.3 -808.55 -428.5 -804.35 -410.0 -803.15 L-410.0 -820.0 -390.0 -820.0 -390.0 -840.0 -290.0 -840.0 -290.0 -860.0 -250.0 -860.0 -250.0 -880.0 -221.25 -880.0 Q-224.9 -888.4 -229.2 -896.15 L-229.25 -896.15 Q-233.65 -904.15 -238.7 -911.45 L-243.25 -918.0 -240.2 -920.15 Q-244.95 -926.35 -250.2 -932.05 L-252.9 -935.0 -247.05 -940.45 -244.3 -937.5 Q-238.65 -931.4 -233.6 -924.75 L-230.15 -927.15 -225.55 -920.55 Q-220.05 -912.6 -215.2 -903.9 L-215.25 -903.9 Q-208.95 -892.6 -203.9 -880.0 L-197.95 -880.0 Q-194.85 -896.65 -194.55 -912.6 L-194.6 -912.65 Q-194.4 -921.8 -195.15 -930.65 L-195.8 -938.6 -192.05 -938.9 Q-193.1 -946.65 -194.8 -954.25 L-195.65 -958.15 -187.85 -959.9 -186.95 -956.0 Q-185.1 -947.9 -184.05 -939.6 L-179.85 -939.95 -179.2 -931.95 Q-178.4 -922.3 -178.55 -912.35 L-178.6 -912.4 Q-178.85 -896.55 -181.65 -880.0 L-170.7 -880.0 -166.3 -888.4 Q-161.5 -897.1 -155.95 -905.05 L-151.4 -911.65 -147.95 -909.25 Q-142.9 -915.9 -137.2 -922.0 L-134.5 -924.95 -128.6 -919.5 -131.3 -916.55 Q-136.6 -910.85 -141.35 -904.65 L-138.25 -902.5 -142.8 -895.95 Q-147.9 -888.65 -152.3 -880.65 L-152.35 -880.65 -152.7 -880.0 -130.0 -880.0 -130.0 -860.0 -90.0 -860.0 -90.0 -840.0 10.0 -840.0 10.0 -821.4 30.0 -821.4 30.0 -803.2 Q47.75 -804.5 64.0 -808.55 L64.05 -808.55 Q72.9 -810.75 81.25 -813.75 L88.8 -816.45 90.05 -812.95 Q97.25 -815.95 104.15 -819.55 L107.7 -821.4 111.4 -814.3 107.9 -812.45 Q100.5 -808.55 92.8 -805.35 L94.2 -801.4 86.65 -798.7 Q77.5 -795.45 67.9 -793.0 L67.9 -793.05 Q49.85 -788.5 30.0 -787.15 L30.0 -778.55 Q39.15 -777.15 47.9 -774.95 57.5 -772.55 66.65 -769.25 L74.2 -766.55 72.8 -762.6 Q80.5 -759.45 87.9 -755.55 L91.4 -753.65 87.7 -746.6 84.15 -748.45 Q77.25 -752.05 70.05 -755.05 L68.8 -751.5 61.25 -754.2 Q52.9 -757.25 44.05 -759.4 L44.0 -759.45 Q37.15 -761.15 30.0 -762.35 L30.0 -740.0 10.0 -740.0 10.0 -620.0 -390.0 -620.0 -390.0 -740.0 -410.0 -740.0 -410.0 -762.55 Q-417.8 -761.3 -425.3 -759.45 L-425.3 -759.4 Q-434.2 -757.25 -442.55 -754.2 L-450.05 -751.5 -451.35 -755.05 Q-458.55 -752.05 -465.4 -748.45 L-468.95 -746.6 -472.7 -753.65 -469.15 -755.55 Q-461.8 -759.45 -454.05 -762.6 L-455.45 -766.55 -447.95 -769.25 Q-438.8 -772.55 -429.15 -774.95 L-429.2 -774.95 Q-419.85 -777.3 -410.0 -778.8 L-410.0 -787.1 Q-430.55 -788.35 -449.2 -793.05 L-449.15 -793.0 Q-458.8 -795.45 -467.95 -798.7 L-475.45 -801.4 -474.05 -805.35 Q-481.8 -808.55 -489.15 -812.45 L-492.7 -814.3" fill="#000000" fill-rule="evenodd" stroke="none"/>
    <path d="M-213.45 -403.45 Q-221.2 -395.7 -230.0 -390.5 L-230.0 -340.0 -250.0 -320.0 -250.0 -300.0 -260.0 -290.0 -250.0 -280.0 -250.0 -260.0 -230.0 -240.0 -230.0 -120.0 -250.0 -120.0 -261.7 -108.25 Q-253.7 -100.25 -251.15 -90.0 L-240.0 -90.0 -230.0 -80.0 -210.0 -80.0 -190.0 -40.0 -190.0 0.0 -200.0 10.0 -210.0 0.0 -220.0 10.0 -230.0 0.0 -240.0 10.0 -250.0 0.0 -260.0 10.0 -280.0 -10.0 -300.0 10.0 -310.0 0.0 -320.0 10.0 -330.0 0.0 -340.0 10.0 -350.0 0.0 -360.0 10.0 -370.0 0.0 -380.0 10.0 -390.0 0.0 -400.0 10.0 -410.0 0.0 -420.0 10.0 -430.0 0.0 -440.0 10.0 -450.0 0.0 -450.0 -40.0 -410.0 -80.0 -390.0 -80.0 -380.0 -90.0 -328.8 -90.0 Q-326.3 -100.25 -318.3 -108.3 L-330.0 -120.0 -350.0 -120.0 -350.0 -241.0 Q-370.0 -261.3 -370.0 -290.0 -370.0 -318.7 -350.0 -339.0 L-350.0 -460.0 Q-350.0 -493.15 -326.6 -516.6 -303.15 -540.0 -270.0 -540.0 -236.85 -540.0 -213.45 -516.6 -190.0 -493.15 -190.0 -460.0 -190.0 -426.85 -213.45 -403.45" fill="#000000" fill-rule="evenodd" stroke="none"/>
    <path d="M0.0 -90.0 L10.0 -80.0 30.0 -80.0 70.0 -40.0 70.0 0.0 60.0 10.0 50.0 0.0 40.0 10.0 30.0 0.0 20.0 10.0 10.0 0.0 0.0 10.0 -10.0 0.0 -20.0 10.0 -30.0 0.0 -40.0 10.0 -50.0 0.0 -60.0 10.0 -70.0 0.0 -80.0 10.0 -100.0 -10.0 -120.0 10.0 -130.0 0.0 -140.0 10.0 -150.0 0.0 -160.0 10.0 -170.0 0.0 -180.0 10.0 -190.0 0.0 -190.0 -40.0 -170.0 -80.0 -150.0 -80.0 -140.0 -90.0 -128.85 -90.0 Q-126.3 -100.25 -118.3 -108.25 L-130.0 -120.0 -150.0 -120.0 -150.0 -240.0 -130.0 -260.0 -130.0 -280.0 -120.0 -290.0 -130.0 -300.0 -130.0 -320.0 -150.0 -340.0 -150.0 -390.5 Q-158.8 -395.7 -166.55 -403.45 -190.0 -426.85 -190.0 -460.0 -190.0 -493.15 -166.55 -516.6 -143.15 -540.0 -110.0 -540.0 -76.85 -540.0 -53.4 -516.6 -30.0 -493.15 -30.0 -460.0 L-30.0 -339.0 Q-10.0 -318.7 -10.0 -290.0 -10.0 -261.3 -30.0 -241.0 L-30.0 -120.0 -50.0 -120.0 -61.7 -108.3 Q-53.7 -100.25 -51.2 -90.0 L0.0 -90.0" fill="#000000" fill-rule="evenodd" stroke="none"/>
    <path d="M-30.0 -520.0 L-110.0 -440.0 -270.0 -440.0 -350.0 -520.0 -350.0 -540.0 -370.0 -560.0 -370.0 -620.0 -10.0 -620.0 -10.0 -560.0 -30.0 -540.0 -30.0 -520.0" fill="#000000" fill-rule="evenodd" stroke="none"/>
    <path d="M-398.4 -422.6 L-360.35 -305.5 -443.55 -245.05 -458.0 -245.05 -458.0 -294.0 -420.0 -332.0 -440.0 -352.0 -480.0 -352.0 -500.0 -332.0 -462.0 -294.0 -462.0 -245.05 -476.35 -245.05 -559.6 -305.5 -521.55 -422.6 -398.4 -422.6" fill="#000000" fill-rule="evenodd" stroke="none"/>
    <path d="M-486.6 -856.6 Q-463.15 -880.0 -430.0 -880.0 -396.85 -880.0 -373.45 -856.6 -350.0 -833.15 -350.0 -800.0 -350.0 -766.85 -373.45 -743.45 -389.45 -727.4 -410.0 -722.35 L-410.0 -660.0 -430.0 -660.0 -430.0 -640.0 -410.0 -640.0 -410.0 -520.0 -390.0 -520.0 -390.0 -460.0 -410.9 -460.0 Q-410.0 -455.2 -410.0 -450.0 -410.0 -429.3 -424.65 -414.65 -439.3 -400.0 -460.0 -400.0 -480.7 -400.0 -495.35 -414.65 -510.0 -429.3 -510.0 -450.0 -510.0 -455.3 -509.05 -460.0 L-530.0 -460.0 -530.0 -520.0 -510.0 -520.0 -510.0 -640.0 -490.0 -640.0 -490.0 -660.0 -510.0 -660.0 -510.0 -800.0 Q-510.0 -833.15 -486.6 -856.6" fill="#000000" fill-rule="evenodd" stroke="none"/>
    <path d="M18.8 -422.6 L141.95 -422.6 180.0 -305.5 96.75 -245.05 82.4 -245.05 82.4 -294.0 120.4 -332.0 100.4 -352.0 60.4 -352.0 40.4 -332.0 78.4 -294.0 78.4 -245.05 63.95 -245.05 -19.25 -305.5 18.8 -422.6" fill="#000000" fill-rule="evenodd" stroke="none"/>
    <path d="M107.0 -856.6 Q130.4 -833.15 130.4 -800.0 L130.4 -660.0 110.4 -660.0 110.4 -640.0 130.4 -640.0 130.4 -520.0 150.4 -520.0 150.4 -460.0 129.45 -460.0 Q130.4 -455.3 130.4 -450.0 130.4 -429.3 115.75 -414.65 101.1 -400.0 80.4 -400.0 59.7 -400.0 45.05 -414.65 30.4 -429.3 30.4 -450.0 30.4 -455.2 31.3 -460.0 L10.4 -460.0 10.4 -520.0 30.4 -520.0 30.4 -640.0 50.4 -640.0 50.4 -660.0 30.4 -660.0 30.4 -722.35 Q9.85 -727.4 -6.15 -743.45 -29.6 -766.85 -29.6 -800.0 -29.6 -833.15 -6.15 -856.6 17.25 -880.0 50.4 -880.0 83.55 -880.0 107.0 -856.6" fill="#000000" fill-rule="evenodd" stroke="none"/>
    <path d="M-290.0 -1190.0 L-270.0 -1230.0 -230.0 -1230.0 -230.0 -1250.0 -150.0 -1250.0 -150.0 -1230.0 -110.0 -1230.0 -90.0 -1190.0 -50.0 -1190.0 -50.0 -1270.0 -30.0 -1270.0 -30.0 -1130.0 -60.0 -1130.0 -10.0 -1030.0 -50.0 -990.0 -130.0 -990.0 -130.0 -970.0 -250.0 -970.0 -250.0 -990.0 -330.0 -990.0 -370.0 -1030.0 -320.0 -1130.0 -350.0 -1130.0 -350.0 -1270.0 -330.0 -1270.0 -330.0 -1190.0 -290.0 -1190.0" fill="#000000" fill-rule="evenodd" stroke="none"/>
    <path d="M-210.0 -1070.0 L-270.0 -1070.0 -270.0 -1130.0 -210.0 -1100.0 -210.0 -1070.0" fill="#0000ff" fill-rule="evenodd" stroke="none"/>
    <path d="M-110.0 -1130.0 L-110.0 -1070.0 -170.0 -1070.0 -170.0 -1100.0 -110.0 -1130.0" fill="#0000ff" fill-rule="evenodd" stroke="none"/>
    <path d="M-541.5 -595.0 Q-543.25 -597.25 -543.75 -600.0 L-544.0 -600.0 -544.0 -620.0 -514.0 -620.0 -514.0 -600.0 -519.2 -600.0 Q-519.9 -596.4 -522.65 -593.65 L-524.0 -592.45 -524.0 -585.0 -519.0 -585.0 -519.0 -590.0 -499.0 -590.0 -499.0 -585.0 -504.0 -585.0 -504.0 -580.0 -514.0 -580.0 -514.0 -575.0 -494.0 -575.0 -494.0 -570.0 -514.0 -570.0 -514.0 -545.0 -509.0 -545.0 -509.0 -535.0 -524.0 -535.0 -524.0 -540.0 -529.0 -540.0 -529.0 -555.0 -544.0 -555.0 -544.0 -565.0 -549.0 -565.0 -549.0 -595.0 -541.5 -595.0" fill="#000000" fill-rule="evenodd" stroke="none"/>
    <path d="M162.5 -755.0 L170.0 -755.0 170.0 -725.0 165.0 -725.0 165.0 -715.0 150.0 -715.0 150.0 -700.0 145.0 -700.0 145.0 -695.0 130.0 -695.0 130.0 -705.0 135.0 -705.0 135.0 -730.0 115.0 -730.0 115.0 -735.0 135.0 -735.0 135.0 -740.0 125.0 -740.0 125.0 -745.0 120.0 -745.0 120.0 -750.0 140.0 -750.0 140.0 -745.0 145.0 -745.0 145.0 -752.45 143.65 -753.65 Q140.9 -756.4 140.2 -760.0 L135.0 -760.0 135.0 -780.0 165.0 -780.0 165.0 -760.0 164.75 -760.0 Q164.25 -757.25 162.5 -755.0" fill="#000000" fill-rule="evenodd" stroke="none"/>
  </g>
  <defs>
    <linearGradient gradientTransform="matrix(0.0, -0.072, 0.6958, 0.0, -60.0, 99.0)" gradientUnits="userSpaceOnUse" id="gradient0" spreadMethod="pad" x1="-819.2" x2="819.2">
      <stop offset="0.0" stop-color="#7b7b7b"/>
      <stop offset="1.0" stop-color="#000000"/>
    </linearGradient>
  </defs>
</svg>
