<?xml version="1.0" encoding="UTF-8" standalone="no"?>
<svg xmlns:ffdec="https://www.free-decompiler.com/flash" xmlns:xlink="http://www.w3.org/1999/xlink" ffdec:objectType="shape" height="532.5px" width="960.0px" xmlns="http://www.w3.org/2000/svg">
  <g transform="matrix(1.0, 0.0, 0.0, 1.0, 480.0, 216.25)">
    <path d="M-480.0 -186.2 L-480.0 -196.25 -445.0 -196.25 -406.8 -186.65 -375.4 -169.2 -360.0 -161.25 -335.0 -176.2 -308.65 -202.55 -243.75 -216.25 -220.0 -216.25 -170.0 -206.25 -155.0 -191.2 -120.0 -196.25 -90.0 -196.25 -55.0 -181.2 -50.0 -176.2 -5.0 -196.25 35.0 -196.25 73.2 -186.65 104.6 -169.2 120.0 -161.25 145.0 -176.2 171.35 -202.55 236.25 -216.25 260.0 -216.25 310.0 -206.25 325.0 -191.2 360.0 -196.25 390.0 -196.25 425.0 -181.2 430.0 -176.2 475.0 -196.25 480.0 -196.25 480.0 -185.95 474.55 -186.1 431.15 -169.7 411.3 -149.85 396.05 -109.8 391.55 -78.15 406.8 -86.65 445.0 -96.25 480.0 -96.25 480.0 -86.2 440.0 -86.2 406.65 -74.05 370.25 -51.25 370.4 -50.65 384.75 -36.85 411.5 5.25 409.75 8.55 445.0 18.8 480.0 38.8 480.0 48.8 450.0 28.8 415.0 18.8 368.5 26.95 341.7 33.4 364.85 39.55 410.25 54.35 480.0 94.6 480.0 105.15 457.6 89.3 406.85 61.6 324.75 38.9 315.6 41.95 260.95 66.2 240.2 78.95 233.95 88.9 285.0 128.75 279.05 128.2 256.2 111.55 226.45 93.95 169.4 75.7 169.1 75.7 167.1 75.25 134.35 71.8 130.05 72.2 116.95 72.3 60.2 81.1 32.55 95.45 32.55 95.75 -3.8 144.05 -7.25 143.4 19.95 96.2 25.3 91.8 48.25 76.55 42.95 70.2 24.2 58.95 0.0 48.0 0.0 48.8 -30.0 28.8 -65.0 18.8 -111.5 26.95 -138.25 33.4 -115.15 39.55 -69.75 54.35 3.0 100.6 -3.0 101.15 -22.4 89.3 -73.15 61.6 -155.25 38.9 -164.4 41.95 -219.05 66.2 -239.8 78.95 -246.05 88.9 -195.0 128.75 -196.95 131.2 -223.8 111.55 -253.55 93.95 -310.6 75.7 -310.9 75.7 -312.9 75.25 -345.65 71.8 -349.95 72.2 -363.05 72.3 -419.8 81.1 -447.45 95.45 -447.45 95.75 -461.2 113.85 -468.3 138.75 -472.35 133.75 -473.4 127.7 -466.4 106.7 -460.05 96.2 -454.7 91.8 -431.75 76.55 -437.05 70.2 -455.8 58.95 -480.0 48.0 -480.0 37.65 -454.3 50.95 -422.4 73.55 -388.6 66.25 -390.3 30.35 -396.05 -9.8 -411.3 -49.85 -431.15 -69.7 -474.55 -86.1 -480.0 -85.95 -480.0 -96.25 -475.0 -96.25 -430.0 -76.2 -425.0 -81.2 -418.75 -83.85 -384.75 -136.85 -370.4 -150.65 -370.25 -151.25 -406.65 -174.05 -440.0 -186.2 -480.0 -186.2 M243.8 -207.6 L175.25 -192.3 148.8 -167.85 210.05 -146.6 213.95 -144.6 240.4 -165.45 281.4 -180.6 312.8 -187.3 301.8 -198.2 261.2 -207.6 243.8 -207.6 M109.75 -151.25 L73.35 -174.05 40.0 -186.2 0.0 -186.2 0.0 -185.95 -5.45 -186.1 -48.85 -169.7 -68.7 -149.85 -83.95 -109.8 -88.45 -78.15 -73.2 -86.65 -35.0 -96.25 5.0 -96.25 37.3 -81.85 53.75 -86.65 95.25 -136.85 109.6 -150.65 109.75 -151.25 M204.1 -113.05 L220.0 -116.25 229.5 -116.25 207.3 -139.1 139.15 -162.75 118.25 -146.7 99.0 -128.9 73.2 -91.05 76.4 -90.4 90.0 -96.25 120.0 -96.25 155.0 -91.2 170.0 -106.25 197.85 -111.8 204.1 -113.05 M62.0 -69.7 L67.45 -64.45 79.75 -47.35 120.05 -43.35 169.2 -20.65 213.8 21.2 232.6 -9.95 260.0 -41.05 233.95 -59.5 195.45 -73.2 113.45 -87.1 96.2 -87.1 68.95 -79.55 62.0 -69.7 M50.0 -76.2 L51.0 -77.2 49.05 -76.6 50.0 -76.2 M68.7 -49.85 L48.85 -69.7 5.45 -86.1 0.0 -85.95 0.0 -86.2 -40.0 -86.2 -73.35 -74.05 -109.75 -51.25 -109.6 -50.65 -95.25 -36.85 -68.5 5.25 -70.25 8.55 -35.0 18.8 0.0 38.8 0.0 37.65 25.7 50.95 57.6 73.55 91.4 66.25 89.7 30.35 83.95 -9.8 68.7 -49.85 M83.5 -39.8 L88.95 -24.05 98.6 56.8 98.25 65.3 117.05 64.2 129.8 64.1 170.35 66.9 181.0 59.95 209.15 28.85 209.1 28.75 195.45 11.05 171.45 -9.55 89.7 -40.6 83.5 -39.8 M313.95 -97.25 L335.0 -76.2 360.0 -61.25 385.15 -74.6 391.05 -124.05 396.5 -139.8 390.3 -140.6 308.55 -109.55 302.05 -103.95 308.65 -102.55 311.1 -100.1 313.95 -97.25 M310.8 -120.65 L359.95 -143.35 400.25 -147.35 412.55 -164.45 418.0 -169.7 411.05 -179.55 383.8 -187.1 366.55 -187.1 284.55 -173.2 246.05 -159.5 220.0 -141.05 241.85 -116.25 243.75 -116.25 294.7 -105.5 310.8 -120.65 M236.2 -107.6 L218.8 -107.6 178.2 -98.2 167.2 -87.3 198.6 -80.6 239.6 -65.45 266.05 -44.6 266.3 -44.7 269.95 -46.6 331.2 -67.85 304.75 -92.3 236.2 -107.6 M272.7 -39.1 L272.5 -38.85 238.2 -3.55 216.7 32.1 182.8 67.65 180.75 69.25 225.5 84.95 Q227.65 78.4 240.0 69.6 253.05 60.2 275.5 49.7 295.85 40.15 317.7 32.4 L328.5 28.75 Q342.8 24.1 352.9 22.2 L387.6 12.8 406.8 8.95 381.0 -28.9 365.35 -43.7 340.85 -62.75 272.7 -39.1 M-275.9 -113.05 L-260.0 -116.25 -250.5 -116.25 -272.7 -139.1 -340.85 -162.75 -361.75 -146.7 -381.0 -128.9 -406.8 -91.05 -403.55 -90.4 -390.0 -96.25 -360.0 -96.25 -325.0 -91.2 -310.0 -106.25 -282.15 -111.8 -275.9 -113.05 M-418.0 -69.7 L-412.55 -64.45 -400.25 -47.35 -359.95 -43.35 -310.8 -20.65 -266.2 21.2 -247.4 -9.95 -220.0 -41.05 -246.05 -59.5 -284.55 -73.2 -366.55 -87.1 -383.8 -87.1 -411.05 -79.55 -418.0 -69.7 M-396.5 -39.8 L-391.05 -24.05 -381.4 56.8 -381.75 65.3 -362.95 64.2 -350.2 64.1 -309.65 66.9 -299.0 59.95 -270.85 28.85 -270.9 28.75 -284.55 11.05 -308.55 -9.55 -390.3 -40.6 -396.5 -39.8 M-236.2 -207.6 L-304.75 -192.3 -331.2 -167.85 -269.95 -146.6 -266.05 -144.6 -239.6 -165.45 -198.6 -180.6 -167.2 -187.3 -178.2 -198.2 -218.8 -207.6 -236.2 -207.6 M-236.25 -116.25 L-185.3 -105.5 -169.2 -120.65 -120.05 -143.35 -79.75 -147.35 -67.45 -164.45 -62.0 -169.7 -68.95 -179.55 -96.2 -187.1 -113.45 -187.1 -195.45 -173.2 -233.95 -159.5 -260.0 -141.05 -238.15 -116.25 -236.25 -116.25 M-166.05 -97.25 L-145.0 -76.2 -120.0 -61.25 -94.85 -74.6 -88.95 -124.05 -83.5 -139.8 -89.7 -140.6 -171.45 -109.55 -177.95 -103.95 -171.35 -102.55 -168.9 -100.1 -166.05 -97.25 M-243.8 -107.6 L-261.2 -107.6 -301.8 -98.2 -312.8 -87.3 -281.4 -80.6 -240.4 -65.45 -213.95 -44.6 -213.7 -44.7 -210.05 -46.6 -148.8 -67.85 -175.25 -92.3 -243.8 -107.6 M-207.5 -38.85 L-241.8 -3.55 -263.3 32.1 -297.2 67.65 -299.25 69.25 -254.5 84.95 Q-252.35 78.4 -240.0 69.6 -226.95 60.2 -204.5 49.7 -184.15 40.15 -162.25 32.4 L-151.5 28.75 Q-137.2 24.1 -127.1 22.2 L-92.4 12.8 -73.2 8.95 -99.0 -28.9 -114.65 -43.7 -139.15 -62.75 -207.3 -39.1 -207.5 -38.85" fill="#666666" fill-rule="evenodd" stroke="none"/>
    <path d="M480.0 -185.95 L480.0 -174.45 476.75 -174.05 471.3 -172.5 Q466.25 -171.0 457.7 -166.25 453.55 -164.85 449.95 -162.8 444.8 -159.85 440.25 -155.4 437.5 -152.75 433.3 -147.7 431.45 -145.45 426.05 -131.95 420.8 -118.7 420.8 -116.7 L420.9 -115.35 Q421.35 -114.2 422.9 -114.2 425.75 -114.2 427.55 -120.2 L429.55 -129.05 Q430.4 -131.65 433.05 -136.85 L436.55 -144.3 Q439.05 -151.6 453.15 -158.45 463.95 -163.75 480.0 -169.35 L480.0 -96.25 445.0 -96.25 406.8 -86.65 391.55 -78.15 396.05 -109.8 411.3 -149.85 431.15 -169.7 474.55 -186.1 480.0 -185.95 M480.0 -86.2 L480.0 -74.45 Q479.55 -74.4 478.05 -75.1 L462.3 -74.65 Q448.0 -73.45 442.65 -71.05 437.4 -68.6 427.5 -64.7 L417.35 -61.5 406.1 -58.3 Q392.55 -54.35 389.7 -51.35 390.05 -50.35 391.5 -50.35 392.75 -50.35 408.3 -54.45 L426.8 -59.65 434.35 -62.2 445.25 -66.2 Q451.35 -68.7 460.5 -69.15 L475.05 -70.5 480.0 -70.5 480.0 38.8 445.0 18.8 409.75 8.55 411.5 5.25 384.75 -36.85 370.4 -50.65 370.25 -51.25 406.65 -74.05 440.0 -86.2 480.0 -86.2 M480.0 48.8 L480.0 94.6 410.25 54.35 364.85 39.55 341.7 33.4 368.5 26.95 415.0 18.8 450.0 28.8 480.0 48.8 M480.0 105.15 L480.0 128.75 480.0 316.25 -480.0 316.25 -480.0 48.0 -455.8 58.95 -437.05 70.2 -431.75 76.55 -454.7 91.8 -460.05 96.2 -466.4 106.7 -473.4 127.7 -472.35 133.75 -468.3 138.75 -461.2 113.85 -447.45 95.75 -447.45 95.45 -419.8 81.1 -363.05 72.3 -349.95 72.2 -345.65 71.8 -312.9 75.25 -310.9 75.7 -310.6 75.7 -253.55 93.95 -223.8 111.55 -196.95 131.2 -195.0 128.75 -246.05 88.9 -239.8 78.95 -219.05 66.2 -164.4 41.95 -155.25 38.9 -73.15 61.6 -22.4 89.3 -3.0 101.15 3.0 100.6 -69.75 54.35 -115.15 39.55 -138.25 33.4 -111.5 26.95 -65.0 18.8 -30.0 28.8 0.0 48.8 0.0 48.0 24.2 58.95 42.95 70.2 48.25 76.55 25.3 91.8 19.95 96.2 -7.25 143.4 -3.8 144.05 32.55 95.75 32.55 95.45 60.2 81.1 116.95 72.3 130.05 72.2 134.35 71.8 167.1 75.25 169.1 75.7 169.4 75.7 226.45 93.95 256.2 111.55 279.05 128.2 285.0 128.75 233.95 88.9 240.2 78.95 260.95 66.2 315.6 41.95 324.75 38.9 406.85 61.6 457.6 89.3 480.0 105.15 M-480.0 37.65 L-480.0 -69.35 Q-469.4 -65.65 -461.1 -62.05 -456.8 -60.25 -453.15 -58.45 L-448.3 -55.9 -444.2 -53.25 Q-438.1 -48.85 -436.55 -44.3 -435.85 -42.3 -433.05 -36.85 L-429.55 -29.05 -427.55 -20.2 Q-426.25 -15.8 -424.35 -14.65 -423.7 -14.2 -422.9 -14.2 -421.35 -14.2 -420.9 -15.35 L-420.8 -16.55 -420.8 -16.7 Q-420.8 -18.45 -424.75 -28.6 L-427.55 -35.65 Q-431.7 -45.8 -433.3 -47.7 -437.5 -52.75 -440.25 -55.4 L-440.4 -55.55 -444.7 -59.3 Q-447.1 -61.15 -449.6 -62.6 L-449.95 -62.8 Q-453.6 -64.85 -457.7 -66.25 -466.3 -71.0 -471.3 -72.5 L-476.75 -74.05 -480.0 -74.45 -480.0 -85.95 -474.55 -86.1 -431.15 -69.7 -411.3 -49.85 -396.05 -9.8 -390.3 30.35 -388.6 66.25 -422.4 73.55 -454.3 50.95 -480.0 37.65 M-480.0 -96.25 L-480.0 -170.5 -475.05 -170.5 -460.5 -169.15 Q-451.4 -168.7 -445.25 -166.2 L-426.8 -159.65 -408.3 -154.45 Q-392.75 -150.35 -391.5 -150.35 -390.05 -150.35 -389.7 -151.35 -392.55 -154.35 -406.1 -158.3 L-427.5 -164.7 Q-437.4 -168.6 -442.65 -171.05 -448.0 -173.45 -462.3 -174.65 L-478.05 -175.1 -480.0 -174.45 -480.0 -186.2 -440.0 -186.2 -406.65 -174.05 -370.25 -151.25 -370.4 -150.65 -384.75 -136.85 -418.75 -83.85 -425.0 -81.2 -430.0 -76.2 -475.0 -96.25 -480.0 -96.25 M243.8 -207.6 L261.2 -207.6 301.8 -198.2 312.8 -187.3 281.4 -180.6 240.4 -165.45 213.95 -144.6 210.05 -146.6 148.8 -167.85 175.25 -192.3 243.8 -207.6 M88.5 -150.35 Q89.95 -150.35 90.25 -151.35 87.45 -154.35 73.9 -158.3 L62.65 -161.5 Q56.0 -163.4 52.5 -164.7 42.6 -168.6 37.35 -171.05 32.0 -173.45 17.7 -174.65 L1.95 -175.1 0.0 -174.45 -3.25 -174.05 -8.7 -172.5 Q-13.7 -171.0 -22.3 -166.25 -26.4 -164.85 -30.05 -162.8 -35.2 -159.85 -39.75 -155.4 L-46.7 -147.7 Q-48.55 -145.45 -53.95 -131.95 -59.2 -118.7 -59.2 -116.7 L-59.1 -115.35 Q-58.65 -114.2 -57.05 -114.2 -54.2 -114.2 -52.45 -120.2 L-50.45 -129.05 Q-49.6 -131.65 -46.95 -136.85 -44.15 -142.3 -43.45 -144.3 -40.95 -151.6 -26.85 -158.45 -16.05 -163.75 0.0 -169.35 L0.0 -170.5 4.95 -170.5 19.5 -169.15 Q28.6 -168.7 34.75 -166.2 L53.2 -159.65 Q56.2 -158.6 71.7 -154.45 87.25 -150.35 88.5 -150.35 M109.75 -151.25 L109.6 -150.65 95.25 -136.85 53.75 -86.65 37.3 -81.85 5.0 -96.25 -35.0 -96.25 -73.2 -86.65 -88.45 -78.15 -83.95 -109.8 -68.7 -149.85 -48.85 -169.7 -5.45 -186.1 0.0 -185.95 0.0 -186.2 40.0 -186.2 73.35 -174.05 109.75 -151.25 M204.1 -113.05 L200.8 -114.9 Q196.85 -117.05 191.35 -121.2 L182.25 -128.05 Q171.0 -135.9 160.0 -136.05 131.5 -132.4 115.05 -119.4 110.05 -115.5 103.5 -108.4 96.6 -100.9 93.5 -98.3 96.95 -99.2 104.55 -105.75 113.2 -113.15 116.9 -115.05 L122.05 -118.85 Q126.4 -122.25 130.1 -124.35 142.75 -131.55 160.0 -131.55 170.45 -131.55 183.05 -122.9 L197.85 -111.8 170.0 -106.25 155.0 -91.2 120.0 -96.25 90.0 -96.25 76.4 -90.4 73.2 -91.05 99.0 -128.9 118.25 -146.7 139.15 -162.75 207.3 -139.1 229.5 -116.25 220.0 -116.25 204.1 -113.05 M50.0 -76.2 L49.05 -76.6 51.0 -77.2 50.0 -76.2 M62.0 -69.7 L68.95 -79.55 96.2 -87.1 113.45 -87.1 195.45 -73.2 233.95 -59.5 260.0 -41.05 232.6 -9.95 213.8 21.2 169.2 -20.65 120.05 -43.35 79.75 -47.35 67.45 -64.45 62.0 -69.7 M77.2 -70.8 Q77.5 -70.45 78.35 -70.45 78.95 -70.45 80.75 -71.15 L85.05 -72.65 Q92.25 -74.85 101.25 -74.85 126.0 -74.85 141.7 -72.0 150.6 -70.4 169.55 -64.95 L179.3 -62.1 Q188.0 -59.5 212.7 -49.6 216.0 -48.25 225.4 -42.95 233.8 -38.25 234.55 -38.25 236.0 -38.25 236.4 -39.2 L236.6 -40.35 Q236.6 -45.55 203.9 -57.85 187.5 -64.05 170.1 -69.5 161.55 -71.9 149.55 -73.95 L134.8 -76.1 123.1 -77.2 Q104.1 -78.55 91.65 -76.5 82.4 -75.05 76.8 -71.7 L77.2 -70.8 M68.7 -49.85 L83.95 -9.8 89.7 30.35 91.4 66.25 57.6 73.55 25.7 50.95 0.0 37.65 0.0 38.8 -35.0 18.8 -70.25 8.55 -68.5 5.25 -95.25 -36.85 -109.6 -50.65 -109.75 -51.25 -73.35 -74.05 -40.0 -86.2 0.0 -86.2 0.0 -85.95 5.45 -86.1 48.85 -69.7 68.7 -49.85 M8.7 -72.5 L3.25 -74.05 0.0 -74.45 Q-0.45 -74.4 -1.95 -75.1 L-17.7 -74.65 Q-32.0 -73.45 -37.35 -71.05 -42.6 -68.6 -52.5 -64.7 L-73.9 -58.3 Q-87.45 -54.35 -90.25 -51.35 -89.95 -50.35 -88.5 -50.35 L-71.7 -54.45 -53.2 -59.65 -34.75 -66.2 Q-28.6 -68.7 -19.5 -69.15 L-4.95 -70.5 0.0 -70.5 0.0 -69.35 17.35 -62.75 31.7 -55.9 35.8 -53.25 Q41.9 -48.85 43.45 -44.3 44.15 -42.3 46.95 -36.85 L50.45 -29.05 52.45 -20.2 Q53.75 -15.8 55.6 -14.6 56.3 -14.2 57.05 -14.2 58.65 -14.2 59.1 -15.35 L59.2 -16.55 59.2 -16.7 Q59.2 -18.45 55.25 -28.6 L52.45 -35.65 Q48.3 -45.8 46.7 -47.7 L39.75 -55.4 36.1 -58.65 30.05 -62.8 Q26.5 -64.8 22.5 -66.15 L15.25 -69.9 Q11.45 -71.7 8.7 -72.5 M83.5 -39.8 L89.7 -40.6 171.45 -9.55 195.45 11.05 209.1 28.75 209.15 28.85 181.0 59.95 170.35 66.9 129.8 64.1 117.05 64.2 98.25 65.3 98.6 56.8 88.95 -24.05 83.5 -39.8 M94.95 -23.95 Q98.2 -21.85 105.65 -19.65 L121.3 -15.4 Q144.7 -9.15 157.6 -2.15 164.25 1.45 170.7 5.75 177.25 10.1 181.7 13.95 182.35 14.55 183.7 17.2 L186.25 22.3 Q189.25 27.55 192.6 28.75 L194.6 29.1 195.85 28.75 195.9 28.7 196.3 28.1 196.4 27.65 196.45 26.95 Q196.45 26.0 193.4 22.8 190.05 19.25 189.55 18.3 188.6 16.15 187.15 14.15 185.25 11.5 183.45 10.05 L171.25 1.4 Q164.25 -3.15 157.7 -6.15 L140.85 -12.35 Q125.6 -17.7 122.45 -18.45 115.4 -20.1 106.5 -23.15 99.9 -25.05 94.95 -23.95 M245.45 -138.25 Q246.2 -138.25 254.6 -142.95 264.0 -148.25 267.3 -149.6 292.0 -159.5 300.7 -162.1 327.25 -170.0 338.3 -172.0 354.0 -174.85 378.75 -174.85 387.7 -174.85 394.95 -172.65 L401.65 -170.45 Q402.5 -170.45 402.8 -170.8 L403.15 -171.7 Q389.95 -179.55 356.9 -177.2 344.0 -176.3 330.45 -173.95 318.4 -171.9 309.9 -169.5 292.5 -164.05 276.1 -157.85 243.4 -145.55 243.4 -140.35 L243.6 -139.2 Q244.0 -138.25 245.45 -138.25 M291.05 -192.1 L291.3 -193.2 291.05 -194.35 285.0 -195.2 Q280.75 -195.85 274.4 -195.3 L231.9 -195.2 Q228.0 -194.85 218.2 -192.6 207.7 -190.15 197.6 -187.15 170.65 -179.1 170.65 -174.2 170.65 -173.65 171.0 -173.1 171.6 -172.1 173.0 -172.1 L184.8 -177.6 Q197.15 -183.3 199.75 -184.2 208.55 -187.3 215.0 -188.65 L231.45 -191.05 269.9 -191.35 291.05 -192.1 M311.1 -100.1 L308.65 -102.55 302.05 -103.95 308.55 -109.55 390.3 -140.6 396.5 -139.8 391.05 -124.05 385.15 -74.6 360.0 -61.25 335.0 -76.2 313.95 -97.25 Q318.15 -99.85 322.4 -102.15 335.3 -109.15 358.7 -115.4 L374.3 -119.65 Q381.8 -121.85 385.05 -123.95 380.05 -125.05 373.5 -123.15 364.55 -120.1 357.55 -118.45 354.35 -117.7 339.15 -112.35 324.85 -107.25 322.3 -106.15 316.85 -103.65 311.1 -100.1 M310.8 -120.65 L294.7 -105.5 243.75 -116.25 241.85 -116.25 220.0 -141.05 246.05 -159.5 284.55 -173.2 366.55 -187.1 383.8 -187.1 411.05 -179.55 418.0 -169.7 412.55 -164.45 400.25 -147.35 359.95 -143.35 310.8 -120.65 M236.2 -107.6 L304.75 -92.3 331.2 -67.85 269.95 -46.6 266.3 -44.7 266.05 -44.6 239.6 -65.45 198.6 -80.6 167.2 -87.3 178.2 -98.2 218.8 -107.6 236.2 -107.6 M188.7 -93.2 L188.95 -92.1 210.1 -91.35 248.55 -91.05 265.0 -88.65 Q269.1 -87.8 274.15 -86.2 L280.25 -84.2 307.0 -72.1 Q308.4 -72.1 309.0 -73.1 L309.35 -74.2 Q309.35 -77.6 296.2 -82.55 L276.85 -88.75 261.8 -92.6 257.3 -93.6 248.1 -95.2 205.6 -95.3 Q199.25 -95.85 195.0 -95.2 L188.95 -94.35 188.7 -93.2 M276.5 -13.35 Q268.35 -8.6 262.7 -2.1 260.15 0.8 256.1 7.05 L251.35 14.4 Q246.65 21.3 240.2 28.75 233.35 36.65 224.6 45.15 L212.4 56.45 Q207.45 60.95 207.45 61.3 207.45 62.35 208.4 62.95 209.2 63.45 210.1 63.45 216.55 63.45 232.65 45.8 240.35 37.35 246.9 28.75 252.35 21.6 257.05 14.3 L260.7 8.5 Q262.25 6.05 263.75 4.1 L265.15 2.3 Q271.0 -4.95 280.05 -10.4 L287.6 -15.9 289.85 -17.65 296.95 -22.9 Q309.55 -31.55 320.0 -31.55 332.35 -31.55 342.35 -27.85 346.3 -26.4 349.9 -24.35 353.55 -22.25 357.95 -18.85 L363.1 -15.05 Q365.15 -14.0 368.75 -11.25 L376.25 -5.1 Q383.25 0.85 386.5 1.7 L374.55 -10.5 Q369.2 -16.1 364.95 -19.4 358.8 -24.25 351.05 -27.8 341.55 -32.1 329.65 -34.45 L320.0 -36.05 Q314.3 -35.95 308.55 -33.8 303.15 -31.85 297.75 -28.05 L288.65 -21.2 Q283.15 -17.05 279.2 -14.9 L276.5 -13.35 M272.7 -39.1 L340.85 -62.75 365.35 -43.7 381.0 -28.9 406.8 8.95 387.6 12.8 352.9 22.2 Q342.8 24.1 328.5 28.75 L317.7 32.4 Q295.85 40.15 275.5 49.7 253.05 60.2 240.0 69.6 227.65 78.4 225.5 84.95 L180.75 69.25 182.8 67.65 216.7 32.1 238.2 -3.55 272.5 -38.85 272.7 -39.1 M-275.9 -113.05 L-279.2 -114.9 Q-283.15 -117.05 -288.65 -121.2 L-297.75 -128.05 Q-309.0 -135.9 -320.0 -136.05 -348.5 -132.4 -364.95 -119.4 -369.95 -115.5 -376.5 -108.4 -383.4 -100.9 -386.5 -98.3 -383.05 -99.2 -375.45 -105.75 -366.8 -113.15 -363.1 -115.05 L-357.95 -118.85 Q-353.55 -122.25 -349.9 -124.35 -337.25 -131.55 -320.0 -131.55 -309.55 -131.55 -296.95 -122.9 L-287.6 -115.9 -282.15 -111.8 -310.0 -106.25 -325.0 -91.2 -360.0 -96.25 -390.0 -96.25 -403.55 -90.4 -406.8 -91.05 -381.0 -128.9 -361.75 -146.7 -340.85 -162.75 -272.7 -139.1 -250.5 -116.25 -260.0 -116.25 -275.9 -113.05 M-418.0 -69.7 L-411.05 -79.55 -383.8 -87.1 -366.55 -87.1 -284.55 -73.2 -246.05 -59.5 -220.0 -41.05 -247.4 -9.95 -266.2 21.2 -310.8 -20.65 -359.95 -43.35 -400.25 -47.35 -412.55 -64.45 -418.0 -69.7 M-345.2 -76.1 L-356.9 -77.2 Q-375.9 -78.55 -388.35 -76.5 -397.55 -75.05 -403.15 -71.7 L-402.8 -70.8 Q-402.5 -70.45 -401.65 -70.45 L-394.95 -72.65 Q-387.75 -74.85 -378.75 -74.85 -354.0 -74.85 -338.3 -72.0 -329.35 -70.4 -310.3 -64.9 L-300.7 -62.1 Q-292.0 -59.5 -267.3 -49.6 -264.0 -48.25 -254.6 -42.95 -246.2 -38.25 -245.45 -38.25 -244.0 -38.25 -243.6 -39.2 L-243.4 -40.35 Q-243.4 -45.55 -276.1 -57.85 -292.5 -64.05 -309.9 -69.5 -318.4 -71.9 -330.45 -73.95 L-345.2 -76.1 M-396.5 -39.8 L-390.3 -40.6 -308.55 -9.55 -284.55 11.05 -270.9 28.75 -270.85 28.85 -299.0 59.95 -309.65 66.9 -350.2 64.1 -362.95 64.2 -381.75 65.3 -381.4 56.8 -391.05 -24.05 -396.5 -39.8 M-385.05 -23.95 Q-381.8 -21.85 -374.3 -19.65 L-358.7 -15.4 Q-335.3 -9.15 -322.4 -2.15 -315.75 1.45 -309.3 5.75 -302.75 10.1 -298.3 13.95 -297.65 14.55 -296.3 17.2 L-293.75 22.3 Q-290.75 27.55 -287.4 28.75 L-285.4 29.1 -284.15 28.75 -284.1 28.7 -283.7 28.1 -283.6 27.65 -283.55 26.95 Q-283.55 26.0 -286.6 22.8 L-290.45 18.3 Q-291.4 16.15 -292.85 14.15 -294.7 11.5 -296.55 10.05 -304.15 4.4 -308.75 1.4 -315.75 -3.15 -322.3 -6.15 -324.85 -7.25 -339.15 -12.35 -354.4 -17.7 -357.55 -18.45 -364.6 -20.1 -373.5 -23.15 -380.1 -25.05 -385.05 -23.95 M-236.2 -207.6 L-218.8 -207.6 -178.2 -198.2 -167.2 -187.3 -198.6 -180.6 -239.6 -165.45 -266.05 -144.6 -269.95 -146.6 -331.2 -167.85 -304.75 -192.3 -236.2 -207.6 M-188.95 -192.1 L-188.7 -193.2 -188.95 -194.35 -195.0 -195.2 Q-199.25 -195.85 -205.6 -195.3 L-248.1 -195.2 -261.8 -192.6 Q-272.3 -190.15 -282.4 -187.15 -309.35 -179.1 -309.35 -174.2 L-309.0 -173.1 Q-308.4 -172.1 -307.0 -172.1 L-295.2 -177.6 Q-282.85 -183.3 -280.25 -184.2 -271.45 -187.3 -265.0 -188.65 L-248.55 -191.05 -210.1 -191.35 -188.95 -192.1 M-236.25 -116.25 L-238.15 -116.25 -260.0 -141.05 -233.95 -159.5 -195.45 -173.2 -113.45 -187.1 -96.2 -187.1 -68.95 -179.55 -62.0 -169.7 -67.45 -164.45 -79.75 -147.35 -120.05 -143.35 -169.2 -120.65 -185.3 -105.5 -236.25 -116.25 M-234.55 -138.25 Q-233.8 -138.25 -225.4 -142.95 -216.0 -148.25 -212.7 -149.6 -188.0 -159.5 -179.3 -162.1 -152.75 -170.0 -141.7 -172.0 -126.0 -174.85 -101.25 -174.85 -92.25 -174.85 -85.05 -172.65 L-78.35 -170.45 Q-77.5 -170.45 -77.2 -170.8 L-76.8 -171.7 Q-90.0 -179.55 -123.1 -177.2 -136.0 -176.3 -149.55 -173.95 -161.55 -171.9 -170.1 -169.5 -187.5 -164.05 -203.9 -157.85 -236.6 -145.55 -236.6 -140.35 L-236.4 -139.2 Q-236.0 -138.25 -234.55 -138.25 M-168.9 -100.1 L-171.35 -102.55 -177.95 -103.95 -171.45 -109.55 -89.7 -140.6 -83.5 -139.8 -88.95 -124.05 -94.85 -74.6 -120.0 -61.25 -145.0 -76.2 -166.05 -97.25 -157.6 -102.15 Q-144.7 -109.15 -121.3 -115.4 L-105.65 -119.65 Q-98.2 -121.85 -94.95 -123.95 -99.9 -125.05 -106.5 -123.15 -115.4 -120.1 -122.45 -118.45 -125.6 -117.7 -140.85 -112.35 L-157.7 -106.15 Q-163.15 -103.65 -168.9 -100.1 M-243.8 -107.6 L-175.25 -92.3 -148.8 -67.85 -210.05 -46.6 -213.7 -44.7 -213.95 -44.6 -240.4 -65.45 -281.4 -80.6 -312.8 -87.3 -301.8 -98.2 -261.2 -107.6 -243.8 -107.6 M-291.3 -93.2 L-291.05 -92.1 -269.9 -91.35 -231.45 -91.05 -215.0 -88.65 -205.85 -86.2 -199.75 -84.2 -199.25 -84.0 -190.6 -80.25 -173.0 -72.1 Q-171.6 -72.1 -171.0 -73.1 L-170.65 -74.2 Q-170.65 -77.6 -183.8 -82.55 L-196.95 -86.95 -218.2 -92.6 -231.9 -95.2 -274.4 -95.3 Q-280.75 -95.85 -285.0 -95.2 L-291.05 -94.35 -291.3 -93.2 M-217.3 -2.1 Q-219.85 0.8 -223.9 7.05 L-228.65 14.4 Q-233.35 21.3 -239.8 28.75 -246.65 36.65 -255.4 45.15 L-267.6 56.45 Q-272.55 60.95 -272.55 61.3 -272.55 62.35 -271.6 62.95 L-269.9 63.45 Q-263.45 63.45 -247.35 45.8 -239.65 37.35 -233.1 28.75 -227.65 21.6 -222.95 14.3 L-219.3 8.5 -216.25 4.1 -214.85 2.3 Q-209.0 -4.95 -199.95 -10.4 -197.7 -11.75 -192.4 -15.9 L-183.05 -22.9 Q-170.45 -31.55 -160.0 -31.55 -147.65 -31.55 -137.65 -27.85 -133.7 -26.4 -130.1 -24.35 -126.4 -22.25 -122.05 -18.85 L-111.25 -11.25 -103.75 -5.1 Q-96.75 0.85 -93.5 1.7 L-99.85 -4.5 -105.45 -10.5 Q-110.8 -16.1 -115.05 -19.4 -121.2 -24.25 -128.95 -27.8 -138.45 -32.1 -150.35 -34.45 L-160.0 -36.05 Q-165.7 -35.95 -171.45 -33.8 -176.85 -31.85 -182.25 -28.05 L-191.35 -21.2 Q-196.85 -17.05 -200.8 -14.9 L-203.5 -13.35 Q-211.65 -8.6 -217.3 -2.1 M-207.5 -38.85 L-207.3 -39.1 -139.15 -62.75 -114.65 -43.7 -99.0 -28.9 -73.2 8.95 -92.4 12.8 -127.1 22.2 Q-137.2 24.1 -151.5 28.75 L-162.25 32.4 Q-184.15 40.15 -204.5 49.7 -226.95 60.2 -240.0 69.6 -252.35 78.4 -254.5 84.95 L-299.25 69.25 -297.2 67.65 -263.3 32.1 -241.8 -3.55 -207.5 -38.85 M-37.45 40.2 Q-40.45 37.55 -42.35 36.5 -49.8 32.45 -72.0 31.85 L-97.4 31.45 Q-98.35 31.55 -98.1 32.2 -97.75 33.3 -98.4 34.35 -94.05 36.4 -87.0 37.0 -82.3 37.4 -73.65 37.25 -63.65 37.05 -60.5 37.15 -53.6 37.35 -49.75 38.85 -46.2 40.1 -42.6 42.5 L-36.5 46.35 -22.45 54.25 Q-13.95 58.95 -9.0 61.05 L-7.9 60.1 -7.65 59.7 Q-7.65 56.7 -17.55 51.1 -22.2 48.5 -32.0 43.95 -34.7 42.65 -37.45 40.2 M-42.75 97.55 L-32.75 103.55 Q-30.75 103.55 -30.3 102.5 L-30.1 101.25 Q-30.1 99.4 -49.8 88.55 -67.2 78.95 -71.65 77.1 L-87.25 70.45 Q-94.2 67.6 -99.55 66.1 -110.35 63.1 -136.5 60.55 -161.45 61.65 -189.95 68.3 -221.75 75.65 -230.3 84.25 L-230.05 85.6 -229.65 85.9 -228.45 86.2 Q-224.9 84.15 -218.75 81.65 -206.5 76.6 -193.0 74.2 L-185.95 72.3 Q-179.05 70.2 -175.1 69.25 -159.15 65.05 -146.25 65.05 -107.35 65.05 -66.9 84.35 -55.0 90.0 -42.75 97.55 M-298.7 93.25 Q-311.75 89.95 -339.4 88.05 L-339.4 87.8 -361.9 87.8 -380.3 90.25 Q-397.35 92.65 -410.1 95.35 -450.2 103.65 -450.2 114.7 -450.2 115.45 -449.65 116.25 -449.1 117.05 -448.45 117.05 -443.2 113.7 -435.45 109.9 -419.95 102.2 -406.9 99.85 L-362.15 92.7 -339.05 92.85 Q-313.35 94.5 -300.55 97.7 -297.25 98.5 -291.3 100.45 L-281.65 103.2 Q-275.85 104.55 -254.6 113.1 -234.8 121.1 -232.95 121.1 -231.2 121.1 -230.7 120.0 L-230.55 118.75 Q-230.55 117.3 -251.6 108.85 -272.25 100.5 -279.2 98.95 -283.5 97.95 -289.2 96.05 -295.25 94.1 -298.7 93.25 M430.25 38.85 Q433.75 40.1 437.4 42.5 L443.5 46.35 457.55 54.25 Q466.0 58.95 471.0 61.05 L472.1 60.1 472.35 59.7 Q472.3 56.7 462.45 51.1 457.7 48.5 448.0 43.95 445.3 42.65 442.55 40.2 439.5 37.55 437.65 36.5 430.15 32.45 408.0 31.85 L382.6 31.45 Q381.65 31.55 381.9 32.2 382.25 33.3 381.6 34.35 385.95 36.4 393.0 37.0 397.7 37.4 406.35 37.25 416.3 37.05 419.5 37.15 426.35 37.35 430.25 38.85 M437.25 97.55 L447.25 103.55 Q449.25 103.55 449.7 102.5 L449.85 101.25 Q449.8 99.4 430.2 88.55 412.8 78.95 408.35 77.1 L392.75 70.45 Q385.8 67.6 380.45 66.1 369.6 63.1 343.5 60.55 318.55 61.65 290.05 68.3 258.25 75.65 249.65 84.25 L249.95 85.6 250.35 85.9 251.55 86.2 Q255.1 84.15 261.2 81.65 273.5 76.6 287.0 74.2 L294.0 72.3 Q300.95 70.2 304.9 69.25 320.85 65.05 333.75 65.05 372.65 65.05 413.1 84.35 425.0 90.0 437.25 97.55 M181.3 93.25 Q168.25 89.95 140.6 88.05 L140.6 87.8 118.1 87.8 99.7 90.25 Q82.65 92.65 69.9 95.35 29.8 103.65 29.8 114.7 29.8 115.45 30.35 116.25 30.9 117.05 31.55 117.05 36.8 113.7 44.55 109.9 60.05 102.2 73.1 99.85 L117.8 92.7 140.95 92.85 Q166.65 94.5 179.45 97.7 182.75 98.5 188.7 100.45 L198.35 103.2 Q204.15 104.55 225.4 113.1 245.2 121.1 247.05 121.1 248.8 121.1 249.3 120.0 L249.45 118.75 Q249.45 117.3 228.4 108.85 207.75 100.5 200.8 98.95 196.5 97.95 190.8 96.05 L181.3 93.25" fill="#000000" fill-rule="evenodd" stroke="none"/>
    <path d="M480.0 -174.45 L480.0 -169.35 Q463.95 -163.75 453.15 -158.45 439.05 -151.6 436.55 -144.3 L433.05 -136.85 Q430.4 -131.65 429.55 -129.05 L427.55 -120.2 Q425.75 -114.2 422.9 -114.2 421.35 -114.2 420.9 -115.35 L420.8 -116.7 Q420.8 -118.7 426.05 -131.95 431.45 -145.45 433.3 -147.7 437.5 -152.75 440.25 -155.4 444.8 -159.85 449.95 -162.8 453.55 -164.85 457.7 -166.25 466.25 -171.0 471.3 -172.5 L476.75 -174.05 480.0 -174.45 M480.0 -74.45 L480.0 -70.5 475.05 -70.5 460.5 -69.15 Q451.35 -68.7 445.25 -66.2 L434.35 -62.2 426.8 -59.65 408.3 -54.45 Q392.75 -50.35 391.5 -50.35 390.05 -50.35 389.7 -51.35 392.55 -54.35 406.1 -58.3 L417.35 -61.5 427.5 -64.7 Q437.4 -68.6 442.65 -71.05 448.0 -73.45 462.3 -74.65 L478.05 -75.1 Q479.55 -74.4 480.0 -74.45 M-480.0 -69.35 L-480.0 -74.45 -476.75 -74.05 -471.3 -72.5 Q-466.3 -71.0 -457.7 -66.25 -453.6 -64.85 -449.95 -62.8 L-449.6 -62.6 Q-447.1 -61.15 -444.7 -59.3 L-440.4 -55.55 -440.25 -55.4 Q-437.5 -52.75 -433.3 -47.7 -431.7 -45.8 -427.55 -35.65 L-424.75 -28.6 Q-420.8 -18.45 -420.8 -16.7 L-420.8 -16.55 -420.9 -15.35 Q-421.35 -14.2 -422.9 -14.2 -423.7 -14.2 -424.35 -14.65 -426.25 -15.8 -427.55 -20.2 L-429.55 -29.05 -433.05 -36.85 Q-435.85 -42.3 -436.55 -44.3 -438.1 -48.85 -444.2 -53.25 L-448.3 -55.9 -453.15 -58.45 Q-456.8 -60.25 -461.1 -62.05 -469.4 -65.65 -480.0 -69.35 M-480.0 -170.5 L-480.0 -174.45 -478.05 -175.1 -462.3 -174.65 Q-448.0 -173.45 -442.65 -171.05 -437.4 -168.6 -427.5 -164.7 L-406.1 -158.3 Q-392.55 -154.35 -389.7 -151.35 -390.05 -150.35 -391.5 -150.35 -392.75 -150.35 -408.3 -154.45 L-426.8 -159.65 -445.25 -166.2 Q-451.4 -168.7 -460.5 -169.15 L-475.05 -170.5 -480.0 -170.5 M88.5 -150.35 Q87.25 -150.35 71.7 -154.45 56.2 -158.6 53.2 -159.65 L34.75 -166.2 Q28.6 -168.7 19.5 -169.15 L4.95 -170.5 0.0 -170.5 0.0 -169.35 Q-16.05 -163.75 -26.85 -158.45 -40.95 -151.6 -43.45 -144.3 -44.15 -142.3 -46.95 -136.85 -49.6 -131.65 -50.45 -129.05 L-52.45 -120.2 Q-54.2 -114.2 -57.05 -114.2 -58.65 -114.2 -59.1 -115.35 L-59.2 -116.7 Q-59.2 -118.7 -53.95 -131.95 -48.55 -145.45 -46.7 -147.7 L-39.75 -155.4 Q-35.2 -159.85 -30.05 -162.8 -26.4 -164.85 -22.3 -166.25 -13.7 -171.0 -8.7 -172.5 L-3.25 -174.05 0.0 -174.45 1.95 -175.1 17.7 -174.65 Q32.0 -173.45 37.35 -171.05 42.6 -168.6 52.5 -164.7 56.0 -163.4 62.65 -161.5 L73.9 -158.3 Q87.45 -154.35 90.25 -151.35 89.95 -150.35 88.5 -150.35 M197.85 -111.8 L183.05 -122.9 Q170.45 -131.55 160.0 -131.55 142.75 -131.55 130.1 -124.35 126.4 -122.25 122.05 -118.85 L116.9 -115.05 Q113.2 -113.15 104.55 -105.75 96.95 -99.2 93.5 -98.3 96.6 -100.9 103.5 -108.4 110.05 -115.5 115.05 -119.4 131.5 -132.4 160.0 -136.05 171.0 -135.9 182.25 -128.05 L191.35 -121.2 Q196.85 -117.05 200.8 -114.9 L204.1 -113.05 197.85 -111.8 M77.2 -70.8 L76.8 -71.7 Q82.4 -75.05 91.65 -76.5 104.1 -78.55 123.1 -77.2 L134.8 -76.1 149.55 -73.95 Q161.55 -71.9 170.1 -69.5 187.5 -64.05 203.9 -57.85 236.6 -45.55 236.6 -40.35 L236.4 -39.2 Q236.0 -38.25 234.55 -38.25 233.8 -38.25 225.4 -42.95 216.0 -48.25 212.7 -49.6 188.0 -59.5 179.3 -62.1 L169.55 -64.95 Q150.6 -70.4 141.7 -72.0 126.0 -74.85 101.25 -74.85 92.25 -74.85 85.05 -72.65 L80.75 -71.15 Q78.95 -70.45 78.35 -70.45 77.5 -70.45 77.2 -70.8 M8.7 -72.5 Q11.45 -71.7 15.25 -69.9 L22.5 -66.15 Q26.5 -64.8 30.05 -62.8 L36.1 -58.65 39.75 -55.4 46.7 -47.7 Q48.3 -45.8 52.45 -35.65 L55.25 -28.6 Q59.2 -18.45 59.2 -16.7 L59.2 -16.55 59.1 -15.35 Q58.65 -14.2 57.05 -14.2 56.3 -14.2 55.6 -14.6 53.75 -15.8 52.45 -20.2 L50.45 -29.05 46.95 -36.85 Q44.15 -42.3 43.45 -44.3 41.9 -48.85 35.8 -53.25 L31.7 -55.9 17.35 -62.75 0.0 -69.35 0.0 -70.5 -4.95 -70.5 -19.5 -69.15 Q-28.6 -68.7 -34.75 -66.2 L-53.2 -59.65 -71.7 -54.45 -88.5 -50.35 Q-89.95 -50.35 -90.25 -51.35 -87.45 -54.35 -73.9 -58.3 L-52.5 -64.7 Q-42.6 -68.6 -37.35 -71.05 -32.0 -73.45 -17.7 -74.65 L-1.95 -75.1 Q-0.45 -74.4 0.0 -74.45 L3.25 -74.05 8.7 -72.5 M94.95 -23.95 Q99.9 -25.05 106.5 -23.15 115.4 -20.1 122.45 -18.45 125.6 -17.7 140.85 -12.35 L157.7 -6.15 Q164.25 -3.15 171.25 1.4 L183.45 10.05 Q185.25 11.5 187.15 14.15 188.6 16.15 189.55 18.3 190.05 19.25 193.4 22.8 196.45 26.0 196.45 26.95 L196.4 27.65 196.3 28.1 195.9 28.7 195.85 28.75 194.6 29.1 192.6 28.75 Q189.25 27.55 186.25 22.3 L183.7 17.2 Q182.35 14.55 181.7 13.95 177.25 10.1 170.7 5.75 164.25 1.45 157.6 -2.15 144.7 -9.15 121.3 -15.4 L105.65 -19.65 Q98.2 -21.85 94.95 -23.95 M291.05 -192.1 L269.9 -191.35 231.45 -191.05 215.0 -188.65 Q208.55 -187.3 199.75 -184.2 197.15 -183.3 184.8 -177.6 L173.0 -172.1 Q171.6 -172.1 171.0 -173.1 170.65 -173.65 170.65 -174.2 170.65 -179.1 197.6 -187.15 207.7 -190.15 218.2 -192.6 228.0 -194.85 231.9 -195.2 L274.4 -195.3 Q280.75 -195.85 285.0 -195.2 L291.05 -194.35 291.3 -193.2 291.05 -192.1 M245.45 -138.25 Q244.0 -138.25 243.6 -139.2 L243.4 -140.35 Q243.4 -145.55 276.1 -157.85 292.5 -164.05 309.9 -169.5 318.4 -171.9 330.45 -173.95 344.0 -176.3 356.9 -177.2 389.95 -179.55 403.15 -171.7 L402.8 -170.8 Q402.5 -170.45 401.65 -170.45 L394.95 -172.65 Q387.7 -174.85 378.75 -174.85 354.0 -174.85 338.3 -172.0 327.25 -170.0 300.7 -162.1 292.0 -159.5 267.3 -149.6 264.0 -148.25 254.6 -142.95 246.2 -138.25 245.45 -138.25 M311.1 -100.1 Q316.85 -103.65 322.3 -106.15 324.85 -107.25 339.15 -112.35 354.35 -117.7 357.55 -118.45 364.55 -120.1 373.5 -123.15 380.05 -125.05 385.05 -123.95 381.8 -121.85 374.3 -119.65 L358.7 -115.4 Q335.3 -109.15 322.4 -102.15 318.15 -99.85 313.95 -97.25 L311.1 -100.1 M276.5 -13.35 L279.2 -14.9 Q283.15 -17.05 288.65 -21.2 L297.75 -28.05 Q303.15 -31.85 308.55 -33.8 314.3 -35.95 320.0 -36.05 L329.65 -34.45 Q341.55 -32.1 351.05 -27.8 358.8 -24.25 364.95 -19.4 369.2 -16.1 374.55 -10.5 L386.5 1.7 Q383.25 0.85 376.25 -5.1 L368.75 -11.25 Q365.15 -14.0 363.1 -15.05 L357.95 -18.85 Q353.55 -22.25 349.9 -24.35 346.3 -26.4 342.35 -27.85 332.35 -31.55 320.0 -31.55 309.55 -31.55 296.95 -22.9 L289.85 -17.65 287.6 -15.9 280.05 -10.4 Q271.0 -4.95 265.15 2.3 L263.75 4.1 Q262.25 6.05 260.7 8.5 L257.05 14.3 Q252.35 21.6 246.9 28.75 240.35 37.35 232.65 45.8 216.55 63.45 210.1 63.45 209.2 63.45 208.4 62.95 207.45 62.35 207.45 61.3 207.45 60.95 212.4 56.45 L224.6 45.15 Q233.35 36.65 240.2 28.75 246.65 21.3 251.35 14.4 L256.1 7.05 Q260.15 0.8 262.7 -2.1 268.35 -8.6 276.5 -13.35 M188.7 -93.2 L188.95 -94.35 195.0 -95.2 Q199.25 -95.85 205.6 -95.3 L248.1 -95.2 257.3 -93.6 261.8 -92.6 276.85 -88.75 296.2 -82.55 Q309.35 -77.6 309.35 -74.2 L309.0 -73.1 Q308.4 -72.1 307.0 -72.1 L280.25 -84.2 274.15 -86.2 Q269.1 -87.8 265.0 -88.65 L248.55 -91.05 210.1 -91.35 188.95 -92.1 188.7 -93.2 M-282.15 -111.8 L-287.6 -115.9 -296.95 -122.9 Q-309.55 -131.55 -320.0 -131.55 -337.25 -131.55 -349.9 -124.35 -353.55 -122.25 -357.95 -118.85 L-363.1 -115.05 Q-366.8 -113.15 -375.45 -105.75 -383.05 -99.2 -386.5 -98.3 -383.4 -100.9 -376.5 -108.4 -369.95 -115.5 -364.95 -119.4 -348.5 -132.4 -320.0 -136.05 -309.0 -135.9 -297.75 -128.05 L-288.65 -121.2 Q-283.15 -117.05 -279.2 -114.9 L-275.9 -113.05 -282.15 -111.8 M-345.2 -76.1 L-330.45 -73.95 Q-318.4 -71.9 -309.9 -69.5 -292.5 -64.05 -276.1 -57.85 -243.4 -45.55 -243.4 -40.35 L-243.6 -39.2 Q-244.0 -38.25 -245.45 -38.25 -246.2 -38.25 -254.6 -42.95 -264.0 -48.25 -267.3 -49.6 -292.0 -59.5 -300.7 -62.1 L-310.3 -64.9 Q-329.35 -70.4 -338.3 -72.0 -354.0 -74.85 -378.75 -74.85 -387.75 -74.85 -394.95 -72.65 L-401.65 -70.45 Q-402.5 -70.45 -402.8 -70.8 L-403.15 -71.7 Q-397.55 -75.05 -388.35 -76.5 -375.9 -78.55 -356.9 -77.2 L-345.2 -76.1 M-385.05 -23.95 Q-380.1 -25.05 -373.5 -23.15 -364.6 -20.1 -357.55 -18.45 -354.4 -17.7 -339.15 -12.35 -324.85 -7.25 -322.3 -6.15 -315.75 -3.15 -308.75 1.4 -304.15 4.4 -296.55 10.05 -294.7 11.5 -292.85 14.15 -291.4 16.15 -290.45 18.3 L-286.6 22.8 Q-283.55 26.0 -283.55 26.95 L-283.6 27.65 -283.7 28.1 -284.1 28.7 -284.15 28.75 -285.4 29.1 -287.4 28.75 Q-290.75 27.55 -293.75 22.3 L-296.3 17.2 Q-297.65 14.55 -298.3 13.95 -302.75 10.1 -309.3 5.75 -315.75 1.45 -322.4 -2.15 -335.3 -9.15 -358.7 -15.4 L-374.3 -19.65 Q-381.8 -21.85 -385.05 -23.95 M-188.95 -192.1 L-210.1 -191.35 -248.55 -191.05 -265.0 -188.65 Q-271.45 -187.3 -280.25 -184.2 -282.85 -183.3 -295.2 -177.6 L-307.0 -172.1 Q-308.4 -172.1 -309.0 -173.1 L-309.35 -174.2 Q-309.35 -179.1 -282.4 -187.15 -272.3 -190.15 -261.8 -192.6 L-248.1 -195.2 -205.6 -195.3 Q-199.25 -195.85 -195.0 -195.2 L-188.95 -194.35 -188.7 -193.2 -188.95 -192.1 M-234.55 -138.25 Q-236.0 -138.25 -236.4 -139.2 L-236.6 -140.35 Q-236.6 -145.55 -203.9 -157.85 -187.5 -164.05 -170.1 -169.5 -161.55 -171.9 -149.55 -173.95 -136.0 -176.3 -123.1 -177.2 -90.0 -179.55 -76.8 -171.7 L-77.2 -170.8 Q-77.5 -170.45 -78.35 -170.45 L-85.05 -172.65 Q-92.25 -174.85 -101.25 -174.85 -126.0 -174.85 -141.7 -172.0 -152.75 -170.0 -179.3 -162.1 -188.0 -159.5 -212.7 -149.6 -216.0 -148.25 -225.4 -142.95 -233.8 -138.25 -234.55 -138.25 M-166.05 -97.25 L-168.9 -100.1 Q-163.15 -103.65 -157.7 -106.15 L-140.85 -112.35 Q-125.6 -117.7 -122.45 -118.45 -115.4 -120.1 -106.5 -123.15 -99.9 -125.05 -94.95 -123.95 -98.2 -121.85 -105.65 -119.65 L-121.3 -115.4 Q-144.7 -109.15 -157.6 -102.15 L-166.05 -97.25 M-217.3 -2.1 Q-211.65 -8.6 -203.5 -13.35 L-200.8 -14.9 Q-196.85 -17.05 -191.35 -21.2 L-182.25 -28.05 Q-176.85 -31.85 -171.45 -33.8 -165.7 -35.95 -160.0 -36.05 L-150.35 -34.45 Q-138.45 -32.1 -128.95 -27.8 -121.2 -24.25 -115.05 -19.4 -110.8 -16.1 -105.45 -10.5 L-99.85 -4.5 -93.5 1.7 Q-96.75 0.85 -103.75 -5.1 L-111.25 -11.25 -122.05 -18.85 Q-126.4 -22.25 -130.1 -24.35 -133.7 -26.4 -137.65 -27.85 -147.65 -31.55 -160.0 -31.55 -170.45 -31.55 -183.05 -22.9 L-192.4 -15.9 Q-197.7 -11.75 -199.95 -10.4 -209.0 -4.95 -214.85 2.3 L-216.25 4.1 -219.3 8.5 -222.95 14.3 Q-227.65 21.6 -233.1 28.75 -239.65 37.35 -247.35 45.8 -263.45 63.45 -269.9 63.45 L-271.6 62.95 Q-272.55 62.35 -272.55 61.3 -272.55 60.95 -267.6 56.45 L-255.4 45.15 Q-246.65 36.65 -239.8 28.75 -233.35 21.3 -228.65 14.4 L-223.9 7.05 Q-219.85 0.8 -217.3 -2.1 M-291.3 -93.2 L-291.05 -94.35 -285.0 -95.2 Q-280.75 -95.85 -274.4 -95.3 L-231.9 -95.2 -218.2 -92.6 -196.95 -86.95 -183.8 -82.55 Q-170.65 -77.6 -170.65 -74.2 L-171.0 -73.1 Q-171.6 -72.1 -173.0 -72.1 L-190.6 -80.25 -199.25 -84.0 -199.75 -84.2 -205.85 -86.2 -215.0 -88.65 -231.45 -91.05 -269.9 -91.35 -291.05 -92.1 -291.3 -93.2 M-42.75 97.55 Q-55.0 90.0 -66.9 84.35 -107.35 65.05 -146.25 65.05 -159.15 65.05 -175.1 69.25 -179.05 70.2 -185.95 72.3 L-193.0 74.2 Q-206.5 76.6 -218.75 81.65 -224.9 84.15 -228.45 86.2 L-229.65 85.9 -230.05 85.6 -230.3 84.25 Q-221.75 75.65 -189.95 68.3 -161.45 61.65 -136.5 60.55 -110.35 63.1 -99.55 66.1 -94.2 67.6 -87.25 70.45 L-71.65 77.1 Q-67.2 78.95 -49.8 88.55 -30.1 99.4 -30.1 101.25 L-30.3 102.5 Q-30.75 103.55 -32.75 103.55 L-42.75 97.55 M-37.45 40.2 Q-34.7 42.65 -32.0 43.95 -22.2 48.5 -17.55 51.1 -7.65 56.7 -7.65 59.7 L-7.9 60.1 -9.0 61.05 Q-13.95 58.95 -22.45 54.25 L-36.5 46.35 -42.6 42.5 Q-46.2 40.1 -49.75 38.85 -53.6 37.35 -60.5 37.15 -63.65 37.05 -73.65 37.25 -82.3 37.4 -87.0 37.0 -94.05 36.4 -98.4 34.35 -97.75 33.3 -98.1 32.2 -98.35 31.55 -97.4 31.45 L-72.0 31.85 Q-49.8 32.45 -42.35 36.5 -40.45 37.55 -37.45 40.2 M-298.7 93.25 Q-295.25 94.1 -289.2 96.05 -283.5 97.95 -279.2 98.95 -272.25 100.5 -251.6 108.85 -230.55 117.3 -230.55 118.75 L-230.7 120.0 Q-231.2 121.1 -232.95 121.1 -234.8 121.1 -254.6 113.1 -275.85 104.55 -281.65 103.2 L-291.3 100.45 Q-297.25 98.5 -300.55 97.7 -313.35 94.5 -339.05 92.85 L-362.15 92.7 -406.9 99.85 Q-419.95 102.2 -435.45 109.9 -443.2 113.7 -448.45 117.05 -449.1 117.05 -449.65 116.25 -450.2 115.45 -450.2 114.7 -450.2 103.65 -410.1 95.35 -397.35 92.65 -380.3 90.25 L-361.9 87.8 -339.4 87.8 -339.4 88.05 Q-311.75 89.95 -298.7 93.25 M181.3 93.25 L190.8 96.05 Q196.5 97.95 200.8 98.95 207.75 100.5 228.4 108.85 249.45 117.3 249.45 118.75 L249.3 120.0 Q248.8 121.1 247.05 121.1 245.2 121.1 225.4 113.1 204.15 104.55 198.35 103.2 L188.7 100.45 Q182.75 98.5 179.45 97.7 166.65 94.5 140.95 92.85 L117.8 92.7 73.1 99.85 Q60.05 102.2 44.55 109.9 36.8 113.7 31.55 117.05 30.9 117.05 30.35 116.25 29.8 115.45 29.8 114.7 29.8 103.65 69.9 95.35 82.65 92.65 99.7 90.25 L118.1 87.8 140.6 87.8 140.6 88.05 Q168.25 89.95 181.3 93.25 M437.25 97.55 Q425.0 90.0 413.1 84.35 372.65 65.05 333.75 65.05 320.85 65.05 304.9 69.25 300.95 70.2 294.0 72.3 L287.0 74.2 Q273.5 76.6 261.2 81.65 255.1 84.15 251.55 86.2 L250.35 85.9 249.95 85.6 249.65 84.25 Q258.25 75.65 290.05 68.3 318.55 61.65 343.5 60.55 369.6 63.1 380.45 66.1 385.8 67.6 392.75 70.45 L408.35 77.1 Q412.8 78.95 430.2 88.55 449.8 99.4 449.85 101.25 L449.7 102.5 Q449.25 103.55 447.25 103.55 L437.25 97.55 M430.25 38.85 Q426.35 37.35 419.5 37.15 416.3 37.05 406.35 37.25 397.7 37.4 393.0 37.0 385.95 36.4 381.6 34.35 382.25 33.3 381.9 32.2 381.65 31.55 382.6 31.45 L408.0 31.85 Q430.15 32.45 437.65 36.5 439.5 37.55 442.55 40.2 445.3 42.65 448.0 43.95 457.7 48.5 462.45 51.1 472.3 56.7 472.35 59.7 L472.1 60.1 471.0 61.05 Q466.0 58.95 457.55 54.25 L443.5 46.35 437.4 42.5 Q433.75 40.1 430.25 38.85" fill="#663300" fill-rule="evenodd" stroke="none"/>
  </g>
</svg>
