<?xml version="1.0" encoding="UTF-8" standalone="no"?>
<svg xmlns:ffdec="https://www.free-decompiler.com/flash" xmlns:xlink="http://www.w3.org/1999/xlink" ffdec:objectType="shape" height="558.1px" width="960.0px" xmlns="http://www.w3.org/2000/svg">
  <g transform="matrix(1.0, 0.0, 0.0, 1.0, 480.0, 261.55)">
    <path d="M-156.9 -107.7 L-160.4 -100.0 Q-204.7 -0.85 -206.2 104.65 -206.95 155.9 -196.9 203.15 -186.75 251.15 -166.15 291.55 M-381.55 -169.25 Q-354.75 -66.0 -354.75 56.7 -354.75 179.4 -381.55 291.55 M80.0 -169.25 Q133.3 -47.85 133.3 74.85 133.3 134.8 119.95 189.45 106.45 244.9 80.0 291.55 M295.4 -76.9 Q320.1 11.35 312.2 110.1 304.15 210.45 264.65 291.55" fill="none" stroke="#043e2d" stroke-linecap="round" stroke-linejoin="round" stroke-width="10.0"/>
    <path d="M264.65 291.55 L480.0 291.55" fill="none" stroke="#010101" stroke-linecap="round" stroke-linejoin="round" stroke-opacity="0.0" stroke-width="0.05"/>
    <path d="M-178.5 -37.4 L-147.7 -37.4 Q-134.95 -37.4 -125.95 -28.4 -116.95 -19.4 -116.95 -6.6 -116.95 6.15 -125.95 15.15 -134.95 24.15 -147.7 24.15 -160.5 24.15 -169.5 15.15 -174.65 10.0 -176.85 3.6 -178.5 -1.0 -178.5 -6.25 L-178.5 -37.4" fill="#043e2d" fill-rule="evenodd" stroke="none"/>
    <path d="M110.75 -138.5 L141.55 -138.5 Q154.3 -138.5 163.3 -129.5 172.3 -120.5 172.3 -107.7 172.3 -94.95 163.3 -85.95 154.3 -76.95 141.55 -76.95 128.75 -76.95 119.75 -85.95 114.6 -91.1 112.4 -97.5 110.75 -102.1 110.75 -107.35 L110.75 -138.5" fill="#043e2d" fill-rule="evenodd" stroke="none"/>
    <path d="M368.7 -11.55 Q377.7 -2.55 377.7 10.25 377.7 23.0 368.7 32.0 359.7 41.0 346.95 41.0 334.15 41.0 325.15 32.0 320.0 26.85 317.8 20.45 316.15 15.85 316.15 10.6 L316.15 -20.55 346.95 -20.55 Q359.7 -20.55 368.7 -11.55" fill="#043e2d" fill-rule="evenodd" stroke="none"/>
    <path d="M-326.35 -107.7 Q-313.6 -107.7 -304.6 -98.7 -295.6 -89.7 -295.6 -76.9 -295.6 -64.15 -304.6 -55.15 -313.6 -46.15 -326.35 -46.15 -339.15 -46.15 -348.15 -55.15 -353.3 -60.3 -355.5 -66.7 -357.15 -71.3 -357.15 -76.55 L-357.15 -107.7 -326.35 -107.7" fill="#043e2d" fill-rule="evenodd" stroke="none"/>
    <path d="M-389.8 -100.55 L-359.0 -100.55 -359.0 -69.4 Q-359.0 -64.15 -360.65 -59.55 -362.85 -53.15 -368.0 -48.0 -377.0 -39.0 -389.8 -39.0 -402.55 -39.0 -411.55 -48.0 -420.55 -57.0 -420.55 -69.75 -420.55 -82.55 -411.55 -91.55 -402.55 -100.55 -389.8 -100.55" fill="#043e2d" fill-rule="evenodd" stroke="none"/>
    <path d="M-243.3 -22.85 Q-252.3 -31.85 -252.3 -44.6 -252.3 -57.4 -243.3 -66.4 -234.3 -75.4 -221.55 -75.4 L-190.75 -75.4 -190.75 -44.25 Q-190.75 -39.0 -192.4 -34.4 -194.6 -28.0 -199.75 -22.85 -208.75 -13.85 -221.55 -13.85 -234.3 -13.85 -243.3 -22.85" fill="#043e2d" fill-rule="evenodd" stroke="none"/>
    <path d="M102.15 -110.35 Q102.15 -105.1 100.5 -100.5 98.3 -94.1 93.15 -88.95 84.15 -79.95 71.35 -79.95 58.6 -79.95 49.6 -88.95 40.6 -97.95 40.6 -110.7 40.6 -123.5 49.6 -132.5 58.6 -141.5 71.35 -141.5 L102.15 -141.5 102.15 -110.35" fill="#043e2d" fill-rule="evenodd" stroke="none"/>
    <path d="M258.25 -3.8 Q267.25 -12.8 280.0 -12.8 L310.8 -12.8 310.8 18.35 Q310.8 23.6 309.15 28.2 306.95 34.6 301.8 39.75 292.8 48.75 280.0 48.75 267.25 48.75 258.25 39.75 249.25 30.75 249.25 18.0 249.25 5.2 258.25 -3.8" fill="#043e2d" fill-rule="evenodd" stroke="none"/>
    <path d="M-331.1 -210.5 Q-310.75 -190.2 -310.75 -161.55 -310.75 -132.95 -331.1 -112.65 -336.0 -107.7 -341.45 -103.95 -358.3 -92.35 -380.0 -92.35 -408.6 -92.35 -428.9 -112.65 -449.25 -132.95 -449.25 -161.55 -449.25 -172.1 -446.45 -181.55 -441.7 -197.7 -428.9 -210.5 -408.6 -230.8 -380.0 -230.8 -351.4 -230.8 -331.1 -210.5 M-341.9 -199.55 Q-357.75 -215.4 -380.0 -215.4 -402.25 -215.4 -418.0 -199.55 -426.25 -191.5 -430.15 -181.55 -433.85 -172.35 -433.85 -161.55 -433.85 -139.35 -418.0 -123.5 -402.25 -107.7 -380.0 -107.7 -357.75 -107.7 -341.9 -123.5 L-341.45 -124.0 Q-326.15 -139.65 -326.15 -161.55 -326.15 -183.8 -341.9 -199.55" fill="#bf9900" fill-rule="evenodd" stroke="none"/>
    <path d="M-341.9 -199.55 Q-326.15 -183.8 -326.15 -161.55 -326.15 -139.65 -341.45 -124.0 L-341.9 -123.5 Q-357.75 -107.7 -380.0 -107.7 -402.25 -107.7 -418.0 -123.5 -433.85 -139.35 -433.85 -161.55 -433.85 -172.35 -430.15 -181.55 -426.25 -191.5 -418.0 -199.55 -402.25 -215.4 -380.0 -215.4 -357.75 -215.4 -341.9 -199.55" fill="#cccc00" fill-rule="evenodd" stroke="none"/>
    <path d="M-331.1 -210.5 Q-351.4 -230.8 -380.0 -230.8 -408.6 -230.8 -428.9 -210.5 -441.7 -197.7 -446.45 -181.55 -449.25 -172.1 -449.25 -161.55 -449.25 -132.95 -428.9 -112.65 -408.6 -92.35 -380.0 -92.35 -358.3 -92.35 -341.45 -103.95 -336.0 -107.7 -331.1 -112.65 -310.75 -132.95 -310.75 -161.55 -310.75 -190.2 -331.1 -210.5 M-380.0 -246.2 Q-345.0 -246.2 -320.15 -221.35 -295.4 -196.55 -295.4 -161.55 -295.4 -126.55 -320.15 -101.7 -330.0 -91.95 -341.45 -85.95 -358.85 -76.95 -380.0 -76.95 -415.0 -76.95 -439.75 -101.7 -464.6 -126.55 -464.6 -161.55 -464.6 -172.0 -462.4 -181.55 -457.25 -203.95 -439.75 -221.35 -415.0 -246.2 -380.0 -246.2" fill="#b36600" fill-rule="evenodd" stroke="none"/>
    <path d="M-380.0 -261.55 Q-338.6 -261.55 -309.3 -232.25 -280.0 -202.95 -280.0 -161.55 -280.0 -120.15 -309.3 -90.85 -323.85 -76.35 -341.45 -68.95 L-349.1 -66.15 Q-363.6 -61.55 -380.0 -61.55 -396.4 -61.55 -410.9 -66.15 -433.0 -73.15 -450.7 -90.85 -480.0 -120.15 -480.0 -161.55 -480.0 -171.95 -478.15 -181.55 -472.6 -210.35 -450.7 -232.25 -421.4 -261.55 -380.0 -261.55 M-380.0 -246.2 Q-415.0 -246.2 -439.75 -221.35 -457.25 -203.95 -462.4 -181.55 -464.6 -172.0 -464.6 -161.55 -464.6 -126.55 -439.75 -101.7 -415.0 -76.95 -380.0 -76.95 -358.85 -76.95 -341.45 -85.95 -330.0 -91.95 -320.15 -101.7 -295.4 -126.55 -295.4 -161.55 -295.4 -196.55 -320.15 -221.35 -345.0 -246.2 -380.0 -246.2" fill="#a63300" fill-rule="evenodd" stroke="none"/>
    <path d="M-187.7 -92.35 Q-187.7 -79.65 -178.6 -70.55 -169.6 -61.55 -156.9 -61.55 -144.25 -61.55 -135.15 -70.55 -126.15 -79.65 -126.15 -92.35 -126.15 -105.0 -135.15 -114.0 -144.25 -123.1 -156.9 -123.1 -169.6 -123.1 -178.6 -114.0 -187.7 -105.0 -187.7 -92.35 M-203.1 -92.35 Q-203.1 -111.4 -189.55 -124.95 -176.0 -138.5 -156.9 -138.5 -137.85 -138.5 -124.3 -124.95 -110.75 -111.4 -110.75 -92.35 -110.75 -81.15 -115.4 -71.95 -118.7 -65.3 -124.3 -59.7 -137.85 -46.15 -156.9 -46.15 -176.0 -46.15 -189.55 -59.7 -203.1 -73.25 -203.1 -92.35" fill="#bf9900" fill-rule="evenodd" stroke="none"/>
    <path d="M-187.7 -92.35 Q-187.7 -105.0 -178.6 -114.0 -169.6 -123.1 -156.9 -123.1 -144.25 -123.1 -135.15 -114.0 -126.15 -105.0 -126.15 -92.35 -126.15 -79.65 -135.15 -70.55 -144.25 -61.55 -156.9 -61.55 -169.6 -61.55 -178.6 -70.55 -187.7 -79.65 -187.7 -92.35" fill="#cccc00" fill-rule="evenodd" stroke="none"/>
    <path d="M-218.45 -92.35 Q-218.45 -66.85 -200.4 -48.8 -182.4 -30.8 -156.9 -30.8 -132.85 -30.8 -115.4 -46.95 L-113.4 -48.8 Q-95.4 -66.85 -95.4 -92.35 -95.4 -117.8 -113.4 -135.8 -131.45 -153.85 -156.9 -153.85 -182.4 -153.85 -200.4 -135.8 -218.45 -117.8 -218.45 -92.35 M-233.85 -92.35 Q-233.85 -124.15 -211.3 -146.7 -188.75 -169.25 -156.9 -169.25 -125.1 -169.25 -102.55 -146.7 -80.0 -124.15 -80.0 -92.35 -80.0 -60.5 -102.55 -37.95 -108.6 -31.85 -115.4 -27.4 -133.7 -15.4 -156.9 -15.4 -188.75 -15.4 -211.3 -37.95 -233.85 -60.5 -233.85 -92.35" fill="#a63300" fill-rule="evenodd" stroke="none"/>
    <path d="M-218.45 -92.35 Q-218.45 -117.8 -200.4 -135.8 -182.4 -153.85 -156.9 -153.85 -131.45 -153.85 -113.4 -135.8 -95.4 -117.8 -95.4 -92.35 -95.4 -66.85 -113.4 -48.8 L-115.4 -46.95 Q-132.85 -30.8 -156.9 -30.8 -182.4 -30.8 -200.4 -48.8 -218.45 -66.85 -218.45 -92.35 M-203.1 -92.35 Q-203.1 -73.25 -189.55 -59.7 -176.0 -46.15 -156.9 -46.15 -137.85 -46.15 -124.3 -59.7 -118.7 -65.3 -115.4 -71.95 -110.75 -81.15 -110.75 -92.35 -110.75 -111.4 -124.3 -124.95 -137.85 -138.5 -156.9 -138.5 -176.0 -138.5 -189.55 -124.95 -203.1 -111.4 -203.1 -92.35" fill="#b36600" fill-rule="evenodd" stroke="none"/>
    <path d="M297.6 -138.0 Q270.55 -138.0 251.4 -118.85 232.2 -99.7 232.2 -72.65 232.2 -45.55 251.4 -26.4 270.55 -7.25 297.6 -7.25 324.7 -7.25 343.85 -26.4 363.0 -45.55 363.0 -72.65 363.0 -99.7 343.85 -118.85 324.7 -138.0 297.6 -138.0 M216.85 -72.65 Q216.85 -106.1 240.55 -129.7 264.15 -153.4 297.6 -153.4 331.05 -153.4 354.75 -129.7 378.4 -106.1 378.4 -72.65 378.4 -39.15 354.75 -15.5 331.05 8.15 297.6 8.15 264.15 8.15 240.55 -15.5 216.85 -39.15 216.85 -72.65" fill="#b36600" fill-rule="evenodd" stroke="none"/>
    <path d="M297.6 -122.65 Q276.9 -122.65 262.3 -107.95 247.6 -93.35 247.6 -72.65 247.6 -51.95 262.3 -37.25 276.9 -22.65 297.6 -22.65 318.3 -22.65 333.0 -37.25 347.6 -51.95 347.6 -72.65 347.6 -93.35 333.0 -107.95 318.3 -122.65 297.6 -122.65 M297.6 -138.0 Q324.7 -138.0 343.85 -118.85 363.0 -99.7 363.0 -72.65 363.0 -45.55 343.85 -26.4 324.7 -7.25 297.6 -7.25 270.55 -7.25 251.4 -26.4 232.2 -45.55 232.2 -72.65 232.2 -99.7 251.4 -118.85 270.55 -138.0 297.6 -138.0" fill="#bf9900" fill-rule="evenodd" stroke="none"/>
    <path d="M297.6 -122.65 Q318.3 -122.65 333.0 -107.95 347.6 -93.35 347.6 -72.65 347.6 -51.95 333.0 -37.25 318.3 -22.65 297.6 -22.65 276.9 -22.65 262.3 -37.25 247.6 -51.95 247.6 -72.65 247.6 -93.35 262.3 -107.95 276.9 -122.65 297.6 -122.65" fill="#cccc00" fill-rule="evenodd" stroke="none"/>
    <path d="M201.45 -72.65 Q201.45 -112.5 229.6 -140.65 257.75 -168.8 297.6 -168.8 337.45 -168.8 365.6 -140.65 393.75 -112.5 393.75 -72.65 393.75 -32.8 365.6 -4.65 337.45 23.5 297.6 23.5 257.75 23.5 229.6 -4.65 201.45 -32.8 201.45 -72.65 M216.85 -72.65 Q216.85 -39.15 240.55 -15.5 264.15 8.15 297.6 8.15 331.05 8.15 354.75 -15.5 378.4 -39.15 378.4 -72.65 378.4 -106.1 354.75 -129.7 331.05 -153.4 297.6 -153.4 264.15 -153.4 240.55 -129.7 216.85 -106.1 216.85 -72.65" fill="#a63300" fill-rule="evenodd" stroke="none"/>
    <path d="M269.95 -72.6 Q269.95 -84.05 278.05 -92.2 286.15 -100.25 297.65 -100.25 309.15 -100.25 317.2 -92.2 325.35 -84.05 325.35 -72.6 325.35 -61.1 317.2 -53.0 309.15 -44.9 297.65 -44.9 286.15 -44.9 278.05 -53.0 269.95 -61.1 269.95 -72.6" fill="#663300" fill-rule="evenodd" stroke="none"/>
    <path d="M-172.3 -92.3 Q-172.3 -98.7 -167.8 -103.2 -163.3 -107.7 -156.9 -107.7 -150.5 -107.7 -146.05 -103.2 -141.5 -98.7 -141.5 -92.3 -141.5 -85.9 -146.05 -81.4 -150.5 -76.9 -156.9 -76.9 -163.3 -76.9 -167.8 -81.4 -172.3 -85.9 -172.3 -92.3" fill="#663300" fill-rule="evenodd" stroke="none"/>
    <path d="M-356.95 -161.5 Q-356.95 -151.9 -363.7 -145.2 -370.45 -138.4 -380.0 -138.4 -389.6 -138.4 -396.35 -145.2 -403.1 -151.9 -403.1 -161.5 -403.1 -171.05 -396.35 -177.85 -389.6 -184.55 -380.0 -184.55 -370.45 -184.55 -363.7 -177.85 -356.95 -171.05 -356.95 -161.5" fill="#663300" fill-rule="evenodd" stroke="none"/>
    <path d="M139.3 -211.65 Q158.45 -192.5 158.45 -165.4 158.45 -138.35 139.3 -119.15 120.15 -100.0 93.1 -100.0 66.0 -100.0 46.85 -119.15 27.7 -138.35 27.7 -165.4 27.7 -192.5 46.85 -211.65 66.0 -230.8 93.1 -230.8 120.15 -230.8 139.3 -211.65 M128.45 -200.7 Q113.75 -215.4 93.1 -215.4 72.4 -215.4 57.75 -200.7 43.1 -186.1 43.1 -165.4 43.1 -144.7 57.75 -130.0 72.4 -115.4 93.1 -115.4 113.75 -115.4 128.45 -130.0 143.1 -144.7 143.1 -165.4 143.1 -186.1 128.45 -200.7" fill="#a63300" fill-rule="evenodd" stroke="none"/>
    <path d="M128.45 -200.7 Q143.1 -186.1 143.1 -165.4 143.1 -144.7 128.45 -130.0 113.75 -115.4 93.1 -115.4 72.4 -115.4 57.75 -130.0 43.1 -144.7 43.1 -165.4 43.1 -186.1 57.75 -200.7 72.4 -215.4 93.1 -215.4 113.75 -215.4 128.45 -200.7 M93.1 -130.8 Q107.4 -130.8 117.55 -140.95 127.7 -151.1 127.7 -165.4 127.7 -179.7 117.55 -189.85 107.4 -200.0 93.1 -200.0 78.75 -200.0 68.6 -189.85 58.45 -179.7 58.45 -165.4 58.45 -151.1 68.6 -140.95 78.75 -130.8 93.1 -130.8" fill="#b36600" fill-rule="evenodd" stroke="none"/>
    <path d="M112.3 -165.4 Q112.3 -173.35 106.7 -178.95 101.0 -184.65 93.1 -184.65 85.15 -184.65 79.55 -178.95 73.85 -173.35 73.85 -165.4 73.85 -157.5 79.55 -151.8 85.15 -146.15 93.1 -146.15 101.0 -146.15 106.7 -151.8 112.3 -157.5 112.3 -165.4 M93.1 -130.8 Q78.75 -130.8 68.6 -140.95 58.45 -151.1 58.45 -165.4 58.45 -179.7 68.6 -189.85 78.75 -200.0 93.1 -200.0 107.4 -200.0 117.55 -189.85 127.7 -179.7 127.7 -165.4 127.7 -151.1 117.55 -140.95 107.4 -130.8 93.1 -130.8" fill="#bf9900" fill-rule="evenodd" stroke="none"/>
    <path d="M112.3 -165.4 Q112.3 -157.5 106.7 -151.8 101.0 -146.15 93.1 -146.15 85.15 -146.15 79.55 -151.8 73.85 -157.5 73.85 -165.4 73.85 -173.35 79.55 -178.95 85.15 -184.65 93.1 -184.65 101.0 -184.65 106.7 -178.95 112.3 -173.35 112.3 -165.4" fill="#cccc00" fill-rule="evenodd" stroke="none"/>
    <path d="M-154.4 116.2 Q-159.15 124.45 -168.4 126.9 -177.65 129.4 -185.95 124.65 -190.65 121.9 -193.45 117.7 -195.55 114.7 -196.6 110.9 L-202.65 88.3 -180.35 82.3 Q-171.1 79.85 -162.85 84.65 -154.55 89.4 -152.05 98.65 -149.6 107.9 -154.4 116.2" fill="#043e2d" fill-rule="evenodd" stroke="none"/>
    <path d="M130.35 22.15 L124.3 44.75 Q123.25 48.55 121.15 51.55 118.35 55.75 113.65 58.5 105.35 63.25 96.1 60.75 86.85 58.3 82.1 50.05 77.3 41.75 79.75 32.5 82.25 23.25 90.55 18.5 98.8 13.7 108.05 16.15 L130.35 22.15" fill="#043e2d" fill-rule="evenodd" stroke="none"/>
    <path d="M344.4 79.2 Q350.6 82.8 352.45 89.7 354.3 96.6 350.7 102.8 347.15 108.95 340.25 110.8 333.3 112.65 327.15 109.15 323.6 107.05 321.5 103.95 319.9 101.7 319.15 98.85 L314.65 82.0 331.35 77.5 Q338.25 75.65 344.4 79.2" fill="#043e2d" fill-rule="evenodd" stroke="none"/>
    <path d="M-373.3 30.4 Q-379.45 33.9 -386.4 32.05 -393.3 30.2 -396.85 24.05 -400.45 17.85 -398.6 10.95 -396.75 4.05 -390.55 0.45 -384.4 -3.1 -377.5 -1.25 L-360.8 3.25 -365.3 20.1 Q-366.05 22.95 -367.65 25.2 -369.75 28.3 -373.3 30.4" fill="#043e2d" fill-rule="evenodd" stroke="none"/>
  </g>
</svg>
