<?xml version="1.0" encoding="UTF-8" standalone="no"?>
<svg xmlns:ffdec="https://www.free-decompiler.com/flash" xmlns:xlink="http://www.w3.org/1999/xlink" ffdec:objectType="shape" height="505.05px" width="960.0px" xmlns="http://www.w3.org/2000/svg">
  <g transform="matrix(1.0, 0.0, 0.0, 1.0, 480.0, 222.5)">
    <path d="M43.65 -148.35 L43.65 -192.0 0.0 -200.7 0.0 -142.9 43.65 -148.35 M152.75 -159.25 L152.75 -213.8 218.2 -198.5 218.2 -66.5 283.65 -82.9 283.65 -126.5 349.1 -132.0 349.1 82.95 414.55 74.2 414.55 -163.6 480.0 -170.15 480.0 282.55 414.55 282.55 414.55 117.85 349.1 126.55 349.1 282.55 283.65 282.55 283.65 26.2 218.2 17.5 218.2 282.55 152.75 282.55 152.75 178.95 65.45 171.3 65.45 282.55 -21.8 282.55 -21.8 -61.05 -109.1 -50.15 -109.1 282.55 -218.15 282.55 -218.15 91.65 -305.45 79.65 -305.45 282.55 -480.0 282.55 -480.0 135.3 -392.7 125.5 -392.7 -39.25 -305.45 -24.0 -305.45 30.55 -218.15 19.65 -218.15 -182.15 -109.1 -192.0 -109.1 -132.0 -21.8 -126.5 -21.8 -222.5 65.45 -213.8 65.45 -170.15 152.75 -159.25 M65.45 -126.5 L65.45 127.65 152.75 135.3 152.75 -115.6 65.45 -126.5 M-196.35 -160.35 L-196.35 -104.7 -130.9 -110.15 -130.9 -170.15 -196.35 -160.35 M-327.25 -7.6 L-370.9 -17.45 -370.9 26.2 -327.25 30.55 -327.25 -7.6 M436.4 -146.15 L436.4 -124.35 458.2 -126.5 458.2 -148.35 436.4 -146.15 M305.45 -108.0 L305.45 -86.15 327.3 -88.35 327.3 -110.15 305.45 -108.0 M174.55 -170.15 L196.4 -163.6 196.4 -185.45 174.55 -192.0 174.55 -170.15" fill="#151e3c" fill-rule="evenodd" stroke="none"/>
    <path d="M43.65 -148.35 L0.0 -142.9 0.0 -200.7 43.65 -192.0 43.65 -148.35 M174.55 -170.15 L174.55 -192.0 196.4 -185.45 196.4 -163.6 174.55 -170.15 M305.45 -108.0 L327.3 -110.15 327.3 -88.35 305.45 -86.15 305.45 -108.0 M436.4 -146.15 L458.2 -148.35 458.2 -126.5 436.4 -124.35 436.4 -146.15 M-327.25 -7.6 L-327.25 30.55 -370.9 26.2 -370.9 -17.45 -327.25 -7.6 M-196.35 -160.35 L-130.9 -170.15 -130.9 -110.15 -196.35 -104.7 -196.35 -160.35" fill="#323c56" fill-rule="evenodd" stroke="none"/>
  </g>
</svg>
