<?xml version="1.0" encoding="UTF-8" standalone="no"?>
<svg xmlns:ffdec="https://www.free-decompiler.com/flash" xmlns:xlink="http://www.w3.org/1999/xlink" ffdec:objectType="shape" height="601.95px" width="960.0px" xmlns="http://www.w3.org/2000/svg">
  <g transform="matrix(1.0, 0.0, 0.0, 1.0, 480.0, 269.95)">
    <path d="M-480.0 -43.6 L-480.0 -49.3 -475.55 -49.3 -473.4 -49.4 Q-448.9 -45.8 -429.9 -28.9 -425.1 -42.25 -414.3 -53.05 -394.85 -72.65 -367.25 -72.65 L-361.55 -72.4 Q-364.5 -80.65 -364.5 -90.05 -364.5 -105.05 -357.15 -117.05 -364.5 -125.2 -364.5 -136.45 -364.5 -148.55 -356.05 -157.05 -347.6 -165.55 -335.6 -165.5 -323.6 -165.55 -315.15 -157.05 -308.75 -150.6 -307.2 -142.05 -289.1 -140.4 -275.75 -127.0 -260.5 -111.65 -260.5 -90.05 -260.5 -88.05 -260.65 -86.1 -249.35 -80.1 -239.65 -70.35 -228.55 -59.2 -222.3 -46.0 -217.4 -35.65 -215.5 -24.05 -206.7 -43.7 -190.35 -60.15 -156.4 -94.25 -109.05 -95.8 -108.05 -103.05 -106.05 -109.95 -109.75 -112.8 -113.15 -116.25 -115.7 -118.75 -117.9 -121.4 -133.45 -140.2 -133.45 -165.5 -133.45 -194.4 -113.15 -214.75 -101.55 -226.45 -87.15 -231.45 -86.5 -246.95 -75.45 -258.1 L-75.4 -258.15 Q-63.55 -270.0 -46.8 -269.95 -30.0 -270.0 -18.2 -258.15 -6.35 -246.25 -6.35 -229.35 -6.4 -218.85 -10.95 -210.25 -2.6 -200.4 1.45 -188.7 45.6 -188.0 77.05 -156.45 82.75 -150.7 87.45 -144.45 92.65 -148.25 98.9 -149.45 100.6 -154.45 104.6 -158.45 111.6 -165.5 121.5 -165.5 131.4 -165.5 138.45 -158.45 145.45 -151.45 145.45 -141.5 145.45 -131.5 138.45 -124.45 L136.05 -122.35 136.2 -119.15 Q136.2 -106.3 127.2 -97.2 119.4 -89.35 108.8 -88.3 L109.2 -78.45 Q109.15 -40.1 86.55 -11.15 95.5 -5.4 103.5 2.65 119.4 18.65 126.5 38.3 L128.55 36.2 Q146.15 18.5 168.0 10.9 171.1 -10.85 183.3 -28.8 L182.1 -29.9 Q166.9 -45.2 166.95 -66.85 166.9 -88.45 182.1 -103.8 197.4 -119.1 218.9 -119.05 240.45 -119.1 255.65 -103.8 268.9 -90.5 270.65 -72.5 295.5 -71.25 315.75 -58.7 320.5 -66.75 327.5 -73.8 338.5 -84.8 351.75 -90.3 L351.75 -91.0 Q351.75 -94.4 352.15 -97.55 344.75 -100.05 338.75 -106.05 328.65 -116.25 328.65 -130.65 328.65 -145.05 338.75 -155.25 L338.75 -155.3 338.8 -155.35 338.85 -155.35 Q349.0 -165.5 363.3 -165.5 377.65 -165.5 387.8 -155.35 393.75 -149.35 396.2 -141.95 L402.85 -142.35 Q424.0 -142.35 438.9 -127.4 453.9 -112.3 453.9 -91.0 453.85 -73.9 444.15 -60.8 447.9 -55.05 450.45 -48.8 L461.4 -49.4 461.55 -49.4 480.0 -49.4 480.0 -43.6 473.1 -43.6 461.55 -43.6 446.65 -42.35 Q443.35 -52.4 436.95 -61.15 448.1 -73.75 448.1 -91.0 448.1 -109.9 434.85 -123.25 421.6 -136.55 402.85 -136.55 397.1 -136.55 391.85 -135.3 390.5 -144.4 383.7 -151.25 375.25 -159.7 363.3 -159.7 351.35 -159.7 342.9 -151.25 334.45 -142.7 334.45 -130.65 334.45 -118.65 342.9 -110.2 349.7 -103.35 358.75 -102.0 357.5 -96.75 357.55 -91.0 357.5 -88.65 357.75 -86.35 343.25 -81.4 331.6 -69.65 322.8 -60.85 317.85 -50.4 294.9 -66.85 265.15 -66.85 265.1 -86.05 251.55 -99.7 238.05 -113.3 218.9 -113.25 199.8 -113.3 186.2 -99.7 172.7 -86.05 172.7 -66.85 172.7 -47.65 186.2 -34.05 L191.1 -29.75 Q175.9 -9.85 173.25 15.3 150.65 22.25 132.6 40.35 127.9 45.05 124.0 50.1 118.25 25.7 99.4 6.75 89.35 -3.35 77.75 -9.65 103.4 -38.7 103.4 -78.45 103.4 -86.5 102.35 -94.1 L105.35 -93.9 Q115.75 -93.95 123.1 -101.3 130.4 -108.7 130.4 -119.15 130.4 -122.3 129.75 -125.15 132.2 -126.45 134.35 -128.6 139.65 -133.95 139.65 -141.5 139.65 -149.05 134.35 -154.35 129.0 -159.7 121.5 -159.7 114.0 -159.7 108.7 -154.35 104.4 -150.05 103.6 -144.25 94.3 -143.7 87.6 -136.95 L86.55 -135.8 Q80.75 -144.5 72.95 -152.35 42.5 -182.95 -0.6 -182.95 L-2.8 -182.9 Q-6.85 -197.8 -18.15 -209.6 -12.15 -218.25 -12.15 -229.35 -12.15 -243.85 -22.3 -254.05 -32.4 -264.2 -46.8 -264.15 -61.2 -264.2 -71.35 -254.05 -81.45 -243.85 -81.45 -229.35 L-81.4 -227.15 Q-96.9 -222.9 -109.05 -210.65 -127.65 -192.0 -127.65 -165.5 -127.7 -139.8 -110.1 -121.4 L-109.05 -120.35 Q-104.45 -115.7 -99.3 -112.2 -102.8 -101.6 -103.95 -90.05 L-104.55 -90.05 Q-152.4 -90.05 -186.25 -56.0 -206.65 -35.55 -214.7 -9.95 L-220.15 -12.85 Q-220.5 -21.05 -222.3 -28.6 -227.4 -49.8 -243.75 -66.2 -254.3 -76.85 -266.8 -82.75 -266.3 -86.3 -266.25 -90.05 -266.3 -109.25 -279.85 -122.9 -293.4 -136.5 -312.5 -136.45 -312.5 -146.1 -319.25 -152.9 -326.05 -159.7 -335.6 -159.7 -345.2 -159.7 -351.95 -152.9 -358.75 -146.1 -358.7 -136.45 -358.75 -126.85 -351.95 -120.05 L-349.5 -117.9 Q-358.7 -105.85 -358.7 -90.05 -358.7 -79.05 -354.3 -69.9 -356.25 -68.15 -358.1 -66.2 L-358.15 -66.2 -367.25 -66.85 Q-392.45 -66.85 -410.25 -48.95 -423.65 -35.5 -426.95 -17.75 L-429.75 -20.75 Q-448.8 -39.9 -474.25 -43.65 L-474.25 -43.6 -480.0 -43.6 M353.7 -140.35 L353.7 -140.3 353.7 -140.35" fill="#28140b" fill-rule="evenodd" stroke="none"/>
    <path d="M-480.0 -43.6 L-474.25 -43.6 -474.25 -43.65 Q-448.8 -39.9 -429.75 -20.75 L-426.95 -17.75 Q-423.65 -35.5 -410.25 -48.95 -392.45 -66.85 -367.25 -66.85 L-358.15 -66.2 -358.1 -66.2 Q-356.25 -68.15 -354.3 -69.9 -358.7 -79.05 -358.7 -90.05 -358.7 -105.85 -349.5 -117.9 L-351.95 -120.05 Q-358.75 -126.85 -358.7 -136.45 -358.75 -146.1 -351.95 -152.9 -345.2 -159.7 -335.6 -159.7 -326.05 -159.7 -319.25 -152.9 -312.5 -146.1 -312.5 -136.45 -293.4 -136.5 -279.85 -122.9 -266.3 -109.25 -266.25 -90.05 -266.3 -86.3 -266.8 -82.75 -254.3 -76.85 -243.75 -66.2 -227.4 -49.8 -222.3 -28.6 -220.5 -21.05 -220.15 -12.85 L-214.7 -9.95 Q-206.65 -35.55 -186.25 -56.0 -152.4 -90.05 -104.55 -90.05 L-103.95 -90.05 Q-102.8 -101.6 -99.3 -112.2 -104.45 -115.7 -109.05 -120.35 L-110.1 -121.4 Q-127.7 -139.8 -127.65 -165.5 -127.65 -192.0 -109.05 -210.65 -96.9 -222.9 -81.4 -227.15 L-81.45 -229.35 Q-81.45 -243.85 -71.35 -254.05 -61.2 -264.2 -46.8 -264.15 -32.4 -264.2 -22.3 -254.05 -12.15 -243.85 -12.15 -229.35 -12.15 -218.25 -18.15 -209.6 -6.85 -197.8 -2.8 -182.9 L-0.6 -182.95 Q42.5 -182.95 72.95 -152.35 80.75 -144.5 86.55 -135.8 L87.6 -136.95 Q94.3 -143.7 103.6 -144.25 104.4 -150.05 108.7 -154.35 114.0 -159.7 121.5 -159.7 129.0 -159.7 134.35 -154.35 139.65 -149.05 139.65 -141.5 139.65 -133.95 134.35 -128.6 132.2 -126.45 129.75 -125.15 130.4 -122.3 130.4 -119.15 130.4 -108.7 123.1 -101.3 115.75 -93.95 105.35 -93.9 L102.35 -94.1 Q103.4 -86.5 103.4 -78.45 103.4 -38.7 77.75 -9.65 89.35 -3.35 99.4 6.75 118.25 25.7 124.0 50.1 127.9 45.05 132.6 40.35 150.65 22.25 173.25 15.3 175.9 -9.85 191.1 -29.75 L186.2 -34.05 Q172.7 -47.65 172.7 -66.85 172.7 -86.05 186.2 -99.7 199.8 -113.3 218.9 -113.25 238.05 -113.3 251.55 -99.7 265.1 -86.05 265.15 -66.85 294.9 -66.85 317.85 -50.4 322.8 -60.85 331.6 -69.65 343.25 -81.4 357.75 -86.35 357.5 -88.65 357.55 -91.0 357.5 -96.75 358.75 -102.0 349.7 -103.35 342.9 -110.2 334.45 -118.65 334.45 -130.65 334.45 -142.7 342.9 -151.25 351.35 -159.7 363.3 -159.7 375.25 -159.7 383.7 -151.25 390.5 -144.4 391.85 -135.3 397.1 -136.55 402.85 -136.55 421.6 -136.55 434.85 -123.25 448.1 -109.9 448.1 -91.0 448.1 -73.75 436.95 -61.15 443.35 -52.4 446.65 -42.35 L461.55 -43.6 473.1 -43.6 480.0 -43.6 480.0 -32.0 462.65 -32.0 461.55 -32.0 448.6 -30.9 Q444.35 -30.2 440.7 -32.4 437.0 -34.7 435.65 -38.75 432.95 -47.05 427.65 -54.25 425.2 -57.6 425.4 -61.65 425.6 -65.8 428.35 -68.85 436.6 -78.2 436.55 -91.0 436.55 -105.1 426.65 -115.0 416.8 -124.95 402.85 -124.95 398.45 -124.95 394.5 -124.0 L388.25 -124.25 Q385.1 -125.3 383.0 -127.85 380.9 -130.4 380.4 -133.6 379.55 -138.95 375.55 -143.0 370.45 -148.1 363.3 -148.05 356.15 -148.05 351.05 -143.0 L351.0 -143.0 Q346.0 -137.85 346.0 -130.65 346.0 -123.5 351.05 -118.4 355.1 -114.35 360.45 -113.5 363.65 -113.0 366.15 -110.85 368.7 -108.75 369.75 -105.65 370.75 -102.55 370.0 -99.35 369.05 -95.4 369.1 -91.0 369.05 -89.15 369.25 -87.35 369.6 -83.45 367.4 -80.05 365.25 -76.7 361.5 -75.4 349.5 -71.2 339.75 -61.45 332.45 -54.1 328.3 -45.4 326.75 -42.3 323.8 -40.5 320.8 -38.7 317.4 -38.8 313.95 -38.95 311.15 -40.95 291.1 -55.3 265.15 -55.2 260.35 -55.2 256.95 -58.6 253.55 -62.05 253.55 -66.85 253.55 -81.25 243.4 -91.45 233.25 -101.65 218.9 -101.65 204.55 -101.65 194.4 -91.5 L194.4 -91.45 Q184.25 -81.25 184.25 -66.85 184.25 -52.45 194.4 -42.25 L198.15 -38.95 Q201.9 -36.0 202.5 -31.25 203.1 -26.5 200.25 -22.65 187.0 -5.35 184.75 16.55 184.4 19.95 182.15 22.65 179.9 25.4 176.65 26.45 156.7 32.6 140.8 48.55 136.6 52.75 133.05 57.25 130.25 60.85 125.8 61.55 121.35 62.3 117.6 59.75 113.8 57.2 112.75 52.8 107.65 31.5 91.2 15.0 82.4 6.1 72.25 0.55 69.1 -1.15 67.5 -4.35 65.85 -7.55 66.3 -11.1 66.7 -14.65 69.1 -17.35 91.85 -43.15 91.85 -78.45 91.85 -85.7 90.9 -92.55 90.4 -96.1 92.1 -99.35 93.7 -102.6 96.9 -104.3 100.1 -106.05 103.7 -105.65 L105.35 -105.55 Q110.95 -105.55 114.9 -109.5 118.85 -113.5 118.85 -119.15 118.85 -120.9 118.5 -122.5 117.6 -126.4 119.25 -130.0 120.9 -133.6 124.4 -135.45 125.35 -136.0 126.15 -136.8 128.1 -138.75 128.1 -141.5 128.1 -144.25 126.15 -146.15 124.2 -148.1 121.5 -148.05 118.8 -148.1 116.85 -146.15 115.35 -144.65 115.05 -142.65 114.45 -138.55 111.45 -135.75 108.4 -132.95 104.3 -132.65 99.35 -132.35 95.8 -128.75 L95.1 -128.05 Q92.65 -125.35 89.2 -124.5 85.7 -123.65 82.35 -124.95 79.0 -126.3 76.95 -129.35 71.75 -137.1 64.8 -144.1 37.7 -171.3 -0.6 -171.3 L-2.55 -171.3 Q-6.5 -171.2 -9.7 -173.6 -12.9 -176.0 -13.95 -179.85 -17.3 -191.95 -26.5 -201.6 -29.4 -204.6 -29.7 -208.7 -30.0 -212.9 -27.6 -216.3 -23.65 -222.0 -23.7 -229.35 -23.7 -239.0 -30.45 -245.8 -37.2 -252.6 -46.8 -252.55 -56.35 -252.55 -63.15 -245.8 L-63.2 -245.8 Q-69.9 -239.0 -69.9 -229.35 L-69.9 -227.75 Q-69.65 -223.65 -72.0 -220.3 -74.45 -217.0 -78.35 -215.9 -90.95 -212.4 -100.9 -202.45 -116.1 -187.15 -116.1 -165.5 -116.1 -143.85 -100.9 -128.55 -97.05 -124.7 -92.8 -121.8 -89.6 -119.6 -88.35 -115.9 -87.1 -112.2 -88.35 -108.5 -91.5 -99.15 -92.5 -88.85 -92.95 -84.45 -96.25 -81.4 -99.55 -78.45 -103.95 -78.45 L-104.55 -78.45 Q-147.6 -78.45 -178.05 -47.8 -196.4 -29.4 -203.7 -6.45 -204.8 -3.1 -207.6 -0.85 -210.4 1.35 -213.9 1.6 -217.45 1.85 -220.5 0.05 L-225.15 -2.4 Q-228.05 -3.8 -229.8 -6.5 -231.6 -9.2 -231.7 -12.35 -232.9 -38.9 -251.95 -58.05 -261.0 -67.15 -271.7 -72.2 -275.15 -73.85 -276.95 -77.25 -278.8 -80.65 -278.25 -84.4 -277.85 -87.15 -277.8 -90.05 -277.85 -104.45 -288.0 -114.7 -298.15 -124.9 -312.5 -124.85 -317.3 -124.85 -320.7 -128.25 -324.1 -131.65 -324.05 -136.45 -324.05 -141.3 -327.45 -144.7 -330.85 -148.1 -335.6 -148.05 -340.4 -148.1 -343.8 -144.7 -347.2 -141.3 -347.15 -136.45 -347.2 -131.65 -343.8 -128.25 L-342.45 -127.1 Q-338.7 -124.15 -338.1 -119.4 -337.5 -114.65 -340.35 -110.85 -347.25 -101.85 -347.15 -90.05 -347.2 -81.8 -343.9 -74.95 -342.2 -71.45 -342.9 -67.65 -343.7 -63.85 -346.55 -61.25 L-349.95 -58.05 -349.95 -58.0 Q-351.9 -56.1 -354.45 -55.2 -357.05 -54.35 -359.7 -54.75 L-367.25 -55.2 Q-387.65 -55.2 -402.05 -40.7 -412.9 -29.85 -415.6 -15.6 -416.45 -11.2 -420.0 -8.5 -423.6 -5.8 -428.05 -6.25 -432.5 -6.65 -435.5 -10.0 L-437.9 -12.5 Q-449.05 -23.7 -462.65 -28.75 L-480.0 -31.95 -480.0 -43.6 M479.85 332.0 L-480.0 332.0 -480.0 262.0 479.85 262.0 479.85 332.0 M-479.9 -19.15 L-479.9 -27.3 -463.8 -25.1 Q-451.0 -20.35 -440.55 -9.85 L-438.3 -7.45 Q-434.3 -3.05 -428.4 -2.45 -422.55 -1.9 -417.75 -5.5 -413.0 -9.1 -411.9 -14.9 -409.4 -28.05 -399.4 -38.05 -386.1 -51.45 -367.25 -51.45 L-360.25 -51.0 -360.2 -51.0 Q-356.7 -50.5 -353.25 -51.65 -349.9 -52.8 -347.35 -55.35 L-347.05 -55.65 -344.1 -58.4 -344.05 -58.45 Q-340.25 -61.9 -339.25 -66.9 L-339.25 -66.95 Q-338.25 -71.95 -340.5 -76.6 -343.45 -82.7 -343.4 -90.0 L-343.4 -90.05 Q-343.5 -100.55 -337.4 -108.55 -333.55 -113.6 -334.35 -119.9 -335.15 -126.2 -340.15 -130.1 L-340.2 -130.15 -341.1 -130.9 -341.15 -130.95 Q-343.4 -133.25 -343.4 -136.45 -343.4 -139.75 -341.1 -142.0 -338.85 -144.3 -335.6 -144.3 -332.4 -144.3 -330.1 -142.0 -327.8 -139.75 -327.8 -136.45 -327.85 -130.1 -323.35 -125.55 -318.85 -121.1 -312.5 -121.1 -299.75 -121.1 -290.7 -112.0 -281.6 -102.9 -281.55 -90.05 -281.6 -87.45 -281.95 -85.0 -282.7 -80.0 -280.25 -75.45 -277.85 -70.95 -273.3 -68.8 -263.2 -64.0 -254.6 -55.35 -236.6 -37.3 -235.45 -12.2 -235.3 -8.0 -232.95 -4.4 -230.6 -0.85 -226.8 1.0 -224.55 2.05 -222.4 3.35 -218.3 5.7 -213.6 5.4 -208.95 5.05 -205.25 2.15 -201.55 -0.8 -200.1 -5.3 L-200.1 -5.35 Q-193.05 -27.45 -175.4 -45.1 -146.05 -74.65 -104.55 -74.65 L-103.95 -74.65 Q-98.1 -74.65 -93.75 -78.6 -89.4 -82.6 -88.8 -88.5 -87.8 -98.3 -84.75 -107.3 -83.15 -112.2 -84.75 -117.1 -86.4 -121.95 -90.65 -124.9 L-90.7 -124.95 Q-94.65 -127.65 -98.25 -131.25 -112.35 -145.45 -112.35 -165.5 -112.35 -185.6 -98.25 -199.75 -89.05 -209.05 -77.35 -212.3 L-77.4 -212.3 Q-72.2 -213.7 -69.0 -218.1 -65.85 -222.5 -66.15 -227.85 L-66.15 -229.25 -66.15 -229.35 Q-66.15 -237.25 -60.8 -242.9 L-60.5 -243.15 Q-54.85 -248.8 -46.8 -248.8 -38.8 -248.8 -33.15 -243.15 -27.45 -237.45 -27.45 -229.35 L-27.45 -229.3 Q-27.4 -223.2 -30.7 -218.5 L-30.7 -218.45 Q-33.9 -213.9 -33.45 -208.4 -33.05 -202.95 -29.2 -199.0 -20.65 -190.05 -17.55 -178.8 -16.2 -173.7 -11.95 -170.55 -7.7 -167.4 -2.4 -167.5 L-0.6 -167.55 Q36.2 -167.55 62.1 -141.45 68.85 -134.7 73.85 -127.25 76.55 -123.25 81.0 -121.45 85.45 -119.75 90.05 -120.85 94.65 -122.0 97.9 -125.55 L97.85 -125.45 98.4 -126.0 98.45 -126.05 Q101.0 -128.65 104.55 -128.9 109.95 -129.25 114.0 -133.0 118.0 -136.7 118.75 -142.1 L118.75 -142.0 Q118.9 -142.85 119.55 -143.45 120.35 -144.3 121.5 -144.3 122.65 -144.3 123.5 -143.45 L123.55 -143.45 Q124.35 -142.65 124.35 -141.5 124.35 -140.35 123.55 -139.5 L123.5 -139.45 122.7 -138.8 Q118.05 -136.4 115.85 -131.6 113.65 -126.85 114.85 -121.7 L114.85 -121.65 115.1 -119.15 Q115.1 -115.1 112.25 -112.2 109.4 -109.35 105.4 -109.3 L105.35 -109.3 104.2 -109.35 104.15 -109.35 Q99.4 -109.95 95.15 -107.65 90.9 -105.35 88.75 -101.05 L88.75 -101.1 Q86.55 -96.8 87.2 -92.0 88.1 -85.4 88.1 -78.45 88.15 -44.6 66.3 -19.85 63.15 -16.25 62.55 -11.6 61.95 -6.9 64.15 -2.6 66.3 1.6 70.45 3.85 80.15 9.2 88.55 17.65 104.25 33.4 109.1 53.65 110.45 59.5 115.5 62.9 120.5 66.25 126.4 65.3 132.25 64.35 136.0 59.6 L136.05 59.6 Q139.4 55.25 143.45 51.25 158.65 35.95 177.75 30.05 L177.75 30.0 Q182.1 28.65 185.05 25.05 L185.05 25.1 Q188.0 21.45 188.45 16.9 190.6 -3.9 203.2 -20.35 L203.25 -20.35 Q207.05 -25.45 206.25 -31.75 205.4 -38.05 200.4 -41.9 198.65 -43.3 197.05 -44.95 188.0 -54.0 188.0 -66.85 188.0 -79.7 197.05 -88.85 L197.3 -89.15 Q206.3 -97.9 218.9 -97.9 231.7 -97.9 240.75 -88.8 249.8 -79.7 249.8 -66.85 249.8 -60.45 254.3 -55.95 258.8 -51.45 265.15 -51.45 289.9 -51.55 309.0 -37.9 312.7 -35.2 317.25 -35.0 321.8 -34.85 325.75 -37.3 L325.7 -37.25 Q329.65 -39.65 331.65 -43.75 335.55 -51.9 342.45 -58.75 L342.8 -59.2 Q351.75 -68.0 362.75 -71.8 367.7 -73.55 370.55 -78.0 373.45 -82.5 373.0 -87.7 L372.85 -91.0 Q372.8 -94.95 373.65 -98.5 374.65 -102.7 373.3 -106.8 L373.3 -106.85 Q371.9 -110.95 368.6 -113.7 L368.55 -113.75 Q365.25 -116.55 361.05 -117.2 356.85 -117.9 353.7 -121.1 349.75 -125.05 349.75 -130.65 349.75 -136.35 353.7 -140.35 L353.7 -140.3 353.7 -140.35 Q357.7 -144.3 363.3 -144.3 368.9 -144.35 372.9 -140.35 376.0 -137.2 376.7 -133.05 377.3 -128.8 380.1 -125.4 382.9 -122.05 387.05 -120.65 L387.1 -120.65 395.4 -120.35 402.85 -121.15 Q415.25 -121.15 424.0 -112.35 432.8 -103.5 432.8 -91.0 432.85 -79.65 425.55 -71.35 421.9 -67.3 421.65 -61.85 421.4 -56.45 424.65 -52.0 429.55 -45.3 432.1 -37.6 433.85 -32.2 438.75 -29.2 443.65 -26.2 449.25 -27.2 L461.55 -28.25 462.65 -28.25 479.95 -28.2 479.95 -20.25 462.65 -20.25 461.55 -20.25 450.6 -19.3 Q442.05 -17.8 434.6 -22.35 427.15 -26.9 424.5 -35.1 422.45 -41.4 418.5 -46.9 L418.2 -47.3 Q413.25 -54.0 413.65 -62.25 414.05 -70.45 419.55 -76.65 424.85 -82.7 424.8 -91.0 424.8 -100.2 418.3 -106.7 411.9 -113.15 402.85 -113.15 L402.8 -113.15 397.25 -112.55 397.3 -112.55 Q390.9 -111.0 384.6 -113.05 L384.5 -113.1 Q378.25 -115.2 374.0 -120.3 L373.95 -120.3 Q369.75 -125.35 368.8 -131.75 368.5 -133.4 367.2 -134.7 365.6 -136.3 363.3 -136.3 361.15 -136.3 359.6 -134.9 L359.35 -134.7 359.35 -134.65 359.15 -134.45 Q357.75 -132.85 357.75 -130.7 L357.75 -130.65 Q357.75 -128.4 359.35 -126.75 L359.4 -126.75 Q360.65 -125.45 362.35 -125.1 L362.3 -125.1 Q368.5 -124.15 373.4 -120.1 L373.75 -119.85 Q378.8 -115.6 380.9 -109.35 L381.05 -108.85 Q382.9 -102.8 381.4 -96.6 L381.45 -96.7 Q380.8 -94.0 380.85 -91.05 L380.85 -91.0 380.95 -88.45 Q381.7 -80.5 377.3 -73.7 L377.25 -73.65 377.15 -73.5 Q372.8 -66.85 365.4 -64.25 356.25 -61.05 348.7 -53.8 L348.15 -53.15 348.1 -53.1 Q342.4 -47.4 339.05 -40.7 L338.85 -40.25 Q335.85 -34.0 329.85 -30.4 L329.25 -30.05 Q323.5 -26.8 316.95 -27.0 L316.9 -27.0 Q309.95 -27.3 304.3 -31.4 L304.35 -31.4 Q287.3 -43.6 265.15 -43.45 255.5 -43.45 248.65 -50.3 241.8 -57.15 241.8 -66.8 L241.8 -66.85 Q241.8 -76.4 235.05 -83.15 228.35 -89.9 218.9 -89.9 209.6 -89.9 202.95 -83.45 L202.9 -83.4 202.6 -83.1 202.75 -83.2 Q196.0 -76.4 196.0 -66.85 196.0 -57.35 202.7 -50.6 L202.75 -50.55 205.35 -48.2 Q212.9 -42.3 214.15 -32.75 215.4 -23.25 209.6 -15.55 L209.1 -14.9 Q198.3 -0.45 196.4 17.75 195.7 24.65 191.2 30.15 L190.7 30.7 Q186.75 35.25 181.2 37.3 L180.1 37.7 Q162.9 43.05 149.15 56.9 145.45 60.55 142.35 64.55 L141.9 65.05 Q136.3 71.8 127.65 73.2 L127.7 73.2 Q118.65 74.65 111.0 69.5 103.4 64.35 101.3 55.45 L101.35 55.5 Q96.95 37.4 82.9 23.3 75.3 15.7 66.6 10.9 60.3 7.45 57.0 1.05 L57.0 1.0 Q53.7 -5.45 54.65 -12.6 55.5 -19.7 60.25 -25.1 L60.3 -25.15 Q80.15 -47.65 80.1 -78.45 80.1 -84.85 79.3 -90.9 78.25 -98.15 81.6 -104.7 L81.95 -105.35 Q84.25 -109.6 88.0 -112.45 83.2 -112.15 78.55 -113.85 L78.0 -114.05 Q71.3 -116.7 67.25 -122.75 L67.2 -122.75 Q62.6 -129.6 56.45 -135.8 32.9 -159.5 -0.45 -159.55 L-0.6 -159.55 -2.1 -159.5 -2.2 -159.5 Q-10.25 -159.3 -16.7 -164.15 L-16.75 -164.15 Q-23.2 -168.95 -25.3 -176.7 -27.9 -186.0 -34.95 -193.45 -40.8 -199.5 -41.4 -207.8 -42.05 -215.95 -37.5 -222.7 L-37.25 -223.1 Q-35.35 -225.75 -35.45 -229.25 L-35.45 -229.35 Q-35.45 -234.15 -38.8 -237.5 -42.1 -240.8 -46.75 -240.8 L-46.8 -240.8 Q-51.55 -240.8 -54.9 -237.45 L-55.0 -237.35 -55.3 -237.05 Q-58.15 -233.9 -58.15 -229.5 L-58.15 -229.4 -58.15 -229.15 -58.15 -229.05 -58.15 -228.25 Q-57.75 -220.3 -62.3 -213.7 L-62.45 -213.45 -62.5 -213.4 Q-67.25 -206.9 -74.85 -204.7 L-75.2 -204.6 -75.3 -204.55 Q-84.95 -201.8 -92.55 -194.1 -104.35 -182.3 -104.35 -165.5 -104.4 -148.75 -92.55 -136.9 -89.55 -133.85 -86.2 -131.55 L-85.75 -131.2 Q-79.6 -126.8 -77.2 -119.65 -74.7 -112.2 -77.2 -104.75 -79.95 -96.6 -80.85 -87.65 -81.75 -78.75 -88.35 -72.7 -95.0 -66.65 -103.95 -66.65 L-104.0 -66.65 -104.55 -66.65 Q-142.75 -66.65 -169.75 -39.45 -185.8 -23.4 -192.35 -3.35 L-192.5 -2.85 Q-194.65 3.95 -200.3 8.4 -205.95 12.9 -213.05 13.35 -220.2 13.85 -226.4 10.25 L-230.25 8.25 -230.35 8.2 Q-235.95 5.45 -239.45 0.3 L-239.65 -0.05 Q-243.2 -5.5 -243.45 -11.9 -244.5 -33.9 -260.3 -49.7 L-260.3 -49.75 Q-267.7 -57.2 -276.35 -61.4 L-276.7 -61.55 Q-283.65 -64.85 -287.3 -71.7 -291.0 -78.55 -289.85 -86.15 L-289.85 -86.2 -289.55 -90.0 -289.55 -90.05 Q-289.6 -99.6 -296.35 -106.35 -303.05 -113.1 -312.5 -113.1 -320.3 -113.1 -326.25 -117.5 -326.3 -110.0 -331.05 -103.7 -335.5 -97.85 -335.4 -90.1 L-335.4 -89.95 Q-335.5 -84.6 -333.3 -80.1 -329.9 -73.05 -331.4 -65.4 L-331.4 -65.35 Q-332.9 -57.75 -338.7 -52.5 L-338.75 -52.45 -341.35 -50.0 -341.45 -49.95 -341.7 -49.7 -341.85 -49.55 Q-345.65 -45.8 -350.65 -44.05 L-350.7 -44.05 Q-355.95 -42.3 -361.35 -43.05 L-367.25 -43.45 Q-382.8 -43.45 -393.7 -32.4 -401.95 -24.15 -404.05 -13.35 L-404.05 -13.4 Q-405.75 -4.55 -412.95 0.9 -420.25 6.35 -429.2 5.5 -438.1 4.6 -444.2 -2.1 L-446.2 -4.15 -446.25 -4.2 Q-455.1 -13.1 -465.8 -17.3 L-479.9 -19.15 M-335.45 -136.6 L-335.5 -136.6 -336.4 -137.15 Q-337.1 -137.55 -335.4 -136.5 L-335.45 -136.6" fill="#871c01" fill-rule="evenodd" stroke="none"/>
    <path d="M480.0 -32.0 L479.95 332.0 479.85 332.0 479.85 262.0 -480.0 262.0 -479.9 -19.15 -465.8 -17.3 Q-455.1 -13.1 -446.25 -4.2 L-446.2 -4.15 -444.2 -2.1 Q-438.1 4.6 -429.2 5.5 -420.25 6.35 -412.95 0.9 -405.75 -4.55 -404.05 -13.4 L-404.05 -13.35 Q-401.95 -24.15 -393.7 -32.4 -382.8 -43.45 -367.25 -43.45 L-361.35 -43.05 Q-355.95 -42.3 -350.7 -44.05 L-350.65 -44.05 Q-345.65 -45.8 -341.85 -49.55 L-341.7 -49.7 -341.45 -49.95 -341.35 -50.0 -338.75 -52.45 -338.7 -52.5 Q-332.9 -57.75 -331.4 -65.35 L-331.4 -65.4 Q-329.9 -73.05 -333.3 -80.1 -335.5 -84.6 -335.4 -89.95 L-335.4 -90.1 Q-335.5 -97.85 -331.05 -103.7 -326.3 -110.0 -326.25 -117.5 -320.3 -113.1 -312.5 -113.1 -303.05 -113.1 -296.35 -106.35 -289.6 -99.6 -289.55 -90.05 L-289.55 -90.0 -289.85 -86.2 -289.85 -86.15 Q-291.0 -78.55 -287.3 -71.7 -283.65 -64.85 -276.7 -61.55 L-276.35 -61.4 Q-267.7 -57.2 -260.3 -49.75 L-260.3 -49.7 Q-244.5 -33.9 -243.45 -11.9 -243.2 -5.5 -239.65 -0.05 L-239.45 0.3 Q-235.95 5.45 -230.35 8.2 L-230.25 8.25 -226.4 10.25 Q-220.2 13.85 -213.05 13.35 -205.95 12.9 -200.3 8.4 -194.65 3.95 -192.5 -2.85 L-192.35 -3.35 Q-185.8 -23.4 -169.75 -39.45 -142.75 -66.65 -104.55 -66.65 L-104.0 -66.65 -103.95 -66.65 Q-95.0 -66.65 -88.35 -72.7 -81.75 -78.75 -80.85 -87.65 -79.95 -96.6 -77.2 -104.75 -74.7 -112.2 -77.2 -119.65 -79.6 -126.8 -85.75 -131.2 L-86.2 -131.55 Q-89.55 -133.85 -92.55 -136.9 -104.4 -148.75 -104.35 -165.5 -104.35 -182.3 -92.55 -194.1 -84.95 -201.8 -75.3 -204.55 L-75.2 -204.6 -74.85 -204.7 Q-67.25 -206.9 -62.5 -213.4 L-62.45 -213.45 -62.3 -213.7 Q-57.75 -220.3 -58.15 -228.25 L-58.15 -229.05 -58.15 -229.15 -58.15 -229.4 -58.15 -229.5 Q-58.15 -233.9 -55.3 -237.05 L-55.0 -237.35 -54.9 -237.45 Q-51.55 -240.8 -46.8 -240.8 L-46.75 -240.8 Q-42.1 -240.8 -38.8 -237.5 -35.45 -234.15 -35.45 -229.35 L-35.45 -229.25 Q-35.35 -225.75 -37.25 -223.1 L-37.5 -222.7 Q-42.05 -215.95 -41.4 -207.8 -40.8 -199.5 -34.95 -193.45 -27.9 -186.0 -25.3 -176.7 -23.2 -168.95 -16.75 -164.15 L-16.7 -164.15 Q-10.25 -159.3 -2.2 -159.5 L-2.1 -159.5 -0.6 -159.55 -0.45 -159.55 Q32.9 -159.5 56.45 -135.8 62.6 -129.6 67.2 -122.75 L67.25 -122.75 Q71.3 -116.7 78.0 -114.05 L78.55 -113.85 Q83.2 -112.15 88.0 -112.45 84.25 -109.6 81.95 -105.35 L81.6 -104.7 Q78.25 -98.15 79.3 -90.9 80.1 -84.85 80.1 -78.45 80.15 -47.65 60.3 -25.15 L60.25 -25.1 Q55.5 -19.7 54.65 -12.6 53.7 -5.45 57.0 1.0 L57.0 1.05 Q60.3 7.45 66.6 10.9 75.3 15.7 82.9 23.3 96.95 37.4 101.35 55.5 L101.3 55.45 Q103.4 64.35 111.0 69.5 118.65 74.65 127.7 73.2 L127.65 73.2 Q136.3 71.8 141.9 65.05 L142.35 64.55 Q145.45 60.55 149.15 56.9 162.9 43.05 180.1 37.7 L181.2 37.3 Q186.75 35.25 190.7 30.7 L191.2 30.15 Q195.7 24.65 196.4 17.75 198.3 -0.45 209.1 -14.9 L209.6 -15.55 Q215.4 -23.25 214.15 -32.75 212.9 -42.3 205.35 -48.2 L202.75 -50.55 202.7 -50.6 Q196.0 -57.35 196.0 -66.85 196.0 -76.4 202.75 -83.2 L202.6 -83.1 202.9 -83.4 202.95 -83.45 Q209.6 -89.9 218.9 -89.9 228.35 -89.9 235.05 -83.15 241.8 -76.4 241.8 -66.85 L241.8 -66.8 Q241.8 -57.15 248.65 -50.3 255.5 -43.45 265.15 -43.45 287.3 -43.6 304.35 -31.4 L304.3 -31.4 Q309.95 -27.3 316.9 -27.0 L316.95 -27.0 Q323.5 -26.8 329.25 -30.05 L329.85 -30.4 Q335.85 -34.0 338.85 -40.25 L339.05 -40.7 Q342.4 -47.4 348.1 -53.1 L348.15 -53.15 348.7 -53.8 Q356.25 -61.05 365.4 -64.25 372.8 -66.85 377.15 -73.5 L377.25 -73.65 377.3 -73.7 Q381.7 -80.5 380.95 -88.45 L380.85 -91.0 380.85 -91.05 Q380.8 -94.0 381.45 -96.7 L381.4 -96.6 Q382.9 -102.8 381.05 -108.85 L380.9 -109.35 Q378.8 -115.6 373.75 -119.85 L373.4 -120.1 Q368.5 -124.15 362.3 -125.1 L362.35 -125.1 Q360.65 -125.45 359.4 -126.75 L359.35 -126.75 Q357.75 -128.4 357.75 -130.65 L357.75 -130.7 Q357.75 -132.85 359.15 -134.45 L359.35 -134.65 359.35 -134.7 359.6 -134.9 Q361.15 -136.3 363.3 -136.3 365.6 -136.3 367.2 -134.7 368.5 -133.4 368.8 -131.75 369.75 -125.35 373.95 -120.3 L374.0 -120.3 Q378.25 -115.2 384.5 -113.1 L384.6 -113.05 Q390.9 -111.0 397.3 -112.55 L397.25 -112.55 402.8 -113.15 402.85 -113.15 Q411.9 -113.15 418.3 -106.7 424.8 -100.2 424.8 -91.0 424.85 -82.7 419.55 -76.65 414.05 -70.45 413.65 -62.25 413.25 -54.0 418.2 -47.3 L418.5 -46.9 Q422.45 -41.4 424.5 -35.1 427.15 -26.9 434.6 -22.35 442.05 -17.8 450.6 -19.3 L461.55 -20.25 462.65 -20.25 479.95 -20.25 479.95 -28.2 462.65 -28.25 461.55 -28.25 449.25 -27.2 Q443.65 -26.2 438.75 -29.2 433.85 -32.2 432.1 -37.6 429.55 -45.3 424.65 -52.0 421.4 -56.45 421.65 -61.85 421.9 -67.3 425.55 -71.35 432.85 -79.65 432.8 -91.0 432.8 -103.5 424.0 -112.35 415.25 -121.15 402.85 -121.15 L395.4 -120.35 387.1 -120.65 387.05 -120.65 Q382.9 -122.05 380.1 -125.4 377.3 -128.8 376.7 -133.05 376.0 -137.2 372.9 -140.35 368.9 -144.35 363.3 -144.3 357.7 -144.3 353.7 -140.35 349.75 -136.35 349.75 -130.65 349.75 -125.05 353.7 -121.1 356.85 -117.9 361.05 -117.2 365.25 -116.55 368.55 -113.75 L368.6 -113.7 Q371.9 -110.95 373.3 -106.85 L373.3 -106.8 Q374.65 -102.7 373.65 -98.5 372.8 -94.95 372.85 -91.0 L373.0 -87.7 Q373.45 -82.5 370.55 -78.0 367.7 -73.55 362.75 -71.8 351.75 -68.0 342.8 -59.2 L342.45 -58.75 Q335.55 -51.9 331.65 -43.75 329.65 -39.65 325.7 -37.25 L325.75 -37.3 Q321.8 -34.85 317.25 -35.0 312.7 -35.2 309.0 -37.9 289.9 -51.55 265.15 -51.45 258.8 -51.45 254.3 -55.95 249.8 -60.45 249.8 -66.85 249.8 -79.7 240.75 -88.8 231.7 -97.9 218.9 -97.9 206.3 -97.9 197.3 -89.15 L197.05 -88.85 Q188.0 -79.7 188.0 -66.85 188.0 -54.0 197.05 -44.95 198.65 -43.3 200.4 -41.9 205.4 -38.05 206.25 -31.75 207.05 -25.45 203.25 -20.35 L203.2 -20.35 Q190.6 -3.9 188.45 16.9 188.0 21.45 185.05 25.1 L185.05 25.05 Q182.1 28.65 177.75 30.0 L177.75 30.05 Q158.65 35.95 143.45 51.25 139.4 55.25 136.05 59.6 L136.0 59.6 Q132.25 64.35 126.4 65.3 120.5 66.25 115.5 62.9 110.45 59.5 109.1 53.65 104.25 33.4 88.55 17.65 80.15 9.2 70.45 3.85 66.3 1.6 64.15 -2.6 61.95 -6.9 62.55 -11.6 63.15 -16.25 66.3 -19.85 88.15 -44.6 88.1 -78.45 88.1 -85.4 87.2 -92.0 86.55 -96.8 88.75 -101.1 L88.75 -101.05 Q90.9 -105.35 95.15 -107.65 99.4 -109.95 104.15 -109.35 L104.2 -109.35 105.35 -109.3 105.4 -109.3 Q109.4 -109.35 112.25 -112.2 115.1 -115.1 115.1 -119.15 L114.85 -121.65 114.85 -121.7 Q113.65 -126.85 115.85 -131.6 118.05 -136.4 122.7 -138.8 L123.5 -139.45 123.55 -139.5 Q124.35 -140.35 124.35 -141.5 124.35 -142.65 123.55 -143.45 L123.5 -143.45 Q122.65 -144.3 121.5 -144.3 120.35 -144.3 119.55 -143.45 118.9 -142.85 118.75 -142.0 L118.75 -142.1 Q118.0 -136.7 114.0 -133.0 109.95 -129.25 104.55 -128.9 101.0 -128.65 98.45 -126.05 L98.4 -126.0 97.85 -125.45 97.9 -125.55 Q94.65 -122.0 90.05 -120.85 85.45 -119.75 81.0 -121.45 76.55 -123.25 73.85 -127.25 68.85 -134.7 62.1 -141.45 36.2 -167.55 -0.6 -167.55 L-2.4 -167.5 Q-7.7 -167.4 -11.95 -170.55 -16.2 -173.7 -17.55 -178.8 -20.65 -190.05 -29.2 -199.0 -33.05 -202.95 -33.45 -208.4 -33.9 -213.9 -30.7 -218.45 L-30.7 -218.5 Q-27.4 -223.2 -27.45 -229.3 L-27.45 -229.35 Q-27.45 -237.45 -33.15 -243.15 -38.8 -248.8 -46.8 -248.8 -54.85 -248.8 -60.5 -243.15 L-60.8 -242.9 Q-66.15 -237.25 -66.15 -229.35 L-66.15 -229.25 -66.15 -227.85 Q-65.85 -222.5 -69.0 -218.1 -72.2 -213.7 -77.4 -212.3 L-77.35 -212.3 Q-89.05 -209.05 -98.25 -199.75 -112.35 -185.6 -112.35 -165.5 -112.35 -145.45 -98.25 -131.25 -94.65 -127.65 -90.7 -124.95 L-90.65 -124.9 Q-86.4 -121.95 -84.75 -117.1 -83.15 -112.2 -84.75 -107.3 -87.8 -98.3 -88.8 -88.5 -89.4 -82.6 -93.75 -78.6 -98.1 -74.65 -103.95 -74.65 L-104.55 -74.65 Q-146.05 -74.65 -175.4 -45.1 -193.05 -27.45 -200.1 -5.35 L-200.1 -5.3 Q-201.55 -0.8 -205.25 2.15 -208.95 5.05 -213.6 5.4 -218.3 5.7 -222.4 3.35 -224.55 2.05 -226.8 1.0 -230.6 -0.85 -232.95 -4.4 -235.3 -8.0 -235.45 -12.2 -236.6 -37.3 -254.6 -55.35 -263.2 -64.0 -273.3 -68.8 -277.85 -70.95 -280.25 -75.45 -282.7 -80.0 -281.95 -85.0 -281.6 -87.45 -281.55 -90.05 -281.6 -102.9 -290.7 -112.0 -299.75 -121.1 -312.5 -121.1 -318.85 -121.1 -323.35 -125.55 -327.85 -130.1 -327.8 -136.45 -327.8 -139.75 -330.1 -142.0 -332.4 -144.3 -335.6 -144.3 -338.85 -144.3 -341.1 -142.0 -343.4 -139.75 -343.4 -136.45 -343.4 -133.25 -341.15 -130.95 L-341.1 -130.9 -340.2 -130.15 -340.15 -130.1 Q-335.15 -126.2 -334.35 -119.9 -333.55 -113.6 -337.4 -108.55 -343.5 -100.55 -343.4 -90.05 L-343.4 -90.0 Q-343.45 -82.7 -340.5 -76.6 -338.25 -71.95 -339.25 -66.95 L-339.25 -66.9 Q-340.25 -61.9 -344.05 -58.45 L-344.1 -58.4 -347.05 -55.65 -347.35 -55.35 Q-349.9 -52.8 -353.25 -51.65 -356.7 -50.5 -360.2 -51.0 L-360.25 -51.0 -367.25 -51.45 Q-386.1 -51.45 -399.4 -38.05 -409.4 -28.05 -411.9 -14.9 -413.0 -9.1 -417.75 -5.5 -422.55 -1.9 -428.4 -2.45 -434.3 -3.05 -438.3 -7.45 L-440.55 -9.85 Q-451.0 -20.35 -463.8 -25.1 L-479.9 -27.3 -479.9 -27.35 -480.0 -27.3 -480.0 -31.95 -462.65 -28.75 Q-449.05 -23.7 -437.9 -12.5 L-435.5 -10.0 Q-432.5 -6.65 -428.05 -6.25 -423.6 -5.8 -420.0 -8.5 -416.45 -11.2 -415.6 -15.6 -412.9 -29.85 -402.05 -40.7 -387.65 -55.2 -367.25 -55.2 L-359.7 -54.75 Q-357.05 -54.35 -354.45 -55.2 -351.9 -56.1 -349.95 -58.0 L-349.95 -58.05 -346.55 -61.25 Q-343.7 -63.85 -342.9 -67.65 -342.2 -71.45 -343.9 -74.95 -347.2 -81.8 -347.15 -90.05 -347.25 -101.85 -340.35 -110.85 -337.5 -114.65 -338.1 -119.4 -338.7 -124.15 -342.45 -127.1 L-343.8 -128.25 Q-347.2 -131.65 -347.15 -136.45 -347.2 -141.3 -343.8 -144.7 -340.4 -148.1 -335.6 -148.05 -330.85 -148.1 -327.45 -144.7 -324.05 -141.3 -324.05 -136.45 -324.1 -131.65 -320.7 -128.25 -317.3 -124.85 -312.5 -124.85 -298.15 -124.9 -288.0 -114.7 -277.85 -104.45 -277.8 -90.05 -277.85 -87.15 -278.25 -84.4 -278.8 -80.65 -276.95 -77.25 -275.15 -73.85 -271.7 -72.2 -261.0 -67.15 -251.95 -58.05 -232.9 -38.9 -231.7 -12.35 -231.6 -9.2 -229.8 -6.5 -228.05 -3.8 -225.15 -2.4 L-220.5 0.05 Q-217.45 1.85 -213.9 1.6 -210.4 1.35 -207.6 -0.85 -204.8 -3.1 -203.7 -6.45 -196.4 -29.4 -178.05 -47.8 -147.6 -78.45 -104.55 -78.45 L-103.95 -78.45 Q-99.55 -78.45 -96.25 -81.4 -92.95 -84.45 -92.5 -88.85 -91.5 -99.15 -88.35 -108.5 -87.1 -112.2 -88.35 -115.9 -89.6 -119.6 -92.8 -121.8 -97.05 -124.7 -100.9 -128.55 -116.1 -143.85 -116.1 -165.5 -116.1 -187.15 -100.9 -202.45 -90.95 -212.4 -78.35 -215.9 -74.45 -217.0 -72.0 -220.3 -69.65 -223.65 -69.9 -227.75 L-69.9 -229.35 Q-69.9 -239.0 -63.2 -245.8 L-63.15 -245.8 Q-56.35 -252.55 -46.8 -252.55 -37.2 -252.6 -30.45 -245.8 -23.7 -239.0 -23.7 -229.35 -23.65 -222.0 -27.6 -216.3 -30.0 -212.9 -29.7 -208.7 -29.4 -204.6 -26.5 -201.6 -17.3 -191.95 -13.95 -179.85 -12.9 -176.0 -9.7 -173.6 -6.5 -171.2 -2.55 -171.3 L-0.6 -171.3 Q37.7 -171.3 64.8 -144.1 71.75 -137.1 76.95 -129.35 79.0 -126.3 82.35 -124.95 85.7 -123.65 89.2 -124.5 92.65 -125.35 95.1 -128.05 L95.8 -128.75 Q99.35 -132.35 104.3 -132.65 108.4 -132.95 111.45 -135.75 114.45 -138.55 115.05 -142.65 115.35 -144.65 116.85 -146.15 118.8 -148.1 121.5 -148.05 124.2 -148.1 126.15 -146.15 128.1 -144.25 128.1 -141.5 128.1 -138.75 126.15 -136.8 125.35 -136.0 124.4 -135.45 120.9 -133.6 119.25 -130.0 117.6 -126.4 118.5 -122.5 118.85 -120.9 118.85 -119.15 118.85 -113.5 114.9 -109.5 110.95 -105.55 105.35 -105.55 L103.7 -105.65 Q100.1 -106.05 96.9 -104.3 93.7 -102.6 92.1 -99.35 90.4 -96.1 90.9 -92.55 91.85 -85.7 91.85 -78.45 91.85 -43.15 69.1 -17.35 66.7 -14.65 66.3 -11.1 65.85 -7.55 67.5 -4.35 69.1 -1.15 72.25 0.55 82.4 6.1 91.2 15.0 107.65 31.5 112.75 52.8 113.8 57.2 117.6 59.75 121.35 62.3 125.8 61.55 130.25 60.85 133.05 57.25 136.6 52.75 140.8 48.55 156.7 32.6 176.65 26.45 179.9 25.4 182.15 22.65 184.4 19.95 184.75 16.55 187.0 -5.35 200.25 -22.65 203.1 -26.5 202.5 -31.25 201.9 -36.0 198.15 -38.95 L194.4 -42.25 Q184.25 -52.45 184.25 -66.85 184.25 -81.25 194.4 -91.45 L194.4 -91.5 Q204.55 -101.65 218.9 -101.65 233.25 -101.65 243.4 -91.45 253.55 -81.25 253.55 -66.85 253.55 -62.05 256.95 -58.6 260.35 -55.2 265.15 -55.2 291.1 -55.3 311.15 -40.95 313.95 -38.95 317.4 -38.8 320.8 -38.7 323.8 -40.5 326.75 -42.3 328.3 -45.4 332.45 -54.1 339.75 -61.45 349.5 -71.2 361.5 -75.4 365.25 -76.7 367.4 -80.05 369.6 -83.45 369.25 -87.35 369.05 -89.15 369.1 -91.0 369.05 -95.4 370.0 -99.35 370.75 -102.55 369.75 -105.65 368.7 -108.75 366.15 -110.85 363.65 -113.0 360.45 -113.5 355.1 -114.35 351.05 -118.4 346.0 -123.5 346.0 -130.65 346.0 -137.85 351.0 -143.0 L351.05 -143.0 Q356.15 -148.05 363.3 -148.05 370.45 -148.1 375.55 -143.0 379.55 -138.95 380.4 -133.6 380.9 -130.4 383.0 -127.85 385.1 -125.3 388.25 -124.25 L394.5 -124.0 Q398.45 -124.95 402.85 -124.95 416.8 -124.95 426.65 -115.0 436.55 -105.1 436.55 -91.0 436.6 -78.2 428.35 -68.85 425.6 -65.8 425.4 -61.65 425.2 -57.6 427.65 -54.25 432.95 -47.05 435.65 -38.75 437.0 -34.7 440.7 -32.4 444.35 -30.2 448.6 -30.9 L461.55 -32.0 462.65 -32.0 480.0 -32.0 M-335.45 -136.6 L-335.4 -136.5 Q-337.1 -137.55 -336.4 -137.15 L-335.5 -136.6 -335.45 -136.6" fill="#9e2d00" fill-rule="evenodd" stroke="none"/>
    <path d="M45.65 -29.4 Q25.8 -9.55 -2.25 -9.55 -30.3 -9.55 -50.15 -29.4 -70.0 -49.25 -70.0 -77.3 -70.0 -105.35 -50.15 -125.2 -30.3 -145.05 -2.25 -145.05 25.8 -145.05 45.65 -125.2 65.5 -105.35 65.5 -77.3 65.5 -49.25 45.65 -29.4 M307.0 -6.05 Q322.95 9.9 322.95 32.5 322.95 55.1 307.0 71.05 291.05 87.0 268.45 87.0 245.85 87.0 229.9 71.05 213.95 55.1 213.95 32.5 213.95 9.9 229.9 -6.05 245.85 -22.0 268.45 -22.0 291.05 -22.0 307.0 -6.05 M355.75 -39.2 Q366.6 -50.0 381.95 -50.0 397.3 -50.0 408.1 -39.2 418.95 -28.35 418.95 -13.0 418.95 2.35 408.1 13.15 397.3 24.0 381.95 24.0 366.6 24.0 355.75 13.15 344.95 2.35 344.95 -13.0 344.95 -28.35 355.75 -39.2 M440.0 33.0 Q450.35 33.0 457.65 40.3 465.0 47.65 465.0 58.0 465.0 68.35 457.65 75.65 450.35 83.0 440.0 83.0 429.65 83.0 422.3 75.65 415.0 68.35 415.0 58.0 415.0 47.65 422.3 40.3 429.65 33.0 440.0 33.0 M344.55 77.55 Q352.1 70.0 362.75 70.0 373.4 70.0 380.95 77.55 388.5 85.1 388.5 95.75 388.5 106.4 380.95 113.95 373.4 121.5 362.75 121.5 352.1 121.5 344.55 113.95 337.0 106.4 337.0 95.75 337.0 85.1 344.55 77.55 M431.95 140.0 Q436.1 140.0 439.0 142.9 441.95 145.85 441.95 150.0 441.95 154.15 439.0 157.05 436.1 160.0 431.95 160.0 427.8 160.0 424.85 157.05 421.95 154.15 421.95 150.0 421.95 145.85 424.85 142.9 427.8 140.0 431.95 140.0 M187.7 140.7 Q182.45 146.0 175.0 146.0 167.55 146.0 162.25 140.7 157.0 135.45 157.0 128.0 157.0 120.55 162.25 115.25 167.55 110.0 175.0 110.0 182.45 110.0 187.7 115.25 193.0 120.55 193.0 128.0 193.0 135.45 187.7 140.7 M267.85 139.9 Q264.8 143.0 260.45 143.0 256.1 143.0 253.0 139.9 249.95 136.85 249.95 132.5 249.95 128.15 253.0 125.05 256.1 122.0 260.45 122.0 264.8 122.0 267.85 125.05 270.95 128.15 270.95 132.5 270.95 136.85 267.85 139.9 M36.5 22.0 Q49.55 22.0 58.75 31.2 68.0 40.45 68.0 53.5 68.0 66.55 58.75 75.75 49.55 85.0 36.5 85.0 23.45 85.0 14.2 75.75 5.0 66.55 5.0 53.5 5.0 40.45 14.2 31.2 23.45 22.0 36.5 22.0 M23.8 173.15 Q20.0 169.35 20.0 163.95 20.0 158.55 23.8 154.75 27.6 150.95 33.0 150.95 38.4 150.95 42.2 154.75 46.0 158.55 46.0 163.95 46.0 169.35 42.2 173.15 38.4 176.95 33.0 176.95 27.6 176.95 23.8 173.15 M-368.45 -22.55 Q-361.6 -22.55 -356.8 -17.75 -351.95 -12.9 -351.95 -6.05 -351.95 0.8 -356.8 5.6 -361.6 10.45 -368.45 10.45 -375.3 10.45 -380.15 5.6 -384.95 0.8 -384.95 -6.05 -384.95 -12.9 -380.15 -17.75 -375.3 -22.55 -368.45 -22.55 M-308.25 -27.3 Q-301.5 -34.0 -291.95 -34.0 -282.4 -34.0 -275.7 -27.3 -268.95 -20.55 -268.95 -11.0 -268.95 -1.45 -275.7 5.25 -282.4 12.0 -291.95 12.0 -301.5 12.0 -308.25 5.25 -314.95 -1.45 -314.95 -11.0 -314.95 -20.55 -308.25 -27.3 M-95.65 -12.85 Q-86.5 -3.7 -86.5 9.25 -86.5 22.2 -95.65 31.35 -104.8 40.5 -117.75 40.5 -130.7 40.5 -139.85 31.35 -149.0 22.2 -149.0 9.25 -149.0 -3.7 -139.85 -12.85 -130.7 -22.0 -117.75 -22.0 -104.8 -22.0 -95.65 -12.85 M-60.75 86.0 Q-53.6 86.0 -48.55 91.05 -43.5 96.1 -43.5 103.25 -43.5 110.4 -48.55 115.45 -53.6 120.5 -60.75 120.5 -67.9 120.5 -72.95 115.45 -78.0 110.4 -78.0 103.25 -78.0 96.1 -72.95 91.05 -67.9 86.0 -60.75 86.0 M-151.2 142.8 Q-153.9 145.5 -157.75 145.5 -161.6 145.5 -164.3 142.8 -167.0 140.1 -167.0 136.25 -167.0 132.4 -164.3 129.7 -161.6 127.0 -157.75 127.0 -153.9 127.0 -151.2 129.7 -148.5 132.4 -148.5 136.25 -148.5 140.1 -151.2 142.8 M-212.85 82.15 Q-217.65 87.0 -224.5 87.0 -231.35 87.0 -236.2 82.15 -241.0 77.35 -241.0 70.5 -241.0 63.65 -236.2 58.8 -231.35 54.0 -224.5 54.0 -217.65 54.0 -212.85 58.8 -208.0 63.65 -208.0 70.5 -208.0 77.35 -212.85 82.15 M-298.05 141.9 Q-300.6 144.5 -304.2 144.5 -307.8 144.5 -310.4 141.9 -312.95 139.35 -312.95 135.75 -312.95 132.15 -310.4 129.55 -307.8 127.0 -304.2 127.0 -300.6 127.0 -298.05 129.55 -295.45 132.15 -295.45 135.75 -295.45 139.35 -298.05 141.9 M-374.25 93.7 Q-379.5 99.0 -386.95 99.0 -394.4 99.0 -399.7 93.7 -404.95 88.45 -404.95 81.0 -404.95 73.55 -399.7 68.25 -394.4 63.0 -386.95 63.0 -379.5 63.0 -374.25 68.25 -368.95 73.55 -368.95 81.0 -368.95 88.45 -374.25 93.7 M-450.95 163.75 Q-450.95 160.55 -448.7 158.25 -446.4 156.0 -443.2 156.0 -440.0 156.0 -437.75 158.25 -435.45 160.55 -435.45 163.75 -435.45 166.95 -437.75 169.2 -440.0 171.5 -443.2 171.5 -446.4 171.5 -448.7 169.2 -450.95 166.95 -450.95 163.75" fill="#c12702" fill-rule="evenodd" stroke="none"/>
  </g>
</svg>
