<?xml version="1.0" encoding="UTF-8" standalone="no"?>
<svg xmlns:ffdec="https://www.free-decompiler.com/flash" xmlns:xlink="http://www.w3.org/1999/xlink" ffdec:objectType="shape" height="510.65px" width="960.5px" xmlns="http://www.w3.org/2000/svg">
  <g transform="matrix(1.0, 0.0, 0.0, 1.0, 480.0, 210.95)">
    <path d="M480.05 299.7 L-480.0 299.7 -480.0 209.7 480.05 209.7 480.05 299.7" fill="url(#gradient0)" fill-rule="evenodd" stroke="none"/>
    <path d="M-46.3 209.7 L-62.05 209.7 -62.05 -150.7 -49.9 -150.7 -49.9 -162.8 -37.85 -162.8 -37.85 -174.8 -25.7 -174.8 -25.7 -186.85 10.65 -186.85 10.65 -210.95 22.8 -210.95 22.8 -186.85 59.1 -186.85 59.1 -174.8 71.25 -174.8 71.25 -162.8 83.35 -162.8 83.35 -150.7 95.45 -150.7 95.45 209.7 79.7 209.7 79.7 133.05 50.65 133.05 50.65 209.7 38.55 209.7 38.55 133.05 -5.1 133.05 -5.1 209.7 -17.25 209.7 -17.25 133.05 -46.3 133.05 -46.3 209.7 M79.7 -122.85 L50.65 -122.85 50.65 -96.15 79.7 -96.15 79.7 -122.85 M79.7 -85.25 L50.65 -85.25 50.65 -8.85 79.7 -8.85 79.7 -85.25 M38.55 -8.85 L38.55 -85.25 -5.1 -85.25 -5.1 -8.85 38.55 -8.85 M171.75 209.7 L107.55 209.7 107.55 -27.9 101.55 -27.9 113.65 -70.0 210.55 -70.0 222.65 -27.9 216.6 -27.9 216.6 209.7 200.85 209.7 200.85 131.45 171.75 131.45 171.75 209.7 M152.4 -8.85 L123.35 -8.85 123.35 24.75 152.4 24.75 152.4 -8.85 M38.55 -96.15 L38.55 -122.85 -5.1 -122.85 -5.1 -96.15 38.55 -96.15 M245.85 209.7 L228.7 209.7 228.7 -104.6 269.3 -104.6 269.3 -125.45 418.25 -125.45 418.25 -104.6 458.9 -104.6 458.9 209.7 441.7 209.7 441.7 126.25 404.75 126.25 404.7 209.7 387.5 209.7 387.5 126.25 350.6 126.25 350.55 209.7 337.0 209.7 337.0 126.25 300.0 126.25 300.0 209.7 282.85 209.7 282.85 126.25 245.85 126.25 245.85 209.7 M200.85 -8.85 L171.75 -8.85 171.75 24.75 200.85 24.75 200.85 -8.85 M245.85 -8.25 L282.85 -8.25 282.85 -27.5 245.85 -27.5 245.85 -8.25 M282.85 -81.3 L245.85 -81.3 245.85 -31.9 282.85 -31.9 282.85 -81.3 M300.0 -81.3 L300.0 -31.9 337.0 -31.9 337.0 -81.3 300.0 -81.3 M300.0 -27.5 L300.0 -8.25 337.0 -8.25 337.0 -27.5 300.0 -27.5 M404.75 -27.5 L404.75 -8.25 441.7 -8.25 441.7 -27.5 404.75 -27.5 M350.6 -27.5 L350.6 -8.25 387.5 -8.25 387.5 -27.5 350.6 -27.5 M441.7 78.85 L441.7 59.6 404.75 59.6 404.75 78.85 441.7 78.85 M387.5 -31.9 L387.5 -81.3 350.6 -81.3 350.6 -31.9 387.5 -31.9 M404.75 -81.3 L404.75 -31.9 441.7 -31.9 441.7 -81.3 404.75 -81.3 M441.7 55.2 L441.7 5.8 404.75 5.8 404.75 55.2 441.7 55.2 M387.5 94.1 L350.55 94.1 350.6 121.85 387.5 121.85 387.5 94.1 M337.0 55.2 L337.0 5.8 300.0 5.8 300.0 55.2 337.0 55.2 M350.6 59.6 L350.6 78.85 387.5 78.85 387.5 59.6 350.6 59.6 M337.0 78.85 L337.0 59.6 300.0 59.6 300.0 78.85 337.0 78.85 M387.5 5.8 L350.6 5.8 350.6 55.2 387.5 55.2 387.5 5.8 M404.75 121.85 L441.7 121.85 441.7 94.1 404.7 94.1 404.75 121.85 M337.0 121.85 L337.0 94.1 300.0 94.1 300.0 121.85 337.0 121.85 M282.85 5.8 L245.85 5.8 245.85 55.2 282.85 55.2 282.85 5.8 M245.85 78.85 L282.85 78.85 282.85 59.6 245.85 59.6 245.85 78.85 M282.85 94.1 L245.85 94.1 245.85 121.85 282.85 121.85 282.85 94.1 M200.85 35.9 L171.75 35.9 171.75 69.45 200.85 69.45 200.85 35.9 M152.4 35.9 L123.35 35.9 123.35 69.45 152.4 69.45 152.4 35.9 M200.85 80.65 L171.75 80.65 171.75 114.2 200.85 114.2 200.85 80.65 M152.4 80.65 L123.35 80.65 123.35 114.2 152.4 114.2 152.4 80.65 M79.7 2.1 L50.65 2.1 50.65 78.45 79.7 78.45 79.7 2.1 M79.7 89.4 L50.65 89.4 50.65 116.1 79.7 116.1 79.7 89.4 M38.55 78.45 L38.55 2.1 -5.1 2.1 -5.1 78.45 38.55 78.45 M152.4 131.45 L123.35 131.45 123.35 174.45 152.4 174.45 152.4 131.45 M38.55 116.1 L38.55 89.4 -5.1 89.4 -5.1 116.1 38.55 116.1 M-340.7 -66.45 L-340.7 -30.3 -304.3 -30.3 -304.3 -66.45 -340.7 -66.45 M-340.7 -162.8 L-340.7 -126.65 -304.3 -126.65 -304.3 -162.8 -340.7 -162.8 M-409.75 210.95 L-473.95 210.95 -474.0 29.9 -480.0 29.9 -467.9 -12.25 -370.95 -12.25 -358.85 29.9 -364.9 29.9 -364.9 210.95 -380.65 210.95 -380.65 132.65 -409.75 132.65 -409.75 210.95 M-340.7 -114.6 L-340.7 -78.5 -304.3 -78.5 -304.3 -114.6 -340.7 -114.6 M-340.7 209.7 L-352.8 209.7 -352.8 -186.85 -316.45 -186.85 -316.45 -210.95 -231.65 -210.95 -231.65 -186.85 -195.35 -186.85 -195.35 209.7 -207.4 209.7 -207.4 138.3 -243.75 138.3 -243.75 209.7 -255.9 209.7 -255.9 138.3 -292.2 138.3 -292.2 209.7 -304.3 209.7 -304.3 138.3 -340.7 138.3 -340.7 209.7 M-207.4 -126.65 L-207.4 -162.8 -243.75 -162.8 -243.75 -126.65 -207.4 -126.65 M-255.9 -126.65 L-255.9 -162.8 -292.2 -162.8 -292.2 -126.65 -255.9 -126.65 M-255.9 -114.6 L-292.2 -114.6 -292.2 -78.5 -255.9 -78.5 -255.9 -114.6 M-255.9 -30.3 L-255.9 -66.45 -292.2 -66.45 -292.2 -30.3 -255.9 -30.3 M-243.75 -66.45 L-243.75 -30.3 -207.4 -30.3 -207.4 -66.45 -243.75 -66.45 M-255.9 -18.3 L-292.2 -18.3 -292.2 17.85 -255.9 17.85 -255.9 -18.3 M-167.45 -92.25 L-167.45 -58.7 -134.75 -58.7 -134.75 -92.3 -167.45 -92.25 M-207.4 -18.3 L-243.75 -18.3 -243.75 17.85 -207.4 17.85 -207.4 -18.3 M-167.45 -47.5 L-167.45 -13.95 -134.75 -13.95 -134.75 -47.5 -167.45 -47.5 M-89.9 -58.7 L-89.9 -92.25 -122.6 -92.3 -122.6 -58.7 -89.9 -58.7 M-17.25 -122.85 L-46.3 -122.85 -46.3 -96.15 -17.25 -96.15 -17.25 -122.85 M-207.4 -114.6 L-243.75 -114.6 -243.75 -78.5 -207.4 -78.5 -207.4 -114.6 M-122.6 -47.5 L-122.6 -13.95 -89.9 -13.95 -89.9 -47.5 -122.6 -47.5 M-89.9 -2.75 L-122.6 -2.75 -122.6 30.75 -89.9 30.8 -89.9 -2.75 M-134.75 -2.75 L-167.45 -2.75 -167.45 30.8 -134.75 30.75 -134.75 -2.75 M-17.25 -8.85 L-17.25 -85.25 -46.3 -85.25 -46.3 -8.85 -17.25 -8.85 M-122.6 209.7 L-183.2 209.7 -183.2 -114.6 -74.15 -114.6 -74.15 209.7 -89.9 209.7 -89.9 137.45 -122.6 137.45 -122.6 209.7 M-304.3 -18.3 L-340.7 -18.3 -340.7 17.85 -304.3 17.85 -304.3 -18.3 M-17.25 78.45 L-17.25 2.1 -46.3 2.1 -46.3 78.45 -17.25 78.45 M-17.25 89.4 L-46.3 89.4 -46.3 116.1 -17.25 116.1 -17.25 89.4 M-134.75 75.45 L-134.75 41.95 -167.45 41.95 -167.45 75.45 -134.75 75.45 M-89.9 75.45 L-89.9 41.95 -122.6 41.95 -122.6 75.45 -89.9 75.45 M-89.9 86.7 L-122.6 86.7 -122.6 120.2 -89.9 120.2 -89.9 86.7 M-134.75 174.45 L-134.7 137.45 -167.45 137.45 -167.45 174.45 -134.75 174.45 M-134.75 120.2 L-134.75 86.7 -167.45 86.7 -167.45 120.2 -134.75 120.2 M-255.9 66.0 L-255.9 29.9 -292.2 29.9 -292.2 66.0 -255.9 66.0 M-207.4 66.0 L-207.4 29.9 -243.75 29.9 -243.75 66.0 -207.4 66.0 M-255.9 78.1 L-292.2 78.1 -292.2 114.2 -255.9 114.2 -255.9 78.1 M-304.3 66.0 L-304.3 29.9 -340.7 29.9 -340.7 66.0 -304.3 66.0 M-207.4 78.1 L-243.75 78.1 -243.75 114.2 -207.4 114.2 -207.4 78.1 M-304.3 114.2 L-304.3 78.1 -340.7 78.1 -340.7 114.2 -304.3 114.2 M-380.65 70.7 L-380.65 37.15 -409.75 37.15 -409.75 70.7 -380.65 70.7 M-429.15 81.9 L-458.2 81.9 -458.2 115.45 -429.15 115.45 -429.15 81.9 M-429.15 37.15 L-458.2 37.15 -458.2 70.7 -429.15 70.7 -429.15 37.15 M-429.15 175.65 L-429.15 132.65 -458.2 132.65 -458.2 175.65 -429.15 175.65 M-380.65 115.45 L-380.65 81.9 -409.75 81.9 -409.75 115.45 -380.65 115.45" fill="#000000" fill-rule="evenodd" stroke="none"/>
    <path d="M38.55 209.7 L-5.1 209.7 -5.1 133.05 38.55 133.05 38.55 209.7 M-17.25 209.7 L-46.3 209.7 -46.3 133.05 -17.25 133.05 -17.25 209.7 M79.7 -122.85 L79.7 -96.15 50.65 -96.15 50.65 -122.85 79.7 -122.85 M38.55 -8.85 L-5.1 -8.85 -5.1 -85.25 38.55 -85.25 38.55 -8.85 M200.85 209.7 L171.75 209.7 171.75 131.45 200.85 131.45 200.85 209.7 M152.4 -8.85 L152.4 24.75 123.35 24.75 123.35 -8.85 152.4 -8.85 M282.85 -81.3 L282.85 -31.9 245.85 -31.9 245.85 -81.3 282.85 -81.3 M245.85 -8.25 L245.85 -27.5 282.85 -27.5 282.85 -8.25 245.85 -8.25 M404.75 -81.3 L441.7 -81.3 441.7 -31.9 404.75 -31.9 404.75 -81.3 M387.5 -31.9 L350.6 -31.9 350.6 -81.3 387.5 -81.3 387.5 -31.9 M441.7 78.85 L404.75 78.85 404.75 59.6 441.7 59.6 441.7 78.85 M337.0 78.85 L300.0 78.85 300.0 59.6 337.0 59.6 337.0 78.85 M350.6 59.6 L387.5 59.6 387.5 78.85 350.6 78.85 350.6 59.6 M337.0 55.2 L300.0 55.2 300.0 5.8 337.0 5.8 337.0 55.2 M387.5 94.1 L387.5 121.85 350.6 121.85 350.55 94.1 387.5 94.1 M404.75 121.85 L404.7 94.1 441.7 94.1 441.7 121.85 404.75 121.85 M282.85 5.8 L282.85 55.2 245.85 55.2 245.85 5.8 282.85 5.8 M200.85 35.9 L200.85 69.45 171.75 69.45 171.75 35.9 200.85 35.9 M79.7 2.1 L79.7 78.45 50.65 78.45 50.65 2.1 79.7 2.1 M38.55 78.45 L-5.1 78.45 -5.1 2.1 38.55 2.1 38.55 78.45 M152.4 131.45 L152.4 174.45 123.35 174.45 123.35 131.45 152.4 131.45 M-340.7 -162.8 L-304.3 -162.8 -304.3 -126.65 -340.7 -126.65 -340.7 -162.8 M-340.7 -66.45 L-304.3 -66.45 -304.3 -30.3 -340.7 -30.3 -340.7 -66.45 M-380.65 210.95 L-409.75 210.95 -409.75 132.65 -380.65 132.65 -380.65 210.95 M-207.4 -126.65 L-243.75 -126.65 -243.75 -162.8 -207.4 -162.8 -207.4 -126.65 M-255.9 -114.6 L-255.9 -78.5 -292.2 -78.5 -292.2 -114.6 -255.9 -114.6 M-255.9 -18.3 L-255.9 17.85 -292.2 17.85 -292.2 -18.3 -255.9 -18.3 M-207.4 -114.6 L-207.4 -78.5 -243.75 -78.5 -243.75 -114.6 -207.4 -114.6 M-17.25 -122.85 L-17.25 -96.15 -46.3 -96.15 -46.3 -122.85 -17.25 -122.85 M-89.9 -58.7 L-122.6 -58.7 -122.6 -92.3 -89.9 -92.25 -89.9 -58.7 M-17.25 -8.85 L-46.3 -8.85 -46.3 -85.25 -17.25 -85.25 -17.25 -8.85 M-134.75 -2.75 L-134.75 30.75 -167.45 30.8 -167.45 -2.75 -134.75 -2.75 M-89.9 209.7 L-122.6 209.7 -122.6 137.45 -89.9 137.45 -89.9 209.7 M-304.3 -18.3 L-304.3 17.85 -340.7 17.85 -340.7 -18.3 -304.3 -18.3 M-89.9 75.45 L-122.6 75.45 -122.6 41.95 -89.9 41.95 -89.9 75.45 M-134.75 174.45 L-167.45 174.45 -167.45 137.45 -134.7 137.45 -134.75 174.45 M-207.4 66.0 L-243.75 66.0 -243.75 29.9 -207.4 29.9 -207.4 66.0 M-255.9 66.0 L-292.2 66.0 -292.2 29.9 -255.9 29.9 -255.9 66.0 M-207.4 78.1 L-207.4 114.2 -243.75 114.2 -243.75 78.1 -207.4 78.1 M-380.65 70.7 L-409.75 70.7 -409.75 37.15 -380.65 37.15 -380.65 70.7 M-429.15 175.65 L-458.2 175.65 -458.2 132.65 -429.15 132.65 -429.15 175.65" fill="#24515e" fill-rule="evenodd" stroke="none"/>
    <path d="M79.7 -85.25 L79.7 -8.85 50.65 -8.85 50.65 -85.25 79.7 -85.25 M300.0 -27.5 L337.0 -27.5 337.0 -8.25 300.0 -8.25 300.0 -27.5 M300.0 -81.3 L337.0 -81.3 337.0 -31.9 300.0 -31.9 300.0 -81.3 M245.85 78.85 L245.85 59.6 282.85 59.6 282.85 78.85 245.85 78.85 M79.7 89.4 L79.7 116.1 50.65 116.1 50.65 89.4 79.7 89.4 M-255.9 -126.65 L-292.2 -126.65 -292.2 -162.8 -255.9 -162.8 -255.9 -126.65 M-255.9 -30.3 L-292.2 -30.3 -292.2 -66.45 -255.9 -66.45 -255.9 -30.3 M-89.9 -2.75 L-89.9 30.8 -122.6 30.75 -122.6 -2.75 -89.9 -2.75 M-304.3 66.0 L-340.7 66.0 -340.7 29.9 -304.3 29.9 -304.3 66.0" fill="#a44424" fill-rule="evenodd" stroke="none"/>
    <path d="M79.7 209.7 L50.65 209.7 50.65 133.05 79.7 133.05 79.7 209.7 M38.55 -96.15 L-5.1 -96.15 -5.1 -122.85 38.55 -122.85 38.55 -96.15 M200.85 -8.85 L200.85 24.75 171.75 24.75 171.75 -8.85 200.85 -8.85 M350.6 -27.5 L387.5 -27.5 387.5 -8.25 350.6 -8.25 350.6 -27.5 M404.75 -27.5 L441.7 -27.5 441.7 -8.25 404.75 -8.25 404.75 -27.5 M350.55 209.7 L350.6 126.25 387.5 126.25 387.5 209.7 350.55 209.7 M404.7 209.7 L404.75 126.25 441.7 126.25 441.7 209.7 404.7 209.7 M337.0 121.85 L300.0 121.85 300.0 94.1 337.0 94.1 337.0 121.85 M282.85 209.7 L245.85 209.7 245.85 126.25 282.85 126.25 282.85 209.7 M200.85 80.65 L200.85 114.2 171.75 114.2 171.75 80.65 200.85 80.65 M152.4 35.9 L152.4 69.45 123.35 69.45 123.35 35.9 152.4 35.9 M38.55 116.1 L-5.1 116.1 -5.1 89.4 38.55 89.4 38.55 116.1 M-340.7 -114.6 L-304.3 -114.6 -304.3 -78.5 -340.7 -78.5 -340.7 -114.6 M-207.4 209.7 L-243.75 209.7 -243.75 138.3 -207.4 138.3 -207.4 209.7 M-304.3 209.7 L-340.7 209.7 -340.7 138.3 -304.3 138.3 -304.3 209.7 M-243.75 -66.45 L-207.4 -66.45 -207.4 -30.3 -243.75 -30.3 -243.75 -66.45 M-167.45 -92.25 L-134.75 -92.3 -134.75 -58.7 -167.45 -58.7 -167.45 -92.25 M-122.6 -47.5 L-89.9 -47.5 -89.9 -13.95 -122.6 -13.95 -122.6 -47.5 M-17.25 78.45 L-46.3 78.45 -46.3 2.1 -17.25 2.1 -17.25 78.45 M-134.75 75.45 L-167.45 75.45 -167.45 41.95 -134.75 41.95 -134.75 75.45 M-89.9 86.7 L-89.9 120.2 -122.6 120.2 -122.6 86.7 -89.9 86.7 M-255.9 78.1 L-255.9 114.2 -292.2 114.2 -292.2 78.1 -255.9 78.1 M-429.15 37.15 L-429.15 70.7 -458.2 70.7 -458.2 37.15 -429.15 37.15 M-380.65 115.45 L-409.75 115.45 -409.75 81.9 -380.65 81.9 -380.65 115.45" fill="#bd860b" fill-rule="evenodd" stroke="none"/>
    <path d="M441.7 55.2 L404.75 55.2 404.75 5.8 441.7 5.8 441.7 55.2 M387.5 5.8 L387.5 55.2 350.6 55.2 350.6 5.8 387.5 5.8 M337.0 209.7 L300.0 209.7 300.0 126.25 337.0 126.25 337.0 209.7 M282.85 94.1 L282.85 121.85 245.85 121.85 245.85 94.1 282.85 94.1 M152.4 80.65 L152.4 114.2 123.35 114.2 123.35 80.65 152.4 80.65 M-255.9 209.7 L-292.2 209.7 -292.2 138.3 -255.9 138.3 -255.9 209.7 M-167.45 -47.5 L-134.75 -47.5 -134.75 -13.95 -167.45 -13.95 -167.45 -47.5 M-207.4 -18.3 L-207.4 17.85 -243.75 17.85 -243.75 -18.3 -207.4 -18.3 M-17.25 89.4 L-17.25 116.1 -46.3 116.1 -46.3 89.4 -17.25 89.4 M-134.75 120.2 L-167.45 120.2 -167.45 86.7 -134.75 86.7 -134.75 120.2 M-304.3 114.2 L-340.7 114.2 -340.7 78.1 -304.3 78.1 -304.3 114.2 M-429.15 81.9 L-429.15 115.45 -458.2 115.45 -458.2 81.9 -429.15 81.9" fill="#e1d753" fill-rule="evenodd" stroke="none"/>
    <path d="M458.9 209.7 L480.0 209.7" fill="none" stroke="#000000" stroke-linecap="round" stroke-linejoin="round" stroke-width="1.0"/>
  </g>
  <defs>
    <linearGradient gradientTransform="matrix(0.0, 0.0513, -0.586, 0.0, 0.05, 256.05)" gradientUnits="userSpaceOnUse" id="gradient0" spreadMethod="pad" x1="-819.2" x2="819.2">
      <stop offset="0.0" stop-color="#000000"/>
      <stop offset="0.9882352941176471" stop-color="#333333"/>
    </linearGradient>
  </defs>
</svg>
