<?xml version="1.0" encoding="UTF-8" standalone="no"?>
<svg xmlns:ffdec="https://www.free-decompiler.com/flash" xmlns:xlink="http://www.w3.org/1999/xlink" ffdec:objectType="shape" height="370.15px" width="261.45px" xmlns="http://www.w3.org/2000/svg">
  <g transform="matrix(1.0, 0.0, 0.0, 1.0, 130.7, 185.05)">
    <path d="M60.25 123.7 L61.25 124.75 63.8 128.0 Q68.15 134.45 68.15 142.7 68.15 153.8 60.25 161.65 52.45 169.5 41.3 169.5 L34.6 168.75 Q32.5 171.9 29.65 174.75 19.35 185.1 4.75 185.1 -9.8 185.1 -20.15 174.75 -24.0 170.9 -26.35 166.5 -31.95 169.3 -38.7 169.3 -50.25 169.3 -58.45 161.1 -66.6 152.95 -66.6 141.4 -66.6 129.85 -58.45 121.65 L-56.35 119.7 -0.9 83.8 60.4 123.6 60.25 123.7 M60.1 130.5 L57.9 127.75 57.1 126.9 57.0 126.8 -0.9 89.2 -53.65 123.35 -55.25 124.85 Q-62.1 131.7 -62.1 141.4 -62.1 151.1 -55.25 157.95 -48.4 164.8 -38.7 164.8 -33.05 164.8 -28.4 162.5 -26.75 161.65 -25.0 162.25 -23.3 162.75 -22.4 164.35 -20.35 168.2 -16.95 171.6 -7.95 180.6 4.75 180.6 17.45 180.6 26.45 171.6 L26.5 171.55 Q29.0 169.05 30.85 166.3 31.6 165.05 32.95 164.55 L35.7 164.4 41.3 165.0 Q50.55 165.0 57.05 158.5 L57.1 158.45 Q63.65 151.95 63.65 142.7 63.7 135.85 60.1 130.45 L60.1 130.5" fill="#000000" fill-rule="evenodd" stroke="none"/>
    <path d="M60.1 130.5 L60.1 130.45 Q63.7 135.85 63.65 142.7 63.65 151.95 57.1 158.45 L57.05 158.5 Q50.55 165.0 41.3 165.0 L35.7 164.4 32.95 164.55 Q31.6 165.05 30.85 166.3 29.0 169.05 26.5 171.55 L26.45 171.6 Q17.45 180.6 4.75 180.6 -7.95 180.6 -16.95 171.6 -20.35 168.2 -22.4 164.35 -23.3 162.75 -25.0 162.25 -26.75 161.65 -28.4 162.5 -33.05 164.8 -38.7 164.8 -48.4 164.8 -55.25 157.95 -62.1 151.1 -62.1 141.4 -62.1 131.7 -55.25 124.85 L-53.65 123.35 -0.9 89.2 57.0 126.8 57.1 126.9 57.9 127.75 60.1 130.5 M56.4 133.05 L56.35 133.0 Q55.8 132.15 55.6 131.3 6.25 150.8 -53.3 129.4 -57.6 134.5 -57.6 141.4 -57.6 149.25 -52.1 154.75 L-52.05 154.75 Q-46.55 160.3 -38.7 160.3 L-38.65 160.3 Q-34.15 160.35 -30.4 158.45 -27.15 156.85 -23.65 157.9 -20.25 159.0 -18.5 162.2 L-18.45 162.2 Q-16.65 165.5 -13.75 168.4 L-13.8 168.4 Q-6.05 176.1 4.75 176.1 15.6 176.1 23.25 168.4 L23.3 168.4 23.3 168.35 27.1 163.8 Q28.6 161.4 31.3 160.4 34.0 159.3 36.75 160.05 L41.3 160.5 Q48.7 160.5 53.85 155.3 L53.9 155.3 53.9 155.25 Q59.15 150.1 59.15 142.7 59.2 137.25 56.4 133.05" fill="url(#gradient0)" fill-rule="evenodd" stroke="none"/>
    <path d="M56.4 133.05 Q59.2 137.25 59.15 142.7 59.15 150.1 53.9 155.25 L53.9 155.3 53.85 155.3 Q48.7 160.5 41.3 160.5 L36.75 160.05 Q34.0 159.3 31.3 160.4 28.6 161.4 27.1 163.8 L23.3 168.35 23.3 168.4 23.25 168.4 Q15.6 176.1 4.75 176.1 -6.05 176.1 -13.8 168.4 L-13.75 168.4 Q-16.65 165.5 -18.45 162.2 L-18.5 162.2 Q-20.25 159.0 -23.65 157.9 -27.15 156.85 -30.4 158.45 -34.15 160.35 -38.65 160.3 L-38.7 160.3 Q-46.55 160.3 -52.05 154.75 L-52.1 154.75 Q-57.6 149.25 -57.6 141.4 -57.6 134.5 -53.3 129.4 6.25 150.8 55.6 131.3 55.8 132.15 56.35 133.0 L56.4 133.05" fill="url(#gradient1)" fill-rule="evenodd" stroke="none"/>
    <path d="M-118.5 93.3 L-118.2 93.0 -54.0 65.65 -19.3 106.1 -18.75 106.7 Q-17.2 107.95 -15.8 109.6 -10.45 116.2 -11.3 124.6 -12.15 133.1 -18.65 138.4 -25.2 143.75 -33.65 142.9 -42.05 142.05 -47.4 135.55 L-47.45 135.5 -48.0 134.85 Q-48.95 133.6 -50.5 133.2 -52.15 132.85 -53.55 133.6 -54.95 134.3 -55.65 135.75 -57.7 140.4 -61.95 143.95 -69.05 149.7 -78.2 148.75 -87.4 147.85 -93.2 140.8 -95.9 137.4 -97.15 133.6 -97.65 132.1 -99.05 131.25 -100.45 130.35 -102.0 130.55 -104.5 130.9 -107.15 130.6 -115.9 129.75 -121.45 123.05 -127.0 116.2 -126.1 107.5 -125.25 98.75 -118.5 93.3 M-102.65 126.15 Q-99.4 125.65 -96.65 127.45 -93.9 129.15 -92.9 132.25 -91.9 135.25 -89.7 137.9 -85.05 143.6 -77.75 144.3 -70.5 145.05 -64.8 140.4 L-64.75 140.4 Q-61.4 137.6 -59.8 133.95 -58.45 131.0 -55.6 129.55 -52.7 128.15 -49.6 128.85 -46.4 129.55 -44.45 132.1 L-44.4 132.15 -44.0 132.6 -44.0 132.7 -43.95 132.7 Q-39.8 137.8 -33.2 138.45 -26.65 139.1 -21.55 134.95 L-21.5 134.95 Q-16.45 130.75 -15.8 124.15 -15.2 118.4 -18.3 113.8 -74.35 120.85 -116.8 97.85 -121.0 101.9 -121.6 107.95 -122.3 114.8 -118.0 120.15 -113.6 125.5 -106.75 126.15 -104.6 126.4 -102.65 126.15" fill="url(#gradient2)" fill-rule="evenodd" stroke="none"/>
    <path d="M-121.3 89.75 L-120.5 89.15 -52.7 60.2 -15.85 103.2 Q-13.95 104.75 -12.35 106.75 -5.8 114.8 -6.85 125.05 -7.85 135.35 -15.85 141.85 -23.8 148.45 -34.1 147.4 -44.4 146.4 -50.95 138.35 L-51.55 137.6 Q-54.0 143.15 -59.1 147.35 -67.65 154.35 -78.65 153.25 -89.65 152.15 -96.65 143.6 -99.95 139.6 -101.45 135.05 -104.4 135.45 -107.6 135.1 -118.15 134.05 -124.9 125.8 -131.65 117.65 -130.55 107.1 -129.5 96.55 -121.3 89.75 M-118.5 93.3 Q-125.25 98.75 -126.1 107.5 -127.0 116.2 -121.45 123.05 -115.9 129.75 -107.15 130.6 -104.5 130.9 -102.0 130.55 -100.45 130.35 -99.05 131.25 -97.65 132.1 -97.15 133.6 -95.9 137.4 -93.2 140.8 -87.4 147.85 -78.2 148.75 -69.05 149.7 -61.95 143.95 -57.7 140.4 -55.65 135.75 -54.95 134.3 -53.55 133.6 -52.15 132.85 -50.5 133.2 -48.95 133.6 -48.0 134.85 L-47.45 135.5 -47.4 135.55 Q-42.05 142.05 -33.65 142.9 -25.2 143.75 -18.65 138.4 -12.15 133.1 -11.3 124.6 -10.45 116.2 -15.8 109.6 -17.2 107.95 -18.75 106.7 L-19.3 106.1 -54.0 65.65 -118.2 93.0 -118.5 93.3" fill="#000000" fill-rule="evenodd" stroke="none"/>
    <path d="M-102.65 126.15 Q-104.6 126.4 -106.75 126.15 -113.6 125.5 -118.0 120.15 -122.3 114.8 -121.6 107.95 -121.0 101.9 -116.8 97.85 -74.35 120.85 -18.3 113.8 -15.2 118.4 -15.8 124.15 -16.45 130.75 -21.5 134.95 L-21.55 134.95 Q-26.65 139.1 -33.2 138.45 -39.8 137.8 -43.95 132.7 L-44.0 132.7 -44.0 132.6 -44.4 132.15 -44.45 132.1 Q-46.4 129.55 -49.6 128.85 -52.7 128.15 -55.6 129.55 -58.45 131.0 -59.8 133.95 -61.4 137.6 -64.75 140.4 L-64.8 140.4 Q-70.5 145.05 -77.75 144.3 -85.05 143.6 -89.7 137.9 -91.9 135.25 -92.9 132.25 -93.9 129.15 -96.65 127.45 -99.4 125.65 -102.65 126.15" fill="url(#gradient3)" fill-rule="evenodd" stroke="none"/>
    <path d="M113.8 87.15 Q61.75 123.25 9.1 117.25 L8.8 119.0 8.75 119.1 Q7.15 123.85 8.65 129.1 10.55 136.25 16.95 139.9 L16.95 139.95 17.0 139.9 Q23.35 143.65 30.45 141.7 32.75 141.1 34.7 140.05 37.2 138.65 40.05 139.0 42.9 139.3 45.05 141.2 47.2 143.05 49.85 144.6 L49.9 144.65 49.95 144.65 Q59.25 150.1 69.75 147.3 80.2 144.5 85.75 135.05 L85.7 135.05 Q87.75 131.5 88.6 127.85 89.5 124.3 92.5 122.35 95.6 120.4 99.2 121.15 L107.65 120.8 107.7 120.75 Q115.25 118.75 119.15 111.95 L119.2 111.95 Q123.05 105.2 121.05 97.6 119.25 90.95 113.8 87.15 M112.5 81.25 L114.5 82.25 Q122.9 87.1 125.4 96.45 127.9 105.85 123.1 114.25 118.25 122.6 108.85 125.1 103.4 126.55 98.3 125.6 96.5 125.15 94.95 126.2 93.4 127.15 93.0 128.95 92.0 133.15 89.6 137.35 83.25 148.3 70.95 151.6 58.7 154.9 47.65 148.6 L47.6 148.55 Q44.55 146.75 42.1 144.55 41.0 143.6 39.6 143.45 38.15 143.3 36.9 144.0 34.45 145.3 31.6 146.05 22.7 148.45 14.7 143.85 L14.65 143.8 Q6.65 139.2 4.3 130.25 2.45 123.65 4.55 117.55 L4.55 117.6 Q5.15 115.95 5.9 114.35 L6.5 113.3 52.8 61.9 112.5 81.25" fill="url(#gradient4)" fill-rule="evenodd" stroke="none"/>
    <path d="M114.25 77.0 L116.75 78.35 Q126.75 84.15 129.75 95.3 132.75 106.5 126.95 116.45 121.15 126.45 110.0 129.45 103.45 131.2 97.4 129.95 96.2 134.85 93.5 139.5 86.2 152.2 72.1 155.95 58.0 159.75 45.35 152.4 41.9 150.45 39.05 147.95 36.15 149.5 32.75 150.4 22.0 153.3 12.45 147.7 2.8 142.15 -0.05 131.4 -2.2 123.45 0.25 116.1 1.0 114.15 1.95 112.35 L2.6 111.1 2.45 111.0 51.4 56.7 114.25 77.0 M112.5 81.25 L52.8 61.9 6.5 113.3 5.9 114.35 Q5.15 115.95 4.55 117.6 L4.55 117.55 Q2.45 123.65 4.3 130.25 6.65 139.2 14.65 143.8 L14.7 143.85 Q22.7 148.45 31.6 146.05 34.45 145.3 36.9 144.0 38.15 143.3 39.6 143.45 41.0 143.6 42.1 144.55 44.55 146.75 47.6 148.55 L47.65 148.6 Q58.7 154.9 70.95 151.6 83.25 148.3 89.6 137.35 92.0 133.15 93.0 128.95 93.4 127.15 94.95 126.2 96.5 125.15 98.3 125.6 103.4 126.55 108.85 125.1 118.25 122.6 123.1 114.25 127.9 105.85 125.4 96.45 122.9 87.1 114.5 82.25 L112.5 81.25" fill="#000000" fill-rule="evenodd" stroke="none"/>
    <path d="M113.8 87.15 Q119.25 90.95 121.05 97.6 123.05 105.2 119.2 111.95 L119.15 111.95 Q115.25 118.75 107.7 120.75 L107.65 120.8 99.2 121.15 Q95.6 120.4 92.5 122.35 89.5 124.3 88.6 127.85 87.75 131.5 85.7 135.05 L85.75 135.05 Q80.2 144.5 69.75 147.3 59.25 150.1 49.95 144.65 L49.9 144.65 49.85 144.6 Q47.2 143.05 45.05 141.2 42.9 139.3 40.05 139.0 37.2 138.65 34.7 140.05 32.75 141.1 30.45 141.7 23.35 143.65 17.0 139.9 L16.95 139.95 16.95 139.9 Q10.55 136.25 8.65 129.1 7.15 123.85 8.75 119.1 L8.8 119.0 9.1 117.25 Q61.75 123.25 113.8 87.15" fill="url(#gradient5)" fill-rule="evenodd" stroke="none"/>
    <path d="M55.2 73.9 L57.75 77.15 Q62.1 83.6 62.1 91.85 62.1 102.95 54.2 110.8 46.4 118.65 35.25 118.65 L28.55 117.9 Q26.45 121.05 23.6 123.9 13.3 134.25 -1.3 134.25 -15.85 134.25 -26.2 123.9 -30.05 120.05 -32.4 115.65 -38.0 118.45 -44.75 118.45 -56.3 118.45 -64.5 110.25 -72.65 102.1 -72.65 90.55 -72.65 79.0 -64.5 70.8 L-62.4 68.85 -6.95 32.95 54.35 72.75 54.2 72.85 55.2 73.9 M51.05 76.05 L50.95 75.95 -6.95 38.35 -59.7 72.5 -61.3 74.0 Q-68.15 80.85 -68.15 90.55 -68.15 100.25 -61.3 107.1 -54.45 113.95 -44.75 113.95 -39.1 113.95 -34.45 111.65 -32.8 110.8 -31.05 111.4 -29.35 111.9 -28.45 113.5 -26.4 117.35 -23.0 120.75 -14.0 129.75 -1.3 129.75 11.4 129.75 20.4 120.75 L20.45 120.7 Q22.95 118.2 24.8 115.45 25.55 114.2 26.9 113.7 L29.65 113.55 35.25 114.15 Q44.5 114.15 51.0 107.65 L51.05 107.6 Q57.6 101.1 57.6 91.85 57.65 85.0 54.05 79.6 L54.05 79.65 51.85 76.9 51.05 76.05" fill="#000000" fill-rule="evenodd" stroke="none"/>
    <path d="M53.1 91.85 Q53.15 86.4 50.35 82.2 L50.3 82.15 Q49.75 81.3 49.55 80.45 0.2 99.95 -59.35 78.55 -63.65 83.65 -63.65 90.55 -63.65 98.4 -58.15 103.9 L-58.1 103.9 Q-52.6 109.45 -44.75 109.45 L-44.7 109.45 Q-40.2 109.5 -36.45 107.6 -33.2 106.0 -29.7 107.05 -26.3 108.15 -24.55 111.35 L-24.5 111.35 Q-22.7 114.65 -19.8 117.55 L-19.85 117.55 Q-12.1 125.25 -1.3 125.25 9.55 125.25 17.2 117.55 L17.25 117.55 17.25 117.5 21.05 112.95 Q22.55 110.55 25.25 109.55 27.95 108.45 30.7 109.2 L35.25 109.65 Q42.65 109.65 47.8 104.45 L47.85 104.45 47.85 104.4 Q53.1 99.25 53.1 91.85 M51.05 76.05 L51.85 76.9 54.05 79.65 54.05 79.6 Q57.65 85.0 57.6 91.85 57.6 101.1 51.05 107.6 L51.0 107.65 Q44.5 114.15 35.25 114.15 L29.65 113.55 26.9 113.7 Q25.55 114.2 24.8 115.45 22.95 118.2 20.45 120.7 L20.4 120.75 Q11.4 129.75 -1.3 129.75 -14.0 129.75 -23.0 120.75 -26.4 117.35 -28.45 113.5 -29.35 111.9 -31.05 111.4 -32.8 110.8 -34.45 111.65 -39.1 113.95 -44.75 113.95 -54.45 113.95 -61.3 107.1 -68.15 100.25 -68.15 90.55 -68.15 80.85 -61.3 74.0 L-59.7 72.5 -6.95 38.35 50.95 75.95 51.05 76.05" fill="url(#gradient6)" fill-rule="evenodd" stroke="none"/>
    <path d="M53.1 91.85 Q53.1 99.25 47.85 104.4 L47.85 104.45 47.8 104.45 Q42.65 109.65 35.25 109.65 L30.7 109.2 Q27.95 108.45 25.25 109.55 22.55 110.55 21.05 112.95 L17.25 117.5 17.25 117.55 17.2 117.55 Q9.55 125.25 -1.3 125.25 -12.1 125.25 -19.85 117.55 L-19.8 117.55 Q-22.7 114.65 -24.5 111.35 L-24.55 111.35 Q-26.3 108.15 -29.7 107.05 -33.2 106.0 -36.45 107.6 -40.2 109.5 -44.7 109.45 L-44.75 109.45 Q-52.6 109.45 -58.1 103.9 L-58.15 103.9 Q-63.65 98.4 -63.65 90.55 -63.65 83.65 -59.35 78.55 0.2 99.95 49.55 80.45 49.75 81.3 50.3 82.15 L50.35 82.2 Q53.15 86.4 53.1 91.85" fill="url(#gradient7)" fill-rule="evenodd" stroke="none"/>
    <path d="M86.8 45.2 Q93.1 48.85 95.0 55.9 96.9 62.9 93.2 69.2 89.6 75.5 82.55 77.4 78.1 78.6 73.95 77.55 73.2 82.3 70.6 86.75 65.05 96.45 54.25 99.35 43.45 102.25 33.75 96.65 26.0 92.15 22.6 84.35 19.95 86.45 16.45 87.4 9.7 89.2 3.7 85.7 -2.4 82.2 -4.2 75.45 -6.0 68.7 -2.5 62.65 -0.75 59.65 1.8 57.65 L39.65 20.1 85.75 44.6 86.8 45.2 M84.55 49.05 L83.75 48.6 83.6 48.6 40.5 25.7 5.0 60.9 4.6 61.2 Q2.65 62.7 1.4 64.9 -1.15 69.35 0.15 74.3 1.5 79.25 5.95 81.85 10.35 84.35 15.3 83.05 17.85 82.35 19.85 80.85 20.95 79.95 22.4 79.85 23.8 79.75 25.05 80.55 26.2 81.25 26.75 82.6 29.55 89.05 36.05 92.75 44.1 97.4 53.1 95.0 62.05 92.6 66.7 84.55 L66.7 84.5 Q68.9 80.75 69.55 76.85 69.75 75.6 70.6 74.6 71.4 73.65 72.6 73.3 L75.05 73.25 81.4 73.1 Q86.6 71.7 89.3 67.0 L89.35 66.95 Q92.05 62.25 90.65 57.05 89.25 51.75 84.55 49.05" fill="#000000" fill-rule="evenodd" stroke="none"/>
    <path d="M84.55 49.05 Q89.25 51.75 90.65 57.05 92.05 62.25 89.35 66.95 L89.3 67.0 Q86.6 71.7 81.4 73.1 L75.05 73.25 72.6 73.3 Q71.4 73.65 70.6 74.6 69.75 75.6 69.55 76.85 68.9 80.75 66.7 84.5 L66.7 84.55 Q62.05 92.6 53.1 95.0 44.1 97.4 36.05 92.75 29.55 89.05 26.75 82.6 26.2 81.25 25.05 80.55 23.8 79.75 22.4 79.85 20.95 79.95 19.85 80.85 17.85 82.35 15.3 83.05 10.35 84.35 5.95 81.85 1.5 79.25 0.15 74.3 -1.15 69.35 1.4 64.9 2.65 62.7 4.6 61.2 L5.0 60.9 40.5 25.7 83.6 48.6 83.75 48.6 84.55 49.05 M86.3 58.2 Q85.45 55.0 82.8 53.25 41.2 72.95 6.9 65.15 5.95 65.95 5.3 67.1 L5.25 67.2 Q3.65 70.0 4.5 73.1 5.35 76.25 8.15 77.95 L8.2 77.9 Q11.0 79.5 14.15 78.7 L14.2 78.65 Q15.8 78.3 17.05 77.3 19.25 75.5 22.1 75.35 L22.15 75.35 Q24.95 75.2 27.35 76.7 L27.4 76.7 Q29.8 78.2 30.95 80.8 33.15 85.9 38.25 88.9 L38.3 88.85 Q44.75 92.55 51.9 90.65 59.05 88.7 62.75 82.3 L62.8 82.3 62.8 82.25 Q64.55 79.25 65.1 76.05 65.5 73.6 67.2 71.7 L67.2 71.65 Q68.8 69.7 71.25 69.0 L76.2 68.8 Q78.15 69.3 80.25 68.75 83.7 67.8 85.45 64.75 L85.45 64.7 85.4 64.65 Q87.2 61.6 86.3 58.2" fill="url(#gradient8)" fill-rule="evenodd" stroke="none"/>
    <path d="M86.3 58.2 Q87.2 61.6 85.4 64.65 L85.45 64.7 85.45 64.75 Q83.7 67.8 80.25 68.75 78.15 69.3 76.2 68.8 L71.25 69.0 Q68.8 69.7 67.2 71.65 L67.2 71.7 Q65.5 73.6 65.1 76.05 64.55 79.25 62.8 82.25 L62.8 82.3 62.75 82.3 Q59.05 88.7 51.9 90.65 44.75 92.55 38.3 88.85 L38.25 88.9 Q33.15 85.9 30.95 80.8 29.8 78.2 27.4 76.7 L27.35 76.7 Q24.95 75.2 22.15 75.35 L22.1 75.35 Q19.25 75.5 17.05 77.3 15.8 78.3 14.2 78.65 L14.15 78.7 Q11.0 79.5 8.2 77.9 L8.15 77.95 Q5.35 76.25 4.5 73.1 3.65 70.0 5.25 67.2 L5.3 67.1 Q5.95 65.95 6.9 65.15 41.2 72.95 82.8 53.25 85.45 55.0 86.3 58.2" fill="url(#gradient9)" fill-rule="evenodd" stroke="none"/>
    <path d="M-78.15 66.3 Q-76.0 64.4 -73.15 64.1 -70.3 63.8 -67.8 65.2 -65.3 66.55 -64.05 69.15 -63.05 71.15 -61.35 72.9 L-61.3 72.9 Q-57.3 76.9 -51.6 76.9 -45.9 76.9 -41.85 72.9 -39.5 70.55 -38.5 67.6 -37.65 65.05 -35.5 63.35 L-35.45 63.35 Q-33.3 61.6 -30.55 61.5 -27.85 61.25 -25.45 62.65 -24.6 63.15 -23.55 63.1 L-23.5 63.1 Q-21.9 63.1 -20.7 61.95 L-20.7 61.9 Q-18.65 60.4 -19.05 56.55 -58.95 58.8 -94.95 51.05 -97.0 53.9 -97.0 57.55 -97.0 62.3 -93.65 65.65 L-93.6 65.65 Q-90.25 69.05 -85.5 69.05 -81.3 69.05 -78.15 66.3 M-75.15 69.7 Q-79.55 73.55 -85.5 73.55 -92.15 73.55 -96.8 68.85 -101.5 64.2 -101.5 57.55 -101.5 51.2 -97.15 46.6 L-97.05 46.5 -96.8 46.3 Q-95.4 44.85 -93.8 43.9 L-93.6 43.75 -55.2 16.85 -15.35 56.45 Q-15.0 57.7 -15.0 59.1 -15.0 62.6 -17.5 65.1 L-17.55 65.15 Q-20.0 67.6 -23.5 67.6 -25.8 67.6 -27.7 66.55 -28.9 65.85 -30.25 66.0 -31.6 66.05 -32.7 66.9 -33.8 67.75 -34.2 69.05 -35.55 72.95 -38.65 76.1 -44.0 81.4 -51.6 81.4 -59.2 81.4 -64.5 76.1 -66.8 73.8 -68.1 71.1 -68.75 69.8 -70.0 69.15 -71.25 68.4 -72.65 68.6 -74.1 68.75 -75.15 69.7" fill="url(#gradient10)" fill-rule="evenodd" stroke="none"/>
    <path d="M-78.15 66.3 Q-81.3 69.05 -85.5 69.05 -90.25 69.05 -93.6 65.65 L-93.65 65.65 Q-97.0 62.3 -97.0 57.55 -97.0 53.9 -94.95 51.05 -58.95 58.8 -19.05 56.55 -18.65 60.4 -20.7 61.9 L-20.7 61.95 Q-21.9 63.1 -23.5 63.1 L-23.55 63.1 Q-24.6 63.15 -25.45 62.65 -27.85 61.25 -30.55 61.5 -33.3 61.6 -35.45 63.35 L-35.5 63.35 Q-37.65 65.05 -38.5 67.6 -39.5 70.55 -41.85 72.9 -45.9 76.9 -51.6 76.9 -57.3 76.9 -61.3 72.9 L-61.35 72.9 Q-63.05 71.15 -64.05 69.15 -65.3 66.55 -67.8 65.2 -70.3 63.8 -73.15 64.1 -76.0 64.4 -78.15 66.3" fill="url(#gradient11)" fill-rule="evenodd" stroke="none"/>
    <path d="M-75.15 69.7 Q-74.1 68.75 -72.65 68.6 -71.25 68.4 -70.0 69.15 -68.75 69.8 -68.1 71.1 -66.8 73.8 -64.5 76.1 -59.2 81.4 -51.6 81.4 -44.0 81.4 -38.65 76.1 -35.55 72.95 -34.2 69.05 -33.8 67.75 -32.7 66.9 -31.6 66.05 -30.25 66.0 -28.9 65.85 -27.7 66.55 -25.8 67.6 -23.5 67.6 -20.0 67.6 -17.55 65.15 L-17.5 65.1 Q-15.0 62.6 -15.0 59.1 -15.0 57.7 -15.35 56.45 L-55.2 16.85 -93.6 43.75 -93.8 43.9 Q-95.4 44.85 -96.8 46.3 L-97.05 46.5 -97.15 46.6 Q-101.5 51.2 -101.5 57.55 -101.5 64.2 -96.8 68.85 -92.15 73.55 -85.5 73.55 -79.55 73.55 -75.15 69.7 M-67.7 79.25 Q-70.55 76.45 -72.15 73.05 -77.85 78.05 -85.5 78.05 -94.0 78.05 -100.0 72.0 -106.0 66.05 -106.0 57.55 -106.0 49.4 -100.35 43.5 L-100.0 43.1 Q-98.2 41.3 -96.2 40.05 L-54.7 11.0 -11.5 53.95 -11.25 54.6 -11.15 54.9 Q-10.5 56.9 -10.5 59.1 -10.5 64.5 -14.35 68.3 -18.1 72.1 -23.5 72.1 -27.05 72.1 -29.95 70.45 -31.55 75.35 -35.5 79.25 -42.15 85.9 -51.6 85.9 -61.05 85.9 -67.7 79.25" fill="#000000" fill-rule="evenodd" stroke="none"/>
    <path d="M96.7 -1.3 L96.4 -1.6 32.2 -28.95 -2.5 11.5 -3.05 12.1 -6.0 15.0 Q-11.35 21.6 -10.5 30.0 -9.65 38.5 -3.15 43.8 3.4 49.15 11.85 48.3 20.25 47.45 25.6 40.95 L25.65 40.9 26.2 40.25 Q27.15 39.0 28.7 38.6 30.35 38.25 31.75 39.0 33.15 39.7 33.85 41.15 35.9 45.8 40.15 49.35 47.25 55.1 56.4 54.15 65.6 53.25 71.4 46.2 74.1 42.8 75.35 39.0 75.85 37.5 77.25 36.65 78.65 35.75 80.2 35.95 82.7 36.3 85.35 36.0 94.1 35.15 99.65 28.45 105.2 21.6 104.3 12.9 103.45 4.15 96.7 -1.3 M99.5 -4.85 Q107.7 1.95 108.75 12.5 109.85 23.05 103.1 31.2 96.35 39.45 85.8 40.5 82.6 40.85 79.65 40.45 78.15 45.0 74.85 49.0 67.85 57.55 56.85 58.65 45.85 59.75 37.3 52.75 32.2 48.55 29.75 43.0 L29.15 43.75 Q22.6 51.8 12.3 52.8 2.0 53.85 -5.95 47.25 -13.95 40.75 -14.95 30.45 -16.0 20.2 -9.45 12.15 -7.85 10.15 -5.95 8.6 L30.9 -34.4 98.7 -5.45 99.5 -4.85" fill="#000000" fill-rule="evenodd" stroke="none"/>
    <path d="M96.7 -1.3 Q103.45 4.15 104.3 12.9 105.2 21.6 99.65 28.45 94.1 35.15 85.35 36.0 82.7 36.3 80.2 35.95 78.65 35.75 77.25 36.65 75.85 37.5 75.35 39.0 74.1 42.8 71.4 46.2 65.6 53.25 56.4 54.15 47.25 55.1 40.15 49.35 35.9 45.8 33.85 41.15 33.15 39.7 31.75 39.0 30.35 38.25 28.7 38.6 27.15 39.0 26.2 40.25 L25.65 40.9 25.6 40.95 Q20.25 47.45 11.85 48.3 3.4 49.15 -3.15 43.8 -9.65 38.5 -10.5 30.0 -11.35 21.6 -6.0 15.0 L-3.05 12.1 -2.5 11.5 32.2 -28.95 96.4 -1.6 96.7 -1.3 M96.2 25.55 Q100.5 20.2 99.8 13.35 99.2 7.3 95.0 3.25 52.55 26.25 -3.5 19.2 -6.6 23.8 -6.0 29.55 -5.35 36.15 -0.3 40.35 L-0.25 40.35 Q4.85 44.5 11.4 43.85 18.0 43.2 22.15 38.1 L22.2 38.1 22.2 38.0 22.6 37.55 22.65 37.5 Q24.6 34.95 27.8 34.25 30.9 33.55 33.8 34.95 36.65 36.4 38.0 39.35 39.6 43.0 42.95 45.8 L43.0 45.8 Q48.7 50.45 55.95 49.7 63.25 49.0 67.9 43.3 70.1 40.65 71.1 37.65 72.1 34.55 74.85 32.85 77.6 31.05 80.85 31.55 82.8 31.8 84.95 31.55 91.8 30.9 96.2 25.55" fill="url(#gradient12)" fill-rule="evenodd" stroke="none"/>
    <path d="M96.2 25.55 Q91.8 30.9 84.95 31.55 82.8 31.8 80.85 31.55 77.6 31.05 74.85 32.85 72.1 34.55 71.1 37.65 70.1 40.65 67.9 43.3 63.25 49.0 55.95 49.7 48.7 50.45 43.0 45.8 L42.95 45.8 Q39.6 43.0 38.0 39.35 36.65 36.4 33.8 34.95 30.9 33.55 27.8 34.25 24.6 34.95 22.65 37.5 L22.6 37.55 22.2 38.0 22.2 38.1 22.15 38.1 Q18.0 43.2 11.4 43.85 4.85 44.5 -0.25 40.35 L-0.3 40.35 Q-5.35 36.15 -6.0 29.55 -6.6 23.8 -3.5 19.2 52.55 26.25 95.0 3.25 99.2 7.3 99.8 13.35 100.5 20.2 96.2 25.55" fill="url(#gradient13)" fill-rule="evenodd" stroke="none"/>
    <path d="M-90.35 -16.35 Q-98.75 -11.5 -101.25 -2.15 -103.75 7.25 -98.95 15.65 -94.1 24.0 -84.7 26.5 -79.25 27.95 -74.15 27.0 -72.35 26.55 -70.8 27.6 -69.25 28.55 -68.85 30.35 -67.85 34.55 -65.45 38.75 -59.1 49.7 -46.8 53.0 -34.55 56.3 -23.5 50.0 L-23.45 49.95 Q-20.4 48.15 -17.95 45.95 -16.85 45.0 -15.45 44.85 -14.0 44.7 -12.75 45.4 -10.3 46.7 -7.45 47.45 1.45 49.85 9.45 45.25 L9.5 45.2 Q17.5 40.6 19.85 31.65 21.7 25.05 19.6 18.95 L19.6 19.0 18.25 15.75 17.65 14.7 -28.65 -36.7 -88.35 -17.35 -90.35 -16.35 M-92.6 -20.25 L-90.1 -21.6 -27.25 -41.9 21.7 12.4 21.55 12.5 22.2 13.75 Q23.15 15.55 23.9 17.5 26.35 24.85 24.2 32.8 21.35 43.55 11.7 49.1 2.15 54.7 -8.6 51.8 -12.0 50.9 -14.9 49.35 -17.75 51.85 -21.2 53.8 -33.85 61.15 -47.95 57.35 -62.05 53.6 -69.35 40.9 -72.05 36.25 -73.25 31.35 -79.3 32.6 -85.85 30.85 -97.0 27.85 -102.8 17.85 -108.6 7.9 -105.6 -3.3 -102.6 -14.45 -92.6 -20.25" fill="#000000" fill-rule="evenodd" stroke="none"/>
    <path d="M-90.35 -16.35 L-88.35 -17.35 -28.65 -36.7 17.65 14.7 18.25 15.75 19.6 19.0 19.6 18.95 Q21.7 25.05 19.85 31.65 17.5 40.6 9.5 45.2 L9.45 45.25 Q1.45 49.85 -7.45 47.45 -10.3 46.7 -12.75 45.4 -14.0 44.7 -15.45 44.85 -16.85 45.0 -17.95 45.95 -20.4 48.15 -23.45 49.95 L-23.5 50.0 Q-34.55 56.3 -46.8 53.0 -59.1 49.7 -65.45 38.75 -67.85 34.55 -68.85 30.35 -69.25 28.55 -70.8 27.6 -72.35 26.55 -74.15 27.0 -79.25 27.95 -84.7 26.5 -94.1 24.0 -98.95 15.65 -103.75 7.25 -101.25 -2.15 -98.75 -11.5 -90.35 -16.35 M-89.65 -11.45 Q-95.1 -7.65 -96.9 -1.0 -98.9 6.6 -95.05 13.35 L-95.0 13.35 Q-91.1 20.15 -83.55 22.15 L-83.5 22.2 -75.05 22.55 Q-71.45 21.8 -68.35 23.75 -65.35 25.7 -64.45 29.25 -63.6 32.9 -61.55 36.45 L-61.6 36.45 Q-56.05 45.9 -45.6 48.7 -35.1 51.5 -25.8 46.05 L-25.75 46.05 -25.7 46.0 Q-23.05 44.45 -20.9 42.6 -18.75 40.7 -15.9 40.4 -13.05 40.05 -10.55 41.45 -8.6 42.5 -6.3 43.1 0.8 45.05 7.15 41.3 L7.2 41.35 7.2 41.3 Q13.6 37.65 15.5 30.5 17.0 25.25 15.4 20.5 L15.35 20.4 Q15.05 19.5 15.05 18.65 -37.6 24.65 -89.65 -11.45" fill="url(#gradient14)" fill-rule="evenodd" stroke="none"/>
    <path d="M-89.65 -11.45 Q-37.6 24.65 15.05 18.65 15.05 19.5 15.35 20.4 L15.4 20.5 Q17.0 25.25 15.5 30.5 13.6 37.65 7.2 41.3 L7.2 41.35 7.15 41.3 Q0.8 45.05 -6.3 43.1 -8.6 42.5 -10.55 41.45 -13.05 40.05 -15.9 40.4 -18.75 40.7 -20.9 42.6 -23.05 44.45 -25.7 46.0 L-25.75 46.05 -25.8 46.05 Q-35.1 51.5 -45.6 48.7 -56.05 45.9 -61.6 36.45 L-61.55 36.45 Q-63.6 32.9 -64.45 29.25 -65.35 25.7 -68.35 23.75 -71.45 21.8 -75.05 22.55 L-83.5 22.2 -83.55 22.15 Q-91.1 20.15 -95.0 13.35 L-95.05 13.35 Q-98.9 6.6 -96.9 -1.0 -95.1 -7.65 -89.65 -11.45" fill="url(#gradient15)" fill-rule="evenodd" stroke="none"/>
    <path d="M52.7 -25.25 L51.4 -26.95 50.05 -28.45 49.25 -29.45 11.6 -65.95 -51.7 -35.7 -54.7 -33.25 Q-60.4 -27.5 -60.4 -19.4 -60.4 -11.25 -54.7 -5.5 -48.95 0.2 -40.85 0.2 -34.45 0.25 -29.55 -3.35 -28.25 -4.3 -26.75 -4.25 -25.2 -4.2 -24.0 -3.2 -22.85 -2.3 -22.45 -0.75 -20.75 6.6 -15.05 12.3 -6.95 20.4 4.6 20.4 16.1 20.4 24.25 12.3 L25.65 10.75 Q26.45 9.85 27.55 9.45 L29.8 9.3 34.25 9.65 Q43.45 9.65 50.0 3.1 L50.05 3.1 Q56.55 -3.45 56.55 -12.65 56.6 -19.8 52.75 -25.25 L52.7 -25.25 M53.2 -31.65 L54.85 -29.85 56.35 -27.9 Q61.05 -21.25 61.05 -12.65 61.05 -1.55 53.2 6.25 45.35 14.15 34.25 14.15 L29.05 13.7 27.4 15.45 Q17.95 24.9 4.6 24.9 -8.8 24.9 -18.25 15.45 -24.85 8.85 -26.85 0.25 -32.9 4.7 -40.85 4.7 -50.8 4.7 -57.9 -2.35 -64.9 -9.4 -64.9 -19.4 -64.9 -29.35 -57.9 -36.45 -56.05 -38.3 -54.0 -39.6 L12.5 -71.35 53.35 -31.8 53.2 -31.65" fill="#000000" fill-rule="evenodd" stroke="none"/>
    <path d="M52.7 -25.25 L52.75 -25.25 Q56.6 -19.8 56.55 -12.65 56.55 -3.45 50.05 3.1 L50.0 3.1 Q43.45 9.65 34.25 9.65 L29.8 9.3 27.55 9.45 Q26.45 9.85 25.65 10.75 L24.25 12.3 Q16.1 20.4 4.6 20.4 -6.95 20.4 -15.05 12.3 -20.75 6.6 -22.45 -0.75 -22.85 -2.3 -24.0 -3.2 -25.2 -4.2 -26.75 -4.25 -28.25 -4.3 -29.55 -3.35 -34.45 0.25 -40.85 0.2 -48.95 0.2 -54.7 -5.5 -60.4 -11.25 -60.4 -19.4 -60.4 -27.5 -54.7 -33.25 L-51.7 -35.7 11.6 -65.95 49.25 -29.45 50.05 -28.45 51.4 -26.95 52.7 -25.25 M52.05 -12.65 Q52.1 -17.25 50.1 -20.95 -6.35 -9.8 -52.8 -28.6 -55.9 -24.65 -55.9 -19.4 -55.9 -13.1 -51.55 -8.7 L-51.5 -8.7 Q-47.1 -4.3 -40.85 -4.3 L-40.8 -4.3 Q-35.9 -4.25 -32.2 -7.0 -29.65 -8.85 -26.6 -8.75 -23.55 -8.65 -21.15 -6.75 -18.8 -4.8 -18.05 -1.8 -16.6 4.35 -11.85 9.1 L-11.9 9.1 Q-5.05 15.9 4.6 15.9 14.15 15.9 21.0 9.15 L21.05 9.1 22.2 7.8 22.25 7.75 Q23.85 5.95 26.1 5.2 L26.05 5.2 Q28.3 4.4 30.65 4.85 L34.25 5.15 Q41.6 5.15 46.8 -0.05 L46.85 -0.05 46.85 -0.1 Q52.05 -5.3 52.05 -12.65" fill="url(#gradient16)" fill-rule="evenodd" stroke="none"/>
    <path d="M52.05 -12.65 Q52.05 -5.3 46.85 -0.1 L46.85 -0.05 46.8 -0.05 Q41.6 5.15 34.25 5.15 L30.65 4.85 Q28.3 4.4 26.05 5.2 L26.1 5.2 Q23.85 5.95 22.25 7.75 L22.2 7.8 21.05 9.1 21.0 9.15 Q14.15 15.9 4.6 15.9 -5.05 15.9 -11.9 9.1 L-11.85 9.1 Q-16.6 4.35 -18.05 -1.8 -18.8 -4.8 -21.15 -6.75 -23.55 -8.65 -26.6 -8.75 -29.65 -8.85 -32.2 -7.0 -35.9 -4.25 -40.8 -4.3 L-40.85 -4.3 Q-47.1 -4.3 -51.5 -8.7 L-51.55 -8.7 Q-55.9 -13.1 -55.9 -19.4 -55.9 -24.65 -52.8 -28.6 -6.35 -9.8 50.1 -20.95 52.1 -17.25 52.05 -12.65" fill="url(#gradient17)" fill-rule="evenodd" stroke="none"/>
    <path d="M80.9 -79.0 L81.0 -78.95 Q83.05 -76.35 84.4 -72.95 87.9 -64.25 84.15 -55.7 80.5 -47.1 71.85 -43.65 L69.8 -42.95 Q69.65 -36.55 66.95 -30.35 61.45 -17.6 48.55 -12.45 35.65 -7.3 22.95 -12.8 10.15 -18.25 5.0 -31.15 3.15 -35.8 2.75 -40.5 0.3 -38.2 -3.05 -36.85 -10.0 -34.1 -16.8 -37.05 -23.65 -40.0 -26.4 -46.9 -29.2 -53.85 -26.25 -60.7 -25.15 -63.25 -23.45 -65.2 L25.2 -109.1 78.25 -81.8 80.9 -79.0 M77.35 -76.3 L75.6 -78.05 25.95 -103.7 -20.25 -62.1 -22.1 -58.9 Q-24.35 -53.8 -22.25 -48.55 -20.2 -43.35 -15.0 -41.1 -9.95 -38.95 -4.75 -41.05 -2.25 -42.05 -0.35 -43.7 0.9 -44.9 2.7 -44.95 4.4 -45.0 5.7 -43.75 6.95 -42.65 7.2 -40.9 7.6 -36.85 9.2 -32.8 13.65 -21.6 24.7 -16.85 35.7 -12.15 46.9 -16.6 58.1 -21.05 62.85 -32.05 65.2 -37.55 65.3 -43.05 65.35 -44.5 66.2 -45.65 67.1 -46.8 68.5 -47.25 L70.2 -47.85 Q77.1 -50.6 80.05 -57.45 L80.1 -57.45 Q83.05 -64.3 80.25 -71.25 79.15 -74.0 77.5 -76.1 L77.35 -76.3" fill="#000000" fill-rule="evenodd" stroke="none"/>
    <path d="M77.35 -76.3 L77.5 -76.1 Q79.15 -74.0 80.25 -71.25 83.05 -64.3 80.1 -57.45 L80.05 -57.45 Q77.1 -50.6 70.2 -47.85 L68.5 -47.25 Q67.1 -46.8 66.2 -45.65 65.35 -44.5 65.3 -43.05 65.2 -37.55 62.85 -32.05 58.1 -21.05 46.9 -16.6 35.7 -12.15 24.7 -16.85 13.65 -21.6 9.2 -32.8 7.6 -36.85 7.2 -40.9 6.95 -42.65 5.7 -43.75 4.4 -45.0 2.7 -44.95 0.9 -44.9 -0.35 -43.7 -2.25 -42.05 -4.75 -41.05 -9.95 -38.95 -15.0 -41.1 -20.2 -43.35 -22.25 -48.55 -24.35 -53.8 -22.1 -58.9 L-20.25 -62.1 25.95 -103.7 75.6 -78.05 77.35 -76.3 M67.15 -51.5 L68.55 -52.0 Q73.75 -54.05 75.9 -59.2 L75.95 -59.25 75.95 -59.3 Q78.15 -64.4 76.05 -69.6 75.25 -71.65 74.0 -73.2 23.95 -51.3 -17.55 -58.0 L-18.0 -57.15 -18.0 -57.1 Q-19.45 -53.7 -18.05 -50.2 -16.7 -46.75 -13.3 -45.3 L-13.25 -45.3 Q-9.85 -43.8 -6.4 -45.2 L-6.35 -45.2 Q-4.65 -45.85 -3.4 -47.0 -0.8 -49.4 2.65 -49.45 6.1 -49.55 8.7 -47.15 11.3 -44.85 11.65 -41.4 12.05 -37.95 13.4 -34.5 17.15 -25.05 26.5 -21.05 L26.45 -21.0 Q35.8 -17.05 45.25 -20.8 54.7 -24.55 58.75 -33.9 60.65 -38.5 60.8 -43.1 60.85 -46.05 62.65 -48.35 64.4 -50.65 67.15 -51.5" fill="url(#gradient18)" fill-rule="evenodd" stroke="none"/>
    <path d="M67.15 -51.5 Q64.4 -50.65 62.65 -48.35 60.85 -46.05 60.8 -43.1 60.65 -38.5 58.75 -33.9 54.7 -24.55 45.25 -20.8 35.8 -17.05 26.45 -21.0 L26.5 -21.05 Q17.15 -25.05 13.4 -34.5 12.05 -37.95 11.65 -41.4 11.3 -44.85 8.7 -47.15 6.1 -49.55 2.65 -49.45 -0.8 -49.4 -3.4 -47.0 -4.65 -45.85 -6.35 -45.2 L-6.4 -45.2 Q-9.85 -43.8 -13.25 -45.3 L-13.3 -45.3 Q-16.7 -46.75 -18.05 -50.2 -19.45 -53.7 -18.0 -57.1 L-18.0 -57.15 -17.55 -58.0 Q23.95 -51.3 74.0 -73.2 75.25 -71.65 76.05 -69.6 78.15 -64.4 75.95 -59.3 L75.95 -59.25 75.9 -59.2 Q73.75 -54.05 68.55 -52.0 L67.15 -51.5" fill="url(#gradient19)" fill-rule="evenodd" stroke="none"/>
    <path d="M13.0 -67.05 Q18.2 -61.85 18.2 -54.6 18.2 -47.3 13.0 -42.15 7.9 -37.0 0.6 -37.0 -4.0 -37.0 -7.75 -39.05 -9.7 -34.7 -13.4 -31.05 -21.3 -23.1 -32.45 -23.1 -43.6 -23.1 -51.5 -31.05 -57.85 -37.4 -59.1 -45.8 -62.2 -44.45 -65.85 -44.45 -72.8 -44.45 -77.75 -49.4 -82.7 -54.35 -82.7 -61.35 -82.7 -68.3 -77.75 -73.25 -75.3 -75.75 -72.3 -76.95 L-26.0 -103.4 12.15 -67.85 13.0 -67.05 M13.7 -54.6 Q13.7 -60.0 9.85 -63.85 L9.2 -64.5 9.1 -64.55 -26.65 -97.8 -70.05 -73.05 -70.55 -72.8 Q-72.75 -71.9 -74.55 -70.05 -78.2 -66.45 -78.2 -61.35 -78.2 -56.2 -74.55 -52.55 -70.95 -48.95 -65.85 -48.95 -63.15 -48.95 -60.9 -49.9 L-58.2 -50.2 Q-56.8 -49.95 -55.8 -48.85 -54.85 -47.85 -54.6 -46.45 -53.6 -39.45 -48.3 -34.2 -41.75 -27.6 -32.45 -27.6 -23.15 -27.6 -16.6 -34.2 L-16.55 -34.25 Q-13.5 -37.3 -11.85 -40.9 -11.35 -42.05 -10.25 -42.8 -9.2 -43.5 -7.95 -43.55 -6.7 -43.6 -5.55 -42.95 -2.85 -41.5 0.6 -41.5 6.0 -41.5 9.8 -45.3 L9.85 -45.35 Q13.7 -49.2 13.7 -54.6" fill="#000000" fill-rule="evenodd" stroke="none"/>
    <path d="M9.2 -54.6 Q9.2 -57.85 7.05 -60.25 -38.2 -52.0 -69.3 -68.45 L-71.35 -66.9 -71.4 -66.85 Q-73.7 -64.55 -73.7 -61.35 -73.7 -58.1 -71.4 -55.75 L-71.35 -55.75 Q-69.05 -53.45 -65.85 -53.45 L-65.8 -53.45 Q-64.1 -53.4 -62.7 -54.05 -60.05 -55.2 -57.3 -54.6 L-57.25 -54.6 Q-54.5 -54.05 -52.55 -51.95 L-52.5 -51.95 Q-50.55 -49.9 -50.15 -47.1 -49.3 -41.55 -45.15 -37.4 -39.85 -32.1 -32.45 -32.1 -25.0 -32.1 -19.8 -37.4 L-19.75 -37.4 -19.75 -37.45 Q-17.25 -39.85 -15.9 -42.8 -14.9 -45.1 -12.75 -46.5 -10.7 -47.95 -8.15 -48.05 -5.6 -48.2 -3.35 -46.95 -1.6 -45.95 0.6 -46.0 4.15 -46.0 6.6 -48.5 L6.65 -48.5 6.65 -48.55 Q9.2 -51.0 9.2 -54.6 M13.7 -54.6 Q13.7 -49.2 9.85 -45.35 L9.8 -45.3 Q6.0 -41.5 0.6 -41.5 -2.85 -41.5 -5.55 -42.95 -6.7 -43.6 -7.95 -43.55 -9.2 -43.5 -10.25 -42.8 -11.35 -42.05 -11.85 -40.9 -13.5 -37.3 -16.55 -34.25 L-16.6 -34.2 Q-23.15 -27.6 -32.45 -27.6 -41.75 -27.6 -48.3 -34.2 -53.6 -39.45 -54.6 -46.45 -54.85 -47.85 -55.8 -48.85 -56.8 -49.95 -58.2 -50.2 L-60.9 -49.9 Q-63.15 -48.95 -65.85 -48.95 -70.95 -48.95 -74.55 -52.55 -78.2 -56.2 -78.2 -61.35 -78.2 -66.45 -74.55 -70.05 -72.75 -71.9 -70.55 -72.8 L-70.05 -73.05 -26.65 -97.8 9.1 -64.55 9.2 -64.5 9.85 -63.85 Q13.7 -60.0 13.7 -54.6" fill="url(#gradient20)" fill-rule="evenodd" stroke="none"/>
    <path d="M9.2 -54.6 Q9.2 -51.0 6.65 -48.55 L6.65 -48.5 6.6 -48.5 Q4.15 -46.0 0.6 -46.0 -1.6 -45.95 -3.35 -46.95 -5.6 -48.2 -8.15 -48.05 -10.7 -47.95 -12.75 -46.5 -14.9 -45.1 -15.9 -42.8 -17.25 -39.85 -19.75 -37.45 L-19.75 -37.4 -19.8 -37.4 Q-25.0 -32.1 -32.45 -32.1 -39.85 -32.1 -45.15 -37.4 -49.3 -41.55 -50.15 -47.1 -50.55 -49.9 -52.5 -51.95 L-52.55 -51.95 Q-54.5 -54.05 -57.25 -54.6 L-57.3 -54.6 Q-60.05 -55.2 -62.7 -54.05 -64.1 -53.4 -65.8 -53.45 L-65.85 -53.45 Q-69.05 -53.45 -71.35 -55.75 L-71.4 -55.75 Q-73.7 -58.1 -73.7 -61.35 -73.7 -64.55 -71.4 -66.85 L-71.35 -66.9 -69.3 -68.45 Q-38.2 -52.0 7.05 -60.25 9.2 -57.85 9.2 -54.6" fill="url(#gradient21)" fill-rule="evenodd" stroke="none"/>
    <path d="M9.65 -121.6 Q7.65 -121.3 5.95 -122.5 -0.3 -127.1 -7.75 -127.1 -11.65 -127.1 -14.75 -125.15 L-15.0 -125.0 -15.35 -124.8 -15.4 -124.75 -37.25 -110.9 -37.65 -110.7 -39.45 -109.55 -39.5 -109.55 -41.2 -108.05 Q-45.25 -104.05 -45.25 -98.35 -45.25 -92.65 -41.2 -88.6 -37.2 -84.6 -31.5 -84.6 -27.1 -84.55 -23.65 -87.0 -22.4 -87.95 -20.85 -87.95 -19.35 -88.0 -18.0 -87.15 -16.7 -86.3 -16.1 -84.85 -14.8 -81.7 -12.2 -79.1 -6.95 -73.85 0.55 -73.85 7.4 -73.85 12.4 -78.3 13.9 -79.65 16.0 -79.55 18.0 -79.45 19.45 -77.95 L20.35 -76.95 Q25.65 -71.65 33.2 -71.65 40.7 -71.65 46.0 -76.95 L46.05 -77.0 Q51.35 -82.3 51.35 -89.8 51.35 -96.2 47.5 -101.0 L46.45 -102.25 46.35 -102.35 46.05 -102.65 45.55 -103.2 34.4 -115.8 33.9 -116.45 31.95 -118.95 30.95 -119.85 30.9 -119.9 Q27.35 -122.9 22.5 -122.85 L9.65 -121.6 M35.45 -122.5 Q37.05 -120.9 38.15 -119.1 L49.6 -106.2 49.55 -106.2 49.95 -105.8 51.4 -104.15 Q56.35 -98.0 56.35 -89.8 56.35 -80.2 49.55 -73.45 42.8 -66.65 33.2 -66.65 23.6 -66.65 16.8 -73.45 L15.75 -74.55 Q9.35 -68.85 0.55 -68.85 -9.0 -68.85 -15.75 -75.6 -19.1 -78.95 -20.75 -82.95 -25.45 -79.6 -31.5 -79.6 -39.25 -79.6 -44.75 -85.1 -50.25 -90.6 -50.25 -98.35 -50.25 -106.1 -44.75 -111.6 L-42.45 -113.55 -39.95 -115.15 -18.1 -128.95 -17.65 -129.25 -17.4 -129.4 Q-13.15 -132.1 -7.75 -132.1 1.3 -132.1 8.9 -126.55 L22.5 -127.85 Q29.15 -127.85 34.1 -123.7 L35.45 -122.5" fill="#000000" fill-rule="evenodd" stroke="none"/>
    <path d="M9.65 -121.6 L22.5 -122.85 Q27.35 -122.9 30.9 -119.9 L30.95 -119.85 31.95 -118.95 33.9 -116.45 34.4 -115.8 45.55 -103.2 46.05 -102.65 46.35 -102.35 46.45 -102.25 47.5 -101.0 Q51.35 -96.2 51.35 -89.8 51.35 -82.3 46.05 -77.0 L46.0 -76.95 Q40.7 -71.65 33.2 -71.65 25.65 -71.65 20.35 -76.95 L19.45 -77.95 Q18.0 -79.45 16.0 -79.55 13.9 -79.65 12.4 -78.3 7.4 -73.85 0.55 -73.85 -6.95 -73.85 -12.2 -79.1 -14.8 -81.7 -16.1 -84.85 -16.7 -86.3 -18.0 -87.15 -19.35 -88.0 -20.85 -87.95 -22.4 -87.95 -23.65 -87.0 -27.1 -84.55 -31.5 -84.6 -37.2 -84.6 -41.2 -88.6 -45.25 -92.65 -45.25 -98.35 -45.25 -104.05 -41.2 -108.05 L-39.5 -109.55 -39.45 -109.55 -37.65 -110.7 -37.25 -110.9 -15.4 -124.75 -15.35 -124.8 -15.0 -125.0 -14.75 -125.15 Q-11.65 -127.1 -7.75 -127.1 -0.3 -127.1 5.95 -122.5 7.65 -121.3 9.65 -121.6 M42.5 -80.55 Q46.35 -84.35 46.35 -89.8 46.4 -94.45 43.6 -97.9 L43.2 -98.4 Q1.65 -92.7 -36.15 -105.8 L-36.2 -105.8 -36.55 -105.5 -37.65 -104.55 -37.7 -104.5 Q-40.25 -101.9 -40.25 -98.35 -40.25 -94.75 -37.7 -92.15 L-37.65 -92.15 Q-35.1 -89.6 -31.5 -89.6 L-31.45 -89.6 Q-28.7 -89.55 -26.6 -91.05 -24.1 -92.9 -21.0 -92.95 L-20.95 -92.95 Q-17.9 -93.05 -15.25 -91.3 L-15.3 -91.3 Q-12.7 -89.65 -11.5 -86.8 -10.55 -84.55 -8.7 -82.65 L-8.65 -82.65 Q-4.85 -78.85 0.55 -78.85 5.45 -78.85 9.05 -82.0 12.1 -84.75 16.25 -84.55 20.3 -84.35 23.1 -81.3 L23.2 -81.25 23.85 -80.5 23.95 -80.45 Q27.8 -76.65 33.2 -76.65 38.65 -76.65 42.45 -80.5 L42.5 -80.5 42.5 -80.55" fill="url(#gradient22)" fill-rule="evenodd" stroke="none"/>
    <path d="M42.5 -80.55 L42.5 -80.5 42.45 -80.5 Q38.65 -76.65 33.2 -76.65 27.8 -76.65 23.95 -80.45 L23.85 -80.5 23.2 -81.25 23.1 -81.3 Q20.3 -84.35 16.25 -84.55 12.1 -84.75 9.05 -82.0 5.45 -78.85 0.55 -78.85 -4.85 -78.85 -8.65 -82.65 L-8.7 -82.65 Q-10.55 -84.55 -11.5 -86.8 -12.7 -89.65 -15.3 -91.3 L-15.25 -91.3 Q-17.9 -93.05 -20.95 -92.95 L-21.0 -92.95 Q-24.1 -92.9 -26.6 -91.05 -28.7 -89.55 -31.45 -89.6 L-31.5 -89.6 Q-35.1 -89.6 -37.65 -92.15 L-37.7 -92.15 Q-40.25 -94.75 -40.25 -98.35 -40.25 -101.9 -37.7 -104.5 L-37.65 -104.55 -36.55 -105.5 -36.2 -105.8 -36.15 -105.8 Q1.65 -92.7 43.2 -98.4 L43.6 -97.9 Q46.4 -94.45 46.35 -89.8 46.35 -84.35 42.5 -80.55" fill="url(#gradient23)" fill-rule="evenodd" stroke="none"/>
    <path d="M26.95 -131.75 Q26.95 -123.05 20.85 -116.9 14.7 -110.8 6.05 -110.8 -2.65 -110.8 -8.8 -116.9 -14.9 -123.05 -14.9 -131.75 -14.9 -136.1 -13.3 -139.85 L-12.95 -140.65 6.7 -185.05 24.3 -142.05 Q25.6 -139.8 26.3 -137.2 L26.35 -137.0 Q26.95 -134.45 26.95 -131.75 M21.9 -136.1 L20.45 -139.8 20.15 -140.3 6.55 -173.55 -8.85 -138.8 -8.9 -138.7 -9.2 -138.05 Q-10.4 -135.15 -10.4 -131.75 -10.4 -124.9 -5.6 -120.05 -0.8 -115.3 6.05 -115.3 12.85 -115.3 17.7 -120.05 22.45 -124.9 22.45 -131.75 22.45 -133.8 22.05 -135.65 L22.05 -135.7 21.9 -136.1" fill="#000000" fill-rule="evenodd" stroke="none"/>
    <path d="M21.9 -136.1 L22.05 -135.7 22.05 -135.65 Q22.45 -133.8 22.45 -131.75 22.45 -124.9 17.7 -120.05 12.85 -115.3 6.05 -115.3 -0.8 -115.3 -5.6 -120.05 -10.4 -124.9 -10.4 -131.75 -10.4 -135.15 -9.2 -138.05 L-8.9 -138.7 -8.85 -138.8 6.55 -173.55 20.15 -140.3 20.45 -139.8 21.9 -136.1 M6.95 -134.1 Q8.8 -136.0 8.8 -138.6 L8.65 -140.15 8.6 -140.3 8.0 -141.75 7.9 -142.0 2.6 -154.9 -3.4 -141.4 -3.4 -141.3 -3.45 -141.1 Q-3.95 -139.95 -3.95 -138.6 -3.95 -136.0 -2.05 -134.1 -0.25 -132.2 2.45 -132.2 5.1 -132.2 6.95 -134.1" fill="url(#gradient24)" fill-rule="evenodd" stroke="none"/>
    <path d="M8.8 -138.6 Q8.8 -136.0 6.95 -134.1 5.1 -132.2 2.45 -132.2 -0.25 -132.2 -2.05 -134.1 -3.95 -136.0 -3.95 -138.6 -3.95 -139.95 -3.45 -141.1 L-3.4 -141.3 -3.4 -141.4 2.6 -154.9 7.9 -142.0 8.0 -141.75 8.6 -140.3 8.65 -140.15 8.8 -138.6" fill="url(#gradient25)" fill-rule="evenodd" stroke="none"/>
  </g>
  <defs>
    <linearGradient gradientTransform="matrix(0.0, 0.0484, -0.0767, 0.0, 0.75, 143.25)" gradientUnits="userSpaceOnUse" id="gradient0" spreadMethod="pad" x1="-819.2" x2="819.2">
      <stop offset="0.0" stop-color="#003333"/>
      <stop offset="1.0" stop-color="#339999"/>
    </linearGradient>
    <linearGradient gradientTransform="matrix(0.0, 0.0242, -0.0712, 0.0, 0.75, 155.8)" gradientUnits="userSpaceOnUse" id="gradient1" spreadMethod="pad" x1="-819.2" x2="819.2">
      <stop offset="0.0" stop-color="#34a4a4"/>
      <stop offset="0.47058823529411764" stop-color="#2b8989"/>
    </linearGradient>
    <linearGradient gradientTransform="matrix(-0.0112, 0.0578, 0.0696, 0.0135, -70.15, 123.3)" gradientUnits="userSpaceOnUse" id="gradient2" spreadMethod="pad" x1="-819.2" x2="819.2">
      <stop offset="0.0" stop-color="#003333"/>
      <stop offset="1.0" stop-color="#339999"/>
    </linearGradient>
    <linearGradient gradientTransform="matrix(-0.0023, 0.0235, 0.065, 0.0065, -69.85, 127.65)" gradientUnits="userSpaceOnUse" id="gradient3" spreadMethod="pad" x1="-819.2" x2="819.2">
      <stop offset="0.0" stop-color="#34a4a4"/>
      <stop offset="0.47058823529411764" stop-color="#2b8989"/>
    </linearGradient>
    <linearGradient gradientTransform="matrix(0.0125, 0.0467, 0.0741, -0.0199, 65.1, 114.55)" gradientUnits="userSpaceOnUse" id="gradient4" spreadMethod="pad" x1="-819.2" x2="819.2">
      <stop offset="0.0" stop-color="#003333"/>
      <stop offset="1.0" stop-color="#339999"/>
    </linearGradient>
    <linearGradient gradientTransform="matrix(0.0063, 0.0234, 0.0688, -0.0184, 68.35, 126.65)" gradientUnits="userSpaceOnUse" id="gradient5" spreadMethod="pad" x1="-819.2" x2="819.2">
      <stop offset="0.0" stop-color="#34a4a4"/>
      <stop offset="0.47058823529411764" stop-color="#2b8989"/>
    </linearGradient>
    <linearGradient gradientTransform="matrix(0.0, 0.0484, -0.0767, 0.0, -5.3, 92.4)" gradientUnits="userSpaceOnUse" id="gradient6" spreadMethod="pad" x1="-819.2" x2="819.2">
      <stop offset="0.0" stop-color="#003333"/>
      <stop offset="1.0" stop-color="#339999"/>
    </linearGradient>
    <linearGradient gradientTransform="matrix(0.0, 0.0242, -0.0712, 0.0, -5.3, 104.95)" gradientUnits="userSpaceOnUse" id="gradient7" spreadMethod="pad" x1="-819.2" x2="819.2">
      <stop offset="0.0" stop-color="#34a4a4"/>
      <stop offset="0.47058823529411764" stop-color="#2b8989"/>
    </linearGradient>
    <linearGradient gradientTransform="matrix(0.0071, 0.0475, -0.0557, 0.0083, 46.2, 71.0)" gradientUnits="userSpaceOnUse" id="gradient8" spreadMethod="pad" x1="-819.2" x2="819.2">
      <stop offset="0.0" stop-color="#003333"/>
      <stop offset="1.0" stop-color="#339999"/>
    </linearGradient>
    <linearGradient gradientTransform="matrix(0.0048, 0.018, -0.0489, 0.0131, 48.55, 77.4)" gradientUnits="userSpaceOnUse" id="gradient9" spreadMethod="pad" x1="-819.2" x2="819.2">
      <stop offset="0.0" stop-color="#34a4a4"/>
      <stop offset="0.47058823529411764" stop-color="#2b8989"/>
    </linearGradient>
    <linearGradient gradientTransform="matrix(0.0, 0.0394, -0.0528, 0.0, -58.25, 49.1)" gradientUnits="userSpaceOnUse" id="gradient10" spreadMethod="pad" x1="-819.2" x2="819.2">
      <stop offset="0.0" stop-color="#003333"/>
      <stop offset="1.0" stop-color="#339999"/>
    </linearGradient>
    <linearGradient gradientTransform="matrix(0.0, 0.0159, -0.0472, 0.0, -58.35, 69.95)" gradientUnits="userSpaceOnUse" id="gradient11" spreadMethod="pad" x1="-819.2" x2="819.2">
      <stop offset="0.0" stop-color="#34a4a4"/>
      <stop offset="0.47058823529411764" stop-color="#2b8989"/>
    </linearGradient>
    <linearGradient gradientTransform="matrix(0.0112, 0.0578, -0.0696, 0.0135, 48.35, 28.7)" gradientUnits="userSpaceOnUse" id="gradient12" spreadMethod="pad" x1="-819.2" x2="819.2">
      <stop offset="0.0" stop-color="#003333"/>
      <stop offset="1.0" stop-color="#339999"/>
    </linearGradient>
    <linearGradient gradientTransform="matrix(0.0023, 0.0235, -0.065, 0.0065, 48.05, 33.05)" gradientUnits="userSpaceOnUse" id="gradient13" spreadMethod="pad" x1="-819.2" x2="819.2">
      <stop offset="0.0" stop-color="#34a4a4"/>
      <stop offset="0.47058823529411764" stop-color="#2b8989"/>
    </linearGradient>
    <linearGradient gradientTransform="matrix(-0.0125, 0.0467, -0.0741, -0.0199, -40.95, 15.95)" gradientUnits="userSpaceOnUse" id="gradient14" spreadMethod="pad" x1="-819.2" x2="819.2">
      <stop offset="0.0" stop-color="#003333"/>
      <stop offset="1.0" stop-color="#339999"/>
    </linearGradient>
    <linearGradient gradientTransform="matrix(-0.0063, 0.0234, -0.0688, -0.0184, -44.2, 28.05)" gradientUnits="userSpaceOnUse" id="gradient15" spreadMethod="pad" x1="-819.2" x2="819.2">
      <stop offset="0.0" stop-color="#34a4a4"/>
      <stop offset="0.47058823529411764" stop-color="#2b8989"/>
    </linearGradient>
    <linearGradient gradientTransform="matrix(-0.0076, 0.0527, -0.0708, -0.0103, -2.15, -13.7)" gradientUnits="userSpaceOnUse" id="gradient16" spreadMethod="pad" x1="-819.2" x2="819.2">
      <stop offset="0.0" stop-color="#003333"/>
      <stop offset="1.0" stop-color="#339999"/>
    </linearGradient>
    <linearGradient gradientTransform="matrix(0.0, 0.0155, -0.0659, 0.0, -1.9, -1.1)" gradientUnits="userSpaceOnUse" id="gradient17" spreadMethod="pad" x1="-819.2" x2="819.2">
      <stop offset="0.0" stop-color="#34a4a4"/>
      <stop offset="0.47058823529411764" stop-color="#2b8989"/>
    </linearGradient>
    <linearGradient gradientTransform="matrix(0.0072, 0.0595, -0.064, 0.0078, 30.7, -46.75)" gradientUnits="userSpaceOnUse" id="gradient18" spreadMethod="pad" x1="-819.2" x2="819.2">
      <stop offset="0.0" stop-color="#003333"/>
      <stop offset="1.0" stop-color="#339999"/>
    </linearGradient>
    <linearGradient gradientTransform="matrix(0.0077, 0.0194, -0.0536, 0.0214, 35.55, -43.55)" gradientUnits="userSpaceOnUse" id="gradient19" spreadMethod="pad" x1="-819.2" x2="819.2">
      <stop offset="0.0" stop-color="#34a4a4"/>
      <stop offset="0.47058823529411764" stop-color="#2b8989"/>
    </linearGradient>
    <linearGradient gradientTransform="matrix(-0.0054, 0.0477, -0.0559, -0.0064, -32.85, -52.6)" gradientUnits="userSpaceOnUse" id="gradient20" spreadMethod="pad" x1="-819.2" x2="819.2">
      <stop offset="0.0" stop-color="#003333"/>
      <stop offset="1.0" stop-color="#339999"/>
    </linearGradient>
    <linearGradient gradientTransform="matrix(0.0, 0.0187, -0.0506, 0.0, -32.25, -45.8)" gradientUnits="userSpaceOnUse" id="gradient21" spreadMethod="pad" x1="-819.2" x2="819.2">
      <stop offset="0.0" stop-color="#34a4a4"/>
      <stop offset="0.47058823529411764" stop-color="#2b8989"/>
    </linearGradient>
    <linearGradient gradientTransform="matrix(-0.0079, 0.0299, -0.0571, -0.0151, 4.25, -98.3)" gradientUnits="userSpaceOnUse" id="gradient22" spreadMethod="pad" x1="-819.2" x2="819.2">
      <stop offset="0.0" stop-color="#003333"/>
      <stop offset="1.0" stop-color="#339999"/>
    </linearGradient>
    <linearGradient gradientTransform="matrix(0.0, 0.011, -0.0529, 0.0, 3.05, -91.1)" gradientUnits="userSpaceOnUse" id="gradient23" spreadMethod="pad" x1="-819.2" x2="819.2">
      <stop offset="0.0" stop-color="#34a4a4"/>
      <stop offset="0.47058823529411764" stop-color="#2b8989"/>
    </linearGradient>
    <linearGradient gradientTransform="matrix(0.0063, -0.0236, 0.0194, 0.0052, 8.6, -141.3)" gradientUnits="userSpaceOnUse" id="gradient24" spreadMethod="pad" x1="-819.2" x2="819.2">
      <stop offset="0.0" stop-color="#003333"/>
      <stop offset="1.0" stop-color="#339999"/>
    </linearGradient>
    <linearGradient gradientTransform="matrix(0.0, 0.0159, -0.0435, 0.0, 4.55, -90.05)" gradientUnits="userSpaceOnUse" id="gradient25" spreadMethod="pad" x1="-819.2" x2="819.2">
      <stop offset="0.0" stop-color="#34a4a4"/>
      <stop offset="0.47058823529411764" stop-color="#2b8989"/>
    </linearGradient>
  </defs>
</svg>
