<?xml version="1.0" encoding="UTF-8" standalone="no"?>
<svg xmlns:ffdec="https://www.free-decompiler.com/flash" xmlns:xlink="http://www.w3.org/1999/xlink" ffdec:objectType="shape" height="358.55px" width="118.65px" xmlns="http://www.w3.org/2000/svg">
  <g transform="matrix(1.0, 0.0, 0.0, 1.0, 118.65, 173.65)">
    <path d="M0.0 -161.3 L-12.35 -133.45 -12.4 -133.35 -12.7 -132.65 Q-14.05 -129.4 -14.05 -125.6 -14.05 -123.1 -13.45 -120.8 -12.8 -118.3 -11.4 -116.05 -10.3 -114.25 -8.7 -112.65 -4.95 -108.9 0.0 -107.8 L0.0 -102.7 Q-7.0 -103.9 -12.25 -109.15 -14.05 -110.95 -15.35 -112.95 L-35.8 -97.05 -36.15 -96.85 -36.3 -96.75 -38.3 -95.05 Q-42.05 -91.35 -42.05 -86.05 -42.05 -80.75 -38.3 -77.0 -37.35 -76.05 -36.25 -75.3 -33.2 -73.3 -29.3 -73.3 L-28.95 -73.3 Q-24.5 -73.4 -21.15 -76.2 -19.7 -77.4 -17.8 -77.35 -16.45 -77.35 -15.35 -76.65 L-14.55 -76.05 Q-12.85 -74.5 -10.95 -73.35 -6.55 -70.8 -1.05 -70.8 L0.0 -70.8 0.0 -65.8 -1.05 -65.8 Q-9.45 -65.8 -15.8 -70.6 L-22.0 -67.05 -22.55 -66.8 Q-25.0 -65.8 -27.0 -63.75 -31.05 -59.75 -31.05 -54.05 -31.05 -48.35 -27.0 -44.3 -23.0 -40.3 -17.3 -40.3 -14.35 -40.3 -11.8 -41.35 L-8.8 -41.7 Q-7.25 -41.4 -6.15 -40.2 -5.1 -39.1 -4.85 -37.5 -4.1 -32.6 -1.5 -28.45 L0.0 -26.3 0.0 -19.05 -1.4 -20.4 Q-5.0 -24.0 -7.1 -28.25 -9.15 -32.25 -9.8 -36.8 -13.25 -35.3 -17.3 -35.3 -25.05 -35.3 -30.55 -40.8 -36.05 -46.3 -36.05 -54.05 -36.05 -61.8 -30.55 -67.3 L-29.45 -68.3 Q-33.25 -68.35 -36.4 -69.75 L-79.4 -49.2 -82.7 -46.45 Q-89.05 -40.05 -89.05 -31.05 -89.05 -22.0 -82.7 -15.65 -76.35 -9.3 -67.3 -9.3 L-64.1 -9.5 Q-58.9 -10.2 -54.75 -13.25 -53.35 -14.3 -51.65 -14.25 -49.95 -14.2 -48.6 -13.1 -47.3 -12.05 -46.9 -10.35 L-46.7 -9.7 Q-44.75 -1.95 -38.65 4.15 -33.15 9.65 -26.15 11.8 -23.8 12.55 -21.25 12.9 L-16.85 13.15 -16.25 13.15 Q-10.45 13.05 -5.4 11.05 -2.55 9.95 0.0 8.25 L0.0 14.05 Q-7.15 17.9 -15.75 18.15 L-16.85 18.15 -21.05 17.95 -20.3 20.3 Q-18.0 26.1 -12.3 28.55 -6.6 31.0 -0.8 28.7 L0.0 28.35 0.0 33.75 Q-7.2 36.15 -14.25 33.15 -21.85 29.85 -24.9 22.15 -25.95 19.55 -26.25 17.0 -35.2 14.65 -42.2 7.65 -49.55 0.3 -51.75 -9.25 -56.45 -5.8 -62.2 -4.75 L-99.45 20.75 -100.2 21.15 Q-102.25 22.1 -104.2 23.5 -111.85 29.0 -113.35 38.3 -114.9 47.6 -109.4 55.2 -103.9 62.85 -94.6 64.4 -85.3 65.9 -77.7 60.4 L-77.65 60.4 -76.9 59.85 Q-75.5 58.75 -73.7 58.8 -71.9 58.85 -70.55 60.05 -69.25 61.25 -68.95 63.05 -68.1 68.6 -64.55 73.55 L-63.55 74.8 -60.0 78.45 Q-55.95 81.7 -50.7 83.05 L-48.5 83.5 -45.6 83.8 -40.55 83.6 Q-35.05 82.7 -30.1 79.2 -26.2 76.35 -23.75 72.65 -23.2 71.75 -22.3 71.2 -21.75 70.8 -21.05 70.6 L-17.65 70.75 Q-15.1 71.85 -12.15 72.35 -5.7 73.4 0.0 71.15 L0.0 76.45 Q-6.15 78.35 -12.95 77.25 -16.5 76.65 -19.6 75.4 -22.5 79.85 -27.2 83.25 -32.85 87.3 -39.2 88.4 L-44.4 88.85 Q-42.55 94.15 -38.25 98.45 -30.65 106.05 -19.85 106.05 L-13.85 105.4 Q-11.1 104.8 -8.6 103.6 L-8.4 103.5 Q-6.6 102.55 -4.65 103.2 -2.75 103.8 -1.75 105.55 L0.0 108.45 0.0 122.45 Q-1.05 125.35 -3.45 127.75 -7.65 132.0 -13.65 132.0 -17.6 132.0 -20.8 130.15 -22.55 135.4 -26.65 139.65 L-26.95 139.95 Q-34.35 147.35 -44.85 147.35 -55.35 147.35 -62.75 139.95 -65.9 136.8 -67.7 133.05 -71.05 136.0 -75.0 137.4 L-79.7 138.45 -79.85 141.2 Q-79.85 150.9 -73.0 157.75 -66.15 164.6 -56.45 164.6 -50.8 164.65 -46.15 162.3 -44.55 161.5 -42.8 162.05 -41.05 162.55 -40.15 164.15 -38.1 168.0 -34.75 171.4 -25.7 180.4 -12.95 180.4 -5.9 180.4 0.0 177.6 L0.0 182.55 Q-6.0 184.9 -12.95 184.9 -27.55 184.9 -37.9 174.55 -41.75 170.75 -44.15 166.35 -49.7 169.1 -56.45 169.1 -68.0 169.1 -76.2 160.95 -84.35 152.75 -84.35 141.2 L-84.25 138.55 Q-92.55 138.0 -98.65 131.9 -105.3 125.25 -105.3 115.85 -105.3 106.75 -99.05 100.2 L-98.65 99.75 Q-96.65 97.75 -94.4 96.4 L-67.65 77.7 -68.6 76.45 Q-72.85 70.5 -73.85 63.8 L-74.75 64.45 Q-84.05 71.2 -95.4 69.35 -106.75 67.45 -113.45 58.1 -120.15 48.8 -118.25 37.5 -116.4 26.15 -107.1 19.45 -104.8 17.75 -102.3 16.6 L-71.3 -4.55 Q-79.85 -5.75 -86.25 -12.15 -94.05 -19.95 -94.05 -31.05 -94.05 -42.15 -86.25 -50.0 -84.2 -52.05 -81.95 -53.5 L-41.25 -72.95 -41.85 -73.5 Q-47.05 -78.7 -47.05 -86.05 -47.05 -93.4 -41.85 -98.6 L-39.1 -100.85 -38.9 -101.0 -17.65 -117.5 Q-19.05 -121.3 -19.05 -125.6 -19.05 -130.45 -17.3 -134.6 L-16.9 -135.5 0.0 -173.65 0.0 -161.3 M-64.2 81.4 L-91.55 100.5 -91.75 100.65 Q-93.55 101.7 -95.1 103.3 L-95.35 103.55 -95.45 103.65 Q-100.3 108.75 -100.3 115.85 -100.3 123.2 -95.1 128.4 -90.2 133.3 -83.35 133.6 L-82.55 133.6 -78.5 133.2 Q-74.6 132.3 -71.4 129.6 L-71.05 129.3 -70.95 129.25 Q-69.8 128.25 -68.25 128.1 -66.7 127.9 -65.3 128.7 -63.9 129.45 -63.2 130.9 L-62.6 132.05 Q-61.25 134.4 -59.2 136.45 -53.3 142.35 -44.85 142.35 -38.35 142.35 -33.3 138.8 -31.8 137.75 -30.45 136.45 -27.0 132.95 -25.55 128.6 -25.1 127.15 -23.85 126.2 -22.65 125.25 -21.15 125.2 -19.65 125.05 -18.3 125.85 -16.2 127.0 -13.65 127.0 -9.75 127.0 -7.0 124.25 L-6.95 124.2 Q-4.2 121.45 -4.2 117.55 -4.2 116.0 -4.6 114.6 L-9.75 109.45 Q-14.5 111.05 -19.85 111.05 -32.7 111.05 -41.8 101.95 -47.8 95.95 -49.8 88.3 -58.25 86.8 -64.2 81.4" fill="#000000" fill-rule="evenodd" stroke="none"/>
    <path d="M0.0 122.45 L0.0 139.95 Q-13.0 141.0 -26.65 139.65 -22.55 135.4 -20.8 130.15 -17.6 132.0 -13.65 132.0 -7.65 132.0 -3.45 127.75 -1.05 125.35 0.0 122.45 M0.0 172.55 L0.0 177.6 Q-5.9 180.4 -12.95 180.4 -25.7 180.4 -34.75 171.4 -38.1 168.0 -40.15 164.15 -41.05 162.55 -42.8 162.05 -44.55 161.5 -46.15 162.3 -50.8 164.65 -56.45 164.6 -66.15 164.6 -73.0 157.75 -79.85 150.9 -79.85 141.2 L-79.7 138.45 -75.0 137.4 Q-75.35 139.2 -75.35 141.2 -75.35 149.05 -69.85 154.55 L-69.8 154.6 Q-64.3 160.1 -56.45 160.1 L-56.4 160.1 Q-51.9 160.15 -48.2 158.3 L-48.15 158.3 Q-44.9 156.65 -41.45 157.75 -38.0 158.8 -36.25 162.0 L-36.2 162.0 Q-34.4 165.3 -31.55 168.2 -23.85 175.9 -12.95 175.9 -5.8 175.9 0.0 172.55" fill="url(#gradient0)" fill-rule="evenodd" stroke="none"/>
    <path d="M0.0 139.95 L0.0 172.55 Q-5.8 175.9 -12.95 175.9 -23.85 175.9 -31.55 168.2 -34.4 165.3 -36.2 162.0 L-36.25 162.0 Q-38.0 158.8 -41.45 157.75 -44.9 156.65 -48.15 158.3 L-48.2 158.3 Q-51.9 160.15 -56.4 160.1 L-56.45 160.1 Q-64.3 160.1 -69.8 154.6 L-69.85 154.55 Q-75.35 149.05 -75.35 141.2 -75.35 139.2 -75.0 137.4 -71.05 136.0 -67.7 133.05 -65.9 136.8 -62.75 139.95 -55.35 147.35 -44.85 147.35 -34.35 147.35 -26.95 139.95 L-26.65 139.65 Q-13.0 141.0 0.0 139.95" fill="url(#gradient1)" fill-rule="evenodd" stroke="none"/>
    <path d="M-64.2 81.4 Q-58.25 86.8 -49.8 88.3 -47.8 95.95 -41.8 101.95 -32.7 111.05 -19.85 111.05 -14.5 111.05 -9.75 109.45 L-4.6 114.6 Q-4.2 116.0 -4.2 117.55 -4.2 121.45 -6.95 124.2 L-7.0 124.25 Q-9.75 127.0 -13.65 127.0 -16.2 127.0 -18.3 125.85 -19.65 125.05 -21.15 125.2 -22.65 125.25 -23.85 126.2 -25.1 127.15 -25.55 128.6 -27.0 132.95 -30.45 136.45 -31.8 137.75 -33.3 138.8 -38.35 142.35 -44.85 142.35 -53.3 142.35 -59.2 136.45 -61.25 134.4 -62.6 132.05 L-63.2 130.9 Q-63.9 129.45 -65.3 128.7 -66.7 127.9 -68.25 128.1 -69.8 128.25 -70.95 129.25 L-71.05 129.3 -71.4 129.6 Q-74.6 132.3 -78.5 133.2 L-82.55 133.6 -83.35 133.6 Q-90.2 133.3 -95.1 128.4 -100.3 123.2 -100.3 115.85 -100.3 108.75 -95.45 103.65 L-95.35 103.55 -95.1 103.3 Q-93.55 101.7 -91.75 100.65 L-91.55 100.5 -64.2 81.4 M-93.05 108.6 Q-95.3 111.75 -95.3 115.85 -95.3 121.1 -91.6 124.85 L-91.55 124.85 Q-87.8 128.6 -82.55 128.6 L-81.4 128.55 Q-77.4 128.25 -74.35 125.55 L-72.75 124.4 Q-71.0 123.35 -68.8 123.1 -65.65 122.75 -62.85 124.3 -60.1 125.85 -58.7 128.7 -57.6 130.95 -55.7 132.9 L-55.65 132.9 -53.6 134.65 Q-49.8 137.35 -44.85 137.35 L-42.6 137.2 Q-37.7 136.55 -34.0 132.9 -31.4 130.25 -30.3 127.0 -29.35 124.15 -26.95 122.25 L-26.9 122.25 Q-24.5 120.35 -21.45 120.2 L-21.5 120.2 Q-18.45 119.95 -15.8 121.5 -14.85 122.05 -13.7 122.0 L-13.65 122.0 Q-11.85 122.0 -10.55 120.7 L-10.5 120.7 -10.5 120.65 Q-8.25 119.0 -8.7 114.7 -33.65 116.1 -57.25 114.0 L-64.4 113.25 Q-79.0 111.6 -93.05 108.6" fill="url(#gradient2)" fill-rule="evenodd" stroke="none"/>
    <path d="M-93.05 108.6 Q-79.0 111.6 -64.4 113.25 L-57.25 114.0 Q-33.65 116.1 -8.7 114.7 -8.25 119.0 -10.5 120.65 L-10.5 120.7 -10.55 120.7 Q-11.85 122.0 -13.65 122.0 L-13.7 122.0 Q-14.85 122.05 -15.8 121.5 -18.45 119.95 -21.5 120.2 L-21.45 120.2 Q-24.5 120.35 -26.9 122.25 L-26.95 122.25 Q-29.35 124.15 -30.3 127.0 -31.4 130.25 -34.0 132.9 -37.7 136.55 -42.6 137.2 L-44.85 137.35 Q-49.8 137.35 -53.6 134.65 L-55.65 132.9 -55.7 132.9 Q-57.6 130.95 -58.7 128.7 -60.1 125.85 -62.85 124.3 -65.65 122.75 -68.8 123.1 -71.0 123.35 -72.75 124.4 L-74.35 125.55 Q-77.4 128.25 -81.4 128.55 L-82.55 128.6 Q-87.8 128.6 -91.55 124.85 L-91.6 124.85 Q-95.3 121.1 -95.3 115.85 -95.3 111.75 -93.05 108.6" fill="url(#gradient3)" fill-rule="evenodd" stroke="none"/>
    <path d="M0.0 100.05 L0.0 108.45 -1.75 105.55 Q-2.75 103.8 -4.65 103.2 -6.6 102.55 -8.4 103.5 L-8.6 103.6 Q-11.1 104.8 -13.85 105.4 L-19.85 106.05 Q-30.65 106.05 -38.25 98.45 -42.55 94.15 -44.4 88.85 L-39.2 88.4 Q-37.7 91.95 -34.75 94.9 L-34.7 94.9 Q-28.55 101.05 -19.85 101.05 L-19.8 101.05 -18.25 101.0 Q-15.2 100.8 -12.45 99.8 L-10.65 99.0 Q-7.75 97.55 -4.7 98.05 L-3.15 98.4 Q-1.4 98.95 0.0 100.05" fill="url(#gradient4)" fill-rule="evenodd" stroke="none"/>
    <path d="M0.0 76.45 L0.0 100.05 Q-1.4 98.95 -3.15 98.4 L-4.7 98.05 Q-7.75 97.55 -10.65 99.0 L-12.45 99.8 Q-15.2 100.8 -18.25 101.0 L-19.8 101.05 -19.85 101.05 Q-28.55 101.05 -34.7 94.9 L-34.75 94.9 Q-37.7 91.95 -39.2 88.4 -32.85 87.3 -27.2 83.25 -22.5 79.85 -19.6 75.4 -16.5 76.65 -12.95 77.25 -6.15 78.35 0.0 76.45" fill="url(#gradient5)" fill-rule="evenodd" stroke="none"/>
    <path d="M0.0 71.15 Q-5.7 73.4 -12.15 72.35 -15.1 71.85 -17.65 70.75 L-21.05 70.6 Q-21.75 70.8 -22.3 71.2 -23.2 71.75 -23.75 72.65 -26.2 76.35 -30.1 79.2 -35.05 82.7 -40.55 83.6 L-45.6 83.8 -48.5 83.5 -50.7 83.05 Q-55.95 81.7 -60.0 78.45 L-63.55 74.8 -64.55 73.55 Q-68.1 68.6 -68.95 63.05 -69.25 61.25 -70.55 60.05 -71.9 58.85 -73.7 58.8 -75.5 58.75 -76.9 59.85 L-77.65 60.4 -77.7 60.4 Q-85.3 65.9 -94.6 64.4 -103.9 62.85 -109.4 55.2 -114.9 47.6 -113.35 38.3 -111.85 29.0 -104.2 23.5 -102.25 22.1 -100.2 21.15 L-99.45 20.75 -62.2 -4.75 Q-56.45 -5.8 -51.75 -9.25 -49.55 0.3 -42.2 7.65 -35.2 14.65 -26.25 17.0 -25.95 19.55 -24.9 22.15 -21.85 29.85 -14.25 33.15 -7.2 36.15 0.0 33.75 L0.0 41.5 -10.35 43.1 -20.95 44.0 Q-60.3 46.0 -102.7 28.7 -107.4 32.75 -108.4 39.1 -109.6 46.35 -105.35 52.3 -101.05 58.25 -93.8 59.45 -86.6 60.65 -80.65 56.35 L-80.6 56.35 -80.55 56.35 -80.5 56.3 -79.95 55.9 -79.9 55.85 Q-77.1 53.7 -73.5 53.85 -69.95 53.95 -67.25 56.35 -64.55 58.7 -64.0 62.25 -63.3 66.65 -60.5 70.6 L-60.45 70.65 -59.45 71.95 Q-57.75 73.95 -55.65 75.4 -53.45 76.95 -50.75 77.8 L-47.65 78.55 -45.8 78.8 -40.8 78.55 Q-36.7 77.75 -33.0 75.15 L-33.0 75.1 Q-29.9 72.85 -27.95 69.9 L-27.7 69.55 Q-25.75 66.85 -22.5 65.85 L-22.55 65.85 Q-19.1 64.75 -15.75 66.15 -13.7 67.0 -11.35 67.4 -5.25 68.4 0.0 65.65 L0.0 71.15" fill="url(#gradient6)" fill-rule="evenodd" stroke="none"/>
    <path d="M0.0 65.65 Q-5.25 68.4 -11.35 67.4 -13.7 67.0 -15.75 66.15 -19.1 64.75 -22.55 65.85 L-22.5 65.85 Q-25.75 66.85 -27.7 69.55 L-27.95 69.9 Q-29.9 72.85 -33.0 75.1 L-33.0 75.15 Q-36.7 77.75 -40.8 78.55 L-45.8 78.8 -47.65 78.55 -50.75 77.8 Q-53.45 76.95 -55.65 75.4 -57.75 73.95 -59.45 71.95 L-60.45 70.65 -60.5 70.6 Q-63.3 66.65 -64.0 62.25 -64.55 58.7 -67.25 56.35 -69.95 53.95 -73.5 53.85 -77.1 53.7 -79.9 55.85 L-79.95 55.9 -80.5 56.3 -80.55 56.35 -80.6 56.35 -80.65 56.35 Q-86.6 60.65 -93.8 59.45 -101.05 58.25 -105.35 52.3 -109.6 46.35 -108.4 39.1 -107.4 32.75 -102.7 28.7 -60.3 46.0 -20.95 44.0 L-10.35 43.1 0.0 41.5 0.0 65.65" fill="url(#gradient7)" fill-rule="evenodd" stroke="none"/>
    <path d="M0.0 28.35 L-0.8 28.7 Q-6.6 31.0 -12.3 28.55 -18.0 26.1 -20.3 20.3 L-21.05 17.95 -16.85 18.15 -15.75 18.15 -15.65 18.45 Q-14.1 22.3 -10.3 23.95 L-10.3 24.0 Q-6.85 25.45 -3.35 24.3 L-2.65 24.05 Q-1.15 23.45 0.0 22.55 L0.0 28.35" fill="url(#gradient8)" fill-rule="evenodd" stroke="none"/>
    <path d="M-15.75 18.15 Q-7.15 17.9 0.0 14.05 L0.0 22.55 Q-1.15 23.45 -2.65 24.05 L-3.35 24.3 Q-6.85 25.45 -10.3 24.0 L-10.3 23.95 Q-14.1 22.3 -15.65 18.45 L-15.75 18.15" fill="url(#gradient9)" fill-rule="evenodd" stroke="none"/>
    <path d="M0.0 8.25 Q-2.55 9.95 -5.4 11.05 -10.45 13.05 -16.25 13.15 L-16.85 13.15 -21.25 12.9 Q-23.8 12.55 -26.15 11.8 -33.15 9.65 -38.65 4.15 -44.75 -1.95 -46.7 -9.7 L-46.9 -10.35 Q-47.3 -12.05 -48.6 -13.1 -49.95 -14.2 -51.65 -14.25 -53.35 -14.3 -54.75 -13.25 -58.9 -10.2 -64.1 -9.5 L-67.3 -9.3 Q-76.35 -9.3 -82.7 -15.65 -89.05 -22.0 -89.05 -31.05 -89.05 -40.05 -82.7 -46.45 L-79.4 -49.2 -36.4 -69.75 Q-33.25 -68.35 -29.45 -68.3 L-30.55 -67.3 Q-36.05 -61.8 -36.05 -54.05 -36.05 -46.3 -30.55 -40.8 -25.05 -35.3 -17.3 -35.3 -13.25 -35.3 -9.8 -36.8 -9.15 -32.25 -7.1 -28.25 -46.35 -27.4 -80.6 -41.3 -84.05 -36.9 -84.05 -31.05 -84.05 -24.1 -79.2 -19.2 L-79.15 -19.2 Q-74.25 -14.3 -67.3 -14.3 L-67.25 -14.3 Q-61.85 -14.25 -57.7 -17.3 -54.9 -19.35 -51.5 -19.25 -48.1 -19.15 -45.45 -17.0 -43.25 -15.2 -42.35 -12.6 L-42.0 -11.5 Q-40.95 -6.9 -38.15 -2.95 L-35.1 0.6 -35.15 0.6 Q-31.0 4.75 -25.95 6.6 -23.0 7.65 -19.75 8.0 L-16.85 8.15 Q-7.15 8.15 0.0 1.95 L0.0 8.25" fill="url(#gradient10)" fill-rule="evenodd" stroke="none"/>
    <path d="M-7.1 -28.25 Q-5.0 -24.0 -1.4 -20.4 L0.0 -19.05 0.0 1.95 Q-7.15 8.15 -16.85 8.15 L-19.75 8.0 Q-23.0 7.65 -25.95 6.6 -31.0 4.75 -35.15 0.6 L-35.1 0.6 -38.15 -2.95 Q-40.95 -6.9 -42.0 -11.5 L-42.35 -12.6 Q-43.25 -15.2 -45.45 -17.0 -48.1 -19.15 -51.5 -19.25 -54.9 -19.35 -57.7 -17.3 -61.85 -14.25 -67.25 -14.3 L-67.3 -14.3 Q-74.25 -14.3 -79.15 -19.2 L-79.2 -19.2 Q-84.05 -24.1 -84.05 -31.05 -84.05 -36.9 -80.6 -41.3 -46.35 -27.4 -7.1 -28.25" fill="url(#gradient11)" fill-rule="evenodd" stroke="none"/>
    <path d="M0.0 -26.3 L-1.5 -28.45 Q-4.1 -32.6 -4.85 -37.5 -5.1 -39.1 -6.15 -40.2 -7.25 -41.4 -8.8 -41.7 L-11.8 -41.35 Q-14.35 -40.3 -17.3 -40.3 -23.0 -40.3 -27.0 -44.3 -31.05 -48.35 -31.05 -54.05 -31.05 -59.75 -27.0 -63.75 -25.0 -65.8 -22.55 -66.8 L-22.0 -67.05 -15.8 -70.6 Q-9.45 -65.8 -1.05 -65.8 L0.0 -65.8 0.0 -53.7 Q-11.25 -56.7 -21.15 -61.95 -22.4 -61.3 -23.45 -60.25 L-23.5 -60.2 Q-26.05 -57.65 -26.05 -54.05 -26.05 -50.45 -23.5 -47.85 L-23.45 -47.85 Q-20.9 -45.3 -17.3 -45.3 L-17.25 -45.3 Q-15.4 -45.25 -13.8 -45.95 -10.9 -47.25 -7.8 -46.6 L-7.75 -46.6 Q-4.7 -45.95 -2.55 -43.65 L-2.5 -43.65 Q-0.55 -41.6 0.0 -38.8 L0.0 -26.3" fill="url(#gradient12)" fill-rule="evenodd" stroke="none"/>
    <path d="M0.0 -38.8 Q-0.55 -41.6 -2.5 -43.65 L-2.55 -43.65 Q-4.7 -45.95 -7.75 -46.6 L-7.8 -46.6 Q-10.9 -47.25 -13.8 -45.95 -15.4 -45.25 -17.25 -45.3 L-17.3 -45.3 Q-20.9 -45.3 -23.45 -47.85 L-23.5 -47.85 Q-26.05 -50.45 -26.05 -54.05 -26.05 -57.65 -23.5 -60.2 L-23.45 -60.25 Q-22.4 -61.3 -21.15 -61.95 -11.25 -56.7 0.0 -53.7 L0.0 -38.8" fill="url(#gradient13)" fill-rule="evenodd" stroke="none"/>
    <path d="M0.0 -70.8 L-1.05 -70.8 Q-6.55 -70.8 -10.95 -73.35 -12.85 -74.5 -14.55 -76.05 L-15.35 -76.65 Q-16.45 -77.35 -17.8 -77.35 -19.7 -77.4 -21.15 -76.2 -24.5 -73.4 -28.95 -73.3 L-29.3 -73.3 Q-33.2 -73.3 -36.25 -75.3 -37.35 -76.05 -38.3 -77.0 -42.05 -80.75 -42.05 -86.05 -42.05 -91.35 -38.3 -95.05 L-36.3 -96.75 -36.15 -96.85 -35.8 -97.05 -15.35 -112.95 Q-14.05 -110.95 -12.25 -109.15 -7.0 -103.9 0.0 -102.7 L0.0 -93.35 -34.0 -92.2 -34.75 -91.55 -34.8 -91.5 Q-37.05 -89.25 -37.05 -86.05 -37.05 -82.85 -34.8 -80.55 L-34.75 -80.55 Q-32.75 -78.55 -30.0 -78.3 L-29.3 -78.3 -29.25 -78.3 Q-26.45 -78.25 -24.4 -80.0 L-24.35 -80.05 Q-21.45 -82.45 -17.7 -82.35 -15.0 -82.3 -12.85 -81.0 L-11.15 -79.7 -10.7 -79.3 Q-8.35 -77.3 -5.55 -76.45 L-1.05 -75.8 0.0 -75.8 0.0 -70.8 M-33.45 -92.65 L-33.5 -92.6 -33.4 -92.65 -33.45 -92.65" fill="url(#gradient14)" fill-rule="evenodd" stroke="none"/>
    <path d="M-33.45 -92.65 L-33.4 -92.65 -33.5 -92.6 -33.45 -92.65" fill="url(#gradient15)" fill-rule="evenodd" stroke="none"/>
    <path d="M0.0 -126.15 Q-2.55 -126.25 -4.4 -127.85 L-4.8 -128.25 Q-6.9 -130.35 -6.9 -133.25 -6.9 -134.75 -6.35 -136.0 L-6.25 -136.25 -6.25 -136.35 0.0 -150.45 0.0 -126.15 M0.0 -75.8 L-1.05 -75.8 -5.55 -76.45 Q-8.35 -77.3 -10.7 -79.3 L-11.15 -79.7 -12.85 -81.0 Q-15.0 -82.3 -17.7 -82.35 -21.45 -82.45 -24.35 -80.05 L-24.4 -80.0 Q-26.45 -78.25 -29.25 -78.3 L-29.3 -78.3 -30.0 -78.3 Q-32.75 -78.55 -34.75 -80.55 L-34.8 -80.55 Q-37.05 -82.85 -37.05 -86.05 -37.05 -89.25 -34.8 -91.5 L-34.75 -91.55 -34.0 -92.2 0.0 -93.35 0.0 -75.8" fill="url(#gradient16)" fill-rule="evenodd" stroke="none"/>
    <path d="M0.0 -150.45 L-6.25 -136.35 -6.25 -136.25 -6.35 -136.0 Q-6.9 -134.75 -6.9 -133.25 -6.9 -130.35 -4.8 -128.25 L-4.4 -127.85 Q-2.55 -126.25 0.0 -126.15 L0.0 -107.8 Q-4.95 -108.9 -8.7 -112.65 -10.3 -114.25 -11.4 -116.05 -12.8 -118.3 -13.45 -120.8 -14.05 -123.1 -14.05 -125.6 -14.05 -129.4 -12.7 -132.65 L-12.4 -133.35 -12.35 -133.45 0.0 -161.3 0.0 -150.45" fill="url(#gradient17)" fill-rule="evenodd" stroke="none"/>
  </g>
  <defs>
    <linearGradient gradientTransform="matrix(0.0, 0.0484, -0.0767, 0.0, -17.0, 143.05)" gradientUnits="userSpaceOnUse" id="gradient0" spreadMethod="pad" x1="-819.2" x2="819.2">
      <stop offset="0.0" stop-color="#003333"/>
      <stop offset="1.0" stop-color="#339999"/>
    </linearGradient>
    <linearGradient gradientTransform="matrix(0.0, 0.0242, -0.0712, 0.0, -17.0, 155.6)" gradientUnits="userSpaceOnUse" id="gradient1" spreadMethod="pad" x1="-819.2" x2="819.2">
      <stop offset="0.0" stop-color="#34a4a4"/>
      <stop offset="0.47058823529411764" stop-color="#2b8989"/>
    </linearGradient>
    <linearGradient gradientTransform="matrix(0.0, 0.0438, -0.0587, 0.0, -52.25, 106.45)" gradientUnits="userSpaceOnUse" id="gradient2" spreadMethod="pad" x1="-819.2" x2="819.2">
      <stop offset="0.0" stop-color="#003333"/>
      <stop offset="1.0" stop-color="#339999"/>
    </linearGradient>
    <linearGradient gradientTransform="matrix(0.0, 0.0177, -0.0524, 0.0, -52.35, 129.6)" gradientUnits="userSpaceOnUse" id="gradient3" spreadMethod="pad" x1="-819.2" x2="819.2">
      <stop offset="0.0" stop-color="#34a4a4"/>
      <stop offset="0.47058823529411764" stop-color="#2b8989"/>
    </linearGradient>
    <linearGradient gradientTransform="matrix(0.0, 0.0538, -0.0853, 0.0, 24.0, 82.1)" gradientUnits="userSpaceOnUse" id="gradient4" spreadMethod="pad" x1="-819.2" x2="819.2">
      <stop offset="0.0" stop-color="#003333"/>
      <stop offset="1.0" stop-color="#339999"/>
    </linearGradient>
    <linearGradient gradientTransform="matrix(0.0, 0.0269, -0.0792, 0.0, 24.0, 96.05)" gradientUnits="userSpaceOnUse" id="gradient5" spreadMethod="pad" x1="-819.2" x2="819.2">
      <stop offset="0.0" stop-color="#34a4a4"/>
      <stop offset="0.47058823529411764" stop-color="#2b8989"/>
    </linearGradient>
    <linearGradient gradientTransform="matrix(-0.0046, 0.0653, -0.0786, -0.0056, -49.8, 53.8)" gradientUnits="userSpaceOnUse" id="gradient6" spreadMethod="pad" x1="-819.2" x2="819.2">
      <stop offset="0.0" stop-color="#003333"/>
      <stop offset="1.0" stop-color="#339999"/>
    </linearGradient>
    <linearGradient gradientTransform="matrix(-0.0042, 0.0259, -0.0716, -0.0117, -51.35, 58.35)" gradientUnits="userSpaceOnUse" id="gradient7" spreadMethod="pad" x1="-819.2" x2="819.2">
      <stop offset="0.0" stop-color="#34a4a4"/>
      <stop offset="0.47058823529411764" stop-color="#2b8989"/>
    </linearGradient>
    <linearGradient gradientTransform="matrix(0.008, 0.0661, -0.0711, 0.0086, 38.6, 22.3)" gradientUnits="userSpaceOnUse" id="gradient8" spreadMethod="pad" x1="-819.2" x2="819.2">
      <stop offset="0.0" stop-color="#003333"/>
      <stop offset="1.0" stop-color="#339999"/>
    </linearGradient>
    <linearGradient gradientTransform="matrix(0.0086, 0.0216, -0.0596, 0.0238, 43.9, 25.9)" gradientUnits="userSpaceOnUse" id="gradient9" spreadMethod="pad" x1="-819.2" x2="819.2">
      <stop offset="0.0" stop-color="#34a4a4"/>
      <stop offset="0.47058823529411764" stop-color="#2b8989"/>
    </linearGradient>
    <linearGradient gradientTransform="matrix(-0.0085, 0.0586, -0.0786, -0.0114, -24.35, -24.75)" gradientUnits="userSpaceOnUse" id="gradient10" spreadMethod="pad" x1="-819.2" x2="819.2">
      <stop offset="0.0" stop-color="#003333"/>
      <stop offset="1.0" stop-color="#339999"/>
    </linearGradient>
    <linearGradient gradientTransform="matrix(0.0, 0.0172, -0.0732, 0.0, -24.05, -10.75)" gradientUnits="userSpaceOnUse" id="gradient11" spreadMethod="pad" x1="-819.2" x2="819.2">
      <stop offset="0.0" stop-color="#34a4a4"/>
      <stop offset="0.47058823529411764" stop-color="#2b8989"/>
    </linearGradient>
    <linearGradient gradientTransform="matrix(-0.0061, 0.0531, -0.0621, -0.0071, 19.35, -44.35)" gradientUnits="userSpaceOnUse" id="gradient12" spreadMethod="pad" x1="-819.2" x2="819.2">
      <stop offset="0.0" stop-color="#003333"/>
      <stop offset="1.0" stop-color="#339999"/>
    </linearGradient>
    <linearGradient gradientTransform="matrix(0.0, 0.0208, -0.0562, 0.0, 20.0, -36.8)" gradientUnits="userSpaceOnUse" id="gradient13" spreadMethod="pad" x1="-819.2" x2="819.2">
      <stop offset="0.0" stop-color="#34a4a4"/>
      <stop offset="0.47058823529411764" stop-color="#2b8989"/>
    </linearGradient>
    <linearGradient gradientTransform="matrix(-0.0094, 0.0356, -0.0507, -0.0134, 4.25, -95.15)" gradientUnits="userSpaceOnUse" id="gradient14" spreadMethod="pad" x1="-819.2" x2="819.2">
      <stop offset="0.0" stop-color="#003333"/>
      <stop offset="1.0" stop-color="#339999"/>
    </linearGradient>
    <linearGradient gradientTransform="matrix(0.0, 0.0122, -0.4075, 0.0, -65.15, -213.8)" gradientUnits="userSpaceOnUse" id="gradient15" spreadMethod="pad" x1="-819.2" x2="819.2">
      <stop offset="0.0" stop-color="#ffffff" stop-opacity="0.2"/>
      <stop offset="1.0" stop-color="#ffffff" stop-opacity="0.0"/>
    </linearGradient>
    <linearGradient gradientTransform="matrix(0.0, 0.0177, -0.0483, 0.0, 2.55, -79.3)" gradientUnits="userSpaceOnUse" id="gradient16" spreadMethod="pad" x1="-819.2" x2="819.2">
      <stop offset="0.0" stop-color="#34a4a4"/>
      <stop offset="0.47058823529411764" stop-color="#2b8989"/>
    </linearGradient>
    <linearGradient gradientTransform="matrix(0.007, -0.0262, 0.0216, 0.0058, 7.05, -136.25)" gradientUnits="userSpaceOnUse" id="gradient17" spreadMethod="pad" x1="-819.2" x2="819.2">
      <stop offset="0.0" stop-color="#003333"/>
      <stop offset="1.0" stop-color="#339999"/>
    </linearGradient>
  </defs>
</svg>
