<?xml version="1.0" encoding="UTF-8" standalone="no"?>
<svg xmlns:ffdec="https://www.free-decompiler.com/flash" xmlns:xlink="http://www.w3.org/1999/xlink" ffdec:objectType="shape" height="612.0px" width="960.0px" xmlns="http://www.w3.org/2000/svg">
  <g transform="matrix(1.0, 0.0, 0.0, 1.0, 480.0, 306.0)">
    <path d="M296.4 306.0 L293.3 306.0 Q302.6 280.65 306.85 237.35 311.0 195.2 308.2 162.3 298.1 143.1 287.9 101.95 L287.8 101.15 Q288.5 74.4 301.85 46.95 313.9 21.7 318.25 -5.0 290.9 -12.6 274.75 -33.1 248.5 -34.7 227.15 -52.5 L226.75 -52.9 Q211.2 -71.85 201.6 -103.0 191.2 -102.1 179.7 -114.0 178.9 -114.75 178.85 -115.85 178.75 -117.0 179.4 -117.9 180.05 -118.8 181.15 -119.05 L183.2 -118.85 Q194.1 -113.5 204.25 -115.15 205.25 -125.75 200.3 -135.45 199.75 -136.55 200.05 -137.7 200.35 -138.85 201.3 -139.45 202.25 -140.1 203.45 -139.85 204.55 -139.75 205.3 -138.75 218.8 -122.05 214.3 -105.3 223.25 -80.95 237.9 -64.1 251.2 -57.65 261.55 -56.7 246.0 -82.4 242.35 -114.65 242.2 -115.65 242.75 -116.6 249.65 -128.05 246.65 -139.45 235.9 -148.1 224.0 -167.9 223.4 -169.0 223.6 -170.15 223.85 -171.35 224.8 -172.0 225.8 -172.65 227.0 -172.5 228.2 -172.35 228.95 -171.4 239.5 -158.05 251.9 -150.7 262.25 -159.2 267.7 -172.6 268.15 -173.7 269.15 -174.15 L271.4 -174.35 Q272.45 -174.05 273.1 -173.0 273.7 -172.05 273.5 -170.9 270.5 -154.45 258.65 -141.25 264.0 -129.05 258.25 -113.95 266.1 -81.9 283.4 -55.85 L283.4 -55.8 283.45 -55.75 Q298.25 -40.2 315.95 -33.9 292.15 -84.75 297.85 -152.35 297.9 -153.1 298.3 -153.8 312.25 -174.25 309.1 -199.85 298.85 -201.1 289.0 -205.75 278.2 -200.9 267.55 -200.15 266.6 -200.15 265.8 -200.65 L257.15 -205.9 Q256.1 -206.5 255.8 -207.65 255.5 -208.8 256.0 -209.85 256.55 -210.95 257.7 -211.35 L259.9 -211.25 Q268.3 -207.75 280.6 -213.05 272.75 -230.95 253.85 -240.0 240.85 -229.35 216.35 -240.85 215.3 -241.35 214.85 -242.35 214.45 -243.45 214.8 -244.55 215.1 -245.7 216.1 -246.25 217.1 -246.85 218.2 -246.65 238.4 -242.8 248.5 -249.8 251.6 -269.8 241.9 -285.55 241.25 -286.55 241.55 -287.7 241.8 -288.9 242.75 -289.6 243.7 -290.3 244.9 -290.15 246.1 -289.95 246.85 -289.0 262.6 -269.2 260.7 -249.2 282.9 -235.75 291.95 -217.7 302.35 -211.9 311.05 -215.25 319.6 -223.65 323.7 -240.4 L323.9 -240.85 Q327.85 -249.95 332.95 -267.65 321.1 -278.85 321.2 -302.9 321.2 -304.1 321.95 -304.95 322.75 -305.85 323.9 -306.0 325.0 -306.1 326.0 -305.4 326.95 -304.7 327.2 -303.5 330.8 -286.35 340.6 -275.35 353.3 -283.8 359.75 -297.35 360.3 -298.4 361.4 -298.8 L363.6 -298.85 Q364.7 -298.45 365.2 -297.35 365.7 -296.3 365.4 -295.15 359.65 -276.1 344.8 -263.65 L337.3 -237.2 Q334.3 -218.0 323.45 -202.55 330.5 -174.1 316.15 -149.95 309.85 -105.25 331.15 -68.6 340.0 -100.95 340.25 -119.7 331.8 -133.35 333.65 -154.4 333.8 -155.45 334.55 -156.25 335.3 -157.05 336.3 -157.1 337.4 -157.3 338.3 -156.7 339.2 -156.15 339.55 -155.1 344.75 -139.8 349.8 -133.5 358.75 -147.95 361.8 -168.3 359.1 -179.4 360.4 -193.95 361.3 -203.3 364.7 -219.45 353.6 -227.0 349.8 -244.9 349.5 -246.05 350.1 -247.05 350.65 -248.1 351.7 -248.45 352.75 -248.9 353.8 -248.45 354.85 -248.05 355.4 -247.0 363.9 -230.65 371.45 -230.6 376.4 -234.35 380.0 -239.7 383.65 -245.3 386.05 -254.8 383.05 -261.85 383.15 -272.1 383.2 -282.7 386.5 -291.15 386.95 -292.25 387.95 -292.8 L390.0 -293.0 Q391.1 -292.8 391.75 -291.85 392.45 -290.95 392.4 -289.8 391.2 -272.95 394.85 -261.55 402.3 -263.7 410.05 -269.55 410.95 -270.3 412.15 -270.15 413.3 -270.05 414.1 -269.15 414.85 -268.35 414.9 -267.15 414.9 -266.0 414.1 -265.1 405.55 -255.45 395.2 -250.85 388.15 -229.4 376.8 -219.85 370.45 -193.65 378.35 -166.7 L378.4 -165.35 Q376.2 -151.2 373.2 -141.5 368.8 -127.35 361.85 -114.35 361.0 -82.45 357.3 -63.15 375.1 -77.4 390.0 -109.15 381.65 -127.65 402.35 -155.45 403.0 -156.45 404.2 -156.7 405.35 -156.9 406.4 -156.25 407.35 -155.6 407.7 -154.45 408.0 -153.3 407.45 -152.2 399.8 -137.25 400.75 -122.45 414.0 -140.6 429.3 -156.8 422.7 -177.3 426.95 -205.5 427.15 -206.75 428.1 -207.45 429.05 -208.2 430.3 -208.05 431.45 -207.95 432.25 -206.95 433.0 -206.05 432.95 -204.8 431.6 -185.5 438.3 -165.1 456.7 -183.25 464.45 -208.9 464.8 -210.05 465.9 -210.65 466.9 -211.25 468.1 -210.95 469.25 -210.7 469.9 -209.7 470.6 -208.65 470.4 -207.5 465.8 -181.4 448.3 -159.9 461.0 -159.55 471.4 -167.0 472.4 -167.7 473.6 -167.55 474.7 -167.4 475.5 -166.45 476.2 -165.55 476.15 -164.35 476.05 -163.15 475.15 -162.3 459.8 -148.35 438.2 -149.2 421.7 -131.45 412.75 -101.0 412.45 -100.0 411.55 -99.4 402.4 -93.0 391.85 -76.2 411.85 -76.8 432.85 -88.6 442.9 -111.4 473.45 -125.75 L475.75 -125.95 Q476.8 -125.5 477.4 -124.4 477.95 -123.4 477.65 -122.2 477.3 -121.05 476.2 -120.4 453.7 -107.4 444.1 -85.15 463.1 -81.25 474.95 -91.6 475.85 -92.45 477.05 -92.4 478.25 -92.4 479.1 -91.5 479.95 -90.65 480.0 -89.45 480.05 -88.3 479.3 -87.4 463.1 -68.45 436.25 -73.5 422.0 -71.85 403.3 -59.35 402.35 -58.75 401.3 -58.85 390.0 -60.4 377.7 -53.55 369.1 -38.5 354.0 -25.6 348.5 23.9 333.7 70.15 330.5 109.75 348.0 140.25 L348.35 141.15 Q355.75 177.95 359.15 229.5 362.15 274.45 360.7 306.0 L357.65 306.0 Q359.1 274.55 356.2 229.65 352.8 178.25 345.4 141.75 327.3 110.35 330.7 69.65 345.7 22.9 351.05 -27.15 366.85 -40.35 375.5 -55.85 389.15 -63.7 401.7 -61.9 421.3 -75.1 436.4 -76.6 461.7 -71.65 477.0 -89.3 463.1 -76.95 440.05 -83.05 449.7 -108.6 474.7 -123.05 444.8 -108.9 435.2 -86.45 410.1 -72.15 386.45 -73.15 399.1 -94.45 409.85 -101.85 419.3 -134.0 436.9 -152.3 458.15 -151.0 473.15 -164.5 459.4 -154.75 442.25 -157.4 462.5 -179.95 467.4 -208.0 458.7 -179.3 437.0 -159.75 428.35 -183.05 429.95 -205.05 425.65 -176.5 432.8 -156.0 414.3 -136.65 398.8 -114.55 394.7 -134.0 404.75 -153.65 384.7 -126.65 393.35 -109.15 375.25 -69.85 352.6 -56.2 357.85 -76.3 358.85 -115.15 365.95 -128.2 370.4 -142.4 373.3 -151.9 375.4 -165.85 367.15 -194.15 374.05 -221.6 385.7 -230.85 392.8 -253.1 403.25 -257.4 411.9 -267.1 402.2 -259.8 392.9 -257.9 387.95 -270.45 389.35 -290.05 386.2 -282.1 386.15 -272.1 386.05 -261.9 389.15 -255.05 386.65 -244.3 382.5 -238.05 378.35 -231.8 372.55 -227.65 362.9 -226.2 352.75 -245.55 356.5 -227.65 368.1 -220.85 364.4 -203.45 363.5 -193.65 362.15 -179.35 364.9 -168.5 361.4 -144.7 350.3 -128.65 343.5 -134.05 336.7 -154.1 334.85 -133.35 343.5 -120.25 L343.25 -120.1 Q343.2 -99.1 332.15 -61.15 306.05 -101.15 313.25 -150.95 327.65 -174.9 320.2 -203.25 331.4 -218.6 334.4 -237.9 L342.1 -265.4 Q356.9 -277.4 362.45 -295.95 355.1 -280.6 340.1 -271.45 328.25 -283.3 324.25 -302.9 324.1 -279.05 336.4 -268.6 330.85 -249.3 326.65 -239.65 322.25 -221.55 312.7 -212.65 302.3 -208.1 289.6 -215.55 280.6 -234.05 257.5 -247.6 260.15 -267.45 244.5 -287.1 255.05 -270.05 251.3 -248.1 240.5 -239.3 217.6 -243.55 241.4 -232.4 253.3 -243.55 276.25 -233.45 284.6 -211.5 269.0 -203.95 258.7 -208.5 L267.35 -203.25 Q278.15 -203.95 289.1 -209.1 300.2 -203.65 311.75 -202.65 316.0 -174.35 300.85 -152.05 294.85 -81.2 321.8 -29.0 299.35 -34.65 281.1 -53.85 263.1 -80.75 255.1 -114.1 261.3 -129.65 255.1 -141.8 267.5 -154.85 270.55 -171.45 264.3 -156.25 252.1 -147.05 238.25 -154.75 226.55 -169.45 238.55 -149.55 249.35 -141.2 253.25 -128.15 245.35 -114.95 249.25 -80.4 267.1 -53.55 254.2 -52.7 236.05 -61.65 220.5 -79.3 211.15 -105.25 215.75 -121.05 203.0 -136.85 208.85 -125.3 207.0 -112.55 194.95 -109.7 181.85 -116.1 193.5 -104.1 203.75 -106.45 213.25 -74.2 229.1 -54.85 250.25 -37.2 276.25 -36.1 292.75 -14.5 321.65 -7.3 317.45 21.35 304.55 48.2 291.55 75.05 290.9 101.25 301.1 142.55 311.2 161.45 314.05 194.9 309.85 237.5 305.6 280.4 296.4 306.0 M52.9 306.0 L49.85 306.0 Q54.2 270.25 57.5 173.25 59.4 114.9 57.2 61.2 L41.4 20.9 Q41.1 20.1 41.2 19.3 L45.9 -7.8 Q25.6 -17.85 8.6 -37.5 -1.6 -27.1 -15.9 -29.0 -17.05 -29.2 -17.75 -30.05 -18.55 -30.95 -18.55 -32.05 -18.55 -33.25 -17.75 -34.1 -17.05 -34.95 -15.85 -35.05 -7.55 -36.15 -0.2 -45.0 -13.45 -55.15 -30.4 -59.0 -38.9 -52.85 -52.9 -55.2 -54.05 -55.45 -54.8 -56.35 -55.5 -57.3 -55.45 -58.45 -55.3 -59.6 -54.5 -60.45 -53.65 -61.2 -52.5 -61.2 -42.85 -61.5 -40.1 -68.65 -36.6 -78.3 -41.15 -86.85 -41.7 -87.9 -41.45 -89.0 -41.2 -90.1 -40.25 -90.75 -39.35 -91.5 -38.2 -91.35 -37.15 -91.25 -36.3 -90.4 -27.65 -81.35 -27.4 -70.2 -8.35 -67.2 4.85 -57.25 5.3 -71.3 -4.7 -86.3 -5.4 -87.35 -5.2 -88.5 -5.05 -89.7 -4.15 -90.4 -3.25 -91.2 -2.05 -91.05 -0.9 -91.0 -0.05 -90.15 18.95 -71.0 14.75 -48.75 30.35 -32.35 50.3 -28.9 L56.6 -38.85 Q34.85 -65.85 27.85 -111.5 20.1 -141.55 2.4 -159.2 -11.45 -153.9 -22.75 -157.0 -23.8 -157.3 -24.4 -158.2 -25.1 -159.1 -24.95 -160.25 -24.9 -161.3 -24.05 -162.1 -23.3 -162.9 -22.2 -162.95 -10.85 -163.85 -1.55 -171.1 1.1 -183.7 -1.8 -198.35 -2.05 -199.55 -1.45 -200.5 -0.9 -201.55 0.25 -201.9 L2.45 -201.7 Q3.5 -201.25 3.95 -200.15 10.3 -185.1 9.5 -168.85 34.5 -150.55 42.25 -113.2 L42.3 -112.95 Q45.7 -84.3 63.4 -61.1 77.95 -93.55 80.7 -153.3 68.65 -151.8 62.15 -169.45 61.8 -170.55 62.15 -171.55 62.5 -172.6 63.55 -173.15 64.5 -173.75 65.6 -173.55 66.65 -173.4 67.4 -172.5 73.4 -165.2 78.4 -166.55 77.1 -186.4 67.3 -203.05 66.7 -204.1 66.95 -205.2 67.2 -206.45 68.2 -207.1 69.2 -207.8 70.4 -207.65 71.5 -207.45 72.3 -206.55 88.25 -186.9 91.7 -161.95 108.3 -168.25 121.2 -189.3 121.8 -190.25 122.9 -190.55 L125.05 -190.45 Q126.05 -189.95 126.55 -188.9 126.95 -187.85 126.65 -186.7 118.15 -160.85 93.35 -149.85 96.5 -120.85 90.8 -94.8 99.35 -98.85 106.5 -107.1 107.2 -108.0 108.35 -108.2 109.45 -108.4 110.45 -107.75 111.35 -107.15 111.7 -106.05 112.0 -105.0 111.55 -103.9 104.05 -86.9 89.95 -78.25 84.7 -48.2 75.05 -23.95 74.75 -12.0 69.7 4.1 L76.55 27.2 118.0 -33.1 Q121.4 -53.85 116.45 -88.8 L116.45 -89.5 Q117.95 -104.4 123.0 -117.55 L123.0 -117.5 Q126.0 -125.45 129.2 -130.15 122.3 -145.6 126.1 -166.85 126.3 -168.0 127.2 -168.75 128.05 -169.45 129.25 -169.4 130.4 -169.35 131.2 -168.5 132.0 -167.7 132.1 -166.55 133.6 -147.35 137.75 -140.3 153.1 -144.8 160.5 -160.5 161.0 -161.55 162.1 -162.0 163.2 -162.4 164.35 -162.0 165.4 -161.55 165.95 -160.4 166.45 -159.35 166.1 -158.2 158.45 -135.95 139.5 -125.1 131.75 -107.15 130.6 -90.1 L130.45 -83.05 Q136.55 -64.85 135.1 -46.55 149.9 -54.6 165.2 -59.65 166.9 -83.55 182.7 -103.75 183.4 -104.65 184.6 -104.8 185.75 -105.05 186.8 -104.4 187.75 -103.8 188.05 -102.6 188.3 -101.45 187.75 -100.4 177.2 -80.8 176.95 -58.75 189.8 -50.65 205.9 -50.35 207.05 -50.35 207.9 -49.6 208.75 -48.8 208.85 -47.65 209.0 -46.5 208.25 -45.55 207.6 -44.65 206.45 -44.4 189.65 -40.8 169.1 -47.3 146.1 -33.65 130.0 -9.4 138.2 -3.8 150.55 -9.75 160.55 -25.85 173.95 -25.9 174.95 -25.95 175.85 -25.2 176.7 -24.55 176.95 -23.55 177.2 -22.45 176.7 -21.5 176.15 -20.5 175.2 -20.05 163.8 -15.25 158.5 -3.05 159.65 6.3 166.4 11.6 167.2 12.3 167.45 13.35 167.7 14.4 167.2 15.35 166.75 16.35 165.8 16.8 L163.75 17.0 Q152.75 14.15 148.85 5.25 134.1 13.55 116.0 8.2 L88.9 58.35 Q84.25 78.75 84.55 107.6 84.85 135.05 89.3 152.85 L89.4 153.55 Q91.25 215.15 92.35 227.8 97.75 291.7 103.0 306.0 L99.9 306.0 Q94.7 289.9 89.3 228.05 88.2 215.3 86.35 153.65 81.8 135.55 81.55 107.6 81.2 78.15 86.05 57.25 L114.55 4.5 Q134.7 11.4 150.4 0.65 153.1 11.1 164.5 14.05 156.5 7.75 155.4 -3.5 161.15 -17.5 174.0 -22.85 161.8 -22.55 152.7 -7.35 136.15 0.95 126.0 -8.75 143.3 -35.9 168.8 -50.55 189.2 -43.8 205.85 -47.35 187.9 -47.7 173.95 -57.1 173.75 -80.8 185.1 -101.85 169.2 -81.55 168.1 -57.4 149.35 -51.45 131.45 -41.0 134.45 -61.75 127.4 -82.45 127.3 -86.35 127.6 -90.3 128.8 -108.3 137.15 -127.25 155.75 -137.55 163.2 -159.15 154.75 -141.2 136.5 -136.8 130.85 -143.35 129.05 -166.4 125.2 -145.05 132.65 -129.85 129.1 -125.25 125.8 -116.4 120.9 -103.65 119.45 -89.2 124.5 -53.1 120.9 -31.9 L75.5 34.1 66.55 4.1 Q71.9 -12.5 72.05 -24.55 81.95 -49.3 87.2 -80.1 101.4 -88.35 108.85 -105.2 99.0 -93.65 86.5 -89.85 94.1 -118.85 90.1 -151.75 115.4 -162.0 123.8 -187.65 108.85 -163.35 89.05 -157.8 86.5 -184.25 69.95 -204.6 80.6 -186.45 81.6 -164.65 73.9 -159.7 65.05 -170.55 71.4 -153.05 83.95 -157.2 81.25 -89.5 64.0 -55.45 43.1 -80.75 39.3 -112.6 31.55 -149.6 6.35 -167.35 7.55 -183.75 1.15 -198.95 4.3 -182.95 1.2 -169.4 -9.2 -160.9 -21.95 -159.95 -10.8 -157.0 3.05 -162.75 22.55 -144.25 30.8 -111.95 37.9 -65.8 60.35 -39.1 L51.8 -25.6 Q29.0 -28.7 11.45 -47.8 16.2 -69.4 -2.2 -88.05 10.5 -68.95 7.25 -51.35 -7.25 -64.55 -30.55 -67.6 -29.7 -79.15 -38.5 -88.3 -33.3 -78.6 -37.25 -67.6 -40.45 -58.5 -52.4 -58.2 -38.95 -55.9 -31.1 -62.3 -11.05 -58.1 4.1 -45.5 -5.05 -33.25 -15.55 -32.05 -1.15 -30.15 8.65 -42.15 27.0 -20.0 49.3 -9.6 L44.2 19.8 60.2 60.65 Q62.45 114.7 60.5 173.3 57.25 270.05 52.9 306.0 M-380.45 306.0 L-383.5 306.0 Q-380.3 273.1 -379.25 222.3 -378.3 171.05 -380.0 130.0 L-379.9 129.1 Q-368.9 88.0 -366.4 49.55 L-398.4 54.9 -400.45 54.5 -416.7 44.6 -417.8 43.5 Q-418.2 42.85 -418.2 42.15 -418.6 32.95 -426.95 24.95 -443.95 24.4 -455.1 9.25 -455.8 8.3 -455.7 7.2 -455.65 6.05 -454.8 5.3 -454.0 4.5 -452.9 4.4 -451.8 4.25 -450.9 4.95 -437.8 14.5 -430.0 13.25 -425.5 9.2 -424.8 -1.7 -424.75 -2.8 -423.95 -3.55 -423.2 -4.35 -422.1 -4.5 -421.0 -4.6 -420.1 -4.0 -419.15 -3.4 -418.8 -2.3 -417.5 2.2 -417.65 8.5 -417.8 12.85 -418.55 15.95 -402.7 27.1 -400.75 36.45 -394.5 35.85 -387.4 31.1 -381.8 27.2 -371.9 17.85 L-382.1 1.35 Q-413.1 -2.95 -444.0 -29.4 -451.2 -25.45 -458.7 -25.15 -465.2 -24.9 -477.6 -27.7 -478.8 -28.0 -479.45 -28.95 -480.1 -30.0 -479.95 -31.15 -479.75 -32.35 -478.8 -33.05 -477.85 -33.85 -476.65 -33.7 -465.25 -32.5 -457.5 -35.35 -452.45 -37.3 -450.55 -38.75 L-464.2 -64.8 Q-464.75 -65.8 -464.45 -66.95 -464.15 -68.1 -463.15 -68.7 -462.2 -69.35 -461.0 -69.2 -459.85 -69.0 -459.1 -68.05 L-439.55 -42.25 Q-434.15 -37.6 -428.45 -34.95 L-428.65 -35.0 -415.6 -29.5 Q-402.25 -23.25 -389.75 -23.3 -389.1 -42.35 -396.05 -61.7 L-396.1 -61.95 -401.5 -82.1 Q-417.95 -93.5 -429.3 -115.65 -429.85 -116.75 -429.5 -117.9 -429.2 -119.1 -428.15 -119.7 -427.15 -120.3 -426.0 -120.1 -424.85 -119.85 -424.15 -118.85 -412.55 -102.45 -398.95 -96.7 -390.0 -100.5 -385.5 -113.2 -385.1 -114.35 -384.0 -114.9 L-381.7 -115.05 Q-380.6 -114.7 -380.0 -113.55 -379.4 -112.5 -379.75 -111.25 L-387.6 -84.45 -371.75 -28.5 Q-359.75 -9.95 -347.75 -5.25 -330.6 -47.0 -327.9 -84.15 L-335.0 -141.25 -352.7 -145.05 -352.85 -145.05 Q-365.0 -148.2 -374.7 -154.1 -389.65 -146.75 -407.2 -152.75 -408.3 -153.1 -408.85 -154.1 -409.45 -155.05 -409.25 -156.15 -409.1 -157.2 -408.2 -157.95 -407.35 -158.65 -406.25 -158.65 -384.9 -158.65 -381.3 -164.95 -377.1 -176.95 -388.5 -196.6 -389.1 -197.6 -388.85 -198.75 -388.6 -199.9 -387.7 -200.6 -386.8 -201.3 -385.6 -201.2 -384.55 -201.05 -383.7 -200.2 -368.95 -184.65 -369.7 -166.2 -351.0 -155.75 -334.55 -157.4 L-327.0 -180.4 Q-339.7 -188.2 -343.3 -206.45 -343.55 -207.65 -342.95 -208.6 -342.3 -209.7 -341.15 -210.0 L-339.0 -209.75 Q-337.9 -209.2 -337.5 -208.05 -332.4 -193.7 -321.35 -192.25 -306.05 -192.55 -294.5 -203.35 -293.7 -204.15 -292.55 -204.15 -291.5 -204.2 -290.6 -203.45 -289.75 -202.8 -289.5 -201.7 -289.25 -200.65 -289.75 -199.65 -295.7 -188.1 -314.45 -181.6 L-320.2 -153.4 Q-319.6 -120.9 -310.8 -92.35 -298.0 -122.6 -275.05 -147.8 L-274.25 -148.4 -260.05 -156.15 Q-243.5 -169.4 -236.7 -188.3 -236.35 -189.35 -235.4 -189.9 L-233.3 -190.2 Q-232.2 -190.05 -231.5 -189.1 -230.8 -188.3 -230.9 -187.15 -231.4 -176.75 -237.9 -165.7 -242.35 -158.25 -248.5 -152.15 -241.0 -153.7 -228.95 -161.2 -228.0 -161.8 -226.85 -161.6 -225.8 -161.45 -225.05 -160.55 -224.35 -159.7 -224.35 -158.55 -224.4 -157.45 -225.1 -156.55 -238.5 -141.4 -261.05 -139.85 -287.05 -115.8 -296.05 -80.75 L-296.3 -80.05 Q-318.8 -38.95 -321.6 4.95 -306.35 -9.9 -288.55 -17.15 -274.85 -34.4 -271.9 -63.35 -279.7 -84.75 -276.65 -111.5 -276.55 -112.7 -275.65 -113.5 -274.75 -114.3 -273.55 -114.25 -272.4 -114.15 -271.55 -113.3 -270.7 -112.5 -270.6 -111.25 -269.4 -81.55 -262.3 -73.0 L-238.9 -81.4 -236.75 -81.35 Q-235.7 -80.95 -235.15 -79.85 -234.65 -78.9 -234.95 -77.75 -235.25 -76.65 -236.2 -76.0 L-257.9 -61.9 Q-263.4 -29.55 -274.9 -0.3 -275.35 0.7 -276.35 1.25 -301.55 14.25 -323.75 45.2 -334.3 96.45 -334.1 144.45 -328.25 177.65 -325.4 228.45 -322.9 272.35 -323.7 306.0 L-326.75 306.0 Q-325.9 272.5 -328.45 228.55 -331.3 177.75 -337.15 144.7 -337.4 96.0 -326.5 43.95 -303.7 11.9 -277.75 -1.45 -266.1 -30.95 -260.65 -63.7 L-237.9 -78.6 -263.15 -69.4 Q-272.2 -77.2 -273.65 -111.15 -276.7 -84.75 -268.8 -63.7 -271.85 -32.8 -286.7 -14.6 -307.6 -6.35 -324.95 12.85 -323.8 -36.1 -298.9 -81.5 -289.55 -117.95 -262.3 -142.8 -240.3 -144.0 -227.35 -158.6 -247.5 -146.05 -256.25 -149.3 -246.65 -157.0 -240.55 -167.3 -234.4 -177.6 -233.9 -187.25 -240.9 -167.55 -258.25 -153.65 L-272.8 -145.75 Q-298.3 -117.8 -311.1 -83.45 -322.6 -116.0 -323.3 -153.65 L-317.1 -183.95 Q-298.3 -190.05 -292.45 -201.1 -305.05 -189.4 -321.65 -189.25 -334.5 -190.7 -340.4 -207.05 -336.8 -188.8 -323.35 -181.75 L-332.3 -154.65 Q-351.1 -151.85 -372.9 -164.5 -371.4 -182.8 -385.9 -198.15 -373.6 -176.9 -378.5 -163.85 -382.15 -155.65 -406.25 -155.65 -389.05 -149.75 -374.6 -157.65 -364.7 -151.25 -352.1 -148.05 L-332.3 -143.7 -324.85 -84.1 Q-327.6 -45.25 -346.0 -1.45 -360.35 -5.15 -374.6 -27.15 L-390.85 -84.5 -382.6 -112.2 Q-387.95 -97.2 -399.0 -93.35 -414.0 -99.25 -426.6 -117.1 -415.3 -95.05 -398.9 -84.0 L-393.25 -62.75 Q-385.5 -41.4 -386.9 -20.35 -401.3 -19.45 -416.9 -26.75 -422.15 -29.15 -429.8 -32.15 -435.95 -35.05 -441.85 -40.25 L-461.5 -66.15 -446.95 -38.3 Q-448.15 -35.65 -456.4 -32.5 -464.75 -29.45 -476.95 -30.65 -465.0 -28.0 -458.8 -28.25 -451.1 -28.55 -443.7 -33.1 -412.0 -5.45 -380.2 -1.45 L-368.05 18.3 Q-379.5 29.3 -385.75 33.7 -395.3 40.0 -403.5 39.6 -403.45 29.75 -422.1 17.15 -420.85 13.95 -420.7 8.45 -420.55 2.7 -421.75 -1.45 -422.7 11.7 -428.7 16.0 -437.65 18.45 -452.7 7.4 -442.1 21.8 -425.75 21.85 -415.55 31.2 -415.15 42.0 L-398.9 51.9 -363.1 45.85 Q-365.35 86.45 -377.0 129.85 -375.25 171.1 -376.2 222.45 -377.2 273.05 -380.45 306.0 M-173.45 306.0 L-176.65 306.0 Q-170.6 280.85 -167.75 237.1 -165.05 194.05 -166.9 158.7 L-166.8 157.65 Q-154.4 116.0 -157.1 62.05 L-170.7 -19.6 Q-193.3 -38.75 -194.5 -76.1 -218.4 -95.3 -226.15 -125.25 -226.45 -126.4 -225.95 -127.35 -225.4 -128.4 -224.35 -128.8 L-222.25 -128.9 Q-221.15 -128.5 -220.6 -127.5 -205.0 -98.95 -190.1 -90.85 -181.55 -97.4 -173.3 -127.8 -173.0 -128.95 -172.0 -129.55 -171.05 -130.2 -169.9 -130.05 -168.8 -129.85 -168.05 -128.95 -167.35 -128.05 -167.35 -126.85 -168.9 -101.4 -180.3 -80.95 -177.6 -46.95 -157.9 -38.9 L-156.8 -38.15 Q-156.3 -37.6 -156.1 -36.85 L-144.0 7.05 Q-138.65 -30.25 -121.25 -65.55 -120.35 -93.95 -111.9 -122.45 -130.75 -146.2 -137.5 -179.7 -137.75 -180.9 -137.15 -181.95 -136.55 -182.95 -135.4 -183.25 L-133.15 -183.05 Q-132.1 -182.5 -131.75 -181.35 -118.2 -143.6 -103.25 -134.55 -97.75 -136.65 -91.6 -145.65 -87.25 -152.1 -78.7 -168.85 -78.25 -169.95 -77.1 -170.35 -76.0 -170.8 -74.95 -170.35 -73.85 -169.95 -73.4 -168.85 -72.85 -167.85 -73.15 -166.75 -82.55 -131.05 -98.05 -119.1 -108.8 -94.15 -102.4 -70.5 -102.2 -69.5 -102.55 -68.5 -118.9 -28.4 -117.85 9.45 -107.35 -11.85 -82.6 -31.35 L-85.1 -42.45 -85.1 -43.85 -84.4 -45.1 Q-67.5 -64.4 -60.35 -88.5 -60.0 -89.6 -59.0 -90.25 L-56.8 -90.6 Q-55.7 -90.35 -55.0 -89.4 -54.3 -88.4 -54.4 -87.25 -57.05 -62.9 -70.8 -42.95 L-67.9 -33.6 Q-53.5 -35.8 -43.9 -44.3 -43.1 -45.05 -41.95 -45.05 -40.8 -45.05 -39.9 -44.35 -39.05 -43.6 -38.9 -42.45 -38.75 -41.4 -39.3 -40.4 -48.7 -25.1 -72.0 -19.5 -99.5 10.0 -121.0 60.45 L-129.1 166.3 Q-119.5 209.95 -112.8 306.0 L-115.85 306.0 Q-122.5 210.0 -132.2 166.5 L-123.95 59.75 Q-101.9 7.8 -73.6 -22.25 -51.0 -27.4 -41.9 -42.05 -53.0 -32.15 -70.1 -30.3 L-74.1 -43.5 Q-60.0 -63.25 -57.4 -87.65 -64.75 -62.9 -82.15 -43.15 L-79.25 -30.15 Q-111.7 -4.95 -119.95 23.2 -124.9 -21.65 -105.3 -69.7 -112.1 -94.7 -100.45 -121.1 -85.3 -132.45 -76.0 -167.45 -84.65 -150.45 -89.1 -143.95 -96.7 -132.85 -103.6 -131.3 -120.0 -139.8 -134.6 -180.4 -127.8 -146.65 -108.55 -123.05 -117.4 -93.9 -118.3 -64.8 -139.4 -22.2 -142.7 23.2 L-159.0 -36.1 Q-180.65 -44.5 -183.4 -81.55 -171.9 -101.8 -170.4 -127.0 -179.75 -92.65 -189.85 -87.4 -206.3 -95.0 -223.25 -126.05 -215.6 -96.4 -191.5 -77.55 -190.8 -40.0 -167.95 -21.25 L-154.1 61.75 Q-151.25 116.35 -163.85 158.6 -162.05 194.2 -164.75 237.4 -167.5 280.85 -173.45 306.0" fill="#ffffff" fill-opacity="0.2" fill-rule="evenodd" stroke="none"/>
    <path d="M357.65 306.0 L296.4 306.0 Q305.6 280.4 309.85 237.5 314.05 194.9 311.2 161.45 301.1 142.55 290.9 101.25 291.55 75.05 304.55 48.2 317.45 21.35 321.65 -7.3 292.75 -14.5 276.25 -36.1 250.25 -37.2 229.1 -54.85 213.25 -74.2 203.75 -106.45 193.5 -104.1 181.85 -116.1 194.95 -109.7 207.0 -112.55 208.85 -125.3 203.0 -136.85 215.75 -121.05 211.15 -105.25 220.5 -79.3 236.05 -61.65 254.2 -52.7 267.1 -53.55 249.25 -80.4 245.35 -114.95 253.25 -128.15 249.35 -141.2 238.55 -149.55 226.55 -169.45 238.25 -154.75 252.1 -147.05 264.3 -156.25 270.55 -171.45 267.5 -154.85 255.1 -141.8 261.3 -129.65 255.1 -114.1 263.1 -80.75 281.1 -53.85 299.35 -34.65 321.8 -29.0 294.85 -81.2 300.85 -152.05 316.0 -174.35 311.75 -202.65 300.2 -203.65 289.1 -209.1 278.15 -203.95 267.35 -203.25 L258.7 -208.5 Q269.0 -203.95 284.6 -211.5 276.25 -233.45 253.3 -243.55 241.4 -232.4 217.6 -243.55 240.5 -239.3 251.3 -248.1 255.05 -270.05 244.5 -287.1 260.15 -267.45 257.5 -247.6 280.6 -234.05 289.6 -215.55 302.3 -208.1 312.7 -212.65 322.25 -221.55 326.65 -239.65 330.85 -249.3 336.4 -268.6 324.1 -279.05 324.25 -302.9 328.25 -283.3 340.1 -271.45 355.1 -280.6 362.45 -295.95 356.9 -277.4 342.1 -265.4 L334.4 -237.9 Q331.4 -218.6 320.2 -203.25 327.65 -174.9 313.25 -150.95 306.05 -101.15 332.15 -61.15 343.2 -99.1 343.25 -120.1 L343.5 -120.25 Q334.85 -133.35 336.7 -154.1 343.5 -134.05 350.3 -128.65 361.4 -144.7 364.9 -168.5 362.15 -179.35 363.5 -193.65 364.4 -203.45 368.1 -220.85 356.5 -227.65 352.75 -245.55 362.9 -226.2 372.55 -227.65 378.35 -231.8 382.5 -238.05 386.65 -244.3 389.15 -255.05 386.05 -261.9 386.15 -272.1 386.2 -282.1 389.35 -290.05 387.95 -270.45 392.9 -257.9 402.2 -259.8 411.9 -267.1 403.25 -257.4 392.8 -253.1 385.7 -230.85 374.05 -221.6 367.15 -194.15 375.4 -165.85 373.3 -151.9 370.4 -142.4 365.95 -128.2 358.85 -115.15 357.85 -76.3 352.6 -56.2 375.25 -69.85 393.35 -109.15 384.7 -126.65 404.75 -153.65 394.7 -134.0 398.8 -114.55 414.3 -136.65 432.8 -156.0 425.65 -176.5 429.95 -205.05 428.35 -183.05 437.0 -159.75 458.7 -179.3 467.4 -208.0 462.5 -179.95 442.25 -157.4 459.4 -154.75 473.15 -164.5 458.15 -151.0 436.9 -152.3 419.3 -134.0 409.85 -101.85 399.1 -94.45 386.45 -73.15 410.1 -72.15 435.2 -86.45 444.8 -108.9 474.7 -123.05 449.7 -108.6 440.05 -83.05 463.1 -76.95 477.0 -89.3 461.7 -71.65 436.4 -76.6 421.3 -75.1 401.7 -61.9 389.15 -63.7 375.5 -55.85 366.85 -40.35 351.05 -27.15 345.7 22.9 330.7 69.65 327.3 110.35 345.4 141.75 352.8 178.25 356.2 229.65 359.1 274.55 357.65 306.0 M99.9 306.0 L52.9 306.0 Q57.25 270.05 60.5 173.3 62.45 114.7 60.2 60.65 L44.2 19.8 49.3 -9.6 Q27.0 -20.0 8.65 -42.15 -1.15 -30.15 -15.55 -32.05 -5.05 -33.25 4.1 -45.5 -11.05 -58.1 -31.1 -62.3 -38.95 -55.9 -52.4 -58.2 -40.45 -58.5 -37.25 -67.6 -33.3 -78.6 -38.5 -88.3 -29.7 -79.15 -30.55 -67.6 -7.25 -64.55 7.25 -51.35 10.5 -68.95 -2.2 -88.05 16.2 -69.4 11.45 -47.8 29.0 -28.7 51.8 -25.6 L60.35 -39.1 Q37.9 -65.8 30.8 -111.95 22.55 -144.25 3.05 -162.75 -10.8 -157.0 -21.95 -159.95 -9.2 -160.9 1.2 -169.4 4.3 -182.95 1.15 -198.95 7.55 -183.75 6.35 -167.35 31.55 -149.6 39.3 -112.6 43.1 -80.75 64.0 -55.45 81.25 -89.5 83.95 -157.2 71.4 -153.05 65.05 -170.55 73.9 -159.7 81.6 -164.65 80.6 -186.45 69.95 -204.6 86.5 -184.25 89.05 -157.8 108.85 -163.35 123.8 -187.65 115.4 -162.0 90.1 -151.75 94.1 -118.85 86.5 -89.85 99.0 -93.65 108.85 -105.2 101.4 -88.35 87.2 -80.1 81.95 -49.3 72.05 -24.55 71.9 -12.5 66.55 4.1 L75.5 34.1 120.9 -31.9 Q124.5 -53.1 119.45 -89.2 120.9 -103.65 125.8 -116.4 129.1 -125.25 132.65 -129.85 125.2 -145.05 129.05 -166.4 130.85 -143.35 136.5 -136.8 154.75 -141.2 163.2 -159.15 155.75 -137.55 137.15 -127.25 128.8 -108.3 127.6 -90.3 127.3 -86.35 127.4 -82.45 134.45 -61.75 131.45 -41.0 149.35 -51.45 168.1 -57.4 169.2 -81.55 185.1 -101.85 173.75 -80.8 173.95 -57.1 187.9 -47.7 205.85 -47.35 189.2 -43.8 168.8 -50.55 143.3 -35.9 126.0 -8.75 136.15 0.95 152.7 -7.35 161.8 -22.55 174.0 -22.85 161.15 -17.5 155.4 -3.5 156.5 7.75 164.5 14.05 153.1 11.1 150.4 0.65 134.7 11.4 114.55 4.5 L86.05 57.25 Q81.2 78.15 81.55 107.6 81.8 135.55 86.35 153.65 88.2 215.3 89.3 228.05 94.7 289.9 99.9 306.0 M-326.75 306.0 L-380.45 306.0 Q-377.2 273.05 -376.2 222.45 -375.25 171.1 -377.0 129.85 -365.35 86.45 -363.1 45.85 L-398.9 51.9 -415.15 42.0 Q-415.55 31.2 -425.75 21.85 -442.1 21.8 -452.7 7.4 -437.65 18.45 -428.7 16.0 -422.7 11.7 -421.75 -1.45 -420.55 2.7 -420.7 8.45 -420.85 13.95 -422.1 17.15 -403.45 29.75 -403.5 39.6 -395.3 40.0 -385.75 33.7 -379.5 29.3 -368.05 18.3 L-380.2 -1.45 Q-412.0 -5.45 -443.7 -33.1 -451.1 -28.55 -458.8 -28.25 -465.0 -28.0 -476.95 -30.65 -464.75 -29.45 -456.4 -32.5 -448.15 -35.65 -446.95 -38.3 L-461.5 -66.15 -441.85 -40.25 Q-435.95 -35.05 -429.8 -32.15 -422.15 -29.15 -416.9 -26.75 -401.3 -19.45 -386.9 -20.35 -385.5 -41.4 -393.25 -62.75 L-398.9 -84.0 Q-415.3 -95.05 -426.6 -117.1 -414.0 -99.25 -399.0 -93.35 -387.95 -97.2 -382.6 -112.2 L-390.85 -84.5 -374.6 -27.15 Q-360.35 -5.15 -346.0 -1.45 -327.6 -45.25 -324.85 -84.1 L-332.3 -143.7 -352.1 -148.05 Q-364.7 -151.25 -374.6 -157.65 -389.05 -149.75 -406.25 -155.65 -382.15 -155.65 -378.5 -163.85 -373.6 -176.9 -385.9 -198.15 -371.4 -182.8 -372.9 -164.5 -351.1 -151.85 -332.3 -154.65 L-323.35 -181.75 Q-336.8 -188.8 -340.4 -207.05 -334.5 -190.7 -321.65 -189.25 -305.05 -189.4 -292.45 -201.1 -298.3 -190.05 -317.1 -183.95 L-323.3 -153.65 Q-322.6 -116.0 -311.1 -83.45 -298.3 -117.8 -272.8 -145.75 L-258.25 -153.65 Q-240.9 -167.55 -233.9 -187.25 -234.4 -177.6 -240.55 -167.3 -246.65 -157.0 -256.25 -149.3 -247.5 -146.05 -227.35 -158.6 -240.3 -144.0 -262.3 -142.8 -289.55 -117.95 -298.9 -81.5 -323.8 -36.1 -324.95 12.85 -307.6 -6.35 -286.7 -14.6 -271.85 -32.8 -268.8 -63.7 -276.7 -84.75 -273.65 -111.15 -272.2 -77.2 -263.15 -69.4 L-237.9 -78.6 -260.65 -63.7 Q-266.1 -30.95 -277.75 -1.45 -303.7 11.9 -326.5 43.95 -337.4 96.0 -337.15 144.7 -331.3 177.75 -328.45 228.55 -325.9 272.5 -326.75 306.0 M-115.85 306.0 L-173.45 306.0 Q-167.5 280.85 -164.75 237.4 -162.05 194.2 -163.85 158.6 -151.25 116.35 -154.1 61.75 L-167.95 -21.25 Q-190.8 -40.0 -191.5 -77.55 -215.6 -96.4 -223.25 -126.05 -206.3 -95.0 -189.85 -87.4 -179.75 -92.65 -170.4 -127.0 -171.9 -101.8 -183.4 -81.55 -180.65 -44.5 -159.0 -36.1 L-142.7 23.2 Q-139.4 -22.2 -118.3 -64.8 -117.4 -93.9 -108.55 -123.05 -127.8 -146.65 -134.6 -180.4 -120.0 -139.8 -103.6 -131.3 -96.7 -132.85 -89.1 -143.95 -84.65 -150.45 -76.0 -167.45 -85.3 -132.45 -100.45 -121.1 -112.1 -94.7 -105.3 -69.7 -124.9 -21.65 -119.95 23.2 -111.7 -4.95 -79.25 -30.15 L-82.15 -43.15 Q-64.75 -62.9 -57.4 -87.65 -60.0 -63.25 -74.1 -43.5 L-70.1 -30.3 Q-53.0 -32.15 -41.9 -42.05 -51.0 -27.4 -73.6 -22.25 -101.9 7.8 -123.95 59.75 L-132.2 166.5 Q-122.5 210.0 -115.85 306.0" fill="#000000" fill-rule="evenodd" stroke="none"/>
  </g>
</svg>
