<?xml version="1.0" encoding="UTF-8" standalone="no"?>
<svg xmlns:ffdec="https://www.free-decompiler.com/flash" xmlns:xlink="http://www.w3.org/1999/xlink" ffdec:objectType="shape" height="283.9px" width="330.65px" xmlns="http://www.w3.org/2000/svg">
  <g transform="matrix(1.0, 0.0, 0.0, 1.0, 165.3, 141.6)">
    <path d="M103.85 -137.6 L115.75 -129.4 161.35 -93.65 84.1 -79.85 103.85 -137.6 M-118.05 73.9 L-113.25 43.35 -3.3 15.8 51.1 65.85 -0.5 75.15 -3.3 15.8 -50.75 65.8 -118.05 73.9 M-161.3 -93.65 L-104.85 -132.7 -60.6 -79.8 -77.1 -56.05 -161.3 -93.65" fill="#c8ba8c" fill-rule="evenodd" stroke="none"/>
    <path d="M161.35 -93.65 L147.5 3.95 67.75 -20.85 84.1 -79.85 161.35 -93.65 M115.45 35.65 L115.45 72.65 51.1 65.85 -3.3 15.8 115.45 35.65 M-113.25 43.35 L-147.3 5.15 -77.1 -56.05 -60.6 -79.8 8.1 -112.15 -3.3 15.8 -77.1 -56.05 -113.25 43.35 M-3.3 15.8 L-0.5 75.15 -50.75 65.8 -3.3 15.8" fill="#a4914f" fill-rule="evenodd" stroke="none"/>
    <path d="M-3.65 138.3 L-3.7 138.3 -94.25 106.15 -118.05 73.9 -50.75 65.8 -3.65 138.3 M-147.3 5.15 L-161.3 -93.65 -77.1 -56.05 -147.3 5.15 M8.1 -112.15 L84.1 -79.85 67.75 -20.85 -3.3 15.8 8.1 -112.15" fill="#b3a062" fill-rule="evenodd" stroke="none"/>
    <path d="M-104.85 -132.7 L8.1 -112.15 103.85 -137.6 84.1 -79.85 8.1 -112.15 -60.6 -79.8 -104.85 -132.7 M51.1 65.85 L-3.65 138.3 -0.5 75.15 51.1 65.85" fill="#b8a372" fill-rule="evenodd" stroke="none"/>
    <path d="M147.5 3.95 L147.15 6.65 115.45 35.65 67.75 -20.85 147.5 3.95" fill="#8b7b43" fill-rule="evenodd" stroke="none"/>
    <path d="M115.45 72.65 L86.85 106.15 -3.65 138.3 51.1 65.85 115.45 72.65 M-3.65 138.3 L-50.75 65.8 -0.5 75.15 -3.65 138.3" fill="#8a7442" fill-rule="evenodd" stroke="none"/>
    <path d="M-3.3 15.8 L67.75 -20.85 115.45 35.65 -3.3 15.8 -113.25 43.35 -77.1 -56.05 -3.3 15.8" fill="#6d5b34" fill-rule="evenodd" stroke="none"/>
    <path d="M103.85 -137.6 L115.75 -129.4 161.35 -93.65 147.5 3.95 147.15 6.65 115.45 35.65 115.45 72.65 86.85 106.15 -3.65 138.3 -3.7 138.3 -94.25 106.15 -118.05 73.9 -113.25 43.35 -147.3 5.15 -161.3 -93.65 -104.85 -132.7 8.1 -112.15 103.85 -137.6 Z" fill="none" stroke="#494123" stroke-linecap="square" stroke-linejoin="miter-clip" stroke-miterlimit="10.0" stroke-width="6.0"/>
    <path d="M97.2 -138.35 L97.2 -110.85 130.0 -104.85 112.5 -35.1 13.9 -2.15 -101.45 -18.65 -118.55 -104.0 -102.05 -112.25 -102.05 -134.75 8.05 -114.65 97.2 -138.35" fill="#4a3300" fill-opacity="0.3019608" fill-rule="evenodd" stroke="none"/>
  </g>
</svg>
