<?xml version="1.0" encoding="UTF-8" standalone="no"?>
<svg xmlns:ffdec="https://www.free-decompiler.com/flash" xmlns:xlink="http://www.w3.org/1999/xlink" ffdec:objectType="shape" height="247.7px" width="286.85px" xmlns="http://www.w3.org/2000/svg">
  <g transform="matrix(1.0, 0.0, 0.0, 1.0, 142.85, 212.75)">
    <path d="M123.15 -144.8 L75.3 -132.35 55.3 -176.75 139.15 -176.75 123.15 -144.8" fill="#e8e2ce" fill-rule="evenodd" stroke="none"/>
    <path d="M123.15 -144.8 L75.3 -132.35 55.3 -176.75 139.15 -176.75 123.15 -144.8 Z" fill="none" stroke="#494123" stroke-linecap="square" stroke-linejoin="miter-clip" stroke-miterlimit="10.0" stroke-width="6.0"/>
    <path d="M49.9 -85.25 L16.6 -91.1 12.5 -160.8 -64.15 -176.75 -51.4 -208.75 76.4 -208.75 88.4 -176.75 65.9 -160.8 49.9 -85.25" fill="#c8ba8c" fill-rule="evenodd" stroke="none"/>
    <path d="M105.5 -132.15 L105.5 -73.85 49.9 -85.25 67.45 -85.25 72.95 -112.85 105.5 -132.15 M-8.05 -94.15 L-83.35 -67.15 -83.35 -128.85 -22.9 -112.85 -8.05 -94.15" fill="#b3a062" fill-rule="evenodd" stroke="none"/>
    <path d="M88.4 -176.75 L105.5 -132.15 72.95 -112.85 67.45 -85.25 49.9 -85.25 65.9 -160.8 88.4 -176.75 M16.6 -91.1 L-8.05 -94.15 -22.9 -112.85 -83.35 -128.85 -64.15 -176.75 12.5 -160.8 16.6 -91.1" fill="#8b7b43" fill-rule="evenodd" stroke="none"/>
    <path d="M88.4 -176.75 L105.5 -132.15 105.5 -73.85 M-83.35 -67.15 L-83.35 -128.85 -64.15 -176.75 -51.4 -208.75 76.4 -208.75 88.4 -176.75" fill="none" stroke="#494123" stroke-linecap="square" stroke-linejoin="miter-clip" stroke-miterlimit="10.0" stroke-width="6.0"/>
    <path d="M88.4 -176.75 L65.9 -160.8 49.9 -85.25 M16.6 -91.1 L12.5 -160.8 -64.15 -176.75" fill="none" stroke="#6f6235" stroke-linecap="square" stroke-linejoin="miter-clip" stroke-miterlimit="1.0" stroke-width="4.0"/>
    <path d="M88.65 -138.4 Q88.65 -129.95 83.85 -123.9 L83.75 -123.85 Q79.05 -117.7 72.4 -117.65 65.8 -117.65 60.95 -123.75 L63.7 -137.25 63.65 -138.4 Q63.65 -142.15 65.3 -145.1 L68.05 -158.5 Q70.1 -159.2 72.4 -159.2 79.1 -159.2 83.8 -153.15 88.65 -146.95 88.65 -138.4" fill="#000000" fill-rule="evenodd" stroke="none"/>
    <path d="M-17.3 -159.15 Q-8.75 -159.2 -2.7 -153.15 3.5 -146.9 3.5 -138.4 3.5 -129.9 -2.65 -123.9 L-2.8 -123.8 Q-8.8 -117.65 -17.3 -117.6 -25.8 -117.6 -32.0 -123.8 -38.05 -129.85 -38.05 -138.4 -38.1 -146.9 -32.05 -153.05 L-32.0 -153.15 -31.95 -153.15 Q-25.75 -159.2 -17.3 -159.15" fill="#000000" fill-rule="evenodd" stroke="none"/>
    <path d="M102.35 -76.55 L115.35 -95.5 128.05 -95.45 130.5 -71.45 102.35 -76.55" fill="#e8e2ce" fill-rule="evenodd" stroke="none"/>
    <path d="M102.35 -76.55 L115.35 -95.5 128.05 -95.45 130.5 -71.45" fill="none" stroke="#6f6235" stroke-linecap="square" stroke-linejoin="miter-clip" stroke-miterlimit="1.0" stroke-width="4.0"/>
    <path d="M130.5 -71.45 L102.35 -76.55" fill="none" stroke="#494123" stroke-linecap="square" stroke-linejoin="miter-clip" stroke-miterlimit="10.0" stroke-width="6.0"/>
    <path d="M-45.05 -149.0 L-74.1 -129.6 -122.05 -145.55 -138.0 -177.5 -54.95 -177.5 -45.05 -149.0 -46.35 -149.85 -45.05 -149.0" fill="#e8e2ce" fill-rule="evenodd" stroke="none"/>
    <path d="M-45.05 -149.0 L-74.1 -129.6 -122.05 -145.55 -138.0 -177.5 -54.95 -177.5 -45.05 -149.0" fill="none" stroke="#494123" stroke-linecap="round" stroke-linejoin="miter-clip" stroke-miterlimit="10.0" stroke-width="6.0"/>
    <path d="M-45.05 -149.0 L-46.35 -149.85" fill="none" stroke="#494123" stroke-linecap="round" stroke-linejoin="miter-clip" stroke-miterlimit="10.0" stroke-width="0.05"/>
    <path d="M-9.2 -96.85 L5.7 -94.2 30.3 -91.1 63.65 -85.25 134.65 -70.75 134.7 -58.05 86.7 -36.2 19.3 -36.2 -9.2 -96.85" fill="#c8ba8c" fill-rule="evenodd" stroke="none"/>
    <path d="M86.7 -36.2 L134.7 -58.05 104.95 -1.05 54.7 30.95 86.7 -36.2" fill="#8b7b43" fill-rule="evenodd" stroke="none"/>
    <path d="M19.3 -36.2 L86.7 -36.2 54.7 30.95 -82.1 14.95 19.3 -36.2" fill="#a4914f" fill-rule="evenodd" stroke="none"/>
    <path d="M-9.2 -96.85 L19.3 -36.2 -82.1 14.95 -98.1 -64.95 -9.2 -96.85" fill="#b3a062" fill-rule="evenodd" stroke="none"/>
    <path d="M134.7 -58.05 L134.65 -70.75 63.65 -85.25 30.3 -91.1 5.7 -94.2 -9.2 -96.85 -98.1 -64.95 -82.1 14.95 54.7 30.95 104.95 -1.05 134.7 -58.05 Z" fill="none" stroke="#494123" stroke-linecap="square" stroke-linejoin="miter-clip" stroke-miterlimit="10.0" stroke-width="6.0"/>
  </g>
</svg>
