<?xml version="1.0" encoding="UTF-8" standalone="no"?>
<svg xmlns:ffdec="https://www.free-decompiler.com/flash" xmlns:xlink="http://www.w3.org/1999/xlink" ffdec:objectType="shape" height="80.0px" width="257.3px" xmlns="http://www.w3.org/2000/svg">
  <g transform="matrix(1.0, 0.0, 0.0, 1.0, 217.3, 40.0)">
    <path d="M12.75 -12.7 Q7.45 -18.0 0.0 -18.0 -7.45 -18.0 -12.7 -12.7 -18.0 -7.45 -18.0 0.0 -18.0 7.45 -12.7 12.75 -7.45 18.0 0.0 18.0 7.45 18.0 12.75 12.75 18.0 7.45 18.0 0.0 18.0 -7.45 12.75 -12.7 M40.0 40.0 L-40.0 40.0 -40.0 -40.0 40.0 -40.0 40.0 40.0" fill="#ffffff" fill-rule="evenodd" stroke="none"/>
    <path d="M-182.65 30.0 L-217.3 30.0 -199.95 0.0 -182.65 30.0" fill="#ffffff" fill-opacity="0.0" fill-rule="evenodd" stroke="none"/>
  </g>
</svg>
