<?xml version="1.0" encoding="UTF-8" standalone="no"?>
<svg xmlns:ffdec="https://www.free-decompiler.com/flash" xmlns:xlink="http://www.w3.org/1999/xlink" ffdec:objectType="shape" height="120.0px" width="120.0px" xmlns="http://www.w3.org/2000/svg">
  <g transform="matrix(1.0, 0.0, 0.0, 1.0, 60.0, 60.0)">
    <path d="M56.05 -46.0 L26.7 -53.3 15.9 -56.0 26.7 -53.3 56.05 -46.0 56.05 -13.5 38.9 -17.75 12.25 -24.45 38.9 -17.75 56.05 -13.5 56.05 19.0 51.15 17.8 24.45 11.1 51.15 17.8 56.05 19.0 56.05 51.5 56.05 56.0 2.0 56.0 10.0 40.0 2.0 56.0 -55.95 56.0 -55.95 36.0 -55.95 16.0 -55.95 -4.0 -3.95 -56.0 -55.95 -4.0 -55.95 -24.0 -55.95 -44.0 -55.95 -56.0 -43.95 -56.0 -23.95 -56.0 -3.95 -56.0 15.9 -56.0 56.05 -56.0 56.05 -46.0 M12.25 -24.45 L-10.0 -30.0 -55.95 16.0 -10.0 -30.0 12.25 -24.45 26.7 -53.3 12.25 -24.45 M10.0 40.0 L36.7 46.7 56.05 51.5 36.7 46.7 10.0 40.0 -16.65 33.35 10.0 40.0 M24.45 11.1 L38.9 -17.75 24.45 11.1 -2.2 4.45 24.45 11.1 M36.7 46.7 L51.15 17.8 36.7 46.7 M-16.65 33.35 L-2.2 4.45 -16.65 33.35 -30.0 30.0 -55.95 56.0 -30.0 30.0 -16.65 33.35 M-55.95 -24.0 L-23.95 -56.0 -55.95 -24.0 M-55.95 36.0 L-20.0 0.0 -2.2 4.45 -20.0 0.0 -55.95 36.0 M-55.95 -44.0 L-43.95 -56.0 -55.95 -44.0" fill="#580c0c" fill-rule="evenodd" stroke="none"/>
    <path d="M15.9 -56.0 L26.7 -53.3 56.05 -46.0 M-3.95 -56.0 L-55.95 -4.0 M-55.95 16.0 L-10.0 -30.0 12.25 -24.45 38.9 -17.75 56.05 -13.5 M24.45 11.1 L51.15 17.8 56.05 19.0 M56.05 51.5 L36.7 46.7 10.0 40.0 -16.65 33.35 -30.0 30.0 -55.95 56.0 M24.45 11.1 L-2.2 4.45 -20.0 0.0 -55.95 36.0 M-23.95 -56.0 L-55.95 -24.0 M-43.95 -56.0 L-55.95 -44.0" fill="none" stroke="#330000" stroke-linecap="square" stroke-linejoin="miter-clip" stroke-miterlimit="3.0" stroke-width="4.0"/>
    <path d="M12.25 -24.45 L26.7 -53.3 M10.0 40.0 L2.0 56.0 M51.15 17.8 L36.7 46.7 M38.9 -17.75 L24.45 11.1 M-2.2 4.45 L-16.65 33.35" fill="none" stroke="#330000" stroke-linecap="square" stroke-linejoin="miter-clip" stroke-miterlimit="3.0" stroke-width="2.0"/>
    <path d="M-58.0 58.05 L-58.0 -57.95 58.0 -57.95 58.0 58.05 -58.0 58.05 M-55.95 56.0 L56.05 56.0 56.05 -56.0 -55.95 -56.0 -55.95 56.0" fill="#000000" fill-rule="evenodd" stroke="none"/>
    <path d="M-60.0 60.0 L-60.0 -60.0 60.0 -60.0 60.0 60.0 -60.0 60.0 M-58.0 58.05 L58.0 58.05 58.0 -57.95 -58.0 -57.95 -58.0 58.05" fill="#6b0e0e" fill-rule="evenodd" stroke="none"/>
  </g>
</svg>
