<?xml version="1.0" encoding="UTF-8" standalone="no"?>
<svg xmlns:ffdec="https://www.free-decompiler.com/flash" xmlns:xlink="http://www.w3.org/1999/xlink" ffdec:objectType="shape" height="120.0px" width="120.0px" xmlns="http://www.w3.org/2000/svg">
  <g transform="matrix(1.0, 0.0, 0.0, 1.0, 60.0, 60.0)">
    <path d="M20.0 -40.0 L20.0 -56.0 20.0 -40.0 40.0 -40.0 40.0 -20.0 56.05 -20.0 40.0 -20.0 40.0 -40.0 20.0 -40.0 0.0 -40.0 -20.0 -40.0 -20.0 -56.0 -20.0 -40.0 0.0 -40.0 20.0 -40.0 M-20.0 -56.0 L20.0 -56.0 56.05 -56.0 56.05 -20.0 56.05 20.0 56.05 56.0 20.0 56.0 20.0 40.0 20.0 56.0 -20.0 56.0 -55.95 56.0 -55.95 20.0 -55.95 -20.0 -55.95 -56.0 -20.0 -56.0 M40.0 -20.0 L40.0 0.0 20.0 0.0 20.0 -20.0 0.0 -20.0 -20.0 -20.0 -20.0 0.0 -40.0 0.0 -40.0 -20.0 -40.0 -40.0 -20.0 -40.0 -40.0 -40.0 -40.0 -20.0 -40.0 0.0 -20.0 0.0 -20.0 -20.0 0.0 -20.0 0.0 -40.0 0.0 -20.0 20.0 -20.0 20.0 0.0 40.0 0.0 40.0 -20.0 M58.0 20.0 L58.0 -57.95 -58.0 -57.95 -58.0 58.05 58.0 58.05 58.0 20.0 M40.0 20.0 L56.05 20.0 40.0 20.0 40.0 40.0 20.0 40.0 0.0 40.0 0.0 20.0 20.0 20.0 20.0 0.0 20.0 20.0 0.0 20.0 0.0 40.0 20.0 40.0 40.0 40.0 40.0 20.0 40.0 0.0 40.0 20.0 M60.0 -60.0 L60.0 60.0 -60.0 60.0 -60.0 -60.0 60.0 -60.0 M0.0 40.0 L-20.0 40.0 -20.0 56.0 -20.0 40.0 -40.0 40.0 -40.0 20.0 -40.0 40.0 -20.0 40.0 0.0 40.0 M-20.0 0.0 L-20.0 20.0 0.0 20.0 -20.0 20.0 -20.0 0.0 M-40.0 0.0 L-40.0 20.0 -55.95 20.0 -40.0 20.0 -40.0 0.0 M-55.95 -20.0 L-40.0 -20.0 -55.95 -20.0" fill="#000000" fill-rule="evenodd" stroke="none"/>
    <path d="M56.05 -20.0 L56.05 -56.0 20.0 -56.0 -20.0 -56.0 -55.95 -56.0 -55.95 -20.0 -55.95 20.0 -55.95 56.0 -20.0 56.0 20.0 56.0 56.05 56.0 56.05 20.0 56.05 -20.0 M58.0 20.0 L56.05 20.0 58.0 20.0 58.0 58.05 -58.0 58.05 -58.0 -57.95 58.0 -57.95 58.0 20.0" fill="#333333" fill-rule="evenodd" stroke="none"/>
    <path d="M-20.0 -40.0 L-40.0 -40.0 -40.0 -20.0 -40.0 0.0 -20.0 0.0 -20.0 -20.0 0.0 -20.0 0.0 -40.0 M0.0 -20.0 L20.0 -20.0 20.0 0.0 40.0 0.0 40.0 -20.0 M56.05 20.0 L58.0 20.0 M20.0 0.0 L20.0 20.0 0.0 20.0 0.0 40.0 20.0 40.0 40.0 40.0 40.0 20.0 40.0 0.0 M56.05 20.0 L40.0 20.0 M20.0 40.0 L20.0 56.0 M-40.0 -20.0 L-55.95 -20.0 M-55.95 20.0 L-40.0 20.0 -40.0 0.0 M-20.0 56.0 L-20.0 40.0 -40.0 40.0 -40.0 20.0 M0.0 20.0 L-20.0 20.0 -20.0 0.0 M-20.0 40.0 L0.0 40.0" fill="none" stroke="#333333" stroke-linecap="butt" stroke-linejoin="miter-clip" stroke-miterlimit="3.0" stroke-width="2.0"/>
    <path d="M20.0 -56.0 L20.0 -40.0 0.0 -40.0 -20.0 -40.0 -20.0 -56.0" fill="none" stroke="#333333" stroke-linecap="butt" stroke-linejoin="miter-clip" stroke-miterlimit="3.0" stroke-width="2.0"/>
    <path d="M20.0 -40.0 L40.0 -40.0 40.0 -20.0 56.05 -20.0" fill="none" stroke="#333333" stroke-linecap="round" stroke-linejoin="miter-clip" stroke-miterlimit="3.0" stroke-width="2.0"/>
  </g>
</svg>
