<?xml version="1.0" encoding="UTF-8" standalone="no"?>
<svg xmlns:ffdec="https://www.free-decompiler.com/flash" xmlns:xlink="http://www.w3.org/1999/xlink" ffdec:objectType="shape" height="120.0px" width="120.0px" xmlns="http://www.w3.org/2000/svg">
  <g transform="matrix(1.0, 0.0, 0.0, 1.0, 60.0, 60.0)">
    <path d="M-55.95 -56.0 L56.05 -56.0 56.05 -55.95 0.05 0.0 -55.95 -56.0 0.05 0.0 56.05 -55.95 56.05 56.0 -55.9 56.0 -55.95 56.0 -55.95 -56.0 M-55.9 56.0 L0.05 0.0 56.05 56.0 0.05 0.0 -55.9 56.0 M58.0 -57.95 L-58.0 -57.95 -58.0 58.05 58.0 58.05 58.0 -57.95 M60.0 -60.0 L60.0 60.0 -60.0 60.0 -60.0 -60.0 60.0 -60.0" fill="#000000" fill-rule="evenodd" stroke="none"/>
    <path d="M56.05 -55.95 L56.05 -56.0 -55.95 -56.0 -55.95 56.0 -55.9 56.0 56.05 56.0 56.05 -55.95 M58.0 -57.95 L58.0 58.05 -58.0 58.05 -58.0 -57.95 58.0 -57.95" fill="#333333" fill-rule="evenodd" stroke="none"/>
    <path d="M-55.95 -56.0 L0.05 0.0 56.05 -55.95 M56.05 56.0 L0.05 0.0 -55.9 56.0" fill="none" stroke="#333333" stroke-linecap="butt" stroke-linejoin="miter-clip" stroke-miterlimit="3.0" stroke-width="2.0"/>
    <path d="M-10.0 -28.55 L0.0 -43.55 10.0 -28.55 30.0 -28.55 30.0 -8.55 45.0 1.45 30.0 11.45 30.0 31.45 0.0 36.45 0.0 16.45 30.0 31.45 0.0 16.45 0.0 36.45 -30.0 31.45 -30.0 11.45 -45.0 1.45 -30.0 -8.55 -30.0 -28.55 -10.0 -28.55 M22.5 -13.55 L15.0 1.45 0.0 -13.55 30.0 -28.55 22.5 -13.55 0.0 -13.55 -30.0 -28.55 0.0 -13.55 0.0 -28.55 0.0 -13.55 22.5 -13.55 30.0 -28.55 0.0 -13.55 15.0 1.45 22.5 -13.55 M-10.0 6.45 L0.0 16.45 10.0 6.45 0.0 -3.55 -10.0 6.45 -30.0 31.45 -15.0 1.45 0.0 -13.55 -22.5 -13.55 -30.0 -28.55 -22.5 -13.55 0.0 -13.55 -15.0 1.45 -30.0 31.45 -10.0 6.45 0.0 -3.55 10.0 6.45 30.0 31.45 15.0 1.45 30.0 1.45 15.0 1.45 30.0 31.45 10.0 6.45 0.0 16.45 -10.0 6.45 M0.0 16.45 L-30.0 31.45 0.0 16.45 M-22.5 -13.55 L-15.0 1.45 -30.0 1.45 -15.0 1.45 -22.5 -13.55" fill="#000000" fill-rule="evenodd" stroke="none"/>
    <path d="M-30.0 -28.55 L0.0 -13.55 0.0 -28.55 M0.0 -13.55 L22.5 -13.55 30.0 -28.55 0.0 -13.55 15.0 1.45 22.5 -13.55 M30.0 31.45 L0.0 16.45 0.0 36.45 M-30.0 -28.55 L-22.5 -13.55 0.0 -13.55 -15.0 1.45 -30.0 31.45 -10.0 6.45 0.0 -3.55 10.0 6.45 30.0 31.45 15.0 1.45 30.0 1.45 M10.0 6.45 L0.0 16.45 -10.0 6.45 M-15.0 1.45 L-30.0 1.45 M-15.0 1.45 L-22.5 -13.55 M-30.0 31.45 L0.0 16.45" fill="none" stroke="#333333" stroke-linecap="square" stroke-linejoin="miter-clip" stroke-miterlimit="3.0" stroke-width="2.0"/>
    <path d="M10.0 -28.55 L0.0 -43.55 -10.0 -28.55 M-30.0 11.45 L-45.0 1.45 -30.0 -8.55 M30.0 11.45 L45.0 1.45 30.0 -8.55" fill="none" stroke="#666666" stroke-linecap="square" stroke-linejoin="miter-clip" stroke-miterlimit="3.0" stroke-width="3.0"/>
    <path d="M30.0 31.45 L30.0 -28.55 -30.0 -28.55 -30.0 31.45 0.0 36.45 30.0 31.45 Z" fill="none" stroke="#666666" stroke-linecap="square" stroke-linejoin="miter-clip" stroke-miterlimit="3.0" stroke-width="3.0"/>
    <path d="M7.5 -8.55 Q7.5 -10.6 8.95 -12.1 10.45 -13.55 12.5 -13.55 14.55 -13.55 16.0 -12.1 17.5 -10.6 17.5 -8.55 17.5 -6.5 16.0 -5.05 14.55 -3.55 12.5 -3.55 10.45 -3.55 8.95 -5.05 7.5 -6.5 7.5 -8.55 M-15.0 -8.55 Q-15.0 -7.55 -14.25 -6.8 -13.5 -6.05 -12.5 -6.05 -11.45 -6.05 -10.75 -6.8 -10.0 -7.55 -10.0 -8.55 -10.0 -9.6 -10.75 -10.35 -11.45 -11.05 -12.5 -11.05 -13.5 -11.05 -14.25 -10.35 -15.0 -9.6 -15.0 -8.55 M14.25 -6.8 Q15.0 -7.55 15.0 -8.55 15.0 -9.6 14.25 -10.35 13.55 -11.05 12.5 -11.05 11.5 -11.05 10.75 -10.35 10.0 -9.6 10.0 -8.55 10.0 -7.55 10.75 -6.8 11.5 -6.05 12.5 -6.05 13.55 -6.05 14.25 -6.8 M-16.05 -12.1 Q-14.55 -13.55 -12.5 -13.55 -10.45 -13.55 -9.0 -12.1 -7.5 -10.6 -7.5 -8.55 -7.5 -6.5 -9.0 -5.05 -10.45 -3.55 -12.5 -3.55 -14.55 -3.55 -16.05 -5.05 -17.5 -6.5 -17.5 -8.55 -17.5 -10.6 -16.05 -12.1" fill="#333333" fill-rule="evenodd" stroke="none"/>
    <path d="M14.25 -6.8 Q13.55 -6.05 12.5 -6.05 11.5 -6.05 10.75 -6.8 10.0 -7.55 10.0 -8.55 10.0 -9.6 10.75 -10.35 11.5 -11.05 12.5 -11.05 13.55 -11.05 14.25 -10.35 15.0 -9.6 15.0 -8.55 15.0 -7.55 14.25 -6.8 M-15.0 -8.55 Q-15.0 -9.6 -14.25 -10.35 -13.5 -11.05 -12.5 -11.05 -11.45 -11.05 -10.75 -10.35 -10.0 -9.6 -10.0 -8.55 -10.0 -7.55 -10.75 -6.8 -11.45 -6.05 -12.5 -6.05 -13.5 -6.05 -14.25 -6.8 -15.0 -7.55 -15.0 -8.55" fill="#666666" fill-rule="evenodd" stroke="none"/>
  </g>
</svg>
