<?xml version="1.0" encoding="UTF-8" standalone="no"?>
<svg xmlns:ffdec="https://www.free-decompiler.com/flash" xmlns:xlink="http://www.w3.org/1999/xlink" ffdec:objectType="shape" height="120.0px" width="120.0px" xmlns="http://www.w3.org/2000/svg">
  <g transform="matrix(1.0, 0.0, 0.0, 1.0, 60.0, 60.0)">
    <path d="M44.0 -56.0 L56.05 -56.0 56.05 -43.95 44.0 -56.0 M56.05 -23.95 L56.05 -3.95 56.05 16.05 -16.0 -56.0 4.0 -56.0 24.0 -56.0 56.05 -23.95 M56.05 36.05 L56.05 56.0 56.0 56.0 -55.95 -55.95 -55.95 -56.0 -36.0 -56.0 56.05 36.05 M36.0 56.0 L16.0 56.0 -4.0 56.0 -55.95 4.05 -55.95 -15.95 -55.95 -35.95 36.0 56.0 M-24.0 56.0 L-44.0 56.0 -55.95 56.0 -55.95 44.05 -55.95 24.05 -24.0 56.0 M4.0 -56.0 L56.05 -3.95 4.0 -56.0 M-44.0 56.0 L-55.95 44.05 -44.0 56.0 M-55.95 -15.95 L16.0 56.0 -55.95 -15.95" fill="#4f4b2b" fill-rule="evenodd" stroke="none"/>
    <path d="M44.0 -56.0 L56.05 -43.95 56.05 -23.95 24.0 -56.0 44.0 -56.0 M56.05 16.05 L56.05 36.05 -36.0 -56.0 -16.0 -56.0 56.05 16.05 M56.0 56.0 L36.0 56.0 -55.95 -35.95 -55.95 -55.95 56.0 56.0 M-4.0 56.0 L-24.0 56.0 -55.95 24.05 -55.95 4.05 -4.0 56.0" fill="#423f24" fill-rule="evenodd" stroke="none"/>
    <path d="M44.0 -56.0 L56.05 -43.95 M56.05 -3.95 L4.0 -56.0 M24.0 -56.0 L56.05 -23.95 M-55.95 44.05 L-44.0 56.0 M-24.0 56.0 L-55.95 24.05 M-55.95 4.05 L-4.0 56.0 M36.0 56.0 L-55.95 -35.95 M56.0 56.0 L-55.95 -55.95 M16.0 56.0 L-55.95 -15.95 M-16.0 -56.0 L56.05 16.05 M56.05 36.05 L-36.0 -56.0" fill="none" stroke="#000000" stroke-linecap="butt" stroke-linejoin="miter-clip" stroke-miterlimit="3.0" stroke-width="2.0"/>
    <path d="M58.0 -57.95 L-58.0 -57.95 -58.0 58.05 58.0 58.05 58.0 -57.95 M60.0 -60.0 L60.0 60.0 -60.0 60.0 -60.0 -60.0 60.0 -60.0" fill="#4f4b2b" fill-rule="evenodd" stroke="none"/>
    <path d="M56.05 -56.0 L-55.95 -56.0 -55.95 56.0 56.05 56.0 56.05 -56.0 M58.0 -57.95 L58.0 58.05 -58.0 58.05 -58.0 -57.95 58.0 -57.95" fill="#000000" fill-rule="evenodd" stroke="none"/>
  </g>
</svg>
