<?xml version="1.0" encoding="UTF-8" standalone="no"?>
<svg xmlns:ffdec="https://www.free-decompiler.com/flash" xmlns:xlink="http://www.w3.org/1999/xlink" ffdec:objectType="shape" height="27.5px" width="18.0px" xmlns="http://www.w3.org/2000/svg">
  <g transform="matrix(1.0, 0.0, 0.0, 1.0, 8.0, 25.0)">
    <path d="M10.0 -16.6 L5.2 -16.6 5.2 -7.05 Q5.2 -6.05 4.5 -5.35 3.8 -4.65 2.8 -4.65 L2.0 -4.8 Q1.5 -4.95 1.1 -5.35 0.4 -6.05 0.4 -6.95 0.4 -6.55 0.75 -6.2 1.1 -5.85 1.6 -5.85 2.1 -5.85 2.45 -6.2 L2.8 -7.0 2.8 -7.15 Q2.75 -8.55 1.75 -9.6 0.7 -10.65 -0.8 -10.65 L-2.0 -10.65 -2.0 -16.6 -6.8 -16.6 1.6 -25.0 10.0 -16.6 M0.4 -8.25 Q-0.1 -8.25 -0.45 -7.9 L-0.8 -7.05 -0.8 2.5 -8.0 2.5 -8.0 -7.05 Q-8.0 -8.05 -7.3 -8.75 -6.6 -9.45 -5.6 -9.45 L-0.8 -9.45 Q0.2 -9.45 0.9 -8.75 1.55 -8.05 1.6 -7.1 L1.25 -7.9 Q0.9 -8.25 0.4 -8.25" fill="#ffffff" fill-rule="evenodd" stroke="none"/>
  </g>
</svg>
