<?xml version="1.0" encoding="UTF-8" standalone="no"?>
<svg xmlns:ffdec="https://www.free-decompiler.com/flash" xmlns:xlink="http://www.w3.org/1999/xlink" ffdec:objectType="shape" height="30.1px" width="32.05px" xmlns="http://www.w3.org/2000/svg">
  <g transform="matrix(1.0, 0.0, 0.0, 1.0, 14.8, 26.1)">
    <path d="M2.45 -18.4 L1.55 -19.3 1.6 -19.3 0.4 -20.3 2.2 -26.1 4.85 -17.5 12.85 -21.7 8.6 -13.75 17.25 -11.05 8.6 -8.4 12.85 -0.4 4.85 -4.65 2.2 4.0 0.2 -2.55 0.2 -3.1 0.5 -3.05 Q1.65 -3.05 2.45 -3.85 3.25 -4.65 3.25 -5.8 L3.25 -5.95 Q4.85 -6.2 6.0 -7.4 7.55 -8.95 7.55 -11.15 7.55 -13.3 6.0 -14.85 4.8 -16.05 3.25 -16.3 L3.25 -16.45 Q3.25 -17.6 2.45 -18.4" fill="#ffffff" fill-opacity="0.6" fill-rule="evenodd" stroke="none"/>
    <path d="M4.95 -13.85 Q6.05 -12.7 6.05 -11.2 6.05 -9.6 4.95 -8.5 3.85 -7.4 2.3 -7.4 0.8 -7.4 -0.3 -8.45 L1.4 -6.75 1.75 -5.85 Q1.75 -5.35 1.4 -4.95 1.05 -4.6 0.5 -4.6 0.0 -4.6 -0.35 -4.95 L-5.7 -10.3 Q-6.05 -10.65 -6.05 -11.2 L-5.7 -12.05 -3.0 -14.7 -3.65 -15.35 -7.8 -11.15 -2.45 -5.8 Q-1.85 -5.2 -1.85 -4.3 -1.85 -3.7 -2.1 -3.2 L-2.5 -2.7 -3.0 -2.35 Q-3.45 -2.05 -4.05 -2.05 L-4.8 -2.2 -10.1 -4.45 -9.45 -3.1 -8.75 -1.5 Q-8.75 -1.0 -9.15 -0.65 -9.5 -0.25 -10.0 -0.25 -10.55 -0.25 -10.9 -0.65 L-14.45 -4.2 Q-14.8 -4.55 -14.8 -5.05 -14.8 -5.6 -14.45 -5.95 L-12.65 -7.7 -8.8 -7.35 -12.0 -8.55 -12.65 -9.0 -12.7 -9.0 -12.95 -9.2 -13.75 -10.1 Q-14.1 -10.6 -14.1 -11.2 L-12.85 -14.0 -11.6 -16.2 Q-11.05 -17.3 -10.1 -18.25 -7.9 -20.45 -4.8 -20.45 -1.7 -20.45 0.5 -18.25 L1.4 -17.35 1.75 -16.5 Q1.75 -15.95 1.4 -15.6 L-0.3 -13.9 Q0.8 -14.95 2.3 -14.95 3.85 -14.95 4.95 -13.85 M-0.45 -13.75 L-3.0 -11.15 -0.45 -8.6 Q-1.45 -9.65 -1.45 -11.2 L-1.1 -12.8 -0.45 -13.75" fill="#ffffff" fill-rule="evenodd" stroke="none"/>
  </g>
</svg>
