<?xml version="1.0" encoding="UTF-8" standalone="no"?>
<svg xmlns:ffdec="https://www.free-decompiler.com/flash" xmlns:xlink="http://www.w3.org/1999/xlink" ffdec:objectType="shape" height="28.2px" width="28.0px" xmlns="http://www.w3.org/2000/svg">
  <g transform="matrix(1.0, 0.0, 0.0, 1.0, 12.55, 25.6)">
    <path d="M11.35 -2.4 L4.25 -6.3 1.75 1.45 0.0 -4.65 9.2 -13.9 15.45 -11.9 7.65 -9.6 11.35 -2.4 M3.95 -19.25 L-5.1 -10.15 -11.55 -12.25 -3.8 -14.55 -7.5 -21.75 -0.4 -17.9 2.1 -25.6 3.95 -19.25" fill="#ffffff" fill-opacity="0.6" fill-rule="evenodd" stroke="none"/>
    <path d="M8.7 -15.3 L-3.15 -3.45 0.25 -0.1 -2.45 2.6 -6.5 -1.45 -10.55 2.6 -12.55 0.6 -8.5 -3.45 -12.55 -7.5 -9.85 -10.2 -6.5 -6.85 5.3 -18.65 12.05 -22.05 8.7 -15.3" fill="#ffffff" fill-rule="evenodd" stroke="none"/>
  </g>
</svg>
