<?xml version="1.0" encoding="UTF-8" standalone="no"?>
<svg xmlns:ffdec="https://www.free-decompiler.com/flash" xmlns:xlink="http://www.w3.org/1999/xlink" ffdec:objectType="shape" height="19.65px" width="36.0px" xmlns="http://www.w3.org/2000/svg">
  <g transform="matrix(1.0, 0.0, 0.0, 1.0, 17.95, 19.95)">
    <path d="M5.35 -13.6 L12.75 -17.5 7.7 -7.95 18.05 -4.8 17.3 -4.55 7.75 -3.85 12.8 -1.55 3.2 -2.75 0.05 -0.3 -3.15 -2.75 -12.7 -1.55 -7.65 -3.85 -17.25 -4.55 -17.95 -4.8 -7.65 -7.95 -12.7 -17.5 -7.7 -14.65 -7.25 -6.9 -7.0 -6.3 Q-6.75 -6.05 -6.4 -6.05 L6.45 -6.05 7.05 -6.3 7.3 -6.9 7.3 -10.15 Q7.3 -11.8 6.1 -13.0 L5.35 -13.6" fill="#ffffff" fill-opacity="0.6" fill-rule="evenodd" stroke="none"/>
    <path d="M3.25 -12.5 L4.1 -12.3 Q4.55 -12.15 4.9 -11.8 5.55 -11.1 5.6 -10.15 L5.6 -7.8 -5.55 -7.8 -6.2 -19.95 0.45 -19.95 -0.2 -12.5 3.2 -12.5 3.2 -12.45 3.25 -12.5" fill="#ffffff" fill-rule="evenodd" stroke="none"/>
  </g>
</svg>
