<?xml version="1.0" encoding="UTF-8" standalone="no"?>
<svg xmlns:ffdec="https://www.free-decompiler.com/flash" xmlns:xlink="http://www.w3.org/1999/xlink" ffdec:objectType="shape" height="66.85px" width="59.85px" xmlns="http://www.w3.org/2000/svg">
  <g transform="matrix(1.0, 0.0, 0.0, 1.0, 29.9, 69.85)">
    <path d="M8.85 -64.0 L9.1 -64.0 9.05 -63.9 8.85 -64.0 M-6.2 -63.45 L-6.2 -63.5 -6.0 -63.5 -6.2 -63.45" fill="#e7e70d" fill-rule="evenodd" stroke="none"/>
    <path d="M11.1 -48.15 L10.65 -47.5 9.45 -48.35 10.8 -52.15 13.15 -51.35 Q16.35 -50.75 18.05 -48.5 L17.9 -47.85 16.85 -45.95 Q15.25 -43.75 13.25 -45.55 L13.8 -45.7 Q14.65 -46.05 14.3 -46.9 L14.55 -47.9 Q14.75 -49.25 12.85 -49.25 11.15 -49.25 11.1 -48.15 M-15.3 -45.0 L-14.7 -44.9 -17.5 -43.25 Q-18.2 -46.15 -17.35 -48.9 L-16.6 -50.15 -15.05 -51.4 -12.15 -48.0 -13.65 -46.25 -13.7 -47.15 Q-13.35 -48.8 -15.4 -48.4 L-16.05 -47.95 -16.4 -45.1 -16.0 -44.8 -15.3 -45.0" fill="#a7a94e" fill-rule="evenodd" stroke="none"/>
    <path d="M-3.6 -49.1 L-5.25 -49.05 -5.55 -49.9 -5.3 -50.45 -2.05 -51.35 Q-2.1 -52.55 -1.65 -53.75 -1.45 -54.35 -0.95 -54.4 L-0.35 -54.25 0.1 -53.45 0.0 -51.35 4.45 -50.1 4.25 -49.05 -3.6 -49.2 -3.9 -49.2 -3.6 -49.1 M26.15 -42.2 L27.3 -41.45 27.15 -40.4 Q23.75 -37.9 19.45 -37.9 L18.4 -38.15 18.1 -39.35 Q19.35 -40.5 21.4 -40.3 23.9 -40.8 26.15 -42.2 M-17.6 -39.05 L-17.75 -38.0 Q-21.1 -37.35 -24.5 -38.45 -26.4 -39.05 -27.15 -40.5 L-26.1 -41.5 -17.6 -39.05" fill="#b6b75d" fill-rule="evenodd" stroke="none"/>
    <path d="M3.0 -65.25 L2.9 -65.6 Q2.9 -66.65 5.55 -66.65 9.9 -66.65 9.9 -65.05 9.9 -64.1 9.1 -64.0 L8.85 -64.0 Q3.55 -64.0 3.0 -65.25 M-6.2 -63.5 Q-7.35 -63.7 -7.05 -65.9 L-6.95 -67.75 Q-6.2 -68.95 -2.3 -68.95 1.5 -68.95 0.8 -68.0 L0.8 -67.8 Q0.35 -66.65 -4.95 -66.7 L-4.75 -64.95 Q-4.8 -63.5 -6.0 -63.5 L-6.2 -63.5 M-11.2 -61.6 Q-11.45 -61.3 -12.0 -61.3 -13.15 -61.3 -13.55 -65.6 -13.55 -67.1 -10.7 -67.1 -8.6 -67.1 -8.6 -66.05 L-8.8 -65.45 -11.3 -65.0 -11.2 -61.6" fill="#d6d67e" fill-rule="evenodd" stroke="none"/>
    <path d="M14.3 -46.9 L11.4 -47.25 11.1 -48.15 Q11.15 -49.25 12.85 -49.25 14.75 -49.25 14.55 -47.9 L14.3 -46.9 M-13.7 -47.15 L-15.3 -45.0 -16.0 -44.8 -16.4 -45.1 -16.05 -47.95 -15.4 -48.4 Q-13.35 -48.8 -13.7 -47.15" fill="#8e8d31" fill-rule="evenodd" stroke="none"/>
    <path d="M3.0 -65.25 Q3.55 -64.0 8.85 -64.0 L9.05 -63.9 6.95 -58.5 5.75 -57.7 4.55 -57.65 Q3.85 -59.85 1.9 -61.1 L3.0 -65.25 M0.8 -67.8 L1.3 -67.8 1.15 -67.3 0.6 -66.85 0.5 -66.35 0.8 -65.9 0.5 -61.75 -6.35 -61.55 -6.2 -63.45 -6.0 -63.5 Q-4.8 -63.5 -4.75 -64.95 L-4.95 -66.7 Q0.35 -66.65 0.8 -67.8 M-11.2 -61.6 L-11.3 -65.0 -8.8 -65.45 -8.35 -60.65 -7.75 -60.3 -8.4 -57.6 -10.35 -57.75 -11.2 -61.6" fill="#b9ba61" fill-rule="evenodd" stroke="none"/>
    <path d="M-14.0 -26.5 Q-18.25 -27.6 -18.9 -31.85 L-19.2 -34.0 Q-23.1 -34.5 -26.65 -36.35 -29.2 -37.65 -29.75 -40.3 -30.25 -43.0 -28.75 -45.15 -27.7 -46.7 -25.95 -47.3 -26.2 -51.75 -23.45 -55.25 -22.3 -56.7 -20.45 -57.4 -16.85 -58.8 -13.05 -58.0 L-14.55 -65.95 Q-13.75 -67.2 -12.2 -67.25 L-8.35 -67.35 -7.35 -69.8 -1.35 -69.8 Q1.2 -70.15 3.55 -68.7 L3.25 -67.45 10.6 -66.7 Q11.45 -66.35 11.85 -65.5 L9.05 -59.15 16.85 -58.75 Q20.4 -57.8 22.2 -54.65 23.3 -52.6 23.45 -50.45 L23.55 -47.45 Q27.4 -47.4 29.25 -44.05 30.0 -42.75 29.95 -41.15 29.8 -38.2 27.35 -36.85 23.6 -34.65 19.25 -34.95 19.35 -32.35 17.75 -30.35 16.25 -28.35 14.05 -27.7 13.1 -27.35 12.15 -27.15 L9.7 -26.85 7.9 -26.9 7.85 -24.6 Q7.7 -21.45 4.7 -20.2 0.65 -18.6 -3.6 -19.05 -6.85 -19.3 -8.15 -21.95 -9.2 -24.1 -8.7 -26.45 L-11.1 -26.3 -14.0 -26.5 M9.1 -64.0 Q9.9 -64.1 9.9 -65.05 9.9 -66.65 5.55 -66.65 2.9 -66.65 2.9 -65.6 L3.0 -65.25 1.9 -61.1 Q3.85 -59.85 4.55 -57.65 L5.75 -57.7 6.95 -58.5 9.05 -63.9 9.1 -64.0 M-6.2 -63.45 L-6.35 -61.55 0.5 -61.75 0.8 -65.9 0.5 -66.35 0.6 -66.85 1.15 -67.3 1.3 -67.8 0.8 -67.8 0.8 -68.0 Q1.5 -68.95 -2.3 -68.95 -6.2 -68.95 -6.95 -67.75 L-7.05 -65.9 Q-7.35 -63.7 -6.2 -63.5 L-6.2 -63.45 M2.65 -57.25 Q1.95 -58.4 0.85 -59.0 -1.8 -60.55 -4.65 -59.8 -6.25 -59.25 -6.15 -57.7 L-6.25 -54.7 Q-6.25 -54.5 -6.55 -54.25 L-8.35 -55.45 -10.65 -54.85 Q-11.45 -54.6 -12.1 -54.0 -13.15 -53.05 -13.05 -51.55 -12.55 -50.2 -11.3 -50.0 L-7.35 -48.9 Q-6.6 -48.75 -6.65 -47.95 L-16.55 -41.15 Q-17.95 -41.05 -18.8 -42.3 -20.35 -44.65 -19.85 -47.65 -19.1 -52.25 -14.75 -53.9 L-13.9 -55.65 -15.6 -55.95 -18.95 -55.5 Q-20.15 -55.25 -21.0 -54.45 -24.65 -51.05 -23.4 -46.3 L-27.25 -42.3 Q-28.2 -41.3 -27.7 -39.9 -27.3 -38.65 -26.0 -38.25 -22.05 -37.15 -18.15 -36.6 -16.3 -36.9 -14.75 -35.65 L-15.6 -34.15 -16.85 -33.85 -16.55 -32.3 -15.8 -30.1 -15.05 -29.4 Q-12.05 -28.65 -8.75 -28.45 L-8.65 -31.45 Q-11.0 -31.35 -12.1 -33.65 -13.3 -36.25 -12.6 -39.2 -11.75 -42.75 -8.9 -45.05 -7.0 -46.6 -4.6 -47.15 0.2 -47.85 4.55 -46.2 8.8 -44.45 11.35 -40.4 L11.9 -38.75 Q12.35 -35.7 11.0 -32.95 9.95 -30.8 7.75 -30.15 L8.15 -29.0 Q10.85 -28.8 13.25 -29.95 16.5 -31.45 17.2 -34.95 L15.4 -36.05 18.1 -36.6 23.95 -38.0 Q25.0 -38.3 25.85 -38.95 L27.1 -40.25 Q27.55 -41.0 27.45 -41.85 27.1 -44.4 24.2 -45.1 22.65 -45.25 21.5 -45.85 L21.4 -46.2 21.05 -51.5 Q20.9 -52.75 20.3 -53.85 L19.5 -54.7 Q14.6 -57.95 8.5 -57.0 L10.7 -54.2 14.3 -53.7 Q16.5 -53.1 18.3 -51.55 20.25 -49.9 19.8 -47.35 19.45 -45.25 18.2 -43.85 17.25 -42.8 15.9 -42.5 14.9 -42.65 14.1 -43.1 10.35 -45.05 6.8 -47.65 L6.45 -48.7 7.75 -50.0 Q9.0 -51.2 8.85 -52.8 L8.3 -53.15 8.55 -53.85 7.9 -54.5 6.1 -55.55 Q3.95 -55.25 2.15 -53.35 L1.05 -53.5 0.75 -54.2 2.65 -57.25 M14.3 -46.9 Q14.65 -46.05 13.8 -45.7 L13.25 -45.55 Q15.25 -43.75 16.85 -45.95 L17.9 -47.85 18.05 -48.5 Q16.35 -50.75 13.15 -51.35 L10.8 -52.15 9.45 -48.35 10.65 -47.5 11.1 -48.15 11.4 -47.25 14.3 -46.9 M9.95 -38.0 Q7.65 -43.15 2.05 -44.8 -1.6 -45.9 -5.35 -44.7 -8.9 -43.5 -10.2 -40.1 L-10.65 -37.95 Q-10.85 -34.95 -8.45 -32.95 L-8.0 -34.6 Q-7.25 -37.15 -4.55 -37.5 -2.05 -37.4 -0.4 -36.25 2.25 -37.95 5.4 -36.55 6.45 -36.1 6.55 -35.0 L7.4 -32.85 Q9.2 -34.45 9.95 -36.9 10.15 -37.5 9.95 -38.0 M5.75 -26.35 Q5.85 -29.9 5.35 -33.6 L1.8 -35.05 0.1 -34.1 -0.45 -32.8 -1.75 -33.05 -1.9 -34.45 -3.05 -34.95 -5.7 -34.85 -6.6 -24.65 Q-6.7 -23.4 -5.95 -22.65 -5.4 -22.05 -4.7 -21.75 0.0 -20.05 4.35 -22.55 5.1 -23.05 5.35 -24.05 L5.75 -26.35 M-8.8 -65.45 L-8.6 -66.05 Q-8.6 -67.1 -10.7 -67.1 -13.55 -67.1 -13.55 -65.6 -13.15 -61.3 -12.0 -61.3 -11.45 -61.3 -11.2 -61.6 L-10.35 -57.75 -8.4 -57.6 -7.75 -60.3 -8.35 -60.65 -8.8 -65.45 M-13.7 -47.15 L-13.65 -46.25 -12.15 -48.0 -15.05 -51.4 -16.6 -50.15 -17.35 -48.9 Q-18.2 -46.15 -17.5 -43.25 L-14.7 -44.9 -15.3 -45.0 -13.7 -47.15" fill="url(#gradient0)" fill-rule="evenodd" stroke="none"/>
    <path d="M2.65 -57.25 L0.75 -54.2 1.05 -53.5 2.15 -53.35 Q3.95 -55.25 6.1 -55.55 L7.9 -54.5 8.55 -53.85 8.3 -53.15 8.85 -52.8 Q9.0 -51.2 7.75 -50.0 L6.45 -48.7 6.8 -47.65 Q10.35 -45.05 14.1 -43.1 14.9 -42.65 15.9 -42.5 17.25 -42.8 18.2 -43.85 19.45 -45.25 19.8 -47.35 20.25 -49.9 18.3 -51.55 16.5 -53.1 14.3 -53.7 L10.7 -54.2 8.5 -57.0 Q14.6 -57.95 19.5 -54.7 L20.3 -53.85 Q20.9 -52.75 21.05 -51.5 L21.4 -46.2 21.5 -45.85 Q22.65 -45.25 24.2 -45.1 27.1 -44.4 27.45 -41.85 27.55 -41.0 27.1 -40.25 L25.85 -38.95 Q25.0 -38.3 23.95 -38.0 L18.1 -36.6 15.4 -36.05 17.2 -34.95 Q16.5 -31.45 13.25 -29.95 10.85 -28.8 8.15 -29.0 L7.75 -30.15 Q9.95 -30.8 11.0 -32.95 12.35 -35.7 11.9 -38.75 L11.35 -40.4 Q8.8 -44.45 4.55 -46.2 0.2 -47.85 -4.6 -47.15 -7.0 -46.6 -8.9 -45.05 -11.75 -42.75 -12.6 -39.2 -13.3 -36.25 -12.1 -33.65 -11.0 -31.35 -8.65 -31.45 L-8.75 -28.45 Q-12.05 -28.65 -15.05 -29.4 L-15.8 -30.1 -16.55 -32.3 -16.85 -33.85 -15.6 -34.15 -14.75 -35.65 Q-16.3 -36.9 -18.15 -36.6 -22.05 -37.15 -26.0 -38.25 -27.3 -38.65 -27.7 -39.9 -28.2 -41.3 -27.25 -42.3 L-23.4 -46.3 Q-24.65 -51.05 -21.0 -54.45 -20.15 -55.25 -18.95 -55.5 L-15.6 -55.95 -13.9 -55.65 -14.75 -53.9 Q-19.1 -52.25 -19.85 -47.65 -20.35 -44.65 -18.8 -42.3 -17.95 -41.05 -16.55 -41.15 L-6.65 -47.95 Q-6.6 -48.75 -7.35 -48.9 L-11.3 -50.0 Q-12.55 -50.2 -13.05 -51.55 -13.15 -53.05 -12.1 -54.0 -11.45 -54.6 -10.65 -54.85 L-8.35 -55.45 -6.55 -54.25 Q-6.25 -54.5 -6.25 -54.7 L-6.15 -57.7 Q-6.25 -59.25 -4.65 -59.8 -1.8 -60.55 0.85 -59.0 1.95 -58.4 2.65 -57.25 M-3.6 -49.2 L4.25 -49.05 4.45 -50.1 0.0 -51.35 0.1 -53.45 -0.35 -54.25 -0.95 -54.4 Q-1.45 -54.35 -1.65 -53.75 -2.1 -52.55 -2.05 -51.35 L-5.3 -50.45 -5.55 -49.9 -5.25 -49.05 -3.6 -49.1 -3.6 -49.2 M26.15 -42.2 Q23.9 -40.8 21.4 -40.3 19.35 -40.5 18.1 -39.35 L18.4 -38.15 19.45 -37.9 Q23.75 -37.9 27.15 -40.4 L27.3 -41.45 26.15 -42.2 M-17.6 -39.05 L-26.1 -41.5 -27.15 -40.5 Q-26.4 -39.05 -24.5 -38.45 -21.1 -37.35 -17.75 -38.0 L-17.6 -39.05" fill="url(#gradient1)" fill-rule="evenodd" stroke="none"/>
    <path d="M9.95 -38.0 Q10.15 -37.5 9.95 -36.9 9.2 -34.45 7.4 -32.85 L6.55 -35.0 Q6.45 -36.1 5.4 -36.55 2.25 -37.95 -0.4 -36.25 -2.05 -37.4 -4.55 -37.5 -7.25 -37.15 -8.0 -34.6 L-8.45 -32.95 Q-10.85 -34.95 -10.65 -37.95 L-10.2 -40.1 Q-8.9 -43.5 -5.35 -44.7 -1.6 -45.9 2.05 -44.8 7.65 -43.15 9.95 -38.0" fill="url(#gradient2)" fill-rule="evenodd" stroke="none"/>
    <path d="M5.75 -26.35 L5.35 -24.05 Q5.1 -23.05 4.35 -22.55 0.0 -20.05 -4.7 -21.75 -5.4 -22.05 -5.95 -22.65 -6.7 -23.4 -6.6 -24.65 L-5.7 -34.85 -3.05 -34.95 -1.9 -34.45 -1.75 -33.05 -0.45 -32.8 0.1 -34.1 1.8 -35.05 5.35 -33.6 Q5.85 -29.9 5.75 -26.35" fill="url(#gradient3)" fill-rule="evenodd" stroke="none"/>
    <path d="M-11.1 -26.3 L-8.7 -26.45 Q-9.2 -24.1 -8.15 -21.95 -6.85 -19.3 -3.6 -19.05 0.65 -18.6 4.7 -20.2 7.7 -21.45 7.85 -24.6 L7.9 -26.9 9.7 -26.85 9.95 -14.75 Q8.85 -13.0 6.8 -12.25 L5.45 -11.9 4.7 -11.85 4.2 -15.5 Q2.0 -16.5 1.85 -14.1 L1.25 -7.95 Q1.0 -5.9 -1.1 -5.65 L-2.45 -5.8 -2.8 -11.1 Q-2.95 -12.5 -3.45 -13.75 L-4.0 -14.65 -5.15 -14.35 -5.7 -11.4 -7.05 -11.6 Q-8.35 -12.0 -9.45 -12.75 -10.35 -13.25 -10.7 -14.05 -11.55 -16.15 -11.45 -18.55 L-11.1 -26.3" fill="url(#gradient4)" fill-rule="evenodd" stroke="none"/>
    <path d="M-14.0 -26.5 L-11.1 -26.3 -11.45 -18.55 Q-11.55 -16.15 -10.7 -14.05 -10.35 -13.25 -9.45 -12.75 -8.35 -12.0 -7.05 -11.6 L-5.7 -11.4 -5.15 -14.35 -4.0 -14.65 -3.45 -13.75 Q-2.95 -12.5 -2.8 -11.1 L-2.45 -5.8 -1.1 -5.65 Q1.0 -5.9 1.25 -7.95 L1.85 -14.1 Q2.0 -16.5 4.2 -15.5 L4.7 -11.85 5.45 -11.9 6.8 -12.25 Q8.85 -13.0 9.95 -14.75 L9.7 -26.85 12.15 -27.15 12.35 -24.3 12.75 -17.25 12.9 -15.45 Q13.05 -13.6 11.55 -12.35 8.45 -9.75 4.5 -9.65 4.25 -7.6 3.3 -5.85 2.05 -3.45 -0.55 -3.0 L-2.4 -3.4 Q-5.7 -4.7 -5.65 -8.9 L-8.2 -9.25 Q-9.45 -9.25 -10.55 -9.85 -11.55 -10.4 -12.2 -11.3 -14.7 -14.8 -14.25 -19.25 -13.9 -22.8 -14.0 -26.5" fill="url(#gradient5)" fill-rule="evenodd" stroke="none"/>
    <path d="M-3.6 -49.2 L-3.6 -49.1 -3.6 -49.2" fill="url(#gradient6)" fill-rule="evenodd" stroke="none"/>
    <path d="M-3.6 -49.1 L-3.9 -49.2 -3.6 -49.2 -3.6 -49.1" fill="url(#gradient7)" fill-rule="evenodd" stroke="none"/>
  </g>
  <defs>
    <linearGradient gradientTransform="matrix(0.0, 0.0245, -0.0366, 0.0, 0.05, -46.4)" gradientUnits="userSpaceOnUse" id="gradient0" spreadMethod="pad" x1="-819.2" x2="819.2">
      <stop offset="0.0" stop-color="#b0b035"/>
      <stop offset="1.0" stop-color="#74732e"/>
    </linearGradient>
    <linearGradient gradientTransform="matrix(0.0, 0.0117, -0.0341, 0.0, 0.05, -45.65)" gradientUnits="userSpaceOnUse" id="gradient1" spreadMethod="pad" x1="-819.2" x2="819.2">
      <stop offset="0.0" stop-color="#dada83"/>
      <stop offset="1.0" stop-color="#97993d"/>
    </linearGradient>
    <linearGradient gradientTransform="matrix(0.0, 0.0035, -0.0129, 0.0, -0.35, -40.5)" gradientUnits="userSpaceOnUse" id="gradient2" spreadMethod="pad" x1="-819.2" x2="819.2">
      <stop offset="0.0" stop-color="#663300"/>
      <stop offset="0.9921568627450981" stop-color="#6d6d01"/>
    </linearGradient>
    <linearGradient gradientTransform="matrix(0.0, 0.0087, -0.0078, 0.0, -0.4, -28.25)" gradientUnits="userSpaceOnUse" id="gradient3" spreadMethod="pad" x1="-819.2" x2="819.2">
      <stop offset="0.0" stop-color="#fdfd13"/>
      <stop offset="1.0" stop-color="#baba01"/>
    </linearGradient>
    <linearGradient gradientTransform="matrix(0.0, 0.0068, -0.0132, 0.0, -0.65, -15.9)" gradientUnits="userSpaceOnUse" id="gradient4" spreadMethod="pad" x1="-819.2" x2="819.2">
      <stop offset="0.0" stop-color="#b0b062"/>
      <stop offset="1.0" stop-color="#74732e"/>
    </linearGradient>
    <linearGradient gradientTransform="matrix(0.0, -0.0102, 0.0166, 0.0, -0.8, -12.05)" gradientUnits="userSpaceOnUse" id="gradient5" spreadMethod="pad" x1="-819.2" x2="819.2">
      <stop offset="0.00784313725490196" stop-color="#b0b060"/>
      <stop offset="1.0" stop-color="#74732e"/>
    </linearGradient>
    <linearGradient gradientTransform="matrix(0.0, 0.0117, -0.0341, 0.0, 0.05, -45.65)" gradientUnits="userSpaceOnUse" id="gradient6" spreadMethod="pad" x1="-819.2" x2="819.2">
      <stop offset="0.0" stop-color="#c9cc51"/>
      <stop offset="1.0" stop-color="#97993d"/>
    </linearGradient>
    <linearGradient gradientTransform="matrix(0.0, 0.0117, -0.0341, 0.0, 0.05, -45.65)" gradientUnits="userSpaceOnUse" id="gradient7" spreadMethod="pad" x1="-819.2" x2="819.2">
      <stop offset="0.0" stop-color="#fdfd13"/>
      <stop offset="1.0" stop-color="#baba01"/>
    </linearGradient>
  </defs>
</svg>
