<?xml version="1.0" encoding="UTF-8" standalone="no"?>
<svg xmlns:ffdec="https://www.free-decompiler.com/flash" xmlns:xlink="http://www.w3.org/1999/xlink" ffdec:objectType="shape" height="43.4px" width="15.0px" xmlns="http://www.w3.org/2000/svg">
  <g transform="matrix(1.0, 0.0, 0.0, 1.0, 7.5, 22.75)">
    <path d="M6.3 -19.95 L7.15 -19.0 Q7.5 -18.45 7.5 -17.75 L7.5 -13.65 Q7.45 -12.4 6.1 -11.4 L5.3 -10.95 Q3.2 -9.8 0.2 -9.75 L-0.15 -9.75 Q-3.15 -9.8 -5.3 -10.95 L-6.05 -11.4 Q-7.45 -12.4 -7.5 -13.65 L-7.5 -17.75 Q-7.5 -18.65 -6.9 -19.35 L-6.6 -19.7 -6.25 -19.95 Q-5.95 -21.0 -4.5 -21.75 -2.65 -22.75 0.0 -22.75 2.65 -22.75 4.5 -21.75 5.95 -21.0 6.3 -19.95 M5.3 8.4 Q6.05 8.85 6.55 9.45 L6.65 9.55 6.8 9.75 7.4 11.0 7.45 11.1 7.5 11.55 7.5 11.8 7.5 15.65 Q7.5 17.75 5.3 19.2 3.1 20.65 0.0 20.65 -3.1 20.65 -5.3 19.2 -7.5 17.75 -7.5 15.65 L-7.5 11.8 -7.45 11.55 -7.4 11.1 -7.35 11.0 Q-7.2 10.3 -6.75 9.75 L-6.6 9.55 -6.55 9.45 Q-6.05 8.85 -5.3 8.4 -3.05 6.9 0.0 6.9 3.1 6.9 5.3 8.4" fill="#ffffff" fill-opacity="0.101960786" fill-rule="evenodd" stroke="none"/>
  </g>
</svg>
