<?xml version="1.0" encoding="UTF-8" standalone="no"?>
<svg xmlns:ffdec="https://www.free-decompiler.com/flash" xmlns:xlink="http://www.w3.org/1999/xlink" ffdec:objectType="shape" height="54.0px" width="62.75px" xmlns="http://www.w3.org/2000/svg">
  <g transform="matrix(1.0, 0.0, 0.0, 1.0, 31.4, 27.75)">
    <path d="M24.55 -15.05 Q27.15 -10.5 27.35 -6.3 27.45 -3.0 26.0 -1.35 25.75 0.05 25.2 1.1 24.5 2.25 23.4 2.95 L16.3 7.05 Q14.0 8.2 10.95 6.8 L1.75 12.1 1.65 12.55 Q0.85 15.9 -1.75 17.45 L-8.45 21.3 Q-12.05 23.35 -16.75 21.0 -18.3 20.25 -19.65 19.2 -22.5 16.95 -24.6 13.3 -26.75 9.6 -27.25 5.9 L-27.35 2.65 Q-27.05 -2.6 -23.45 -4.7 L-16.75 -8.55 Q-14.1 -10.0 -10.8 -9.05 L-10.4 -8.9 -1.2 -14.25 Q-0.9 -17.6 1.3 -18.95 L8.4 -23.05 Q9.85 -23.95 11.7 -23.65 L12.6 -23.4 13.4 -23.15 Q15.5 -23.65 18.35 -21.85 21.9 -19.65 24.55 -15.05 Z" fill="none" stroke="#000000" stroke-linecap="round" stroke-linejoin="round" stroke-opacity="0.2" stroke-width="8.0"/>
    <path d="M14.1 5.0 L-2.8 14.75 Q-5.5 16.2 -9.1 14.3 -12.8 12.3 -15.35 7.95 -17.85 3.6 -17.7 -0.6 -17.55 -4.7 -14.95 -6.25 L1.95 -16.0 14.1 5.0" fill="url(#gradient0)" fill-rule="evenodd" stroke="none"/>
    <path d="M0.05 6.75 L-0.15 7.4 Q-1.2 11.35 -4.8 13.4 -6.5 14.4 -8.2 14.7 L-9.1 14.3 Q-12.8 12.3 -15.35 7.95 -17.85 3.6 -17.7 -0.6 L-17.55 -1.55 Q-16.5 -2.9 -14.8 -3.9 -11.2 -5.95 -7.25 -4.9 L-6.6 -4.75 Q-7.4 -1.1 -5.5 2.25 -3.55 5.6 0.05 6.75" fill="url(#gradient1)" fill-rule="evenodd" stroke="none"/>
    <path d="M-6.6 -4.75 L-6.5 -5.35 Q-5.4 -9.3 -1.8 -11.4 1.8 -13.45 5.75 -12.4 9.75 -11.4 11.85 -7.75 13.95 -4.15 12.85 -0.1 11.8 3.85 8.2 5.9 4.6 8.0 0.6 6.95 L0.05 6.75 Q-3.55 5.6 -5.5 2.25 -7.4 -1.1 -6.6 -4.75" fill="url(#gradient2)" fill-rule="evenodd" stroke="none"/>
  </g>
  <defs>
    <linearGradient gradientTransform="matrix(0.0074, 0.0128, -0.0143, 0.0082, -3.6, 1.2)" gradientUnits="userSpaceOnUse" id="gradient0" spreadMethod="pad" x1="-819.2" x2="819.2">
      <stop offset="0.0" stop-color="#0000cc"/>
      <stop offset="0.41568627450980394" stop-color="#0066ff"/>
      <stop offset="0.596078431372549" stop-color="#0066ff"/>
      <stop offset="1.0" stop-color="#0000cc"/>
    </linearGradient>
    <radialGradient cx="0" cy="0" gradientTransform="matrix(0.0066, 0.0115, -0.0115, 0.0066, -9.8, 4.75)" gradientUnits="userSpaceOnUse" id="gradient1" r="819.2" spreadMethod="pad">
      <stop offset="0.2235294117647059" stop-color="#79caff"/>
      <stop offset="0.34901960784313724" stop-color="#0099ff"/>
      <stop offset="0.9568627450980393" stop-color="#0066ff" stop-opacity="0.0"/>
    </radialGradient>
    <radialGradient cx="0" cy="0" gradientTransform="matrix(0.0066, 0.0115, -0.0115, 0.0066, 3.2, -2.75)" gradientUnits="userSpaceOnUse" id="gradient2" r="819.2" spreadMethod="pad">
      <stop offset="0.2235294117647059" stop-color="#79caff"/>
      <stop offset="0.34901960784313724" stop-color="#0099ff"/>
      <stop offset="0.9568627450980393" stop-color="#0066ff" stop-opacity="0.0"/>
    </radialGradient>
  </defs>
</svg>
