<?xml version="1.0" encoding="UTF-8" standalone="no"?>
<svg xmlns:ffdec="https://www.free-decompiler.com/flash" xmlns:xlink="http://www.w3.org/1999/xlink" ffdec:objectType="shape" height="13.9px" width="10.35px" xmlns="http://www.w3.org/2000/svg">
  <g transform="matrix(1.0, 0.0, 0.0, 1.0, -13.45, 18.6)">
    <path d="M13.85 -17.3 Q15.0 -17.35 16.25 -16.55 18.45 -15.2 20.0 -12.45 21.6 -9.7 21.65 -7.15 21.75 -5.65 21.15 -4.7 L20.15 -4.85 Q19.6 -5.05 18.85 -5.5 16.7 -6.85 15.1 -9.6 13.55 -12.35 13.45 -14.9 L13.5 -16.35 13.85 -17.3" fill="url(#gradient0)" fill-rule="evenodd" stroke="none"/>
    <path d="M21.15 -4.7 Q21.75 -5.65 21.65 -7.15 21.6 -9.7 20.0 -12.45 18.45 -15.2 16.25 -16.55 15.0 -17.35 13.85 -17.3 14.2 -17.95 14.7 -18.25 L14.8 -18.3 15.5 -18.55 Q16.8 -18.85 18.4 -17.8 20.6 -16.45 22.15 -13.7 23.75 -10.95 23.8 -8.4 23.95 -6.45 23.05 -5.45 L22.45 -5.0 22.35 -4.95 Q21.85 -4.65 21.15 -4.7" fill="#000000" fill-rule="evenodd" stroke="none"/>
  </g>
  <defs>
    <radialGradient cx="0" cy="0" gradientTransform="matrix(-0.0041, 0.0023, -0.0045, -0.0079, 16.5, -10.45)" gradientUnits="userSpaceOnUse" id="gradient0" r="819.2" spreadMethod="pad">
      <stop offset="0.1450980392156863" stop-color="#0099ff"/>
      <stop offset="0.3137254901960784" stop-color="#0066ff"/>
      <stop offset="1.0" stop-color="#0000cc"/>
    </radialGradient>
  </defs>
</svg>
