<?xml version="1.0" encoding="UTF-8" standalone="no"?>
<svg xmlns:ffdec="https://www.free-decompiler.com/flash" xmlns:xlink="http://www.w3.org/1999/xlink" ffdec:objectType="shape" height="56.3px" width="287.4px" xmlns="http://www.w3.org/2000/svg">
  <g transform="matrix(1.0, 0.0, 0.0, 1.0, 153.95, 28.15)">
    <path d="M122.8 -5.1 L122.8 5.15 94.85 17.5 67.8 5.55 67.8 -5.5 94.85 -17.5 122.8 -5.1 Z" fill="none" stroke="#00c3ff" stroke-linecap="square" stroke-linejoin="miter-clip" stroke-miterlimit="3.0" stroke-opacity="0.5019608" stroke-width="16.0"/>
    <path d="M94.85 -17.5 L122.8 -5.1 122.8 5.15 94.85 17.5 94.85 -17.5" fill="#33ccff" fill-rule="evenodd" stroke="none"/>
    <path d="M94.85 17.5 L67.8 5.55 67.8 -5.5 94.85 -17.5 94.85 17.5" fill="#0099cc" fill-rule="evenodd" stroke="none"/>
    <path d="M94.85 -17.5 L122.8 -5.1 122.8 5.15 94.85 17.5 67.8 5.55 67.8 -5.5 94.85 -17.5 94.85 17.5" fill="none" stroke="#81e6fe" stroke-linecap="round" stroke-linejoin="miter-clip" stroke-miterlimit="3.0" stroke-width="6.0"/>
    <path d="M57.0 -17.5 L63.0 -17.5 63.0 -5.5 63.0 5.55 63.0 17.5 57.0 17.5 45.05 5.55 -149.95 5.55 -149.95 -5.5 45.0 -5.5 57.0 -17.5 M45.0 -5.5 L63.0 -5.5 45.0 -5.5 M63.0 5.55 L45.05 5.55 63.0 5.55" fill="#663300" fill-rule="evenodd" stroke="none"/>
    <path d="M57.0 -17.5 L63.0 -17.5 63.0 -5.5" fill="none" stroke="#000000" stroke-linecap="square" stroke-linejoin="miter-clip" stroke-miterlimit="3.0" stroke-width="6.0"/>
    <path d="M63.0 -5.5 L63.0 5.55 63.0 17.5 57.0 17.5 45.05 5.55 -149.95 5.55 -149.95 -5.5 45.0 -5.5 63.0 -5.5 M45.05 5.55 L63.0 5.55" fill="none" stroke="#000000" stroke-linecap="round" stroke-linejoin="miter-clip" stroke-miterlimit="3.0" stroke-width="6.0"/>
    <path d="M45.0 -5.5 L57.0 -17.5" fill="none" stroke="#000000" stroke-linecap="round" stroke-linejoin="miter-clip" stroke-miterlimit="3.0" stroke-width="6.0"/>
  </g>
</svg>
