<?xml version="1.0" encoding="UTF-8" standalone="no"?>
<svg xmlns:ffdec="https://www.free-decompiler.com/flash" xmlns:xlink="http://www.w3.org/1999/xlink" ffdec:objectType="shape" height="37.3px" width="45.6px" xmlns="http://www.w3.org/2000/svg">
  <g transform="matrix(1.0, 0.0, 0.0, 1.0, 30.6, 14.6)">
    <path d="M-14.8 20.05 L-27.95 20.05 -27.95 -11.95 -14.8 -11.95 -14.8 20.05 -14.8 -11.95 -1.7 -11.95 12.35 -11.95 12.35 20.05 -1.7 20.05 -14.8 20.05 M-1.7 20.05 L-1.7 -11.95 -1.7 20.05" fill="#000000" fill-rule="evenodd" stroke="none"/>
    <path d="M-14.8 -11.95 L-27.95 -11.95 -27.95 20.05 -14.8 20.05 -14.8 -11.95 -1.7 -11.95 12.35 -11.95 12.35 20.05 -1.7 20.05 -14.8 20.05 M-1.7 -11.95 L-1.7 20.05" fill="none" stroke="#808899" stroke-linecap="round" stroke-linejoin="miter-clip" stroke-miterlimit="3.0" stroke-width="4.0"/>
  </g>
</svg>
