<?xml version="1.0" encoding="UTF-8" standalone="no"?>
<svg xmlns:ffdec="https://www.free-decompiler.com/flash" xmlns:xlink="http://www.w3.org/1999/xlink" ffdec:objectType="shape" height="116.0px" width="118.15px" xmlns="http://www.w3.org/2000/svg">
  <g transform="matrix(1.0, 0.0, 0.0, 1.0, 59.1, 48.1)">
    <path d="M-32.1 -20.4 L-0.25 -20.4 32.05 -20.4 32.05 2.45 14.25 2.45 -0.25 17.8 -14.75 2.45 -32.1 2.45 -32.1 -20.4" fill="#687182" fill-rule="evenodd" stroke="none"/>
    <path d="M-32.1 -35.35 L-15.2 -35.35 -0.25 -20.4 14.7 -35.35 32.05 -35.35 32.05 -20.4 54.9 -20.4 43.7 -8.75 32.05 2.45 32.05 -20.4 -0.25 -20.4 -32.1 -20.4 -32.1 -35.35 M-43.75 -8.75 L-54.95 -20.4 -32.1 -20.4 -32.1 2.45 -43.75 -8.75" fill="#949ca7" fill-rule="evenodd" stroke="none"/>
    <path d="M32.05 -35.35 L40.35 -35.35 54.9 -20.4 32.05 -20.4 32.05 -35.35 M-54.95 -20.4 L-40.4 -35.35 -32.1 -35.35 -32.1 -20.4 -54.95 -20.4" fill="#afb7be" fill-rule="evenodd" stroke="none"/>
    <path d="M-32.1 -35.35 L-19.35 -48.1 19.3 -48.1 32.05 -35.35 14.7 -35.35 -0.25 -20.4 -15.2 -35.35 -32.1 -35.35 M14.25 63.9 L-14.75 63.9 -14.75 44.25 -5.45 53.55 4.95 53.55 14.25 44.25 14.25 63.9" fill="#22262b" fill-rule="evenodd" stroke="none"/>
    <path d="M40.55 22.0 L44.85 22.0 44.85 36.5 40.15 36.5 14.25 36.5 -0.25 36.5 -14.75 36.5 -40.2 36.5 -44.9 36.5 -44.9 22.0 -40.6 22.0 -14.75 22.0 -0.25 36.5 14.25 22.0 40.55 22.0" fill="#d3b434" fill-rule="evenodd" stroke="none"/>
    <path d="M14.25 2.45 L14.25 12.75 14.25 22.0 -0.25 36.5 -14.75 22.0 -14.75 12.75 -14.75 2.45 -0.25 17.8 14.25 2.45" fill="#a88d24" fill-rule="evenodd" stroke="none"/>
    <path d="M14.25 36.5 L14.25 44.25 4.95 53.55 -5.45 53.55 -14.75 44.25 -14.75 36.5 -0.25 36.5 14.25 36.5" fill="#8b751f" fill-rule="evenodd" stroke="none"/>
    <path d="M39.2 12.75 L40.55 22.0 14.25 22.0 14.25 12.75 39.2 12.75 M-40.6 22.0 L-39.25 12.75 -14.75 12.75 -14.75 22.0 -40.6 22.0" fill="#7e2601" fill-rule="evenodd" stroke="none"/>
    <path d="M43.7 -8.75 L39.2 12.75 14.25 12.75 14.25 2.45 32.05 2.45 43.7 -8.75 M-39.25 12.75 L-43.75 -8.75 -32.1 2.45 -14.75 2.45 -14.75 12.75 -39.25 12.75" fill="#5c1c01" fill-rule="evenodd" stroke="none"/>
    <path d="M40.15 36.5 L40.15 49.8 26.05 63.9 14.25 63.9 14.25 44.25 14.25 36.5 40.15 36.5 M-14.75 63.9 L-26.1 63.9 -40.2 49.8 -40.2 36.5 -14.75 36.5 -14.75 44.25 -14.75 63.9" fill="#000000" fill-rule="evenodd" stroke="none"/>
    <path d="M14.25 36.5 L14.25 44.25 4.95 53.55 -5.45 53.55 -14.75 44.25 -14.75 36.5 -40.2 36.5 M32.05 2.45 L14.25 2.45 14.25 12.75 14.25 22.0 40.55 22.0 M40.15 36.5 L14.25 36.5 -0.25 36.5 -14.75 36.5 M43.7 -8.75 L32.05 2.45 M-14.75 2.45 L-0.25 17.8 14.25 2.45 M-14.75 2.45 L-14.75 12.75 -14.75 22.0 -0.25 36.5 14.25 22.0 M-32.1 2.45 L-14.75 2.45 M-14.75 22.0 L-40.6 22.0 M-32.1 2.45 L-43.75 -8.75" fill="none" stroke="#000000" stroke-linecap="square" stroke-linejoin="miter-clip" stroke-miterlimit="10.0" stroke-width="4.0"/>
    <path d="M-32.1 -35.35 L-15.2 -35.35 -0.25 -20.4 14.7 -35.35 32.05 -35.35 40.35 -35.35 54.9 -20.4 43.7 -8.75 39.2 12.75 40.55 22.0 44.85 22.0 44.85 36.5 40.15 36.5 40.15 49.8 26.05 63.9 14.25 63.9 -14.75 63.9 -26.1 63.9 -40.2 49.8 -40.2 36.5 -44.9 36.5 -44.9 22.0 -40.6 22.0 -39.25 12.75 -43.75 -8.75 -54.95 -20.4 -40.4 -35.35 -32.1 -35.35 Z" fill="none" stroke="#000000" stroke-linecap="square" stroke-linejoin="miter-clip" stroke-miterlimit="3.0" stroke-width="6.0"/>
  </g>
</svg>
