<?xml version="1.0" encoding="UTF-8" standalone="no"?>
<svg xmlns:ffdec="https://www.free-decompiler.com/flash" xmlns:xlink="http://www.w3.org/1999/xlink" ffdec:objectType="shape" height="171.2px" width="146.4px" xmlns="http://www.w3.org/2000/svg">
  <g transform="matrix(1.0, 0.0, 0.0, 1.0, 79.4, 107.25)">
    <path d="M44.5 -72.45 L49.65 -62.55 54.9 -52.45 55.05 -51.05 58.8 -17.65 60.2 -5.1 61.6 7.45 63.0 19.95 45.5 32.05 45.55 18.55 45.55 5.0 45.6 -8.5 45.7 -44.55 45.7 -51.3 43.15 -58.05 39.15 -68.75 34.9 -80.05 40.5 -80.05 44.5 -72.45 39.15 -68.75 44.5 -72.45 M45.55 5.0 L60.2 -5.1 45.55 5.0 M45.55 18.55 L61.6 7.45 45.55 18.55 M45.7 -44.55 L55.05 -51.05 45.7 -44.55 M45.6 -8.5 L58.8 -17.65 45.6 -8.5 M43.15 -58.05 L49.65 -62.55 43.15 -58.05" fill="#a88d24" fill-rule="evenodd" stroke="none"/>
    <path d="M44.5 -72.45 L39.15 -68.75 M49.65 -62.55 L43.15 -58.05 M58.8 -17.65 L45.6 -8.5 M55.05 -51.05 L45.7 -44.55 M61.6 7.45 L45.55 18.55 M60.2 -5.1 L45.55 5.0" fill="none" stroke="#705e18" stroke-linecap="square" stroke-linejoin="miter-clip" stroke-miterlimit="3.0" stroke-width="4.0"/>
    <path d="M-28.25 59.95 L-46.2 59.95 -38.2 -80.05 -27.7 -80.05 -30.85 -50.05 -25.15 -40.05 -17.35 -50.05 -14.2 -80.05 -0.25 -80.05 -28.25 59.95 M-58.0 -48.5 L-58.0 -48.4 -58.1 -48.4 -58.0 -48.5" fill="#687182" fill-rule="evenodd" stroke="none"/>
    <path d="M-58.2 -48.25 L-58.2 -48.4 -58.2 -50.05 -58.2 -100.05 -38.2 -80.05 -58.2 -50.05 -58.0 -48.5 -58.1 -48.4 -58.2 -48.4 -58.1 -48.4 -58.2 -48.25 M-0.25 -80.05 L27.4 -100.05 27.4 -51.0 -0.25 -80.05" fill="#993300" fill-rule="evenodd" stroke="none"/>
    <path d="M-67.2 -0.05 L-63.75 -18.6 -58.45 -46.75 -58.2 -48.25 -58.1 -48.4 -58.0 -48.4 -52.75 -0.05 -67.2 -0.05 M27.15 -47.75 L20.9 -0.05 2.6 -0.05 27.15 -47.75" fill="#ff6600" fill-rule="evenodd" stroke="none"/>
    <path d="M45.5 32.05 L45.5 32.25 45.4 32.15 45.3 32.25 -14.0 32.25 -2.55 9.95 20.9 9.95 45.4 32.15 45.5 32.05 M-50.85 17.2 L-67.2 9.95 -51.65 9.95 -50.85 17.2" fill="#000000" fill-rule="evenodd" stroke="none"/>
    <path d="M45.5 32.25 L45.3 32.25 45.4 32.15 45.5 32.25 M-14.0 32.25 L-28.25 59.95 -0.25 -80.05 27.4 -51.0 28.3 -50.05 27.4 -48.3 27.4 -48.25 27.15 -47.75 2.6 -0.05 20.9 -0.05 20.9 9.95 -2.55 9.95 -14.0 32.25 M-46.2 59.95 L-50.85 17.2 -51.65 9.95 -52.75 -0.05 -51.65 9.95 -67.2 9.95 -67.2 -0.05 -52.75 -0.05 -58.0 -48.4 -58.0 -48.5 -58.2 -50.05 -38.2 -80.05 -46.2 59.95 M27.4 -48.25 L27.4 -48.3 27.4 -48.25 M-2.55 9.95 L2.6 -0.05 -2.55 9.95" fill="#454b56" fill-rule="evenodd" stroke="none"/>
    <path d="M34.9 -80.05 L45.7 -51.3 45.7 -41.65 38.95 -48.4 37.3 -48.4 37.3 -10.05 45.65 -18.35 45.5 32.05 45.4 32.15 20.9 9.95 20.9 -0.05 27.15 -47.75 27.4 -48.25 27.4 -48.3 28.3 -50.05 27.4 -51.0 27.4 -100.05 34.9 -80.05" fill="#606875" fill-rule="evenodd" stroke="none"/>
    <path d="M45.7 -41.65 L57.3 -30.05 45.65 -18.35 37.3 -10.05 37.3 -48.4 38.95 -48.4 45.7 -41.65 M-63.75 -18.6 L-75.2 -30.05 -58.45 -46.75 -63.75 -18.6 M-27.7 -80.05 L-14.2 -80.05 -17.35 -50.05 -30.85 -50.05 -27.7 -80.05" fill="#dece5f" fill-rule="evenodd" stroke="none"/>
    <path d="M-30.85 -50.05 L-17.35 -50.05 -25.15 -40.05 -30.85 -50.05" fill="#cc6633" fill-rule="evenodd" stroke="none"/>
    <path d="M34.9 -80.05 L45.7 -51.3 45.7 -41.65 57.3 -30.05 45.65 -18.35 45.5 32.05 45.4 32.15 45.3 32.25 M27.4 -51.0 L28.3 -50.05 27.4 -48.3 27.4 -48.25 27.15 -47.75 20.9 -0.05 20.9 9.95 45.4 32.15 45.5 32.25 M45.7 -41.65 L38.95 -48.4 37.3 -48.4 37.3 -10.05 45.65 -18.35 M27.15 -47.75 L2.6 -0.05 20.9 -0.05 M27.4 -51.0 L27.4 -100.05 M-27.7 -80.05 L-30.85 -50.05 -17.35 -50.05 -14.2 -80.05 M-58.0 -48.4 L-58.0 -48.5 -58.2 -50.05 -38.2 -80.05 -46.2 59.95 M-58.1 -48.4 L-58.0 -48.4 -52.75 -0.05 -51.65 9.95 -50.85 17.2 M-58.2 -48.4 L-58.1 -48.4 -58.2 -48.25 M-67.2 -0.05 L-52.75 -0.05 M-58.45 -46.75 L-63.75 -18.6 M-30.85 -50.05 L-25.15 -40.05 -17.35 -50.05 M20.9 9.95 L-2.55 9.95 -14.0 32.25 M-67.2 9.95 L-51.65 9.95 M-28.25 59.95 L-0.25 -80.05 27.4 -51.0 M2.6 -0.05 L-2.55 9.95" fill="none" stroke="#000000" stroke-linecap="square" stroke-linejoin="miter-clip" stroke-miterlimit="3.0" stroke-width="4.0"/>
    <path d="M45.5 32.05 L63.0 19.95 54.9 -52.45 40.5 -80.05 34.9 -80.05 27.4 -100.05 -0.25 -80.05 -14.2 -80.05 -27.7 -80.05 -38.2 -80.05 -58.2 -100.05 -58.2 -50.05 -58.2 -48.4 -58.2 -48.25 -58.45 -46.75 -75.2 -30.05 -63.75 -18.6 -67.2 -0.05 -67.2 9.95 -50.85 17.2 -46.2 59.95 -28.25 59.95 -14.0 32.25 45.3 32.25 45.5 32.25 45.5 32.05 Z" fill="none" stroke="#000000" stroke-linecap="square" stroke-linejoin="miter-clip" stroke-miterlimit="3.0" stroke-width="6.0"/>
  </g>
</svg>
