<?xml version="1.0" encoding="UTF-8" standalone="no"?>
<svg xmlns:ffdec="https://www.free-decompiler.com/flash" xmlns:xlink="http://www.w3.org/1999/xlink" ffdec:objectType="shape" height="100.0px" width="29.7px" xmlns="http://www.w3.org/2000/svg">
  <g transform="matrix(1.0, 0.0, 0.0, 1.0, 13.15, 93.35)">
    <path d="M9.7 -36.8 L11.75 -29.65 Q19.7 -1.95 -1.7 4.55 -13.8 -18.35 -4.5 -41.9 L-6.0 -46.0 -4.25 -49.85 Q-3.8 -50.2 -3.35 -50.2 7.75 -50.1 9.7 -36.8" fill="#ffec00" fill-rule="evenodd" stroke="none"/>
    <path d="M6.9 -93.35 L8.75 -88.0 Q5.8 -79.05 7.85 -69.85 12.55 -48.95 16.0 -27.8 19.0 -9.15 6.0 2.4 -6.75 13.65 -10.05 -4.75 -13.65 -24.7 -13.1 -45.25 -12.3 -77.45 6.9 -93.35 M9.7 -36.8 Q7.75 -50.1 -3.35 -50.2 -3.8 -50.2 -4.25 -49.85 L-6.0 -46.0 -4.5 -41.9 Q-13.8 -18.35 -1.7 4.55 19.7 -1.95 11.75 -29.65 L9.7 -36.8" fill="#ff9900" fill-opacity="0.8" fill-rule="evenodd" stroke="none"/>
  </g>
</svg>
