<?xml version="1.0" encoding="UTF-8" standalone="no"?>
<svg xmlns:ffdec="https://www.free-decompiler.com/flash" xmlns:xlink="http://www.w3.org/1999/xlink" ffdec:objectType="shape" height="123.1px" width="49.25px" xmlns="http://www.w3.org/2000/svg">
  <g transform="matrix(1.0, 0.0, 0.0, 1.0, 19.4, 113.25)">
    <path d="M11.1 -107.85 Q14.15 -106.95 15.8 -100.75 L17.0 -93.25 Q17.25 -91.3 16.75 -89.55 16.4 -88.25 15.65 -87.4 14.4 -86.0 12.0 -86.0 7.35 -86.0 5.0 -102.6 5.0 -104.5 6.05 -106.0 7.4 -108.0 10.0 -108.0 L11.1 -107.85 M1.75 8.6 L-0.95 6.8 Q-6.8 -3.3 -8.2 -15.1 -11.3 -40.8 6.0 -53.0 L11.9 -48.75 Q12.7 -33.05 14.7 -17.9 17.75 5.05 1.75 8.6" fill="#ffec00" fill-rule="evenodd" stroke="none"/>
    <path d="M11.1 -107.85 L10.0 -108.0 Q7.4 -108.0 6.05 -106.0 5.0 -104.5 5.0 -102.6 7.35 -86.0 12.0 -86.0 14.4 -86.0 15.65 -87.4 18.65 -70.6 24.85 -54.25 32.05 -35.2 28.9 -15.25 24.0 15.5 1.75 8.6 17.75 5.05 14.7 -17.9 12.7 -33.05 11.9 -48.75 L6.0 -53.0 Q-11.3 -40.8 -8.2 -15.1 -6.8 -3.3 -0.95 6.8 -17.8 -8.2 -12.45 -30.35 L-14.5 -31.5 Q-23.3 -50.75 -16.3 -70.6 L-11.6 -69.65 -11.3 -64.85 -4.8 -62.25 Q2.85 -86.4 -10.85 -106.85 -10.15 -108.4 -8.95 -109.1 5.4 -117.95 11.1 -107.85" fill="#ff9900" fill-opacity="0.8" fill-rule="evenodd" stroke="none"/>
  </g>
</svg>
