<?xml version="1.0" encoding="UTF-8" standalone="no"?>
<svg xmlns:ffdec="https://www.free-decompiler.com/flash" xmlns:xlink="http://www.w3.org/1999/xlink" ffdec:objectType="shape" height="126.95px" width="62.6px" xmlns="http://www.w3.org/2000/svg">
  <g transform="matrix(1.0, 0.0, 0.0, 1.0, 26.55, 114.65)">
    <path d="M-11.0 8.5 Q-23.7 -13.4 -7.65 -32.1 5.25 -47.05 19.85 -45.45 L13.0 -31.3 Q24.1 -9.9 8.35 5.95 4.85 9.4 1.0 12.3 L-11.0 8.5 M-12.9 -89.75 L-11.1 -92.85 Q-5.0 -94.65 -1.8 -89.05 7.15 -73.6 2.0 -56.35 -1.7 -44.0 -14.05 -42.4 L-12.9 -89.75" fill="#ffec00" fill-rule="evenodd" stroke="none"/>
    <path d="M-11.0 8.5 Q-16.9 4.95 -20.0 -1.25 -27.4 -16.1 -26.45 -32.6 L-21.7 -114.65 -17.5 -111.45 Q12.65 -92.7 9.75 -58.95 L36.05 -55.8 Q31.85 -36.35 27.0 -17.1 21.3 5.75 1.0 12.3 4.85 9.4 8.35 5.95 24.1 -9.9 13.0 -31.3 L19.85 -45.45 Q5.25 -47.05 -7.65 -32.1 -23.7 -13.4 -11.0 8.5 M-12.9 -89.75 L-14.05 -42.4 Q-1.7 -44.0 2.0 -56.35 7.15 -73.6 -1.8 -89.05 -5.0 -94.65 -11.1 -92.85 L-12.9 -89.75" fill="#ff9900" fill-opacity="0.8" fill-rule="evenodd" stroke="none"/>
  </g>
</svg>
