<?xml version="1.0" encoding="UTF-8" standalone="no"?>
<svg xmlns:ffdec="https://www.free-decompiler.com/flash" xmlns:xlink="http://www.w3.org/1999/xlink" ffdec:objectType="shape" height="138.0px" width="68.7px" xmlns="http://www.w3.org/2000/svg">
  <g transform="matrix(1.0, 0.0, 0.0, 1.0, 28.0, 125.75)">
    <path d="M-17.75 -104.1 L-12.95 -104.5 -2.0 -85.0 -7.0 -79.0 -20.0 -100.1 -17.75 -104.1 M18.0 -41.8 Q18.65 -19.6 8.25 -1.2 0.25 13.0 -10.05 -2.8 -21.75 -20.8 -5.65 -38.25 4.5 -49.15 18.0 -41.8" fill="#ffec00" fill-rule="evenodd" stroke="none"/>
    <path d="M33.8 -44.8 Q34.8 -22.2 25.15 -1.85 14.6 20.45 -5.0 7.45 -28.25 -8.05 -19.05 -35.45 -31.65 -64.35 -26.55 -97.75 -24.15 -113.6 -14.0 -122.75 -5.7 -112.15 -4.05 -99.15 -1.25 -76.85 15.7 -63.0 L40.65 -61.1 Q40.95 -58.55 39.05 -56.7 33.5 -51.2 33.8 -44.8 M3.0 -125.75 Q8.0 -125.75 8.75 -109.85 8.75 -108.35 7.55 -107.25 6.4 -106.25 5.0 -106.25 0.0 -106.25 -0.75 -121.75 -0.75 -125.75 3.0 -125.75 M18.0 -41.8 Q4.5 -49.15 -5.65 -38.25 -21.75 -20.8 -10.05 -2.8 0.25 13.0 8.25 -1.2 18.65 -19.6 18.0 -41.8 M-17.75 -104.1 L-20.0 -100.1 -7.0 -79.0 -2.0 -85.0 -12.95 -104.5 -17.75 -104.1" fill="#ff9900" fill-opacity="0.8" fill-rule="evenodd" stroke="none"/>
  </g>
</svg>
