<?xml version="1.0" encoding="UTF-8" standalone="no"?>
<svg
   ffdec:objectType="frame"
   height="188.55px"
   width="60.1px"
   version="1.1"
   id="svg37"
   sodipodi:docname="tikitorch.svg"
   inkscape:version="1.1.2 (0a00cf5339, 2022-02-04)"
   xmlns:inkscape="http://www.inkscape.org/namespaces/inkscape"
   xmlns:sodipodi="http://sodipodi.sourceforge.net/DTD/sodipodi-0.dtd"
   xmlns:xlink="http://www.w3.org/1999/xlink"
   xmlns="http://www.w3.org/2000/svg"
   xmlns:svg="http://www.w3.org/2000/svg"
   xmlns:ffdec="https://www.free-decompiler.com/flash">
  <sodipodi:namedview
     id="namedview39"
     pagecolor="#ffffff"
     bordercolor="#666666"
     borderopacity="1.0"
     inkscape:pageshadow="2"
     inkscape:pageopacity="0.0"
     inkscape:pagecheckerboard="0"
     showgrid="false"
     inkscape:zoom="3.2882524"
     inkscape:cx="27.978388"
     inkscape:cy="21.43996"
     inkscape:window-width="1440"
     inkscape:window-height="842"
     inkscape:window-x="0"
     inkscape:window-y="0"
     inkscape:window-maximized="1"
     inkscape:current-layer="svg37" />
  <g
     transform="matrix(1.0, 0.0, 0.0, 1.0, 30.05, 98.35)"
     id="g7">
    <use
       ffdec:characterId="2286"
       height="143.1"
       transform="matrix(-0.539, 0.0, 0.0, 0.539, 17.166, -98.3275)"
       width="71.25"
       xlink:href="#sprite0"
       id="use2" />
    <use
       ffdec:characterId="2288"
       height="121.0"
       transform="matrix(1.0, 0.0, 0.0, 1.0, -8.0, -31.0)"
       width="16.0"
       xlink:href="#shape1"
       id="use4" />
  </g>
  <defs
     id="defs35">
    <g
       id="sprite0"
       transform="matrix(1.0, 0.0, 0.0, 1.0, 30.55, 125.75)">
      <use
         ffdec:characterId="2275"
         height="100.0"
         transform="matrix(1.0, 0.0, 0.0, 1.0, -13.15, -93.35)"
         width="29.7"
         xlink:href="#shape0"
         id="use9" />
    </g>
    <g
       id="shape0"
       transform="matrix(1.0, 0.0, 0.0, 1.0, 13.15, 93.35)">
      <path
         d="M9.7 -36.8 L11.75 -29.65 Q19.7 -1.95 -1.7 4.55 -13.8 -18.35 -4.5 -41.9 L-6.0 -46.0 -4.25 -49.85 Q-3.8 -50.2 -3.35 -50.2 7.75 -50.1 9.7 -36.8"
         fill="#ffec00"
         fill-rule="evenodd"
         stroke="none"
         id="path12" />
      <path
         d="M6.9 -93.35 L8.75 -88.0 Q5.8 -79.05 7.85 -69.85 12.55 -48.95 16.0 -27.8 19.0 -9.15 6.0 2.4 -6.75 13.65 -10.05 -4.75 -13.65 -24.7 -13.1 -45.25 -12.3 -77.45 6.9 -93.35 M9.7 -36.8 Q7.75 -50.1 -3.35 -50.2 -3.8 -50.2 -4.25 -49.85 L-6.0 -46.0 -4.5 -41.9 Q-13.8 -18.35 -1.7 4.55 19.7 -1.95 11.75 -29.65 L9.7 -36.8"
         fill="#ff9900"
         fill-opacity="0.8"
         fill-rule="evenodd"
         stroke="none"
         id="path14" />
    </g>
    <g
       id="shape1"
       transform="matrix(1.0, 0.0, 0.0, 1.0, 8.0, 31.0)">
      <path
         d="M-3.75 -10.85 L-3.85 -11.05 Q-5.65 -15.45 -6.35 -20.2 -8.25 -24.6 -7.95 -29.6 L-7.55 -29.65 Q-7.2 -29.25 -6.2 -29.25 -4.9 -31.35 -1.35 -30.75 L1.9 -30.9 Q2.3 -30.6 3.9 -30.15 L7.1 -29.9 Q7.6 -29.3 7.95 -29.2 L7.95 -29.1 7.65 -29.1 Q6.35 -29.1 5.7 -26.85 5.3 -25.5 5.3 -24.35 5.3 -22.75 2.55 -19.1 2.25 -18.55 2.2 -16.65 2.1 -14.8 1.55 -13.9 0.5 -12.2 -2.35 -11.45 L-3.75 -10.85 M2.5 -8.9 L3.4 -8.05 3.9 -7.25 Q3.25 -7.0 2.5 -6.15 L0.9 -4.3 Q-1.25 -2.4 -3.6 -2.05 -4.1 -4.05 -4.95 -6.05 L-3.5 -8.15 -3.35 -8.15 Q-2.95 -8.15 -1.1 -9.15 -0.45 -9.15 0.3 -8.65 L2.5 -8.9 M2.6 84.95 L2.35 90.0 -2.35 90.0 -2.8 86.75 Q-1.3 86.6 -0.9 86.1 -0.35 85.4 -0.05 85.4 L2.6 84.95 M-3.55 84.25 L-5.2 81.8 -2.75 78.6 Q-2.25 41.4 -2.8 4.1 -2.85 1.9 -3.2 -0.25 L0.2 -0.8 Q-0.1 0.2 -0.2 2.05 L-0.2 6.35 Q-0.2 10.9 0.7 27.55 1.55 44.2 1.55 50.55 1.55 51.75 0.95 54.25 0.3 56.75 0.3 60.2 0.3 64.75 1.3 70.1 L0.8 75.2 1.75 78.55 2.25 79.75 Q1.7 80.0 1.65 80.75 1.65 82.2 0.95 82.65 L-2.4 83.8 -3.55 84.25 M-0.85 4.8 L-0.85 1.65 -1.45 1.15 Q-2.1 1.65 -2.1 3.15 -2.1 4.5 -1.45 5.15 L-0.85 4.8 M-0.45 -8.4 Q-1.7 -8.4 -2.7 -7.45 -3.45 -6.7 -3.45 -6.2 L-3.3 -5.5 Q-3.0 -4.9 -2.1 -4.9 -1.4 -4.9 -0.25 -5.9 0.8 -6.8 0.8 -7.2 0.6 -8.4 -0.45 -8.4 M-0.45 -26.45 Q-1.15 -29.1 -3.45 -29.1 -7.2 -29.1 -7.2 -27.5 L-6.2 -24.0 Q-5.05 -20.6 -4.2 -20.6 -3.8 -20.6 -0.45 -26.45 M0.4 79.2 L0.3 78.8 -0.6 78.65 Q-1.3 78.75 -2.6 79.85 -3.85 80.95 -3.85 81.35 -3.85 82.0 -3.2 82.15 -2.1 82.0 -0.8 80.9 0.4 79.85 0.4 79.2"
         fill="url(#gradient0)"
         fill-rule="evenodd"
         stroke="none"
         id="path17" />
      <path
         d="M-3.75 -10.85 L-2.35 -11.45 Q0.5 -12.2 1.55 -13.9 2.1 -14.8 2.2 -16.65 2.25 -18.55 2.55 -19.1 5.3 -22.75 5.3 -24.35 5.3 -25.5 5.7 -26.85 6.35 -29.1 7.65 -29.1 L7.95 -29.1 8.0 -27.95 Q8.2 -21.8 4.45 -16.8 L4.4 -14.95 Q4.25 -11.6 2.25 -9.15 L2.3 -9.1 2.5 -8.9 0.3 -8.65 Q-0.45 -9.15 -1.1 -9.15 -2.95 -8.15 -3.35 -8.15 L-3.5 -8.15 -2.85 -9.1 -3.75 -10.85 M3.9 -7.25 Q4.2 -6.5 4.05 -5.55 3.8 -3.75 2.2 -2.8 L2.65 79.15 2.95 79.55 3.2 79.9 Q4.0 81.05 3.95 82.35 3.85 83.8 2.6 84.45 L2.6 84.95 -0.05 85.4 Q-0.35 85.4 -0.9 86.1 -1.3 86.6 -2.8 86.75 L-3.05 85.0 -3.55 84.25 -2.4 83.8 0.95 82.65 Q1.65 82.2 1.65 80.75 1.7 80.0 2.25 79.75 L1.75 78.55 0.8 75.2 1.3 70.1 Q0.3 64.75 0.3 60.2 0.3 56.75 0.95 54.25 1.55 51.75 1.55 50.55 1.55 44.2 0.7 27.55 -0.2 10.9 -0.2 6.35 L-0.2 2.05 Q-0.1 0.2 0.2 -0.8 L-3.2 -0.25 -3.6 -2.05 Q-1.25 -2.4 0.9 -4.3 L2.5 -6.15 Q3.25 -7.0 3.9 -7.25"
         fill="#332d19"
         fill-rule="evenodd"
         stroke="none"
         id="path19" />
      <path
         d="M0.4 79.2 Q0.4 79.85 -0.8 80.9 -2.1 82.0 -3.2 82.15 -3.85 82.0 -3.85 81.35 -3.85 80.95 -2.6 79.85 -1.3 78.75 -0.6 78.65 L0.3 78.8 0.4 79.2 M-0.45 -26.45 Q-3.8 -20.6 -4.2 -20.6 -5.05 -20.6 -6.2 -24.0 L-7.2 -27.5 Q-7.2 -29.1 -3.45 -29.1 -1.15 -29.1 -0.45 -26.45 M-0.45 -8.4 Q0.6 -8.4 0.8 -7.2 0.8 -6.8 -0.25 -5.9 -1.4 -4.9 -2.1 -4.9 -3.0 -4.9 -3.3 -5.5 L-3.45 -6.2 Q-3.45 -6.7 -2.7 -7.45 -1.7 -8.4 -0.45 -8.4 M-0.85 4.8 L-1.45 5.15 Q-2.1 4.5 -2.1 3.15 -2.1 1.65 -1.45 1.15 L-0.85 1.65 -0.85 4.8"
         fill="#a78c50"
         fill-rule="evenodd"
         stroke="none"
         id="path21" />
    </g>
    <linearGradient
       gradientTransform="matrix(0.0086, 0.0, 0.0, 0.073, -0.9, 30.2)"
       gradientUnits="userSpaceOnUse"
       id="gradient0"
       spreadMethod="pad"
       x1="-819.2"
       x2="819.2">
      <stop
         offset="0.0"
         stop-color="#928247"
         id="stop24" />
      <stop
         offset="1.0"
         stop-color="#52471c"
         id="stop26" />
    </linearGradient>
    <g
       id="sprite1"
       transform="matrix(1.0, 0.0, 0.0, 1.0, 50.1, 50.1)">
      <use
         ffdec:characterId="11"
         height="100.2"
         transform="matrix(1.0, 0.0, 0.0, 1.0, -50.1, -50.1)"
         width="100.2"
         xlink:href="#shape2"
         id="use29" />
    </g>
    <g
       id="shape2"
       transform="matrix(1.0, 0.0, 0.0, 1.0, 50.1, 50.1)">
      <path
         d="M50.0 50.0 L-50.0 50.0 -50.0 -50.0 50.0 -50.0 50.0 50.0 Z"
         fill="none"
         stroke="#ff0000"
         stroke-linecap="square"
         stroke-linejoin="miter-clip"
         stroke-miterlimit="3.0"
         stroke-width="0.25"
         id="path32" />
    </g>
  </defs>
</svg>
