<?xml version="1.0" encoding="UTF-8" standalone="no"?>
<svg xmlns:ffdec="https://www.free-decompiler.com/flash" xmlns:xlink="http://www.w3.org/1999/xlink" ffdec:objectType="shape" height="67.05px" width="222.75px" xmlns="http://www.w3.org/2000/svg">
  <g transform="matrix(1.0, 0.0, 0.0, 1.0, 111.4, 33.5)">
    <path d="M89.0 -13.35 L89.0 -9.4 103.0 -9.4 103.0 -13.35 89.0 -13.35 M103.0 -3.35 L103.0 -7.3 89.0 -7.3 89.0 -3.35 103.0 -3.35 M-39.65 9.7 L-45.2 9.7 -64.0 9.7 -69.65 9.7 -69.65 -9.05 -63.6 -9.05 -44.9 -9.05 -39.65 -9.05 -39.65 -20.3 110.35 -20.3 110.35 9.7 -39.65 9.7" fill="#1e1e1e" fill-rule="evenodd" stroke="none"/>
    <path d="M110.35 9.7 L75.1 24.7 -39.65 24.7 -39.65 9.7 110.35 9.7 M-45.2 9.7 L-58.4 32.55 -95.9 32.55 -110.4 7.45 -91.65 7.45 -86.55 16.25 -67.8 16.25 -64.0 9.7 -45.2 9.7 M-63.6 -9.05 L-67.8 -16.25 -86.55 -16.25 -91.55 -7.55 -110.25 -7.55 -95.9 -32.5 -58.4 -32.5 -44.9 -9.05 -63.6 -9.05" fill="#000000" fill-rule="evenodd" stroke="none"/>
    <path d="M103.0 -3.35 L89.0 -3.35 89.0 -7.3 103.0 -7.3 103.0 -3.35 M89.0 -13.35 L103.0 -13.35 103.0 -9.4 89.0 -9.4 89.0 -13.35" fill="#666666" fill-rule="evenodd" stroke="none"/>
    <path d="M110.35 9.7 L75.1 24.7 -39.65 24.7 -39.65 9.7 -45.2 9.7 -58.4 32.55 -95.9 32.55 -110.4 7.45 -91.65 7.45 -86.55 16.25 -67.8 16.25 -64.0 9.7 -69.65 9.7 -69.65 -9.05 -63.6 -9.05 -67.8 -16.25 -86.55 -16.25 -91.55 -7.55 -110.25 -7.55 -95.9 -32.5 -58.4 -32.5 -44.9 -9.05 -39.65 -9.05 -39.65 -20.3 110.35 -20.3 110.35 9.7" fill="none" stroke="#ffffff" stroke-linecap="round" stroke-linejoin="round" stroke-opacity="0.6" stroke-width="2.0"/>
    <path d="M110.35 9.7 L-39.65 9.7 M-63.6 -9.05 L-44.9 -9.05 M-45.2 9.7 L-64.0 9.7" fill="none" stroke="#ffffff" stroke-linecap="round" stroke-linejoin="round" stroke-opacity="0.3019608" stroke-width="2.0"/>
  </g>
</svg>
