<?xml version="1.0" encoding="UTF-8" standalone="no"?>
<svg xmlns:ffdec="https://www.free-decompiler.com/flash" xmlns:xlink="http://www.w3.org/1999/xlink" ffdec:objectType="shape" height="189.5px" width="132.0px" xmlns="http://www.w3.org/2000/svg">
  <g transform="matrix(1.0, 0.0, 0.0, 1.0, 84.0, 46.25)">
    <path d="M17.0 -0.25 Q17.0 -6.45 12.6 -10.9 8.25 -15.25 2.0 -15.25 -4.2 -15.25 -8.65 -10.9 -13.0 -6.45 -13.0 -0.25 -13.0 6.0 -8.65 10.35 -4.2 14.75 2.0 14.75 8.25 14.75 12.6 10.35 17.0 6.0 17.0 -0.25 17.0 6.0 12.6 10.35 8.25 14.75 2.0 14.75 -4.2 14.75 -8.65 10.35 -13.0 6.0 -13.0 -0.25 -13.0 -6.45 -8.65 -10.9 -4.2 -15.25 2.0 -15.25 8.25 -15.25 12.6 -10.9 17.0 -6.45 17.0 -0.25 M17.0 104.75 L27.0 104.75 27.0 124.75 9.5 142.25 2.0 134.75 -5.5 142.25 -13.0 134.75 -20.5 142.25 -28.0 134.75 -35.5 142.25 -43.0 134.75 -50.5 142.25 -58.0 134.75 -65.5 142.25 -83.0 124.75 -83.0 104.75 -43.0 104.75 -73.0 74.75 -73.0 14.75 -38.95 -19.3 Q-35.7 -26.25 -29.85 -32.1 -24.0 -37.95 -17.05 -41.2 -8.35 -45.25 2.0 -45.25 20.7 -45.25 33.8 -32.1 47.0 -18.9 47.0 -0.25 47.0 18.45 33.8 31.55 20.7 44.75 2.0 44.75 -6.0 44.75 -13.0 42.35 L-13.0 74.75 -25.0 62.75 -25.0 35.85 -29.85 31.55 Q-41.45 20.0 -42.8 4.1 -41.45 20.0 -29.85 31.55 L-25.0 35.85 -25.0 62.75 -13.0 74.75 -32.85 94.65 -43.0 104.75 17.0 104.75 M-25.0 35.85 Q-19.4 40.1 -13.0 42.35 -19.4 40.1 -25.0 35.85 M-38.95 -19.3 Q-43.0 -10.6 -43.0 -0.25 L-42.8 4.1 -61.0 22.25 -61.0 66.5 -32.85 94.65 -61.0 66.5 -61.0 22.25 -42.8 4.1 -43.0 -0.25 Q-43.0 -10.6 -38.95 -19.3" fill="#000000" fill-rule="evenodd" stroke="none"/>
    <path d="M-13.0 74.75 L17.0 104.75 -43.0 104.75 -32.85 94.65 -13.0 74.75" fill="#1e1e1e" fill-rule="evenodd" stroke="none"/>
    <path d="M17.0 -0.25 Q17.0 6.0 12.6 10.35 8.25 14.75 2.0 14.75 -4.2 14.75 -8.65 10.35 -13.0 6.0 -13.0 -0.25 -13.0 -6.45 -8.65 -10.9 -4.2 -15.25 2.0 -15.25 8.25 -15.25 12.6 -10.9 17.0 -6.45 17.0 -0.25 M17.0 104.75 L-43.0 104.75 -32.85 94.65 -61.0 66.5 -61.0 22.25 -42.8 4.1 -43.0 -0.25 Q-43.0 -10.6 -38.95 -19.3 M-13.0 74.75 L-25.0 62.75 -25.0 35.85 -29.85 31.55 Q-41.45 20.0 -42.8 4.1 M-13.0 42.35 Q-19.4 40.1 -25.0 35.85 M-32.85 94.65 L-13.0 74.75" fill="none" stroke="#ffffff" stroke-linecap="round" stroke-linejoin="round" stroke-opacity="0.3019608" stroke-width="2.0"/>
    <path d="M17.0 104.75 L27.0 104.75 27.0 124.75 9.5 142.25 2.0 134.75 -5.5 142.25 -13.0 134.75 -20.5 142.25 -28.0 134.75 -35.5 142.25 -43.0 134.75 -50.5 142.25 -58.0 134.75 -65.5 142.25 -83.0 124.75 -83.0 104.75 -43.0 104.75 -73.0 74.75 -73.0 14.75 -38.95 -19.3 Q-35.7 -26.25 -29.85 -32.1 -24.0 -37.95 -17.05 -41.2 -8.35 -45.25 2.0 -45.25 20.7 -45.25 33.8 -32.1 47.0 -18.9 47.0 -0.25 47.0 18.45 33.8 31.55 20.7 44.75 2.0 44.75 -6.0 44.75 -13.0 42.35 L-13.0 74.75 17.0 104.75 Z" fill="none" stroke="#ffffff" stroke-linecap="round" stroke-linejoin="round" stroke-opacity="0.6" stroke-width="2.0"/>
  </g>
</svg>
