<?xml version="1.0" encoding="UTF-8" standalone="no"?>
<svg xmlns:ffdec="https://www.free-decompiler.com/flash" xmlns:xlink="http://www.w3.org/1999/xlink" ffdec:objectType="frame" height="326.9px" width="340.5px" xmlns="http://www.w3.org/2000/svg">
  <g transform="matrix(1.0, 0.0, 0.0, 1.0, 219.95, 163.6)">
    <use ffdec:characterId="436" ffdec:characterName="library_fla.mecharm_687" height="205.0" id="arm_rt" transform="matrix(1.0, 0.0, 0.0, 1.0, -219.95, -104.95)" width="326.35" xlink:href="#sprite0"/>
    <use ffdec:characterId="438" height="189.5" id="leg_rt" transform="matrix(1.0, 0.0, 0.0, 1.0, -41.0, -26.2)" width="132.0" xlink:href="#sprite4"/>
    <use ffdec:characterId="445" height="242.0" id="head" transform="matrix(1.0, 0.0, 0.0, 1.0, -118.25, -163.6)" width="238.8" xlink:href="#sprite5"/>
    <use ffdec:characterId="438" height="189.5" id="leg_lt" transform="matrix(1.0, 0.0, 0.0, 1.0, -41.0, -26.2)" width="132.0" xlink:href="#sprite4"/>
    <use ffdec:characterId="436" ffdec:characterName="library_fla.mecharm_687" height="205.0" id="arm_lt" transform="matrix(1.0, 0.0, 0.0, 1.0, -219.95, -104.95)" width="326.35" xlink:href="#sprite0"/>
  </g>
  <defs>
    <g id="sprite0" transform="matrix(1.0, 0.0, 0.0, 1.0, 280.0, 65.0)">
      <use ffdec:characterId="427" height="142.0" transform="matrix(1.0, 0.0, 0.0, 1.0, -45.65, -45.95)" width="92.0" xlink:href="#sprite1"/>
      <use ffdec:characterId="429" height="67.05" transform="matrix(1.0, 0.0, 0.0, 1.0, -176.4, 60.85)" width="222.75" xlink:href="#sprite2"/>
      <use ffdec:characterId="430" height="0.0" id="punch" transform="matrix(1.0, 0.0, 0.0, 1.0, -224.95, 62.0)" width="0.0" xlink:href="#sprite3"/>
    </g>
    <g id="sprite1" transform="matrix(1.0, 0.0, 0.0, 1.0, 46.0, 46.0)">
      <use ffdec:characterId="426" height="142.0" transform="matrix(1.0, 0.0, 0.0, 1.0, -46.0, -46.0)" width="92.0" xlink:href="#shape0"/>
    </g>
    <g id="shape0" transform="matrix(1.0, 0.0, 0.0, 1.0, 46.0, 46.0)">
      <path d="M22.5 19.85 Q30.0 11.5 30.0 0.0 30.0 -12.45 21.2 -21.25 12.45 -30.0 0.0 -30.0 -12.45 -30.0 -21.25 -21.25 -30.0 -12.45 -30.0 0.0 -30.0 11.5 -22.5 19.85 L-22.5 39.1 -22.5 19.85 -21.25 21.2 Q-17.05 25.4 -12.0 27.6 L-12.0 95.0 -22.5 95.0 -22.5 39.1 Q-27.5 36.15 -31.9 31.8 -45.0 18.65 -45.0 0.0 -45.0 -18.7 -31.9 -31.9 -18.7 -45.0 0.0 -45.0 18.65 -45.0 31.8 -31.9 45.0 -18.7 45.0 0.0 45.0 18.65 31.8 31.8 27.45 36.15 22.5 39.1 L22.5 19.85 22.5 39.1 22.5 95.0 12.0 95.0 12.0 27.6 Q17.0 25.4 21.2 21.2 L22.5 19.85" fill="#000000" fill-rule="evenodd" stroke="none"/>
      <path d="M-22.5 19.85 Q-30.0 11.5 -30.0 0.0 -30.0 -12.45 -21.25 -21.25 -12.45 -30.0 0.0 -30.0 12.45 -30.0 21.2 -21.25 30.0 -12.45 30.0 0.0 30.0 11.5 22.5 19.85 L21.2 21.2 Q17.0 25.4 12.0 27.6 6.5 30.0 0.0 30.0 -6.55 30.0 -12.0 27.6 -6.55 30.0 0.0 30.0 6.5 30.0 12.0 27.6 L12.0 95.0 -12.0 95.0 -12.0 27.6 Q-17.05 25.4 -21.25 21.2 L-22.5 19.85 M-17.2 0.75 L-8.65 15.6 8.6 15.6 17.15 0.75 8.6 -14.2 -8.65 -14.2 -17.2 0.75" fill="#101010" fill-rule="evenodd" stroke="none"/>
      <path d="M-17.2 0.75 L-8.65 -14.2 8.6 -14.2 17.15 0.75 8.6 15.6 -8.65 15.6 -17.2 0.75" fill="#141414" fill-rule="evenodd" stroke="none"/>
      <path d="M-22.5 19.85 Q-30.0 11.5 -30.0 0.0 -30.0 -12.45 -21.25 -21.25 -12.45 -30.0 0.0 -30.0 12.45 -30.0 21.2 -21.25 30.0 -12.45 30.0 0.0 30.0 11.5 22.5 19.85 L22.5 39.1 M-22.5 39.1 L-22.5 19.85 -21.25 21.2 Q-17.05 25.4 -12.0 27.6 -6.55 30.0 0.0 30.0 6.5 30.0 12.0 27.6 17.0 25.4 21.2 21.2 L22.5 19.85 M-17.2 0.75 L-8.65 -14.2 8.6 -14.2 17.15 0.75 8.6 15.6 -8.65 15.6 -17.2 0.75 M-12.0 95.0 L-12.0 27.6 M12.0 27.6 L12.0 95.0" fill="none" stroke="#cbcbcb" stroke-linecap="round" stroke-linejoin="round" stroke-opacity="0.3019608" stroke-width="2.0"/>
      <path d="M22.5 39.1 Q27.45 36.15 31.8 31.8 45.0 18.65 45.0 0.0 45.0 -18.7 31.8 -31.9 18.65 -45.0 0.0 -45.0 -18.7 -45.0 -31.9 -31.9 -45.0 -18.7 -45.0 0.0 -45.0 18.65 -31.9 31.8 -27.5 36.15 -22.5 39.1 L-22.5 95.0 M22.5 95.0 L22.5 39.1" fill="none" stroke="#cbcbcb" stroke-linecap="round" stroke-linejoin="round" stroke-opacity="0.6" stroke-width="2.0"/>
    </g>
    <g id="sprite2" transform="matrix(1.0, 0.0, 0.0, 1.0, 111.4, 33.5)">
      <use ffdec:characterId="428" height="67.05" transform="matrix(1.0, 0.0, 0.0, 1.0, -111.4, -33.5)" width="222.75" xlink:href="#shape1"/>
    </g>
    <g id="shape1" transform="matrix(1.0, 0.0, 0.0, 1.0, 111.4, 33.5)">
      <path d="M89.0 -13.35 L89.0 -9.4 103.0 -9.4 103.0 -13.35 89.0 -13.35 M103.0 -3.35 L103.0 -7.3 89.0 -7.3 89.0 -3.35 103.0 -3.35 M-39.65 9.7 L-45.2 9.7 -64.0 9.7 -69.65 9.7 -69.65 -9.05 -63.6 -9.05 -44.9 -9.05 -39.65 -9.05 -39.65 -20.3 110.35 -20.3 110.35 9.7 -39.65 9.7" fill="#171717" fill-rule="evenodd" stroke="none"/>
      <path d="M110.35 9.7 L75.1 24.7 -39.65 24.7 -39.65 9.7 110.35 9.7 M-45.2 9.7 L-58.4 32.55 -95.9 32.55 -110.4 7.45 -91.65 7.45 -86.55 16.25 -67.8 16.25 -64.0 9.7 -45.2 9.7 M-63.6 -9.05 L-67.8 -16.25 -86.55 -16.25 -91.55 -7.55 -110.25 -7.55 -95.9 -32.5 -58.4 -32.5 -44.9 -9.05 -63.6 -9.05" fill="#000000" fill-rule="evenodd" stroke="none"/>
      <path d="M103.0 -3.35 L89.0 -3.35 89.0 -7.3 103.0 -7.3 103.0 -3.35 M89.0 -13.35 L103.0 -13.35 103.0 -9.4 89.0 -9.4 89.0 -13.35" fill="#515151" fill-rule="evenodd" stroke="none"/>
      <path d="M110.35 9.7 L75.1 24.7 -39.65 24.7 -39.65 9.7 -45.2 9.7 -58.4 32.55 -95.9 32.55 -110.4 7.45 -91.65 7.45 -86.55 16.25 -67.8 16.25 -64.0 9.7 -69.65 9.7 -69.65 -9.05 -63.6 -9.05 -67.8 -16.25 -86.55 -16.25 -91.55 -7.55 -110.25 -7.55 -95.9 -32.5 -58.4 -32.5 -44.9 -9.05 -39.65 -9.05 -39.65 -20.3 110.35 -20.3 110.35 9.7" fill="none" stroke="#cbcbcb" stroke-linecap="round" stroke-linejoin="round" stroke-opacity="0.6" stroke-width="2.0"/>
      <path d="M110.35 9.7 L-39.65 9.7 M-63.6 -9.05 L-44.9 -9.05 M-45.2 9.7 L-64.0 9.7" fill="none" stroke="#cbcbcb" stroke-linecap="round" stroke-linejoin="round" stroke-opacity="0.3019608" stroke-width="2.0"/>
    </g>
    <g id="sprite4" transform="matrix(1.0, 0.0, 0.0, 1.0, 84.0, 46.25)">
      <use ffdec:characterId="437" height="189.5" transform="matrix(1.0, 0.0, 0.0, 1.0, -84.0, -46.25)" width="132.0" xlink:href="#shape2"/>
    </g>
    <g id="shape2" transform="matrix(1.0, 0.0, 0.0, 1.0, 84.0, 46.25)">
      <path d="M17.0 -0.25 Q17.0 -6.45 12.6 -10.9 8.25 -15.25 2.0 -15.25 -4.2 -15.25 -8.65 -10.9 -13.0 -6.45 -13.0 -0.25 -13.0 6.0 -8.65 10.35 -4.2 14.75 2.0 14.75 8.25 14.75 12.6 10.35 17.0 6.0 17.0 -0.25 17.0 6.0 12.6 10.35 8.25 14.75 2.0 14.75 -4.2 14.75 -8.65 10.35 -13.0 6.0 -13.0 -0.25 -13.0 -6.45 -8.65 -10.9 -4.2 -15.25 2.0 -15.25 8.25 -15.25 12.6 -10.9 17.0 -6.45 17.0 -0.25 M17.0 104.75 L27.0 104.75 27.0 124.75 9.5 142.25 2.0 134.75 -5.5 142.25 -13.0 134.75 -20.5 142.25 -28.0 134.75 -35.5 142.25 -43.0 134.75 -50.5 142.25 -58.0 134.75 -65.5 142.25 -83.0 124.75 -83.0 104.75 -43.0 104.75 -73.0 74.75 -73.0 14.75 -38.95 -19.3 Q-35.7 -26.25 -29.85 -32.1 -24.0 -37.95 -17.05 -41.2 -8.35 -45.25 2.0 -45.25 20.7 -45.25 33.8 -32.1 47.0 -18.9 47.0 -0.25 47.0 18.45 33.8 31.55 20.7 44.75 2.0 44.75 -6.0 44.75 -13.0 42.35 L-13.0 74.75 -25.0 62.75 -25.0 35.85 -29.85 31.55 Q-41.45 20.0 -42.8 4.1 -41.45 20.0 -29.85 31.55 L-25.0 35.85 -25.0 62.75 -13.0 74.75 -32.85 94.65 -43.0 104.75 17.0 104.75 M-25.0 35.85 Q-19.4 40.1 -13.0 42.35 -19.4 40.1 -25.0 35.85 M-38.95 -19.3 Q-43.0 -10.6 -43.0 -0.25 L-42.8 4.1 -61.0 22.25 -61.0 66.5 -32.85 94.65 -61.0 66.5 -61.0 22.25 -42.8 4.1 -43.0 -0.25 Q-43.0 -10.6 -38.95 -19.3" fill="#000000" fill-rule="evenodd" stroke="none"/>
      <path d="M-13.0 74.75 L17.0 104.75 -43.0 104.75 -32.85 94.65 -13.0 74.75" fill="#0b0b0b" fill-rule="evenodd" stroke="none"/>
      <path d="M17.0 -0.25 Q17.0 6.0 12.6 10.35 8.25 14.75 2.0 14.75 -4.2 14.75 -8.65 10.35 -13.0 6.0 -13.0 -0.25 -13.0 -6.45 -8.65 -10.9 -4.2 -15.25 2.0 -15.25 8.25 -15.25 12.6 -10.9 17.0 -6.45 17.0 -0.25 M17.0 104.75 L-43.0 104.75 -32.85 94.65 -61.0 66.5 -61.0 22.25 -42.8 4.1 -43.0 -0.25 Q-43.0 -10.6 -38.95 -19.3 M-13.0 74.75 L-25.0 62.75 -25.0 35.85 -29.85 31.55 Q-41.45 20.0 -42.8 4.1 M-13.0 42.35 Q-19.4 40.1 -25.0 35.85 M-32.85 94.65 L-13.0 74.75" fill="none" stroke="#656565" stroke-linecap="round" stroke-linejoin="round" stroke-opacity="0.3019608" stroke-width="2.0"/>
      <path d="M17.0 104.75 L27.0 104.75 27.0 124.75 9.5 142.25 2.0 134.75 -5.5 142.25 -13.0 134.75 -20.5 142.25 -28.0 134.75 -35.5 142.25 -43.0 134.75 -50.5 142.25 -58.0 134.75 -65.5 142.25 -83.0 124.75 -83.0 104.75 -43.0 104.75 -73.0 74.75 -73.0 14.75 -38.95 -19.3 Q-35.7 -26.25 -29.85 -32.1 -24.0 -37.95 -17.05 -41.2 -8.35 -45.25 2.0 -45.25 20.7 -45.25 33.8 -32.1 47.0 -18.9 47.0 -0.25 47.0 18.45 33.8 31.55 20.7 44.75 2.0 44.75 -6.0 44.75 -13.0 42.35 L-13.0 74.75 17.0 104.75 Z" fill="none" stroke="#656565" stroke-linecap="round" stroke-linejoin="round" stroke-opacity="0.6" stroke-width="2.0"/>
    </g>
    <g id="sprite5" transform="matrix(1.0, 0.0, 0.0, 1.0, 117.9, 121.0)">
      <use ffdec:characterId="440" height="123.7" id="windshield" transform="matrix(1.0, 0.0, 0.0, 1.0, -91.0, -91.0)" width="176.55" xlink:href="#sprite6"/>
      <use ffdec:characterId="441" height="242.0" transform="matrix(1.0, 0.0, 0.0, 1.0, -117.9, -121.0)" width="238.8" xlink:href="#shape4"/>
      <use ffdec:characterId="443" height="24.65" transform="matrix(0.9397, -0.342, 0.342, 0.9397, -79.8643, 15.4176)" width="97.05" xlink:href="#text0"/>
      <use ffdec:characterId="444" height="100.3" transform="matrix(1.0, 0.0, 0.0, 1.0, 18.75, -72.8)" width="59.25" xlink:href="#shape5"/>
    </g>
    <g id="sprite6" transform="matrix(1.0, 0.0, 0.0, 1.0, 91.0, 91.0)">
      <use ffdec:characterId="439" height="123.7" transform="matrix(1.0, 0.0, 0.0, 1.0, -91.0, -91.0)" width="176.55" xlink:href="#shape3"/>
    </g>
    <g id="shape3" transform="matrix(1.0, 0.0, 0.0, 1.0, 91.0, 91.0)">
      <path d="M63.65 -63.65 Q78.0 -49.3 84.55 -31.7 L-84.5 31.7 Q-90.0 17.0 -90.0 0.0 -90.0 -37.3 -63.65 -63.65 -37.3 -90.0 0.0 -90.0 37.3 -90.0 63.65 -63.65" fill="url(#gradient0)" fill-rule="evenodd" stroke="none"/>
      <path d="M63.65 -63.65 Q78.0 -49.3 84.55 -31.7 L-84.5 31.7 Q-90.0 17.0 -90.0 0.0 -90.0 -37.3 -63.65 -63.65 -37.3 -90.0 0.0 -90.0 37.3 -90.0 63.65 -63.65 Z" fill="none" stroke="#ffffff" stroke-linecap="round" stroke-linejoin="round" stroke-opacity="0.6" stroke-width="2.0"/>
    </g>
    <radialGradient cx="0" cy="0" gradientTransform="matrix(0.1118, 0.0, 0.0, 0.1118, 0.0, 0.0)" gradientUnits="userSpaceOnUse" id="gradient0" r="819.2" spreadMethod="pad">
      <stop offset="0.0" stop-color="#0092ff" stop-opacity="0.3019608"/>
      <stop offset="0.5254901960784314" stop-color="#0061cc" stop-opacity="0.3529412"/>
      <stop offset="0.8196078431372549" stop-color="#00c3ff" stop-opacity="0.6"/>
    </radialGradient>
    <g id="shape4" transform="matrix(1.0, 0.0, 0.0, 1.0, 117.9, 121.0)">
      <path d="M78.4 -44.4 Q72.45 -54.7 63.5 -63.65 37.15 -90.0 -0.1 -90.0 L-0.1 -120.0 Q27.6 -120.0 50.8 -109.05 69.2 -100.4 84.7 -84.9 98.5 -71.1 106.9 -55.1 L78.4 -44.4 106.9 -55.1 Q113.4 -42.65 116.65 -28.8 L88.2 -18.1 116.65 -28.8 Q119.9 -15.05 119.9 0.0 119.9 49.75 84.7 84.85 49.6 120.0 -0.1 120.0 -49.85 120.0 -85.0 84.85 -98.75 71.1 -107.1 55.15 L-78.65 44.45 -107.1 55.15 Q-113.65 42.65 -116.9 28.8 L-88.4 18.15 Q-85.75 32.2 -78.65 44.45 -72.75 54.65 -63.8 63.6 -37.4 90.0 -0.1 90.0 37.15 90.0 63.5 63.6 89.9 37.3 89.9 0.0 89.9 -9.4 88.2 -18.1 85.5 -32.15 78.4 -44.4" fill="#000000" fill-rule="evenodd" stroke="none"/>
      <path d="M-0.1 -120.0 L-0.1 -90.0 Q-16.15 -90.0 -30.1 -85.15 L-30.1 -105.0 -0.1 -120.0 M-88.4 18.15 L-116.9 28.8 -103.75 0.0 -90.1 0.0 Q-90.1 9.4 -88.4 18.15" fill="#262626" fill-rule="evenodd" stroke="none"/>
      <path d="M-0.1 -90.0 Q37.15 -90.0 63.5 -63.65 72.45 -54.7 78.4 -44.4 L-0.1 -15.0 78.4 -44.4 Q85.5 -32.15 88.2 -18.1 89.9 -9.4 89.9 0.0 89.9 37.3 63.5 63.6 37.15 90.0 -0.1 90.0 -37.4 90.0 -63.8 63.6 -72.75 54.65 -78.65 44.45 -85.75 32.2 -88.4 18.15 L-0.1 -15.0 -0.1 -90.0 M88.2 -18.1 L-78.65 44.45 88.2 -18.1" fill="url(#gradient1)" fill-rule="evenodd" stroke="none"/>
      <path d="M-0.1 -90.0 Q37.15 -90.0 63.5 -63.65 72.45 -54.7 78.4 -44.4 L106.9 -55.1 M-0.1 -120.0 L-0.1 -90.0 -0.1 -15.0 78.4 -44.4 Q85.5 -32.15 88.2 -18.1 L116.65 -28.8 M-0.1 -90.0 Q-16.15 -90.0 -30.1 -85.15 M88.2 -18.1 Q89.9 -9.4 89.9 0.0 89.9 37.3 63.5 63.6 37.15 90.0 -0.1 90.0 -37.4 90.0 -63.8 63.6 -72.75 54.65 -78.65 44.45 L-107.1 55.15 M-116.9 28.8 L-88.4 18.15 Q-90.1 9.4 -90.1 0.0 M-78.65 44.45 Q-85.75 32.2 -88.4 18.15 L-0.1 -15.0 M-78.65 44.45 L88.2 -18.1" fill="none" stroke="#ffffff" stroke-linecap="round" stroke-linejoin="round" stroke-opacity="0.3019608" stroke-width="2.0"/>
      <path d="M106.9 -55.1 Q98.5 -71.1 84.7 -84.9 69.2 -100.4 50.8 -109.05 27.6 -120.0 -0.1 -120.0 L-30.1 -105.0 -30.1 -85.15 M116.65 -28.8 Q113.4 -42.65 106.9 -55.1 M-107.1 55.15 Q-98.75 71.1 -85.0 84.85 -49.85 120.0 -0.1 120.0 49.6 120.0 84.7 84.85 119.9 49.75 119.9 0.0 119.9 -15.05 116.65 -28.8 M-90.1 0.0 L-103.75 0.0 -116.9 28.8 Q-113.65 42.65 -107.1 55.15" fill="none" stroke="#ffffff" stroke-linecap="round" stroke-linejoin="round" stroke-opacity="0.6" stroke-width="2.0"/>
    </g>
    <radialGradient cx="0" cy="0" gradientTransform="matrix(0.1144, 0.0, 0.0, 0.1144, 2.15, -3.0)" gradientUnits="userSpaceOnUse" id="gradient1" r="819.2" spreadMethod="pad">
      <stop offset="0.0" stop-color="#7b7b7b"/>
      <stop offset="0.5254901960784314" stop-color="#333333"/>
      <stop offset="0.8196078431372549" stop-color="#07060b"/>
      <stop offset="0.9019607843137255" stop-color="#000000"/>
      <stop offset="1.0" stop-color="#262626"/>
    </radialGradient>
    <g id="text0" transform="matrix(1.0, 0.0, 0.0, 1.0, -11.8, -1.6)">
      <g transform="matrix(1.0, 0.0, 0.0, 1.0, 12.05, 0.0)">
        <use fill="#ffffff" fill-opacity="0.29803923" height="24.65" transform="matrix(0.0273, 0.0, 0.0, 0.0273, 0.0, 25.0)" width="97.05" xlink:href="#font_ModaerneHeavy_Regular_X0"/>
        <use fill="#ffffff" fill-opacity="0.29803923" height="24.65" transform="matrix(0.0273, 0.0, 0.0, 0.0273, 16.75, 25.0)" width="97.05" xlink:href="#font_ModaerneHeavy_Regular_V0"/>
        <use fill="#ffffff" fill-opacity="0.29803923" height="24.65" transform="matrix(0.0273, 0.0, 0.0, 0.0273, 33.5, 25.0)" width="97.05" xlink:href="#font_ModaerneHeavy_Regular_-0"/>
        <use fill="#ffffff" fill-opacity="0.29803923" height="24.65" transform="matrix(0.0273, 0.0, 0.0, 0.0273, 42.25, 25.0)" width="97.05" xlink:href="#font_ModaerneHeavy_Regular_V0"/>
        <use fill="#ffffff" fill-opacity="0.29803923" height="24.65" transform="matrix(0.0273, 0.0, 0.0, 0.0273, 59.0, 25.0)" width="97.05" xlink:href="#font_ModaerneHeavy_Regular_X0"/>
      </g>
    </g>
    <g id="font_ModaerneHeavy_Regular_X0">
      <path d="M390.0 -369.5 L624.5 0.0 442.5 0.0 302.0 -222.0 172.0 0.0 -11.5 0.0 223.0 -369.5 1.0 -723.0 183.5 -723.0 303.0 -520.0 430.0 -723.0 612.5 -723.0 390.0 -369.5" fill-rule="evenodd" stroke="none"/>
    </g>
    <g id="font_ModaerneHeavy_Regular_V0">
      <path d="M462.0 -723.0 L623.5 -723.0 413.5 -80.0 Q399.5 -36.0 369.5 -13.0 340.0 10.0 306.0 10.0 272.5 10.0 243.0 -13.0 214.0 -36.0 199.5 -80.0 L-11.5 -723.0 151.5 -723.0 305.0 -209.0 462.0 -723.0" fill-rule="evenodd" stroke="none"/>
    </g>
    <g id="font_ModaerneHeavy_Regular_-0">
      <path d="M296.0 -387.0 L296.0 -256.0 24.5 -256.0 24.5 -387.0 296.0 -387.0" fill-rule="evenodd" stroke="none"/>
    </g>
    <g id="shape5" transform="matrix(1.0, 0.0, 0.0, 1.0, -18.75, 72.8)">
      <path d="M29.05 -72.5 Q34.2 -71.5 38.6 -67.05 43.0 -62.65 44.05 -57.5 45.05 -52.35 42.15 -49.4 39.2 -46.45 34.05 -47.5 28.85 -48.5 24.45 -52.9 20.05 -57.3 19.0 -62.5 18.0 -67.65 20.95 -70.6 23.85 -73.55 29.05 -72.5" fill="#ffffff" fill-opacity="0.2" fill-rule="evenodd" stroke="none"/>
      <path d="M71.0 17.5 L56.0 17.5 56.0 12.5 71.0 12.5 71.0 17.5 M78.0 7.5 L58.0 7.5 58.0 2.5 78.0 2.5 78.0 7.5 M61.0 27.5 L51.0 27.5 51.0 22.5 61.0 22.5 61.0 27.5" fill="#ffffff" fill-opacity="0.2" fill-rule="evenodd" stroke="none"/>
    </g>
  </defs>
</svg>
