<?xml version="1.0" encoding="UTF-8" standalone="no"?>
<svg xmlns:ffdec="https://www.free-decompiler.com/flash" xmlns:xlink="http://www.w3.org/1999/xlink" ffdec:objectType="shape" height="50.8px" width="46.0px" xmlns="http://www.w3.org/2000/svg">
  <g transform="matrix(1.0, 0.0, 0.0, 1.0, 210.5, -27.0)">
    <path d="M-168.2 45.55 L-168.15 45.55 -164.5 52.35 -186.7 52.35 -186.75 45.55 -168.2 45.55" fill="#999999" fill-rule="evenodd" stroke="none"/>
    <path d="M-186.7 52.35 L-190.0 50.0 -209.5 50.0 -209.5 28.0 -178.3 28.0 -168.2 45.55 -186.75 45.55 -186.7 52.35" fill="url(#gradient0)" fill-rule="evenodd" stroke="none"/>
    <path d="M-168.4 59.6 L-178.3 76.75 -209.5 76.8 -209.5 55.0 -190.0 55.0 -186.7 52.35 -186.75 59.6 -168.4 59.6" fill="url(#gradient1)" fill-rule="evenodd" stroke="none"/>
    <path d="M-164.5 52.35 L-168.4 59.6 -186.75 59.6 -186.7 52.35 -164.5 52.35" fill="#666666" fill-rule="evenodd" stroke="none"/>
    <path d="M-186.7 52.35 L-190.0 50.0 -209.5 50.0 -209.5 28.0 -178.3 28.0 -168.2 45.55 M-168.4 59.6 L-178.3 76.75 -209.5 76.8 -209.5 55.0 -190.0 55.0 -186.7 52.35" fill="none" stroke="#cccccc" stroke-linecap="round" stroke-linejoin="round" stroke-width="2.0"/>
  </g>
  <defs>
    <linearGradient gradientTransform="matrix(0.0278, 0.0, 0.0, 0.0107, -190.95, 36.75)" gradientUnits="userSpaceOnUse" id="gradient0" spreadMethod="pad" x1="-819.2" x2="819.2">
      <stop offset="0.0" stop-color="#626262"/>
      <stop offset="0.807843137254902" stop-color="#111111"/>
    </linearGradient>
    <linearGradient gradientTransform="matrix(0.0277, 0.0, 0.0, 0.0105, -191.1, 68.15)" gradientUnits="userSpaceOnUse" id="gradient1" spreadMethod="pad" x1="-819.2" x2="819.2">
      <stop offset="0.0" stop-color="#626262"/>
      <stop offset="0.807843137254902" stop-color="#111111"/>
    </linearGradient>
  </defs>
</svg>
