<?xml version="1.0" encoding="UTF-8" standalone="no"?>
<svg xmlns:ffdec="https://www.free-decompiler.com/flash" xmlns:xlink="http://www.w3.org/1999/xlink" ffdec:objectType="shape" height="226.65px" width="148.0px" xmlns="http://www.w3.org/2000/svg">
  <g transform="matrix(1.0, 0.0, 0.0, 1.0, 74.0, 74.0)">
    <path d="M60.2 60.0 Q65.0 71.5 65.0 85.0 65.0 98.5 60.2 110.0 L-60.2 110.0 Q-65.0 98.5 -65.0 85.0 -65.0 71.5 -60.2 60.0 L60.2 60.0" fill="#cccccc" fill-rule="evenodd" stroke="none"/>
    <path d="M60.2 110.0 Q55.45 121.45 45.95 130.95 26.9 150.0 0.0 150.0 -26.9 150.0 -45.95 130.95 -55.45 121.45 -60.2 110.0 L60.2 110.0 M-60.2 60.0 Q-55.45 48.55 -45.95 39.05 -26.9 20.0 0.0 20.0 26.9 20.0 45.95 39.05 55.45 48.55 60.2 60.0 L-60.2 60.0" fill="#999999" fill-rule="evenodd" stroke="none"/>
    <path d="M60.2 60.0 Q65.0 71.5 65.0 85.0 65.0 98.5 60.2 110.0 55.45 121.45 45.95 130.95 26.9 150.0 0.0 150.0 -26.9 150.0 -45.95 130.95 -55.45 121.45 -60.2 110.0 -65.0 98.5 -65.0 85.0 -65.0 71.5 -60.2 60.0 -55.45 48.55 -45.95 39.05 -26.9 20.0 0.0 20.0 26.9 20.0 45.95 39.05 55.45 48.55 60.2 60.0 L-60.2 60.0 M-60.2 110.0 L60.2 110.0" fill="none" stroke="#333333" stroke-linecap="round" stroke-linejoin="miter-clip" stroke-miterlimit="3.0" stroke-width="4.0"/>
    <path d="M47.1 82.9 Q46.2 82.0 45.0 82.0 43.8 82.0 42.9 82.85 L42.85 82.9 Q42.0 83.8 42.0 85.0 42.0 86.2 42.9 87.1 43.75 88.0 45.0 88.0 46.2 88.0 47.05 87.1 L47.1 87.05 Q48.0 86.2 48.0 85.0 48.0 83.75 47.1 82.9 M38.0 85.0 Q38.0 82.15 40.0 80.05 L40.05 80.0 Q42.15 78.0 45.0 78.0 47.9 78.0 49.95 80.05 52.0 82.15 52.0 85.0 52.0 87.85 49.95 89.9 L49.9 89.95 Q47.85 92.0 45.0 92.0 42.15 92.0 40.05 89.95 38.0 87.9 38.0 85.0" fill="#999999" fill-rule="evenodd" stroke="none"/>
    <path d="M-49.95 80.0 Q-47.85 78.0 -45.0 78.0 -42.1 78.0 -40.05 80.05 -38.0 82.15 -38.0 85.0 -38.0 87.85 -40.05 89.9 L-40.1 89.95 Q-42.15 92.0 -45.0 92.0 -47.85 92.0 -49.95 89.95 -52.0 87.9 -52.0 85.0 -52.0 82.15 -50.0 80.05 L-49.95 80.0 M-42.9 82.9 Q-43.8 82.0 -45.0 82.0 -46.2 82.0 -47.1 82.85 L-47.15 82.9 Q-48.0 83.8 -48.0 85.0 -48.0 86.2 -47.1 87.1 -46.25 88.0 -45.0 88.0 -43.8 88.0 -42.95 87.1 L-42.9 87.05 Q-42.0 86.2 -42.0 85.0 -42.0 83.75 -42.9 82.9" fill="#999999" fill-rule="evenodd" stroke="none"/>
    <path d="M2.1 82.9 Q1.2 82.0 0.0 82.0 -1.2 82.0 -2.1 82.85 L-2.15 82.9 Q-3.0 83.8 -3.0 85.0 -3.0 86.2 -2.1 87.1 -1.25 88.0 0.0 88.0 1.2 88.0 2.05 87.1 L2.1 87.05 Q3.0 86.2 3.0 85.0 3.0 83.75 2.1 82.9 M4.95 80.05 Q7.0 82.15 7.0 85.0 7.0 87.85 4.95 89.9 L4.9 89.95 Q2.85 92.0 0.0 92.0 -2.85 92.0 -4.95 89.95 -7.0 87.9 -7.0 85.0 -7.0 82.15 -5.0 80.05 L-4.95 80.0 Q-2.85 78.0 0.0 78.0 2.9 78.0 4.95 80.05" fill="#999999" fill-rule="evenodd" stroke="none"/>
    <path d="M50.0 -20.0 L50.0 0.0 60.0 0.0 60.0 50.0 -60.0 50.0 -60.0 0.0 -50.0 0.0 -50.0 -20.0 -50.0 -60.0 -50.0 -70.0 50.0 -70.0 50.0 -60.0 50.0 -20.0 M0.0 -48.0 L-18.0 -21.0 18.0 -21.0 0.0 -48.0 M-50.0 0.0 L-40.0 10.0 -30.0 0.0 -20.0 10.0 -10.0 0.0 0.0 10.0 10.0 0.0 20.0 10.0 30.0 0.0 40.0 10.0 50.0 0.0 40.0 10.0 30.0 0.0 20.0 10.0 10.0 0.0 0.0 10.0 -10.0 0.0 -20.0 10.0 -30.0 0.0 -40.0 10.0 -50.0 0.0 M0.0 -59.9 L30.0 -14.9 -30.0 -14.9 0.0 -59.9 -30.0 -14.9 30.0 -14.9 0.0 -59.9 M49.0 -60.0 L49.0 -20.0 49.0 -60.0 M-49.0 -60.0 L-49.0 -20.0 -49.0 -60.0" fill="#cccccc" fill-rule="evenodd" stroke="none"/>
    <path d="M50.0 -60.0 L60.0 -60.0 60.0 -50.0 70.0 -50.0 70.0 -30.0 60.0 -30.0 60.0 -20.0 50.0 -20.0 50.0 -60.0 M-50.0 -20.0 L-60.0 -20.0 -60.0 -30.0 -70.0 -30.0 -70.0 -50.0 -60.0 -50.0 -60.0 -60.0 -50.0 -60.0 -50.0 -20.0 M60.0 -50.0 L60.0 -30.0 60.0 -50.0 M-60.0 -50.0 L-60.0 -30.0 -60.0 -50.0" fill="#666666" fill-rule="evenodd" stroke="none"/>
    <path d="M0.0 -48.0 L18.0 -21.0 -18.0 -21.0 0.0 -48.0" fill="#990099" fill-rule="evenodd" stroke="none"/>
    <path d="M50.0 -60.0 L60.0 -60.0 60.0 -50.0 70.0 -50.0 70.0 -30.0 60.0 -30.0 60.0 -20.0 50.0 -20.0 50.0 0.0 60.0 0.0 60.0 50.0 -60.0 50.0 -60.0 0.0 -50.0 0.0 -50.0 -20.0 -60.0 -20.0 -60.0 -30.0 -70.0 -30.0 -70.0 -50.0 -60.0 -50.0 -60.0 -60.0 -50.0 -60.0 -50.0 -70.0 50.0 -70.0 50.0 -60.0 M60.0 -30.0 L60.0 -50.0 M-60.0 -30.0 L-60.0 -50.0" fill="none" stroke="#333333" stroke-linecap="square" stroke-linejoin="miter-clip" stroke-miterlimit="10.0" stroke-width="6.0"/>
    <path d="M49.0 -20.0 L49.0 -60.0 M0.0 -59.9 L-30.0 -14.9 30.0 -14.9 0.0 -59.9 M50.0 0.0 L40.0 10.0 30.0 0.0 20.0 10.0 10.0 0.0 0.0 10.0 -10.0 0.0 -20.0 10.0 -30.0 0.0 -40.0 10.0 -50.0 0.0 M-49.0 -20.0 L-49.0 -60.0" fill="none" stroke="#333333" stroke-linecap="square" stroke-linejoin="miter-clip" stroke-miterlimit="10.0" stroke-width="4.0"/>
    <path d="M0.1 -37.95 L8.1 -25.95 -7.9 -25.95 0.1 -37.95" fill="#ff00ff" fill-rule="evenodd" stroke="none"/>
    <path d="M-37.9 27.9 Q-38.8 27.0 -40.0 27.0 -41.2 27.0 -42.1 27.85 L-42.15 27.9 Q-43.0 28.8 -43.0 30.0 -43.0 31.2 -42.1 32.1 -41.25 33.0 -40.0 33.0 -38.8 33.0 -37.95 32.1 L-37.9 32.05 Q-37.0 31.2 -37.0 30.0 -37.0 28.75 -37.9 27.9 M-35.05 25.05 Q-33.0 27.15 -33.0 30.0 -33.0 32.85 -35.05 34.9 L-35.1 34.95 Q-37.15 37.0 -40.0 37.0 -42.85 37.0 -44.95 34.95 -47.0 32.9 -47.0 30.0 -47.0 27.15 -45.0 25.05 L-44.95 25.0 Q-42.85 23.0 -40.0 23.0 -37.1 23.0 -35.05 25.05" fill="#999999" fill-rule="evenodd" stroke="none"/>
    <path d="M43.0 30.0 Q43.0 28.75 42.1 27.9 41.2 27.0 40.0 27.0 38.8 27.0 37.9 27.85 L37.85 27.9 Q37.0 28.8 37.0 30.0 37.0 31.2 37.9 32.1 38.75 33.0 40.0 33.0 41.2 33.0 42.05 32.1 L42.1 32.05 Q43.0 31.2 43.0 30.0 M44.95 25.05 Q47.0 27.15 47.0 30.0 47.0 32.85 44.95 34.9 L44.9 34.95 Q42.85 37.0 40.0 37.0 37.15 37.0 35.05 34.95 33.0 32.9 33.0 30.0 33.0 27.15 35.0 25.05 L35.05 25.0 Q37.15 23.0 40.0 23.0 42.9 23.0 44.95 25.05" fill="#999999" fill-rule="evenodd" stroke="none"/>
  </g>
</svg>
