<?xml version="1.0" encoding="UTF-8" standalone="no"?>
<svg xmlns:ffdec="https://www.free-decompiler.com/flash" xmlns:xlink="http://www.w3.org/1999/xlink" ffdec:objectType="frame" height="283.05px" width="269.4px" xmlns="http://www.w3.org/2000/svg">
  <g transform="matrix(1.0, 0.0, 0.0, 1.0, 187.7, 120.65)">
    <use ffdec:characterId="1501" ffdec:characterName="library_fla.robot1arm_361" height="188.7" id="arm_rt" transform="matrix(1.0, 0.0, 0.0, 1.0, -187.7, -42.95)" width="269.4" xlink:href="#sprite0"/>
    <use ffdec:characterId="1503" height="151.55" id="leg_rt" transform="matrix(1.0, 0.0, 0.0, 1.0, -47.45, 10.85)" width="106.6" xlink:href="#sprite4"/>
    <use ffdec:characterId="1505" height="226.65" id="head" transform="matrix(1.0, 0.0, 0.0, 1.0, -74.05, -120.65)" width="148.0" xlink:href="#sprite5"/>
    <use ffdec:characterId="1503" height="151.55" id="leg_lt" transform="matrix(1.0, 0.0, 0.0, 1.0, -47.45, 10.85)" width="106.6" xlink:href="#sprite4"/>
    <use ffdec:characterId="1501" ffdec:characterName="library_fla.robot1arm_361" height="188.7" id="arm_lt" transform="matrix(1.0, 0.0, 0.0, 1.0, -187.7, -42.95)" width="269.4" xlink:href="#sprite0"/>
  </g>
  <defs>
    <g id="sprite0" transform="matrix(1.0, 0.0, 0.0, 1.0, 230.0, 55.7)">
      <use ffdec:characterId="1495" height="122.1" transform="matrix(1.0, 0.0, 0.0, 1.0, -38.7, -39.75)" width="78.1" xlink:href="#sprite1"/>
      <use ffdec:characterId="1497" height="50.8" transform="matrix(1.0, 0.0, 0.0, 1.0, -138.5, 39.0)" width="171.3" xlink:href="#sprite2"/>
      <use ffdec:characterId="1498" height="0.0" id="punch" transform="matrix(1.0, 0.0, 0.0, 1.0, -189.95, 52.0)" width="0.0" xlink:href="#sprite3"/>
    </g>
    <g id="sprite1" transform="matrix(1.0, 0.0, 0.0, 1.0, 39.05, 39.8)">
      <use ffdec:characterId="1494" height="122.1" transform="matrix(1.0, 0.0, 0.0, 1.0, -39.05, -39.8)" width="78.1" xlink:href="#shape0"/>
    </g>
    <g id="shape0" transform="matrix(1.0, 0.0, 0.0, 1.0, 39.05, 39.8)">
      <path d="M23.85 -24.65 Q19.45 -29.05 14.3 -31.45 7.8 -34.5 0.0 -34.5 -7.75 -34.5 -14.2 -31.5 -19.5 -29.1 -23.9 -24.65 -28.35 -20.25 -30.75 -14.95 -33.75 -8.5 -33.75 -0.75 -33.75 7.05 -30.7 13.55 -28.3 18.7 -23.9 23.1 -20.65 26.35 -16.9 28.6 L-16.85 70.5 16.9 70.5 16.85 28.6 Q20.55 26.35 23.85 23.1 28.2 18.75 30.65 13.65 33.75 7.1 33.75 -0.75 33.75 -8.55 30.7 -15.05 28.2 -20.3 23.85 -24.65 Z" fill="none" stroke="#282828" stroke-linecap="square" stroke-linejoin="miter-clip" stroke-miterlimit="3.0" stroke-width="8.0"/>
      <path d="M16.85 14.15 Q22.5 7.85 22.5 -0.75 22.5 -10.1 15.9 -16.65 9.3 -23.25 0.0 -23.25 -9.35 -23.25 -15.9 -16.65 -22.5 -10.1 -22.5 -0.75 -22.5 7.85 -16.9 14.15 L-16.9 28.6 Q-20.65 26.35 -23.9 23.1 -28.3 18.7 -30.7 13.55 -33.75 7.05 -33.75 -0.75 -33.75 -8.5 -30.75 -14.95 -28.35 -20.25 -23.9 -24.65 -19.5 -29.1 -14.2 -31.5 -7.75 -34.5 0.0 -34.5 7.8 -34.5 14.3 -31.45 19.45 -29.05 23.85 -24.65 28.2 -20.3 30.7 -15.05 33.75 -8.55 33.75 -0.75 33.75 7.1 30.65 13.65 28.2 18.75 23.85 23.1 20.55 26.35 16.85 28.6 L16.85 14.15" fill="#6c6c6c" fill-rule="evenodd" stroke="none"/>
      <path d="M-16.9 14.15 Q-22.5 7.85 -22.5 -0.75 -22.5 -10.1 -15.9 -16.65 -9.35 -23.25 0.0 -23.25 9.3 -23.25 15.9 -16.65 22.5 -10.1 22.5 -0.75 22.5 7.85 16.85 14.15 L15.9 15.15 Q12.75 18.3 9.0 19.95 4.85 21.75 0.0 21.75 -4.9 21.75 -9.0 19.95 -12.8 18.3 -15.9 15.15 L-16.9 14.15" fill="url(#gradient0)" fill-rule="evenodd" stroke="none"/>
      <path d="M16.85 14.15 L16.85 28.6 16.9 70.5 -16.85 70.5 -16.9 28.6 -16.9 14.15 -15.9 15.15 Q-12.8 18.3 -9.0 19.95 -4.9 21.75 0.0 21.75 4.85 21.75 9.0 19.95 12.75 18.3 15.9 15.15 L16.85 14.15" fill="#797979" fill-rule="evenodd" stroke="none"/>
    </g>
    <linearGradient gradientTransform="matrix(0.0118, 0.0204, -0.0238, 0.0138, -0.35, -1.35)" gradientUnits="userSpaceOnUse" id="gradient0" spreadMethod="pad" x1="-819.2" x2="819.2">
      <stop offset="0.14901960784313725" stop-color="#4e4e4e"/>
      <stop offset="1.0" stop-color="#434343"/>
    </linearGradient>
    <g id="sprite2" transform="matrix(1.0, 0.0, 0.0, 1.0, 73.5, 25.35)">
      <use ffdec:characterId="1496" height="50.8" transform="matrix(1.0, 0.0, 0.0, 1.0, -73.5, -25.35)" width="171.3" xlink:href="#shape1"/>
    </g>
    <g id="shape1" transform="matrix(1.0, 0.0, 0.0, 1.0, 73.5, 25.35)">
      <path d="M-45.5 7.25 L-49.75 7.25 -49.75 -6.8 -45.2 -6.8" fill="none" stroke="#282828" stroke-linecap="square" stroke-linejoin="miter-clip" stroke-miterlimit="3.0" stroke-width="8.0"/>
      <path d="M-31.15 -6.8 L-27.2 -15.2" fill="none" stroke="#282828" stroke-linecap="square" stroke-linejoin="miter-clip" stroke-miterlimit="3.0" stroke-width="8.0"/>
      <path d="M-27.2 -15.2 L-27.25 -15.25" fill="none" stroke="#282828" stroke-linecap="round" stroke-linejoin="miter-clip" stroke-miterlimit="3.0" stroke-width="8.0"/>
      <path d="M-27.25 -15.25 L92.5 -15.2 92.5 18.55 -27.25 18.5 -31.4 7.25" fill="none" stroke="#282828" stroke-linecap="round" stroke-linejoin="miter-clip" stroke-miterlimit="3.0" stroke-width="8.0"/>
      <path d="M-45.2 -6.8 L-48.35 -12.2 -57.5 -12.15 -65.0 -7.5 -72.5 -7.5 -72.5 -24.35 -41.3 -24.35 -31.2 -6.8 -45.2 -6.8" fill="url(#gradient1)" fill-rule="evenodd" stroke="none"/>
      <path d="M-49.7 0.0 L-49.75 -6.8 -45.2 -6.8 -31.2 -6.8 -31.15 -6.8 -27.5 0.0 -49.7 0.0 M-27.2 -15.2 L-27.25 -15.25 92.5 -15.2 92.5 0.0 -27.5 0.0 -27.2 -15.2 M-27.25 18.5 L-31.4 7.25 -27.5 0.0 -27.25 18.5" fill="#797979" fill-rule="evenodd" stroke="none"/>
      <path d="M-31.15 -6.8 L-27.2 -15.2 -27.5 0.0 -31.15 -6.8" fill="#a2a2a2" fill-rule="evenodd" stroke="none"/>
      <path d="M92.5 0.0 L92.5 18.55 -27.25 18.5 -27.5 0.0 -31.4 7.25 -45.5 7.25 -49.75 7.25 -49.7 0.0 -27.5 0.0 92.5 0.0" fill="#515151" fill-rule="evenodd" stroke="none"/>
      <path d="M-31.4 7.25 L-41.3 24.4 -72.5 24.45 -72.5 7.5 -65.0 7.5 -57.5 12.2 -48.35 12.2 -45.5 7.25 -31.4 7.25" fill="url(#gradient2)" fill-rule="evenodd" stroke="none"/>
      <path d="M-45.2 -6.8 L-48.35 -12.2 -57.5 -12.15 -65.0 -7.5 -72.5 -7.5 -72.5 -24.35 -41.3 -24.35 -31.2 -6.8 M-31.4 7.25 L-41.3 24.4 -72.5 24.45 -72.5 7.5 -65.0 7.5 -57.5 12.2 -48.35 12.2 -45.5 7.25" fill="none" stroke="#a2a2a2" stroke-linecap="round" stroke-linejoin="round" stroke-width="2.0"/>
    </g>
    <linearGradient gradientTransform="matrix(0.0278, 0.0, 0.0, 0.0107, -53.95, -15.6)" gradientUnits="userSpaceOnUse" id="gradient1" spreadMethod="pad" x1="-819.2" x2="819.2">
      <stop offset="0.0" stop-color="#4e4e4e"/>
      <stop offset="0.807843137254902" stop-color="#0d0d0d"/>
    </linearGradient>
    <linearGradient gradientTransform="matrix(0.0277, 0.0, 0.0, 0.0105, -54.1, 15.8)" gradientUnits="userSpaceOnUse" id="gradient2" spreadMethod="pad" x1="-819.2" x2="819.2">
      <stop offset="0.0" stop-color="#4e4e4e"/>
      <stop offset="0.807843137254902" stop-color="#0d0d0d"/>
    </linearGradient>
    <g id="sprite4" transform="matrix(1.0, 0.0, 0.0, 1.0, 66.8, 38.65)">
      <use ffdec:characterId="1502" height="151.55" transform="matrix(1.0, 0.0, 0.0, 1.0, -66.8, -38.65)" width="106.6" xlink:href="#shape2"/>
    </g>
    <g id="shape2" transform="matrix(1.0, 0.0, 0.0, 1.0, 66.8, 38.65)">
      <path d="M24.6 -23.55 Q34.5 -13.65 34.5 0.4 34.5 14.4 24.6 24.25 14.75 34.15 0.75 34.15 -5.25 34.15 -10.5 32.3 L-10.5 56.65 12.0 79.15 19.5 79.15 29.25 90.55 29.25 107.25 6.4 107.25 0.75 101.65 -4.85 107.25 -10.5 101.65 -16.1 107.25 -21.75 101.65 -27.35 107.25 -33.0 101.65 -38.6 107.25 -61.5 107.25 -61.5 90.55 -51.75 79.15 -33.0 79.15 -55.5 56.65 -55.5 -13.9 -29.95 -13.9 Q-27.55 -19.15 -23.15 -23.55 -18.75 -27.95 -13.5 -30.35 -7.0 -33.4 0.75 -33.35 14.75 -33.4 24.6 -23.55 Z" fill="none" stroke="#282828" stroke-linecap="square" stroke-linejoin="miter-clip" stroke-miterlimit="3.0" stroke-width="8.0"/>
      <path d="M-29.95 -13.9 Q-27.55 -19.15 -23.15 -23.55 -18.75 -27.95 -13.5 -30.35 -7.0 -33.4 0.75 -33.35 14.75 -33.4 24.6 -23.55 34.5 -13.65 34.5 0.4 34.5 14.4 24.6 24.25 14.75 34.15 0.75 34.15 -5.25 34.15 -10.5 32.3 -15.3 30.65 -19.5 27.45 L-23.15 24.25 Q-31.85 15.55 -32.85 3.6 L-33.0 0.4 Q-33.0 -7.4 -29.95 -13.9 M12.0 79.15 L19.5 79.15 29.25 90.55 -61.5 90.55 -51.75 79.15 -33.0 79.15 12.0 79.15 M14.65 -13.6 Q8.9 -19.3 0.75 -19.3 -7.4 -19.3 -13.2 -13.6 -18.95 -7.8 -18.9 0.4 -18.95 8.55 -13.2 14.25 -7.4 20.05 0.75 20.1 8.9 20.05 14.65 14.25 20.45 8.55 20.45 0.4 20.45 -7.8 14.65 -13.6" fill="#a2a2a2" fill-rule="evenodd" stroke="none"/>
      <path d="M14.65 -13.6 Q20.45 -7.8 20.45 0.4 20.45 8.55 14.65 14.25 8.9 20.05 0.75 20.1 -7.4 20.05 -13.2 14.25 -18.95 8.55 -18.9 0.4 -18.95 -7.8 -13.2 -13.6 -7.4 -19.3 0.75 -19.3 8.9 -19.3 14.65 -13.6" fill="url(#gradient3)" fill-rule="evenodd" stroke="none"/>
      <path d="M-10.5 32.3 L-10.5 56.65 -33.0 79.15 -55.5 56.65 -55.5 -13.9 -29.95 -13.9 Q-33.0 -7.4 -33.0 0.4 L-32.85 3.6 Q-31.85 15.55 -23.15 24.25 L-19.5 27.45 Q-15.3 30.65 -10.5 32.3 M29.25 90.55 L29.25 107.25 6.4 107.25 0.75 101.65 -4.85 107.25 -10.5 101.65 -16.1 107.25 -21.75 101.65 -27.35 107.25 -33.0 101.65 -38.6 107.25 -61.5 107.25 -61.5 90.55 29.25 90.55" fill="#515151" fill-rule="evenodd" stroke="none"/>
      <path d="M-10.5 56.65 L12.0 79.15 -33.0 79.15 -10.5 56.65" fill="#171717" fill-rule="evenodd" stroke="none"/>
    </g>
    <linearGradient gradientTransform="matrix(0.0, 0.0353, -0.0412, 0.0, 0.75, -0.1)" gradientUnits="userSpaceOnUse" id="gradient3" spreadMethod="pad" x1="-819.2" x2="819.2">
      <stop offset="0.14901960784313725" stop-color="#4e4e4e"/>
      <stop offset="1.0" stop-color="#434343"/>
    </linearGradient>
    <g id="sprite5" transform="matrix(1.0, 0.0, 0.0, 1.0, 74.0, 74.0)">
      <use ffdec:characterId="1504" height="226.65" transform="matrix(1.0, 0.0, 0.0, 1.0, -74.0, -74.0)" width="148.0" xlink:href="#shape3"/>
    </g>
    <g id="shape3" transform="matrix(1.0, 0.0, 0.0, 1.0, 74.0, 74.0)">
      <path d="M60.2 60.0 Q65.0 71.5 65.0 85.0 65.0 98.5 60.2 110.0 L-60.2 110.0 Q-65.0 98.5 -65.0 85.0 -65.0 71.5 -60.2 60.0 L60.2 60.0" fill="#cccccc" fill-rule="evenodd" stroke="none"/>
      <path d="M60.2 110.0 Q55.45 121.45 45.95 130.95 26.9 150.0 0.0 150.0 -26.9 150.0 -45.95 130.95 -55.45 121.45 -60.2 110.0 L60.2 110.0 M-60.2 60.0 Q-55.45 48.55 -45.95 39.05 -26.9 20.0 0.0 20.0 26.9 20.0 45.95 39.05 55.45 48.55 60.2 60.0 L-60.2 60.0" fill="#999999" fill-rule="evenodd" stroke="none"/>
      <path d="M60.2 60.0 Q65.0 71.5 65.0 85.0 65.0 98.5 60.2 110.0 55.45 121.45 45.95 130.95 26.9 150.0 0.0 150.0 -26.9 150.0 -45.95 130.95 -55.45 121.45 -60.2 110.0 -65.0 98.5 -65.0 85.0 -65.0 71.5 -60.2 60.0 -55.45 48.55 -45.95 39.05 -26.9 20.0 0.0 20.0 26.9 20.0 45.95 39.05 55.45 48.55 60.2 60.0 L-60.2 60.0 M-60.2 110.0 L60.2 110.0" fill="none" stroke="#333333" stroke-linecap="round" stroke-linejoin="miter-clip" stroke-miterlimit="3.0" stroke-width="4.0"/>
      <path d="M47.1 82.9 Q46.2 82.0 45.0 82.0 43.8 82.0 42.9 82.85 L42.85 82.9 Q42.0 83.8 42.0 85.0 42.0 86.2 42.9 87.1 43.75 88.0 45.0 88.0 46.2 88.0 47.05 87.1 L47.1 87.05 Q48.0 86.2 48.0 85.0 48.0 83.75 47.1 82.9 M38.0 85.0 Q38.0 82.15 40.0 80.05 L40.05 80.0 Q42.15 78.0 45.0 78.0 47.9 78.0 49.95 80.05 52.0 82.15 52.0 85.0 52.0 87.85 49.95 89.9 L49.9 89.95 Q47.85 92.0 45.0 92.0 42.15 92.0 40.05 89.95 38.0 87.9 38.0 85.0" fill="#999999" fill-rule="evenodd" stroke="none"/>
      <path d="M-49.95 80.0 Q-47.85 78.0 -45.0 78.0 -42.1 78.0 -40.05 80.05 -38.0 82.15 -38.0 85.0 -38.0 87.85 -40.05 89.9 L-40.1 89.95 Q-42.15 92.0 -45.0 92.0 -47.85 92.0 -49.95 89.95 -52.0 87.9 -52.0 85.0 -52.0 82.15 -50.0 80.05 L-49.95 80.0 M-42.9 82.9 Q-43.8 82.0 -45.0 82.0 -46.2 82.0 -47.1 82.85 L-47.15 82.9 Q-48.0 83.8 -48.0 85.0 -48.0 86.2 -47.1 87.1 -46.25 88.0 -45.0 88.0 -43.8 88.0 -42.95 87.1 L-42.9 87.05 Q-42.0 86.2 -42.0 85.0 -42.0 83.75 -42.9 82.9" fill="#999999" fill-rule="evenodd" stroke="none"/>
      <path d="M2.1 82.9 Q1.2 82.0 0.0 82.0 -1.2 82.0 -2.1 82.85 L-2.15 82.9 Q-3.0 83.8 -3.0 85.0 -3.0 86.2 -2.1 87.1 -1.25 88.0 0.0 88.0 1.2 88.0 2.05 87.1 L2.1 87.05 Q3.0 86.2 3.0 85.0 3.0 83.75 2.1 82.9 M4.95 80.05 Q7.0 82.15 7.0 85.0 7.0 87.85 4.95 89.9 L4.9 89.95 Q2.85 92.0 0.0 92.0 -2.85 92.0 -4.95 89.95 -7.0 87.9 -7.0 85.0 -7.0 82.15 -5.0 80.05 L-4.95 80.0 Q-2.85 78.0 0.0 78.0 2.9 78.0 4.95 80.05" fill="#999999" fill-rule="evenodd" stroke="none"/>
      <path d="M50.0 -20.0 L50.0 0.0 60.0 0.0 60.0 50.0 -60.0 50.0 -60.0 0.0 -50.0 0.0 -50.0 -20.0 -50.0 -60.0 -50.0 -70.0 50.0 -70.0 50.0 -60.0 50.0 -20.0 M0.0 -48.0 L-18.0 -21.0 18.0 -21.0 0.0 -48.0 M-50.0 0.0 L-40.0 10.0 -30.0 0.0 -20.0 10.0 -10.0 0.0 0.0 10.0 10.0 0.0 20.0 10.0 30.0 0.0 40.0 10.0 50.0 0.0 40.0 10.0 30.0 0.0 20.0 10.0 10.0 0.0 0.0 10.0 -10.0 0.0 -20.0 10.0 -30.0 0.0 -40.0 10.0 -50.0 0.0 M0.0 -59.9 L30.0 -14.9 -30.0 -14.9 0.0 -59.9 -30.0 -14.9 30.0 -14.9 0.0 -59.9 M49.0 -60.0 L49.0 -20.0 49.0 -60.0 M-49.0 -60.0 L-49.0 -20.0 -49.0 -60.0" fill="#cccccc" fill-rule="evenodd" stroke="none"/>
      <path d="M50.0 -60.0 L60.0 -60.0 60.0 -50.0 70.0 -50.0 70.0 -30.0 60.0 -30.0 60.0 -20.0 50.0 -20.0 50.0 -60.0 M-50.0 -20.0 L-60.0 -20.0 -60.0 -30.0 -70.0 -30.0 -70.0 -50.0 -60.0 -50.0 -60.0 -60.0 -50.0 -60.0 -50.0 -20.0 M60.0 -50.0 L60.0 -30.0 60.0 -50.0 M-60.0 -50.0 L-60.0 -30.0 -60.0 -50.0" fill="#666666" fill-rule="evenodd" stroke="none"/>
      <path d="M0.0 -48.0 L18.0 -21.0 -18.0 -21.0 0.0 -48.0" fill="#990099" fill-rule="evenodd" stroke="none"/>
      <path d="M50.0 -60.0 L60.0 -60.0 60.0 -50.0 70.0 -50.0 70.0 -30.0 60.0 -30.0 60.0 -20.0 50.0 -20.0 50.0 0.0 60.0 0.0 60.0 50.0 -60.0 50.0 -60.0 0.0 -50.0 0.0 -50.0 -20.0 -60.0 -20.0 -60.0 -30.0 -70.0 -30.0 -70.0 -50.0 -60.0 -50.0 -60.0 -60.0 -50.0 -60.0 -50.0 -70.0 50.0 -70.0 50.0 -60.0 M60.0 -30.0 L60.0 -50.0 M-60.0 -30.0 L-60.0 -50.0" fill="none" stroke="#333333" stroke-linecap="square" stroke-linejoin="miter-clip" stroke-miterlimit="10.0" stroke-width="6.0"/>
      <path d="M49.0 -20.0 L49.0 -60.0 M0.0 -59.9 L-30.0 -14.9 30.0 -14.9 0.0 -59.9 M50.0 0.0 L40.0 10.0 30.0 0.0 20.0 10.0 10.0 0.0 0.0 10.0 -10.0 0.0 -20.0 10.0 -30.0 0.0 -40.0 10.0 -50.0 0.0 M-49.0 -20.0 L-49.0 -60.0" fill="none" stroke="#333333" stroke-linecap="square" stroke-linejoin="miter-clip" stroke-miterlimit="10.0" stroke-width="4.0"/>
      <path d="M0.1 -37.95 L8.1 -25.95 -7.9 -25.95 0.1 -37.95" fill="#ff00ff" fill-rule="evenodd" stroke="none"/>
      <path d="M-37.9 27.9 Q-38.8 27.0 -40.0 27.0 -41.2 27.0 -42.1 27.85 L-42.15 27.9 Q-43.0 28.8 -43.0 30.0 -43.0 31.2 -42.1 32.1 -41.25 33.0 -40.0 33.0 -38.8 33.0 -37.95 32.1 L-37.9 32.05 Q-37.0 31.2 -37.0 30.0 -37.0 28.75 -37.9 27.9 M-35.05 25.05 Q-33.0 27.15 -33.0 30.0 -33.0 32.85 -35.05 34.9 L-35.1 34.95 Q-37.15 37.0 -40.0 37.0 -42.85 37.0 -44.95 34.95 -47.0 32.9 -47.0 30.0 -47.0 27.15 -45.0 25.05 L-44.95 25.0 Q-42.85 23.0 -40.0 23.0 -37.1 23.0 -35.05 25.05" fill="#999999" fill-rule="evenodd" stroke="none"/>
      <path d="M43.0 30.0 Q43.0 28.75 42.1 27.9 41.2 27.0 40.0 27.0 38.8 27.0 37.9 27.85 L37.85 27.9 Q37.0 28.8 37.0 30.0 37.0 31.2 37.9 32.1 38.75 33.0 40.0 33.0 41.2 33.0 42.05 32.1 L42.1 32.05 Q43.0 31.2 43.0 30.0 M44.95 25.05 Q47.0 27.15 47.0 30.0 47.0 32.85 44.95 34.9 L44.9 34.95 Q42.85 37.0 40.0 37.0 37.15 37.0 35.05 34.95 33.0 32.9 33.0 30.0 33.0 27.15 35.0 25.05 L35.05 25.0 Q37.15 23.0 40.0 23.0 42.9 23.0 44.95 25.05" fill="#999999" fill-rule="evenodd" stroke="none"/>
    </g>
  </defs>
</svg>
