<?xml version="1.0" encoding="UTF-8" standalone="no"?>
<svg xmlns:ffdec="https://www.free-decompiler.com/flash" xmlns:xlink="http://www.w3.org/1999/xlink" ffdec:objectType="shape" height="181.0px" width="251.1px" xmlns="http://www.w3.org/2000/svg">
  <g transform="matrix(1.0, 0.0, 0.0, 1.0, 125.55, 90.5)">
    <path d="M34.65 -15.0 L39.65 -10.0 29.25 0.4 Q36.7 1.7 42.3 7.3 49.65 14.65 49.65 25.0 49.65 35.35 42.3 42.65 35.0 50.0 24.65 50.0 14.3 50.0 6.95 42.65 1.35 37.05 0.05 29.6 L-0.35 30.0 -0.75 29.6 Q-2.05 37.05 -7.7 42.65 -15.0 50.0 -25.35 50.0 -35.7 50.0 -43.05 42.65 -50.35 35.35 -50.35 25.0 -50.35 14.65 -43.05 7.3 -37.4 1.7 -29.95 0.4 L-40.35 -10.0 -35.35 -15.0 -19.75 0.6 Q-12.95 2.05 -7.7 7.3 -2.4 12.6 -0.9 19.45 L-0.35 20.0 0.25 19.45 Q1.7 12.6 6.95 7.3 12.25 2.05 19.1 0.6 L34.65 -15.0 M39.9 9.75 Q34.1 3.95 26.2 3.5 L24.65 3.45 Q17.85 3.45 12.6 7.1 10.9 8.2 9.4 9.75 7.9 11.25 6.75 12.9 3.1 18.2 3.1 25.0 L3.15 26.5 Q3.65 34.45 9.4 40.2 15.75 46.55 24.65 46.55 33.6 46.55 39.9 40.2 46.2 33.9 46.2 25.0 46.2 16.05 39.9 9.75 M-7.5 12.85 Q-8.65 11.2 -10.1 9.75 -11.6 8.25 -13.25 7.1 -18.55 3.45 -25.35 3.45 L-26.85 3.5 Q-34.8 3.95 -40.6 9.75 -46.9 16.05 -46.9 25.0 -46.9 33.9 -40.6 40.2 -34.25 46.55 -25.35 46.55 -16.4 46.55 -10.1 40.2 -4.35 34.45 -3.85 26.5 L-3.8 25.0 Q-3.8 18.15 -7.5 12.85" fill="#000000" fill-rule="evenodd" stroke="none"/>
    <path d="M8.8 -1.9 L8.85 -1.85 8.9 -1.8 8.8 -1.9 M34.65 -15.0 L19.1 0.6 Q12.25 2.05 6.95 7.3 1.7 12.6 0.25 19.45 L-0.35 20.0 -0.9 19.45 Q-2.4 12.6 -7.7 7.3 -12.95 2.05 -19.75 0.6 L-35.35 -15.0 -40.35 -10.0 -29.95 0.4 Q-37.4 1.7 -43.05 7.3 -50.35 14.65 -50.35 25.0 -50.35 35.35 -43.05 42.65 -35.7 50.0 -25.35 50.0 -15.0 50.0 -7.7 42.65 -2.05 37.05 -0.75 29.6 L-0.35 30.0 0.05 29.6 Q1.35 37.05 6.95 42.65 14.3 50.0 24.65 50.0 35.0 50.0 42.3 42.65 49.65 35.35 49.65 25.0 49.65 14.65 42.3 7.3 36.7 1.7 29.25 0.4 L39.65 -10.0 34.65 -15.0 M59.65 60.0 L-60.35 60.0 -60.35 -59.95 59.65 -59.95 59.65 60.0" fill="#333333" fill-rule="evenodd" stroke="none"/>
    <path d="M39.9 9.75 Q46.2 16.05 46.2 25.0 46.2 33.9 39.9 40.2 33.6 46.55 24.65 46.55 15.75 46.55 9.4 40.2 3.65 34.45 3.15 26.5 L3.1 25.0 Q3.1 18.2 6.75 12.9 7.9 11.25 9.4 9.75 10.9 8.2 12.6 7.1 17.85 3.45 24.65 3.45 L26.2 3.5 Q34.1 3.95 39.9 9.75 M-7.5 12.85 Q-3.8 18.15 -3.8 25.0 L-3.85 26.5 Q-4.35 34.45 -10.1 40.2 -16.4 46.55 -25.35 46.55 -34.25 46.55 -40.6 40.2 -46.9 33.9 -46.9 25.0 -46.9 16.05 -40.6 9.75 -34.8 3.95 -26.85 3.5 L-25.35 3.45 Q-18.55 3.45 -13.25 7.1 -11.6 8.25 -10.1 9.75 -8.65 11.2 -7.5 12.85" fill="#ffffff" fill-rule="evenodd" stroke="none"/>
    <path d="M59.65 60.0 L-60.35 60.0 -60.35 -59.95 59.65 -59.95 59.65 60.0" fill="none" stroke="#666666" stroke-linecap="square" stroke-linejoin="miter-clip" stroke-miterlimit="3.0" stroke-width="6.0"/>
    <path d="M125.05 90.0 L-125.05 90.0 -125.05 -90.0 125.05 -90.0 125.05 90.0 Z" fill="none" stroke="#010101" stroke-linecap="round" stroke-linejoin="round" stroke-opacity="0.0" stroke-width="1.0"/>
    <path d="M-37.25 23.5 Q-36.35 21.65 -34.85 20.1 -30.95 16.35 -25.65 16.35 -20.35 16.35 -16.6 20.1 -15.0 21.7 -14.05 23.5 L-21.8 27.4 Q-22.1 26.75 -22.65 26.25 -23.9 25.0 -25.65 25.0 -27.4 25.0 -28.7 26.25 L-29.5 27.35 -37.25 23.5" fill="#336666" fill-rule="evenodd" stroke="none"/>
    <path d="M-29.5 27.35 L-28.7 26.25 Q-27.4 25.0 -25.65 25.0 -23.9 25.0 -22.65 26.25 -22.1 26.75 -21.8 27.4 -21.35 28.25 -21.35 29.3 -21.35 30.35 -21.8 31.25 L-22.65 32.3 -23.95 33.25 -25.65 33.6 Q-27.4 33.6 -28.7 32.3 -29.95 31.05 -29.95 29.3 -29.95 28.25 -29.5 27.35" fill="#000000" fill-rule="evenodd" stroke="none"/>
    <path d="M-37.25 23.5 L-29.5 27.35 Q-29.95 28.25 -29.95 29.3 -29.95 31.05 -28.7 32.3 -27.4 33.6 -25.65 33.6 L-23.95 33.25 -20.5 41.15 Q-22.85 42.25 -25.65 42.25 -30.95 42.25 -34.85 38.35 -38.6 34.6 -38.6 29.3 -38.6 26.15 -37.25 23.5 M-21.8 27.4 L-14.05 23.5 Q-12.7 26.15 -12.7 29.3 -12.7 32.45 -14.1 35.05 L-21.8 31.25 Q-21.35 30.35 -21.35 29.3 -21.35 28.25 -21.8 27.4" fill="#669999" fill-rule="evenodd" stroke="none"/>
    <path d="M-14.1 35.05 Q-15.05 36.85 -16.6 38.35 -18.35 40.15 -20.5 41.15 L-23.95 33.25 -22.65 32.3 -21.8 31.25 -14.1 35.05" fill="#99cccc" fill-rule="evenodd" stroke="none"/>
    <path d="M-29.9 21.45 L-29.35 22.15 Q-29.1 22.65 -29.1 23.25 L-29.35 24.45 -29.9 25.1 -30.65 25.65 -31.7 25.85 Q-32.75 25.85 -33.5 25.1 -34.3 24.35 -34.3 23.25 L-34.0 22.1 -33.5 21.45 Q-32.75 20.7 -31.7 20.7 -30.6 20.7 -29.9 21.45" fill="#ffffff" fill-rule="evenodd" stroke="none"/>
    <path d="M-17.9 35.75 Q-17.4 35.75 -17.0 36.15 L-16.75 36.5 Q-16.6 36.75 -16.6 37.05 L-16.75 37.65 -17.0 37.95 -17.4 38.25 -17.9 38.35 Q-18.4 38.35 -18.8 37.95 -19.2 37.55 -19.2 37.05 L-19.0 36.5 -18.8 36.15 Q-18.4 35.75 -17.9 35.75" fill="#ffffff" fill-rule="evenodd" stroke="none"/>
    <path d="M12.75 23.5 Q13.65 21.65 15.15 20.1 19.05 16.35 24.35 16.35 29.65 16.35 33.4 20.1 35.0 21.7 35.95 23.5 L28.2 27.4 27.35 26.25 Q26.1 25.0 24.35 25.0 22.6 25.0 21.3 26.25 20.75 26.75 20.5 27.35 L12.75 23.5" fill="#336666" fill-rule="evenodd" stroke="none"/>
    <path d="M12.75 23.5 L20.5 27.35 Q20.05 28.25 20.05 29.3 20.05 31.05 21.3 32.3 22.6 33.6 24.35 33.6 L26.05 33.25 29.5 41.15 Q27.15 42.25 24.35 42.25 19.05 42.25 15.15 38.35 11.4 34.6 11.4 29.3 11.4 26.15 12.75 23.5 M28.2 27.4 L35.95 23.5 Q37.3 26.15 37.3 29.3 37.3 32.45 35.9 35.05 L28.2 31.25 28.65 29.3 Q28.65 28.25 28.2 27.4" fill="#669999" fill-rule="evenodd" stroke="none"/>
    <path d="M20.5 27.35 Q20.75 26.75 21.3 26.25 22.6 25.0 24.35 25.0 26.1 25.0 27.35 26.25 L28.2 27.4 Q28.65 28.25 28.65 29.3 L28.2 31.25 27.35 32.3 26.05 33.25 24.35 33.6 Q22.6 33.6 21.3 32.3 20.05 31.05 20.05 29.3 20.05 28.25 20.5 27.35" fill="#000000" fill-rule="evenodd" stroke="none"/>
    <path d="M35.9 35.05 Q34.95 36.85 33.4 38.35 31.65 40.15 29.5 41.15 L26.05 33.25 27.35 32.3 28.2 31.25 35.9 35.05" fill="#99cccc" fill-rule="evenodd" stroke="none"/>
    <path d="M20.9 23.25 L20.65 24.45 20.1 25.1 19.35 25.65 18.3 25.85 Q17.25 25.85 16.5 25.1 15.7 24.35 15.7 23.25 15.7 22.65 16.0 22.1 L16.5 21.45 Q17.25 20.7 18.3 20.7 19.4 20.7 20.1 21.45 L20.65 22.15 20.9 23.25" fill="#ffffff" fill-rule="evenodd" stroke="none"/>
    <path d="M32.1 35.75 Q32.6 35.75 33.0 36.15 L33.25 36.5 33.4 37.05 33.25 37.65 33.0 37.95 32.6 38.25 32.1 38.35 Q31.6 38.35 31.2 37.95 30.8 37.55 30.8 37.05 L31.0 36.5 31.2 36.15 Q31.6 35.75 32.1 35.75" fill="#ffffff" fill-rule="evenodd" stroke="none"/>
    <path d="M29.65 -30.0 L39.65 -20.0 -0.35 20.0 -40.35 -20.0 -30.35 -30.0 -0.35 0.0 29.65 -30.0" fill="#666666" fill-rule="evenodd" stroke="none"/>
  </g>
</svg>
