<?xml version="1.0" encoding="UTF-8" standalone="no"?>
<svg xmlns:ffdec="https://www.free-decompiler.com/flash" xmlns:xlink="http://www.w3.org/1999/xlink" ffdec:objectType="shape" height="48.0px" width="48.0px" xmlns="http://www.w3.org/2000/svg">
  <g transform="matrix(1.0, 0.0, 0.0, 1.0, 24.0, 24.0)">
    <path d="M20.0 -7.2 L20.0 -6.15 Q19.8 5.5 10.2 13.85 5.55 17.85 0.0 20.0 -5.6 17.85 -10.25 13.85 -19.85 5.5 -20.0 -6.15 L-20.0 -7.2 Q-19.8 -12.35 -16.85 -16.05 -13.65 -20.0 -9.15 -20.0 -4.7 -20.0 -1.5 -16.05 L0.0 -13.75 Q0.6 -15.0 1.5 -16.05 4.65 -20.0 9.2 -20.0 13.7 -20.0 16.85 -16.05 19.85 -12.35 20.0 -7.2 Z" fill="none" stroke="#ffffff" stroke-linecap="round" stroke-linejoin="bevel" stroke-opacity="0.101960786" stroke-width="8.0"/>
  </g>
</svg>
