<?xml version="1.0" encoding="UTF-8" standalone="no"?>
<svg xmlns:ffdec="https://www.free-decompiler.com/flash" xmlns:xlink="http://www.w3.org/1999/xlink" ffdec:objectType="shape" height="60.0px" width="60.0px" xmlns="http://www.w3.org/2000/svg">
  <g transform="matrix(1.0, 0.0, 0.0, 1.0, 30.0, 30.0)">
    <path d="M21.2 -21.25 Q30.0 -12.4 30.0 0.0 30.0 12.4 21.2 21.2 12.4 30.0 0.0 30.0 -12.4 30.0 -21.25 21.2 -30.0 12.4 -30.0 0.0 -30.0 -12.4 -21.25 -21.25 -12.4 -30.0 0.0 -30.0 12.4 -30.0 21.2 -21.25 M16.3 -16.3 Q9.55 -23.05 0.0 -23.05 -8.35 -23.05 -14.55 -17.85 L-16.3 -16.3 Q-23.05 -9.55 -23.05 0.0 -23.05 8.45 -17.75 14.7 L-16.3 16.3 Q-9.55 23.1 0.0 23.1 9.55 23.1 16.3 16.3 21.85 10.75 22.85 3.3 L23.1 0.0 Q23.1 -9.55 16.3 -16.3" fill="#ffcc00" fill-opacity="0.7019608" fill-rule="evenodd" stroke="none"/>
    <path d="M16.3 -16.3 Q23.1 -9.55 23.1 0.0 L22.85 3.3 Q21.85 10.75 16.3 16.3 9.55 23.1 0.0 23.1 -9.55 23.1 -16.3 16.3 L-17.75 14.7 Q-23.05 8.45 -23.05 0.0 -23.05 -9.55 -16.3 -16.3 L-14.55 -17.85 Q-8.35 -23.05 0.0 -23.05 9.55 -23.05 16.3 -16.3" fill="url(#gradient0)" fill-rule="evenodd" stroke="none"/>
    <path d="M16.3 -16.3 Q23.1 -9.55 23.1 0.0 L22.85 3.3 Q21.85 10.75 16.3 16.3 9.55 23.1 0.0 23.1 -9.55 23.1 -16.3 16.3 L-17.75 14.7 Q-23.05 8.45 -23.05 0.0 -23.05 -9.55 -16.3 -16.3 L-14.55 -17.85 Q-8.35 -23.05 0.0 -23.05 9.55 -23.05 16.3 -16.3 Z" fill="none" stroke="#ffcc00" stroke-linecap="round" stroke-linejoin="round" stroke-width="4.0"/>
    <path d="M4.0 -7.5 Q5.55 -9.1 7.8 -9.05 9.95 -9.1 11.55 -7.5 13.1 -5.95 13.1 -3.75 13.1 -1.55 11.55 0.0 9.95 1.55 7.8 1.6 5.55 1.55 4.0 0.0 2.4 -1.55 2.45 -3.75 2.4 -5.95 4.0 -7.5 M9.4 4.8 Q10.4 5.8 10.45 7.25 10.4 8.75 9.4 9.8 8.35 10.8 6.9 10.8 5.4 10.8 4.35 9.8 3.35 8.75 3.35 7.25 3.35 5.8 4.35 4.8 5.4 3.7 6.9 3.7 8.35 3.7 9.4 4.8 M-12.05 -4.55 Q-11.05 -5.6 -9.5 -5.6 -8.05 -5.6 -7.05 -4.55 -6.0 -3.5 -5.95 -2.05 -6.0 -0.6 -7.05 0.5 -8.05 1.5 -9.5 1.5 -11.05 1.5 -12.05 0.5 -13.05 -0.6 -13.05 -2.05 -13.05 -3.5 -12.05 -4.55 M-5.4 -12.1 Q-4.35 -13.15 -2.85 -13.15 -1.4 -13.15 -0.4 -12.1 0.65 -11.05 0.7 -9.6 0.65 -8.15 -0.4 -7.05 -1.4 -6.05 -2.85 -6.05 -4.35 -6.05 -5.4 -7.05 -6.4 -8.15 -6.4 -9.6 -6.4 -11.05 -5.4 -12.1 M-8.4 4.05 Q-6.85 2.45 -4.65 2.5 -2.45 2.45 -0.85 4.05 0.7 5.6 0.7 7.8 0.7 10.0 -0.85 11.55 -2.45 13.1 -4.65 13.15 -6.85 13.1 -8.4 11.55 -10.0 10.0 -9.95 7.8 -10.0 5.6 -8.4 4.05" fill="#ff0000" fill-opacity="0.4" fill-rule="evenodd" stroke="none"/>
  </g>
  <defs>
    <radialGradient cx="0" cy="0" gradientTransform="matrix(0.0283, 0.0, 0.0, 0.0283, 0.0, 0.0)" gradientUnits="userSpaceOnUse" id="gradient0" r="819.2" spreadMethod="pad">
      <stop offset="0.5019607843137255" stop-color="#ffcc00"/>
      <stop offset="1.0" stop-color="#ff0000"/>
    </radialGradient>
  </defs>
</svg>
