<?xml version="1.0" encoding="UTF-8" standalone="no"?>
<svg xmlns:ffdec="https://www.free-decompiler.com/flash" xmlns:xlink="http://www.w3.org/1999/xlink" ffdec:objectType="shape" height="22.5px" width="50.65px" xmlns="http://www.w3.org/2000/svg">
  <g transform="matrix(1.0, 0.0, 0.0, 1.0, 35.65, 11.25)">
    <path d="M-3.0 11.25 L-35.65 11.25 -35.65 -11.25 -3.0 -11.25 -15.0 0.0 -3.0 11.25" fill="url(#gradient0)" fill-rule="evenodd" stroke="none"/>
    <path d="M-3.0 11.25 L-15.0 0.0 -3.0 -11.25 3.0 -11.25 15.0 0.0 3.0 11.25 -3.0 11.25 M-9.35 0.0 L-1.35 7.5 1.35 7.5 9.35 0.0 1.35 -7.45 -1.35 -7.45 -9.35 0.0" fill="#4fff00" fill-opacity="0.6" fill-rule="evenodd" stroke="none"/>
    <path d="M-9.35 0.0 L-1.35 -7.45 1.35 -7.45 9.35 0.0 1.35 7.5 -1.35 7.5 -9.35 0.0 M0.05 3.5 L3.7 0.0 0.05 -3.45 -3.65 0.0 0.05 3.5" fill="#4fff00" fill-rule="evenodd" stroke="none"/>
    <path d="M0.05 3.5 L-3.65 0.0 0.05 -3.45 3.7 0.0 0.05 3.5" fill="#ffffff" fill-rule="evenodd" stroke="none"/>
  </g>
  <defs>
    <linearGradient gradientTransform="matrix(0.0199, 0.0, 0.0, 0.0137, -19.35, 0.0)" gradientUnits="userSpaceOnUse" id="gradient0" spreadMethod="pad" x1="-819.2" x2="819.2">
      <stop offset="0.0" stop-color="#4fff00" stop-opacity="0.0"/>
      <stop offset="1.0" stop-color="#4fff00" stop-opacity="0.6"/>
    </linearGradient>
  </defs>
</svg>
