<?xml version="1.0" encoding="UTF-8" standalone="no"?>
<svg xmlns:ffdec="https://www.free-decompiler.com/flash" xmlns:xlink="http://www.w3.org/1999/xlink" ffdec:objectType="shape" height="18.0px" width="68.0px" xmlns="http://www.w3.org/2000/svg">
  <g transform="matrix(1.0, 0.0, 0.0, 1.0, -65.05, -4.0)">
    <path d="M130.4 19.35 Q127.75 22.0 124.05 22.0 120.3 22.0 117.65 19.35 115.0 16.75 115.05 13.0 115.0 9.25 117.65 6.6 120.3 4.0 124.05 4.0 127.75 4.0 130.4 6.6 133.05 9.25 133.05 13.0 133.05 16.75 130.4 19.35 M105.4 19.35 Q102.75 22.0 99.05 22.0 95.3 22.0 92.65 19.35 90.0 16.75 90.05 13.0 90.0 9.25 92.65 6.6 95.3 4.0 99.05 4.0 102.75 4.0 105.4 6.6 108.05 9.25 108.05 13.0 108.05 16.75 105.4 19.35 M80.4 6.6 Q83.05 9.25 83.05 13.0 83.05 16.75 80.4 19.35 77.75 22.0 74.05 22.0 70.3 22.0 67.65 19.35 65.0 16.75 65.05 13.0 65.0 9.25 67.65 6.6 70.3 4.0 74.05 4.0 77.75 4.0 80.4 6.6" fill="#000000" fill-opacity="0.4" fill-rule="evenodd" stroke="none"/>
  </g>
</svg>
