<?xml version="1.0" encoding="UTF-8" standalone="no"?>
<svg xmlns:ffdec="https://www.free-decompiler.com/flash" xmlns:xlink="http://www.w3.org/1999/xlink" ffdec:objectType="shape" height="14.0px" width="14.0px" xmlns="http://www.w3.org/2000/svg">
  <g transform="matrix(1.0, 0.0, 0.0, 1.0, 0.0, 0.0)">
    <path d="M14.0 3.0 L14.0 8.0 13.0 8.0 13.0 9.0 12.0 9.0 12.0 10.0 11.0 10.0 11.0 11.0 10.0 11.0 10.0 12.0 9.0 12.0 9.0 13.0 8.0 13.0 8.0 14.0 6.0 14.0 6.0 13.0 5.0 13.0 5.0 12.0 4.0 12.0 4.0 11.0 3.0 11.0 3.0 10.0 2.0 10.0 2.0 9.0 1.0 9.0 1.0 8.0 0.0 8.0 0.0 3.0 1.0 3.0 1.0 2.0 2.0 2.0 2.0 1.0 3.0 1.0 3.0 0.0 6.0 0.0 6.0 1.0 8.0 1.0 8.0 0.0 11.0 0.0 11.0 1.0 12.0 1.0 12.0 2.0 13.0 2.0 13.0 3.0 14.0 3.0" fill="#ffffff" fill-opacity="0.49803922" fill-rule="evenodd" stroke="none"/>
  </g>
</svg>
