<?xml version="1.0" encoding="UTF-8" standalone="no"?>
<svg xmlns:ffdec="https://www.free-decompiler.com/flash" xmlns:xlink="http://www.w3.org/1999/xlink" ffdec:objectType="shape" height="24.0px" width="46.0px" xmlns="http://www.w3.org/2000/svg">
  <g transform="matrix(1.0, 0.0, 0.0, 1.0, 1.0, -2.0)">
    <path d="M44.0 7.0 L44.0 21.0 Q44.0 25.0 40.0 25.0 L4.0 25.0 Q0.0 25.0 0.0 21.0 L0.0 7.0 Q0.0 3.0 4.0 3.0 L40.0 3.0 Q44.0 3.0 44.0 7.0" fill="url(#gradient0)" fill-rule="evenodd" stroke="none"/>
    <path d="M0.0 7.0 L0.0 21.0 Q0.0 25.0 4.0 25.0 L40.0 25.0 Q44.0 25.0 44.0 21.0 L44.0 7.0" fill="none" stroke="#000000" stroke-linecap="round" stroke-linejoin="round" stroke-width="2.0"/>
    <path d="M44.0 7.0 Q44.0 3.0 40.0 3.0 L4.0 3.0 Q0.0 3.0 0.0 7.0" fill="none" stroke="#000000" stroke-linecap="round" stroke-linejoin="round" stroke-width="2.0"/>
  </g>
  <defs>
    <linearGradient gradientTransform="matrix(0.0, 0.0153, -0.0354, 0.0, 29.0, 16.5)" gradientUnits="userSpaceOnUse" id="gradient0" spreadMethod="pad" x1="-819.2" x2="819.2">
      <stop offset="0.00784313725490196" stop-color="#860187"/>
      <stop offset="1.0" stop-color="#640165"/>
    </linearGradient>
  </defs>
</svg>
