<?xml version="1.0" encoding="UTF-8" standalone="no"?>
<svg xmlns:ffdec="https://www.free-decompiler.com/flash" xmlns:xlink="http://www.w3.org/1999/xlink" ffdec:objectType="shape" height="36.0px" width="66.0px" xmlns="http://www.w3.org/2000/svg">
  <g transform="matrix(1.0, 0.0, 0.0, 1.0, 33.0, 3.0)">
    <path d="M30.0 30.0 L-30.0 30.0 Q-30.0 17.6 -21.2 8.8 -12.4 0.0 0.0 0.0 12.4 0.0 21.2 8.8 30.0 17.6 30.0 30.0 Z" fill="none" stroke="#000000" stroke-linecap="round" stroke-linejoin="round" stroke-width="6.0"/>
    <path d="M-15.0 30.0 L-30.0 30.0 Q-30.0 17.6 -21.2 8.8 -12.4 0.0 0.0 0.0 12.4 0.0 21.2 8.8 30.0 17.6 30.0 30.0 L15.0 30.0 Q15.0 23.8 10.6 19.4 6.25 15.0 0.0 15.0 -6.2 15.0 -10.6 19.4 -15.0 23.8 -15.0 30.0" fill="url(#gradient0)" fill-rule="evenodd" stroke="none"/>
    <path d="M-15.0 30.0 Q-15.0 23.8 -10.6 19.4 -6.2 15.0 0.0 15.0 6.25 15.0 10.6 19.4 15.0 23.8 15.0 30.0 L-15.0 30.0" fill="#666666" fill-rule="evenodd" stroke="none"/>
    <path d="M15.0 30.0 L30.0 30.0 Q30.0 17.6 21.2 8.8 12.4 0.0 0.0 0.0 -12.4 0.0 -21.2 8.8 -30.0 17.6 -30.0 30.0 L-15.0 30.0 Q-15.0 23.8 -10.6 19.4 -6.2 15.0 0.0 15.0 6.25 15.0 10.6 19.4 15.0 23.8 15.0 30.0 L-15.0 30.0" fill="none" stroke="#333333" stroke-linecap="round" stroke-linejoin="round" stroke-width="2.0"/>
  </g>
  <defs>
    <radialGradient cx="0" cy="0" gradientTransform="matrix(0.0416, 0.0, 0.0, 0.0416, 0.0, 30.0)" gradientUnits="userSpaceOnUse" id="gradient0" r="819.2" spreadMethod="pad">
      <stop offset="0.5019607843137255" stop-color="#999999"/>
      <stop offset="1.0" stop-color="#000000"/>
    </radialGradient>
  </defs>
</svg>
