<?xml version="1.0" encoding="UTF-8" standalone="no"?>
<svg xmlns:ffdec="https://www.free-decompiler.com/flash" xmlns:xlink="http://www.w3.org/1999/xlink" ffdec:objectType="shape" height="65.25px" width="49.2px" xmlns="http://www.w3.org/2000/svg">
  <g transform="matrix(1.0, 0.0, 0.0, 1.0, 24.6, 83.0)">
    <path d="M23.95 -26.9 L24.55 -26.0 24.55 -24.9 24.05 -24.0 18.4 -18.35 Q17.8 -17.8 17.05 -17.75 16.25 -17.75 15.65 -18.25 11.25 -22.05 5.85 -23.35 L0.05 -24.0 -5.8 -23.35 Q-11.2 -22.05 -15.55 -18.25 -16.2 -17.75 -16.95 -17.75 -17.75 -17.8 -18.3 -18.35 L-24.0 -24.05 -24.55 -25.0 -24.5 -26.05 -23.9 -26.95 -21.1 -29.25 Q-11.95 -36.0 0.05 -36.0 12.0 -36.0 21.1 -29.25 L23.95 -26.9" fill="#000000" fill-opacity="0.3019608" fill-rule="evenodd" stroke="none"/>
    <path d="M-18.0 -38.25 L-5.6 -60.0 -5.6 -70.0 -8.5 -70.0 -8.5 -80.0 8.7 -80.0 8.7 -70.0 5.85 -70.0 5.85 -60.0 18.25 -38.25" fill="none" stroke="#000000" stroke-linecap="round" stroke-linejoin="round" stroke-width="6.0"/>
  </g>
</svg>
