<?xml version="1.0" encoding="UTF-8" standalone="no"?>
<svg xmlns:ffdec="https://www.free-decompiler.com/flash" xmlns:xlink="http://www.w3.org/1999/xlink" ffdec:objectType="shape" height="92.3px" width="88.0px" xmlns="http://www.w3.org/2000/svg">
  <g transform="matrix(1.0, 0.0, 0.0, 1.0, 44.0, 48.3)">
    <path d="M4.35 -22.5 L4.35 -15.0 15.0 3.7 14.85 3.8 14.8 3.85 Q18.2 5.8 21.2 8.8 30.0 17.6 30.0 30.0 L-30.0 30.0 Q-30.0 17.6 -21.2 8.8 -18.05 5.6 -14.45 3.6 L-15.05 3.95 -4.25 -15.0 -4.25 -22.5 -6.4 -22.5 -6.4 -30.0 6.45 -30.0 6.45 -22.5 4.35 -22.5" fill="#ffffff" fill-opacity="0.8980392" fill-rule="evenodd" stroke="none"/>
    <path d="M16.45 -39.8 Q20.45 -35.7 20.45 -30.0 L20.45 -22.5 Q20.45 -19.45 19.35 -16.9 L25.7 -5.8 30.6 -1.6 31.15 -1.15 Q44.05 11.8 44.0 30.0 L44.0 30.1 Q43.95 35.85 39.9 39.9 L39.4 40.35 Q35.45 44.0 30.0 44.0 L-30.0 44.0 Q-35.7 44.0 -39.8 40.0 L-39.95 39.85 -40.0 39.8 Q-44.0 35.7 -44.0 30.0 L-44.0 29.95 Q-44.0 12.15 -31.6 -0.55 L-31.15 -1.1 -31.1 -1.15 -30.75 -1.5 -25.5 -5.9 -19.25 -16.85 Q-20.4 -19.45 -20.4 -22.5 L-20.4 -30.0 Q-20.4 -35.7 -16.4 -39.8 L-16.25 -39.95 -16.2 -40.0 Q-12.15 -44.0 -6.4 -44.0 L6.45 -44.0 Q12.15 -44.0 16.25 -40.0 L16.3 -39.95 16.45 -39.8 M4.35 -22.5 L6.45 -22.5 6.45 -30.0 -6.4 -30.0 -6.4 -22.5 -4.25 -22.5 -4.25 -15.0 -15.05 3.95 -14.45 3.6 Q-18.05 5.6 -21.2 8.8 -30.0 17.6 -30.0 30.0 L30.0 30.0 Q30.0 17.6 21.2 8.8 18.2 5.8 14.8 3.85 L14.85 3.8 15.0 3.7 4.35 -15.0 4.35 -22.5" fill="#ffffff" fill-opacity="0.6" fill-rule="evenodd" stroke="none"/>
    <path d="M7.0 -40.9 L4.95 -40.55 6.2 -33.15 -2.25 -31.65 -3.55 -39.05 -5.65 -38.7 -6.95 -46.05 5.7 -48.3 7.0 -40.9 M3.9 -12.45 L-10.55 -8.85 -11.15 -8.5 -0.35 -27.45 8.25 -27.45 18.9 -8.75 3.9 -12.45 M16.85 -3.15 L-1.8 13.0 -13.05 -3.05 -12.45 -3.4 2.0 -7.0 17.0 -3.3 16.85 -3.2 16.8 -3.15 16.85 -3.15 M24.15 -0.8 L24.25 -0.75 Q27.2 1.75 29.6 5.2 36.75 15.4 34.6 27.6 L14.9 24.15 15.35 4.5 24.15 -0.8 M-17.7 24.6 L-32.1 27.1 Q-34.3 14.9 -27.15 4.7 -24.8 1.35 -21.9 -1.15 L-8.1 12.7 -17.7 24.6 M11.5 30.0 L-13.85 30.0 8.55 10.55 11.5 30.0" fill="#000000" fill-rule="evenodd" stroke="none"/>
  </g>
</svg>
