<?xml version="1.0" encoding="UTF-8" standalone="no"?>
<svg xmlns:ffdec="https://www.free-decompiler.com/flash" xmlns:xlink="http://www.w3.org/1999/xlink" ffdec:objectType="shape" height="98.3px" width="101.9px" xmlns="http://www.w3.org/2000/svg">
  <g transform="matrix(1.0, 0.0, 0.0, 1.0, 51.55, 68.3)">
    <path d="M6.45 -22.5 L4.35 -22.5 4.35 -15.0 15.0 3.7 14.85 3.8 14.8 3.85 Q18.2 5.8 21.2 8.8 30.0 17.6 30.0 30.0 L-30.0 30.0 Q-30.0 17.6 -21.2 8.8 -18.05 5.6 -14.45 3.6 L-15.05 3.95 -4.25 -15.0 -4.25 -22.5 -6.4 -22.5 -6.4 -30.0 6.45 -30.0 6.45 -22.5" fill="#ffffff" fill-opacity="0.4" fill-rule="evenodd" stroke="none"/>
    <path d="M28.95 -40.35 L36.2 -20.1 22.05 -26.35 7.2 -25.3 6.55 -25.05 20.5 -41.85 28.95 -40.35 M9.85 -15.7 L9.8 -15.65 9.85 -15.65 -8.8 0.5 -20.05 -15.55 -19.45 -15.9 -5.0 -19.5 10.0 -15.8 9.85 -15.7 M43.2 -14.8 Q45.65 -11.85 47.45 -8.05 52.7 3.25 48.45 14.9 L29.65 8.05 33.55 -11.2 43.1 -14.85 43.2 -14.8 M11.5 30.0 L-13.85 30.0 8.55 10.55 11.5 30.0 M-16.45 -50.55 L-19.05 -57.6 -21.05 -56.85 -23.65 -63.9 -11.55 -68.3 -8.95 -61.25 -10.95 -60.5 -8.4 -53.45 -16.45 -50.55 M-44.5 -14.8 L-28.45 -3.55 -35.85 9.8 -49.6 14.8 Q-53.9 3.15 -48.65 -8.15 -46.9 -11.85 -44.5 -14.8" fill="#000000" fill-rule="evenodd" stroke="none"/>
  </g>
</svg>
