<?xml version="1.0" encoding="UTF-8" standalone="no"?>
<svg xmlns:ffdec="https://www.free-decompiler.com/flash" xmlns:xlink="http://www.w3.org/1999/xlink" ffdec:objectType="shape" height="109.3px" width="121.4px" xmlns="http://www.w3.org/2000/svg">
  <g transform="matrix(1.0, 0.0, 0.0, 1.0, 66.05, 79.3)">
    <path d="M4.35 -22.5 L4.35 -15.0 15.0 3.7 14.85 3.8 14.8 3.85 Q18.2 5.8 21.2 8.8 30.0 17.6 30.0 30.0 L-30.0 30.0 Q-30.0 17.6 -21.2 8.8 -18.05 5.6 -14.45 3.6 L-15.05 3.95 -4.25 -15.0 -4.25 -22.5 -6.4 -22.5 -6.4 -30.0 6.45 -30.0 6.45 -22.5 4.35 -22.5" fill="#ffffff" fill-opacity="0.2" fill-rule="evenodd" stroke="none"/>
    <path d="M36.0 -43.85 L44.45 -42.35 51.7 -22.1 37.55 -28.35 22.7 -27.3 22.05 -27.05 36.0 -43.85 M6.85 -32.65 L-11.8 -16.5 -23.05 -32.55 -22.45 -32.9 -8.0 -36.5 7.0 -32.8 6.85 -32.7 6.8 -32.65 6.85 -32.65 M48.2 -13.8 Q50.65 -10.85 52.45 -7.05 57.7 4.25 53.45 15.9 L34.65 9.05 38.55 -10.2 48.1 -13.85 48.2 -13.8 M-20.45 -61.55 L-23.05 -68.6 -25.05 -67.85 -27.65 -74.9 -15.55 -79.3 -12.95 -72.25 -14.95 -71.5 -12.4 -64.45 -20.45 -61.55 M-59.0 -21.8 L-42.95 -10.55 -50.35 2.8 -64.1 7.8 Q-68.4 -3.85 -63.15 -15.15 -61.4 -18.85 -59.0 -21.8 M11.5 30.0 L-13.85 30.0 8.55 10.55 11.5 30.0" fill="#000000" fill-rule="evenodd" stroke="none"/>
  </g>
</svg>
