<?xml version="1.0" encoding="UTF-8" standalone="no"?>
<svg xmlns:ffdec="https://www.free-decompiler.com/flash" xmlns:xlink="http://www.w3.org/1999/xlink" ffdec:objectType="shape" height="65.3px" width="245.3px" xmlns="http://www.w3.org/2000/svg">
  <g transform="matrix(1.0, 0.0, 0.0, 1.0, 52.65, 35.2)">
    <path d="M190.0 -32.55 L188.6 -21.9 168.3 -0.9 168.3 -10.55 190.0 -32.55" fill="#cccccc" fill-rule="evenodd" stroke="none"/>
    <path d="M168.3 -0.9 Q144.15 3.55 119.85 6.35 L113.35 7.05 115.15 -2.25 Q141.55 -5.25 168.3 -10.55 L168.3 -0.9 M85.7 9.45 L85.3 9.45 81.6 9.7 75.85 10.05 75.55 10.05 78.0 0.9 79.45 0.85 87.85 0.3 85.7 9.45 M66.6 10.45 Q36.95 11.65 7.05 10.4 L7.05 0.75 Q37.35 2.65 68.2 1.4 L70.15 1.35 70.2 1.35 66.6 10.45" fill="#999999" fill-rule="evenodd" stroke="none"/>
    <path d="M7.05 -13.75 Q45.4 -11.85 88.5 -15.9 L90.65 -16.1 70.15 1.35 68.2 1.4 Q37.35 2.65 7.05 0.75 L7.05 -13.75 M99.0 -16.95 L100.4 -17.1 109.55 -18.2 87.85 0.3 79.45 0.85 78.0 0.9 99.0 -16.95 M140.65 -22.7 Q160.6 -25.95 190.0 -32.55 L168.3 -10.55 Q141.55 -5.25 115.15 -2.25 L140.65 -22.7" fill="#ffffff" fill-rule="evenodd" stroke="none"/>
    <path d="M7.05 10.4 L4.85 27.45 0.1 27.45 -1.75 10.4 -47.0 4.0 Q-50.0 -4.5 -50.0 -8.05 -50.0 -11.65 -47.0 -20.15 L-1.75 -13.75 -0.3 -30.8 5.2 -30.8 7.05 -13.75 7.05 0.75 7.05 10.4" fill="#000000" fill-rule="evenodd" stroke="none"/>
    <path d="M113.35 7.05 L93.7 8.85 85.7 9.45 87.85 0.3 115.15 -2.25 113.35 7.05 M75.55 10.05 L74.1 10.1 66.6 10.45 70.2 1.35 78.0 0.9 75.55 10.05" fill="#8c8c8c" fill-rule="evenodd" stroke="none"/>
    <path d="M90.65 -16.1 L99.0 -16.95 78.0 0.9 70.2 1.35 70.15 1.35 90.65 -16.1 M109.55 -18.2 L140.65 -22.7 115.15 -2.25 87.85 0.3 109.55 -18.2" fill="#ebebeb" fill-rule="evenodd" stroke="none"/>
    <path d="M7.05 10.4 L4.85 27.45 0.1 27.45 -1.75 10.4 -47.0 4.0 Q-50.0 -4.5 -50.0 -8.05 -50.0 -11.65 -47.0 -20.15 L-1.75 -13.75 -0.3 -30.8 5.2 -30.8 7.05 -13.75 Q45.4 -11.85 88.5 -15.9 L90.65 -16.1 99.0 -16.95 100.4 -17.1 109.55 -18.2 140.65 -22.7 Q160.6 -25.95 190.0 -32.55 L188.6 -21.9 168.3 -0.9 Q144.15 3.55 119.85 6.35 L113.35 7.05 93.7 8.85 85.7 9.45 85.3 9.45 81.6 9.7 75.85 10.05 75.55 10.05 74.1 10.1 66.6 10.45 Q36.95 11.65 7.05 10.4 L7.05 0.75 7.05 -13.75" fill="none" stroke="#393d40" stroke-linecap="square" stroke-linejoin="miter-clip" stroke-miterlimit="10.0" stroke-width="4.0"/>
  </g>
</svg>
