<?xml version="1.0" encoding="UTF-8" standalone="no"?>
<svg xmlns:ffdec="https://www.free-decompiler.com/flash" xmlns:xlink="http://www.w3.org/1999/xlink" ffdec:objectType="shape" height="188.0px" width="201.75px" xmlns="http://www.w3.org/2000/svg">
  <g transform="matrix(1.0, 0.0, 0.0, 1.0, 118.35, 184.0)">
    <path d="M49.4 -160.0 L49.4 -180.0 59.4 -180.0 59.4 -140.0 69.4 -120.0 66.55 -111.4 59.4 -90.0 49.4 -110.0 59.4 -90.0 -33.85 -90.0 -81.7 -111.4 -88.85 -120.0 -63.85 -140.0 -8.85 -110.0 -33.85 -90.0 -8.85 -110.0 49.4 -110.0 59.4 -140.0 31.5 -115.9 Q34.4 -121.75 34.4 -130.0 L49.4 -160.0" fill="#993300" fill-rule="evenodd" stroke="none"/>
    <path d="M59.4 -90.0 L62.95 -72.25 44.4 -50.0 34.4 -60.0 -1.35 -60.0 -26.35 -50.0 -47.4 -62.9 -33.85 -90.0 59.4 -90.0" fill="#ddac46" fill-rule="evenodd" stroke="none"/>
    <path d="M66.55 -54.25 L44.4 -10.0 -26.35 -10.0 -58.25 -41.15 -47.4 -62.9 -26.35 -50.0 -1.35 -60.0 34.4 -60.0 44.4 -50.0 62.95 -72.25 66.55 -54.25 M39.4 -30.0 L39.4 -40.0 -3.85 -40.0 -3.85 -30.0 39.4 -30.0" fill="#000000" fill-rule="evenodd" stroke="none"/>
    <path d="M66.55 -111.4 L79.4 -60.0 69.4 -40.0 66.55 -54.25 62.95 -72.25 59.4 -90.0 66.55 -111.4 M-58.25 -41.15 L-58.85 -40.0 -113.85 -60.0 -81.7 -111.4 -33.85 -90.0 -47.4 -62.9 -58.25 -41.15 M-63.85 -140.0 L-53.9 -136.55 -31.35 -180.0 34.4 -180.0 49.4 -160.0 34.4 -130.0 Q34.4 -121.75 31.5 -115.9 L59.4 -140.0 49.4 -110.0 -8.85 -110.0 -63.85 -140.0" fill="#333333" fill-rule="evenodd" stroke="none"/>
    <path d="M44.4 -10.0 L39.4 0.0 -13.85 0.0 -26.35 -10.0 44.4 -10.0 M39.4 -30.0 L-3.85 -30.0 -3.85 -40.0 39.4 -40.0 39.4 -30.0" fill="#bb8922" fill-rule="evenodd" stroke="none"/>
    <path d="M49.4 -160.0 L49.4 -180.0 59.4 -180.0 59.4 -140.0 69.4 -120.0 66.55 -111.4 79.4 -60.0 69.4 -40.0 66.55 -54.25 44.4 -10.0 39.4 0.0 -13.85 0.0 -26.35 -10.0 -58.25 -41.15 -58.85 -40.0 -113.85 -60.0 -81.7 -111.4 -88.85 -120.0 -63.85 -140.0 -8.85 -110.0 49.4 -110.0 59.4 -90.0 66.55 -111.4 M-53.9 -136.55 L-31.35 -180.0 34.4 -180.0 49.4 -160.0 34.4 -130.0 M31.5 -115.9 L59.4 -140.0 49.4 -110.0 M59.4 -90.0 L62.95 -72.25 66.55 -54.25 M62.95 -72.25 L44.4 -50.0 34.4 -60.0 -1.35 -60.0 -26.35 -50.0 -47.4 -62.9 -58.25 -41.15 M39.4 -30.0 L-3.85 -30.0 -3.85 -40.0 39.4 -40.0 39.4 -30.0 M-33.85 -90.0 L-47.4 -62.9 M-81.7 -111.4 L-33.85 -90.0 -8.85 -110.0 M59.4 -90.0 L-33.85 -90.0 M44.4 -10.0 L-26.35 -10.0" fill="none" stroke="#000000" stroke-linecap="square" stroke-linejoin="miter-clip" stroke-miterlimit="3.0" stroke-width="6.0"/>
    <path d="M18.65 -130.0 Q18.65 -121.75 25.9 -115.9 L-43.85 -140.0 -43.85 -180.0 -18.85 -180.0 -18.85 -160.0 18.65 -130.0" fill="#993300" fill-rule="evenodd" stroke="none"/>
    <path d="M25.9 -115.9 L-43.85 -140.0 -43.85 -180.0 -18.85 -180.0 -18.85 -160.0 18.65 -130.0" fill="none" stroke="#000000" stroke-linecap="square" stroke-linejoin="miter-clip" stroke-miterlimit="3.0" stroke-width="6.0"/>
    <path d="M23.65 -110.0 L23.25 -110.0 Q17.5 -110.35 13.4 -115.85 L13.35 -115.9 Q9.0 -121.75 9.0 -130.0 9.0 -134.3 10.15 -137.9 11.25 -141.3 13.4 -144.15 17.5 -149.65 23.25 -149.95 L24.0 -150.0 Q30.25 -150.0 34.6 -144.15 36.75 -141.3 37.85 -137.9 39.0 -134.3 39.0 -130.0 39.0 -121.75 34.65 -115.9 L34.6 -115.85 Q30.4 -110.2 24.4 -110.0 L23.65 -110.0 M33.0 -130.0 Q33.0 -132.55 32.3 -134.75 31.6 -136.8 30.4 -138.5 27.7 -142.0 24.0 -142.0 L23.25 -141.95 Q20.0 -141.65 17.65 -138.5 16.35 -136.8 15.7 -134.75 15.0 -132.55 15.0 -130.0 15.0 -125.05 17.6 -121.55 L17.65 -121.5 Q20.0 -118.35 23.25 -118.0 L23.8 -118.0 24.25 -118.0 Q27.85 -118.1 30.4 -121.5 L30.4 -121.55 Q33.0 -125.05 33.0 -130.0" fill="#dece5f" fill-rule="evenodd" stroke="none"/>
    <path d="M33.0 -130.0 Q33.0 -125.05 30.4 -121.55 L30.4 -121.5 Q27.85 -118.1 24.25 -118.0 L23.8 -118.0 23.25 -118.0 Q20.0 -118.35 17.65 -121.5 L17.6 -121.55 Q15.0 -125.05 15.0 -130.0 15.0 -132.55 15.7 -134.75 16.35 -136.8 17.65 -138.5 20.0 -141.65 23.25 -141.95 L24.0 -142.0 Q27.7 -142.0 30.4 -138.5 31.6 -136.8 32.3 -134.75 33.0 -132.55 33.0 -130.0" fill="#cc6633" fill-rule="evenodd" stroke="none"/>
    <path d="M23.65 -110.0 L23.25 -110.0 Q17.5 -110.35 13.4 -115.85 L13.35 -115.9 Q9.0 -121.75 9.0 -130.0 9.0 -134.3 10.15 -137.9 11.25 -141.3 13.4 -144.15 17.5 -149.65 23.25 -149.95 L24.0 -150.0 Q30.25 -150.0 34.6 -144.15 36.75 -141.3 37.85 -137.9 39.0 -134.3 39.0 -130.0 39.0 -121.75 34.65 -115.9 L34.6 -115.85 Q30.4 -110.2 24.4 -110.0" fill="none" stroke="#000000" stroke-linecap="square" stroke-linejoin="miter-clip" stroke-miterlimit="3.0" stroke-width="6.0"/>
    <path d="M46.0 -72.0 Q46.0 -67.85 43.8 -64.95 41.6 -62.0 38.5 -62.0 35.4 -62.0 33.2 -64.95 31.0 -67.85 31.0 -72.0 31.0 -76.15 33.2 -79.1 35.4 -82.0 38.5 -82.0 41.6 -82.0 43.8 -79.1 46.0 -76.15 46.0 -72.0 M-14.0 -72.0 Q-14.0 -76.15 -11.8 -79.1 -9.6 -82.0 -6.5 -82.0 -3.4 -82.0 -1.2 -79.1 1.0 -76.15 1.0 -72.0 1.0 -67.85 -1.2 -64.95 -3.4 -62.0 -6.5 -62.0 -9.6 -62.0 -11.8 -64.95 -14.0 -67.85 -14.0 -72.0" fill="#000000" fill-rule="evenodd" stroke="none"/>
    <path d="M23.5 -78.0 L38.5 -88.0 M8.5 -78.0 L-6.5 -88.0" fill="none" stroke="#000000" stroke-linecap="square" stroke-linejoin="miter-clip" stroke-miterlimit="3.0" stroke-width="6.0"/>
  </g>
</svg>
