<?xml version="1.0" encoding="UTF-8" standalone="no"?>
<svg xmlns:ffdec="https://www.free-decompiler.com/flash" xmlns:xlink="http://www.w3.org/1999/xlink" ffdec:objectType="shape" height="188.0px" width="201.75px" xmlns="http://www.w3.org/2000/svg">
  <g transform="matrix(1.0, 0.0, 0.0, 1.0, 87.9, 184.0)">
    <path d="M-53.9 -160.0 L-38.9 -130.0 Q-38.9 -121.75 -36.0 -115.9 L-63.9 -140.0 -53.9 -110.0 4.35 -110.0 59.35 -140.0 84.35 -120.0 77.2 -111.4 29.35 -90.0 4.35 -110.0 29.35 -90.0 -63.9 -90.0 -71.05 -111.4 -73.9 -120.0 -63.9 -140.0 -63.9 -180.0 -53.9 -180.0 -53.9 -160.0 M-53.9 -110.0 L-63.9 -90.0 -53.9 -110.0" fill="#993300" fill-rule="evenodd" stroke="none"/>
    <path d="M53.8 -41.15 L21.85 -10.0 -48.9 -10.0 -71.05 -54.25 -67.45 -72.25 -48.9 -50.0 -38.9 -60.0 -3.15 -60.0 21.85 -50.0 42.9 -62.9 53.8 -41.15 M-43.9 -30.0 L-0.65 -30.0 -0.65 -40.0 -43.9 -40.0 -43.9 -30.0" fill="#000000" fill-rule="evenodd" stroke="none"/>
    <path d="M29.35 -90.0 L42.9 -62.9 21.85 -50.0 -3.15 -60.0 -38.9 -60.0 -48.9 -50.0 -67.45 -72.25 -63.9 -90.0 29.35 -90.0" fill="#ddac46" fill-rule="evenodd" stroke="none"/>
    <path d="M49.45 -136.55 L59.35 -140.0 4.35 -110.0 -53.9 -110.0 -63.9 -140.0 -36.0 -115.9 Q-38.9 -121.75 -38.9 -130.0 L-53.9 -160.0 -38.9 -180.0 26.85 -180.0 49.45 -136.55 M77.2 -111.4 L109.35 -60.0 54.35 -40.0 53.8 -41.15 42.9 -62.9 29.35 -90.0 77.2 -111.4 M-71.05 -54.25 L-73.9 -40.0 -83.9 -60.0 -71.05 -111.4 -63.9 -90.0 -67.45 -72.25 -71.05 -54.25" fill="#333333" fill-rule="evenodd" stroke="none"/>
    <path d="M21.85 -10.0 L9.35 0.0 -43.9 0.0 -48.9 -10.0 21.85 -10.0 M-43.9 -30.0 L-43.9 -40.0 -0.65 -40.0 -0.65 -30.0 -43.9 -30.0" fill="#bb8922" fill-rule="evenodd" stroke="none"/>
    <path d="M49.45 -136.55 L26.85 -180.0 -38.9 -180.0 -53.9 -160.0 -38.9 -130.0 M-36.0 -115.9 L-63.9 -140.0 -53.9 -110.0 4.35 -110.0 59.35 -140.0 84.35 -120.0 77.2 -111.4 109.35 -60.0 54.35 -40.0 53.8 -41.15 21.85 -10.0 9.35 0.0 -43.9 0.0 -48.9 -10.0 -71.05 -54.25 -73.9 -40.0 -83.9 -60.0 -71.05 -111.4 -73.9 -120.0 -63.9 -140.0 -63.9 -180.0 -53.9 -180.0 -53.9 -160.0 M29.35 -90.0 L42.9 -62.9 53.8 -41.15 M-67.45 -72.25 L-48.9 -50.0 -38.9 -60.0 -3.15 -60.0 21.85 -50.0 42.9 -62.9 M77.2 -111.4 L29.35 -90.0 4.35 -110.0 M-67.45 -72.25 L-63.9 -90.0 -71.05 -111.4 M-71.05 -54.25 L-67.45 -72.25 M-43.9 -30.0 L-0.65 -30.0 -0.65 -40.0 -43.9 -40.0 -43.9 -30.0 M-63.9 -90.0 L-53.9 -110.0 M21.85 -10.0 L-48.9 -10.0 M29.35 -90.0 L-63.9 -90.0" fill="none" stroke="#000000" stroke-linecap="square" stroke-linejoin="miter-clip" stroke-miterlimit="3.0" stroke-width="6.0"/>
    <path d="M-23.15 -130.0 L14.35 -160.0 14.35 -180.0 39.35 -180.0 39.35 -140.0 -30.4 -115.9 Q-23.15 -121.75 -23.15 -130.0" fill="#993300" fill-rule="evenodd" stroke="none"/>
    <path d="M-30.4 -115.9 L39.35 -140.0 39.35 -180.0 14.35 -180.0 14.35 -160.0 -23.15 -130.0" fill="none" stroke="#000000" stroke-linecap="square" stroke-linejoin="miter-clip" stroke-miterlimit="3.0" stroke-width="6.0"/>
    <path d="M-28.9 -110.0 Q-34.85 -110.2 -39.1 -115.85 L-39.15 -115.9 Q-43.5 -121.75 -43.5 -130.0 -43.5 -134.3 -42.35 -137.9 -41.25 -141.3 -39.1 -144.15 -34.7 -150.0 -28.5 -150.0 L-27.75 -149.95 Q-22.0 -149.65 -17.9 -144.15 -15.75 -141.3 -14.65 -137.9 -13.5 -134.3 -13.5 -130.0 -13.5 -121.75 -17.85 -115.9 L-17.9 -115.85 Q-22.0 -110.35 -27.75 -110.0 L-28.1 -110.0 -28.9 -110.0 M-20.2 -134.75 Q-20.85 -136.8 -22.1 -138.5 -24.5 -141.65 -27.75 -141.95 L-28.5 -142.0 Q-32.2 -142.0 -34.85 -138.5 -36.1 -136.8 -36.8 -134.75 -37.5 -132.55 -37.5 -130.0 -37.5 -125.05 -34.85 -121.55 L-34.85 -121.5 Q-32.3 -118.1 -28.75 -118.0 L-28.25 -118.0 -27.75 -118.0 Q-24.5 -118.35 -22.1 -121.5 L-22.1 -121.55 Q-19.5 -125.05 -19.5 -130.0 -19.5 -132.55 -20.2 -134.75" fill="#dece5f" fill-rule="evenodd" stroke="none"/>
    <path d="M-20.2 -134.75 Q-19.5 -132.55 -19.5 -130.0 -19.5 -125.05 -22.1 -121.55 L-22.1 -121.5 Q-24.5 -118.35 -27.75 -118.0 L-28.25 -118.0 -28.75 -118.0 Q-32.3 -118.1 -34.85 -121.5 L-34.85 -121.55 Q-37.5 -125.05 -37.5 -130.0 -37.5 -132.55 -36.8 -134.75 -36.1 -136.8 -34.85 -138.5 -32.2 -142.0 -28.5 -142.0 L-27.75 -141.95 Q-24.5 -141.65 -22.1 -138.5 -20.85 -136.8 -20.2 -134.75" fill="#cc6633" fill-rule="evenodd" stroke="none"/>
    <path d="M-28.1 -110.0 L-27.75 -110.0 Q-22.0 -110.35 -17.9 -115.85 L-17.85 -115.9 Q-13.5 -121.75 -13.5 -130.0 -13.5 -134.3 -14.65 -137.9 -15.75 -141.3 -17.9 -144.15 -22.0 -149.65 -27.75 -149.95 L-28.5 -150.0 Q-34.7 -150.0 -39.1 -144.15 -41.25 -141.3 -42.35 -137.9 -43.5 -134.3 -43.5 -130.0 -43.5 -121.75 -39.15 -115.9 L-39.1 -115.85 Q-34.85 -110.2 -28.9 -110.0" fill="none" stroke="#000000" stroke-linecap="square" stroke-linejoin="miter-clip" stroke-miterlimit="3.0" stroke-width="6.0"/>
    <path d="M-35.5 -72.0 Q-35.5 -67.85 -37.65 -64.95 -39.9 -62.0 -43.0 -62.0 -46.1 -62.0 -48.3 -64.95 -50.5 -67.85 -50.5 -72.0 -50.5 -76.15 -48.3 -79.1 -46.1 -82.0 -43.0 -82.0 -39.9 -82.0 -37.65 -79.1 -35.5 -76.15 -35.5 -72.0 M9.5 -72.0 Q9.5 -67.85 7.35 -64.95 5.1 -62.0 2.0 -62.0 -1.1 -62.0 -3.3 -64.95 -5.5 -67.85 -5.5 -72.0 -5.5 -76.15 -3.3 -79.1 -1.1 -82.0 2.0 -82.0 5.1 -82.0 7.35 -79.1 9.5 -76.15 9.5 -72.0" fill="#000000" fill-rule="evenodd" stroke="none"/>
    <path d="M-28.0 -78.0 L-43.0 -88.0 M-13.0 -78.0 L2.0 -88.0" fill="none" stroke="#000000" stroke-linecap="square" stroke-linejoin="miter-clip" stroke-miterlimit="3.0" stroke-width="6.0"/>
  </g>
</svg>
