<?xml version="1.0" encoding="UTF-8" standalone="no"?>
<svg xmlns:ffdec="https://www.free-decompiler.com/flash" xmlns:xlink="http://www.w3.org/1999/xlink" ffdec:objectType="shape" height="151.55px" width="106.6px" xmlns="http://www.w3.org/2000/svg">
  <g transform="matrix(1.0, 0.0, 0.0, 1.0, 66.8, 38.65)">
    <path d="M24.6 -23.55 Q34.5 -13.65 34.5 0.4 34.5 14.4 24.6 24.25 14.75 34.15 0.75 34.15 -5.25 34.15 -10.5 32.3 L-10.5 56.65 12.0 79.15 19.5 79.15 29.25 90.55 29.25 107.25 6.4 107.25 0.75 101.65 -4.85 107.25 -10.5 101.65 -16.1 107.25 -21.75 101.65 -27.35 107.25 -33.0 101.65 -38.6 107.25 -61.5 107.25 -61.5 90.55 -51.75 79.15 -33.0 79.15 -55.5 56.65 -55.5 -13.9 -29.95 -13.9 Q-27.55 -19.15 -23.15 -23.55 -18.75 -27.95 -13.5 -30.35 -7.0 -33.4 0.75 -33.35 14.75 -33.4 24.6 -23.55 Z" fill="none" stroke="#333333" stroke-linecap="square" stroke-linejoin="miter-clip" stroke-miterlimit="3.0" stroke-width="8.0"/>
    <path d="M-29.95 -13.9 Q-27.55 -19.15 -23.15 -23.55 -18.75 -27.95 -13.5 -30.35 -7.0 -33.4 0.75 -33.35 14.75 -33.4 24.6 -23.55 34.5 -13.65 34.5 0.4 34.5 14.4 24.6 24.25 14.75 34.15 0.75 34.15 -5.25 34.15 -10.5 32.3 -15.3 30.65 -19.5 27.45 L-23.15 24.25 Q-31.85 15.55 -32.85 3.6 L-33.0 0.4 Q-33.0 -7.4 -29.95 -13.9 M12.0 79.15 L19.5 79.15 29.25 90.55 -61.5 90.55 -51.75 79.15 -33.0 79.15 12.0 79.15 M14.65 -13.6 Q8.9 -19.3 0.75 -19.3 -7.4 -19.3 -13.2 -13.6 -18.95 -7.8 -18.9 0.4 -18.95 8.55 -13.2 14.25 -7.4 20.05 0.75 20.1 8.9 20.05 14.65 14.25 20.45 8.55 20.45 0.4 20.45 -7.8 14.65 -13.6" fill="#cccccc" fill-rule="evenodd" stroke="none"/>
    <path d="M14.65 -13.6 Q20.45 -7.8 20.45 0.4 20.45 8.55 14.65 14.25 8.9 20.05 0.75 20.1 -7.4 20.05 -13.2 14.25 -18.95 8.55 -18.9 0.4 -18.95 -7.8 -13.2 -13.6 -7.4 -19.3 0.75 -19.3 8.9 -19.3 14.65 -13.6" fill="url(#gradient0)" fill-rule="evenodd" stroke="none"/>
    <path d="M-10.5 32.3 L-10.5 56.65 -33.0 79.15 -55.5 56.65 -55.5 -13.9 -29.95 -13.9 Q-33.0 -7.4 -33.0 0.4 L-32.85 3.6 Q-31.85 15.55 -23.15 24.25 L-19.5 27.45 Q-15.3 30.65 -10.5 32.3 M29.25 90.55 L29.25 107.25 6.4 107.25 0.75 101.65 -4.85 107.25 -10.5 101.65 -16.1 107.25 -21.75 101.65 -27.35 107.25 -33.0 101.65 -38.6 107.25 -61.5 107.25 -61.5 90.55 29.25 90.55" fill="#666666" fill-rule="evenodd" stroke="none"/>
    <path d="M-10.5 56.65 L12.0 79.15 -33.0 79.15 -10.5 56.65" fill="#1e1e1e" fill-rule="evenodd" stroke="none"/>
  </g>
  <defs>
    <linearGradient gradientTransform="matrix(0.0, 0.0353, -0.0412, 0.0, 0.75, -0.1)" gradientUnits="userSpaceOnUse" id="gradient0" spreadMethod="pad" x1="-819.2" x2="819.2">
      <stop offset="0.14901960784313725" stop-color="#626262"/>
      <stop offset="1.0" stop-color="#555555"/>
    </linearGradient>
  </defs>
</svg>
