<?xml version="1.0" encoding="UTF-8" standalone="no"?>
<svg xmlns:ffdec="https://www.free-decompiler.com/flash" xmlns:xlink="http://www.w3.org/1999/xlink" ffdec:objectType="shape" height="43.4px" width="35.4px" xmlns="http://www.w3.org/2000/svg">
  <g transform="matrix(1.0, 0.0, 0.0, 1.0, -80.9, 12.95)">
    <path d="M98.15 27.5 L85.2 27.05 Q80.95 18.75 87.5 14.4 96.15 15.8 100.85 20.1 104.05 22.95 102.5 25.1 101.4 26.75 98.15 27.5" fill="#c5d071" fill-rule="evenodd" stroke="none"/>
    <path d="M98.15 27.5 Q101.4 26.75 102.5 25.1 104.05 22.95 100.85 20.1 96.15 15.8 87.5 14.4 80.95 18.75 85.2 27.05 L98.15 27.5 Z" fill="none" stroke="#899331" stroke-linecap="square" stroke-linejoin="miter-clip" stroke-miterlimit="3.0" stroke-width="4.0"/>
    <path d="M113.1 -4.35 Q112.45 -2.7 109.85 -1.3 107.15 0.15 98.65 1.25 93.1 -4.85 97.7 -10.1 105.45 -10.95 110.55 -8.3 113.9 -6.55 113.1 -4.35" fill="#c5d071" fill-rule="evenodd" stroke="none"/>
    <path d="M113.1 -4.35 Q113.9 -6.55 110.55 -8.3 105.45 -10.95 97.7 -10.1 93.1 -4.85 98.65 1.25 107.15 0.15 109.85 -1.3 112.45 -2.7 113.1 -4.35 Z" fill="none" stroke="#899331" stroke-linecap="square" stroke-linejoin="miter-clip" stroke-miterlimit="3.0" stroke-width="4.0"/>
  </g>
</svg>
