<?xml version="1.0" encoding="UTF-8" standalone="no"?>
<svg xmlns:ffdec="https://www.free-decompiler.com/flash" xmlns:xlink="http://www.w3.org/1999/xlink" ffdec:objectType="shape" height="43.4px" width="35.4px" xmlns="http://www.w3.org/2000/svg">
  <g transform="matrix(1.0, 0.0, 0.0, 1.0, -80.9, 32.05)">
    <path d="M98.15 -29.1 Q101.4 -28.35 102.5 -26.7 104.05 -24.55 100.85 -21.7 96.15 -17.4 87.5 -16.0 80.95 -20.35 85.2 -28.65 L98.15 -29.1" fill="#c5d071" fill-rule="evenodd" stroke="none"/>
    <path d="M98.15 -29.1 Q101.4 -28.35 102.5 -26.7 104.05 -24.55 100.85 -21.7 96.15 -17.4 87.5 -16.0 80.95 -20.35 85.2 -28.65 L98.15 -29.1 Z" fill="none" stroke="#899331" stroke-linecap="square" stroke-linejoin="miter-clip" stroke-miterlimit="3.0" stroke-width="4.0"/>
    <path d="M109.85 -0.3 Q112.45 1.1 113.1 2.75 113.9 4.95 110.55 6.7 105.45 9.35 97.7 8.5 93.1 3.25 98.65 -2.85 107.15 -1.75 109.85 -0.3" fill="#c5d071" fill-rule="evenodd" stroke="none"/>
    <path d="M109.85 -0.3 Q112.45 1.1 113.1 2.75 113.9 4.95 110.55 6.7 105.45 9.35 97.7 8.5 93.1 3.25 98.65 -2.85 107.15 -1.75 109.85 -0.3 Z" fill="none" stroke="#899331" stroke-linecap="square" stroke-linejoin="miter-clip" stroke-miterlimit="3.0" stroke-width="4.0"/>
  </g>
</svg>
