<?xml version="1.0" encoding="UTF-8" standalone="no"?>
<svg xmlns:ffdec="https://www.free-decompiler.com/flash" xmlns:xlink="http://www.w3.org/1999/xlink" ffdec:objectType="shape" height="221.3px" width="196.3px" xmlns="http://www.w3.org/2000/svg">
  <g transform="matrix(1.0, 0.0, 0.0, 1.0, 90.15, 190.65)">
    <path d="M20.5 -180.0 L27.35 -138.9 70.5 -142.5 70.5 -128.05 Q73.1 -126.45 75.4 -124.15 82.95 -116.6 83.0 -105.9 82.95 -102.1 82.0 -98.65 80.25 -92.5 75.4 -87.65 73.1 -85.35 70.5 -83.75 L70.5 -71.25 81.75 -63.55 95.5 -30.0 70.5 20.0 -73.0 20.0 -77.4 -82.35 Q-79.5 -87.0 -79.5 -92.5 L-79.4 -94.55 -79.5 -96.4 Q-79.5 -100.25 -78.35 -103.55 L-79.5 -130.0 -2.9 -136.35 8.0 -180.0 20.5 -180.0 Z" fill="none" stroke="#dfe47c" stroke-linecap="square" stroke-linejoin="miter-clip" stroke-miterlimit="1.0" stroke-width="16.0"/>
    <path d="M-2.85 -136.35 L8.0 -180.0 20.5 -180.0 27.4 -138.85 -2.85 -136.35" fill="#c2b772" fill-rule="evenodd" stroke="none"/>
    <path d="M27.4 -138.85 L70.5 -142.5 70.5 -71.25 70.5 -70.1 71.8 -70.1 Q74.9 -67.05 75.4 -63.0 L75.5 -61.25 Q75.5 -56.05 71.8 -52.45 L70.5 -51.25 67.7 -33.3 67.7 -33.05 70.5 -32.75 95.5 -30.0 70.5 20.0 -73.0 20.0 -79.5 -130.0 -2.85 -136.35 27.4 -138.85 M42.4 -56.85 Q44.25 -58.7 44.25 -61.25 44.25 -63.8 42.4 -65.7 40.55 -67.5 38.0 -67.5 35.45 -67.5 33.55 -65.7 31.75 -63.8 31.75 -61.25 31.75 -58.7 33.55 -56.85 35.45 -55.0 38.0 -55.0 40.55 -55.0 42.4 -56.85 M58.55 -65.7 Q56.75 -63.8 56.75 -61.25 56.75 -58.7 58.55 -56.85 60.45 -55.0 63.0 -55.0 65.55 -55.0 67.4 -56.85 69.25 -58.7 69.25 -61.25 69.25 -63.8 67.4 -65.7 65.55 -67.5 63.0 -67.5 60.45 -67.5 58.55 -65.7 M31.75 -72.1 Q30.4 -71.3 29.15 -70.1 25.5 -66.45 25.5 -61.25 25.5 -56.05 29.15 -52.45 30.4 -51.2 31.75 -50.35 30.4 -51.2 29.15 -52.45 25.5 -56.05 25.5 -61.25 25.5 -66.45 29.15 -70.1 30.4 -71.3 31.75 -72.1 M20.5 -38.3 L67.7 -33.05 20.5 -38.3 8.0 -67.5 -4.5 -41.1 20.5 -38.3 M-17.0 -55.0 L-17.0 -42.5 -4.5 -41.1 -17.0 -42.5 -17.0 -55.0" fill="#afb57d" fill-rule="evenodd" stroke="none"/>
    <path d="M58.55 -65.7 Q60.45 -67.5 63.0 -67.5 65.55 -67.5 67.4 -65.7 69.25 -63.8 69.25 -61.25 69.25 -58.7 67.4 -56.85 65.55 -55.0 63.0 -55.0 60.45 -55.0 58.55 -56.85 56.75 -58.7 56.75 -61.25 56.75 -63.8 58.55 -65.7 M42.4 -56.85 Q40.55 -55.0 38.0 -55.0 35.45 -55.0 33.55 -56.85 31.75 -58.7 31.75 -61.25 31.75 -63.8 33.55 -65.7 35.45 -67.5 38.0 -67.5 40.55 -67.5 42.4 -65.7 44.25 -63.8 44.25 -61.25 44.25 -58.7 42.4 -56.85" fill="#525632" fill-rule="evenodd" stroke="none"/>
    <path d="M67.7 -33.3 L70.5 -32.75 67.7 -33.05 67.7 -33.3" fill="#cbddbf" fill-rule="evenodd" stroke="none"/>
    <path d="M67.7 -33.3 L81.75 -63.55 95.5 -30.0 70.5 -32.75 67.7 -33.3 M20.5 -38.3 L-4.5 -41.1 8.0 -67.5 20.5 -38.3" fill="#e1ffa4" fill-rule="evenodd" stroke="none"/>
    <path d="M-2.85 -136.35 L8.0 -180.0 20.5 -180.0 27.4 -138.85" fill="none" stroke="#aa9b48" stroke-linecap="square" stroke-linejoin="miter-clip" stroke-miterlimit="3.0" stroke-width="4.0"/>
    <path d="M27.4 -138.85 L70.5 -142.5 70.5 -71.25 71.8 -70.1 Q74.9 -67.05 75.4 -63.0 L75.5 -61.25 Q75.5 -56.05 71.8 -52.45 L70.5 -51.25 67.7 -33.3 70.5 -32.75 95.5 -30.0 70.5 20.0 -73.0 20.0 -79.5 -130.0 -2.85 -136.35 27.4 -138.85 M70.5 -32.75 L67.7 -33.05 20.5 -38.3 -4.5 -41.1 -17.0 -42.5 -17.0 -55.0" fill="none" stroke="#525632" stroke-linecap="square" stroke-linejoin="miter-clip" stroke-miterlimit="10.0" stroke-width="6.0"/>
    <path d="M67.7 -33.3 L81.75 -63.55 95.5 -30.0 M31.75 -50.35 Q30.4 -51.2 29.15 -52.45 25.5 -56.05 25.5 -61.25 25.5 -66.45 29.15 -70.1 30.4 -71.3 31.75 -72.1 M-4.5 -41.1 L8.0 -67.5 20.5 -38.3" fill="none" stroke="#525632" stroke-linecap="square" stroke-linejoin="miter-clip" stroke-miterlimit="10.0" stroke-width="4.0"/>
    <path d="M17.75 -15.75 Q19.75 -12.7 19.8 -9.0 19.75 -4.05 16.15 -0.75 13.5 1.65 10.05 2.15 L7.4 2.25 Q2.25 1.9 -1.35 -1.8 -5.0 -5.55 -5.0 -10.5 -5.05 -14.25 -3.0 -17.0 -1.5 -20.25 -1.5 -23.95 -1.5 -28.95 -8.95 -36.25 L24.95 -34.2 Q16.25 -27.8 16.25 -22.85 16.2 -19.1 17.75 -15.75 M3.5 -14.75 Q1.65 -14.75 0.3 -13.3 -1.0 -11.85 -1.0 -9.85 -1.0 -7.85 0.3 -6.45 1.65 -5.0 3.5 -5.0 5.4 -5.0 6.7 -6.45 8.0 -7.85 8.0 -9.85 8.0 -11.85 6.7 -13.3 5.4 -14.75 3.5 -14.75" fill="#eae193" fill-rule="evenodd" stroke="none"/>
    <path d="M3.5 -14.75 Q5.4 -14.75 6.7 -13.3 8.0 -11.85 8.0 -9.85 8.0 -7.85 6.7 -6.45 5.4 -5.0 3.5 -5.0 1.65 -5.0 0.3 -6.45 -1.0 -7.85 -1.0 -9.85 -1.0 -11.85 0.3 -13.3 1.65 -14.75 3.5 -14.75" fill="#ffffff" fill-rule="evenodd" stroke="none"/>
    <path d="M-56.55 -117.45 Q-49.0 -116.8 -43.55 -111.35 -37.35 -105.2 -37.35 -96.45 -37.35 -87.7 -43.55 -81.55 -49.7 -75.35 -58.45 -75.35 -67.2 -75.35 -73.35 -81.55 -78.8 -87.0 -79.45 -94.55 L-79.5 -96.45 Q-79.5 -105.2 -73.35 -111.35 -67.2 -117.5 -58.45 -117.5 L-56.55 -117.45" fill="#d7cfa2" fill-rule="evenodd" stroke="none"/>
    <path d="M-79.45 -94.55 Q-78.8 -87.0 -73.35 -81.55 -67.2 -75.35 -58.45 -75.35 -49.7 -75.35 -43.55 -81.55 -37.35 -87.7 -37.35 -96.45 -37.35 -105.2 -43.55 -111.35 -49.0 -116.8 -56.55 -117.45 L-54.5 -117.5 Q-44.1 -117.5 -36.8 -110.2 -29.5 -102.85 -29.5 -92.5 -29.5 -82.1 -36.8 -74.8 -44.1 -67.5 -54.5 -67.5 -64.85 -67.5 -72.2 -74.8 -79.5 -82.1 -79.5 -92.5 L-79.45 -94.55" fill="#c2b772" fill-rule="evenodd" stroke="none"/>
    <path d="M-79.45 -94.55 L-79.5 -92.5 Q-79.5 -82.1 -72.2 -74.8 -64.85 -67.5 -54.5 -67.5 -44.1 -67.5 -36.8 -74.8 -29.5 -82.1 -29.5 -92.5 -29.5 -102.85 -36.8 -110.2 -44.1 -117.5 -54.5 -117.5 L-56.55 -117.45 -58.45 -117.5 Q-67.2 -117.5 -73.35 -111.35 -79.5 -105.2 -79.5 -96.45 L-79.45 -94.55 Z" fill="none" stroke="#aa9b48" stroke-linecap="square" stroke-linejoin="miter-clip" stroke-miterlimit="3.0" stroke-width="4.0"/>
    <path d="M11.75 -103.75 L11.75 -104.55 11.75 -105.05 Q11.55 -109.3 8.55 -112.35 5.3 -115.55 0.75 -115.55 -3.8 -115.55 -7.0 -112.35 -10.25 -109.1 -10.25 -104.55 -10.25 -102.95 -9.8 -101.45 L-9.35 -100.25 -20.45 -98.35 Q-21.25 -101.3 -21.25 -104.55 -21.3 -113.7 -14.8 -120.2 -8.35 -126.6 0.75 -126.55 9.9 -126.6 16.4 -120.2 22.4 -114.05 22.75 -105.6 L22.65 -105.55 11.75 -103.75 M31.5 -107.05 L31.4 -107.05 Q31.75 -117.0 38.9 -124.2 46.45 -131.7 57.15 -131.7 67.8 -131.7 75.4 -124.2 83.0 -116.6 83.0 -105.85 82.95 -102.05 82.0 -98.6 L69.05 -100.8 69.55 -102.25 Q70.05 -104.0 70.05 -105.85 70.05 -111.25 66.25 -115.0 62.5 -118.8 57.15 -118.75 51.8 -118.8 48.0 -115.0 44.45 -111.45 44.3 -106.45 L44.25 -105.85 44.3 -104.95 31.5 -107.05" fill="#ccff33" fill-rule="evenodd" stroke="none"/>
    <path d="M-9.35 -100.25 L-9.8 -101.45 Q-10.25 -102.95 -10.25 -104.55 -10.25 -109.1 -7.0 -112.35 -3.8 -115.55 0.75 -115.55 5.3 -115.55 8.55 -112.35 11.55 -109.3 11.75 -105.05 L11.75 -104.55 11.75 -103.75 -9.35 -100.25 M69.05 -100.8 L44.3 -104.95 44.25 -105.85 44.3 -106.45 Q44.45 -111.45 48.0 -115.0 51.8 -118.8 57.15 -118.75 62.5 -118.8 66.25 -115.0 70.05 -111.25 70.05 -105.85 70.05 -104.0 69.55 -102.25 L69.05 -100.8" fill="#336600" fill-rule="evenodd" stroke="none"/>
    <path d="M22.65 -105.55 L22.75 -105.6 22.75 -104.55 22.65 -105.55 M31.5 -107.05 L31.3 -105.85 31.4 -107.05 31.5 -107.05" fill="#73935e" fill-rule="evenodd" stroke="none"/>
    <path d="M11.75 -103.75 L22.65 -105.55 22.75 -104.55 Q22.75 -95.5 16.4 -89.05 9.9 -82.55 0.75 -82.55 -8.35 -82.55 -14.8 -89.05 -18.95 -93.2 -20.45 -98.35 L-9.35 -100.25 11.75 -103.75 M31.3 -105.85 L31.5 -107.05 44.3 -104.95 69.05 -100.8 82.0 -98.6 Q80.25 -92.5 75.4 -87.7 67.8 -80.05 57.15 -80.05 46.45 -80.05 38.9 -87.7 31.3 -95.2 31.3 -105.85" fill="#525632" fill-rule="evenodd" stroke="none"/>
    <path d="M22.75 -105.6 Q22.4 -114.05 16.4 -120.2 9.9 -126.6 0.75 -126.55 -8.35 -126.6 -14.8 -120.2 -21.3 -113.7 -21.25 -104.55 -21.25 -101.3 -20.45 -98.35 -18.95 -93.2 -14.8 -89.05 -8.35 -82.55 0.75 -82.55 9.9 -82.55 16.4 -89.05 22.75 -95.5 22.75 -104.55 L22.75 -105.6 M31.4 -107.05 L31.3 -105.85 Q31.3 -95.2 38.9 -87.7 46.45 -80.05 57.15 -80.05 67.8 -80.05 75.4 -87.7 80.25 -92.5 82.0 -98.6 82.95 -102.05 83.0 -105.85 83.0 -116.6 75.4 -124.2 67.8 -131.7 57.15 -131.7 46.45 -131.7 38.9 -124.2 31.75 -117.0 31.4 -107.05 Z" fill="none" stroke="#525632" stroke-linecap="square" stroke-linejoin="miter-clip" stroke-miterlimit="10.0" stroke-width="4.0"/>
  </g>
</svg>
