<?xml version="1.0" encoding="UTF-8" standalone="no"?>
<svg xmlns:ffdec="https://www.free-decompiler.com/flash" xmlns:xlink="http://www.w3.org/1999/xlink" ffdec:objectType="shape" height="209.1px" width="196.9px" xmlns="http://www.w3.org/2000/svg">
  <g transform="matrix(1.0, 0.0, 0.0, 1.0, 110.75, 178.45)">
    <path d="M46.75 -167.8 L41.05 -132.85 -74.5 -142.5 -74.5 -128.05 Q-77.1 -126.45 -79.35 -124.15 -86.95 -116.6 -86.95 -105.9 -86.95 -102.1 -85.95 -98.65 -84.25 -92.5 -79.35 -87.65 -77.1 -85.35 -74.5 -83.75 L-74.5 -71.25 -75.8 -70.1 Q-78.85 -67.05 -79.35 -63.0 L-79.5 -61.25 Q-79.5 -56.7 -76.6 -53.3" fill="none" stroke="#dfe47c" stroke-linecap="square" stroke-linejoin="miter-clip" stroke-miterlimit="1.0" stroke-width="16.0"/>
    <path d="M-76.6 -53.3 L-75.6 -52.8 -75.6 -52.75 -76.6 -53.3 -87.65 -58.85 -99.5 -30.0 -96.95 -24.9 -96.95 -20.25 Q-96.55 -19.15 -96.55 -18.1 -96.55 -14.4 -98.1 -11.0 L-98.05 -11.0" fill="none" stroke="#dfe47c" stroke-linecap="round" stroke-linejoin="miter-clip" stroke-miterlimit="1.0" stroke-width="16.0"/>
    <path d="M-98.05 -11.0 Q-100.15 -7.95 -100.1 -4.25 -100.15 0.7 -96.45 4.0 -93.85 6.35 -90.4 6.9 L-87.7 7.0 Q-84.5 6.75 -81.85 5.25 L-74.5 20.0 69.0 20.0 73.45 -82.3 Q75.5 -86.95 75.5 -92.5 L75.5 -93.1 75.45 -94.55 75.5 -96.0 75.5 -96.4 Q75.5 -100.2 74.35 -103.5 L75.5 -130.0 67.4 -130.65 59.25 -167.8 46.75 -167.8" fill="none" stroke="#dfe47c" stroke-linecap="round" stroke-linejoin="miter-clip" stroke-miterlimit="1.0" stroke-width="16.0"/>
    <path d="M-100.1 -4.25 Q-100.15 -7.95 -98.05 -11.0 L-98.1 -11.0 Q-96.55 -14.4 -96.55 -18.1 -96.55 -19.15 -96.95 -20.25 L-96.95 -29.9 -71.4 -31.5 Q-78.85 -24.15 -78.85 -19.2 -78.85 -15.5 -77.35 -12.25 -75.3 -9.5 -75.3 -5.75 -75.35 -0.8 -78.95 2.9 -82.6 6.65 -87.7 7.0 L-90.4 6.9 Q-93.85 6.35 -96.45 4.0 -100.15 0.7 -100.1 -4.25 M-88.35 -5.1 Q-88.35 -3.1 -87.0 -1.65 -85.7 -0.25 -83.85 -0.25 -81.95 -0.25 -80.65 -1.65 -79.35 -3.1 -79.35 -5.1 -79.35 -7.1 -80.65 -8.55 -81.95 -10.0 -83.85 -10.0 -85.7 -10.0 -87.0 -8.55 -88.35 -7.1 -88.35 -5.1" fill="#eae193" fill-rule="evenodd" stroke="none"/>
    <path d="M-88.35 -5.1 Q-88.35 -7.1 -87.0 -8.55 -85.7 -10.0 -83.85 -10.0 -81.95 -10.0 -80.65 -8.55 -79.35 -7.1 -79.35 -5.1 -79.35 -3.1 -80.65 -1.65 -81.95 -0.25 -83.85 -0.25 -85.7 -0.25 -87.0 -1.65 -88.35 -3.1 -88.35 -5.1" fill="#ffffff" fill-rule="evenodd" stroke="none"/>
    <path d="M13.0 -55.0 L13.0 -42.5 0.5 -41.1 13.0 -42.5 13.0 -55.0 M-74.5 -71.25 L-74.5 -142.5 75.5 -130.0 69.0 20.0 -74.5 20.0 -99.5 -30.0 -74.5 -32.75 -71.65 -33.1 -71.65 -33.3 -74.5 -51.25 -75.8 -52.4 Q-79.5 -56.05 -79.5 -61.25 L-79.35 -63.0 Q-78.85 -67.05 -75.8 -70.1 L-74.5 -70.1 -74.5 -71.25 M-35.75 -72.1 Q-34.35 -71.35 -33.1 -70.1 -29.5 -66.45 -29.5 -61.25 -29.5 -56.05 -33.1 -52.4 -34.35 -51.2 -35.75 -50.35 -34.35 -51.2 -33.1 -52.4 -29.5 -56.05 -29.5 -61.25 -29.5 -66.45 -33.1 -70.1 -34.35 -71.35 -35.75 -72.1 M-37.55 -65.65 Q-39.45 -67.5 -42.0 -67.5 -44.55 -67.5 -46.35 -65.65 -48.25 -63.8 -48.25 -61.25 -48.25 -58.7 -46.35 -56.85 -44.55 -55.0 -42.0 -55.0 -39.45 -55.0 -37.55 -56.85 -35.75 -58.7 -35.75 -61.25 -35.75 -63.8 -37.55 -65.65 M-67.0 -67.5 Q-69.55 -67.5 -71.35 -65.65 -73.25 -63.8 -73.25 -61.25 -73.25 -58.7 -71.35 -56.85 -69.55 -55.0 -67.0 -55.0 -64.45 -55.0 -62.55 -56.85 -60.75 -58.7 -60.75 -61.25 -60.75 -63.8 -62.55 -65.65 -64.45 -67.5 -67.0 -67.5 M-24.5 -38.35 L-71.65 -33.1 -24.5 -38.35 0.5 -41.1 -12.0 -67.5 -24.5 -38.35" fill="#afb57d" fill-rule="evenodd" stroke="none"/>
    <path d="M-99.5 -30.0 L-85.75 -63.55 -71.65 -33.3 -74.5 -32.75 -99.5 -30.0 M-24.5 -38.35 L-12.0 -67.5 0.5 -41.1 -24.5 -38.35" fill="#e1ffa4" fill-rule="evenodd" stroke="none"/>
    <path d="M-67.0 -67.5 Q-64.45 -67.5 -62.55 -65.65 -60.75 -63.8 -60.75 -61.25 -60.75 -58.7 -62.55 -56.85 -64.45 -55.0 -67.0 -55.0 -69.55 -55.0 -71.35 -56.85 -73.25 -58.7 -73.25 -61.25 -73.25 -63.8 -71.35 -65.65 -69.55 -67.5 -67.0 -67.5 M-37.55 -65.65 Q-35.75 -63.8 -35.75 -61.25 -35.75 -58.7 -37.55 -56.85 -39.45 -55.0 -42.0 -55.0 -44.55 -55.0 -46.35 -56.85 -48.25 -58.7 -48.25 -61.25 -48.25 -63.8 -46.35 -65.65 -44.55 -67.5 -42.0 -67.5 -39.45 -67.5 -37.55 -65.65" fill="#525632" fill-rule="evenodd" stroke="none"/>
    <path d="M-71.65 -33.3 L-71.65 -33.1 -74.5 -32.75 -71.65 -33.3" fill="#cbddbf" fill-rule="evenodd" stroke="none"/>
    <path d="M0.5 -41.1 L13.0 -42.5 13.0 -55.0 M-74.5 -71.25 L-74.5 -142.5 75.5 -130.0 69.0 20.0 -74.5 20.0 -99.5 -30.0 -74.5 -32.75 -71.65 -33.1 -24.5 -38.35 0.5 -41.1 M-71.65 -33.3 L-74.5 -51.25 -75.8 -52.4 Q-79.5 -56.05 -79.5 -61.25 L-79.35 -63.0 Q-78.85 -67.05 -75.8 -70.1 L-74.5 -71.25 M-71.65 -33.3 L-74.5 -32.75" fill="none" stroke="#525632" stroke-linecap="square" stroke-linejoin="miter-clip" stroke-miterlimit="10.0" stroke-width="6.0"/>
    <path d="M-99.5 -30.0 L-85.75 -63.55 -71.65 -33.3 M-35.75 -50.35 Q-34.35 -51.2 -33.1 -52.4 -29.5 -56.05 -29.5 -61.25 -29.5 -66.45 -33.1 -70.1 -34.35 -71.35 -35.75 -72.1 M-24.5 -38.35 L-12.0 -67.5 0.5 -41.1" fill="none" stroke="#525632" stroke-linecap="square" stroke-linejoin="miter-clip" stroke-miterlimit="10.0" stroke-width="4.0"/>
    <path d="M52.6 -117.4 L50.55 -117.15 50.5 -117.5 52.6 -117.4 M26.0 -97.6 L33.4 -96.95 33.4 -96.4 33.45 -96.95 39.55 -96.4 68.3 -112.35 69.4 -111.35 Q75.5 -105.2 75.5 -96.4 L75.45 -94.55 75.5 -93.1 75.5 -92.5 Q75.5 -82.1 68.2 -74.8 60.9 -67.5 50.5 -67.5 40.15 -67.5 32.85 -74.8 26.85 -80.75 25.75 -88.75 25.5 -90.55 25.5 -92.5 25.5 -95.15 26.0 -97.6" fill="#c2b772" fill-rule="evenodd" stroke="none"/>
    <path d="M52.6 -117.4 L54.45 -117.5 Q62.45 -117.5 68.3 -112.35 L39.55 -96.4 33.45 -96.95 33.4 -96.4 33.4 -96.95 26.0 -97.6 Q27.4 -104.75 32.85 -110.15 40.15 -117.5 50.5 -117.5 L50.55 -117.15 52.6 -117.4" fill="#d7cfa2" fill-rule="evenodd" stroke="none"/>
    <path d="M68.3 -112.35 Q62.45 -117.5 54.45 -117.5 L52.6 -117.4 50.5 -117.5 Q40.15 -117.5 32.85 -110.15 27.4 -104.75 26.0 -97.6 25.5 -95.15 25.5 -92.5 25.5 -90.55 25.75 -88.75 26.85 -80.75 32.85 -74.8 40.15 -67.5 50.5 -67.5 60.9 -67.5 68.2 -74.8 75.5 -82.1 75.5 -92.5 L75.5 -93.1 75.45 -94.55 75.5 -96.4 Q75.5 -105.2 69.4 -111.35 L68.3 -112.35 Z" fill="none" stroke="#aa9b48" stroke-linecap="square" stroke-linejoin="miter-clip" stroke-miterlimit="3.0" stroke-width="4.0"/>
    <path d="M-15.75 -103.75 L-15.75 -104.55 -15.75 -105.05 Q-15.55 -109.3 -12.55 -112.35 -9.3 -115.55 -4.75 -115.55 -0.2 -115.55 3.0 -112.35 6.25 -109.1 6.25 -104.55 6.25 -102.95 5.8 -101.45 L5.4 -100.25 -15.75 -103.75 M-73.05 -100.8 L-73.55 -102.25 Q-74.05 -104.0 -74.05 -105.85 -74.05 -111.25 -70.25 -115.0 -66.5 -118.8 -61.1 -118.75 -55.8 -118.8 -52.0 -115.0 -48.45 -111.45 -48.3 -106.45 L-48.25 -105.85 -48.3 -104.95 -73.05 -100.8" fill="#336600" fill-rule="evenodd" stroke="none"/>
    <path d="M-26.75 -105.6 Q-26.35 -114.05 -20.35 -120.2 -13.85 -126.6 -4.75 -126.55 4.4 -126.6 10.8 -120.2 17.3 -113.7 17.25 -104.55 17.25 -101.3 16.45 -98.35 L5.4 -100.25 5.8 -101.45 Q6.25 -102.95 6.25 -104.55 6.25 -109.1 3.0 -112.35 -0.2 -115.55 -4.75 -115.55 -9.3 -115.55 -12.55 -112.35 -15.55 -109.3 -15.75 -105.05 L-15.75 -104.55 -15.75 -103.75 -26.6 -105.55 -26.75 -105.6 M-86.0 -98.6 Q-86.95 -102.05 -87.0 -105.85 -87.0 -116.6 -79.35 -124.2 -71.8 -131.7 -61.1 -131.7 -50.45 -131.7 -42.85 -124.2 -35.75 -117.0 -35.35 -107.05 L-35.5 -107.05 -48.3 -104.95 -48.25 -105.85 -48.3 -106.45 Q-48.45 -111.45 -52.0 -115.0 -55.8 -118.8 -61.1 -118.75 -66.5 -118.8 -70.25 -115.0 -74.05 -111.25 -74.05 -105.85 -74.05 -104.0 -73.55 -102.25 L-73.05 -100.8 -86.0 -98.6" fill="#ccff33" fill-rule="evenodd" stroke="none"/>
    <path d="M16.45 -98.35 Q14.95 -93.2 10.8 -89.05 4.4 -82.55 -4.75 -82.55 -13.85 -82.55 -20.35 -89.05 -26.75 -95.5 -26.75 -104.55 L-26.6 -105.55 -15.75 -103.75 5.4 -100.25 16.45 -98.35 M-35.3 -105.85 Q-35.3 -95.2 -42.85 -87.7 -50.45 -80.05 -61.1 -80.05 -71.8 -80.05 -79.35 -87.7 -84.25 -92.5 -86.0 -98.6 L-73.05 -100.8 -48.3 -104.95 -35.5 -107.05 -35.3 -105.85" fill="#525632" fill-rule="evenodd" stroke="none"/>
    <path d="M-26.75 -104.55 L-26.75 -105.6 -26.6 -105.55 -26.75 -104.55 M-35.35 -107.05 L-35.3 -105.85 -35.5 -107.05 -35.35 -107.05" fill="#73935e" fill-rule="evenodd" stroke="none"/>
    <path d="M-26.75 -105.6 Q-26.35 -114.05 -20.35 -120.2 -13.85 -126.6 -4.75 -126.55 4.4 -126.6 10.8 -120.2 17.3 -113.7 17.25 -104.55 17.25 -101.3 16.45 -98.35 14.95 -93.2 10.8 -89.05 4.4 -82.55 -4.75 -82.55 -13.85 -82.55 -20.35 -89.05 -26.75 -95.5 -26.75 -104.55 L-26.75 -105.6 M-86.0 -98.6 Q-86.95 -102.05 -87.0 -105.85 -87.0 -116.6 -79.35 -124.2 -71.8 -131.7 -61.1 -131.7 -50.45 -131.7 -42.85 -124.2 -35.75 -117.0 -35.35 -107.05 L-35.3 -105.85 Q-35.3 -95.2 -42.85 -87.7 -50.45 -80.05 -61.1 -80.05 -71.8 -80.05 -79.35 -87.7 -84.25 -92.5 -86.0 -98.6 Z" fill="none" stroke="#525632" stroke-linecap="square" stroke-linejoin="miter-clip" stroke-miterlimit="10.0" stroke-width="4.0"/>
    <path d="M35.0 -96.0 L46.75 -167.8 59.25 -167.8 75.0 -96.0 35.0 -96.0" fill="#c2b772" fill-rule="evenodd" stroke="none"/>
    <path d="M75.0 -96.0 L59.25 -167.8 46.75 -167.8 35.0 -96.0" fill="none" stroke="#aa9b48" stroke-linecap="square" stroke-linejoin="miter-clip" stroke-miterlimit="3.0" stroke-width="4.0"/>
  </g>
</svg>
