<?xml version="1.0" encoding="UTF-8" standalone="no"?>
<svg xmlns:ffdec="https://www.free-decompiler.com/flash" xmlns:xlink="http://www.w3.org/1999/xlink" ffdec:objectType="shape" height="131.3px" width="131.3px" xmlns="http://www.w3.org/2000/svg">
  <g transform="matrix(1.0, 0.0, 0.0, 1.0, 65.65, 60.65)">
    <path d="M52.1 -13.15 Q55.0 -4.7 55.0 5.0 55.0 27.8 38.9 43.9 22.8 60.0 0.0 60.0 -22.8 60.0 -38.9 43.9 -55.0 27.8 -55.0 5.0 -55.0 -4.7 -52.1 -13.15 L-53.55 -16.45 Q-50.2 -31.1 -38.9 -42.4 -34.5 -46.8 -29.6 -50.0 -23.3 -49.9 -18.15 -47.1 -9.7 -50.0 0.0 -50.0 9.7 -50.0 18.15 -47.1 23.3 -49.9 29.6 -50.0 34.5 -46.8 38.9 -42.4 50.2 -31.1 53.6 -16.45 L52.1 -13.15 Z" fill="none" stroke="#6f8b25" stroke-linecap="square" stroke-linejoin="miter-clip" stroke-miterlimit="3.0" stroke-width="16.0"/>
    <path d="M15.0 55.05 L15.0 45.05 -15.0 45.05 -15.0 55.05" fill="none" stroke="#666666" stroke-linecap="square" stroke-linejoin="miter-clip" stroke-miterlimit="3.0" stroke-width="6.0"/>
    <path d="M52.1 -13.15 Q55.0 -4.7 55.0 5.0 55.0 27.8 38.9 43.9 22.8 60.0 0.0 60.0 -22.8 60.0 -38.9 43.9 -55.0 27.8 -55.0 5.0 -55.0 -4.7 -52.1 -13.15 L-53.55 -16.45 Q-50.2 -31.1 -38.9 -42.4 -34.5 -46.8 -29.6 -50.0 -23.3 -49.9 -18.15 -47.1 -9.7 -50.0 0.0 -50.0 9.7 -50.0 18.15 -47.1 23.3 -49.9 29.6 -50.0 34.5 -46.8 38.9 -42.4 50.2 -31.1 53.6 -16.45 L52.1 -13.15 Q50.35 -10.05 47.65 -7.35 40.35 0.0 30.0 0.0 L24.5 -0.55 30.0 0.0 Q40.35 0.0 47.65 -7.35 50.35 -10.05 52.1 -13.15 M-24.5 -0.55 L-30.0 0.0 Q-40.35 0.0 -47.7 -7.35 -50.4 -10.05 -52.1 -13.15 -50.4 -10.05 -47.7 -7.35 -40.35 0.0 -30.0 0.0 L-24.5 -0.55" fill="#525632" fill-rule="evenodd" stroke="none"/>
    <path d="M52.1 -13.15 Q55.0 -4.7 55.0 5.0 55.0 27.8 38.9 43.9 22.8 60.0 0.0 60.0 -22.8 60.0 -38.9 43.9 -55.0 27.8 -55.0 5.0 -55.0 -4.7 -52.1 -13.15 L-53.55 -16.45 Q-50.2 -31.1 -38.9 -42.4 -34.5 -46.8 -29.6 -50.0 -23.3 -49.9 -18.15 -47.1 -9.7 -50.0 0.0 -50.0 9.7 -50.0 18.15 -47.1 23.3 -49.9 29.6 -50.0 34.5 -46.8 38.9 -42.4 50.2 -31.1 53.6 -16.45 L52.1 -13.15" fill="none" stroke="#32341f" stroke-linecap="round" stroke-linejoin="miter-clip" stroke-miterlimit="3.0" stroke-width="6.0"/>
    <path d="M52.1 -13.15 Q50.35 -10.05 47.65 -7.35 40.35 0.0 30.0 0.0 L24.5 -0.55 M-52.1 -13.15 Q-50.4 -10.05 -47.7 -7.35 -40.35 0.0 -30.0 0.0 L-24.5 -0.55" fill="none" stroke="#32341f" stroke-linecap="round" stroke-linejoin="miter-clip" stroke-miterlimit="3.0" stroke-width="6.0"/>
    <path d="M0.0 48.7 Q-1.55 48.7 -2.65 47.55 -3.75 46.45 -3.75 44.95 -3.75 44.05 -2.25 41.0 -0.65 37.8 0.0 37.8 0.7 37.8 2.25 41.0 3.75 44.05 3.75 44.95 3.75 46.45 2.65 47.55 1.55 48.7 0.0 48.7" fill="#32341f" fill-rule="evenodd" stroke="none"/>
    <path d="M-16.9 29.55 Q-19.8 32.5 -23.95 32.5 -28.1 32.5 -31.05 29.55 -33.95 26.65 -33.95 22.5 -33.95 18.35 -31.05 15.4 -28.1 12.5 -23.95 12.5 -19.8 12.5 -16.9 15.4 -13.95 18.35 -13.95 22.5 -13.95 26.65 -16.9 29.55" fill="#6b7041" fill-rule="evenodd" stroke="none"/>
    <path d="M15.0 32.5 Q14.0 32.5 13.25 31.75 12.5 31.05 12.5 30.0 12.5 29.0 13.25 28.25 14.0 27.5 15.0 27.5 16.05 27.5 16.75 28.25 17.5 29.0 17.5 30.0 17.5 31.05 16.75 31.75 16.05 32.5 15.0 32.5" fill="#6b7041" fill-rule="evenodd" stroke="none"/>
    <path d="M38.7 -26.9 Q37.25 -25.45 35.15 -25.45 33.1 -25.45 31.6 -26.9 30.15 -28.35 30.15 -30.45 30.15 -32.5 31.6 -34.0 33.1 -35.45 35.15 -35.45 37.25 -35.45 38.7 -34.0 40.15 -32.5 40.15 -30.45 40.15 -28.35 38.7 -26.9" fill="#6b7041" fill-rule="evenodd" stroke="none"/>
    <path d="M38.4 -18.25 Q37.65 -18.95 37.65 -20.0 37.65 -21.0 38.4 -21.75 39.15 -22.5 40.15 -22.5 41.2 -22.5 41.9 -21.75 42.65 -21.0 42.65 -20.0 42.65 -18.95 41.9 -18.25 41.2 -17.5 40.15 -17.5 39.15 -17.5 38.4 -18.25" fill="#6b7041" fill-rule="evenodd" stroke="none"/>
    <path d="M-13.7 48.25 Q-12.95 49.0 -12.95 50.0 -12.95 51.05 -13.7 51.75 -14.4 52.5 -15.45 52.5 -16.45 52.5 -17.2 51.75 -17.95 51.05 -17.95 50.0 -17.95 49.0 -17.2 48.25 -16.45 47.5 -15.45 47.5 -14.4 47.5 -13.7 48.25" fill="#6b7041" fill-rule="evenodd" stroke="none"/>
  </g>
</svg>
