<?xml version="1.0" encoding="UTF-8" standalone="no"?>
<svg xmlns:ffdec="https://www.free-decompiler.com/flash" xmlns:xlink="http://www.w3.org/1999/xlink" ffdec:objectType="shape" height="148.0px" width="134.8px" xmlns="http://www.w3.org/2000/svg">
  <g transform="matrix(1.0, 0.0, 0.0, 1.0, 67.4, 132.0)">
    <path d="M30.5 -61.55 L30.4 -61.55 15.3 -54.0 -15.3 -54.0 -30.4 -61.55 -30.65 -61.65 -35.3 -64.0 35.3 -64.0 30.65 -61.65 30.5 -61.55 M27.3 -86.0 L-27.3 -86.0 -5.55 -96.85 0.0 -113.5 5.55 -96.85 27.3 -86.0" fill="#cc6633" fill-rule="evenodd" stroke="none"/>
    <path d="M53.2 -57.55 L42.8 -52.4 42.8 -52.45 37.1 -58.15 47.4 -63.35 53.2 -57.55 M-42.8 -52.4 L-53.15 -57.55 -47.4 -63.35 -37.05 -58.15 -42.75 -52.45 -42.8 -52.4" fill="#c9bc8f" fill-rule="evenodd" stroke="none"/>
    <path d="M45.0 -70.0 L-45.0 -70.0 -45.0 -73.75 -38.75 -80.0 38.75 -80.0 45.0 -73.75 45.0 -70.0 M53.2 -57.55 L53.25 -57.5 60.6 -20.65 54.95 -17.8 54.5 -17.6 50.2 -15.45 42.8 -52.4 53.2 -57.55 M-53.15 -57.55 L-42.8 -52.4 -50.15 -15.45 -54.45 -17.6 -54.9 -17.8 -60.6 -20.65 -53.2 -57.5 -53.15 -57.55" fill="#bbab73" fill-rule="evenodd" stroke="none"/>
    <path d="M0.15 -132.0 L10.45 -101.1 41.1 -85.8 41.55 -85.55 42.0 -85.25 42.1 -85.15 42.15 -85.1 51.0 -76.25 51.0 -68.25 58.8 -60.45 67.4 -17.35 59.0 -13.15 59.0 -1.15 37.7 9.5 35.9 -1.55 17.8 7.45 9.25 16.0 -9.25 16.0 -17.8 7.45 -35.85 -1.55 -37.7 9.5 -59.0 -1.15 -59.0 -13.15 -67.4 -17.35 -58.75 -60.45 -51.0 -68.25 -51.0 -76.25 -42.1 -85.1 -42.05 -85.15 -42.0 -85.25 -41.95 -85.3 -41.65 -85.5 -41.05 -85.8 -10.45 -101.1 -0.15 -132.0 0.15 -132.0 M45.0 -70.0 L45.0 -73.75 38.75 -80.0 -38.75 -80.0 -45.0 -73.75 -45.0 -70.0 45.0 -70.0 M42.8 -52.4 L50.2 -15.45 54.5 -17.6 54.95 -17.8 60.6 -20.65 53.25 -57.5 53.2 -57.55 47.4 -63.35 37.1 -58.15 42.8 -52.45 42.8 -52.4 M30.5 -61.55 L30.65 -61.65 35.3 -64.0 -35.3 -64.0 -30.65 -61.65 -30.4 -61.55 -15.3 -54.0 15.3 -54.0 30.4 -61.55 30.5 -61.55 M37.25 -49.5 L35.0 -51.75 35.0 -43.2 41.05 -6.9 41.15 -6.1 42.3 0.5 53.0 -4.85 53.0 -10.15 45.85 -6.55 37.25 -49.5 M27.3 -86.0 L5.55 -96.85 0.0 -113.5 -5.55 -96.85 -27.3 -86.0 27.3 -86.0 M31.85 -25.8 L29.0 -42.75 29.0 -54.15 16.7 -48.0 -16.7 -48.0 -29.0 -54.15 -29.0 -42.75 -31.8 -25.75 -34.8 -7.7 -19.0 0.2 -19.0 -20.25 -19.0 -22.0 19.0 -22.0 19.0 -20.3 19.0 0.15 34.85 -7.75 31.85 -25.8 M18.4 -35.8 L9.6 -35.8 5.6 -45.4 18.4 -45.4 18.4 -35.8 M11.0 -14.0 L-11.0 -14.0 -11.0 -8.0 11.0 -8.0 11.0 -14.0 M-35.0 -51.75 L-37.2 -49.5 -45.8 -6.55 -53.0 -10.15 -53.0 -4.85 -42.25 0.5 -41.15 -6.05 -41.05 -6.85 -35.0 -43.2 -35.0 -51.75 M-42.8 -52.4 L-42.75 -52.45 -37.05 -58.15 -47.4 -63.35 -53.15 -57.55 -53.2 -57.5 -60.6 -20.65 -54.9 -17.8 -54.45 -17.6 -50.15 -15.45 -42.8 -52.4 M-18.4 -45.4 L-5.6 -45.4 -9.6 -35.8 -18.4 -35.8 -18.4 -45.4" fill="#000000" fill-rule="evenodd" stroke="none"/>
    <path d="M-31.8 -25.75 L-29.0 -42.75 -29.0 -54.15 -16.7 -48.0 16.7 -48.0 29.0 -54.15 29.0 -42.75 31.85 -25.8 19.0 -20.3 19.0 -22.0 -19.0 -22.0 -19.0 -20.25 -31.8 -25.75 M18.4 -35.8 L18.4 -45.4 5.6 -45.4 9.6 -35.8 18.4 -35.8 M-18.4 -45.4 L-18.4 -35.8 -9.6 -35.8 -5.6 -45.4 -18.4 -45.4" fill="#d39b50" fill-rule="evenodd" stroke="none"/>
    <path d="M37.25 -49.5 L45.85 -6.55 53.0 -10.15 53.0 -4.85 42.3 0.5 41.15 -6.1 41.05 -6.9 35.0 -43.2 35.0 -51.75 37.25 -49.5 M-35.0 -51.75 L-35.0 -43.2 -41.05 -6.85 -41.15 -6.05 -42.25 0.5 -53.0 -4.85 -53.0 -10.15 -45.8 -6.55 -37.2 -49.5 -35.0 -51.75" fill="#003366" fill-rule="evenodd" stroke="none"/>
    <path d="M31.85 -25.8 L34.85 -7.75 19.0 0.15 19.0 -20.3 31.85 -25.8 M-19.0 -20.25 L-19.0 0.2 -34.8 -7.7 -31.8 -25.75 -19.0 -20.25" fill="#ac8653" fill-rule="evenodd" stroke="none"/>
    <path d="M11.0 -14.0 L11.0 -8.0 -11.0 -8.0 -11.0 -14.0 11.0 -14.0" fill="#999999" fill-rule="evenodd" stroke="none"/>
  </g>
</svg>
