<?xml version="1.0" encoding="UTF-8" standalone="no"?>
<svg xmlns:ffdec="https://www.free-decompiler.com/flash" xmlns:xlink="http://www.w3.org/1999/xlink" ffdec:objectType="shape" height="60.0px" width="60.0px" xmlns="http://www.w3.org/2000/svg">
  <g transform="matrix(1.0, 0.0, 0.0, 1.0, 30.0, 30.0)">
    <path d="M18.45 -19.3 L18.85 -18.9 21.9 -15.3 21.95 -15.25 22.8 -13.9 Q26.6 -7.75 26.7 0.0 L26.7 0.05 Q26.65 11.05 18.85 18.85 13.15 24.55 5.8 26.1 L0.0 26.7 -3.5 26.45 Q-9.1 25.75 -13.75 22.95 -16.45 21.3 -18.9 18.85 -26.7 11.05 -26.65 0.05 L-26.65 0.0 Q-26.65 -3.15 -26.05 -6.05 -24.5 -13.3 -18.9 -18.9 -11.1 -26.7 0.0 -26.65 L0.05 -26.65 Q9.35 -26.7 16.45 -21.05 L16.45 -21.0 18.3 -19.4 18.45 -19.3 M14.95 -15.75 L13.3 -17.15 Q7.55 -21.7 0.05 -21.65 L0.0 -21.65 Q-9.0 -21.7 -15.35 -15.35 -21.7 -9.0 -21.65 0.0 L-21.65 0.05 Q-21.7 8.95 -15.35 15.35 -13.4 17.25 -11.2 18.6 L-11.15 18.65 -11.1 18.7 Q-7.55 20.85 -3.3 21.45 L-2.9 21.5 0.0 21.7 Q8.95 21.7 15.35 15.35 21.65 8.95 21.7 0.05 L21.7 0.0 Q21.65 -6.3 18.6 -11.25 L18.6 -11.2 18.55 -11.25 17.85 -12.3 17.8 -12.35 15.35 -15.35 14.95 -15.7 14.95 -15.75" fill="#584b16" fill-rule="evenodd" stroke="none"/>
    <path d="M2.8 -2.85 L12.65 -13.3 14.95 -15.75 14.95 -15.7 15.35 -15.35 17.8 -12.35 17.85 -12.3 18.55 -11.25 15.7 -9.5 2.8 -2.85" fill="#aa912b" fill-rule="evenodd" stroke="none"/>
    <path d="M-9.6 15.7 L-1.55 3.7 -3.3 18.05 -3.3 21.45 Q-7.55 20.85 -11.1 18.7 L-11.15 18.65 -11.2 18.6 -9.6 15.7" fill="#a48a28" fill-rule="evenodd" stroke="none"/>
    <path d="M-19.15 -23.15 Q-11.0 -30.05 0.0 -30.0 L0.05 -30.0 Q10.5 -30.05 18.5 -23.65 L20.6 -21.8 20.7 -21.7 21.2 -21.25 Q23.1 -19.35 24.6 -17.2 L24.65 -17.15 25.7 -15.65 25.7 -15.6 Q29.95 -8.7 30.0 0.0 L30.0 0.05 Q29.95 12.4 21.2 21.2 L19.95 22.4 Q15.15 26.7 9.4 28.6 5.0 30.0 0.0 30.0 L-3.95 29.75 Q-10.25 29.0 -15.45 25.8 -18.5 23.95 -21.25 21.2 -30.05 12.4 -30.0 0.05 L-30.0 0.0 Q-30.0 -5.75 -28.15 -10.7 -26.0 -16.5 -21.25 -21.25 L-19.15 -23.15 M18.45 -19.3 L18.3 -19.4 16.45 -21.0 16.45 -21.05 Q9.35 -26.7 0.05 -26.65 L0.0 -26.65 Q-11.1 -26.7 -18.9 -18.9 -24.5 -13.3 -26.05 -6.05 -26.65 -3.15 -26.65 0.0 L-26.65 0.05 Q-26.7 11.05 -18.9 18.85 -16.45 21.3 -13.75 22.95 -9.1 25.75 -3.5 26.45 L0.0 26.7 5.8 26.1 Q13.15 24.55 18.85 18.85 26.65 11.05 26.7 0.05 L26.7 0.0 Q26.6 -7.75 22.8 -13.9 L21.95 -15.25 21.9 -15.3 18.85 -18.9 18.45 -19.3" fill="url(#gradient0)" fill-rule="evenodd" stroke="none"/>
    <path d="M12.65 -13.3 L12.6 -13.35 11.35 -14.45 11.3 -14.45 Q6.45 -18.35 0.05 -18.3 L0.0 -18.3 Q-7.6 -18.35 -12.95 -12.95 -18.35 -7.6 -18.3 0.0 L-18.3 0.05 Q-18.35 7.6 -12.95 12.95 L-9.6 15.7 -11.2 18.6 Q-13.4 17.25 -15.35 15.35 -21.7 8.95 -21.65 0.05 L-21.65 0.0 Q-21.7 -9.0 -15.35 -15.35 -9.0 -21.7 0.0 -21.65 L0.05 -21.65 Q7.55 -21.7 13.3 -17.15 L14.95 -15.75 12.65 -13.3 M18.55 -11.25 L18.6 -11.2 18.6 -11.25 Q21.65 -6.3 21.7 0.0 L21.7 0.05 Q21.65 8.95 15.35 15.35 8.95 21.7 0.0 21.7 L-2.9 21.5 -3.3 21.45 -3.3 18.05 -3.05 18.1 -2.4 18.2 0.0 18.35 Q7.6 18.35 12.95 12.95 18.3 7.6 18.35 0.05 L18.35 0.0 Q18.3 -5.3 15.7 -9.5 L18.55 -11.25" fill="url(#gradient1)" fill-rule="evenodd" stroke="none"/>
    <path d="M-9.6 15.7 L-12.95 12.95 Q-18.35 7.6 -18.3 0.05 L-18.3 0.0 Q-18.35 -7.6 -12.95 -12.95 -7.6 -18.35 0.0 -18.3 L0.05 -18.3 Q6.45 -18.35 11.3 -14.45 L11.35 -14.45 12.6 -13.35 12.65 -13.3 2.8 -2.85 Q1.65 -4.0 0.0 -4.0 -1.65 -4.0 -2.8 -2.8 -4.0 -1.65 -4.0 0.0 -4.0 1.65 -2.8 2.85 L-1.55 3.7 0.0 4.0 Q1.65 4.0 2.85 2.85 4.0 1.65 4.0 0.0 4.0 -1.65 2.85 -2.8 L2.8 -2.85 15.7 -9.5 Q18.3 -5.3 18.35 0.0 L18.35 0.05 Q18.3 7.6 12.95 12.95 7.6 18.35 0.0 18.35 L-2.4 18.2 -3.05 18.1 -3.3 18.05 -1.55 3.7 -9.6 15.7" fill="url(#gradient2)" fill-rule="evenodd" stroke="none"/>
    <path d="M9.4 28.6 Q15.15 26.7 19.95 22.4 L20.25 26.0 15.2 29.3 9.4 28.6" fill="url(#gradient3)" fill-rule="evenodd" stroke="none"/>
    <path d="M-19.15 -23.15 L-21.25 -21.25 Q-26.0 -16.5 -28.15 -10.7 L-29.6 -18.0 -25.5 -23.2 -19.15 -23.15" fill="url(#gradient4)" fill-rule="evenodd" stroke="none"/>
    <path d="M-1.55 3.7 L-2.8 2.85 Q-4.0 1.65 -4.0 0.0 -4.0 -1.65 -2.8 -2.8 -1.65 -4.0 0.0 -4.0 1.65 -4.0 2.8 -2.85 L2.85 -2.8 Q4.0 -1.65 4.0 0.0 4.0 1.65 2.85 2.85 1.65 4.0 0.0 4.0 L-1.55 3.7" fill="#b8a24d" fill-rule="evenodd" stroke="none"/>
  </g>
  <defs>
    <linearGradient gradientTransform="matrix(0.0, 0.0353, -0.0366, 0.0, 0.0, -0.45)" gradientUnits="userSpaceOnUse" id="gradient0" spreadMethod="pad" x1="-819.2" x2="819.2">
      <stop offset="0.0" stop-color="#dbc982"/>
      <stop offset="0.5058823529411764" stop-color="#584b16"/>
      <stop offset="1.0" stop-color="#362e0e"/>
    </linearGradient>
    <linearGradient gradientTransform="matrix(0.0106, 0.0183, -0.0265, 0.0153, 0.85, 1.5)" gradientUnits="userSpaceOnUse" id="gradient1" spreadMethod="pad" x1="-819.2" x2="819.2">
      <stop offset="0.0" stop-color="#bba23c"/>
      <stop offset="1.0" stop-color="#dbc982"/>
    </linearGradient>
    <linearGradient gradientTransform="matrix(0.0106, 0.0183, -0.0265, 0.0153, 0.85, 1.5)" gradientUnits="userSpaceOnUse" id="gradient2" spreadMethod="pad" x1="-819.2" x2="819.2">
      <stop offset="0.0" stop-color="#dbc982"/>
      <stop offset="1.0" stop-color="#bba23c"/>
    </linearGradient>
    <linearGradient gradientTransform="matrix(-0.0031, 0.0018, -0.001, -0.0017, 14.15, 27.6)" gradientUnits="userSpaceOnUse" id="gradient3" spreadMethod="pad" x1="-819.2" x2="819.2">
      <stop offset="0.0" stop-color="#6c5f2a"/>
      <stop offset="0.5058823529411764" stop-color="#584b16"/>
      <stop offset="1.0" stop-color="#141105"/>
    </linearGradient>
    <linearGradient gradientTransform="matrix(-0.0022, 0.0039, -0.0037, -0.0021, -26.1, -18.1)" gradientUnits="userSpaceOnUse" id="gradient4" spreadMethod="pad" x1="-819.2" x2="819.2">
      <stop offset="0.00784313725490196" stop-color="#caaf46"/>
      <stop offset="0.5058823529411764" stop-color="#584b16"/>
      <stop offset="1.0" stop-color="#362e0e"/>
    </linearGradient>
  </defs>
</svg>
