<?xml version="1.0" encoding="UTF-8" standalone="no"?>
<svg xmlns:ffdec="https://www.free-decompiler.com/flash" xmlns:xlink="http://www.w3.org/1999/xlink" ffdec:objectType="shape" height="171.2px" width="146.4px" xmlns="http://www.w3.org/2000/svg">
  <g transform="matrix(1.0, 0.0, 0.0, 1.0, 65.7, 107.25)">
    <path d="M-43.15 -72.45 L-39.2 -80.05 -33.6 -80.05 -37.8 -68.75 -43.15 -72.45 -37.8 -68.75 -41.85 -58.05 -44.4 -51.3 -44.35 -44.55 -44.25 -8.5 -44.25 5.0 -44.2 18.55 -44.2 32.05 -61.7 19.95 -60.3 7.45 -58.9 -5.1 -57.5 -17.65 -53.75 -51.05 -53.6 -52.45 -48.35 -62.55 -43.15 -72.45 M-58.9 -5.1 L-44.25 5.0 -58.9 -5.1 M-60.3 7.45 L-44.2 18.55 -60.3 7.45 M-44.35 -44.55 L-53.75 -51.05 -44.35 -44.55 M-44.25 -8.5 L-57.5 -17.65 -44.25 -8.5 M-41.85 -58.05 L-48.35 -62.55 -41.85 -58.05" fill="#a88d24" fill-rule="evenodd" stroke="none"/>
    <path d="M-43.15 -72.45 L-37.8 -68.75 M-48.35 -62.55 L-41.85 -58.05 M-57.5 -17.65 L-44.25 -8.5 M-53.75 -51.05 L-44.35 -44.55 M-44.2 18.55 L-60.3 7.45 M-44.25 5.0 L-58.9 -5.1" fill="none" stroke="#705e18" stroke-linecap="square" stroke-linejoin="miter-clip" stroke-miterlimit="3.0" stroke-width="4.0"/>
    <path d="M32.2 -50.05 L26.5 -40.05 18.7 -50.05 32.2 -50.05" fill="#cc6633" fill-rule="evenodd" stroke="none"/>
    <path d="M68.5 9.95 L52.15 17.2 52.95 9.95 68.5 9.95 M3.85 9.95 L15.3 32.25 -44.0 32.25 -44.1 32.15 -19.6 9.95 3.85 9.95 M-44.2 32.25 L-44.2 32.05 -44.1 32.15 -44.2 32.25" fill="#000000" fill-rule="evenodd" stroke="none"/>
    <path d="M1.55 -80.05 L15.55 -80.05 18.7 -50.05 26.5 -40.05 32.2 -50.05 29.05 -80.05 39.5 -80.05 47.5 59.95 29.55 59.95 1.55 -80.05 M59.4 -48.4 L59.35 -48.4 59.35 -48.5 59.4 -48.4" fill="#687182" fill-rule="evenodd" stroke="none"/>
    <path d="M59.4 -48.4 L59.5 -48.25 59.8 -46.75 65.05 -18.6 68.5 -0.05 54.05 -0.05 59.35 -48.4 59.4 -48.4 M-25.8 -47.75 L-1.3 -0.05 -19.6 -0.05 -25.8 -47.75" fill="#ff6600" fill-rule="evenodd" stroke="none"/>
    <path d="M1.55 -80.05 L29.55 59.95 15.3 32.25 3.85 9.95 -1.3 -0.05 3.85 9.95 -19.6 9.95 -19.6 -0.05 -1.3 -0.05 -25.8 -47.75 -26.05 -48.25 -26.1 -48.3 -27.0 -50.05 -26.1 -51.0 1.55 -80.05 M47.5 59.95 L39.5 -80.05 59.5 -50.05 59.35 -48.5 59.35 -48.4 54.05 -0.05 68.5 -0.05 68.5 9.95 52.95 9.95 52.15 17.2 47.5 59.95 M52.95 9.95 L54.05 -0.05 52.95 9.95 M-44.1 32.15 L-44.0 32.25 -44.2 32.25 -44.1 32.15" fill="#454b56" fill-rule="evenodd" stroke="none"/>
    <path d="M29.05 -80.05 L32.2 -50.05 18.7 -50.05 15.55 -80.05 29.05 -80.05 M59.8 -46.75 L76.5 -30.05 65.05 -18.6 59.8 -46.75 M-44.3 -18.35 L-56.0 -30.05 -44.35 -41.65 -37.65 -48.4 -36.0 -48.4 -36.0 -10.05 -44.3 -18.35" fill="#dece5f" fill-rule="evenodd" stroke="none"/>
    <path d="M59.5 -48.4 L59.5 -48.25 59.4 -48.4 59.35 -48.5 59.5 -50.05 39.5 -80.05 59.5 -100.05 59.5 -50.05 59.5 -48.4 59.4 -48.4 59.5 -48.4 M-26.1 -100.05 L1.55 -80.05 -26.1 -51.0 -26.1 -100.05 M-26.1 -48.3 L-26.05 -48.25 -26.1 -48.25 -26.1 -48.3" fill="#993300" fill-rule="evenodd" stroke="none"/>
    <path d="M-44.2 32.05 L-44.3 -18.35 -36.0 -10.05 -36.0 -48.4 -37.65 -48.4 -44.35 -41.65 -44.4 -51.3 -33.6 -80.05 -26.1 -100.05 -26.1 -51.0 -27.0 -50.05 -26.1 -48.3 -26.1 -48.25 -26.05 -48.25 -25.8 -47.75 -19.6 -0.05 -19.6 9.95 -44.1 32.15 -44.2 32.05" fill="#606875" fill-rule="evenodd" stroke="none"/>
    <path d="M29.55 59.95 L47.5 59.95 52.15 17.2 68.5 9.95 68.5 -0.05 65.05 -18.6 76.5 -30.05 59.8 -46.75 59.5 -48.25 59.5 -48.4 59.5 -50.05 59.5 -100.05 39.5 -80.05 M15.3 32.25 L29.55 59.95 M-33.6 -80.05 L-39.2 -80.05 -53.6 -52.45 -61.7 19.95 -44.2 32.05 -44.2 32.25 -44.0 32.25 15.3 32.25 M-33.6 -80.05 L-26.1 -100.05 1.55 -80.05" fill="none" stroke="#000000" stroke-linecap="square" stroke-linejoin="miter-clip" stroke-miterlimit="3.0" stroke-width="6.0"/>
    <path d="M1.55 -80.05 L29.55 59.95 M47.5 59.95 L39.5 -80.05 59.5 -50.05 59.35 -48.5 59.35 -48.4 54.05 -0.05 68.5 -0.05 M18.7 -50.05 L32.2 -50.05 M59.5 -48.4 L59.4 -48.4 59.5 -48.25 M59.35 -48.4 L59.4 -48.4 M65.05 -18.6 L59.8 -46.75 M68.5 9.95 L52.95 9.95 52.15 17.2 M3.85 9.95 L15.3 32.25 M54.05 -0.05 L52.95 9.95 M-44.2 32.05 L-44.3 -18.35 -56.0 -30.05 -44.35 -41.65 -44.4 -51.3 -33.6 -80.05 M1.55 -80.05 L-26.1 -51.0 -27.0 -50.05 -26.1 -48.3 -26.05 -48.25 -25.8 -47.75 -1.3 -0.05 3.85 9.95 -19.6 9.95 -44.1 32.15 -44.0 32.25 M-26.1 -48.3 L-26.1 -48.25 M-44.35 -41.65 L-37.65 -48.4 -36.0 -48.4 -36.0 -10.05 -44.3 -18.35 M-1.3 -0.05 L-19.6 -0.05 -19.6 9.95 M-25.8 -47.75 L-19.6 -0.05 M-26.1 -100.05 L-26.1 -51.0 M-44.2 32.25 L-44.1 32.15 -44.2 32.05" fill="none" stroke="#000000" stroke-linecap="square" stroke-linejoin="miter-clip" stroke-miterlimit="3.0" stroke-width="4.0"/>
    <path d="M15.55 -80.05 L1.55 -80.05" fill="none" stroke="#000000" stroke-linecap="round" stroke-linejoin="miter-clip" stroke-miterlimit="3.0" stroke-width="6.0"/>
    <path d="M39.5 -80.05 L29.05 -80.05" fill="none" stroke="#000000" stroke-linecap="square" stroke-linejoin="miter-clip" stroke-miterlimit="3.0" stroke-width="6.0"/>
    <path d="M29.05 -80.05 L32.2 -50.05 26.5 -40.05 18.7 -50.05 15.55 -80.05" fill="none" stroke="#000000" stroke-linecap="round" stroke-linejoin="miter-clip" stroke-miterlimit="3.0" stroke-width="4.0"/>
    <path d="M15.55 -80.05 L29.05 -80.05" fill="none" stroke="#000000" stroke-linecap="round" stroke-linejoin="miter-clip" stroke-miterlimit="3.0" stroke-width="6.0"/>
  </g>
</svg>
