<?xml version="1.0" encoding="UTF-8" standalone="no"?>
<svg xmlns:ffdec="https://www.free-decompiler.com/flash" xmlns:xlink="http://www.w3.org/1999/xlink" ffdec:objectType="shape" height="84.55px" width="127.25px" xmlns="http://www.w3.org/2000/svg">
  <g transform="matrix(1.0, 0.0, 0.0, 1.0, 45.35, 59.15)">
    <path d="M-15.9 -30.15 L-15.85 -30.15 -15.9 -30.15 M27.45 -35.45 L-15.85 -35.45 Q-21.45 -35.5 -25.4 -31.5 -27.65 -29.3 -28.65 -26.55 -29.4 -24.4 -29.35 -21.95 -29.4 -19.8 -28.8 -17.9 -27.85 -14.85 -25.4 -12.4 -21.45 -8.45 -15.85 -8.45 L-13.4 -8.45 -4.15 -17.65 26.2 -17.65 26.2 -0.1 10.65 -0.1 10.65 22.75 -10.95 22.75 -10.95 -0.1 -15.85 -0.1 -17.1 -0.15 Q-25.4 -0.55 -31.35 -6.5 -35.3 -10.5 -36.8 -15.45 L-42.7 -15.45 -42.7 -29.45 -36.5 -29.45 Q-34.95 -33.9 -31.35 -37.45 -24.85 -44.0 -15.85 -43.95 L-10.95 -44.0 17.45 -44.0 27.45 -35.45 M79.25 -29.65 L79.25 -14.2 55.05 -14.2 55.05 -29.65 79.25 -29.65" fill="#000000" fill-rule="evenodd" stroke="none"/>
    <path d="M45.05 -30.15 L45.05 -35.45 55.05 -44.0 55.05 -29.65 55.05 -14.2 45.05 -22.95 45.05 -30.15" fill="#151515" fill-rule="evenodd" stroke="none"/>
    <path d="M26.2 -22.95 L26.2 -17.65 -4.15 -17.65 -13.4 -8.45 -15.85 -8.45 Q-21.45 -8.45 -25.4 -12.4 -27.85 -14.85 -28.8 -17.9 -29.4 -19.8 -29.35 -21.95 -29.4 -24.4 -28.65 -26.55 -27.65 -29.3 -25.4 -31.5 -21.45 -35.5 -15.85 -35.45 L27.45 -35.45 45.05 -35.45 45.05 -30.15 -15.85 -30.15 -15.9 -30.15 Q-19.3 -30.15 -21.7 -27.75 -23.05 -26.4 -23.65 -24.7 -24.1 -23.45 -24.1 -21.95 -24.1 -20.65 -23.75 -19.5 -23.2 -17.65 -21.7 -16.15 -19.3 -13.75 -15.9 -13.75 L-15.85 -13.75 -6.65 -22.95 26.2 -22.95" fill="#273a4a" fill-rule="evenodd" stroke="none"/>
    <path d="M26.2 -22.95 L-6.65 -22.95 -15.85 -13.75 -15.9 -13.75 Q-19.3 -13.75 -21.7 -16.15 -23.2 -17.65 -23.75 -19.5 -24.1 -20.65 -24.1 -21.95 -24.1 -23.45 -23.65 -24.7 -23.05 -26.4 -21.7 -27.75 -19.3 -30.15 -15.9 -30.15 L-15.85 -30.15 45.05 -30.15 45.05 -22.95 26.2 -22.95 M-42.7 -29.45 L-42.7 -37.85 -27.05 -56.5 -10.95 -56.5 -10.95 -44.0 -15.85 -43.95 Q-24.85 -44.0 -31.35 -37.45 -34.95 -33.9 -36.5 -29.45 L-42.7 -29.45 M55.05 -44.0 L79.25 -44.0 79.25 -29.65 55.05 -29.65 55.05 -44.0" fill="#17252d" fill-rule="evenodd" stroke="none"/>
    <path d="M26.2 -17.65 L26.2 -22.95 45.05 -22.95 55.05 -14.2 79.25 -14.2 79.25 -29.65 79.25 -44.0 55.05 -44.0 45.05 -35.45 27.45 -35.45 17.45 -44.0 -10.95 -44.0 -10.95 -56.5 -27.05 -56.5 -42.7 -37.85 -42.7 -29.45 -42.7 -15.45 -36.8 -15.45 Q-35.3 -10.5 -31.35 -6.5 -25.4 -0.55 -17.1 -0.15 L-15.85 -0.1 -10.95 -0.1 -10.95 22.75 10.65 22.75 10.65 -0.1 26.2 -0.1 26.2 -17.65 M45.05 -30.15 L45.05 -35.45 M45.05 -30.15 L45.05 -22.95" fill="none" stroke="#808899" stroke-linecap="square" stroke-linejoin="miter-clip" stroke-miterlimit="3.0" stroke-width="4.0"/>
    <path d="M55.05 -29.65 L55.05 -44.0 M55.05 -29.65 L55.05 -14.2 M-42.7 -29.45 L-36.5 -29.45 Q-34.95 -33.9 -31.35 -37.45 -24.85 -44.0 -15.85 -43.95 L-10.95 -44.0" fill="none" stroke="#273a4a" stroke-linecap="square" stroke-linejoin="miter-clip" stroke-miterlimit="3.0" stroke-width="3.0"/>
  </g>
</svg>
