<?xml version="1.0" encoding="UTF-8" standalone="no"?>
<svg xmlns:ffdec="https://www.free-decompiler.com/flash" xmlns:xlink="http://www.w3.org/1999/xlink" ffdec:objectType="shape" height="49.05px" width="71.95px" xmlns="http://www.w3.org/2000/svg">
  <g transform="matrix(1.0, 0.0, 0.0, 1.0, 46.85, 1.9)">
    <path d="M10.55 11.95 L10.5 5.35 18.1 5.35 22.45 14.75 17.25 26.25 13.7 26.25 9.75 34.95 6.3 34.95 -0.2 44.5 -23.95 40.0 -32.2 28.85 -44.2 23.9 -37.15 1.2 -25.05 4.1 -11.05 0.75 -11.05 11.95 10.55 11.95 M-0.7 33.1 L6.3 34.95 -0.7 33.1 M8.4 24.85 L13.7 26.25 8.4 24.85" fill="#000000" fill-rule="evenodd" stroke="none"/>
    <path d="M10.5 5.35 L18.1 5.35 22.45 14.75 17.25 26.25 13.7 26.25 9.75 34.95 6.3 34.95 -0.2 44.5 -23.95 40.0 -32.2 28.85 -44.2 23.9 -37.15 1.2 -25.05 4.1 -11.05 0.75 -11.05 11.95 10.55 11.95 M13.7 26.25 L8.4 24.85 M6.3 34.95 L-0.7 33.1" fill="none" stroke="#808899" stroke-linecap="square" stroke-linejoin="miter-clip" stroke-miterlimit="3.0" stroke-width="4.0"/>
  </g>
</svg>
