<?xml version="1.0" encoding="UTF-8" standalone="no"?>
<svg xmlns:ffdec="https://www.free-decompiler.com/flash" xmlns:xlink="http://www.w3.org/1999/xlink" ffdec:objectType="shape" height="116.05px" width="221.0px" xmlns="http://www.w3.org/2000/svg">
  <g transform="matrix(1.0, 0.0, 0.0, 1.0, 110.5, 58.0)">
    <path d="M10.5 -57.95 L10.5 -57.75 Q19.25 -56.6 26.3 -47.95 L72.5 -47.95 72.65 -47.95 75.5 -47.95 75.5 -47.75 Q83.65 -46.55 89.9 -37.75 98.25 -36.75 104.25 -26.2 L104.25 -26.15 Q110.5 -15.25 110.5 0.05 110.5 15.4 104.25 26.3 98.25 36.85 89.9 37.95 83.55 46.65 75.5 47.85 L75.5 48.05 26.3 48.05 Q18.1 58.1 6.85 58.05 L6.75 58.05 6.65 58.05 -29.65 57.7 -30.15 57.5 Q-36.6 55.05 -41.9 48.05 L-82.5 48.05 -83.3 48.05 -85.5 48.05 -85.5 47.9 Q-95.55 46.4 -102.8 33.3 -106.9 26.05 -108.75 17.2 -110.5 9.25 -110.5 0.05 -110.5 -19.45 -102.8 -33.25 -95.55 -46.3 -85.5 -47.75 L-85.5 -47.95 -83.35 -47.95 -82.5 -47.95 -41.25 -47.95 Q-33.1 -58.15 -22.5 -58.0 L-20.85 -57.95 6.9 -57.95 7.1 -57.95 7.5 -57.95 8.05 -57.95 10.5 -57.95 M17.5 -41.95 L13.2 -41.95 12.75 -41.9 Q4.5 -41.2 -1.55 -30.3 L-1.6 -30.3 -2.1 -29.3 -2.2 -29.15 Q-6.2 -21.4 -7.6 -11.75 L-7.7 -11.1 -7.7 -11.05 -8.15 -7.15 Q-8.5 -3.7 -8.5 0.05 -8.5 8.45 -6.95 15.75 L-6.8 16.35 Q-5.05 24.05 -1.55 30.4 1.05 35.1 4.75 37.95 L6.0 38.85 8.25 40.1 Q12.15 41.9 16.95 42.05 L17.2 42.05 43.25 42.05 48.55 42.05 60.9 42.05 Q56.9 38.6 53.5 32.6 49.5 25.45 47.65 16.6 L47.6 16.3 Q46.7 12.05 46.35 7.6 L46.25 6.25 49.0 0.65 Q49.05 4.05 49.35 7.3 L49.35 7.35 Q49.65 11.5 50.45 15.45 L50.6 16.0 Q52.3 24.35 56.1 31.15 60.65 39.25 66.35 42.05 L72.5 42.05 Q78.7 41.9 83.75 36.1 77.05 34.3 72.05 25.55 67.1 17.0 66.2 5.4 L66.15 4.55 66.0 0.05 Q66.0 -12.45 70.3 -21.9 L72.05 -25.45 Q77.05 -34.2 83.75 -35.95 78.8 -41.8 72.5 -41.95 L66.35 -41.95 Q60.6 -39.1 56.1 -31.05 L55.65 -30.2 55.05 -31.2 53.5 -32.55 Q56.9 -38.55 60.85 -41.95 L44.05 -41.95 39.65 -41.95 17.5 -41.95 M51.65 -28.85 L52.4 -28.2 52.85 -27.85 53.8 -27.7 54.5 -27.85 Q49.4 -16.8 49.05 -2.2 L46.25 -6.6 Q47.15 -19.05 51.65 -28.85 M73.05 -20.7 L73.05 -20.65 Q69.0 -11.75 69.0 0.05 L69.15 4.35 Q69.85 15.7 74.65 24.05 79.35 32.3 85.8 33.4 86.15 32.8 86.8 32.45 87.4 32.1 88.1 32.05 94.4 31.45 99.05 23.3 L99.05 23.35 Q104.5 13.7 104.5 0.05 104.5 -13.55 99.05 -23.2 94.4 -31.35 88.1 -31.9 87.4 -31.95 86.8 -32.3 86.15 -32.65 85.75 -33.25 L85.75 -33.3 Q79.35 -32.2 74.65 -23.95 L73.05 -20.7 M16.85 48.05 L16.75 48.05 Q8.7 47.75 2.75 43.9 -3.0 40.2 -6.8 33.3 -10.45 26.7 -12.4 18.85 L-16.7 23.2 -16.3 24.75 -16.25 24.9 Q-14.3 31.7 -11.1 37.55 L-9.75 39.85 -9.75 39.9 Q-7.5 43.6 -5.0 46.2 L-4.95 46.2 Q0.35 51.75 6.9 52.05 12.9 51.95 17.85 48.05 L17.2 48.05 16.85 48.05 M-52.8 16.5 Q-54.0 8.95 -54.0 0.45 -54.0 -16.75 -49.15 -30.2 -47.4 -35.05 -45.05 -39.45 L-43.6 -41.95 -82.5 -41.95 Q-91.25 -41.7 -97.55 -30.3 L-97.55 -30.35 Q-104.5 -17.75 -104.5 0.05 -104.5 8.55 -102.9 15.95 L-102.8 16.55 Q-101.1 24.1 -97.55 30.4 -91.25 41.8 -82.5 42.05 L-44.1 42.05 -45.05 40.4 Q-48.65 33.8 -50.75 26.05 -52.0 21.55 -52.75 16.75 L-52.8 16.5 M-22.25 25.65 Q-25.5 14.05 -25.5 0.05 -25.5 -20.6 -18.5 -35.9 L-18.55 -35.9 -16.35 -40.3 -16.35 -40.25 -15.1 -42.5 Q-12.55 -46.75 -9.7 -49.8 L-7.5 -51.95 -21.3 -51.95 -22.5 -52.0 Q-30.9 -51.85 -37.4 -43.15 L-38.45 -42.25 -39.8 -41.95 -40.05 -41.95 -42.4 -38.0 -42.4 -38.05 Q-44.7 -33.85 -46.35 -29.2 -51.0 -16.15 -51.0 0.45 -51.0 8.85 -49.8 16.3 -49.1 20.95 -47.85 25.25 L-47.75 25.65 Q-45.75 32.8 -42.4 38.95 L-40.6 42.05 -40.4 42.05 Q-39.7 42.05 -39.0 42.4 -38.35 42.75 -37.95 43.35 -33.65 49.4 -28.4 51.7 L-7.65 51.9 -9.3 50.35 Q-12.2 47.3 -14.85 43.05 L-16.4 40.4 -16.35 40.4 Q-19.85 34.0 -22.0 26.6 L-22.1 26.45 -22.05 26.4 -22.25 25.65" fill="#000000" fill-rule="evenodd" stroke="none"/>
    <path d="M17.5 -41.95 L22.2 -34.4 Q22.6 -33.8 22.5 -33.05 L19.75 -14.85 31.65 -24.75 40.85 -39.3 39.65 -41.95 44.05 -41.95 44.75 -40.35 53.5 -32.55 55.05 -31.2 55.65 -30.2 56.1 -31.05 Q60.6 -39.1 66.35 -41.95 L72.5 -41.95 Q78.8 -41.8 83.75 -35.95 77.05 -34.2 72.05 -25.45 L70.3 -21.9 Q66.0 -12.45 66.0 0.05 L66.15 4.55 66.2 5.4 50.45 15.45 Q49.65 11.5 49.35 7.35 L49.35 7.3 Q49.05 4.05 49.0 0.65 L46.25 6.25 41.25 16.3 40.8 17.2 36.8 28.55 48.55 42.05 43.25 42.05 33.2 30.55 24.2 25.0 12.9 34.95 8.25 40.1 6.0 38.85 4.75 37.95 10.05 32.15 10.2 32.0 21.2 22.35 15.8 16.35 10.0 9.85 9.9 9.75 3.55 1.45 -8.15 -7.15 -7.7 -11.05 -7.7 -11.1 -7.6 -11.75 4.95 -2.5 15.15 -11.0 18.4 -32.9 12.75 -41.9 13.2 -41.95 17.5 -41.95 M36.9 16.3 L37.15 15.65 37.2 15.45 45.2 -0.7 32.75 -20.5 18.35 -8.5 18.3 -8.45 18.2 -8.4 7.75 0.3 13.1 7.3 13.0 7.2 21.2 16.35 25.3 20.95 33.45 26.0 36.9 16.3 M46.25 -6.6 L49.05 -2.2 Q49.4 -16.8 54.5 -27.85 L53.8 -27.7 52.85 -27.85 52.4 -28.2 51.65 -28.85 43.55 -36.05 35.6 -23.5 46.25 -6.6" fill="#ff0000" fill-rule="evenodd" stroke="none"/>
    <path d="M39.65 -41.95 L40.85 -39.3 31.65 -24.75 19.75 -14.85 22.5 -33.05 Q22.6 -33.8 22.2 -34.4 L17.5 -41.95 39.65 -41.95 M12.75 -41.9 L18.4 -32.9 15.15 -11.0 4.95 -2.5 -7.6 -11.75 Q-6.2 -21.4 -2.2 -29.15 L-2.1 -29.3 -1.6 -30.3 -1.55 -30.3 Q4.5 -41.2 12.75 -41.9 M-8.15 -7.15 L3.55 1.45 9.9 9.75 10.0 9.85 15.8 16.35 -6.8 16.35 -6.95 15.75 Q-8.5 8.45 -8.5 0.05 -8.5 -3.7 -8.15 -7.15 M41.25 16.3 L46.25 6.25 46.35 7.6 Q46.7 12.05 47.6 16.3 L41.25 16.3 M53.5 -32.55 L44.75 -40.35 44.05 -41.95 60.85 -41.95 Q56.9 -38.55 53.5 -32.55 M21.2 16.35 L13.0 7.2 13.1 7.3 7.75 0.3 18.2 -8.4 18.3 -8.45 18.35 -8.5 32.75 -20.5 45.2 -0.7 37.2 15.45 37.15 15.65 36.9 16.3 21.2 16.35 M46.25 -6.6 L35.6 -23.5 43.55 -36.05 51.65 -28.85 Q47.15 -19.05 46.25 -6.6" fill="url(#gradient0)" fill-rule="evenodd" stroke="none"/>
    <path d="M73.05 -20.7 L74.65 -23.95 Q79.35 -32.2 85.75 -33.3 L85.75 -33.25 Q86.15 -32.65 86.8 -32.3 87.4 -31.95 88.1 -31.9 94.4 -31.35 99.05 -23.2 104.5 -13.55 104.5 0.05 104.5 13.7 99.05 23.35 L99.05 23.3 Q94.4 31.45 88.1 32.05 87.4 32.1 86.8 32.45 86.15 32.8 85.8 33.4 79.35 32.3 74.65 24.05 69.85 15.7 69.15 4.35 L69.0 0.05 Q69.0 -11.75 73.05 -20.65 L73.05 -20.7" fill="url(#gradient1)" fill-rule="evenodd" stroke="none"/>
    <path d="M-102.8 16.55 L-102.9 15.95 Q-104.5 8.55 -104.5 0.05 -104.5 -17.75 -97.55 -30.35 L-97.55 -30.3 Q-91.25 -41.7 -82.5 -41.95 L-43.6 -41.95 -45.05 -39.45 Q-47.4 -35.05 -49.15 -30.2 -54.0 -16.75 -54.0 0.45 -54.0 8.95 -52.8 16.5 L-102.8 16.55" fill="url(#gradient2)" fill-rule="evenodd" stroke="none"/>
    <path d="M-47.75 25.65 L-47.85 25.25 Q-49.1 20.95 -49.8 16.3 -51.0 8.85 -51.0 0.45 -51.0 -16.15 -46.35 -29.2 -44.7 -33.85 -42.4 -38.05 L-42.4 -38.0 -40.05 -41.95 -39.8 -41.95 -38.45 -42.25 -37.4 -43.15 Q-30.9 -51.85 -22.5 -52.0 L-21.3 -51.95 -7.5 -51.95 -9.7 -49.8 Q-12.55 -46.75 -15.1 -42.5 L-16.35 -40.25 -16.35 -40.3 -18.55 -35.9 -18.5 -35.9 Q-25.5 -20.6 -25.5 0.05 -25.5 14.05 -22.25 25.65 L-47.75 25.65" fill="url(#gradient3)" fill-rule="evenodd" stroke="none"/>
    <path d="M16.85 48.05 L17.2 48.05 17.85 48.05 Q12.9 51.95 6.9 52.05 0.35 51.75 -4.95 46.2 L-5.0 46.2 Q-7.5 43.6 -9.75 39.9 L-9.75 39.85 -11.1 37.55 Q-14.3 31.7 -16.25 24.9 L-16.3 24.75 -16.7 23.2 -12.4 18.85 Q-10.45 26.7 -6.8 33.3 -3.0 40.2 2.75 43.9 8.7 47.75 16.75 48.05 L16.85 48.05" fill="#2b2b2b" fill-rule="evenodd" stroke="none"/>
    <path d="M-22.25 25.65 L-22.05 26.4 -22.1 26.45 -22.0 26.6 Q-19.85 34.0 -16.35 40.4 L-16.4 40.4 -14.85 43.05 Q-12.2 47.3 -9.3 50.35 L-7.65 51.9 -28.4 51.7 Q-33.65 49.4 -37.95 43.35 -38.35 42.75 -39.0 42.4 -39.7 42.05 -40.4 42.05 L-40.6 42.05 -42.4 38.95 Q-45.75 32.8 -47.75 25.65 L-22.25 25.65" fill="url(#gradient4)" fill-rule="evenodd" stroke="none"/>
    <path d="M15.8 16.35 L21.2 22.35 10.2 32.0 10.05 32.15 4.75 37.95 Q1.05 35.1 -1.55 30.4 -5.05 24.05 -6.8 16.35 L15.8 16.35 M8.25 40.1 L12.9 34.95 24.2 25.0 33.2 30.55 43.25 42.05 17.2 42.05 16.95 42.05 Q12.15 41.9 8.25 40.1 M48.55 42.05 L36.8 28.55 40.8 17.2 41.25 16.3 47.6 16.3 47.65 16.6 Q49.5 25.45 53.5 32.6 56.9 38.6 60.9 42.05 L48.55 42.05 M36.9 16.3 L33.45 26.0 25.3 20.95 21.2 16.35 36.9 16.3" fill="url(#gradient5)" fill-rule="evenodd" stroke="none"/>
    <path d="M-52.8 16.5 L-52.75 16.75 Q-52.0 21.55 -50.75 26.05 -48.65 33.8 -45.05 40.4 L-44.1 42.05 -82.5 42.05 Q-91.25 41.8 -97.55 30.4 -101.1 24.1 -102.8 16.55 L-52.8 16.5" fill="url(#gradient6)" fill-rule="evenodd" stroke="none"/>
    <path d="M50.45 15.45 L66.2 5.4 Q67.1 17.0 72.05 25.55 77.05 34.3 83.75 36.1 78.7 41.9 72.5 42.05 L66.35 42.05 Q60.65 39.25 56.1 31.15 52.3 24.35 50.6 16.0 L50.45 15.45" fill="#db0202" fill-rule="evenodd" stroke="none"/>
    <path d="M-93.1 -31.75 Q-92.25 -32.65 -91.0 -32.65 L-56.0 -32.65 Q-54.75 -32.65 -53.85 -31.75 -53.0 -30.9 -53.0 -29.65 -53.0 -28.4 -53.85 -27.5 -54.75 -26.65 -56.0 -26.65 L-91.0 -26.65 Q-92.25 -26.65 -93.1 -27.5 -94.0 -28.4 -94.0 -29.65 -94.0 -30.9 -93.1 -31.75 M10.7 -27.35 Q9.45 -27.35 8.6 -28.2 7.7 -29.1 7.7 -30.35 7.7 -31.6 8.6 -32.45 9.45 -33.35 10.7 -33.35 L45.7 -33.35 Q46.95 -33.35 47.85 -32.45 48.7 -31.6 48.7 -30.35 48.7 -29.1 47.85 -28.2 46.95 -27.35 45.7 -27.35 L10.7 -27.35" fill="#ffffff" fill-opacity="0.3019608" fill-rule="evenodd" stroke="none"/>
    <path d="M-38.2 -34.65 Q-38.2 -35.9 -37.3 -36.75 -36.45 -37.65 -35.2 -37.65 L-25.2 -37.65 Q-23.95 -37.65 -23.05 -36.75 -22.2 -35.9 -22.2 -34.65 -22.2 -33.4 -23.05 -32.5 -23.95 -31.65 -25.2 -31.65 L-35.2 -31.65 Q-36.45 -31.65 -37.3 -32.5 -38.2 -33.4 -38.2 -34.65" fill="#ffffff" fill-opacity="0.6" fill-rule="evenodd" stroke="none"/>
  </g>
  <defs>
    <linearGradient gradientTransform="matrix(0.0731, 0.0, 0.0, 0.0671, 37.35, 0.05)" gradientUnits="userSpaceOnUse" id="gradient0" spreadMethod="pad" x1="-819.2" x2="819.2">
      <stop offset="0.0" stop-color="#333333"/>
      <stop offset="0.7686274509803922" stop-color="#ff0000"/>
    </linearGradient>
    <linearGradient gradientTransform="matrix(0.0244, 0.0, 0.0, 0.0427, 93.0, 0.0)" gradientUnits="userSpaceOnUse" id="gradient1" spreadMethod="pad" x1="-819.2" x2="819.2">
      <stop offset="0.0" stop-color="#333333"/>
      <stop offset="1.0" stop-color="#ff0000"/>
    </linearGradient>
    <linearGradient gradientTransform="matrix(0.0413, 0.0, 0.0, 0.0549, -73.65, 0.05)" gradientUnits="userSpaceOnUse" id="gradient2" spreadMethod="pad" x1="-819.2" x2="819.2">
      <stop offset="0.0" stop-color="#999999"/>
      <stop offset="0.7686274509803922" stop-color="#666666"/>
    </linearGradient>
    <linearGradient gradientTransform="matrix(0.0, 0.0584, -0.0363, 0.0, -22.75, -0.55)" gradientUnits="userSpaceOnUse" id="gradient3" spreadMethod="pad" x1="-819.2" x2="819.2">
      <stop offset="0.0" stop-color="#cccccc"/>
      <stop offset="0.7686274509803922" stop-color="#666666"/>
    </linearGradient>
    <linearGradient gradientTransform="matrix(0.0, 0.0584, -0.0363, 0.0, -22.75, -0.55)" gradientUnits="userSpaceOnUse" id="gradient4" spreadMethod="pad" x1="-819.2" x2="819.2">
      <stop offset="0.0" stop-color="#999999"/>
      <stop offset="0.7686274509803922" stop-color="#404040"/>
    </linearGradient>
    <linearGradient gradientTransform="matrix(0.0731, 0.0, 0.0, 0.0671, 37.35, 0.05)" gradientUnits="userSpaceOnUse" id="gradient5" spreadMethod="pad" x1="-819.2" x2="819.2">
      <stop offset="0.0" stop-color="#333333"/>
      <stop offset="0.7058823529411765" stop-color="#a11818"/>
    </linearGradient>
    <linearGradient gradientTransform="matrix(0.0413, 0.0, 0.0, 0.0549, -73.65, 0.05)" gradientUnits="userSpaceOnUse" id="gradient6" spreadMethod="pad" x1="-819.2" x2="819.2">
      <stop offset="0.0" stop-color="#737373"/>
      <stop offset="0.7686274509803922" stop-color="#484848"/>
    </linearGradient>
  </defs>
</svg>
