<?xml version="1.0" encoding="UTF-8" standalone="no"?>
<svg xmlns:ffdec="https://www.free-decompiler.com/flash" xmlns:xlink="http://www.w3.org/1999/xlink" ffdec:objectType="shape" height="264.0px" width="264.1px" xmlns="http://www.w3.org/2000/svg">
  <g transform="matrix(1.0, 0.0, 0.0, 1.0, 132.05, 126.25)">
    <path d="M53.0 -93.3 L80.9 -93.3 66.25 -50.1 38.05 -22.25 19.45 -63.45 52.3 -91.75 Q52.95 -92.3 53.0 -93.15 L53.0 -93.3 M35.05 -19.15 L-1.15 -23.8 25.4 -10.75 14.7 4.4 -15.35 17.6 -33.9 -4.7 -1.15 -23.8 -21.2 -21.95 -20.95 -45.95 Q-20.95 -46.55 -21.25 -47.05 L-33.5 -66.85 -14.7 -90.35 15.35 -62.8 35.05 -19.15 M29.0 -8.95 L53.65 3.15 44.8 14.25 44.7 14.3 44.65 14.45 44.6 14.5 36.85 24.0 18.6 5.75 28.85 -8.7 29.0 -8.95 M57.25 4.9 L89.6 20.8 79.85 32.25 49.25 14.95 57.0 5.3 57.25 4.9 M124.9 -7.6 L85.15 -12.75 85.15 -13.35 Q84.95 -14.2 84.3 -14.65 L55.85 -34.15 68.85 -47.0 99.3 -47.0 126.05 -25.8 126.05 -8.55 124.9 -7.6 M78.8 -13.55 L39.95 -18.55 52.95 -31.3 78.8 -13.55 M17.05 -66.65 L-12.0 -93.3 47.95 -93.3 17.05 -66.65 M123.5 -93.3 L126.05 -91.65 126.05 -73.1 99.25 -51.0 70.8 -50.95 84.9 -92.65 85.05 -93.3 123.5 -93.3 M126.05 -67.9 L126.05 -30.95 103.2 -49.0 126.05 -67.9 M-122.7 -93.3 L-86.95 -93.3 -86.85 -92.8 -82.6 -76.3 -104.0 -78.95 -104.4 -79.0 -126.05 -81.65 -126.05 -91.5 -122.7 -93.3 M-126.05 -77.6 L-108.25 -75.45 -126.05 -53.0 -126.05 -77.6 M-126.05 -46.55 L-103.6 -74.85 -81.05 -72.1 -62.3 -46.8 -77.85 -17.55 -78.1 -16.7 -125.25 -12.4 -126.05 -13.25 -126.05 -46.55 M-73.55 -17.15 L-58.35 -45.75 -36.45 -64.0 -24.95 -45.45 -25.2 -21.75 -25.2 -21.6 -73.55 -17.15 M-75.9 47.4 L-88.0 26.8 -64.85 13.3 -64.5 13.7 -53.8 24.65 -75.9 47.4 M68.4 45.55 L40.3 48.95 39.05 27.65 46.75 18.15 77.15 35.35 68.4 45.55 M36.3 49.45 L6.95 53.0 -33.6 50.8 -36.7 37.85 -14.9 21.75 15.55 8.4 35.05 27.9 36.3 49.45 M-37.8 50.55 L-71.55 48.7 -51.0 27.55 -40.75 38.0 -37.8 50.55 M25.05 37.65 L-1.0 24.65 -26.05 37.75 -23.25 43.05 -0.95 31.4 22.35 43.05 25.05 37.65 M-37.45 -68.3 L-59.6 -49.85 -78.1 -74.9 -82.9 -93.3 -17.5 -93.3 -37.45 -68.3 M-37.4 -2.7 L-37.2 -2.4 -18.85 19.65 -38.75 34.35 -61.3 11.25 -37.4 -2.7" fill="#cc0000" fill-rule="evenodd" stroke="none"/>
    <path d="M35.05 -19.15 L35.6 -18.0 Q35.85 -17.4 36.45 -17.1 37.0 -16.8 37.7 -16.85 38.35 -16.95 38.8 -17.4 L39.95 -18.55 78.8 -13.55 82.05 -11.35 Q82.7 -10.9 83.55 -11.0 84.35 -11.2 84.8 -11.85 L85.15 -12.75 124.9 -7.6 90.25 20.0 89.6 20.8 57.25 4.9 57.45 3.85 Q57.35 3.0 56.7 2.5 56.05 2.0 55.25 2.1 54.4 2.15 53.9 2.8 L53.65 3.15 29.0 -8.95 Q29.3 -9.55 29.2 -10.15 29.05 -11.0 28.35 -11.45 27.7 -11.95 26.9 -11.8 26.05 -11.7 25.6 -11.0 L25.4 -10.75 -1.15 -23.8 35.05 -19.15 M-21.2 -21.95 L-1.15 -23.8 -33.9 -4.7 -34.1 -4.95 Q-34.65 -5.6 -35.45 -5.7 -36.3 -5.8 -36.9 -5.25 -37.55 -4.7 -37.65 -3.85 -37.7 -3.25 -37.4 -2.7 L-61.3 11.25 -61.65 10.9 Q-62.25 10.3 -63.05 10.3 -63.9 10.3 -64.5 10.9 -65.1 11.45 -65.1 12.3 L-64.85 13.3 -88.0 26.8 -88.2 26.5 -125.25 -12.4 -78.1 -16.7 -78.0 -16.05 Q-77.75 -15.25 -77.0 -14.85 L-75.5 -14.75 Q-74.7 -15.0 -74.3 -15.7 L-73.55 -17.15 -25.2 -21.6 Q-25.15 -20.9 -24.6 -20.35 -24.05 -19.75 -23.2 -19.75 -22.4 -19.75 -21.8 -20.3 -21.2 -20.9 -21.2 -21.7 L-21.2 -21.95 M25.05 37.65 L22.35 43.05 -0.95 31.4 -23.25 43.05 -26.05 37.75 -1.0 24.65 25.05 37.65" fill="#990000" fill-rule="evenodd" stroke="none"/>
    <path d="M53.0 -93.3 L53.0 -93.15 Q52.95 -92.3 52.3 -91.75 L19.45 -63.45 38.05 -22.25 66.25 -50.1 80.9 -93.3 53.0 -93.3 M39.95 -18.55 L38.8 -17.4 Q38.35 -16.95 37.7 -16.85 37.0 -16.8 36.45 -17.1 35.85 -17.4 35.6 -18.0 L35.05 -19.15 15.35 -62.8 -14.7 -90.35 -33.5 -66.85 -21.25 -47.05 Q-20.95 -46.55 -20.95 -45.95 L-21.2 -21.95 -21.2 -21.7 Q-21.2 -20.9 -21.8 -20.3 -22.4 -19.75 -23.2 -19.75 -24.05 -19.75 -24.6 -20.35 -25.15 -20.9 -25.2 -21.6 L-25.2 -21.75 -24.95 -45.45 -36.45 -64.0 -58.35 -45.75 -73.55 -17.15 -74.3 -15.7 Q-74.7 -15.0 -75.5 -14.75 L-77.0 -14.85 Q-77.75 -15.25 -78.0 -16.05 L-78.1 -16.7 -77.85 -17.55 -62.3 -46.8 -81.05 -72.1 -103.6 -74.85 -126.05 -46.55 -126.05 -53.0 -108.25 -75.45 -126.05 -77.6 -126.05 -81.65 -104.4 -79.0 -104.0 -78.95 -82.6 -76.3 -86.85 -92.8 -86.95 -93.3 -122.7 -93.3 -83.05 -114.55 81.15 -120.2 123.5 -93.3 85.05 -93.3 84.9 -92.65 70.8 -50.95 99.25 -51.0 126.05 -73.1 126.05 -67.9 103.2 -49.0 126.05 -30.95 126.05 -25.8 99.3 -47.0 68.85 -47.0 55.85 -34.15 84.3 -14.65 Q84.95 -14.2 85.15 -13.35 L85.15 -12.75 84.8 -11.85 Q84.35 -11.2 83.55 -11.0 82.7 -10.9 82.05 -11.35 L78.8 -13.55 52.95 -31.3 39.95 -18.55 M25.4 -10.75 L25.6 -11.0 Q26.05 -11.7 26.9 -11.8 27.7 -11.95 28.35 -11.45 29.05 -11.0 29.2 -10.15 29.3 -9.55 29.0 -8.95 L28.85 -8.7 18.6 5.75 36.85 24.0 44.6 14.5 44.65 14.45 44.7 14.3 44.8 14.25 53.65 3.15 53.9 2.8 Q54.4 2.15 55.25 2.1 56.05 2.0 56.7 2.5 57.35 3.0 57.45 3.85 L57.25 4.9 57.0 5.3 49.25 14.95 79.85 32.25 78.9 33.35 77.15 35.35 46.75 18.15 39.05 27.65 40.3 48.95 36.3 49.45 35.05 27.9 15.55 8.4 -14.9 21.75 -36.7 37.85 -33.6 50.8 -37.8 50.55 -40.75 38.0 -51.0 27.55 -71.55 48.7 -75.25 48.5 -75.9 47.4 -53.8 24.65 -64.5 13.7 -64.85 13.3 -65.1 12.3 Q-65.1 11.45 -64.5 10.9 -63.9 10.3 -63.05 10.3 -62.25 10.3 -61.65 10.9 L-61.3 11.25 -38.75 34.35 -18.85 19.65 -37.2 -2.4 -37.4 -2.7 Q-37.7 -3.25 -37.65 -3.85 -37.55 -4.7 -36.9 -5.25 -36.3 -5.8 -35.45 -5.7 -34.65 -5.6 -34.1 -4.95 L-33.9 -4.7 -15.35 17.6 14.7 4.4 25.4 -10.75 M17.05 -66.65 L47.95 -93.3 -12.0 -93.3 17.05 -66.65 M-37.45 -68.3 L-17.5 -93.3 -82.9 -93.3 -78.1 -74.9 -59.6 -49.85 -37.45 -68.3" fill="#ff0000" fill-rule="evenodd" stroke="none"/>
    <path d="M89.6 20.8 L90.25 20.0 124.9 -7.6 126.05 -8.55 126.05 -25.8 126.05 -30.95 126.05 -67.9 126.05 -73.1 126.05 -91.65 123.5 -93.3 81.15 -120.2 -83.05 -114.55 -122.7 -93.3 -126.05 -91.5 -126.05 -81.65 -126.05 -77.6 -126.05 -53.0 -126.05 -46.55 -126.05 -13.25 -125.25 -12.4 -88.2 26.5 -88.0 26.8 -75.9 47.4 -75.25 48.5 -74.4 49.9 Q-73.95 50.7 -74.0 51.6 L-74.1 52.15 Q-74.4 53.35 -75.45 54.0 -76.55 54.6 -77.75 54.3 L-78.75 53.85 -79.55 52.95 -80.6 51.2 -92.95 30.2 -132.05 -10.85 -132.05 -95.1 -84.7 -120.5 82.8 -126.25 132.05 -94.95 132.05 -5.65 94.4 24.35 83.45 37.25 83.45 37.3 73.65 48.65 72.2 50.35 71.55 50.9 Q70.9 51.3 70.15 51.35 68.9 51.45 67.95 50.65 67.05 49.85 66.95 48.75 L66.9 48.6 Q66.8 47.35 67.65 46.4 L68.4 45.55 77.15 35.35 78.9 33.35 79.85 32.25 89.6 20.8 M3.3 80.55 L80.95 72.8 86.8 108.05 74.1 122.4 59.3 104.65 41.45 121.45 17.6 110.55 -8.05 130.25 -28.8 115.45 -47.65 126.35 -66.85 110.25 -83.25 121.8 -93.8 106.3 -87.9 72.8 3.05 80.6 3.3 80.55" fill="#660000" fill-rule="evenodd" stroke="none"/>
    <path d="M-80.6 51.2 L-79.55 52.95 -78.75 53.85 -77.75 54.3 Q-76.55 54.6 -75.45 54.0 -74.4 53.35 -74.1 52.15 L-74.0 51.6 Q-73.95 50.7 -74.4 49.9 L-75.25 48.5 -71.55 48.7 -37.8 50.55 -33.6 50.8 6.95 53.0 36.3 49.45 40.3 48.95 68.4 45.55 67.65 46.4 Q66.8 47.35 66.9 48.6 L66.95 48.75 Q67.05 49.85 67.95 50.65 68.9 51.45 70.15 51.35 70.9 51.3 71.55 50.9 L72.2 50.35 73.65 48.65 85.8 67.65 86.4 68.95 86.4 69.05 86.4 69.1 86.45 69.25 93.2 109.95 73.95 131.6 58.75 113.35 42.6 128.6 18.4 117.5 -7.9 137.75 -29.15 122.6 -48.3 133.65 -67.15 117.8 -84.75 130.2 -100.15 107.7 -93.4 69.35 -93.0 68.1 -92.95 67.95 -92.8 67.8 -92.8 67.75 -80.6 51.2 M3.3 80.55 L3.05 80.6 -87.9 72.8 -93.8 106.3 -83.25 121.8 -66.85 110.25 -47.65 126.35 -28.8 115.45 -8.05 130.25 17.6 110.55 41.45 121.45 59.3 104.65 74.1 122.4 86.8 108.05 80.95 72.8 3.3 80.55" fill="#000000" fill-rule="evenodd" stroke="none"/>
  </g>
</svg>
