<?xml version="1.0" encoding="UTF-8" standalone="no"?>
<svg xmlns:ffdec="https://www.free-decompiler.com/flash" xmlns:xlink="http://www.w3.org/1999/xlink" ffdec:objectType="shape" height="167.9px" width="218.9px" xmlns="http://www.w3.org/2000/svg">
  <g transform="matrix(1.0, 0.0, 0.0, 1.0, 104.75, 163.9)">
    <path d="M80.0 -82.5 L70.0 -82.5 70.0 -20.0 40.0 -20.0 24.25 0.0 -10.0 0.0 -30.0 -20.0 -60.0 -20.0 -60.0 -82.5 -70.0 -82.5 -70.0 -149.9 80.0 -149.95 80.0 -82.5 M-6.05 -118.6 L-6.1 -118.65 -6.1 -118.6 -6.05 -118.6" fill="#cc0000" fill-rule="evenodd" stroke="none"/>
    <path d="M81.25 -123.85 L81.25 -130.2 Q87.15 -131.2 92.3 -136.35 98.15 -142.2 98.65 -149.1 L100.05 -163.5 103.75 -163.9 108.35 -150.5 Q128.0 -81.9 81.25 -82.5 L81.25 -95.1 Q111.65 -99.1 103.1 -137.35 101.5 -135.15 99.4 -133.0 91.05 -124.7 81.25 -123.85 M-71.8 -95.1 L-71.8 -82.5 Q-118.6 -81.85 -98.9 -150.5 L-94.35 -163.9 -90.65 -163.5 -89.25 -149.1 Q-88.75 -142.2 -82.9 -136.35 -77.75 -131.2 -71.8 -130.2 L-71.8 -123.85 Q-81.65 -124.7 -89.95 -133.0 -92.05 -135.15 -93.65 -137.35 -102.25 -99.1 -71.8 -95.1" fill="#666666" fill-rule="evenodd" stroke="none"/>
    <path d="M81.25 -95.1 L81.25 -123.85 Q91.05 -124.7 99.4 -133.0 101.5 -135.15 103.1 -137.35 111.65 -99.1 81.25 -95.1 M-71.8 -95.1 Q-102.25 -99.1 -93.65 -137.35 -92.05 -135.15 -89.95 -133.0 -81.65 -124.7 -71.8 -123.85 L-71.8 -95.1" fill="#ffffff" fill-rule="evenodd" stroke="none"/>
    <path d="M24.25 0.0 L40.0 -20.0 70.0 -20.0 70.0 -82.5 80.0 -82.5 80.0 0.0 24.25 0.0 M-70.0 -82.5 L-60.0 -82.5 -60.0 -20.0 -30.0 -20.0 -10.0 0.0 -70.0 0.0 -70.0 -82.5" fill="#aa0000" fill-rule="evenodd" stroke="none"/>
    <path d="M24.25 0.0 L80.0 0.0 80.0 -82.5 80.0 -149.95 -70.0 -149.9 -70.0 -82.5 -70.0 0.0 -10.0 0.0 24.25 0.0 Z" fill="none" stroke="#660000" stroke-linecap="square" stroke-linejoin="miter-clip" stroke-miterlimit="3.0" stroke-width="6.0"/>
    <path d="M-43.85 -106.25 Q-14.05 -87.85 12.1 -103.95 25.7 -112.4 38.9 -111.45 51.45 -110.6 58.65 -101.65" fill="none" stroke="#000000" stroke-linecap="square" stroke-linejoin="miter-clip" stroke-miterlimit="3.0" stroke-width="8.0"/>
    <path d="M12.45 -13.8 L22.45 -18.8" fill="none" stroke="#000000" stroke-linecap="square" stroke-linejoin="miter-clip" stroke-miterlimit="3.0" stroke-width="8.0"/>
    <path d="M-23.2 -85.05 Q-15.2 -85.05 -9.5 -79.35 -3.8 -73.7 -3.75 -65.6 -3.8 -57.6 -9.5 -51.95 -15.2 -46.25 -23.2 -46.2 -31.25 -46.25 -36.95 -51.95 -42.6 -57.6 -42.6 -65.6 -42.6 -73.7 -36.95 -79.35 -31.25 -85.05 -23.2 -85.05" fill="#000000" fill-rule="evenodd" stroke="none"/>
    <path d="M-24.75 -82.8 Q-18.3 -82.8 -13.75 -78.25 -9.2 -73.65 -9.2 -67.25 -9.2 -60.8 -13.75 -56.25 -18.3 -51.7 -24.75 -51.7 -31.15 -51.7 -35.75 -56.25 -40.3 -60.8 -40.3 -67.25 -40.3 -73.65 -35.75 -78.25 -31.15 -82.8 -24.75 -82.8" fill="#ffffff" fill-rule="evenodd" stroke="none"/>
    <path d="M-31.45 -71.25 Q-31.4 -72.65 -30.45 -73.65 -29.4 -74.65 -27.9 -74.65 L-27.3 -74.6 Q-26.2 -74.45 -25.4 -73.65 -24.35 -72.6 -24.35 -71.1 -24.35 -69.65 -25.4 -68.65 -26.4 -67.6 -27.9 -67.6 -29.4 -67.6 -30.45 -68.65 -31.45 -69.65 -31.45 -71.1 L-31.45 -71.25" fill="#ffffff" fill-rule="evenodd" stroke="none"/>
    <path d="M-31.45 -71.25 L-31.45 -71.1 Q-31.45 -69.65 -30.45 -68.65 -29.4 -67.6 -27.9 -67.6 -26.4 -67.6 -25.4 -68.65 -24.35 -69.65 -24.35 -71.1 -24.35 -72.6 -25.4 -73.65 -26.2 -74.45 -27.3 -74.6 L-24.75 -75.0 Q-21.5 -75.0 -19.25 -72.7 -16.95 -70.45 -16.95 -67.25 -16.95 -64.0 -19.25 -61.7 -21.5 -59.45 -24.75 -59.45 -28.0 -59.45 -30.25 -61.7 -32.55 -64.0 -32.55 -67.25 -32.55 -69.45 -31.45 -71.25" fill="#000000" fill-rule="evenodd" stroke="none"/>
    <path d="M55.0 -69.45 Q54.95 -59.3 47.8 -52.2 40.65 -45.0 30.55 -45.0 20.45 -45.0 13.25 -52.2 6.15 -59.3 6.15 -69.45 6.15 -79.55 13.25 -86.7 20.45 -93.85 30.55 -93.85 40.65 -93.85 47.8 -86.7 54.95 -79.55 55.0 -69.45" fill="#000000" fill-rule="evenodd" stroke="none"/>
    <path d="M48.15 -71.4 Q48.15 -63.25 42.45 -57.55 36.7 -51.8 28.6 -51.8 20.55 -51.8 14.75 -57.55 9.05 -63.25 9.05 -71.4 9.05 -79.45 14.75 -85.2 20.55 -90.95 28.6 -90.95 36.7 -90.95 42.45 -85.2 48.15 -79.45 48.15 -71.4" fill="#ffffff" fill-rule="evenodd" stroke="none"/>
    <path d="M25.45 -80.65 Q26.8 -80.4 27.75 -79.45 29.1 -78.15 29.1 -76.25 29.1 -74.4 27.75 -73.15 26.5 -71.8 24.65 -71.8 22.8 -71.8 21.45 -73.15 20.2 -74.4 20.2 -76.25 L20.2 -76.4 Q20.25 -78.15 21.45 -79.45 22.8 -80.7 24.65 -80.7 L25.45 -80.65" fill="#ffffff" fill-rule="evenodd" stroke="none"/>
    <path d="M20.2 -76.4 L20.2 -76.25 Q20.2 -74.4 21.45 -73.15 22.8 -71.8 24.65 -71.8 26.5 -71.8 27.75 -73.15 29.1 -74.4 29.1 -76.25 29.1 -78.15 27.75 -79.45 26.8 -80.4 25.45 -80.65 L28.6 -81.15 Q32.65 -81.15 35.55 -78.25 38.4 -75.45 38.4 -71.4 38.4 -67.3 35.55 -64.45 32.65 -61.6 28.6 -61.6 24.55 -61.6 21.7 -64.45 18.85 -67.3 18.85 -71.4 18.85 -74.15 20.2 -76.4" fill="#000000" fill-rule="evenodd" stroke="none"/>
    <path d="M27.3 -28.75 L-21.2 -28.75 Q-20.25 -36.85 -14.25 -42.85 -7.05 -50.05 3.05 -50.05 13.15 -50.05 20.3 -42.85 26.3 -36.85 27.3 -28.75" fill="#990000" fill-rule="evenodd" stroke="none"/>
    <path d="M1.8 -36.25 Q1.8 -34.2 0.3 -32.75 -1.15 -31.25 -3.2 -31.25 -5.25 -31.25 -6.75 -32.75 -8.2 -34.2 -8.2 -36.25 -8.2 -38.3 -6.75 -39.8 -5.25 -41.25 -3.2 -41.25 -1.15 -41.25 0.3 -39.8 1.8 -38.3 1.8 -36.25" fill="#000000" fill-rule="evenodd" stroke="none"/>
    <path d="M9.3 -41.25 Q11.35 -41.25 12.8 -39.8 14.3 -38.3 14.3 -36.25 14.3 -34.2 12.8 -32.75 11.35 -31.25 9.3 -31.25 7.25 -31.25 5.75 -32.75 4.3 -34.2 4.3 -36.25 4.3 -38.3 5.75 -39.8 7.25 -41.25 9.3 -41.25" fill="#000000" fill-rule="evenodd" stroke="none"/>
  </g>
</svg>
