<?xml version="1.0" encoding="UTF-8" standalone="no"?>
<svg xmlns:ffdec="https://www.free-decompiler.com/flash" xmlns:xlink="http://www.w3.org/1999/xlink" ffdec:objectType="shape" height="169.25px" width="187.2px" xmlns="http://www.w3.org/2000/svg">
  <g transform="matrix(1.0, 0.0, 0.0, 1.0, 90.0, 165.25)">
    <path d="M-70.05 -82.0 L-70.05 -149.95 42.45 -149.9 42.45 -82.0 32.8 -82.0 32.8 -19.8 11.25 -19.8 0.0 0.0 -26.25 0.0 -40.55 -19.8 -62.1 -19.8 -62.1 -82.0 -70.05 -82.0 M-5.5 -118.6 L-5.45 -118.6 -5.45 -118.65 -5.5 -118.6" fill="#cc0000" fill-rule="evenodd" stroke="none"/>
    <path d="M42.45 -82.0 L42.45 -149.9 81.2 -140.0 81.2 0.0 42.45 0.0 42.45 -82.0" fill="#660000" fill-rule="evenodd" stroke="none"/>
    <path d="M-70.8 -99.9 L-70.8 -84.2 Q-100.55 -93.35 -84.15 -150.5 L-79.55 -163.9 -75.85 -163.5 -74.45 -149.1 Q-74.1 -144.0 -70.8 -139.5 L-70.8 -129.25 Q-73.05 -130.9 -75.15 -133.0 -77.3 -135.15 -78.9 -137.35 -85.1 -109.6 -70.8 -99.9" fill="#666666" fill-rule="evenodd" stroke="none"/>
    <path d="M-70.8 -99.9 Q-85.1 -109.6 -78.9 -137.35 -77.3 -135.15 -75.15 -133.0 -73.05 -130.9 -70.8 -129.25 L-70.8 -99.9" fill="#ffffff" fill-rule="evenodd" stroke="none"/>
    <path d="M-70.05 -82.0 L-62.1 -82.0 -62.1 -19.8 -40.55 -19.8 -26.25 0.0 -70.05 0.0 -70.05 -82.0 M0.0 0.0 L11.25 -19.8 32.8 -19.8 32.8 -82.0 42.45 -82.0 42.45 0.0 0.0 0.0" fill="#aa0000" fill-rule="evenodd" stroke="none"/>
    <path d="M42.45 -149.9 L-70.05 -149.95 -70.05 -82.0 -70.05 0.0 -26.25 0.0 0.0 0.0 42.45 0.0 42.45 -82.0 42.45 -149.9 81.2 -140.0 81.2 0.0 42.45 0.0" fill="none" stroke="#660000" stroke-linecap="square" stroke-linejoin="miter-clip" stroke-miterlimit="3.0" stroke-width="6.0"/>
    <path d="M-54.65 -106.25 Q-32.3 -87.85 -12.65 -103.95 -2.45 -112.4 7.45 -111.45 16.85 -110.6 22.25 -101.65" fill="none" stroke="#000000" stroke-linecap="square" stroke-linejoin="miter-clip" stroke-miterlimit="3.0" stroke-width="8.0"/>
    <path d="M-12.4 -13.8 L-4.9 -18.8" fill="none" stroke="#000000" stroke-linecap="square" stroke-linejoin="miter-clip" stroke-miterlimit="3.0" stroke-width="8.0"/>
    <path d="M-1.25 -28.75 L-37.65 -28.75 Q-36.95 -36.85 -32.45 -42.85 -27.05 -50.05 -19.45 -50.05 -11.9 -50.05 -6.5 -42.85 -2.0 -36.85 -1.25 -28.75" fill="#990000" fill-rule="evenodd" stroke="none"/>
    <path d="M-24.15 -41.25 Q-22.6 -41.25 -21.55 -39.8 -20.4 -38.3 -20.4 -36.25 -20.4 -34.2 -21.55 -32.75 -22.6 -31.25 -24.15 -31.25 -25.7 -31.25 -26.8 -32.75 -27.9 -34.2 -27.9 -36.25 -27.9 -38.3 -26.8 -39.8 -25.7 -41.25 -24.15 -41.25" fill="#000000" fill-rule="evenodd" stroke="none"/>
    <path d="M-14.75 -41.25 Q-13.2 -41.25 -12.15 -39.8 -11.0 -38.3 -11.0 -36.25 -11.0 -34.2 -12.15 -32.75 -13.2 -31.25 -14.75 -31.25 -16.3 -31.25 -17.4 -32.75 -18.5 -34.2 -18.5 -36.25 -18.5 -38.3 -17.4 -39.8 -16.3 -41.25 -14.75 -41.25" fill="#000000" fill-rule="evenodd" stroke="none"/>
    <path d="M19.5 -69.4 Q19.45 -59.3 14.1 -52.15 8.75 -45.0 1.15 -45.0 -6.4 -45.0 -11.8 -52.15 -17.15 -59.3 -17.15 -69.4 -17.15 -79.55 -11.8 -86.7 -6.4 -93.85 1.15 -93.85 8.75 -93.85 14.1 -86.7 19.45 -79.55 19.5 -69.4 M10.1 -57.55 Q14.4 -63.3 14.4 -71.35 14.4 -79.45 10.1 -85.2 5.8 -90.95 -0.25 -90.9 -6.35 -90.95 -10.65 -85.2 -14.95 -79.45 -14.95 -71.35 -14.95 -63.3 -10.65 -57.55 -6.35 -51.85 -0.25 -51.8 5.8 -51.85 10.1 -57.55 M-28.85 -79.4 Q-24.6 -73.7 -24.55 -65.65 -24.6 -57.6 -28.85 -51.9 -33.15 -46.2 -39.15 -46.2 -45.2 -46.2 -49.45 -51.9 -53.75 -57.6 -53.75 -65.65 -53.75 -73.7 -49.45 -79.4 -45.2 -85.1 -39.15 -85.1 -33.15 -85.1 -28.85 -79.4 M-32.05 -78.25 Q-35.45 -82.8 -40.3 -82.8 -45.1 -82.8 -48.55 -78.25 -51.95 -73.65 -51.95 -67.2 -51.95 -60.8 -48.55 -56.25 -45.1 -51.7 -40.3 -51.65 -35.45 -51.7 -32.05 -56.25 -28.6 -60.8 -28.6 -67.2 -28.6 -73.65 -32.05 -78.25" fill="#000000" fill-rule="evenodd" stroke="none"/>
    <path d="M10.1 -57.55 Q5.8 -51.85 -0.25 -51.8 -6.35 -51.85 -10.65 -57.55 -14.95 -63.3 -14.95 -71.35 -14.95 -79.45 -10.65 -85.2 -6.35 -90.95 -0.25 -90.9 5.8 -90.95 10.1 -85.2 14.4 -79.45 14.4 -71.35 14.4 -63.3 10.1 -57.55 M-32.05 -78.25 Q-28.6 -73.65 -28.6 -67.2 -28.6 -60.8 -32.05 -56.25 -35.45 -51.7 -40.3 -51.65 -45.1 -51.7 -48.55 -56.25 -51.95 -60.8 -51.95 -67.2 -51.95 -73.65 -48.55 -78.25 -45.1 -82.8 -40.3 -82.8 -35.45 -82.8 -32.05 -78.25" fill="#ffffff" fill-rule="evenodd" stroke="none"/>
    <path d="M-46.2 -74.6 L-44.3 -75.0 Q-41.85 -75.0 -40.15 -72.7 -38.45 -70.45 -38.45 -67.25 -38.45 -64.0 -40.15 -61.7 -41.85 -59.45 -44.3 -59.45 -46.7 -59.45 -48.4 -61.7 -50.1 -64.0 -50.1 -67.25 -50.1 -69.45 -49.3 -71.25 L-49.3 -71.1 Q-49.3 -69.65 -48.55 -68.65 -47.75 -67.6 -46.65 -67.6 -45.55 -67.6 -44.8 -68.65 -44.0 -69.65 -44.0 -71.1 -44.0 -72.6 -44.8 -73.65 -45.35 -74.45 -46.2 -74.6" fill="#000000" fill-rule="evenodd" stroke="none"/>
    <path d="M-46.2 -74.6 Q-45.35 -74.45 -44.8 -73.65 -44.0 -72.6 -44.0 -71.1 -44.0 -69.65 -44.8 -68.65 -45.55 -67.6 -46.65 -67.6 -47.75 -67.6 -48.55 -68.65 -49.3 -69.65 -49.3 -71.1 L-49.3 -71.25 Q-49.3 -72.65 -48.55 -73.65 -47.75 -74.65 -46.65 -74.65 L-46.2 -74.6" fill="#ffffff" fill-rule="evenodd" stroke="none"/>
    <path d="M-6.65 -80.65 L-4.3 -81.15 Q-1.25 -81.15 0.9 -78.25 3.05 -75.45 3.05 -71.4 3.05 -67.3 0.9 -64.45 -1.25 -61.6 -4.3 -61.6 -7.35 -61.6 -9.45 -64.45 -11.6 -67.3 -11.6 -71.4 -11.6 -74.15 -10.6 -76.4 L-10.6 -76.25 Q-10.6 -74.4 -9.65 -73.15 -8.65 -71.8 -7.25 -71.8 -5.85 -71.8 -4.9 -73.15 -3.9 -74.4 -3.9 -76.25 -3.9 -78.15 -4.9 -79.45 -5.65 -80.4 -6.65 -80.65" fill="#000000" fill-rule="evenodd" stroke="none"/>
    <path d="M-6.65 -80.65 Q-5.65 -80.4 -4.9 -79.45 -3.9 -78.15 -3.9 -76.25 -3.9 -74.4 -4.9 -73.15 -5.85 -71.8 -7.25 -71.8 -8.65 -71.8 -9.65 -73.15 -10.6 -74.4 -10.6 -76.25 L-10.6 -76.4 Q-10.55 -78.15 -9.65 -79.45 -8.65 -80.7 -7.25 -80.7 L-6.65 -80.65" fill="#ffffff" fill-rule="evenodd" stroke="none"/>
    <path d="M60.7 -132.5 Q65.9 -132.5 69.6 -125.2 73.2 -117.85 73.2 -107.5 73.2 -97.15 69.5 -80.45 65.9 -63.75 60.7 -63.5 55.5 -63.25 51.85 -80.2 48.2 -97.15 48.2 -107.5 48.2 -117.85 51.9 -125.2 55.5 -132.5 60.7 -132.5" fill="#330000" fill-rule="evenodd" stroke="none"/>
    <path d="M86.8 -165.25 L91.35 -151.85 Q111.05 -83.2 64.25 -83.85 50.9 -94.15 50.9 -107.35 50.9 -120.6 64.25 -131.55 70.2 -132.55 75.35 -137.7 81.2 -143.55 81.7 -150.45 L83.1 -164.85 86.8 -165.25 M82.4 -134.35 Q74.1 -126.05 64.25 -125.2 58.85 -118.7 58.85 -110.6 58.85 -102.5 64.2 -96.45 L64.25 -96.45 Q94.7 -100.45 86.1 -138.7 L82.4 -134.35" fill="#666666" fill-rule="evenodd" stroke="none"/>
    <path d="M82.4 -134.35 L86.1 -138.7 Q94.7 -100.45 64.25 -96.45 L64.2 -96.45 Q58.85 -102.5 58.85 -110.6 58.85 -118.7 64.25 -125.2 74.1 -126.05 82.4 -134.35" fill="#ffffff" fill-rule="evenodd" stroke="none"/>
  </g>
</svg>
