<?xml version="1.0" encoding="UTF-8" standalone="no"?>
<svg xmlns:ffdec="https://www.free-decompiler.com/flash" xmlns:xlink="http://www.w3.org/1999/xlink" ffdec:objectType="shape" height="74.95px" width="173.65px" xmlns="http://www.w3.org/2000/svg">
  <g transform="matrix(1.0, 0.0, 0.0, 1.0, 89.1, 49.95)">
    <path d="M77.45 -32.7 Q78.65 -31.55 79.25 -29.75 L84.2 -14.95 Q84.95 -12.5 84.2 -9.9 L79.25 4.85 Q78.75 6.45 77.55 7.65 76.4 8.9 74.9 9.6 L40.4 24.4 Q38.8 25.0 37.2 25.0 L-54.0 25.0 -56.4 24.7 -58.65 25.0 -76.2 25.0 Q-78.8 25.0 -80.75 23.5 -82.9 22.05 -83.7 19.65 L-88.65 4.85 Q-89.45 2.5 -88.75 0.35 L-82.15 -24.35 -81.45 -26.1 -81.25 -27.8 -76.9 -44.05 Q-76.3 -46.7 -74.15 -48.3 -71.95 -49.95 -69.3 -49.95 L31.3 -49.95 34.05 -49.5 74.5 -34.7 Q76.2 -34.1 77.45 -32.7" fill="#1c1300" fill-rule="evenodd" stroke="none"/>
    <path d="M-2.25 2.3 L-3.2 -12.5 23.5 -12.5 28.45 -14.55 33.1 -12.5 76.7 -12.5 37.2 2.3 18.7 2.3 16.1 -1.45 14.25 2.3 -2.25 2.3 M71.75 -27.3 L-4.2 -27.3 -5.2 -42.1 31.3 -42.1 71.75 -27.3 M-36.75 -42.1 L-40.0 -12.1 -37.65 -9.35 -40.9 -4.9 -41.7 2.3 -55.1 2.3 -58.35 -2.6 -61.2 2.3 -81.15 2.3 -74.55 -22.35 -72.95 -22.35 -53.05 -22.35 -73.55 -25.7 -69.3 -42.1 -36.75 -42.1" fill="#4f380b" fill-rule="evenodd" stroke="none"/>
    <path d="M28.05 -18.2 L32.7 -16.15 70.45 -16.15 68.0 -23.55 -8.75 -23.55 -9.75 -38.25 -9.75 -38.35 -32.1 -38.35 -35.0 -12.0 -32.5 -9.75 -35.65 -5.9 -36.15 -1.35 -7.25 -1.35 -8.25 -16.15 23.1 -16.15 28.05 -18.2 M76.7 -12.5 L33.1 -12.5 28.45 -14.55 23.5 -12.5 -3.2 -12.5 -2.25 2.3 -41.7 2.3 -40.9 -4.9 -37.65 -9.35 -40.0 -12.1 -36.75 -42.1 -5.2 -42.1 -4.2 -27.3 71.75 -27.3 76.7 -12.5" fill="#4a0000" fill-rule="evenodd" stroke="none"/>
    <path d="M28.05 -18.2 L23.1 -16.15 -8.25 -16.15 -7.25 -1.35 -36.15 -1.35 -35.65 -5.9 -32.5 -9.75 -35.0 -12.0 -32.1 -38.35 -9.75 -38.35 -9.75 -38.25 -8.75 -23.55 68.0 -23.55 70.45 -16.15 32.7 -16.15 28.05 -18.2" fill="#990000" fill-rule="evenodd" stroke="none"/>
    <path d="M-2.25 2.3 L14.25 2.3 16.1 9.2 18.7 2.3 37.2 2.3 37.2 17.1 -3.2 17.1 -2.85 11.95 -6.5 9.0 -2.45 5.75 -2.25 2.3 M-72.95 -22.35 L-73.55 -25.7 -53.05 -22.35 -72.95 -22.35 M-39.7 17.1 L-54.0 17.1 -55.1 2.3 -41.7 2.3 -40.7 9.7 -26.8 12.15 -40.2 13.35 -39.7 17.1 M-58.65 17.1 L-76.2 17.1 -81.15 2.3 -61.2 2.3 -58.65 17.1" fill="#2d1e00" fill-rule="evenodd" stroke="none"/>
    <path d="M14.25 2.3 L16.1 -1.45 16.1 9.2 14.25 2.3 M-41.7 2.3 L-2.25 2.3 -2.45 5.75 -6.5 9.0 -2.85 11.95 -3.2 17.1 -39.7 17.1 -40.2 13.35 -26.8 12.15 -40.7 9.7 -41.7 2.3 M-56.2 16.0 L-58.65 17.1 -61.2 2.3 -58.35 -2.6 -56.2 16.0" fill="#000000" fill-rule="evenodd" stroke="none"/>
    <path d="M16.1 -1.45 L18.7 2.3 16.1 9.2 16.1 -1.45 M-54.0 17.1 L-56.2 16.0 -58.35 -2.6 -55.1 2.3 -54.0 17.1" fill="#795511" fill-rule="evenodd" stroke="none"/>
    <path d="M37.2 2.3 L76.7 -12.5 71.75 2.3 37.2 17.1 37.2 2.3" fill="#1c1300" fill-rule="evenodd" stroke="none"/>
  </g>
</svg>
