<?xml version="1.0" encoding="UTF-8" standalone="no"?>
<svg xmlns:ffdec="https://www.free-decompiler.com/flash" xmlns:xlink="http://www.w3.org/1999/xlink" ffdec:objectType="shape" height="60.5px" width="61.0px" xmlns="http://www.w3.org/2000/svg">
  <g transform="matrix(1.0, 0.0, 0.0, 1.0, 30.5, 30.5)">
    <path d="M27.85 -30.0 L30.0 -30.0 30.0 -19.8 24.0 -0.75 24.05 -0.65 24.0 -0.65 11.5 6.4 8.2 2.0 27.85 -30.0" fill="url(#gradient0)" fill-rule="evenodd" stroke="none"/>
    <path d="M-30.0 19.8 L-30.0 8.55 0.4 -30.0 8.4 -30.0 -12.25 10.6 -30.0 19.8" fill="url(#gradient1)" fill-rule="evenodd" stroke="none"/>
    <path d="M8.4 -30.0 L27.85 -30.0 8.2 2.0 -5.15 10.6 -12.25 10.6 8.4 -30.0" fill="url(#gradient2)" fill-rule="evenodd" stroke="none"/>
    <path d="M-3.5 30.0 L-20.1 30.0 -5.15 10.6 8.2 2.0 11.5 6.4 -3.5 30.0" fill="url(#gradient3)" fill-rule="evenodd" stroke="none"/>
    <path d="M30.0 8.4 L30.0 9.6 20.5 24.05 16.6 30.0 -3.5 30.0 11.5 6.4 24.0 -0.65 24.05 -0.65 30.0 8.4" fill="url(#gradient4)" fill-rule="evenodd" stroke="none"/>
    <path d="M-30.0 8.55 L-30.0 -19.9 -20.75 -30.0 0.4 -30.0 -30.0 8.55" fill="url(#gradient5)" fill-rule="evenodd" stroke="none"/>
    <path d="M-20.1 30.0 L-30.0 30.0 -30.0 19.8 -12.25 10.6 -5.15 10.6 -20.1 30.0" fill="url(#gradient6)" fill-rule="evenodd" stroke="none"/>
    <path d="M30.0 -19.8 L30.0 8.4 24.05 -0.65 24.0 -0.75 30.0 -19.8" fill="url(#gradient7)" fill-rule="evenodd" stroke="none"/>
    <path d="M30.0 9.6 L30.0 19.6 20.5 24.05 30.0 9.6" fill="url(#gradient8)" fill-rule="evenodd" stroke="none"/>
    <path d="M30.0 19.6 L30.0 30.0 16.6 30.0 20.5 24.05 30.0 19.6" fill="url(#gradient9)" fill-rule="evenodd" stroke="none"/>
    <path d="M-30.0 -19.9 L-30.0 -30.0 -20.75 -30.0 -30.0 -19.9" fill="url(#gradient10)" fill-rule="evenodd" stroke="none"/>
    <path d="M30.0 -30.0 L30.0 -22.2 19.3 -19.35 11.75 -22.2 3.65 -18.0 -6.55 -22.2 -17.75 -19.95 -30.0 -22.2 -30.0 -30.0 30.0 -30.0" fill="#f6f6f6" fill-opacity="0.6509804" fill-rule="evenodd" stroke="none"/>
    <path d="M30.0 -22.2 L19.3 -19.35 11.75 -22.2 3.65 -18.0 -6.55 -22.2 -17.75 -19.95 -30.0 -22.2 M-30.0 -30.0 L30.0 -30.0" fill="none" stroke="#f9f9f9" stroke-linecap="butt" stroke-linejoin="round" stroke-width="1.0"/>
  </g>
  <defs>
    <radialGradient cx="0" cy="0" gradientTransform="matrix(0.0213, 0.0165, -0.0535, 0.0691, 38.5, -28.8)" gradientUnits="userSpaceOnUse" id="gradient0" r="819.2" spreadMethod="pad">
      <stop offset="0.00392156862745098" stop-color="#f7f9fc"/>
      <stop offset="0.7254901960784313" stop-color="#798794"/>
    </radialGradient>
    <radialGradient cx="0" cy="0" gradientTransform="matrix(0.0201, 0.0151, -0.0391, 0.0522, -8.2, -9.4)" gradientUnits="userSpaceOnUse" id="gradient1" r="819.2" spreadMethod="pad">
      <stop offset="0.00392156862745098" stop-color="#f7f9fc"/>
      <stop offset="0.7254901960784313" stop-color="#798794"/>
    </radialGradient>
    <radialGradient cx="0" cy="0" gradientTransform="matrix(0.0223, 0.0129, -0.0338, 0.0585, 11.95, -19.4)" gradientUnits="userSpaceOnUse" id="gradient2" r="819.2" spreadMethod="pad">
      <stop offset="0.00392156862745098" stop-color="#f7f9fc"/>
      <stop offset="0.7254901960784313" stop-color="#798794"/>
    </radialGradient>
    <radialGradient cx="0" cy="0" gradientTransform="matrix(0.0246, 0.0163, -0.0477, 0.0719, -14.7, 36.05)" gradientUnits="userSpaceOnUse" id="gradient3" r="819.2" spreadMethod="pad">
      <stop offset="0.00392156862745098" stop-color="#f7f9fc"/>
      <stop offset="0.7254901960784313" stop-color="#798794"/>
    </radialGradient>
    <radialGradient cx="0" cy="0" gradientTransform="matrix(0.0233, 0.0164, -0.0411, 0.0584, 10.15, 27.25)" gradientUnits="userSpaceOnUse" id="gradient4" r="819.2" spreadMethod="pad">
      <stop offset="0.00392156862745098" stop-color="#f7f9fc"/>
      <stop offset="0.7254901960784313" stop-color="#798794"/>
    </radialGradient>
    <radialGradient cx="0" cy="0" gradientTransform="matrix(0.0188, 0.0134, -0.0277, 0.0387, -21.35, -14.7)" gradientUnits="userSpaceOnUse" id="gradient5" r="819.2" spreadMethod="pad">
      <stop offset="0.00392156862745098" stop-color="#f7f9fc"/>
      <stop offset="0.7254901960784313" stop-color="#798794"/>
    </radialGradient>
    <radialGradient cx="0" cy="0" gradientTransform="matrix(0.0219, 0.0161, -0.0401, 0.0544, -26.35, 27.55)" gradientUnits="userSpaceOnUse" id="gradient6" r="819.2" spreadMethod="pad">
      <stop offset="0.00392156862745098" stop-color="#f7f9fc"/>
      <stop offset="0.7254901960784313" stop-color="#798794"/>
    </radialGradient>
    <radialGradient cx="0" cy="0" gradientTransform="matrix(0.0278, 0.0115, -0.0182, 0.044, 38.9, -14.8)" gradientUnits="userSpaceOnUse" id="gradient7" r="819.2" spreadMethod="pad">
      <stop offset="0.00392156862745098" stop-color="#f7f9fc"/>
      <stop offset="0.7254901960784313" stop-color="#798794"/>
    </radialGradient>
    <radialGradient cx="0" cy="0" gradientTransform="matrix(0.0193, 0.0149, -0.0379, 0.0489, 50.4, -7.4)" gradientUnits="userSpaceOnUse" id="gradient8" r="819.2" spreadMethod="pad">
      <stop offset="0.00392156862745098" stop-color="#f7f9fc"/>
      <stop offset="0.7254901960784313" stop-color="#798794"/>
    </radialGradient>
    <radialGradient cx="0" cy="0" gradientTransform="matrix(0.0207, 0.0136, -0.0273, 0.0416, 33.95, 26.85)" gradientUnits="userSpaceOnUse" id="gradient9" r="819.2" spreadMethod="pad">
      <stop offset="0.00392156862745098" stop-color="#f7f9fc"/>
      <stop offset="0.7254901960784313" stop-color="#798794"/>
    </radialGradient>
    <radialGradient cx="0" cy="0" gradientTransform="matrix(0.0226, 0.0092, -0.0177, 0.0435, -33.2, -17.0)" gradientUnits="userSpaceOnUse" id="gradient10" r="819.2" spreadMethod="pad">
      <stop offset="0.00392156862745098" stop-color="#f7f9fc"/>
      <stop offset="0.7254901960784313" stop-color="#798794"/>
    </radialGradient>
  </defs>
</svg>
