<?xml version="1.0" encoding="UTF-8" standalone="no"?>
<svg xmlns:ffdec="https://www.free-decompiler.com/flash" xmlns:xlink="http://www.w3.org/1999/xlink" ffdec:objectType="shape" height="140.0px" width="140.0px" xmlns="http://www.w3.org/2000/svg">
  <g transform="matrix(1.0, 0.0, 0.0, 1.0, 70.0, 70.0)">
    <path d="M0.0 -34.8 Q18.55 -34.8 31.7 -21.7 40.55 -12.85 43.45 -1.5 44.8 3.95 44.8 10.0 44.8 14.4 44.1 18.5 41.7 31.65 31.7 41.65 18.55 54.8 0.0 54.8 L0.0 70.0 Q-29.0 70.0 -49.5 49.45 -63.1 35.85 -67.65 18.5 -70.0 9.7 -70.0 0.0 L-69.95 -1.5 -43.4 -1.5 Q-40.55 -12.85 -31.65 -21.7 -18.55 -34.8 0.0 -34.8" fill="#010101" fill-opacity="0.0" fill-rule="evenodd" stroke="none"/>
    <path d="M0.0 -70.0 L0.0 -34.8 Q-18.55 -34.8 -31.65 -21.7 -40.55 -12.85 -43.4 -1.5 L-69.95 -1.5 Q-69.45 -29.5 -49.5 -49.5 -29.0 -70.0 0.0 -70.0" fill="url(#gradient0)" fill-rule="evenodd" stroke="none"/>
    <path d="M0.0 70.0 L0.0 54.8 Q18.55 54.8 31.7 41.65 41.7 31.65 44.1 18.5 44.8 14.4 44.8 10.0 44.8 3.95 43.45 -1.5 40.55 -12.85 31.7 -21.7 18.55 -34.8 0.0 -34.8 L0.0 -70.0 Q29.0 -70.0 49.5 -49.5 69.5 -29.5 70.0 -1.5 L70.0 0.0 Q70.0 9.7 67.7 18.5 63.1 35.85 49.5 49.45 29.0 70.0 0.0 70.0" fill="url(#gradient1)" fill-rule="evenodd" stroke="none"/>
  </g>
  <defs>
    <linearGradient gradientTransform="matrix(0.0361, -0.0209, 0.0427, 0.074, -12.2, -1.55)" gradientUnits="userSpaceOnUse" id="gradient0" spreadMethod="pad" x1="-819.2" x2="819.2">
      <stop offset="0.0" stop-color="#ffffff" stop-opacity="0.0"/>
      <stop offset="1.0" stop-color="#ffffff" stop-opacity="0.5019608"/>
    </linearGradient>
    <linearGradient gradientTransform="matrix(0.0, -0.0525, 0.0427, 0.0, 35.0, 9.0)" gradientUnits="userSpaceOnUse" id="gradient1" spreadMethod="pad" x1="-819.2" x2="819.2">
      <stop offset="0.0" stop-color="#ffffff" stop-opacity="0.0"/>
      <stop offset="1.0" stop-color="#ffffff" stop-opacity="0.5019608"/>
    </linearGradient>
  </defs>
</svg>
