<?xml version="1.0" encoding="UTF-8" standalone="no"?>
<svg xmlns:ffdec="https://www.free-decompiler.com/flash" xmlns:xlink="http://www.w3.org/1999/xlink" ffdec:objectType="shape" height="23.15px" width="65.25px" xmlns="http://www.w3.org/2000/svg">
  <g transform="matrix(1.0, 0.0, 0.0, 1.0, 34.8, 14.85)">
    <path d="M27.15 -11.5 Q30.45 -8.25 30.45 -3.6 30.45 1.05 27.15 4.4 23.85 7.65 19.2 7.65 15.15 7.65 12.15 5.2 10.4 6.9 7.95 6.9 5.5 6.9 3.75 5.15 1.95 3.4 1.95 0.9 1.95 -1.55 3.75 -3.3 5.5 -5.1 7.95 -5.1 L8.05 -5.1 Q8.5 -8.8 11.25 -11.5 14.55 -14.85 19.2 -14.85 23.85 -14.85 27.15 -11.5 M-23.55 -14.2 Q-18.9 -14.2 -15.6 -10.9 -13.65 -8.95 -12.85 -6.5 -10.85 -6.1 -9.25 -4.5 -7.05 -2.3 -7.05 0.8 -7.05 3.9 -9.25 6.05 -11.45 8.25 -14.55 8.3 -16.8 8.3 -18.55 7.15 -20.8 8.3 -23.55 8.3 -28.2 8.3 -31.5 5.0 -34.8 1.7 -34.8 -2.95 -34.8 -7.6 -31.5 -10.9 -28.2 -14.2 -23.55 -14.2" fill="#ffffff" fill-opacity="0.3019608" fill-rule="evenodd" stroke="none"/>
  </g>
</svg>
