<?xml version="1.0" encoding="UTF-8" standalone="no"?>
<svg xmlns:ffdec="https://www.free-decompiler.com/flash" xmlns:xlink="http://www.w3.org/1999/xlink" ffdec:objectType="shape" height="35.75px" width="118.85px" xmlns="http://www.w3.org/2000/svg">
  <g transform="matrix(1.0, 0.0, 0.0, 1.0, 62.2, 27.45)">
    <path d="M37.15 -24.95 Q39.65 -27.45 43.25 -27.45 46.8 -27.45 49.35 -24.95 51.85 -22.45 51.85 -18.85 51.85 -15.75 49.95 -13.45 51.8 -12.65 53.35 -11.1 56.65 -7.75 56.65 -3.05 56.65 1.65 53.35 5.0 50.0 8.3 45.3 8.3 40.6 8.3 37.25 5.0 L36.75 4.4 33.25 4.85 Q29.1 4.85 25.85 2.55 L25.35 3.1 Q22.9 5.55 19.5 5.55 16.1 5.55 13.65 3.1 11.25 0.7 11.25 -2.7 11.25 -6.15 13.65 -8.55 16.1 -11.0 19.5 -10.95 L20.45 -10.9 Q21.2 -14.6 24.0 -17.45 27.85 -21.3 33.25 -21.25 L34.95 -21.15 Q35.5 -23.3 37.15 -24.95 M-45.0 -23.35 Q-41.05 -23.35 -38.2 -20.5 -37.0 -19.3 -36.25 -17.85 L-36.1 -17.85 Q-30.95 -17.85 -27.35 -14.2 L-25.25 -11.55 -24.05 -11.65 Q-20.5 -11.65 -17.95 -9.1 -15.45 -6.65 -15.45 -3.05 -15.45 0.5 -17.95 3.05 -20.5 5.55 -24.05 5.55 -26.55 5.5 -28.5 4.3 -31.75 6.9 -36.1 6.9 -40.65 6.9 -44.0 4.0 L-45.15 5.4 Q-48.1 8.3 -52.25 8.3 -56.35 8.3 -59.25 5.4 -62.2 2.45 -62.2 -1.7 -62.2 -5.8 -59.25 -8.7 -57.15 -10.85 -54.35 -11.45 L-54.65 -13.7 Q-54.65 -17.7 -51.8 -20.5 -49.0 -23.35 -45.0 -23.35" fill="#ffffff" fill-opacity="0.2" fill-rule="evenodd" stroke="none"/>
  </g>
</svg>
