<?xml version="1.0" encoding="UTF-8" standalone="no"?>
<svg xmlns:ffdec="https://www.free-decompiler.com/flash" xmlns:xlink="http://www.w3.org/1999/xlink" ffdec:objectType="shape" height="29.25px" width="125.7px" xmlns="http://www.w3.org/2000/svg">
  <g transform="matrix(1.0, 0.0, 0.0, 1.0, 61.7, 23.8)">
    <path d="M33.3 -8.5 Q35.3 -11.65 38.95 -12.5 L39.1 -12.5 Q38.65 -15.8 40.5 -18.7 42.5 -21.9 46.0 -22.8 49.5 -23.75 52.45 -21.85 55.4 -20.0 56.1 -16.45 L56.25 -14.85 Q58.05 -14.6 59.75 -13.5 62.9 -11.55 63.75 -7.85 64.55 -4.25 62.55 -1.05 60.55 2.1 56.9 2.95 53.25 3.75 50.1 1.75 L48.8 0.8 48.6 1.15 Q46.55 4.3 42.9 5.15 39.25 6.0 36.1 4.0 32.95 1.95 32.1 -1.7 31.3 -5.35 33.3 -8.5 M-43.8 -21.3 Q-40.8 -18.8 -40.1 -15.1 -37.85 -14.75 -35.95 -13.2 -33.25 -10.95 -32.85 -7.55 -32.5 -4.15 -34.65 -1.55 -36.8 1.0 -40.2 1.3 L-40.35 1.3 -41.15 2.4 Q-43.4 5.05 -46.85 5.4 -50.3 5.7 -53.0 3.5 -55.7 1.25 -56.0 -2.2 L-56.05 -3.3 -57.75 -4.5 Q-61.25 -7.4 -61.65 -11.85 -62.05 -16.4 -59.15 -19.85 -56.3 -23.35 -51.85 -23.75 -47.3 -24.2 -43.8 -21.3" fill="#ffffff" fill-opacity="0.101960786" fill-rule="evenodd" stroke="none"/>
  </g>
</svg>
