<?xml version="1.0" encoding="UTF-8" standalone="no"?>
<svg xmlns:ffdec="https://www.free-decompiler.com/flash" xmlns:xlink="http://www.w3.org/1999/xlink" ffdec:objectType="shape" height="86.8px" width="299.3px" xmlns="http://www.w3.org/2000/svg">
  <g transform="matrix(1.0, 0.0, 0.0, 1.0, 142.2, 28.1)">
    <path d="M-101.1 41.9 Q-102.0 43.25 -103.6 43.65 -121.45 47.9 -137.1 37.85 -135.15 44.75 -129.45 48.25 -119.5 53.75 -99.35 50.3 L-99.3 50.3 Q-92.05 49.15 -84.8 47.05 -83.65 46.65 -82.45 47.05 -67.4 52.0 -51.7 51.25 -94.55 38.5 -109.35 28.1 -115.3 23.9 -120.8 19.25 -125.1 15.6 -128.5 11.25 -120.15 25.15 -102.35 36.4 -101.0 37.25 -100.6 38.85 -100.25 40.45 -101.1 41.9 M-139.85 -14.3 L-131.25 -0.75 Q-126.5 9.15 -118.2 16.2 -112.85 20.75 -107.05 24.8 -90.7 36.2 -39.75 50.55 L-39.7 53.95 Q-62.35 57.85 -83.7 50.85 -91.15 53.05 -98.7 54.25 -142.55 61.8 -142.2 28.9 -124.85 44.5 -104.5 39.75 -139.5 17.65 -139.85 -14.3 M138.3 46.85 Q145.05 42.85 146.25 36.65 L105.8 48.85 104.85 49.0 100.6 49.2 Q99.35 49.25 98.3 48.6 97.2 47.9 96.75 46.75 96.25 45.6 96.5 44.35 96.75 43.15 97.7 42.3 100.35 39.8 103.25 37.6 97.1 41.45 90.1 43.65 L90.15 43.6 Q75.3 48.35 63.2 54.6 L82.05 53.65 Q99.75 50.95 117.5 51.4 L117.75 51.45 Q128.75 52.4 138.3 46.85 M140.0 -2.35 Q128.4 13.6 115.0 27.9 111.6 31.5 107.8 34.4 112.6 31.35 117.9 29.05 133.35 22.35 144.5 9.65 L144.5 9.7 Q156.7 -4.3 151.4 -19.5 146.05 -10.7 140.0 -2.35 M136.75 -4.7 Q144.95 -16.0 151.8 -28.1 164.25 -6.85 147.5 12.3 135.75 25.65 119.5 32.7 108.85 37.35 100.4 45.2 L104.65 45.0 150.35 31.25 Q152.0 43.45 140.3 50.3 129.7 56.5 117.4 55.4 100.0 54.95 82.6 57.6 66.55 59.95 50.5 57.2 66.8 46.85 88.9 39.8 102.15 35.7 112.05 25.15 125.3 11.05 136.75 -4.7" fill="#33c5ff" fill-opacity="0.8509804" fill-rule="evenodd" stroke="none"/>
    <path d="M140.0 -2.35 Q146.05 -10.7 151.4 -19.5 156.7 -4.3 144.5 9.7 L144.5 9.65 Q133.35 22.35 117.9 29.05 112.6 31.35 107.8 34.4 111.6 31.5 115.0 27.9 128.4 13.6 140.0 -2.35 M138.3 46.85 Q128.75 52.4 117.75 51.45 L117.5 51.4 Q99.75 50.95 82.05 53.65 L63.2 54.6 Q75.3 48.35 90.15 43.6 L90.1 43.65 Q97.1 41.45 103.25 37.6 100.35 39.8 97.7 42.3 96.75 43.15 96.5 44.35 96.25 45.6 96.75 46.75 97.2 47.9 98.3 48.6 99.35 49.25 100.6 49.2 L104.85 49.0 105.8 48.85 146.25 36.65 Q145.05 42.85 138.3 46.85 M-84.8 47.05 Q-92.05 49.15 -99.3 50.3 L-99.35 50.3 Q-119.5 53.75 -129.45 48.25 -135.15 44.75 -137.1 37.85 -121.45 47.9 -103.6 43.65 -102.0 43.25 -101.1 41.9 -100.25 40.45 -100.6 38.85 -101.0 37.25 -102.35 36.4 -120.15 25.15 -128.5 11.25 -125.1 15.6 -120.8 19.25 -115.3 23.9 -109.35 28.1 -94.55 38.5 -51.7 51.25 -67.4 52.0 -82.45 47.05 -83.65 46.65 -84.8 47.05" fill="#33c5ff" fill-opacity="0.5529412" fill-rule="evenodd" stroke="none"/>
  </g>
</svg>
