<?xml version="1.0" encoding="UTF-8" standalone="no"?>
<svg xmlns:ffdec="https://www.free-decompiler.com/flash" xmlns:xlink="http://www.w3.org/1999/xlink" ffdec:objectType="shape" height="95.1px" width="255.25px" xmlns="http://www.w3.org/2000/svg">
  <g transform="matrix(1.0, 0.0, 0.0, 1.0, 120.55, 55.65)">
    <path d="M-76.75 36.3 L-78.1 39.25 Q-99.1 41.2 -111.35 23.95 L-111.3 22.25 -115.25 18.9 -114.4 15.95 -94.6 29.45 -76.75 36.3 M-119.6 -25.95 Q-123.3 -39.45 -112.45 -47.2 -106.9 -51.2 -100.6 -50.3 L-110.35 -42.8 Q-112.75 -11.1 -78.15 5.4 L-78.85 11.0 Q-110.75 6.3 -119.6 -25.95 M-114.55 -39.35 Q-117.7 -34.2 -115.75 -27.0 -109.0 -2.45 -87.8 4.8 -115.05 -11.6 -114.55 -39.35 M105.05 32.75 L105.05 33.15 Q120.25 35.45 127.85 21.9 115.7 25.3 104.7 31.45 L105.05 32.75 M100.0 36.15 L101.05 33.1 99.3 29.9 Q115.8 20.0 134.7 16.1 125.55 43.1 100.0 36.15 M120.1 -22.9 L120.1 -22.95 Q109.7 -2.45 91.15 10.45 95.2 13.1 100.15 10.85 L100.15 10.8 Q117.85 2.7 123.1 -16.8 L123.1 -16.75 Q125.9 -27.35 123.9 -36.15 123.55 -29.7 120.1 -22.9 M113.6 -54.25 L117.1 -55.65 Q133.4 -39.85 126.95 -15.75 121.2 5.6 101.8 14.45 92.75 18.6 85.75 11.0 L86.35 8.85 Q105.9 -3.8 116.5 -24.75 124.5 -40.45 113.6 -54.25" fill="#33c5ff" fill-opacity="0.8509804" fill-rule="evenodd" stroke="none"/>
    <path d="M120.1 -22.9 Q123.55 -29.7 123.9 -36.15 125.9 -27.35 123.1 -16.75 L123.1 -16.8 Q117.85 2.7 100.15 10.8 L100.15 10.85 Q95.2 13.1 91.15 10.45 109.7 -2.45 120.1 -22.95 L120.1 -22.9 M105.05 32.75 L104.7 31.45 Q115.7 25.3 127.85 21.9 120.25 35.45 105.05 33.15 L105.05 32.75 M-114.55 -39.35 Q-115.05 -11.6 -87.8 4.8 -109.0 -2.45 -115.75 -27.0 -117.7 -34.2 -114.55 -39.35" fill="#33c5ff" fill-opacity="0.5529412" fill-rule="evenodd" stroke="none"/>
  </g>
</svg>
