<?xml version="1.0" encoding="UTF-8" standalone="no"?>
<svg xmlns:ffdec="https://www.free-decompiler.com/flash" xmlns:xlink="http://www.w3.org/1999/xlink" ffdec:objectType="shape" height="515.05px" width="515.05px" xmlns="http://www.w3.org/2000/svg">
  <g transform="matrix(1.0, 0.0, 0.0, 1.0, 257.55, 257.55)">
    <path d="M107.65 -107.7 L152.3 0.0 107.65 107.7 0.05 152.3 -107.8 107.65 -152.35 0.0 -107.7 -107.7 0.0 -152.35 107.65 -107.7" fill="#ffffff" fill-rule="evenodd" stroke="none"/>
    <path d="M107.65 -107.7 L0.0 -152.35 -107.7 -107.7 -152.35 0.0 -107.8 107.65 0.05 152.3 107.65 107.7 152.3 0.0 107.65 -107.7 M132.45 -132.55 L187.4 0.0 132.45 132.5 0.0 187.4 -132.55 132.5 -187.45 0.0 -132.55 -132.55 0.0 -187.45 132.45 -132.55" fill="#ffff00" fill-opacity="0.7529412" fill-rule="evenodd" stroke="none"/>
    <path d="M132.45 -132.55 L0.0 -187.45 -132.55 -132.55 -187.45 0.0 -132.55 132.5 0.0 187.4 132.45 132.5 187.4 0.0 132.45 -132.55 M157.25 -157.3 L222.45 0.0 157.25 157.25 0.0 222.45 -157.3 157.25 -222.55 0.0 -157.3 -157.3 0.0 -222.55 157.25 -157.3" fill="#ffbd00" fill-opacity="0.5019608" fill-rule="evenodd" stroke="none"/>
    <path d="M182.0 -182.1 L257.5 0.0 182.0 182.1 0.0 257.5 -182.1 182.1 -257.55 0.0 -182.1 -182.1 0.0 -257.55 182.0 -182.1 M157.25 -157.3 L0.0 -222.55 -157.3 -157.3 -222.55 0.0 -157.3 157.25 0.0 222.45 157.25 157.25 222.45 0.0 157.25 -157.3" fill="#ff9200" fill-opacity="0.2509804" fill-rule="evenodd" stroke="none"/>
  </g>
</svg>
