<?xml version="1.0" encoding="UTF-8" standalone="no"?>
<svg xmlns:ffdec="https://www.free-decompiler.com/flash" xmlns:xlink="http://www.w3.org/1999/xlink" ffdec:objectType="shape" height="429.25px" width="429.25px" xmlns="http://www.w3.org/2000/svg">
  <g transform="matrix(1.0, 0.0, 0.0, 1.0, 214.65, 214.65)">
    <path d="M89.7 -89.75 L126.9 0.0 89.7 89.75 0.05 126.9 -89.8 89.7 -126.95 0.0 -89.75 -89.75 0.0 -126.95 89.7 -89.75" fill="#ffec00" fill-rule="evenodd" stroke="none"/>
    <path d="M131.05 -131.1 L0.0 -185.45 -131.1 -131.1 -185.45 0.0 -131.1 131.05 0.0 185.35 131.05 131.05 185.35 0.0 131.05 -131.1 M151.7 -151.75 L214.6 0.0 151.7 151.75 0.0 214.6 -151.75 151.75 -214.65 0.0 -151.75 -151.75 0.0 -214.65 151.7 -151.75" fill="#ff6800" fill-opacity="0.2509804" fill-rule="evenodd" stroke="none"/>
    <path d="M131.05 -131.1 L185.35 0.0 131.05 131.05 0.0 185.35 -131.1 131.05 -185.45 0.0 -131.1 -131.1 0.0 -185.45 131.05 -131.1 M110.35 -110.45 L0.0 -156.2 -110.45 -110.45 -156.2 0.0 -110.45 110.4 0.0 156.15 110.35 110.4 156.15 0.0 110.35 -110.45" fill="#ff9200" fill-opacity="0.5019608" fill-rule="evenodd" stroke="none"/>
    <path d="M110.35 -110.45 L156.15 0.0 110.35 110.4 0.0 156.15 -110.45 110.4 -156.2 0.0 -110.45 -110.45 0.0 -156.2 110.35 -110.45 M89.7 -89.75 L0.0 -126.95 -89.75 -89.75 -126.95 0.0 -89.8 89.7 0.05 126.9 89.7 89.75 126.9 0.0 89.7 -89.75" fill="#ffbd00" fill-opacity="0.7529412" fill-rule="evenodd" stroke="none"/>
  </g>
</svg>
