<?xml version="1.0" encoding="UTF-8" standalone="no"?>
<svg xmlns:ffdec="https://www.free-decompiler.com/flash" xmlns:xlink="http://www.w3.org/1999/xlink" ffdec:objectType="shape" height="80.0px" width="80.0px" xmlns="http://www.w3.org/2000/svg">
  <g transform="matrix(1.0, 0.0, 0.0, 1.0, 40.0, 40.0)">
    <path d="M24.7 -24.65 Q16.8 -32.45 7.0 -34.35 L0.35 -35.0 0.0 -35.0 -0.55 -35.0 Q-14.3 -34.9 -24.65 -24.65 -30.9 -18.35 -33.35 -10.75 -35.05 -5.7 -35.0 0.0 -35.0 3.6 -34.35 7.0 -32.45 16.8 -24.65 24.7 -14.1 35.1 0.0 35.0 14.1 35.1 24.7 24.7 35.1 14.1 35.0 0.0 35.05 -5.7 33.4 -10.75 30.9 -18.35 24.7 -24.65 M40.0 -1.35 L40.0 0.0 Q40.0 12.5 33.4 22.25 31.2 25.4 28.3 28.3 16.6 40.0 0.0 40.0 L-1.35 40.0 Q-17.05 39.5 -28.3 28.3 -31.2 25.4 -33.35 22.25 -40.0 12.5 -40.0 0.0 -40.0 -16.6 -28.3 -28.3 -16.6 -40.0 0.0 -40.0 16.6 -40.0 28.3 -28.3 39.5 -17.05 40.0 -1.35" fill="#ff0000" fill-rule="evenodd" stroke="none"/>
  </g>
</svg>
