<?xml version="1.0" encoding="UTF-8" standalone="no"?>
<svg xmlns:ffdec="https://www.free-decompiler.com/flash" xmlns:xlink="http://www.w3.org/1999/xlink" ffdec:objectType="shape" height="119.9px" width="102.0px" xmlns="http://www.w3.org/2000/svg">
  <g transform="matrix(1.0, 0.0, 0.0, 1.0, 51.0, 81.0)">
    <path d="M7.05 -7.1 Q10.0 -4.15 10.0 0.0 10.0 4.15 7.05 7.05 5.65 8.45 4.0 9.2 L4.0 17.0 -4.0 17.0 -4.0 9.2 Q-5.7 8.45 -7.1 7.05 -10.0 4.15 -10.0 0.0 -10.0 -4.15 -7.1 -7.1 -5.7 -8.5 -4.0 -9.2 L-4.0 -17.0 4.0 -17.0 4.0 -9.2 Q5.65 -8.5 7.05 -7.1" fill="#010101" fill-opacity="0.0" fill-rule="evenodd" stroke="none"/>
    <path d="M7.05 -7.1 Q5.65 -8.5 4.0 -9.2 L4.0 -17.0 -4.0 -17.0 -4.0 -9.2 Q-5.7 -8.5 -7.1 -7.1 -10.0 -4.15 -10.0 0.0 -10.0 4.15 -7.1 7.05 -5.7 8.45 -4.0 9.2 L-4.0 17.0 4.0 17.0 4.0 9.2 Q5.65 8.45 7.05 7.05 10.0 4.15 10.0 0.0 10.0 -4.15 7.05 -7.1 M17.0 -17.0 Q24.0 -9.95 24.0 0.0 24.0 9.95 17.0 17.0 9.95 24.0 0.0 24.0 -9.95 24.0 -17.0 17.0 -24.0 9.95 -24.0 0.0 -24.0 -9.95 -17.0 -17.0 -9.95 -24.0 0.0 -24.0 9.95 -24.0 17.0 -17.0" fill="#d945fe" fill-rule="evenodd" stroke="none"/>
    <path d="M21.25 -28.25 L28.3 -35.35 24.75 -38.9 38.9 -38.9 38.9 -24.75 35.35 -28.25 28.3 -21.2 21.25 -28.25 M17.0 -17.0 Q9.95 -24.0 0.0 -24.0 -9.95 -24.0 -17.0 -17.0 -24.0 -9.95 -24.0 0.0 -24.0 9.95 -17.0 17.0 -9.95 24.0 0.0 24.0 9.95 24.0 17.0 17.0 24.0 9.95 24.0 0.0 24.0 -9.95 17.0 -17.0 M21.2 -21.25 Q30.0 -12.45 30.0 0.0 30.0 12.45 21.2 21.2 12.45 30.0 0.0 30.0 -12.45 30.0 -21.25 21.2 -30.0 12.45 -30.0 0.0 -30.0 -12.45 -21.25 -21.25 -12.45 -30.0 0.0 -30.0 12.45 -30.0 21.2 -21.25 M38.9 38.9 L24.75 38.9 28.3 35.35 21.25 28.3 28.3 21.25 35.35 28.3 38.9 24.75 38.9 38.9 M-24.75 -38.9 L-28.25 -35.35 -21.2 -28.25 -28.25 -21.2 -35.35 -28.25 -38.9 -24.75 -38.9 -38.9 -24.75 -38.9 M-38.9 24.75 L-35.35 28.3 -28.25 21.25 -21.2 28.3 -28.25 35.35 -24.75 38.9 -38.9 38.9 -38.9 24.75" fill="#ffffff" fill-rule="evenodd" stroke="none"/>
    <path d="M50.0 -70.0 L50.0 -60.0 Q50.0 -50.0 40.0 -50.0 L10.0 -50.0 0.0 -40.0 -10.0 -50.0 -40.0 -50.0 Q-50.0 -50.0 -50.0 -60.0 L-50.0 -70.0 Q-50.0 -80.0 -40.0 -80.0 L40.0 -80.0 Q50.0 -80.0 50.0 -70.0" fill="#000000" fill-rule="evenodd" stroke="none"/>
    <path d="M50.0 -70.0 Q50.0 -80.0 40.0 -80.0 L-40.0 -80.0 Q-50.0 -80.0 -50.0 -70.0 L-50.0 -60.0 Q-50.0 -50.0 -40.0 -50.0 L-10.0 -50.0 0.0 -40.0 10.0 -50.0 40.0 -50.0 Q50.0 -50.0 50.0 -60.0 L50.0 -70.0 Z" fill="none" stroke="#666666" stroke-linecap="round" stroke-linejoin="round" stroke-width="2.0"/>
  </g>
</svg>
