<?xml version="1.0" encoding="UTF-8" standalone="no"?>
<svg xmlns:ffdec="https://www.free-decompiler.com/flash" xmlns:xlink="http://www.w3.org/1999/xlink" ffdec:objectType="shape" height="65.3px" width="213.4px" xmlns="http://www.w3.org/2000/svg">
  <g transform="matrix(1.0, 0.0, 0.0, 1.0, 12.9, 32.65)">
    <path d="M166.0 -15.0 L196.0 0.0 166.0 15.0 151.0 0.0 166.0 -15.0" fill="#cccccc" fill-rule="evenodd" stroke="none"/>
    <path d="M166.0 15.0 L31.0 15.0 31.0 0.0 151.0 0.0 166.0 15.0" fill="#999999" fill-rule="evenodd" stroke="none"/>
    <path d="M10.2 15.0 L-5.1 15.0 Q-15.35 0.0 -5.1 -15.0 L16.0 -15.0 16.0 -30.0 31.0 -30.0 31.0 -15.0 31.0 0.0 31.0 15.0 31.0 30.0 16.0 30.0 16.0 15.0 10.25 15.0 10.2 15.0 M16.0 -15.0 L16.0 15.0 16.0 -15.0" fill="#666666" fill-rule="evenodd" stroke="none"/>
    <path d="M31.0 -15.0 L166.0 -15.0 151.0 0.0 31.0 0.0 31.0 -15.0" fill="#ffffff" fill-rule="evenodd" stroke="none"/>
    <path d="M16.0 15.0 L16.0 -15.0 M31.0 0.0 L31.0 15.0" fill="none" stroke="#393d40" stroke-linecap="square" stroke-linejoin="miter-clip" stroke-miterlimit="10.0" stroke-width="4.0"/>
    <path d="M151.0 0.0 L166.0 15.0" fill="none" stroke="#393d40" stroke-linecap="square" stroke-linejoin="miter-clip" stroke-miterlimit="10.0" stroke-width="3.0"/>
    <path d="M10.2 15.0 L-5.1 15.0 Q-15.35 0.0 -5.1 -15.0 L16.0 -15.0 16.0 -30.0 31.0 -30.0 31.0 -15.0" fill="none" stroke="#393d40" stroke-linecap="square" stroke-linejoin="miter-clip" stroke-miterlimit="10.0" stroke-width="4.0"/>
    <path d="M31.0 -15.0 L166.0 -15.0" fill="none" stroke="#393d40" stroke-linecap="round" stroke-linejoin="miter-clip" stroke-miterlimit="10.0" stroke-width="4.0"/>
    <path d="M166.0 -15.0 L196.0 0.0 166.0 15.0 31.0 15.0 31.0 30.0 16.0 30.0 16.0 15.0 10.25 15.0 M31.0 -15.0 L31.0 0.0" fill="none" stroke="#393d40" stroke-linecap="round" stroke-linejoin="miter-clip" stroke-miterlimit="10.0" stroke-width="4.0"/>
    <path d="M31.0 0.0 L151.0 0.0 166.0 -15.0" fill="none" stroke="#393d40" stroke-linecap="square" stroke-linejoin="miter-clip" stroke-miterlimit="10.0" stroke-width="3.0"/>
  </g>
</svg>
