<?xml version="1.0" encoding="UTF-8" standalone="no"?>
<svg xmlns:ffdec="https://www.free-decompiler.com/flash" xmlns:xlink="http://www.w3.org/1999/xlink" ffdec:objectType="shape" height="94.35px" width="72.0px" xmlns="http://www.w3.org/2000/svg">
  <g transform="matrix(1.0, 0.0, 0.0, 1.0, 47.55, 63.4)">
    <path d="M-24.0 -42.5 L-23.4 -60.1 6.45 -59.95 13.8 -53.7 1.55 -36.0 -14.85 -40.1 -23.95 -42.5 -24.0 -42.5 M11.7 -32.95 L15.0 -18.05 0.9 -18.05 -2.3 14.5 0.8 16.95 0.85 17.05 5.9 17.05 5.9 22.15 -5.85 27.65 -13.9 25.5 -18.4 10.05 -20.2 16.7 -26.4 15.05 -28.75 -1.35 -31.1 7.4 -37.7 5.65 -32.5 -13.65 -12.5 -39.45 10.9 -33.2 11.7 -32.95 M-2.8 19.1 L-2.3 14.5 -2.8 19.1" fill="#000000" fill-rule="evenodd" stroke="none"/>
    <path d="M-24.0 -42.5 L-23.95 -42.5 -14.85 -40.1 -12.5 -39.45 -32.5 -13.65 -37.7 5.65 -44.25 3.9 -38.0 -19.55 -24.0 -42.5 M1.55 -36.0 L13.8 -53.7 21.15 -47.4 11.7 -32.95 10.9 -33.2 1.55 -36.0 M-13.9 25.5 L-21.95 23.3 -20.2 16.7 -18.4 10.05 -13.9 25.5 M-26.4 15.05 L-32.7 13.35 -31.1 7.4 -28.75 -1.35 -26.4 15.05" fill="#1d1d1d" fill-rule="evenodd" stroke="none"/>
    <path d="M13.8 -53.7 L6.45 -59.95 -23.4 -60.1 -24.0 -42.5 -23.95 -42.5 -14.85 -40.1 -12.5 -39.45 10.9 -33.2 M13.8 -53.7 L21.15 -47.4 11.7 -32.95 15.0 -18.05 0.9 -18.05 -2.3 14.5 -2.8 19.1 M5.9 17.05 L5.9 22.15 -5.85 27.65 -13.9 25.5 -21.95 23.3 -20.2 16.7 -26.4 15.05 -32.7 13.35 -31.1 7.4 -37.7 5.65 -44.25 3.9 -38.0 -19.55 -24.0 -42.5 M-20.2 16.7 L-18.4 10.05 M-31.1 7.4 L-28.75 -1.35" fill="none" stroke="#666666" stroke-linecap="square" stroke-linejoin="miter-clip" stroke-miterlimit="3.0" stroke-width="5.0"/>
  </g>
</svg>
