<?xml version="1.0" encoding="UTF-8" standalone="no"?>
<svg xmlns:ffdec="https://www.free-decompiler.com/flash" xmlns:xlink="http://www.w3.org/1999/xlink" ffdec:objectType="shape" height="45.9px" width="41.9px" xmlns="http://www.w3.org/2000/svg">
  <g transform="matrix(1.0, 0.0, 0.0, 1.0, 21.05, 0.0)">
    <path d="M16.9 0.0 L16.75 0.4 Q15.95 2.0 13.95 2.5 13.95 4.5 14.4 6.4 L14.95 6.5 15.1 7.45 Q16.6 12.35 11.95 15.5 12.25 17.7 14.9 18.0 L14.95 18.5 13.95 18.5 12.95 18.5 Q9.25 18.7 9.95 14.5 15.4 8.8 11.15 0.4 L11.0 0.0 16.9 0.0" fill="#172246" fill-opacity="0.32941177" fill-rule="evenodd" stroke="none"/>
    <path d="M16.9 0.0 L20.85 0.0 20.7 0.15 Q17.7 2.25 14.95 4.5 L14.95 5.5 14.95 6.5 14.4 6.4 Q13.95 4.5 13.95 2.5 15.95 2.0 16.75 0.4 L16.9 0.0" fill="#0d152e" fill-opacity="0.21960784" fill-rule="evenodd" stroke="none"/>
    <path d="M9.45 0.0 L11.0 0.0 11.15 0.4 Q15.4 8.8 9.95 14.5 L9.45 14.5 Q9.6 16.65 7.95 16.5 L7.95 17.5 7.95 18.5 7.4 18.35 Q6.95 17.0 6.95 15.5 12.9 8.3 9.45 0.0" fill="#6273ac" fill-opacity="0.7647059" fill-rule="evenodd" stroke="none"/>
    <path d="M7.95 18.5 L7.95 17.5 7.95 16.5 Q9.6 16.65 9.45 14.5 L9.95 14.5 Q9.25 18.7 12.95 18.5 L13.95 18.5 Q15.4 20.55 14.5 24.4 L13.95 24.5 13.9 23.5 Q13.45 18.5 7.95 18.5" fill="#485a94" fill-opacity="0.67058825" fill-rule="evenodd" stroke="none"/>
    <path d="M5.95 22.5 L5.7 21.7 Q2.3 17.85 -1.05 18.5 L-2.05 18.5 -2.05 17.5 Q-1.9 13.35 -3.05 10.5 2.95 15.0 6.75 21.6 L6.95 22.5 5.95 22.5" fill="#8292c7" fill-opacity="0.8666667" fill-rule="evenodd" stroke="none"/>
    <path d="M14.95 18.5 L15.55 18.7 Q18.3 23.9 13.95 26.5 L12.95 26.5 12.95 25.5 13.7 25.25 13.95 24.5 14.5 24.4 Q15.4 20.55 13.95 18.5 L14.95 18.5" fill="#19254b" fill-opacity="0.3529412" fill-rule="evenodd" stroke="none"/>
    <path d="M7.95 18.5 Q13.45 18.5 13.9 23.5 L13.95 24.5 13.7 25.25 12.95 25.5 11.95 25.6 Q9.25 26.2 8.95 24.5 L9.85 24.3 Q15.05 21.95 7.95 18.5" fill="#8898cb" fill-opacity="0.8784314" fill-rule="evenodd" stroke="none"/>
    <path d="M5.95 23.5 L5.95 22.5 6.95 22.5 Q7.95 23.0 8.7 23.75 L8.95 24.5 Q9.25 26.2 11.95 25.6 L12.95 25.5 12.95 26.5 11.95 26.55 Q6.95 27.0 5.95 23.5" fill="#5b6da6" fill-opacity="0.74509805" fill-rule="evenodd" stroke="none"/>
    <path d="M13.95 26.5 L13.7 27.25 12.95 27.5 Q17.05 29.4 15.45 36.4 L14.95 36.5 14.75 35.6 Q11.5 28.85 1.95 29.5 1.45 29.5 1.1 29.75 -0.7 30.85 -4.05 30.5 -4.05 32.9 -3.6 35.2 -10.2 31.4 -10.05 42.5 -10.05 43.0 -10.3 43.2 -17.8 49.1 -21.05 28.5 -12.55 26.3 -12.1 18.5 L-12.05 17.5 -11.05 17.5 Q-10.55 17.5 -10.3 17.75 -10.05 18.0 -10.05 18.5 L-10.05 19.5 Q-9.9 23.15 -13.05 23.5 -14.8 44.8 -4.25 27.35 L-4.05 26.5 Q-2.5 25.05 -1.3 23.35 L-1.05 22.5 Q3.2 20.2 5.3 23.25 5.45 23.5 5.95 23.5 6.95 27.0 11.95 26.55 L12.95 26.5 13.95 26.5 M-1.05 36.5 L-1.05 37.0 -1.95 36.3 -1.05 36.5 M-2.95 35.6 L-3.1 35.5 -3.05 35.5 -2.95 35.6 M-1.05 25.5 L-1.0 26.0 Q13.7 28.1 -1.05 25.5 M-18.8 29.25 Q-14.0 34.05 -19.05 28.5 L-18.8 29.25" fill="#182348" fill-opacity="0.3372549" fill-rule="evenodd" stroke="none"/>
    <path d="M14.95 36.5 Q14.95 37.0 14.75 37.1 10.85 38.9 9.95 43.5 L8.95 43.55 Q4.5 43.95 5.95 38.5 L6.5 38.35 Q9.55 30.1 3.95 35.5 L2.95 35.45 Q0.25 35.3 -1.05 36.5 L-1.95 36.3 -2.95 35.6 -3.05 35.5 Q0.7 34.25 1.8 30.45 L1.95 29.5 Q11.5 28.85 14.75 35.6 L14.95 36.5 M8.95 34.5 L8.95 35.0 Q18.15 33.8 8.95 34.5" fill="#2d3c6e" fill-opacity="0.5137255" fill-rule="evenodd" stroke="none"/>
    <path d="M8.95 34.5 Q18.15 33.8 8.95 35.0 L8.95 34.5" fill="#5e70ab" fill-opacity="0.7647059" fill-rule="evenodd" stroke="none"/>
    <path d="M9.95 43.5 L9.7 44.15 Q4.75 47.5 2.95 44.5 6.2 43.75 5.45 38.5 L5.95 38.5 Q4.5 43.95 8.95 43.55 L9.95 43.5" fill="#141f40" fill-opacity="0.30588236" fill-rule="evenodd" stroke="none"/>
    <path d="M-12.85 0.0 L-11.95 0.0 Q-11.4 5.4 -13.05 8.5 L-14.05 8.5 -14.05 12.5 -14.05 13.5 -14.55 13.4 Q-15.05 10.5 -15.05 7.5 -12.1 5.7 -12.85 0.0" fill="#6072ac" fill-opacity="0.76862746" fill-rule="evenodd" stroke="none"/>
    <path d="M-15.4 0.0 L-12.85 0.0 Q-12.1 5.7 -15.05 7.5 L-14.85 6.6 Q-12.3 1.45 -15.4 0.0" fill="#2c3c6f" fill-opacity="0.5176471" fill-rule="evenodd" stroke="none"/>
    <path d="M-14.05 13.5 L-14.05 12.5 -14.05 8.5 -13.05 8.5 Q-13.55 13.5 -10.25 14.9 L-10.05 15.5 -11.05 15.5 -12.05 15.5 -12.8 15.25 -14.05 13.5" fill="#6f81ba" fill-opacity="0.81960785" fill-rule="evenodd" stroke="none"/>
    <path d="M-12.05 17.5 L-12.95 17.3 Q-17.35 14.8 -17.05 7.5 L-16.05 7.5 -15.05 7.5 Q-15.05 10.5 -14.55 13.4 L-14.05 13.5 -12.8 15.25 -12.05 15.5 -11.25 16.6 -11.05 17.5 -12.05 17.5" fill="#1d2a53" fill-opacity="0.39215687" fill-rule="evenodd" stroke="none"/>
    <path d="M-1.05 18.5 L-1.05 21.5 -1.05 22.5 -1.3 23.35 Q-2.5 25.05 -4.05 26.5 -4.55 26.5 -4.75 26.75 -7.05 29.25 -11.05 24.5 -8.6 22.95 -9.55 18.6 L-10.05 18.5 Q-10.05 18.0 -10.3 17.75 -10.55 17.5 -11.05 17.5 L-11.25 16.6 -12.05 15.5 -11.05 15.5 -10.05 15.5 Q-7.1 30.55 -2.25 19.4 L-2.05 18.5 -1.05 18.5" fill="#6275af" fill-opacity="0.78039217" fill-rule="evenodd" stroke="none"/>
    <path d="M-4.05 26.5 L-4.25 27.35 Q-14.8 44.8 -13.05 23.5 -9.9 23.15 -10.05 19.5 L-10.05 18.5 -9.55 18.6 Q-8.6 22.95 -11.05 24.5 -7.05 29.25 -4.75 26.75 -4.55 26.5 -4.05 26.5" fill="#41528b" fill-opacity="0.6392157" fill-rule="evenodd" stroke="none"/>
    <path d="M5.95 23.5 Q5.45 23.5 5.3 23.25 3.2 20.2 -1.05 22.5 L-1.05 21.5 -1.05 18.5 Q2.3 17.85 5.7 21.7 L5.95 22.5 5.95 23.5" fill="#3f518a" fill-opacity="0.6313726" fill-rule="evenodd" stroke="none"/>
    <path d="M-16.05 7.5 L-16.1 6.5 Q-16.55 2.1 -19.3 0.0 L-15.4 0.0 Q-12.3 1.45 -14.85 6.6 L-15.05 7.5 -16.05 7.5" fill="#101936" fill-opacity="0.25882354" fill-rule="evenodd" stroke="none"/>
    <path d="M-18.8 29.25 L-19.05 28.5 Q-14.0 34.05 -18.8 29.25" fill="#4f619c" fill-opacity="0.7058824" fill-rule="evenodd" stroke="none"/>
    <path d="M-1.05 25.5 Q13.7 28.1 -1.0 26.0 L-1.05 25.5" fill="#03050d" fill-opacity="0.0627451" fill-rule="evenodd" stroke="none"/>
    <path d="M-3.1 35.5 L-3.55 35.4 -3.6 35.2 Q-4.05 32.9 -4.05 30.5 -0.7 30.85 1.1 29.75 1.45 29.5 1.95 29.5 L1.8 30.45 Q0.7 34.25 -3.05 35.5 L-3.1 35.5" fill="#465891" fill-opacity="0.65882355" fill-rule="evenodd" stroke="none"/>
    <path d="M5.95 38.5 L5.7 37.65 3.95 35.5 Q9.55 30.1 6.5 38.35 L5.95 38.5" fill="#131d3e" fill-opacity="0.29411766" fill-rule="evenodd" stroke="none"/>
    <path d="M-11.95 0.0 L9.45 0.0 Q12.9 8.3 6.95 15.5 6.95 17.0 7.4 18.35 L7.95 18.5 Q15.05 21.95 9.85 24.3 L8.95 24.5 8.7 23.75 Q7.95 23.0 6.95 22.5 L6.75 21.6 Q2.95 15.0 -3.05 10.5 -1.9 13.35 -2.05 17.5 L-2.05 18.5 -2.25 19.4 Q-7.1 30.55 -10.05 15.5 L-10.25 14.9 Q-13.55 13.5 -13.05 8.5 -11.4 5.4 -11.95 0.0" fill="#f5f7fc" fill-opacity="0.99607843" fill-rule="evenodd" stroke="none"/>
  </g>
</svg>
