<?xml version="1.0" encoding="UTF-8" standalone="no"?>
<svg xmlns:ffdec="https://www.free-decompiler.com/flash" xmlns:xlink="http://www.w3.org/1999/xlink" ffdec:objectType="shape" height="40.95px" width="41.6px" xmlns="http://www.w3.org/2000/svg">
  <g transform="matrix(1.0, 0.0, 0.0, 1.0, 20.65, 0.0)">
    <path d="M13.3 2.2 Q14.05 4.75 13.45 8.4 L12.95 8.5 13.05 7.5 Q13.65 4.3 11.95 3.5 L11.7 2.65 Q11.05 1.65 10.95 0.0 L12.35 0.0 13.2 1.75 12.95 1.85 12.95 2.35 13.3 2.2" fill="#29396b" fill-opacity="0.49803922" fill-rule="evenodd" stroke="none"/>
    <path d="M18.0 0.0 L20.95 0.0 20.85 0.5 Q18.05 13.4 14.1 22.95 13.65 21.1 13.95 18.5 L13.8 17.55 11.95 12.5 Q13.65 12.2 13.05 9.5 L12.95 8.5 13.45 8.4 Q14.05 4.75 13.3 2.2 L18.0 0.0 M10.45 30.7 L9.95 31.5 9.95 33.5 9.95 34.5 9.4 34.4 Q8.95 32.5 8.95 30.5 L10.45 30.7 M12.35 0.0 L17.9 0.0 Q17.35 0.1 13.2 1.75 L12.35 0.0" fill="#101834" fill-opacity="0.2509804" fill-rule="evenodd" stroke="none"/>
    <path d="M9.45 0.0 L10.95 0.0 Q11.05 1.65 11.7 2.65 L11.95 3.5 12.0 4.5 Q12.65 8.7 10.95 10.5 L10.95 11.5 10.95 12.5 9.95 12.5 10.05 11.5 Q11.15 5.8 9.45 0.0" fill="#7687bf" fill-opacity="0.8392157" fill-rule="evenodd" stroke="none"/>
    <path d="M12.95 8.5 L13.05 9.5 Q13.65 12.2 11.95 12.5 L13.8 17.55 13.95 18.5 13.3 18.25 Q11.6 15.85 10.95 12.5 L10.95 11.5 10.95 10.5 Q12.65 8.7 12.0 4.5 L11.95 3.5 Q13.65 4.3 13.05 7.5 L12.95 8.5" fill="#334379" fill-opacity="0.5568628" fill-rule="evenodd" stroke="none"/>
    <path d="M-10.95 0.0 L9.45 0.0 Q11.15 5.8 10.05 11.5 L9.95 12.5 Q9.45 12.5 9.1 12.75 5.25 15.25 -2.05 12.5 L-2.05 13.5 -2.05 14.5 -2.85 14.75 Q-7.45 18.7 -13.05 17.5 L-13.25 16.6 Q-14.6 14.05 -14.05 9.5 L-13.25 8.4 -13.05 7.5 -13.05 6.5 Q-10.75 4.9 -11.0 0.4 L-10.95 0.5 -11.05 0.0 -10.95 0.05 -10.95 0.0" fill="#f9fafd" fill-opacity="0.99607843" fill-rule="evenodd" stroke="none"/>
    <path d="M13.95 18.5 Q13.65 21.1 14.1 22.95 14.35 23.9 14.75 24.6 L14.95 25.5 13.95 25.5 13.0 25.5 12.95 25.5 12.9 25.0 Q7.15 24.2 4.95 27.5 4.3 30.15 6.95 29.6 L7.95 29.5 7.95 30.5 6.95 30.5 2.95 30.5 Q2.95 30.0 3.1 29.55 5.4 21.45 -8.05 22.5 L-8.05 23.5 -8.25 24.4 Q-10.65 29.9 -18.05 30.5 -18.05 30.0 -18.3 29.75 -19.75 28.2 -19.05 24.5 L-18.05 24.5 Q-8.7 23.85 -14.8 17.25 L-15.05 16.5 -13.95 17.3 -13.05 17.5 Q-6.0 25.45 -2.2 15.45 L-2.05 14.5 Q9.6 21.2 9.95 13.5 L9.95 12.5 10.95 12.5 Q11.6 15.85 13.3 18.25 L13.95 18.5 M-2.05 16.5 L-2.0 17.0 Q7.5 18.2 -2.05 16.5 M-18.05 25.5 L-17.8 26.15 Q-11.55 30.7 -18.05 25.5" fill="#4c5e99" fill-opacity="0.69411767" fill-rule="evenodd" stroke="none"/>
    <path d="M9.95 12.5 L9.95 13.5 Q9.6 21.2 -2.05 14.5 L-2.05 13.5 -2.05 12.5 Q5.25 15.25 9.1 12.75 9.45 12.5 9.95 12.5" fill="#90a0d2" fill-opacity="0.90588236" fill-rule="evenodd" stroke="none"/>
    <path d="M14.95 25.5 L15.55 25.7 Q18.45 31.4 10.45 30.7 L8.95 30.5 7.95 30.5 7.95 29.5 10.95 29.75 Q16.15 29.8 15.1 26.45 L14.95 25.5" fill="#253463" fill-opacity="0.4627451" fill-rule="evenodd" stroke="none"/>
    <path d="M7.95 29.5 L7.95 28.5 Q10.5 28.95 11.75 28.15 12.6 27.55 12.85 26.45 L12.95 25.6 12.95 25.5 13.0 25.5 13.95 25.5 14.95 25.5 15.1 26.45 Q16.15 29.8 10.95 29.75 L7.95 29.5" fill="#5a6ca8" fill-opacity="0.7529412" fill-rule="evenodd" stroke="none"/>
    <path d="M12.95 25.5 L12.95 25.6 12.85 26.45 Q12.6 27.55 11.75 28.15 10.5 28.95 7.95 28.5 L7.95 29.5 6.95 29.6 Q4.3 30.15 4.95 27.5 7.15 24.2 12.9 25.0 L12.95 25.5" fill="#a4b1dc" fill-opacity="0.92941177" fill-rule="evenodd" stroke="none"/>
    <path d="M9.95 34.5 L10.0 35.5 10.25 37.6 6.85 36.75 4.95 32.5 4.95 32.0 Q2.85 32.15 2.95 30.5 L6.95 30.5 7.95 30.5 8.95 30.5 Q8.95 32.5 9.4 34.4 L9.95 34.5 M10.25 37.7 Q10.7 44.45 7.1 37.2 L10.25 37.7" fill="#1f2c56" fill-opacity="0.40392157" fill-rule="evenodd" stroke="none"/>
    <path d="M10.25 37.6 L10.25 37.7 7.1 37.2 6.05 37.0 5.95 36.5 6.85 36.75 10.25 37.6" fill="#3e508a" fill-opacity="0.6313726" fill-rule="evenodd" stroke="none"/>
    <path d="M18.0 0.0 L13.3 2.2 12.95 2.35 12.95 1.85 13.2 1.75 Q17.35 0.1 17.9 0.0 L18.0 0.0 M-18.05 24.5 L-18.05 23.5 Q-13.55 22.3 -15.85 17.4 L-16.05 16.5 -15.05 16.5 -14.8 17.25 Q-8.7 23.85 -18.05 24.5" fill="#1d2951" fill-opacity="0.38039216" fill-rule="evenodd" stroke="none"/>
    <path d="M-14.3 0.0 L-11.05 0.0 -10.95 0.0 -10.95 0.05 -11.05 0.0 -11.0 0.4 Q-10.75 4.9 -13.05 6.5 L-13.05 7.5 -13.95 7.7 -15.05 8.5 -15.05 15.5 -15.05 16.5 -16.05 16.5 -16.05 15.5 -16.05 8.5 -16.05 7.5 Q-11.75 5.5 -14.3 0.0" fill="#53649d" fill-opacity="0.7058824" fill-rule="evenodd" stroke="none"/>
    <path d="M-13.05 17.5 L-13.95 17.3 -15.05 16.5 -15.05 15.5 -15.05 8.5 -13.95 7.7 -13.05 7.5 -13.25 8.4 -14.05 9.5 Q-14.6 14.05 -13.25 16.6 L-13.05 17.5" fill="#91a1d2" fill-opacity="0.9019608" fill-rule="evenodd" stroke="none"/>
    <path d="M-2.05 14.5 L-2.2 15.45 Q-6.0 25.45 -13.05 17.5 -7.45 18.7 -2.85 14.75 L-2.05 14.5" fill="#8898cd" fill-opacity="0.8862745" fill-rule="evenodd" stroke="none"/>
    <path d="M-2.05 16.5 Q7.5 18.2 -2.0 17.0 L-2.05 16.5" fill="#2c3c6f" fill-opacity="0.5176471" fill-rule="evenodd" stroke="none"/>
    <path d="M-17.05 8.5 L-17.15 7.55 Q-18.25 3.15 -20.65 0.0 L-14.3 0.0 Q-11.75 5.5 -16.05 7.5 L-16.05 8.5 -17.05 8.5" fill="#0e1630" fill-opacity="0.23137255" fill-rule="evenodd" stroke="none"/>
    <path d="M-16.05 16.5 Q-16.55 16.5 -16.7 16.25 -18.6 13.55 -18.05 8.5 L-17.05 8.5 -16.05 8.5 -16.05 15.5 -16.05 16.5" fill="#1a254a" fill-opacity="0.34901962" fill-rule="evenodd" stroke="none"/>
    <path d="M-18.05 25.5 Q-11.55 30.7 -17.8 26.15 L-18.05 25.5" fill="#8f9dcc" fill-opacity="0.8745098" fill-rule="evenodd" stroke="none"/>
    <path d="M4.95 32.5 L4.05 32.7 Q-5.85 38.0 -18.05 30.5 -10.65 29.9 -8.25 24.4 L-8.05 23.5 Q0.35 24.4 2.4 30.35 L2.95 30.5 Q2.85 32.15 4.95 32.0 L4.95 32.5 M-7.65 32.9 Q-3.7 33.65 -6.85 32.85 L-7.4 32.7 -12.05 31.5 -11.95 32.0 -9.2 32.6 -11.05 32.5 -11.05 33.0 -7.65 32.9" fill="#121b3a" fill-opacity="0.27450982" fill-rule="evenodd" stroke="none"/>
    <path d="M2.95 30.5 L2.4 30.35 Q0.35 24.4 -8.05 23.5 L-8.05 22.5 Q5.4 21.45 3.1 29.55 2.95 30.0 2.95 30.5" fill="#273666" fill-opacity="0.47843137" fill-rule="evenodd" stroke="none"/>
    <path d="M-6.85 32.85 Q-3.7 33.65 -7.65 32.9 L-6.85 32.85 M-9.2 32.6 L-11.95 32.0 -12.05 31.5 -7.4 32.7 -9.2 32.6" fill="#465791" fill-opacity="0.65882355" fill-rule="evenodd" stroke="none"/>
    <path d="M-7.65 32.9 L-11.05 33.0 -11.05 32.5 -9.2 32.6 -7.4 32.7 -6.85 32.85 -7.65 32.9" fill="#8091c7" fill-opacity="0.87058824" fill-rule="evenodd" stroke="none"/>
    <path d="M-11.0 0.4 L-11.05 0.0 -10.95 0.5 -11.0 0.4" fill="#25325f" fill-opacity="0.4392157" fill-rule="evenodd" stroke="none"/>
  </g>
</svg>
