<?xml version="1.0" encoding="UTF-8" standalone="no"?>
<svg xmlns:ffdec="https://www.free-decompiler.com/flash" xmlns:xlink="http://www.w3.org/1999/xlink" ffdec:objectType="shape" height="52.7px" width="41.95px" xmlns="http://www.w3.org/2000/svg">
  <g transform="matrix(1.0, 0.0, 0.0, 1.0, 22.05, 0.05)">
    <path d="M13.9 0.0 L19.9 0.0 19.7 0.4 Q18.45 2.45 16.85 4.1 16.25 2.75 12.95 2.95 L12.95 4.2 Q12.45 4.2 12.3 3.9 L11.95 3.25 11.95 3.15 13.7 0.45 13.9 0.0 M12.95 8.35 L12.95 9.45 12.45 9.35 12.3 8.2 12.95 8.35" fill="#0e1631" fill-opacity="0.23529412" fill-rule="evenodd" stroke="none"/>
    <path d="M13.9 0.0 L13.7 0.45 11.95 3.15 11.95 3.25 10.95 1.8 10.95 0.0 13.9 0.0 M12.95 9.45 L13.05 10.65 Q13.6 13.4 11.95 13.25 L11.95 15.75 11.95 17.05 10.95 17.05 10.95 15.75 10.95 7.8 12.3 8.2 12.45 9.35 12.95 9.45" fill="#182349" fill-opacity="0.34509805" fill-rule="evenodd" stroke="none"/>
    <path d="M9.95 0.0 L10.95 0.0 10.95 1.8 9.95 0.75 9.95 0.0 M9.95 7.35 L10.95 7.8 10.95 15.75 10.95 17.05 9.95 17.05 9.95 15.75 9.95 14.5 9.95 13.25 9.95 7.35" fill="#384981" fill-opacity="0.59607846" fill-rule="evenodd" stroke="none"/>
    <path d="M8.35 0.0 L8.95 0.0 8.95 0.15 8.35 0.0 M8.2 6.15 L8.95 6.75 8.95 13.25 8.95 14.5 Q8.25 18.55 9.7 19.95 L9.95 20.8 8.95 20.95 Q6.3 21.6 6.95 18.3 L6.95 17.05 6.95 14.5 Q8.0 10.9 8.2 6.15" fill="#99a8d6" fill-opacity="0.9137255" fill-rule="evenodd" stroke="none"/>
    <path d="M8.95 0.0 L9.95 0.0 9.95 0.75 Q9.45 0.35 8.95 0.15 L8.95 0.0 M8.95 6.75 L9.95 7.35 9.95 13.25 9.95 14.5 8.95 14.5 8.95 13.25 8.95 6.75" fill="#6679b5" fill-opacity="0.8039216" fill-rule="evenodd" stroke="none"/>
    <path d="M9.95 20.8 L9.7 19.95 Q8.25 18.55 8.95 14.5 L9.95 14.5 9.95 15.75 9.95 17.05 Q19.2 26.3 10.7 36.9 L9.95 37.2 9.45 37.2 Q10.8 28.3 0.95 34.7 L0.95 33.4 0.95 30.9 Q2.65 29.9 2.05 25.85 L1.95 24.6 3.05 25.6 3.95 25.85 Q11.0 35.3 13.45 23.35 L12.95 23.35 Q12.95 22.7 12.75 22.55 11.95 22.05 10.95 22.05 L10.7 21.1 9.95 20.8" fill="#475993" fill-opacity="0.67058825" fill-rule="evenodd" stroke="none"/>
    <path d="M11.95 17.05 Q22.5 41.75 13.9 45.85 L12.95 46.05 12.45 46.05 11.95 46.15 Q9.25 46.9 8.95 44.75 L10.65 44.05 Q16.55 41.4 10.95 41.05 L9.95 41.0 Q9.95 40.35 10.15 40.25 11.6 39.35 9.95 37.2 L10.7 36.9 Q19.2 26.3 9.95 17.05 L10.95 17.05 11.95 17.05" fill="#1b264d" fill-opacity="0.3647059" fill-rule="evenodd" stroke="none"/>
    <path d="M6.95 18.3 Q6.3 21.6 8.95 20.95 L9.95 20.8 10.7 21.1 10.95 22.05 9.95 22.05 4.95 22.05 4.95 24.6 4.95 25.85 3.95 25.85 3.85 24.6 Q3.1 19.35 -3.05 20.8 L-3.05 19.55 Q3.25 19.35 6.0 18.4 L6.95 18.3" fill="#b6c2e6" fill-opacity="0.9607843" fill-rule="evenodd" stroke="none"/>
    <path d="M4.95 25.85 L4.95 24.6 4.95 22.05 9.95 22.05 10.95 22.05 Q11.95 22.05 12.75 22.55 12.95 22.7 12.95 23.35 L12.75 24.55 Q10.6 31.25 4.95 25.85" fill="#f2f4fa" fill-opacity="0.99215686" fill-rule="evenodd" stroke="none"/>
    <path d="M3.95 25.85 L4.95 25.85 Q10.6 31.25 12.75 24.55 L12.95 23.35 13.45 23.35 Q11.0 35.3 3.95 25.85" fill="#8c9ccf" fill-opacity="0.89411765" fill-rule="evenodd" stroke="none"/>
    <path d="M12.95 46.05 L12.95 46.65 12.45 46.05 12.95 46.05 M8.95 42.3 Q5.05 38.45 -0.05 34.7 L0.95 34.7 Q10.8 28.3 9.45 37.2 L9.95 37.2 Q11.6 39.35 10.15 40.25 9.95 40.35 9.95 41.0 L9.7 41.95 8.95 42.25 8.95 42.3" fill="#192449" fill-opacity="0.34509805" fill-rule="evenodd" stroke="none"/>
    <path d="M8.95 44.75 L8.95 43.5 8.95 42.3 8.95 42.25 9.7 41.95 9.95 41.0 10.95 41.05 Q16.55 41.4 10.65 44.05 L8.95 44.75" fill="#3c4e87" fill-opacity="0.61960787" fill-rule="evenodd" stroke="none"/>
    <path d="M11.95 3.25 L12.3 3.9 Q12.45 4.2 12.95 4.2 L12.7 5.15 Q12.45 5.4 12.05 5.45 L11.95 5.45 12.05 6.0 Q12.3 7.0 12.95 7.5 13.35 7.8 13.95 7.9 L14.95 7.95 14.95 8.6 12.95 8.35 12.3 8.2 10.95 7.8 9.95 7.35 8.95 6.75 8.2 6.15 Q6.15 4.45 4.95 1.65 6.3 0.15 7.65 0.0 L8.35 0.0 8.95 0.15 Q9.45 0.35 9.95 0.75 L10.95 1.8 11.95 3.25" fill="#162042" fill-opacity="0.30980393" fill-rule="evenodd" stroke="none"/>
    <path d="M12.95 4.2 L12.95 2.95 Q16.25 2.75 16.85 4.1 17.35 5.25 15.65 7.65 15.45 7.95 14.95 7.95 L13.95 7.9 Q13.35 7.8 12.95 7.5 12.3 7.0 12.05 6.0 L11.95 5.45 12.05 5.45 Q12.45 5.4 12.7 5.15 L12.95 4.2" fill="#25335f" fill-opacity="0.44705883" fill-rule="evenodd" stroke="none"/>
    <path d="M-11.95 0.0 L-10.95 0.0 Q-10.4 6.8 -12.05 10.7 L-12.05 12.0 -13.05 12.0 -13.05 10.7 -13.05 9.45 Q-11.4 6.15 -11.95 0.0" fill="#8f9ed1" fill-opacity="0.90588236" fill-rule="evenodd" stroke="none"/>
    <path d="M-14.75 0.0 L-11.95 0.0 Q-11.4 6.15 -13.05 9.45 L-13.05 10.7 -14.05 10.7 -14.0 9.45 Q-13.35 3.4 -14.75 0.0" fill="#465892" fill-opacity="0.6666667" fill-rule="evenodd" stroke="none"/>
    <path d="M-13.05 12.0 L-12.05 12.0 Q-12.05 19.55 -10.25 24.7 L-10.05 25.85 Q-10.55 25.85 -10.6 26.05 -13.05 33.9 -15.05 25.85 -10.4 23.2 -12.9 13.2 L-13.05 12.0" fill="#c4cdea" fill-opacity="0.9647059" fill-rule="evenodd" stroke="none"/>
    <path d="M-13.05 10.7 L-13.05 12.0 -12.9 13.2 Q-10.4 23.2 -15.05 25.85 L-14.9 24.65 Q-13.65 19.65 -15.05 12.0 L-15.05 10.7 -14.05 10.7 -13.05 10.7" fill="#5567a3" fill-opacity="0.73333335" fill-rule="evenodd" stroke="none"/>
    <path d="M-15.05 25.85 Q-13.05 33.9 -10.6 26.05 -10.55 25.85 -10.05 25.85 -7.45 15.45 -3.8 20.5 -3.55 20.8 -3.05 20.8 -3.05 21.45 -3.3 21.9 L-5.05 24.6 -5.05 25.85 Q-5.55 25.85 -5.8 26.15 -9.6 30.8 -15.05 33.4 L-15.05 34.7 -15.05 35.95 -16.05 35.95 Q-19.15 36.05 -18.05 30.9 -15.5 30.3 -15.55 25.85 L-15.05 25.85" fill="#9aa9d7" fill-opacity="0.91764706" fill-rule="evenodd" stroke="none"/>
    <path d="M-4.05 25.85 L-4.0 27.1 Q-2.7 42.55 -13.05 33.4 L-13.05 34.7 Q-13.55 34.65 -13.95 34.95 L-15.05 35.95 -15.05 34.7 -15.05 33.4 Q-9.6 30.8 -5.8 26.15 -5.55 25.85 -5.05 25.85 L-4.05 25.85" fill="#576aa5" fill-opacity="0.7411765" fill-rule="evenodd" stroke="none"/>
    <path d="M-0.05 34.7 Q-0.55 34.65 -0.65 34.95 -1.75 38.2 -4.05 39.7 L-5.05 39.8 Q-9.0 40.3 -11.05 38.45 L-11.05 39.7 -12.0 39.55 Q-13.75 38.7 -13.05 34.7 L-13.05 33.4 Q-2.7 42.55 -4.0 27.1 L-4.05 25.85 Q-1.35 21.45 1.75 23.75 L1.95 24.6 2.05 25.85 Q2.65 29.9 0.95 30.9 L0.95 33.4 0.95 34.7 -0.05 34.7 M-3.05 27.1 L-2.95 27.8 Q3.5 29.7 -3.05 27.1" fill="#1e2a54" fill-opacity="0.39607844" fill-rule="evenodd" stroke="none"/>
    <path d="M-3.05 20.8 Q3.1 19.35 3.85 24.6 L3.95 25.85 3.05 25.6 1.95 24.6 1.75 23.75 Q-1.35 21.45 -4.05 25.85 L-5.05 25.85 -5.05 24.6 -3.3 21.9 Q-3.05 21.45 -3.05 20.8" fill="#6072ad" fill-opacity="0.77254903" fill-rule="evenodd" stroke="none"/>
    <path d="M-3.05 27.1 Q3.5 29.7 -2.95 27.8 L-3.05 27.1" fill="#0c132b" fill-opacity="0.20784314" fill-rule="evenodd" stroke="none"/>
    <path d="M-16.05 12.0 L-16.1 10.7 Q-16.45 4.7 -17.85 0.0 L-14.75 0.0 Q-13.35 3.4 -14.0 9.45 L-14.05 10.7 -15.05 10.7 -15.05 12.0 -16.05 12.0" fill="#141f40" fill-opacity="0.3019608" fill-rule="evenodd" stroke="none"/>
    <path d="M-19.05 37.2 L-19.55 37.05 Q-20.05 33.4 -20.05 29.65 -14.0 23.6 -15.95 13.2 L-16.05 12.0 -15.05 12.0 Q-13.65 19.65 -14.9 24.65 L-15.05 25.85 -15.55 25.85 Q-15.5 30.3 -18.05 30.9 L-19.05 30.9 -19.05 35.95 -19.05 37.2" fill="#1e2b54" fill-opacity="0.39215687" fill-rule="evenodd" stroke="none"/>
    <path d="M-18.05 30.9 Q-19.15 36.05 -16.05 35.95 L-15.05 35.95 -15.1 37.2 Q-15.7 43.55 -19.05 37.2 L-19.05 35.95 -19.05 30.9 -18.05 30.9" fill="#4d5f9a" fill-opacity="0.69803923" fill-rule="evenodd" stroke="none"/>
    <path d="M-16.05 43.5 Q-16.55 43.5 -16.8 43.2 -18.5 40.9 -19.05 37.2 -15.7 43.55 -15.1 37.2 L-15.05 35.95 -13.95 34.95 Q-13.55 34.65 -13.05 34.7 -13.75 38.7 -12.0 39.55 L-11.05 39.7 -10.15 44.75 -10.05 46.05 Q-10.55 46.0 -10.95 46.3 -13.8 48.15 -16.05 43.5" fill="#324276" fill-opacity="0.54509807" fill-rule="evenodd" stroke="none"/>
    <path d="M-22.05 0.0 Q-15.75 6.8 -21.8 0.85 L-22.05 0.0" fill="#1c2850" fill-opacity="0.3764706" fill-rule="evenodd" stroke="none"/>
    <path d="M-4.05 39.7 Q-4.05 40.35 -4.3 40.75 -6.65 44.2 -10.05 46.05 L-10.15 44.75 -11.05 39.7 -11.05 38.45 Q-9.0 40.3 -5.05 39.8 L-4.05 39.7" fill="#111a39" fill-opacity="0.27058825" fill-rule="evenodd" stroke="none"/>
    <path d="M-10.05 46.05 L-10.25 47.15 Q-15.05 59.75 -16.05 43.5 -13.8 48.15 -10.95 46.3 -10.55 46.0 -10.05 46.05" fill="#121c3b" fill-opacity="0.28235295" fill-rule="evenodd" stroke="none"/>
    <path d="M-10.95 0.0 L7.65 0.0 Q6.3 0.15 4.95 1.65 6.15 4.45 8.2 6.15 8.0 10.9 6.95 14.5 L6.95 17.05 6.95 18.3 6.0 18.4 Q3.25 19.35 -3.05 19.55 L-3.05 20.8 Q-3.55 20.8 -3.8 20.5 -7.45 15.45 -10.05 25.85 L-10.25 24.7 Q-12.05 19.55 -12.05 12.0 L-12.05 10.7 Q-10.4 6.8 -10.95 0.0" fill="#f5f7fc" fill-opacity="0.99607843" fill-rule="evenodd" stroke="none"/>
  </g>
</svg>
