<?xml version="1.0" encoding="UTF-8" standalone="no"?>
<svg xmlns:ffdec="https://www.free-decompiler.com/flash" xmlns:xlink="http://www.w3.org/1999/xlink" ffdec:objectType="shape" height="136.5px" width="231.1px" xmlns="http://www.w3.org/2000/svg">
  <g transform="matrix(1.0, 0.0, 0.0, 1.0, 116.95, 83.5)">
    <path d="M12.3 36.05 Q11.9 36.95 10.95 36.05 L12.3 36.05" fill="#ff0000" fill-opacity="0.3019608" fill-rule="evenodd" stroke="none"/>
    <path d="M45.85 -11.95 L49.1 -9.65 38.95 -6.3 40.45 -12.65 44.95 -12.1 45.85 -11.95 M7.55 42.6 L7.55 38.95 15.95 38.25 17.4 36.65 22.7 38.65 23.2 42.7 20.4 47.25 7.55 42.6 M39.5 38.75 L36.7 38.0 Q39.9 36.65 39.5 38.75" fill="#000000" fill-opacity="0.3019608" fill-rule="evenodd" stroke="none"/>
    <path d="M59.5 -52.5 L67.7 -42.0 53.25 -37.3 47.05 -50.65 59.5 -52.5 M5.75 -81.1 L13.8 -82.35 Q12.8 -78.3 6.7 -76.8 0.5 -75.25 -0.5 -71.5 L-1.0 -71.6 -1.0 -75.0 -1.1 -75.35 Q-2.8 -74.65 -3.5 -74.0 L-4.0 -74.1 Q-4.0 -75.65 -2.75 -77.75 L-2.6 -77.85 -6.5 -78.1 Q-6.25 -78.45 -5.3 -81.05 -3.75 -83.5 -0.5 -83.5 5.05 -83.5 5.85 -82.5 5.65 -81.35 5.75 -81.1 M44.95 -12.1 L40.45 -12.65 38.95 -6.3 49.1 -9.65 45.85 -11.95 55.0 -12.0 55.0 -4.35 47.9 -5.2 36.45 -4.05 34.8 -7.55 20.6 -5.55 20.6 -12.35 27.05 -17.95 32.7 -17.85 Q31.4 -14.25 34.1 -15.3 L44.8 -16.4 44.95 -12.1 M48.55 20.9 L48.45 16.65 Q39.85 23.9 30.7 18.9 L26.25 11.55 26.25 5.9 36.05 9.15 37.05 13.9 49.3 7.4 55.0 7.5 54.25 21.0 48.55 20.9 M114.1 9.15 L111.4 17.2 95.7 12.4 93.55 8.8 95.45 3.6 114.1 9.15 M92.0 22.9 L99.4 23.2 96.85 30.6 69.35 31.2 70.3 21.8 Q74.75 19.15 79.85 19.35 86.55 18.8 88.5 23.95 L92.0 22.9 M111.4 -12.0 L114.15 -4.7 107.25 -0.65 101.45 -0.65 101.45 -6.05 111.4 -12.0 M80.7 -12.0 L80.7 -18.2 94.05 -26.5 96.3 -26.2 98.7 -16.85 95.85 -16.8 89.7 -10.55 80.7 -12.0 M9.25 35.25 L10.7 29.8 Q18.4 24.8 24.05 28.55 L24.85 32.75 31.95 28.55 38.8 29.75 39.5 35.25 36.65 38.0 33.15 37.05 28.35 45.0 34.2 46.4 34.2 51.6 19.2 51.1 16.55 53.0 10.2 51.9 9.1 47.0 -5.85 49.6 Q-4.6 44.8 -7.4 47.6 L-21.35 50.75 -21.35 45.35 9.25 35.25 M7.55 42.6 L20.4 47.25 23.2 42.7 22.7 38.65 17.4 36.65 15.95 38.25 7.55 38.95 7.55 42.6 M12.3 36.05 L10.95 36.05 Q11.9 36.95 12.3 36.05 M-114.9 -2.6 L-108.6 -2.8 -106.85 2.5 -93.5 2.95 -95.05 9.25 -105.95 17.2 -112.05 15.45 -116.95 2.75 -114.9 -2.6 M-104.85 -12.0 L-101.4 -12.0 -96.1 -23.8 -82.2 -21.6 -81.0 -18.75 -79.15 -17.35 -70.45 -18.2 -72.0 -12.1 -104.85 -8.6 -104.85 -12.0 M-55.7 -1.95 L-59.15 -2.15 -58.2 -8.65 -24.35 -14.45 -23.3 -9.05 -19.3 -7.65 -18.85 -1.65 -24.75 -1.0 -25.6 -2.6 -55.7 2.75 -55.7 -1.95 M-58.9 24.6 L-43.25 23.9 -42.9 29.95 -63.1 45.85 -68.95 45.85 -67.3 38.35 -80.6 50.75 -86.7 51.1 -87.45 48.15 -91.0 45.7 -90.4 38.05 -80.55 38.05 -69.4 31.2 -70.4 31.1 -70.8 31.0 -70.9 30.85 -70.55 30.35 Q-65.6 25.2 -58.9 24.6 M-11.5 15.4 L-11.5 20.8 -27.75 25.8 -27.75 20.4 -11.5 15.4" fill="#000000" fill-opacity="0.14901961" fill-rule="evenodd" stroke="none"/>
    <path d="M13.8 15.0 L17.75 15.1 16.95 19.25 4.35 28.05 0.0 27.95 0.0 24.1 13.8 15.0 M-2.0 -1.85 L-2.6 2.15 -17.7 11.75 -21.75 11.75 -20.45 6.85 -5.95 -1.95 -2.0 -1.85" fill="#cc3300" fill-rule="evenodd" stroke="none"/>
  </g>
</svg>
