<?xml version="1.0" encoding="UTF-8" standalone="no"?>
<svg xmlns:ffdec="https://www.free-decompiler.com/flash" xmlns:xlink="http://www.w3.org/1999/xlink" ffdec:objectType="shape" height="120.0px" width="120.0px" xmlns="http://www.w3.org/2000/svg">
  <g transform="matrix(1.0, 0.0, 0.0, 1.0, 60.0, 60.0)">
    <path d="M36.6 -38.85 L36.85 -38.6 37.7 -37.8 Q41.1 -34.35 43.75 -30.6 L43.85 -30.5 45.6 -27.85 45.6 -27.8 Q53.2 -15.5 53.35 -0.05 L53.35 0.05 Q53.25 22.05 37.7 37.7 26.3 49.1 11.55 52.15 6.0 53.35 0.0 53.35 L-7.05 52.85 Q-18.2 51.55 -27.5 45.85 -32.9 42.6 -37.8 37.7 -53.4 22.05 -53.35 0.05 L-53.35 -0.05 Q-53.35 -6.35 -52.1 -12.1 -48.95 -26.6 -37.8 -37.8 -22.15 -53.4 -0.05 -53.35 L0.05 -53.35 Q18.7 -53.4 32.85 -42.1 L32.85 -42.05 36.6 -38.85 M26.6 -34.3 L26.55 -34.35 Q15.15 -43.45 0.05 -43.35 L-0.05 -43.35 Q-18.0 -43.4 -30.7 -30.7 -43.4 -18.0 -43.35 -0.05 L-43.35 0.05 Q-43.4 17.95 -30.7 30.65 -26.8 34.55 -22.45 37.15 L-22.3 37.3 -22.25 37.35 Q-15.15 41.7 -6.65 42.85 L-5.85 42.95 0.0 43.35 Q17.9 43.35 30.65 30.65 43.25 17.95 43.35 0.05 L43.35 -0.05 Q43.3 -12.55 37.15 -22.5 L37.15 -22.45 37.1 -22.55 35.7 -24.6 35.6 -24.75 Q33.45 -27.85 30.65 -30.7 L29.9 -31.4 29.85 -31.5 26.6 -34.3" fill="#4db34d" fill-rule="evenodd" stroke="none"/>
    <path d="M36.95 -47.35 L37.0 -47.3 41.2 -43.65 41.4 -43.45 42.4 -42.5 Q46.25 -38.65 49.2 -34.45 L49.3 -34.35 51.35 -31.3 51.35 -31.25 Q59.85 -17.45 60.0 -0.05 L60.0 0.05 Q59.9 24.8 42.4 42.4 L39.9 44.8 Q30.35 53.45 18.8 57.15 10.0 60.0 0.0 60.0 L-7.9 59.5 Q-20.5 58.0 -30.95 51.55 L-30.9 51.6 Q-37.0 47.9 -42.5 42.4 -60.1 24.8 -60.0 0.05 L-60.0 -0.05 Q-60.05 -11.5 -56.3 -21.45 -51.95 -33.05 -42.5 -42.5 L-38.3 -46.35 Q-22.0 -60.05 -0.05 -60.0 L0.05 -60.0 Q21.05 -60.05 36.95 -47.35 M36.6 -38.85 L32.85 -42.05 32.85 -42.1 Q18.7 -53.4 0.05 -53.35 L-0.05 -53.35 Q-22.15 -53.4 -37.8 -37.8 -48.95 -26.6 -52.1 -12.1 -53.35 -6.35 -53.35 -0.05 L-53.35 0.05 Q-53.4 22.05 -37.8 37.7 -32.9 42.6 -27.5 45.85 -18.2 51.55 -7.05 52.85 L0.0 53.35 Q6.0 53.35 11.55 52.15 26.3 49.1 37.7 37.7 53.25 22.05 53.35 0.05 L53.35 -0.05 Q53.2 -15.5 45.6 -27.8 L45.6 -27.85 43.85 -30.5 43.75 -30.6 Q41.1 -34.35 37.7 -37.8 L36.85 -38.6 36.6 -38.85" fill="url(#gradient0)" fill-rule="evenodd" stroke="none"/>
    <path d="M26.6 -34.3 L29.85 -31.5 29.9 -31.4 30.65 -30.7 Q33.45 -27.85 35.6 -24.75 L35.7 -24.6 37.1 -22.55 37.15 -22.45 37.15 -22.5 Q43.3 -12.55 43.35 -0.05 L43.35 0.05 Q43.25 17.95 30.65 30.65 17.9 43.35 0.0 43.35 L-5.85 42.95 -6.65 42.85 Q-15.15 41.7 -22.25 37.35 L-22.3 37.3 -22.45 37.15 Q-26.8 34.55 -30.7 30.65 -43.4 17.95 -43.35 0.05 L-43.35 -0.05 Q-43.4 -18.0 -30.7 -30.7 -18.0 -43.4 -0.05 -43.35 L0.05 -43.35 Q15.15 -43.45 26.55 -34.35 L26.6 -34.3 M25.25 -25.25 Q14.8 -35.7 0.0 -35.7 -14.8 -35.7 -25.25 -25.25 -35.7 -14.8 -35.7 0.0 -35.7 4.75 -34.6 9.1 -32.3 18.15 -25.25 25.25 -14.8 35.7 0.0 35.7 14.8 35.7 25.25 25.25 32.3 18.15 34.6 9.1 35.7 4.75 35.7 0.0 35.7 -14.8 25.25 -25.25" fill="url(#gradient1)" fill-rule="evenodd" stroke="none"/>
    <path d="M25.25 -25.25 Q35.7 -14.8 35.7 0.0 35.7 4.75 34.6 9.1 32.3 18.15 25.25 25.25 14.8 35.7 0.0 35.7 -14.8 35.7 -25.25 25.25 -32.3 18.15 -34.6 9.1 -35.7 4.75 -35.7 0.0 -35.7 -14.8 -25.25 -25.25 -14.8 -35.7 0.0 -35.7 14.8 -35.7 25.25 -25.25" fill="url(#gradient2)" fill-rule="evenodd" stroke="none"/>
    <path d="M30.7 -5.0 Q30.7 -17.75 21.75 -26.7 14.55 -33.9 5.0 -35.35 16.6 -33.9 25.25 -25.25 35.7 -14.8 35.7 0.0 35.7 4.75 34.6 9.1 32.3 18.15 25.25 25.25 14.8 35.7 0.0 35.7 -14.8 35.7 -25.25 25.25 -32.3 18.15 -34.6 9.1 -35.7 4.75 -35.7 0.0 -35.7 -14.8 -25.25 -25.25 -16.6 -33.9 -4.95 -35.35 -14.55 -33.9 -21.7 -26.7 -30.7 -17.75 -30.7 -5.0 -30.7 -0.9 -29.75 2.85 -27.8 10.65 -21.7 16.75 -12.75 25.7 0.0 25.7 12.75 25.7 21.75 16.75 27.8 10.65 29.75 2.85 30.7 -0.9 30.7 -5.0" fill="url(#gradient3)" fill-rule="evenodd" stroke="none"/>
  </g>
  <defs>
    <linearGradient gradientTransform="matrix(0.0, 0.0706, -0.0732, 0.0, 0.0, -0.9)" gradientUnits="userSpaceOnUse" id="gradient0" spreadMethod="pad" x1="-819.2" x2="819.2">
      <stop offset="0.0" stop-color="#66cc66"/>
      <stop offset="0.7725490196078432" stop-color="#006600"/>
    </linearGradient>
    <linearGradient gradientTransform="matrix(-0.0272, -0.0421, 0.0446, -0.0287, -0.2, -0.3)" gradientUnits="userSpaceOnUse" id="gradient1" spreadMethod="pad" x1="-819.2" x2="819.2">
      <stop offset="0.0" stop-color="#66cc66"/>
      <stop offset="0.7725490196078432" stop-color="#006600"/>
    </linearGradient>
    <radialGradient cx="0" cy="0" gradientTransform="matrix(0.0457, 0.0, 0.0, 0.0457, 0.0, 0.0)" gradientUnits="userSpaceOnUse" id="gradient2" r="819.2" spreadMethod="pad">
      <stop offset="0.39215686274509803" stop-color="#000000"/>
      <stop offset="1.0" stop-color="#005400"/>
    </radialGradient>
    <radialGradient cx="0" cy="0" gradientTransform="matrix(0.0457, 0.0, 0.0, 0.0457, 0.0, 0.0)" gradientUnits="userSpaceOnUse" id="gradient3" r="819.2" spreadMethod="pad">
      <stop offset="0.0" stop-color="#000000"/>
      <stop offset="1.0" stop-color="#025c01"/>
    </radialGradient>
  </defs>
</svg>
