<?xml version="1.0" encoding="UTF-8" standalone="no"?>
<svg xmlns:ffdec="https://www.free-decompiler.com/flash" xmlns:xlink="http://www.w3.org/1999/xlink" ffdec:objectType="shape" height="120.0px" width="120.0px" xmlns="http://www.w3.org/2000/svg">
  <g transform="matrix(1.0, 0.0, 0.0, 1.0, 60.0, 60.0)">
    <path d="M48.0 -60.0 Q60.0 -60.0 60.0 -48.0 L60.0 48.0 Q60.0 60.0 48.0 60.0 L-48.0 60.0 Q-60.0 60.0 -60.0 48.0 L-60.0 -48.0 Q-60.0 -60.0 -48.0 -60.0 L48.0 -60.0 M56.0 -48.0 Q56.0 -56.0 48.0 -56.0 L-48.0 -56.0 Q-56.0 -56.0 -56.0 -48.0 L-56.0 48.0 Q-56.0 56.0 -48.0 56.0 L48.0 56.0 Q56.0 56.0 56.0 48.0 L56.0 -48.0" fill="#cccccc" fill-rule="evenodd" stroke="none"/>
    <path d="M56.0 -48.0 L56.0 48.0 Q56.0 56.0 48.0 56.0 L-48.0 56.0 Q-56.0 56.0 -56.0 48.0 L-56.0 -48.0 Q-56.0 -56.0 -48.0 -56.0 L48.0 -56.0 Q56.0 -56.0 56.0 -48.0 M48.0 48.0 L48.0 -48.0 -48.0 -48.0 -48.0 48.0 48.0 48.0" fill="url(#gradient0)" fill-rule="evenodd" stroke="none"/>
    <path d="M-41.0 41.1 L41.0 41.1 41.0 -40.9 -41.0 -40.9 -41.0 41.1 M4.0 -3.9 L5.2 -3.9 4.0 -3.9 M48.0 48.0 L-48.0 48.0 -48.0 -48.0 48.0 -48.0 48.0 48.0" fill="url(#gradient1)" fill-rule="evenodd" stroke="none"/>
    <path d="M4.0 -3.9 L5.2 -3.9 4.0 -3.9 M-41.0 41.1 L-41.0 -40.9 41.0 -40.9 41.0 41.1 -41.0 41.1" fill="#000000" fill-rule="evenodd" stroke="none"/>
    <path d="M-20.0 -30.0 L-20.0 -20.0 -30.0 -20.0 -30.0 -30.0 -20.0 -30.0" fill="#333333" fill-rule="evenodd" stroke="none"/>
    <path d="M-5.0 -30.0 L-5.0 -20.0 -15.0 -20.0 -15.0 -30.0 -5.0 -30.0" fill="#333333" fill-rule="evenodd" stroke="none"/>
    <path d="M15.0 -30.0 L15.0 -20.0 5.0 -20.0 5.0 -30.0 15.0 -30.0" fill="#333333" fill-rule="evenodd" stroke="none"/>
    <path d="M30.0 -30.0 L30.0 -20.0 20.0 -20.0 20.0 -30.0 30.0 -30.0" fill="#333333" fill-rule="evenodd" stroke="none"/>
    <path d="M-20.0 -15.0 L-20.0 -5.0 -30.0 -5.0 -30.0 -15.0 -20.0 -15.0" fill="#333333" fill-rule="evenodd" stroke="none"/>
    <path d="M-5.0 -15.0 L-5.0 -5.0 -15.0 -5.0 -15.0 -15.0 -5.0 -15.0" fill="#333333" fill-rule="evenodd" stroke="none"/>
    <path d="M15.0 -15.0 L15.0 -5.0 5.0 -5.0 5.0 -15.0 15.0 -15.0" fill="#333333" fill-rule="evenodd" stroke="none"/>
    <path d="M30.0 -15.0 L30.0 -5.0 20.0 -5.0 20.0 -15.0 30.0 -15.0" fill="#333333" fill-rule="evenodd" stroke="none"/>
    <path d="M-20.0 20.0 L-20.0 30.0 -30.0 30.0 -30.0 20.0 -20.0 20.0" fill="#333333" fill-rule="evenodd" stroke="none"/>
    <path d="M-5.0 20.0 L-5.0 30.0 -15.0 30.0 -15.0 20.0 -5.0 20.0" fill="#333333" fill-rule="evenodd" stroke="none"/>
    <path d="M15.0 20.0 L15.0 30.0 5.0 30.0 5.0 20.0 15.0 20.0" fill="#333333" fill-rule="evenodd" stroke="none"/>
    <path d="M30.0 20.0 L30.0 30.0 20.0 30.0 20.0 20.0 30.0 20.0" fill="#333333" fill-rule="evenodd" stroke="none"/>
    <path d="M-20.0 5.0 L-20.0 15.0 -30.0 15.0 -30.0 5.0 -20.0 5.0" fill="#333333" fill-rule="evenodd" stroke="none"/>
    <path d="M-5.0 5.0 L-5.0 15.0 -15.0 15.0 -15.0 5.0 -5.0 5.0" fill="#333333" fill-rule="evenodd" stroke="none"/>
    <path d="M15.0 5.0 L15.0 15.0 5.0 15.0 5.0 5.0 15.0 5.0" fill="#333333" fill-rule="evenodd" stroke="none"/>
    <path d="M30.0 5.0 L30.0 15.0 20.0 15.0 20.0 5.0 30.0 5.0" fill="#333333" fill-rule="evenodd" stroke="none"/>
  </g>
  <defs>
    <linearGradient gradientTransform="matrix(0.0, -0.0635, 0.0732, 0.0, -4.0, 0.0)" gradientUnits="userSpaceOnUse" id="gradient0" spreadMethod="pad" x1="-819.2" x2="819.2">
      <stop offset="0.03529411764705882" stop-color="#8c8c8c"/>
      <stop offset="0.27450980392156865" stop-color="#737373"/>
      <stop offset="1.0" stop-color="#aeaeae"/>
    </linearGradient>
    <linearGradient gradientTransform="matrix(0.0, -0.0257, 0.061, 0.0, 0.0, -36.05)" gradientUnits="userSpaceOnUse" id="gradient1" spreadMethod="pad" x1="-819.2" x2="819.2">
      <stop offset="0.0" stop-color="#333333"/>
      <stop offset="1.0" stop-color="#1a1a1a"/>
    </linearGradient>
  </defs>
</svg>
