<?xml version="1.0" encoding="UTF-8" standalone="no"?>
<svg xmlns:ffdec="https://www.free-decompiler.com/flash" xmlns:xlink="http://www.w3.org/1999/xlink" ffdec:objectType="shape" height="120.0px" width="120.0px" xmlns="http://www.w3.org/2000/svg">
  <g transform="matrix(1.0, 0.0, 0.0, 1.0, 60.0, 60.0)">
    <path d="M-48.0 -56.0 Q-56.0 -56.0 -56.0 -48.0 L-56.0 48.0 Q-56.0 56.0 -48.0 56.0 L48.0 56.0 Q56.0 56.0 56.0 48.0 L56.0 -48.0 Q56.0 -56.0 48.0 -56.0 L-48.0 -56.0 M-60.0 -48.0 Q-60.0 -60.0 -48.0 -60.0 L48.0 -60.0 Q60.0 -60.0 60.0 -48.0 L60.0 48.0 Q60.0 60.0 48.0 60.0 L-48.0 60.0 Q-60.0 60.0 -60.0 48.0 L-60.0 -48.0" fill="#cccccc" fill-rule="evenodd" stroke="none"/>
    <path d="M-48.0 -56.0 L48.0 -56.0 Q56.0 -56.0 56.0 -48.0 L56.0 48.0 Q56.0 56.0 48.0 56.0 L-48.0 56.0 Q-56.0 56.0 -56.0 48.0 L-56.0 -48.0 Q-56.0 -56.0 -48.0 -56.0 M-48.0 -48.0 L-48.0 48.0 48.0 48.0 48.0 -48.0 -48.0 -48.0" fill="url(#gradient0)" fill-rule="evenodd" stroke="none"/>
    <path d="M-48.0 -48.0 L48.0 -48.0 48.0 48.0 -48.0 48.0 -48.0 -48.0 M-41.0 -40.9 L-41.0 41.1 41.0 41.1 41.0 -40.9 -41.0 -40.9" fill="url(#gradient1)" fill-rule="evenodd" stroke="none"/>
    <path d="M-41.0 -40.9 L41.0 -40.9 41.0 41.1 -41.0 41.1 -41.0 -40.9" fill="#000000" fill-rule="evenodd" stroke="none"/>
    <path d="M14.8 -14.0 L17.25 -11.0 14.0 -11.0 14.0 -14.0 14.8 -14.0 M7.0 -18.95 L7.0 -16.0 4.0 -16.0 4.0 -19.7 7.0 -18.95 M4.0 -4.0 L7.0 -4.0 7.0 -1.0 4.0 -1.0 4.0 -4.0 M2.0 -6.0 L-1.0 -6.0 -1.0 -9.0 2.0 -9.0 2.0 -6.0 M19.65 -6.0 L14.0 -6.0 14.0 -9.0 18.45 -9.0 19.65 -6.0 M14.0 4.0 L14.0 1.0 20.5 1.0 20.15 4.0 14.0 4.0 M2.0 19.95 L0.5 20.0 -1.0 19.95 -1.0 16.0 2.0 16.0 2.0 19.95 M9.0 16.0 L12.0 16.0 12.0 16.4 9.0 18.2 9.0 16.0 M-3.0 -19.7 L-3.0 -16.0 -6.0 -16.0 -6.0 -18.95 -3.0 -19.7 M-13.0 -9.0 L-13.0 -6.0 -18.65 -6.0 -17.45 -9.0 -13.0 -9.0 M-6.0 -6.0 L-6.0 -9.0 -3.0 -9.0 -3.0 -6.0 -6.0 -6.0 M-11.0 -11.0 L-11.0 -14.0 -8.0 -14.0 -8.0 -11.0 -11.0 -11.0 M-8.0 9.0 L-11.0 9.0 -11.0 6.0 -8.0 6.0 -8.0 9.0 M-6.0 11.0 L-3.0 11.0 -3.0 14.0 -6.0 14.0 -6.0 11.0 M-13.0 4.0 L-19.15 4.0 -19.45 1.0 -13.0 1.0 -13.0 4.0 M-11.0 16.0 L-8.0 16.0 -8.0 18.2 -11.0 16.4 -11.0 16.0" fill="#990000" fill-rule="evenodd" stroke="none"/>
    <path d="M12.0 -16.0 L9.0 -16.0 9.0 -18.15 Q10.55 -17.45 12.0 -16.4 L12.0 -16.0 M2.0 -16.0 L-1.0 -16.0 -1.0 -19.95 0.5 -20.0 2.0 -19.95 2.0 -16.0 M2.0 -1.0 L-1.0 -1.0 -1.0 -4.0 2.0 -4.0 2.0 -1.0 M4.0 -6.0 L4.0 -9.0 7.0 -9.0 7.0 -6.0 4.0 -6.0 M9.0 -6.0 L9.0 -9.0 12.0 -9.0 12.0 -6.0 9.0 -6.0 M14.0 -4.0 L20.15 -4.0 20.5 -1.0 14.0 -1.0 14.0 -4.0 M12.0 -11.0 L9.0 -11.0 9.0 -14.0 12.0 -14.0 12.0 -11.0 M18.45 9.0 L14.0 9.0 14.0 6.0 19.65 6.0 18.45 9.0 M12.0 9.0 L9.0 9.0 9.0 6.0 12.0 6.0 12.0 9.0 M17.25 11.0 Q16.2 12.6 14.8 14.0 L14.0 14.0 14.0 11.0 17.25 11.0 M7.0 4.0 L4.0 4.0 4.0 1.0 7.0 1.0 7.0 4.0 M2.0 9.0 L-1.0 9.0 -1.0 6.0 2.0 6.0 2.0 9.0 M4.0 19.75 L4.0 16.0 7.0 16.0 7.0 19.0 4.0 19.75 M12.0 14.0 L9.0 14.0 9.0 11.0 12.0 11.0 12.0 14.0 M2.0 14.0 L-1.0 14.0 -1.0 11.0 2.0 11.0 2.0 14.0 M-8.0 -16.0 L-11.0 -16.0 -11.0 -16.4 Q-9.55 -17.45 -8.0 -18.15 L-8.0 -16.0 M-13.0 -14.0 L-13.0 -11.0 -16.25 -11.0 -13.8 -14.0 -13.0 -14.0 M-19.45 -1.0 L-19.15 -4.0 -13.0 -4.0 -13.0 -1.0 -19.45 -1.0 M-6.0 -1.0 L-6.0 -4.0 -3.0 -4.0 -3.0 -1.0 -6.0 -1.0 M-8.0 4.0 L-11.0 4.0 -11.0 1.0 -8.0 1.0 -8.0 4.0 M-18.65 6.0 L-13.0 6.0 -13.0 9.0 -17.45 9.0 -18.65 6.0 M-13.0 11.0 L-13.0 14.0 -13.8 14.0 -16.25 11.0 -13.0 11.0 M-3.0 16.0 L-3.0 19.75 -6.0 19.0 -6.0 16.0 -3.0 16.0 M-11.0 14.0 L-11.0 11.0 -8.0 11.0 -8.0 14.0 -11.0 14.0" fill="#660000" fill-rule="evenodd" stroke="none"/>
    <path d="M7.0 -14.0 L7.0 -11.0 4.0 -11.0 4.0 -14.0 7.0 -14.0 M9.0 -4.0 L12.0 -4.0 12.0 -1.0 9.0 -1.0 9.0 -4.0 M2.0 4.0 L-1.0 4.0 -1.0 1.0 2.0 1.0 2.0 4.0 M4.0 11.0 L7.0 11.0 7.0 14.0 4.0 14.0 4.0 11.0 M-3.0 -14.0 L-3.0 -11.0 -6.0 -11.0 -6.0 -14.0 -3.0 -14.0 M-11.0 -9.0 L-8.0 -9.0 -8.0 -6.0 -11.0 -6.0 -11.0 -9.0 M-6.0 6.0 L-3.0 6.0 -3.0 9.0 -6.0 9.0 -6.0 6.0" fill="#ff0000" fill-rule="evenodd" stroke="none"/>
    <path d="M2.0 -11.0 L-1.0 -11.0 -1.0 -14.0 2.0 -14.0 2.0 -11.0 M12.0 4.0 L9.0 4.0 9.0 1.0 12.0 1.0 12.0 4.0 M4.0 6.0 L7.0 6.0 7.0 9.0 4.0 9.0 4.0 6.0 M-11.0 -1.0 L-11.0 -4.0 -8.0 -4.0 -8.0 -1.0 -11.0 -1.0 M-3.0 4.0 L-6.0 4.0 -6.0 1.0 -3.0 1.0 -3.0 4.0" fill="#cc0000" fill-rule="evenodd" stroke="none"/>
    <path d="M14.15 -14.15 Q8.3 -20.0 0.0 -20.0 -8.3 -20.0 -14.15 -14.15 -20.0 -8.3 -20.0 0.0 -20.0 8.3 -14.15 14.15 -8.3 20.0 0.0 20.0 8.3 20.0 14.15 14.15 20.0 8.3 20.0 0.0 20.0 -8.3 14.15 -14.15 M22.6 -22.65 Q32.0 -13.25 32.0 0.0 32.0 13.25 22.6 22.6 13.25 32.0 0.0 32.0 -13.25 32.0 -22.65 22.6 -32.0 13.25 -32.0 0.0 -32.0 -13.25 -22.65 -22.65 -13.25 -32.0 0.0 -32.0 13.25 -32.0 22.6 -22.65" fill="#333333" fill-rule="evenodd" stroke="none"/>
    <path d="M14.15 -14.15 Q20.0 -8.3 20.0 0.0 20.0 8.3 14.15 14.15 8.3 20.0 0.0 20.0 -8.3 20.0 -14.15 14.15 -20.0 8.3 -20.0 0.0 -20.0 -8.3 -14.15 -14.15 -8.3 -20.0 0.0 -20.0 8.3 -20.0 14.15 -14.15 M22.6 -22.65 Q32.0 -13.25 32.0 0.0 32.0 13.25 22.6 22.6 13.25 32.0 0.0 32.0 -13.25 32.0 -22.65 22.6 -32.0 13.25 -32.0 0.0 -32.0 -13.25 -22.65 -22.65 -13.25 -32.0 0.0 -32.0 13.25 -32.0 22.6 -22.65 Z" fill="none" stroke="url(#gradient2)" stroke-linecap="butt" stroke-linejoin="miter-clip" stroke-miterlimit="3.0" stroke-width="4.0"/>
  </g>
  <defs>
    <linearGradient gradientTransform="matrix(0.0, -0.0635, 0.0732, 0.0, -4.0, 0.0)" gradientUnits="userSpaceOnUse" id="gradient0" spreadMethod="pad" x1="-819.2" x2="819.2">
      <stop offset="0.03529411764705882" stop-color="#8c8c8c"/>
      <stop offset="0.27450980392156865" stop-color="#737373"/>
      <stop offset="1.0" stop-color="#aeaeae"/>
    </linearGradient>
    <linearGradient gradientTransform="matrix(0.0, -0.0257, 0.061, 0.0, 0.0, -36.05)" gradientUnits="userSpaceOnUse" id="gradient1" spreadMethod="pad" x1="-819.2" x2="819.2">
      <stop offset="0.0" stop-color="#333333"/>
      <stop offset="1.0" stop-color="#1a1a1a"/>
    </linearGradient>
    <linearGradient gradientTransform="matrix(0.0, 0.0415, -0.0415, 0.0, 0.0, 0.0)" gradientUnits="userSpaceOnUse" id="gradient2" spreadMethod="pad" x1="-819.2" x2="819.2">
      <stop offset="0.0" stop-color="#848484"/>
      <stop offset="1.0" stop-color="#595959"/>
    </linearGradient>
  </defs>
</svg>
