<?xml version="1.0" encoding="UTF-8" standalone="no"?>
<svg xmlns:ffdec="https://www.free-decompiler.com/flash" xmlns:xlink="http://www.w3.org/1999/xlink" ffdec:objectType="shape" height="60.0px" width="180.0px" xmlns="http://www.w3.org/2000/svg">
  <g transform="matrix(1.0, 0.0, 0.0, 1.0, 90.0, 30.0)">
    <path d="M71.0 -10.9 L34.0 -10.9 34.0 11.1 71.0 11.1 71.0 -10.9 M26.0 -10.9 L-26.0 -10.9 -26.0 11.1 26.0 11.1 26.0 -10.9 M-34.0 11.1 L-34.0 -10.9 -71.0 -10.9 -71.0 11.1 -34.0 11.1 M78.0 18.0 L-78.0 18.0 -78.0 -18.0 78.0 -18.0 78.0 18.0" fill="url(#gradient0)" fill-rule="evenodd" stroke="none"/>
    <path d="M71.0 -10.9 L71.0 11.1 34.0 11.1 34.0 -10.9 71.0 -10.9" fill="url(#gradient1)" fill-rule="evenodd" stroke="none"/>
    <path d="M78.0 -30.0 Q90.0 -30.0 90.0 -18.0 L90.0 18.0 Q90.0 30.0 78.0 30.0 L-78.0 30.0 Q-90.0 30.0 -90.0 18.0 L-90.0 -18.0 Q-90.0 -30.0 -78.0 -30.0 L78.0 -30.0 M86.0 -18.0 Q86.0 -26.0 78.0 -26.0 L-78.0 -26.0 Q-86.0 -26.0 -86.0 -18.0 L-86.0 18.0 Q-86.0 26.0 -78.0 26.0 L78.0 26.0 Q86.0 26.0 86.0 18.0 L86.0 -18.0" fill="#fefd01" fill-rule="evenodd" stroke="none"/>
    <path d="M86.0 -18.0 L86.0 18.0 Q86.0 26.0 78.0 26.0 L-78.0 26.0 Q-86.0 26.0 -86.0 18.0 L-86.0 -18.0 Q-86.0 -26.0 -78.0 -26.0 L78.0 -26.0 Q86.0 -26.0 86.0 -18.0 M78.0 18.0 L78.0 -18.0 -78.0 -18.0 -78.0 18.0 78.0 18.0" fill="url(#gradient2)" fill-rule="evenodd" stroke="none"/>
    <path d="M26.0 -10.9 L26.0 11.1 -26.0 11.1 -26.0 -10.9 26.0 -10.9" fill="url(#gradient3)" fill-rule="evenodd" stroke="none"/>
    <path d="M-34.0 11.1 L-71.0 11.1 -71.0 -10.9 -34.0 -10.9 -34.0 11.1" fill="url(#gradient4)" fill-rule="evenodd" stroke="none"/>
  </g>
  <defs>
    <linearGradient gradientTransform="matrix(0.0, -0.0257, 0.061, 0.0, 30.0, -6.05)" gradientUnits="userSpaceOnUse" id="gradient0" spreadMethod="pad" x1="-819.2" x2="819.2">
      <stop offset="0.0" stop-color="#41015c"/>
      <stop offset="1.0" stop-color="#41015c"/>
    </linearGradient>
    <linearGradient gradientTransform="matrix(0.0, -0.0134, 0.0226, 0.0, 52.5, 0.1)" gradientUnits="userSpaceOnUse" id="gradient1" spreadMethod="pad" x1="-819.2" x2="819.2">
      <stop offset="0.0" stop-color="#9902ca"/>
      <stop offset="1.0" stop-color="#ffcc00"/>
    </linearGradient>
    <linearGradient gradientTransform="matrix(0.0, -0.0317, 0.0732, 0.0, 30.0, 2.0)" gradientUnits="userSpaceOnUse" id="gradient2" spreadMethod="pad" x1="-819.2" x2="819.2">
      <stop offset="0.0" stop-color="#9900cc"/>
      <stop offset="1.0" stop-color="#ffff00"/>
    </linearGradient>
    <linearGradient gradientTransform="matrix(0.0, -0.0134, 0.0317, 0.0, 0.0, 0.1)" gradientUnits="userSpaceOnUse" id="gradient3" spreadMethod="pad" x1="-819.2" x2="819.2">
      <stop offset="0.0" stop-color="#9902ca"/>
      <stop offset="1.0" stop-color="#ffcc00"/>
    </linearGradient>
    <linearGradient gradientTransform="matrix(0.0, -0.0134, 0.0226, 0.0, -52.5, 0.1)" gradientUnits="userSpaceOnUse" id="gradient4" spreadMethod="pad" x1="-819.2" x2="819.2">
      <stop offset="0.0" stop-color="#9902ca"/>
      <stop offset="1.0" stop-color="#ffcc00"/>
    </linearGradient>
  </defs>
</svg>
