<?xml version="1.0" encoding="UTF-8" standalone="no"?>
<svg xmlns:ffdec="https://www.free-decompiler.com/flash" xmlns:xlink="http://www.w3.org/1999/xlink" ffdec:objectType="shape" height="142.0px" width="92.0px" xmlns="http://www.w3.org/2000/svg">
  <g transform="matrix(1.0, 0.0, 0.0, 1.0, 46.0, 46.0)">
    <path d="M22.5 19.85 Q30.0 11.5 30.0 0.0 30.0 -12.45 21.2 -21.25 12.45 -30.0 0.0 -30.0 -12.45 -30.0 -21.25 -21.25 -30.0 -12.45 -30.0 0.0 -30.0 11.5 -22.5 19.85 L-22.5 39.1 -22.5 19.85 -21.25 21.2 Q-17.05 25.4 -12.0 27.6 L-12.0 95.0 -22.5 95.0 -22.5 39.1 Q-27.5 36.15 -31.9 31.8 -45.0 18.65 -45.0 0.0 -45.0 -18.7 -31.9 -31.9 -18.7 -45.0 0.0 -45.0 18.65 -45.0 31.8 -31.9 45.0 -18.7 45.0 0.0 45.0 18.65 31.8 31.8 27.45 36.15 22.5 39.1 L22.5 19.85 22.5 39.1 22.5 95.0 12.0 95.0 12.0 27.6 Q17.0 25.4 21.2 21.2 L22.5 19.85" fill="#000000" fill-rule="evenodd" stroke="none"/>
    <path d="M-22.5 19.85 Q-30.0 11.5 -30.0 0.0 -30.0 -12.45 -21.25 -21.25 -12.45 -30.0 0.0 -30.0 12.45 -30.0 21.2 -21.25 30.0 -12.45 30.0 0.0 30.0 11.5 22.5 19.85 L21.2 21.2 Q17.0 25.4 12.0 27.6 6.5 30.0 0.0 30.0 -6.55 30.0 -12.0 27.6 -6.55 30.0 0.0 30.0 6.5 30.0 12.0 27.6 L12.0 95.0 -12.0 95.0 -12.0 27.6 Q-17.05 25.4 -21.25 21.2 L-22.5 19.85 M-17.2 0.75 L-8.65 15.6 8.6 15.6 17.15 0.75 8.6 -14.2 -8.65 -14.2 -17.2 0.75" fill="#151515" fill-rule="evenodd" stroke="none"/>
    <path d="M-17.2 0.75 L-8.65 -14.2 8.6 -14.2 17.15 0.75 8.6 15.6 -8.65 15.6 -17.2 0.75" fill="#1a1a1a" fill-rule="evenodd" stroke="none"/>
    <path d="M-22.5 19.85 Q-30.0 11.5 -30.0 0.0 -30.0 -12.45 -21.25 -21.25 -12.45 -30.0 0.0 -30.0 12.45 -30.0 21.2 -21.25 30.0 -12.45 30.0 0.0 30.0 11.5 22.5 19.85 L22.5 39.1 M-22.5 39.1 L-22.5 19.85 -21.25 21.2 Q-17.05 25.4 -12.0 27.6 -6.55 30.0 0.0 30.0 6.5 30.0 12.0 27.6 17.0 25.4 21.2 21.2 L22.5 19.85 M-17.2 0.75 L-8.65 -14.2 8.6 -14.2 17.15 0.75 8.6 15.6 -8.65 15.6 -17.2 0.75 M-12.0 95.0 L-12.0 27.6 M12.0 27.6 L12.0 95.0" fill="none" stroke="#ffffff" stroke-linecap="round" stroke-linejoin="round" stroke-opacity="0.3019608" stroke-width="2.0"/>
    <path d="M22.5 39.1 Q27.45 36.15 31.8 31.8 45.0 18.65 45.0 0.0 45.0 -18.7 31.8 -31.9 18.65 -45.0 0.0 -45.0 -18.7 -45.0 -31.9 -31.9 -45.0 -18.7 -45.0 0.0 -45.0 18.65 -31.9 31.8 -27.5 36.15 -22.5 39.1 L-22.5 95.0 M22.5 95.0 L22.5 39.1" fill="none" stroke="#ffffff" stroke-linecap="round" stroke-linejoin="round" stroke-opacity="0.6" stroke-width="2.0"/>
  </g>
</svg>
