<?xml version="1.0" encoding="UTF-8" standalone="no"?>
<svg xmlns:ffdec="https://www.free-decompiler.com/flash" xmlns:xlink="http://www.w3.org/1999/xlink" ffdec:objectType="shape" height="100.3px" width="59.25px" xmlns="http://www.w3.org/2000/svg">
  <g transform="matrix(1.0, 0.0, 0.0, 1.0, -18.75, 72.8)">
    <path d="M29.05 -72.5 Q34.2 -71.5 38.6 -67.05 43.0 -62.65 44.05 -57.5 45.05 -52.35 42.15 -49.4 39.2 -46.45 34.05 -47.5 28.85 -48.5 24.45 -52.9 20.05 -57.3 19.0 -62.5 18.0 -67.65 20.95 -70.6 23.85 -73.55 29.05 -72.5" fill="#ffffff" fill-opacity="0.2" fill-rule="evenodd" stroke="none"/>
    <path d="M71.0 17.5 L56.0 17.5 56.0 12.5 71.0 12.5 71.0 17.5 M78.0 7.5 L58.0 7.5 58.0 2.5 78.0 2.5 78.0 7.5 M61.0 27.5 L51.0 27.5 51.0 22.5 61.0 22.5 61.0 27.5" fill="#ffffff" fill-opacity="0.2" fill-rule="evenodd" stroke="none"/>
  </g>
</svg>
