<?xml version="1.0" encoding="UTF-8" standalone="no"?>
<svg xmlns:ffdec="https://www.free-decompiler.com/flash" xmlns:xlink="http://www.w3.org/1999/xlink" ffdec:objectType="shape" height="42.0px" width="42.0px" xmlns="http://www.w3.org/2000/svg">
  <g transform="matrix(1.0, 0.0, 0.0, 1.0, 21.0, 21.0)">
    <path d="M12.7 -12.75 Q18.0 -7.45 18.0 0.0 18.0 7.5 12.7 12.7 7.5 18.0 0.0 18.0 -7.45 18.0 -12.75 12.7 -18.0 7.5 -18.0 0.0 -18.0 -7.45 -12.75 -12.75 -7.45 -18.0 0.0 -18.0 7.5 -18.0 12.7 -12.75" fill="#ffffff" fill-opacity="0.011764706" fill-rule="evenodd" stroke="none"/>
    <path d="M12.7 -12.75 Q18.0 -7.45 18.0 0.0 18.0 7.5 12.7 12.7 7.5 18.0 0.0 18.0 -7.45 18.0 -12.75 12.7 -18.0 7.5 -18.0 0.0 -18.0 -7.45 -12.75 -12.75 -7.45 -18.0 0.0 -18.0 7.5 -18.0 12.7 -12.75 Z" fill="none" stroke="#ffffff" stroke-linecap="round" stroke-linejoin="round" stroke-opacity="0.050980393" stroke-width="6.0"/>
  </g>
</svg>
