<?xml version="1.0" encoding="UTF-8" standalone="no"?>
<svg xmlns:ffdec="https://www.free-decompiler.com/flash" xmlns:xlink="http://www.w3.org/1999/xlink" ffdec:objectType="shape" height="248.0px" width="248.0px" xmlns="http://www.w3.org/2000/svg">
  <g transform="matrix(1.0, 0.0, 0.0, 1.0, 124.0, 124.0)">
    <path d="M16.0 -16.0 L16.0 -116.0 -16.0 -116.0 -16.0 -16.0 -116.0 -16.0 -116.0 16.0 -16.0 16.0 -16.0 116.0 16.0 116.0 16.0 16.0 116.0 16.0 116.0 -16.0 16.0 -16.0 M24.0 -24.0 L124.0 -24.0 124.0 24.0 24.0 24.0 24.0 124.0 -24.0 124.0 -24.0 24.0 -124.0 24.0 -124.0 -24.0 -24.0 -24.0 -24.0 -124.0 24.0 -124.0 24.0 -24.0 M6.0 3.5 L0.0 6.95 -6.0 3.5 -6.0 -3.5 0.0 -6.95 6.0 -3.5 6.0 3.5" fill="#9f5000" fill-rule="evenodd" stroke="none"/>
    <path d="M10.05 -5.8 L0.05 -11.55 -9.95 -5.8 -9.95 5.8 0.05 11.55 10.05 5.8 10.05 -5.8 M16.0 -16.0 L116.0 -16.0 116.0 16.0 16.0 16.0 16.0 116.0 -16.0 116.0 -16.0 16.0 -116.0 16.0 -116.0 -16.0 -16.0 -16.0 -16.0 -116.0 16.0 -116.0 16.0 -16.0" fill="#6a2300" fill-rule="evenodd" stroke="none"/>
    <path d="M10.05 -5.8 L10.05 5.8 0.05 11.55 -9.95 5.8 -9.95 -5.8 0.05 -11.55 10.05 -5.8 M6.0 3.5 L6.0 -3.5 0.0 -6.95 -6.0 -3.5 -6.0 3.5 0.0 6.95 6.0 3.5" fill="#401500" fill-rule="evenodd" stroke="none"/>
    <path d="M16.0 -16.0 L116.0 -16.0 116.0 16.0 16.0 16.0 16.0 116.0 -16.0 116.0 -16.0 16.0 -116.0 16.0 -116.0 -16.0 -16.0 -16.0 -16.0 -116.0 16.0 -116.0 16.0 -16.0 Z" fill="none" stroke="#401500" stroke-linecap="square" stroke-linejoin="miter-clip" stroke-miterlimit="3.0" stroke-width="4.0"/>
  </g>
</svg>
