<?xml version="1.0" encoding="UTF-8" standalone="no"?>
<svg xmlns:ffdec="https://www.free-decompiler.com/flash" xmlns:xlink="http://www.w3.org/1999/xlink" ffdec:objectType="shape" height="120.0px" width="120.0px" xmlns="http://www.w3.org/2000/svg">
  <g transform="matrix(1.0, 0.0, 0.0, 1.0, 60.0, 60.0)">
    <path d="M7.0 -53.05 L15.55 -57.95 20.5 -49.45 30.05 -51.95 32.6 -42.5 42.45 -42.45 42.5 -32.6 51.95 -30.0 49.45 -20.5 57.95 -15.55 53.1 -7.0 60.0 0.0 53.1 6.95 57.95 15.55 49.45 20.5 51.95 30.0 42.5 32.6 42.45 42.45 32.6 42.45 30.05 51.95 20.5 49.45 15.55 57.95 7.0 53.05 0.05 60.0 -6.95 53.05 -15.55 57.95 -20.5 49.45 -30.0 51.95 -32.6 42.45 -42.45 42.45 -42.45 32.6 -51.95 30.0 -49.45 20.5 -57.95 15.55 -53.05 6.95 -60.0 0.0 -53.05 -7.0 -57.95 -15.55 -49.45 -20.5 -51.95 -30.0 -42.45 -32.6 -42.45 -42.45 -32.6 -42.5 -30.0 -51.95 -20.5 -49.45 -15.55 -57.95 -6.95 -53.05 0.0 -60.0 7.0 -53.05 M38.8 -29.8 L38.8 -38.8 29.8 -38.8 27.45 -47.5 18.75 -45.2 14.2 -53.0 6.4 -48.5 0.0 -54.85 -6.35 -48.5 -14.2 -52.95 -18.7 -45.2 -27.4 -47.5 -29.75 -38.8 -38.75 -38.8 -38.8 -29.8 -47.45 -27.4 -45.2 -18.75 -52.95 -14.2 -48.5 -6.4 -54.8 0.0 -48.5 6.35 -52.95 14.2 -45.2 18.7 -47.45 27.4 -38.8 29.8 -38.75 38.75 -29.75 38.8 -27.4 47.5 -18.7 45.2 -14.2 52.95 -6.35 48.5 0.0 54.85 6.4 48.5 14.2 52.95 18.75 45.2 27.45 47.5 29.8 38.8 38.8 38.75 38.8 29.8 47.5 27.4 45.2 18.7 52.95 14.2 48.5 6.35 54.85 0.0 48.5 -6.4 53.0 -14.2 45.2 -18.75 47.5 -27.4 38.8 -29.8 M8.5 -8.5 Q12.05 -5.0 12.05 0.0 12.05 4.95 8.5 8.45 5.0 12.0 0.05 12.0 -4.95 12.0 -8.45 8.45 -11.95 4.95 -11.95 0.0 -11.95 -5.0 -8.45 -8.5 -4.95 -12.0 0.05 -12.0 5.0 -12.0 8.5 -8.5 M5.45 -5.45 Q3.2 -7.7 0.05 -7.65 -3.15 -7.7 -5.35 -5.45 -7.6 -3.2 -7.6 0.0 -7.6 3.15 -5.35 5.4 -3.15 7.65 0.05 7.65 3.2 7.65 5.45 5.4 7.65 3.15 7.7 0.0 7.65 -3.2 5.45 -5.45" fill="#990066" fill-rule="evenodd" stroke="none"/>
    <path d="M38.8 -29.8 L47.5 -27.4 45.2 -18.75 53.0 -14.2 48.5 -6.4 54.85 0.0 48.5 6.35 52.95 14.2 45.2 18.7 47.5 27.4 38.8 29.8 38.8 38.75 29.8 38.8 27.45 47.5 18.75 45.2 14.2 52.95 6.4 48.5 0.0 54.85 -6.35 48.5 -14.2 52.95 -18.7 45.2 -27.4 47.5 -29.75 38.8 -38.75 38.75 -38.8 29.8 -47.45 27.4 -45.2 18.7 -52.95 14.2 -48.5 6.35 -54.8 0.0 -48.5 -6.4 -52.95 -14.2 -45.2 -18.75 -47.45 -27.4 -38.8 -29.8 -38.75 -38.8 -29.75 -38.8 -27.4 -47.5 -18.7 -45.2 -14.2 -52.95 -6.35 -48.5 0.0 -54.85 6.4 -48.5 14.2 -53.0 18.75 -45.2 27.45 -47.5 29.8 -38.8 38.8 -38.8 38.8 -29.8 M16.95 -17.05 Q9.95 -24.05 0.0 -24.05 -9.95 -24.05 -17.0 -17.05 -24.0 -10.0 -24.0 -0.05 -24.0 9.9 -17.0 16.9 -9.95 23.95 0.0 23.95 9.95 23.95 16.95 16.9 24.0 9.9 24.0 -0.05 24.0 -10.0 16.95 -17.05" fill="#000000" fill-rule="evenodd" stroke="none"/>
    <path d="M5.45 -5.45 Q7.65 -3.2 7.7 0.0 7.65 3.15 5.45 5.4 3.2 7.65 0.05 7.65 -3.15 7.65 -5.35 5.4 -7.6 3.15 -7.6 0.0 -7.6 -3.2 -5.35 -5.45 -3.15 -7.7 0.05 -7.65 3.2 -7.7 5.45 -5.45" fill="#333333" fill-rule="evenodd" stroke="none"/>
    <path d="M8.5 -8.5 Q5.0 -12.0 0.05 -12.0 -4.95 -12.0 -8.45 -8.5 -11.95 -5.0 -11.95 0.0 -11.95 4.95 -8.45 8.45 -4.95 12.0 0.05 12.0 5.0 12.0 8.5 8.45 12.05 4.95 12.05 0.0 12.05 -5.0 8.5 -8.5 M16.95 -17.05 Q24.0 -10.0 24.0 -0.05 24.0 9.9 16.95 16.9 9.95 23.95 0.0 23.95 -9.95 23.95 -17.0 16.9 -24.0 9.9 -24.0 -0.05 -24.0 -10.0 -17.0 -17.05 -9.95 -24.05 0.0 -24.05 9.95 -24.05 16.95 -17.05" fill="#4a0032" fill-rule="evenodd" stroke="none"/>
  </g>
</svg>
