<?xml version="1.0" encoding="UTF-8" standalone="no"?>
<svg xmlns:ffdec="https://www.free-decompiler.com/flash" xmlns:xlink="http://www.w3.org/1999/xlink" ffdec:objectType="shape" height="60.0px" width="60.0px" xmlns="http://www.w3.org/2000/svg">
  <g transform="matrix(1.0, 0.0, 0.0, 1.0, 30.0, 30.0)">
    <path d="M21.2 -21.25 Q30.0 -12.45 30.0 0.0 30.0 12.45 21.2 21.2 12.45 30.0 0.0 30.0 -12.45 30.0 -21.25 21.2 -30.0 12.45 -30.0 0.0 -30.0 -12.45 -21.25 -21.25 -12.45 -30.0 0.0 -30.0 12.45 -30.0 21.2 -21.25 M11.3 11.45 Q15.95 6.75 16.0 0.15 15.95 -6.5 11.3 -11.2 6.6 -15.9 0.0 -15.85 -6.65 -15.9 -11.35 -11.2 -16.0 -6.5 -16.0 0.15 -16.0 6.75 -11.35 11.45 -6.65 16.15 0.0 16.15 6.6 16.15 11.3 11.45" fill="#0099ee" fill-opacity="0.0" fill-rule="evenodd" stroke="none"/>
  </g>
</svg>
