<?xml version="1.0" encoding="UTF-8" standalone="no"?>
<svg xmlns:ffdec="https://www.free-decompiler.com/flash" xmlns:xlink="http://www.w3.org/1999/xlink" ffdec:objectType="shape" height="60.0px" width="60.0px" xmlns="http://www.w3.org/2000/svg">
  <g transform="matrix(1.0, 0.0, 0.0, 1.0, 30.0, 30.0)">
    <path d="M24.95 -20.0 L30.0 -16.6 30.0 16.6 24.95 20.0 24.95 -20.0" fill="url(#gradient0)" fill-rule="evenodd" stroke="none"/>
    <path d="M24.95 -20.0 L24.95 20.0 -4.95 0.05 -4.95 0.0 24.95 -20.0" fill="url(#gradient1)" fill-rule="evenodd" stroke="none"/>
    <path d="M-28.6 -29.95 Q-17.05 -29.5 -8.75 -21.2 0.0 -12.45 0.0 0.0 L0.0 0.05 Q0.0 12.45 -8.75 21.25 -17.05 29.5 -28.6 30.0 L-30.0 30.0 -30.0 -30.0 -28.6 -29.95 M-10.9 -19.1 Q-17.7 -25.95 -27.0 -26.85 L-27.0 26.85 Q-17.7 25.95 -10.9 19.15 -3.0 11.2 -3.0 0.0 -3.0 -11.2 -10.9 -19.1" fill="url(#gradient2)" fill-rule="evenodd" stroke="none"/>
    <path d="M-10.9 -19.1 Q-3.0 -11.2 -3.0 0.0 -3.0 11.2 -10.9 19.15 -17.7 25.95 -27.0 26.85 L-27.0 -26.85 Q-17.7 -25.95 -10.9 -19.1" fill="url(#gradient3)" fill-rule="evenodd" stroke="none"/>
    <path d="M-10.0 -6.0 L-10.0 6.0 -22.0 6.0 -22.0 -6.0 -10.0 -6.0 Z" fill="none" stroke="#000000" stroke-linecap="square" stroke-linejoin="miter-clip" stroke-miterlimit="3.0" stroke-width="4.0"/>
  </g>
  <defs>
    <linearGradient gradientTransform="matrix(0.0, 0.0244, -0.0031, 0.0, 27.5, 0.0)" gradientUnits="userSpaceOnUse" id="gradient0" spreadMethod="pad" x1="-819.2" x2="819.2">
      <stop offset="0.0" stop-color="#a9a9a9"/>
      <stop offset="0.3176470588235294" stop-color="#ffffff"/>
      <stop offset="1.0" stop-color="#454545"/>
    </linearGradient>
    <linearGradient gradientTransform="matrix(0.0082, 0.0203, -0.0216, 0.0039, 14.05, 0.2)" gradientUnits="userSpaceOnUse" id="gradient1" spreadMethod="pad" x1="-819.2" x2="819.2">
      <stop offset="0.01568627450980392" stop-color="#666666"/>
      <stop offset="0.3176470588235294" stop-color="#bcbcbc"/>
      <stop offset="1.0" stop-color="#000000"/>
    </linearGradient>
    <linearGradient gradientTransform="matrix(0.0179, 0.0, 0.0, 0.0366, -14.9, 0.0)" gradientUnits="userSpaceOnUse" id="gradient2" spreadMethod="pad" x1="-819.2" x2="819.2">
      <stop offset="0.0" stop-color="#000000"/>
      <stop offset="1.0" stop-color="#454545"/>
    </linearGradient>
    <linearGradient gradientTransform="matrix(-0.0135, 0.0, 0.0, -0.0328, -14.35, 0.0)" gradientUnits="userSpaceOnUse" id="gradient3" spreadMethod="pad" x1="-819.2" x2="819.2">
      <stop offset="0.0" stop-color="#000000"/>
      <stop offset="1.0" stop-color="#454545"/>
    </linearGradient>
  </defs>
</svg>
