<?xml version="1.0" encoding="UTF-8" standalone="no"?>
<svg xmlns:ffdec="https://www.free-decompiler.com/flash" xmlns:xlink="http://www.w3.org/1999/xlink" ffdec:objectType="shape" height="60.0px" width="60.0px" xmlns="http://www.w3.org/2000/svg">
  <g transform="matrix(1.0, 0.0, 0.0, 1.0, 30.0, 30.0)">
    <path d="M17.7 -26.0 Q26.0 -26.0 26.0 -17.7 L26.0 17.65 Q26.0 25.95 17.7 26.0 L-17.7 26.0 Q-26.0 25.95 -26.0 17.65 L-26.0 -17.7 Q-26.0 -26.0 -17.7 -26.0 L17.7 -26.0" fill="#677998" fill-opacity="0.050980393" fill-rule="evenodd" stroke="none"/>
    <path d="M17.7 -26.0 L-17.7 -26.0 Q-26.0 -26.0 -26.0 -17.7 L-26.0 17.65 Q-26.0 25.95 -17.7 26.0 L17.7 26.0 Q26.0 25.95 26.0 17.65 L26.0 -17.7 Q26.0 -26.0 17.7 -26.0 M18.75 -30.0 Q30.0 -30.0 30.0 -18.75 L30.0 18.75 Q30.0 30.0 18.75 30.0 L-18.75 30.0 Q-30.0 30.0 -30.0 18.75 L-30.0 -18.75 Q-30.0 -30.0 -18.75 -30.0 L18.75 -30.0" fill="#8291aa" fill-opacity="0.050980393" fill-rule="evenodd" stroke="none"/>
  </g>
</svg>
