<?xml version="1.0" encoding="UTF-8" standalone="no"?>
<svg xmlns:ffdec="https://www.free-decompiler.com/flash" xmlns:xlink="http://www.w3.org/1999/xlink" ffdec:objectType="shape" height="60.0px" width="60.0px" xmlns="http://www.w3.org/2000/svg">
  <g transform="matrix(1.0, 0.0, 0.0, 1.0, 30.0, 30.0)">
    <path d="M20.0 -20.0 L20.0 20.0 -20.0 20.0 -20.0 -20.0 20.0 -20.0" fill="#333333" fill-opacity="0.49803922" fill-rule="evenodd" stroke="none"/>
    <path d="M30.0 -30.0 L30.0 30.0 -30.0 30.0 -30.0 -30.0 30.0 -30.0 M20.0 -20.0 L-20.0 -20.0 -20.0 20.0 20.0 20.0 20.0 -20.0" fill="#000000" fill-opacity="0.49803922" fill-rule="evenodd" stroke="none"/>
    <path d="M-13.0 -13.0 L-7.0 -13.0 -7.0 -7.0 -13.0 -7.0 -13.0 -13.0" fill="#ffffff" fill-rule="evenodd" stroke="none"/>
    <path d="M-13.0 7.0 L-7.0 7.0 -7.0 13.0 -13.0 13.0 -13.0 7.0" fill="#ffffff" fill-rule="evenodd" stroke="none"/>
    <path d="M7.0 -13.0 L13.0 -13.0 13.0 -7.0 7.0 -7.0 7.0 -13.0" fill="#ffffff" fill-rule="evenodd" stroke="none"/>
    <path d="M7.0 7.0 L13.0 7.0 13.0 13.0 7.0 13.0 7.0 7.0" fill="#ffffff" fill-rule="evenodd" stroke="none"/>
  </g>
</svg>
