<?xml version="1.0" encoding="UTF-8" standalone="no"?>
<svg xmlns:ffdec="https://www.free-decompiler.com/flash" xmlns:xlink="http://www.w3.org/1999/xlink" ffdec:objectType="shape" height="120.0px" width="240.0px" xmlns="http://www.w3.org/2000/svg">
  <g transform="matrix(1.0, 0.0, 0.0, 1.0, 120.0, 60.0)">
    <path d="M116.0 -48.0 Q116.0 -56.0 108.0 -56.0 L-108.0 -56.0 Q-116.0 -56.0 -116.0 -48.0 L-116.0 48.0 Q-116.0 56.0 -108.0 56.0 L108.0 56.0 Q116.0 56.0 116.0 48.0 L116.0 -48.0 M108.0 -60.0 Q120.0 -60.0 120.0 -48.0 L120.0 48.0 Q120.0 60.0 108.0 60.0 L-108.0 60.0 Q-120.0 60.0 -120.0 48.0 L-120.0 -48.0 Q-120.0 -60.0 -108.0 -60.0 L108.0 -60.0" fill="#ffffff" fill-rule="evenodd" stroke="none"/>
    <path d="M116.0 -48.0 L116.0 48.0 Q116.0 56.0 108.0 56.0 L-108.0 56.0 Q-116.0 56.0 -116.0 48.0 L-116.0 -48.0 Q-116.0 -56.0 -108.0 -56.0 L108.0 -56.0 Q116.0 -56.0 116.0 -48.0 M108.0 48.0 L108.0 -48.0 -108.0 -48.0 -108.0 48.0 108.0 48.0" fill="url(#gradient0)" fill-rule="evenodd" stroke="none"/>
    <path d="M108.0 48.0 L-108.0 48.0 -108.0 -48.0 108.0 -48.0 108.0 48.0 M101.0 41.1 L101.0 -40.9 -101.0 -40.9 -101.0 41.1 101.0 41.1" fill="url(#gradient1)" fill-rule="evenodd" stroke="none"/>
    <path d="M101.0 41.1 L-101.0 41.1 -101.0 -40.9 101.0 -40.9 101.0 41.1" fill="#000000" fill-rule="evenodd" stroke="none"/>
    <path d="M-90.0 -30.0 L-80.0 -30.0 -80.0 -20.0 -90.0 -20.0 -90.0 -30.0" fill="#333333" fill-rule="evenodd" stroke="none"/>
    <path d="M80.0 -30.0 L90.0 -30.0 90.0 -20.0 80.0 -20.0 80.0 -30.0" fill="#333333" fill-rule="evenodd" stroke="none"/>
    <path d="M-90.0 -15.0 L-80.0 -15.0 -80.0 -5.0 -90.0 -5.0 -90.0 -15.0" fill="#333333" fill-rule="evenodd" stroke="none"/>
    <path d="M80.0 -15.0 L90.0 -15.0 90.0 -5.0 80.0 -5.0 80.0 -15.0" fill="#333333" fill-rule="evenodd" stroke="none"/>
    <path d="M-80.0 30.0 L-90.0 30.0 -90.0 20.0 -80.0 20.0 -80.0 30.0" fill="#333333" fill-rule="evenodd" stroke="none"/>
    <path d="M90.0 30.0 L80.0 30.0 80.0 20.0 90.0 20.0 90.0 30.0" fill="#333333" fill-rule="evenodd" stroke="none"/>
    <path d="M-80.0 15.0 L-90.0 15.0 -90.0 5.0 -80.0 5.0 -80.0 15.0" fill="#333333" fill-rule="evenodd" stroke="none"/>
    <path d="M90.0 15.0 L80.0 15.0 80.0 5.0 90.0 5.0 90.0 15.0" fill="#333333" fill-rule="evenodd" stroke="none"/>
    <path d="M-59.9 -25.0 L-59.9 15.0 -60.0 15.0 -60.0 -25.0 -59.9 -25.0" fill="#ffffff" fill-opacity="0.0" fill-rule="evenodd" stroke="none"/>
    <path d="M50.15 15.0 L-49.85 15.0 -49.85 -15.0 50.15 -15.0 50.15 15.0" fill="#000000" fill-rule="evenodd" stroke="none"/>
  </g>
  <defs>
    <linearGradient gradientTransform="matrix(0.0, -0.0635, 0.0732, 0.0, -64.0, 0.0)" gradientUnits="userSpaceOnUse" id="gradient0" spreadMethod="pad" x1="-819.2" x2="819.2">
      <stop offset="0.03529411764705882" stop-color="#8c8c8c"/>
      <stop offset="0.27450980392156865" stop-color="#737373"/>
      <stop offset="1.0" stop-color="#aeaeae"/>
    </linearGradient>
    <linearGradient gradientTransform="matrix(0.0, -0.0257, 0.061, 0.0, -60.0, -36.05)" gradientUnits="userSpaceOnUse" id="gradient1" spreadMethod="pad" x1="-819.2" x2="819.2">
      <stop offset="0.0" stop-color="#333333"/>
      <stop offset="1.0" stop-color="#1a1a1a"/>
    </linearGradient>
  </defs>
</svg>
