<?xml version="1.0" encoding="UTF-8" standalone="no"?>
<svg xmlns:ffdec="https://www.free-decompiler.com/flash" xmlns:xlink="http://www.w3.org/1999/xlink" ffdec:objectType="shape" height="222.0px" width="182.0px" xmlns="http://www.w3.org/2000/svg">
  <g transform="matrix(1.0, 0.0, 0.0, 1.0, 91.0, 101.0)">
    <path d="M0.0 -13.4 Q15.5 -10.05 28.0 -2.2 50.0 11.6 50.0 31.1 L50.0 100.0 -50.0 100.0 -50.0 31.1 Q-50.0 11.6 -28.05 -2.2 -15.55 -10.05 0.0 -13.4" fill="#000000" fill-rule="evenodd" stroke="none"/>
    <path d="M50.0 31.1 Q50.0 11.6 28.0 -2.2 15.5 -10.05 0.0 -13.4 L0.0 -56.65 Q21.7 -51.95 39.25 -40.95 70.0 -21.65 70.0 5.65 L50.0 31.1" fill="url(#gradient0)" fill-rule="evenodd" stroke="none"/>
    <path d="M0.0 -56.65 L0.0 -13.4 Q-15.55 -10.05 -28.05 -2.2 -50.0 11.6 -50.0 31.1 L-70.0 5.6 Q-70.0 -21.7 -39.3 -40.95 -21.75 -51.95 0.0 -56.65" fill="url(#gradient1)" fill-rule="evenodd" stroke="none"/>
    <path d="M70.0 5.65 Q70.0 -21.65 39.25 -40.95 21.7 -51.95 0.0 -56.65 L0.0 -100.0 Q27.9 -93.95 50.45 -79.8 90.0 -55.0 90.0 -19.9 L70.0 5.65" fill="url(#gradient2)" fill-rule="evenodd" stroke="none"/>
    <path d="M0.0 -100.0 L0.0 -56.65 Q-21.75 -51.95 -39.3 -40.95 -70.0 -21.7 -70.0 5.6 L-90.0 -19.9 Q-90.0 -55.0 -50.5 -79.8 -27.9 -93.95 0.0 -100.0" fill="url(#gradient3)" fill-rule="evenodd" stroke="none"/>
    <path d="M-90.0 -19.9 L-70.0 5.6 -70.0 5.65 -70.0 110.05 -90.0 120.0 -90.0 -19.9" fill="url(#gradient4)" fill-rule="evenodd" stroke="none"/>
    <path d="M-50.0 31.1 L-50.0 100.0 -70.0 110.05 -70.0 5.65 -70.0 5.6 -50.0 31.1" fill="url(#gradient5)" fill-rule="evenodd" stroke="none"/>
    <path d="M-50.0 100.0 L50.0 100.0 70.0 110.0 70.0 110.05 -70.0 110.05 -50.0 100.0" fill="url(#gradient6)" fill-rule="evenodd" stroke="none"/>
    <path d="M70.05 110.0 L90.0 120.0 -90.0 120.0 -70.0 110.05 70.0 110.05 70.05 110.0" fill="url(#gradient7)" fill-rule="evenodd" stroke="none"/>
    <path d="M50.0 31.1 L70.0 5.65 70.0 110.0 50.0 100.0 50.0 31.1" fill="url(#gradient8)" fill-rule="evenodd" stroke="none"/>
    <path d="M70.05 110.0 L70.0 110.0 70.0 5.65 90.0 -19.9 90.0 120.0 70.05 110.0" fill="url(#gradient9)" fill-rule="evenodd" stroke="none"/>
    <path d="M0.0 -13.4 Q15.5 -10.05 28.0 -2.2 50.0 11.6 50.0 31.1 L70.0 5.65 Q70.0 -21.65 39.25 -40.95 21.7 -51.95 0.0 -56.65 L0.0 -13.4 Q-15.55 -10.05 -28.05 -2.2 -50.0 11.6 -50.0 31.1 L-50.0 100.0 50.0 100.0 50.0 31.1 M0.0 -100.0 L0.0 -56.65 Q-21.75 -51.95 -39.3 -40.95 -70.0 -21.7 -70.0 5.6 L-50.0 31.1 M-90.0 -19.9 L-70.0 5.6 -70.0 5.65 -70.0 110.05 -90.0 120.0 M70.0 110.0 L70.05 110.0 90.0 120.0 M90.0 -19.9 L70.0 5.65 70.0 110.0 50.0 100.0 M70.0 110.05 L-70.0 110.05 -50.0 100.0 M70.0 110.05 L70.0 110.0" fill="none" stroke="#7b5f2b" stroke-linecap="round" stroke-linejoin="round" stroke-width="2.0"/>
  </g>
  <defs>
    <linearGradient gradientTransform="matrix(-0.0326, -0.0326, 0.0214, -0.0214, 34.4, -14.0)" gradientUnits="userSpaceOnUse" id="gradient0" spreadMethod="pad" x1="-819.2" x2="819.2">
      <stop offset="0.18823529411764706" stop-color="#ad9056"/>
      <stop offset="1.0" stop-color="#8a6e31"/>
    </linearGradient>
    <linearGradient gradientTransform="matrix(0.0373, -0.0214, 0.0174, 0.0303, -34.55, -10.8)" gradientUnits="userSpaceOnUse" id="gradient1" spreadMethod="pad" x1="-819.2" x2="819.2">
      <stop offset="0.18823529411764706" stop-color="#ad9056"/>
      <stop offset="1.0" stop-color="#8a6e31"/>
    </linearGradient>
    <linearGradient gradientTransform="matrix(-0.0428, -0.0428, 0.0238, -0.0238, 44.7, -50.9)" gradientUnits="userSpaceOnUse" id="gradient2" spreadMethod="pad" x1="-819.2" x2="819.2">
      <stop offset="0.18823529411764706" stop-color="#c7a863"/>
      <stop offset="1.0" stop-color="#a3833a"/>
    </linearGradient>
    <linearGradient gradientTransform="matrix(0.0449, -0.0449, 0.0238, 0.0238, -43.6, -52.1)" gradientUnits="userSpaceOnUse" id="gradient3" spreadMethod="pad" x1="-819.2" x2="819.2">
      <stop offset="0.18823529411764706" stop-color="#ccb472"/>
      <stop offset="1.0" stop-color="#a3833a"/>
    </linearGradient>
    <linearGradient gradientTransform="matrix(0.0, 0.0677, -0.0122, 0.0, -80.0, 55.45)" gradientUnits="userSpaceOnUse" id="gradient4" spreadMethod="pad" x1="-819.2" x2="819.2">
      <stop offset="0.18823529411764706" stop-color="#c7a863"/>
      <stop offset="1.0" stop-color="#a3833a"/>
    </linearGradient>
    <linearGradient gradientTransform="matrix(0.0, 0.0394, -0.0122, 0.0, -60.0, 60.2)" gradientUnits="userSpaceOnUse" id="gradient5" spreadMethod="pad" x1="-819.2" x2="819.2">
      <stop offset="0.18823529411764706" stop-color="#ad9056"/>
      <stop offset="1.0" stop-color="#8a6e31"/>
    </linearGradient>
    <linearGradient gradientTransform="matrix(0.0854, 0.0, 0.0, 0.0061, 0.0, 105.0)" gradientUnits="userSpaceOnUse" id="gradient6" spreadMethod="pad" x1="-819.2" x2="819.2">
      <stop offset="0.0" stop-color="#4a3a1a"/>
      <stop offset="0.5098039215686274" stop-color="#8a6e31"/>
      <stop offset="1.0" stop-color="#645024"/>
    </linearGradient>
    <linearGradient gradientTransform="matrix(0.1099, 0.0, 0.0, 0.0061, 0.0, 115.0)" gradientUnits="userSpaceOnUse" id="gradient7" spreadMethod="pad" x1="-819.2" x2="819.2">
      <stop offset="0.0" stop-color="#645024"/>
      <stop offset="0.5098039215686274" stop-color="#a3833a"/>
      <stop offset="1.0" stop-color="#645024"/>
    </linearGradient>
    <linearGradient gradientTransform="matrix(0.0, 0.0422, -0.0122, 0.0, 60.0, 65.55)" gradientUnits="userSpaceOnUse" id="gradient8" spreadMethod="pad" x1="-819.2" x2="819.2">
      <stop offset="0.18823529411764706" stop-color="#ad9056"/>
      <stop offset="1.0" stop-color="#8a6e31"/>
    </linearGradient>
    <linearGradient gradientTransform="matrix(0.0, 0.0714, -0.0122, 0.0, 80.0, 53.5)" gradientUnits="userSpaceOnUse" id="gradient9" spreadMethod="pad" x1="-819.2" x2="819.2">
      <stop offset="0.18823529411764706" stop-color="#c7a863"/>
      <stop offset="1.0" stop-color="#a3833a"/>
    </linearGradient>
  </defs>
</svg>
