<?xml version="1.0" encoding="UTF-8" standalone="no"?>
<svg xmlns:ffdec="https://www.free-decompiler.com/flash" xmlns:xlink="http://www.w3.org/1999/xlink" ffdec:objectType="shape" height="243.95px" width="224.0px" xmlns="http://www.w3.org/2000/svg">
  <g transform="matrix(1.0, 0.0, 0.0, 1.0, 111.95, 121.95)">
    <path d="M-109.95 120.0 L-109.95 -22.1 Q-109.95 -64.95 -61.7 -95.3 L-53.75 -100.0 Q-44.8 -105.0 -35.15 -109.0 -18.55 -115.95 0.05 -119.95 18.55 -115.95 35.2 -109.0 44.8 -105.0 53.75 -100.0 L61.7 -95.3 Q110.05 -64.95 110.05 -22.1 L110.05 120.0 90.0 120.0 90.0 -19.9 Q90.0 -55.0 50.45 -79.8 27.9 -93.95 0.0 -100.0 -27.9 -93.95 -50.5 -79.8 -90.0 -55.0 -90.0 -19.9 L-90.0 120.0 -109.95 120.0" fill="url(#gradient0)" fill-rule="evenodd" stroke="none"/>
    <path d="M-109.95 120.0 L-109.95 -22.1 Q-109.95 -64.95 -61.7 -95.3 L-53.75 -100.0 Q-44.8 -105.0 -35.15 -109.0 -18.55 -115.95 0.05 -119.95 18.55 -115.95 35.2 -109.0 44.8 -105.0 53.75 -100.0 L61.7 -95.3 Q110.05 -64.95 110.05 -22.1 L110.05 120.0" fill="none" stroke="#751e00" stroke-linecap="round" stroke-linejoin="round" stroke-width="4.0"/>
    <path d="M90.0 120.0 L90.0 -19.9 Q90.0 -55.0 50.45 -79.8 27.9 -93.95 0.0 -100.0 -27.9 -93.95 -50.5 -79.8 -90.0 -55.0 -90.0 -19.9 L-90.0 120.0" fill="none" stroke="#751e00" stroke-linecap="round" stroke-linejoin="round" stroke-width="2.0"/>
  </g>
  <defs>
    <linearGradient gradientTransform="matrix(0.0, 0.1428, -0.1343, 0.0, 0.05, 3.95)" gradientUnits="userSpaceOnUse" id="gradient0" spreadMethod="pad" x1="-819.2" x2="819.2">
      <stop offset="0.18823529411764706" stop-color="#cc3300"/>
      <stop offset="1.0" stop-color="#871c01"/>
    </linearGradient>
  </defs>
</svg>
