<?xml version="1.0" encoding="UTF-8" standalone="no"?>
<svg xmlns:ffdec="https://www.free-decompiler.com/flash" xmlns:xlink="http://www.w3.org/1999/xlink" ffdec:objectType="shape" height="242.0px" width="239.95px" xmlns="http://www.w3.org/2000/svg">
  <g transform="matrix(1.0, 0.0, 0.0, 1.0, 119.95, 120.0)">
    <path d="M-50.0 -79.55 L-50.0 -90.0 -20.0 -120.0 20.0 -120.0 50.0 -90.0 50.0 -79.5 Q27.2 -90.0 0.0 -90.0 -27.15 -90.0 -50.0 -79.55" fill="url(#gradient0)" fill-rule="evenodd" stroke="none"/>
    <path d="M50.0 -79.5 Q68.9 -70.85 84.8 -54.95 118.9 -20.85 120.0 26.9 L120.0 32.8 Q119.0 80.7 84.8 114.8 L79.3 120.0 44.2 120.0 Q52.5 115.85 60.1 110.0 L66.1 105.0 70.7 100.7 70.7 100.65 Q100.0 71.4 100.0 30.0 100.0 -11.4 70.75 -40.7 L70.7 -40.8 Q61.0 -50.45 50.0 -56.9 27.75 -70.0 0.0 -70.0 -27.7 -70.0 -50.0 -56.95 -61.05 -50.5 -70.75 -40.8 L-70.75 -40.75 Q-100.0 -11.45 -100.0 30.0 -100.0 71.4 -70.75 100.65 L-70.7 100.75 -66.15 105.0 Q-63.2 107.65 -60.15 110.0 -52.55 115.85 -44.2 120.0 L-79.4 120.0 -84.9 114.8 Q-119.0 80.7 -119.95 32.8 L-119.95 26.9 Q-118.9 -20.85 -84.9 -54.95 -68.95 -70.85 -50.0 -79.55 -27.15 -90.0 0.0 -90.0 27.2 -90.0 50.0 -79.5" fill="url(#gradient1)" fill-rule="evenodd" stroke="none"/>
    <path d="M44.2 120.0 Q52.5 115.85 60.1 110.0 L66.1 105.0 70.7 100.7 70.7 100.65 Q100.0 71.4 100.0 30.0 100.0 -11.4 70.75 -40.7 L70.7 -40.8 Q61.0 -50.45 50.0 -56.9 27.75 -70.0 0.0 -70.0 -27.7 -70.0 -50.0 -56.95 -61.05 -50.5 -70.75 -40.8 M-70.75 -40.75 Q-100.0 -11.45 -100.0 30.0 -100.0 71.4 -70.75 100.65 L-70.7 100.75 -66.15 105.0 Q-63.2 107.65 -60.15 110.0 -52.55 115.85 -44.2 120.0" fill="none" stroke="#333333" stroke-linecap="butt" stroke-linejoin="miter-clip" stroke-miterlimit="3.0" stroke-width="4.0"/>
    <path d="M-70.75 -40.8 L-70.75 -40.75" fill="none" stroke="#333333" stroke-linecap="butt" stroke-linejoin="miter-clip" stroke-miterlimit="3.0" stroke-width="2.0"/>
  </g>
  <defs>
    <radialGradient cx="0" cy="0" gradientTransform="matrix(0.0824, 0.0, 0.0, 0.0824, -4.0, -120.0)" gradientUnits="userSpaceOnUse" id="gradient0" r="819.2" spreadMethod="pad">
      <stop offset="0.18823529411764706" stop-color="#b3b3b3"/>
      <stop offset="1.0" stop-color="#666666"/>
    </radialGradient>
    <linearGradient gradientTransform="matrix(0.0, -0.1111, 0.1465, 0.0, 0.0, 23.95)" gradientUnits="userSpaceOnUse" id="gradient1" spreadMethod="pad" x1="-819.2" x2="819.2">
      <stop offset="0.0" stop-color="#b3b3b3"/>
      <stop offset="0.5215686274509804" stop-color="#666666"/>
      <stop offset="1.0" stop-color="#b3b3b3"/>
    </linearGradient>
  </defs>
</svg>
