<?xml version="1.0" encoding="UTF-8" standalone="no"?>
<svg xmlns:ffdec="https://www.free-decompiler.com/flash" xmlns:xlink="http://www.w3.org/1999/xlink" ffdec:objectType="shape" height="154.0px" width="72.0px" xmlns="http://www.w3.org/2000/svg">
  <g transform="matrix(1.0, 0.0, 0.0, 1.0, 0.0, 57.0)">
    <path d="M20.0 -35.0 L20.0 -5.0 50.0 -5.0 50.0 -35.0 20.0 -35.0 50.0 -35.0 50.0 -5.0 20.0 -5.0 20.0 -35.0 M70.0 95.0 L0.0 95.0 0.0 -55.0 70.0 -55.0 70.0 95.0 M50.0 75.0 L50.0 45.0 20.0 45.0 20.0 75.0 50.0 75.0 20.0 75.0 20.0 45.0 50.0 45.0 50.0 75.0 M50.0 35.0 L50.0 5.0 20.0 5.0 20.0 35.0 50.0 35.0 20.0 35.0 20.0 5.0 50.0 5.0 50.0 35.0 M60.0 -45.0 L10.0 -45.0 10.0 85.0 60.0 85.0 60.0 -45.0 60.0 85.0 10.0 85.0 10.0 -45.0 60.0 -45.0" fill="url(#gradient0)" fill-rule="evenodd" stroke="none"/>
    <path d="M20.0 -35.0 L50.0 -35.0 50.0 -5.0 20.0 -5.0 20.0 -35.0 M60.0 -45.0 L60.0 85.0 10.0 85.0 10.0 -45.0 60.0 -45.0 M50.0 35.0 L20.0 35.0 20.0 5.0 50.0 5.0 50.0 35.0 M50.0 75.0 L20.0 75.0 20.0 45.0 50.0 45.0 50.0 75.0" fill="none" stroke="#666666" stroke-linecap="round" stroke-linejoin="round" stroke-width="1.0"/>
    <path d="M70.0 -55.0 L70.0 95.0" fill="none" stroke="#000000" stroke-linecap="round" stroke-linejoin="round" stroke-width="4.0"/>
    <path d="M50.0 15.0 L60.0 15.0 60.0 18.35 56.7 18.35 56.7 21.95 Q57.7 22.3 58.55 23.15 60.0 24.6 60.0 26.65 60.0 28.75 58.55 30.2 57.7 31.05 56.7 31.4 L56.7 31.95 Q57.7 32.3 58.55 33.15 60.0 34.6 60.0 36.7 60.0 42.9 58.55 47.3 57.05 51.7 55.0 51.7 52.95 51.7 51.5 47.3 50.0 42.9 50.0 36.7 50.0 34.6 51.5 33.15 52.3 32.3 53.35 31.95 L53.35 31.4 Q52.3 31.05 51.5 30.2 50.0 28.75 50.0 26.65 50.0 24.6 51.5 23.15 52.3 22.3 53.35 21.95 L53.35 18.35 50.0 18.35 50.0 15.0" fill="#666666" fill-rule="evenodd" stroke="none"/>
    <path d="M50.0 15.0 L60.0 15.0 60.0 18.35 56.7 18.35 56.7 21.95 Q57.7 22.3 58.55 23.15 60.0 24.6 60.0 26.65 60.0 28.75 58.55 30.2 57.7 31.05 56.7 31.4 L56.7 31.95 Q57.7 32.3 58.55 33.15 60.0 34.6 60.0 36.7 60.0 42.9 58.55 47.3 57.05 51.7 55.0 51.7 52.95 51.7 51.5 47.3 50.0 42.9 50.0 36.7 50.0 34.6 51.5 33.15 52.3 32.3 53.35 31.95 L53.35 31.4 Q52.3 31.05 51.5 30.2 50.0 28.75 50.0 26.65 50.0 24.6 51.5 23.15 52.3 22.3 53.35 21.95 L53.35 18.35 50.0 18.35 50.0 15.0 Z" fill="none" stroke="#999999" stroke-linecap="round" stroke-linejoin="round" stroke-width="1.0"/>
  </g>
  <defs>
    <linearGradient gradientTransform="matrix(0.0, 0.0815, -0.0854, 0.0, 70.0, 24.25)" gradientUnits="userSpaceOnUse" id="gradient0" spreadMethod="pad" x1="-819.2" x2="819.2">
      <stop offset="0.0" stop-color="#333333"/>
      <stop offset="1.0" stop-color="#000000"/>
    </linearGradient>
  </defs>
</svg>
