<?xml version="1.0" encoding="UTF-8" standalone="no"?>
<svg xmlns:ffdec="https://www.free-decompiler.com/flash" xmlns:xlink="http://www.w3.org/1999/xlink" ffdec:objectType="shape" height="204.0px" width="83.05px" xmlns="http://www.w3.org/2000/svg">
  <g transform="matrix(1.0, 0.0, 0.0, 1.0, 82.0, 82.0)">
    <path d="M0.0 10.0 L0.0 80.0 Q-9.65 79.85 -20.0 81.75 -29.1 83.4 -38.8 86.65 -39.0 84.5 -40.0 82.75 -40.85 81.2 -42.3 80.0 -46.15 83.3 -45.85 86.65 L-49.4 83.3 Q-57.4 84.1 -59.95 90.0 -57.4 95.85 -49.4 96.65 L-45.85 93.3 Q-46.15 96.65 -42.3 100.0 -40.85 98.75 -40.0 97.2 -39.0 95.45 -38.8 93.3 -29.1 96.55 -20.0 98.2 L-20.0 120.0 -40.0 120.0 -60.0 120.0 -80.0 120.0 -80.0 -80.0 Q-69.5 -80.0 -60.0 -78.5 -49.4 -76.9 -40.0 -73.45 -31.2 -70.2 -23.45 -65.35 L-20.0 -63.05 Q0.0 -49.1 0.0 -30.0 L0.0 -10.0 Q-9.65 -10.15 -20.0 -8.25 -29.1 -6.6 -38.8 -3.35 -39.0 -5.5 -40.0 -7.25 -40.85 -8.8 -42.3 -10.0 -46.15 -6.7 -45.85 -3.35 L-49.4 -6.7 Q-57.4 -5.9 -59.95 0.0 -57.4 5.85 -49.4 6.65 L-45.85 3.3 Q-46.15 6.65 -42.3 10.0 -40.85 8.75 -40.0 7.2 -39.0 5.45 -38.8 3.3 -29.1 6.55 -20.0 8.2 -9.65 10.1 0.0 10.0 M0.0 100.0 L0.0 120.0 -20.0 120.0 -20.0 98.2 Q-9.65 100.1 0.0 100.0 M-40.0 -73.45 L-40.0 -7.25 -40.0 -73.45 M-20.0 -8.25 L-20.0 -63.05 -20.0 -8.25 M-40.0 7.2 L-40.0 82.75 -40.0 7.2 M-40.0 120.0 L-40.0 97.2 -40.0 120.0 M-20.0 81.75 L-20.0 8.2 -20.0 81.75 M-60.0 120.0 L-60.0 -78.5 -60.0 120.0" fill="url(#gradient0)" fill-rule="evenodd" stroke="none"/>
    <path d="M0.0 -10.0 L0.05 -10.0 0.05 10.0 0.0 10.0 Q-9.65 10.1 -20.0 8.2 -29.1 6.55 -38.8 3.3 -39.0 5.45 -40.0 7.2 -40.85 8.75 -42.3 10.0 -46.15 6.65 -45.85 3.3 L-49.4 6.65 Q-57.4 5.85 -59.95 0.0 -57.4 -5.9 -49.4 -6.7 L-45.85 -3.35 Q-46.15 -6.7 -42.3 -10.0 -40.85 -8.8 -40.0 -7.25 -39.0 -5.5 -38.8 -3.35 -29.1 -6.6 -20.0 -8.25 -9.65 -10.15 0.0 -10.0 M-4.5 -4.1 Q-5.65 -5.2 -6.15 -5.2 L-6.95 -5.1 -5.25 -3.0 -3.55 -1.5 Q-3.1 -1.7 -3.0 -2.05 -3.25 -2.95 -4.5 -4.1 M-11.7 -5.65 Q-12.3 -5.65 -12.55 -5.2 L-9.6 -1.7 Q-7.4 1.05 -7.4 1.8 -7.4 2.9 -7.65 3.15 -6.75 3.05 -6.25 2.35 -6.25 0.65 -8.3 -2.45 -10.4 -5.65 -11.7 -5.65" fill="url(#gradient1)" fill-rule="evenodd" stroke="none"/>
    <path d="M-11.7 -5.65 Q-10.4 -5.65 -8.3 -2.45 -6.25 0.65 -6.25 2.35 -6.75 3.05 -7.65 3.15 -7.4 2.9 -7.4 1.8 -7.4 1.05 -9.6 -1.7 L-12.55 -5.2 Q-12.3 -5.65 -11.7 -5.65 M-4.5 -4.1 Q-3.25 -2.95 -3.0 -2.05 -3.1 -1.7 -3.55 -1.5 L-5.25 -3.0 -6.95 -5.1 -6.15 -5.2 Q-5.65 -5.2 -4.5 -4.1 M-26.95 92.0 Q-26.95 91.35 -23.45 90.15 L-19.85 89.1 Q-16.95 89.1 -16.5 89.55 -17.1 90.7 -21.0 91.5 L-26.3 92.45 Q-26.95 93.15 -26.95 92.0 M-9.95 94.65 L-9.9 95.15 Q-9.9 95.4 -10.55 95.4 -12.8 95.4 -13.9 93.95 L-13.0 93.85 Q-10.75 93.85 -9.95 94.65" fill="#737373" fill-rule="evenodd" stroke="none"/>
    <path d="M0.0 80.0 L0.05 80.0 0.05 100.0 0.0 100.0 Q-9.65 100.1 -20.0 98.2 -29.1 96.55 -38.8 93.3 -39.0 95.45 -40.0 97.2 -40.85 98.75 -42.3 100.0 -46.15 96.65 -45.85 93.3 L-49.4 96.65 Q-57.4 95.85 -59.95 90.0 -57.4 84.1 -49.4 83.3 L-45.85 86.65 Q-46.15 83.3 -42.3 80.0 -40.85 81.2 -40.0 82.75 -39.0 84.5 -38.8 86.65 -29.1 83.4 -20.0 81.75 -9.65 79.85 0.0 80.0 M-9.95 94.65 Q-10.75 93.85 -13.0 93.85 L-13.9 93.95 Q-12.8 95.4 -10.55 95.4 -9.9 95.4 -9.9 95.15 L-9.95 94.65 M-26.95 92.0 Q-26.95 93.15 -26.3 92.45 L-21.0 91.5 Q-17.1 90.7 -16.5 89.55 -16.95 89.1 -19.85 89.1 L-23.45 90.15 Q-26.95 91.35 -26.95 92.0" fill="url(#gradient2)" fill-rule="evenodd" stroke="none"/>
    <path d="M0.0 -10.0 L0.05 -10.0 M0.05 10.0 L0.0 10.0 Q-9.65 10.1 -20.0 8.2 -29.1 6.55 -38.8 3.3 -39.0 5.45 -40.0 7.2 -40.85 8.75 -42.3 10.0 -46.15 6.65 -45.85 3.3 L-49.4 6.65 Q-57.4 5.85 -59.95 0.0 -57.4 -5.9 -49.4 -6.7 L-45.85 -3.35 Q-46.15 -6.7 -42.3 -10.0 -40.85 -8.8 -40.0 -7.25 -39.0 -5.5 -38.8 -3.35 -29.1 -6.6 -20.0 -8.25 -9.65 -10.15 0.0 -10.0 M0.0 80.0 L0.05 80.0 M0.05 100.0 L0.0 100.0 Q-9.65 100.1 -20.0 98.2 -29.1 96.55 -38.8 93.3 -39.0 95.45 -40.0 97.2 -40.85 98.75 -42.3 100.0 -46.15 96.65 -45.85 93.3 L-49.4 96.65 Q-57.4 95.85 -59.95 90.0 -57.4 84.1 -49.4 83.3 L-45.85 86.65 Q-46.15 83.3 -42.3 80.0 -40.85 81.2 -40.0 82.75 -39.0 84.5 -38.8 86.65 -29.1 83.4 -20.0 81.75 -9.65 79.85 0.0 80.0" fill="none" stroke="#777777" stroke-linecap="round" stroke-linejoin="round" stroke-width="2.0"/>
    <path d="M-20.0 -63.05 L-20.0 -8.25 M-40.0 -7.25 L-40.0 -73.45 M-40.0 82.75 L-40.0 7.2 M-40.0 97.2 L-40.0 120.0 M-20.0 8.2 L-20.0 81.75 M-20.0 120.0 L-20.0 98.2 M-60.0 -78.5 L-60.0 120.0" fill="none" stroke="#402e17" stroke-linecap="butt" stroke-linejoin="miter-clip" stroke-miterlimit="3.0" stroke-opacity="0.5019608" stroke-width="2.0"/>
    <path d="M-80.0 120.0 L-80.0 -80.0" fill="none" stroke="#000000" stroke-linecap="butt" stroke-linejoin="miter-clip" stroke-miterlimit="3.0" stroke-width="4.0"/>
    <path d="M-62.0 44.2 L-62.0 40.0 -58.0 40.0 -58.0 44.2 Q-55.15 44.75 -52.95 46.95 -50.0 49.85 -50.0 54.0 -50.0 58.15 -52.95 61.05 -55.85 64.0 -60.0 64.0 -64.15 64.0 -67.05 61.05 -70.0 58.15 -70.0 54.0 -70.0 49.85 -67.05 46.95 -64.85 44.75 -62.0 44.2 M-59.8 48.0 L-60.15 48.0 -62.0 48.0 -60.15 48.0 Q-62.55 48.05 -64.25 49.75 -66.0 51.5 -66.0 54.0 -66.0 56.5 -64.25 58.25 -62.5 60.0 -60.0 60.0 -57.55 60.0 -55.75 58.25 -54.0 56.5 -54.0 54.0 -54.0 51.5 -55.75 49.75 -57.45 48.05 -59.8 48.0 L-58.0 48.0 -59.8 48.0" fill="url(#gradient3)" fill-rule="evenodd" stroke="none"/>
    <path d="M-62.0 44.2 L-62.0 40.0 -58.0 40.0 -58.0 44.2 Q-55.15 44.75 -52.95 46.95 -50.0 49.85 -50.0 54.0 -50.0 58.15 -52.95 61.05 -55.85 64.0 -60.0 64.0 -64.15 64.0 -67.05 61.05 -70.0 58.15 -70.0 54.0 -70.0 49.85 -67.05 46.95 -64.85 44.75 -62.0 44.2 M-60.15 48.0 L-59.8 48.0 -58.0 48.0 M-60.15 48.0 L-62.0 48.0 M-59.8 48.0 Q-57.45 48.05 -55.75 49.75 -54.0 51.5 -54.0 54.0 -54.0 56.5 -55.75 58.25 -57.55 60.0 -60.0 60.0 -62.5 60.0 -64.25 58.25 -66.0 56.5 -66.0 54.0 -66.0 51.5 -64.25 49.75 -62.55 48.05 -60.15 48.0" fill="none" stroke="#999999" stroke-linecap="round" stroke-linejoin="round" stroke-width="1.0"/>
  </g>
  <defs>
    <linearGradient gradientTransform="matrix(0.0164, 0.1059, -0.0618, 0.0096, -43.45, 21.4)" gradientUnits="userSpaceOnUse" id="gradient0" spreadMethod="pad" x1="-819.2" x2="819.2">
      <stop offset="0.0" stop-color="#9e7a3f"/>
      <stop offset="1.0" stop-color="#523e1e"/>
    </linearGradient>
    <linearGradient gradientTransform="matrix(0.0366, 0.0, 0.0, 0.0122, -29.95, 0.0)" gradientUnits="userSpaceOnUse" id="gradient1" spreadMethod="pad" x1="-819.2" x2="819.2">
      <stop offset="0.0" stop-color="#666666"/>
      <stop offset="1.0" stop-color="#333333"/>
    </linearGradient>
    <linearGradient gradientTransform="matrix(0.0366, 0.0, 0.0, 0.0122, -29.95, 90.0)" gradientUnits="userSpaceOnUse" id="gradient2" spreadMethod="pad" x1="-819.2" x2="819.2">
      <stop offset="0.0" stop-color="#666666"/>
      <stop offset="1.0" stop-color="#333333"/>
    </linearGradient>
    <linearGradient gradientTransform="matrix(0.0, 0.0146, -0.0122, 0.0, -60.0, 52.0)" gradientUnits="userSpaceOnUse" id="gradient3" spreadMethod="pad" x1="-819.2" x2="819.2">
      <stop offset="0.0" stop-color="#666666"/>
      <stop offset="1.0" stop-color="#333333"/>
    </linearGradient>
  </defs>
</svg>
