<?xml version="1.0" encoding="UTF-8" standalone="no"?>
<svg xmlns:ffdec="https://www.free-decompiler.com/flash" xmlns:xlink="http://www.w3.org/1999/xlink" ffdec:objectType="shape" height="194.0px" width="72.0px" xmlns="http://www.w3.org/2000/svg">
  <g transform="matrix(1.0, 0.0, 0.0, 1.0, 72.0, 97.0)">
    <path d="M-10.0 -95.0 L0.0 -95.0 0.0 95.0 -10.0 95.0 -10.0 -95.0 -10.0 95.0 -30.0 95.0 -50.0 95.0 -70.0 95.0 -70.0 -95.0 -50.0 -95.0 -30.0 -95.0 -10.0 -95.0 M-20.75 -78.0 L-21.7 -77.95 -21.7 -66.45 -21.45 -66.0 -20.75 -66.0 Q-20.45 -67.95 -20.45 -72.1 -20.45 -76.2 -20.75 -78.0 M-40.0 -65.0 L-40.0 -55.0 -30.0 -55.0 -30.0 -65.0 -40.0 -65.0 M-30.0 -65.0 L-30.0 -95.0 -30.0 -65.0 M-64.5 -62.5 L-64.0 -62.75 -63.95 -67.7 Q-63.95 -71.0 -64.25 -72.5 L-65.2 -72.45 -65.2 -62.75 -64.5 -62.5 M-45.0 -3.7 L-45.0 -15.05 -50.0 -15.05 -55.0 -15.05 -55.0 -3.7 -57.1 -2.1 Q-60.0 0.85 -60.0 5.0 -60.0 9.15 -57.1 12.05 -56.1 13.05 -55.0 13.7 L-55.0 24.95 -50.0 24.95 -45.0 24.95 -45.0 13.7 -42.95 12.05 Q-40.0 9.15 -40.0 5.0 -40.0 0.85 -42.95 -2.1 L-45.0 -3.7 M-50.0 95.0 L-50.0 24.95 -50.0 95.0 M-15.45 -7.0 Q-15.45 -13.45 -16.25 -14.5 L-17.0 -14.65 Q-17.2 -14.65 -17.2 -13.9 L-16.45 -0.5 -15.5 -0.7 -15.45 -7.0 M-50.0 -15.05 L-50.0 -95.0 -50.0 -15.05 M-40.0 55.0 L-40.0 65.0 -30.0 65.0 -30.0 55.0 -40.0 55.0 M-30.0 55.0 L-30.0 -55.0 -30.0 55.0 M-30.0 95.0 L-30.0 65.0 -30.0 95.0" fill="url(#gradient0)" fill-rule="evenodd" stroke="none"/>
    <path d="M-20.75 -78.0 Q-20.45 -76.2 -20.45 -72.1 -20.45 -67.95 -20.75 -66.0 L-21.45 -66.0 -21.7 -66.45 -21.7 -77.95 -20.75 -78.0 M-64.5 -62.5 L-65.2 -62.75 -65.2 -72.45 -64.25 -72.5 Q-63.95 -71.0 -63.95 -67.7 L-64.0 -62.75 -64.5 -62.5 M-15.45 -7.0 L-15.5 -0.7 -16.45 -0.5 -17.2 -13.9 Q-17.2 -14.65 -17.0 -14.65 L-16.25 -14.5 Q-15.45 -13.45 -15.45 -7.0" fill="#473110" fill-rule="evenodd" stroke="none"/>
    <path d="M-40.0 -65.0 L-30.0 -65.0 -30.0 -55.0 -40.0 -55.0 -40.0 -65.0" fill="#666666" fill-rule="evenodd" stroke="none"/>
    <path d="M-55.0 -3.7 L-55.0 -15.05 -50.0 -15.05 -45.0 -15.05 -45.0 -3.7 Q-47.2 -5.0 -50.0 -5.0 -52.75 -5.0 -55.0 -3.7 M-45.0 13.7 L-45.0 24.95 -50.0 24.95 -55.0 24.95 -55.0 13.7 Q-52.75 15.0 -50.0 15.0 -47.2 15.0 -45.0 13.7 M-40.0 55.0 L-30.0 55.0 -30.0 65.0 -40.0 65.0 -40.0 55.0" fill="#333333" fill-rule="evenodd" stroke="none"/>
    <path d="M-55.0 -3.7 Q-52.75 -5.0 -50.0 -5.0 -47.2 -5.0 -45.0 -3.7 L-42.95 -2.1 Q-40.0 0.85 -40.0 5.0 -40.0 9.15 -42.95 12.05 L-45.0 13.7 Q-47.2 15.0 -50.0 15.0 -52.75 15.0 -55.0 13.7 -56.1 13.05 -57.1 12.05 -60.0 9.15 -60.0 5.0 -60.0 0.85 -57.1 -2.1 L-55.0 -3.7" fill="url(#gradient1)" fill-rule="evenodd" stroke="none"/>
    <path d="M-40.0 -65.0 L-40.0 -55.0 -30.0 -55.0 -30.0 -65.0 -40.0 -65.0" fill="none" stroke="#888888" stroke-linecap="round" stroke-linejoin="miter-clip" stroke-miterlimit="3.0" stroke-width="2.0"/>
    <path d="M-10.0 -95.0 L-10.0 95.0 M-30.0 -95.0 L-30.0 -65.0 M-50.0 24.95 L-50.0 95.0 M-50.0 -95.0 L-50.0 -15.05 M-30.0 65.0 L-30.0 95.0 M-30.0 -55.0 L-30.0 55.0" fill="none" stroke="#3d2a0e" stroke-linecap="butt" stroke-linejoin="round" stroke-width="2.0"/>
    <path d="M-45.0 -3.7 L-45.0 -15.05 -50.0 -15.05 -55.0 -15.05 -55.0 -3.7 Q-52.75 -5.0 -50.0 -5.0 -47.2 -5.0 -45.0 -3.7 L-42.95 -2.1 Q-40.0 0.85 -40.0 5.0 -40.0 9.15 -42.95 12.05 L-45.0 13.7 -45.0 24.95 -50.0 24.95 -55.0 24.95 -55.0 13.7 Q-52.75 15.0 -50.0 15.0 -47.2 15.0 -45.0 13.7 M-55.0 -3.7 L-57.1 -2.1 Q-60.0 0.85 -60.0 5.0 -60.0 9.15 -57.1 12.05 -56.1 13.05 -55.0 13.7 M-40.0 55.0 L-40.0 65.0 -30.0 65.0 -30.0 55.0 -40.0 55.0" fill="none" stroke="#666666" stroke-linecap="round" stroke-linejoin="miter-clip" stroke-miterlimit="3.0" stroke-width="2.0"/>
    <path d="M-70.0 95.0 L-70.0 -95.0" fill="none" stroke="#000000" stroke-linecap="butt" stroke-linejoin="round" stroke-width="4.0"/>
  </g>
  <defs>
    <linearGradient gradientTransform="matrix(0.0685, 0.103, -0.0831, 0.0553, -94.3, 16.05)" gradientUnits="userSpaceOnUse" id="gradient0" spreadMethod="pad" x1="-819.2" x2="819.2">
      <stop offset="0.0" stop-color="#704e1b"/>
      <stop offset="1.0" stop-color="#453010"/>
    </linearGradient>
    <radialGradient cx="0" cy="0" gradientTransform="matrix(0.0187, 0.0, 0.0, 0.0187, -53.0, 1.0)" gradientUnits="userSpaceOnUse" id="gradient1" r="819.2" spreadMethod="pad">
      <stop offset="0.0" stop-color="#999999"/>
      <stop offset="1.0" stop-color="#333333"/>
    </radialGradient>
  </defs>
</svg>
