<?xml version="1.0" encoding="UTF-8" standalone="no"?>
<svg xmlns:ffdec="https://www.free-decompiler.com/flash" xmlns:xlink="http://www.w3.org/1999/xlink" ffdec:objectType="shape" height="91.2px" width="91.2px" xmlns="http://www.w3.org/2000/svg">
  <g transform="matrix(1.0, 0.0, 0.0, 1.0, 45.6, 45.6)">
    <path d="M24.1 -39.95 Q24.25 -39.35 24.0 -38.7 L23.75 -38.1 24.1 -37.9 Q31.7 -33.2 36.75 -25.9 L38.1 -23.75 38.75 -24.05 39.95 -24.15 41.0 -23.5 44.7 -19.25 Q45.15 -18.75 45.2 -18.1 L45.6 -12.45 Q45.65 -11.85 45.3 -11.25 L44.35 -10.45 43.75 -10.2 44.3 -7.75 44.3 -7.7 Q45.95 1.25 43.75 10.15 L44.4 10.45 Q44.95 10.7 45.3 11.25 45.65 11.8 45.6 12.45 L45.2 18.05 44.7 19.2 41.0 23.45 39.95 24.1 38.75 24.0 38.15 23.75 37.95 24.05 37.95 24.1 Q32.5 32.8 23.7 38.15 L23.95 38.75 Q24.2 39.35 24.05 39.95 L23.45 41.0 19.2 44.75 18.0 45.25 12.35 45.6 11.2 45.3 10.4 44.35 10.15 43.75 7.65 44.3 Q-1.25 45.95 -10.15 43.75 L-10.4 44.4 Q-10.65 44.95 -11.2 45.3 -11.75 45.65 -12.4 45.6 L-18.0 45.25 Q-18.7 45.15 -19.2 44.75 L-23.45 41.0 -24.1 39.95 Q-24.25 39.35 -24.0 38.75 L-23.75 38.15 Q-23.9 38.0 -24.05 37.95 -32.8 32.5 -38.15 23.7 L-38.75 23.95 -39.95 24.05 -41.0 23.45 -44.7 19.2 Q-45.2 18.7 -45.2 18.0 L-45.6 12.35 Q-45.65 11.7 -45.3 11.2 L-44.35 10.4 -43.75 10.15 Q-46.25 0.0 -43.75 -10.15 L-44.35 -10.4 -45.3 -11.2 Q-45.65 -11.75 -45.6 -12.4 L-45.25 -18.0 Q-45.2 -18.7 -44.75 -19.2 L-41.0 -23.45 -39.95 -24.1 -38.7 -24.0 -38.1 -23.75 -37.95 -24.0 -37.9 -24.05 Q-33.2 -31.7 -25.9 -36.7 L-24.15 -37.85 -23.8 -38.1 -24.05 -38.7 Q-24.3 -39.35 -24.15 -39.95 L-23.5 -41.0 -19.25 -44.7 Q-18.75 -45.15 -18.1 -45.2 L-12.45 -45.6 -11.25 -45.3 -10.45 -44.35 -10.2 -43.75 Q0.0 -46.25 10.2 -43.75 L10.45 -44.35 11.25 -45.3 12.45 -45.6 18.05 -45.2 Q18.7 -45.15 19.25 -44.7 L23.5 -41.0 24.1 -39.95" fill="#000000" fill-rule="evenodd" stroke="none"/>
    <path d="M39.6 -16.4 Q46.4 0.0 39.6 16.4 32.8 32.8 16.4 39.55 0.0 46.4 -16.4 39.6 -32.8 32.8 -39.6 16.4 -46.4 0.0 -39.6 -16.4 -32.8 -32.8 -16.4 -39.6 0.0 -46.4 16.4 -39.6 32.8 -32.8 39.6 -16.4 M19.8 -8.2 Q16.4 -16.4 8.2 -19.8 0.0 -23.2 -8.2 -19.8 -16.4 -16.4 -19.8 -8.2 -23.2 0.0 -19.8 8.2 -16.4 16.4 -8.2 19.8 0.0 23.2 8.2 19.8 16.4 16.4 19.8 8.2 23.2 0.0 19.8 -8.2" fill="url(#gradient0)" fill-rule="evenodd" stroke="none"/>
    <path d="M19.8 -8.2 Q23.2 0.0 19.8 8.2 16.4 16.4 8.2 19.8 0.0 23.2 -8.2 19.8 -16.4 16.4 -19.8 8.2 -23.2 0.0 -19.8 -8.2 -16.4 -16.4 -8.2 -19.8 0.0 -23.2 8.2 -19.8 16.4 -16.4 19.8 -8.2" fill="#000000" fill-rule="evenodd" stroke="none"/>
    <path d="M19.8 -8.2 Q23.2 0.0 19.8 8.2 16.4 16.4 8.2 19.8 0.0 23.2 -8.2 19.8 -16.4 16.4 -19.8 8.2 -23.2 0.0 -19.8 -8.2 -16.4 -16.4 -8.2 -19.8 0.0 -23.2 8.2 -19.8 16.4 -16.4 19.8 -8.2 Z" fill="none" stroke="#ffffff" stroke-linecap="round" stroke-linejoin="round" stroke-opacity="0.2" stroke-width="4.0"/>
    <path d="M17.15 -12.95 L9.65 -5.4 9.3 -6.0 7.55 -5.05 8.05 -4.15 8.6 -2.7 8.85 -1.75 10.8 -2.3 10.6 -3.0 21.3 -3.0 Q21.75 -0.05 21.3 3.0 L10.7 3.0 10.9 2.4 9.0 1.75 8.65 2.7 8.0 4.3 7.6 5.2 9.4 6.05 9.65 5.45 17.15 12.95 Q15.35 15.4 12.9 17.2 L5.35 9.65 5.95 9.35 5.05 7.55 4.15 8.0 2.65 8.7 1.75 9.05 2.45 10.9 3.0 10.7 3.0 21.3 Q0.0 21.75 -3.0 21.3 L-3.0 10.6 -2.3 10.8 -1.75 8.85 -2.7 8.6 -4.15 8.05 -5.05 7.55 -6.0 9.3 -5.4 9.65 -12.95 17.15 Q-15.4 15.35 -17.15 12.9 L-9.65 5.4 -9.35 6.0 -7.55 5.1 -8.0 4.2 -8.6 2.75 -8.85 1.75 -10.8 2.35 -10.6 3.0 -21.25 3.0 Q-21.75 0.0 -21.25 -3.0 L-10.55 -3.0 -10.8 -2.3 -8.85 -1.75 -8.6 -2.7 -8.0 -4.1 -7.55 -5.0 -9.3 -5.95 -9.6 -5.3 -17.15 -12.9 Q-15.4 -15.35 -12.95 -17.15 L-5.35 -9.55 Q-5.7 -9.4 -6.0 -9.2 L-5.0 -7.45 -4.1 -8.0 -2.7 -8.55 -1.75 -8.85 -2.3 -10.75 -3.0 -10.6 -3.0 -21.25 Q-0.05 -21.75 3.0 -21.25 L3.0 -10.6 2.35 -10.8 1.75 -8.85 2.75 -8.6 4.2 -8.0 5.1 -7.55 6.0 -9.35 5.4 -9.65 12.9 -17.15 Q15.35 -15.4 17.15 -12.95" fill="url(#gradient1)" fill-rule="evenodd" stroke="none"/>
    <path d="M28.0 -27.25 L23.45 -28.0 M17.35 27.05 L24.7 26.65 M22.55 24.9 L27.25 24.5 M-24.1 -25.8 L-23.65 -29.65 M-26.45 -27.05 L-26.65 -21.7 M-29.95 27.3 L-24.2 27.95" fill="none" stroke="#000000" stroke-linecap="round" stroke-linejoin="round" stroke-opacity="0.2509804" stroke-width="1.0"/>
    <path d="M-9.3 -10.15 L-4.4 -10.75 M-10.8 -12.8 L0.35 -13.95" fill="none" stroke="#000000" stroke-linecap="round" stroke-linejoin="round" stroke-opacity="0.14901961" stroke-width="1.0"/>
    <path d="M11.35 -41.35 L12.25 -43.6 17.9 -43.2 22.15 -39.5 21.25 -37.25 18.05 -29.6 8.15 -33.7 11.35 -41.35 M-18.1 29.65 L-8.2 33.75 -11.35 41.35 -12.25 43.6 -17.9 43.25 -22.15 39.5 -21.25 37.25 -18.1 29.65" fill="#444444" fill-rule="evenodd" stroke="none"/>
    <path d="M21.25 -37.25 L24.75 -35.05 18.05 -29.6 21.25 -37.25 M8.15 -33.7 L7.3 -42.25 11.35 -41.35 8.15 -33.7 M-21.25 37.25 L-24.75 35.1 -18.1 29.65 -21.25 37.25 M-8.2 33.75 L-7.3 42.3 -11.35 41.35 -8.2 33.75" fill="#000000" fill-opacity="0.49803922" fill-rule="evenodd" stroke="none"/>
    <path d="M-11.4 -41.35 L-8.2 -33.7 -18.1 -29.6 -21.3 -37.25 -22.2 -39.5 -17.95 -43.2 -12.3 -43.6 -11.4 -41.35 M11.3 41.35 L8.15 33.75 18.05 29.65 21.2 37.25 22.1 39.5 17.85 43.25 12.2 43.6 11.3 41.35" fill="#444444" fill-rule="evenodd" stroke="none"/>
    <path d="M-8.2 -33.7 L-11.4 -41.35 -7.3 -42.25 -8.2 -33.7 M-21.3 -37.25 L-18.1 -29.6 -24.75 -35.05 -21.3 -37.25 M8.15 33.75 L11.3 41.35 7.3 42.3 8.15 33.75 M21.2 37.25 L18.05 29.65 24.75 35.1 21.2 37.25" fill="#000000" fill-opacity="0.49803922" fill-rule="evenodd" stroke="none"/>
    <path d="M-33.75 -8.15 L-41.35 -11.35 -43.65 -12.25 -43.25 -17.9 -39.55 -22.15 -37.25 -21.25 -29.65 -18.05 -33.75 -8.15 M41.35 11.35 L43.6 12.25 43.2 17.9 39.5 22.15 37.25 21.25 29.6 18.05 33.7 8.15 41.35 11.35" fill="#444444" fill-rule="evenodd" stroke="none"/>
    <path d="M-33.75 -8.15 L-42.3 -7.3 -41.35 -11.35 -33.75 -8.15 M-37.25 -21.25 L-35.1 -24.75 -29.65 -18.05 -37.25 -21.25 M37.25 21.25 L35.05 24.75 29.6 18.05 37.25 21.25 M33.7 8.15 L42.25 7.3 41.35 11.35 33.7 8.15" fill="#000000" fill-opacity="0.49803922" fill-rule="evenodd" stroke="none"/>
    <path d="M33.7 -8.2 L29.6 -18.1 37.25 -21.3 39.5 -22.2 43.2 -17.95 43.6 -12.3 41.35 -11.4 33.7 -8.2 M-33.75 8.15 L-29.65 18.05 -37.25 21.2 -39.5 22.15 -43.25 17.85 -43.6 12.25 -41.35 11.3 -33.75 8.15" fill="#444444" fill-rule="evenodd" stroke="none"/>
    <path d="M29.6 -18.1 L35.05 -24.75 37.25 -21.3 29.6 -18.1 M41.35 -11.4 L42.25 -7.3 33.7 -8.2 41.35 -11.4 M-29.65 18.05 L-35.1 24.75 -37.25 21.2 -29.65 18.05 M-41.35 11.3 L-42.3 7.3 -33.75 8.15 -41.35 11.3" fill="#000000" fill-opacity="0.49803922" fill-rule="evenodd" stroke="none"/>
  </g>
  <defs>
    <radialGradient cx="0" cy="0" gradientTransform="matrix(0.0494, 0.0205, -0.0205, 0.0494, 0.0, 0.0)" gradientUnits="userSpaceOnUse" id="gradient0" r="819.2" spreadMethod="pad">
      <stop offset="0.5529411764705883" stop-color="#1a1a1a"/>
      <stop offset="0.7058823529411765" stop-color="#444444"/>
      <stop offset="0.8313725490196079" stop-color="#444444"/>
      <stop offset="0.9450980392156862" stop-color="#6f6f6f"/>
    </radialGradient>
    <radialGradient cx="0" cy="0" gradientTransform="matrix(0.0274, 0.0, 0.0, 0.0274, 0.0, 0.0)" gradientUnits="userSpaceOnUse" id="gradient1" r="819.2" spreadMethod="pad">
      <stop offset="0.11764705882352941" stop-color="#7b7b7b"/>
      <stop offset="0.6588235294117647" stop-color="#2f2f2f"/>
    </radialGradient>
  </defs>
</svg>
