<?xml version="1.0" encoding="UTF-8" standalone="no"?>
<svg xmlns:ffdec="https://www.free-decompiler.com/flash" xmlns:xlink="http://www.w3.org/1999/xlink" ffdec:objectType="shape" height="33.75px" width="221.3px" xmlns="http://www.w3.org/2000/svg">
  <g transform="matrix(1.0, 0.0, 0.0, 1.0, 109.7, 11.9)">
    <path d="M110.4 -1.4 L110.4 -1.15 Q105.45 -2.75 110.4 -1.4 M95.45 7.35 L105.8 10.65 99.25 14.8 Q99.8 10.45 94.75 12.25 L95.45 7.35 M111.6 21.25 L100.3 18.25 110.95 12.65 111.6 21.25 M-41.15 -6.4 L-39.1 -9.2 -24.35 -11.9 -23.8 -9.05 Q-39.65 -1.3 -55.55 6.4 L-55.7 1.45 -59.15 1.2 -58.2 -5.7 -41.15 -6.4 M-19.1 -1.75 L-43.05 4.05 -22.75 -5.95 -19.3 -4.65 -19.1 -1.75 M-97.65 9.85 L-93.5 6.65 -95.05 13.4 -97.4 15.2 -97.65 9.85 M-99.95 17.2 L-105.95 21.85 -109.5 20.75 -109.4 14.65 -100.15 10.95 -99.95 17.2 M-109.0 5.9 L-100.25 6.4 -107.8 10.45 -109.0 5.9 M-108.15 1.95 L-109.3 2.5 -109.7 0.55 -108.6 0.55 -108.15 1.95" fill="#000000" fill-opacity="0.6" fill-rule="evenodd" stroke="none"/>
  </g>
</svg>
