<?xml version="1.0" encoding="UTF-8" standalone="no"?>
<svg xmlns:ffdec="https://www.free-decompiler.com/flash" xmlns:xlink="http://www.w3.org/1999/xlink" ffdec:objectType="shape" height="40.15px" width="221.3px" xmlns="http://www.w3.org/2000/svg">
  <g transform="matrix(1.0, 0.0, 0.0, 1.0, 109.7, 18.3)">
    <path d="M35.9 -4.45 L27.6 -3.55 44.85 -12.55 44.95 -9.8 51.8 -9.45 40.1 -1.6 35.9 -4.45 M38.75 -13.3 Q29.35 -8.7 20.6 -3.65 L20.6 -9.65 27.05 -15.65 32.7 -15.55 33.85 -12.7 38.75 -13.3 M80.7 -14.8 L84.95 -18.3 89.0 -17.35 84.25 -10.1 80.7 -9.9 80.7 -14.8 M55.0 -1.15 L45.3 -0.5 55.0 -7.05 55.0 -1.15 M88.8 -10.3 L98.2 -16.6 98.7 -14.45 95.85 -14.4 91.25 -9.4 88.8 -10.3 M110.4 -1.15 Q105.45 -2.75 110.4 -1.4 L110.4 -1.15 M95.45 7.35 L105.8 10.65 99.25 14.8 Q99.8 10.45 94.75 12.25 L95.45 7.35 M111.6 21.25 L100.3 18.25 110.95 12.65 111.6 21.25 M-82.95 -17.9 L-79.8 -7.7 -85.75 -16.5 -82.95 -17.9 M-101.4 -9.3 L-97.95 -17.55 -89.4 -17.7 -104.85 -5.65 -104.85 -9.3 -101.4 -9.3 M-41.15 -6.4 L-39.1 -9.2 -24.35 -11.9 -23.8 -9.05 Q-39.65 -1.3 -55.55 6.4 L-55.7 1.45 -59.15 1.2 -58.2 -5.7 -41.15 -6.4 M-74.45 -8.6 Q-76.05 -10.75 -77.2 -15.7 L-70.45 -15.9 -71.35 -9.8 Q-72.85 -9.05 -74.45 -8.6 M-19.1 -1.75 L-43.05 4.05 -22.75 -5.95 -19.3 -4.65 -19.1 -1.75 M-97.65 9.85 L-93.5 6.65 -95.05 13.4 -97.4 15.2 -97.65 9.85 M-99.95 17.2 L-105.95 21.85 -109.5 20.75 -109.4 14.65 -100.15 10.95 -99.95 17.2 M-109.0 5.9 L-100.25 6.4 -107.8 10.45 -109.0 5.9 M-108.15 1.95 L-109.3 2.5 -109.7 0.55 -108.6 0.55 -108.15 1.95" fill="#000000" fill-opacity="0.6" fill-rule="evenodd" stroke="none"/>
  </g>
</svg>
