<?xml version="1.0" encoding="UTF-8" standalone="no"?>
<svg xmlns:ffdec="https://www.free-decompiler.com/flash" xmlns:xlink="http://www.w3.org/1999/xlink" ffdec:objectType="shape" height="60.0px" width="46.0px" xmlns="http://www.w3.org/2000/svg">
  <g transform="matrix(1.0, 0.0, 0.0, 1.0, 23.0, 30.0)">
    <path d="M15.0 30.0 L-15.0 30.0 -15.0 0.0 15.0 0.0 15.0 30.0" fill="#000000" fill-opacity="0.4" fill-rule="evenodd" stroke="none"/>
    <path d="M12.0 27.0 L-12.0 27.0 -12.0 3.0 12.0 3.0 12.0 27.0" fill="url(#gradient0)" fill-rule="evenodd" stroke="none"/>
    <path d="M12.0 27.0 L-12.0 27.0 -12.0 3.0 12.0 3.0 12.0 27.0 Z" fill="none" stroke="#000000" stroke-linecap="round" stroke-linejoin="round" stroke-opacity="0.49803922" stroke-width="2.0"/>
    <path d="M12.05 27.0 L-11.95 27.0 0.05 3.0 12.05 27.0" fill="#000000" fill-opacity="0.2" fill-rule="evenodd" stroke="none"/>
    <path d="M-4.0 -5.0 L4.0 -5.0 4.0 19.0 -4.0 19.0 -4.0 -5.0" fill="url(#gradient1)" fill-rule="evenodd" stroke="none"/>
    <path d="M-4.0 -5.0 L4.0 -5.0 4.0 19.0 -4.0 19.0 -4.0 -5.0 Z" fill="none" stroke="#000000" stroke-linecap="round" stroke-linejoin="round" stroke-opacity="0.49803922" stroke-width="2.0"/>
    <path d="M14.15 -21.15 Q20.0 -15.35 20.0 -7.0 20.0 1.3 14.15 7.15 8.3 12.95 0.0 13.0 -8.3 12.95 -14.15 7.15 -20.0 1.3 -20.0 -7.0 -20.0 -15.35 -14.15 -21.15 -8.3 -27.0 0.0 -27.0 8.3 -27.0 14.15 -21.15" fill="url(#gradient2)" fill-rule="evenodd" stroke="none"/>
    <path d="M14.15 -21.15 Q20.0 -15.35 20.0 -7.0 20.0 1.3 14.15 7.15 8.3 12.95 0.0 13.0 -8.3 12.95 -14.15 7.15 -20.0 1.3 -20.0 -7.0 -20.0 -15.35 -14.15 -21.15 -8.3 -27.0 0.0 -27.0 8.3 -27.0 14.15 -21.15 Z" fill="none" stroke="#ffffff" stroke-linecap="round" stroke-linejoin="round" stroke-opacity="0.4" stroke-width="6.0"/>
    <path d="M14.2 -21.2 Q20.0 -15.35 20.0 -7.05 20.0 -5.15 18.95 -5.1 18.25 -5.1 15.5 -6.25 7.5 -9.6 0.0 -9.6 -7.6 -9.6 -15.5 -6.2 -18.3 -5.1 -18.95 -5.1 -20.0 -5.15 -20.0 -7.05 -20.0 -15.35 -14.15 -21.2 -8.3 -27.05 0.0 -27.05 8.35 -27.05 14.2 -21.2" fill="#ffffff" fill-opacity="0.14901961" fill-rule="evenodd" stroke="none"/>
    <path d="M13.8 -9.3 Q14.25 -10.3 14.85 -10.3 15.5 -10.3 15.95 -9.3 16.4 -8.2 16.4 -6.7 16.4 -5.2 15.95 -4.2 15.5 -3.1 14.85 -3.1 14.25 -3.1 13.8 -4.2 13.35 -5.2 13.35 -6.7 13.35 -8.2 13.8 -9.3 M-13.85 -10.3 Q-13.25 -10.3 -12.75 -9.3 -12.3 -8.2 -12.3 -6.7 -12.3 -5.2 -12.75 -4.2 -13.25 -3.1 -13.85 -3.1 -14.45 -3.1 -14.9 -4.2 -15.4 -5.2 -15.4 -6.7 -15.4 -8.2 -14.9 -9.3 -14.45 -10.3 -13.85 -10.3" fill="#ffffff" fill-opacity="0.101960786" fill-rule="evenodd" stroke="none"/>
  </g>
  <defs>
    <linearGradient gradientTransform="matrix(0.0146, 0.0, 0.0, 0.0146, 0.0, 15.0)" gradientUnits="userSpaceOnUse" id="gradient0" spreadMethod="pad" x1="-819.2" x2="819.2">
      <stop offset="0.0" stop-color="#666666"/>
      <stop offset="0.5176470588235295" stop-color="#999999"/>
      <stop offset="1.0" stop-color="#666666"/>
    </linearGradient>
    <linearGradient gradientTransform="matrix(0.0049, 0.0, 0.0, 0.0146, -0.05, 7.0)" gradientUnits="userSpaceOnUse" id="gradient1" spreadMethod="pad" x1="-819.2" x2="819.2">
      <stop offset="0.0" stop-color="#333333"/>
      <stop offset="0.5176470588235295" stop-color="#999999"/>
      <stop offset="1.0" stop-color="#333333"/>
    </linearGradient>
    <radialGradient cx="0" cy="0" gradientTransform="matrix(0.0248, 0.0, 0.0, 0.0248, 0.0, -7.0)" gradientUnits="userSpaceOnUse" id="gradient2" r="819.2" spreadMethod="pad">
      <stop offset="0.0" stop-color="#ffffff"/>
      <stop offset="0.19215686274509805" stop-color="#ffff00"/>
      <stop offset="0.44313725490196076" stop-color="#990066" stop-opacity="0.2"/>
      <stop offset="0.6431372549019608" stop-color="#3366cc" stop-opacity="0.2"/>
      <stop offset="1.0" stop-color="#c4d7ff"/>
    </radialGradient>
  </defs>
</svg>
