<?xml version="1.0" encoding="UTF-8" standalone="no"?>
<svg xmlns:ffdec="https://www.free-decompiler.com/flash" xmlns:xlink="http://www.w3.org/1999/xlink" ffdec:objectType="shape" height="36.0px" width="36.0px" xmlns="http://www.w3.org/2000/svg">
  <g transform="matrix(1.0, 0.0, 0.0, 1.0, 17.95, 17.95)">
    <path d="M9.0 -15.6 Q11.0 -14.45 12.8 -12.65 14.5 -10.95 15.7 -8.95 18.05 -5.0 18.05 0.05 18.05 5.0 15.75 9.0 L12.8 12.8 9.0 15.75 Q5.0 18.05 0.05 18.05 -5.0 18.05 -8.95 15.7 L-12.65 12.8 Q-14.45 11.0 -15.6 9.0 -18.0 5.0 -17.95 0.1 L-17.95 0.05 Q-18.0 -5.0 -15.6 -8.95 -14.45 -10.95 -12.7 -12.65 L-12.65 -12.7 Q-10.95 -14.45 -8.95 -15.6 -5.0 -18.0 0.05 -17.95 L0.1 -17.95 Q5.0 -18.0 9.0 -15.6 M0.1 -11.95 Q-4.9 -12.0 -8.4 -8.45 -11.95 -4.95 -11.9 0.05 L-11.9 0.1 Q-11.95 5.0 -8.4 8.55 -5.25 11.65 -0.85 12.0 L-0.75 12.0 0.1 12.05 0.85 12.0 1.0 12.0 1.05 12.0 1.1 12.0 Q5.4 11.7 8.6 8.55 11.4 5.7 11.95 1.9 L12.0 1.55 12.1 0.05 12.0 -1.4 12.0 -1.5 12.0 -1.55 11.95 -1.7 Q11.4 -5.6 8.6 -8.45 5.05 -12.0 0.15 -11.95 L0.1 -11.95" fill="#0099ee" fill-rule="evenodd" stroke="none"/>
  </g>
</svg>
