<?xml version="1.0" encoding="UTF-8" standalone="no"?>
<svg xmlns:ffdec="https://www.free-decompiler.com/flash" xmlns:xlink="http://www.w3.org/1999/xlink" ffdec:objectType="shape" height="93.25px" width="93.25px" xmlns="http://www.w3.org/2000/svg">
  <g transform="matrix(1.0, 0.0, 0.0, 1.0, 46.6, 46.6)">
    <path d="M22.2 -39.5 L21.25 -37.25 24.75 -35.1 Q30.9 -30.9 35.1 -24.75 L37.25 -21.2 39.55 -22.15 43.65 -12.25 41.35 -11.3 42.35 -7.3 Q43.65 0.0 42.35 7.35 L41.4 11.35 43.65 12.3 39.55 22.2 37.3 21.25 35.1 24.75 Q30.85 30.85 24.75 35.1 L21.25 37.25 22.15 39.55 12.3 43.65 11.35 41.35 7.3 42.35 7.35 42.3 Q0.0 43.65 -7.3 42.35 L-11.35 41.4 -12.25 43.65 -22.15 39.55 -21.2 37.3 -24.75 35.1 Q-30.85 30.9 -35.1 24.75 L-37.25 21.25 -39.55 22.15 -43.6 12.3 -41.35 11.35 -42.3 7.3 Q-43.7 0.0 -42.3 -7.3 L-41.35 -11.35 -43.6 -12.25 -39.5 -22.15 -37.25 -21.2 -35.1 -24.75 Q-30.9 -30.9 -24.75 -35.1 L-21.2 -37.25 -22.15 -39.55 -12.3 -43.6 -11.3 -41.35 -7.3 -42.3 Q0.0 -43.7 7.35 -42.3 L11.35 -41.35 12.3 -43.6 22.2 -39.5 Z" fill="none" stroke="#000000" stroke-linecap="round" stroke-linejoin="round" stroke-width="6.0"/>
    <path d="M19.8 -8.2 Q16.4 -16.4 8.2 -19.8 0.0 -23.2 -8.2 -19.8 -16.4 -16.4 -19.8 -8.2 -23.2 0.0 -19.8 8.2 -16.4 16.4 -8.2 19.8 0.0 23.2 8.2 19.8 16.4 16.4 19.8 8.2 23.2 0.0 19.8 -8.2 M39.6 -16.4 Q46.4 0.0 39.6 16.4 32.8 32.8 16.4 39.55 0.0 46.4 -16.4 39.6 -32.8 32.8 -39.6 16.4 -46.4 0.0 -39.6 -16.4 -32.8 -32.8 -16.4 -39.6 0.0 -46.4 16.4 -39.6 32.8 -32.8 39.6 -16.4" fill="url(#gradient0)" fill-rule="evenodd" stroke="none"/>
    <path d="M19.8 -8.2 Q23.2 0.0 19.8 8.2 16.4 16.4 8.2 19.8 0.0 23.2 -8.2 19.8 -16.4 16.4 -19.8 8.2 -23.2 0.0 -19.8 -8.2 -16.4 -16.4 -8.2 -19.8 0.0 -23.2 8.2 -19.8 16.4 -16.4 19.8 -8.2" fill="url(#gradient1)" fill-rule="evenodd" stroke="none"/>
    <path d="M19.8 -8.2 Q23.2 0.0 19.8 8.2 16.4 16.4 8.2 19.8 0.0 23.2 -8.2 19.8 -16.4 16.4 -19.8 8.2 -23.2 0.0 -19.8 -8.2 -16.4 -16.4 -8.2 -19.8 0.0 -23.2 8.2 -19.8 16.4 -16.4 19.8 -8.2 Z" fill="none" stroke="#ffffff" stroke-linecap="round" stroke-linejoin="round" stroke-opacity="0.2" stroke-width="4.0"/>
    <path d="M28.0 -27.25 L23.45 -27.95 M22.5 24.85 L27.25 24.5 M17.35 27.05 L24.7 26.65 M-24.1 -25.8 L-23.65 -29.7 M-26.45 -27.1 L-26.7 -21.7 M-30.0 27.3 L-24.25 27.95" fill="none" stroke="#000000" stroke-linecap="round" stroke-linejoin="round" stroke-opacity="0.2509804" stroke-width="1.0"/>
    <path d="M-9.3 -10.2 L-4.4 -10.75 M-10.8 -12.85 L0.35 -14.0" fill="none" stroke="#000000" stroke-linecap="round" stroke-linejoin="round" stroke-opacity="0.14901961" stroke-width="1.0"/>
    <path d="M11.35 -41.35 L12.25 -43.6 22.15 -39.5 21.25 -37.25 18.05 -29.65 8.15 -33.75 11.35 -41.35 M-18.05 29.65 L-8.15 33.75 -11.35 41.4 -12.25 43.6 -22.15 39.5 -21.25 37.3 -18.05 29.65" fill="#666666" fill-rule="evenodd" stroke="none"/>
    <path d="M21.25 -37.25 L24.75 -35.1 18.05 -29.65 21.25 -37.25 M8.15 -33.75 L7.35 -42.3 11.35 -41.35 8.15 -33.75 M-21.25 37.3 L-24.75 35.1 -18.05 29.65 -21.25 37.3 M-8.15 33.75 L-7.35 42.3 -11.35 41.4 -8.15 33.75" fill="#000000" fill-opacity="0.49803922" fill-rule="evenodd" stroke="none"/>
    <path d="M29.65 -18.05 L35.1 -24.75 37.25 -21.25 29.65 -18.05 M41.35 -11.35 L42.3 -7.35 33.75 -8.15 41.35 -11.35 M-33.75 8.15 L-41.4 11.35 -42.3 7.35 -33.75 8.15 M-37.3 21.25 L-29.65 18.05 -35.1 24.75 -37.3 21.25" fill="#000000" fill-opacity="0.49803922" fill-rule="evenodd" stroke="none"/>
    <path d="M33.75 -8.15 L29.65 -18.05 37.25 -21.25 39.5 -22.15 43.6 -12.25 41.35 -11.35 33.75 -8.15 M-33.75 8.15 L-29.65 18.05 -37.3 21.25 -39.5 22.15 -43.6 12.25 -41.4 11.35 -33.75 8.15" fill="#666666" fill-rule="evenodd" stroke="none"/>
    <path d="M-11.35 -41.35 L-8.15 -33.75 -18.05 -29.65 -21.25 -37.25 -22.15 -39.5 -12.25 -43.6 -11.35 -41.35 M21.25 37.3 L22.15 39.5 12.25 43.6 11.35 41.4 8.15 33.75 18.05 29.65 21.25 37.3" fill="#666666" fill-rule="evenodd" stroke="none"/>
    <path d="M-8.15 -33.75 L-11.35 -41.35 -7.35 -42.3 -8.15 -33.75 M-21.25 -37.25 L-18.05 -29.65 -24.75 -35.1 -21.25 -37.25 M11.35 41.4 L7.35 42.3 8.15 33.75 11.35 41.4 M18.05 29.65 L24.75 35.1 21.25 37.3 18.05 29.65" fill="#000000" fill-opacity="0.49803922" fill-rule="evenodd" stroke="none"/>
    <path d="M-33.75 -8.15 L-41.4 -11.35 -43.6 -12.25 -39.5 -22.15 -37.3 -21.25 -29.65 -18.05 -33.75 -8.15 M41.35 11.3 L43.6 12.25 39.5 22.15 37.25 21.2 29.65 18.05 33.75 8.15 41.35 11.3" fill="#666666" fill-rule="evenodd" stroke="none"/>
    <path d="M-33.75 -8.15 L-42.3 -7.35 -41.4 -11.35 -33.75 -8.15 M-37.3 -21.25 L-35.1 -24.75 -29.65 -18.05 -37.3 -21.25 M37.25 21.2 L35.1 24.75 29.65 18.05 37.25 21.2 M33.75 8.15 L42.3 7.35 41.35 11.3 33.75 8.15" fill="#000000" fill-opacity="0.49803922" fill-rule="evenodd" stroke="none"/>
  </g>
  <defs>
    <radialGradient cx="0" cy="0" gradientTransform="matrix(0.0494, 0.0205, -0.0205, 0.0494, 0.0, 0.0)" gradientUnits="userSpaceOnUse" id="gradient0" r="819.2" spreadMethod="pad">
      <stop offset="0.5529411764705883" stop-color="#333333"/>
      <stop offset="0.7058823529411765" stop-color="#666666"/>
      <stop offset="0.8196078431372549" stop-color="#666666"/>
      <stop offset="0.9450980392156862" stop-color="#848484"/>
    </radialGradient>
    <radialGradient cx="0" cy="0" gradientTransform="matrix(0.0243, 0.0101, -0.0101, 0.0243, 0.0, 0.0)" gradientUnits="userSpaceOnUse" id="gradient1" r="819.2" spreadMethod="pad">
      <stop offset="0.0" stop-color="#cccccc"/>
      <stop offset="0.6588235294117647" stop-color="#999999"/>
    </radialGradient>
  </defs>
</svg>
