<?xml version="1.0" encoding="UTF-8" standalone="no"?>
<svg xmlns:ffdec="https://www.free-decompiler.com/flash" xmlns:xlink="http://www.w3.org/1999/xlink" ffdec:objectType="shape" height="24.0px" width="24.0px" xmlns="http://www.w3.org/2000/svg">
  <g transform="matrix(1.0, 0.0, 0.0, 1.0, 12.0, 12.0)">
    <path d="M6.35 -6.35 Q9.0 -3.75 9.0 0.0 9.0 3.75 6.35 6.35 3.75 9.0 0.0 9.0 -3.75 9.0 -6.35 6.35 -9.0 3.75 -9.0 0.0 -9.0 -3.75 -6.35 -6.35 -3.75 -9.0 0.0 -9.0 3.75 -9.0 6.35 -6.35 Z" fill="none" stroke="#ffffff" stroke-linecap="round" stroke-linejoin="round" stroke-opacity="0.2" stroke-width="6.0"/>
    <path d="M6.4 -6.35 Q9.0 -3.75 9.0 0.0 9.0 3.75 6.4 6.4 3.75 9.0 0.0 9.0 -3.75 9.0 -6.35 6.4 -9.0 3.75 -9.0 0.0 -9.0 -3.75 -6.35 -6.35 -3.75 -9.0 0.0 -9.0 3.75 -9.0 6.4 -6.35" fill="url(#gradient0)" fill-rule="evenodd" stroke="none"/>
    <path d="M7.0 2.0 L6.9 2.2 Q6.4 3.8 5.1 5.1 3.0 7.2 0.0 7.2 -3.0 7.2 -5.1 5.1 -6.35 3.8 -6.85 2.2 L-6.95 2.0 Q-6.5 1.45 -5.15 1.0 L0.0 0.4 Q3.1 0.35 5.2 1.0 6.55 1.45 7.0 2.0" fill="#f66600" fill-opacity="0.101960786" fill-rule="evenodd" stroke="none"/>
  </g>
  <defs>
    <radialGradient cx="0" cy="0" gradientTransform="matrix(0.0183, 0.0, 0.0, 0.0183, -1.7, -5.6)" gradientUnits="userSpaceOnUse" id="gradient0" r="819.2" spreadMethod="pad">
      <stop offset="0.1411764705882353" stop-color="#f0f0f0"/>
      <stop offset="0.2901960784313726" stop-color="#f0f000"/>
      <stop offset="0.5176470588235295" stop-color="#f0e600"/>
      <stop offset="0.803921568627451" stop-color="#f0c900"/>
      <stop offset="0.9725490196078431" stop-color="#f0d900"/>
    </radialGradient>
  </defs>
</svg>
