<?xml version="1.0" encoding="UTF-8" standalone="no"?>
<svg xmlns:ffdec="https://www.free-decompiler.com/flash" xmlns:xlink="http://www.w3.org/1999/xlink" ffdec:objectType="shape" height="82.15px" width="90.0px" xmlns="http://www.w3.org/2000/svg">
  <g transform="matrix(1.0, 0.0, 0.0, 1.0, 45.0, 41.05)">
    <path d="M14.3 -35.5 Q12.15 -35.4 -5.6 -35.8 L-25.7 -36.05 -27.7 -35.55 Q-28.8 -35.05 -28.85 -34.55 L-28.85 -34.5 -29.0 -31.05 -28.85 -22.75 -28.85 -21.8 Q-36.25 -21.65 -38.55 -13.6 -39.35 -10.9 -39.45 -7.4 L-39.45 -3.6 -39.65 5.5 Q-39.45 11.05 -38.15 14.7 -34.55 24.65 -21.1 25.15 L-20.6 26.15 Q-17.7 30.75 -7.9 31.0 15.2 31.65 21.6 27.65 24.0 26.15 24.45 23.85 L24.5 23.4 Q35.5 23.5 38.15 14.25 38.95 11.2 38.9 7.25 L38.65 3.1 Q39.35 -1.95 38.95 -6.9 38.15 -16.2 33.45 -17.15 28.55 -21.3 25.2 -21.35 L24.9 -21.35 26.55 -32.55 Q27.2 -33.35 26.45 -34.1 25.25 -35.35 19.4 -35.5 L14.3 -35.35 14.3 -35.5 M-23.5 29.5 Q-23.9 28.7 -25.4 27.85 -26.65 27.15 -29.85 25.95 L-34.65 24.0 Q-36.85 22.9 -37.4 21.85 -40.55 15.4 -40.8 12.6 -42.0 -0.35 -41.9 -5.65 -40.8 -12.0 -40.95 -15.2 -41.05 -17.2 -38.65 -19.8 L-34.9 -22.05 Q-31.2 -24.25 -31.25 -24.85 L-31.3 -25.25 Q-31.05 -25.85 -30.9 -26.75 L-30.8 -30.0 -30.95 -37.5 Q-9.9 -37.15 -4.55 -37.55 0.1 -37.85 31.35 -37.2 L30.2 -31.5 Q29.15 -26.2 29.15 -25.25 L29.15 -25.2 29.15 -25.0 28.7 -24.8 Q28.15 -24.45 28.15 -23.55 28.05 -23.25 32.7 -20.75 L32.65 -20.75 Q37.5 -17.85 39.7 -15.3 40.65 -14.15 40.8 -11.65 L41.0 -7.35 40.95 -7.35 Q41.6 -3.75 41.95 9.0 L41.7 13.65 Q41.45 15.2 40.05 19.35 39.75 20.15 37.6 21.7 L33.4 24.25 Q31.2 25.3 27.1 26.15 L26.75 26.25 26.4 26.25 Q26.1 26.2 25.65 26.5 L25.1 26.8 Q24.15 27.25 24.15 28.1 L24.15 28.2 23.55 29.05 21.7 31.95 21.65 32.15 21.45 33.15 Q21.05 33.85 18.95 34.3 12.1 35.75 -13.25 35.1 -20.3 34.9 -22.3 31.85 L-23.4 29.65 -23.45 29.6 -23.5 29.5 M-8.95 -16.55 Q-18.75 -15.65 -22.0 -11.65 -23.2 -10.15 -23.6 -8.1 L-23.8 -5.05 Q-23.85 -4.3 -23.25 -2.9 -22.5 -1.3 -21.25 0.1 -17.75 4.05 -12.1 4.2 -11.5 4.2 -11.0 3.85 -10.55 3.4 -10.5 2.75 -10.45 2.1 -12.3 1.2 L-12.3 1.15 -15.85 -0.4 Q-20.7 -2.75 -20.7 -5.2 -20.55 -11.65 -11.2 -12.95 L-4.9 -13.5 -4.75 -11.75 Q-3.95 -7.3 0.75 -7.15 5.5 -7.05 6.45 -10.85 L6.7 -12.9 10.25 -13.05 15.4 -12.65 Q21.25 -11.25 21.1 -4.4 21.0 -2.1 17.7 0.1 L15.3 1.65 Q14.0 2.55 14.05 3.1 14.0 4.55 15.55 4.6 20.6 4.75 22.9 0.4 24.15 -2.0 24.2 -4.45 L24.2 -4.5 Q24.5 -7.4 23.05 -10.25 20.05 -15.95 11.25 -16.2 L7.3 -16.0 7.35 -16.1 6.65 -16.1 Q6.9 -18.9 6.6 -20.4 6.25 -22.25 5.2 -22.2 3.9 -22.3 3.65 -20.1 L3.65 -20.05 3.65 -15.95 Q3.65 -13.3 3.15 -12.0 2.5 -10.4 0.9 -10.4 -0.8 -10.5 -1.35 -12.1 L-1.65 -14.25 Q-1.25 -14.55 -1.25 -14.85 L-1.15 -15.15 Q-1.15 -15.55 -1.5 -15.85 L-1.6 -15.95 -1.6 -16.1 -1.45 -20.2 Q-1.6 -22.45 -2.9 -22.4 -4.25 -22.55 -4.55 -19.4 L-4.6 -16.6 -5.85 -16.65 -8.95 -16.5 -8.95 -16.55 M21.85 -27.1 Q22.3 -27.9 21.85 -28.6 21.05 -29.9 16.95 -30.0 L13.55 -30.05 -21.55 -28.7 Q-24.35 -28.2 -24.5 -27.0 L-24.45 -25.75 -24.25 -24.35 Q-24.35 -21.25 -24.05 -18.0 L-24.0 -17.8 -23.8 -17.7 -23.4 -17.4 -22.6 -17.25 Q-21.05 -17.15 -21.0 -19.3 L-21.15 -26.15 Q3.25 -25.9 6.65 -26.4 L9.15 -26.7 18.7 -26.8 Q18.0 -23.65 18.0 -21.8 L17.95 -20.05 Q18.1 -18.05 19.45 -18.05 20.5 -18.0 21.85 -27.1 M23.4 -32.15 L22.4 -26.05 22.2 -21.75 22.2 -17.1 22.25 -16.9 22.4 -16.8 22.75 -16.55 23.6 -16.35 Q24.0 -16.3 24.5 -18.75 L30.95 -15.4 31.4 -15.15 31.4 -15.2 32.8 -14.5 33.35 -14.1 Q35.6 -12.0 35.8 -6.5 L35.55 2.85 35.3 13.0 34.55 15.45 Q34.05 16.95 33.2 17.9 31.0 20.25 26.4 20.65 L24.5 20.75 24.5 20.35 Q24.8 19.05 24.45 18.45 24.05 17.7 23.05 17.65 21.55 17.55 20.9 20.5 L20.5 22.6 20.15 23.95 Q17.6 28.5 -7.4 27.85 -17.1 27.6 -18.1 23.8 L-18.25 22.4 -18.3 21.05 Q-18.4 19.5 -19.95 19.45 L-20.95 19.7 -21.1 19.85 -21.35 19.9 -21.45 20.1 -21.55 21.4 -21.55 21.75 -24.8 21.15 Q-31.45 20.0 -33.3 18.3 -34.65 17.1 -35.15 15.0 L-35.15 14.95 -35.8 11.1 Q-36.7 5.25 -36.7 3.0 L-36.4 -3.5 -35.5 -12.25 Q-35.15 -14.65 -33.45 -16.4 -31.8 -18.0 -28.7 -18.45 L-28.65 -18.45 Q-28.35 -14.4 -27.55 -14.45 -26.5 -14.35 -26.05 -16.4 -25.7 -18.15 -25.85 -21.65 L-25.85 -32.8 -7.9 -31.65 13.95 -32.4 23.4 -32.15 M-32.0 -4.3 L-30.7 -1.1 Q-28.9 3.4 -29.05 9.0 L-29.45 14.7 -29.4 14.95 -29.25 15.05 -28.85 15.35 -28.0 15.5 Q-26.4 15.6 -26.05 12.45 L-26.05 12.4 -25.95 9.1 Q-26.25 4.45 -26.95 -0.1 -28.45 -9.5 -30.95 -9.5 -31.65 -9.5 -32.1 -9.0 L-32.55 -8.05 Q-32.6 -6.15 -32.0 -4.3 M28.8 -5.9 Q28.5 -3.7 28.55 -1.45 L28.7 3.8 28.9 11.7 29.0 11.9 29.1 12.05 29.5 12.3 30.35 12.5 Q31.4 12.55 31.8 11.2 32.15 10.1 32.0 7.85 L31.6 -1.45 32.8 -8.85 Q32.8 -10.4 31.3 -10.45 29.45 -10.6 28.8 -5.9 M18.65 -8.25 Q18.25 -9.15 17.25 -9.2 16.4 -9.25 13.6 -6.5 10.95 -3.85 11.0 -3.4 L10.95 -3.2 10.9 -3.15 11.1 -2.5 Q11.65 -1.65 13.95 -1.6 17.3 -1.55 18.25 -3.35 18.65 -4.05 18.7 -5.95 18.95 -7.45 18.65 -8.25 M-11.8 18.1 L-12.45 21.5 Q-12.5 23.1 -10.95 23.15 -10.15 23.25 -9.15 20.35 L-7.1 14.8 Q-3.75 6.9 1.85 7.0 5.85 7.15 9.6 14.0 L11.85 18.8 Q12.85 21.2 13.2 21.15 14.75 21.25 14.8 19.05 L14.8 19.0 Q13.9 15.2 11.85 11.45 7.75 3.85 1.95 3.75 -5.35 3.55 -9.55 12.05 -10.95 14.8 -11.8 18.1 M-17.65 -6.5 L-17.65 -6.55 -16.95 -4.45 -16.95 -4.5 Q-15.6 -1.35 -13.55 -1.35 -12.05 -1.3 -10.2 -2.45 -8.3 -3.6 -8.35 -4.45 L-8.4 -4.55 -8.5 -4.7 Q-13.55 -9.4 -15.95 -9.4 -17.8 -9.45 -17.9 -7.6 L-17.65 -6.5" fill="url(#gradient0)" fill-rule="evenodd" stroke="none"/>
    <path d="M34.55 -40.5 Q34.2 -40.1 34.4 -39.45 L34.55 -38.6 34.5 -37.4 Q34.45 -35.55 31.45 -25.0 33.3 -24.6 36.9 -22.25 41.85 -19.0 42.7 -16.1 L43.55 -11.9 44.05 -7.7 44.65 0.75 45.0 9.1 Q44.75 19.15 39.25 24.65 34.4 29.5 27.05 29.65 L25.8 31.55 23.15 35.15 22.3 35.95 Q21.0 36.7 18.05 37.25 L-13.3 38.35 Q-19.65 38.15 -23.9 34.25 -25.2 33.1 -26.1 31.75 -29.15 31.3 -33.6 28.95 -39.35 25.85 -40.7 22.8 -43.55 16.55 -43.9 13.1 -45.15 1.5 -44.95 -5.75 L-44.95 -5.8 Q-44.15 -12.85 -44.05 -16.25 L-44.05 -16.3 Q-43.55 -19.45 -40.3 -22.8 -37.7 -25.55 -34.95 -26.2 -33.95 -29.15 -33.9 -30.1 L-34.35 -38.55 Q-34.7 -39.5 -34.25 -39.9 L-34.2 -39.9 Q-33.75 -40.45 -30.4 -40.65 -23.7 -41.1 9.3 -40.85 L21.15 -40.65 Q28.5 -40.45 32.5 -40.85 L34.25 -41.0 34.4 -41.0 34.6 -40.85 34.6 -40.65 34.55 -40.5 M14.3 -35.35 L19.4 -35.5 Q25.25 -35.35 26.45 -34.1 27.2 -33.35 26.55 -32.55 L24.9 -21.35 25.2 -21.35 Q28.55 -21.3 33.45 -17.15 38.15 -16.2 38.95 -6.9 39.35 -1.95 38.65 3.1 L38.9 7.25 Q38.95 11.2 38.15 14.25 35.5 23.5 24.5 23.4 L24.45 23.85 Q24.0 26.15 21.6 27.65 15.2 31.65 -7.9 31.0 -17.7 30.75 -20.6 26.15 L-21.1 25.15 Q-34.55 24.65 -38.15 14.7 -39.45 11.05 -39.65 5.5 L-39.45 -3.6 -39.45 -7.4 Q-39.35 -10.9 -38.55 -13.6 -36.25 -21.65 -28.85 -21.8 L-28.85 -22.75 -29.0 -31.05 -28.85 -34.5 -28.85 -34.55 Q-28.8 -35.05 -27.7 -35.55 L-25.7 -36.05 -5.6 -35.8 Q12.15 -35.4 14.3 -35.5 L14.15 -35.3 14.3 -35.35 M-23.45 29.6 L-23.4 29.65 -22.3 31.85 Q-20.3 34.9 -13.25 35.1 12.1 35.75 18.95 34.3 21.05 33.85 21.45 33.15 L21.65 32.15 21.7 31.95 23.55 29.05 24.15 28.2 24.15 28.1 Q24.15 27.25 25.1 26.8 L25.65 26.5 Q26.1 26.2 26.4 26.25 L26.75 26.25 27.1 26.15 Q31.2 25.3 33.4 24.25 L37.6 21.7 Q39.75 20.15 40.05 19.35 41.45 15.2 41.7 13.65 L41.95 9.0 Q41.6 -3.75 40.95 -7.35 L41.0 -7.35 40.8 -11.65 Q40.65 -14.15 39.7 -15.3 37.5 -17.85 32.65 -20.75 L32.7 -20.75 Q28.05 -23.25 28.15 -23.55 28.15 -24.45 28.7 -24.8 L29.15 -25.0 29.15 -25.2 29.15 -25.25 Q29.15 -26.2 30.2 -31.5 L31.35 -37.2 Q0.1 -37.85 -4.55 -37.55 -9.9 -37.15 -30.95 -37.5 L-30.8 -30.0 -30.9 -26.75 Q-31.05 -25.85 -31.3 -25.25 L-31.25 -24.85 Q-31.2 -24.25 -34.9 -22.05 L-38.65 -19.8 Q-41.05 -17.2 -40.95 -15.2 -40.8 -12.0 -41.9 -5.65 -42.0 -0.35 -40.8 12.6 -40.55 15.4 -37.4 21.85 -36.85 22.9 -34.65 24.0 L-29.85 25.95 Q-26.65 27.15 -25.4 27.85 -23.9 28.7 -23.5 29.5 L-23.5 29.55 -23.45 29.6 M23.4 -32.15 L13.95 -32.4 -7.9 -31.65 -25.85 -32.8 -25.85 -21.65 Q-25.7 -18.15 -26.05 -16.4 -26.5 -14.35 -27.55 -14.45 -28.35 -14.4 -28.65 -18.45 L-28.7 -18.45 Q-31.8 -18.0 -33.45 -16.4 -35.15 -14.65 -35.5 -12.25 L-36.4 -3.5 -36.7 3.0 Q-36.7 5.25 -35.8 11.1 L-35.15 14.95 -35.15 15.0 Q-34.65 17.1 -33.3 18.3 -31.45 20.0 -24.8 21.15 L-21.55 21.75 -21.55 21.4 -21.45 20.1 -21.35 19.9 -21.1 19.85 -20.95 19.7 -19.95 19.45 Q-18.4 19.5 -18.3 21.05 L-18.25 22.4 -18.1 23.8 Q-17.1 27.6 -7.4 27.85 17.6 28.5 20.15 23.95 L20.5 22.6 20.9 20.5 Q21.55 17.55 23.05 17.65 24.05 17.7 24.45 18.45 24.8 19.05 24.5 20.35 L24.5 20.75 26.4 20.65 Q31.0 20.25 33.2 17.9 34.05 16.95 34.55 15.45 L35.3 13.0 35.55 2.85 35.8 -6.5 Q35.6 -12.0 33.35 -14.1 L32.8 -14.5 31.4 -15.2 31.4 -15.15 30.95 -15.4 24.5 -18.75 Q24.0 -16.3 23.6 -16.35 L22.75 -16.55 22.4 -16.8 22.25 -16.9 22.2 -17.1 22.2 -21.75 22.4 -26.05 23.4 -32.15 M21.85 -27.1 Q20.5 -18.0 19.45 -18.05 18.1 -18.05 17.95 -20.05 L18.0 -21.8 Q18.0 -23.65 18.7 -26.8 L9.15 -26.7 6.65 -26.4 Q3.25 -25.9 -21.15 -26.15 L-21.0 -19.3 Q-21.05 -17.15 -22.6 -17.25 L-23.4 -17.4 -23.8 -17.7 -24.0 -17.8 -24.05 -18.0 Q-24.35 -21.25 -24.25 -24.35 L-24.45 -25.75 -24.5 -27.0 Q-24.35 -28.2 -21.55 -28.7 L13.55 -30.05 16.95 -30.0 Q21.05 -29.9 21.85 -28.6 22.3 -27.9 21.85 -27.1 M7.3 -16.0 L11.25 -16.2 Q20.05 -15.95 23.05 -10.25 24.5 -7.4 24.2 -4.5 L24.2 -4.45 Q24.15 -2.0 22.9 0.4 20.6 4.75 15.55 4.6 14.0 4.55 14.05 3.1 14.0 2.55 15.3 1.65 L17.7 0.1 Q21.0 -2.1 21.1 -4.4 21.25 -11.25 15.4 -12.65 L10.25 -13.05 6.7 -12.9 6.45 -10.85 Q5.5 -7.05 0.75 -7.15 -3.95 -7.3 -4.75 -11.75 L-4.9 -13.5 -11.2 -12.95 Q-20.55 -11.65 -20.7 -5.2 -20.7 -2.75 -15.85 -0.4 L-12.3 1.15 -12.3 1.2 Q-10.45 2.1 -10.5 2.75 -10.55 3.4 -11.0 3.85 -11.5 4.2 -12.1 4.2 -17.75 4.05 -21.25 0.1 -22.5 -1.3 -23.25 -2.9 -23.85 -4.3 -23.8 -5.05 L-23.6 -8.1 Q-23.2 -10.15 -22.0 -11.65 -18.75 -15.65 -8.95 -16.55 L-9.05 -16.45 -8.95 -16.5 -5.85 -16.65 -4.6 -16.6 -4.55 -19.4 Q-4.25 -22.55 -2.9 -22.4 -1.6 -22.45 -1.45 -20.2 L-1.6 -16.1 -1.6 -15.95 -1.5 -15.85 Q-1.15 -15.55 -1.15 -15.15 L-1.25 -14.85 Q-1.25 -14.55 -1.65 -14.25 L-1.35 -12.1 Q-0.8 -10.5 0.9 -10.4 2.5 -10.4 3.15 -12.0 3.65 -13.3 3.65 -15.95 L3.65 -20.05 3.65 -20.1 Q3.9 -22.3 5.2 -22.2 6.25 -22.25 6.6 -20.4 6.9 -18.9 6.65 -16.1 L7.35 -16.1 7.2 -16.0 7.3 -16.0 M18.65 -8.25 Q18.95 -7.45 18.7 -5.95 18.65 -4.05 18.25 -3.35 17.3 -1.55 13.95 -1.6 11.65 -1.65 11.1 -2.5 L10.9 -3.15 10.95 -3.2 11.0 -3.4 Q10.95 -3.85 13.6 -6.5 16.4 -9.25 17.25 -9.2 18.25 -9.15 18.65 -8.25 M28.8 -5.9 Q29.45 -10.6 31.3 -10.45 32.8 -10.4 32.8 -8.85 L31.6 -1.45 32.0 7.85 Q32.15 10.1 31.8 11.2 31.4 12.55 30.35 12.5 L29.5 12.3 29.1 12.05 29.0 11.9 28.9 11.7 28.7 3.8 28.55 -1.45 Q28.5 -3.7 28.8 -5.9 M-32.0 -4.3 Q-32.6 -6.15 -32.55 -8.05 L-32.1 -9.0 Q-31.65 -9.5 -30.95 -9.5 -28.45 -9.5 -26.95 -0.1 -26.25 4.45 -25.95 9.1 L-26.05 12.4 -26.05 12.45 Q-26.4 15.6 -28.0 15.5 L-28.85 15.35 -29.25 15.05 -29.4 14.95 -29.45 14.7 -29.05 9.0 Q-28.9 3.4 -30.7 -1.1 L-32.0 -4.3 M-17.65 -6.5 L-17.9 -7.6 Q-17.8 -9.45 -15.95 -9.4 -13.55 -9.4 -8.5 -4.7 L-8.4 -4.55 -8.35 -4.45 Q-8.3 -3.6 -10.2 -2.45 -12.05 -1.3 -13.55 -1.35 -15.6 -1.35 -16.95 -4.5 L-16.95 -4.45 -17.65 -6.55 -17.65 -6.5 M-11.8 18.1 Q-10.95 14.8 -9.55 12.05 -5.35 3.55 1.95 3.75 7.75 3.85 11.85 11.45 13.9 15.2 14.8 19.0 L14.8 19.05 Q14.75 21.25 13.2 21.15 12.85 21.2 11.85 18.8 L9.6 14.0 Q5.85 7.15 1.85 7.0 -3.75 6.9 -7.1 14.8 L-9.15 20.35 Q-10.15 23.25 -10.95 23.15 -12.5 23.1 -12.45 21.5 L-11.8 18.1" fill="url(#gradient1)" fill-rule="evenodd" stroke="none"/>
    <path d="M33.1 -38.6 Q33.75 -38.75 33.75 -39.55 34.4 -38.85 34.45 -37.95 L33.75 -37.6 33.1 -38.6 M34.6 -38.25 L34.6 -38.05 34.55 -37.9 34.5 -37.85 34.55 -38.3 34.6 -38.25 M26.55 -29.9 L25.3 -21.35 25.2 -21.35 24.9 -21.35 26.4 -31.5 26.45 -31.5 Q27.2 -30.75 26.55 -29.9 M21.85 -26.0 Q22.3 -25.3 21.85 -24.5 20.5 -15.4 19.45 -15.45 18.1 -15.45 17.95 -17.4 L17.95 -17.45 18.0 -19.2 18.0 -19.55 Q18.25 -18.05 19.45 -18.05 20.4 -18.0 21.7 -26.2 L21.85 -26.0 M23.05 -29.55 L20.25 -29.65 16.95 -30.0 13.55 -30.05 -11.95 -29.35 -25.85 -30.2 -25.9 -29.0 -25.85 -32.8 -7.9 -31.65 2.4 -31.35 2.25 -31.55 Q2.25 -31.85 3.5 -32.7 4.75 -33.55 5.4 -33.55 L6.2 -33.35 6.35 -32.9 4.1 -31.4 Q10.1 -31.55 13.95 -32.4 L23.4 -32.15 23.05 -29.55 M31.45 -25.0 Q34.0 -33.95 34.4 -36.6 L34.55 -36.0 34.5 -34.75 Q34.45 -33.2 32.15 -24.8 L31.45 -25.0 M30.85 -34.65 L25.3 -34.75 Q23.5 -35.4 19.4 -35.5 L14.3 -35.35 14.15 -35.3 14.3 -35.5 Q12.15 -35.4 -5.6 -35.8 L-25.7 -36.05 -27.7 -35.55 Q-28.5 -35.2 -28.75 -34.85 L-30.95 -34.85 -30.95 -37.5 Q-9.9 -37.15 -4.55 -37.55 0.1 -37.85 31.35 -37.2 L30.85 -34.65 M9.15 -26.7 L18.7 -26.8 18.2 -24.2 9.15 -24.1 6.65 -23.75 Q3.25 -23.3 -21.1 -23.55 L-21.15 -26.15 -11.35 -26.1 -10.55 -26.9 Q-9.05 -28.4 -7.95 -28.6 -7.3 -28.45 -7.3 -27.95 -7.3 -27.5 -9.05 -26.05 L-6.45 -26.05 -6.75 -26.4 Q-6.75 -26.8 -6.05 -26.95 -5.4 -26.8 -5.4 -26.35 L-5.4 -26.05 6.65 -26.4 9.15 -26.7 M15.1 -12.85 L15.15 -13.45 15.75 -13.6 Q16.7 -13.6 16.7 -12.25 21.25 -10.45 21.1 -4.4 L21.05 -3.8 Q20.6 -7.25 18.2 -8.9 L18.05 -8.95 17.9 -9.05 17.6 -9.3 17.5 -9.3 15.4 -10.05 10.25 -10.45 6.7 -10.3 6.45 -8.25 Q5.5 -4.45 0.75 -4.55 -3.95 -4.7 -4.75 -9.1 L-4.9 -10.9 -11.2 -10.35 Q-13.6 -10.05 -15.4 -9.35 L-15.95 -9.4 Q-17.55 -9.45 -17.8 -8.1 -19.95 -6.6 -20.5 -4.15 L-20.7 -5.2 Q-20.55 -11.65 -11.2 -12.95 L-4.9 -13.5 -4.75 -11.75 Q-3.95 -7.3 0.75 -7.15 5.5 -7.05 6.45 -10.85 L6.7 -12.9 10.25 -13.05 11.35 -13.05 13.6 -14.7 Q13.95 -14.7 14.25 -14.15 L13.1 -13.0 15.1 -12.7 15.1 -12.85 M6.75 -16.1 L6.65 -16.1 6.7 -17.05 6.75 -16.1 M3.65 -15.95 L3.6 -15.25 3.65 -16.5 3.65 -15.95 M14.6 -1.3 L14.9 -1.2 Q14.7 -0.8 15.9 -1.7 L16.05 -1.8 Q17.65 -2.2 18.25 -3.35 18.6 -3.95 18.7 -5.5 18.9 -4.75 18.7 -3.35 18.65 -1.45 18.25 -0.75 17.3 1.05 13.95 1.0 11.65 0.95 11.1 0.1 L10.9 -0.55 10.95 -0.6 11.0 -0.8 Q10.95 -1.05 11.8 -1.95 L13.95 -1.6 14.35 -1.6 14.6 -1.3 M32.65 -20.75 Q37.5 -17.85 39.7 -15.3 40.65 -14.15 40.8 -11.65 L41.0 -7.35 40.95 -7.35 Q41.6 -3.75 41.95 9.0 L41.9 10.2 Q41.6 -1.35 40.95 -4.75 L41.0 -4.75 40.8 -9.05 Q40.65 -11.55 39.7 -12.7 37.5 -15.25 32.65 -18.15 L32.7 -18.15 30.6 -19.3 29.0 -20.2 Q28.05 -20.8 28.15 -20.95 28.15 -21.85 28.7 -22.2 L29.15 -22.35 29.15 -22.6 29.15 -22.65 29.15 -22.75 32.7 -20.75 32.65 -20.75 M30.95 -15.4 L31.4 -15.15 31.4 -15.2 32.8 -14.5 32.85 -14.45 33.75 -15.25 34.45 -14.6 34.15 -13.2 34.35 -12.85 35.7 -14.45 36.35 -13.8 Q36.35 -13.4 35.8 -12.75 35.35 -12.2 35.55 -11.2 L35.15 -11.0 Q35.7 -9.1 35.8 -6.5 L35.8 -3.9 Q35.6 -9.4 33.35 -11.5 L32.8 -11.9 31.4 -12.55 30.95 -12.8 24.5 -16.1 Q24.0 -13.7 23.6 -13.75 L22.75 -13.95 22.4 -14.2 22.25 -14.3 22.2 -14.5 22.2 -17.05 22.25 -16.9 22.4 -16.8 22.75 -16.55 23.6 -16.35 Q24.0 -16.3 24.5 -18.75 L30.95 -15.4 M24.2 -1.9 L24.2 -1.85 Q24.15 0.6 22.9 3.0 20.6 7.35 15.55 7.2 14.0 7.15 14.05 5.7 14.05 5.2 14.95 4.5 L15.55 4.6 Q20.6 4.75 22.9 0.4 24.0 -1.75 24.2 -4.0 L24.2 -1.9 M31.35 -7.6 L30.65 -8.35 31.6 -9.5 32.25 -8.85 Q32.25 -8.25 31.35 -7.6 M32.8 -6.2 L31.7 0.7 31.6 -1.45 32.55 -7.25 32.8 -6.2 M44.95 9.9 L45.0 11.7 Q44.75 21.75 39.25 27.25 34.4 32.1 27.05 32.25 L25.8 34.15 23.15 37.75 22.3 38.55 Q21.0 39.3 18.05 39.85 L-13.3 40.95 -17.75 40.3 -18.1 40.4 -18.4 40.1 Q-21.5 39.05 -23.9 36.9 L-26.1 34.35 Q-29.15 33.9 -33.6 31.55 -39.35 28.45 -40.7 25.4 -43.55 19.15 -43.9 15.7 -45.1 4.7 -44.95 -2.4 -44.9 4.0 -43.9 13.1 -43.55 16.55 -40.7 22.8 -39.35 25.85 -33.6 28.95 -29.15 31.3 -26.1 31.75 -25.2 33.1 -23.9 34.25 -21.95 36.05 -19.6 37.05 L-19.3 36.75 Q-17.8 35.25 -17.0 35.25 L-16.45 35.55 -16.3 35.9 Q-16.3 36.55 -17.2 37.5 L-17.45 37.75 -17.15 37.85 Q-15.6 36.4 -15.05 36.3 -14.35 36.7 -14.35 36.95 -14.35 37.35 -15.2 38.2 L-13.3 38.35 Q4.85 38.8 14.25 37.8 L13.7 37.2 14.5 36.3 15.45 35.5 16.15 36.25 Q16.15 37.15 15.3 37.65 L18.05 37.25 Q21.0 36.7 22.3 35.95 L23.15 35.15 25.8 31.55 27.05 29.65 Q34.4 29.5 39.25 24.65 L40.95 22.65 40.85 22.7 40.2 21.95 Q40.2 20.9 41.4 19.95 L41.95 20.55 41.95 20.5 42.3 20.55 Q44.65 16.1 44.95 9.9 M38.75 5.0 L38.65 3.1 39.05 -1.95 Q39.15 1.5 38.75 5.0 M38.9 9.85 Q38.95 13.85 38.15 16.85 35.5 26.1 24.5 26.0 L24.45 26.45 Q24.0 28.75 21.6 30.25 15.2 34.25 -7.9 33.6 -17.7 33.35 -20.6 28.75 L-21.1 27.75 -27.75 26.8 Q-28.65 26.4 -29.85 25.95 L-30.95 25.55 Q-36.1 22.95 -38.15 17.3 -39.45 13.65 -39.65 8.1 L-39.65 5.75 Q-39.45 11.15 -38.15 14.7 -34.55 24.65 -21.1 25.15 L-20.6 26.15 Q-17.7 30.75 -7.9 31.0 L-1.2 31.1 Q-0.8 30.4 1.6 29.5 2.25 29.7 2.25 30.15 L1.9 31.05 Q14.05 30.75 19.6 28.65 19.75 28.1 20.45 27.25 21.55 25.95 22.3 25.95 22.65 25.95 23.0 26.5 L22.9 26.65 Q24.15 25.45 24.45 23.85 L24.5 23.4 Q28.7 23.45 31.65 22.15 L31.45 21.5 31.5 20.9 32.15 20.8 Q32.75 20.8 33.0 21.45 36.75 19.15 38.15 14.25 38.7 12.05 38.85 9.4 L38.9 9.85 M32.0 10.3 L32.0 10.5 Q32.15 12.7 31.8 13.85 31.4 15.15 30.35 15.1 L29.5 14.9 29.1 14.65 29.0 14.5 28.9 14.3 28.7 6.4 28.55 1.15 28.55 -0.55 28.7 3.8 28.9 11.7 29.0 11.9 29.1 12.05 29.5 12.3 30.35 12.5 Q31.4 12.55 31.8 11.2 L32.0 10.3 M23.5 10.45 Q25.25 8.5 26.1 8.25 26.8 8.4 26.8 8.9 26.8 9.3 24.95 11.15 L22.55 13.15 21.9 12.35 23.5 10.45 M23.1 7.7 Q23.8 7.95 23.8 8.35 23.8 8.9 19.3 12.35 L18.65 11.55 Q18.65 11.25 20.35 9.7 22.2 8.05 23.1 7.7 M11.85 18.8 Q12.85 21.2 13.2 21.15 14.05 21.2 14.5 20.45 L14.8 21.6 14.8 21.65 Q14.75 23.85 13.2 23.75 12.85 23.8 11.85 21.4 L9.6 16.6 Q5.85 9.75 1.85 9.65 -3.75 9.5 -7.1 17.4 L-9.15 23.0 Q-10.15 25.85 -10.95 25.75 -12.5 25.7 -12.45 24.1 L-12.25 22.5 Q-11.85 23.1 -10.95 23.15 -10.15 23.25 -9.15 20.35 L-7.1 14.8 Q-3.75 6.9 1.85 7.0 5.85 7.15 9.6 14.0 L11.85 18.8 M-41.9 -3.05 L-41.9 -5.65 Q-40.8 -12.0 -40.95 -15.2 -41.05 -17.2 -38.65 -19.8 L-34.9 -22.05 Q-31.2 -24.25 -31.25 -24.85 L-31.3 -25.25 Q-31.05 -25.85 -30.9 -26.75 L-30.85 -28.5 -30.8 -27.4 -30.9 -24.15 Q-31.05 -23.25 -31.3 -22.65 L-31.25 -22.25 -32.15 -21.25 Q-34.2 -20.55 -35.65 -19.0 L-38.65 -17.2 Q-41.05 -14.6 -40.95 -12.6 -40.8 -9.4 -41.9 -3.05 M-23.25 -40.0 L-23.15 -39.7 Q-23.15 -38.95 -26.0 -38.15 L-26.7 -38.9 -25.7 -39.65 Q-24.6 -40.35 -23.8 -40.35 -23.6 -40.35 -23.25 -40.0 M-28.95 -29.3 L-28.85 -22.75 -28.85 -21.8 -28.9 -21.8 -29.0 -28.45 -28.95 -29.3 M-24.3 -22.1 L-24.45 -23.15 -24.5 -24.4 -24.3 -24.9 -24.25 -24.35 -24.3 -22.1 M-28.7 -18.45 L-28.65 -18.45 Q-28.35 -14.4 -27.55 -14.45 -26.5 -14.35 -26.05 -16.4 L-25.85 -18.8 Q-25.75 -15.45 -26.05 -13.8 -26.5 -11.75 -27.55 -11.8 -28.35 -11.8 -28.65 -15.85 L-28.7 -15.85 Q-31.8 -15.4 -33.45 -13.8 -35.15 -12.05 -35.5 -9.65 L-36.4 -0.9 -36.65 4.6 -36.7 3.0 -36.4 -3.5 -35.5 -12.25 Q-35.25 -14.1 -34.15 -15.55 L-34.6 -16.0 -33.75 -17.35 -32.55 -18.55 Q-31.85 -18.2 -31.85 -17.9 L-32.0 -17.45 Q-30.65 -18.15 -28.7 -18.45 M-21.0 -16.65 Q-21.05 -14.55 -22.6 -14.6 L-23.4 -14.8 -23.8 -15.1 -24.0 -15.2 -24.05 -15.35 Q-24.35 -18.55 -24.25 -21.6 L-24.05 -18.0 -24.0 -17.8 -23.8 -17.7 -23.4 -17.4 -22.6 -17.25 Q-21.35 -17.15 -21.05 -18.55 L-21.0 -16.65 M-35.65 -23.05 Q-35.65 -22.45 -37.7 -20.7 L-38.4 -21.45 -36.35 -23.7 Q-35.65 -23.45 -35.65 -23.05 M-39.45 -3.6 L-39.5 -2.5 -39.5 -4.0 -39.45 -3.6 M-32.4 -5.95 L-32.0 -4.3 -31.8 -3.85 -31.15 -4.05 Q-30.25 -4.05 -30.5 -3.0 L-30.55 -2.1 -31.05 -1.9 -30.7 -1.1 Q-28.9 3.4 -29.05 9.0 L-29.1 9.5 Q-29.3 5.15 -30.7 1.5 L-32.0 -1.7 Q-32.6 -3.5 -32.55 -5.45 L-32.4 -5.95 M-17.55 -6.15 L-16.95 -4.45 -16.95 -4.5 Q-15.6 -1.35 -13.55 -1.35 -12.05 -1.3 -10.2 -2.45 L-9.45 -2.95 -8.5 -2.1 -8.4 -1.95 -8.35 -1.85 Q-8.3 -1.0 -10.2 0.15 -11.35 0.85 -12.4 1.15 L-15.85 -0.4 -16.3 -0.65 -16.95 -1.9 -16.95 -1.85 -17.65 -3.95 -17.65 -3.9 -17.9 -5.0 -17.55 -6.15 M-1.6 -14.3 L-1.6 -13.7 -1.65 -14.25 -1.6 -14.3 M-23.8 -2.45 L-23.7 -4.3 -23.25 -2.9 Q-22.5 -1.3 -21.25 0.1 -17.75 4.05 -12.1 4.2 L-11.6 4.15 Q-10.45 4.8 -10.5 5.35 -10.55 6.0 -11.0 6.45 -11.5 6.85 -12.1 6.85 -17.75 6.65 -21.25 2.75 -22.5 1.35 -23.25 -0.3 -23.85 -1.7 -23.8 -2.45 M-17.35 15.05 L-20.8 17.5 -21.45 16.75 Q-21.45 16.35 -18.95 14.3 -16.5 12.25 -15.9 12.05 -15.2 12.2 -15.2 12.7 -15.2 13.25 -17.35 15.05 M-25.95 11.7 L-26.05 15.0 -26.05 15.05 Q-26.4 18.2 -28.0 18.15 L-28.85 17.95 -29.25 17.65 -29.4 17.55 -29.45 17.3 -29.25 15.05 -28.85 15.35 -28.0 15.5 Q-26.4 15.6 -26.05 12.45 L-26.05 12.4 -26.0 11.05 -25.95 11.7" fill="#000000" fill-opacity="0.15294118" fill-rule="evenodd" stroke="none"/>
  </g>
  <defs>
    <linearGradient gradientTransform="matrix(0.0, 0.037, -0.0512, 0.0, 0.05, -5.55)" gradientUnits="userSpaceOnUse" id="gradient0" spreadMethod="pad" x1="-819.2" x2="819.2">
      <stop offset="0.0" stop-color="#b0b035"/>
      <stop offset="1.0" stop-color="#74732e"/>
    </linearGradient>
    <linearGradient gradientTransform="matrix(0.0, 0.0478, -0.0549, 0.0, 0.0, -1.6)" gradientUnits="userSpaceOnUse" id="gradient1" spreadMethod="pad" x1="-819.2" x2="819.2">
      <stop offset="0.0" stop-color="#c9cc51"/>
      <stop offset="1.0" stop-color="#97993d"/>
    </linearGradient>
  </defs>
</svg>
