<?xml version="1.0" encoding="UTF-8" standalone="no"?>
<svg xmlns:ffdec="https://www.free-decompiler.com/flash" xmlns:xlink="http://www.w3.org/1999/xlink" ffdec:objectType="shape" height="120.05px" width="120.0px" xmlns="http://www.w3.org/2000/svg">
  <g transform="matrix(1.0, 0.0, 0.0, 1.0, 60.0, 60.0)">
    <path d="M10.6 -22.05 Q10.6 -31.35 10.75 -36.5 11.05 -49.95 12.4 -57.15 L12.9 -60.0 13.6 -60.0 14.1 -55.65 10.65 -17.0 10.6 -22.05 M30.85 -2.35 L31.2 -29.95 32.4 -18.95 30.85 -2.35 M-44.0 37.65 L-45.65 31.65 -50.5 11.75 Q-53.2 -0.1 -60.0 -9.15 L-54.45 -3.1 -50.8 6.75 -49.95 9.35 Q-48.1 15.2 -46.6 21.05 -44.45 29.25 -44.0 37.65 M-29.6 -19.05 L-16.7 -55.2 -16.65 -50.4 -29.6 -19.05 M-4.65 -33.85 L-2.3 -51.35 -1.6 -47.1 -4.65 -33.85" fill="#00ff00" fill-rule="evenodd" stroke="none"/>
    <path d="M10.65 -17.0 L14.1 -55.65 16.2 -40.85 15.9 -38.25 15.35 -10.1 16.05 -0.45 Q16.8 8.55 15.6 17.45 14.45 26.2 12.3 34.8 L8.25 51.55 Q8.25 53.15 6.55 54.3 4.85 55.4 2.5 55.4 L1.1 55.2 6.7 44.45 Q8.05 40.65 8.9 36.15 10.25 28.75 10.6 15.3 L10.65 -10.35 10.65 -17.0 M22.0 -5.7 L22.15 -28.45 22.4 -29.1 22.2 -28.9 23.2 -33.95 24.2 -26.4 22.0 -5.7 M30.85 -0.9 L30.85 -2.35 32.4 -18.95 35.5 -2.8 Q34.75 4.5 34.9 11.75 35.05 20.15 33.4 28.3 31.7 36.6 26.6 43.6 21.3 50.85 13.95 56.4 L11.15 58.25 9.05 57.15 Q13.7 53.85 17.55 49.6 23.75 42.7 25.8 33.9 27.75 25.15 28.9 16.3 L30.85 -0.9 M-6.5 58.55 L-6.5 58.5 -7.55 56.75 -11.35 49.8 -11.4 49.5 -11.55 49.0 Q-13.05 43.65 -13.55 38.3 L-13.65 37.2 Q-14.4 27.3 -13.2 15.05 -12.35 6.35 -10.3 -5.7 L-8.05 -16.7 -4.65 -33.85 -1.6 -47.1 -0.3 -39.7 -0.4 -39.4 -2.3 -33.2 Q-4.9 -24.6 -6.15 -15.65 -7.35 -7.35 -7.9 1.2 L-8.25 6.95 Q-8.75 15.05 -8.6 23.2 -8.45 31.3 -7.75 39.45 L-6.25 57.35 -6.5 58.55 M-31.4 58.55 Q-39.8 54.4 -41.95 45.35 L-44.0 37.65 Q-44.45 29.25 -46.6 21.05 -48.1 15.2 -49.95 9.35 L-47.9 13.6 Q-43.4 21.15 -40.8 29.5 -38.65 36.45 -35.45 43.0 -31.65 50.8 -31.4 58.55 M-54.45 -3.1 L-51.6 0.4 Q-51.65 3.65 -50.8 6.75 L-54.45 -3.1 M-39.85 -11.05 L-38.15 -25.75 -37.95 -25.75 -37.2 -23.0 -39.85 -11.05 M-32.7 -6.1 Q-31.6 -12.45 -29.6 -19.05 L-16.65 -50.4 -16.9 -34.9 Q-20.65 -26.9 -24.0 -18.7 -27.2 -10.9 -29.3 -2.75 L-33.9 14.7 -32.7 -6.1 M-17.3 -11.8 L-10.55 -32.85 -9.85 -28.75 -17.3 -6.25 -17.3 -11.8 M3.05 -20.6 L6.45 -35.85 6.95 -36.05 7.6 -33.55 2.6 -13.7 3.05 -20.6" fill="#00cc00" fill-rule="evenodd" stroke="none"/>
    <path d="M10.6 -22.05 L10.65 -17.0 10.65 -10.35 8.1 -5.6 5.7 -0.85 Q6.9 16.0 6.2 30.3 5.65 40.7 4.05 47.35 L6.7 44.45 1.1 55.2 0.15 56.6 Q1.25 56.05 2.5 55.4 4.85 55.4 6.55 54.3 8.25 53.15 8.25 51.55 14.4 46.75 18.85 39.7 20.7 36.6 22.05 32.6 21.5 41.75 15.25 48.75 L5.7 59.2 Q1.55 61.0 -2.05 58.9 L-2.45 58.6 -6.5 58.55 -6.25 57.35 Q-5.5 56.2 -5.15 54.95 L-0.1 38.05 Q2.4 29.4 3.25 20.45 4.0 12.4 3.35 4.3 2.6 -4.65 2.6 -13.7 L7.6 -33.55 10.6 -22.05 M16.6 -38.15 L18.9 -22.3 15.35 -10.1 15.9 -38.25 16.6 -38.15 M21.4 -1.15 L22.0 -5.7 24.2 -26.4 30.1 -3.35 Q29.1 3.25 28.35 9.9 27.35 18.75 22.5 26.55 22.95 15.35 21.4 -1.15 M22.15 -28.45 L22.2 -28.9 22.4 -29.1 22.15 -28.45 M39.6 21.35 Q45.75 5.15 57.3 -7.95 L60.0 -11.0 Q57.75 -8.15 56.0 -4.4 52.2 3.45 50.2 11.95 47.05 19.9 42.35 27.15 37.55 34.5 34.95 43.05 32.15 52.1 24.1 56.25 18.8 59.15 12.65 58.5 L11.15 58.25 13.95 56.4 Q18.6 54.55 22.6 51.55 30.05 45.95 35.2 38.35 40.45 30.6 39.6 21.35 M-6.5 58.5 L-8.7 58.25 Q-8.7 57.65 -8.35 57.25 -8.0 56.75 -7.55 56.75 L-6.5 58.5 M-10.6 57.85 L-10.65 58.75 -13.25 58.1 -22.35 46.65 -22.55 45.5 Q-24.25 36.7 -24.4 27.8 -24.5 19.1 -20.9 11.05 -17.2 2.65 -17.3 -6.25 L-9.85 -28.75 -8.05 -16.7 -10.3 -5.7 Q-13.3 -0.9 -15.1 4.2 -17.9 12.0 -16.7 20.7 -15.55 29.5 -13.55 38.3 -13.05 43.65 -11.55 49.0 L-11.45 49.6 -11.45 49.8 -10.6 57.85 M-19.7 58.75 L-28.7 59.4 -26.05 46.5 -22.7 55.05 -19.7 58.75 M-39.65 23.1 Q-42.0 13.1 -41.15 1.3 L-39.85 -11.05 -37.2 -23.0 -34.7 -13.8 Q-38.4 -5.95 -37.4 2.7 -36.4 11.45 -33.45 19.65 L-27.55 38.2 -27.1 45.0 -39.65 23.1 M-38.15 -25.75 L-38.1 -25.9 -37.95 -25.75 -38.15 -25.75 M-0.25 -39.35 L1.3 -30.7 -7.9 1.2 Q-7.35 -7.35 -6.15 -15.65 -4.9 -24.6 -2.3 -33.2 L-0.4 -39.4 -0.25 -39.35 M6.45 -35.85 L6.85 -36.45 6.95 -36.05 6.45 -35.85" fill="#008800" fill-rule="evenodd" stroke="none"/>
    <path d="M16.2 -40.85 L16.6 -38.15 15.9 -38.25 16.2 -40.85 M18.9 -22.3 L21.4 -1.15 Q22.95 15.35 22.5 26.55 L22.05 32.6 Q20.7 36.6 18.85 39.7 14.4 46.75 8.25 51.55 L12.3 34.8 Q14.45 26.2 15.6 17.45 16.8 8.55 16.05 -0.45 L15.35 -10.1 18.9 -22.3 M35.5 -2.8 L39.6 21.35 Q40.45 30.6 35.2 38.35 30.05 45.95 22.6 51.55 18.6 54.55 13.95 56.4 21.3 50.85 26.6 43.6 31.7 36.6 33.4 28.3 35.05 20.15 34.9 11.75 34.75 4.5 35.5 -2.8 M-28.7 59.4 L-31.4 58.55 Q-31.65 50.8 -35.45 43.0 -38.65 36.45 -40.8 29.5 -43.4 21.15 -47.9 13.6 L-49.95 9.35 -50.8 6.75 Q-51.65 3.65 -51.6 0.4 L-39.65 23.1 -27.1 45.0 -26.05 46.5 -28.7 59.4 M-16.9 -34.9 L-17.3 -11.8 -17.3 -6.25 Q-17.2 2.65 -20.9 11.05 -24.5 19.1 -24.4 27.8 -24.25 36.7 -22.55 45.5 L-22.35 46.65 Q-25.45 42.2 -27.55 38.2 L-33.45 19.65 -33.9 14.7 -29.3 -2.75 Q-27.2 -10.9 -24.0 -18.7 -20.65 -26.9 -16.9 -34.9 M-0.3 -39.7 L-0.25 -39.35 -0.4 -39.4 -0.3 -39.7 M1.3 -30.7 L3.05 -20.6 2.6 -13.7 Q2.6 -4.65 3.35 4.3 4.0 12.4 3.25 20.45 2.4 29.4 -0.1 38.05 L-5.15 54.95 Q-5.5 56.2 -6.25 57.35 L-7.75 39.45 Q-8.45 31.3 -8.6 23.2 -8.75 15.05 -8.25 6.95 L-7.9 1.2 1.3 -30.7 M2.5 55.4 Q1.25 56.05 0.15 56.6 L1.1 55.2 2.5 55.4" fill="#009900" fill-rule="evenodd" stroke="none"/>
    <path d="M30.1 -3.35 L30.85 -0.9 28.9 16.3 Q27.75 25.15 25.8 33.9 23.75 42.7 17.55 49.6 13.7 53.85 9.05 57.15 L5.7 59.2 15.25 48.75 Q21.5 41.75 22.05 32.6 L22.5 26.55 Q27.35 18.75 28.35 9.9 29.1 3.25 30.1 -3.35 M50.2 11.95 L48.75 17.9 44.6 34.15 Q42.35 42.4 38.4 50.15 33.65 59.35 24.1 56.25 32.15 52.1 34.95 43.05 37.55 34.5 42.35 27.15 47.05 19.9 50.2 11.95 M-8.7 58.25 L-10.6 57.85 -11.45 49.8 -11.35 49.8 -7.55 56.75 Q-8.0 56.75 -8.35 57.25 -8.7 57.65 -8.7 58.25 M-13.25 58.1 L-19.7 58.75 -22.7 55.05 -26.05 46.5 -27.1 45.0 -27.55 38.2 Q-25.45 42.2 -22.35 46.65 L-13.25 58.1 M-34.7 -13.8 L-32.7 -6.1 -33.9 14.7 -33.45 19.65 Q-36.4 11.45 -37.4 2.7 -38.4 -5.95 -34.7 -13.8 M6.7 44.45 L4.05 47.35 Q5.65 40.7 6.2 30.3 6.9 16.0 5.7 -0.85 L8.1 -5.6 10.65 -10.35 10.6 15.3 Q10.25 28.75 8.9 36.15 8.05 40.65 6.7 44.45 M-13.55 38.3 Q-15.55 29.5 -16.7 20.7 -17.9 12.0 -15.1 4.2 -13.3 -0.9 -10.3 -5.7 -12.35 6.35 -13.2 15.05 -14.4 27.3 -13.65 37.2 L-13.55 38.3 M-11.55 49.0 L-11.4 49.5 -11.45 49.6 -11.55 49.0" fill="#006600" fill-rule="evenodd" stroke="none"/>
    <path d="M30.35 56.55 Q35.5 56.55 43.4 57.8 L60.0 59.65 60.0 60.0 -60.0 60.0 -60.0 59.6 Q-54.8 58.55 -45.9 58.0 L-25.8 56.85 -5.25 55.15 0.65 55.0 9.65 55.0 13.45 55.4 30.35 56.55" fill="#000000" fill-rule="evenodd" stroke="none"/>
  </g>
</svg>
