<?xml version="1.0" encoding="UTF-8" standalone="no"?>
<svg xmlns:ffdec="https://www.free-decompiler.com/flash" xmlns:xlink="http://www.w3.org/1999/xlink" ffdec:objectType="shape" height="120.0px" width="120.0px" xmlns="http://www.w3.org/2000/svg">
  <g transform="matrix(1.0, 0.0, 0.0, 1.0, 60.0, 60.0)">
    <path d="M45.95 -52.8 L49.6 -56.5 55.45 -50.4 Q54.5 -49.1 52.2 -46.75 50.0 -44.55 48.7 -42.7 L48.3 -42.15 41.7 -48.35 Q43.3 -50.35 45.95 -52.8 M47.3 -51.3 L44.45 -48.5 48.05 -45.15 50.8 -48.15 52.8 -50.3 49.65 -53.55 47.35 -51.35 47.3 -51.3 M45.5 -60.0 L41.85 -56.55 37.55 -52.3 29.5 -60.0 32.4 -60.0 37.45 -55.2 40.55 -58.1 42.7 -60.0 45.5 -60.0 M20.1 -60.0 L11.6 -50.85 5.35 -57.1 2.6 -60.0 5.35 -60.0 6.75 -58.5 6.8 -58.45 11.55 -53.75 17.35 -60.0 20.1 -60.0 M-3.1 -60.0 L-5.85 -57.1 -12.1 -50.85 -20.6 -60.0 -17.8 -60.0 -12.05 -53.75 -7.3 -58.45 -5.85 -60.0 -3.1 -60.0 M-30.05 -60.0 L-38.05 -52.3 -42.35 -56.55 -46.0 -60.0 -43.15 -60.0 -41.05 -58.1 -37.95 -55.2 -32.9 -60.0 -30.05 -60.0 M-55.05 -60.0 L-59.5 -55.25 -60.0 -56.0 -60.0 -58.0 -59.65 -57.95 -57.75 -60.0 -55.05 -60.0 M-60.0 -44.35 L-56.45 -39.6 -54.35 -36.8 -60.0 -31.35 -60.0 -34.15 -57.0 -37.05 -58.05 -38.4 -60.0 -41.0 -60.0 -44.35 M-60.0 -13.45 L-54.9 -7.1 -53.25 -5.0 -60.0 3.5 -60.0 0.2 -55.85 -5.0 -56.5 -5.85 -60.0 -10.25 -60.0 -13.45 M-60.0 20.1 L-52.4 29.7 -55.15 33.85 -60.0 41.4 -60.0 37.65 -56.8 32.75 -54.9 29.8 -60.0 23.35 -60.0 20.1 M-60.0 53.15 L-56.1 57.35 -53.5 60.0 -56.25 60.0 -57.45 58.8 -57.5 58.8 -60.0 56.3 -60.0 53.15 M-44.05 60.0 Q-42.9 58.05 -41.1 55.85 L-36.6 50.1 -29.6 59.3 -30.05 60.0 -32.05 60.0 -32.0 59.45 -36.6 53.4 -39.5 57.1 -41.65 60.0 -44.05 60.0 M-21.15 60.0 Q-17.65 54.75 -13.45 50.25 L-11.35 47.95 -4.6 56.55 -2.55 60.0 -4.9 60.0 -6.35 57.6 -11.45 51.05 -11.95 51.6 Q-15.6 55.5 -18.75 60.0 L-21.15 60.0 M2.05 60.0 L4.1 56.6 4.1 56.55 10.85 47.95 12.95 50.25 Q17.1 54.75 20.65 60.0 L18.25 60.0 Q15.1 55.5 11.45 51.6 L10.95 51.05 5.85 57.55 5.85 57.6 4.4 60.0 2.05 60.0 M29.55 60.0 L29.1 59.3 36.05 50.1 40.55 55.85 Q42.35 58.05 43.55 60.0 L41.15 60.0 39.0 57.1 36.05 53.4 31.5 59.45 31.55 60.0 29.55 60.0 M53.0 60.0 L55.55 57.35 Q58.1 54.95 59.5 53.15 L60.0 54.05 60.0 42.25 54.65 33.85 51.95 29.7 60.0 19.5 60.0 4.15 52.75 -5.0 54.4 -7.1 60.0 -14.05 60.0 -30.9 53.85 -36.8 55.95 -39.6 60.0 -45.0 60.0 -46.1 60.0 -41.7 57.55 -38.4 56.55 -37.05 60.0 -33.65 60.0 -10.9 56.0 -5.85 55.35 -5.0 60.0 0.85 60.0 22.7 54.4 29.8 56.3 32.75 60.0 38.5 60.0 56.05 59.7 56.0 56.95 58.8 55.75 60.0 53.0 60.0 M60.0 -56.6 L59.0 -55.25 54.55 -60.0 57.3 -60.0 58.9 -58.3 59.4 -58.5 60.0 -58.6 60.0 -56.6 M35.8 -37.85 L31.5 -32.55 35.9 -27.7 41.8 -36.25 37.75 -40.25 35.8 -37.85 M37.55 -43.2 L43.45 -37.45 44.4 -36.5 36.1 -24.45 28.9 -32.45 34.25 -39.1 37.55 -43.2 M22.6 -42.25 L24.85 -39.8 30.75 -47.1 24.55 -53.35 18.5 -46.55 22.6 -42.25 M33.45 -47.25 L24.95 -36.75 21.15 -40.85 15.8 -46.5 24.5 -56.3 33.45 -47.25 M10.6 -37.6 L6.25 -32.65 12.85 -24.7 17.55 -30.65 10.8 -37.4 10.6 -37.6 M12.2 -38.85 L20.25 -30.8 12.9 -21.5 3.6 -32.7 10.5 -40.5 12.2 -38.85 M13.2 -9.5 L5.85 0.0 6.05 0.3 11.65 7.55 14.9 3.25 14.85 3.3 18.9 -2.7 13.2 -9.5 M32.85 -0.15 L32.9 -0.15 35.55 3.25 41.7 -5.55 36.9 -10.7 30.9 -2.6 32.85 -0.15 M29.6 -18.4 L24.45 -23.7 19.15 -17.05 24.35 -10.65 29.6 -18.4 M24.5 -7.3 L16.6 -17.0 24.3 -26.75 32.15 -18.65 24.5 -7.3 M36.7 -13.8 L44.25 -5.7 37.0 4.7 35.55 6.55 31.3 1.1 28.35 -2.55 36.7 -13.8 M21.4 -2.8 L16.5 4.45 11.65 10.85 4.5 1.5 3.3 0.0 13.15 -12.65 21.4 -2.8 M47.9 -10.9 L40.75 -19.2 49.75 -31.3 57.2 -24.05 47.9 -10.9 M54.55 -23.8 L50.0 -28.25 43.3 -19.3 47.75 -14.15 54.55 -23.8 M55.2 10.35 L49.1 2.85 41.95 11.8 48.05 20.45 55.65 10.95 55.2 10.35 M58.2 11.0 L47.95 23.85 39.45 11.75 49.0 -0.3 Q53.6 4.95 56.8 9.15 L58.2 11.0 M48.45 34.15 Q52.75 40.9 56.35 47.35 L51.75 52.95 Q48.7 56.3 47.15 58.6 45.9 56.55 43.1 53.3 L38.35 47.15 48.45 34.15 M48.25 37.6 L40.8 47.2 44.65 52.05 44.65 52.0 47.2 55.2 50.25 51.6 50.3 51.6 54.0 47.2 48.25 37.6 M21.05 10.85 L17.7 15.5 21.55 20.6 29.6 10.75 25.85 5.85 25.85 5.9 25.2 5.05 21.0 10.85 21.05 10.85 M27.45 4.65 L32.15 10.8 21.45 23.85 15.2 15.55 19.4 9.7 25.15 1.8 27.45 4.65 M7.75 15.55 L-0.25 24.65 -8.25 15.5 -2.4 7.75 -0.25 4.8 1.9 7.75 Q4.25 11.1 7.75 15.55 M0.3 8.9 L-0.25 8.15 -0.75 8.9 -5.65 15.45 -0.25 21.65 5.15 15.5 0.3 8.9 M20.15 44.05 L20.2 44.05 25.3 50.35 29.4 44.7 22.5 36.3 18.2 41.8 20.15 44.05 M10.8 33.7 L15.5 28.0 11.7 23.55 7.0 29.55 10.8 33.7 M18.65 45.35 L15.55 41.9 22.45 33.15 31.95 44.65 25.3 53.75 Q22.35 49.7 18.65 45.35 M4.35 29.65 L11.65 20.35 17.05 26.75 18.1 28.0 10.85 36.75 4.35 29.65 M34.4 38.1 L42.05 28.1 35.95 19.35 28.05 29.35 34.4 38.1 M25.5 29.3 L36.0 16.05 44.55 28.2 34.35 41.45 25.5 29.3 M-46.45 -52.8 Q-43.8 -50.35 -42.2 -48.35 L-48.8 -42.15 -49.2 -42.7 Q-50.5 -44.5 -52.7 -46.75 L-55.95 -50.4 -50.1 -56.5 -46.45 -52.8 M-50.15 -53.55 L-53.3 -50.3 -51.3 -48.2 -51.25 -48.15 -48.55 -45.15 -44.95 -48.5 -47.8 -51.35 -50.15 -53.55 M-43.95 -37.45 L-38.05 -43.2 -34.75 -39.1 -29.4 -32.45 -36.65 -24.45 -44.9 -36.5 -43.95 -37.45 M-43.8 -19.35 L-50.5 -28.3 -55.05 -23.85 -48.25 -14.2 -43.8 -19.35 M-48.4 -10.9 L-57.65 -24.1 -50.25 -31.3 -41.25 -19.25 -48.4 -10.9 M-11.0 -40.5 L-4.1 -32.7 -13.4 -21.5 -20.75 -30.8 -12.7 -38.85 -11.0 -40.5 M-0.25 -37.2 L-6.75 -44.75 -0.25 -51.3 6.25 -44.75 -0.25 -37.2 M-11.1 -37.6 L-11.3 -37.4 -18.1 -30.65 -13.4 -24.7 -6.75 -32.65 -11.1 -37.6 M-4.0 -44.65 L-0.25 -40.3 3.5 -44.65 -0.25 -48.45 -4.0 -44.65 M-23.05 -42.25 L-19.0 -46.55 -25.05 -53.35 -31.25 -47.1 -25.35 -39.8 -23.05 -42.25 M-38.25 -40.25 L-42.3 -36.25 -36.45 -27.7 -32.05 -32.5 -36.3 -37.85 -38.25 -40.25 M-21.6 -40.85 L-25.5 -36.75 -33.95 -47.25 -25.0 -56.3 -16.3 -46.5 -21.6 -40.85 M-33.35 -0.15 L-31.35 -2.65 -37.4 -10.75 -42.2 -5.55 -36.05 3.25 -33.4 -0.15 -33.35 -0.15 M-24.85 -10.65 L-19.65 -17.0 -24.95 -23.65 -30.1 -18.4 -24.85 -10.65 M-25.0 -7.3 L-32.65 -18.65 -24.8 -26.7 -17.1 -17.0 -25.0 -7.3 M-37.2 -13.85 L-28.85 -2.6 -31.8 1.1 -36.05 6.55 -37.5 4.7 -44.75 -5.7 -37.2 -13.85 M-0.25 -7.9 L6.85 -17.0 -0.25 -25.25 -7.35 -17.0 -0.25 -7.9 M-19.4 -2.7 L-15.35 3.3 -15.35 3.25 -12.15 7.6 -6.55 0.3 -6.35 0.0 -13.7 -9.5 -19.4 -2.7 M-19.9 9.7 L-15.7 15.55 -21.95 23.85 -32.65 10.8 -27.9 4.65 -25.65 1.75 -19.9 9.7 M-21.9 -2.8 L-13.65 -12.65 -3.8 0.0 -4.95 1.5 -12.1 10.85 -17.0 4.45 -21.9 -2.8 M-0.25 -4.65 L-9.95 -17.05 -0.25 -28.3 9.45 -17.05 -0.25 -4.65 M-21.5 10.85 L-25.7 5.05 -26.35 5.85 -30.1 10.75 -22.05 20.6 -18.2 15.5 -21.55 10.85 -21.5 10.85 M-28.5 29.4 L-36.45 19.35 -42.55 28.1 -34.85 38.1 -28.5 29.4 M-29.9 44.65 L-25.75 50.35 -20.7 44.05 -20.65 44.05 -18.7 41.8 -23.05 36.3 -29.9 44.65 M-23.0 33.15 L-16.1 41.9 -19.15 45.35 -25.8 53.75 -32.45 44.65 -23.0 33.15 M-26.0 29.3 L-34.8 41.45 -45.05 28.2 -36.5 16.05 -26.0 29.3 M-11.3 33.7 L-7.5 29.55 -12.2 23.55 -15.95 28.0 -11.3 33.7 M-11.35 36.75 L-18.55 28.0 -17.5 26.75 -12.15 20.35 -4.85 29.65 -11.35 36.75 M-3.95 42.7 L-0.25 47.45 3.45 42.7 -0.25 38.4 -3.95 42.7 M-6.55 42.65 L-0.25 35.3 6.05 42.65 -0.25 50.75 -6.55 42.65 M-49.6 2.85 L-55.7 10.35 -56.15 10.95 -48.55 20.45 -42.45 11.8 -49.6 2.85 M-58.65 11.0 L-57.3 9.15 Q-54.1 4.95 -49.5 -0.3 L-39.9 11.75 -48.45 23.85 -58.65 11.0 M-48.75 37.6 L-54.45 47.2 -50.75 51.6 -47.7 55.2 -45.1 52.0 -45.1 52.05 -41.3 47.25 -48.75 37.6 M-48.95 34.15 L-38.8 47.2 -43.6 53.3 Q-46.4 56.55 -47.65 58.6 -49.2 56.3 -52.25 52.95 L-56.85 47.35 Q-53.3 40.9 -48.95 34.15" fill="#ffffff" fill-opacity="0.2" fill-rule="evenodd" stroke="none"/>
    <path d="M45.95 -52.8 Q43.3 -50.35 41.7 -48.35 L48.3 -42.15 48.7 -42.7 Q50.0 -44.55 52.2 -46.75 54.5 -49.1 55.45 -50.4 L49.6 -56.5 45.95 -52.8 M29.5 -60.0 L37.55 -52.3 41.85 -56.55 45.5 -60.0 54.55 -60.0 59.0 -55.25 60.0 -56.6 60.0 -46.1 60.0 -45.0 55.95 -39.6 53.85 -36.8 60.0 -30.9 60.0 -14.05 54.4 -7.1 52.75 -5.0 60.0 4.15 60.0 19.5 51.95 29.7 54.65 33.85 60.0 42.25 60.0 54.05 59.5 53.15 Q58.1 54.95 55.55 57.35 L53.0 60.0 43.55 60.0 Q42.35 58.05 40.55 55.85 L36.05 50.1 29.1 59.3 29.55 60.0 20.65 60.0 Q17.1 54.75 12.95 50.25 L10.85 47.95 4.1 56.55 4.1 56.6 2.05 60.0 -2.55 60.0 -4.6 56.55 -11.35 47.95 -13.45 50.25 Q-17.65 54.75 -21.15 60.0 L-30.05 60.0 -29.6 59.3 -36.6 50.1 -41.1 55.85 Q-42.9 58.05 -44.05 60.0 L-53.5 60.0 -56.1 57.35 -60.0 53.15 -60.0 41.45 -60.0 41.4 -55.15 33.85 -52.4 29.7 -60.0 20.1 -60.0 3.55 -60.0 3.5 -53.25 -5.0 -54.9 -7.1 -60.0 -13.45 -60.0 -13.5 -60.0 -31.35 -54.35 -36.8 -56.45 -39.6 -60.0 -44.35 -60.0 -44.4 -60.0 -56.0 -59.5 -55.25 -55.05 -60.0 -46.0 -60.0 -42.35 -56.55 -38.05 -52.3 -30.05 -60.0 -20.6 -60.0 -12.1 -50.85 -5.85 -57.1 -3.1 -60.0 2.6 -60.0 5.35 -57.1 11.6 -50.85 20.1 -60.0 29.5 -60.0 M37.55 -43.2 L34.25 -39.1 28.9 -32.45 36.1 -24.45 44.4 -36.5 43.45 -37.45 37.55 -43.2 M33.45 -47.25 L24.5 -56.3 15.8 -46.5 21.15 -40.85 24.95 -36.75 33.45 -47.25 M12.2 -38.85 L10.5 -40.5 3.6 -32.7 12.9 -21.5 20.25 -30.8 12.2 -38.85 M21.4 -2.8 L13.15 -12.65 3.3 0.0 4.5 1.5 11.65 10.85 16.5 4.45 21.4 -2.8 M36.7 -13.8 L28.35 -2.55 31.3 1.1 35.55 6.55 37.0 4.7 44.25 -5.7 36.7 -13.8 M24.5 -7.3 L32.15 -18.65 24.3 -26.75 16.6 -17.0 24.5 -7.3 M47.9 -10.9 L57.2 -24.05 49.75 -31.3 40.75 -19.2 47.9 -10.9 M58.2 11.0 L56.8 9.15 Q53.6 4.95 49.0 -0.3 L39.45 11.75 47.95 23.85 58.2 11.0 M48.45 34.15 L38.35 47.15 43.1 53.3 Q45.9 56.55 47.15 58.6 48.7 56.3 51.75 52.95 L56.35 47.35 Q52.75 40.9 48.45 34.15 M7.75 15.55 Q4.25 11.1 1.9 7.75 L-0.25 4.8 -2.4 7.75 -8.25 15.5 -0.25 24.65 7.75 15.55 M27.45 4.65 L25.15 1.8 19.4 9.7 15.2 15.55 21.45 23.85 32.15 10.8 27.45 4.65 M18.65 45.35 Q22.35 49.7 25.3 53.75 L31.95 44.65 22.45 33.15 15.55 41.9 18.65 45.35 M4.35 29.65 L10.85 36.75 18.1 28.0 17.05 26.75 11.65 20.35 4.35 29.65 M25.5 29.3 L34.35 41.45 44.55 28.2 36.0 16.05 25.5 29.3 M-46.45 -52.8 L-50.1 -56.5 -55.95 -50.4 -52.7 -46.75 Q-50.5 -44.5 -49.2 -42.7 L-48.8 -42.15 -42.2 -48.35 Q-43.8 -50.35 -46.45 -52.8 M-43.95 -37.45 L-44.9 -36.5 -36.65 -24.45 -29.4 -32.45 -34.75 -39.1 -38.05 -43.2 -43.95 -37.45 M-48.4 -10.9 L-41.25 -19.25 -50.25 -31.3 -57.65 -24.1 -48.4 -10.9 M-0.25 -37.2 L6.25 -44.75 -0.25 -51.3 -6.75 -44.75 -0.25 -37.2 M-11.0 -40.5 L-12.7 -38.85 -20.75 -30.8 -13.4 -21.5 -4.1 -32.7 -11.0 -40.5 M-21.6 -40.85 L-16.3 -46.5 -25.0 -56.3 -33.95 -47.25 -25.5 -36.75 -21.6 -40.85 M-37.2 -13.85 L-44.75 -5.7 -37.5 4.7 -36.05 6.55 -31.8 1.1 -28.85 -2.6 -37.2 -13.85 M-25.0 -7.3 L-17.1 -17.0 -24.8 -26.7 -32.65 -18.65 -25.0 -7.3 M-0.25 -4.65 L9.45 -17.05 -0.25 -28.3 -9.95 -17.05 -0.25 -4.65 M-21.9 -2.8 L-17.0 4.45 -12.1 10.85 -4.95 1.5 -3.8 0.0 -13.65 -12.65 -21.9 -2.8 M-19.9 9.7 L-25.65 1.75 -27.9 4.65 -32.65 10.8 -21.95 23.85 -15.7 15.55 -19.9 9.7 M-23.0 33.15 L-32.45 44.65 -25.8 53.75 -19.15 45.35 -16.1 41.9 -23.0 33.15 M-26.0 29.3 L-36.5 16.05 -45.05 28.2 -34.8 41.45 -26.0 29.3 M-11.35 36.75 L-4.85 29.65 -12.15 20.35 -17.5 26.75 -18.55 28.0 -11.35 36.75 M-6.55 42.65 L-0.25 50.75 6.05 42.65 -0.25 35.3 -6.55 42.65 M-58.65 11.0 L-48.45 23.85 -39.9 11.75 -49.5 -0.3 Q-54.1 4.95 -57.3 9.15 L-58.65 11.0 M-48.95 34.15 Q-53.3 40.9 -56.85 47.35 L-52.25 52.95 Q-49.2 56.3 -47.65 58.6 -46.4 56.55 -43.6 53.3 L-38.8 47.2 -48.95 34.15" fill="#000000" fill-rule="evenodd" stroke="none"/>
  </g>
</svg>
