<?xml version="1.0" encoding="UTF-8" standalone="no"?>
<svg xmlns:ffdec="https://www.free-decompiler.com/flash" xmlns:xlink="http://www.w3.org/1999/xlink" ffdec:objectType="shape" height="120.0px" width="60.0px" xmlns="http://www.w3.org/2000/svg">
  <g transform="matrix(1.0, 0.0, 0.0, 1.0, 30.0, 60.0)">
    <path d="M7.9 -18.8 Q6.25 -26.3 6.05 -34.05 5.9 -40.45 6.95 -46.65 L7.4 -46.7 9.2 -31.5 7.9 -18.8 M-2.7 40.5 L-2.8 40.15 -3.1 38.3 -3.25 37.55 Q-4.2 31.55 -4.45 21.1 -4.65 13.5 -4.45 5.9 -4.3 -1.7 -1.55 -8.65 0.95 -15.15 2.35 -22.0 L7.2 0.2 Q7.2 8.05 6.25 15.75 5.05 24.25 1.75 31.65 -0.2 36.1 -2.7 40.5 M-8.5 -27.7 L-8.1 -3.05 -10.8 -13.75 -9.05 -27.65 -8.5 -27.7 M-2.75 51.05 Q-2.75 52.4 -1.45 53.4 -0.2 54.35 1.6 54.4 L3.35 55.45 3.45 55.55 Q4.4 55.9 4.85 52.65 8.15 52.15 9.2 48.7 11.4 41.45 12.75 33.8 L15.15 18.75 14.7 38.65 16.85 35.2 25.85 25.5 22.55 33.5 17.4 41.25 13.85 45.55 13.75 46.5 Q12.8 54.4 6.0 57.8 L5.6 58.15 Q4.85 58.75 6.05 59.85 L6.05 60.0 5.7 59.9 -1.95 55.85 1.1 58.5 -1.4 59.6 -6.35 59.45 -4.6 51.7 -11.65 42.95 -13.2 34.4 Q-12.45 37.05 -11.25 39.55 -8.05 46.2 -2.75 51.05 M29.35 20.85 L28.95 21.05 30.0 20.2 29.35 20.85" fill="#008800" fill-rule="evenodd" stroke="none"/>
    <path d="M6.95 -46.65 Q5.9 -40.45 6.05 -34.05 6.25 -26.3 7.9 -18.8 9.25 -12.95 9.8 -6.9 10.45 0.55 10.3 8.1 L9.45 23.7 8.15 37.95 Q7.25 45.5 4.85 52.65 4.4 55.9 3.45 55.55 L3.35 55.45 Q3.35 55.0 2.85 54.7 L1.6 54.4 Q-0.2 54.35 -1.45 53.4 -2.75 52.4 -2.75 51.05 -4.2 46.7 -4.75 42.2 -5.65 34.7 -7.4 27.4 -9.3 19.8 -8.9 11.85 L-8.1 -3.05 -8.5 -27.7 -8.75 -30.0 -6.75 -47.3 -6.4 -47.35 Q-5.25 -40.9 -4.9 -34.25 -4.6 -28.3 -4.55 -22.35 L-4.55 -8.6 -4.5 0.55 1.55 -25.3 2.35 -22.0 Q0.95 -15.15 -1.55 -8.65 -4.3 -1.7 -4.45 5.9 -4.65 13.5 -4.45 21.1 -4.2 31.55 -3.25 37.55 L-3.1 38.3 -2.8 40.15 -2.7 40.5 Q-1.8 44.95 -0.25 48.55 L1.6 52.35 2.45 48.0 5.2 35.7 Q8.05 21.5 8.8 8.55 9.3 1.45 8.9 -5.65 8.5 -11.85 7.5 -18.0 6.15 -25.75 5.35 -33.45 4.65 -39.55 4.85 -45.6 5.0 -52.9 6.4 -60.0 L7.3 -48.0 6.95 -46.65 M28.95 21.05 L29.35 20.85 25.85 25.5 16.85 35.2 19.35 31.35 Q23.25 25.2 28.95 21.05 M-8.15 59.0 Q-15.35 56.4 -17.85 48.15 L-21.95 34.25 Q-24.1 26.65 -28.95 20.95 L-30.0 19.8 -23.6 25.35 Q-23.6 29.3 -21.25 32.8 L-12.85 45.4 Q-8.9 51.45 -8.15 59.0" fill="#00cc00" fill-rule="evenodd" stroke="none"/>
    <path d="M7.9 -18.8 L9.2 -31.5 11.65 -14.85 Q13.45 -3.15 14.2 4.45 14.85 11.5 15.15 18.75 L12.75 33.8 Q11.4 41.45 9.2 48.7 8.15 52.15 4.85 52.65 7.25 45.5 8.15 37.95 L9.45 23.7 10.3 8.1 Q10.45 0.55 9.8 -6.9 9.25 -12.95 7.9 -18.8 M7.4 -46.7 L6.95 -46.65 7.3 -48.0 7.4 -46.7 M-6.4 -47.35 L-6.75 -47.3 -6.6 -48.5 -6.4 -47.35 M-8.75 -30.0 L-8.5 -27.7 -9.05 -27.65 -8.75 -30.0 M-8.1 -3.05 L-8.9 11.85 Q-9.3 19.8 -7.4 27.4 -5.65 34.7 -4.75 42.2 -4.2 46.7 -2.75 51.05 -8.05 46.2 -11.25 39.55 -12.45 37.05 -13.2 34.4 -14.5 20.2 -11.55 -6.95 L-10.8 -13.75 -8.1 -3.05 M1.6 54.4 L2.85 54.7 Q3.35 55.0 3.35 55.45 L1.6 54.4 M-8.15 59.0 Q-8.9 51.45 -12.85 45.4 L-21.25 32.8 Q-23.6 29.3 -23.6 25.35 L-11.65 42.95 -4.6 51.7 -6.35 59.45 -8.15 59.0" fill="#009900" fill-rule="evenodd" stroke="none"/>
    <path d="M8.8 8.55 Q8.05 21.5 5.2 35.7 L2.45 48.0 1.6 52.35 -0.25 48.55 Q-1.8 44.95 -2.7 40.5 -0.2 36.1 1.75 31.65 5.05 24.25 6.25 15.75 7.2 8.05 7.2 0.2 L8.8 8.55 M6.0 57.8 Q13.6 55.5 15.2 47.0 15.75 43.95 17.4 41.25 L22.55 33.5 21.75 36.15 16.85 50.6 Q13.85 58.8 6.05 59.85 4.85 58.75 5.6 58.15 L6.0 57.8 M-1.4 59.6 L1.1 58.5 -1.95 55.85 5.7 59.9 -1.4 59.6" fill="#006600" fill-rule="evenodd" stroke="none"/>
    <path d="M6.0 57.8 Q12.8 54.4 13.75 46.5 L13.85 45.55 17.4 41.25 Q15.75 43.95 15.2 47.0 13.6 55.5 6.0 57.8" fill="#004f00" fill-rule="evenodd" stroke="none"/>
    <path d="M15.2 56.55 Q17.75 56.55 21.7 57.8 L30.0 59.65 30.0 60.0 -30.0 60.0 -30.0 59.6 Q-27.4 58.55 -22.95 58.0 L-12.9 56.85 Q-6.5 56.1 -2.6 55.15 L0.35 55.0 4.85 55.0 Q5.65 54.95 6.75 55.4 L15.2 56.55" fill="#000000" fill-rule="evenodd" stroke="none"/>
  </g>
</svg>
