<?xml version="1.0" encoding="UTF-8" standalone="no"?>
<svg xmlns:ffdec="https://www.free-decompiler.com/flash" xmlns:xlink="http://www.w3.org/1999/xlink" ffdec:objectType="shape" height="240.0px" width="240.0px" xmlns="http://www.w3.org/2000/svg">
  <g transform="matrix(1.0, 0.0, 0.0, 1.0, 120.0, 120.0)">
    <path d="M2.1 -100.2 L-17.6 -100.2 -17.6 -120.0 2.1 -120.0 2.1 -100.2" fill="#666666" fill-opacity="0.0" fill-rule="evenodd" stroke="none"/>
    <path d="M80.65 -35.0 L77.25 -27.65 Q71.9 -16.1 48.05 38.6 36.65 64.55 28.75 81.05 L57.6 48.1 Q86.9 11.05 92.45 5.25 97.4 0.0 102.45 -4.4 L104.9 1.8 105.75 3.9 Q83.35 23.1 52.25 60.1 39.05 75.85 24.55 94.6 62.85 68.9 85.75 58.05 L92.2 55.55 Q107.55 50.6 118.6 49.35 L120.0 56.35 Q111.0 57.65 96.8 62.25 75.15 69.15 56.85 80.9 40.65 92.7 36.25 95.65 L26.85 103.15 41.15 98.3 Q67.95 89.7 99.75 88.4 109.55 88.0 116.95 88.55 L111.25 96.7 Q82.1 93.25 44.25 105.4 18.05 113.8 8.55 119.7 3.6 119.55 -3.4 119.75 L-9.85 120.0 Q-13.45 115.0 -17.45 110.35 -25.25 105.7 -35.7 101.9 -69.85 89.4 -107.5 93.5 L-120.0 95.4 -118.8 87.95 Q-114.05 86.85 -110.1 86.4 -66.1 81.6 -29.85 97.45 -50.05 78.5 -77.75 64.8 -95.7 56.0 -113.35 51.35 L-112.1 42.05 Q-77.9 49.6 -43.5 78.15 -36.95 83.6 -31.0 89.15 -45.95 70.0 -56.45 57.75 -60.55 52.85 -90.05 25.95 L-102.3 14.65 -100.05 10.55 -98.1 7.7 Q-46.5 52.8 -16.65 95.65 L-10.6 104.6 Q-10.8 103.0 -11.1 102.2 L-14.9 95.25 Q-35.85 57.3 -59.75 21.45 -73.0 1.6 -84.1 -12.85 L-80.0 -18.1 Q-67.3 -2.35 -55.5 16.5 L-29.95 55.7 Q-18.0 74.3 -11.4 86.55 -13.6 75.35 -16.25 67.7 -33.85 17.0 -69.75 -29.05 L-63.3 -34.8 Q-54.5 -22.7 -46.9 -10.85 -24.85 23.2 -10.05 65.85 -5.5 79.1 -3.0 92.3 -2.6 66.7 -10.3 37.75 L-19.65 0.75 Q-25.75 -22.55 -30.75 -37.0 -32.95 -43.25 -35.7 -49.7 L-29.35 -51.7 -24.25 -37.95 Q-11.95 0.85 -3.05 38.6 4.55 71.05 6.25 90.15 L6.35 91.95 6.9 90.0 Q10.05 76.95 9.25 62.6 6.85 22.85 4.85 9.45 L-5.6 -49.7 -7.1 -58.25 -1.65 -59.85 -1.15 -60.0 2.55 -59.9 5.1 -43.3 Q11.85 1.5 14.3 24.8 17.1 51.6 17.0 71.0 L20.45 60.5 Q29.9 27.15 32.1 10.4 34.6 -7.25 35.85 -46.3 L36.15 -55.75 44.1 -53.75 42.7 -30.9 Q40.05 9.55 38.3 15.5 35.7 24.2 33.0 39.75 30.0 57.0 28.15 64.4 L26.5 70.25 26.6 70.0 Q36.9 48.55 54.5 9.95 L74.95 -39.55 80.65 -35.0" fill="#333366" fill-rule="evenodd" stroke="none"/>
  </g>
</svg>
