<?xml version="1.0" encoding="UTF-8" standalone="no"?>
<svg xmlns:ffdec="https://www.free-decompiler.com/flash" xmlns:xlink="http://www.w3.org/1999/xlink" ffdec:objectType="shape" height="120.0px" width="120.05px" xmlns="http://www.w3.org/2000/svg">
  <g transform="matrix(1.0, 0.0, 0.0, 1.0, 60.05, 59.95)">
    <path d="M25.95 59.35 L13.6 57.85 22.95 46.65 Q27.4 39.95 29.8 34.15 33.6 25.2 34.3 13.9 L33.1 -7.35 38.45 -27.85 Q39.25 -19.3 40.35 -10.8 41.4 -2.35 41.55 6.2 41.7 14.45 39.95 22.6 L26.6 46.55 24.35 50.75 Q21.5 56.0 25.95 59.35 M3.4 58.9 L2.6 59.45 0.85 56.9 Q-4.25 49.7 -6.45 41.15 -8.65 32.75 -9.1 24.1 L-9.55 6.95 -9.5 -9.75 -9.45 -23.75 -5.55 -38.85 -2.05 -22.3 -2.1 -21.75 Q-4.1 -8.8 -4.6 -2.05 -5.85 15.2 -5.1 29.9 -3.8 55.5 3.35 58.9 L3.4 58.9 M-1.4 60.05 L-6.5 58.45 -7.4 57.8 Q-14.8 52.65 -19.4 45.05 -24.3 37.1 -25.7 27.9 L-28.15 10.1 Q-28.95 4.05 -29.35 -2.05 -27.1 -9.55 -25.15 -17.1 -23.1 -25.15 -22.1 -33.45 L-21.85 -35.95 -20.05 -2.3 Q-22.0 19.5 -20.7 32.25 -20.2 41.65 -14.55 49.25 -9.3 56.2 -1.4 60.05 M-23.1 56.9 Q-32.4 59.3 -36.75 50.3 -40.65 42.35 -42.85 33.85 L-46.85 17.25 Q-48.8 8.85 -51.5 0.6 -54.35 -7.85 -59.8 -15.0 -60.35 -15.75 -59.7 -16.35 -54.5 -9.65 -49.9 -2.5 -45.0 5.2 -41.3 13.5 L-37.9 20.75 Q-38.0 24.8 -37.55 29.0 -36.85 38.05 -32.6 46.05 -29.1 52.6 -22.7 56.55 L-23.1 56.9 M18.0 -13.25 L17.9 -1.45 17.8 3.6 Q17.65 12.15 16.9 20.7 16.1 29.4 14.3 38.1 14.85 29.25 14.35 20.45 13.85 12.15 12.8 3.95 11.6 -5.0 9.8 -13.8 L8.9 -18.3 11.35 -34.8 18.0 -13.25" fill="#002200" fill-rule="evenodd" stroke="none"/>
    <path d="M31.85 -13.75 L37.25 -32.2 39.6 -32.15 Q41.45 -29.0 42.0 -24.9 44.75 -4.35 42.85 16.3 L39.95 22.6 Q41.7 14.45 41.55 6.2 41.4 -2.35 40.35 -10.8 39.25 -19.3 38.45 -27.85 L33.1 -7.35 31.85 -13.75 M-59.7 -16.35 L-57.95 -17.15 Q-47.7 -8.8 -42.1 3.85 L-37.45 14.2 -37.9 20.75 -41.3 13.5 Q-45.0 5.2 -49.9 -2.5 -54.5 -9.65 -59.7 -16.35 M-29.3 -12.35 L-23.25 -40.0 -19.85 -40.05 Q-18.55 -38.2 -18.5 -35.9 -18.35 -25.5 -18.7 -15.05 L-20.05 -2.3 -21.85 -35.95 -22.1 -33.45 Q-23.1 -25.15 -25.15 -17.1 -27.1 -9.55 -29.35 -2.05 L-29.3 -12.35 M-9.5 -34.7 L-7.2 -42.8 -4.1 -42.95 -0.9 -29.45 -2.05 -22.3 -5.55 -38.85 -9.45 -23.75 -9.5 -34.7 M7.4 -25.3 L9.85 -38.9 12.0 -39.3 13.05 -38.55 17.8 -22.6 18.0 -13.25 11.35 -34.8 8.9 -18.3 7.4 -25.3" fill="#00ff00" fill-opacity="0.3019608" fill-rule="evenodd" stroke="none"/>
    <path d="M42.85 16.3 L51.7 -0.7 Q51.2 7.75 47.1 15.75 42.9 23.8 39.25 32.1 35.6 40.25 33.4 48.85 32.0 54.2 31.8 58.9 30.4 59.55 29.2 59.8 L26.6 46.55 39.95 22.6 42.85 16.3 M-37.45 14.2 L-33.9 -4.0 Q-33.25 4.95 -33.1 13.95 -32.95 23.0 -30.65 31.85 -28.4 40.45 -22.45 47.45 -18.1 52.6 -12.75 56.7 L-14.1 56.1 Q-22.85 52.45 -28.4 44.9 -33.95 37.45 -37.55 29.0 -38.0 24.8 -37.9 20.75 L-37.45 14.2 M-18.7 -15.05 L-17.6 -24.0 -14.1 -11.55 -15.2 5.95 Q-15.7 15.15 -13.3 23.95 -11.0 32.55 -9.75 41.4 -9.0 46.7 -7.1 51.7 -13.2 46.75 -17.55 39.55 -19.4 36.4 -20.7 32.25 -22.0 19.5 -20.05 -2.3 L-18.7 -15.05 M-0.9 -29.45 L-0.35 -32.6 8.75 0.1 9.4 17.05 Q9.65 25.0 9.05 32.9 L7.85 48.85 7.1 57.7 Q4.5 53.25 4.0 48.15 3.15 39.2 0.25 30.7 -2.55 22.45 -2.5 13.75 -2.45 4.65 -1.8 -4.35 -1.2 -13.05 -2.1 -21.75 L-2.05 -22.3 -0.9 -29.45 M17.8 -22.6 L17.55 -36.9 Q21.3 -28.7 24.55 -20.3 27.7 -12.3 29.75 -3.95 L34.3 13.9 Q33.6 25.2 29.8 34.15 27.4 39.95 22.95 46.65 24.7 37.75 24.95 28.75 25.1 19.95 22.6 11.5 20.6 4.9 17.9 -1.45 L18.0 -13.25 17.8 -22.6" fill="#006600" fill-rule="evenodd" stroke="none"/>
    <path d="M29.2 59.8 Q27.3 60.1 25.95 59.35 21.5 56.0 24.35 50.75 L26.6 46.55 29.2 59.8 M13.6 57.85 L11.4 58.2 12.3 49.15 14.3 38.1 Q16.1 29.4 16.9 20.7 17.65 12.15 17.8 3.6 L17.9 -1.45 Q20.6 4.9 22.6 11.5 25.1 19.95 24.95 28.75 24.7 37.75 22.95 46.65 L13.6 57.85 M7.35 58.85 L3.4 58.9 3.35 58.9 Q-3.8 55.5 -5.1 29.9 -5.85 15.2 -4.6 -2.05 -4.1 -8.8 -2.1 -21.75 -1.2 -13.05 -1.8 -4.35 -2.45 4.65 -2.5 13.75 -2.55 22.45 0.25 30.7 3.15 39.2 4.0 48.15 4.5 53.25 7.1 57.7 L7.35 58.85 M2.6 59.45 L-1.4 60.05 Q-9.3 56.2 -14.55 49.25 -20.2 41.65 -20.7 32.25 -19.4 36.4 -17.55 39.55 -13.2 46.75 -7.1 51.7 -5.05 55.8 -0.35 56.45 0.25 56.6 0.85 56.9 L2.6 59.45 M-10.0 58.6 L-10.05 58.6 Q-16.95 59.8 -22.6 56.6 L-22.7 56.55 Q-29.1 52.6 -32.6 46.05 -36.85 38.05 -37.55 29.0 -33.95 37.45 -28.4 44.9 -22.85 52.45 -14.1 56.1 L-12.75 56.7 -10.0 58.6 M-17.6 -24.0 L-15.35 -40.25 Q-11.75 -32.5 -13.2 -23.2 -14.1 -17.45 -14.1 -11.55 L-17.6 -24.0 M-0.35 -32.6 L1.2 -41.5 Q3.9 -34.1 5.6 -25.95 L7.25 -15.6 8.75 0.1 -0.35 -32.6" fill="#004400" fill-rule="evenodd" stroke="none"/>
    <path d="M17.55 -36.9 L17.4 -55.3 18.15 -55.3 31.85 -13.75 33.1 -7.35 34.3 13.9 29.75 -3.95 Q27.7 -12.3 24.55 -20.3 21.3 -28.7 17.55 -36.9 M51.7 -0.7 L59.95 -10.5 Q57.75 -7.55 56.0 -3.75 52.3 4.3 50.3 12.95 L46.5 28.9 42.4 45.4 Q40.05 54.65 31.8 58.9 32.0 54.2 33.4 48.85 35.6 40.25 39.25 32.1 42.9 23.8 47.1 15.75 51.2 7.75 51.7 -0.7 M7.4 58.8 L7.35 58.85 7.1 57.7 7.85 48.85 9.05 32.9 Q9.65 25.0 9.4 17.05 L8.75 0.1 7.25 -15.6 5.6 -25.95 Q3.9 -34.1 1.2 -41.5 L3.35 -53.9 7.4 -25.3 8.9 -18.3 9.8 -13.8 Q11.6 -5.0 12.8 3.95 13.85 12.15 14.35 20.45 14.85 29.25 14.3 38.1 L12.3 49.15 7.4 58.8 M-7.5 57.85 L-10.0 58.6 -12.75 56.7 Q-18.1 52.6 -22.45 47.45 -28.4 40.45 -30.65 31.85 -32.95 23.0 -33.1 13.95 -33.25 4.95 -33.9 -4.0 L-29.7 -31.85 -29.3 -12.35 -29.35 -2.05 Q-28.95 4.05 -28.15 10.1 L-25.7 27.9 Q-24.3 37.1 -19.4 45.05 -14.8 52.65 -7.4 57.8 L-7.5 57.85 M-15.35 -40.25 L-12.6 -59.95 -11.7 -59.95 -9.5 -34.7 -9.45 -23.75 -9.5 -9.75 -9.55 6.95 -9.1 24.1 Q-8.65 32.75 -6.45 41.15 -4.25 49.7 0.85 56.9 0.25 56.6 -0.35 56.45 -5.05 55.8 -7.1 51.7 -9.0 46.7 -9.75 41.4 -11.0 32.55 -13.3 23.95 -15.7 15.15 -15.2 5.95 L-14.1 -11.55 Q-14.1 -17.45 -13.2 -23.2 -11.75 -32.5 -15.35 -40.25" fill="#007700" fill-rule="evenodd" stroke="none"/>
    <path d="M11.4 58.2 L7.4 58.8 12.3 49.15 11.4 58.2" fill="#003300" fill-rule="evenodd" stroke="none"/>
    <path d="M-6.5 58.45 L-7.5 57.85 -7.4 57.8 -6.5 58.45 M-22.6 56.6 L-23.1 56.9 -22.7 56.55 -22.6 56.6" fill="#00ff00" fill-opacity="0.49803922" fill-rule="evenodd" stroke="none"/>
    <path d="M30.35 56.55 Q35.5 56.55 43.4 57.8 L60.0 59.65 60.0 60.0 -60.0 60.0 -60.0 59.6 Q-54.8 58.55 -45.9 58.0 L-25.8 56.85 -5.25 55.15 0.65 55.0 9.65 55.0 13.45 55.4 30.35 56.55" fill="#000000" fill-rule="evenodd" stroke="none"/>
  </g>
</svg>
