<?xml version="1.0" encoding="UTF-8" standalone="no"?>
<svg xmlns:ffdec="https://www.free-decompiler.com/flash" xmlns:xlink="http://www.w3.org/1999/xlink" ffdec:objectType="shape" height="50.45px" width="305.3px" xmlns="http://www.w3.org/2000/svg">
  <g transform="matrix(1.0, 0.0, 0.0, 1.0, 152.65, 25.05)">
    <path d="M29.95 -20.15 L49.9 -20.1 49.9 -10.1 70.0 -10.1 69.95 -20.15 89.95 -20.2 90.0 -10.25 110.0 -10.3 109.95 -20.3 129.95 -20.35 Q138.25 -20.4 144.15 -14.65 150.0 -8.75 150.0 -0.4 150.05 7.9 144.25 13.75 138.4 19.65 130.1 19.7 L110.1 19.75 110.05 9.7 90.05 9.8 90.05 19.8 70.1 19.9 70.05 9.9 50.0 9.9 50.0 19.95 30.1 19.9 30.05 9.9 10.05 10.0 10.05 19.95 -9.95 20.1 -9.95 10.1 -29.95 10.15 -29.95 20.15 -49.9 20.2 -50.0 10.15 -70.0 10.25 -69.95 20.25 -89.9 20.3 -89.95 10.35 -109.95 10.4 -109.9 20.4 -129.9 20.4 Q-138.2 20.45 -144.1 14.65 -150.0 8.8 -150.0 0.5 -150.05 -7.85 -144.2 -13.75 -138.4 -19.6 -130.1 -19.6 L-110.1 -19.65 -110.0 -9.65 -90.0 -9.7 -90.05 -19.75 -70.05 -19.75 -70.05 -9.8 -50.05 -9.85 -50.1 -19.85 -30.1 -19.9 -30.05 -9.85 -10.05 -9.95 -10.1 -19.95 9.9 -20.05 9.95 -10.05 29.95 -10.1 29.95 -20.15 M-130.0 -7.1 Q-133.15 -7.1 -135.3 -4.85 -137.4 -2.7 -137.45 0.45 -137.45 3.5 -135.3 5.7 -133.15 7.85 -130.0 7.9 -126.9 7.85 -124.65 5.75 -122.45 3.55 -122.5 0.45 -122.45 -2.65 -124.7 -4.85 -126.9 -7.1 -130.0 -7.1 M130.0 -7.8 Q126.9 -7.8 124.7 -5.65 122.55 -3.45 122.5 -0.3 122.55 2.75 124.8 4.95 126.95 7.15 130.05 7.2 133.1 7.2 135.4 5.0 137.55 2.75 137.5 -0.35 137.55 -3.45 135.35 -5.6 133.05 -7.8 130.0 -7.8" fill="url(#gradient0)" fill-rule="evenodd" stroke="none"/>
    <path d="M29.95 -20.15 L49.9 -20.1 49.9 -10.1 70.0 -10.1 69.95 -20.15 89.95 -20.2 90.0 -10.25 110.0 -10.3 109.95 -20.3 129.95 -20.35 Q138.25 -20.4 144.15 -14.65 150.0 -8.75 150.0 -0.4 150.05 7.9 144.25 13.75 138.4 19.65 130.1 19.7 L110.1 19.75 110.05 9.7 90.05 9.8 90.05 19.8 70.1 19.9 70.05 9.9 50.0 9.9 50.0 19.95 30.1 19.9 30.05 9.9 10.05 10.0 10.05 19.95 -9.95 20.1 -9.95 10.1 -29.95 10.15 -29.95 20.15 -49.9 20.2 -50.0 10.15 -70.0 10.25 -69.95 20.25 -89.9 20.3 -89.95 10.35 -109.95 10.4 -109.9 20.4 -129.9 20.4 Q-138.2 20.45 -144.1 14.65 -150.0 8.8 -150.0 0.5 -150.05 -7.85 -144.2 -13.75 -138.4 -19.6 -130.1 -19.6 L-110.1 -19.65 -110.0 -9.65 -90.0 -9.7 -90.05 -19.75 -70.05 -19.75 -70.05 -9.8 -50.05 -9.85 -50.1 -19.85 -30.1 -19.9 -30.05 -9.85 -10.05 -9.95 -10.1 -19.95 9.9 -20.05 9.95 -10.05 29.95 -10.1 29.95 -20.15 Z" fill="none" stroke="#000000" stroke-linecap="square" stroke-linejoin="miter-clip" stroke-miterlimit="3.0" stroke-opacity="0.4" stroke-width="4.0"/>
  </g>
  <defs>
    <linearGradient gradientTransform="matrix(-0.0859, 0.0, 0.0, -0.0249, 21.95, 0.05)" gradientUnits="userSpaceOnUse" id="gradient0" spreadMethod="pad" x1="-819.2" x2="819.2">
      <stop offset="0.0" stop-color="#7c7c7c"/>
      <stop offset="0.6039215686274509" stop-color="#e0e0e0"/>
      <stop offset="1.0" stop-color="#a9a9a9"/>
    </linearGradient>
  </defs>
</svg>
