<?xml version="1.0" encoding="UTF-8" standalone="no"?>
<svg xmlns:ffdec="https://www.free-decompiler.com/flash" xmlns:xlink="http://www.w3.org/1999/xlink" ffdec:objectType="shape" height="120.0px" width="59.95px" xmlns="http://www.w3.org/2000/svg">
  <g transform="matrix(1.0, 0.0, 0.0, 1.0, 29.95, 60.0)">
    <path d="M12.7 -60.0 L30.0 -60.0 24.9 -9.85 12.7 -21.2 12.7 -60.0" fill="url(#gradient0)" fill-rule="evenodd" stroke="none"/>
    <path d="M12.7 -21.2 L24.9 -9.85 9.6 10.0 3.75 -6.0 12.7 -21.2" fill="url(#gradient1)" fill-rule="evenodd" stroke="none"/>
    <path d="M9.6 10.0 L4.0 59.75 1.55 60.0 -5.35 19.5 3.75 -6.0 9.6 10.0" fill="url(#gradient2)" fill-rule="evenodd" stroke="none"/>
    <path d="M-13.9 -17.05 L-28.5 -56.3 -29.95 -60.0 -17.1 -60.0 -8.55 -43.65 0.0 -27.35 -13.9 -17.05" fill="url(#gradient3)" fill-rule="evenodd" stroke="none"/>
    <path d="M-19.8 7.0 L-13.9 -17.05 0.0 -27.35 -7.9 -0.6 -10.85 9.35 -19.8 7.0" fill="url(#gradient4)" fill-rule="evenodd" stroke="none"/>
    <path d="M1.55 60.0 L-19.8 7.0 -10.85 9.35 -5.35 19.5 1.55 60.0" fill="url(#gradient5)" fill-rule="evenodd" stroke="none"/>
    <path d="M-17.1 -60.0 L12.7 -60.0 -8.55 -43.65 -17.1 -60.0" fill="url(#gradient6)" fill-rule="evenodd" stroke="none"/>
    <path d="M12.7 -60.0 L12.7 -21.2 0.0 -27.35 -8.55 -43.65 12.7 -60.0" fill="url(#gradient7)" fill-rule="evenodd" stroke="none"/>
    <path d="M0.0 -27.35 L12.7 -21.2 3.75 -6.0 -7.9 -0.6 0.0 -27.35" fill="url(#gradient8)" fill-rule="evenodd" stroke="none"/>
    <path d="M-5.35 19.5 L-10.85 9.35 -7.9 -0.6 3.75 -6.0 -5.35 19.5" fill="url(#gradient9)" fill-rule="evenodd" stroke="none"/>
  </g>
  <defs>
    <radialGradient cx="0" cy="0" gradientTransform="matrix(0.0536, 0.0, 0.0, 0.0931, 49.75, -36.6)" gradientUnits="userSpaceOnUse" id="gradient0" r="819.2" spreadMethod="pad">
      <stop offset="0.00392156862745098" stop-color="#f7f9fc"/>
      <stop offset="0.7254901960784313" stop-color="#798794"/>
    </radialGradient>
    <radialGradient cx="0" cy="0" gradientTransform="matrix(0.0577, 0.0, 0.0, 0.0577, 34.15, 13.15)" gradientUnits="userSpaceOnUse" id="gradient1" r="819.2" spreadMethod="pad">
      <stop offset="0.00392156862745098" stop-color="#f7f9fc"/>
      <stop offset="0.7254901960784313" stop-color="#798794"/>
    </radialGradient>
    <radialGradient cx="0" cy="0" gradientTransform="matrix(0.0494, 0.0, 0.0, 0.0494, 22.45, 26.35)" gradientUnits="userSpaceOnUse" id="gradient2" r="819.2" spreadMethod="pad">
      <stop offset="0.00392156862745098" stop-color="#f7f9fc"/>
      <stop offset="0.7254901960784313" stop-color="#798794"/>
    </radialGradient>
    <radialGradient cx="0" cy="0" gradientTransform="matrix(0.0451, -0.0121, 0.0185, 0.0689, -12.2, -40.55)" gradientUnits="userSpaceOnUse" id="gradient3" r="819.2" spreadMethod="pad">
      <stop offset="0.00392156862745098" stop-color="#f7f9fc"/>
      <stop offset="0.7254901960784313" stop-color="#798794"/>
    </radialGradient>
    <radialGradient cx="0" cy="0" gradientTransform="matrix(0.0344, 0.0, 0.0, 0.0685, -10.75, -6.85)" gradientUnits="userSpaceOnUse" id="gradient4" r="819.2" spreadMethod="pad">
      <stop offset="0.00392156862745098" stop-color="#f7f9fc"/>
      <stop offset="0.7254901960784313" stop-color="#798794"/>
    </radialGradient>
    <radialGradient cx="0" cy="0" gradientTransform="matrix(0.0262, -0.007, 0.0156, 0.0582, -8.8, 23.9)" gradientUnits="userSpaceOnUse" id="gradient5" r="819.2" spreadMethod="pad">
      <stop offset="0.00392156862745098" stop-color="#f7f9fc"/>
      <stop offset="0.7254901960784313" stop-color="#798794"/>
    </radialGradient>
    <radialGradient cx="0" cy="0" gradientTransform="matrix(0.0309, 0.0, 0.0, 0.0309, -7.3, -54.2)" gradientUnits="userSpaceOnUse" id="gradient6" r="819.2" spreadMethod="pad">
      <stop offset="0.00392156862745098" stop-color="#f7f9fc"/>
      <stop offset="0.7254901960784313" stop-color="#798794"/>
    </radialGradient>
    <radialGradient cx="0" cy="0" gradientTransform="matrix(0.037, 0.0, 0.0, 0.0514, 4.9, -40.55)" gradientUnits="userSpaceOnUse" id="gradient7" r="819.2" spreadMethod="pad">
      <stop offset="0.00392156862745098" stop-color="#f7f9fc"/>
      <stop offset="0.7254901960784313" stop-color="#798794"/>
    </radialGradient>
    <radialGradient cx="0" cy="0" gradientTransform="matrix(0.0302, 0.0, 0.0, 0.0302, 1.0, -16.15)" gradientUnits="userSpaceOnUse" id="gradient8" r="819.2" spreadMethod="pad">
      <stop offset="0.00392156862745098" stop-color="#f7f9fc"/>
      <stop offset="0.7254901960784313" stop-color="#798794"/>
    </radialGradient>
    <radialGradient cx="0" cy="0" gradientTransform="matrix(0.0353, 0.0, 0.0, 0.0339, -5.85, 5.35)" gradientUnits="userSpaceOnUse" id="gradient9" r="819.2" spreadMethod="pad">
      <stop offset="0.00392156862745098" stop-color="#f7f9fc"/>
      <stop offset="0.7254901960784313" stop-color="#798794"/>
    </radialGradient>
  </defs>
</svg>
