<?xml version="1.0" encoding="UTF-8" standalone="no"?>
<svg xmlns:ffdec="https://www.free-decompiler.com/flash" xmlns:xlink="http://www.w3.org/1999/xlink" ffdec:objectType="shape" height="128.0px" width="128.0px" xmlns="http://www.w3.org/2000/svg">
  <g transform="matrix(1.0, 0.0, 0.0, 1.0, 64.0, 64.0)">
    <path d="M8.0 -59.5 Q27.75 -57.1 42.45 -42.45 L47.55 -36.7 Q52.65 -30.25 55.7 -22.9 60.0 -12.35 60.0 0.0 60.0 12.35 55.7 22.9 52.65 30.25 47.55 36.7 45.2 39.65 42.45 42.4 27.75 57.1 8.0 59.55 L0.0 60.0 -8.0 59.55 Q-27.75 57.1 -42.4 42.4 L-47.5 36.7 Q-52.65 30.2 -55.65 22.9 -60.0 12.35 -60.0 0.0 -60.0 -12.35 -55.65 -22.9 -52.65 -30.2 -47.55 -36.65 L-42.4 -42.45 Q-27.75 -57.1 -8.0 -59.5 L0.0 -60.0 8.0 -59.5 M7.25 -7.25 Q10.25 -4.25 10.25 0.0 10.25 4.25 7.25 7.25 4.25 10.25 0.0 10.25 -4.25 10.25 -7.25 7.25 -10.25 4.25 -10.25 0.0 -10.25 -4.25 -7.25 -7.25 -4.25 -10.25 0.0 -10.25 4.25 -10.25 7.25 -7.25 M8.0 -39.2 L8.0 -21.5 -8.0 -21.5 -8.0 -39.2 -8.0 -49.4 Q-23.55 -47.05 -35.25 -35.35 L-38.7 -31.55 Q-44.0 -25.2 -46.8 -17.8 -49.9 -9.55 -49.9 0.0 -49.9 9.55 -46.8 17.8 L-38.0 12.7 -22.6 3.8 -14.6 17.7 -29.95 26.55 -38.7 31.6 -35.25 35.35 Q-23.55 47.05 -8.0 49.4 L0.1 50.0 8.0 49.45 Q23.7 47.1 35.45 35.35 L38.85 31.65 30.05 26.6 14.65 17.7 22.65 3.85 38.1 12.8 46.95 17.9 Q50.1 9.6 50.1 0.0 50.1 -9.6 46.95 -17.85 44.15 -25.3 38.85 -31.65 L35.45 -35.35 Q23.7 -47.15 8.0 -49.4 L8.0 -39.2" fill="#000000" fill-rule="evenodd" stroke="none"/>
    <path d="M38.1 12.8 Q40.05 6.8 40.05 0.05 40.05 -6.75 38.1 -12.75 35.6 -20.3 29.95 -26.55 L28.35 -28.25 Q19.55 -37.05 8.0 -39.2 L8.0 -49.4 Q23.7 -47.15 35.45 -35.35 L38.85 -31.65 Q44.15 -25.3 46.95 -17.85 50.1 -9.6 50.1 0.0 50.1 9.6 46.95 17.9 L38.1 12.8 M-8.0 -39.2 Q-19.45 -37.0 -28.2 -28.25 L-29.9 -26.45 Q-35.5 -20.25 -37.95 -12.7 -39.95 -6.75 -39.95 0.05 -39.95 6.8 -38.0 12.7 L-46.8 17.8 Q-49.9 9.55 -49.9 0.0 -49.9 -9.55 -46.8 -17.8 -44.0 -25.2 -38.7 -31.55 L-35.25 -35.35 Q-23.55 -47.05 -8.0 -49.4 L-8.0 -39.2 M-29.95 26.55 L-28.2 28.35 Q-19.45 37.1 -8.0 39.3 L0.05 40.05 8.0 39.35 Q19.55 37.15 28.35 28.35 L30.05 26.6 38.85 31.65 35.45 35.35 Q23.7 47.1 8.0 49.45 L0.1 50.0 -8.0 49.4 Q-23.55 47.05 -35.25 35.35 L-38.7 31.6 -29.95 26.55" fill="#333333" fill-rule="evenodd" stroke="none"/>
    <path d="M7.25 -7.25 Q4.25 -10.25 0.0 -10.25 -4.25 -10.25 -7.25 -7.25 -10.25 -4.25 -10.25 0.0 -10.25 4.25 -7.25 7.25 -4.25 10.25 0.0 10.25 4.25 10.25 7.25 7.25 10.25 4.25 10.25 0.0 10.25 -4.25 7.25 -7.25 M8.0 -39.2 Q19.55 -37.05 28.35 -28.25 L29.95 -26.55 Q35.6 -20.3 38.1 -12.75 40.05 -6.75 40.05 0.05 40.05 6.8 38.1 12.8 L22.65 3.85 14.65 17.7 30.05 26.6 28.35 28.35 Q19.55 37.15 8.0 39.35 L0.05 40.05 -8.0 39.3 Q-19.45 37.1 -28.2 28.35 L-29.95 26.55 -14.6 17.7 -22.6 3.8 -38.0 12.7 Q-39.95 6.8 -39.95 0.05 -39.95 -6.75 -37.95 -12.7 -35.5 -20.25 -29.9 -26.45 L-28.2 -28.25 Q-19.45 -37.0 -8.0 -39.2 L-8.0 -21.5 8.0 -21.5 8.0 -39.2" fill="#666666" fill-rule="evenodd" stroke="none"/>
    <path d="M8.0 -59.5 L0.0 -60.0 -8.0 -59.5 Q-27.75 -57.1 -42.4 -42.45 L-47.55 -36.65 Q-52.65 -30.2 -55.65 -22.9 -60.0 -12.35 -60.0 0.0 -60.0 12.35 -55.65 22.9 -52.65 30.2 -47.5 36.7 L-42.4 42.4 Q-27.75 57.1 -8.0 59.55 L0.0 60.0 8.0 59.55 Q27.75 57.1 42.45 42.4 45.2 39.65 47.55 36.7 52.65 30.25 55.7 22.9 60.0 12.35 60.0 0.0 60.0 -12.35 55.7 -22.9 52.65 -30.25 47.55 -36.7 L42.45 -42.45 Q27.75 -57.1 8.0 -59.5 M8.55 -63.5 Q29.6 -60.9 45.3 -45.25 48.25 -42.3 50.75 -39.15 56.15 -32.25 59.4 -24.4 64.0 -13.15 64.0 0.0 64.0 13.15 59.4 24.45 56.15 32.25 50.75 39.15 48.25 42.3 45.3 45.25 29.6 60.9 8.55 63.5 L0.0 64.0 -8.5 63.5 Q-29.6 60.9 -45.2 45.25 L-50.7 39.15 Q-56.15 32.2 -59.35 24.4 -64.0 13.15 -64.0 0.0 -64.0 -13.15 -59.35 -24.4 -56.15 -32.25 -50.7 -39.1 L-45.2 -45.25 Q-29.6 -60.9 -8.5 -63.5 L0.0 -64.0 8.55 -63.5" fill="#ff6600" fill-rule="evenodd" stroke="none"/>
  </g>
</svg>
